<svg xmlns="http://www.w3.org/2000/svg" xmlns:xlink="http://www.w3.org/1999/xlink" width="40.516" height="66.259" viewBox="0 0 40.516 66.259">
  <defs>
    <filter id="Path_1024" x="4.496" y="0" width="31.848" height="66.259" filterUnits="userSpaceOnUse">
      <feOffset dy="3" input="SourceAlpha"/>
      <feGaussianBlur stdDeviation="0.5" result="blur"/>
      <feFlood flood-opacity="0.161"/>
      <feComposite operator="in" in2="blur"/>
      <feComposite in="SourceGraphic"/>
    </filter>
  </defs>
  <g id="devops" transform="translate(40.516) rotate(90)">
    <ellipse id="Ellipse_19" data-name="Ellipse 19" cx="9.394" cy="9.394" rx="9.394" ry="9.394" transform="translate(1.247 11.071)" fill="#7abff9"/>
    <ellipse id="Ellipse_20" data-name="Ellipse 20" cx="4.006" cy="4.006" rx="4.006" ry="4.006" transform="translate(26.232 16.104)" fill="#7abff9"/>
    <circle id="Ellipse_21" data-name="Ellipse 21" cx="2.842" cy="2.842" r="2.842" transform="translate(52.381 0)" fill="#7abff9"/>
    <ellipse id="Ellipse_22" data-name="Ellipse 22" cx="1.085" cy="1.085" rx="1.085" ry="1.085" transform="translate(58.657 4.598)" fill="#7abff9"/>
    <ellipse id="Ellipse_23" data-name="Ellipse 23" cx="9.394" cy="9.394" rx="9.394" ry="9.394" transform="translate(40.461 11.071)" fill="#7abff9"/>
    <g id="Group_73" data-name="Group 73" transform="translate(0 5.672)">
      <g id="Group_72" data-name="Group 72" transform="translate(0)">
        <g transform="matrix(0, -1, 1, 0, 0, 34.84)" filter="url(#Path_1024)">
          <path id="Path_1024-2" data-name="Path 1024" d="M57.475,32.523a13.93,13.93,0,0,0-19.676.592l-2.645,2.822a1.913,1.913,0,0,0,2.783,2.625l2.645-2.822a10.094,10.094,0,1,1,.434,14.269L23.53,33.549a13.919,13.919,0,1,0,.592,19.676l2.625-2.783a1.913,1.913,0,1,0-2.783-2.625L21.34,50.6a10.087,10.087,0,1,1-.434-14.249L38.391,52.811A13.927,13.927,0,0,0,57.475,32.523Z" transform="translate(63.59 -0.08) rotate(90)"/>
        </g>
      </g>
    </g>
    <path id="Path_1025" data-name="Path 1025" d="M57.653,17.9,51.2,23.544l6.078,5.723" transform="translate(-41.112 -14.367)" fill="none" stroke="#000" stroke-linecap="round" stroke-miterlimit="10" stroke-width="2"/>
    <path id="Path_1026" data-name="Path 1026" d="M255.582,142.862l1.066-8.526L248.3,134.1" transform="translate(-199.313 -107.635)" fill="none" stroke="#000" stroke-linecap="round" stroke-miterlimit="10" stroke-width="2"/>
    <circle id="Ellipse_24" data-name="Ellipse 24" cx="2.842" cy="2.842" r="2.842" transform="translate(2.194 33.747)" fill="#7abff9"/>
    <ellipse id="Ellipse_25" data-name="Ellipse 25" cx="1.085" cy="1.085" rx="1.085" ry="1.085" transform="translate(8.47 38.346)" fill="#7abff9"/>
  </g>
</svg>
