<svg id="insurance" xmlns="http://www.w3.org/2000/svg" xmlns:xlink="http://www.w3.org/1999/xlink" width="71.833" height="64.198" viewBox="0 0 71.833 64.198">
  <defs>
    <filter id="Path_3286" x="9.825" y="13.906" width="52.226" height="50.292" filterUnits="userSpaceOnUse">
      <feOffset dy="3" input="SourceAlpha"/>
      <feGaussianBlur stdDeviation="0.5" result="blur"/>
      <feFlood flood-opacity="0.161"/>
      <feComposite operator="in" in2="blur"/>
      <feComposite in="SourceGraphic"/>
    </filter>
  </defs>
  <g id="Group_2554" data-name="Group 2554" transform="translate(22.672 5.716)">
    <g id="Group_2553" data-name="Group 2553">
      <path id="Path_3281" data-name="Path 3281" d="M117.449,65.8a1.784,1.784,0,0,0-1.749,1.749V72.39a1.749,1.749,0,1,0,3.5,0V67.549A1.729,1.729,0,0,0,117.449,65.8Z" transform="translate(-115.7 -65.8)"/>
    </g>
  </g>
  <path id="Path_3282" data-name="Path 3282" d="M73.8,154.773s19.025-27.13,43.574-.768c0,0-9.918-1.066-10.024,3.221,0,0-5.439-7.849-11.5,0,0,0-5.1-8.745-11.347,0C84.485,157.226,82.694,149.441,73.8,154.773Z" transform="translate(-60.065 -120.413)" fill="#42c8fc"/>
  <g id="Group_2556" data-name="Group 2556" transform="translate(51.508)">
    <g id="Group_2555" data-name="Group 2555">
      <path id="Path_3283" data-name="Path 3283" d="M252.649,39a1.743,1.743,0,0,0-1.749,1.749V55.807a1.743,1.743,0,0,0,1.749,1.749,1.7,1.7,0,0,0,1.749-1.749V40.749A1.847,1.847,0,0,0,252.649,39Z" transform="translate(-250.9 -39)"/>
    </g>
  </g>
  <g id="Group_2558" data-name="Group 2558" transform="translate(28.324)">
    <g id="Group_2557" data-name="Group 2557">
      <path id="Path_3284" data-name="Path 3284" d="M143.949,39a1.743,1.743,0,0,0-1.749,1.749V50.965a1.749,1.749,0,1,0,3.5,0V40.749A1.785,1.785,0,0,0,143.949,39Z" transform="translate(-142.2 -39)"/>
    </g>
  </g>
  <g id="Group_2560" data-name="Group 2560" transform="translate(16.764)">
    <g id="Group_2559" data-name="Group 2559">
      <path id="Path_3285" data-name="Path 3285" d="M89.749,39A1.743,1.743,0,0,0,88,40.749V55.807a1.743,1.743,0,0,0,1.749,1.749A1.7,1.7,0,0,0,91.5,55.807V40.749A1.743,1.743,0,0,0,89.749,39Z" transform="translate(-88 -39)"/>
    </g>
  </g>
  <g id="Group_2562" data-name="Group 2562" transform="translate(11.325 13.906)">
    <g id="Group_2561" data-name="Group 2561">
      <g transform="matrix(1, 0, 0, 1, -11.33, -13.91)" filter="url(#Path_3286)">
        <path id="Path_3286-2" data-name="Path 3286" d="M104.282,111.2a25.236,25.236,0,0,0-17.255-7A24.541,24.541,0,0,0,62.5,128.578v.064a1.749,1.749,0,0,0,3.5,0,4.2,4.2,0,0,1,1.152-2.815,3.844,3.844,0,0,1,2.815-1.152,4.2,4.2,0,0,1,2.815,1.152,3.844,3.844,0,0,1,1.152,2.815,1.749,1.749,0,0,0,3.5,0,4.2,4.2,0,0,1,1.152-2.815,3.844,3.844,0,0,1,2.815-1.152,4.2,4.2,0,0,1,2.815,1.152,3.844,3.844,0,0,1,1.152,2.815v16.38a4.78,4.78,0,0,0,1.472,3.5,5.042,5.042,0,0,0,3.5,1.472,4.78,4.78,0,0,0,3.5-1.472,5.042,5.042,0,0,0,1.472-3.5,1.749,1.749,0,1,0-3.5,0,1.447,1.447,0,0,1-.405,1.066,1.335,1.335,0,0,1-1,.405,1.215,1.215,0,0,1-1-.405,1.335,1.335,0,0,1-.405-1v-16.38a4.2,4.2,0,0,1,1.152-2.815,3.844,3.844,0,0,1,2.815-1.152,4.2,4.2,0,0,1,2.815,1.152,3.844,3.844,0,0,1,1.152,2.815,1.749,1.749,0,1,0,3.5,0,4.2,4.2,0,0,1,1.152-2.815,3.844,3.844,0,0,1,2.815-1.152,4.036,4.036,0,0,1,2.623,1,3.418,3.418,0,0,1,1.28,2.5,1.786,1.786,0,0,0,1.749,1.536,1.73,1.73,0,0,0,1.685-1.749A25.035,25.035,0,0,0,104.282,111.2Zm-.128,10.067a7.456,7.456,0,0,0-5.247,2.154l-.469.469a1.639,1.639,0,0,0-.469-.469,7.467,7.467,0,0,0-10.493,0l-.469.469a1.639,1.639,0,0,0-.469-.469,7.467,7.467,0,0,0-10.493,0l-.469.469a1.639,1.639,0,0,0-.469-.469,7.418,7.418,0,0,0-5.247-2.154,7.687,7.687,0,0,0-2.815.533,20.655,20.655,0,0,1,5.033-8,20.894,20.894,0,0,1,14.844-6.185,21.108,21.108,0,0,1,14.652,5.908,21.349,21.349,0,0,1,5.247,8.19A9.551,9.551,0,0,0,104.154,121.263Z" transform="translate(-51.17 -90.29)"/>
      </g>
    </g>
  </g>
  <g id="Group_2564" data-name="Group 2564" transform="translate(45.514 5.78)">
    <g id="Group_2563" data-name="Group 2563" transform="translate(0 0)">
      <path id="Path_3287" data-name="Path 3287" d="M224.549,66.1a1.785,1.785,0,0,0-1.749,1.749V72.69a1.749,1.749,0,0,0,3.5,0V67.849A1.692,1.692,0,0,0,224.549,66.1Z" transform="translate(-222.8 -66.1)"/>
    </g>
  </g>
  <g id="Group_2566" data-name="Group 2566" transform="translate(33.976 4.372)">
    <g id="Group_2565" data-name="Group 2565">
      <path id="Path_3288" data-name="Path 3288" d="M170.449,59.5a1.785,1.785,0,0,0-1.749,1.749V66.09a1.749,1.749,0,1,0,3.5,0V61.249A1.8,1.8,0,0,0,170.449,59.5Z" transform="translate(-168.7 -59.5)"/>
    </g>
  </g>
  <g id="Group_2568" data-name="Group 2568" transform="translate(39.948)">
    <g id="Group_2567" data-name="Group 2567">
      <path id="Path_3289" data-name="Path 3289" d="M198.513,39h-.064a1.743,1.743,0,0,0-1.749,1.749V50.965a1.749,1.749,0,0,0,3.5,0V40.685A1.885,1.885,0,0,0,198.513,39Z" transform="translate(-196.7 -39)"/>
    </g>
  </g>
  <circle id="Ellipse_100" data-name="Ellipse 100" cx="4.842" cy="4.842" r="4.842" transform="translate(0 13.714)" fill="#42c8fc"/>
  <ellipse id="Ellipse_101" data-name="Ellipse 101" cx="2.538" cy="2.538" rx="2.538" ry="2.538" transform="translate(6.249 24.357)" fill="#42c8fc"/>
  <circle id="Ellipse_102" data-name="Ellipse 102" cx="4.842" cy="4.842" r="4.842" transform="translate(62.15 12.498)" fill="#42c8fc"/>
  <ellipse id="Ellipse_103" data-name="Ellipse 103" cx="2.538" cy="2.538" rx="2.538" ry="2.538" transform="translate(59.612 22.928)" fill="#42c8fc"/>
</svg>
