<svg id="outsource" xmlns="http://www.w3.org/2000/svg" xmlns:xlink="http://www.w3.org/1999/xlink" width="64.936" height="56.579" viewBox="0 0 64.936 56.579">
  <defs>
    <filter id="Path_1057" x="1.821" y="0.022" width="55.056" height="56.556" filterUnits="userSpaceOnUse">
      <feOffset dy="3" input="SourceAlpha"/>
      <feGaussianBlur stdDeviation="0.5" result="blur"/>
      <feFlood flood-opacity="0.161"/>
      <feComposite operator="in" in2="blur"/>
      <feComposite in="SourceGraphic"/>
    </filter>
  </defs>
  <ellipse id="Ellipse_40" data-name="Ellipse 40" cx="17.906" cy="22.281" rx="17.906" ry="22.281" transform="translate(5.161 3.77)" fill="#f9d180"/>
  <ellipse id="Ellipse_41" data-name="Ellipse 41" cx="5.206" cy="6.395" rx="5.206" ry="6.395" transform="translate(41.286 26.679)" fill="#f9d180"/>
  <g id="Group_123" data-name="Group 123" transform="translate(3.321 0.022)">
    <g id="Group_119" data-name="Group 119">
      <g transform="matrix(1, 0, 0, 1, -3.32, -0.02)" filter="url(#Path_1057)">
        <path id="Path_1057-2" data-name="Path 1057" d="M56.217,58.587c.022-.09.045-.179.067-.247.067,0,.112.022.18.022l.045-.045a10.926,10.926,0,0,1-1.773-5.991,11.073,11.073,0,0,1,3.814-8.347h-.942a63.19,63.19,0,0,0-.718-8.235A37.89,37.89,0,0,0,66.27,33.1a22.859,22.859,0,0,1,3.388,8.863,11.082,11.082,0,0,1,3.3,1.93A25.831,25.831,0,0,0,68.2,30.472a.078.078,0,0,0-.022-.045,1.4,1.4,0,0,0-.314-.4,26.04,26.04,0,0,0-41.824,0,1.935,1.935,0,0,0-.314.4.078.078,0,0,1-.022.045,26,26,0,0,0,0,30.112.078.078,0,0,0,.022.045,1.315,1.315,0,0,0,.292.381,25.939,25.939,0,0,0,25.31,10.164c0-.09-.022-.2-.022-.314A17.216,17.216,0,0,1,56.217,58.587Zm-2.4-3.68a67.864,67.864,0,0,0-6.866-.359,61.9,61.9,0,0,0-6.866.359,58.937,58.937,0,0,1-.718-7.831H54.535A63.349,63.349,0,0,1,53.817,54.907ZM39.344,44a55.4,55.4,0,0,1,.718-7.831,67.868,67.868,0,0,0,6.866.359,61.905,61.905,0,0,0,6.866-.359A58.932,58.932,0,0,1,54.512,44ZM64.362,30.584a36.294,36.294,0,0,1-8.078,2.154,35.894,35.894,0,0,0-1.458-4.959,20.3,20.3,0,0,0-2.289-4.532A23.009,23.009,0,0,1,64.362,30.584ZM46.928,22.731c2.311,0,4.8,4.039,6.283,10.411-2.019.2-4.129.314-6.283.314s-4.263-.112-6.283-.314C42.126,26.77,44.617,22.731,46.928,22.731Zm-5.587.516a20.3,20.3,0,0,0-2.289,4.532,38.222,38.222,0,0,0-1.458,4.959,37.2,37.2,0,0,1-8.078-2.154A22.829,22.829,0,0,1,41.341,23.247ZM27.609,33.1a38.462,38.462,0,0,0,9.379,2.648,60.13,60.13,0,0,0-.718,8.235H24.019A23.045,23.045,0,0,1,27.609,33.1Zm0,24.861A22.829,22.829,0,0,1,24,47.054H36.27a63.187,63.187,0,0,0,.718,8.235A39.454,39.454,0,0,0,27.609,57.959Zm1.885,2.513a36.294,36.294,0,0,1,8.078-2.154,35.9,35.9,0,0,0,1.458,4.959,20.3,20.3,0,0,0,2.289,4.532A23.009,23.009,0,0,1,29.494,60.472Zm17.434,7.853c-2.311,0-4.8-4.039-6.283-10.411,2.019-.2,4.129-.314,6.283-.314s4.263.112,6.283.314C51.73,64.286,49.239,68.325,46.928,68.325Z" transform="translate(-17.58 -19.48)"/>
      </g>
    </g>
    <g id="Group_122" data-name="Group 122" transform="translate(32.131 23.784)">
      <g id="Group_120" data-name="Group 120" transform="translate(3.411)">
        <path id="Path_1058" data-name="Path 1058" d="M188.342,143.607a9.04,9.04,0,0,1-9.042-9.042,9.065,9.065,0,1,1,9.042,9.042Zm0-15.235a6.17,6.17,0,1,0,6.171,6.17A6.167,6.167,0,0,0,188.342,128.372Z" transform="translate(-179.3 -125.5)"/>
      </g>
      <g id="Group_121" data-name="Group 121" transform="translate(0 14.466)">
        <path id="Path_1059" data-name="Path 1059" d="M187.211,204.944H165.917a1.824,1.824,0,0,1-1.817-1.817c0-5.452,2.737-10.523,6.978-12.924a1.843,1.843,0,0,1,2.221.337l3.276,3.411,3.276-3.411a1.838,1.838,0,0,1,2.221-.337h0c4.241,2.4,6.978,7.472,6.978,12.924A1.844,1.844,0,0,1,187.211,204.944Zm-20.194-2.895h19.095a11.956,11.956,0,0,0-4.779-8.908l-4.757,4.981-4.757-4.981A11.907,11.907,0,0,0,167.017,202.049Z" transform="translate(-164.1 -189.971)"/>
      </g>
    </g>
  </g>
  <ellipse id="Ellipse_42" data-name="Ellipse 42" cx="3.298" cy="3.298" rx="3.298" ry="3.298" transform="translate(58.339 17.928)" fill="#f9d180"/>
  <ellipse id="Ellipse_43" data-name="Ellipse 43" cx="1.077" cy="1.077" rx="1.077" ry="1.077" transform="translate(56.387 24.525)" fill="#f9d180"/>
  <ellipse id="Ellipse_44" data-name="Ellipse 44" cx="3.298" cy="3.298" rx="3.298" ry="3.298" transform="translate(4.129 0)" fill="#f9d180"/>
  <ellipse id="Ellipse_45" data-name="Ellipse 45" cx="1.077" cy="1.077" rx="1.077" ry="1.077" transform="translate(0 1.077)" fill="#77baf2"/>
  <ellipse id="Ellipse_46" data-name="Ellipse 46" cx="3.298" cy="3.298" rx="3.298" ry="3.298" transform="translate(4.129 43.575)" fill="#f9d180"/>
  <ellipse id="Ellipse_47" data-name="Ellipse 47" cx="1.077" cy="1.077" rx="1.077" ry="1.077" transform="translate(10.838 51.002)" fill="#77baf2"/>
</svg>
