<svg xmlns="http://www.w3.org/2000/svg" xmlns:xlink="http://www.w3.org/1999/xlink" width="65.12" height="74.656" viewBox="0 0 65.12 74.656">
  <defs>
    <filter id="Path_30" x="0" y="0" width="65.12" height="74.656" filterUnits="userSpaceOnUse">
      <feOffset dy="3" input="SourceAlpha"/>
      <feGaussianBlur stdDeviation="0.5" result="blur"/>
      <feFlood flood-opacity="0.161"/>
      <feComposite operator="in" in2="blur"/>
      <feComposite in="SourceGraphic"/>
    </filter>
    <filter id="Path_31" x="8.181" y="49.821" width="10.86" height="14.895" filterUnits="userSpaceOnUse">
      <feOffset dy="3" input="SourceAlpha"/>
      <feGaussianBlur stdDeviation="0.5" result="blur-2"/>
      <feFlood flood-opacity="0.161"/>
      <feComposite operator="in" in2="blur-2"/>
      <feComposite in="SourceGraphic"/>
    </filter>
    <filter id="Path_32" x="9.458" y="52.886" width="14.684" height="21.259" filterUnits="userSpaceOnUse">
      <feOffset dy="3" input="SourceAlpha"/>
      <feGaussianBlur stdDeviation="0.5" result="blur-3"/>
      <feFlood flood-opacity="0.161"/>
      <feComposite operator="in" in2="blur-3"/>
      <feComposite in="SourceGraphic"/>
    </filter>
    <filter id="Path_33" x="18.407" y="55.965" width="10.86" height="14.895" filterUnits="userSpaceOnUse">
      <feOffset dy="3" input="SourceAlpha"/>
      <feGaussianBlur stdDeviation="0.5" result="blur-4"/>
      <feFlood flood-opacity="0.161"/>
      <feComposite operator="in" in2="blur-4"/>
      <feComposite in="SourceGraphic"/>
    </filter>
  </defs>
  <g id="startup" transform="translate(30.549 -2.851) rotate(31)">
    <path id="Path_29" data-name="Path 29" d="M9.6,0s14.21,14.706,8.557,44.4H4.1S-8.1,22.5,9.6,0Z" transform="translate(9.064 4.611)" fill="#ff6565"/>
    <g id="Group_1487" data-name="Group 1487" transform="translate(3.032 1.504)">
      <g id="Group_1486" data-name="Group 1486" transform="translate(0)">
        <g transform="matrix(0.86, -0.52, 0.52, 0.86, -27.75, 16.67)" filter="url(#Path_30)">
          <path id="Path_30-2" data-name="Path 30" d="M31.58,34.573A42.952,42.952,0,0,0,19.268.414a1.516,1.516,0,0,0-2.083,0A42.935,42.935,0,0,0,4.874,34.573,18.191,18.191,0,0,0,5.03,59.522a1.48,1.48,0,0,0,2.494-1.388,16.605,16.605,0,0,1-.383-2.819A10.96,10.96,0,0,1,9.124,49a1.506,1.506,0,0,0,.708.184H26.621A1.506,1.506,0,0,0,27.33,49a10.96,10.96,0,0,1,1.983,6.319,20.341,20.341,0,0,1-.383,2.819,1.478,1.478,0,0,0,2.494,1.388,18.191,18.191,0,0,0,.156-24.949ZM18.22,3.588A39.424,39.424,0,0,1,24.68,13H11.773A38.685,38.685,0,0,1,18.22,3.588ZM4.335,53.317A15.309,15.309,0,0,1,5.44,38.625c.014.113,1.558,6.021,2.153,7.537a13.762,13.762,0,0,0-3.259,7.155Zm21.308-7.1H10.8a39.985,39.985,0,0,1-.34-30.291H25.984A39.985,39.985,0,0,1,25.644,46.219Zm3.216-.057c.822-2.111,2.139-7.452,2.153-7.537a15.1,15.1,0,0,1,2.479,8.345,15.35,15.35,0,0,1-1.374,6.347,13.988,13.988,0,0,0-3.259-7.155Z" transform="translate(32.37 0) rotate(31)"/>
        </g>
        <g transform="matrix(0.86, -0.52, 0.52, 0.86, -27.75, 16.67)" filter="url(#Path_31)">
          <path id="Path_31-2" data-name="Path 31" d="M1.473,0A1.472,1.472,0,0,0,0,1.473v7.41a1.473,1.473,0,1,0,2.947,0V1.473A1.472,1.472,0,0,0,1.473,0Z" transform="translate(15.02 49.82) rotate(31)"/>
        </g>
        <g transform="matrix(0.86, -0.52, 0.52, 0.86, -27.75, 16.67)" filter="url(#Path_32)">
          <path id="Path_32-2" data-name="Path 32" d="M1.488,0A1.478,1.478,0,0,0,.439.439L.425.453a1.481,1.481,0,0,0-.368.652A1.786,1.786,0,0,0,0,1.5V16.307a1.4,1.4,0,0,0,.043.34,1.47,1.47,0,0,0,2.862,0,1.4,1.4,0,0,0,.043-.34V1.473a1.222,1.222,0,0,0-.057-.4A1.433,1.433,0,0,0,1.488,0Z" transform="translate(20.12 52.89) rotate(31)"/>
        </g>
        <g transform="matrix(0.86, -0.52, 0.52, 0.86, -27.75, 16.67)" filter="url(#Path_33)">
          <path id="Path_33-2" data-name="Path 33" d="M1.473,0A1.472,1.472,0,0,0,0,1.473v7.41a1.473,1.473,0,1,0,2.947,0V1.473A1.455,1.455,0,0,0,1.473,0Z" transform="translate(25.24 55.97) rotate(31)"/>
        </g>
      </g>
    </g>
    <g id="Group_1488" data-name="Group 1488" transform="translate(14.38 23.808)">
      <path id="Path_34" data-name="Path 34" d="M6.985,13.969a6.985,6.985,0,1,1,6.985-6.985A6.99,6.99,0,0,1,6.985,13.969Zm0-11.844a4.86,4.86,0,1,0,4.86,4.86A4.867,4.867,0,0,0,6.985,2.125Z"/>
    </g>
    <circle id="Ellipse_9" data-name="Ellipse 9" cx="2.04" cy="2.04" r="2.04" transform="translate(0 30.793)" fill="#ffc4c4"/>
    <circle id="Ellipse_10" data-name="Ellipse 10" cx="0.779" cy="0.779" r="0.779" transform="translate(4.505 34.094)" fill="#ffc4c4"/>
    <circle id="Ellipse_11" data-name="Ellipse 11" cx="2.04" cy="2.04" r="2.04" transform="translate(28.789 3.562)" fill="#ffc4c4"/>
    <circle id="Ellipse_12" data-name="Ellipse 12" cx="0.779" cy="0.779" r="0.779" transform="translate(31.112 9.017)" fill="#ffc4c4"/>
    <circle id="Ellipse_13" data-name="Ellipse 13" cx="2.04" cy="2.04" r="2.04" transform="translate(25.757 66.07)" fill="#ffc4c4"/>
    <circle id="Ellipse_14" data-name="Ellipse 14" cx="0.779" cy="0.779" r="0.779" transform="translate(30.05 63.52)" fill="#ffc4c4"/>
  </g>
</svg>
