<svg id="bank" xmlns="http://www.w3.org/2000/svg" width="260.25" height="314.574" viewBox="0 0 260.25 314.574">
  <path id="Path_641" data-name="Path 641" d="M3.331,296.952l86.981-50.158a28.172,28.172,0,0,1,28.167.007l138.439,79.927a6.573,6.573,0,0,1,3.31,5.443l.022,0v16.449h0a6.594,6.594,0,0,1-3.331,5.734l-86.978,50.158a28.17,28.17,0,0,1-28.167-.007L3.329,324.581a6.585,6.585,0,0,1-3.31-5.46l-.019,0V302.948l.014,0A6.591,6.591,0,0,1,3.331,296.952Zm0,0" transform="translate(0.001 -93.711)" fill="#fff"/>
  <path id="Path_642" data-name="Path 642" d="M3.33,308.49l138.442,79.927a28.178,28.178,0,0,0,28.167.007l86.979-50.158a6.66,6.66,0,0,0,0-11.537L118.48,246.8a28.178,28.178,0,0,0-28.167-.007L3.335,296.953A6.659,6.659,0,0,0,3.33,308.49Zm0,0" transform="translate(0 -93.711)" fill="#fff0c5"/>
  <path id="Path_643" data-name="Path 643" d="M53.132,41.453A7.466,7.466,0,0,1,56.863,35.7l57.73-33.331a17.648,17.648,0,0,1,17.644,0L228.948,58.2a7.492,7.492,0,0,1,3.78,6.55V230.214a7.489,7.489,0,0,1-3.78,6.548l-57.73,33.331a17.651,17.651,0,0,1-17.645,0l-96.71-55.836a7.509,7.509,0,0,1-3.737-7.34Zm0,0" transform="translate(-5.094 -0.001)" fill="#f9db87"/>
  <path id="Path_644" data-name="Path 644" d="M201.27,409.751a6.154,6.154,0,0,0,6.154-6.156V345.021a6.154,6.154,0,1,0-12.307,0V403.6A6.154,6.154,0,0,0,201.27,409.751Zm0,0" transform="translate(-67.054 -130.667)" fill="#ffd45e"/>
  <path id="Path_645" data-name="Path 645" d="M236.528,389.548a6.154,6.154,0,0,0,6.154-6.156V324.818a6.154,6.154,0,1,0-12.307,0v58.575A6.154,6.154,0,0,0,236.528,389.548Zm0,0" transform="translate(-123.975 -122.877)" fill="#ffd45e"/>
  <path id="Path_646" data-name="Path 646" d="M300.977,352.068a6.155,6.155,0,0,0,6.156-6.156V287.337a6.155,6.155,0,0,0-12.31,0v58.575A6.154,6.154,0,0,0,300.977,352.068Zm0,0" transform="translate(-228.024 -108.425)" fill="#ffd45e"/>
  <path id="Path_647" data-name="Path 647" d="M336.235,331.862a6.155,6.155,0,0,0,6.156-6.154V267.134a6.155,6.155,0,0,0-12.31,0v58.575A6.154,6.154,0,0,0,336.235,331.862Zm0,0" transform="translate(-284.944 -100.634)" fill="#ffd45e"/>
  <path id="Path_648" data-name="Path 648" d="M114.6,252.441v75.113a7.489,7.489,0,0,1-3.78,6.548l-57.73,33.331V292.32l57.73-33.331A7.489,7.489,0,0,0,114.6,252.441Zm0,0" transform="translate(113.039 -97.341)" fill="#ffd45e"/>
  <path id="Path_649" data-name="Path 649" d="M53.127,41.535v-.082h0a7.469,7.469,0,0,1,3.732-5.76l57.73-33.329a17.648,17.648,0,0,1,17.644,0L228.948,58.2a7.492,7.492,0,0,1,3.78,6.55v75.113a7.488,7.488,0,0,1-3.78,6.547l-57.73,33.331a17.648,17.648,0,0,1-17.645,0l-96.71-55.836a7.508,7.508,0,0,1-3.737-7.339S53.083,42.008,53.127,41.535Zm0,0" transform="translate(-5.094 -0.001)" fill="#f9db87"/>
  <path id="Path_650" data-name="Path 650" d="M53.13,189.723a7.51,7.51,0,0,0,3.737,7.339l96.71,55.834a17.636,17.636,0,0,0,17.645,0l57.73-33.329a7.492,7.492,0,0,0,3.78-6.55v15.24a7.489,7.489,0,0,1-3.78,6.548l-57.73,33.331a17.648,17.648,0,0,1-17.645,0L56.866,212.3a7.493,7.493,0,0,1-3.737-7.236l-.044-.021Zm0,0" transform="translate(-5.097 -73.158)" fill="#fff0c5"/>
  <path id="Path_651" data-name="Path 651" d="M254.3,354.814l23.321,13.464V337.4a7.5,7.5,0,0,0-3.134-5.988l-17.052-9.847c-1.731-1-3.135.062-3.135,2.371Zm0,0" transform="translate(-173.621 -123.852)" fill="#f6b70a"/>
  <path id="Path_652" data-name="Path 652" d="M56.866,48.793l96.71,55.836a17.648,17.648,0,0,0,17.645,0L228.951,71.3a7.562,7.562,0,0,0,0-13.1L132.24,2.364a17.648,17.648,0,0,0-17.644,0L56.866,35.7A7.562,7.562,0,0,0,56.866,48.793Zm0,0" transform="translate(-5.097 -0.001)" fill="#fff0c5"/>
  <path id="Path_653" data-name="Path 653" d="M114.6,105.387V180.5a7.489,7.489,0,0,1-3.78,6.55l-57.73,33.329V145.265l57.73-33.331A7.488,7.488,0,0,0,114.6,105.387Zm0,0" transform="translate(113.039 -40.638)" fill="#ffd45e"/>
  <path id="Path_654" data-name="Path 654" d="M135.124,21.332a4.537,4.537,0,0,0-2.268.61L83.445,50.468,171.837,101.5a4.537,4.537,0,0,0,4.536,0l49.411-28.526L137.392,21.942a4.537,4.537,0,0,0-2.268-.61" transform="translate(-16.803 -8.226)" fill="#fff"/>
  <path id="Path_655" data-name="Path 655" d="M137.392,31.267a4.538,4.538,0,0,0-4.536,0L91.519,55.133,83.445,50.47l49.411-28.526a4.538,4.538,0,0,1,4.536,0l88.393,51.034-8.074,4.661Zm0,0" transform="translate(-16.803 -8.228)" fill="#ffd45e"/>
  <path id="Path_656" data-name="Path 656" d="M292.969,310.346a4.953,4.953,0,0,0,3.929-7.961l-51.526-67.359-39.85,17.019a4.951,4.951,0,1,0,3.881,9.11l32.775-14L289.033,308.4A4.939,4.939,0,0,0,292.969,310.346Zm0,0" transform="translate(-162.089 -90.627)" fill="#f6b70a"/>
  <path id="Path_657" data-name="Path 657" d="M216.718,268.768l32.775-14.007,46.855,61.253a4.849,4.849,0,0,0,1.119,1.056l-82.318-47.926A4.93,4.93,0,0,0,216.718,268.768Zm0,0" transform="translate(-169.403 -98.236)" fill="#fff0c5"/>
  <path id="Path_658" data-name="Path 658" d="M265.041,301.376a4.952,4.952,0,0,0,.924-6.941l-51.528-67.361s-40.03,17.107-40.119,17.153l17.494-12.652c.026-.017,39.945-17.173,39.945-17.173l51.528,67.359a4.951,4.951,0,0,1-.923,6.941Zm0,0" transform="translate(-131.156 -82.674)" fill="#fff"/>
  <path id="Path_659" data-name="Path 659" d="M118.459,182.834l9.679-5.611c1.944-1.123,3.521.068,3.521,2.659V208.2c0,2.592-1.577,5.6-3.521,6.725l-9.679,5.613c-1.944,1.121-3.521-.069-3.521-2.662V189.559C114.938,186.967,116.515,183.957,118.459,182.834Zm0,0" transform="translate(57.974 -68.174)" fill="#fff"/>
  <path id="Path_662" data-name="Path 662" d="M67.087,153.091l9.679-5.614c1.944-1.121,3.518.069,3.518,2.662v28.315c0,2.592-1.574,5.6-3.518,6.725l-9.679,5.614c-1.944,1.121-3.521-.069-3.521-2.662V159.816C63.566,157.224,65.143,154.212,67.087,153.091Zm0,0" transform="translate(140.91 -56.705)" fill="#fff"/>
  <path id="Path_665" data-name="Path 665" d="M118.459,328.322l9.679-5.611c1.944-1.124,3.521.069,3.521,2.662v28.313c0,2.594-1.577,5.6-3.521,6.727l-9.679,5.611c-1.944,1.123-3.521-.068-3.521-2.662V335.048C114.938,332.455,116.515,329.446,118.459,328.322Zm0,0" transform="translate(57.974 -124.275)" fill="#fff"/>
  <path id="Path_668" data-name="Path 668" d="M67.087,298.58l9.679-5.611c1.944-1.123,3.518.068,3.518,2.66v28.315c0,2.592-1.574,5.6-3.518,6.725l-9.679,5.613c-1.944,1.121-3.521-.069-3.521-2.662V305.305C63.566,302.713,65.143,299.7,67.087,298.58Zm0,0" transform="translate(140.91 -112.806)" fill="#fff"/>
  <g id="coin" transform="translate(87.401 -42.239)">
    <path id="Path_669" data-name="Path 669" d="M63.2,74.162c0,.065,0,.13,0,.195.1-4.786-3-9.6-9.313-13.24-12.365-7.139-32.418-7.139-44.7,0C2.749,64.853-.3,69.815.034,74.72L0,86.812c-.013,4.712,3.1,9.431,9.323,13.025,12.373,7.144,32.37,7.144,44.663,0,6.107-3.549,9.165-8.194,9.178-12.845l.028-9.284c.009-.234.008-.469,0-.7Z" transform="translate(0 -0.001)" fill="#fece00"/>
    <path id="Path_670" data-name="Path 670" d="M54.129,86.97c12.373,7.144,12.44,18.726.146,25.87s-32.29,7.144-44.663,0S-2.827,94.114,9.466,86.97,41.756,79.826,54.129,86.97Z" transform="translate(-0.253 -22.66)" fill="#feda44"/>
    <path id="Path_671" data-name="Path 671" d="M63.2,203.544l-.036,12.831c-.013,4.651-3.07,9.3-9.178,12.845-12.293,7.144-32.29,7.144-44.663,0C3.1,225.625-.014,220.906,0,216.195l.036-12.831c-.013,4.712,3.1,9.431,9.323,13.025,12.373,7.144,32.37,7.144,44.663,0C60.129,212.84,63.186,208.2,63.2,203.544Z" transform="translate(0 -129.383)" fill="#fece00"/>
    <g id="Group_587" data-name="Group 587" transform="translate(15.638 65.692)">
      <g id="Group_583" data-name="Group 583" transform="translate(0 0)">
        <path id="Path_672" data-name="Path 672" d="M157.277,141.825l.021-.012.013-4.443-2-1.154-2.9,1.688a17.529,17.529,0,0,0-3.21-1.135,14.824,14.824,0,0,0-3.391-.443,14.651,14.651,0,0,0-3.4.35,11.157,11.157,0,0,0-3.179,1.246,5.693,5.693,0,0,0-1.681,1.362,2.279,2.279,0,0,0-.51,1.47c0-.021,0-.043,0-.064l-.013,4.443c0,.021,0,.043,0,.064a3.413,3.413,0,0,0,.556,1.672l.011.018-1.311.762a10.253,10.253,0,0,1-1.551-1.446,12.771,12.771,0,0,1-1.077-1.42,6.072,6.072,0,0,1-.6-1.145,2.59,2.59,0,0,1-.149-.534V143l-6.2,1.185-.013,4.443a9.233,9.233,0,0,0,1.851,3c.027.031.058.06.085.09l-.293.17-.013,4.443,2,1.154,3.336-1.939a18.044,18.044,0,0,0,3.081,1.278,15.1,15.1,0,0,0,3.333.643,12.784,12.784,0,0,0,3.435-.2,10.758,10.758,0,0,0,3.368-1.287,5.8,5.8,0,0,0,1.965-1.664,2.528,2.528,0,0,0,.461-1.408l.013-4.443c0,.012,0,.023,0,.035a2.273,2.273,0,0,0-.019-.356,3.936,3.936,0,0,0-.7-1.648l1.281-.744a7.833,7.833,0,0,1,1.22,1.153,10.71,10.71,0,0,1,.871,1.172,6.38,6.38,0,0,1,.51.943,1.685,1.685,0,0,1,.133.439v.071l5.994-1.07.013-4.443A14.76,14.76,0,0,0,157.277,141.825Z" transform="translate(-126.694 -136.216)" fill="#eebf00"/>
        <path id="Path_673" data-name="Path 673" d="M354.018,145.564l-.012,4.443-2.9,1.688.012-4.443Z" transform="translate(-323.402 -144.41)" fill="#eebf00"/>
      </g>
      <path id="Path_674" data-name="Path 674" d="M268.6,171.9l.013-4.443c0-.308.215-.586.64-.833a3.812,3.812,0,0,1,3.695.2l-.013,4.443a3.812,3.812,0,0,0-3.695-.2C268.816,171.315,268.6,171.594,268.6,171.9Z" transform="translate(-251.085 -162.531)" fill="#fece00"/>
      <path id="Path_675" data-name="Path 675" d="M176.869,195.684l.013-4.443a.242.242,0,0,1,0-.046l-.013,4.443A.274.274,0,0,0,176.869,195.684Z" transform="translate(-170.676 -184.409)" fill="#d2edda"/>
      <path id="Path_676" data-name="Path 676" d="M286.725,177.515l-.013,4.442L282.8,184.23l.013-4.442Z" transform="translate(-263.533 -172.417)" fill="#eebf00"/>
      <g id="Group_584" data-name="Group 584" transform="translate(10.326 4.474)">
        <path id="Path_677" data-name="Path 677" d="M210.351,176.9l.013-4.443c0,.021,0,.043,0,.064a3.414,3.414,0,0,0,.556,1.672,12.5,12.5,0,0,0,1.526,1.962l-.013,4.443a12.487,12.487,0,0,1-1.526-1.962,3.413,3.413,0,0,1-.556-1.672Q210.351,176.933,210.351,176.9Z" transform="translate(-210.351 -172.458)" fill="#fece00"/>
        <path id="Path_678" data-name="Path 678" d="M317.235,181.254l-.013,4.443a1.486,1.486,0,0,0-.137-.472,6.362,6.362,0,0,0-.51-.943,10.753,10.753,0,0,0-.871-1.172,7.828,7.828,0,0,0-1.22-1.153l.013-4.443a7.833,7.833,0,0,1,1.22,1.153,10.723,10.723,0,0,1,.871,1.172,6.38,6.38,0,0,1,.51.943A1.488,1.488,0,0,1,317.235,181.254Z" transform="translate(-301.629 -176.891)" fill="#fece00"/>
      </g>
      <path id="Path_679" data-name="Path 679" d="M342.65,199.445l-.013,4.442-5.994,1.07.013-4.442Z" transform="translate(-310.728 -191.64)" fill="#eebf00"/>
      <g id="Group_585" data-name="Group 585" transform="translate(12.409 8.173)">
        <path id="Path_680" data-name="Path 680" d="M228.224,203.462l-.013,4.442-.988-1.036.013-4.442Z" transform="translate(-227.224 -202.426)" fill="#fece00"/>
        <path id="Path_681" data-name="Path 681" d="M243.647,220.824l-.013,4.443a.767.767,0,0,0-.038-.236,4.343,4.343,0,0,0-.86-1.38l.013-4.443a4.338,4.338,0,0,1,.86,1.38A.767.767,0,0,1,243.647,220.824Z" transform="translate(-240.822 -217.137)" fill="#fece00"/>
      </g>
      <path id="Path_682" data-name="Path 682" d="M218.246,219.21l-.013,4.442-3.45,2.005.013-4.443Z" transform="translate(-203.91 -208.966)" fill="#eebf00"/>
      <g id="Group_586" data-name="Group 586" transform="translate(0 7.972)">
        <path id="Path_683" data-name="Path 683" d="M306.586,235.495l-.013,4.443a2.529,2.529,0,0,1-.461,1.408l.013-4.443A2.53,2.53,0,0,0,306.586,235.495Z" transform="translate(-283.966 -231.212)" fill="#fece00"/>
        <path id="Path_684" data-name="Path 684" d="M131.7,206.546l-.013,4.443a17.026,17.026,0,0,1-3.146-2.747,9.23,9.23,0,0,1-1.851-3l.013-4.443a9.233,9.233,0,0,0,1.851,3A17.028,17.028,0,0,0,131.7,206.546Z" transform="translate(-126.696 -200.798)" fill="#fece00"/>
        <path id="Path_685" data-name="Path 685" d="M141.912,264.368l-.013,4.443-2-1.154.013-4.443Z" transform="translate(-138.271 -255.51)" fill="#fece00"/>
      </g>
      <path id="Path_686" data-name="Path 686" d="M159.441,256.857l-.013,4.443-3.336,1.939.013-4.443Z" transform="translate(-152.463 -241.966)" fill="#eebf00"/>
      <path id="Path_687" data-name="Path 687" d="M148.945,149.879a5.8,5.8,0,0,1-1.965,1.664,10.755,10.755,0,0,1-3.368,1.287,12.79,12.79,0,0,1-3.435.2,15.086,15.086,0,0,1-3.333-.643,18.043,18.043,0,0,1-3.081-1.278l-3.336,1.939-2-1.154,3.366-1.956a17.031,17.031,0,0,1-3.146-2.747,9.23,9.23,0,0,1-1.851-3L133,143a1.619,1.619,0,0,0,.149.634,6.067,6.067,0,0,0,.6,1.145,12.756,12.756,0,0,0,1.077,1.42,10.26,10.26,0,0,0,1.551,1.446l3.826-2.224-.988-1.036a12.486,12.486,0,0,1-1.526-1.962,3.413,3.413,0,0,1-.556-1.672,2.278,2.278,0,0,1,.51-1.47,5.694,5.694,0,0,1,1.681-1.362,11.153,11.153,0,0,1,3.179-1.246,14.651,14.651,0,0,1,3.4-.35,14.829,14.829,0,0,1,3.391.443,17.551,17.551,0,0,1,3.21,1.135l2.9-1.688,2,1.154-2.9,1.688a11.44,11.44,0,0,1,2.7,2.524,15.369,15.369,0,0,1,1.511,2.44l-5.994,1.07a1.155,1.155,0,0,0-.133-.51,6.371,6.371,0,0,0-.51-.943,10.723,10.723,0,0,0-.871-1.172,7.83,7.83,0,0,0-1.22-1.153l-3.911,2.273.7.668a19.831,19.831,0,0,1,1.787,2.048,4.1,4.1,0,0,1,.832,1.847A2.448,2.448,0,0,1,148.945,149.879Zm-11.273-1.413q2.315,1.239,3.752.4c.5-.29.684-.632.558-1.027a4.344,4.344,0,0,0-.86-1.38l-3.451,2.005m7.441-5.9,3.537-2.055a3.812,3.812,0,0,0-3.695-.2c-.48.279-.69.6-.63.953a2.847,2.847,0,0,0,.788,1.3" transform="translate(-126.786 -136.217)" fill="#ffe577"/>
      <path id="Path_688" data-name="Path 688" d="M198.313,246.9l-.013,4.443A5.8,5.8,0,0,1,196.336,253a10.755,10.755,0,0,1-3.368,1.287,12.791,12.791,0,0,1-3.435.2,15.085,15.085,0,0,1-3.333-.643,18.043,18.043,0,0,1-3.081-1.278l.013-4.443a18.045,18.045,0,0,0,3.081,1.278,15.1,15.1,0,0,0,3.333.643,12.784,12.784,0,0,0,3.435-.2,10.754,10.754,0,0,0,3.368-1.287A5.8,5.8,0,0,0,198.313,246.9Z" transform="translate(-176.154 -233.236)" fill="#fece00"/>
    </g>
    <path id="Path_689" data-name="Path 689" d="M110.691,106.155l-.009,3.175c.01-3.556-2.332-7.118-7.021-9.826-9.317-5.379-24.431-5.379-33.689,0-4.6,2.672-6.9,6.178-6.91,9.688l.009-3.175c.01-3.511,2.312-7.016,6.91-9.688,9.258-5.38,24.372-5.38,33.689,0C108.359,99.037,110.7,102.6,110.691,106.155Z" transform="translate(-55.277 -32.024)" fill="#fece00"/>
    <path id="Path_690" data-name="Path 690" d="M53.937,61.115C66.3,68.255,66.368,79.87,54.083,87.01s-32.338,7.139-44.7,0-12.43-18.755-.146-25.893S41.572,53.976,53.937,61.115Zm-39.069,22.7c9.319,5.38,24.432,5.38,33.689,0s9.209-14.135-.11-19.515-24.431-5.379-33.689,0-9.207,14.134.11,19.513" transform="translate(-0.055 0)" fill="#ffe577"/>
  </g>
  <g id="coin-2" data-name="coin" transform="translate(124.401 -20.239)">
    <path id="Path_669-2" data-name="Path 669" d="M63.2,74.162c0,.065,0,.13,0,.195.1-4.786-3-9.6-9.313-13.24-12.365-7.139-32.418-7.139-44.7,0C2.749,64.853-.3,69.815.034,74.72L0,86.812c-.013,4.712,3.1,9.431,9.323,13.025,12.373,7.144,32.37,7.144,44.663,0,6.107-3.549,9.165-8.194,9.178-12.845l.028-9.284c.009-.234.008-.469,0-.7Z" transform="translate(0 -0.001)" fill="#fece00"/>
    <path id="Path_670-2" data-name="Path 670" d="M54.129,86.97c12.373,7.144,12.44,18.726.146,25.87s-32.29,7.144-44.663,0S-2.827,94.114,9.466,86.97,41.756,79.826,54.129,86.97Z" transform="translate(-0.253 -22.66)" fill="#feda44"/>
    <path id="Path_671-2" data-name="Path 671" d="M63.2,203.544l-.036,12.831c-.013,4.651-3.07,9.3-9.178,12.845-12.293,7.144-32.29,7.144-44.663,0C3.1,225.625-.014,220.906,0,216.195l.036-12.831c-.013,4.712,3.1,9.431,9.323,13.025,12.373,7.144,32.37,7.144,44.663,0C60.129,212.84,63.186,208.2,63.2,203.544Z" transform="translate(0 -129.383)" fill="#fece00"/>
    <g id="Group_587-2" data-name="Group 587" transform="translate(15.638 65.692)">
      <g id="Group_583-2" data-name="Group 583" transform="translate(0 0)">
        <path id="Path_672-2" data-name="Path 672" d="M157.277,141.825l.021-.012.013-4.443-2-1.154-2.9,1.688a17.529,17.529,0,0,0-3.21-1.135,14.824,14.824,0,0,0-3.391-.443,14.651,14.651,0,0,0-3.4.35,11.157,11.157,0,0,0-3.179,1.246,5.693,5.693,0,0,0-1.681,1.362,2.279,2.279,0,0,0-.51,1.47c0-.021,0-.043,0-.064l-.013,4.443c0,.021,0,.043,0,.064a3.413,3.413,0,0,0,.556,1.672l.011.018-1.311.762a10.253,10.253,0,0,1-1.551-1.446,12.771,12.771,0,0,1-1.077-1.42,6.072,6.072,0,0,1-.6-1.145,2.59,2.59,0,0,1-.149-.534V143l-6.2,1.185-.013,4.443a9.233,9.233,0,0,0,1.851,3c.027.031.058.06.085.09l-.293.17-.013,4.443,2,1.154,3.336-1.939a18.044,18.044,0,0,0,3.081,1.278,15.1,15.1,0,0,0,3.333.643,12.784,12.784,0,0,0,3.435-.2,10.758,10.758,0,0,0,3.368-1.287,5.8,5.8,0,0,0,1.965-1.664,2.528,2.528,0,0,0,.461-1.408l.013-4.443c0,.012,0,.023,0,.035a2.273,2.273,0,0,0-.019-.356,3.936,3.936,0,0,0-.7-1.648l1.281-.744a7.833,7.833,0,0,1,1.22,1.153,10.71,10.71,0,0,1,.871,1.172,6.38,6.38,0,0,1,.51.943,1.685,1.685,0,0,1,.133.439v.071l5.994-1.07.013-4.443A14.76,14.76,0,0,0,157.277,141.825Z" transform="translate(-126.694 -136.216)" fill="#eebf00"/>
        <path id="Path_673-2" data-name="Path 673" d="M354.018,145.564l-.012,4.443-2.9,1.688.012-4.443Z" transform="translate(-323.402 -144.41)" fill="#eebf00"/>
      </g>
      <path id="Path_674-2" data-name="Path 674" d="M268.6,171.9l.013-4.443c0-.308.215-.586.64-.833a3.812,3.812,0,0,1,3.695.2l-.013,4.443a3.812,3.812,0,0,0-3.695-.2C268.816,171.315,268.6,171.594,268.6,171.9Z" transform="translate(-251.085 -162.531)" fill="#fece00"/>
      <path id="Path_675-2" data-name="Path 675" d="M176.869,195.684l.013-4.443a.242.242,0,0,1,0-.046l-.013,4.443A.274.274,0,0,0,176.869,195.684Z" transform="translate(-170.676 -184.409)" fill="#d2edda"/>
      <path id="Path_676-2" data-name="Path 676" d="M286.725,177.515l-.013,4.442L282.8,184.23l.013-4.442Z" transform="translate(-263.533 -172.417)" fill="#eebf00"/>
      <g id="Group_584-2" data-name="Group 584" transform="translate(10.326 4.474)">
        <path id="Path_677-2" data-name="Path 677" d="M210.351,176.9l.013-4.443c0,.021,0,.043,0,.064a3.414,3.414,0,0,0,.556,1.672,12.5,12.5,0,0,0,1.526,1.962l-.013,4.443a12.487,12.487,0,0,1-1.526-1.962,3.413,3.413,0,0,1-.556-1.672Q210.351,176.933,210.351,176.9Z" transform="translate(-210.351 -172.458)" fill="#fece00"/>
        <path id="Path_678-2" data-name="Path 678" d="M317.235,181.254l-.013,4.443a1.486,1.486,0,0,0-.137-.472,6.362,6.362,0,0,0-.51-.943,10.753,10.753,0,0,0-.871-1.172,7.828,7.828,0,0,0-1.22-1.153l.013-4.443a7.833,7.833,0,0,1,1.22,1.153,10.723,10.723,0,0,1,.871,1.172,6.38,6.38,0,0,1,.51.943A1.488,1.488,0,0,1,317.235,181.254Z" transform="translate(-301.629 -176.891)" fill="#fece00"/>
      </g>
      <path id="Path_679-2" data-name="Path 679" d="M342.65,199.445l-.013,4.442-5.994,1.07.013-4.442Z" transform="translate(-310.728 -191.64)" fill="#eebf00"/>
      <g id="Group_585-2" data-name="Group 585" transform="translate(12.409 8.173)">
        <path id="Path_680-2" data-name="Path 680" d="M228.224,203.462l-.013,4.442-.988-1.036.013-4.442Z" transform="translate(-227.224 -202.426)" fill="#fece00"/>
        <path id="Path_681-2" data-name="Path 681" d="M243.647,220.824l-.013,4.443a.767.767,0,0,0-.038-.236,4.343,4.343,0,0,0-.86-1.38l.013-4.443a4.338,4.338,0,0,1,.86,1.38A.767.767,0,0,1,243.647,220.824Z" transform="translate(-240.822 -217.137)" fill="#fece00"/>
      </g>
      <path id="Path_682-2" data-name="Path 682" d="M218.246,219.21l-.013,4.442-3.45,2.005.013-4.443Z" transform="translate(-203.91 -208.966)" fill="#eebf00"/>
      <g id="Group_586-2" data-name="Group 586" transform="translate(0 7.972)">
        <path id="Path_683-2" data-name="Path 683" d="M306.586,235.495l-.013,4.443a2.529,2.529,0,0,1-.461,1.408l.013-4.443A2.53,2.53,0,0,0,306.586,235.495Z" transform="translate(-283.966 -231.212)" fill="#fece00"/>
        <path id="Path_684-2" data-name="Path 684" d="M131.7,206.546l-.013,4.443a17.026,17.026,0,0,1-3.146-2.747,9.23,9.23,0,0,1-1.851-3l.013-4.443a9.233,9.233,0,0,0,1.851,3A17.028,17.028,0,0,0,131.7,206.546Z" transform="translate(-126.696 -200.798)" fill="#fece00"/>
        <path id="Path_685-2" data-name="Path 685" d="M141.912,264.368l-.013,4.443-2-1.154.013-4.443Z" transform="translate(-138.271 -255.51)" fill="#fece00"/>
      </g>
      <path id="Path_686-2" data-name="Path 686" d="M159.441,256.857l-.013,4.443-3.336,1.939.013-4.443Z" transform="translate(-152.463 -241.966)" fill="#eebf00"/>
      <path id="Path_687-2" data-name="Path 687" d="M148.945,149.879a5.8,5.8,0,0,1-1.965,1.664,10.755,10.755,0,0,1-3.368,1.287,12.79,12.79,0,0,1-3.435.2,15.086,15.086,0,0,1-3.333-.643,18.043,18.043,0,0,1-3.081-1.278l-3.336,1.939-2-1.154,3.366-1.956a17.031,17.031,0,0,1-3.146-2.747,9.23,9.23,0,0,1-1.851-3L133,143a1.619,1.619,0,0,0,.149.634,6.067,6.067,0,0,0,.6,1.145,12.756,12.756,0,0,0,1.077,1.42,10.26,10.26,0,0,0,1.551,1.446l3.826-2.224-.988-1.036a12.486,12.486,0,0,1-1.526-1.962,3.413,3.413,0,0,1-.556-1.672,2.278,2.278,0,0,1,.51-1.47,5.694,5.694,0,0,1,1.681-1.362,11.153,11.153,0,0,1,3.179-1.246,14.651,14.651,0,0,1,3.4-.35,14.829,14.829,0,0,1,3.391.443,17.551,17.551,0,0,1,3.21,1.135l2.9-1.688,2,1.154-2.9,1.688a11.44,11.44,0,0,1,2.7,2.524,15.369,15.369,0,0,1,1.511,2.44l-5.994,1.07a1.155,1.155,0,0,0-.133-.51,6.371,6.371,0,0,0-.51-.943,10.723,10.723,0,0,0-.871-1.172,7.83,7.83,0,0,0-1.22-1.153l-3.911,2.273.7.668a19.831,19.831,0,0,1,1.787,2.048,4.1,4.1,0,0,1,.832,1.847A2.448,2.448,0,0,1,148.945,149.879Zm-11.273-1.413q2.315,1.239,3.752.4c.5-.29.684-.632.558-1.027a4.344,4.344,0,0,0-.86-1.38l-3.451,2.005m7.441-5.9,3.537-2.055a3.812,3.812,0,0,0-3.695-.2c-.48.279-.69.6-.63.953a2.847,2.847,0,0,0,.788,1.3" transform="translate(-126.786 -136.217)" fill="#ffe577"/>
      <path id="Path_688-2" data-name="Path 688" d="M198.313,246.9l-.013,4.443A5.8,5.8,0,0,1,196.336,253a10.755,10.755,0,0,1-3.368,1.287,12.791,12.791,0,0,1-3.435.2,15.085,15.085,0,0,1-3.333-.643,18.043,18.043,0,0,1-3.081-1.278l.013-4.443a18.045,18.045,0,0,0,3.081,1.278,15.1,15.1,0,0,0,3.333.643,12.784,12.784,0,0,0,3.435-.2,10.754,10.754,0,0,0,3.368-1.287A5.8,5.8,0,0,0,198.313,246.9Z" transform="translate(-176.154 -233.236)" fill="#fece00"/>
    </g>
    <path id="Path_689-2" data-name="Path 689" d="M110.691,106.155l-.009,3.175c.01-3.556-2.332-7.118-7.021-9.826-9.317-5.379-24.431-5.379-33.689,0-4.6,2.672-6.9,6.178-6.91,9.688l.009-3.175c.01-3.511,2.312-7.016,6.91-9.688,9.258-5.38,24.372-5.38,33.689,0C108.359,99.037,110.7,102.6,110.691,106.155Z" transform="translate(-55.277 -32.024)" fill="#fece00"/>
    <path id="Path_690-2" data-name="Path 690" d="M53.937,61.115C66.3,68.255,66.368,79.87,54.083,87.01s-32.338,7.139-44.7,0-12.43-18.755-.146-25.893S41.572,53.976,53.937,61.115Zm-39.069,22.7c9.319,5.38,24.432,5.38,33.689,0s9.209-14.135-.11-19.515-24.431-5.379-33.689,0-9.207,14.134.11,19.513" transform="translate(-0.055 0)" fill="#ffe577"/>
  </g>
</svg>
