<svg id="ecommerce-top" xmlns="http://www.w3.org/2000/svg" width="396.283" height="396.283" viewBox="0 0 396.283 396.283">
  <path id="Path_305" data-name="Path 305" d="M324.775,347.706s-1.78,11.533-6.889,16.718c-5.573,5.573-13.08,6.656-16.718,6.888H93.507A23.651,23.651,0,0,1,69.9,347.706V187.8H324.775V288.728C325.626,298.713,324.775,347.706,324.775,347.706Z" transform="translate(-15.798 -42.445)" fill="#afccff"/>
  <path id="Path_306" data-name="Path 306" d="M276.653,246.894l7.895-38.235a13.278,13.278,0,0,0-13.08-16.022H164.192a44.3,44.3,0,0,0-43.421-35.371,13.313,13.313,0,1,0,0,26.625,17.6,17.6,0,0,1,17.492,15.635c.077.464.155.851.232,1.316l10.062,46.517v.077a39.766,39.766,0,0,0,39.009,31.269h49.845A40.1,40.1,0,0,0,276.653,246.894Zm-26.083-5.418a13.486,13.486,0,0,1-13.08,10.6H187.644a13.258,13.258,0,0,1-13-10.371l-4.876-22.368h85.294ZM336.869,52.7H75.415A40.068,40.068,0,0,0,35.4,92.715V314.154a53.38,53.38,0,0,0,53.328,53.328H323.479a53.38,53.38,0,0,0,53.328-53.328,13.313,13.313,0,0,0-26.625,0,26.756,26.756,0,0,1-26.7,26.7H88.805a26.756,26.756,0,0,1-26.7-26.7V133.35H350.182V247.359a13.313,13.313,0,1,0,26.625,0V92.715A39.9,39.9,0,0,0,336.869,52.7ZM282.845,79.325a13.313,13.313,0,1,1-13.313,13.313A13.312,13.312,0,0,1,282.845,79.325Zm66.718,13.39A13.313,13.313,0,1,1,336.25,79.4,13.312,13.312,0,0,1,349.563,92.715Zm-287.46,0A13.312,13.312,0,0,1,75.415,79.4H245.074a39.515,39.515,0,0,0,.232,27.322H62.1ZM185.477,292.1a13.313,13.313,0,1,1-13.313,13.313A13.312,13.312,0,0,1,185.477,292.1Zm54.025,0a13.313,13.313,0,1,1-13.313,13.313A13.312,13.312,0,0,1,239.5,292.1Z" transform="translate(-8.001 -11.911)" fill="#373f54"/>
  <ellipse id="Ellipse_59" data-name="Ellipse 59" cx="14.009" cy="14.009" rx="14.009" ry="14.009" transform="translate(0 0)" fill="#373f54"/>
  <ellipse id="Ellipse_60" data-name="Ellipse 60" cx="7.508" cy="7.508" rx="7.508" ry="7.508" transform="translate(39.087 19.35)" fill="#373f54"/>
  <ellipse id="Ellipse_61" data-name="Ellipse 61" cx="16.95" cy="16.95" rx="16.95" ry="16.95" transform="translate(323.218 360.757)" fill="#373f54"/>
  <ellipse id="Ellipse_62" data-name="Ellipse 62" cx="7.895" cy="7.895" rx="7.895" ry="7.895" transform="translate(380.494 380.494)" fill="#373f54"/>
  <path id="Path_519" data-name="Path 519" d="M276.653,246.894l7.895-38.235a13.278,13.278,0,0,0-13.08-16.022H164.192a44.3,44.3,0,0,0-43.421-35.371,13.313,13.313,0,1,0,0,26.625,17.6,17.6,0,0,1,17.492,15.635c.077.464.155.851.232,1.316l10.062,46.517v.077a39.766,39.766,0,0,0,39.009,31.269h49.845A40.1,40.1,0,0,0,276.653,246.894Zm-26.083-5.418a13.486,13.486,0,0,1-13.08,10.6H187.644a13.258,13.258,0,0,1-13-10.371l-4.876-22.368h85.294ZM336.869,52.7H75.415A40.068,40.068,0,0,0,35.4,92.715V314.154a53.38,53.38,0,0,0,53.328,53.328H323.479a53.38,53.38,0,0,0,53.328-53.328,13.313,13.313,0,0,0-26.625,0,26.756,26.756,0,0,1-26.7,26.7H88.805a26.756,26.756,0,0,1-26.7-26.7V133.35H350.182V247.359a13.313,13.313,0,1,0,26.625,0V92.715A39.9,39.9,0,0,0,336.869,52.7ZM282.845,79.325a13.313,13.313,0,1,1-13.313,13.313A13.312,13.312,0,0,1,282.845,79.325Zm66.718,13.39A13.313,13.313,0,1,1,336.25,79.4,13.312,13.312,0,0,1,349.563,92.715Zm-287.46,0A13.312,13.312,0,0,1,75.415,79.4H245.074a39.515,39.515,0,0,0,.232,27.322H62.1ZM185.477,292.1a13.313,13.313,0,1,1-13.313,13.313A13.312,13.312,0,0,1,185.477,292.1Zm54.025,0a13.313,13.313,0,1,1-13.313,13.313A13.312,13.312,0,0,1,239.5,292.1Z" transform="translate(0.659 -3.251)" fill="#fff" stroke="#707070" stroke-width="1"/>
  <path id="Path_520" data-name="Path 520" d="M276.653,246.894l7.895-38.235a13.278,13.278,0,0,0-13.08-16.022H164.192a44.3,44.3,0,0,0-43.421-35.371,13.313,13.313,0,1,0,0,26.625,17.6,17.6,0,0,1,17.492,15.635c.077.464.155.851.232,1.316l10.062,46.517v.077a39.766,39.766,0,0,0,39.009,31.269h49.845A40.1,40.1,0,0,0,276.653,246.894Zm-26.083-5.418a13.486,13.486,0,0,1-13.08,10.6H187.644a13.258,13.258,0,0,1-13-10.371l-4.876-22.368h85.294ZM336.869,52.7H75.415A40.068,40.068,0,0,0,35.4,92.715V314.154a53.38,53.38,0,0,0,53.328,53.328H323.479a53.38,53.38,0,0,0,53.328-53.328,13.313,13.313,0,0,0-26.625,0,26.756,26.756,0,0,1-26.7,26.7H88.805a26.756,26.756,0,0,1-26.7-26.7V133.35H350.182V247.359a13.313,13.313,0,1,0,26.625,0V92.715A39.9,39.9,0,0,0,336.869,52.7ZM282.845,79.325a13.313,13.313,0,1,1-13.313,13.313A13.312,13.312,0,0,1,282.845,79.325Zm66.718,13.39A13.313,13.313,0,1,1,336.25,79.4,13.312,13.312,0,0,1,349.563,92.715Zm-287.46,0A13.312,13.312,0,0,1,75.415,79.4H245.074a39.515,39.515,0,0,0,.232,27.322H62.1ZM185.477,292.1a13.313,13.313,0,1,1-13.313,13.313A13.312,13.312,0,0,1,185.477,292.1Zm54.025,0a13.313,13.313,0,1,1-13.313,13.313A13.312,13.312,0,0,1,239.5,292.1Z" transform="translate(-8.001 -11.911)" fill="#373f54"/>
</svg>
