<svg xmlns="http://www.w3.org/2000/svg" width="374.235" height="316.845" viewBox="0 0 374.235 316.845">
  <g id="education" transform="translate(-618.057 -913.439)">
    <g id="Group_1057" data-name="Group 1057" transform="translate(618.057 971.648)" style="isolation: isolate">
      <path id="Path_738" data-name="Path 738" d="M284.732,156.77l139.226,80.911.12,41.934L284.848,198.7c-9.157-5.32-13.741-12.289-13.764-19.269l-.116-41.934C270.987,144.482,275.575,151.451,284.732,156.77Z" transform="translate(-270.967 -29.021)" fill="#fff"/>
      <path id="Path_739" data-name="Path 739" d="M353.991,156.975c9.339-5.393,14-12.475,13.985-19.544l.12,41.934c.019,7.07-4.65,14.151-13.985,19.544L213.975,279.817l-.12-41.934Z" transform="translate(6.139 -29.222)" fill="#ecfffb"/>
      <g id="Group_651" data-name="Group 651" transform="translate(152.991 208.661)">
        <path id="Path_740" data-name="Path 740" d="M253.662,163.376l.12,41.934c18.445,10.721,48.435,10.721,67,0l-.12-41.934C302.1,174.1,272.111,174.1,253.662,163.376Z" transform="translate(-253.662 -163.376)" fill="#f6fffd"/>
      </g>
      <g id="Group_652" data-name="Group 652">
        <path id="Path_741" data-name="Path 741" d="M227.867,198.422c-18.569,10.721-18.642,28.1-.217,38.81l139.226,80.911c18.449,10.721,48.435,10.721,67,0l140.136-80.907c18.549-10.709,18.669-28.093.221-38.814L435.011,117.511c-18.429-10.705-48.458-10.705-67,0Z" transform="translate(-213.886 -109.482)" fill="#d7fbf3"/>
      </g>
      <g id="Group_653" data-name="Group 653" transform="translate(206.434 41.542)">
        <path id="Path_742" data-name="Path 742" d="M258.552,126.02c-3.736,0-3.744-5.808,0-5.808s3.744,5.808,0,5.808Z" transform="translate(-255.746 -120.212)" fill="#ffe066"/>
      </g>
    </g>
    <g id="education-2" data-name="education" transform="translate(730.638 913.438)">
      <path id="Path_1916" data-name="Path 1916" d="M151.975,32.562l.017,0-7.4-4.226a9.176,9.176,0,0,0-9.175,0l-4.14,2.389-24.9-14.376V10.995a8.113,8.113,0,0,0-3.659-6.829c.029.017.061.027.091.044l-.3-.174c-.155-.1-.313-.188-.475-.273l-4.675-2.7a7.926,7.926,0,0,0-7.906-.012L10.288,46.456A20.385,20.385,0,0,0,0,64.276V199.722a20.383,20.383,0,0,0,10.289,17.82,47.248,47.248,0,0,0,47.25,0l87.945-50.482a21.252,21.252,0,0,0,10.672-18.429V39.694a8.113,8.113,0,0,0-4.179-7.133Zm0,0" transform="translate(0 0)" fill="#a0e4d5"/>
      <path id="Path_1917" data-name="Path 1917" d="M10.289,164.82A20.385,20.385,0,0,1,0,147V282.446a20.383,20.383,0,0,0,10.289,17.82,47.248,47.248,0,0,0,47.25,0V164.82a47.256,47.256,0,0,1-47.25,0Zm0,0" transform="translate(0 -82.724)" fill="#45c5a9"/>
      <path id="Path_1918" data-name="Path 1918" d="M150.882,31.945,144.6,28.334a9.176,9.176,0,0,0-9.175,0L52.686,76.085a34.773,34.773,0,0,1-34.77,0,15.14,15.14,0,0,1,0-26.225L96.786,4.294a6.236,6.236,0,0,1,6.028-.084L97.362,1.063a7.923,7.923,0,0,0-7.9-.012L10.29,46.456a20.577,20.577,0,0,0,0,35.639,47.256,47.256,0,0,0,47.25,0l87.395-50.1a6.229,6.229,0,0,1,5.947-.046Zm0,0" transform="translate(-0.002 0)" fill="#57dec0"/>
      <path id="Path_1919" data-name="Path 1919" d="M66.666,91.9l78.6-45.363L114.686,28.882a5.833,5.833,0,0,0-5.817-.009L31.9,73.566a14.93,14.93,0,0,0-7.052,9.167A14.925,14.925,0,0,0,31.9,91.9a34.773,34.773,0,0,0,34.77,0Zm0,0" transform="translate(-13.981 -15.813)" fill="#e9e9e9"/>
      <path id="Path_1920" data-name="Path 1920" d="M181.529,74.125l19.237,11.107-26.1,23.71-20.645,3.09-19.073-11.011Zm0,0" transform="translate(-75.941 -41.714)" fill="#fff"/>
      <path id="Path_1921" data-name="Path 1921" d="M225.314,99.527v92.032l-20.525-3.276-26.223,30.266V126.327Zm0,0" transform="translate(-100.489 -56.009)" fill="#fff"/>
    </g>
  </g>
</svg>
