<svg id="enterprise-top" xmlns="http://www.w3.org/2000/svg" width="397.858" height="399" viewBox="0 0 397.858 399">
  <path id="Path_307" data-name="Path 307" d="M371.108,377.026c-37.351-1.031-62.728-2.062-100.158-3.172H147.318A22.981,22.981,0,0,1,124.4,350.936V195.9H371.663v41.792C375.47,284.084,367.3,330.555,371.108,377.026Z" transform="translate(-25.748 -40.548)" fill="#32373c" opacity="0.4"/>
  <path id="Path_308" data-name="Path 308" d="M342.03,57.8H80.968A40,40,0,0,0,41,97.768V318.862a53.356,53.356,0,0,0,53.291,53.291H238.145a13.323,13.323,0,0,0,0-26.646H94.291a26.7,26.7,0,0,1-26.646-26.645V138.371H355.353v48.612a13.323,13.323,0,1,0,26.645,0V97.768A40,40,0,0,0,342.03,57.8ZM288.1,84.445a13.323,13.323,0,1,1-13.323,13.323A13.3,13.3,0,0,1,288.1,84.445Zm66.614,13.323A13.323,13.323,0,1,1,341.4,84.445,13.3,13.3,0,0,1,354.718,97.768Zm-287.073,0A13.3,13.3,0,0,1,80.968,84.445H250.436a39.694,39.694,0,0,0,.238,27.28H67.645ZM328.073,297.53A13.323,13.323,0,1,1,341.4,284.207,13.3,13.3,0,0,1,328.073,297.53Zm43.7-58.208c4.6,10.388,10.151,26.487,10.23,44.806s-5.472,34.734-10.071,45.281a35.778,35.778,0,0,1-32.752,21.411H339.1l-42.109-.079a35.806,35.806,0,0,1-33.148-22.284,114.975,114.975,0,0,1-5.393-17.129,13.291,13.291,0,0,1,25.852-6.186,80.991,80.991,0,0,0,4.124,13.164,9.308,9.308,0,0,0,8.565,5.789l42.109.079h0a9.017,9.017,0,0,0,8.327-5.472c3.569-8.247,7.851-20.856,7.851-34.576,0-13.561-4.282-25.932-7.851-33.941a9.065,9.065,0,0,0-8.485-5.313H297.383c-3.965,0-7.217,2.062-8.485,5.472a96.584,96.584,0,0,0-4.362,13.719,13.317,13.317,0,0,1-12.926,10.151H180.1l-9.913,10.23,10.309,10.468h37.668a13.323,13.323,0,0,1,0,26.645h-43.3a13.448,13.448,0,0,1-9.516-3.965l-23.315-23.711a13.383,13.383,0,0,1-.079-18.636l22.918-23.553a13.2,13.2,0,0,1,9.516-4.044h87.232c.872-2.7,1.745-5,2.458-6.82,5.234-13.719,18.319-22.522,33.307-22.522h41.633A35.766,35.766,0,0,1,371.768,239.322Z" transform="translate(1.514 -1.964)" fill="#fff" stroke="#707070" stroke-width="1"/>
  <ellipse id="Ellipse_63" data-name="Ellipse 63" cx="18.874" cy="18.874" rx="18.874" ry="18.874" transform="translate(0 0)" fill="#373f54"/>
  <ellipse id="Ellipse_64" data-name="Ellipse 64" cx="9.516" cy="9.516" rx="9.516" ry="9.516" transform="translate(47.502 18.874)" fill="#373f54"/>
  <ellipse id="Ellipse_65" data-name="Ellipse 65" cx="19.5" cy="19" rx="19.5" ry="19" transform="translate(358.858 361)" fill="#373f54"/>
  <ellipse id="Ellipse_66" data-name="Ellipse 66" cx="13.402" cy="13.402" rx="13.402" ry="13.402" transform="translate(325.693 351.466)" fill="#373f54"/>
  <path id="Path_521" data-name="Path 521" d="M342.03,57.8H80.968A40,40,0,0,0,41,97.768V318.862a53.356,53.356,0,0,0,53.291,53.291H238.145a13.323,13.323,0,0,0,0-26.646H94.291a26.7,26.7,0,0,1-26.646-26.645V138.371H355.353v48.612a13.323,13.323,0,1,0,26.645,0V97.768A40,40,0,0,0,342.03,57.8ZM288.1,84.445a13.323,13.323,0,1,1-13.323,13.323A13.3,13.3,0,0,1,288.1,84.445Zm66.614,13.323A13.323,13.323,0,1,1,341.4,84.445,13.3,13.3,0,0,1,354.718,97.768Zm-287.073,0A13.3,13.3,0,0,1,80.968,84.445H250.436a39.694,39.694,0,0,0,.238,27.28H67.645ZM328.073,297.53A13.323,13.323,0,1,1,341.4,284.207,13.3,13.3,0,0,1,328.073,297.53Zm43.7-58.208c4.6,10.388,10.151,26.487,10.23,44.806s-5.472,34.734-10.071,45.281a35.778,35.778,0,0,1-32.752,21.411H339.1l-42.109-.079a35.806,35.806,0,0,1-33.148-22.284,114.975,114.975,0,0,1-5.393-17.129,13.291,13.291,0,0,1,25.852-6.186,80.991,80.991,0,0,0,4.124,13.164,9.308,9.308,0,0,0,8.565,5.789l42.109.079h0a9.017,9.017,0,0,0,8.327-5.472c3.569-8.247,7.851-20.856,7.851-34.576,0-13.561-4.282-25.932-7.851-33.941a9.065,9.065,0,0,0-8.485-5.313H297.383c-3.965,0-7.217,2.062-8.485,5.472a96.584,96.584,0,0,0-4.362,13.719,13.317,13.317,0,0,1-12.926,10.151H180.1l-9.913,10.23,10.309,10.468h37.668a13.323,13.323,0,0,1,0,26.645h-43.3a13.448,13.448,0,0,1-9.516-3.965l-23.315-23.711a13.383,13.383,0,0,1-.079-18.636l22.918-23.553a13.2,13.2,0,0,1,9.516-4.044h87.232c.872-2.7,1.745-5,2.458-6.82,5.234-13.719,18.319-22.522,33.307-22.522h41.633A35.766,35.766,0,0,1,371.768,239.322Z" transform="translate(-8.486 -11.963)" fill="#373f54"/>
</svg>
