<svg xmlns="http://www.w3.org/2000/svg" width="336.89" height="320.592" viewBox="0 0 336.89 320.592">
  <g id="food-icon" transform="translate(-556.973 -99.183)">
    <g id="apple" transform="translate(577.086 99.183)">
      <ellipse id="Ellipse_72" data-name="Ellipse 72" cx="84.5" cy="80" rx="84.5" ry="80" transform="translate(59.097 136.492)" fill="#f4a196"/>
      <g id="Group_375" data-name="Group 375" transform="translate(10 10)">
        <g id="Group_163" data-name="Group 163" transform="translate(0 71.326)">
          <g id="Group_162" data-name="Group 162" transform="translate(0)">
            <path id="Path_318" data-name="Path 318" d="M225.774,108a83.018,83.018,0,0,0-13.936,1.135v28.813a50.324,50.324,0,0,1,13.936-1.771c18.48,0,42.419,24.853,42.419,56.495,0,81.659-29,125.917-98.2,125.917-69.431,0-99.036-44.7-99.036-125.917,0-31.261,24.668-56.495,42.867-56.495,7.942,0,13.774,1.364,22.49,4.756.768.3,6.4,2.547,8.17,3.223a93.534,93.534,0,0,0,10.625,3.445,60.072,60.072,0,0,0,14.885,1.926,59.386,59.386,0,0,0,15.686-2.158h-2.014V118.423a38.35,38.35,0,0,1-13.672,2.934c-15.7,0-28.129-13.351-56.169-13.351S42.777,140,42.777,192.677c0,75.937,26.613,154.094,127.213,154.094s126.379-78.157,126.379-154.094C296.369,140.016,254.577,108,225.774,108Z" transform="translate(-42.777 -108.005)" fill="#fff" stroke="#707070" stroke-width="1"/>
          </g>
        </g>
        <g id="Group_165" data-name="Group 165" transform="translate(113.077)">
          <g id="Group_164" data-name="Group 164">
            <path id="Path_319" data-name="Path 319" d="M230.123,0a123.757,123.757,0,0,0-7.8,13.635,94.867,94.867,0,0,0-6.046,15.044A50.187,50.187,0,0,0,214,42.888V90.239h28.177V42.888a23.3,23.3,0,0,1,1.119-6.212,67.671,67.671,0,0,1,4.278-10.536c1.319-2.663,2.744-5.237,4.166-7.6.834-1.387,1.456-2.359,1.757-2.805Z" transform="translate(-214.004)" fill="#fff" stroke="#707070" stroke-width="1"/>
          </g>
        </g>
      </g>
      <g id="Group_374" data-name="Group 374">
        <g id="Group_163-2" data-name="Group 163" transform="translate(0 71.326)">
          <g id="Group_162-2" data-name="Group 162" transform="translate(0)">
            <path id="Path_318-2" data-name="Path 318" d="M225.774,108a83.018,83.018,0,0,0-13.936,1.135v28.813a50.324,50.324,0,0,1,13.936-1.771c18.48,0,42.419,24.853,42.419,56.495,0,81.659-29,125.917-98.2,125.917-69.431,0-99.036-44.7-99.036-125.917,0-31.261,24.668-56.495,42.867-56.495,7.942,0,13.774,1.364,22.49,4.756.768.3,6.4,2.547,8.17,3.223a93.534,93.534,0,0,0,10.625,3.445,60.072,60.072,0,0,0,14.885,1.926,59.386,59.386,0,0,0,15.686-2.158h-2.014V118.423a38.35,38.35,0,0,1-13.672,2.934c-15.7,0-28.129-13.351-56.169-13.351S42.777,140,42.777,192.677c0,75.937,26.613,154.094,127.213,154.094s126.379-78.157,126.379-154.094C296.369,140.016,254.577,108,225.774,108Z" transform="translate(-42.777 -108.005)" fill="#373f54"/>
          </g>
        </g>
        <g id="Group_165-2" data-name="Group 165" transform="translate(113.077)">
          <g id="Group_164-2" data-name="Group 164">
            <path id="Path_319-2" data-name="Path 319" d="M230.123,0a123.757,123.757,0,0,0-7.8,13.635,94.867,94.867,0,0,0-6.046,15.044A50.187,50.187,0,0,0,214,42.888V90.239h28.177V42.888a23.3,23.3,0,0,1,1.119-6.212,67.671,67.671,0,0,1,4.278-10.536c1.319-2.663,2.744-5.237,4.166-7.6.834-1.387,1.456-2.359,1.757-2.805Z" transform="translate(-214.004)" fill="#373f54"/>
          </g>
        </g>
      </g>
    </g>
    <ellipse id="Ellipse_67" data-name="Ellipse 67" cx="18.05" cy="18.05" rx="18.05" ry="18.05" transform="translate(557.238 127.142)" fill="#f4a196"/>
    <ellipse id="Ellipse_68" data-name="Ellipse 68" cx="6.461" cy="6.461" rx="6.461" ry="6.461" transform="translate(608.858 138.733)" fill="#f4a196"/>
    <ellipse id="Ellipse_69" data-name="Ellipse 69" cx="11.989" cy="11.989" rx="11.989" ry="11.989" transform="translate(556.973 387.104)" fill="#f4a196"/>
    <ellipse id="Ellipse_70" data-name="Ellipse 70" cx="19.582" cy="19.582" rx="19.582" ry="19.582" transform="translate(854.699 365.991)" fill="#f4a196"/>
    <ellipse id="Ellipse_71" data-name="Ellipse 71" cx="9.724" cy="9.724" rx="9.724" ry="9.724" transform="translate(824.793 366.192)" fill="#f4a196"/>
  </g>
</svg>
