<svg xmlns="http://www.w3.org/2000/svg" width="264.11" height="254.733" viewBox="0 0 264.11 254.733">
  <g id="heart" transform="translate(0 -9.089)">
    <path id="Path_691" data-name="Path 691" d="M230.714,65.383c-14.235-8.219-27.133-8.976-36.448-3.563l-6.85,3.981C178.211,45.142,162.84,26.2,145.384,16.118c-14.24-8.221-27.143-8.984-36.46-3.569L51.462,45.942c.029-.017.062-.031.092-.048C42.3,51.217,36.561,62.6,36.515,78.807c-.167,59,88.85,178.714,93.535,185.015,2.627-.491,31.639-5.916,56.794-20.87-.363.216-.726.434-1.09.646l57.462-33.393c20.36-11.832,38.5-29.815,38.573-56.359C281.881,121.331,259.012,81.721,230.714,65.383Z" transform="translate(-17.679 0)" fill="#ffb1a7"/>
    <path id="Path_692" data-name="Path 692" d="M65.492,45.941l57.462-33.393c9.317-5.415,22.22-4.652,36.46,3.569,17.8,10.278,33.454,29.777,42.59,50.913l-57.462,33.394c-9.136-21.137-24.788-40.635-42.59-50.913C87.712,41.289,74.809,40.527,65.492,45.941Z" transform="translate(-31.709)" fill="#ffb1a7"/>
    <path id="Path_693" data-name="Path 693" d="M230.936,141.458,288.4,108.065c9.315-5.413,22.212-4.656,36.448,3.563l-57.462,33.393C253.148,136.8,240.251,136.045,230.936,141.458Z" transform="translate(-111.81 -46.245)" fill="#ff9284"/>
    <path id="Path_694" data-name="Path 694" d="M371.555,263.042l-57.462,33.393c20.361-11.832,38.5-29.815,38.573-56.359.092-32.517-22.776-72.126-51.074-88.463l57.462-33.393c28.3,16.337,51.167,55.946,51.074,88.463C410.053,233.227,391.916,251.21,371.555,263.042Z" transform="translate(-146.019 -52.837)" fill="#ffb1a7"/>
    <path id="Path_695" data-name="Path 695" d="M158.087,123.875c25.159,14.526,45.491,49.742,45.409,78.652-.149,52.456-79.637,67.307-83.821,68.089-4.165-5.6-83.31-112.039-83.161-164.5C36.6,77.21,57.061,65.548,82.221,80.074c15.828,9.138,29.744,26.474,37.867,45.267C128.29,115.974,142.259,114.737,158.087,123.875Z" transform="translate(-7.264 -19.068)" fill="#ff998b"/>
    <path id="Path_696" data-name="Path 696" d="M133.009,251.215l-8.1,4.707-10.752-59.344L96.718,206.713,94.092,192.7,64.78,209.736l-.6,1.737L29.336,191.359.024,208.393,0,216.871,59.638,251.3l5.557-3.23,8.392,44.755,17.03-9.9,10.144,55.987,29.312-17.034,4.3-27.432,31.563,18.209,29.312-17.034v-8.478Z" transform="translate(0 -88.248)" fill="#acabb1"/>
    <path id="Path_697" data-name="Path 697" d="M.047,208.393l29.312-17.034,54.308,31.355L54.355,239.748Z" transform="translate(-0.023 -88.248)" fill="#fff"/>
    <path id="Path_698" data-name="Path 698" d="M119.619,269.276l29.312-17.035-4.006,11.505L115.614,280.78Z" transform="translate(-55.976 -117.725)" fill="#fff"/>
    <path id="Path_699" data-name="Path 699" d="M125.581,211l29.312-17.034,8.976,47.877-29.311,17.035Z" transform="translate(-60.801 -89.509)" fill="#fff"/>
    <path id="Path_700" data-name="Path 700" d="M153.606,287.855l29.312-17.034-10.952,43.447L142.655,331.3Z" transform="translate(-69.068 -126.72)" fill="#fff"/>
    <path id="Path_701" data-name="Path 701" d="M164.481,218.511l29.312-17.034,14.7,81.122-29.312,17.034Z" transform="translate(-79.635 -93.147)" fill="#fff"/>
    <path id="Path_702" data-name="Path 702" d="M204.52,347.887l29.312-17.035-9.186,58.57-29.312,17.034Z" transform="translate(-94.573 -155.785)" fill="#fff"/>
    <path id="Path_703" data-name="Path 703" d="M201.027,324.429,230.338,307.4l62.241,35.934-29.312,17.034Z" transform="translate(-97.329 -144.428)" fill="#fff"/>
    <path id="Path_704" data-name="Path 704" d="M84.846,229.6l14.7,81.122,4.155-26.486,62.24,35.934v8.478l-55.991-32.312-9.186,58.57L84.538,265.371,73.587,308.817l-9.943-53.03-4.005,11.5L0,232.859l.024-8.478,54.308,31.355L64.78,225.724,73.757,273.6Z" transform="translate(0 -104.236)" fill="#e8e8e8"/>
    <path id="Path_705" data-name="Path 705" d="M321.685,394.091,351,377.057v8.478l-29.312,17.034Z" transform="translate(-155.747 -178.156)" fill="#acabb1"/>
  </g>
</svg>
