<svg xmlns="http://www.w3.org/2000/svg" width="133.457" height="169.131" viewBox="0 0 133.457 169.131">
  <g id="insurance" transform="translate(0 8)">
    <g id="Group_673" data-name="Group 673" transform="translate(0 94.329)" style="isolation: isolate">
      <path id="Path_738" data-name="Path 738" d="M274.523,142.478l35.96,20.9.031,10.831-35.961-20.9c-2.365-1.374-3.549-3.174-3.555-4.977l-.03-10.831C270.973,139.3,272.158,141.1,274.523,142.478Z" transform="translate(-270.968 -109.482)" fill="#fff"/>
      <path id="Path_739" data-name="Path 739" d="M250.05,142.479c2.412-1.393,3.617-3.222,3.612-5.048l.031,10.831c0,1.826-1.2,3.655-3.612,5.048l-36.2,20.9-.031-10.831Z" transform="translate(-157.034 -109.482)" fill="#fff"/>
      <g id="Group_651" data-name="Group 651" transform="translate(39.515 53.894)">
        <path id="Path_740" data-name="Path 740" d="M253.662,163.376l.031,10.831c4.764,2.769,12.51,2.769,17.306,0l-.031-10.831C266.172,166.145,258.427,166.145,253.662,163.376Z" transform="translate(-253.662 -163.376)" fill="#fff"/>
      </g>
      <g id="Group_652" data-name="Group 652">
        <path id="Path_741" data-name="Path 741" d="M217.5,132.454c-4.8,2.769-4.815,7.258-.056,10.024l35.96,20.9c4.765,2.769,12.51,2.769,17.306,0l36.2-20.9c4.791-2.766,4.822-7.256.057-10.025L271,111.556c-4.76-2.765-12.516-2.765-17.306,0Z" transform="translate(-213.886 -109.482)" fill="#75a7ff"/>
      </g>
      <g id="Group_653" data-name="Group 653" transform="translate(53.319 10.73)">
        <path id="Path_742" data-name="Path 742" d="M256.471,121.712a.75.75,0,0,1,0-1.5.75.75,0,0,1,0,1.5Z" transform="translate(-255.747 -120.212)" fill="#ffe066"/>
      </g>
    </g>
    <g id="Group_678" data-name="Group 678" transform="translate(20.261 107.808)" opacity="0.34" style="isolation: isolate">
      <path id="Path_898" data-name="Path 898" d="M235.814,125.579c-10.688,6.171-10.744,16.157-.126,22.328,10.6,6.159,27.839,6.159,38.527-.012,10.668-6.159,10.724-16.145.126-22.3C263.722,119.42,246.482,119.42,235.814,125.579Z" transform="translate(-227.761 -120.961)" fill="#fff"/>
    </g>
    <path id="Path_1915" data-name="Path 1915" d="M23.028,0,0,107.986" transform="translate(51.944 15.471)" fill="none" stroke="#fff" stroke-linecap="round" stroke-width="7"/>
    <g id="Group_677" data-name="Group 677" transform="translate(7.441 -8)">
      <g id="Group_675" data-name="Group 675" transform="translate(74.924 14.66)">
        <path id="Path_763" data-name="Path 763" d="M223.215,29.826c-2.877.187-3.889,2.331-2.26,4.787a10.057,10.057,0,0,0,8.156,4.109c2.877-.187,3.888-2.33,2.26-4.787A10.062,10.062,0,0,0,223.215,29.826Z" transform="translate(-220.177 -29.813)" fill="#1637b9"/>
      </g>
      <g id="Group_676" data-name="Group 676">
        <path id="Path_764" data-name="Path 764" d="M230.835,30.525a15.242,15.242,0,0,0-9.226-2.955,21.926,21.926,0,0,1,1.724,2.256,9.836,9.836,0,0,1,5.95,1.905q.783-.663,1.552-1.206" transform="translate(-145.371 -15.153)" fill="#fff"/>
        <path id="Path_765" data-name="Path 765" d="M231.831,30.009a18.155,18.155,0,0,0-10.987-3.518q.518.53,1,1.079a15.242,15.242,0,0,1,9.226,2.955q.385-.273.765-.516" transform="translate(-145.602 -15.153)" fill="#fff"/>
        <path id="Path_766" data-name="Path 766" d="M233.348,29.391c-4.045-2.861-9.188-4.623-13.549-4.339q.794.7,1.517,1.439A18.155,18.155,0,0,1,232.3,30.009q.529-.338,1.045-.618" transform="translate(-146.074 -15.153)" fill="#1b45b9"/>
        <path id="Path_767" data-name="Path 767" d="M235.766,28.7c-5.2-3.678-11.813-5.943-17.419-5.578.848.614,1.657,1.259,2.418,1.93,4.361-.284,9.5,1.478,13.549,4.339a13.836,13.836,0,0,1,1.452-.691" transform="translate(-147.04 -15.153)" fill="#fff"/>
        <path id="Path_768" data-name="Path 768" d="M237.068,28.44c-5.8-4.1-13.17-6.625-19.42-6.218q.664.438,1.3.9c5.606-.365,12.218,1.9,17.419,5.578q.354-.144.7-.26" transform="translate(-147.643 -15.153)" fill="#fff"/>
        <path id="Path_769" data-name="Path 769" d="M238.967,28.174c-6.646-4.7-15.1-7.594-22.259-7.128q.974.566,1.9,1.176c6.25-.407,13.622,2.119,19.42,6.218q.48-.161.94-.266" transform="translate(-148.602 -15.153)" fill="#1b45b9"/>
        <path id="Path_770" data-name="Path 770" d="M241.848,27.98c-7.886-5.576-17.912-9.011-26.413-8.458.986.474,1.949.983,2.881,1.524,7.164-.466,15.613,2.429,22.259,7.128a8.214,8.214,0,0,1,1.273-.194" transform="translate(-150.21 -15.153)" fill="#fff"/>
        <path id="Path_771" data-name="Path 771" d="M243.342,27.966c-8.51-6.018-19.331-9.725-28.5-9.128q.754.328,1.494.684c8.5-.553,18.527,2.882,26.413,8.458.2-.014.4-.018.6-.014" transform="translate(-151.106 -15.153)" fill="#fff"/>
        <path id="Path_772" data-name="Path 772" d="M245.467,28.035c-9.379-6.632-21.3-10.718-31.415-10.06q1.074.405,2.125.863c9.174-.6,19.995,3.11,28.5,9.128a5.672,5.672,0,0,1,.785.069" transform="translate(-152.446 -15.153)" fill="#1b45b9"/>
        <path id="Path_773" data-name="Path 773" d="M248.584,28.315c-10.616-7.507-24.113-12.131-35.556-11.386,1.047.309,2.089.659,3.117,1.046,10.111-.658,22.036,3.428,31.415,10.06a4.7,4.7,0,0,1,1.024.28" transform="translate(-154.539 -15.153)" fill="#fff"/>
        <path id="Path_774" data-name="Path 774" d="M250.161,28.533c-11.224-7.937-25.5-12.826-37.6-12.039q.789.2,1.577.435c11.443-.745,24.94,3.879,35.556,11.386a4.069,4.069,0,0,1,.462.218" transform="translate(-155.654 -15.153)" fill="#fff"/>
        <path id="Path_775" data-name="Path 775" d="M252.352,28.791c-1.1-.743-2.565-1.738-3.688-2.447-3.695-2.181-3.695-2.181-5.606-3.144-3.884-1.85-3.884-1.85-5.914-2.655-1.751-.649-4.1-1.474-5.877-2.048a54.636,54.636,0,0,0-19.11-2.5q1.094.221,2.191.5c12.1-.787,26.371,4.1,37.6,12.039a4.021,4.021,0,0,1,.409.258" transform="translate(-157.436 -15.153)" fill="#1b45b9"/>
        <path id="Path_776" data-name="Path 776" d="M254.788,18.29a76.469,76.469,0,0,0-7.641-1.813l-2.556-.428a55.209,55.209,0,0,0-11.349-.553q1.552.182,3.132.5a54.636,54.636,0,0,1,19.11,2.5l-.7-.207" transform="translate(-181.653 -15.153)" fill="#fff"/>
        <path id="Path_777" data-name="Path 777" d="M252.313,15.48a52.69,52.69,0,0,0-8.178-.132q.766.057,1.542.148a53.219,53.219,0,0,1,11.349.553c-1.413-.177-3.295-.436-4.713-.569" transform="translate(-194.088 -15.153)" fill="#fff"/>
        <path id="Path_778" data-name="Path 778" d="M257.317,15.337c-1.285-.054-3-.158-4.283-.177q-2.121-.033-4.186.1,1.04.009,2.105.088a52.689,52.689,0,0,1,8.178.132l-1.814-.143" transform="translate(-200.906 -15.153)" fill="#1b45b9"/>
        <path id="Path_779" data-name="Path 779" d="M254.945,15.318q1.044-.068,2.126-.058,2.063-.134,4.186-.1c-1.894.024-4.42.058-6.312.158" transform="translate(-209.129 -15.153)" fill="#fff"/>
        <path id="Path_780" data-name="Path 780" d="M223.16,37.491a6.311,6.311,0,0,0-1.205-3.549,13.318,13.318,0,0,0-3.421-3.417q-.768.543-1.552,1.206a8.587,8.587,0,0,1,2.206,2.2,4.068,4.068,0,0,1,.777,2.289,28.916,28.916,0,0,1,3.195,1.267" transform="translate(-133.07 -15.153)" fill="#75a7ff"/>
        <path id="Path_781" data-name="Path 781" d="M221.608,38.305a7.514,7.514,0,0,0-1.435-4.226,15.866,15.866,0,0,0-4.074-4.07q-.38.243-.765.516a13.318,13.318,0,0,1,3.421,3.417,6.311,6.311,0,0,1,1.205,3.549q.817.378,1.648.814" transform="translate(-129.87 -15.153)" fill="#1637b9"/>
        <path id="Path_782" data-name="Path 782" d="M220.843,39.62a9.269,9.269,0,0,0-1.769-5.211,19.54,19.54,0,0,0-5.024-5.018q-.516.28-1.045.618a15.866,15.866,0,0,1,4.074,4.07,7.514,7.514,0,0,1,1.435,4.226q1.155.6,2.329,1.315" transform="translate(-126.776 -15.153)" fill="#286df4"/>
        <path id="Path_783" data-name="Path 783" d="M219.8,41.851a11.918,11.918,0,0,0-2.275-6.7,25.149,25.149,0,0,0-6.458-6.451,13.836,13.836,0,0,0-1.452.691,19.54,19.54,0,0,1,5.024,5.018,9.269,9.269,0,0,1,1.769,5.211q1.686,1.019,3.392,2.231" transform="translate(-122.338 -15.153)" fill="#75a7ff"/>
        <path id="Path_784" data-name="Path 784" d="M218.345,43.1a13.288,13.288,0,0,0-2.536-7.469,28.028,28.028,0,0,0-7.2-7.193q-.345.115-.7.26a25.149,25.149,0,0,1,6.458,6.451,11.918,11.918,0,0,1,2.275,6.7q.852.6,1.7,1.251" transform="translate(-119.183 -15.153)" fill="#1637b9"/>
        <path id="Path_785" data-name="Path 785" d="M217.646,44.979a15.228,15.228,0,0,0-2.907-8.561,32.131,32.131,0,0,0-8.253-8.244q-.459.107-.94.266a28.028,28.028,0,0,1,7.2,7.193,13.288,13.288,0,0,1,2.536,7.469q1.184.9,2.363,1.877" transform="translate(-116.121 -15.153)" fill="#286df4"/>
        <path id="Path_786" data-name="Path 786" d="M216.705,47.922c.064-3.053-1.044-6.529-3.45-10.159a38.1,38.1,0,0,0-9.793-9.783,8.214,8.214,0,0,0-1.273.194,32.131,32.131,0,0,1,8.253,8.244,15.228,15.228,0,0,1,2.907,8.561q1.692,1.4,3.356,2.943" transform="translate(-111.824 -15.153)" fill="#75a7ff"/>
        <path id="Path_787" data-name="Path 787" d="M215.432,49.486c.069-3.294-1.126-7.045-3.723-10.963A41.141,41.141,0,0,0,201.14,27.966c-.195,0-.394,0-.6.014a38.1,38.1,0,0,1,9.793,9.783c2.406,3.63,3.514,7.106,3.45,10.159q.829.768,1.647,1.564" transform="translate(-108.904 -15.153)" fill="#1637b9"/>
        <path id="Path_788" data-name="Path 788" d="M214.834,51.753c.076-3.631-1.241-7.765-4.1-12.083a45.327,45.327,0,0,0-11.648-11.635,5.672,5.672,0,0,0-.785-.069,41.141,41.141,0,0,1,10.569,10.557c2.6,3.918,3.792,7.669,3.723,10.963q1.137,1.11,2.244,2.267" transform="translate(-106.062 -15.153)" fill="#286df4"/>
        <path id="Path_789" data-name="Path 789" d="M214.049,55.159c.086-4.11-1.4-8.789-4.644-13.675a51.293,51.293,0,0,0-13.183-13.169,4.7,4.7,0,0,0-1.024-.28A45.327,45.327,0,0,1,206.846,39.67c2.862,4.318,4.179,8.452,4.1,12.083q1.59,1.662,3.1,3.406" transform="translate(-102.177 -15.153)" fill="#75a7ff"/>
        <path id="Path_790" data-name="Path 790" d="M213.024,56.916c.091-4.345-1.485-9.292-4.91-14.459a54.241,54.241,0,0,0-13.939-13.924,4.069,4.069,0,0,0-.462-.218A51.294,51.294,0,0,1,206.9,41.484c3.239,4.886,4.73,9.565,4.644,13.675q.755.872,1.484,1.757" transform="translate(-99.668 -15.153)" fill="#1637b9"/>
        <path id="Path_791" data-name="Path 791" d="M212.562,59.4c.1-4.665-1.6-9.977-5.272-15.525a56.134,56.134,0,0,0-12.248-12.928l-.986-.759-1.9-1.393a4.021,4.021,0,0,0-.409-.258,54.241,54.241,0,0,1,13.939,13.924c3.425,5.167,5,10.114,4.91,14.459q1.011,1.23,1.97,2.48" transform="translate(-97.236 -15.153)" fill="#286df4"/>
        <path id="Path_792" data-name="Path 792" d="M209.263,63.021c.108-5.109-1.746-10.925-5.772-17a54.768,54.768,0,0,0-6.071-7.538c-1.038-1.036-2.412-2.428-3.481-3.431-1.425-1.258-3.346-2.911-4.821-4.109a56.134,56.134,0,0,1,12.248,12.928c3.677,5.548,5.37,10.86,5.272,15.525q1.377,1.8,2.625,3.625" transform="translate(-91.312 -15.153)" fill="#75a7ff"/>
        <path id="Path_793" data-name="Path 793" d="M200.96,64.841c.112-5.32-1.818-11.378-6.011-17.7a54.2,54.2,0,0,0-3.782-5.026l-.621-.727-2.635-2.9a54.768,54.768,0,0,1,6.071,7.538c4.026,6.075,5.88,11.891,5.772,17q.622.909,1.206,1.82" transform="translate(-81.803 -15.153)" fill="#1637b9"/>
        <path id="Path_794" data-name="Path 794" d="M197.7,67.368c.118-5.6-1.914-11.979-6.329-18.639q-.615-.928-1.277-1.842c-1.1-1.445-2.576-3.373-3.734-4.776a54.2,54.2,0,0,1,3.782,5.026c4.193,6.326,6.123,12.384,6.011,17.7q.813,1.266,1.547,2.527" transform="translate(-77 -15.153)" fill="#286df4"/>
        <path id="Path_795" data-name="Path 795" d="M193.97,70.958c.107-5.131-1.476-10.872-4.907-16.89-.824-1.354-1.9-3.172-2.768-4.5l-1.859-2.685q.662.913,1.277,1.842c4.415,6.66,6.447,13.038,6.329,18.639.7,1.207,1.347,2.407,1.928,3.59" transform="translate(-71.338 -15.153)" fill="#75a7ff"/>
        <path id="Path_796" data-name="Path 796" d="M189.343,72.72a32.4,32.4,0,0,0-3.777-15l-1.95-3.657c3.431,6.018,5.014,11.759,4.907,16.89q.435.888.82,1.762" transform="translate(-65.891 -15.153)" fill="#1637b9"/>
        <path id="Path_797" data-name="Path 797" d="M187.392,75.118a31.329,31.329,0,0,0-2.422-12.205l-1.536-3.554-.787-1.634a32.4,32.4,0,0,1,3.777,15q.535,1.215.968,2.4" transform="translate(-62.973 -15.153)" fill="#286df4"/>
        <path id="Path_798" data-name="Path 798" d="M185.069,78.427a29.757,29.757,0,0,0-.949-7.885l-.187-.72c-.639-2.089-1.536-4.862-2.3-6.909a31.329,31.329,0,0,1,2.422,12.205,30.464,30.464,0,0,1,1.012,3.309" transform="translate(-59.637 -15.153)" fill="#75a7ff"/>
        <path id="Path_799" data-name="Path 799" d="M182.584,80.006a28.787,28.787,0,0,0-.425-5.467l-.849-4a29.757,29.757,0,0,1,.949,7.885q.194.8.325,1.579" transform="translate(-56.827 -15.153)" fill="#1637b9"/>
        <path id="Path_800" data-name="Path 800" d="M181.735,82.1q.021-1.017-.035-2.061v0c-.163-1.652-.368-3.858-.627-5.5a28.787,28.787,0,0,1,.425,5.467,18.647,18.647,0,0,1,.237,2.1" transform="translate(-55.741 -15.153)" fill="#286df4"/>
        <path id="Path_801" data-name="Path 801" d="M181.112,83.162l-.055-3.119q.057,1.044.035,2.061.028.539.02,1.058" transform="translate(-55.098 -15.153)" fill="#75a7ff"/>
        <path id="Path_802" data-name="Path 802" d="M218.505,41.365h0c2.975-.194,4.664-1.737,4.709-3.874a28.916,28.916,0,0,0-3.195-1.267c-.029,1.378-1.118,2.373-3.037,2.5h0a27.124,27.124,0,0,1,1.522,2.643" transform="translate(-133.125 -15.153)" fill="#fff"/>
        <path id="Path_803" data-name="Path 803" d="M216.085,42.918h0c3.544-.23,5.555-2.068,5.608-4.613q-.829-.435-1.648-.814c-.045,2.137-1.734,3.68-4.709,3.874h0q.378.741.75,1.553" transform="translate(-129.955 -15.153)" fill="#fff"/>
        <path id="Path_804" data-name="Path 804" d="M214.027,45.31h0c4.37-.285,6.85-2.552,6.915-5.69q-1.172-.708-2.329-1.315c-.053,2.545-2.064,4.383-5.608,4.613h0q.517,1.131,1.021,2.392" transform="translate(-126.876 -15.153)" fill="#1b45b9"/>
        <path id="Path_805" data-name="Path 805" d="M211.031,49.165h0c5.618-.366,8.806-3.28,8.891-7.314q-1.7-1.209-3.392-2.231c-.065,3.138-2.545,5.405-6.915,5.69h0c.483,1.205.956,2.5,1.417,3.855" transform="translate(-122.463 -15.153)" fill="#fff"/>
        <path id="Path_806" data-name="Path 806" d="M208.592,51.257h0c6.263-.408,9.817-3.657,9.912-8.155q-.852-.646-1.7-1.251c-.085,4.034-3.273,6.948-8.89,7.314h0q.345,1.02.681,2.092" transform="translate(-119.343 -15.153)" fill="#fff"/>
        <path id="Path_807" data-name="Path 807" d="M206.462,54.326h0c7.178-.467,11.252-4.191,11.36-9.347Q216.647,44,215.461,43.1c-.1,4.5-3.649,7.747-9.912,8.155h0q.468,1.49.914,3.069" transform="translate(-116.299 -15.153)" fill="#1b45b9"/>
        <path id="Path_808" data-name="Path 808" d="M203.428,59.012h0c8.518-.554,13.352-4.973,13.481-11.09q-1.659-1.536-3.356-2.943c-.108,5.156-4.182,8.88-11.36,9.347h0c.428,1.511.841,3.078,1.236,4.686" transform="translate(-112.029 -15.153)" fill="#fff"/>
        <path id="Path_809" data-name="Path 809" d="M201.124,61.456h0c9.193-.6,14.41-5.367,14.549-11.97q-.817-.8-1.647-1.564c-.129,6.117-4.963,10.536-13.481,11.09h0q.3,1.208.579,2.444" transform="translate(-109.146 -15.153)" fill="#fff"/>
        <path id="Path_810" data-name="Path 810" d="M199.06,64.944h0c10.132-.659,15.881-5.914,16.034-13.191q-1.105-1.157-2.244-2.267c-.139,6.6-5.356,11.372-14.548,11.97h0q.393,1.721.759,3.488" transform="translate(-106.323 -15.153)" fill="#1b45b9"/>
        <path id="Path_811" data-name="Path 811" d="M196.187,70.089h0c11.467-.746,17.975-6.694,18.148-14.93q-1.506-1.74-3.1-3.406c-.153,7.277-5.9,12.532-16.033,13.191h0c.349,1.693.679,3.412.986,5.145" transform="translate(-102.464 -15.153)" fill="#fff"/>
        <path id="Path_812" data-name="Path 812" d="M194.16,72.7h0c12.124-.79,19.005-7.079,19.188-15.787q-.729-.885-1.484-1.757c-.173,8.236-6.681,14.184-18.147,14.93h0q.229,1.3.443,2.614" transform="translate(-99.994 -15.153)" fill="#fff"/>
        <path id="Path_813" data-name="Path 813" d="M192.3,76.347h0c13.017-.847,20.4-7.6,20.6-16.95q-.957-1.25-1.97-2.48c-.183,8.708-7.064,15-19.188,15.787h0q.294,1.818.554,3.644" transform="translate(-97.58 -15.153)" fill="#1b45b9"/>
        <path id="Path_814" data-name="Path 814" d="M189.79,81.582h0c14.254-.927,22.344-8.322,22.559-18.56q-1.244-1.821-2.625-3.625c-.2,9.351-7.585,16.1-20.6,16.95h0c.249,1.75.473,3.5.668,5.235" transform="translate(-94.401 -15.153)" fill="#fff"/>
        <path id="Path_815" data-name="Path 815" d="M188.188,84.17h0c14.844-.966,23.269-8.667,23.493-19.329q-.583-.909-1.206-1.82c-.215,10.238-8.305,17.633-22.559,18.56h0q.147,1.3.272,2.588" transform="translate(-92.527 -15.153)" fill="#fff"/>
        <path id="Path_816" data-name="Path 816" d="M186.674,87.719h0c15.629-1.017,24.5-9.124,24.735-20.35q-.733-1.258-1.547-2.527C209.641,75.5,201.216,83.2,186.372,84.17h0q.174,1.791.305,3.549" transform="translate(-90.708 -15.153)" fill="#1b45b9"/>
        <path id="Path_817" data-name="Path 817" d="M184.722,92.663h0c16.67-1.085,26.13-9.732,26.382-21.705-.581-1.183-1.226-2.383-1.928-3.59-.236,11.226-9.106,19.333-24.735,20.35h0c.126,1.681.22,3.334.281,4.944" transform="translate(-88.475 -15.153)" fill="#fff"/>
        <path id="Path_818" data-name="Path 818" d="M183.688,95.044h0c17.146-1.116,26.876-10.01,27.135-22.324q-.386-.875-.82-1.762c-.252,11.973-9.712,20.62-26.382,21.705h0q.047,1.208.067,2.381" transform="translate(-87.374 -15.153)" fill="#fff"/>
        <path id="Path_819" data-name="Path 819" d="M182.66,98.234h0c17.753-1.155,27.829-10.365,28.1-23.116q-.431-1.181-.968-2.4c-.259,12.314-9.989,21.208-27.135,22.324h0q.028,1.634.007,3.19" transform="translate(-86.339 -15.153)" fill="#1b45b9"/>
        <path id="Path_820" data-name="Path 820" d="M181.641,102.519h0c18.5-1.2,29-10.8,29.282-24.091a30.464,30.464,0,0,0-1.012-3.309c-.267,12.751-10.343,21.961-28.1,23.116h0c-.022,1.49-.079,2.923-.175,4.285" transform="translate(-85.495 -15.153)" fill="#fff"/>
        <path id="Path_821" data-name="Path 821" d="M181.316,104.507h0c18.817-1.225,29.5-10.986,29.78-24.5q-.132-.775-.325-1.579c-.279,13.29-10.78,22.887-29.282,24.091h0q-.07,1.022-.172,1.988" transform="translate(-85.342 -15.153)" fill="#fff"/>
        <path id="Path_822" data-name="Path 822" d="M181.079,107.079h0c19.181-1.248,30.066-11.2,30.356-24.975a18.647,18.647,0,0,0-.237-2.1c-.284,13.515-10.963,23.276-29.78,24.5h0c-.094.9-.207,1.755-.339,2.572" transform="translate(-85.444 -15.153)" fill="#1b45b9"/>
        <path id="Path_823" data-name="Path 823" d="M181.057,110.332h0c17.89-1.164,28.7-9.758,30.624-21.971.162-1.557.393-3.634.45-5.2q.009-.519-.02-1.058c-.29,13.777-11.175,23.727-30.356,24.975h0a30.289,30.289,0,0,1-.7,3.253" transform="translate(-86.121 -15.153)" fill="#fff"/>
        <path id="Path_824" data-name="Path 824" d="M181.509,111.742h0c16.471-1.072,26.97-8.408,30.109-19.065l.8-3.359.164-.958c-1.926,12.213-12.734,20.807-30.624,21.971h0q-.207.743-.447,1.41" transform="translate(-87.02 -15.153)" fill="#fff"/>
        <path id="Path_825" data-name="Path 825" d="M182.591,117.514h0c14.334-.933,23.313-10.685,27.717-19.151.749-1.678,1.693-3.944,2.275-5.686-3.139,10.657-13.638,17.993-30.109,19.065h0c-.021,2.347.108,3.409.118,5.772" transform="translate(-87.984 -15.153)" fill="#1b45b9"/>
        <path id="Path_826" data-name="Path 826" d="M221.693,38.4a15.248,15.248,0,0,0,9.241,2.966,27.124,27.124,0,0,0-1.522-2.643,9.834,9.834,0,0,1-5.96-1.912c-.524.441-1.113.974-1.759,1.589" transform="translate(-145.554 -15.153)" fill="#75a7ff"/>
        <path id="Path_827" data-name="Path 827" d="M220.943,39.387a18.153,18.153,0,0,0,11.005,3.531q-.372-.812-.75-1.553a15.248,15.248,0,0,1-9.241-2.966q-.486.464-1.014.988" transform="translate(-145.818 -15.153)" fill="#1637b9"/>
        <path id="Path_828" data-name="Path 828" d="M219.922,40.955c4.049,2.869,9.2,4.639,13.571,4.355q-.5-1.259-1.021-2.392a18.153,18.153,0,0,1-11.005-3.531q-.735.729-1.545,1.568" transform="translate(-146.342 -15.153)" fill="#286df4"/>
        <path id="Path_829" data-name="Path 829" d="M218.505,43.566c5.2,3.69,11.83,5.964,17.447,5.6-.461-1.36-.934-2.65-1.417-3.855-4.368.284-9.522-1.486-13.571-4.355-.774.8-1.6,1.676-2.459,2.611" transform="translate(-147.384 -15.153)" fill="#75a7ff"/>
        <path id="Path_830" data-name="Path 830" d="M217.824,45.015c5.8,4.113,13.19,6.649,19.451,6.242q-.336-1.071-.681-2.092c-5.617.365-12.243-1.909-17.447-5.6q-.646.7-1.323,1.449" transform="translate(-148.026 -15.153)" fill="#1637b9"/>
        <path id="Path_831" data-name="Path 831" d="M216.91,47.172c6.65,4.714,15.117,7.621,22.294,7.154q-.445-1.577-.914-3.069c-6.261.407-13.649-2.129-19.451-6.242q-.94,1.038-1.929,2.157" transform="translate(-149.041 -15.153)" fill="#286df4"/>
        <path id="Path_832" data-name="Path 832" d="M215.674,50.523c7.892,5.594,17.939,9.043,26.456,8.489-.4-1.608-.808-3.175-1.236-4.686-7.177.467-15.644-2.44-22.294-7.154q-1.422,1.605-2.926,3.351" transform="translate(-150.731 -15.153)" fill="#75a7ff"/>
        <path id="Path_833" data-name="Path 833" d="M215.1,52.294c8.517,6.038,19.36,9.76,28.551,9.162q-.283-1.236-.579-2.444c-8.517.554-18.564-2.9-26.456-8.489q-.75.872-1.516,1.771" transform="translate(-151.668 -15.153)" fill="#1637b9"/>
        <path id="Path_834" data-name="Path 834" d="M214.336,54.847c9.387,6.654,21.337,10.756,31.466,10.1q-.366-1.766-.759-3.488c-9.191.6-20.034-3.124-28.551-9.162q-1.065,1.253-2.156,2.553" transform="translate(-153.065 -15.153)" fill="#286df4"/>
        <path id="Path_835" data-name="Path 835" d="M213.35,58.661c10.624,7.531,24.149,12.174,35.614,11.428-.307-1.733-.637-3.452-.986-5.145-10.129.659-22.079-3.443-31.466-10.1q-1.564,1.868-3.162,3.814" transform="translate(-155.241 -15.153)" fill="#75a7ff"/>
        <path id="Path_836" data-name="Path 836" d="M212.907,60.619C224.14,68.582,238.44,73.491,250.562,72.7q-.213-1.311-.443-2.614c-11.465.746-24.99-3.9-35.614-11.428q-.8.972-1.6,1.958" transform="translate(-156.396 -15.153)" fill="#1637b9"/>
        <path id="Path_837" data-name="Path 837" d="M212.352,63.373c12.061,8.549,27.416,13.82,40.431,12.974q-.259-1.824-.555-3.644c-12.122.788-26.422-4.121-37.655-12.084q-1.111,1.368-2.221,2.754" transform="translate(-158.062 -15.153)" fill="#286df4"/>
        <path id="Path_838" data-name="Path 838" d="M211.684,67.375c13.207,9.362,30.021,15.133,44.272,14.207-.195-1.736-.419-3.485-.668-5.235-13.015.846-28.37-4.425-40.431-12.974q-1.6,1.994-3.173,4" transform="translate(-160.567 -15.153)" fill="#75a7ff"/>
        <path id="Path_839" data-name="Path 839" d="M211.412,69.375c13.754,9.75,31.263,15.76,46.105,14.8q-.125-1.287-.272-2.588c-14.251.926-31.065-4.845-44.272-14.207q-.785,1-1.561,2" transform="translate(-161.856 -15.153)" fill="#1637b9"/>
        <path id="Path_840" data-name="Path 840" d="M211.107,72.142c14.48,10.265,32.915,16.593,48.541,15.577q-.131-1.755-.3-3.549c-14.842.965-32.351-5.045-46.105-14.8q-1.078,1.391-2.131,2.767" transform="translate(-163.682 -15.153)" fill="#286df4"/>
        <path id="Path_841" data-name="Path 841" d="M210.826,76.049C226.27,87,245.932,93.746,262.6,92.663c-.061-1.61-.155-3.263-.281-4.944-15.626,1.016-34.061-5.312-48.541-15.577q-1.512,1.979-2.95,3.907" transform="translate(-166.351 -15.153)" fill="#75a7ff"/>
        <path id="Path_842" data-name="Path 842" d="M210.759,77.956c15.885,11.261,36.109,18.2,53.251,17.088q-.021-1.173-.067-2.381C247.277,93.746,227.615,87,212.171,76.049q-.717.963-1.412,1.907" transform="translate(-167.696 -15.153)" fill="#1637b9"/>
        <path id="Path_843" data-name="Path 843" d="M210.742,80.541C227.191,92.2,248.131,99.388,265.88,98.234q.023-1.556-.007-3.19c-17.142,1.115-37.366-5.827-53.251-17.088q-.966,1.314-1.88,2.585" transform="translate(-169.56 -15.153)" fill="#286df4"/>
        <path id="Path_844" data-name="Path 844" d="M210.752,84.079c17.142,12.151,38.966,19.642,57.464,18.44.1-1.362.153-2.8.175-4.285-17.75,1.154-38.69-6.034-55.138-17.693-.876,1.216-1.712,2.4-2.5,3.538" transform="translate(-172.07 -15.153)" fill="#75a7ff"/>
        <path id="Path_845" data-name="Path 845" d="M210.927,85.754c17.433,12.357,39.628,19.976,58.441,18.753q.1-.966.172-1.988c-18.5,1.2-40.322-6.289-57.464-18.44q-.593.854-1.149,1.675" transform="translate(-173.394 -15.153)" fill="#1637b9"/>
        <path id="Path_846" data-name="Path 846" d="M211.1,87.963c17.77,12.6,40.4,20.363,59.572,19.116.132-.817.245-1.676.339-2.572C252.2,105.73,230,98.111,212.569,85.754q-.772,1.14-1.47,2.209" transform="translate(-175.036 -15.153)" fill="#286df4"/>
        <path id="Path_847" data-name="Path 847" d="M211.438,90.854c18.107,12.835,41.158,20.748,60.7,19.478a30.292,30.292,0,0,0,.7-3.253c-19.177,1.247-41.8-6.519-59.572-19.116-.667,1.022-1.278,1.989-1.824,2.891" transform="translate(-177.199 -15.153)" fill="#75a7ff"/>
        <path id="Path_848" data-name="Path 848" d="M212.137,92.161c18.2,12.9,41.379,20.859,61.022,19.581q.241-.666.447-1.41c-19.539,1.27-42.59-6.643-60.7-19.478q-.411.678-.772,1.307" transform="translate(-178.67 -15.153)" fill="#1637b9"/>
        <path id="Path_849" data-name="Path 849" d="M212.584,98.79c18.254,12.939,38.863,19.29,58.352,18.626.265-.508,2.737-5.061,2.957-5.674-19.643,1.278-42.818-6.678-61.022-19.581-.046,1.7-.175,3.333-.287,6.629" transform="translate(-179.404 -15.153)" fill="#286df4"/>
        <path id="Path_850" data-name="Path 850" d="M229.176,31.432a6.3,6.3,0,0,0,1.205,3.561,13.29,13.29,0,0,0,3.4,3.406c.646-.615,1.235-1.148,1.759-1.589a8.583,8.583,0,0,1-2.2-2.2,4.062,4.062,0,0,1-.777-2.3c-1.017-.273-2.366-.668-3.4-.885" transform="translate(-157.647 -15.153)" fill="#fff"/>
        <path id="Path_851" data-name="Path 851" d="M230.935,31.09a7.5,7.5,0,0,0,1.435,4.24,15.838,15.838,0,0,0,4.056,4.057q.526-.524,1.014-.988a13.29,13.29,0,0,1-3.4-3.406,6.3,6.3,0,0,1-1.205-3.561c-.611-.125-1.244-.239-1.895-.342" transform="translate(-161.301 -15.153)" fill="#fff"/>
        <path id="Path_852" data-name="Path 852" d="M231.95,30.723a9.251,9.251,0,0,0,1.769,5.229,19.545,19.545,0,0,0,5,5q.809-.839,1.545-1.568a15.838,15.838,0,0,1-4.056-4.057,7.5,7.5,0,0,1-1.435-4.24q-1.359-.216-2.824-.367" transform="translate(-165.14 -15.153)" fill="#1b45b9"/>
        <path id="Path_853" data-name="Path 853" d="M233.5,30.412a11.9,11.9,0,0,0,2.274,6.724,25.129,25.129,0,0,0,6.43,6.43c.862-.935,1.685-1.809,2.459-2.611a19.545,19.545,0,0,1-5-5,9.251,9.251,0,0,1-1.769-5.229c-1.4-.146-2.87-.249-4.393-.311" transform="translate(-171.078 -15.153)" fill="#fff"/>
        <path id="Path_854" data-name="Path 854" d="M235.955,30.35a13.262,13.262,0,0,0,2.536,7.5,27.979,27.979,0,0,0,7.168,7.17q.675-.747,1.323-1.449a25.129,25.129,0,0,1-6.43-6.43,11.9,11.9,0,0,1-2.274-6.724q-1.142-.047-2.323-.062" transform="translate(-175.861 -15.153)" fill="#fff"/>
        <path id="Path_855" data-name="Path 855" d="M237.278,30.363a15.206,15.206,0,0,0,2.906,8.591,32.107,32.107,0,0,0,8.217,8.218q.987-1.118,1.929-2.157a27.979,27.979,0,0,1-7.168-7.17,13.262,13.262,0,0,1-2.536-7.5c-1.094-.015-2.212-.01-3.348.013" transform="translate(-180.532 -15.153)" fill="#1b45b9"/>
        <path id="Path_856" data-name="Path 856" d="M239.207,30.578c-.074,3.061,1.033,6.55,3.448,10.194a38.1,38.1,0,0,0,9.749,9.751q1.5-1.742,2.926-3.351a32.107,32.107,0,0,1-8.217-8.218,15.206,15.206,0,0,1-2.906-8.591c-1.633.033-3.3.1-5,.215" transform="translate(-187.462 -15.153)" fill="#fff"/>
        <path id="Path_857" data-name="Path 857" d="M242.134,30.769c-.08,3.3,1.115,7.069,3.721,11a41.107,41.107,0,0,0,10.522,10.524q.766-.9,1.516-1.771a38.1,38.1,0,0,1-9.749-9.751c-2.415-3.644-3.522-7.133-3.448-10.194q-1.273.081-2.562.191" transform="translate(-192.95 -15.153)" fill="#fff"/>
        <path id="Path_858" data-name="Path 858" d="M243.65,31.124c-.088,3.641,1.228,7.791,4.1,12.125a45.29,45.29,0,0,0,11.6,11.6q1.089-1.3,2.156-2.553A41.107,41.107,0,0,1,250.981,41.77c-2.606-3.932-3.8-7.7-3.721-11q-1.794.152-3.61.355" transform="translate(-198.076 -15.153)" fill="#1b45b9"/>
        <path id="Path_859" data-name="Path 859" d="M245.807,31.811c-.1,4.121,1.39,8.817,4.642,13.723a51.256,51.256,0,0,0,13.124,13.127q1.593-1.941,3.162-3.814a45.29,45.29,0,0,1-11.6-11.6c-2.873-4.334-4.189-8.484-4.1-12.125-1.739.195-3.487.424-5.231.687" transform="translate(-205.464 -15.153)" fill="#fff"/>
        <path id="Path_860" data-name="Path 860" d="M248.969,32.229c-.1,4.358,1.471,9.324,4.909,14.511a54.211,54.211,0,0,0,13.877,13.879q.8-.985,1.6-1.958a51.256,51.256,0,0,1-13.124-13.127c-3.252-4.906-4.742-9.6-4.642-13.723q-1.311.2-2.618.418" transform="translate(-211.244 -15.153)" fill="#fff"/>
        <path id="Path_861" data-name="Path 861" d="M250.567,32.89c-.112,4.678,1.579,10.01,5.27,15.58a58.224,58.224,0,0,0,14.9,14.9q1.109-1.385,2.221-2.754A54.211,54.211,0,0,1,259.081,46.74c-3.438-5.187-5.013-10.153-4.909-14.511q-1.812.307-3.605.661" transform="translate(-216.447 -15.153)" fill="#1b45b9"/>
        <path id="Path_862" data-name="Path 862" d="M252.789,34c-.123,5.123,1.729,10.962,5.771,17.06a63.74,63.74,0,0,0,16.315,16.319q1.574-2,3.173-4a58.224,58.224,0,0,1-14.9-14.9c-3.691-5.57-5.382-10.9-5.27-15.58-1.72.339-3.42.708-5.089,1.106" transform="translate(-223.758 -15.153)" fill="#fff"/>
        <path id="Path_863" data-name="Path 863" d="M255.962,34.615c-.128,5.335,1.8,11.415,6.01,17.766a66.384,66.384,0,0,0,16.991,16.994q.775-1,1.561-2a63.74,63.74,0,0,1-16.315-16.319c-4.042-6.1-5.894-11.937-5.771-17.06q-1.251.3-2.476.619" transform="translate(-229.407 -15.153)" fill="#fff"/>
        <path id="Path_864" data-name="Path 864" d="M257.523,35.544c-.135,5.618,1.9,12.019,6.327,18.706a69.9,69.9,0,0,0,17.889,17.892q1.052-1.375,2.131-2.767a66.384,66.384,0,0,1-16.991-16.994c-4.209-6.351-6.138-12.431-6.01-17.766q-1.7.444-3.346.929" transform="translate(-234.314 -15.153)" fill="#1b45b9"/>
        <path id="Path_865" data-name="Path 865" d="M259.655,37.016c-.144,5.991,2.022,12.818,6.749,19.95a74.524,74.524,0,0,0,19.079,19.083q1.436-1.925,2.95-3.907A69.9,69.9,0,0,1,270.544,54.25c-4.432-6.687-6.462-13.088-6.327-18.706-1.573.465-3.1.956-4.562,1.472" transform="translate(-241.008 -15.153)" fill="#fff"/>
        <path id="Path_866" data-name="Path 866" d="M262.6,37.808c-.148,6.162,2.08,13.185,6.942,20.52a76.63,76.63,0,0,0,19.624,19.628q.695-.943,1.412-1.907A74.524,74.524,0,0,1,271.5,56.966c-4.727-7.132-6.893-13.959-6.749-19.95q-1.1.387-2.15.792" transform="translate(-246.108 -15.153)" fill="#fff"/>
        <path id="Path_867" data-name="Path 867" d="M264.017,38.97c-.153,6.38,2.154,13.652,7.188,21.247a79.369,79.369,0,0,0,20.32,20.324q.912-1.269,1.88-2.585a76.63,76.63,0,0,1-19.624-19.628c-4.862-7.335-7.09-14.358-6.942-20.52q-1.461.564-2.822,1.162" transform="translate(-250.342 -15.153)" fill="#1b45b9"/>
        <path id="Path_868" data-name="Path 868" d="M265.9,40.753c-.16,6.65,2.244,14.228,7.491,22.144a82.726,82.726,0,0,0,21.177,21.182c.789-1.139,1.625-2.322,2.5-3.538a79.369,79.369,0,0,1-20.32-20.324c-5.034-7.6-7.341-14.867-7.188-21.247-1.3.572-2.526,1.167-3.661,1.783" transform="translate(-255.884 -15.153)" fill="#fff"/>
        <path id="Path_869" data-name="Path 869" d="M268.4,41.692c-.162,6.763,2.282,14.47,7.618,22.52a84.141,84.141,0,0,0,21.537,21.542q.557-.82,1.149-1.675A82.726,82.726,0,0,1,277.526,62.9c-5.247-7.916-7.651-15.494-7.491-22.144q-.852.462-1.636.939" transform="translate(-260.021 -15.153)" fill="#fff"/>
        <path id="Path_870" data-name="Path 870" d="M269.548,43.049c-.166,6.893,2.326,14.749,7.765,22.956a85.773,85.773,0,0,0,21.954,21.958q.7-1.066,1.47-2.209A84.141,84.141,0,0,1,279.2,64.212c-5.336-8.05-7.78-15.757-7.618-22.52q-1.089.665-2.034,1.357" transform="translate(-263.204 -15.153)" fill="#1b45b9"/>
        <path id="Path_871" data-name="Path 871" d="M271.018,45.092c-.168,7.024,2.371,15.028,7.913,23.389A87.374,87.374,0,0,0,301.3,90.854c.546-.9,1.157-1.869,1.824-2.891a85.773,85.773,0,0,1-21.954-21.958c-5.439-8.207-7.931-16.063-7.765-22.956a19.16,19.16,0,0,0-2.386,2.043" transform="translate(-267.06 -15.153)" fill="#fff"/>
        <path id="Path_872" data-name="Path 872" d="M272.842,46.153c-.17,7.062,2.383,15.109,7.954,23.515,5.552,8.376,13.4,16.051,22.488,22.493q.361-.629.772-1.307a87.374,87.374,0,0,1-22.368-22.373c-5.542-8.361-8.081-16.365-7.913-23.389a12.863,12.863,0,0,0-.933,1.061" transform="translate(-269.817 -15.153)" fill="#fff"/>
        <path id="Path_873" data-name="Path 873" d="M273.614,50.958c-.17,7.08,2.39,15.15,7.977,23.579a85.006,85.006,0,0,0,20.481,21.051c2.406-1.5,3.752-2.482,5-3.427-9.088-6.442-16.936-14.117-22.488-22.493-5.571-8.406-8.124-16.453-7.954-23.515l-3.017,4.805" transform="translate(-273.606 -15.153)" fill="#1b45b9"/>
        <path id="Path_874" data-name="Path 874" d="M233.82,27.57c-3.029.309-4.613,1.608-4.709,3.862,1.021.258,2.393.565,3.4.885.033-1.374,1.121-2.366,3.037-2.491a21.926,21.926,0,0,0-1.724-2.256" transform="translate(-157.582 -15.153)" fill="#75a7ff"/>
        <path id="Path_875" data-name="Path 875" d="M236.443,26.491c-3.537.23-5.547,2.061-5.608,4.6.651.1,1.284.217,1.895.342.2-2.338,1.779-3.637,4.709-3.862q-.477-.549-1-1.079" transform="translate(-161.201 -15.153)" fill="#1637b9"/>
        <path id="Path_876" data-name="Path 876" d="M238.746,25.052c-4.361.284-6.84,2.542-6.915,5.671q1.463.151,2.824.367c.061-2.538,2.071-4.369,5.608-4.6q-.722-.738-1.517-1.439" transform="translate(-165.021 -15.153)" fill="#286df4"/>
        <path id="Path_877" data-name="Path 877" d="M242.238,23.122c-5.718.582-8.709,3.035-8.89,7.29,1.523.062,2.991.165,4.393.311.075-3.129,2.554-5.387,6.915-5.671-.761-.671-1.57-1.316-2.418-1.93" transform="translate(-170.931 -15.153)" fill="#75a7ff"/>
        <path id="Path_878" data-name="Path 878" d="M245.677,22.222c-6.25.406-9.8,3.643-9.911,8.128q1.181.016,2.323.062c.367-4.414,3.42-6.8,8.89-7.29q-.636-.462-1.3-.9" transform="translate(-175.672 -15.153)" fill="#1637b9"/>
        <path id="Path_879" data-name="Path 879" d="M248.428,21.046c-7.164.466-11.236,4.177-11.36,9.317,1.136-.023,2.254-.028,3.348-.013.108-4.485,3.661-7.722,9.911-8.128q-.924-.61-1.9-1.176" transform="translate(-180.322 -15.153)" fill="#286df4"/>
        <path id="Path_880" data-name="Path 880" d="M252.446,19.522c-8.5.554-13.333,4.956-13.479,11.056,1.7-.11,3.367-.182,5-.215.124-5.14,4.2-8.851,11.36-9.317-.932-.541-1.9-1.05-2.881-1.524" transform="translate(-187.221 -15.153)" fill="#75a7ff"/>
        <path id="Path_881" data-name="Path 881" d="M256.4,18.838c-9.174.6-14.389,5.348-14.547,11.931q1.289-.109,2.562-.191c.146-6.1,4.978-10.5,13.479-11.056q-.738-.355-1.494-.684" transform="translate(-192.664 -15.153)" fill="#1637b9"/>
        <path id="Path_882" data-name="Path 882" d="M259.374,17.975c-10.111.658-15.858,5.894-16.032,13.149q1.813-.2,3.61-.355c.158-6.583,5.373-11.334,14.547-11.931q-1.05-.458-2.125-.863" transform="translate(-197.768 -15.153)" fill="#286df4"/>
        <path id="Path_883" data-name="Path 883" d="M263.613,16.929c-11.445.744-17.949,6.671-18.146,14.882,1.744-.263,3.492-.492,5.231-.687.174-7.255,5.921-12.491,16.032-13.149-1.028-.387-2.07-.737-3.117-1.046" transform="translate(-205.124 -15.153)" fill="#75a7ff"/>
        <path id="Path_884" data-name="Path 884" d="M267.771,16.494c-12.1.788-18.978,7.054-19.187,15.735q1.307-.22,2.618-.418c.2-8.211,6.7-14.138,18.146-14.882q-.788-.233-1.577-.435" transform="translate(-210.859 -15.153)" fill="#1637b9"/>
        <path id="Path_885" data-name="Path 885" d="M270.762,15.994c-12.992.846-20.377,7.574-20.6,16.9q1.791-.353,3.605-.661c.209-8.681,7.087-14.947,19.187-15.735q-1.1-.281-2.191-.5" transform="translate(-216.041 -15.153)" fill="#286df4"/>
        <path id="Path_886" data-name="Path 886" d="M274.91,15.5c-14.227.926-22.313,8.293-22.558,18.5,1.669-.4,3.369-.767,5.089-1.106.224-9.322,7.609-16.05,20.6-16.9q-1.577-.315-3.132-.5" transform="translate(-223.321 -15.153)" fill="#75a7ff"/>
        <path id="Path_887" data-name="Path 887" d="M278.976,15.348c-14.815.964-23.236,8.637-23.492,19.267q1.226-.321,2.476-.619c.245-10.207,8.331-17.574,22.558-18.5q-.775-.091-1.542-.148" transform="translate(-228.929 -15.153)" fill="#1637b9"/>
        <path id="Path_888" data-name="Path 888" d="M281.759,15.26c-15.6,1.015-24.464,9.093-24.733,20.284q1.641-.484,3.346-.929c.256-10.63,8.677-18.3,23.492-19.267q-1.065-.078-2.105-.088" transform="translate(-233.817 -15.153)" fill="#286df4"/>
        <path id="Path_889" data-name="Path 889" d="M286.3,15.318l-2.268.181c-15.718,1.485-24.623,9.939-24.9,21.517,1.464-.516,2.989-1.007,4.562-1.472.269-11.191,9.135-19.269,24.733-20.284q-1.081-.009-2.126.058" transform="translate(-240.484 -15.153)" fill="#75a7ff"/>
        <path id="Path_890" data-name="Path 890" d="M286.485,16c-14.513,2.189-22.69,10.567-22.96,21.808q1.05-.405,2.15-.792c.278-11.578,9.183-20.032,24.9-21.517l-4.091.5" transform="translate(-247.028 -15.153)" fill="#1637b9"/>
        <path id="Path_891" data-name="Path 891" d="M290.139,16.57l-2.334.509c-12.784,3.028-19.932,11.211-20.189,21.891q1.359-.6,2.822-1.162c.27-11.241,8.447-19.619,22.96-21.808l-3.259.57" transform="translate(-253.941 -15.153)" fill="#286df4"/>
        <path id="Path_892" data-name="Path 892" d="M289.389,19.423c-10.266,3.916-15.947,11.636-16.18,21.33,1.135-.616,2.36-1.211,3.661-1.783.257-10.68,7.4-18.863,20.189-21.891-2.321.634-5.409,1.522-7.67,2.344" transform="translate(-263.195 -15.153)" fill="#75a7ff"/>
        <path id="Path_893" data-name="Path 893" d="M298.012,19.688l-3.079,1.334c-8.922,4.221-13.836,11.6-14.054,20.67q.783-.477,1.636-.939c.233-9.694,5.914-17.414,16.18-21.33l-.683.265" transform="translate(-272.501 -15.153)" fill="#1637b9"/>
        <path id="Path_894" data-name="Path 894" d="M295.82,23.7a22.765,22.765,0,0,0-11.179,19.354q.943-.693,2.034-1.357c.218-9.074,5.132-16.449,14.054-20.67-1.485.779-3.481,1.794-4.909,2.673" transform="translate(-278.297 -15.153)" fill="#286df4"/>
        <path id="Path_895" data-name="Path 895" d="M302,24.414c-1.686,1.249-3.887,2.984-5.455,4.379a22.9,22.9,0,0,0-7,16.3,19.16,19.16,0,0,1,2.386-2.043,22.765,22.765,0,0,1,11.179-19.354L302,24.414" transform="translate(-285.592 -15.153)" fill="#75a7ff"/>
        <path id="Path_896" data-name="Path 896" d="M302.521,30.365l-1.383,1.614a23.136,23.136,0,0,0-5.021,14.174,12.863,12.863,0,0,1,.933-1.061,22.9,22.9,0,0,1,7-16.3l-1.527,1.572" transform="translate(-293.092 -15.153)" fill="#1637b9"/>
        <path id="Path_897" data-name="Path 897" d="M306.553,31.979a23.136,23.136,0,0,0-5.021,14.174l-2.505.814S300.709,37.635,306.553,31.979Z" transform="translate(-298.507 -15.153)" fill="#286df4"/>
      </g>
    </g>
  </g>
</svg>
