<svg xmlns="http://www.w3.org/2000/svg" width="675.436" height="466.971" viewBox="0 0 675.436 466.971">
  <g id="media" transform="translate(-1137.457 -895.394)">
    <g id="Group_1060" data-name="Group 1060" transform="translate(1137.457 895.567)" style="isolation: isolate">
      <path id="Path_738" data-name="Path 738" d="M295.81,172.279,547.091,318.311,547.308,394,296.019,247.965c-16.526-9.6-24.8-22.179-24.842-34.778l-.21-75.685C271,150.1,279.283,162.678,295.81,172.279Z" transform="translate(-270.967 58.289)" fill="#fff"/>
      <path id="Path_739" data-name="Path 739" d="M466.778,172.706c16.855-9.734,25.275-22.515,25.24-35.275l.217,75.685c.035,12.76-8.392,25.541-25.24,35.275L214.072,394.415l-.217-75.685Z" transform="translate(183.2 57.87)" fill="#eee"/>
      <g id="Group_651" data-name="Group 651" transform="translate(276.124 376.6)">
        <path id="Path_740" data-name="Path 740" d="M253.662,163.376l.217,75.685c33.29,19.349,87.417,19.349,120.931,0l-.217-75.685C341.079,182.725,286.959,182.725,253.662,163.376Z" transform="translate(-253.662 -163.376)" fill="#f8f8f8"/>
      </g>
      <g id="Group_652" data-name="Group 652">
        <path id="Path_741" data-name="Path 741" d="M239.12,270c-33.513,19.349-33.646,50.718-.391,70.046L490.01,486.082c33.3,19.349,87.417,19.349,120.931,0L863.865,340.058c33.478-19.328,33.7-50.7.4-70.053L612.982,123.973c-33.262-19.321-87.459-19.321-120.931,0Z" transform="translate(-213.886 -109.482)" fill="#e2e2e2"/>
      </g>
      <g id="Group_653" data-name="Group 653" transform="translate(372.581 74.978)">
        <path id="Path_742" data-name="Path 742" d="M260.809,130.694c-6.743,0-6.757-10.482,0-10.482s6.757,10.482,0,10.482Z" transform="translate(-255.746 -120.212)" fill="#ffe066"/>
      </g>
    </g>
    <g id="skype" transform="translate(1286.549 870.069)">
      <path id="Path_1922" data-name="Path 1922" d="M355.74,103.491a15.921,15.921,0,0,0-7.224-12.514L236.522,26.317c-2.011-1.161-3.835-1.269-5.153-.5L81.9,112.674l.013-.006c-1.308.753-2.121,2.363-2.127,4.656L79.8,240.376a15.919,15.919,0,0,0,7.221,12.511l111.994,64.659c2.141,1.236,4.062,1.271,5.394.341-.079.055-.153.116-.236.165l149.466-86.86c1.3-.756,2.108-2.364,2.114-4.649Z" transform="translate(-28.845)" fill="#898989"/>
      <g id="Group_1058" data-name="Group 1058" transform="translate(53.058 25.325)">
        <path id="Path_1923" data-name="Path 1923" d="M426.165,147.749,276.7,234.609l.008,123.052c-.006,2.285-.813,3.893-2.114,4.649L424.06,275.45c1.3-.756,2.108-2.364,2.114-4.649Z" transform="translate(-152.329 -69.583)" fill="#b5b5b5"/>
        <path id="Path_1924" data-name="Path 1924" d="M237.719,26.317c-2.011-1.161-3.835-1.269-5.153-.5L83.1,112.674c1.317-.766,3.141-.658,5.153.5l111.994,64.659L349.714,90.976Z" transform="translate(-83.101 -25.325)" fill="#b5b5b5"/>
      </g>
      <path id="Path_1925" data-name="Path 1925" d="M266.576,215.01l149.466-86.861a15.922,15.922,0,0,1,7.224,12.514L273.8,227.523A15.925,15.925,0,0,0,266.576,215.01Z" transform="translate(-96.372 -37.173)" fill="#fff"/>
      <path id="Path_1926" data-name="Path 1926" d="M195.578,312.13c.292,23.866-16.163,33.912-36.753,22.438s-37.519-40.124-37.812-63.989,16.163-33.912,36.753-22.438S195.286,288.264,195.578,312.13Z" transform="translate(-43.747 -78.836)" fill="#005ecf"/>
      <path id="Path_1927" data-name="Path 1927" d="M195.578,312.13c.292,23.866-16.163,33.912-36.753,22.438s-37.519-40.124-37.812-63.989,16.163-33.912,36.753-22.438S195.286,288.264,195.578,312.13Z" transform="translate(-43.747 -78.836)" fill="#512cb7"/>
      <path id="Path_1928" data-name="Path 1928" d="M107.992,386.405c-9.862,13.962-28.179,16.783-49.3,5.012C26.733,373.61.46,329.147.007,292.107c-.308-25.084,11.306-40.331,28.759-42.03l36.867-3.588,16.758-1.631,10.055-.979c1.006-.1,2.637.388,3.352-.326-11.246,1.094-18.729,10.919-18.531,27.081.292,23.866,17.221,52.515,37.812,63.989,13.61,7.584,25.413,5.767,31.768-3.229Z" transform="translate(0 -78.894)" fill="#005ecf"/>
      <path id="Path_1929" data-name="Path 1929" d="M107.992,386.405c-9.862,13.962-28.179,16.783-49.3,5.012C26.733,373.61.46,329.147.007,292.107c-.308-25.084,11.306-40.331,28.759-42.03l36.867-3.588,16.758-1.631,10.055-.979c1.006-.1,2.637.388,3.352-.326-11.246,1.094-18.729,10.919-18.531,27.081.292,23.866,17.221,52.515,37.812,63.989,13.61,7.584,25.413,5.767,31.768-3.229Z" transform="translate(0 -78.894)" fill="#512cb7"/>
      <path id="Path_1930" data-name="Path 1930" d="M114.02,248.14c-6.646-3.7-12.862-5.165-18.222-4.643L28.766,250.02c.093-.01.19-.013.283-.02C11.439,251.561-.3,266.832.006,292.05c.454,37.039,26.727,81.5,58.684,99.31,21.232,11.832,39.627,8.915,49.451-5.235-.05.073-.1.15-.149.222l38.854-55.01c3.259-4.614,5.085-11.117,4.986-19.208C151.539,288.264,134.61,259.614,114.02,248.14Z" transform="translate(0 -78.836)" fill="#00479b"/>
      <path id="Path_1931" data-name="Path 1931" d="M169.767,326.453c.227,18.52-12.542,26.315-28.52,17.411s-29.114-31.135-29.342-49.656,12.542-26.315,28.52-17.411S169.54,307.933,169.767,326.453Z" transform="translate(-40.455 -89.58)" fill="#b5b5b5"/>
      <path id="Path_1932" data-name="Path 1932" d="M133.965,342.459l-31.933,38.621c-7.281,8.806-19.887,10.256-34.317,2.215-22.928-12.777-41.779-44.679-42.1-71.253-.21-17.159,7.355-27.9,18.913-29.923h0l49.365-8.624c-8.055,1.407-13.327,8.895-13.18,20.852C80.935,312.866,94.072,335.1,110.05,344,120.106,349.606,128.891,348.6,133.965,342.459Z" transform="translate(-9.257 -89.717)" fill="#005ecf"/>
      <path id="Path_1933" data-name="Path 1933" d="M133.965,342.459l-31.933,38.621c-7.281,8.806-19.887,10.256-34.317,2.215-22.928-12.777-41.779-44.679-42.1-71.253-.21-17.159,7.355-27.9,18.913-29.923h0l49.365-8.624c-8.055,1.407-13.327,8.895-13.18,20.852C80.935,312.866,94.072,335.1,110.05,344,120.106,349.606,128.891,348.6,133.965,342.459Z" transform="translate(-9.257 -89.717)" fill="#706868"/>
      <path id="Path_1934" data-name="Path 1934" d="M145.3,411.143c4.287-5.185,6.728-12.921,6.608-22.77l29.93-31.719c.084,6.864-1.617,12.254-4.6,15.868Z" transform="translate(-52.53 -119.781)" fill="#005ecf"/>
      <path id="Path_1935" data-name="Path 1935" d="M145.3,411.143c4.287-5.185,6.728-12.921,6.608-22.77l29.93-31.719c.084,6.864-1.617,12.254-4.6,15.868Z" transform="translate(-52.53 -119.781)" fill="#512cb7"/>
      <path id="Path_1936" data-name="Path 1936" d="M104.6,273.357c4.42-.773,9.678.286,15.34,3.441,15.978,8.9,29.114,31.135,29.342,49.655l-29.93,31.719c-.326-26.575-19.176-58.476-42.1-71.253-8.124-4.527-15.67-6.046-22.012-4.937Z" transform="translate(-19.968 -89.58)" fill="#005ecf"/>
      <path id="Path_1937" data-name="Path 1937" d="M104.6,273.357c4.42-.773,9.678.286,15.34,3.441,15.978,8.9,29.114,31.135,29.342,49.655l-29.93,31.719c-.326-26.575-19.176-58.476-42.1-71.253-8.124-4.527-15.67-6.046-22.012-4.937Z" transform="translate(-19.968 -89.58)" fill="#512cb7"/>
      <path id="Path_1938" data-name="Path 1938" d="M130.307,248.14c-6.646-3.7-12.862-5.165-18.222-4.643L45.054,250.02c8.319-.81,17.966,1.459,28.28,7.207,31.956,17.808,58.23,62.271,58.683,99.31.153,12.557-2.68,22.649-7.738,29.81l38.854-55.01c3.259-4.614,5.085-11.117,4.986-19.208C167.827,288.264,150.9,259.614,130.307,248.14Z" transform="translate(-16.288 -78.836)" fill="#b5b5b5"/>
      <path id="Path_1939" data-name="Path 1939" d="M115.729,360.2c.454,37.04-25.084,52.631-57.04,34.822S.459,332.751.006,295.711s25.084-52.631,57.04-34.823S115.276,323.159,115.729,360.2Zm-16.347-9.11c-.326-26.575-19.176-58.476-42.1-71.253s-41.251-1.591-40.925,24.984,19.176,58.476,42.1,71.253,41.25,1.59,40.925-24.984" transform="translate(0 -82.498)" fill="#898989"/>
      <g id="Group_1059" data-name="Group 1059" transform="translate(145.183 180.035)">
        <path id="Path_1940" data-name="Path 1940" d="M242.184,269.034c-2.837-1.638-5.408-1.79-7.265-.711l-4.553,2.646a.148.148,0,0,0,.018-.009c-1.843,1.061-2.988,3.329-3,6.559-.019,6.481,4.538,14.374,10.177,17.63,3.017,1.742,5.725,1.79,7.6.478-.111.078-.218.165-.335.233l4.553-2.646c1.833-1.066,2.97-3.33,2.979-6.551C252.382,280.185,247.825,272.291,242.184,269.034Z" transform="translate(-227.387 -267.634)" fill="#d6505c"/>
        <path id="Path_1941" data-name="Path 1941" d="M243.872,269.034c-2.837-1.638-5.408-1.79-7.265-.711l-4.553,2.646c1.857-1.079,4.427-.926,7.265.711,5.64,3.256,10.2,11.15,10.179,17.631-.01,3.22-1.145,5.485-2.979,6.551l4.553-2.646c1.833-1.066,2.97-3.33,2.979-6.551C254.07,280.185,249.512,272.291,243.872,269.034Z" transform="translate(-229.074 -267.634)" fill="#d6505c"/>
      </g>
      <path id="Path_1942" data-name="Path 1942" d="M237.632,273.179c5.64,3.256,10.2,11.15,10.179,17.631s-4.605,9.1-10.245,5.839-10.2-11.149-10.177-17.63S231.994,269.923,237.632,273.179Z" transform="translate(-82.205 -89.097)" fill="#be3e50"/>
    </g>
  </g>
</svg>
