<svg xmlns="http://www.w3.org/2000/svg" width="675.436" height="559.33" viewBox="0 0 675.436 559.33">
  <g id="security" transform="translate(-1431.457 -750.034)">
    <g id="Group_1062" data-name="Group 1062" transform="translate(1431.457 842.567)" style="isolation: isolate">
      <path id="Path_738" data-name="Path 738" d="M295.81,172.279,547.091,318.311,547.308,394,296.019,247.965c-16.526-9.6-24.8-22.179-24.842-34.778l-.21-75.685C271,150.1,279.283,162.678,295.81,172.279Z" transform="translate(-270.967 58.289)" fill="#fff"/>
      <path id="Path_739" data-name="Path 739" d="M466.778,172.706c16.855-9.734,25.275-22.515,25.24-35.275l.217,75.685c.035,12.76-8.392,25.541-25.24,35.275L214.072,394.415l-.217-75.685Z" transform="translate(183.2 57.87)" fill="#f4f2ff"/>
      <g id="Group_651" data-name="Group 651" transform="translate(276.124 376.6)">
        <path id="Path_740" data-name="Path 740" d="M253.662,163.376l.217,75.685c33.29,19.349,87.417,19.349,120.931,0l-.217-75.685C341.079,182.725,286.959,182.725,253.662,163.376Z" transform="translate(-253.662 -163.376)" fill="#faf9ff"/>
      </g>
      <g id="Group_652" data-name="Group 652">
        <path id="Path_741" data-name="Path 741" d="M239.12,270c-33.513,19.349-33.646,50.718-.391,70.046L490.01,486.082c33.3,19.349,87.417,19.349,120.931,0L863.865,340.058c33.478-19.328,33.7-50.7.4-70.053L612.982,123.973c-33.262-19.321-87.459-19.321-120.931,0Z" transform="translate(-213.886 -109.482)" fill="#e9e5ff"/>
      </g>
      <g id="Group_653" data-name="Group 653" transform="translate(372.581 74.978)">
        <path id="Path_742" data-name="Path 742" d="M260.809,130.694c-6.743,0-6.757-10.482,0-10.482s6.757,10.482,0,10.482Z" transform="translate(-255.746 -120.212)" fill="#ffe066"/>
      </g>
    </g>
    <g id="security-2" data-name="security" transform="translate(1566.812 750.034)">
      <g id="Group_1061" data-name="Group 1061" transform="translate(77.05 209.034)">
        <path id="Path_1943" data-name="Path 1943" d="M300.413,431.525c24.474-14.13,36.7-32.68,36.644-51.2l-.128-27.04c0,.057-.014.116-.014.173.023-18.349-11.983-36.685-36.076-50.686-48.34-28.092-126.966-28.093-175.6-.012-26.032,15.03-38.07,35.051-36.363,54.726-.1-1.169-.294-2.337-.3-3.508l.128,27.04c.052,18.29,12.073,36.553,36.088,50.509C173.131,459.617,251.756,459.618,300.413,431.525Z" transform="translate(-88.574 -281.697)" fill="#d8d8da"/>
        <path id="Path_1944" data-name="Path 1944" d="M300.413,456.408c24.474-14.13,36.7-32.68,36.644-51.2l-.128-27.04c.053,18.523-12.172,37.074-36.645,51.2-48.656,28.092-127.282,28.091-175.622,0-24.014-13.956-36.036-32.218-36.088-50.509L88.7,405.9c.052,18.29,12.073,36.553,36.088,50.509C173.131,484.5,251.756,484.5,300.413,456.408Z" transform="translate(-88.574 -306.58)" fill="#d8d8da"/>
      </g>
      <path id="Path_1945" data-name="Path 1945" d="M300.283,404.485c-48.656,28.092-127.282,28.091-175.622,0s-48.084-73.635.572-101.727c48.639-28.082,127.264-28.082,175.6.011S348.923,376.4,300.283,404.485Z" transform="translate(-11.524 -72.663)" fill="#e0e0e2"/>
      <circle id="Ellipse_327" data-name="Ellipse 327" cx="157.39" cy="157.39" r="157.39" transform="translate(43.899 0)" fill="#fff"/>
      <path id="Path_1946" data-name="Path 1946" d="M175.738,283.644c.466,38.019-25.747,54.022-58.547,35.743S57.422,255.47,56.956,217.451,82.7,163.43,115.5,181.708,175.272,245.625,175.738,283.644Z" transform="translate(-3.366 -44.921)" fill="#4d4d4d"/>
      <path id="Path_1947" data-name="Path 1947" d="M146.989,278.791c.12,9.808-6.641,13.936-15.1,9.221s-15.418-16.488-15.538-26.3,6.641-13.936,15.1-9.221S146.869,268.984,146.989,278.791Z" transform="translate(-18.688 -64.627)" fill="#666"/>
      <path id="Path_1948" data-name="Path 1948" d="M182.055,284.709c.541,44.218-29.945,62.83-68.094,41.571S44.448,251.941,43.907,207.724,73.851,144.894,112,166.153,181.514,240.492,182.055,284.709ZM162.54,273.835c-.388-31.725-22.892-69.809-50.264-85.062s-49.245-1.9-48.856,29.827,22.892,69.809,50.264,85.062,49.244,1.9,48.856-29.827" transform="translate(0 -40.59)" fill="#acabb1"/>
      <path id="Path_1949" data-name="Path 1949" d="M144.468,121.448c-10.957-6.326-25-8.462-31.355-4.767s-2.625,11.82,8.333,18.146,25,8.462,31.355,4.767S155.425,127.774,144.468,121.448Z" transform="translate(-17.054 -29.63)" fill="#bdb3ee"/>
    </g>
  </g>
</svg>
