<svg xmlns="http://www.w3.org/2000/svg" width="411.057" height="475.691" viewBox="0 0 411.057 475.691">
  <g id="shopify" transform="translate(-792.972 -5578.666)">
    <g id="shopify-2" data-name="shopify" transform="translate(835.409 5585.387)">
      <path id="Path_483" data-name="Path 483" d="M243.987,63.155c-1.487-.124-32.965-2.457-32.965-2.457s-21.862-21.7-24.262-24.106a5.992,5.992,0,0,0-3.375-1.549L165.724,396.284l126.548-27.376S247.843,68.536,247.564,66.478a3.958,3.958,0,0,0-3.577-3.323" transform="translate(67.901 14.042)" fill="#b5ceac"/>
      <path id="Path_482" data-name="Path 482" d="M315.465,80.52a3.958,3.958,0,0,0-3.577-3.323c-1.487-.124-32.966-2.457-32.966-2.457s-21.862-21.7-24.262-24.106-7.09-1.671-8.91-1.135c-.268.079-4.776,1.47-12.234,3.778-7.3-21.015-20.191-40.326-42.865-40.326-.626,0-1.27.025-1.915.062C182.288,4.484,174.3.779,167.4.779c-52.819,0-78.053,66.029-85.965,99.582-20.524,6.36-35.1,10.881-36.967,11.466-11.456,3.594-11.818,3.955-13.323,14.75C30.014,134.75.038,366.565.038,366.565l233.576,43.764,126.559-27.379S315.746,82.578,315.466,80.52ZM220.607,57.269l-19.764,6.117c.007-1.393.014-2.763.014-4.262,0-13.061-1.813-23.576-4.721-31.913C207.818,28.678,215.6,41.971,220.607,57.269ZM181.642,29.8C184.89,37.94,187,49.621,187,65.382c0,.806-.007,1.544-.014,2.29-12.853,3.981-26.82,8.3-40.818,12.64,7.86-30.334,22.592-44.984,35.472-50.511ZM165.95,14.946a11.929,11.929,0,0,1,6.774,2.287C155.8,25.2,137.652,45.26,129.989,85.323L97.724,95.316c8.975-30.558,30.286-80.369,68.224-80.369Z" transform="translate(0 0)" fill="none" stroke="#373f54" stroke-width="15"/>
      <path id="Path_484" data-name="Path 484" d="M174.593,106.363l-15.605,46.42a71.785,71.785,0,0,0-30.432-7.3c-24.57,0-25.807,15.419-25.807,19.3,0,21.2,55.265,29.324,55.265,78.984,0,39.07-24.78,64.228-58.193,64.228-40.1,0-60.6-24.954-60.6-24.954l10.736-35.471s21.077,18.1,38.862,18.1c11.621,0,16.348-9.15,16.348-15.835,0-27.655-45.34-28.889-45.34-74.331,0-38.247,27.452-75.259,82.866-75.259,21.352,0,31.9,6.116,31.9,6.116" transform="translate(26.058 50.764)" fill="none" stroke="#fff" stroke-linecap="round" stroke-linejoin="round" stroke-width="15"/>
      <path id="Path_503" data-name="Path 503" d="M174.593,106.363l-15.605,46.42a71.785,71.785,0,0,0-30.432-7.3c-24.57,0-25.807,15.419-25.807,19.3,0,21.2,55.265,29.324,55.265,78.984,0,39.07-24.78,64.228-58.193,64.228-40.1,0-60.6-24.954-60.6-24.954l10.736-35.471s21.077,18.1,38.862,18.1c11.621,0,16.348-9.15,16.348-15.835,0-27.655-45.34-28.889-45.34-74.331,0-38.247,27.452-75.259,82.866-75.259,21.352,0,31.9,6.116,31.9,6.116" transform="translate(16.058 40.764)" fill="none" stroke="#373f54" stroke-linecap="round" stroke-linejoin="round" stroke-width="15"/>
    </g>
    <circle id="Ellipse_222" data-name="Ellipse 222" cx="31.628" cy="31.628" r="31.628" transform="translate(792.972 5609.965)" fill="#b8d2ae"/>
    <circle id="Ellipse_223" data-name="Ellipse 223" cx="16.005" cy="16.005" r="16.005" transform="translate(872.615 5641.594)" fill="#b8d2ae"/>
    <circle id="Ellipse_224" data-name="Ellipse 224" cx="25.531" cy="25.531" r="25.531" transform="translate(1128.004 6003.293)" fill="#b8d2ae"/>
  </g>
</svg>
