<svg xmlns="http://www.w3.org/2000/svg" width="74.665" height="66.738" viewBox="0 0 74.665 66.738">
  <g id="agile_1_" data-name="agile (1)" transform="translate(-21.25 -32.584)">
    <circle id="Ellipse_519" data-name="Ellipse 519" cx="17.5" cy="17.5" r="17.5" transform="translate(44.25 52.49)" fill="#fe7d7d"/>
    <g id="Group_2765" data-name="Group 2765" transform="translate(21.25 37.895)">
      <path id="Path_3417" data-name="Path 3417" d="M48.576,76.067c.025,0,.05,0,.074,0a.874.874,0,0,0,.87-.8,26.507,26.507,0,0,1,19.237-23.21.874.874,0,1,0-.469-1.684,28.261,28.261,0,0,0-20.51,24.748A.874.874,0,0,0,48.576,76.067Z" transform="translate(-38.499 -49.443)"/>
      <path id="Path_3418" data-name="Path 3418" d="M132.816,49.515a26.5,26.5,0,0,1,23.236,19.238.874.874,0,1,0,1.684-.469,28.257,28.257,0,0,0-24.776-20.512.874.874,0,0,0-.145,1.743Z" transform="translate(-93.277 -47.769)"/>
      <path id="Path_3419" data-name="Path 3419" d="M62.846,84.472a.874.874,0,0,0,.779.961.905.905,0,0,0,.092,0,.874.874,0,0,0,.868-.783A21.3,21.3,0,0,1,80.019,66.465a.874.874,0,1,0-.464-1.686A23.057,23.057,0,0,0,62.846,84.472Z" transform="translate(-48.296 -58.81)"/>
      <path id="Path_3420" data-name="Path 3420" d="M84.859,158.515a21.3,21.3,0,0,1-18.3-15.334.874.874,0,1,0-1.683.474,23.053,23.053,0,0,0,19.815,16.6c.029,0,.057,0,.086,0a.874.874,0,0,0,.084-1.744Z" transform="translate(-49.597 -109.399)"/>
      <path id="Path_3421" data-name="Path 3421" d="M150.844,80a.874.874,0,0,0,.842.643.862.862,0,0,0,.232-.032.874.874,0,0,0,.611-1.075,23.039,23.039,0,0,0-19.816-16.721.875.875,0,0,0-.172,1.741A21.279,21.279,0,0,1,150.844,80Z" transform="translate(-93.108 -57.548)"/>
      <path id="Path_3422" data-name="Path 3422" d="M56.379,166.276A26.5,26.5,0,0,1,33.14,147.037a.874.874,0,1,0-1.684.469,28.138,28.138,0,0,0,8.592,13.615h-15.3a3.5,3.5,0,0,0,0,6.994H56.164a1.141,1.141,0,0,0,1.014-.9A.874.874,0,0,0,56.379,166.276ZM23,164.618a1.751,1.751,0,0,1,1.749-1.749h17.5a28.26,28.26,0,0,0,6.581,3.5H24.747A1.751,1.751,0,0,1,23,164.618Z" transform="translate(-21.25 -111.905)"/>
      <path id="Path_3423" data-name="Path 3423" d="M174.46,152.823a3.47,3.47,0,0,0-2.51-1.061h-15.3a28.2,28.2,0,0,0,9.5-18.675.874.874,0,1,0-1.742-.153,26.468,26.468,0,0,1-10.33,18.682.882.882,0,0,0-.147.146H146.9a22.9,22.9,0,0,0,14-18.794.874.874,0,1,0-1.74-.179,21.154,21.154,0,0,1-14.629,17.978,1.406,1.406,0,0,0,.432,2.743h26.987a1.749,1.749,0,0,1,1.749,1.8,1.819,1.819,0,0,1-1.857,1.694H144.429a.874.874,0,0,0,0,1.749h27.412a3.58,3.58,0,0,0,3.6-3.392,3.473,3.473,0,0,0-.986-2.54Z" transform="translate(-100.783 -102.545)"/>
    </g>
    <path id="Path_3424" data-name="Path 3424" d="M120.438,50.325a2.606,2.606,0,0,1-1.854-.769l-6.249-6.246a2.623,2.623,0,0,1,0-3.709l6.248-6.248a2.623,2.623,0,1,1,3.709,3.709L117.9,41.455l4.393,4.393a2.623,2.623,0,0,1-1.854,4.476Zm0-15.992a.87.87,0,0,0-.619.256l-6.247,6.248a.874.874,0,0,0,0,1.236l6.248,6.247a.9.9,0,0,0,1.236,0,.874.874,0,0,0,0-1.236l-5.011-5.011a.874.874,0,0,1,0-1.236l5.011-5.011a.874.874,0,0,0-.618-1.493Z" transform="translate(-58.732)"/>
    <path id="Path_3425" data-name="Path 3425" d="M114.192,190.43a2.623,2.623,0,0,1-1.854-4.476l4.393-4.393-4.393-4.393a2.623,2.623,0,1,1,3.709-3.709l6.248,6.248a2.623,2.623,0,0,1,0,3.709l-6.248,6.248A2.606,2.606,0,0,1,114.192,190.43Zm0-15.992a.874.874,0,0,0-.618,1.492l5.011,5.011a.874.874,0,0,1,0,1.236l-5.011,5.011a.874.874,0,0,0,0,1.236.894.894,0,0,0,1.237,0l6.247-6.248a.874.874,0,0,0,0-1.236l-6.248-6.247A.869.869,0,0,0,114.192,174.438Z" transform="translate(-58.733 -91.108)"/>
    <path id="Path_3426" data-name="Path 3426" d="M41.455,123.062a2.606,2.606,0,0,1-1.854-.769l-6.249-6.247a2.623,2.623,0,1,1,3.709-3.709l4.393,4.393,4.393-4.393a2.623,2.623,0,1,1,3.709,3.709l-6.248,6.248A2.606,2.606,0,0,1,41.455,123.062Zm-6.248-9.745a.874.874,0,0,0-.618,1.493l6.248,6.247a.9.9,0,0,0,1.236,0l6.247-6.248a.874.874,0,0,0,0-1.236.893.893,0,0,0-1.236,0l-5.011,5.011a.874.874,0,0,1-1.236,0l-5.011-5.011a.868.868,0,0,0-.618-.256Z" transform="translate(-7.371 -51.361)"/>
    <path id="Path_3427" data-name="Path 3427" d="M187.807,123.06a2.606,2.606,0,0,1-1.854-.769l-4.393-4.393-4.393,4.393a2.623,2.623,0,1,1-3.709-3.709l6.248-6.248a2.623,2.623,0,0,1,3.709,0l6.248,6.248a2.623,2.623,0,0,1-1.854,4.476Zm-6.248-7.272a.872.872,0,0,1,.618.256l5.011,5.011a.894.894,0,0,0,1.236,0,.874.874,0,0,0,0-1.237l-6.248-6.247a.9.9,0,0,0-1.236,0l-6.247,6.248a.874.874,0,0,0,0,1.236.893.893,0,0,0,1.236,0l5.011-5.011A.872.872,0,0,1,181.56,115.788Z" transform="translate(-98.479 -51.36)"/>
  </g>
</svg>
