<svg id="angular-service" xmlns="http://www.w3.org/2000/svg" width="384.938" height="406.114" viewBox="0 0 384.938 406.114">
  <g id="Group_1243" data-name="Group 1243" transform="translate(37.793 70.87)">
    <path id="Path_1097" data-name="Path 1097" d="M43.428,626.582,23.686,797.146a12.181,12.181,0,0,1-5.922,9.081L-90.418,865.845a11.809,11.809,0,0,1-11.45,0l-107.787-59.619a12.181,12.181,0,0,1-5.923-9.081l-19.741-170.564c-.79-5.529,2.764-10.66,7.9-12.635l127.528-45.405a13.437,13.437,0,0,1,7.9,0L35.531,613.947A11.576,11.576,0,0,1,43.428,626.582Z" transform="translate(235.428 -567.95)" fill="#ff8d90"/>
  </g>
  <g id="Group_1244" data-name="Group 1244" transform="translate(21.673 16.78)">
    <path id="Path_1098" data-name="Path 1098" d="M-62.982,933.084A10.515,10.515,0,0,1-67.72,931.9l-141.347-78.571a10.209,10.209,0,0,1-5.133-7.5l-25.269-221.1a9.575,9.575,0,0,1,6.317-10.265l166.616-59.618a9.778,9.778,0,0,1,6.712,0l166.616,59.618a9.409,9.409,0,0,1,6.317,10.265l-25.269,221.1a10.209,10.209,0,0,1-5.132,7.5L-58.639,931.9A7.959,7.959,0,0,1-62.982,933.084Zm-126.738-91.6L-68.509,908.6a11.8,11.8,0,0,0,11.45,0L64.151,841.485a12.185,12.185,0,0,0,5.923-9.081l22.5-193.069c.789-5.528-2.764-10.661-7.9-12.634L-58.244,575.373a13.421,13.421,0,0,0-7.9,0L-209.462,626.7a12.492,12.492,0,0,0-7.9,12.634L-195.643,832.4C-195.643,835.957-193.274,839.51-189.72,841.485Z" transform="translate(249.511 -544.25)" fill="#fff" stroke="#707070" stroke-width="1"/>
    <path id="Path_3402" data-name="Path 3402" d="M-62.982,933.084A10.515,10.515,0,0,1-67.72,931.9l-141.347-78.571a10.209,10.209,0,0,1-5.133-7.5l-25.269-221.1a9.575,9.575,0,0,1,6.317-10.265l166.616-59.618a9.778,9.778,0,0,1,6.712,0l166.616,59.618a9.409,9.409,0,0,1,6.317,10.265l-25.269,221.1a10.209,10.209,0,0,1-5.132,7.5L-58.639,931.9A7.959,7.959,0,0,1-62.982,933.084Zm-126.738-91.6L-68.509,908.6a11.8,11.8,0,0,0,11.45,0L64.151,841.485a12.185,12.185,0,0,0,5.923-9.081l22.5-193.069c.789-5.528-2.764-10.661-7.9-12.634L-58.244,575.373a13.421,13.421,0,0,0-7.9,0L-209.462,626.7a12.492,12.492,0,0,0-7.9,12.634L-195.643,832.4C-195.643,835.957-193.274,839.51-189.72,841.485Z" transform="translate(239.511 -554.25)" fill="#373f54"/>
  </g>
  <circle id="Ellipse_95" data-name="Ellipse 95" cx="26.058" cy="26.058" r="26.058" transform="translate(326.914 350.604)" fill="#ff8d90"/>
  <circle id="Ellipse_96" data-name="Ellipse 96" cx="26.058" cy="26.058" r="26.058" transform="translate(0 0)" fill="#ff8d90"/>
  <circle id="Ellipse_97" data-name="Ellipse 97" cx="10.66" cy="10.66" r="10.66" transform="translate(75.806 15.398)" fill="#ff8d90"/>
  <g id="Group_1245" data-name="Group 1245" transform="translate(108.279 85.528)">
    <path id="Path_1099" data-name="Path 1099" d="M-37.633,768.039l-80.544-189.121c-3.948-9.871-17.767-9.476-21.716,0l-76.991,189.121a10.19,10.19,0,0,0,5.528,13.03,11.538,11.538,0,0,0,3.553.789,9.738,9.738,0,0,0,9.081-6.317l30.007-73.438h81.728L-55.4,775.936a9.558,9.558,0,0,0,13.029,5.133A9.709,9.709,0,0,0-37.633,768.039Zm-123.185-85.677,31.981-78.571,33.56,78.571Z" transform="translate(217.575 -571.662)" fill="#373f54"/>
  </g>
</svg>
