<?xml version="1.0" encoding="utf-8"?>
<!-- Generator: Adobe Illustrator 16.0.0, SVG Export Plug-In . SVG Version: 6.00 Build 0)  -->
<!DOCTYPE svg PUBLIC "-//W3C//DTD SVG 1.1//EN" "http://www.w3.org/Graphics/SVG/1.1/DTD/svg11.dtd">
<svg version="1.1" id="Layer_1" xmlns="http://www.w3.org/2000/svg" xmlns:xlink="http://www.w3.org/1999/xlink" x="0px" y="0px"
	 width="76px" height="76px" viewBox="0 -25.188 76 76" enable-background="new 0 -25.188 76 76" xml:space="preserve">
<g>
	
		<linearGradient id="SVGID_1_" gradientUnits="userSpaceOnUse" x1="-2418.4746" y1="417.873" x2="-2380.4731" y2="417.873" gradientTransform="matrix(0.9999 -0.009 0.009 0.9999 2414.6453 -407.6932)">
		<stop  offset="0" style="stop-color:#90C8AF"/>
		<stop  offset="1" style="stop-color:#74A385"/>
	</linearGradient>
	<path fill="url(#SVGID_1_)" d="M20.698,12.659H0C0.194,33.649,17.357,51,38.344,50.807L38.146,30.1
		C28.599,30.193,20.779,22.205,20.698,12.659z"/>
	
		<linearGradient id="SVGID_2_" gradientUnits="userSpaceOnUse" x1="-2421.6274" y1="767.9609" x2="-2383.6226" y2="767.9609" gradientTransform="matrix(0.9999 0.009 0.009 -0.9999 2414.6453 783.2459)">
		<stop  offset="0" style="stop-color:#56ACDF"/>
		<stop  offset="1" style="stop-color:#3F9AC0"/>
	</linearGradient>
	<path fill="url(#SVGID_2_)" d="M20.698,12.659H0c0.194-20.992,17.357-38.035,38.344-37.84L38.146-4.475
		C28.599-4.569,20.779,3.111,20.698,12.659z"/>
	
		<linearGradient id="SVGID_3_" gradientUnits="userSpaceOnUse" x1="-2380.4814" y1="380.2168" x2="-2342.4746" y2="380.2168" gradientTransform="matrix(0.9999 -0.009 0.009 0.9999 2414.6453 -407.6932)">
		<stop  offset="0" style="stop-color:#FDC662"/>
		<stop  offset="1" style="stop-color:#F6B142"/>
	</linearGradient>
	<path fill="url(#SVGID_3_)" d="M55.299,12.659h20.699C75.803-8.336,58.639-25.373,37.651-25.183l0.189,20.699
		C47.39-4.578,55.214,3.095,55.299,12.659z"/>
	
		<linearGradient id="SVGID_4_" gradientUnits="userSpaceOnUse" x1="-2380.4839" y1="418.1221" x2="-2342.4746" y2="418.1221" gradientTransform="matrix(0.9999 -0.009 0.009 0.9999 2414.6453 -407.6932)">
		<stop  offset="0" style="stop-color:#ACD273"/>
		<stop  offset="1" style="stop-color:#97B95C"/>
	</linearGradient>
	<path fill="url(#SVGID_4_)" d="M55.299,12.659c0.083,9.555-7.596,17.366-17.152,17.44l0.197,20.707
		c20.985-0.188,37.849-17.17,37.654-38.147H55.299z"/>
</g>
</svg>
