<?xml version="1.0" encoding="utf-8"?>
<!-- Generator: Adobe Illustrator 16.0.0, SVG Export Plug-In . SVG Version: 6.00 Build 0)  -->
<!DOCTYPE svg PUBLIC "-//W3C//DTD SVG 1.1//EN" "http://www.w3.org/Graphics/SVG/1.1/DTD/svg11.dtd">
<svg version="1.1" id="Layer_1" xmlns="http://www.w3.org/2000/svg" xmlns:xlink="http://www.w3.org/1999/xlink" x="0px" y="0px"
	 width="131px" height="131px" viewBox="0 0 131 131" enable-background="new 0 0 131 131" xml:space="preserve">
<g>
	<linearGradient id="SVGID_1_" gradientUnits="userSpaceOnUse" x1="92.8882" y1="19.2954" x2="130.5171" y2="19.2954">
		<stop  offset="0" style="stop-color:#909191"/>
		<stop  offset="1" style="stop-color:#5A6769"/>
	</linearGradient>
	<path fill="url(#SVGID_1_)" d="M110.019,38.11h20.498c0-20.781-16.848-37.629-37.629-37.629v20.497
		C102.349,20.978,110.019,28.647,110.019,38.11z"/>
	<linearGradient id="SVGID_2_" gradientUnits="userSpaceOnUse" x1="92.8882" y1="56.9248" x2="130.5171" y2="56.9248">
		<stop  offset="0" style="stop-color:#56AEE0"/>
		<stop  offset="1" style="stop-color:#429BC1"/>
	</linearGradient>
	<path fill="url(#SVGID_2_)" d="M110.019,38.11c0,9.461-7.67,17.131-17.131,17.131V75.74c20.781,0,37.629-16.849,37.629-37.63
		H110.019z"/>
	<linearGradient id="SVGID_3_" gradientUnits="userSpaceOnUse" x1="55.2588" y1="56.9248" x2="92.8882" y2="56.9248">
		<stop  offset="0" style="stop-color:#FEC662"/>
		<stop  offset="1" style="stop-color:#F6B243"/>
	</linearGradient>
	<path fill="url(#SVGID_3_)" d="M75.755,38.11H55.259c0,20.781,16.848,37.63,37.629,37.63V55.241
		C83.425,55.241,75.755,47.571,75.755,38.11z"/>
	<linearGradient id="SVGID_4_" gradientUnits="userSpaceOnUse" x1="0.4824" y1="56.9385" x2="38.1113" y2="56.9385">
		<stop  offset="0" style="stop-color:#92CAB2"/>
		<stop  offset="1" style="stop-color:#74A587"/>
	</linearGradient>
	<path fill="url(#SVGID_4_)" d="M38.111,55.254c-9.461,0-17.131-7.67-17.131-17.131H0.482c0,20.781,16.848,37.63,37.629,37.63
		V55.254z"/>
	<linearGradient id="SVGID_5_" gradientUnits="userSpaceOnUse" x1="0.4824" y1="74.0757" x2="38.1113" y2="74.0757">
		<stop  offset="0" style="stop-color:#FEC662"/>
		<stop  offset="1" style="stop-color:#F6B243"/>
	</linearGradient>
	<path fill="url(#SVGID_5_)" d="M38.111,75.757V55.26c-20.781,0-37.629,16.849-37.629,37.63H20.98
		C20.98,83.427,28.65,75.757,38.111,75.757z"/>
	<linearGradient id="SVGID_6_" gradientUnits="userSpaceOnUse" x1="0.4824" y1="19.3091" x2="38.1113" y2="19.3091">
		<stop  offset="0" style="stop-color:#F2EFD9"/>
		<stop  offset="1" style="stop-color:#F2DEB0"/>
	</linearGradient>
	<path fill="url(#SVGID_6_)" d="M38.111,20.991V0.495c-20.781,0-37.629,16.848-37.629,37.629H20.98
		C20.98,28.661,28.65,20.991,38.111,20.991z"/>
	<linearGradient id="SVGID_7_" gradientUnits="userSpaceOnUse" x1="38.1113" y1="19.3091" x2="75.7397" y2="19.3091">
		<stop  offset="0" style="stop-color:#AED474"/>
		<stop  offset="1" style="stop-color:#97BB5C"/>
	</linearGradient>
	<path fill="url(#SVGID_7_)" d="M55.244,38.124H75.74c0-20.781-16.847-37.629-37.628-37.629v20.496
		C47.574,20.991,55.244,28.661,55.244,38.124z"/>
	<linearGradient id="SVGID_8_" gradientUnits="userSpaceOnUse" x1="38.1113" y1="111.7046" x2="75.7397" y2="111.7046">
		<stop  offset="0" style="stop-color:#909191"/>
		<stop  offset="1" style="stop-color:#5A6769"/>
	</linearGradient>
	<path fill="url(#SVGID_8_)" d="M38.111,110.021v20.498c20.781,0,37.628-16.848,37.628-37.629H55.244
		C55.244,102.351,47.574,110.021,38.111,110.021z"/>
	<linearGradient id="SVGID_9_" gradientUnits="userSpaceOnUse" x1="55.2588" y1="19.2954" x2="92.8882" y2="19.2954">
		<stop  offset="0" style="stop-color:#F68D5D"/>
		<stop  offset="1" style="stop-color:#E9814B"/>
	</linearGradient>
	<path fill="url(#SVGID_9_)" d="M92.888,20.978V0.481c-20.781,0-37.629,16.848-37.629,37.629h20.497
		C75.755,28.647,83.425,20.978,92.888,20.978z"/>
	<linearGradient id="SVGID_10_" gradientUnits="userSpaceOnUse" x1="0.4824" y1="111.7046" x2="38.1113" y2="111.7046">
		<stop  offset="0" style="stop-color:#F2EFD9"/>
		<stop  offset="1" style="stop-color:#F2DEB0"/>
	</linearGradient>
	<path fill="url(#SVGID_10_)" d="M38.111,110.021c-9.461,0-17.131-7.67-17.131-17.131H0.482c0,20.781,16.848,37.629,37.629,37.629
		V110.021z"/>
	<linearGradient id="SVGID_11_" gradientUnits="userSpaceOnUse" x1="38.1113" y1="74.0757" x2="75.7397" y2="74.0757">
		<stop  offset="0" style="stop-color:#AED474"/>
		<stop  offset="1" style="stop-color:#97BB5C"/>
	</linearGradient>
	<path fill="url(#SVGID_11_)" d="M55.244,92.89H75.74c0-20.781-16.847-37.63-37.628-37.63v20.497
		C47.574,75.757,55.244,83.427,55.244,92.89z"/>
	<linearGradient id="SVGID_12_" gradientUnits="userSpaceOnUse" x1="38.1113" y1="56.9385" x2="75.7397" y2="56.9385">
		<stop  offset="0" style="stop-color:#F68D5D"/>
		<stop  offset="1" style="stop-color:#E9814B"/>
	</linearGradient>
	<path fill="url(#SVGID_12_)" d="M38.111,55.254v20.499c20.781,0,37.628-16.849,37.628-37.63H55.244
		C55.244,47.584,47.574,55.254,38.111,55.254z"/>
</g>
</svg>
