<svg xmlns="http://www.w3.org/2000/svg" xmlns:xlink="http://www.w3.org/1999/xlink" width="373.66" height="225.241" viewBox="0 0 373.66 225.241"><defs><linearGradient id="a" x1="-95.007" y1="15.904" x2="-94.016" y2="15.904" gradientUnits="objectBoundingBox"><stop offset="0" stop-color="#85bea0"/><stop offset="1" stop-color="#679472"/></linearGradient><linearGradient id="b" x1="-95.013" y1="15.892" x2="-94.022" y2="15.892" gradientUnits="objectBoundingBox"><stop offset="0" stop-color="#7c7d7e"/><stop offset="1" stop-color="#485556"/></linearGradient><linearGradient id="c" x1="-95.003" y1="15.89" x2="-94.012" y2="15.89" gradientUnits="objectBoundingBox"><stop offset="0" stop-color="#ffb84c"/><stop offset="1" stop-color="#f8a02d"/></linearGradient><linearGradient id="d" x1="-94.99" y1="15.905" x2="-93.999" y2="15.905" xlink:href="#c"/><linearGradient id="e" x1="-96.242" y1="15.712" x2="-95.238" y2="15.712" gradientUnits="objectBoundingBox"><stop offset="0" stop-color="#a9ca5d"/><stop offset="1" stop-color="#91ad46"/></linearGradient><linearGradient id="f" x1="-66.235" y1="8.117" x2="-65.229" y2="8.117" gradientUnits="objectBoundingBox"><stop offset="0" stop-color="#389edb"/><stop offset="1" stop-color="#298ab5"/></linearGradient><linearGradient id="g" x1="-95.018" y1="15.871" x2="-94.027" y2="15.871" xlink:href="#a"/><linearGradient id="h" x1="-96.298" y1="15.67" x2="-95.293" y2="15.67" xlink:href="#c"/><linearGradient id="i" x1="-96.242" y1="15.673" x2="-95.238" y2="15.673" gradientUnits="objectBoundingBox"><stop offset="0" stop-color="#eee9ce"/><stop offset="1" stop-color="#f2d49e"/></linearGradient><linearGradient id="j" x1="-94.991" y1="15.881" x2="-94" y2="15.881" xlink:href="#e"/><linearGradient id="k" x1="-96.264" y1="15.684" x2="-95.259" y2="15.684" xlink:href="#b"/><linearGradient id="l" x1="-95.016" y1="15.878" x2="-94.025" y2="15.878" xlink:href="#i"/><linearGradient id="m" x1="-95.004" y1="15.881" x2="-94.013" y2="15.881" xlink:href="#e"/><linearGradient id="n" x1="-66.246" y1="8.109" x2="-65.24" y2="8.109" gradientUnits="objectBoundingBox"><stop offset="0" stop-color="#f37649"/><stop offset="1" stop-color="#e46a37"/></linearGradient><linearGradient id="o" x1="-94.977" y1="15.93" x2="-93.986" y2="15.93" xlink:href="#a"/><linearGradient id="p" x1="-94.964" y1="15.915" x2="-93.973" y2="15.915" xlink:href="#b"/><linearGradient id="q" x1="-94.973" y1="15.917" x2="-93.982" y2="15.917" xlink:href="#c"/><linearGradient id="r" x1="-94.972" y1="15.932" x2="-93.98" y2="15.932" xlink:href="#c"/><linearGradient id="s" x1="-96.239" y1="15.737" x2="-95.234" y2="15.737" xlink:href="#e"/><linearGradient id="t" x1="-66.239" y1="8.13" x2="-65.233" y2="8.13" xlink:href="#n"/><linearGradient id="u" x1="-94.974" y1="15.904" x2="-93.982" y2="15.904" xlink:href="#a"/><linearGradient id="v" x1="-96.248" y1="15.699" x2="-95.244" y2="15.699" xlink:href="#c"/><linearGradient id="w" x1="-96.254" y1="15.694" x2="-95.25" y2="15.694" xlink:href="#i"/><linearGradient id="x" x1="-94.965" y1="15.902" x2="-93.973" y2="15.902" xlink:href="#e"/><linearGradient id="y" x1="-96.271" y1="15.707" x2="-95.267" y2="15.707" xlink:href="#b"/><linearGradient id="z" x1="-94.986" y1="15.901" x2="-93.995" y2="15.901" xlink:href="#i"/><linearGradient id="aa" x1="-94.992" y1="15.904" x2="-94.001" y2="15.904" xlink:href="#e"/><linearGradient id="ab" x1="-66.217" y1="8.122" x2="-65.211" y2="8.122" xlink:href="#f"/><linearGradient id="ac" x1="-94.947" y1="15.951" x2="-93.956" y2="15.951" xlink:href="#a"/><linearGradient id="ad" x1="-94.976" y1="15.945" x2="-93.984" y2="15.945" xlink:href="#b"/><linearGradient id="ae" x1="-94.969" y1="15.943" x2="-93.978" y2="15.943" xlink:href="#c"/><linearGradient id="af" x1="-94.938" y1="15.957" x2="-93.947" y2="15.957" xlink:href="#c"/><linearGradient id="ag" x1="-96.231" y1="15.761" x2="-95.227" y2="15.761" xlink:href="#e"/><linearGradient id="ah" x1="-66.21" y1="8.143" x2="-65.204" y2="8.143" xlink:href="#f"/><linearGradient id="ai" x1="-94.951" y1="15.924" x2="-93.96" y2="15.924" xlink:href="#a"/><linearGradient id="aj" x1="-96.225" y1="15.725" x2="-95.221" y2="15.725" xlink:href="#c"/><linearGradient id="ak" x1="-96.193" y1="15.723" x2="-95.189" y2="15.723" xlink:href="#i"/><linearGradient id="al" x1="-94.942" y1="15.932" x2="-93.951" y2="15.932" xlink:href="#e"/><linearGradient id="am" x1="-96.233" y1="15.732" x2="-95.229" y2="15.732" xlink:href="#b"/><linearGradient id="an" x1="-94.983" y1="15.924" x2="-93.991" y2="15.924" xlink:href="#i"/><linearGradient id="ao" x1="-94.973" y1="15.93" x2="-93.982" y2="15.93" xlink:href="#e"/><linearGradient id="ap" x1="-66.202" y1="8.134" x2="-65.196" y2="8.134" xlink:href="#n"/></defs><g transform="translate(239.979 -73.88) rotate(64)"><g transform="translate(0 167.77)"><path d="M159.1,283.916l-15.552.133a28.552,28.552,0,0,0,28.811,28.294l-.148-15.559A12.985,12.985,0,0,1,159.1,283.916Z" transform="translate(-60.421 -255.243)" fill="url(#a)"/><path d="M145.073,287.337l15.558-.139A28.54,28.54,0,0,0,131.824,258.9l.129,15.548A12.991,12.991,0,0,1,145.073,287.337Z" transform="translate(-61.96 -258.525)" fill="url(#b)"/><path d="M122.367,284.244l-15.558.139a28.55,28.55,0,0,0,28.812,28.291l-.148-15.549A12.989,12.989,0,0,1,122.367,284.244Z" transform="translate(-65.242 -255.2)" fill="url(#c)"/><path d="M181.815,287l15.554-.136a28.558,28.558,0,0,0-28.813-28.3l.143,15.553A12.992,12.992,0,0,1,181.815,287Z" transform="translate(-57.139 -258.569)" fill="url(#d)"/><path d="M181.772,283.722a12.989,12.989,0,0,1-12.887,13.106l.148,15.559a28.546,28.546,0,0,0,28.293-28.8Z" transform="translate(-57.096 -255.286)" fill="url(#e)"/><path d="M160.595,287.242a12.992,12.992,0,0,1,12.881-13.119l-.143-15.553a28.538,28.538,0,0,0-28.291,28.805l-.012.006a12.994,12.994,0,0,1-12.882,13.113l.148,15.549a28.547,28.547,0,0,0,28.292-28.8Z" transform="translate(-61.917 -258.569)" fill="url(#f)"/><path d="M98.736,297.475a13.006,13.006,0,0,1-13.117-12.891l-15.554.143a28.559,28.559,0,0,0,28.808,28.3Z" transform="translate(-70.064 -255.155)" fill="url(#g)"/><path d="M98.829,311.529l-.137-15.549A28.54,28.54,0,0,0,70.4,324.793l15.553-.146A13,13,0,0,1,98.829,311.529Z" transform="translate(-70.02 -253.66)" fill="url(#h)"/><path d="M98.505,274.8l-.141-15.561a28.553,28.553,0,0,0-28.3,28.809l15.554-.142A12.99,12.99,0,0,1,98.505,274.8Z" transform="translate(-70.064 -258.481)" fill="url(#i)"/><path d="M108.336,287.672l15.559-.137a28.559,28.559,0,0,0-28.813-28.292l.141,15.561A12.985,12.985,0,0,1,108.336,287.672Z" transform="translate(-66.781 -258.481)" fill="url(#j)"/><path d="M95.741,334.246l.147,15.548a28.549,28.549,0,0,0,28.292-28.805l-15.553.14A13,13,0,0,1,95.741,334.246Z" transform="translate(-66.695 -250.378)" fill="url(#k)"/><path d="M99.066,334.2a12.99,12.99,0,0,1-13.112-12.88l-15.553.146A28.539,28.539,0,0,0,99.213,349.75Z" transform="translate(-70.02 -250.334)" fill="url(#l)"/><path d="M108.67,324.41l15.553-.14A28.556,28.556,0,0,0,95.41,295.98l.137,15.549A13,13,0,0,1,108.67,324.41Z" transform="translate(-66.738 -253.66)" fill="url(#m)"/><path d="M123.863,287.569a12.988,12.988,0,0,1,12.869-13.118L136.6,258.9a28.544,28.544,0,0,0-28.3,28.8l-.012.008A13.008,13.008,0,0,1,95.41,300.845l.137,15.549a28.567,28.567,0,0,0,28.3-28.814Z" transform="translate(-66.738 -258.525)" fill="url(#n)"/></g><path d="M231.9,209.761l-15.552.146a28.546,28.546,0,0,0,28.812,28.283l-.141-15.544A13,13,0,0,1,231.9,209.761Z" transform="translate(-50.868 -97.203)" fill="url(#o)"/><path d="M217.881,213.189l15.557-.146a28.567,28.567,0,0,0-28.813-28.294l.143,15.559A13,13,0,0,1,217.881,213.189Z" transform="translate(-52.407 -100.485)" fill="url(#p)"/><path d="M195.166,210.1l-15.554.137a28.555,28.555,0,0,0,28.813,28.292l-.139-15.546A13,13,0,0,1,195.166,210.1Z" transform="translate(-55.689 -97.159)" fill="url(#q)"/><path d="M254.618,212.852l15.552-.139a28.55,28.55,0,0,0-28.811-28.293l.139,15.553A13,13,0,0,1,254.618,212.852Z" transform="translate(-47.586 -100.529)" fill="url(#r)"/><path d="M254.574,209.57a12.992,12.992,0,0,1-12.882,13.119l.141,15.544a28.541,28.541,0,0,0,28.293-28.8Z" transform="translate(-47.542 -97.246)" fill="url(#s)"/><path d="M233.393,213.086a13,13,0,0,1,12.881-13.113l-.139-15.553a28.558,28.558,0,0,0-28.294,28.812h0A13,13,0,0,1,204.96,226.35L205.1,241.9a28.554,28.554,0,0,0,28.294-28.81Z" transform="translate(-52.362 -100.528)" fill="url(#t)"/><path d="M171.542,223.32a13,13,0,0,1-13.122-12.88l-15.549.146a28.545,28.545,0,0,0,28.813,28.282Z" transform="translate(-60.51 -97.114)" fill="url(#u)"/><path d="M171.641,237.373l-.143-15.542a28.545,28.545,0,0,0-28.292,28.808l15.554-.143A12.994,12.994,0,0,1,171.641,237.373Z" transform="translate(-60.466 -95.619)" fill="url(#v)"/><path d="M171.3,200.648l-.135-15.554a28.554,28.554,0,0,0-28.294,28.818l15.549-.146A13,13,0,0,1,171.3,200.648Z" transform="translate(-60.51 -100.44)" fill="url(#w)"/><path d="M181.135,213.533l15.561-.139a28.567,28.567,0,0,0-28.813-28.3l.135,15.554A12.994,12.994,0,0,1,181.135,213.533Z" transform="translate(-57.228 -100.44)" fill="url(#x)"/><path d="M168.552,260.095l.141,15.553a28.546,28.546,0,0,0,28.287-28.81l-15.552.147A13,13,0,0,1,168.552,260.095Z" transform="translate(-57.14 -92.338)" fill="url(#y)"/><path d="M171.878,260.051a12.991,12.991,0,0,1-13.118-12.88l-15.554.143A28.541,28.541,0,0,0,172.019,275.6Z" transform="translate(-60.466 -92.294)" fill="url(#z)"/><path d="M181.473,250.267l15.552-.147a28.547,28.547,0,0,0-28.809-28.288l.143,15.542A13.01,13.01,0,0,1,181.473,250.267Z" transform="translate(-57.184 -95.619)" fill="url(#aa)"/><path d="M181.092,213.578a13,13,0,0,1-12.876,13.113l.143,15.548a28.548,28.548,0,0,0,28.294-28.8l.009-.015a13,13,0,0,1,12.882-13.117l-.143-15.559a28.555,28.555,0,0,0-28.294,28.812Z" transform="translate(-57.184 -100.485)" fill="url(#ab)"/><path d="M304.709,135.6l-15.553.143a28.564,28.564,0,0,0,28.813,28.3l-.135-15.557A13,13,0,0,1,304.709,135.6Z" transform="translate(-41.314 -106.934)" fill="url(#ac)"/><path d="M290.693,139.026l15.55-.143a28.536,28.536,0,0,0-28.8-28.29l.135,15.545A13.009,13.009,0,0,1,290.693,139.026Z" transform="translate(-42.851 -110.216)" fill="url(#ad)"/><path d="M267.979,135.94l-15.554.135a28.551,28.551,0,0,0,28.807,28.294l-.136-15.553A12.986,12.986,0,0,1,267.979,135.94Z" transform="translate(-46.134 -106.89)" fill="url(#ae)"/><path d="M327.428,138.694l15.553-.135a28.548,28.548,0,0,0-28.813-28.3l.147,15.546A13.005,13.005,0,0,1,327.428,138.694Z" transform="translate(-38.032 -110.26)" fill="url(#af)"/><path d="M327.384,135.412a13,13,0,0,1-12.876,13.114l.135,15.557a28.545,28.545,0,0,0,28.294-28.805Z" transform="translate(-37.987 -106.977)" fill="url(#ag)"/><path d="M306.2,138.927a13.014,13.014,0,0,1,12.888-13.12l-.147-15.546A28.558,28.558,0,0,0,290.65,139.07h0a13,13,0,0,1-12.88,13.115l.136,15.553A28.547,28.547,0,0,0,306.2,138.927Z" transform="translate(-42.808 -110.26)" fill="url(#ah)"/><path d="M244.354,149.163a13,13,0,0,1-13.12-12.886l-15.552.143a28.56,28.56,0,0,0,28.812,28.3Z" transform="translate(-50.955 -106.846)" fill="url(#ai)"/><path d="M244.45,163.221l-.14-15.551a28.549,28.549,0,0,0-28.293,28.808l15.553-.14A13,13,0,0,1,244.45,163.221Z" transform="translate(-50.912 -105.351)" fill="url(#aj)"/><path d="M244.121,126.487l-.145-15.553a28.554,28.554,0,0,0-28.294,28.811l15.552-.143A13,13,0,0,1,244.121,126.487Z" transform="translate(-50.956 -110.171)" fill="url(#ak)"/><path d="M253.953,139.365l15.553-.137a28.557,28.557,0,0,0-28.812-28.294l.145,15.553A13,13,0,0,1,253.953,139.365Z" transform="translate(-47.673 -110.172)" fill="url(#al)"/><path d="M241.359,185.936l.139,15.558a28.553,28.553,0,0,0,28.293-28.811l-15.549.14A13,13,0,0,1,241.359,185.936Z" transform="translate(-47.586 -102.069)" fill="url(#am)"/><path d="M244.684,185.893a12.989,12.989,0,0,1-13.114-12.881l-15.553.14a28.552,28.552,0,0,0,28.807,28.3Z" transform="translate(-50.912 -102.025)" fill="url(#an)"/><path d="M254.286,176.106l15.549-.14a28.544,28.544,0,0,0-28.807-28.3l.14,15.551A12.994,12.994,0,0,1,254.286,176.106Z" transform="translate(-47.629 -105.351)" fill="url(#ao)"/><path d="M269.475,139.266a13,13,0,0,1,12.879-13.127l-.135-15.545a28.552,28.552,0,0,0-28.3,28.807l-.011.009a13,13,0,0,1-12.881,13.123l.14,15.553a28.558,28.558,0,0,0,28.294-28.813Z" transform="translate(-47.629 -110.216)" fill="url(#ap)"/></g></svg>