<svg id="clutchco" xmlns="http://www.w3.org/2000/svg" width="148.46" height="42.243" viewBox="0 0 148.46 42.243">
  <g id="Group_2438" data-name="Group 2438" transform="translate(38.629)">
    <path id="Path_3176" data-name="Path 3176" d="M22.861,0H29.62V42.243H22.861ZM53.276,28.767c0,6.465-5.436,6.98-7.053,6.98-4.04,0-4.775-3.782-4.775-6.063V13.518H34.689V29.651a13.162,13.162,0,0,0,3.461,9.513,11.285,11.285,0,0,0,8.023,3.013c2.241,0,5.414-.7,7.1-2.241v2.306h6.759V13.518H53.276ZM73.553,3.379H66.794V13.518H61.724v6.759h5.069V42.243h6.759V20.277h5.069V13.518H73.553ZM99.907,33.654A8.208,8.208,0,0,1,94.36,35.71a7.922,7.922,0,0,1-8.153-8.192,7.743,7.743,0,0,1,8.153-8.046,8.414,8.414,0,0,1,5.585,2.021l1.026.882,4.557-4.555-1.141-1.029a14.913,14.913,0,0,0-10.028-3.78c-8.449,0-14.584,6.1-14.584,14.472A14.315,14.315,0,0,0,94.358,42.138a14.755,14.755,0,0,0,10.1-3.819l1.1-1.029-4.628-4.552Zm29.744-17.632A10.52,10.52,0,0,0,115.8,15.25V0h-6.759V42.243H115.8V26.419c0-6.465,4.593-6.979,6.21-6.979,4.04,0,3.929,3.783,3.929,6.061V42.243h6.759V25.537c0-4-.836-7.31-3.041-9.515" transform="translate(-22.861)" fill="#1d1e31"/>
  </g>
  <path id="Path_3177" data-name="Path 3177" d="M67.038,13.438a4.887,4.887,0,1,1-4.887,4.887,4.887,4.887,0,0,1,4.887-4.887" transform="translate(42.867 9.268)" fill="#1d1e31"/>
  <path id="Path_3178" data-name="Path 3178" d="M29.166,31.15a13.5,13.5,0,0,1-9.734,4.077c-7.529,0-13-5.914-13-14.031,0-8.155,5.475-14.069,13-14.069a13.649,13.649,0,0,1,9.7,4.04L30.158,12.2l4.518-4.518-.992-1.029A19.669,19.669,0,0,0,19.432.7C8.339.7,0,9.515,0,21.232,0,32.913,8.376,41.693,19.432,41.693a19.726,19.726,0,0,0,14.29-5.987l.992-1.029-4.481-4.591Z" transform="translate(0 0.483)" fill="#1d1e31"/>
</svg>
