<svg xmlns="http://www.w3.org/2000/svg" xmlns:xlink="http://www.w3.org/1999/xlink" width="440.762" height="428.143" viewBox="0 0 440.762 428.143">
  <defs>
    <radialGradient id="radial-gradient" cx="0.492" cy="0.262" fx="0.4287961423397064" fy="0.2805638015270233" r="0.449" gradientTransform="matrix(1.067, 0, 0, -1, 1.205, -1.699)" gradientUnits="objectBoundingBox">
      <stop offset="0.345" stop-color="#ef6224"/>
      <stop offset="1" stop-color="#d24d27"/>
    </radialGradient>
    <radialGradient id="radial-gradient-2" cx="0.301" cy="-0.047" fx="0.30090758204460144" fy="-0.047017864882946014" r="0.741" gradientTransform="matrix(1.007, 0, 0, -1, 0.242, -4.744)" xlink:href="#radial-gradient"/>
    <radialGradient id="radial-gradient-3" cx="0.49" cy="0.275" fx="0.44580063223838806" fy="0.27540868520736694" r="0.663" gradientTransform="matrix(0.48, 0, 0, -1, -6.747, -5.511)" xlink:href="#radial-gradient"/>
    <radialGradient id="radial-gradient-4" cx="0.489" cy="0.261" fx="0.44541093707084656" fy="0.2605869174003601" r="0.662" gradientTransform="matrix(0.48, 0, 0, -1, -6.747, -1.526)" xlink:href="#radial-gradient"/>
  </defs>
  <g id="XMLID_939_" opacity="0.02">
    <path id="XMLID_940_" d="M162.515,8.1C85,8.1,19.2,127.98,19.2,150.514c0,20.731,62.193,143.315,143.315,143.315,77.517,0,124.387-65.8,124.387-143.315C286.9,71.195,240.032,8.1,162.515,8.1Z" transform="translate(153.86 64.91)" fill="url(#radial-gradient)"/>
    <path id="XMLID_941_" d="M61.292,149.9C27.041,149.9,0,118.353,0,83.2S27.041,16.5,61.292,16.5c27.041,0,71.207,43.265,71.207,66.7C131.6,104.833,89.234,149.9,61.292,149.9Z" transform="translate(0 132.224)" fill="url(#radial-gradient-2)"/>
    <path id="XMLID_942_" d="M261.883,162.5c-72.108,0-131.6-72.108-158.638-126.19l-.9-.9C99.64,30.9,97.837,28.2,96.935,28.2a4.83,4.83,0,0,0-3.605,2.7C72.6,60.649,38.347,85.887,6.8,85.887c36.054,68.5,108.163,116.275,191.989,116.275,70.306,0,130.7-32.449,170.356-83.826C341.2,147.179,304.247,162.5,261.883,162.5Z" transform="translate(54.492 225.982)" fill="url(#radial-gradient-3)"/>
    <path id="XMLID_943_" d="M93.33,170.356h0c.9,2.7,2.7,3.605,3.605,3.605h0c.9,0,4.507-4.507,8.112-11.718h0c27.942-53.18,86.53-121.683,157.737-121.683,41.462,0,79.319,16.224,106.36,43.265C328.584,32.449,266.39,0,197.887,0,114.963,0,42.854,47.772,6.8,116.275,35.643,116.275,71.7,140.611,93.33,170.356Z" transform="translate(54.492)" fill="url(#radial-gradient-4)"/>
  </g>
</svg>
