<svg xmlns="http://www.w3.org/2000/svg" width="26.448" height="48.228" viewBox="0 0 26.448 48.228">
  <g id="coding" transform="translate(-120 -8)">
    <path id="Path_3813" data-name="Path 3813" d="M143.336,8H123.111A3.116,3.116,0,0,0,120,11.112V53.117a3.116,3.116,0,0,0,3.112,3.112h20.225a3.116,3.116,0,0,0,3.112-3.112V11.112A3.116,3.116,0,0,0,143.336,8Zm-6.472,1.556-.438,1.556h-6.485l-.389-1.556Zm8.028,43.561a1.558,1.558,0,0,1-1.556,1.556H123.111a1.558,1.558,0,0,1-1.556-1.556V11.112a1.558,1.558,0,0,1,1.556-1.556h4.837l.631,2.522a.778.778,0,0,0,.755.589h7.682a.778.778,0,0,0,.749-.567l.716-2.545h4.856a1.558,1.558,0,0,1,1.556,1.556Z"/>
    <path id="Path_3814" data-name="Path 3814" d="M158.223,456h-5.445a.778.778,0,1,0,0,1.556h5.445a.778.778,0,1,0,0-1.556Z" transform="translate(-28.889 -404.439)"/>
    <path id="Path_3815" data-name="Path 3815" d="M233.556,456h-.778a.778.778,0,1,0,0,1.556h.778a.778.778,0,1,0,0-1.556Z" transform="translate(-101.11 -404.439)"/>
    <path id="Path_3816" data-name="Path 3816" d="M229.844,208.11a.778.778,0,0,0-1.067.267l-4.667,7.779a.778.778,0,1,0,1.334.8l4.667-7.779A.778.778,0,0,0,229.844,208.11Z" transform="translate(-93.886 -180.552)"/>
    <path id="Path_3817" data-name="Path 3817" d="M297.384,208.29a.778.778,0,1,0-1.215.972l2.723,3.4-2.723,3.4a.778.778,0,1,0,1.215.972l3.111-3.889a.778.778,0,0,0,0-.972Z" transform="translate(-158.885 -180.551)"/>
    <path id="Path_3818" data-name="Path 3818" d="M171.28,217.041a.778.778,0,0,0,1.215-.972l-2.723-3.4,2.723-3.4a.778.778,0,0,0-1.215-.972l-3.112,3.889a.778.778,0,0,0,0,.972Z" transform="translate(-43.331 -180.551)"/>
  </g>
</svg>
