<svg xmlns="http://www.w3.org/2000/svg" xmlns:xlink="http://www.w3.org/1999/xlink" width="521.631" height="336.029" viewBox="0 0 521.631 336.029">
  <defs>
    <radialGradient id="radial-gradient" cx="0.492" cy="0.262" fx="0.4287961423397064" fy="0.2805638015270233" r="0.449" gradientTransform="matrix(1.067, 0, 0, -1, 1.205, -1.699)" gradientUnits="objectBoundingBox">
      <stop offset="0.345" stop-color="#ef6224"/>
      <stop offset="1" stop-color="#d24d27"/>
    </radialGradient>
    <radialGradient id="radial-gradient-2" cx="0.301" cy="-0.047" fx="0.30090758204460144" fy="-0.047017864882946014" r="0.741" gradientTransform="matrix(1.007, 0, 0, -1, 0.242, -4.744)" xlink:href="#radial-gradient"/>
    <radialGradient id="radial-gradient-3" cx="0.49" cy="0.275" fx="0.44580063223838806" fy="0.27540868520736694" r="0.663" gradientTransform="matrix(0.48, 0, 0, -1, -6.747, -5.511)" xlink:href="#radial-gradient"/>
    <radialGradient id="radial-gradient-4" cx="0.489" cy="0.261" fx="0.44541093707084656" fy="0.2605869174003601" r="0.662" gradientTransform="matrix(0.48, 0, 0, -1, -6.747, -1.526)" xlink:href="#radial-gradient"/>
  </defs>
  <g id="Group_3114" data-name="Group 3114" transform="translate(-126.4 -158.749)">
    <g id="Group_3105" data-name="Group 3105" transform="translate(248.772 257.642)" opacity="0.15">
      <path id="Path_3831" data-name="Path 3831" d="M281.241,441.957l-22.315-.029a68.579,68.579,0,0,1-68.493-68.665l.1-78.91.019-15.379a68.58,68.58,0,0,1,68.665-68.493l22.315.029a68.578,68.578,0,0,1,68.491,68.665l-.118,94.29A68.579,68.579,0,0,1,281.241,441.957Z" transform="translate(-190.433 -210.48)" fill="#cf40d9"/>
      <path id="Path_3832" data-name="Path 3832" d="M252.076,407.2l-8.113-.011A45.717,45.717,0,0,1,198.3,361.416l.038-30.594.044-34.756A45.719,45.719,0,0,1,244.16,250.4l8.113.011a45.719,45.719,0,0,1,45.662,45.775l-.082,65.351A45.722,45.722,0,0,1,252.076,407.2Z" transform="translate(-183.26 -174.083)" fill="#cf40d9" opacity="0.66" style="mix-blend-mode: soft-light;isolation: isolate"/>
    </g>
    <path id="Path_3869" data-name="Path 3869" d="M265.583,184.748c4.368-4.095,4.232-11.533.833-16.463s-9.262-7.645-15.131-8.834c-13.785-2.793-29.66,2.848-36.3,15.246-5.748,10.73-4.294,24.854-12.239,34.074-3.4,3.942-8.121,6.456-12.137,9.765a38.078,38.078,0,0,0-8.014,9.113c-1.145,1.822-2.162,4.057-1.376,6.06.866,2.21,3.668,3.124,5.989,2.634s4.267-2.015,6.119-3.5c-1.652,6.693-3.309,13.672-1.847,20.409s7.06,13.114,13.953,13.041c5.406-.057,10.149-4.041,12.684-8.815s3.282-10.266,3.986-15.626c-2.845,3.24,1.019,8.836,5.328,8.713s7.679-3.881,9.423-7.823a24.548,24.548,0,0,0,1.937-12.573" transform="translate(49.684 0)" fill="#381f3e"/>
    <path id="Path_3870" data-name="Path 3870" d="M283.9,237.085c12.822-1.285,22.837-13.8,23.294-26.676s-7.343-25.167-18.109-32.242-24.08-9.459-36.957-9.033a43.3,43.3,0,0,0-14.408,2.51,39.005,39.005,0,0,0-13.1,9.107,64.045,64.045,0,0,0-16.955,30.717c-2.772,12.1-1.461,26.031,7.108,35.01,10.719,11.233,29.057,11.044,43.573,5.532,9.327-3.539,18.989-10.575,19.285-20.549" transform="translate(72.857 9.425)" fill="#3e2844"/>
    <path id="Path_3871" data-name="Path 3871" d="M287.374,196c-.086-.6-.226-1.162-.358-1.726-2.229,1.275-39.774-13.831-53.777-8.457.071,6.5-3.938,36.846-4.924,32.4a9.491,9.491,0,0,0-1.95-.4,10.5,10.5,0,1,0,2.749,20.3s-.235,33.4-.235,34.475c0,13.29,10.776,46.855,24.066,46.855s24.064-33.565,24.064-46.855c0-1.011-.2-16.356-.2-16.356,12.657-4.221,14.615-17.23,12.936-28.782S287.374,196,287.374,196Z" transform="translate(80.72 23.62)" fill="#ffc9c7"/>
    <path id="Path_3872" data-name="Path 3872" d="M254.089,222.1a37.383,37.383,0,0,1-14.186,1.46l14.186,12.493Z" transform="translate(103.438 57.754)" fill="#542e54" opacity="0.75" style="mix-blend-mode: soft-light;isolation: isolate"/>
    <path id="Path_3873" data-name="Path 3873" d="M268.414,265.147A21.289,21.289,0,0,0,256.68,237.42c-.461-.184-.929-.327-1.4-.478l-.01-.084a17.672,17.672,0,0,0-10.088-.6,21.335,21.335,0,0,0-3.269.845c-29.14,9.2-73.206,65.242-81.6,90.265-.008.023-.929,1.7-1.285,2.585a17.712,17.712,0,0,0,32.16,14.781c28.631-40.514,68.908-69.407,68.908-69.407l-.013-.105A21.367,21.367,0,0,0,268.414,265.147Z" transform="translate(28.528 70.253)" fill="#ffaf8f"/>
    <path id="Path_3874" data-name="Path 3874" d="M314.6,277.209a4.521,4.521,0,0,1,1.436,4.072" transform="translate(171.535 107.997)" fill="none" stroke="#852d4c" stroke-miterlimit="10" stroke-width="1.392"/>
    <path id="Path_3917" data-name="Path 3917" d="M268.777,235.019s22.976-2.4,52.288,32.495c22.109,26.32,49.5,37.253,51.248,60.99S349.646,348,342.932,344.282c-21.868-12.1-51.179-39.082-72.365-58.52C261.615,277.55,248.41,238.94,268.777,235.019Z" transform="translate(119.958 69.501)" fill="#fcc0cc"/>
    <path id="Path_3875" data-name="Path 3875" d="M234.627,410.564l.51.074v-.147l43.516-7,10.08-78.082s11.321-19.623,3.64-36.331c0,0,5.454-29.876,5.913-50.428A194.008,194.008,0,0,0,259.1,232.3l-24.475,30.688" transform="translate(98.629 67.051)" fill="#dbafe6" stroke="#707070" stroke-width="0.25"/>
    <path id="Path_3876" data-name="Path 3876" d="M264.987,410.564l-.512.074v-.147l-43.863-11.65-9.73-73.429s-16.324-18.692-5.158-42.887c0,0-3.938-23.321-4.4-43.873,0,0,20.478-5.469,40.5-6.356l23.156,30.688,3.393,62.657-3.393,84.922" transform="translate(68.269 67.051)" fill="#dbafe6" stroke="#707070" stroke-width="0.25"/>
    <path id="Path_3877" data-name="Path 3877" d="M289.707,207.24c-11.785,2.128-27.845-4.6-37.046-12.261,1.634,2.569,3.64,5.72,1.663,6.918-2.451,1.489-13.575-4.028-17.071-7.241,1.22,2.074,6.066,7.329,4.2,8.731s-6.773-.935-9.008-3.925a96.34,96.34,0,0,1,2.667,24.747c-.2,8.258-3.76,5.246-5.045,3.875-8.306-8.861-14.923-21.365-12.938-33.347.589-3.554,1.621-7.146,3.854-9.975,4.693-5.945,13.2-6.964,20.774-7.119,9.572-.193,19.381.3,28.247,3.9s16.725,10.835,18.906,20.159" transform="translate(82.351 17.191)" fill="#44244c"/>
    <g id="Group_3109" data-name="Group 3109" transform="translate(330.857 227.524)">
      <g id="Group_3107" data-name="Group 3107">
        <path id="Path_3878" data-name="Path 3878" d="M234.846,199.108c1.124-.22,2.13-.839,3.282-1.023a26.934,26.934,0,0,0,3.344-.369,1.059,1.059,0,0,0,.463-1.747c-2.007-2.271-7.127-1.212-8.421,1.4a1.2,1.2,0,0,0,1.332,1.734Z" transform="translate(-233.372 -194.725)" fill="#44244c"/>
      </g>
      <g id="Group_3108" data-name="Group 3108" transform="translate(22.36 1.047)">
        <path id="Path_3879" data-name="Path 3879" d="M253.679,198.752c-.757-2.988-6.043-4.632-8.31-2.539a1.051,1.051,0,0,0,.21,1.642,23.2,23.2,0,0,0,3.4.856c1.168.327,2.128,1.162,3.286,1.451a1.159,1.159,0,0,0,1.411-1.411Z" transform="translate(-245.069 -195.273)" fill="#44244c"/>
      </g>
    </g>
    <g id="Group_3110" data-name="Group 3110" transform="translate(272.713 450.459)">
      <path id="Path_3882" data-name="Path 3882" d="M213.069,320.169a25.141,25.141,0,0,0,3.732-8.826" transform="translate(-193.738 -311.343)" fill="none" stroke="#fff" stroke-miterlimit="10" stroke-width="1.447"/>
      <path id="Path_3883" data-name="Path 3883" d="M203.743,325.423a24.8,24.8,0,0,0,13.72-6.9" transform="translate(-202.24 -304.793)" fill="none" stroke="#fff" stroke-miterlimit="10" stroke-width="1.447"/>
      <path id="Path_3884" data-name="Path 3884" d="M202.957,341.71c14.923-1.686,29-15.27,31.7-30.044" transform="translate(-202.957 -311.048)" fill="none" stroke="#fff" stroke-miterlimit="10" stroke-width="1.447"/>
      <path id="Path_3885" data-name="Path 3885" d="M276.263,331.788c-10.22-1.3-19.868-10.141-21.91-20.241" transform="translate(-156.101 -311.157)" fill="none" stroke="#fff" stroke-miterlimit="10" stroke-width="1.447"/>
      <path id="Path_3886" data-name="Path 3886" d="M269.182,337.209c-9.776-5.6-17.746-14.8-19.671-25.339" transform="translate(-160.515 -310.863)" fill="none" stroke="#fff" stroke-miterlimit="10" stroke-width="1.447"/>
      <path id="Path_3887" data-name="Path 3887" d="M269.786,328.2a30.239,30.239,0,0,1-7.28-1.793" transform="translate(-148.668 -297.609)" fill="none" stroke="#fff" stroke-miterlimit="10" stroke-width="1.447"/>
      <path id="Path_3888" data-name="Path 3888" d="M239.9,312.925c.249,17.574.5,25.437.5,25.437" transform="translate(-169.272 -309.901)" fill="none" stroke="#fff" stroke-miterlimit="10" stroke-width="1.447"/>
    </g>
    <path id="Path_3892" data-name="Path 3892" d="M269.385,332.678c-2.265.262-6.222,1.363-7.765,3.043" transform="translate(123.238 158.567)" fill="none" stroke="#fff" stroke-miterlimit="10" stroke-width="1.447"/>
    <path id="Path_3893" data-name="Path 3893" d="M230.109,332.78a23.164,23.164,0,0,0-11.68-2.737" transform="translate(83.862 156.153)" fill="none" stroke="#fff" stroke-miterlimit="10" stroke-width="1.447"/>
    <path id="Path_3894" data-name="Path 3894" d="M221.964,327.663a4.028,4.028,0,0,1,3.669,1.634" transform="translate(87.085 153.972)" fill="none" stroke="#fff" stroke-miterlimit="10" stroke-width="1.447"/>
    <path id="Path_3895" data-name="Path 3895" d="M262.53,330.995a4.018,4.018,0,0,0-2.713,2.682" transform="translate(121.594 157.032)" fill="none" stroke="#fff" stroke-miterlimit="10" stroke-width="1.447"/>
    <path id="Rectangle_814" data-name="Rectangle 814" d="M0,0H429.222a0,0,0,0,1,0,0V40.994a20,20,0,0,1-20,20H20a20,20,0,0,1-20-20V0A0,0,0,0,1,0,0Z" transform="translate(173.801 429.267)" fill="#fff" stroke="#707070" stroke-width="0.25"/>
    <path id="Path_3898" data-name="Path 3898" d="M252,209.611c1.459-4.022-1.529-9.188-6.611-11.032s-19.172-1.585-19.392.291,7.182,12.455,12,14.911C243.881,216.776,250.539,213.631,252,209.611Z" transform="translate(90.757 35.165)" fill="#fff" opacity="0.3"/>
    <path id="Path_3899" data-name="Path 3899" d="M245.595,211.975c-2.088-3.552-.162-8.97,4.326-11.608s17.882-4.863,18.417-3.126-4.619,13.055-8.752,16.228C254.541,217.339,247.684,215.529,245.595,211.975Z" transform="translate(107.86 34.531)" fill="#fff" opacity="0.3"/>
    <path id="Path_3900" data-name="Path 3900" d="M252,209.611c1.459-4.022-1.529-9.188-6.611-11.032s-19.172-1.585-19.392.291,7.182,12.455,12,14.911C243.881,216.776,250.539,213.631,252,209.611Z" transform="translate(90.757 35.165)" fill="none" stroke="#fff" stroke-miterlimit="10" stroke-width="0.828"/>
    <path id="Path_3901" data-name="Path 3901" d="M245.595,211.975c-2.088-3.552-.162-8.97,4.326-11.608s17.882-4.863,18.417-3.126-4.619,13.055-8.752,16.228C254.541,217.339,247.684,215.529,245.595,211.975Z" transform="translate(107.86 34.531)" fill="none" stroke="#fff" stroke-miterlimit="10" stroke-width="0.798"/>
    <line id="Line_1" data-name="Line 1" y1="3.147" x2="7.643" transform="translate(310.481 239.234)" fill="none" stroke="#fff" stroke-linecap="round" stroke-miterlimit="10" stroke-width="0.828"/>
    <path id="Path_3905" data-name="Path 3905" d="M246.88,203.046c0,1.352.487,2.449,1.088,2.449s1.088-1.1,1.088-2.449-.486-2.449-1.088-2.449S246.88,201.692,246.88,203.046Z" transform="translate(109.8 38.152)" fill="#a8425f"/>
    <path id="Path_3906" data-name="Path 3906" d="M235.685,203.046c0,1.352.486,2.449,1.088,2.449s1.088-1.1,1.088-2.449-.487-2.449-1.088-2.449S235.685,201.692,235.685,203.046Z" transform="translate(99.594 38.152)" fill="#a8425f"/>
    <g id="Group_3111" data-name="Group 3111" transform="translate(319.536 234.901)">
      <path id="Path_3907" data-name="Path 3907" d="M249.29,217.523h-8.781l1.894-18.939h3.444Z" transform="translate(-215.544 -198.584)" fill="#542e54" style="mix-blend-mode: soft-light;isolation: isolate"/>
      <path id="Path_3910" data-name="Path 3910" d="M244.053,211.677c-1.661-2.445-4.351-3.277-5.643-1.814a2.963,2.963,0,0,0-.4,3.095,5.967,5.967,0,0,0,2.2,2.414,6.823,6.823,0,0,0,5.236,1.006c1.774-.384,3.9-2.116,3.374-3.854-.369-1.233-2.29-1.342-4.771-.847" transform="translate(-218.058 -188.961)" fill="#fff"/>
    </g>
    <path id="Path_3912" data-name="Path 3912" d="M256.31,229.609,237.7,257.99l15.819,8.375,20.006-29.777Z" transform="translate(101.43 64.601)" fill="#ffecf0" stroke="#707070" stroke-width="0.25"/>
    <path id="Path_3913" data-name="Path 3913" d="M229.689,230.1l18.145,27.451-15.819,8.375-17.68-29.777Z" transform="translate(80.13 65.045)" fill="#ffecf0" stroke="#707070" stroke-width="0.25"/>
    <path id="Path_3914" data-name="Path 3914" d="M246.451,234.793s-25.758,5.785-47,31.545-43.839,51.973-42.03,75.022,56.943-1.357,58.752-8.587,2.711-11.751-2.713-14.011c0,0,6.331,1.975,5.423-4.519,0,0,21.023-21.16,29.945-28.883S266.583,235.561,246.451,234.793Z" transform="translate(28.151 69.327)" fill="#dbafe6" stroke="#707070" stroke-width="0.25"/>
    <path id="Path_3915" data-name="Path 3915" d="M243.886,285.995,176.4,279.741a17.565,17.565,0,0,0-3.11,34.991c.126.011.25.006.377.015,23.927,2.923,74.563-3.238,74.563-3.238s14.749-5.423,13.688-13.972S252.783,286.371,243.886,285.995Z" transform="translate(28.118 110.242)" fill="#ffb7b4"/>
    <path id="Path_3916" data-name="Path 3916" d="M200.744,283.859s-23.238-11.568-35.441-3.886-18.53,31.636,6.779,35.7c0,0-12.558-7.656-11.476-17.387s8.312-16.058,21.87-15.6S200.744,283.859,200.744,283.859Z" transform="translate(25.694 108.116)" fill="#ffecf0"/>
    <path id="Path_3918" data-name="Path 3918" d="M379.815,272.967,333.321,324.99a18.084,18.084,0,0,1-26.876-24.2c.088-.1.185-.18.273-.273,15.991-18.979,58.486-49.83,58.486-49.83s14.922-6.251,20.117.937S386.257,266.447,379.815,272.967Z" transform="translate(159.868 81.518)" fill="#ffb7b4"/>
    <path id="Path_3919" data-name="Path 3919" d="M330.467,288.352l-25.538,1.336S314.239,300.615,330.467,288.352Z" transform="translate(162.722 118.156)" fill="#542e54" opacity="0.75" style="mix-blend-mode: soft-light;isolation: isolate"/>
    <path id="Path_3920" data-name="Path 3920" d="M379.762,262.644s12.4-6.4,15.527-5.573c2.508.658-3.984,6.018-13.625,11.956-7.28,4.483-36.438,14.959-36.477,14.991-5.521,4.468-11.394,5.615-15.861.094s-6.5-4.959-.981-9.426c.541-.438,2.908-4.129,3.493-4.466l.379-3.584s24.974-18.5,35.3-13.8a30.969,30.969,0,0,1,6.756-11.376c4.9-4.894-.057,10.3-.057,10.3s7.513-12.6,10.463-11.26-7.045,15.485-7.045,15.485,4.095-4.955,7.364-8.754C390.279,241.086,397.91,239.574,379.762,262.644Z" transform="translate(181.027 74.435)" fill="#ffb7b4"/>
    <path id="Path_3921" data-name="Path 3921" d="M351.154,279.112s-10.369,26.383-24.825,29.759-36.574-9.319-21.241-30.8c0,0-3.479,14.735,4.429,20.984s17.773,5.531,27.253-4.726S351.154,279.112,351.154,279.112Z" transform="translate(158.133 108.786)" fill="#ffecf0"/>
    <path id="Path_3922" data-name="Path 3922" d="M239.882,202.664s4.668-3.1,9.088.153" transform="translate(103.42 38.819)" fill="none" stroke="#fff" stroke-linecap="round" stroke-miterlimit="10" stroke-width="0.828"/>
    <path id="Path_3923" data-name="Path 3923" d="M241.1,256.7a1.861,1.861,0,1,0-1.86,1.862A1.861,1.861,0,0,0,241.1,256.7Z" transform="translate(101.134 87.603)" fill="#ffecf0"/>
    <circle id="Ellipse_532" data-name="Ellipse 532" cx="1.861" cy="1.861" r="1.861" transform="translate(339.13 362.914)" fill="#ffecf0"/>
    <path id="Path_3924" data-name="Path 3924" d="M242.071,277.145a1.861,1.861,0,1,0-1.862,1.86A1.862,1.862,0,0,0,242.071,277.145Z" transform="translate(102.022 106.241)" fill="#ffecf0"/>
    <path id="Path_3925" data-name="Path 3925" d="M241.746,289.152a1.861,1.861,0,1,0-1.86,1.86A1.861,1.861,0,0,0,241.746,289.152Z" transform="translate(101.726 117.188)" fill="#ffecf0"/>
    <path id="Path_3926" data-name="Path 3926" d="M206.532,306.04a17.542,17.542,0,0,1,35.085,0" transform="translate(73.016 118.289)" fill="#fff"/>
    <path id="Path_3927" data-name="Path 3927" d="M215.708,306.04h17.543A17.543,17.543,0,0,0,215.708,288.5" transform="translate(81.381 118.289)" fill="#f5f2f7"/>
    <path id="Path_3928" data-name="Path 3928" d="M242.316,287.334s13.8-2.25,15.832-4.781c1.625-2.026-6.8-2.47-18.111-1.495-8.538.736-38.274,9.7-38.323,9.7-7.115-.3-12.529,2.279-12.829,9.392s-2.279,7.874,4.835,8.176c.7.029,4.808,1.591,5.479,1.512l2.445,2.661s23.743,6.655,36.666-9.956a31.055,31.055,0,0,0,12.231,5.129c6.863,1.019-6.192-8.258-6.192-8.258s13.573,5.664,15.146,2.822-14.915-8.266-14.915-8.266,6.255,1.548,11.155,2.655C263.656,298.416,270.7,295.08,242.316,287.334Z" transform="translate(56.49 111.053)" fill="#ffb7b4"/>
    <path id="Path_3929" data-name="Path 3929" d="M226.747,299.931H369.584l-5.29-5.583H232.038Z" transform="translate(91.446 123.622)" fill="#fff"/>
    <g id="Group_3112" data-name="Group 3112" transform="translate(372.267 262.107)">
      <path id="Path_3930" data-name="Path 3930" d="M307.974,273.106s12.443,44.812-4.676,44.106l-38.518-1.589-.206,4.993,47.079,1.942s21.044.375,36.853-1.831-4.749-49-4.749-49Z" transform="translate(-246.337 -159.11)" fill="#44244c"/>
      <path id="Path_3931" data-name="Path 3931" d="M316.846,297.292c-.405-9.662-3.653-21.852-3.653-21.852l-3.888-.161c2.678,11.9,6.593,36.333-6.817,36.668-17.044.426-37.708.436-37.708.436l-.206,6.383,41.749-1.279C316.121,317.913,317.188,305.428,316.846,297.292Z" transform="translate(-246.337 -155.869)" fill="#715977"/>
      <path id="Path_3932" data-name="Path 3932" d="M426.9,222.814l-148.1-8.25L255.593,331.143l4.65,4.188,141.843-2.368Z" transform="translate(-254.524 -211.222)" fill="#fff"/>
      <path id="Path_3933" data-name="Path 3933" d="M313.419,249.143c2.147-3.387,1.516-7.637-1.411-9.491s-7.039-.612-9.186,2.778-1.516,7.637,1.411,9.492S311.272,252.532,313.419,249.143Z" transform="translate(-212.628 -189.135)" fill="#fff"/>
      <path id="Path_3934" data-name="Path 3934" d="M276.232,212.816l6.287,3.474L261.277,337.237l-6.243-4.544Z" transform="translate(-255.034 -212.816)" fill="#f5f2f7"/>
      <path id="Path_3935" data-name="Path 3935" d="M266.123,212.816l145.8,7.992,5.374,3.6L272.41,216.29Z" transform="translate(-244.924 -212.816)" fill="#ede7f1"/>
      <path id="Path_3936" data-name="Path 3936" d="M352.857,281.15l-66.217-1.944a9.361,9.361,0,0,1-8.941-10.948l.489-2.841a9.363,9.363,0,0,1,9.9-7.744l69.031,6.008c5.391.388,8.868,4.179,8.138,9.534h0C363.508,279.873,357.643,281.3,352.857,281.15Z" transform="translate(-234.497 -171.943)" fill="#fff"/>
      <path id="Path_3937" data-name="Path 3937" d="M284.113,271.868q.826-5.586,1.654-11.172a14.252,14.252,0,0,1,.361,6.316A11.746,11.746,0,0,1,284.113,271.868Z" transform="translate(-228.523 -169.164)" fill="#44244c"/>
      <path id="Path_3938" data-name="Path 3938" d="M288.87,271.817c.552-3.724,1.082-6.93,1.633-10.654a15.181,15.181,0,0,1,.528,5.9C290.711,270.568,288.87,271.817,288.87,271.817Z" transform="translate(-224.186 -168.739)" fill="#44244c"/>
      <path id="Path_3939" data-name="Path 3939" d="M293.161,271.951c.552-3.724,1.092-6.84,1.642-10.564a19.855,19.855,0,0,1,.281,5.632A10.783,10.783,0,0,1,293.161,271.951Z" transform="translate(-220.274 -168.534)" fill="#44244c"/>
      <path id="Path_3940" data-name="Path 3940" d="M297.732,271.928c.551-3.724,1.072-6.4,1.625-10.12a12.971,12.971,0,0,1,.163,5.783C298.881,270.778,297.732,271.928,297.732,271.928Z" transform="translate(-216.107 -168.151)" fill="#44244c"/>
      <path id="Path_3941" data-name="Path 3941" d="M302.064,272.247c.551-3.726,1.072-6.4,1.623-10.12a15.585,15.585,0,0,1,.166,6.129A8.332,8.332,0,0,1,302.064,272.247Z" transform="translate(-212.157 -167.86)" fill="#44244c"/>
      <path id="Path_3942" data-name="Path 3942" d="M305.754,272.259c.262-1.768.516-3.3.77-4.814.283-1.682.564-3.349.854-5.307a28.251,28.251,0,0,1,.12,5.788A12,12,0,0,1,305.754,272.259Z" transform="translate(-208.793 -167.849)" fill="#44244c"/>
      <path id="Path_3943" data-name="Path 3943" d="M309.765,272.423c.552-3.724,1.072-6.395,1.625-10.119a14.852,14.852,0,0,1,.5,5.63A6.367,6.367,0,0,1,309.765,272.423Z" transform="translate(-205.137 -167.697)" fill="#44244c"/>
      <path id="Path_3944" data-name="Path 3944" d="M313.45,272.406c.551-3.724,1.057-6.039,1.61-9.763a17.432,17.432,0,0,1,.159,6.418C314.582,271.928,313.45,272.406,313.45,272.406Z" transform="translate(-201.777 -167.389)" fill="#44244c"/>
      <path id="Path_3945" data-name="Path 3945" d="M317.367,272.568c.249-1.678.489-3.07.726-4.433.291-1.663.581-3.284.883-5.33a17.862,17.862,0,0,1,.078,6.347C318.418,272.019,317.367,272.568,317.367,272.568Z" transform="translate(-198.206 -167.242)" fill="#44244c"/>
      <g id="XMLID_939_" transform="matrix(0.995, 0.105, -0.105, 0.995, 77.022, 45.406)">
        <path id="XMLID_940_" d="M9.49,0C4.357,0,0,8.863,0,10.529c0,1.533,4.118,10.6,9.49,10.6,5.133,0,8.236-4.865,8.236-10.6C17.726,4.665,14.623,0,9.49,0Z" transform="translate(11.459 5.398)" fill="url(#radial-gradient)"/>
        <path id="XMLID_941_" d="M4.059,9.863C1.791,9.863,0,7.531,0,4.932S1.791,0,4.059,0C5.849,0,8.774,3.2,8.774,4.932,8.714,6.531,5.909,9.863,4.059,9.863Z" transform="translate(0 10.996)" fill="url(#radial-gradient-2)"/>
        <path id="XMLID_942_" d="M16.891,9.93C12.116,9.93,8.177,4.6,6.386.6L6.327.533C6.147.2,6.028,0,5.968,0A.324.324,0,0,0,5.73.2C4.357,2.4,2.089,4.265,0,4.265c2.387,5.065,7.162,8.6,12.713,8.6a13.63,13.63,0,0,0,11.28-6.2A9.156,9.156,0,0,1,16.891,9.93Z" transform="translate(4.059 18.793)" fill="url(#radial-gradient-3)"/>
        <path id="XMLID_943_" d="M5.73,12.6h0c.06.2.179.267.239.267h0A2.287,2.287,0,0,0,6.506,12h0c1.85-3.932,5.73-9,10.445-9a9.419,9.419,0,0,1,7.043,3.2A13.98,13.98,0,0,0,12.653,0C7.162,0,2.387,3.532,0,8.6,1.91,8.6,4.3,10.4,5.73,12.6Z" transform="translate(4.059 0)" fill="url(#radial-gradient-4)"/>
      </g>
    </g>
    <path id="Path_3946" data-name="Path 3946" d="M160.191,283.51l7.423,26.1S150.872,300.281,160.191,283.51Z" transform="translate(28.194 113.742)" fill="#542e54" opacity="0.75" style="mix-blend-mode: soft-light;isolation: isolate"/>
    <path id="Path_3947" data-name="Path 3947" d="M647.983,297.317H126.442L169,312.754H610.217Z" transform="translate(0 126.329)" fill="#ffd9ab" stroke="#707070" stroke-width="0.25"/>
    <path id="Path_3948" data-name="Path 3948" d="M237.259,212.08c0-6.851-5.276-12.407-11.786-12.407s-11.787,5.555-11.787,12.407,5.276,12.407,11.787,12.407S237.259,218.933,237.259,212.08Z" transform="translate(79.538 37.309)" fill="#44244c"/>
    <g id="Group_3113" data-name="Group 3113" transform="translate(303.149 177.435)">
      <path id="Path_3949" data-name="Path 3949" d="M220.738,238.618a1.861,1.861,0,0,1-1.86-1.862v-35.98a32.555,32.555,0,0,1,11.183-25.024c4.988-4.225,13.741-8.973,26.964-6.59,6.092,1.1,11.074,4.357,10.046,4.357-1.046,0-3.256-.581-9.771-1.512-9.4-1.344-18.543,1.256-24.833,6.586a28.837,28.837,0,0,0-9.868,22.183v35.98A1.862,1.862,0,0,1,220.738,238.618Z" transform="translate(-218.878 -168.524)" fill="#44244c"/>
    </g>
    <path id="Path_3950" data-name="Path 3950" d="M232.038,210.3a8.262,8.262,0,1,0-8.251,8.685A8.477,8.477,0,0,0,232.038,210.3Z" transform="translate(81.224 39.084)" fill="#715977"/>
    <path id="Path_3951" data-name="Path 3951" d="M220.345,207.187s2.938,15.517,23.888,16.685" transform="translate(85.609 44.16)" fill="none" stroke="#44244c" stroke-linecap="round" stroke-miterlimit="10" stroke-width="1.947"/>
    <path id="Path_3952" data-name="Path 3952" d="M240.3,218.354c-.25,2.04-2.418,3.452-4.84,3.154s-4.185-2.193-3.932-4.232,2.416-3.452,4.84-3.156S240.548,216.312,240.3,218.354Z" transform="translate(95.779 50.444)" fill="#715977"/>
  </g>
</svg>
