<svg xmlns="http://www.w3.org/2000/svg" width="185.614" height="107" viewBox="0 0 185.614 107">
  <path id="doted" d="M-2877.153,61.136a4.875,4.875,0,0,1,4.884-4.864,4.873,4.873,0,0,1,4.883,4.864A4.873,4.873,0,0,1-2872.269,66,4.874,4.874,0,0,1-2877.153,61.136Zm-19.539,0a4.875,4.875,0,0,1,4.885-4.864,4.874,4.874,0,0,1,4.883,4.864A4.874,4.874,0,0,1-2891.807,66,4.875,4.875,0,0,1-2896.692,61.136Zm-19.539,0a4.874,4.874,0,0,1,4.884-4.864,4.875,4.875,0,0,1,4.885,4.864A4.874,4.874,0,0,1-2911.348,66,4.874,4.874,0,0,1-2916.231,61.136Zm-19.537,0a4.873,4.873,0,0,1,4.883-4.864A4.875,4.875,0,0,1-2926,61.136,4.875,4.875,0,0,1-2930.886,66,4.873,4.873,0,0,1-2935.769,61.136Zm-19.541,0a4.875,4.875,0,0,1,4.885-4.864,4.875,4.875,0,0,1,4.885,4.864A4.875,4.875,0,0,1-2950.424,66,4.875,4.875,0,0,1-2955.309,61.136Zm-19.538,0a4.875,4.875,0,0,1,4.885-4.864,4.875,4.875,0,0,1,4.885,4.864A4.875,4.875,0,0,1-2969.962,66,4.875,4.875,0,0,1-2974.847,61.136Zm-19.539,0a4.876,4.876,0,0,1,4.886-4.864,4.875,4.875,0,0,1,4.885,4.864A4.874,4.874,0,0,1-2989.5,66,4.875,4.875,0,0,1-2994.386,61.136Zm-19.537,0a4.875,4.875,0,0,1,4.884-4.864,4.875,4.875,0,0,1,4.885,4.864A4.875,4.875,0,0,1-3009.039,66,4.874,4.874,0,0,1-3013.924,61.136Zm-19.539,0a4.875,4.875,0,0,1,4.885-4.864,4.875,4.875,0,0,1,4.885,4.864A4.875,4.875,0,0,1-3028.577,66,4.875,4.875,0,0,1-3033.463,61.136Zm-19.538,0a4.875,4.875,0,0,1,4.885-4.864,4.873,4.873,0,0,1,4.882,4.864A4.873,4.873,0,0,1-3048.115,66,4.875,4.875,0,0,1-3053,61.136Zm175.847-19.454a4.875,4.875,0,0,1,4.884-4.865,4.873,4.873,0,0,1,4.883,4.865,4.873,4.873,0,0,1-4.883,4.864A4.874,4.874,0,0,1-2877.153,41.682Zm-19.539,0a4.875,4.875,0,0,1,4.885-4.865,4.874,4.874,0,0,1,4.883,4.865,4.874,4.874,0,0,1-4.883,4.864A4.875,4.875,0,0,1-2896.692,41.682Zm-19.539,0a4.874,4.874,0,0,1,4.884-4.865,4.875,4.875,0,0,1,4.885,4.865,4.874,4.874,0,0,1-4.885,4.864A4.874,4.874,0,0,1-2916.231,41.682Zm-19.537,0a4.873,4.873,0,0,1,4.883-4.865A4.875,4.875,0,0,1-2926,41.682a4.875,4.875,0,0,1-4.885,4.864A4.873,4.873,0,0,1-2935.769,41.682Zm-19.541,0a4.875,4.875,0,0,1,4.885-4.865,4.875,4.875,0,0,1,4.885,4.865,4.875,4.875,0,0,1-4.885,4.864A4.875,4.875,0,0,1-2955.309,41.682Zm-19.538,0a4.875,4.875,0,0,1,4.885-4.865,4.875,4.875,0,0,1,4.885,4.865,4.875,4.875,0,0,1-4.885,4.864A4.875,4.875,0,0,1-2974.847,41.682Zm-19.539,0a4.876,4.876,0,0,1,4.886-4.865,4.875,4.875,0,0,1,4.885,4.865,4.874,4.874,0,0,1-4.885,4.864A4.875,4.875,0,0,1-2994.386,41.682Zm-19.537,0a4.875,4.875,0,0,1,4.884-4.865,4.875,4.875,0,0,1,4.885,4.865,4.875,4.875,0,0,1-4.885,4.864A4.874,4.874,0,0,1-3013.924,41.682Zm-19.539,0a4.875,4.875,0,0,1,4.885-4.865,4.875,4.875,0,0,1,4.885,4.865,4.875,4.875,0,0,1-4.885,4.864A4.875,4.875,0,0,1-3033.463,41.682Zm-19.538,0a4.875,4.875,0,0,1,4.885-4.865,4.873,4.873,0,0,1,4.882,4.865,4.873,4.873,0,0,1-4.882,4.864A4.875,4.875,0,0,1-3053,41.682Zm175.847-19.454a4.875,4.875,0,0,1,4.884-4.865,4.873,4.873,0,0,1,4.883,4.865,4.873,4.873,0,0,1-4.883,4.864A4.874,4.874,0,0,1-2877.153,22.227Zm-19.539,0a4.875,4.875,0,0,1,4.885-4.865,4.874,4.874,0,0,1,4.883,4.865,4.874,4.874,0,0,1-4.883,4.864A4.875,4.875,0,0,1-2896.692,22.227Zm-19.539,0a4.874,4.874,0,0,1,4.884-4.865,4.875,4.875,0,0,1,4.885,4.865,4.874,4.874,0,0,1-4.885,4.864A4.874,4.874,0,0,1-2916.231,22.227Zm-19.537,0a4.873,4.873,0,0,1,4.883-4.865A4.875,4.875,0,0,1-2926,22.227a4.875,4.875,0,0,1-4.885,4.864A4.873,4.873,0,0,1-2935.769,22.227Zm-19.541,0a4.875,4.875,0,0,1,4.885-4.865,4.875,4.875,0,0,1,4.885,4.865,4.875,4.875,0,0,1-4.885,4.864A4.875,4.875,0,0,1-2955.309,22.227Zm-19.538,0a4.875,4.875,0,0,1,4.885-4.865,4.875,4.875,0,0,1,4.885,4.865,4.875,4.875,0,0,1-4.885,4.864A4.875,4.875,0,0,1-2974.847,22.227Zm-19.539,0a4.876,4.876,0,0,1,4.886-4.865,4.875,4.875,0,0,1,4.885,4.865,4.874,4.874,0,0,1-4.885,4.864A4.875,4.875,0,0,1-2994.386,22.227Zm-19.537,0a4.875,4.875,0,0,1,4.884-4.865,4.875,4.875,0,0,1,4.885,4.865,4.875,4.875,0,0,1-4.885,4.864A4.874,4.874,0,0,1-3013.924,22.227Zm-19.539,0a4.875,4.875,0,0,1,4.885-4.865,4.875,4.875,0,0,1,4.885,4.865,4.875,4.875,0,0,1-4.885,4.864A4.875,4.875,0,0,1-3033.463,22.227Zm-19.538,0a4.875,4.875,0,0,1,4.885-4.865,4.873,4.873,0,0,1,4.882,4.865,4.873,4.873,0,0,1-4.882,4.864A4.875,4.875,0,0,1-3053,22.227Zm175.847-19.454a4.875,4.875,0,0,1,4.884-4.865,4.873,4.873,0,0,1,4.883,4.865,4.873,4.873,0,0,1-4.883,4.864A4.874,4.874,0,0,1-2877.153,2.773Zm-19.539,0a4.875,4.875,0,0,1,4.885-4.865,4.874,4.874,0,0,1,4.883,4.865,4.874,4.874,0,0,1-4.883,4.864A4.875,4.875,0,0,1-2896.692,2.773Zm-19.539,0a4.874,4.874,0,0,1,4.884-4.865,4.875,4.875,0,0,1,4.885,4.865,4.874,4.874,0,0,1-4.885,4.864A4.874,4.874,0,0,1-2916.231,2.773Zm-19.537,0a4.873,4.873,0,0,1,4.883-4.865A4.875,4.875,0,0,1-2926,2.773a4.875,4.875,0,0,1-4.885,4.864A4.873,4.873,0,0,1-2935.769,2.773Zm-19.541,0a4.875,4.875,0,0,1,4.885-4.865,4.875,4.875,0,0,1,4.885,4.865,4.875,4.875,0,0,1-4.885,4.864A4.875,4.875,0,0,1-2955.309,2.773Zm-19.538,0a4.875,4.875,0,0,1,4.885-4.865,4.875,4.875,0,0,1,4.885,4.865,4.875,4.875,0,0,1-4.885,4.864A4.875,4.875,0,0,1-2974.847,2.773Zm-19.539,0a4.876,4.876,0,0,1,4.886-4.865,4.875,4.875,0,0,1,4.885,4.865,4.874,4.874,0,0,1-4.885,4.864A4.875,4.875,0,0,1-2994.386,2.773Zm-19.537,0a4.875,4.875,0,0,1,4.884-4.865,4.875,4.875,0,0,1,4.885,4.865,4.875,4.875,0,0,1-4.885,4.864A4.874,4.874,0,0,1-3013.924,2.773Zm-19.539,0a4.875,4.875,0,0,1,4.885-4.865,4.875,4.875,0,0,1,4.885,4.865,4.875,4.875,0,0,1-4.885,4.864A4.875,4.875,0,0,1-3033.463,2.773Zm-19.538,0a4.875,4.875,0,0,1,4.885-4.865,4.873,4.873,0,0,1,4.882,4.865,4.873,4.873,0,0,1-4.882,4.864A4.875,4.875,0,0,1-3053,2.773Zm175.847-19.454a4.875,4.875,0,0,1,4.884-4.865,4.873,4.873,0,0,1,4.883,4.865,4.873,4.873,0,0,1-4.883,4.864A4.874,4.874,0,0,1-2877.153-16.681Zm-19.539,0a4.875,4.875,0,0,1,4.885-4.865,4.874,4.874,0,0,1,4.883,4.865,4.874,4.874,0,0,1-4.883,4.864A4.875,4.875,0,0,1-2896.692-16.681Zm-19.539,0a4.874,4.874,0,0,1,4.884-4.865,4.875,4.875,0,0,1,4.885,4.865,4.874,4.874,0,0,1-4.885,4.864A4.874,4.874,0,0,1-2916.231-16.681Zm-19.537,0a4.873,4.873,0,0,1,4.883-4.865A4.875,4.875,0,0,1-2926-16.681a4.875,4.875,0,0,1-4.885,4.864A4.873,4.873,0,0,1-2935.769-16.681Zm-19.541,0a4.875,4.875,0,0,1,4.885-4.865,4.875,4.875,0,0,1,4.885,4.865,4.875,4.875,0,0,1-4.885,4.864A4.875,4.875,0,0,1-2955.309-16.681Zm-19.538,0a4.875,4.875,0,0,1,4.885-4.865,4.875,4.875,0,0,1,4.885,4.865,4.875,4.875,0,0,1-4.885,4.864A4.875,4.875,0,0,1-2974.847-16.681Zm-19.539,0a4.876,4.876,0,0,1,4.886-4.865,4.875,4.875,0,0,1,4.885,4.865,4.874,4.874,0,0,1-4.885,4.864A4.875,4.875,0,0,1-2994.386-16.681Zm-19.537,0a4.875,4.875,0,0,1,4.884-4.865,4.875,4.875,0,0,1,4.885,4.865,4.875,4.875,0,0,1-4.885,4.864A4.874,4.874,0,0,1-3013.924-16.681Zm-19.539,0a4.875,4.875,0,0,1,4.885-4.865,4.875,4.875,0,0,1,4.885,4.865,4.875,4.875,0,0,1-4.885,4.864A4.875,4.875,0,0,1-3033.463-16.681Zm-19.538,0a4.875,4.875,0,0,1,4.885-4.865,4.873,4.873,0,0,1,4.882,4.865,4.873,4.873,0,0,1-4.882,4.864A4.875,4.875,0,0,1-3053-16.681Zm175.847-19.454A4.875,4.875,0,0,1-2872.269-41a4.873,4.873,0,0,1,4.883,4.864,4.873,4.873,0,0,1-4.883,4.864A4.874,4.874,0,0,1-2877.153-36.136Zm-19.539,0A4.875,4.875,0,0,1-2891.807-41a4.874,4.874,0,0,1,4.883,4.864,4.874,4.874,0,0,1-4.883,4.864A4.875,4.875,0,0,1-2896.692-36.136Zm-19.539,0A4.874,4.874,0,0,1-2911.348-41a4.875,4.875,0,0,1,4.885,4.864,4.874,4.874,0,0,1-4.885,4.864A4.874,4.874,0,0,1-2916.231-36.136Zm-19.537,0A4.873,4.873,0,0,1-2930.886-41,4.875,4.875,0,0,1-2926-36.136a4.875,4.875,0,0,1-4.885,4.864A4.873,4.873,0,0,1-2935.769-36.136Zm-19.541,0A4.875,4.875,0,0,1-2950.424-41a4.875,4.875,0,0,1,4.885,4.864,4.875,4.875,0,0,1-4.885,4.864A4.875,4.875,0,0,1-2955.309-36.136Zm-19.538,0A4.875,4.875,0,0,1-2969.962-41a4.875,4.875,0,0,1,4.885,4.864,4.875,4.875,0,0,1-4.885,4.864A4.875,4.875,0,0,1-2974.847-36.136Zm-19.539,0A4.876,4.876,0,0,1-2989.5-41a4.875,4.875,0,0,1,4.885,4.864,4.874,4.874,0,0,1-4.885,4.864A4.875,4.875,0,0,1-2994.386-36.136Zm-19.537,0A4.875,4.875,0,0,1-3009.039-41a4.875,4.875,0,0,1,4.885,4.864,4.875,4.875,0,0,1-4.885,4.864A4.874,4.874,0,0,1-3013.924-36.136Zm-19.539,0A4.875,4.875,0,0,1-3028.577-41a4.875,4.875,0,0,1,4.885,4.864,4.875,4.875,0,0,1-4.885,4.864A4.875,4.875,0,0,1-3033.463-36.136Zm-19.538,0A4.875,4.875,0,0,1-3048.115-41a4.873,4.873,0,0,1,4.882,4.864,4.873,4.873,0,0,1-4.882,4.864A4.875,4.875,0,0,1-3053-36.136Z" transform="translate(3053.001 41)" fill="#d6d6d6" opacity="0.34"/>
</svg>
