<svg xmlns="http://www.w3.org/2000/svg" xmlns:xlink="http://www.w3.org/1999/xlink" width="66.984" height="58.301" viewBox="0 0 66.984 58.301"><defs><style>.a,.d{fill:none;}.b{fill:#fff;}.c,.l{fill:#4385f4;}.d{stroke:#4385f4;stroke-miterlimit:10;stroke-width:0.672px;stroke-dasharray:3 3;}.e{fill:#ff7058;}.f{fill:#ffd15c;}.g{clip-path:url(#a);}.h{fill:#f1543f;}.i{fill:#f8b64c;}.j{clip-path:url(#b);}.k{fill:#ffc952;}.l,.m{opacity:0.5;}.n{fill:#2c72c6;}.o{fill:#3d597a;}.p{fill:#ffa829;}</style><clipPath id="a"><path class="a" d="M55.969,45.068a9.437,9.437,0,0,1-.892.419l-.186.038-.184-.075a9.188,9.188,0,0,1-.892-.419L54.3,43.9h1.151Z" transform="translate(-53.815 -43.903)"/></clipPath><clipPath id="b"><rect class="a" width="11.556" height="0.564"/></clipPath></defs><ellipse class="b" cx="28.205" cy="28.515" rx="28.205" ry="28.515" transform="translate(5.355 0.635)"/><path class="c" d="M37.153,1.544A27.735,27.735,0,0,1,64.694,29.469a27.561,27.561,0,1,1-55.118-.036A28.085,28.085,0,0,1,17.653,9.712,27.254,27.254,0,0,1,37.159,1.538m0-1.258A28.982,28.982,0,0,0,8.333,29.413,28.825,28.825,0,1,0,37.153.287Z" transform="translate(-3.593 -0.28)"/><path class="d" d="M38.4,57.794a27,27,0,1,0-26.7-27,26.849,26.849,0,0,0,26.7,27" transform="translate(-4.873 -1.618)"/><path class="e" d="M56.184,46.294h-3.27l.559-1.2.482-1.128h1.19l.482,1.128Z" transform="translate(-20.524 -16.87)"/><path class="f" d="M56.535,47.721H49.1a.75.75,0,0,0-.743.75v2.442h8.881V48.472a.7.7,0,0,0-.644-.749h-.064" transform="translate(-18.795 -18.297)"/><g transform="translate(32.949 27.056)"><g class="g"><g transform="translate(-1.035 -1.048)"><rect class="h" width="4.224" height="3.712"/></g></g></g><path class="i" d="M55.888,23.793H44.3a.456.456,0,0,0-.447.453.465.465,0,0,0,.44.488h11.6a.456.456,0,0,0,.445-.453.465.465,0,0,0-.44-.488ZM41.174,25.86V27.4a9.053,9.053,0,0,0,5.537,8.34,8.781,8.781,0,0,0,6.762,0,9.053,9.053,0,0,0,5.537-8.34V25.86ZM57.525,27.4a7.513,7.513,0,0,1-7.433,7.514,7.329,7.329,0,0,1-5.721-2.741,7.62,7.62,0,0,1-1.71-4.772v-.038H57.488V27.4Z" transform="translate(-16.065 -9.21)"/><path class="f" d="M57.8,25.31v4.056A9.15,9.15,0,0,1,52,37.894a9.2,9.2,0,0,1-5.8-8.564V25.31Z" transform="translate(-17.978 -9.786)"/><g transform="translate(28.23 15.524)"><g class="j"><g transform="translate(-1.035 -1.048)"><rect class="k" width="13.625" height="2.66"/></g></g></g><path class="b" d="M53.23,30.892s-.333-.034-.333.264v1.323h2.2v.4a.19.19,0,0,1-.179.2H52.9v1.719h2.4a1.749,1.749,0,0,0,1.463-1.719V30.892Zm3.4-2.142H52.361a1.88,1.88,0,0,0-1.579,1.677V34.8h1.656V30.821a.418.418,0,0,1,.317-.411h3.881Z" transform="translate(-19.714 -11.093)"/><path class="a" d="M54.351,57.667l.023-.015Zm2.987-2.746.017-.015Zm2.716-3.3.01-.017S60.06,51.624,60.054,51.624Zm3.258-6.877.813-3.563h0s0,0,0,0Zm0-3.835v-.013a.032.032,0,0,1,0,.015Zm-.271-3.563v-.021a.088.088,0,0,1,0,.025Zm-.813-3.307h0v0Zm-1.085-3.563ZM39.962,58.658a18.611,18.611,0,0,1-6.075-.729c.706-.922-.459-1.84-1.575-2.725-1.169-.88-2.341-1.758-2.341-1.763s1.378,1.431,1.242,2.66a2.244,2.244,0,0,0,.023.838q-.478-.22-.942-.465c.828-.792-.11-1.926-1-3-.944-1.086-1.9-2.152-1.9-2.157a4.4,4.4,0,0,1,.7,2.867,2.355,2.355,0,0,0-.128.838c-.277-.21-.548-.407-.811-.629.921-.658.248-1.953-.414-3.167-.7-1.237-1.426-2.433-1.426-2.435a4.514,4.514,0,0,1,.151,2.957,2.441,2.441,0,0,0-.273.817c-.23-.245-.453-.495-.666-.748.985-.513.6-1.9.182-3.211-.466-1.333-.967-2.584-.96-2.6a4.751,4.751,0,0,1-.37,2.934,2.681,2.681,0,0,0-.414.769q-.267-.419-.515-.838c1.051-.369.917-1.792.731-3.144-.226-1.373-.507-2.668-.507-2.683a4.59,4.59,0,0,1-.847,2.829,2.774,2.774,0,0,0-.511.725c-.083-.191-.164-.384-.24-.576-.06-.149-.116-.3-.172-.449,1.058-.21,1.153-1.547,1.182-2.825,0-1.3-.077-2.538-.083-2.551a4.329,4.329,0,0,1-1.207,2.515,2.687,2.687,0,0,0-.609.6c-.1-.4-.207-.809-.279-1.218,1.049-.027,1.335-1.268,1.54-2.456a19.339,19.339,0,0,0,.263-2.37,4.057,4.057,0,0,1-1.467,2.165,2.564,2.564,0,0,0-.669.486c-.052-.461-.087-.92-.112-1.381,1.008.122,1.436-.987,1.78-2.067a22.012,22.012,0,0,0,.534-2.165,3.692,3.692,0,0,1-1.637,1.817,2.394,2.394,0,0,0-.7.369c.01-.419.031-.819.062-1.226,0-.1.014-.191.023-.287.909.256,1.474-.731,1.906-1.677a17.781,17.781,0,0,0,.741-1.96A3.3,3.3,0,0,1,20.44,32.82a2.206,2.206,0,0,0-.685.245q.126-.8.3-1.6c.8.327,1.428-.505,1.925-1.335a18.1,18.1,0,0,0,.9-1.775,2.926,2.926,0,0,1-1.757,1.195,2.03,2.03,0,0,0-.621.122q.238-.838.528-1.656c.677.346,1.327-.337,1.863-1.048a17.063,17.063,0,0,0,1.035-1.62,2.621,2.621,0,0,1-1.751.92,1.8,1.8,0,0,0-.5.023q.329-.8.706-1.61l.043-.1c.561.348,1.211-.21,1.768-.838a18.135,18.135,0,0,0,1.159-1.5c-.012,0-.919.92-1.722.759a1.529,1.529,0,0,0-.509-.027,34.376,34.376,0,0,1,1.863-3.481c-.78,1.165-1.465,2.3-2.08,3.423a2.181,2.181,0,0,0-.3-.568,1.858,1.858,0,0,1-.172-1.392,4.867,4.867,0,0,1,.261-.876,9.986,9.986,0,0,0-.987,2.15c-.317,1.063-.308,2.071.414,2.2-.29.589-.555,1.178-.8,1.767a2.274,2.274,0,0,0-.362-.449,1.868,1.868,0,0,1-.4-1.371,4.425,4.425,0,0,1,.137-.9,9.586,9.586,0,0,0-.724,2.27c-.178,1.077-.043,2.081.7,2.163-.188.541-.36,1.079-.517,1.622a2.418,2.418,0,0,0-.414-.36c-.8-.53-.64-2.138-.621-2.259a9.355,9.355,0,0,0-.451,2.393c-.043,1.111.221,2.121,1,2.129v.013q-.157.742-.277,1.494a2.439,2.439,0,0,0-.476-.306c-.917-.432-.965-2.108-.95-2.234a9.624,9.624,0,0,0-.161,2.536c.1,1.159.517,2.182,1.337,2.075-.037.465-.064.931-.079,1.4a2.573,2.573,0,0,0-.557-.258c-1-.308-1.283-1.968-1.3-2.178a10.055,10.055,0,0,0,.17,2.662c.248,1.2.873,2.251,1.71,1.987.025.419.058.859.1,1.287a2.623,2.623,0,0,0-.65-.21c-1.105-.182-1.635-1.939-1.656-2.108a10.4,10.4,0,0,0,.557,2.79c.437,1.258,1.265,2.291,2.117,1.834.081.39.172.782.273,1.169a2.7,2.7,0,0,0-.758-.134c-1.2-.034-2.028-1.886-2.053-1.993a10.7,10.7,0,0,0,1,2.876c.664,1.276,1.72,2.278,2.55,1.6q.192.516.414,1.023a2.827,2.827,0,0,0-.847-.04c-1.283.143-2.453-1.735-2.467-1.807a11.123,11.123,0,0,0,1.521,2.888c.917,1.258,2.213,2.165,2.964,1.281q.252.432.522.838a2.878,2.878,0,0,0-.849.078c-1.281.329-2.778-1.444-2.753-1.467a10.8,10.8,0,0,0,2,2.687c1.13,1.123,2.585,1.834,3.192.838.207.258.443.509.677.759a2.865,2.865,0,0,0-.842.21c-1.167.5-2.852-.868-2.995-1.029a11.462,11.462,0,0,0,2.449,2.337c1.364.949,2.939,1.387,3.382.344.269.22.546.432.828.639a3.081,3.081,0,0,0-.828.329c-1.093.656-3.026-.419-3.221-.555a11.692,11.692,0,0,0,2.9,1.914c1.554.713,3.243.868,3.5-.21.315.166.633.327.96.478a3.163,3.163,0,0,0-.774.457c-.991.822-3.138.109-3.38,0a11.936,11.936,0,0,0,3.289,1.367c1.712.419,3.463.264,3.546-.815a18.58,18.58,0,0,0,6.156.74Z" transform="translate(-6.837 -7.575)"/><path class="l" d="M26.99,62.04l-.023-.015Zm-3.181-2.618-.017-.017A.1.1,0,0,0,23.808,59.422Zm-2.593-3.091-.012-.015Zm-3.392-7.046-.652-3.643-.135-3.655v0Zm.329-3.613v-.021a.076.076,0,0,0,0,.023Zm.751-3.563Zm1.153-3.479Z" transform="translate(-6.898 -12.072)"/><g class="m" transform="translate(10.134 11.877)"><path class="c" d="M39.925,58.475a18.376,18.376,0,0,1-6.025-.729c.7-.918-.455-1.832-1.563-2.712l-2.32-1.754c-.027.021,1.366,1.425,1.242,2.649a2.244,2.244,0,0,0,.023.838c-.317-.149-.621-.3-.936-.465.813-.79-.108-1.922-.993-3-.936-1.084-1.879-2.146-1.881-2.148a4.446,4.446,0,0,1,.691,2.857,2.384,2.384,0,0,0-.128.838c-.275-.21-.544-.407-.805-.629.915-.654.248-1.945-.414-3.156-.7-1.23-1.414-2.425-1.414-2.427a4.517,4.517,0,0,1,.149,2.947,2.478,2.478,0,0,0-.271.817q-.342-.369-.662-.748c.979-.509.6-1.886.182-3.2-.462-1.331-.958-2.578-.954-2.6a4.558,4.558,0,0,1-.366,2.934,2.669,2.669,0,0,0-.414.769q-.265-.419-.509-.838c1.035-.369.909-1.786.724-3.127-.226-1.371-.5-2.662-.5-2.676a4.581,4.581,0,0,1-.84,2.821,2.786,2.786,0,0,0-.526.7c-.081-.191-.161-.381-.238-.574-.058-.149-.116-.3-.17-.449,1.049-.2,1.143-1.54,1.171-2.815,0-1.3-.075-2.532-.081-2.544a4.369,4.369,0,0,1-1.2,2.515,2.637,2.637,0,0,0-.6.591c-.1-.4-.207-.8-.277-1.211,1.035-.029,1.323-1.258,1.528-2.45a20.444,20.444,0,0,0,.269-2.366A3.96,3.96,0,0,1,20.364,39.3a2.523,2.523,0,0,0-.662.486q-.075-.688-.11-1.377c1,.122,1.422-.985,1.763-2.06a22.136,22.136,0,0,0,.53-2.159A3.655,3.655,0,0,1,20.262,36a2.365,2.365,0,0,0-.7.369c.012-.409.033-.817.062-1.222,0-.1.017-.193.023-.287.9.254,1.461-.729,1.892-1.677a17.842,17.842,0,0,0,.735-1.953,3.257,3.257,0,0,1-1.716,1.482,2.223,2.223,0,0,0-.685.239c.083-.534.184-1.067.3-1.6.791.325,1.416-.5,1.908-1.331a18.888,18.888,0,0,0,.894-1.771,2.912,2.912,0,0,1-1.745,1.193,1.983,1.983,0,0,0-.606.122q.236-.826.522-1.652c.671.346,1.316-.337,1.846-1.048a16.812,16.812,0,0,0,1.022-1.614s-.844,1.006-1.734.947a1.874,1.874,0,0,0-.493.023q.329-.8.7-1.605l.043-.1c.557.348,1.2-.21,1.753-.838a18.23,18.23,0,0,0,1.149-1.492s-.911.918-1.708.757a1.508,1.508,0,0,0-.5-.038A33.828,33.828,0,0,1,25.1,19.431c-.776,1.153-1.465,2.285-2.07,3.406a2.153,2.153,0,0,0-.3-.566,1.883,1.883,0,0,1-.17-1.39,4.593,4.593,0,0,1,.259-.872,9.772,9.772,0,0,0-.979,2.142c-.317,1.061-.306,2.064.414,2.19-.288.587-.551,1.176-.795,1.761a2.287,2.287,0,0,0-.358-.446,1.856,1.856,0,0,1-.4-1.367,4.263,4.263,0,0,1,.137-.9,9.489,9.489,0,0,0-.718,2.264c-.178,1.073-.046,2.075.689,2.157q-.279.809-.511,1.618a2.3,2.3,0,0,0-.414-.36c-.8-.518-.642-2.132-.613-2.253a9.463,9.463,0,0,0-.449,2.387c-.043,1.107.221,2.115.989,2.123v.013q-.155.74-.273,1.49a2.424,2.424,0,0,0-.478-.3c-.909-.419-.956-2.1-.942-2.228a9.614,9.614,0,0,0-.159,2.528c.1,1.157.513,2.178,1.327,2.069q-.056.7-.079,1.4a2.578,2.578,0,0,0-.553-.256c-.987-.308-1.273-1.962-1.287-2.169a10.08,10.08,0,0,0,.17,2.643c.244,1.195.865,2.247,1.7,1.983q.033.641.1,1.283a2.526,2.526,0,0,0-.646-.21c-1.095-.182-1.623-1.935-1.656-2.1a10.458,10.458,0,0,0,.553,2.781c.435,1.243,1.254,2.285,2.1,1.828.081.39.17.78.271,1.167a2.659,2.659,0,0,0-.751-.134c-1.2-.034-2.012-1.874-2.039-1.987a10.864,10.864,0,0,0,1,2.867c.66,1.272,1.706,2.27,2.529,1.593q.192.516.414,1.021a2.772,2.772,0,0,0-.84-.04c-1.273.143-2.432-1.731-2.444-1.8a11.123,11.123,0,0,0,1.507,2.878c.911,1.258,2.2,2.161,2.941,1.278q.248.419.517.838a2.843,2.843,0,0,0-.842.078c-1.269.327-2.755-1.44-2.73-1.467a10.764,10.764,0,0,0,1.977,2.66c1.122,1.121,2.564,1.83,3.165.838.207.256.441.509.673.757a2.88,2.88,0,0,0-.828.2c-1.174.507-2.829-.847-2.987-1.014a11.428,11.428,0,0,0,2.434,2.337C25,55.1,26.561,55.532,27,54.491q.4.331.828.629a3.042,3.042,0,0,0-.828.329c-1.085.654-3-.409-3.2-.553A11.674,11.674,0,0,0,26.679,56.8c1.542.711,3.216.866,3.475-.21.31.168.621.325.952.476a3.136,3.136,0,0,0-.768.457c-.983.819-3.1.109-3.353,0A11.8,11.8,0,0,0,30.27,58.9c1.7.419,3.434.264,3.519-.813a18.357,18.357,0,0,0,6.108.738Z" transform="translate(-17.029 -19.431)"/></g><path class="a" d="M56.269,58.486a18.375,18.375,0,0,0,6.025-.729c-.7-.918.457-1.832,1.563-2.712l2.322-1.754c.025.021-1.368,1.425-1.242,2.649a2.244,2.244,0,0,1-.023.838c.317-.149.621-.3.936-.465-.813-.79.108-1.922.993-3,.936-1.084,1.881-2.146,1.881-2.148a4.433,4.433,0,0,0-.691,2.857,2.332,2.332,0,0,1,.128.838c.275-.21.544-.407.805-.629-.915-.654-.248-1.945.4-3.156.7-1.23,1.414-2.425,1.416-2.427a4.526,4.526,0,0,0-.151,2.947,2.478,2.478,0,0,1,.271.817q.342-.369.662-.748c-.979-.509-.6-1.886-.182-3.2.462-1.331.958-2.578.954-2.6a4.558,4.558,0,0,0,.366,2.934,2.61,2.61,0,0,1,.4.769q.267-.419.511-.838c-1.035-.369-.909-1.786-.724-3.127.226-1.371.5-2.662.5-2.676a4.58,4.58,0,0,0,.84,2.821,2.786,2.786,0,0,1,.526.7c.083-.191.161-.381.238-.574.058-.149.116-.3.17-.449-1.049-.2-1.143-1.54-1.172-2.815,0-1.3.075-2.532.081-2.544a4.369,4.369,0,0,0,1.2,2.515,2.637,2.637,0,0,1,.6.591c.1-.4.2-.8.277-1.211-1.035-.029-1.323-1.258-1.527-2.45-.174-1.2-.271-2.349-.261-2.362a4.069,4.069,0,0,0,1.449,2.157,2.575,2.575,0,0,1,.664.486c.048-.459.085-.918.108-1.377-1,.122-1.422-.985-1.763-2.06A21.444,21.444,0,0,1,74.3,34.2a3.666,3.666,0,0,0,1.623,1.811,2.365,2.365,0,0,1,.7.369c-.012-.409-.033-.817-.062-1.222,0-.1-.014-.193-.023-.287-.9.254-1.461-.729-1.892-1.677a18.352,18.352,0,0,1-.735-1.953,3.248,3.248,0,0,0,1.716,1.482,2.233,2.233,0,0,1,.677.243c-.083-.534-.184-1.067-.3-1.6-.791.325-1.416-.5-1.908-1.331A18.006,18.006,0,0,1,73.2,28.27a2.905,2.905,0,0,0,1.743,1.193,1.983,1.983,0,0,1,.606.122q-.236-.826-.522-1.652c-.671.346-1.316-.337-1.846-1.048a16.77,16.77,0,0,1-1.022-1.614s.844,1.006,1.734.947a1.875,1.875,0,0,1,.493.023q-.329-.8-.7-1.605l-.043-.1c-.557.348-1.2-.21-1.753-.838A18.229,18.229,0,0,1,70.739,22.2s.911.918,1.708.757a1.5,1.5,0,0,1,.505-.027,33.828,33.828,0,0,0-1.863-3.469c.776,1.153,1.465,2.285,2.07,3.406a2.084,2.084,0,0,1,.3-.566,1.882,1.882,0,0,0,.17-1.39,4.593,4.593,0,0,0-.259-.872,9.664,9.664,0,0,1,.979,2.142c.317,1.061.306,2.064-.414,2.19.288.587.551,1.176.795,1.761a2.288,2.288,0,0,1,.358-.446,1.847,1.847,0,0,0,.4-1.367,4.264,4.264,0,0,0-.137-.9,9.489,9.489,0,0,1,.718,2.264c.178,1.073.046,2.075-.689,2.157q.279.809.511,1.618a2.3,2.3,0,0,1,.414-.36c.791-.528.633-2.132.6-2.253a9.463,9.463,0,0,1,.449,2.387c.043,1.107-.221,2.115-.989,2.123v.013q.155.74.273,1.49a2.418,2.418,0,0,1,.474-.306c.909-.419.956-2.1.942-2.228a9.614,9.614,0,0,1,.159,2.528c-.1,1.157-.513,2.178-1.327,2.069q.056.7.081,1.4a2.563,2.563,0,0,1,.551-.256c.987-.308,1.271-1.962,1.287-2.169a10.083,10.083,0,0,1-.17,2.651c-.244,1.195-.865,2.247-1.7,1.983q-.035.641-.1,1.283a2.525,2.525,0,0,1,.646-.21c1.095-.182,1.623-1.935,1.656-2.1a10.458,10.458,0,0,1-.553,2.781c-.435,1.243-1.254,2.285-2.1,1.828-.081.39-.17.78-.271,1.167a2.659,2.659,0,0,1,.751-.134c1.2-.034,2.012-1.874,2.039-1.987a10.864,10.864,0,0,1-1,2.867c-.66,1.272-1.705,2.27-2.529,1.593q-.192.516-.414,1.021a2.772,2.772,0,0,1,.84-.04c1.273.143,2.432-1.731,2.444-1.8a11.124,11.124,0,0,1-1.507,2.878c-.911,1.258-2.2,2.161-2.941,1.278q-.248.419-.517.838a2.843,2.843,0,0,1,.842.078c1.269.327,2.755-1.44,2.73-1.467a10.764,10.764,0,0,1-1.977,2.66c-1.122,1.121-2.564,1.83-3.165.838-.207.256-.441.509-.673.757a2.88,2.88,0,0,1,.828.2c1.157.484,2.827-.87,2.978-1.031a11.423,11.423,0,0,1-2.43,2.331c-1.352.947-2.914,1.383-3.353.342q-.4.331-.828.629a3.049,3.049,0,0,1,.818.329c1.085.654,3-.409,3.2-.553a11.674,11.674,0,0,1-2.875,1.907c-1.542.711-3.216.866-3.475-.21-.31.168-.621.325-.952.476a3.136,3.136,0,0,1,.768.457c.983.819,3.1.109,3.353,0A11.8,11.8,0,0,1,65.9,58.906c-1.7.419-3.432.264-3.519-.813a18.357,18.357,0,0,1-6.108.738l-.043-.346Z" transform="translate(-21.782 -7.565)"/><path d="M58.537,73.4a.391.391,0,0,0,.077-.245v-.195a.384.384,0,0,0-.079-.245.247.247,0,0,0-.207-.084.251.251,0,0,0-.207.084.385.385,0,0,0-.077.245v.195a.38.38,0,0,0,.079.245.3.3,0,0,0,.414,0Zm-.654.187a.592.592,0,0,1-.172-.419v-.22a.589.589,0,0,1,.174-.419.742.742,0,0,1,.9,0,.589.589,0,0,1,.174.419v.22a.584.584,0,0,1-.172.419.748.748,0,0,1-.9,0Zm-1.42,0a.582.582,0,0,1-.172-.419v-.2a.588.588,0,0,1,.172-.419.616.616,0,0,1,.437-.153.726.726,0,0,1,.331.069.534.534,0,0,1,.207.172.4.4,0,0,1,.07.195.053.053,0,0,1-.017.044.066.066,0,0,1-.043.017h-.219a.07.07,0,0,1-.041,0,.123.123,0,0,1-.025-.042.3.3,0,0,0-.1-.138.261.261,0,0,0-.155-.042.24.24,0,0,0-.207.08.389.389,0,0,0-.077.247v.176q.016.327.273.327a.278.278,0,0,0,.157-.042.294.294,0,0,0,.1-.14.1.1,0,0,1,.025-.04.057.057,0,0,1,.041-.013h.219a.066.066,0,0,1,.043.017.053.053,0,0,1,.017.044.4.4,0,0,1-.068.189.517.517,0,0,1-.207.176.71.71,0,0,1-.335.073.617.617,0,0,1-.42-.172Zm-.76.111a.059.059,0,0,1-.017-.042V73.4a.056.056,0,0,1,.051-.061H56a.058.058,0,0,1,.041.017.062.062,0,0,1,.019.044v.254a.059.059,0,0,1-.017.042A.053.053,0,0,1,56,73.71h-.25a.059.059,0,0,1-.05-.013Zm-1.149-.015a.5.5,0,0,1-.188-.134.228.228,0,0,1-.06-.132.051.051,0,0,1,.014-.04.059.059,0,0,1,.039-.017h.207a.046.046,0,0,1,.035.021l.056.048a.33.33,0,0,0,.224.08.306.306,0,0,0,.161-.038.128.128,0,0,0,.062-.113.118.118,0,0,0-.029-.082.249.249,0,0,0-.1-.057,1.892,1.892,0,0,0-.221-.061.634.634,0,0,1-.31-.138.312.312,0,0,1-.1-.245.346.346,0,0,1,.06-.191.434.434,0,0,1,.178-.145.645.645,0,0,1,.281-.057.719.719,0,0,1,.29.052.524.524,0,0,1,.186.13.221.221,0,0,1,.062.134.053.053,0,0,1-.054.054h-.186a.047.047,0,0,1-.041-.019.588.588,0,0,1-.056-.048.372.372,0,0,0-.087-.052.266.266,0,0,0-.114-.021.206.206,0,0,0-.141.04.133.133,0,0,0-.05.107.116.116,0,0,0,.023.075.253.253,0,0,0,.1.057,1.412,1.412,0,0,0,.207.052q.447.088.447.4a.343.343,0,0,1-.153.289.72.72,0,0,1-.426.111.763.763,0,0,1-.315-.054Zm-2.4.015a.059.059,0,0,1-.017-.042V72.463a.067.067,0,0,1,.017-.044.064.064,0,0,1,.043-.015h.195a.057.057,0,0,1,.043.015.059.059,0,0,1,.017.044v.094a.435.435,0,0,1,.36-.17.39.39,0,0,1,.385.222.454.454,0,0,1,.17-.161.462.462,0,0,1,.236-.061.434.434,0,0,1,.333.14.592.592,0,0,1,.128.409v.723a.059.059,0,0,1-.017.042.053.053,0,0,1-.043.019h-.207a.06.06,0,0,1-.043-.019.059.059,0,0,1-.017-.042v-.7a.33.33,0,0,0-.066-.228.22.22,0,0,0-.172-.071.224.224,0,0,0-.166.071.324.324,0,0,0-.068.228v.7a.059.059,0,0,1-.017.042.053.053,0,0,1-.043.019H53a.065.065,0,0,1-.06-.061v-.7a.323.323,0,0,0-.066-.228.23.23,0,0,0-.172-.071.227.227,0,0,0-.166.071.324.324,0,0,0-.068.228v.7a.057.057,0,0,1-.014.042.06.06,0,0,1-.043.019H52.2a.06.06,0,0,1-.054-.023Zm-1.035,0a.059.059,0,0,1-.017-.042V72.468a.069.069,0,0,1,.017-.046.057.057,0,0,1,.043-.017h.207a.06.06,0,0,1,.046.017.069.069,0,0,1,.017.046v.1a.412.412,0,0,1,.358-.166h.1a.058.058,0,0,1,.043.015.059.059,0,0,1,.017.044v.184a.051.051,0,0,1-.017.042.053.053,0,0,1-.043.019H51.7a.234.234,0,0,0-.253.254v.69a.051.051,0,0,1-.017.042.055.055,0,0,1-.041.019h-.238A.06.06,0,0,1,51.1,73.7Zm-1.391,0a.059.059,0,0,1-.017-.042v-.979H49.5a.056.056,0,0,1-.06-.052.063.063,0,0,1,0-.009v-.149a.063.063,0,0,1,.017-.042A.057.057,0,0,1,49.5,72.4h.207v-.1a.446.446,0,0,1,.122-.342.519.519,0,0,1,.366-.111h.515a.058.058,0,0,1,.043.015.067.067,0,0,1,.017.044v.149a.061.061,0,0,1-.019.044.058.058,0,0,1-.041.017h-.5a.172.172,0,0,0-.137.048.241.241,0,0,0-.039.149V72.4h.679a.058.058,0,0,1,.043.015.067.067,0,0,1,.017.044v1.188a.059.059,0,0,1-.017.042.053.053,0,0,1-.043.019h-.207a.065.065,0,0,1-.06-.061v-.979h-.414v.979a.051.051,0,0,1-.017.042.053.053,0,0,1-.043.019h-.207a.06.06,0,0,1-.052-.015Zm-.917-.316a.4.4,0,0,0,.075-.226v-.195a.344.344,0,0,0-.077-.21.255.255,0,0,0-.207-.088c-.176,0-.271.111-.284.333v.151c.012.21.108.331.284.331A.247.247,0,0,0,48.809,73.377Zm-.689.21a.7.7,0,0,1-.147-.434v-.176a.7.7,0,0,1,.145-.432.528.528,0,0,1,.766,0v-.56a.062.062,0,0,1,.019-.044.055.055,0,0,1,.041-.015h.207a.057.057,0,0,1,.043.015.059.059,0,0,1,.017.044v1.677a.051.051,0,0,1-.017.042.053.053,0,0,1-.043.019h-.207a.065.065,0,0,1-.06-.061V73.57a.527.527,0,0,1-.751.043l-.027-.026Zm-.793-.174a.391.391,0,0,0,.077-.245v-.195a.4.4,0,0,0-.077-.245.248.248,0,0,0-.207-.084.253.253,0,0,0-.207.084.4.4,0,0,0-.077.245v.195a.391.391,0,0,0,.077.245.257.257,0,0,0,.207.082.249.249,0,0,0,.215-.1Zm-.654.187a.592.592,0,0,1-.172-.419v-.22a.589.589,0,0,1,.174-.419.637.637,0,0,1,.451-.151.628.628,0,0,1,.447.151.589.589,0,0,1,.174.419v.22a.592.592,0,0,1-.172.419.75.75,0,0,1-.9,0Zm-.818-.187a.379.379,0,0,0,.075-.245.833.833,0,0,0,0-.1.869.869,0,0,0,0-.1.384.384,0,0,0-.077-.245.247.247,0,0,0-.207-.084.251.251,0,0,0-.207.084.384.384,0,0,0-.079.245v.195a.38.38,0,0,0,.079.245.293.293,0,0,0,.414,0ZM45.2,73.6a.584.584,0,0,1-.172-.419v-.22a.589.589,0,0,1,.174-.419.742.742,0,0,1,.9,0,.589.589,0,0,1,.174.419v.22a.592.592,0,0,1-.172.419.748.748,0,0,1-.9,0Zm-.869-.243a.4.4,0,0,0,.077-.22.771.771,0,0,0,0-.082.732.732,0,0,0,0-.08.408.408,0,0,0-.077-.222.253.253,0,0,0-.207-.09c-.18,0-.273.111-.284.333v.059c0,.262.1.394.286.394a.249.249,0,0,0,.213-.1Zm-.557.838a.483.483,0,0,1-.195-.17.332.332,0,0,1-.056-.163.055.055,0,0,1,.017-.042.059.059,0,0,1,.041-.015H43.8a.061.061,0,0,1,.039.01.079.079,0,0,1,.025.042.286.286,0,0,0,.083.111.258.258,0,0,0,.17.046.246.246,0,0,0,.289-.2.252.252,0,0,0,0-.1v-.172a.542.542,0,0,1-.77,0,.7.7,0,0,1-.139-.432v-.136a.711.711,0,0,1,.141-.432.467.467,0,0,1,.387-.163.5.5,0,0,1,.232.05.469.469,0,0,1,.164.134v-.1a.061.061,0,0,1,.019-.046.057.057,0,0,1,.043-.017h.207a.057.057,0,0,1,.043.017.069.069,0,0,1,.017.046v1.211a.574.574,0,0,1-.153.432.631.631,0,0,1-.464.155.735.735,0,0,1-.352-.073Z" transform="translate(-16.948 -27.461)"/><path class="n" d="M67.675,56.163H60.139V67.82h7.536l-2.422-5.474Zm-66.984,0H8.227V67.82H.691l2.42-5.474Z" transform="translate(-0.691 -21.503)"/><path class="o" d="M66.28,49.712l-3.81,3.982V65.351l3.81-3.833Zm-59.459,0,3.819,4.152v11.5L6.821,61.507Z" transform="translate(-3.019 -19.053)"/><path class="c" d="M6.684,61.464H66.22l-.006-11.806H6.684Z" transform="translate(-2.967 -19.033)"/><path class="l" d="M55.847,58.663a18.611,18.611,0,0,0,6.075-.729c-.706-.922.459-1.84,1.575-2.725,1.169-.88,2.341-1.758,2.341-1.763s-1.378,1.431-1.242,2.66a2.244,2.244,0,0,1-.023.838q.478-.22.942-.465c-.828-.792.11-1.926,1-3,.944-1.086,1.9-2.152,1.9-2.157a4.4,4.4,0,0,0-.7,2.867,2.355,2.355,0,0,1,.128.838c.277-.21.548-.407.811-.629-.923-.658-.248-1.953.414-3.167.7-1.237,1.426-2.433,1.426-2.435a4.514,4.514,0,0,0-.151,2.957,2.485,2.485,0,0,1,.273.817c.23-.245.453-.495.666-.748-.985-.513-.6-1.9-.182-3.211.466-1.333.967-2.584.96-2.6a4.751,4.751,0,0,0,.37,2.934,2.682,2.682,0,0,1,.414.769q.267-.419.513-.838c-1.051-.369-.915-1.792-.729-3.144.226-1.373.505-2.668.505-2.683a4.6,4.6,0,0,0,.849,2.829,2.772,2.772,0,0,1,.53.7c.083-.191.164-.384.24-.576.06-.149.116-.3.172-.449-1.058-.21-1.153-1.547-1.182-2.825,0-1.3.077-2.538.083-2.551a4.329,4.329,0,0,0,1.207,2.515,2.687,2.687,0,0,1,.609.6c.1-.4.2-.809.279-1.218-1.049-.027-1.335-1.268-1.54-2.456a19.336,19.336,0,0,1-.263-2.37,4.057,4.057,0,0,0,1.467,2.165,2.564,2.564,0,0,1,.669.486c.05-.461.087-.92.112-1.381-1.008.122-1.436-.987-1.78-2.067a22.009,22.009,0,0,1-.534-2.165A3.692,3.692,0,0,0,75.692,36.1a2.394,2.394,0,0,1,.7.369c-.012-.419-.031-.819-.062-1.226,0-.1-.014-.191-.023-.287-.909.256-1.474-.731-1.906-1.677a17.781,17.781,0,0,1-.741-1.96A3.3,3.3,0,0,0,75.388,32.8a2.206,2.206,0,0,1,.685.245c-.087-.537-.186-1.071-.3-1.6-.8.327-1.428-.505-1.925-1.335a19.011,19.011,0,0,1-.9-1.775A2.972,2.972,0,0,0,74.7,29.528a2.03,2.03,0,0,1,.621.122q-.24-.838-.528-1.656c-.677.346-1.327-.337-1.863-1.048a17.064,17.064,0,0,1-1.035-1.62c.01,0,.855,1.01,1.749.952a1.8,1.8,0,0,1,.5.023q-.329-.8-.706-1.61l-.043-.1c-.561.348-1.211-.21-1.768-.838a18.135,18.135,0,0,1-1.159-1.5c.012,0,.919.92,1.722.759a1.529,1.529,0,0,1,.509-.027A34.8,34.8,0,0,0,70.826,19.5c.78,1.159,1.476,2.305,2.09,3.418a2.181,2.181,0,0,1,.3-.568,1.882,1.882,0,0,0,.172-1.394,5.076,5.076,0,0,0-.261-.876,9.985,9.985,0,0,1,.987,2.15c.317,1.063.308,2.071-.414,2.2.29.589.555,1.178.8,1.767a2.274,2.274,0,0,1,.362-.449,1.868,1.868,0,0,0,.4-1.371,4.425,4.425,0,0,0-.137-.9,9.586,9.586,0,0,1,.724,2.27c.178,1.077.043,2.081-.7,2.163.188.541.36,1.079.517,1.622a2.335,2.335,0,0,1,.414-.36c.8-.53.64-2.138.621-2.259a9.355,9.355,0,0,1,.451,2.393c.043,1.111-.221,2.121-1,2.129v.013q.157.742.277,1.494a2.439,2.439,0,0,1,.476-.306c.917-.432.965-2.108.95-2.234a9.624,9.624,0,0,1,.161,2.536c-.1,1.159-.517,2.182-1.337,2.075.037.465.064.931.079,1.4a2.573,2.573,0,0,1,.557-.258c1-.308,1.281-1.968,1.3-2.178a10.055,10.055,0,0,1-.17,2.662c-.248,1.2-.873,2.251-1.71,1.987-.025.419-.058.859-.106,1.287a2.667,2.667,0,0,1,.652-.21c1.105-.182,1.635-1.939,1.656-2.108a10.4,10.4,0,0,1-.557,2.79c-.437,1.258-1.265,2.291-2.117,1.834C76.2,42.6,76.1,43,76,43.384a2.7,2.7,0,0,1,.758-.134c1.2-.034,2.028-1.886,2.053-1.993a10.657,10.657,0,0,1-1.006,2.876c-.662,1.276-1.718,2.278-2.548,1.6q-.192.516-.414,1.023a2.813,2.813,0,0,1,.847-.04c1.283.143,2.453-1.735,2.465-1.807A11.012,11.012,0,0,1,76.638,47.8c-.917,1.258-2.213,2.165-2.964,1.281q-.252.432-.522.838a2.877,2.877,0,0,1,.849.078c1.279.329,2.778-1.444,2.753-1.467a10.8,10.8,0,0,1-2.018,2.685c-1.13,1.123-2.585,1.834-3.192.838-.217.258-.443.509-.677.759a2.865,2.865,0,0,1,.842.21c1.167.484,2.85-.874,3-1.035a11.462,11.462,0,0,1-2.449,2.337c-1.364.949-2.939,1.387-3.382.344-.269.22-.546.432-.828.639a3.081,3.081,0,0,1,.828.329c1.093.656,3.026-.419,3.221-.555a11.692,11.692,0,0,1-2.9,1.914c-1.554.713-3.243.868-3.5-.21-.315.166-.635.327-.96.478a3.17,3.17,0,0,1,.762.451c.991.822,3.138.109,3.38,0a11.925,11.925,0,0,1-3.3,1.379c-1.71.419-3.461.264-3.543-.815a18.58,18.58,0,0,1-6.156.74Z" transform="translate(-21.638 -7.58)"/><path class="p" d="M52.87,6.018l1.221,2.5,2.73.4-1.977,1.958.468,2.748-2.442-1.3-2.44,1.3.466-2.748L48.919,8.932l2.73-.4Z" transform="translate(-19.007 -2.46)"/><path class="i" d="M41.186,12.963l-.731-1.5-.733,1.5-1.639.241,1.186,1.167-.279,1.649,1.465-.78,1.463.78-.279-1.649L42.825,13.2Z" transform="translate(-14.892 -4.527)"/><path class="i" d="M69.594,13.2l-1.639-.241-.731-1.5-.733,1.5-1.637.241,1.184,1.167-.279,1.649,1.465-.78,1.463.78-.279-1.649Z" transform="translate(-25.058 -4.527)"/><path class="f" d="M35.382,19.639l-.439-.9-.439.9-.983.145.71.7-.168.989.88-.465.878.465-.168-.989.712-.7Z" transform="translate(-13.159 -7.29)"/><path class="f" d="M75.317,19.784l-.983-.145-.439-.9-.439.9-.983.145.712.7-.168.989.878-.465.88.465-.168-.989Z" transform="translate(-27.952 -7.29)"/><g transform="translate(8.188 35.328)"><path class="b" d="M14.617,59.826V57.749h-.724v-.434h1.97v.434h-.726v2.077Z" transform="translate(-13.893 -57.268)"/><path class="b" d="M19.577,58.544a1.2,1.2,0,1,1-1.2-1.3A1.162,1.162,0,0,1,19.577,58.544Zm-1.863,0c0,.526.261.857.666.857s.666-.331.666-.857-.261-.861-.666-.861S17.714,58.018,17.714,58.544Z" transform="translate(-15.143 -57.242)"/><path class="b" d="M22.613,57.313a.819.819,0,0,1,.859.859.834.834,0,0,1-.8.861.8.8,0,0,1-.081,0H22.1v.792h-.52V57.308ZM22.1,58.62h.379a.446.446,0,0,0,0-.893H22.1Z" transform="translate(-16.811 -57.266)"/><path class="b" d="M27.985,59.823H26.343V57.308h1.641v.434H26.863v.606h1.06v.4h-1.06v.629h1.122Z" transform="translate(-18.621 -57.266)"/><path class="b" d="M29.607,59.456v-.444h1.128v.444Z" transform="translate(-19.861 -57.913)"/><path class="b" d="M31.977,58.54a1.149,1.149,0,0,1,1.174-1.3,1.039,1.039,0,0,1,1.091.945h-.507a.576.576,0,0,0-.584-.509c-.391,0-.644.331-.644.861s.248.866.646.866a.559.559,0,0,0,.584-.48h.505a1.009,1.009,0,0,1-1.091.914A1.147,1.147,0,0,1,31.977,58.54Z" transform="translate(-20.76 -57.24)"/><path class="b" d="M38.41,58.544a1.2,1.2,0,1,1-1.2-1.3A1.162,1.162,0,0,1,38.41,58.544Zm-1.863,0c0,.526.259.857.666.857s.664-.331.664-.857-.259-.861-.664-.861S36.548,58.018,36.548,58.544Z" transform="translate(-22.295 -57.242)"/><path class="b" d="M43.037,59.823h-.462v-1.7h-.014L41.889,59.8h-.327l-.673-1.677h-.014v1.7h-.462V57.308h.6l.706,1.779h.012l.706-1.779h.6Z" transform="translate(-23.964 -57.266)"/><path class="b" d="M47.934,59.823h-.462v-1.7h-.014L46.785,59.8h-.327l-.675-1.677h-.014v1.7h-.464V57.308h.6l.7,1.779h.014l.7-1.779h.6Z" transform="translate(-25.822 -57.266)"/><path class="b" d="M51.851,59.823H50.207V57.308h1.643v.434H50.735v.606h1.06v.4h-1.06v.629h1.124Z" transform="translate(-27.684 -57.266)"/><path class="b" d="M53.978,59.823h-.517V57.308h1.022c.571,0,.9.3.9.8a.738.738,0,0,1-.451.713l.522,1h-.584L54.4,58.9h-.426Zm0-1.3h.455a.374.374,0,0,0,.413-.332.4.4,0,0,0,0-.068.384.384,0,0,0-.364-.4.389.389,0,0,0-.049,0h-.455Z" transform="translate(-28.92 -57.266)"/><path class="b" d="M56.982,58.54a1.149,1.149,0,0,1,1.174-1.3,1.024,1.024,0,0,1,1.089.945h-.505a.576.576,0,0,0-.584-.509c-.393,0-.646.331-.646.861s.25.866.646.866a.563.563,0,0,0,.586-.48h.505a1.011,1.011,0,0,1-1.091.914A1.147,1.147,0,0,1,56.982,58.54Z" transform="translate(-30.257 -57.24)"/><path class="b" d="M62.79,59.823H61.146V57.308H62.79v.434H61.666v.606h1.06v.4h-1.06v.629H62.79Z" transform="translate(-31.838 -57.266)"/><path class="b" d="M65.978,59.084c.023.21.236.342.511.342s.466-.134.466-.319-.118-.254-.414-.321l-.323-.071c-.457-.1-.681-.335-.681-.7,0-.463.393-.769.948-.769s.94.3.948.755h-.486c-.017-.21-.207-.34-.459-.34s-.426.13-.426.31c0,.153.12.241.414.306l.3.065c.5.109.714.325.714.706,0,.488-.391.794-1.006.794s-.977-.285-.991-.757Z" transform="translate(-33.488 -57.242)"/><path class="b" d="M71.467,58.544a1.2,1.2,0,1,1-1.194-1.3A1.162,1.162,0,0,1,71.467,58.544Zm-1.863,0c0,.526.261.857.666.857s.666-.331.666-.857-.261-.861-.666-.861S69.6,58.018,69.6,58.544Z" transform="translate(-34.851 -57.242)"/><path class="b" d="M73.467,59.823V57.308h1.625v.434H73.987v.673h1.008v.419H73.987v.989Z" transform="translate(-36.517 -57.266)"/><path class="b" d="M77.1,59.826V57.749h-.724v-.434h1.97v.434h-.726v2.077Z" transform="translate(-37.624 -57.268)"/><path class="b" d="M80.951,59.823h-.491L79.8,57.308h.538l.391,1.817h.012l.464-1.817h.439l.464,1.817h.014l.391-1.817h.538L82.4,59.823h-.491l-.476-1.717h0Z" transform="translate(-38.924 -57.266)"/><path class="b" d="M86.459,59.213h-.869l-.19.61h-.532l.861-2.515h.609l.863,2.515h-.551Zm-.758-.392h.646l-.317-1.029h-.012Z" transform="translate(-40.847 -57.266)"/><path class="b" d="M89.555,59.823h-.52V57.308H90.06c.571,0,.9.3.9.8a.736.736,0,0,1-.449.713l.522,1H90.44l-.462-.92h-.424Zm0-1.3h.455a.374.374,0,0,0,.413-.332.4.4,0,0,0,0-.068.384.384,0,0,0-.364-.4.389.389,0,0,0-.049,0h-.449Z" transform="translate(-42.43 -57.266)"/><path class="b" d="M94.324,59.823H92.683V57.308h1.641v.434H93.2v.606h1.062v.4H93.2v.629h1.124Z" transform="translate(-43.815 -57.266)"/></g></svg>