<svg id="goodfirmss" xmlns="http://www.w3.org/2000/svg" width="261.634" height="39" viewBox="0 0 261.634 39">
  <g id="goodfirms-white-logo-_11_" data-name="goodfirms-white-logo-(11)">
    <path id="Shape" d="M16.033,13.715s-2.165-.215-2.165,1.714V24h14.3v2.572a1.229,1.229,0,0,1-1.3,1.285h-13V39h15.6S38.913,37.542,39,27.857V13.715ZM38.565,0H10.4C.215,2.4,0,10.757,0,10.757V39H10.835V13.286A2.641,2.641,0,0,1,13,10.716H38.567V0ZM75.749,30.918c-.743.5-1.293.86-1.681,1.092a30.073,30.073,0,0,1-3.941,2.052,12.766,12.766,0,0,1-4.782,1.092,17.235,17.235,0,0,1-12.183-4.5A14.756,14.756,0,0,1,48.286,19.3,16.469,16.469,0,0,1,52.68,7.848a13.865,13.865,0,0,1,10.7-4.832,17.986,17.986,0,0,1,5.557.929A15.374,15.374,0,0,1,75.1,7.484l-2.812,3.111a10.847,10.847,0,0,0-4.556-2.548,15.871,15.871,0,0,0-4.491-.594,9.306,9.306,0,0,0-7.4,3.54A12.9,12.9,0,0,0,52.875,19.5a10.688,10.688,0,0,0,3.391,8.11,12.026,12.026,0,0,0,8.626,3.243A8.81,8.81,0,0,0,69.351,29.5c1.261-.96,1.907-1.424,1.939-1.458V21.253H61.856l1.356-4.236H75.749Zm28.5-8.275a11.773,11.773,0,0,1-3.49,8.506,11.848,11.848,0,0,1-16.963.067,11.5,11.5,0,0,1-3.555-8.539,12.25,12.25,0,0,1,3.393-8.606,10.85,10.85,0,0,1,8.3-3.64,11.91,11.91,0,0,1,12.311,12.213Zm-4.427.067a7.765,7.765,0,0,0-2.229-5.627,7.317,7.317,0,0,0-5.525-2.318A6.868,6.868,0,0,0,86.8,17.149a7.836,7.836,0,0,0-2.165,5.46,7.668,7.668,0,0,0,2.2,5.5,7.249,7.249,0,0,0,5.46,2.316,7.1,7.1,0,0,0,5.269-2.284,7.431,7.431,0,0,0,2.262-5.427Zm32.537-.067a11.773,11.773,0,0,1-3.49,8.506,11.848,11.848,0,0,1-16.963.067,11.5,11.5,0,0,1-3.555-8.539,12.25,12.25,0,0,1,3.393-8.606,10.853,10.853,0,0,1,8.3-3.64,11.91,11.91,0,0,1,12.311,12.213Zm-4.427.067a7.765,7.765,0,0,0-2.229-5.627,7.317,7.317,0,0,0-5.525-2.318,6.868,6.868,0,0,0-5.267,2.385,7.836,7.836,0,0,0-2.165,5.46,7.662,7.662,0,0,0,2.2,5.5,7.243,7.243,0,0,0,5.46,2.316,7.1,7.1,0,0,0,5.267-2.284,7.431,7.431,0,0,0,2.262-5.427Zm30.439,11.384-4.071.63V30.784l-.873.992a10.7,10.7,0,0,1-2.585,1.788,10.446,10.446,0,0,1-4.426.96,10.647,10.647,0,0,1-8.079-3.51,11.825,11.825,0,0,1-3.295-8.372,12.384,12.384,0,0,1,3.263-8.606,10.343,10.343,0,0,1,7.98-3.575,11.451,11.451,0,0,1,4.717.893,8.005,8.005,0,0,1,2.424,1.69c.227.3.453.628.68.925V3.644l4.327-.63Zm-3.813-11.154a7.965,7.965,0,0,0-2.359-5.857,7.3,7.3,0,0,0-5.4-2.416,7.026,7.026,0,0,0-5.46,2.284,7.774,7.774,0,0,0-1.972,5.328A8.442,8.442,0,0,0,141.4,28.1a6.6,6.6,0,0,0,5.17,2.284,8.034,8.034,0,0,0,5.493-2.117,6.888,6.888,0,0,0,2.489-5.33ZM181.211,7.949H169.095v8.24h9.4v4.236h-9.4V34.062l-4.717.695V3.677h15.9Zm9.726-2.418L188.028,9.2,185.25,5.531l2.94-3.64Zm-.873,28.563-4.329.6v-23l4.329-.661V34.093Zm19.548-23.3-2.035,4.7a5.7,5.7,0,0,0-.808-.065,8.26,8.26,0,0,0-1.261.1,4.96,4.96,0,0,0-1.356.464,5.285,5.285,0,0,0-2.359,2.548,10.307,10.307,0,0,0-1.133,4.734v10.79l-4.327.695V11.687l4.006-.728v4.8c.516-.828,1.066-1.655,1.582-2.515a6.406,6.406,0,0,1,2.585-1.855,20.338,20.338,0,0,1,5.105-.594Zm32.244,23.3-4.329.63V18.935a4.417,4.417,0,0,0-.969-3.178,3.859,3.859,0,0,0-2.877-.994,3.815,3.815,0,0,0-3.456,1.887,5.275,5.275,0,0,0-.808,2.713v14.7l-4.329.795V19.034a4.8,4.8,0,0,0-.938-3.176,3.25,3.25,0,0,0-2.585-1.094h-.42a3.441,3.441,0,0,0-3.3,1.92,7.712,7.712,0,0,0-.774,3.673v13.7l-4.491.795V11.687l4.037-.695v2.945a9.123,9.123,0,0,1,1.326-1.655,5.724,5.724,0,0,1,4.037-1.623,7.106,7.106,0,0,1,3.844.828,7.127,7.127,0,0,1,2.165,2.713,7.1,7.1,0,0,1,6.366-3.542c2.648,0,4.621.828,5.911,2.516,1.068,1.389,1.584,3.441,1.584,6.123Zm19.779-6.983a6.782,6.782,0,0,1-2.229,5.23,7.89,7.89,0,0,1-5.623,2.052,9.082,9.082,0,0,1-4.621-1.192,8.641,8.641,0,0,1-3.1-2.747L249.1,27.74a5.974,5.974,0,0,0,.613.793,5.506,5.506,0,0,0,4.071,1.755,3.707,3.707,0,0,0,2.585-.86,2.974,2.974,0,0,0,.938-2.385q0-1.736-2.229-2.383-4.413-1.34-4.751-1.489a8.221,8.221,0,0,1-2.942-2.251,6.483,6.483,0,0,1-1.033-3.839,6.447,6.447,0,0,1,2.2-4.964,7.45,7.45,0,0,1,5.2-1.954,8.8,8.8,0,0,1,4.234,1.027,7.223,7.223,0,0,1,2.778,2.284l-2.585,2.812a9.487,9.487,0,0,0-1.259-1.059,5.234,5.234,0,0,0-2.971-1.092,3.882,3.882,0,0,0-2.23.594,2.549,2.549,0,0,0-1.034,2.186,2.25,2.25,0,0,0,1,2.052,13.914,13.914,0,0,0,3.748,1.19,8.831,8.831,0,0,1,4.491,2.385A6.06,6.06,0,0,1,261.634,27.111Z" fill="#1d1e31"/>
  </g>
</svg>
