<svg xmlns="http://www.w3.org/2000/svg" width="391.488" height="403.571" viewBox="0 0 391.488 403.571">
  <g id="Group_1461" data-name="Group 1461" transform="translate(-1246.934 -55.495)">
    <g id="angular-dev" transform="translate(1247.485 55.495)">
      <g id="Group_1271" data-name="Group 1271" transform="translate(92.357 158.545)">
        <path id="XMLID_19_" d="M1353.324,131.163s21.366,45.634,21.366,48.008S1355.7,191.833,1352,193.943s-8.705,4.221-8.705,4.221l2.111,21.1s32.709-7.386,46.426-14.772,13.189-15.827,10.024-28.225-24.268-60.67-24.268-60.67Z" transform="translate(-1182.914 -115.6)" fill="#fff" stroke="#333" stroke-linecap="round" stroke-linejoin="round" stroke-miterlimit="10" stroke-width="1"/>
        <path id="Path_627" data-name="Path 627" d="M1382.337,204.595c13.716-7.386,13.189-15.827,10.024-28.225s-24.268-60.67-24.268-60.67l-3.429,2.11-1.055,2.11s19.784,48.272,20.839,64.363c.792,10.815-20.839,24.268-35.347,31.918C1359.915,213.3,1374.423,208.815,1382.337,204.595Z" transform="translate(-1173.415 -115.436)" fill="#fbe7cf"/>
        <path id="XMLID_30_" d="M1298.595,117.7s-15.563,57.241-16.09,67.264,30.862,30.071,32.181,31.126-1.846-34.819-1.846-34.819l10.551-52.229Z" transform="translate(-1282.498 -112.161)" fill="#fff" stroke="#333" stroke-linecap="round" stroke-linejoin="round" stroke-miterlimit="10" stroke-width="1"/>
        <path id="Path_628" data-name="Path 628" d="M1314.521,204.648c-9.232-7.913-22.685-18.992-24.268-23.74-2.374-7.122,15.563-58.56,15.563-58.56l-.264-1.583-6.858-3.165s-15.563,57.241-16.091,67.264,30.862,30.071,32.181,31.126C1315.049,216.782,1314.786,211.506,1314.521,204.648Z" transform="translate(-1282.333 -112.324)" fill="#fbe7cf"/>
      </g>
      <g id="Group_1272" data-name="Group 1272" transform="translate(97.375 102.191)">
        <path id="XMLID_18_" d="M1368.81,98.625s-6.067,4.221-17.673,4.748c-11.87.528-12.4-7.913-26.906-7.913-17.673,0-39.831,55.922-39.831,55.922s11.079,10.815,21.894,15.3a82.877,82.877,0,0,0,18.729,5.539l1.583,36.666h118.966l1.319-36.666,37.193-24.268s-18.2-32.709-27.17-44.843-23.74-7.65-28.225-4.484-17.937,3.957-22.949,3.165-19.256-5.276-19.256-5.276S1378.834,90.184,1368.81,98.625Z" transform="translate(-1284.4 -94.236)" fill="#fe7d7d" stroke="#000" stroke-miterlimit="10" stroke-width="0.5"/>
        <line id="XMLID_20_" x1="0.528" y2="60.934" stroke-width="0.5" transform="translate(41.15 17.578)" stroke="#333" stroke-linecap="round" stroke-linejoin="round" stroke-miterlimit="10" fill="none"/>
        <path id="XMLID_21_" d="M1301.8,103s1.583,29.807,7.913,46.426" transform="translate(-1255.902 -79.882)" fill="none" stroke="#333" stroke-linecap="round" stroke-linejoin="round" stroke-miterlimit="10" stroke-width="0.5"/>
        <path id="XMLID_22_" d="M1305.3,121.4s3.165,8.969,5.012,11.87" transform="translate(-1250.17 -49.746)" fill="none" stroke="#333" stroke-linecap="round" stroke-linejoin="round" stroke-miterlimit="10" stroke-width="0.5"/>
        <path id="XMLID_23_" d="M1303.3,101.7s3.693,17.673,9.5,31.654" transform="translate(-1253.445 -82.011)" fill="none" stroke="#333" stroke-linecap="round" stroke-linejoin="round" stroke-miterlimit="10" stroke-width="0.5"/>
        <path id="XMLID_24_" d="M1349.215,103.7s-5.8,23.477-10.815,34.028" transform="translate(-1195.958 -78.736)" fill="none" stroke="#333" stroke-linecap="round" stroke-linejoin="round" stroke-miterlimit="10" stroke-width="0.5"/>
        <line id="XMLID_25_" x1="0.264" y1="47.481" stroke-width="0.5" transform="translate(162.489 30.768)" stroke="#333" stroke-linecap="round" stroke-linejoin="round" stroke-miterlimit="10" fill="none"/>
        <path id="XMLID_26_" d="M1354.272,106.2s-4.22,30.071-14.772,45.9" transform="translate(-1194.156 -74.641)" fill="none" stroke="#333" stroke-linecap="round" stroke-linejoin="round" stroke-miterlimit="10" stroke-width="0.5"/>
        <path id="XMLID_27_" d="M1348.177,121.3A144.234,144.234,0,0,1,1340,135.28" transform="translate(-1193.337 -49.91)" fill="none" stroke="#333" stroke-linecap="round" stroke-linejoin="round" stroke-miterlimit="10" stroke-width="0.5"/>
        <path id="XMLID_28_" d="M1313.8,97.3s3.429,20.575,8.177,31.126,13.189,12.662,20.311,9.5,12.4-18.465,12.134-38.248" transform="translate(-1236.248 -89.218)" fill="none" stroke="#333" stroke-linecap="round" stroke-linejoin="round" stroke-miterlimit="10" stroke-width="0.5"/>
      </g>
      <g id="Group_1273" data-name="Group 1273" transform="translate(148.78 16.773)">
        <path id="XMLID_13_" d="M1313.153,84.045s-4.484-7.913-8.177-3.957,2.9,13.453,6.595,16.618,6.331,1.319,6.067-2.11C1317.109,91.431,1313.153,84.045,1313.153,84.045Z" transform="translate(-1303.888 -33.805)" fill="#fbe7cf" stroke="#000" stroke-miterlimit="10" stroke-width="0.5"/>
        <path id="XMLID_16_" d="M1337.7,84.045s4.484-7.913,8.177-3.957-2.9,13.453-6.595,16.618-6.331,1.319-6.067-2.11C1333.739,91.431,1337.7,84.045,1337.7,84.045Z" transform="translate(-1255.89 -33.805)" fill="#fbe7cf" stroke="#000" stroke-miterlimit="10" stroke-width="0.5"/>
        <path id="XMLID_17_" d="M1315.6,95.3s4.221,19.52,8.7,30.335c4.221,10.815,12.4,10.815,15.827,3.957s5.539-32.973,5.539-32.973S1322.986,99.521,1315.6,95.3Z" transform="translate(-1284.705 -7.076)" fill="#fff" stroke="#333" stroke-linecap="round" stroke-linejoin="round" stroke-miterlimit="10" stroke-width="1"/>
        <path id="XMLID_7_" d="M1308.369,114.731s6.331,22.158,17.937,35.083c11.87,12.925,16.091,16.091,22.421,15.036s12.925-9.232,22.421-26.114c9.232-17.146,10.024-30.071,10.815-31.126.792-1.319-1.846-25.323-15.3-35.611s-28.225-14.772-41.414-3.693C1312.062,79.648,1303.885,98.113,1308.369,114.731Z" transform="translate(-1298.576 -61.854)" fill="#fff" stroke="#333" stroke-linecap="round" stroke-linejoin="round" stroke-miterlimit="10" stroke-width="1"/>
        <path id="Path_629" data-name="Path 629" d="M1366.49,72c-13.453-10.288-28.225-14.772-41.414-3.693-12.925,11.343-21.1,29.807-16.882,46.426,0,0,1.319,4.221,3.429,10.024a5.144,5.144,0,0,1,.264-2.11c2.9-8.969,11.343-26.642,39.831-18.729,22.685,6.331,19.784,26.378,17.673,36.93.527-.791.792-1.319,1.319-2.11,9.232-17.146,10.024-30.071,10.815-31.126C1382.581,106.29,1379.943,82.286,1366.49,72Z" transform="translate(-1298.666 -61.854)" fill="#fbe7cf"/>
        <path id="XMLID_8_" d="M1326.831,86.3a137.606,137.606,0,0,0-1.319,14.244c.264,4.748,1.583,6.331-.527,6.595-2.11.528-4.484-2.9-4.484-2.9" transform="translate(-1276.679 -21.817)" fill="none" stroke="#333" stroke-linecap="round" stroke-linejoin="round" stroke-miterlimit="10" stroke-width="1"/>
        <path id="XMLID_11_" d="M1331.884,89.336s-4.484-11.343-19.784-6.067" transform="translate(-1290.437 -29.073)" fill="none" stroke="#333" stroke-linecap="round" stroke-linejoin="round" stroke-miterlimit="10" stroke-width="1"/>
        <path id="XMLID_12_" d="M1324.3,88.285s3.957-11.079,17.41-4.484" transform="translate(-1270.456 -29.341)" fill="none" stroke="#333" stroke-linecap="round" stroke-linejoin="round" stroke-miterlimit="10" stroke-width="1"/>
        <path id="XMLID_6_" d="M1340.354,93.516c0,6.067-7.122,11.079-15.827,11.079S1308.7,99.583,1308.7,93.516s6.595-8.7,15.3-8.7C1332.7,84.547,1340.354,87.185,1340.354,93.516Z" transform="translate(-1296.006 -24.285)" fill="none" stroke="#333" stroke-linecap="round" stroke-linejoin="round" stroke-miterlimit="10" stroke-width="1"/>
        <path id="XMLID_14_" d="M1354.154,93.516c0,6.067-7.122,11.079-15.827,11.079S1322.5,99.583,1322.5,93.516s6.595-8.7,15.3-8.7C1346.5,84.547,1354.154,87.185,1354.154,93.516Z" transform="translate(-1273.404 -24.285)" fill="none" stroke="#333" stroke-linecap="round" stroke-linejoin="round" stroke-miterlimit="10" stroke-width="1"/>
      </g>
      <g id="Group_1274" data-name="Group 1274" transform="translate(9.799 278.302)">
        <path id="XMLID_48_" d="M1258.455,161l-1.055,97.336c0,.528,1.319,1.055,2.9,1.055h0c1.583,0,2.9-.528,2.9-1.055L1270.061,161Z" transform="translate(-1241.045 -161)" fill="#fff" stroke="#333" stroke-linecap="round" stroke-linejoin="round" stroke-miterlimit="10" stroke-width="1"/>
        <path id="XMLID_46_" d="M1252.255,169.7,1251.2,270.465c0,.528,1.319,1.055,2.9,1.055h0c1.583,0,2.9-.528,2.9-1.055l6.858-100.5Z" transform="translate(-1251.2 -146.751)" fill="#fff" stroke="#333" stroke-linecap="round" stroke-linejoin="round" stroke-miterlimit="10" stroke-width="1"/>
        <path id="XMLID_51_" d="M1392.506,161l1.055,97.336c0,.528-1.319,1.055-2.9,1.055h0c-1.583,0-2.9-.528-2.9-1.055L1380.9,161Z" transform="translate(-1038.774 -161)" fill="#fff" stroke="#333" stroke-linecap="round" stroke-linejoin="round" stroke-miterlimit="10" stroke-width="1"/>
        <path id="XMLID_49_" d="M1398.706,169.7l1.055,100.765c0,.528-1.319,1.055-2.9,1.055h0c-1.582,0-2.9-.528-2.9-1.055l-6.858-100.5Z" transform="translate(-1028.62 -146.751)" fill="#fff" stroke="#333" stroke-linecap="round" stroke-linejoin="round" stroke-miterlimit="10" stroke-width="1"/>
      </g>
      <g id="Group_1275" data-name="Group 1275" transform="translate(0 264.322)">
        <path id="XMLID_50_" d="M1637.634,207.372l-7.122-6.595-16.618-36.138a9.569,9.569,0,0,0-8.7-5.539H1280.473a9.569,9.569,0,0,0-8.7,5.539l-20.839,45.107-3.429-1.319v10.288h.264a5.756,5.756,0,0,0,5.8,5.012h378.527a5.769,5.769,0,0,0,5.8-5.276Z" transform="translate(-1247.461 -150.131)" fill="#333" stroke="#333" stroke-linecap="round" stroke-linejoin="round" stroke-miterlimit="10" stroke-width="1"/>
        <path id="XMLID_42_" d="M1631.855,219.8H1253.328c-4.22,0-7.122-4.221-5.276-7.65l23.74-50.91a9.569,9.569,0,0,1,8.7-5.539H1604.95a9.569,9.569,0,0,1,8.7,5.539l23.74,50.91C1638.978,215.842,1636.076,219.8,1631.855,219.8Z" transform="translate(-1247.485 -155.7)" fill="#fff" stroke="#333" stroke-linecap="round" stroke-linejoin="round" stroke-miterlimit="10" stroke-width="1"/>
        <path id="Path_630" data-name="Path 630" d="M1260.042,182.241s-8.441,5.8-3.165,7.913,67,.528,74.386-1.583,16.091-21.894,16.091-25.059-10.815-5.539-14.772-5.8-56.45,2.9-56.45,2.9Z" transform="translate(-1234.944 -152.434)" fill="#f4bd58"/>
        <ellipse id="Ellipse_83" data-name="Ellipse 83" cx="21.894" cy="9.232" rx="21.894" ry="9.232" transform="translate(309.72 21.63)" fill="#fcd392"/>
        <ellipse id="Ellipse_84" data-name="Ellipse 84" cx="78.607" cy="14.772" rx="78.607" ry="14.772" transform="translate(113.202 21.63)" fill="#f4bd58"/>
      </g>
      <g id="Group_1276" data-name="Group 1276" transform="translate(305.178 254.562)">
        <path id="XMLID_33_" d="M1373.523,156.482s-1.319-5.8-6.331-3.957-4.22,14.772-3.429,21.894c1.055,7.122,7.386,3.957,7.386,3.957v-4.221s-2.374,1.846-3.693-.791-1.055-15.827.264-15.563,3.693,4.221,3.693,4.221S1372.2,161.494,1373.523,156.482Z" transform="translate(-1363.179 -151.734)" fill="#f4bd58" stroke="#000" stroke-miterlimit="10" stroke-width="1"/>
        <path id="XMLID_36_" d="M1365.8,154.2v31.654c0,3.693,8.441,6.595,18.992,6.595s18.992-2.9,18.992-6.595V154.2Z" transform="translate(-1358.885 -148.397)" fill="#f4bd58"/>
        <path id="XMLID_32_" d="M1403.785,157.8c0,3.165-8.441,5.8-18.992,5.8s-18.992-2.638-18.992-5.8,8.441-5.8,18.992-5.8S1403.785,154.638,1403.785,157.8Z" transform="translate(-1358.885 -152)" fill="#fff" stroke="#333" stroke-linecap="round" stroke-linejoin="round" stroke-miterlimit="10" stroke-width="1"/>
        <path id="XMLID_31_" d="M1399.937,157.312c0,2.9-7.386,5.012-16.619,5.012s-16.618-2.374-16.618-5.012c0-2.9,7.386-5.012,16.618-5.012S1399.937,154.41,1399.937,157.312Z" transform="translate(-1357.411 -151.509)" fill="#fff" stroke="#333" stroke-linecap="round" stroke-linejoin="round" stroke-miterlimit="10" stroke-width="1"/>
        <path id="XMLID_109_" d="M1368.2,156.546a41.494,41.494,0,0,0,12.662,1.846,40.209,40.209,0,0,0,12.662-1.846,41.493,41.493,0,0,0-12.662-1.846A40.208,40.208,0,0,0,1368.2,156.546Z" transform="translate(-1354.954 -147.578)" fill="#333" stroke="#333" stroke-linecap="round" stroke-linejoin="round" stroke-miterlimit="10" stroke-width="1"/>
      </g>
      <g id="Group_1277" data-name="Group 1277" transform="translate(10.5 242.377)">
        <path id="XMLID_41_" d="M1256.1,160.355l.264,10.551,72.8.791V159.3Z" transform="translate(-1243.876 -127.859)" fill="#fff" stroke="#333" stroke-linecap="round" stroke-linejoin="round" stroke-miterlimit="10" stroke-width="1"/>
        <path id="XMLID_40_" d="M1284.128,182.344l10.551-22.685V152.8L1283.6,172.056Z" transform="translate(-1198.836 -138.504)" fill="#fff" stroke="#333" stroke-linecap="round" stroke-linejoin="round" stroke-miterlimit="10" stroke-width="1"/>
        <path id="XMLID_45_" d="M1256.1,164.055l.264,10.815,72.8.791V163Z" transform="translate(-1243.876 -121.799)" fill="#fff" stroke="#333" stroke-linecap="round" stroke-linejoin="round" stroke-miterlimit="10" stroke-width="1"/>
        <path id="XMLID_44_" d="M1284.128,186.144l10.551-22.949V156.6L1283.6,175.592Z" transform="translate(-1198.836 -132.281)" fill="#fff" stroke="#333" stroke-linecap="round" stroke-linejoin="round" stroke-miterlimit="10" stroke-width="1"/>
        <g id="XMLID_39_" transform="translate(0 0)">
          <path id="XMLID_38_" d="M1291.915,152.444s1.583-3.429-.792-4.748-5.012,1.846-6.594,3.165-31.654,21.1-32.709,24.268,0,10.024,6.594,10.815,12.134-3.693,15.036-4.221c2.9-.791,3.957-1.055,3.957-1.055l20.047-26.906Z" transform="translate(-1251.466 -147.381)" fill="#fff" stroke="#333" stroke-linecap="round" stroke-linejoin="round" stroke-miterlimit="10" stroke-width="1"/>
          <path id="XMLID_43_" d="M1258.336,169.4c6.595.791,12.134-3.693,15.036-4.221,2.9-.791,3.957-1.055,3.957-1.055l.791-1.055-18.728-3.957a6.251,6.251,0,0,0-7.65-.791C1250.95,161.748,1252.005,168.871,1258.336,169.4Z" transform="translate(-1251.388 -131.098)" fill="#fff" stroke="#333" stroke-linecap="round" stroke-linejoin="round" stroke-miterlimit="10" stroke-width="1"/>
          <path id="XMLID_34_" d="M1254.6,172.677h56.186c17.41,0,22.685-1.055,22.685-1.055l10.815-22.422s-34.028,2.11-44.579,1.319-12.925-1.319-12.925-1.319Z" transform="translate(-1246.332 -144.401)" fill="#fff" stroke="#333" stroke-linecap="round" stroke-linejoin="round" stroke-miterlimit="10" stroke-width="1"/>
          <path id="XMLID_37_" d="M1254.6,158.755l1.055,4.221s45.634.264,57.5.264c12.134,0,21.1.528,21.1.528l-.791-6.067Z" transform="translate(-1246.332 -130.479)" fill="#fff" stroke="#333" stroke-linecap="round" stroke-linejoin="round" stroke-miterlimit="10" stroke-width="1"/>
          <path id="XMLID_35_" d="M1285.292,177.525l10.023-22.949V149.3L1284.5,171.458Z" transform="translate(-1197.362 -144.237)" fill="#fff" stroke="#333" stroke-linecap="round" stroke-linejoin="round" stroke-miterlimit="10" stroke-width="1"/>
        </g>
      </g>
      <g id="Group_1278" data-name="Group 1278" transform="translate(112.146 202.333)">
        <path id="XMLID_2_" d="M1433.268,173.148H1295.574a2.364,2.364,0,0,1-2.374-2.374h0a2.364,2.364,0,0,1,2.374-2.374h137.694a2.364,2.364,0,0,1,2.374,2.374h0A2.527,2.527,0,0,1,1433.268,173.148Z" transform="translate(-1284.758 -72.911)" fill="#fff" stroke="#333" stroke-linecap="round" stroke-linejoin="round" stroke-miterlimit="10" stroke-width="1"/>
        <path id="XMLID_29_" d="M1439.564,227.953h-139.8a2.039,2.039,0,0,1-2.111-1.846L1290,134.574a2.155,2.155,0,0,1,2.11-2.374h155.1a2.155,2.155,0,0,1,2.11,2.374l-7.65,91.532A2.239,2.239,0,0,1,1439.564,227.953Z" transform="translate(-1290 -132.2)" fill="#fff" stroke="#333" stroke-linecap="round" stroke-linejoin="round" stroke-miterlimit="10" stroke-width="1"/>
        <g id="angular" transform="translate(49.823 20.118)">
          <g id="Group_1243" data-name="Group 1243" transform="translate(5.929 9.641)" opacity="0.4">
            <path id="Path_1097" data-name="Path 1097" d="M-191.678,575.926l-3.1,23.2a1.663,1.663,0,0,1-.929,1.235l-16.973,8.11a2.1,2.1,0,0,1-1.8,0l-16.911-8.11a1.663,1.663,0,0,1-.929-1.235l-3.1-23.2a1.635,1.635,0,0,1,1.239-1.719l20.008-6.177a2.417,2.417,0,0,1,1.239,0l20.008,6.177A1.576,1.576,0,0,1-191.678,575.926Z" transform="translate(235.428 -567.95)" fill="#c3002f"/>
          </g>
          <g id="Group_1244" data-name="Group 1244" transform="translate(3.4 2.283)">
            <path id="Path_1098" data-name="Path 1098" d="M-211.815,605.786a1.855,1.855,0,0,1-.743-.161l-22.176-10.688a1.4,1.4,0,0,1-.805-1.021l-3.964-30.078a1.3,1.3,0,0,1,.991-1.4l26.141-8.11a1.755,1.755,0,0,1,1.053,0l26.141,8.11a1.278,1.278,0,0,1,.991,1.4l-3.964,30.078a1.4,1.4,0,0,1-.805,1.021l-22.176,10.688A1.4,1.4,0,0,1-211.815,605.786ZM-231.7,593.325l19.017,9.131a2.1,2.1,0,0,0,1.8,0l19.017-9.131a1.663,1.663,0,0,0,.929-1.235l3.531-26.265a1.635,1.635,0,0,0-1.239-1.719l-22.424-6.983a2.417,2.417,0,0,0-1.239,0l-22.486,6.983a1.7,1.7,0,0,0-1.239,1.719l3.407,26.265A1.487,1.487,0,0,0-231.7,593.325Z" transform="translate(239.511 -554.25)"/>
          </g>
          <ellipse id="Ellipse_95" data-name="Ellipse 95" cx="4.088" cy="3.545" rx="4.088" ry="3.545" transform="translate(51.29 47.695)" fill="#dd0031"/>
          <ellipse id="Ellipse_96" data-name="Ellipse 96" cx="4.088" cy="3.545" rx="4.088" ry="3.545" fill="#dd0031"/>
          <ellipse id="Ellipse_97" data-name="Ellipse 97" cx="1.673" cy="1.45" rx="1.673" ry="1.45" transform="translate(11.893 2.095)" fill="#dd0031"/>
          <g id="Group_1245" data-name="Group 1245" transform="translate(16.988 11.635)">
            <path id="Path_1099" data-name="Path 1099" d="M-189.344,598.377l-12.637-25.728a1.964,1.964,0,0,0-3.407,0l-12.079,25.728a1.329,1.329,0,0,0,.867,1.773,2.049,2.049,0,0,0,.557.107,1.537,1.537,0,0,0,1.425-.859l4.708-9.99h12.822l4.956,10.044a1.59,1.59,0,0,0,2.044.7A1.255,1.255,0,0,0-189.344,598.377Zm-19.327-11.655,5.018-10.689,5.265,10.689Z" transform="translate(217.576 -571.662)"/>
          </g>
        </g>
      </g>
      <g id="Group_1279" data-name="Group 1279" transform="translate(315.523 167.777)">
        <path id="XMLID_110_" d="M1377,131.762a11.936,11.936,0,0,0,4.22-6.595,11.729,11.729,0,0,0-.264-6.067" transform="translate(-1350.886 -119.1)" fill="none" stroke="#333" stroke-linecap="round" stroke-linejoin="round" stroke-miterlimit="10" stroke-width="1"/>
        <path id="XMLID_101_" d="M1377.124,193.583s13.453-7.913,8.969-17.146-18.992-15.3-18.992-29.544c0-12.4,13.189-16.882,21.63-21.894" transform="translate(-1367.1 -109.437)" fill="none" stroke="#333" stroke-linecap="round" stroke-linejoin="round" stroke-miterlimit="10" stroke-width="1"/>
        <path id="XMLID_106_" d="M1379.2,169.571s7.386-5.012,7.386-12.925c0-5.276-5.539-8.7-13.189-17.146" transform="translate(-1356.782 -85.688)" fill="none" stroke="#333" stroke-linecap="round" stroke-linejoin="round" stroke-miterlimit="10" stroke-width="1"/>
        <path id="XMLID_108_" d="M1373.491,144.479s-4.748-3.957-1.319-11.079" transform="translate(-1360.83 -95.679)" fill="none" stroke="#333" stroke-linecap="round" stroke-linejoin="round" stroke-miterlimit="10" stroke-width="1"/>
      </g>
      <path id="Path_631" data-name="Path 631" d="M1332.312,111.957s18.729-.528,35.611,8.177,30.071-7.913,22.158-16.354,10.288,9.232,13.189-1.319-23.477-46.426-50.119-46.953-32.973,16.618-32.973,16.618-3.165-8.969-5.539-3.957a22.449,22.449,0,0,0-2.374,8.7s-5.276,4.221-7.65,6.595.791,5.012.791,5.012-4.748,12.4-2.11,21.63l13.716,20.575s4.748.264,8.441-4.748c3.429-4.748.792-19.784.792-19.784s.264,16.091,4.484,12.662-2.111-19.256-2.111-19.256Z" transform="translate(-1157.385 -55.495)" fill="#1a2e35"/>
      <ellipse id="Ellipse_89" data-name="Ellipse 89" cx="1.846" cy="0.791" rx="1.846" ry="0.791" transform="translate(178.092 85.477)" fill="none" stroke="#333" stroke-linecap="round" stroke-linejoin="round" stroke-miterlimit="10" stroke-width="5"/>
      <ellipse id="Ellipse_90" data-name="Ellipse 90" cx="1.846" cy="0.791" rx="1.846" ry="0.791" transform="translate(207.636 84.158)" fill="none" stroke="#333" stroke-linecap="round" stroke-linejoin="round" stroke-miterlimit="10" stroke-width="5"/>
    </g>
    <g id="obj1" transform="translate(1248.316 92.964)">
      <path id="XMLID_100_" d="M1357.534,119.027H1255.186a7.373,7.373,0,0,1-7.386-7.386V77.086a7.373,7.373,0,0,1,7.386-7.386h102.348a7.373,7.373,0,0,1,7.386,7.386v34.555A7.549,7.549,0,0,1,1357.534,119.027Z" transform="translate(-1247.8 -69.7)" fill="#333" stroke="#333" stroke-linecap="round" stroke-linejoin="round" stroke-miterlimit="10" stroke-width="1"/>
      <g id="Group_1371" data-name="Group 1371" transform="translate(8.442 6.595)">
        <path id="Path_820" data-name="Path 820" d="M1256.539,72.2l.527,1.055c-2.638,1.583-5.012,3.957-5.012,6.858a3.914,3.914,0,0,0,3.693,4.221.528.528,0,1,0,0-1.055,2.392,2.392,0,0,1-1.582-2.374c0-1.846,1.582-2.9,3.429-2.9a3.492,3.492,0,0,1,3.429,3.429,4.4,4.4,0,0,1-4.484,4.221A5.2,5.2,0,0,1,1251,80.377C1251,76.684,1253.638,73.783,1256.539,72.2Zm11.606,0,.528,1.055c-2.638,1.583-5.012,3.957-5.012,6.858a3.914,3.914,0,0,0,3.693,4.221.528.528,0,0,0,0-1.055,2.391,2.391,0,0,1-1.583-2.374c0-1.846,1.583-2.9,3.429-2.9a3.492,3.492,0,0,1,3.429,3.429,4.4,4.4,0,0,1-4.484,4.221,5.2,5.2,0,0,1-5.539-5.276C1262.607,76.684,1265.244,73.783,1268.146,72.2Z" transform="translate(-1251 -72.2)" fill="#f4bd58"/>
      </g>
      <line id="XMLID_102_" x2="66.737" stroke-width="1" transform="translate(36.666 16.618)" stroke="#fff" stroke-linecap="round" stroke-linejoin="round" stroke-miterlimit="10" fill="none"/>
      <line id="XMLID_103_" x2="66.737" stroke-width="1" transform="translate(36.666 22.421)" stroke="#fff" stroke-linecap="round" stroke-linejoin="round" stroke-miterlimit="10" fill="none"/>
      <line id="XMLID_104_" x2="66.737" stroke-width="1" transform="translate(36.666 28.225)" stroke="#fff" stroke-linecap="round" stroke-linejoin="round" stroke-miterlimit="10" fill="none"/>
      <line id="XMLID_105_" x2="66.737" stroke-width="1" transform="translate(36.666 33.764)" stroke="#fff" stroke-linecap="round" stroke-linejoin="round" stroke-miterlimit="10" fill="none"/>
    </g>
    <g id="obj2" transform="translate(1269.363 182.186)">
      <circle id="XMLID_119_" cx="25.323" cy="25.323" r="25.323" stroke-width="1" transform="translate(0.944 9.147) rotate(-9.271)" stroke="#333" stroke-linecap="round" stroke-linejoin="round" stroke-miterlimit="10" fill="#333"/>
      <circle id="XMLID_116_" cx="21.366" cy="21.366" r="21.366" stroke-width="1" transform="matrix(0.66, -0.751, 0.751, 0.66, 0, 32.109)" stroke="#333" stroke-linecap="round" stroke-linejoin="round" stroke-miterlimit="10" fill="#fff"/>
      <path id="XMLID_120_" d="M1267.2,109v15.563h10.551" transform="translate(-1237.073 -94.556)" fill="none" stroke="#333" stroke-linecap="round" stroke-linejoin="round" stroke-miterlimit="10" stroke-width="2"/>
    </g>
    <g id="obj3" transform="translate(1554.303 122.244)">
      <path id="XMLID_125_" d="M1432.384,80.8h-59.351a8.782,8.782,0,0,0-8.7,8.7v31.918a8.782,8.782,0,0,0,8.7,8.7h1.846c-1.846,4.221-5.276,10.288-11.079,13.98,0,0,12.134-.791,24.532-13.98h44.052a8.782,8.782,0,0,0,8.7-8.7V89.5A8.783,8.783,0,0,0,1432.384,80.8Z" transform="translate(-1363.8 -80.8)" fill="#333" stroke="#333" stroke-linecap="round" stroke-linejoin="round" stroke-miterlimit="10" stroke-width="1"/>
      <g id="Group_1372" data-name="Group 1372" transform="translate(19.52 18.992)">
        <path id="XMLID_122_" d="M1380.168,92.484a4.484,4.484,0,1,0-4.484,4.484C1378.322,97.232,1380.168,95.122,1380.168,92.484Z" transform="translate(-1371.2 -88)" fill="#f4bd58"/>
        <path id="XMLID_124_" d="M1386.068,92.484a4.484,4.484,0,1,0-4.484,4.484A4.288,4.288,0,0,0,1386.068,92.484Z" transform="translate(-1361.537 -88)" fill="#f4bd58"/>
        <path id="XMLID_126_" d="M1391.869,92.484a4.484,4.484,0,1,0-4.484,4.484C1390.022,97.232,1391.869,95.122,1391.869,92.484Z" transform="translate(-1352.038 -88)" fill="#f4bd58"/>
      </g>
    </g>
  </g>
</svg>
