<svg xmlns="http://www.w3.org/2000/svg" xmlns:xlink="http://www.w3.org/1999/xlink" width="74.481" height="95.741" viewBox="0 0 74.481 95.741"><defs><style>.a{fill:#3fd8cd;}.b{stroke:#000;}.c{filter:url(#a);}</style><filter id="a" x="5.207" y="9.431" width="62.163" height="85.598" filterUnits="userSpaceOnUse"><feOffset dy="3" input="SourceAlpha"/><feGaussianBlur stdDeviation="0.5" result="b"/><feFlood flood-opacity="0.161"/><feComposite operator="in" in2="b"/><feComposite in="SourceGraphic"/></filter></defs><rect class="a" width="46.448" height="51.848" transform="translate(10.75 35.047)"/><g transform="translate(7.207 9.931)"><g transform="translate(0 0)"><g class="c" transform="matrix(1, 0, 0, 1, -7.21, -9.93)"><path class="b" d="M131.779,42.6H85.331A9.948,9.948,0,0,0,75.4,52.531v60.236a9.948,9.948,0,0,0,9.931,9.931h46.448a1.78,1.78,0,0,0,1.784-1.784V44.384A1.78,1.78,0,0,0,131.779,42.6ZM83.547,118.913a6.4,6.4,0,0,1-4.6-6.122V60.148a9.946,9.946,0,0,0,4.6,2.169Zm1.784-59.995a6.363,6.363,0,1,1,0-12.727h38.832a9.907,9.907,0,0,0,0,12.727H85.331Zm33.095,3.567V72.923L116.3,71.332a1.772,1.772,0,0,0-2.121,0l-2.145,1.591V62.462h6.388ZM130,119.154H87.115V62.486h21.356v14a1.8,1.8,0,0,0,.988,1.591,1.841,1.841,0,0,0,.8.193,1.711,1.711,0,0,0,1.061-.362l3.929-2.941,3.9,2.917a1.779,1.779,0,0,0,2.844-1.422V62.486h8v56.668Zm0-60.5a6.373,6.373,0,0,1,0-12.245V58.653Z" transform="translate(-68.19 -32.67)"/></g></g></g><g transform="translate(30.082 53.921)"><g transform="translate(0)"><path d="M190.379,225.1H172.156a1.856,1.856,0,1,0,0,3.712h18.223a1.856,1.856,0,1,0,0-3.712Z" transform="translate(-170.3 -225.1)"/></g></g><g transform="translate(24.875 65.563)"><g transform="translate(0)"><path d="M179.167,273.4H150.556a1.856,1.856,0,0,0,0,3.712h28.611a1.856,1.856,0,0,0,0-3.712Z" transform="translate(-148.7 -273.4)"/></g></g><path class="a" d="M139.113,74.437h-26.3a3.611,3.611,0,0,0-3.616-3.616v-.506a3.611,3.611,0,0,0,3.616-3.616h26.3a3.611,3.611,0,0,0,3.616,3.616v.506A3.611,3.611,0,0,0,139.113,74.437Z" transform="translate(-93.846 -50.96)"/><path class="a" d="M322.2,10.511h-1.88A3.611,3.611,0,0,1,316.7,6.9V5.016A3.611,3.611,0,0,1,320.316,1.4h1.88a3.611,3.611,0,0,1,3.616,3.616V6.9A3.611,3.611,0,0,1,322.2,10.511Z" transform="translate(-251.33 -1.4)"/><path class="a" d="M328.805,49.5h1.422a1.194,1.194,0,0,1,1.205,1.205v1.422a1.194,1.194,0,0,1-1.205,1.205h-1.422a1.194,1.194,0,0,1-1.205-1.205V50.705A1.209,1.209,0,0,1,328.805,49.5Z" transform="translate(-259.603 -37.906)"/><path class="a" d="M264.3,326.011h-1.88A3.611,3.611,0,0,1,258.8,322.4v-1.88a3.611,3.611,0,0,1,3.616-3.616h1.88a3.611,3.611,0,0,1,3.616,3.616v1.88A3.611,3.611,0,0,1,264.3,326.011Z" transform="translate(-207.386 -240.852)"/><path class="a" d="M51,29.411h-1.88A3.611,3.611,0,0,0,45.5,25.8v-1.88A3.611,3.611,0,0,0,49.116,20.3H51a3.611,3.611,0,0,0,3.616,3.616V25.8A3.626,3.626,0,0,0,51,29.411Z" transform="translate(-45.5 -15.744)"/><path class="a" d="M270.905,382.7h1.422a1.194,1.194,0,0,1,1.205,1.205v1.422a1.193,1.193,0,0,1-1.205,1.205h-1.422a1.193,1.193,0,0,1-1.205-1.205v-1.422A1.225,1.225,0,0,1,270.905,382.7Z" transform="translate(-215.659 -290.792)"/></svg>