<svg xmlns="http://www.w3.org/2000/svg" xmlns:xlink="http://www.w3.org/1999/xlink" width="60.503" height="57.431" viewBox="0 0 60.503 57.431"><defs><style>.a{fill:#f9d180;}.b{filter:url(#a);}</style><filter id="a" x="0" y="5.019" width="60.503" height="52.412" filterUnits="userSpaceOnUse"><feOffset dy="3" input="SourceAlpha"/><feGaussianBlur stdDeviation="0.5" result="b"/><feFlood flood-opacity="0.161"/><feComposite operator="in" in2="b"/><feComposite in="SourceGraphic"/></filter></defs><g transform="translate(-9.9 -30.8)"><path class="a" d="M30.5,94.64,45.005,86.2h5s2.2,7.3,7.605,5.83a10.449,10.449,0,0,0,7.017-5.83h4.514l7.605,4.22L74,99.283H66.763v31.632h-25.2l1.081-29.163-8.8,4.067Z" transform="translate(-16.855 -48.888)"/><g transform="translate(11.4 35.819)"><g transform="translate(0 0)"><g class="b" transform="matrix(1, 0, 0, 1, -1.5, -5.02)"><path d="M52.13,73.5H46.147a5.989,5.989,0,1,1-11.978,0H28.174L11.4,83.08l4.8,13.177,7.182-2.4v27.553H56.914V93.859l7.182,2.4L68.9,83.08ZM62.65,93.248,57.678,91.59l-3.15-1.046v28.481H25.776V90.544l-3.15,1.046-4.972,1.657-3.3-9.086L28.809,75.9h3.3a8.389,8.389,0,0,0,16.08,0h3.3l14.47,8.263Z" transform="translate(-9.9 -68.48)"/></g></g></g><path d="M249.9,188.156l-1.6-.106-.705-1.422.87-1.328,1.6.094.717,1.422Z" transform="translate(-208.436 -136.339)"/><path d="M249.9,260.256l-1.6-.094-.705-1.422.87-1.34,1.6.106.717,1.422Z" transform="translate(-208.436 -199.964)"/><path d="M249.9,332.456l-1.6-.094-.705-1.434.87-1.328,1.6.094.717,1.422Z" transform="translate(-208.436 -263.677)"/><path d="M249.9,404.556l-1.6-.094-.705-1.422.87-1.34,1.6.106.717,1.422Z" transform="translate(-208.436 -327.302)"/><path class="a" d="M435.456,35.819h-1.493a1.761,1.761,0,0,0-1.763-1.763V32.563a1.761,1.761,0,0,0,1.763-1.763h1.493a1.761,1.761,0,0,0,1.763,1.763v1.493A1.768,1.768,0,0,0,435.456,35.819Z" transform="translate(-371.337 0)"/><path class="a" d="M417.686,73.35h-.423a1.761,1.761,0,0,0-1.763-1.763v-.423a1.761,1.761,0,0,0,1.763-1.763h.423a1.761,1.761,0,0,0,1.763,1.763v.423A1.761,1.761,0,0,0,417.686,73.35Z" transform="translate(-356.6 -34.063)"/><path class="a" d="M417.686,384.25h-.423a1.761,1.761,0,0,0-1.763-1.763v-.423a1.761,1.761,0,0,0,1.763-1.763h.423a1.761,1.761,0,0,0,1.763,1.763v.423A1.761,1.761,0,0,0,417.686,384.25Z" transform="translate(-356.6 -308.418)"/><path class="a" d="M68.386,303.55h-.423a1.761,1.761,0,0,0-1.763-1.763v-.423a1.761,1.761,0,0,0,1.763-1.763h.423a1.761,1.761,0,0,0,1.763,1.763v.423A1.768,1.768,0,0,0,68.386,303.55Z" transform="translate(-48.358 -237.204)"/></g></svg>