<svg xmlns="http://www.w3.org/2000/svg" xmlns:xlink="http://www.w3.org/1999/xlink" width="138.959" height="130.303" viewBox="0 0 138.959 130.303"><defs><style>.a{fill:#f4a196;}.b{fill:#f44e42;}.c{filter:url(#e);}.d{filter:url(#c);}.e{filter:url(#a);}</style><filter id="a" x="45.054" y="101.85" width="26.953" height="28.453" filterUnits="userSpaceOnUse"><feOffset dy="3" input="SourceAlpha"/><feGaussianBlur stdDeviation="0.5" result="b"/><feFlood flood-opacity="0.161"/><feComposite operator="in" in2="b"/><feComposite in="SourceGraphic"/></filter><filter id="c" x="86.972" y="101.85" width="26.953" height="28.453" filterUnits="userSpaceOnUse"><feOffset dy="3" input="SourceAlpha"/><feGaussianBlur stdDeviation="0.5" result="d"/><feFlood flood-opacity="0.161"/><feComposite operator="in" in2="d"/><feComposite in="SourceGraphic"/></filter><filter id="e" x="0" y="0" width="138.959" height="101.016" filterUnits="userSpaceOnUse"><feOffset dy="3" input="SourceAlpha"/><feGaussianBlur stdDeviation="0.5" result="f"/><feFlood flood-opacity="0.161"/><feComposite operator="in" in2="f"/><feComposite in="SourceGraphic"/></filter></defs><g transform="translate(1.5)"><path class="a" d="M138.735,124.122l7.953,17.965-81.871.094L52.7,81.221,95.507,80.8l43.228.187Z" transform="translate(-29.073 -49.126)"/><path class="b" d="M186.271,30.176l-9.825.234L171.3,21.989l4.678-8.655,9.871-.234L191,21.474Z" transform="translate(-92.187 -13.098)"/><path class="b" d="M227.909,37.9l-4.21.094-2.2-3.556,2.012-3.7,4.211-.14,2.2,3.6Z" transform="translate(-118.902 -22.411)"/><path class="b" d="M40.957,195.766l-7.673-2.48-1.684-7.86L37.588,180l7.673,2.48,1.684,7.906Z" transform="translate(-17.844 -101.916)"/><path class="b" d="M260.009,238.1l-4.211.094-2.2-3.6,2.012-3.649,4.211-.14,2.2,3.6Z" transform="translate(-135.984 -128.95)"/><g transform="translate(45.054 101.85)"><g class="e" transform="matrix(1, 0, 0, 1, -46.55, -101.85)"><path d="M110.477,230.8a11.977,11.977,0,1,0,11.977,11.977A12,12,0,0,0,110.477,230.8Zm0,17.263a5.287,5.287,0,1,1,5.287-5.287A5.311,5.311,0,0,1,110.477,248.063Z" transform="translate(-51.95 -128.95)"/></g></g><g transform="translate(86.972 101.85)"><g class="d" transform="matrix(1, 0, 0, 1, -88.47, -101.85)"><path d="M200.077,230.8a11.977,11.977,0,1,0,11.977,11.977A12,12,0,0,0,200.077,230.8Zm0,17.263a5.287,5.287,0,1,1,5.287-5.287A5.311,5.311,0,0,1,200.077,248.063Z" transform="translate(-99.63 -128.95)"/></g></g><g transform="translate(50.715 38.926)"><path d="M161.781,96.3h-47.86a3.322,3.322,0,1,0,0,6.643h47.86a3.322,3.322,0,1,0,0-6.643Z" transform="translate(-110.6 -96.3)"/></g><g transform="translate(53.335 56.236)"><path d="M162.142,133.3h-42.62a3.322,3.322,0,0,0,0,6.643h42.62a3.322,3.322,0,0,0,0-6.643Z" transform="translate(-116.2 -133.3)"/></g><g transform="translate(0 0)"><g transform="translate(0)"><g class="c" transform="matrix(1, 0, 0, 1, -1.5, 0)"><path d="M136.655,37.145a6.755,6.755,0,0,0-5.193-2.48H27.508L25.4,24.467a6.593,6.593,0,0,0-3.883-4.772L6.877,13.379A3.342,3.342,0,1,0,4.21,19.508L18.853,25.87l16.14,78.409a6.709,6.709,0,0,0,6.55,5.333H121.5a3.322,3.322,0,0,0,0-6.643H41.543l-1.965-9.544H122.1a6.748,6.748,0,0,0,6.55-5.333l9.357-45.333A6.692,6.692,0,0,0,136.655,37.145Zm-14.5,49.544H38.222L28.865,41.355h102.6Z" transform="translate(-0.7 -13.1)"/></g></g></g></g></svg>