<svg xmlns="http://www.w3.org/2000/svg" xmlns:xlink="http://www.w3.org/1999/xlink" width="58.347" height="62.914" viewBox="0 0 58.347 62.914"><defs><style>.a{fill:#adbee0;}.b{fill:#fff;}.c{fill:#7d9af4;}.d{filter:url(#c);}.e{filter:url(#a);}</style><filter id="a" x="0.002" y="51.778" width="56.143" height="11.137" filterUnits="userSpaceOnUse"><feOffset dy="3" input="SourceAlpha"/><feGaussianBlur stdDeviation="0.5" result="b"/><feFlood flood-opacity="0.161"/><feComposite operator="in" in2="b"/><feComposite in="SourceGraphic"/></filter><filter id="c" x="0" y="5.284" width="56.144" height="50.586" filterUnits="userSpaceOnUse"><feOffset dy="3" input="SourceAlpha"/><feGaussianBlur stdDeviation="0.5" result="d"/><feFlood flood-opacity="0.161"/><feComposite operator="in" in2="d"/><feComposite in="SourceGraphic"/></filter></defs><g transform="translate(-31.781 -29.4)"><path class="a" d="M61.3,110.719,83.571,86.1,95.44,98.4v28.575H65.984v-12.3S66.277,113.055,61.3,110.719Z" transform="translate(-24.443 -49.464)"/><g class="e" transform="matrix(1, 0, 0, 1, 31.78, 29.4)"><path d="M79.054,436.938a11.2,11.2,0,0,1-5.909,1.48,11.318,11.318,0,0,1-5.909-1.48,14.584,14.584,0,0,0-7.39-1.838,14.49,14.49,0,0,0-7.377,1.838,11.18,11.18,0,0,1-5.9,1.48,11.3,11.3,0,0,1-5.9-1.48A14.529,14.529,0,0,0,33.3,435.1v3.318a11.3,11.3,0,0,1,5.9,1.48,14.529,14.529,0,0,0,7.377,1.838A14.49,14.49,0,0,0,53.95,439.9a11.18,11.18,0,0,1,5.9-1.48,11.317,11.317,0,0,1,5.909,1.48,15.775,15.775,0,0,0,14.779,0,11.317,11.317,0,0,1,5.909-1.48V435.1A14.584,14.584,0,0,0,79.054,436.938Z" transform="translate(-31.8 -383.32)"/></g><g class="d" transform="matrix(1, 0, 0, 1, 31.78, 29.4)"><path d="M34.942,100.69H39.92v14.766c.242.115.5.23.74.357a14.318,14.318,0,0,0,2.591,1.072V99.031a1.656,1.656,0,0,0-1.659-1.659H38.784L59.868,74.884,80.926,97.372H78.118a1.656,1.656,0,0,0-1.659,1.659v17.855a13.679,13.679,0,0,0,2.578-1.072c.242-.115.5-.242.753-.357V100.69h4.977a1.654,1.654,0,0,0,1.2-2.8l-6.19-6.611V74.118H69.81v6.534l-8.742-9.329a1.666,1.666,0,0,0-2.425,0L33.73,97.895a1.655,1.655,0,0,0,1.212,2.8Zm38.2-23.253h3.318v10.3l-3.318-3.548Z" transform="translate(-31.78 -65.52)"/></g><g transform="translate(52.236 59.673)"><rect class="b" width="12.456" height="16.566" transform="translate(1.302 1.289)"/><path d="M196.86,285.744H181.8V266.6h15.047v19.144ZM184.4,283.153h9.865V269.191H184.4Z" transform="translate(-181.8 -266.6)"/></g><path class="c" d="M55.648,189.363H54.614a1.912,1.912,0,0,0-1.914-1.914v-1.034a1.912,1.912,0,0,0,1.914-1.914h1.034a1.912,1.912,0,0,0,1.914,1.914v1.034A1.912,1.912,0,0,0,55.648,189.363Z" transform="translate(-16.941 -135.305)"/><path class="c" d="M426.1,354.615h-3.586A1.912,1.912,0,0,0,420.6,352.7v-3.586a1.912,1.912,0,0,0,1.914-1.914H426.1a1.912,1.912,0,0,0,1.914,1.914V352.7A1.92,1.92,0,0,0,426.1,354.615Z" transform="translate(-337.887 -277.24)"/><path class="c" d="M342.548,34.263h-1.034a1.912,1.912,0,0,0-1.914-1.914V31.314a1.912,1.912,0,0,0,1.914-1.914h1.034a1.912,1.912,0,0,0,1.914,1.914v1.034A1.912,1.912,0,0,0,342.548,34.263Z" transform="translate(-267.225)"/><path class="c" d="M325.533,66.648h-.319a1.912,1.912,0,0,0-1.914-1.914v-.319a1.912,1.912,0,0,0,1.914-1.914h.319a1.912,1.912,0,0,0,1.914,1.914v.319A1.92,1.92,0,0,0,325.533,66.648Z" transform="translate(-253.005 -28.876)"/></g></svg>