<svg xmlns="http://www.w3.org/2000/svg" xmlns:xlink="http://www.w3.org/1999/xlink" width="58.354" height="70.883" viewBox="0 0 58.354 70.883"><defs><style>.a{fill:#7d9af4;}.b{stroke:#000;stroke-width:0.5px;}.c{filter:url(#k);}.d{filter:url(#i);}.e{filter:url(#g);}.f{filter:url(#e);}.g{filter:url(#c);}.h{filter:url(#a);}</style><filter id="a" x="0" y="1.535" width="58.354" height="69.348" filterUnits="userSpaceOnUse"><feOffset dy="3" input="SourceAlpha"/><feGaussianBlur stdDeviation="0.5" result="b"/><feFlood flood-opacity="0.161"/><feComposite operator="in" in2="b"/><feComposite in="SourceGraphic"/></filter><filter id="c" x="5.344" y="13.919" width="13.727" height="15.636" filterUnits="userSpaceOnUse"><feOffset dy="3" input="SourceAlpha"/><feGaussianBlur stdDeviation="0.5" result="d"/><feFlood flood-opacity="0.161"/><feComposite operator="in" in2="d"/><feComposite in="SourceGraphic"/></filter><filter id="e" x="16.631" y="12.308" width="6.25" height="7.783" filterUnits="userSpaceOnUse"><feOffset dy="3" input="SourceAlpha"/><feGaussianBlur stdDeviation="0.5" result="f"/><feFlood flood-opacity="0.161"/><feComposite operator="in" in2="f"/><feComposite in="SourceGraphic"/></filter><filter id="g" x="33.288" y="44.876" width="14.448" height="16.441" filterUnits="userSpaceOnUse"><feOffset dy="3" input="SourceAlpha"/><feGaussianBlur stdDeviation="0.5" result="h"/><feFlood flood-opacity="0.161"/><feComposite operator="in" in2="h"/><feComposite in="SourceGraphic"/></filter><filter id="i" x="30.005" y="55.743" width="6.294" height="7.822" filterUnits="userSpaceOnUse"><feOffset dy="3" input="SourceAlpha"/><feGaussianBlur stdDeviation="0.5" result="j"/><feFlood flood-opacity="0.161"/><feComposite operator="in" in2="j"/><feComposite in="SourceGraphic"/></filter><filter id="k" x="10.685" y="20.983" width="36.97" height="30.468" filterUnits="userSpaceOnUse"><feOffset dy="3" input="SourceAlpha"/><feGaussianBlur stdDeviation="0.5" result="l"/><feFlood flood-opacity="0.161"/><feComposite operator="in" in2="l"/><feComposite in="SourceGraphic"/></filter></defs><g transform="translate(-36.65 -0.5)"><path class="a" d="M47.93,43.189S65.216,36.765,70.56,32.4c0,0,12.518,12.086,19.36,12.143,0,0,3.039,38.49-19.36,44.309C70.56,88.838,45.957,95.349,47.93,43.189Z" transform="translate(-8.061 -27.305)"/><g transform="translate(38.4 2.304)"><g transform="translate(0)"><g class="h" transform="matrix(1, 0, 0, 1, -1.75, -1.8)"><path class="b" d="M92.245,24.128A107.248,107.248,0,0,1,66.5,13.209a1.366,1.366,0,0,0-1.368,0A104.2,104.2,0,0,1,39.394,24.128a1.345,1.345,0,0,0-.994,1.311V39.267A39.776,39.776,0,0,0,50.471,68.322c5.935,5.805,12.835,9.032,15.356,9.032s9.421-3.212,15.356-9.032A39.8,39.8,0,0,0,93.254,39.267V25.438A1.357,1.357,0,0,0,92.245,24.128Zm-1.7,15.125A37.09,37.09,0,0,1,79.281,66.377C73.447,72.1,67.21,74.631,65.827,74.631s-7.62-2.535-13.454-8.254A37.117,37.117,0,0,1,41.108,39.253V26.461A106.915,106.915,0,0,0,65.827,15.946,109.744,109.744,0,0,0,90.546,26.461V39.253Z" transform="translate(-36.65 -11.22)"/></g><g class="g" transform="matrix(1, 0, 0, 1, -1.75, -1.8)"><path class="b" d="M85.583,100.106a1.361,1.361,0,0,0-1.757-.763c-2.42.951-4.9,1.829-7.375,2.607a1.362,1.362,0,0,0-.951,1.3v5.229a1.354,1.354,0,0,0,2.708,0V104.24c2.218-.72,4.437-1.513,6.612-2.362A1.377,1.377,0,0,0,85.583,100.106Z" transform="translate(-68.41 -85.02)"/></g><g class="f" transform="matrix(1, 0, 0, 1, -1.75, -1.8)"><path class="b" d="M155.243,90.812a1.492,1.492,0,0,0,.547-.115l.029-.014a1.354,1.354,0,0,0-1.095-2.478l-.029.014A1.346,1.346,0,0,0,154,90,1.365,1.365,0,0,0,155.243,90.812Z" transform="translate(-135.5 -75.47)"/></g><g class="e" transform="matrix(1, 0, 0, 1, -1.75, -1.8)"><path class="b" d="M280.28,314.607a1.363,1.363,0,0,0-1.873.389,32.46,32.46,0,0,1-3.889,4.854,35.166,35.166,0,0,1-3.875,3.457,1.367,1.367,0,0,0-.259,1.9,1.364,1.364,0,0,0,1.9.259,36.611,36.611,0,0,0,4.192-3.731,36.192,36.192,0,0,0,4.206-5.258A1.377,1.377,0,0,0,280.28,314.607Z" transform="translate(-234.98 -269.17)"/></g><g class="d" transform="matrix(1, 0, 0, 1, -1.75, -1.8)"><path class="b" d="M247.471,389.9l-.072.043a1.353,1.353,0,0,0,.677,2.521,1.3,1.3,0,0,0,.677-.187l.086-.058a1.361,1.361,0,0,0,.49-1.858A1.382,1.382,0,0,0,247.471,389.9Z" transform="translate(-214.97 -333.65)"/></g><g class="c" transform="matrix(1, 0, 0, 1, -1.75, -1.8)"><path class="b" d="M120.084,157.868a4.344,4.344,0,0,0-3.111-1.282,4.393,4.393,0,0,0-3.111,7.5l7.995,7.995a4.344,4.344,0,0,0,3.111,1.282,4.4,4.4,0,0,0,3.111-1.282L144.759,155.4a4.408,4.408,0,0,0,0-6.223,4.344,4.344,0,0,0-3.111-1.282,4.4,4.4,0,0,0-3.111,1.282l-13.569,13.569Zm20.368-6.785a1.691,1.691,0,0,1,2.391,2.391l-16.681,16.7a1.7,1.7,0,0,1-2.391,0l-7.995-7.995a1.691,1.691,0,0,1,2.391-2.391L124,165.618a1.356,1.356,0,0,0,.951.4,1.306,1.306,0,0,0,.951-.4Z" transform="translate(-100.14 -126.67)"/></g></g></g><path class="a" d="M391.268,19.856h-4.48l-.288-.288v-4.48l.288-.288h4.48l.288.288v4.48A2.726,2.726,0,0,1,391.268,19.856Z" transform="translate(-297.957 -12.24)"/><path class="a" d="M365.745,42.475h-1.9l-.144-.144V40.444l.144-.144h1.9l.144.144v1.9C365.832,42.389,365.8,42.432,365.745,42.475Z" transform="translate(-278.441 -34.067)"/><path class="a" d="M89.8,410.656h-.735A2.158,2.158,0,0,0,86.9,408.5v-.735a2.158,2.158,0,0,0,2.161-2.161H89.8a2.158,2.158,0,0,0,2.161,2.161v.735A2.167,2.167,0,0,0,89.8,410.656Z" transform="translate(-41.514 -346.746)"/><path class="a" d="M84.269,7.241,81.1,4.072v-.4L84.269.5h.4l3.169,3.169v.4L84.672,7.241Z" transform="translate(-36.549 0)"/><path class="a" d="M73.831,380.289H71.944l-.144-.144v-1.9l.144-.144h1.9l.144.144v1.9A1.578,1.578,0,0,0,73.831,380.289Z" transform="translate(-28.589 -323.207)"/></g></svg>