<svg xmlns="http://www.w3.org/2000/svg" width="97.863" height="106.642" viewBox="0 0 97.863 106.642"><defs><style>.a{fill:#adafb1;}.b{fill:#797a7a;}</style></defs><ellipse class="a" cx="38.827" cy="37.295" rx="38.827" ry="37.295" transform="translate(8.956 18.618)"/><g transform="translate(6.422 7.07)"><path d="M110.788,109.788H65.244a45.544,45.544,0,1,1,45.544-45.544h0a45.368,45.368,0,0,1-15.26,34h15.26ZM65.244,23a41.243,41.243,0,0,0,0,82.486h41.243V102.6H82.036l6.01-4.006A41.232,41.232,0,0,0,65.244,23ZM50.338,97.768a13.151,13.151,0,0,1-7.6-2.475,12.855,12.855,0,0,1-5.185-8.484,13.066,13.066,0,0,1,2.3-9.663,12.855,12.855,0,0,1,8.484-5.185,13,13,0,0,1,12.55,20.5h0A12.855,12.855,0,0,1,52.4,97.651C51.693,97.709,51.045,97.768,50.338,97.768ZM50.4,76.028a9.67,9.67,0,0,0-1.355.118,8.505,8.505,0,0,0-5.656,3.476A8.74,8.74,0,0,0,41.853,86.1a8.505,8.505,0,0,0,3.476,5.656,8.74,8.74,0,0,0,6.481,1.532,8.505,8.505,0,0,0,5.656-3.476h0a8.682,8.682,0,0,0-1.944-12.137A8.994,8.994,0,0,0,50.4,76.028ZM80.15,97.768a12.185,12.185,0,0,1-2.062-.177A13.024,13.024,0,1,1,90.7,77.088a12.617,12.617,0,0,1,2.3,9.663,13.083,13.083,0,0,1-5.185,8.484h0A13.11,13.11,0,0,1,80.15,97.768Zm-.059-21.741a8.533,8.533,0,0,0-5.067,1.65A8.735,8.735,0,0,0,73.08,89.814a8.505,8.505,0,0,0,5.656,3.476,8.74,8.74,0,0,0,6.481-1.532h0A8.505,8.505,0,0,0,88.693,86.1a8.678,8.678,0,0,0-8.6-10.075Zm-14.847-6.01a5.774,5.774,0,1,1,5.774-5.774A5.783,5.783,0,0,1,65.244,70.018Zm0-7.247a1.473,1.473,0,1,0,1.473,1.473A1.459,1.459,0,0,0,65.244,62.771Zm24.1,6.658a13.049,13.049,0,1,1,4.006-.648A12.122,12.122,0,0,1,89.341,69.429Zm0-21.682a8.3,8.3,0,0,0-2.651.412h0a8.7,8.7,0,1,0,10.959,5.6A8.885,8.885,0,0,0,89.341,47.747Zm-48.2,21.682a11.885,11.885,0,0,1-4.006-.648A13.018,13.018,0,0,1,28.773,52.4h0A13.033,13.033,0,1,1,41.146,69.429ZM32.9,53.756a8.7,8.7,0,1,0,10.959-5.6,8.7,8.7,0,0,0-10.959,5.6ZM65.244,51.93A13.021,13.021,0,1,1,78.265,38.909,13.025,13.025,0,0,1,65.244,51.93Zm0-21.682a8.691,8.691,0,1,0,8.661,8.72A8.675,8.675,0,0,0,65.244,30.248Z" transform="translate(-19.7 -18.7)"/></g><ellipse class="b" cx="6.422" cy="6.422" rx="6.422" ry="6.422" transform="translate(85.019 0)"/><ellipse class="b" cx="6.422" cy="6.422" rx="6.422" ry="6.422" transform="translate(0 93.798)"/><ellipse class="b" cx="2.887" cy="2.887" rx="2.887" ry="2.887" transform="translate(84.43 14.081)"/><ellipse class="b" cx="2.887" cy="2.887" rx="2.887" ry="2.887" transform="translate(11.96 88.083)"/><ellipse class="b" cx="2.887" cy="2.887" rx="2.887" ry="2.887" transform="translate(91.441 77.301)"/></svg>