<svg xmlns="http://www.w3.org/2000/svg" xmlns:xlink="http://www.w3.org/1999/xlink" width="88.997" height="95.535" viewBox="0 0 88.997 95.535"><defs><style>.a{fill:#f9d180;}.b{fill:#f9b438;}.c{filter:url(#a);}</style><filter id="a" x="0" y="0.659" width="88.997" height="93.598" filterUnits="userSpaceOnUse"><feOffset dy="3" input="SourceAlpha"/><feGaussianBlur stdDeviation="0.5" result="b"/><feFlood flood-opacity="0.161"/><feComposite operator="in" in2="b"/><feComposite in="SourceGraphic"/></filter></defs><g transform="translate(0.856)"><path class="a" d="M39.376,288.9l10.193-4.7,4.585,7.5,15.782-5.381L82.724,284.9l11.993,4s6.821,12.978-15.82,4.7l8.734,16.066s-17.184-8.336-28-6.271c-11.633,2.236-1.61-2.558-1.61-2.558l2.615,6.5L37.5,319V289.941Z" transform="translate(-35.245 -231.18)"/><ellipse class="a" cx="14.74" cy="14.058" rx="14.74" ry="14.058" transform="translate(51.078 20.812)"/><g transform="translate(12.58 69.674)"><g transform="translate(0)"><ellipse cx="1.743" cy="1.743" rx="1.743" ry="1.743"/></g></g><g transform="translate(79.213 48.928)"><g transform="translate(0)"><ellipse cx="1.743" cy="1.743" rx="1.743" ry="1.743"/></g></g><g transform="translate(52.461 25.625)"><path d="M313.692,154.33h-2.671a1.528,1.528,0,0,1-1.535-1.535v-1.554a1.528,1.528,0,0,1,1.535-1.535h2.956a1.249,1.249,0,0,1,1.25,1.25,1.743,1.743,0,0,0,3.486,0,4.732,4.732,0,0,0-4.6-4.718v-1.5a1.743,1.743,0,0,0-3.486,0v1.516a5.017,5.017,0,0,0-4.6,5v1.554a5.009,5.009,0,0,0,5,5h2.671a1.528,1.528,0,0,1,1.535,1.535V160.9a1.528,1.528,0,0,1-1.535,1.535h-2.956a1.249,1.249,0,0,1-1.25-1.25,1.743,1.743,0,1,0-3.486,0,4.732,4.732,0,0,0,4.6,4.718v1.5a1.743,1.743,0,0,0,3.486,0v-1.516a5.017,5.017,0,0,0,4.6-5v-1.554A5.009,5.009,0,0,0,313.692,154.33Z" transform="translate(-305.337 -142.356)"/><path d="M309.51,167.053a2.41,2.41,0,0,1-2.406-2.406v-.89a5.418,5.418,0,0,1-4.6-5.324,2.406,2.406,0,0,1,4.812,0,.59.59,0,0,0,.587.587h2.956a.882.882,0,0,0,.872-.872v-1.554a.882.882,0,0,0-.872-.872h-2.671a5.668,5.668,0,0,1-5.665-5.665V148.5a5.7,5.7,0,0,1,4.6-5.57v-.928a2.406,2.406,0,0,1,4.812,0v.89a5.418,5.418,0,0,1,4.6,5.324,2.406,2.406,0,1,1-4.812,0,.59.59,0,0,0-.587-.587h-2.956a.882.882,0,0,0-.872.872v1.554a.882.882,0,0,0,.872.872h2.671a5.668,5.668,0,0,1,5.665,5.665v1.554a5.7,5.7,0,0,1-4.6,5.57v.928A2.41,2.41,0,0,1,309.51,167.053Zm-4.6-9.7a1.079,1.079,0,0,0-1.08,1.08,4.09,4.09,0,0,0,3.96,4.054l.644.019v2.141a1.079,1.079,0,0,0,1.08,1.08,1.068,1.068,0,0,0,1.08-1.08v-2.122l.606-.057a4.383,4.383,0,0,0,4-4.339v-1.554a4.338,4.338,0,0,0-4.339-4.339h-2.671a2.2,2.2,0,0,1-2.2-2.2v-1.554a2.2,2.2,0,0,1,2.2-2.2h2.956a1.92,1.92,0,0,1,1.914,1.914,1.079,1.079,0,0,0,1.08,1.08,1.068,1.068,0,0,0,1.08-1.08,4.09,4.09,0,0,0-3.96-4.054l-.644-.019v-2.141a1.079,1.079,0,0,0-1.08-1.08,1.068,1.068,0,0,0-1.08,1.08v2.122l-.606.057a4.369,4.369,0,0,0-4,4.339v1.554a4.338,4.338,0,0,0,4.339,4.339h2.671a2.2,2.2,0,0,1,2.2,2.2v1.554a2.2,2.2,0,0,1-2.2,2.2H307.9a1.92,1.92,0,0,1-1.914-1.914A1.092,1.092,0,0,0,304.906,157.352Z" transform="translate(-302.5 -139.6)"/></g><g transform="translate(0 0)"><g transform="translate(0 0)"><g class="c" transform="matrix(1, 0, 0, 1, -0.86, 0)"><path d="M114.427,68.883c-.72-1.629-2.027-4.945-3.676-5.589a6.558,6.558,0,0,0-5.078.114.019.019,0,0,0-.019.019L94.7,68.485a1.742,1.742,0,0,0,1.459,3.164l10.951-5.04a3.147,3.147,0,1,1,2.539,5.76L87.221,82.278a12.94,12.94,0,0,1-11.008-.246l-8.2-4.073a16.446,16.446,0,0,0-13.963-.322l-.114.038L47.851,63.9l8.45-3.732a16.828,16.828,0,0,1,12.694-.4l16.5,6.063a2.916,2.916,0,0,1-1.951,5.494l-12.77-4.32a1.737,1.737,0,1,0-1.1,3.3l12.77,4.32a6.391,6.391,0,0,0,4.263-12.05l-16.5-6.063a19.568,19.568,0,0,0-3.391-.928V45.958a17.227,17.227,0,0,1,17.2-17.2h6.347a17.227,17.227,0,0,1,17.2,17.2v4.528a1.743,1.743,0,1,0,3.486,0V45.958a20.711,20.711,0,0,0-16.71-20.291V20.419l4.4-7.522a1.725,1.725,0,0,0,.152-1.4,1.75,1.75,0,0,0-.947-1.061L92.564,7.991a1.739,1.739,0,0,0-1.307-.057l-4,1.44L83.716,7.953a1.639,1.639,0,0,0-1.269,0L76.8,10.132a1.736,1.736,0,0,0-.89,2.463L80.23,20.4v5.229A20.687,20.687,0,0,0,63.349,45.958v9.284a20.534,20.534,0,0,0-8.45,1.743l-8.526,3.77a4.33,4.33,0,0,0-5.324-1.535L30.042,64.052A1.767,1.767,0,0,0,29,65.643V95.18a1.764,1.764,0,0,0,1.743,1.743,1.623,1.623,0,0,0,.777-.189l21.371-10.8a4.328,4.328,0,0,0,2.387-5.04l.152-.076a12.94,12.94,0,0,1,11.008.246l8.2,4.073a16.446,16.446,0,0,0,13.963.322l22.432-9.909c1.629-.72,2.861.057,3.5-1.591A6.558,6.558,0,0,0,114.427,68.883ZM90.858,25.269H83.716V21.689h7.162l-.019,3.581ZM79.908,12.651l3.145-1.213,3.524,1.4a1.725,1.725,0,0,0,1.231.019l3.96-1.421L94.761,12.8,91.6,18.2H83Zm-28.457,70.1c-.019.019-.057.019-.076.038L32.486,92.338V85.29l4.888-2.406a1.741,1.741,0,0,0-1.535-3.126l-3.353,1.648V66.742l9.966-4.377a.943.943,0,0,1,.644-.019.81.81,0,0,1,.455.436l.4.909h0l7.919,17.942A.817.817,0,0,1,51.451,82.751Z" transform="translate(-27.5 -7.17)"/></g><path d="M27.987,94.749a2.283,2.283,0,0,1-1.25-.36A2.417,2.417,0,0,1,25.6,92.343V62.806a2.407,2.407,0,0,1,1.44-2.2l11.008-4.831a4.945,4.945,0,0,1,5.8,1.326l8.033-3.543a20.846,20.846,0,0,1,8.052-1.8v-8.62A21.32,21.32,0,0,1,76.811,22.281V17.753L72.567,10.1a2.407,2.407,0,0,1,1.25-3.41L79.463,4.51a2.361,2.361,0,0,1,1.762.019l3.316,1.326,3.77-1.345a2.371,2.371,0,0,1,1.8.076l5.4,2.444A2.341,2.341,0,0,1,96.8,8.488a2.383,2.383,0,0,1-.208,1.932l-4.3,7.37v4.528A21.4,21.4,0,0,1,109,43.141v4.528a2.406,2.406,0,1,1-4.812,0V43.141A16.555,16.555,0,0,0,87.648,26.6H81.3a16.555,16.555,0,0,0-16.54,16.54v9.075a20.231,20.231,0,0,1,2.956.853l16.5,6.063a7.053,7.053,0,0,1-4.7,13.3l-12.77-4.32A2.425,2.425,0,0,1,65.368,66.9a2.38,2.38,0,0,1-.114-1.838,2.424,2.424,0,0,1,3.05-1.516l12.77,4.32a2.25,2.25,0,0,0,1.5-4.244l-16.5-6.063a16.2,16.2,0,0,0-12.2.4l-7.844,3.467L51.575,74a17.007,17.007,0,0,1,14.02.549l8.2,4.073a12.277,12.277,0,0,0,10.439.246l22.432-9.909a2.5,2.5,0,0,0-.095-4.623,2.435,2.435,0,0,0-1.895.038l-10.932,5.04a2.4,2.4,0,1,1-2.008-4.358l11.008-5.078a7.277,7.277,0,0,1,5.57-.133c1.762.682,3.012,3.562,3.827,5.456.076.171.152.322.208.474h0a7.239,7.239,0,0,1,.133,5.589A2.436,2.436,0,0,1,110.061,73a4.5,4.5,0,0,0-1.421.322L86.208,83.23a17.109,17.109,0,0,1-14.532-.322l-8.2-4.073a12.324,12.324,0,0,0-10.117-.379A4.991,4.991,0,0,1,50.514,83.7L29.086,94.484A2.472,2.472,0,0,1,27.987,94.749Zm12.05-38.081a3.534,3.534,0,0,0-1.459.3L27.57,61.8a1.056,1.056,0,0,0-.644.985V92.324a1.041,1.041,0,0,0,.512.909,1.073,1.073,0,0,0,1.042.038L49.87,82.453A3.674,3.674,0,0,0,51.9,78.191l-.152-.549.663-.3a13.537,13.537,0,0,1,11.576.265l8.2,4.073a15.782,15.782,0,0,0,13.395.3L108,72.071a5.827,5.827,0,0,1,1.819-.436c.777-.095,1.08-.114,1.345-.8a5.962,5.962,0,0,0-.114-4.566c-.057-.152-.133-.3-.208-.493-.644-1.5-1.857-4.282-3.088-4.755a5.96,5.96,0,0,0-4.566.114L92.214,66.2a1.072,1.072,0,0,0,.89,1.951l10.951-5.04a3.821,3.821,0,1,1,3.088,6.991L84.73,80.066A13.537,13.537,0,0,1,73.154,79.8l-8.2-4.073a15.782,15.782,0,0,0-13.395-.3l-.72.322L44.224,60.741l9.075-4A17.512,17.512,0,0,1,66.5,56.327l16.5,6.063a3.574,3.574,0,0,1-2.368,6.745l-12.77-4.32a1.078,1.078,0,1,0-.682,2.046l12.77,4.32a5.47,5.47,0,0,0,1.819.3,5.725,5.725,0,0,0,1.989-11.1l-16.5-6.063a17.841,17.841,0,0,0-3.278-.89l-.549-.095V43.159A17.886,17.886,0,0,1,81.3,25.293h6.347a17.886,17.886,0,0,1,17.866,17.866v4.509a1.079,1.079,0,0,0,1.08,1.08,1.068,1.068,0,0,0,1.08-1.08V43.141A20.063,20.063,0,0,0,91.513,23.494l-.53-.114V17.431l4.49-7.673a1.084,1.084,0,0,0,.095-.872,1.125,1.125,0,0,0-.587-.663l-5.4-2.444a1.1,1.1,0,0,0-.815-.038L84.522,7.257,80.733,5.741a1.149,1.149,0,0,0-.8,0L74.291,7.92a1.1,1.1,0,0,0-.625.644,1.051,1.051,0,0,0,.076.89l4.414,7.957v5.949l-.549.095a20.018,20.018,0,0,0-16.35,19.666v9.947h-.663a19.9,19.9,0,0,0-8.166,1.686L43.39,58.733l-.3-.455a3.552,3.552,0,0,0-1.705-1.364A4.209,4.209,0,0,0,40.037,56.668ZM29.067,90.6V82.055l5.267-2.577a1.078,1.078,0,0,0,.493-1.44,1.055,1.055,0,0,0-.625-.549,1.017,1.017,0,0,0-.815.057l-4.32,2.122V63.507L39.431,58.96a1.452,1.452,0,0,1,1.137-.019,1.534,1.534,0,0,1,.834.8l8.317,18.851a1.4,1.4,0,0,1,.019,1.137,1.493,1.493,0,0,1-.8.834h0c-.019,0-.038.019-.057.019Zm1.326-7.73v5.551l17.923-9.056.114-.057h0a.156.156,0,0,0,.095-.095.16.16,0,0,0,0-.133L40.605,61.158l-.038-.095-.36-.834a.228.228,0,0,0-.095-.095.16.16,0,0,0-.133,0l-9.568,4.206V77.49l2.406-1.175a2.38,2.38,0,0,1,1.838-.114,2.4,2.4,0,0,1,.284,4.433ZM88.766,23.115H80.278V18.208h8.488ZM81.6,21.788H87.44V19.534H81.6Zm7.616-5.741H79.842L76.2,9.493,80.3,7.92l3.77,1.516a1.156,1.156,0,0,0,.758.019l4.206-1.516,3.9,1.781Zm-8.6-1.326h7.844l2.6-4.433-2.084-.947L85.28,10.667a2.307,2.307,0,0,1-1.705-.038L80.3,9.322l-2.179.853Z" transform="translate(-25.6 -4.348)"/></g></g><ellipse class="b" cx="6.461" cy="6.461" rx="6.461" ry="6.461" transform="translate(28.173 2.056)"/><ellipse class="b" cx="2.33" cy="2.33" rx="2.33" ry="2.33" transform="translate(39.976 12.533)"/><ellipse class="b" cx="6.461" cy="6.461" rx="6.461" ry="6.461" transform="translate(27.036 82.614)"/><ellipse class="b" cx="2.33" cy="2.33" rx="2.33" ry="2.33" transform="translate(31.166 74.808)"/></g></svg>