<svg xmlns="http://www.w3.org/2000/svg" xmlns:xlink="http://www.w3.org/1999/xlink" width="66.92" height="48.882" viewBox="0 0 66.92 48.882"><defs><style>.a{fill:#3fd8cd;}.b{filter:url(#a);}</style><filter id="a" x="0" y="11.923" width="66.92" height="36.96" filterUnits="userSpaceOnUse"><feOffset dy="3" input="SourceAlpha"/><feGaussianBlur stdDeviation="0.5" result="b"/><feFlood flood-opacity="0.161"/><feComposite operator="in" in2="b"/><feComposite in="SourceGraphic"/></filter></defs><g transform="translate(1.5 -50.5)"><rect class="a" width="32.709" height="22.847" transform="translate(11.361 68.29)"/><path d="M121,261h33.708v3.745H121Z" transform="translate(-105.894 -184.22)"/><g class="b" transform="matrix(1, 0, 0, 1, -1.5, 50.5)"><path d="M58.3,152.866h-2v-1.248A5.626,5.626,0,0,0,50.687,146H13.234a5.626,5.626,0,0,0-5.618,5.618v1.248h-2A5.626,5.626,0,0,0,0,158.484v7.491a5.626,5.626,0,0,0,5.618,5.618h2v1.248a5.626,5.626,0,0,0,5.618,5.618h7.728a11.532,11.532,0,0,0,6.567-2.035,7.888,7.888,0,0,1,8.876,0,11.5,11.5,0,0,0,6.567,2.035h7.715a5.626,5.626,0,0,0,5.618-5.618v-1.248h2a5.626,5.626,0,0,0,5.618-5.618v-7.491A5.626,5.626,0,0,0,58.3,152.866ZM5.618,167.848a1.87,1.87,0,0,1-1.873-1.873v-7.491a1.87,1.87,0,0,1,1.873-1.873h2v11.236Zm46.942,4.994a1.87,1.87,0,0,1-1.873,1.873H42.959a7.821,7.821,0,0,1-4.444-1.373,11.613,11.613,0,0,0-13.134,0,7.821,7.821,0,0,1-4.444,1.373h-7.7a1.87,1.87,0,0,1-1.873-1.873V151.618a1.87,1.87,0,0,1,1.873-1.873H50.687a1.87,1.87,0,0,1,1.873,1.873Zm7.616-6.866a1.87,1.87,0,0,1-1.873,1.873h-2V156.612h2a1.87,1.87,0,0,1,1.873,1.873Z" transform="translate(1.5 -134.08)"/></g><circle class="a" cx="4.694" cy="4.694" r="4.694" transform="translate(53.546 50.5)"/><circle class="a" cx="1.648" cy="1.648" r="1.648" transform="translate(56.592 62.423)"/><circle class="a" cx="1.648" cy="1.648" r="1.648" transform="translate(5.968 58.24)"/><circle class="a" cx="1.648" cy="1.648" r="1.648" transform="translate(30.312 93.796)"/></g></svg>