<svg xmlns="http://www.w3.org/2000/svg" xmlns:xlink="http://www.w3.org/1999/xlink" width="69.801" height="63.018" viewBox="0 0 69.801 63.018"><defs><style>.a{fill:#f77c7c;}.b{filter:url(#a);}</style><filter id="a" x="2.305" y="7.494" width="67.496" height="55.524" filterUnits="userSpaceOnUse"><feOffset dy="3" input="SourceAlpha"/><feGaussianBlur stdDeviation="0.5" result="b"/><feFlood flood-opacity="0.161"/><feComposite operator="in" in2="b"/><feComposite in="SourceGraphic"/></filter></defs><g transform="translate(-1.5 -7.7)"><path class="a" d="M16.519,41.657S9,7.054,40.8,22.363c0,0,11.595-7.7,20.019-2.265s-1.9,29.893-20.472,38.861A32.58,32.58,0,0,1,16.519,41.657Z" transform="translate(-1.341 -0.985)"/><g transform="translate(5.305 15.194)"><g class="b" transform="matrix(1, 0, 0, 1, -3.8, -7.49)"><path d="M70.2,33.3a15.417,15.417,0,0,1-.906,5.344C66.573,51.054,42.84,66.091,41.843,66.725a1.963,1.963,0,0,1-1.993,0A122.472,122.472,0,0,1,26.172,56.579a1.926,1.926,0,1,1,2.536-2.9,147.155,147.155,0,0,0,12.229,9.24c7.156-4.62,22.827-16.486,24.73-25.183a12.513,12.513,0,0,0,.725-4.348,13.468,13.468,0,0,0-7.066-11.867A13.889,13.889,0,0,0,42.3,24.784a1.984,1.984,0,0,1-2.989,0,14.009,14.009,0,0,0-17.03-3.261A13.575,13.575,0,0,0,15.211,33.39a13,13,0,0,0,.725,4.167,13.441,13.441,0,0,0,1.54,3.8H28.708l3.9-8.877a1.965,1.965,0,0,1,1.9-1.178,1.933,1.933,0,0,1,1.721,1.449l2.808,11.957,3.714-5.979a2.024,2.024,0,0,1,1.631-.906h6.975a1.858,1.858,0,0,1,1.9,1.9,1.913,1.913,0,0,1-1.9,1.9H45.467l-5.526,9.058a2.024,2.024,0,0,1-1.631.906h-.272a1.831,1.831,0,0,1-1.54-1.449L33.872,39.187,31.788,43.9a1.858,1.858,0,0,1-1.721,1.178H7.6a1.9,1.9,0,1,1,0-3.8h5.616a20.069,20.069,0,0,1-.906-2.808A15.822,15.822,0,0,1,11.5,33.3a17.212,17.212,0,0,1,9.058-15.218,17.99,17.99,0,0,1,20.382,2.536,17.7,17.7,0,0,1,20.291-2.536A17.306,17.306,0,0,1,70.2,33.3Z" transform="translate(-1.9 -8.48)"/></g></g><path class="a" d="M76,14.313H73.012L71.2,12.5V9.512L73.012,7.7H76l1.812,1.812V12.5Z" transform="translate(-6.563 0)"/><path class="a" d="M69.9,17.2h-1L68,16.293V15.206l.906-.906h1.087l.906.906v1.087A9.918,9.918,0,0,0,69.9,17.2Z" transform="translate(-6.261 -0.621)"/><path class="a" d="M6.392,32.513H3.312L1.5,30.7V27.712L3.312,25.9H6.3l1.812,1.812V30.7C7.479,31.426,7.026,31.879,6.392,32.513Z" transform="translate(0 -1.714)"/><path class="a" d="M9.2,36.1h-1L7.3,35.193V34.106l.906-.906H9.293l.906.906v1.087C9.836,35.555,9.565,35.736,9.2,36.1Z" transform="translate(-0.546 -2.401)"/></g></svg>