<svg xmlns="http://www.w3.org/2000/svg" width="22.711" height="16.768" viewBox="0 0 22.711 16.768">
  <g id="inverted-commas" transform="translate(22.711 16.768) rotate(180)">
    <g id="Group_1289" data-name="Group 1289" transform="translate(0 0)">
      <path id="Path_1126" data-name="Path 1126" d="M0,7.685H5.509c-.094,4.015-1.233,4.47-2.663,4.6l-.551.068v4.415l.636-.034c1.867-.105,3.932-.442,5.31-2.142,1.207-1.491,1.74-3.926,1.74-7.665V0H0Z"/>
      <path id="Path_1127" data-name="Path 1127" d="M0,0V7.685H5.435c-.094,4.015-1.2,4.47-2.626,4.6l-.515.068v4.415l.6-.034c1.868-.105,3.951-.442,5.328-2.142C9.429,13.1,9.979,10.666,9.979,6.928V0Z" transform="translate(12.732)"/>
    </g>
  </g>
</svg>
