<?xml version="1.0" encoding="utf-8"?>
<!-- Generator: Adobe Illustrator 19.0.0, SVG Export Plug-In . SVG Version: 6.00 Build 0)  -->
<svg version="1.1" id="Layer_1" xmlns="http://www.w3.org/2000/svg" xmlns:xlink="http://www.w3.org/1999/xlink" x="0px" y="0px"
	 viewBox="-187 397.4 220 47.5" style="enable-background:new -187 397.4 220 47.5;" xml:space="preserve">
<style type="text/css">
	.st0{display:none;}
	.st1{display:inline;fill:#FFFFFF;}
	.st2{fill:url(#XMLID_2_);}
	.st3{fill:url(#XMLID_3_);}
	.st4{fill:url(#XMLID_4_);}
	.st5{fill:url(#XMLID_5_);}
	.st6{enable-background:new    ;}
</style>
<g id="XMLID_920_" class="st0">
	<path id="XMLID_925_" class="st1" d="M-51.4,444.6L-51.4,444.6c0-15.3,11.7-27.8,27.2-27.8c8.9,0,14.7,3.3,19.4,7.8
		c0.6,0.6,1.1,1.7,1.1,2.8c0,2.2-1.7,3.9-3.9,3.9c-1.1,0-1.9-0.3-2.5-0.8c-3.9-3.6-8.1-6.4-14.4-6.4c-10.8,0-18.9,9.2-18.9,20.6v0.3
		c0,11.4,8.3,20.6,19.4,20.6c6.1,0,10.8-2.8,14.7-6.4c0.6-0.6,1.1-1.1,2.2-1.1c1.9,0,3.6,1.7,3.6,3.6c0,0.8-0.3,1.9-1.1,2.5
		c-5,5-11.1,8.6-20,8.6C-39.8,472.4-51.4,459.6-51.4,444.6z"/>
	<path id="XMLID_927_" class="st1" d="M8,421.2c0-2.2,1.7-3.9,3.9-3.9c2.2,0,3.9,1.7,3.9,3.9v5.6c3.6-5.3,8.3-10,17.2-10
		c8.6,0,14.2,4.7,16.9,10.6c3.9-5.8,9.4-10.6,18.6-10.6c12.2,0,19.7,8.3,19.7,21.4v29.2c0,2.2-1.7,3.9-3.9,3.9
		c-2.2,0-3.9-1.7-3.9-3.9v-27.5c0-10.3-5-16.1-13.6-16.1c-8.1,0-14.4,5.8-14.4,16.4v27.2c0,2.2-1.7,3.9-3.9,3.9
		c-2.2,0-3.9-1.7-3.9-3.9v-27.8c0-10-5.3-15.8-13.6-15.8s-14.7,6.9-14.7,16.7v26.9c0,2.2-1.7,3.9-3.9,3.9c-2.2,0-3.9-1.7-3.9-3.9
		v-46.1L8,421.2L8,421.2z"/>
	<path id="XMLID_929_" class="st1" d="M98.8,455.7L98.8,455.7c0-11.4,9.2-17.2,22.8-17.2c6.7,0,11.7,0.8,16.4,2.2v-1.9
		c0-9.4-5.8-14.4-15.8-14.4c-5.3,0-9.7,1.1-13.6,3.1c-0.6,0.3-1.1,0.3-1.4,0.3c-1.9,0-3.6-1.7-3.6-3.3c0-1.7,1.1-2.8,2.2-3.3
		c5.3-2.2,10.6-3.6,17.2-3.6c7.5,0,13.3,1.9,17.2,5.8c3.6,3.6,5.6,8.6,5.6,15.6v28.9c0,2.2-1.7,3.9-3.9,3.9c-2.2,0-3.9-1.7-3.9-3.6
		v-4.7c-3.6,4.7-9.7,9.2-19.2,9.2C108.8,472.1,98.8,466.5,98.8,455.7z M138,451.5v-5c-3.9-1.1-9.2-2.2-15.6-2.2
		c-10,0-15.6,4.2-15.6,10.8v0.3c0,6.7,6.1,10.6,13.3,10.6C129.9,465.7,138,459.9,138,451.5z"/>
	<path id="XMLID_932_" class="st1" d="M160.2,421.2c0-2.2,1.7-3.9,3.9-3.9c2.2,0,3.9,1.7,3.9,3.9v10c3.9-8.9,11.7-14.2,18.3-14.2
		c2.2,0,3.9,1.7,3.9,3.9c0,2.2-1.4,3.6-3.6,3.9C176.3,426,168,433.7,168,449v18.3c0,2.2-1.7,3.9-3.9,3.9c-2.2,0-3.9-1.7-3.9-3.9
		C160.2,467.6,160.2,421.2,160.2,421.2z"/>
	<path id="XMLID_934_" class="st1" d="M198.8,401.5c0-2.5,1.9-4.2,4.7-4.2c2.8,0,4.7,1.7,4.7,4.2v1.4c0,2.5-1.9,4.2-4.7,4.2
		c-2.5,0-4.7-1.7-4.7-4.2V401.5z"/>
	<path id="XMLID_935_" class="st1" d="M199.7,421.2c0-2.2,1.7-3.9,3.9-3.9s3.9,1.7,3.9,3.9v46.1c0,2.2-1.7,3.9-3.9,3.9
		s-3.9-1.7-3.9-3.9V421.2L199.7,421.2z"/>
	<path id="XMLID_936_" class="st1" d="M219.4,465.4l17.2-21.4l-16.4-20c-0.8-0.8-1.1-1.9-1.1-2.8c0-2.2,1.7-3.6,3.6-3.6
		c1.7,0,2.5,0.8,3.6,1.9l15.3,19.4l15.3-19.2c0.8-1.1,1.9-1.9,3.3-1.9c1.9,0,3.6,1.7,3.6,3.6c0,1.1-0.3,1.9-1.1,2.5l-16.4,20.3
		l17.2,21.1c0.8,0.8,1.1,1.9,1.1,2.8c0,2.2-1.7,3.6-3.6,3.6c-1.7,0-2.5-0.8-3.6-1.9l-16.1-20.3l-16.1,20.3c-0.8,1.1-1.9,1.9-3.3,1.9
		c-1.9,0-3.6-1.7-3.6-3.6C218.6,466.8,218.8,466.2,219.4,465.4z"/>
</g>
<g id="XMLID_17_" class="st0">
	<path id="XMLID_22_" class="st1" d="M-48.4,497.4v-12.2c0-0.8,0.6-1.4,1.4-1.4h8.6c0.6,0,1.1,0.6,1.1,1.1c0,0.6-0.6,1.1-1.1,1.1
		h-7.2v3.9h6.4c0.6,0,1.1,0.6,1.1,1.1c0,0.6-0.6,1.1-1.1,1.1h-6.4v3.9h7.5c0.6,0,1.1,0.6,1.1,1.1s-0.6,1.1-1.1,1.1h-8.6
		C-47.8,498.7-48.4,498.2-48.4,497.4z"/>
	<path id="XMLID_31_" class="st1" d="M-33.7,489c0-0.8,0.6-1.4,1.4-1.4s1.4,0.6,1.4,1.4v0.6c0.8-1.1,1.7-1.9,3.3-1.9
		c2.5,0,3.9,1.7,3.9,4.2v5.8c0,0.8-0.6,1.4-1.4,1.4s-1.1-0.6-1.1-1.4v-5c0-1.7-0.8-2.8-2.5-2.8c-1.4,0-2.5,1.1-2.5,2.8v5
		c0,0.8-0.6,1.4-1.4,1.4c-0.6,0-1.4-0.6-1.4-1.4V489L-33.7,489L-33.7,489z"/>
	<path id="XMLID_38_" class="st1" d="M-15.3,498.7L-15.3,498.7c-0.8,0-1.4-0.6-1.7-1.1l-3.6-8.3c0-0.3-0.3-0.3-0.3-0.6
		c0-0.6,0.6-1.1,1.4-1.1s1.1,0.3,1.4,0.8l2.8,7.2l2.8-7.5c0.3-0.6,0.6-0.8,1.1-0.8c0.8,0,1.1,0.6,1.1,1.1c0,0.3,0,0.6-0.3,0.6
		l-3.6,8.6C-14.2,498.7-14.8,498.7-15.3,498.7z"/>
	<path id="XMLID_40_" class="st1" d="M-7,484.9c0-0.8,0.6-1.1,1.4-1.1s1.4,0.6,1.4,1.1l0,0c0,0.8-0.6,1.4-1.4,1.4
		C-6.4,486.2-7,485.7-7,484.9L-7,484.9z M-6.7,489c0-0.8,0.6-1.4,1.4-1.4s1.4,0.6,1.4,1.4v8.9c0,0.8-0.6,1.4-1.4,1.4
		s-1.4-0.6-1.4-1.4V489z"/>
	<path id="XMLID_43_" class="st1" d="M-0.6,497.4c-0.3-0.3-0.6-0.6-0.6-0.8c0-0.6,0.6-1.1,1.1-1.1c0.3,0,0.3,0,0.6,0.3
		c1.1,0.8,2.2,1.1,3.3,1.1s1.7-0.6,1.7-1.1l0,0c0-0.8-1.1-1.1-2.5-1.7c-1.7-0.6-3.3-1.1-3.3-3.3l0,0c0-2.2,1.7-3.3,3.9-3.3
		c1.1,0,2.5,0.3,3.6,0.8c0.3,0.3,0.6,0.6,0.6,0.8c0,0.6-0.6,1.1-1.1,1.1c-0.3,0-0.3,0-0.6,0c-0.8-0.6-1.9-0.8-2.5-0.8
		c-1.1,0-1.7,0.6-1.7,1.1l0,0c0,0.8,1.1,1.1,2.5,1.7c1.7,0.6,3.3,1.1,3.3,3.3l0,0c0,2.2-1.9,3.6-4.2,3.6
		C2.4,498.7,0.8,498.7-0.6,497.4z"/>
	<path id="XMLID_45_" class="st1" d="M11.3,484.9c0-0.8,0.6-1.1,1.4-1.1s1.4,0.6,1.4,1.1l0,0c0,0.8-0.6,1.4-1.4,1.4
		S11.3,485.7,11.3,484.9L11.3,484.9z M11.3,489c0-0.8,0.6-1.4,1.4-1.4s1.4,0.6,1.4,1.4v8.9c0,0.8-0.6,1.4-1.4,1.4
		c-0.6,0-1.4-0.6-1.4-1.4V489z"/>
	<path id="XMLID_48_" class="st1" d="M17.4,493.2L17.4,493.2c0-3.3,2.5-5.8,5.8-5.8s5.8,2.5,5.8,5.8l0,0c0,3.1-2.5,5.8-5.8,5.8
		C19.9,498.7,17.4,496.2,17.4,493.2z M26.9,493.2L26.9,493.2c0-1.9-1.4-3.6-3.3-3.6c-1.9,0-3.3,1.7-3.3,3.6l0,0
		c0,1.9,1.4,3.6,3.3,3.6C25.5,496.8,26.9,495.4,26.9,493.2z"/>
	<path id="XMLID_52_" class="st1" d="M32.7,489c0-0.8,0.6-1.4,1.4-1.4s1.4,0.6,1.4,1.4v0.6c0.8-1.1,1.7-1.9,3.3-1.9
		c2.5,0,3.9,1.7,3.9,4.2v5.8c0,0.8-0.6,1.4-1.4,1.4s-1.4-0.6-1.4-1.4v-5c0-1.7-0.8-2.8-2.5-2.8c-1.4,0-2.5,1.1-2.5,2.8v5
		c0,0.8-0.6,1.4-1.4,1.4c-0.6,0-1.4-0.6-1.4-1.4V489L32.7,489L32.7,489z"/>
	<path id="XMLID_57_" class="st1" d="M54.9,492.1c0.8,0,1.4,0.6,1.4,1.4v0.3c0,0.8-0.6,1.4-1.4,1.4s-1.4-0.6-1.4-1.4v-0.3
		C53.6,492.9,54.1,492.1,54.9,492.1z"/>
	<path id="XMLID_59_" class="st1" d="M67.7,485.1c0-0.8,0.6-1.4,1.4-1.4c0.8,0,1.4,0.6,1.4,1.4v11.1h6.7c0.6,0,1.1,0.6,1.1,1.1
		c0,0.6-0.6,1.1-1.1,1.1h-8.1c-0.8,0-1.4-0.6-1.4-1.4V485.1z"/>
	<path id="XMLID_61_" class="st1" d="M86.1,498.7c-3.3,0-5.8-2.2-5.8-5.8l0,0c0-3.1,2.2-5.8,5.6-5.8c3.6,0,5.3,2.8,5.3,5.6
		c0,0.8-0.6,1.1-1.1,1.1H83c0.3,1.9,1.7,2.8,3.3,2.8c1.1,0,1.9-0.3,2.5-0.8c0.3-0.3,0.3-0.3,0.6-0.3c0.6,0,1.1,0.6,1.1,1.1
		c0,0.3-0.3,0.6-0.3,0.8C89.1,498.5,88,498.7,86.1,498.7z M88.6,492.6c-0.3-1.7-1.1-3.1-2.8-3.1s-2.8,1.1-2.8,3.1H88.6z"/>
	<path id="XMLID_64_" class="st1" d="M98.8,498.7L98.8,498.7c-0.8,0-1.4-0.6-1.7-1.1l-3.6-8.6c0-0.3-0.3-0.3-0.3-0.6
		c0-0.6,0.6-1.1,1.4-1.1c0.6,0,1.1,0.3,1.4,0.8l2.8,7.2l2.8-7.5c0.3-0.6,0.6-0.8,1.1-0.8c0.8,0,1.1,0.6,1.1,1.1c0,0.3,0,0.6-0.3,0.6
		l-3.6,8.6C99.9,498.7,99.4,498.7,98.8,498.7z"/>
	<path id="XMLID_66_" class="st1" d="M111.9,498.7c-3.3,0-5.8-2.2-5.8-5.8l0,0c0-3.1,2.2-5.8,5.6-5.8c3.6,0,5.3,2.8,5.3,5.6
		c0,0.8-0.6,1.1-1.1,1.1h-6.9c0.3,1.9,1.7,2.8,3.3,2.8c1.1,0,1.9-0.3,2.5-0.8c0.3-0.3,0.3-0.3,0.6-0.3c0.6,0,1.1,0.6,1.1,1.1
		c0,0.3-0.3,0.6-0.3,0.8C114.9,498.5,113.6,498.7,111.9,498.7z M114.4,492.6c-0.3-1.7-1.1-3.1-2.8-3.1s-2.8,1.1-2.8,3.1H114.4z"/>
	<path id="XMLID_69_" class="st1" d="M120.5,489c0-0.8,0.6-1.4,1.4-1.4c0.8,0,1.4,0.6,1.4,1.4v1.1c0.6-1.4,1.7-2.5,2.8-2.5
		c0.8,0,1.4,0.6,1.4,1.4c0,0.6-0.6,1.1-1.1,1.1c-1.9,0.3-3.1,1.7-3.1,4.4v3.3c0,0.6-0.6,1.4-1.4,1.4c-0.8,0-1.4-0.6-1.4-1.4V489
		L120.5,489z"/>
	<path id="XMLID_71_" class="st1" d="M128.6,495.7L128.6,495.7c0-2.5,1.9-3.6,4.4-3.6c1.1,0,2.2,0.3,3.1,0.6v-0.3
		c0-1.7-0.8-2.5-2.8-2.5c-0.8,0-1.7,0.3-2.5,0.6c-0.3,0-0.3,0-0.3,0c-0.6,0-1.1-0.6-1.1-1.1c0-0.6,0.3-0.8,0.8-1.1
		c1.1-0.3,2.2-0.6,3.6-0.6c1.7,0,2.8,0.6,3.6,1.1c0.8,0.8,1.1,1.9,1.1,3.3v5.6c0,0.8-0.6,1.1-1.1,1.1c-0.8,0-1.1-0.6-1.1-1.1v-0.6
		c-0.8,0.8-1.9,1.7-3.6,1.7C130.5,498.7,128.6,497.6,128.6,495.7z M136.3,494.6v-0.8c-0.6-0.3-1.4-0.6-2.5-0.6
		c-1.7,0-2.5,0.6-2.5,1.9l0,0c0,1.1,0.8,1.7,2.2,1.7C134.9,497.4,136.3,496,136.3,494.6z"/>
	<path id="XMLID_74_" class="st1" d="M143.3,501.2c-0.6-0.3-0.8-0.6-0.8-1.1c0-0.6,0.6-1.1,1.1-1.1c0.3,0,0.3,0,0.6,0
		c1.1,0.6,2.2,0.8,3.3,0.8c2.2,0,3.6-1.1,3.6-3.3v-0.8c-0.8,1.1-1.9,1.9-3.9,1.9c-2.5,0-5-1.9-5-5.3l0,0c0-3.3,2.5-5.3,5-5.3
		c1.9,0,3.1,0.8,3.9,1.9v-0.6c0-0.8,0.6-1.4,1.4-1.4s1.4,0.6,1.4,1.4v7.8c0,1.9-0.6,3.3-1.4,4.2c-1.1,1.1-2.5,1.4-4.4,1.4
		C145.8,502.4,144.4,501.8,143.3,501.2z M151.1,492.9L151.1,492.9c0-1.9-1.4-3.1-3.3-3.1s-3.1,1.1-3.1,3.1l0,0
		c0,1.9,1.4,3.1,3.1,3.1C149.4,495.7,151.1,494.6,151.1,492.9z"/>
	<path id="XMLID_77_" class="st1" d="M162.4,498.7c-3.3,0-5.8-2.2-5.8-5.8l0,0c0-3.1,2.2-5.8,5.6-5.8c3.6,0,5.3,2.8,5.3,5.6
		c0,0.8-0.6,1.1-1.1,1.1h-6.9c0.3,1.9,1.7,2.8,3.3,2.8c1.1,0,1.9-0.3,2.5-0.8c0.3-0.3,0.3-0.3,0.6-0.3c0.6,0,1.1,0.6,1.1,1.1
		c0,0.3-0.3,0.6-0.3,0.8C165.5,498.5,164.4,498.7,162.4,498.7z M164.9,492.6c-0.3-1.7-1.1-3.1-2.8-3.1c-1.7,0-2.8,1.1-2.8,3.1H164.9
		z"/>
	<path id="XMLID_80_" class="st1" d="M179.4,492.1c0.8,0,1.4,0.6,1.4,1.4v0.3c0,0.8-0.6,1.4-1.4,1.4c-0.8,0-1.4-0.6-1.4-1.4v-0.3
		C178,492.9,178.6,492.1,179.4,492.1z"/>
	<path id="XMLID_82_" class="st1" d="M192.2,485.1c0-0.8,0.6-1.4,1.4-1.4c0.8,0,1.4,0.6,1.4,1.4v12.5c0,0.8-0.6,1.4-1.4,1.4
		c-0.8,0-1.4-0.6-1.4-1.4V485.1z"/>
	<path id="XMLID_84_" class="st1" d="M199.4,489c0-0.8,0.6-1.4,1.4-1.4c0.8,0,1.4,0.6,1.4,1.4v0.6c0.8-1.1,1.7-1.9,3.3-1.9
		c2.5,0,3.9,1.7,3.9,4.2v5.8c0,0.8-0.6,1.4-1.4,1.4c-0.8,0-1.4-0.6-1.4-1.4v-5c0-1.7-0.8-2.8-2.5-2.8c-1.4,0-2.5,1.1-2.5,2.8v5
		c0,0.8-0.6,1.4-1.4,1.4s-1.4-0.6-1.4-1.4V489L199.4,489L199.4,489z"/>
	<path id="XMLID_86_" class="st1" d="M213.8,489.9h-0.6c-0.6,0-1.1-0.6-1.1-1.1c0-0.6,0.6-1.1,1.1-1.1h0.6v-0.6
		c0-1.1,0.3-2.2,0.8-2.8c0.6-0.6,1.4-0.8,2.5-0.8c0.6,0,0.8,0,1.4,0s0.8,0.6,0.8,1.1s-0.6,1.1-1.1,1.1c-0.3,0-0.3,0-0.6,0
		c-0.8,0-1.4,0.6-1.4,1.7v0.6h1.9c0.6,0,1.1,0.6,1.1,1.1c0,0.6-0.6,1.1-1.1,1.1h-1.9v7.8c0,0.6-0.6,1.4-1.4,1.4
		c-0.8,0-1.4-0.6-1.4-1.4L213.8,489.9L213.8,489.9z M221.1,484.9c0-0.8,0.6-1.1,1.4-1.1s1.4,0.6,1.4,1.1l0,0c0,0.8-0.6,1.4-1.4,1.4
		S221.1,485.7,221.1,484.9L221.1,484.9z M221.1,489c0-0.8,0.6-1.4,1.4-1.4s1.4,0.6,1.4,1.4v8.9c0,0.8-0.6,1.4-1.4,1.4
		c-0.6,0-1.4-0.6-1.4-1.4V489z"/>
	<path id="XMLID_90_" class="st1" d="M228,489c0-0.8,0.6-1.4,1.4-1.4c0.8,0,1.4,0.6,1.4,1.4v0.6c0.8-1.1,1.7-1.9,3.3-1.9
		c2.5,0,3.9,1.7,3.9,4.2v5.8c0,0.8-0.6,1.4-1.4,1.4c-0.8,0-1.4-0.6-1.4-1.4v-5c0-1.7-0.8-2.8-2.5-2.8c-1.4,0-2.5,1.1-2.5,2.8v5
		c0,0.8-0.6,1.4-1.4,1.4c-0.8,0-1.4-0.6-1.4-1.4V489L228,489L228,489z"/>
	<path id="XMLID_92_" class="st1" d="M241.6,484.9c0-0.8,0.6-1.1,1.4-1.1c0.8,0,1.4,0.6,1.4,1.1l0,0c0,0.8-0.6,1.4-1.4,1.4
		C242.4,486.2,241.6,485.7,241.6,484.9L241.6,484.9z M241.9,489c0-0.8,0.6-1.4,1.4-1.4c0.8,0,1.4,0.6,1.4,1.4v8.9
		c0,0.8-0.6,1.4-1.4,1.4c-0.6,0-1.4-0.6-1.4-1.4V489z"/>
	<path id="XMLID_95_" class="st1" d="M249.1,495.7v-5.8h-0.3c-0.6,0-1.1-0.6-1.1-1.1c0-0.6,0.6-1.1,1.1-1.1h0.6v-1.9
		c0-0.8,0.6-1.4,1.4-1.4c0.6,0,1.4,0.6,1.4,1.4v1.9h1.9c0.6,0,1.1,0.6,1.1,1.1c0,0.6-0.8,1.1-1.7,1.1h-1.9v5.6
		c0,1.1,0.6,1.4,1.4,1.4c0.3,0,0.6,0,0.6,0c0.6,0,1.1,0.6,1.1,1.1c0,0.6-0.3,0.8-0.6,1.1c-0.6,0.3-1.1,0.3-1.7,0.3
		C250.5,498.7,249.1,498.2,249.1,495.7z"/>
	<path id="XMLID_97_" class="st1" d="M262.7,498.7c-3.3,0-5.8-2.2-5.8-5.8l0,0c0-3.1,2.2-5.8,5.6-5.8c3.6,0,5.3,2.8,5.3,5.6
		c0,0.8-0.6,1.1-1.1,1.1h-6.9c0.3,1.9,1.7,2.8,3.3,2.8c1.1,0,1.9-0.3,2.5-0.8c0.3-0.3,0.3-0.3,0.6-0.3c0.6,0,1.1,0.6,1.1,1.1
		c0,0.3-0.3,0.6-0.3,0.8C265.8,498.5,264.7,498.7,262.7,498.7z M265.5,492.6c-0.3-1.7-1.1-3.1-2.8-3.1c-1.7,0-2.8,1.1-2.8,3.1H265.5
		z"/>
</g>
<g>
	<g id="XMLID_939_">
		
			<radialGradient id="XMLID_2_" cx="-377.9565" cy="262.5048" r="5.1226" fx="-379.8366" fy="263.0836" gradientTransform="matrix(2.7778 0 0 -2.7778 896.7029 1142.9612)" gradientUnits="userSpaceOnUse">
			<stop  offset="0.3454" style="stop-color:#EF6224"/>
			<stop  offset="1" style="stop-color:#D24D27"/>
		</radialGradient>
		<path id="XMLID_940_" class="st2" d="M-151.9,405.5c-8.6,0-15.9,13.3-15.9,15.8c0,2.3,6.9,15.9,15.9,15.9
			c8.6,0,13.8-7.3,13.8-15.9C-138.1,412.5-143.4,405.5-151.9,405.5z"/>
		
			<radialGradient id="XMLID_3_" cx="-388.5374" cy="262.7246" r="3.9468" gradientTransform="matrix(2.7778 0 0 -2.7778 896.7029 1142.9612)" gradientUnits="userSpaceOnUse">
			<stop  offset="0.3454" style="stop-color:#EF6224"/>
			<stop  offset="1" style="stop-color:#D24D27"/>
		</radialGradient>
		<path id="XMLID_941_" class="st3" d="M-180.2,428.6c-3.8,0-6.8-3.5-6.8-7.4c0-3.9,3-7.4,6.8-7.4c3,0,7.9,4.8,7.9,7.4
			C-172.4,423.6-177.1,428.6-180.2,428.6z"/>
		
			<radialGradient id="XMLID_4_" cx="-380.5931" cy="256.3486" r="4.6069" fx="-382.3624" fy="256.3486" gradientTransform="matrix(2.7778 0 0 -2.7778 896.7029 1142.9612)" gradientUnits="userSpaceOnUse">
			<stop  offset="0.3454" style="stop-color:#EF6224"/>
			<stop  offset="1" style="stop-color:#D24D27"/>
		</radialGradient>
		<path id="XMLID_942_" class="st4" d="M-151.9,440.5c-8,0-14.6-8-17.6-14l-0.1-0.1c-0.3-0.5-0.5-0.8-0.6-0.8
			c-0.1,0-0.3,0.1-0.4,0.3c-2.3,3.3-6.1,6.1-9.6,6.1c4,7.6,12,12.9,21.3,12.9c7.8,0,14.5-3.6,18.9-9.3
			C-143.1,438.8-147.2,440.5-151.9,440.5z"/>
		
			<radialGradient id="XMLID_5_" cx="-380.5999" cy="266.6035" r="4.6027" fx="-382.3677" fy="266.6035" gradientTransform="matrix(2.7778 0 0 -2.7778 896.7029 1142.9612)" gradientUnits="userSpaceOnUse">
			<stop  offset="0.3454" style="stop-color:#EF6224"/>
			<stop  offset="1" style="stop-color:#D24D27"/>
		</radialGradient>
		<path id="XMLID_943_" class="st5" d="M-170.6,416.2L-170.6,416.2c0.1,0.3,0.3,0.4,0.4,0.4l0,0c0.1,0,0.5-0.5,0.9-1.3l0,0
			c3.1-5.9,9.6-13.5,17.5-13.5c4.6,0,8.8,1.8,11.8,4.8c-4.4-5.6-11.3-9.3-18.9-9.3c-9.3,0-17.3,5.3-21.3,12.9
			C-177,410.2-173,413-170.6,416.2z"/>
	</g>
	<g id="XMLID_21_">
		<path id="XMLID_32_" d="M33,404.1c0,2.6-2,4.6-4.6,4.6c-2.6,0-4.6-2-4.6-4.6c0-2.5,2.1-4.5,4.6-4.5C31,399.6,33,401.6,33,404.1z
			 M24.4,404.1c0,2.4,1.8,4.1,4.1,4.1c2.3,0,4-1.9,4-4.1c0-2.4-1.6-4.1-4-4.1C26.1,399.9,24.4,401.9,24.4,404.1z M27.9,406.7h-1.2
			V402c0.4-0.1,1-0.1,1.8-0.1c0.9,0,1.3,0.1,1.6,0.4c0.3,0.1,0.4,0.6,0.4,1c0,0.5-0.4,0.9-0.9,1.1v0.1c0.4,0.1,0.6,0.5,0.9,1.1
			c0.1,0.6,0.3,1,0.4,1.1h-1.1c-0.1-0.1-0.3-0.6-0.4-1.1s-0.4-0.8-0.9-0.8h-0.5L27.9,406.7L27.9,406.7z M27.7,403.9h0.5
			c0.6,0,1.1-0.1,1.1-0.6c0-0.4-0.4-0.6-1-0.6c-0.3,0-0.5,0-0.6,0.1V403.9L27.7,403.9L27.7,403.9z"/>
	</g>
	<g id="XMLID_989_">
		<path id="XMLID_994_" d="M-126,418.8L-126,418.8c0-6.8,5.3-12.6,12.2-12.6c4,0,6.7,1.5,8.8,3.5c0.3,0.2,0.6,0.7,0.6,1.2
			c0,1-0.8,1.7-1.7,1.7c-0.5,0-0.9-0.2-1.2-0.4c-1.7-1.6-3.7-2.9-6.5-2.9c-4.9,0-8.6,4.1-8.6,9.2v0.1c0,5.2,3.8,9.3,8.8,9.3
			c2.7,0,4.9-1.2,6.7-2.9c0.2-0.2,0.6-0.5,1-0.5c0.9,0,1.6,0.8,1.6,1.6c0,0.4-0.2,0.8-0.5,1.1c-2.3,2.3-5,3.8-9,3.8
			C-120.7,431.2-126,425.5-126,418.8z"/>
		<path id="XMLID_996_" d="M-99.1,408.3c0-1,0.8-1.8,1.8-1.8c1,0,1.8,0.8,1.8,1.8v2.4c1.6-2.4,3.7-4.5,7.7-4.5
			c3.9,0,6.4,2.1,7.7,4.8c1.7-2.6,4.3-4.8,8.4-4.8c5.5,0,8.9,3.7,8.9,9.6v13.2c0,1-0.8,1.8-1.8,1.8c-1,0-1.8-0.8-1.8-1.8v-12.4
			c0-4.6-2.3-7.2-6.2-7.2c-3.6,0-6.6,2.7-6.6,7.4v12.2c0,1-0.8,1.8-1.8,1.8c-1,0-1.8-0.8-1.8-1.8v-12.5c0-4.5-2.4-7.1-6.1-7.1
			c-3.8,0-6.7,3.1-6.7,7.5v12.1c0,1-0.7,1.8-1.8,1.8c-1,0-1.8-0.8-1.8-1.8L-99.1,408.3L-99.1,408.3z"/>
		<path id="XMLID_998_" d="M-58.1,423.7L-58.1,423.7c0-5.1,4.2-7.8,10.2-7.8c3.1,0,5.2,0.4,7.3,1v-0.8c0-4.3-2.6-6.5-7.1-6.5
			c-2.4,0-4.4,0.6-6.2,1.3c-0.2,0.1-0.5,0.1-0.6,0.1c-0.8,0-1.6-0.7-1.6-1.5c0-0.7,0.5-1.3,1-1.5c2.4-1,4.8-1.6,7.8-1.6
			c3.4,0,6,0.9,7.7,2.6c1.6,1.6,2.4,3.9,2.4,7v13.1c0,1-0.7,1.8-1.7,1.8c-1,0-1.7-0.7-1.7-1.7V427c-1.7,2.2-4.4,4.1-8.6,4.1
			C-53.6,431.1-58.1,428.6-58.1,423.7z M-40.4,421.9v-2.3c-1.8-0.5-4.1-1-7-1c-4.5,0-7,1.9-7,4.9v0.1c0,3,2.8,4.8,6,4.8
			C-44.1,428.3-40.4,425.6-40.4,421.9z"/>
		<path id="XMLID_1001_" d="M-30.4,408.3c0-1,0.8-1.8,1.8-1.8c1,0,1.8,0.8,1.8,1.8v4.5c1.8-4,5.2-6.4,8.2-6.4c1.1,0,1.8,0.8,1.8,1.8
			c0,1-0.6,1.7-1.6,1.8c-4.6,0.6-8.4,4-8.4,10.9v8.1c0,1-0.7,1.8-1.8,1.8c-1,0-1.8-0.8-1.8-1.8L-30.4,408.3L-30.4,408.3z"/>
		<path id="XMLID_1003_" d="M-13,399.3c0-1.2,0.9-1.9,2.1-1.9c1.2,0,2.1,0.7,2.1,1.9v0.6c0,1.1-0.9,1.9-2.1,1.9
			c-1.2,0-2.1-0.8-2.1-1.9V399.3z"/>
		<path id="XMLID_1004_" d="M-12.7,408.3c0-1,0.8-1.8,1.8-1.8c1,0,1.8,0.8,1.8,1.8v20.8c0,1-0.7,1.8-1.8,1.8c-1,0-1.8-0.8-1.8-1.8
			V408.3z"/>
		<path id="XMLID_1005_" d="M-3.7,428.1l7.8-9.6l-7.4-9c-0.4-0.4-0.6-0.8-0.6-1.3c0-1,0.7-1.7,1.7-1.7c0.7,0,1.2,0.3,1.6,0.8
			l6.9,8.7l6.8-8.7c0.4-0.5,0.9-0.9,1.5-0.9c0.9,0,1.6,0.7,1.6,1.6c0,0.5-0.2,0.8-0.5,1.2l-7.4,9.1l7.8,9.5c0.3,0.4,0.5,0.8,0.5,1.3
			c0,1-0.7,1.7-1.7,1.7c-0.7,0-1.2-0.3-1.6-0.8l-7.3-9.2L-1,430c-0.4,0.5-0.9,0.9-1.5,0.9c-0.9,0-1.6-0.7-1.6-1.6
			C-4.2,428.8-4,428.4-3.7,428.1z"/>
	</g>
	<g class="st6">
		<path d="M-126,442.8v-5.4c0-0.3,0.3-0.6,0.6-0.6h3.8c0.3,0,0.5,0.2,0.5,0.5c0,0.3-0.2,0.5-0.5,0.5h-3.2v1.7h2.8
			c0.3,0,0.5,0.2,0.5,0.5c0,0.3-0.2,0.5-0.5,0.5h-2.8v1.8h3.3c0.3,0,0.5,0.2,0.5,0.5c0,0.3-0.2,0.5-0.5,0.5h-3.9
			C-125.7,443.4-126,443.1-126,442.8z"/>
		<path d="M-119.8,438.9c0-0.3,0.2-0.6,0.6-0.6c0.3,0,0.6,0.3,0.6,0.6v0.2c0.3-0.5,0.8-0.9,1.5-0.9c1.1,0,1.8,0.8,1.8,1.9v2.6
			c0,0.3-0.2,0.6-0.6,0.6s-0.6-0.2-0.6-0.6v-2.3c0-0.8-0.4-1.2-1.1-1.2c-0.7,0-1.1,0.5-1.1,1.2v2.3c0,0.3-0.3,0.6-0.6,0.6
			c-0.3,0-0.6-0.2-0.6-0.6L-119.8,438.9L-119.8,438.9z"/>
		<path d="M-112.1,443.5L-112.1,443.5c-0.4,0-0.6-0.2-0.7-0.5l-1.7-3.8c0-0.1-0.1-0.2-0.1-0.3c0-0.3,0.3-0.5,0.6-0.5
			c0.3,0,0.5,0.2,0.6,0.4l1.3,3.3l1.3-3.3c0.1-0.2,0.2-0.4,0.5-0.4c0.3,0,0.6,0.2,0.6,0.5c0,0.1,0,0.2-0.1,0.3l-1.7,3.8
			C-111.5,443.3-111.8,443.5-112.1,443.5z"/>
		<path d="M-108.7,437.1c0-0.3,0.3-0.6,0.6-0.6c0.4,0,0.6,0.2,0.6,0.6v0.1c0,0.3-0.3,0.6-0.6,0.6
			C-108.4,437.7-108.7,437.5-108.7,437.1L-108.7,437.1z M-108.6,438.9c0-0.3,0.2-0.6,0.6-0.6s0.6,0.3,0.6,0.6v3.9
			c0,0.3-0.3,0.6-0.6,0.6c-0.3,0-0.6-0.2-0.6-0.6V438.9z"/>
		<path d="M-106.1,442.9c-0.1-0.1-0.2-0.2-0.2-0.4c0-0.3,0.2-0.5,0.5-0.5c0.1,0,0.2,0,0.2,0.1c0.5,0.3,1,0.5,1.4,0.5
			c0.5,0,0.8-0.2,0.8-0.5v0c0-0.4-0.5-0.5-1.1-0.7c-0.7-0.2-1.5-0.5-1.5-1.5v0c0-0.9,0.8-1.5,1.8-1.5c0.5,0,1.1,0.1,1.6,0.4
			c0.2,0.1,0.3,0.2,0.3,0.4c0,0.3-0.2,0.5-0.5,0.5c-0.1,0-0.2,0-0.2-0.1c-0.4-0.2-0.8-0.3-1.2-0.3c-0.4,0-0.7,0.2-0.7,0.5v0
			c0,0.4,0.5,0.5,1.1,0.7c0.7,0.2,1.5,0.6,1.5,1.4v0c0,1-0.8,1.6-1.8,1.6C-104.9,443.5-105.6,443.3-106.1,442.9z"/>
		<path d="M-101.3,437.1c0-0.3,0.3-0.6,0.6-0.6s0.6,0.2,0.6,0.6v0.1c0,0.3-0.3,0.6-0.6,0.6S-101.3,437.5-101.3,437.1L-101.3,437.1z
			 M-101.2,438.9c0-0.3,0.2-0.6,0.6-0.6s0.6,0.3,0.6,0.6v3.9c0,0.3-0.3,0.6-0.6,0.6c-0.3,0-0.6-0.2-0.6-0.6V438.9z"/>
		<path d="M-98.9,440.9L-98.9,440.9c0-1.4,1.1-2.6,2.6-2.6s2.6,1.2,2.6,2.6v0c0,1.4-1.1,2.6-2.7,2.6
			C-97.7,443.5-98.9,442.3-98.9,440.9z M-94.7,440.9L-94.7,440.9c0-0.9-0.6-1.6-1.5-1.6c-0.9,0-1.5,0.7-1.5,1.6v0
			c0,0.9,0.6,1.6,1.5,1.6C-95.3,442.5-94.7,441.8-94.7,440.9z"/>
		<path d="M-92.4,438.9c0-0.3,0.2-0.6,0.6-0.6c0.3,0,0.6,0.3,0.6,0.6v0.2c0.3-0.5,0.8-0.9,1.5-0.9c1.1,0,1.8,0.8,1.8,1.9v2.6
			c0,0.3-0.2,0.6-0.6,0.6s-0.6-0.2-0.6-0.6v-2.3c0-0.8-0.4-1.2-1.1-1.2c-0.7,0-1.1,0.5-1.1,1.2v2.3c0,0.3-0.3,0.6-0.6,0.6
			c-0.3,0-0.6-0.2-0.6-0.6L-92.4,438.9L-92.4,438.9z"/>
	</g>
	<g class="st6">
		<path d="M-80.3,440.3c0.4,0,0.7,0.3,0.7,0.6v0.1c0,0.4-0.3,0.6-0.7,0.6c-0.4,0-0.7-0.3-0.7-0.6V441
			C-81,440.6-80.7,440.3-80.3,440.3z"/>
	</g>
	<g class="st6">
		<path d="M-72.6,437.3c0-0.3,0.3-0.6,0.6-0.6c0.3,0,0.6,0.3,0.6,0.6v5h3c0.3,0,0.5,0.2,0.5,0.5c0,0.3-0.2,0.5-0.5,0.5H-72
			c-0.3,0-0.6-0.3-0.6-0.6V437.3z"/>
		<path d="M-64.7,443.5c-1.4,0-2.5-1-2.5-2.6v0c0-1.4,1-2.6,2.4-2.6c1.6,0,2.4,1.3,2.4,2.4c0,0.3-0.2,0.5-0.5,0.5h-3.1
			c0.1,0.8,0.7,1.3,1.4,1.3c0.5,0,0.9-0.2,1.2-0.4c0.1-0.1,0.2-0.1,0.3-0.1c0.3,0,0.4,0.2,0.4,0.5c0,0.1-0.1,0.3-0.1,0.3
			C-63.4,443.2-64,443.5-64.7,443.5z M-63.6,440.5c-0.1-0.7-0.5-1.3-1.3-1.3c-0.7,0-1.2,0.5-1.3,1.3H-63.6z"/>
		<path d="M-59.5,443.5L-59.5,443.5c-0.4,0-0.6-0.2-0.7-0.5l-1.6-3.8c0-0.1-0.1-0.2-0.1-0.3c0-0.3,0.3-0.5,0.6-0.5
			c0.3,0,0.5,0.2,0.6,0.4l1.3,3.3l1.3-3.3c0.1-0.2,0.2-0.4,0.5-0.4c0.3,0,0.6,0.2,0.6,0.5c0,0.1,0,0.2-0.1,0.3l-1.6,3.8
			C-59,443.3-59.2,443.5-59.5,443.5z"/>
		<path d="M-54,443.5c-1.4,0-2.5-1-2.5-2.6v0c0-1.4,1-2.6,2.4-2.6c1.6,0,2.4,1.3,2.4,2.4c0,0.3-0.2,0.5-0.5,0.5h-3.1
			c0.1,0.8,0.7,1.3,1.4,1.3c0.5,0,0.9-0.2,1.2-0.4c0.1-0.1,0.2-0.1,0.3-0.1c0.3,0,0.4,0.2,0.4,0.5c0,0.1-0.1,0.3-0.1,0.3
			C-52.7,443.2-53.2,443.5-54,443.5z M-52.9,440.5c-0.1-0.7-0.5-1.3-1.3-1.3c-0.7,0-1.2,0.5-1.3,1.3H-52.9z"/>
		<path d="M-50.6,438.9c0-0.3,0.2-0.6,0.6-0.6s0.6,0.3,0.6,0.6v0.5c0.3-0.6,0.8-1.1,1.2-1.1c0.4,0,0.6,0.2,0.6,0.6
			c0,0.3-0.2,0.5-0.5,0.5c-0.8,0.1-1.4,0.8-1.4,1.9v1.5c0,0.3-0.3,0.6-0.6,0.6c-0.3,0-0.6-0.2-0.6-0.6V438.9z"/>
		<path d="M-47.3,441.9L-47.3,441.9c0-1.1,0.8-1.6,2-1.6c0.6,0,0.9,0.1,1.3,0.2v-0.1c0-0.7-0.4-1.1-1.2-1.1c-0.4,0-0.8,0.1-1.1,0.2
			c-0.1,0-0.1,0-0.2,0c-0.3,0-0.5-0.2-0.5-0.5c0-0.2,0.1-0.4,0.3-0.5c0.5-0.2,0.9-0.3,1.6-0.3c0.7,0,1.3,0.2,1.6,0.6
			c0.4,0.4,0.5,0.9,0.5,1.5v2.4c0,0.3-0.2,0.5-0.6,0.5c-0.3,0-0.6-0.2-0.6-0.5v-0.2c-0.3,0.4-0.9,0.7-1.6,0.7
			C-46.5,443.5-47.3,442.9-47.3,441.9z M-43.9,441.6v-0.3c-0.3-0.1-0.7-0.2-1.1-0.2c-0.7,0-1.2,0.3-1.2,0.8v0c0,0.5,0.4,0.8,1,0.8
			C-44.5,442.7-43.9,442.2-43.9,441.6z"/>
		<path d="M-41.2,444.4c-0.2-0.1-0.3-0.2-0.3-0.4c0-0.3,0.2-0.5,0.5-0.5c0.1,0,0.1,0,0.2,0c0.4,0.3,0.9,0.4,1.5,0.4
			c1,0,1.6-0.5,1.6-1.5v-0.4c-0.4,0.5-0.9,0.9-1.7,0.9c-1.2,0-2.3-0.9-2.3-2.3v0c0-1.5,1.1-2.3,2.3-2.3c0.8,0,1.3,0.4,1.7,0.8v-0.2
			c0-0.3,0.3-0.6,0.6-0.6c0.3,0,0.6,0.3,0.6,0.6v3.4c0,0.8-0.2,1.5-0.6,1.9c-0.4,0.4-1.1,0.7-2,0.7C-40,444.9-40.6,444.7-41.2,444.4
			z M-37.7,440.7L-37.7,440.7c0-0.8-0.7-1.4-1.5-1.4c-0.8,0-1.4,0.5-1.4,1.4v0c0,0.8,0.6,1.4,1.4,1.4
			C-38.4,442-37.7,441.5-37.7,440.7z"/>
		<path d="M-32.9,443.5c-1.4,0-2.5-1-2.5-2.6v0c0-1.4,1-2.6,2.4-2.6c1.6,0,2.4,1.3,2.4,2.4c0,0.3-0.2,0.5-0.5,0.5h-3.1
			c0.1,0.8,0.7,1.3,1.4,1.3c0.5,0,0.9-0.2,1.2-0.4c0.1-0.1,0.2-0.1,0.3-0.1c0.3,0,0.4,0.2,0.4,0.5c0,0.1-0.1,0.3-0.1,0.3
			C-31.6,443.2-32.1,443.5-32.9,443.5z M-31.8,440.5c-0.1-0.7-0.5-1.3-1.3-1.3c-0.7,0-1.2,0.5-1.3,1.3H-31.8z"/>
	</g>
	<g class="st6">
		<path d="M-22.6,440.3c0.4,0,0.7,0.3,0.7,0.6v0.1c0,0.4-0.3,0.6-0.7,0.6c-0.4,0-0.7-0.3-0.7-0.6V441
			C-23.3,440.6-23,440.3-22.6,440.3z"/>
	</g>
	<g class="st6">
		<path d="M-14.8,437.3c0-0.3,0.3-0.6,0.6-0.6c0.3,0,0.6,0.3,0.6,0.6v5.5c0,0.3-0.3,0.6-0.6,0.6c-0.3,0-0.6-0.3-0.6-0.6V437.3z"/>
		<path d="M-12,438.9c0-0.3,0.2-0.6,0.6-0.6c0.3,0,0.6,0.3,0.6,0.6v0.2c0.3-0.5,0.8-0.9,1.5-0.9c1.1,0,1.8,0.8,1.8,1.9v2.6
			c0,0.3-0.2,0.6-0.6,0.6s-0.6-0.2-0.6-0.6v-2.3c0-0.8-0.4-1.2-1.1-1.2c-0.7,0-1.1,0.5-1.1,1.2v2.3c0,0.3-0.3,0.6-0.6,0.6
			c-0.3,0-0.6-0.2-0.6-0.6V438.9z"/>
		<path d="M-6,439.4h-0.2c-0.3,0-0.5-0.2-0.5-0.5c0-0.3,0.2-0.5,0.5-0.5H-6v-0.4c0-0.5,0.1-1,0.4-1.2s0.6-0.4,1.1-0.4
			c0.2,0,0.4,0,0.6,0c0.2,0,0.4,0.2,0.4,0.5c0,0.3-0.2,0.5-0.5,0.5c-0.1,0-0.2,0-0.2,0c-0.4,0-0.7,0.2-0.7,0.8v0.3H-4
			c0.3,0,0.5,0.2,0.5,0.5c0,0.3-0.2,0.5-0.5,0.5h-0.9v3.5c0,0.3-0.3,0.6-0.6,0.6c-0.3,0-0.6-0.3-0.6-0.6L-6,439.4L-6,439.4z
			 M-2.7,437.1c0-0.3,0.3-0.6,0.6-0.6c0.4,0,0.6,0.2,0.6,0.6v0.1c0,0.3-0.3,0.6-0.6,0.6C-2.4,437.7-2.7,437.5-2.7,437.1L-2.7,437.1z
			 M-2.6,438.9c0-0.3,0.2-0.6,0.6-0.6c0.3,0,0.6,0.3,0.6,0.6v3.9c0,0.3-0.3,0.6-0.6,0.6c-0.3,0-0.6-0.2-0.6-0.6V438.9z"/>
		<path d="M0,438.9c0-0.3,0.2-0.6,0.6-0.6c0.3,0,0.6,0.3,0.6,0.6v0.2c0.3-0.5,0.8-0.9,1.5-0.9c1.1,0,1.8,0.8,1.8,1.9v2.6
			c0,0.3-0.2,0.6-0.6,0.6c-0.3,0-0.6-0.2-0.6-0.6v-2.3c0-0.8-0.4-1.2-1.1-1.2c-0.7,0-1.1,0.5-1.1,1.2v2.3c0,0.3-0.3,0.6-0.6,0.6
			c-0.3,0-0.6-0.2-0.6-0.6L0,438.9L0,438.9z"/>
		<path d="M5.8,437.1c0-0.3,0.3-0.6,0.6-0.6s0.6,0.2,0.6,0.6v0.1c0,0.3-0.3,0.6-0.6,0.6S5.8,437.5,5.8,437.1L5.8,437.1z M5.8,438.9
			c0-0.3,0.2-0.6,0.6-0.6s0.6,0.3,0.6,0.6v3.9c0,0.3-0.3,0.6-0.6,0.6c-0.3,0-0.6-0.2-0.6-0.6V438.9z"/>
		<path d="M8.7,442v-2.6H8.5c-0.3,0-0.5-0.2-0.5-0.5c0-0.3,0.2-0.5,0.5-0.5h0.2v-0.8c0-0.3,0.3-0.6,0.6-0.6c0.3,0,0.6,0.3,0.6,0.6
			v0.8h0.9c0.3,0,0.5,0.2,0.5,0.5c0,0.3-0.2,0.5-0.5,0.5H9.8v2.4c0,0.4,0.2,0.6,0.6,0.6c0.1,0,0.2,0,0.3,0c0.3,0,0.5,0.2,0.5,0.5
			c0,0.2-0.1,0.4-0.3,0.4c-0.2,0.1-0.5,0.1-0.8,0.1C9.3,443.5,8.7,443.1,8.7,442z"/>
		<path d="M14.4,443.5c-1.4,0-2.5-1-2.5-2.6v0c0-1.4,1-2.6,2.4-2.6c1.6,0,2.4,1.3,2.4,2.4c0,0.3-0.2,0.5-0.5,0.5H13
			c0.1,0.8,0.7,1.3,1.4,1.3c0.5,0,0.9-0.2,1.2-0.4c0.1-0.1,0.2-0.1,0.3-0.1c0.3,0,0.4,0.2,0.4,0.5c0,0.1-0.1,0.3-0.1,0.3
			C15.8,443.2,15.2,443.5,14.4,443.5z M15.6,440.5c-0.1-0.7-0.5-1.3-1.3-1.3c-0.7,0-1.2,0.5-1.3,1.3H15.6z"/>
	</g>
</g>
</svg>
