<svg xmlns="http://www.w3.org/2000/svg" width="28.5" height="19" viewBox="0 0 28.5 19"><defs><style>.a{fill:#f0f0f0;}.b{fill:#d80027;}.c{fill:#2e52b2;}</style></defs><g transform="translate(0 -85.331)"><rect class="a" width="28.5" height="19" transform="translate(0 85.331)"/><g transform="translate(0 87.706)"><rect class="b" width="28.5" height="2.375" transform="translate(0 0)"/><rect class="b" width="28.5" height="2.375" transform="translate(0 4.75)"/><rect class="b" width="28.5" height="2.375" transform="translate(0 9.5)"/><rect class="b" width="28.5" height="2.375" transform="translate(0 14.25)"/></g><rect class="c" width="14.25" height="10.231" transform="translate(0 85.331)"/><g transform="translate(1.447 86.974)"><path class="a" d="M83.335,160.624l-.229.706h-.742l.6.436-.229.706.6-.436.6.436-.229-.706.6-.436h-.742Z" transform="translate(-79.226 -158.076)"/><path class="a" d="M83.564,207.1l-.229-.706-.229.706h-.742l.6.436-.229.706.6-.436.6.436-.229-.706.6-.436Z" transform="translate(-79.226 -201.301)"/><path class="a" d="M27.2,207.1l-.229-.706-.23.706H26l.6.436-.229.706.6-.436.6.436-.229-.706.6-.436Z" transform="translate(-26.001 -201.301)"/><path class="a" d="M26.973,160.624l-.23.706H26l.6.436-.229.706.6-.436.6.436-.229-.706.6-.436H27.2Z" transform="translate(-26.001 -158.076)"/><path class="a" d="M83.335,114.85l-.229.706h-.742l.6.436-.229.706.6-.436.6.436-.229-.706.6-.436h-.742Z" transform="translate(-79.226 -114.85)"/><path class="a" d="M26.973,114.85l-.23.706H26l.6.436-.229.706.6-.436.6.436-.229-.706.6-.436H27.2Z" transform="translate(-26.001 -114.85)"/><path class="a" d="M139.7,160.624l-.229.706h-.742l.6.436-.229.706.6-.436.6.436-.23-.706.6-.436h-.742Z" transform="translate(-132.45 -158.076)"/><path class="a" d="M139.926,207.1l-.229-.706-.229.706h-.742l.6.436-.229.706.6-.436.6.436-.23-.706.6-.436Z" transform="translate(-132.45 -201.301)"/><path class="a" d="M196.289,207.1l-.229-.706-.23.706h-.742l.6.436-.229.706.6-.436.6.436-.23-.706.6-.436Z" transform="translate(-185.676 -201.301)"/><path class="a" d="M196.06,160.624l-.23.706h-.742l.6.436-.229.706.6-.436.6.436-.23-.706.6-.436h-.742Z" transform="translate(-185.676 -158.076)"/><path class="a" d="M139.7,114.85l-.229.706h-.742l.6.436-.229.706.6-.436.6.436-.23-.706.6-.436h-.742Z" transform="translate(-132.45 -114.85)"/><path class="a" d="M196.06,114.85l-.23.706h-.742l.6.436-.229.706.6-.436.6.436-.23-.706.6-.436h-.742Z" transform="translate(-185.676 -114.85)"/></g></g></svg>