<svg id="nodejs-service" xmlns="http://www.w3.org/2000/svg" width="351.5" height="403.492" viewBox="0 0 351.5 403.492">
  <path id="Path_1114" data-name="Path 1114" d="M-104.421,695.014-243.6,600.931V436.482l134.126-76.2a12.392,12.392,0,0,1,11.663,0L28.927,436.871c3.5,1.944,5.443,5.832,5.443,10.108V611.428Z" transform="translate(261.095 -310.274)" fill="#a0e4d5"/>
  <g id="Group_1266" data-name="Group 1266" transform="translate(0.389)">
    <path id="Path_1115" data-name="Path 1115" d="M-81.607,738.463l-53.65-32.268a9.591,9.591,0,0,1-3.5-13.218h0a9.591,9.591,0,0,1,13.218-3.5l43.931,26.048a11.252,11.252,0,0,0,12.052,0l138.4-83.974c3.5-1.944,5.443-5.832,5.443-10.108V463.6a11.727,11.727,0,0,0-5.443-10.108L-69.944,369.52a11.421,11.421,0,0,0-11.663-.389L-222.73,447.663c-3.888,1.944-5.832,5.832-5.832,10.108V614.834a12.219,12.219,0,0,0,5.443,10.108l40.821,24.492c8.553,5.443,20.993,5.443,31.49,0,4.276-2.333,13.607-8.553,13.607-19.827l-.389-145.789a9.625,9.625,0,0,1,9.719-9.719h0a9.625,9.625,0,0,1,9.719,9.719l.389,145.789c0,15.162-8.942,29.158-23.715,36.933-16.717,8.942-36.544,8.942-50.929-.389l-50.151-29.546c-3.5-1.944-5.443-5.832-5.443-10.108V447.274a11.6,11.6,0,0,1,5.832-10.108l160.951-89.417a11.421,11.421,0,0,1,11.663.389l157.84,95.637c3.5,1.944,5.443,5.832,5.443,10.108V633.5A12.219,12.219,0,0,1,88.286,643.6L-69.555,739.24A13.318,13.318,0,0,1-81.607,738.463Z" transform="translate(256.882 -337.454)" fill="#fff" stroke="#707070" stroke-width="1"/>
    <path id="Path_1117" data-name="Path 1117" d="M-81.607,738.463l-53.65-32.268a9.591,9.591,0,0,1-3.5-13.218h0a9.591,9.591,0,0,1,13.218-3.5l43.931,26.048a11.252,11.252,0,0,0,12.052,0l138.4-83.974c3.5-1.944,5.443-5.832,5.443-10.108V463.6a11.727,11.727,0,0,0-5.443-10.108L-69.944,369.52a11.421,11.421,0,0,0-11.663-.389L-222.73,447.663c-3.888,1.944-5.832,5.832-5.832,10.108V614.834a12.219,12.219,0,0,0,5.443,10.108l40.821,24.492c8.553,5.443,20.993,5.443,31.49,0,4.276-2.333,13.607-8.553,13.607-19.827l-.389-145.789a9.625,9.625,0,0,1,9.719-9.719h0a9.625,9.625,0,0,1,9.719,9.719l.389,145.789c0,15.162-8.942,29.158-23.715,36.933-16.717,8.942-36.544,8.942-50.929-.389l-50.151-29.546c-3.5-1.944-5.443-5.832-5.443-10.108V447.274a11.6,11.6,0,0,1,5.832-10.108l160.951-89.417a11.421,11.421,0,0,1,11.663.389l157.84,95.637c3.5,1.944,5.443,5.832,5.443,10.108V633.5A12.219,12.219,0,0,1,88.286,643.6L-69.555,739.24A13.318,13.318,0,0,1-81.607,738.463Z" transform="translate(248 -346.337)" fill="#373f54"/>
  </g>
  <g id="Group_1267" data-name="Group 1267" transform="translate(149.702 130.957)">
    <path id="Path_1116" data-name="Path 1116" d="M-140.807,530.78a181.147,181.147,0,0,1-26.825-1.944c-13.218-1.944-33.823-10.108-41.21-27.214-2.721-6.22,2.333-12.829,8.942-12.829h1.166a9.441,9.441,0,0,1,8.164,5.443c5.443,12.052,25.659,15.551,26.048,15.551,12.829,1.944,49.374,4.276,66.091-7,4.665-3.11,7.387-7,7.775-11.274,1.166-7.775-3.888-15.939-12.052-18.661a165.508,165.508,0,0,0-30.324-7,281.915,281.915,0,0,1-43.931-10.5,39.171,39.171,0,0,1-25.659-46.652v-.389c7-25.659,43.931-27.991,48.207-27.991,7.775-.389,45.486-2.333,62.592,12.052,5.832,4.665,10.886,19.05,12.441,28.38v2.721c-1.166,7.775-11.663,9.33-15.94,3.11a4.415,4.415,0,0,1-1.166-3.11c-.778-5.832-2.721-13.218-8.553-17.106-9.719-6.22-29.546-7.775-47.819-6.609-8.942.389-27.991,4.276-30.713,14v.389c-2.721,9.719,3.11,20.216,12.829,23.326a220.733,220.733,0,0,0,40.432,9.719A170.267,170.267,0,0,1-96.1,454.97c17.106,5.832,27.6,22.549,24.881,40.043-1.555,9.719-7,18.272-15.94,24.492C-101.93,528.447-123.312,530.78-140.807,530.78Z" transform="translate(209.593 -380.022)" fill="#373f54"/>
  </g>
  <circle id="Ellipse_126" data-name="Ellipse 126" cx="20.216" cy="20.216" r="20.216" transform="translate(0 10.743)" fill="#a0e4d5"/>
  <circle id="Ellipse_127" data-name="Ellipse 127" cx="20.216" cy="20.216" r="20.216" transform="translate(0.345 336.251)" fill="#a0e4d5"/>
  <circle id="Ellipse_128" data-name="Ellipse 128" cx="8.164" cy="8.164" r="8.164" transform="translate(50.107 368.131)" fill="#a0e4d5"/>
</svg>
