<svg xmlns="http://www.w3.org/2000/svg" width="153.041" height="152.004" viewBox="0 0 153.041 152.004">
  <g id="pointer-de" transform="matrix(-0.629, 0.777, -0.777, -0.629, 153.041, 70.453)">
    <path id="Path_3311" data-name="Path 3311" d="M63.971,100.375h2.957c.623,0,1.557.155,1.557-.779,0-.778-.779-.934-1.4-1.089a43.675,43.675,0,0,0-7.63-1.4C46.224,95.548,34.7,90.412,25.363,80.6c-7.16-7.628-12.3-16.344-13.854-27.087a27.517,27.517,0,0,1,1.246-12.3c.466-1.557.934-1.4,2.023-.468,6.537,4.826,13.544,7.939,21.95,7.473a11.9,11.9,0,0,0,7.162-2.648c6.383-4.826,6.071-14.788-.468-19.614-6.071-4.359-12.61-4.048-19.148-1.246a24.037,24.037,0,0,0-10.742,8.874c-.934,1.246-1.4,1.246-2.18.155C3.725,24.4-.012,14.287,4.347,2.3c.155-.466.468-.934,0-1.557C3.57-.035,3.1-.5,2.479.9A28.454,28.454,0,0,0,1.545,21.76,38.32,38.32,0,0,0,9.952,36.394a2.181,2.181,0,0,1,.623,2.8,30.586,30.586,0,0,0-.468,22.573c7.318,20.238,21.484,33.158,42.811,37.517C56.342,100.064,60.235,100.064,63.971,100.375ZM75.179,86.052a54.875,54.875,0,0,0,1.246,7.005c1.4,5.6,2.957,11.052,4.669,16.5.934,2.8,1.868,3.114,4.048,1.091,5.916-5.137,11.831-10.43,17.9-15.569,1.868-1.555,1.557-3.89,1.868-5.915.156-.466-.466-.623-.934-.623-8.717-1.868-17.436-3.579-26.308-4.826-1.868-.31-2.491.468-2.491,2.336Z" transform="translate(0 0)"/>
    <path id="Path_3314" data-name="Path 3314" d="M5.41,0a1.657,1.657,0,0,0-.779.31A27.21,27.21,0,0,0,.273,5.448c-.311.466-.468.934.155,1.4a1.188,1.188,0,0,0,1.246,0A22.207,22.207,0,0,0,6.5,2.335,1.342,1.342,0,0,0,5.41,0Z" transform="translate(67.435 102.866)"/>
    <path id="Path_3315" data-name="Path 3315" d="M1.658,0C.879,0,.412,0,.1.468c-.311.623.155.934.623,1.246A23.088,23.088,0,0,0,7.106,4.359a1.41,1.41,0,0,0,1.557-.468A.716.716,0,0,0,8.2,2.8C6.017,1.713,3.681.779,1.658,0Z" transform="translate(63.559 89.478)"/>
    <path id="Path_3323" data-name="Path 3323" d="M17.357,0C10.352.466,4.592,3.891.39,10.274c-.468.623-.623,1.089.155,1.712,6.383,4.826,13.233,8.251,21.484,7.473,4.359-.468,7.472-2.959,8.406-6.694a10.082,10.082,0,0,0-4.358-10.43A14.98,14.98,0,0,0,17.357,0Z" transform="translate(15.011 25.807)" fill="#fefefe"/>
    <path id="Path_3324" data-name="Path 3324" d="M20.4,0C14.643,1.713,8.727,3.425,2.967,5.139-.3,6.071-.3,6.071.321,9.341c.466,2.335.934,4.514,1.557,7.16C8.26,11.053,14.332,5.6,20.559.313,20.4.313,20.4.156,20.4,0Z" transform="translate(81.241 92.9)" fill="#fdfefe"/>
    <path id="Path_3325" data-name="Path 3325" d="M21.07,3.932C14.376,2.687,7.527,1.285.833.039.054-.115-.1.194.054.819.677,3.621,1.3,6.267,2.079,9.069c.155.778.621.623,1.244.466,5.916-1.712,11.987-3.58,17.9-5.293-.156,0-.156-.155-.156-.31Z" transform="translate(78.083 86.787)" fill="#fdfdfe"/>
  </g>
</svg>
