<svg xmlns="http://www.w3.org/2000/svg" width="179.393" height="179.408" viewBox="0 0 179.393 179.408">
  <g id="que" transform="translate(-18.837 -18.836)">
    <path id="Rounded_Rectangle_1_copy_9" data-name="Rounded Rectangle 1 copy 9" d="M384.164,8779.8l82.4,82.414a6.2,6.2,0,0,1,0,8.766l-84.592,84.6a6.213,6.213,0,0,1-8.765,0l-82.4-82.414a6.2,6.2,0,0,1,0-8.768l84.592-84.6a6.2,6.2,0,0,1,8.765,0Z" transform="translate(-270.154 -8759.152)" fill="#1d1e31" fill-rule="evenodd" opacity="0.05"/>
    <g id="Group_2605" data-name="Group 2605" transform="translate(63.497 42.648)">
      <path id="Forma_1" data-name="Forma 1" d="M498.328,8903.182m-59.252-45.346-26.347-53.983a6.309,6.309,0,0,0-8.923-3.069l-77.958,38.055a6.317,6.317,0,0,0-3.07,8.935l40.977,83.974,12.282-35.707,59.97-29.279a6.3,6.3,0,0,0,3.071-8.927Z" transform="translate(-321.961 -8799.969)" fill="none" stroke="#1d1e31" stroke-width="8" fill-rule="evenodd"/>
      <path id="Forma_1-2" data-name="Forma 1" d="M387.408,8866.2h-3.082a1.48,1.48,0,0,0-1.54,1.595v3.2a1.485,1.485,0,0,0,1.54,1.6h3.082a1.485,1.485,0,0,0,1.54-1.6v-3.2a1.478,1.478,0,0,0-1.54-1.594Zm-1.541-35.2A14.084,14.084,0,0,0,372,8845.4a12.482,12.482,0,0,0,.155,2.4,1.633,1.633,0,0,0,2,1.279l2.927-.961a1.467,1.467,0,0,0,1.079-1.753v-.961a7.71,7.71,0,1,1,15.408,0c0,2.714-1.541,4-4.315,6.4-2.619,2.238-5.7,4.8-6.471,9.44a1.536,1.536,0,0,0,1.54,1.763h3.082a1.518,1.518,0,0,0,1.54-1.277c.463-1.922,1.849-3.21,4.16-4.963,2.928-2.406,6.625-5.438,6.625-11.36a14.083,14.083,0,0,0-13.867-14.4Z" transform="translate(-322.437 -8800.264)" fill="#1d1e31" stroke="#1d1e31" stroke-width="1" fill-rule="evenodd"/>
    </g>
  </g>
</svg>
