<svg xmlns="http://www.w3.org/2000/svg" width="110.346" height="102.549" viewBox="0 0 110.346 102.549">
  <g id="quotation-mark" transform="translate(0 -12.333)" opacity="0.02">
    <path id="Path_3388" data-name="Path 3388" d="M47.511,16.854V35.267a4.521,4.521,0,0,1-4.522,4.521c-8.91,0-13.756,9.138-14.428,27.174H42.989a4.522,4.522,0,0,1,4.522,4.522v38.879a4.521,4.521,0,0,1-4.522,4.52H4.521A4.52,4.52,0,0,1,0,110.362V71.484A99.7,99.7,0,0,1,2.587,47.9a56.746,56.746,0,0,1,8.028-18.666A39.189,39.189,0,0,1,24.258,16.766a38.829,38.829,0,0,1,18.733-4.433A4.52,4.52,0,0,1,47.511,16.854Zm58.314,22.934a4.523,4.523,0,0,0,4.522-4.521V16.854a4.522,4.522,0,0,0-4.522-4.521,37.551,37.551,0,0,0-32.376,16.9A56.775,56.775,0,0,0,65.421,47.9a99.775,99.775,0,0,0-2.586,23.583v38.879a4.521,4.521,0,0,0,4.522,4.52h38.467a4.521,4.521,0,0,0,4.52-4.52V71.484a4.522,4.522,0,0,0-4.52-4.522H91.6C92.263,48.926,97.039,39.788,105.824,39.788Z"/>
  </g>
</svg>
