<svg xmlns="http://www.w3.org/2000/svg" width="58.116" height="58.116" viewBox="0 0 58.116 58.116">
  <g id="team" transform="translate(-402 -2124)">
    <path id="Rectangle_766" data-name="Rectangle 766" d="M8.5,0h0A8.5,8.5,0,0,1,17,8.5V9a0,0,0,0,1,0,0H0A0,0,0,0,1,0,9V8.5A8.5,8.5,0,0,1,8.5,0Z" transform="translate(403 2173)" fill="#fe7d7d"/>
    <path id="Rectangle_767" data-name="Rectangle 767" d="M8.5,0h0A8.5,8.5,0,0,1,17,8.5V9a0,0,0,0,1,0,0H0A0,0,0,0,1,0,9V8.5A8.5,8.5,0,0,1,8.5,0Z" transform="translate(442 2173)" fill="#fe7d7d"/>
    <path id="Rectangle_768" data-name="Rectangle 768" d="M8.5,0h0A8.5,8.5,0,0,1,17,8.5V9a0,0,0,0,1,0,0H0A0,0,0,0,1,0,9V8.5A8.5,8.5,0,0,1,8.5,0Z" transform="translate(423 2136)" fill="#fe7d7d"/>
    <g id="team-2" data-name="team" transform="translate(402 2124)">
      <g id="Group_2755" data-name="Group 2755" transform="translate(24.215)">
        <path id="Path_3409" data-name="Path 3409" d="M14.843,9.686a4.843,4.843,0,1,1,4.843-4.843A4.857,4.857,0,0,1,14.843,9.686Zm0-7.265a2.288,2.288,0,0,0-2.422,2.422,2.288,2.288,0,0,0,2.422,2.422,2.288,2.288,0,0,0,2.422-2.422A2.288,2.288,0,0,0,14.843,2.422Z" transform="translate(-10)"/>
      </g>
      <g id="Group_2756" data-name="Group 2756" transform="translate(19.372 12.108)">
        <path id="Path_3410" data-name="Path 3410" d="M26.161,14.686a1.144,1.144,0,0,1-1.211-1.211V11.054a3.724,3.724,0,0,0-3.632-3.632H14.054a3.724,3.724,0,0,0-3.632,3.632v2.422a1.144,1.144,0,0,1-1.211,1.211A1.144,1.144,0,0,1,8,13.475V11.054A6,6,0,0,1,14.054,5h7.265a6,6,0,0,1,6.054,6.054v2.422A1.144,1.144,0,0,1,26.161,14.686Z" transform="translate(-8 -5)"/>
      </g>
      <g id="Group_2757" data-name="Group 2757" transform="translate(43.587 36.323)">
        <path id="Path_3411" data-name="Path 3411" d="M22.843,24.686a4.843,4.843,0,1,1,4.843-4.843A4.857,4.857,0,0,1,22.843,24.686Zm0-7.265a2.288,2.288,0,0,0-2.422,2.422,2.288,2.288,0,0,0,2.422,2.422,2.288,2.288,0,0,0,2.422-2.422A2.288,2.288,0,0,0,22.843,17.422Z" transform="translate(-18 -15)"/>
      </g>
      <g id="Group_2758" data-name="Group 2758" transform="translate(38.744 48.43)">
        <path id="Path_3412" data-name="Path 3412" d="M34.161,29.686a1.144,1.144,0,0,1-1.211-1.211V26.054a3.724,3.724,0,0,0-3.632-3.632H22.054a3.724,3.724,0,0,0-3.632,3.632v2.422a1.211,1.211,0,0,1-2.422,0V26.054A6,6,0,0,1,22.054,20h7.265a6,6,0,0,1,6.054,6.054v2.422A1.144,1.144,0,0,1,34.161,29.686Z" transform="translate(-16 -20)"/>
      </g>
      <g id="Group_2759" data-name="Group 2759" transform="translate(4.843 36.323)">
        <path id="Path_3413" data-name="Path 3413" d="M6.843,24.686a4.843,4.843,0,1,1,4.843-4.843A4.857,4.857,0,0,1,6.843,24.686Zm0-7.265a2.288,2.288,0,0,0-2.422,2.422,2.288,2.288,0,0,0,2.422,2.422,2.288,2.288,0,0,0,2.422-2.422A2.288,2.288,0,0,0,6.843,17.422Z" transform="translate(-2 -15)"/>
      </g>
      <g id="Group_2760" data-name="Group 2760" transform="translate(0 48.43)">
        <path id="Path_3414" data-name="Path 3414" d="M18.161,29.686a1.144,1.144,0,0,1-1.211-1.211V26.054a3.724,3.724,0,0,0-3.632-3.632H6.054a3.724,3.724,0,0,0-3.632,3.632v2.422a1.144,1.144,0,0,1-1.211,1.211A1.144,1.144,0,0,1,0,28.475V26.054A6,6,0,0,1,6.054,20h7.265a6,6,0,0,1,6.054,6.054v2.422A1.144,1.144,0,0,1,18.161,29.686Z" transform="translate(0 -20)"/>
      </g>
      <g id="Group_2761" data-name="Group 2761" transform="translate(19.35 24.215)">
        <path id="Path_3415" data-name="Path 3415" d="M9.224,26.951a1.258,1.258,0,0,1-.969-.484,1.2,1.2,0,0,1,.242-1.7l7.991-5.812V11.211a1.211,1.211,0,0,1,2.422,0v8.475a1.258,1.258,0,0,1-.484.969L9.95,26.708a.89.89,0,0,1-.726.242Z" transform="translate(-7.991 -10)"/>
      </g>
      <g id="Group_2762" data-name="Group 2762" transform="translate(27.826 32.669)">
        <path id="Path_3416" data-name="Path 3416" d="M21.2,21.988a.89.89,0,0,1-.726-.242L12,15.692a1.211,1.211,0,1,1,1.453-1.937l8.475,6.054a1.2,1.2,0,0,1,.242,1.7A1.258,1.258,0,0,1,21.2,21.988Z" transform="translate(-11.491 -13.491)"/>
      </g>
    </g>
  </g>
</svg>
