<svg xmlns="http://www.w3.org/2000/svg" width="36.14" height="35.878" viewBox="0 0 36.14 35.878">
  <g id="Layer_2_16_" transform="translate(0 0)">
    <g id="Group_97" data-name="Group 97">
      <path id="Path_619" data-name="Path 619" d="M254.759,423.2c-.3.074-.6.14-.9.2a1.453,1.453,0,0,0,.529,2.857c.359-.067.721-.145,1.076-.234a1.453,1.453,0,0,0-.7-2.819Z" transform="translate(-233.038 -390.412)"/>
      <path id="Path_620" data-name="Path 620" d="M412.881,139.072a1.453,1.453,0,0,0,2.758-.913c-.115-.347-.242-.7-.378-1.034a1.453,1.453,0,1,0-2.7,1.079C412.678,138.488,412.785,138.78,412.881,139.072Z" transform="translate(-380.416 -125.759)"/>
      <path id="Path_621" data-name="Path 621" d="M322.381,394.152c-.256.169-.521.333-.787.486a1.453,1.453,0,1,0,1.452,2.517c.317-.183.632-.377.937-.579a1.453,1.453,0,0,0-1.6-2.424Z" transform="translate(-295.939 -363.44)"/>
      <path id="Path_622" data-name="Path 622" d="M430.539,208.707a1.453,1.453,0,1,0-2.9.114c.012.306.015.618.008.924a1.453,1.453,0,1,0,2.9.064C430.556,209.444,430.553,209.073,430.539,208.707Z" transform="translate(-394.412 -191.337)"/>
      <path id="Path_623" data-name="Path 623" d="M379.714,344.36a1.452,1.452,0,0,0-2.034.29c-.184.246-.379.489-.578.722a1.453,1.453,0,0,0,.164,2.048c.035.03.07.057.107.082a1.453,1.453,0,0,0,1.942-.246c.237-.279.469-.569.689-.862A1.453,1.453,0,0,0,379.714,344.36Z" transform="translate(-347.487 -317.47)"/>
      <path id="Path_624" data-name="Path 624" d="M415.971,279.419a1.453,1.453,0,0,0-1.821.952c-.092.293-.194.586-.3.874a1.453,1.453,0,0,0,2.715,1.035c.13-.342.251-.692.361-1.04A1.453,1.453,0,0,0,415.971,279.419Z" transform="translate(-381.608 -257.78)"/>
      <path id="Path_625" data-name="Path 625" d="M15.383,34.683A15,15,0,0,1,11.656,33.5c-.014-.007-.026-.016-.041-.022-.278-.131-.556-.271-.826-.418l0,0a15.5,15.5,0,0,1-1.445-.9A15.161,15.161,0,0,1,9.4,7.32l.052-.036a15.187,15.187,0,0,1,17.021-.136L25.34,8.787c-.316.456-.121.789.431.739L30.7,9.085a.812.812,0,0,0,.735-1.062L30.113,3.252c-.148-.535-.528-.6-.844-.142L28.132,4.753a17.942,17.942,0,0,0-13.148-2.8q-.7.121-1.376.294l-.009,0-.052.015A17.915,17.915,0,0,0,3.613,8.926c-.021.025-.042.049-.062.076-.082.111-.164.225-.244.338-.131.186-.26.377-.384.568-.015.023-.027.046-.041.07A17.912,17.912,0,0,0,.019,20.542c0,.012,0,.025,0,.037.016.364.045.734.085,1.1,0,.023.007.046.011.069.041.366.091.732.155,1.1a17.93,17.93,0,0,0,5.056,9.723l.019.019.007.006a18.306,18.306,0,0,0,2.315,1.934,17.914,17.914,0,0,0,7.2,3.015,1.453,1.453,0,0,0,.513-2.86Z" transform="translate(0 -1.688)"/>
      <path id="Path_626" data-name="Path 626" d="M207.163,83.2a1.176,1.176,0,0,0-1.176,1.175V96.085l10.711,5.537a1.175,1.175,0,0,0,1.079-2.088l-9.44-4.88V84.374A1.175,1.175,0,0,0,207.163,83.2Z" transform="translate(-189.984 -76.866)" fill="#ffbc00"/>
    </g>
  </g>
</svg>
