<svg id="Group_2351" data-name="Group 2351" xmlns="http://www.w3.org/2000/svg" xmlns:xlink="http://www.w3.org/1999/xlink" width="59.92" height="58.481" viewBox="0 0 59.92 58.481">
  <defs>
    <clipPath id="clip-path">
      <path id="Path_3372" data-name="Path 3372" d="M206.342,271.109a22.785,22.785,0,0,1-.392,4.055c-2.757,14.522-11.429,21.772-25.516,24.05a41.693,41.693,0,0,1-11.138.524,23.723,23.723,0,0,1-17.056-9.951c-8-11.277-8.2-29.107,2.227-38.956,4.8-4.529,15.474-8,21.9-9.065a21.388,21.388,0,0,1,16.816,3.983C200.691,251.416,206.424,261.434,206.342,271.109Z" transform="translate(-146.423 -241.433)" fill="none"/>
    </clipPath>
  </defs>
  <g id="Group_2350" data-name="Group 2350" transform="translate(0 0)" clip-path="url(#clip-path)">
    <path id="Path_3353" data-name="Path 3353" d="M210.465,271.187a34.318,34.318,0,1,1-34.318-34.318A34.318,34.318,0,0,1,210.465,271.187Z" transform="translate(-146.104 -241.117)" fill="#d1e1ff"/>
    <g id="Group_2349" data-name="Group 2349" transform="translate(2.909 4.297)">
      <g id="Group_2341" data-name="Group 2341">
        <path id="Path_3354" data-name="Path 3354" d="M165.51,254.251a3.159,3.159,0,0,1-.595,2.068c-.352.423-.87.675-1.259,1.064a2.447,2.447,0,0,0-.7,1.926c.219,2.449,2.905,3.467,3.147,5.843a11.293,11.293,0,0,0,3.939,7.425c2.692,2.356,6.636,3.066,10.023,3.083,3.482.017,6.064-1.225,7.57-4.5,1.327-2.883,2.584-5.081,3.077-8.221a55.77,55.77,0,0,0,.667-9.405,3.966,3.966,0,0,0-1.266-3.049c-1.295-1.047-3.537-.953-5.051-.513a2.884,2.884,0,0,1-2.112.165,2.756,2.756,0,0,1-.946-1.168c-1.417-2.454-4.652-4.109-7.051-1.862-.651.61-1.16,1.353-1.771,2a3.922,3.922,0,0,1-2.257,1.333,10.781,10.781,0,0,1-2.011-.146,3.171,3.171,0,0,0-3.071,1.489A5.7,5.7,0,0,0,165.51,254.251Z" transform="translate(-150.478 -246.05)" fill="#382c00"/>
        <path id="Path_3355" data-name="Path 3355" d="M189.117,266.638a16.167,16.167,0,0,0-.979-4.517,8.062,8.062,0,0,0-2.022-3.169c-1.02-.923-1.919-.718-3.208-.791a8.226,8.226,0,0,1-4.19-1.276,2.466,2.466,0,0,1-1.206.387c-4.832.313-9.762,3.449-9.816,8.129a21.114,21.114,0,0,1,.06,2.228c.385,1.578,1.563,3.146,1.66,4.762a12.6,12.6,0,0,0,.954.936c2.692,2.356,6.636,3.066,10.023,3.083,3.482.017,6.064-1.225,7.57-4.5.211-.459.419-.9.624-1.326a2.452,2.452,0,0,1,.589-1.352A22.947,22.947,0,0,0,189.117,266.638Z" transform="translate(-150.807 -246.801)" fill="#004dc9" opacity="0.5" style="mix-blend-mode: multiply;isolation: isolate"/>
        <path id="Path_3356" data-name="Path 3356" d="M179.308,248.66c1.377,1.024,1.814,3.214,3.337,3.829,1.5.607,3.383-.022,4.973.611a9.359,9.359,0,0,1,4.536,4.386c.078-1.33.112-2.659.087-3.948a3.966,3.966,0,0,0-1.266-3.049c-1.295-1.047-3.537-.953-5.051-.513a2.884,2.884,0,0,1-2.112.165,2.756,2.756,0,0,1-.946-1.168c-1.417-2.454-4.652-4.109-7.051-1.862-.144.136-.28.279-.413.425A5.817,5.817,0,0,1,179.308,248.66Z" transform="translate(-151.342 -246.05)" fill="#004dc9" opacity="0.5" style="mix-blend-mode: multiply;isolation: isolate"/>
        <path id="Path_3357" data-name="Path 3357" d="M166.588,269.821c.237,1.107,1.851,3.3,2.789,3.356a28.616,28.616,0,0,0-1.01-3.59c-.133-.477-.155-1.831-.886-1.57A1.488,1.488,0,0,0,166.588,269.821Z" transform="translate(-150.727 -247.571)" fill="#f8b9b7"/>
        <path id="Path_3358" data-name="Path 3358" d="M191.434,268.981c-.138,1.123-1.548,3.452-2.477,3.592a28.606,28.606,0,0,1,.684-3.667c.089-.488-.009-1.837.742-1.643A1.489,1.489,0,0,1,191.434,268.981Z" transform="translate(-152.281 -247.52)" fill="#f8b9b7"/>
        <path id="Path_3359" data-name="Path 3359" d="M210.066,311.073c-.595-4.31.269-9.467-2.4-13.224-3.324-4.678-10.273-3.749-15-5.864a15.453,15.453,0,0,1-6.815-6.4,28.884,28.884,0,0,1-3.434-10.786l-9.976-.161c0,4.583.185,9.605-3.071,13.187-2.611,2.872-11.233,3.918-14.573,5-8.659,2.8-4.1,13.387-3.607,20.882" transform="translate(-149.549 -248.033)" fill="#f8b9b7"/>
        <path id="Path_3360" data-name="Path 3360" d="M207.666,298.961c-3.324-4.678-10.273-3.749-15-5.864a13.632,13.632,0,0,1-3.635-2.432c.029.026-3.439,1.787-3.837,1.924a23.855,23.855,0,0,1-5.309,1.131c-4.289.436-9.94.2-13.156-3.057-3.681,1.634-9.364,2.446-11.932,3.276-8.659,2.8-4.1,13.387-3.607,20.882l58.6.716C209.195,311.227,210.335,302.718,207.666,298.961Z" transform="translate(-149.549 -249.144)" fill="#0076c4"/>
        <path id="Path_3361" data-name="Path 3361" d="M208.333,304.435a8.25,8.25,0,0,0-.683-.96c-1.19,1.459-2.537,2.827-3.8,4.133-2.074,2.141-4.561,2.956-7.287,3.982-3.18,1.2-6.233,2.718-9.592,3.383a40.75,40.75,0,0,1-9.237.655,50.213,50.213,0,0,1-19-4.1,31.274,31.274,0,0,1-7.421-4.285,52.787,52.787,0,0,0-.02,10.027l58.881-2.636C209.762,311.679,209.883,307,208.333,304.435Z" transform="translate(-149.653 -250.033)" fill="#004dc9" opacity="0.5" style="mix-blend-mode: multiply;isolation: isolate"/>
        <path id="Path_3362" data-name="Path 3362" d="M184.531,279.545c-.511,1.928-3.581,4.529-7.4,3.787-1.445-.281-3.131-1.719-3.031-2.771Z" transform="translate(-151.251 -248.373)" fill="#fd8787" opacity="0.5"/>
        <path id="Path_3363" data-name="Path 3363" d="M187.6,267.675q.054-.53.086-1.053c.2-3.544.165-7.886-2.659-10.559-3.583-3.391-12.024-4.125-14.633.862-2.107,4.033-2.086,9.232-.739,13.406.954,2.949,1.4,6.772,4.3,8.485,2.127,1.253,7.471,1.321,9.446-.293C186.6,275.905,187.182,271.574,187.6,267.675Z" transform="translate(-150.878 -246.556)" fill="#fdd4d4"/>
        <path id="Path_3364" data-name="Path 3364" d="M178.837,266.887a1.154,1.154,0,0,0-1.035.515.614.614,0,0,0-.06.241,15.369,15.369,0,0,0-.266,2.234,3.079,3.079,0,0,0,.282,1.79c.319.467,1.957.571,2.337-.208.57-1.17-.249-3.359-.445-3.9C179.569,267.33,179.246,266.875,178.837,266.887Z" transform="translate(-151.485 -247.495)" fill="#f8b9b7"/>
        <g id="Group_2340" data-name="Group 2340" transform="translate(24.798 25.827)">
          <path id="Path_3365" data-name="Path 3365" d="M178.586,275.739a3.826,3.826,0,0,1-2.237-1.445c-.076-.11-.193-.24-.141-.368a.183.183,0,0,1,.3-.076,5.288,5.288,0,0,0,3.291,1.062,5.039,5.039,0,0,0,1.906-.992c.09-.057.19,0,.291.059.141.081.1.351-.129.544a8.75,8.75,0,0,1-1.335.987A2.7,2.7,0,0,1,178.586,275.739Z" transform="translate(-176.194 -273.802)" fill="#fd8787"/>
        </g>
        <path id="Path_3366" data-name="Path 3366" d="M168.7,265.551c.3,0,.848-.452.967-.574.277-.285-.076-1.321.08-1.686a1.621,1.621,0,0,1,1.239-.84,15.229,15.229,0,0,1,1.818-.177l.131-.012c2.2-.206,4.408.209,6.416-.712a9.753,9.753,0,0,0,2.723-1.6c.685-.664,1.057.325,1.376.857.254.423.51.846.775,1.263a1.174,1.174,0,0,0,.344.391c.32.2.731.05,1.106.073a1.236,1.236,0,0,1,1,.636c.476.884.122,1.811,1.375,2.006a1.04,1.04,0,0,0,1.248-.624c.287-.8-.249-1.949-.5-2.709a26.068,26.068,0,0,0-2.186-4.73,10.113,10.113,0,0,0-3.087-3.483,10.467,10.467,0,0,0-9.562-.5c-3.764,1.681-5.687,5.263-6.636,9.09a12.193,12.193,0,0,0-.4,2.685c-.007.3.045.654.317.765l.1-.172C167.371,265.447,168.253,265.545,168.7,265.551Z" transform="translate(-150.754 -246.477)" fill="#382c00"/>
        <path id="Path_3367" data-name="Path 3367" d="M180.942,259.5c-1.379.187-2.595.985-4.007,1.176-2.558.348-5.906-.155-6.178,2.435a2.285,2.285,0,0,1,.5-.161,15.235,15.235,0,0,1,1.818-.177l.131-.012c2.2-.206,4.408.209,6.416-.712a10.137,10.137,0,0,0,2.655-1.545C182.235,259.706,182.006,259.36,180.942,259.5Z" transform="translate(-151.02 -246.981)" fill="#004dc9" opacity="0.5" style="mix-blend-mode: multiply;isolation: isolate"/>
      </g>
      <g id="Group_2348" data-name="Group 2348" transform="translate(20.986 17.453)">
        <g id="Group_2347" data-name="Group 2347">
          <g id="Group_2346" data-name="Group 2346">
            <g id="Group_2342" data-name="Group 2342" transform="translate(8.632)">
              <path id="Path_3368" data-name="Path 3368" d="M181.679,265.616a3.028,3.028,0,0,0,1-.081c.768-.114,1.588.455,2.267.29.5-.123.1-.42-.264-.549a6.736,6.736,0,0,0-1.28-.386,4.854,4.854,0,0,0-1.354-.057c-.265.045-.775.3-.652.575A.38.38,0,0,0,181.679,265.616Z" transform="translate(-181.375 -264.804)" fill="#382c00"/>
            </g>
            <g id="Group_2343" data-name="Group 2343" transform="translate(0 0.048)">
              <path id="Path_3369" data-name="Path 3369" d="M175.557,265.757a3.176,3.176,0,0,1-1-.172c-.771-.183-1.519.313-2.21.086-.511-.168-.142-.43.2-.527a5.626,5.626,0,0,1,1.222-.272,4.723,4.723,0,0,1,1.334.065c.267.069.8.372.709.637A.286.286,0,0,1,175.557,265.757Z" transform="translate(-172.099 -264.856)" fill="#382c00"/>
            </g>
            <g id="Group_2344" data-name="Group 2344" transform="translate(1.358 2.267)">
              <path id="Path_3370" data-name="Path 3370" d="M174.57,268.1c0,.616-.654,1.052-.934.483-.168-.341-.052-1.228.261-1.335S174.57,267.709,174.57,268.1Z" transform="translate(-173.558 -267.24)"/>
            </g>
            <g id="Group_2345" data-name="Group 2345" transform="translate(10.028 2.267)">
              <path id="Path_3371" data-name="Path 3371" d="M182.874,268.1c0,.616.657,1.052.936.483.169-.341.052-1.228-.262-1.335S182.874,267.709,182.874,268.1Z" transform="translate(-182.874 -267.24)"/>
            </g>
          </g>
        </g>
      </g>
    </g>
  </g>
</svg>
