<svg id="Group_2379" data-name="Group 2379" xmlns="http://www.w3.org/2000/svg" xmlns:xlink="http://www.w3.org/1999/xlink" width="57.994" height="56.602" viewBox="0 0 57.994 56.602">
  <defs>
    <clipPath id="clip-path">
      <path id="Path_3414" data-name="Path 3414" d="M348.125,385.412a22.135,22.135,0,0,1-.379,3.925c-2.668,14.055-11.062,21.072-24.7,23.276a40.318,40.318,0,0,1-10.78.508,22.96,22.96,0,0,1-16.508-9.632c-7.742-10.915-7.936-28.172,2.155-37.7,4.642-4.384,14.977-7.745,21.2-8.774a20.7,20.7,0,0,1,16.275,3.855C342.656,366.352,348.205,376.048,348.125,385.412Z" transform="translate(-290.132 -356.69)" fill="none"/>
    </clipPath>
  </defs>
  <g id="Group_2378" data-name="Group 2378" transform="translate(0 0)" clip-path="url(#clip-path)">
    <path id="Path_3396" data-name="Path 3396" d="M351.968,385.342a33.216,33.216,0,1,1-33.216-33.216A33.215,33.215,0,0,1,351.968,385.342Z" transform="translate(-289.676 -356.237)" fill="#f0eef4"/>
    <path id="Path_3397" data-name="Path 3397" d="M307.29,368.4a9.932,9.932,0,0,0-.52,1.074c-1.141,2.763,1.166,4.489,1.479,9.595.179,2.917,3.053,8.78,5.269,10.72,2.8,2.455,5.959.46,9.487.477,3.628.018,5.777,1.348,7.346-2.059,1.383-3,3.815-8.544,4.328-11.814.746-4.755-4.524-10.021-9.006-11.6-3.161-1.113-9.562-2.09-12.76-.989A10.081,10.081,0,0,0,307.29,368.4Z" transform="translate(-291.752 -357.349)" fill="#ff5f3f"/>
    <path id="Path_3398" data-name="Path 3398" d="M315.354,364.743c3.553-.3,7.572.7,11.221.32-.227-.1-.452-.186-.675-.266-3.161-1.112-9.562-2.089-12.76-.988a10.339,10.339,0,0,0-4.385,2.874A14.454,14.454,0,0,1,315.354,364.743Z" transform="translate(-291.98 -357.349)" fill="#f7b537" style="mix-blend-mode: multiply;isolation: isolate"/>
    <path id="Path_3399" data-name="Path 3399" d="M329.84,391.206a50.866,50.866,0,0,1,2.322-7.344,12.5,12.5,0,0,0,.653-2.85c.018-.238.029-.476.032-.714-1.188-.107-2.848-.351-3.109-.386a92.767,92.767,0,0,0-12.02-.8,50.1,50.1,0,0,0-5.614.134c-.3.031-.91.1-1.453.18a50.783,50.783,0,0,0,1.83,10.243,10.019,10.019,0,0,0,1.454,1.685c2.8,2.455,5.959.46,9.487.477C326.384,391.849,328.36,392.736,329.84,391.206Z" transform="translate(-292.168 -358.915)" fill="#f7b537" style="mix-blend-mode: multiply;isolation: isolate"/>
    <path id="Path_3400" data-name="Path 3400" d="M308.95,384.517c.248,1.152,1.928,3.436,2.906,3.495a29.889,29.889,0,0,0-1.052-3.74c-.139-.5-.162-1.908-.923-1.637A1.552,1.552,0,0,0,308.95,384.517Z" transform="translate(-291.995 -359.262)" fill="#f8b9b7"/>
    <path id="Path_3401" data-name="Path 3401" d="M335.607,383.615c-.142,1.171-1.611,3.6-2.581,3.743a29.9,29.9,0,0,1,.713-3.82c.093-.507-.01-1.914.772-1.712A1.552,1.552,0,0,1,335.607,383.615Z" transform="translate(-294.389 -359.183)" fill="#f8b9b7"/>
    <path id="Path_3402" data-name="Path 3402" d="M353.654,427.719c-.62-4.489.281-9.861-2.5-13.775-3.463-4.874-10.7-3.9-15.631-6.108a16.1,16.1,0,0,1-7.1-6.665,30.092,30.092,0,0,1-3.577-11.237l-10.392-.167c0,4.773.194,10-3.2,13.737-2.72,2.991-11.7,4.081-15.18,5.206-9.02,2.919-4.269,13.945-3.758,21.753" transform="translate(-290.179 -359.973)" fill="#f8b9b7"/>
    <path id="Path_3403" data-name="Path 3403" d="M351.153,415.655c-3.463-4.874-10.7-3.9-15.631-6.108a14.192,14.192,0,0,1-3.787-2.535c.031.028-3.582,1.862-4,2a24.879,24.879,0,0,1-5.531,1.179c-4.469.454-10.354.2-13.7-3.185-3.834,1.7-9.754,2.547-12.428,3.412-9.02,2.919-4.269,13.945-3.758,21.753l61.049.746C352.747,428.432,353.935,419.569,351.153,415.655Z" transform="translate(-290.179 -361.685)" fill="#0076c4"/>
    <path id="Path_3404" data-name="Path 3404" d="M327.9,395.045c-.532,2.01-3.731,4.719-7.71,3.945-1.506-.293-3.262-1.791-3.158-2.888Z" transform="translate(-292.802 -360.497)" fill="#fd8787" opacity="0.5"/>
    <path id="Path_3405" data-name="Path 3405" d="M330.916,381.774c.039-.368.068-.735.09-1.1.213-3.692.171-8.215-2.771-11-3.732-3.532-12.526-4.3-15.243.9-2.2,4.2-2.173,9.617-.77,13.965.994,3.072,1.454,7.055,4.478,8.838,2.217,1.306,7.783,1.376,9.841-.3C329.874,390.348,330.478,385.836,330.916,381.774Z" transform="translate(-292.227 -357.699)" fill="#fdd4d4"/>
    <path id="Path_3406" data-name="Path 3406" d="M321.742,379.683a.681.681,0,0,0-.946.341.823.823,0,0,0-.047.277c-.066,1.3-.2,2.6-.159,3.906a4.479,4.479,0,0,0,.339,2.1c.32.558,1.727.777,2.053-.114.489-1.341-.373-5.238-.578-5.878A1.114,1.114,0,0,0,321.742,379.683Z" transform="translate(-293.155 -358.966)" fill="#f8b9b7"/>
    <g id="Group_2372" data-name="Group 2372" transform="translate(26.265 28.98)">
      <path id="Path_3407" data-name="Path 3407" d="M321.782,390.882a3.994,3.994,0,0,1-2.331-1.505c-.079-.114-.2-.25-.147-.384a.191.191,0,0,1,.312-.079,5.508,5.508,0,0,0,3.429,1.106,5.249,5.249,0,0,0,1.984-1.033c.095-.059.2,0,.3.06.147.085.1.366-.135.568a9.21,9.21,0,0,1-1.391,1.029A2.813,2.813,0,0,1,321.782,390.882Z" transform="translate(-319.291 -388.864)" fill="#fd8787"/>
    </g>
    <path id="Path_3408" data-name="Path 3408" d="M310.76,379.719c.482.551,1.059-1.049,1.154-1.308.54-1.482-.35-4.3.558-5.624a3.219,3.219,0,0,1,1.729-1.348c1.621-.429,4.666,1.708,6.285,1.823,4.378.31,4.57-1.247,6.449-1.506.6-.082,1.326-.228,1.756.31a2.762,2.762,0,0,1,.4.847c.389,1.13.069,3.787.5,4.9a2.08,2.08,0,0,0,.24.486,2.058,2.058,0,0,0,.772.552,2.643,2.643,0,0,0,.921.328,1.086,1.086,0,0,0,1.1-.705c.3-.833-.259-2.03-.522-2.822a27.152,27.152,0,0,0-2.278-4.927,10.529,10.529,0,0,0-3.215-3.628,10.906,10.906,0,0,0-9.962-.518c-3.922,1.751-5.924,5.482-6.912,9.469a12.724,12.724,0,0,0-.413,2.8c-.006.307.047.682.331.8l.1-.18A9.051,9.051,0,0,1,310.76,379.719Z" transform="translate(-292.036 -357.577)" fill="#ff5f3f"/>
    <path id="Path_3409" data-name="Path 3409" d="M319.636,372.483c-1.946-.963-3.946-2.143-6.136-1.122-3.109,1.449-2.646,5.557-2.639,8.4a3.208,3.208,0,0,1-.035.456c.048.015.084.029.084.037.482.551,1.059-1.049,1.154-1.308.54-1.482-.349-4.3.558-5.624a3.219,3.219,0,0,1,1.729-1.348c1.621-.429,4.666,1.708,6.285,1.823a11.563,11.563,0,0,0,2.439-.05A15.123,15.123,0,0,1,319.636,372.483Z" transform="translate(-292.186 -358.107)" fill="#f7b537" style="mix-blend-mode: multiply;isolation: isolate"/>
    <g id="Group_2377" data-name="Group 2377" transform="translate(22.703 20.211)">
      <g id="Group_2373" data-name="Group 2373" transform="translate(8.867)">
        <path id="Path_3410" data-name="Path 3410" d="M325.419,380.006a2.1,2.1,0,0,0,.83-.131c.64-.154,1.292.392,1.862.189.422-.15.1-.437-.192-.553a4.345,4.345,0,0,0-1.04-.335,3.192,3.192,0,0,0-1.118.006c-.221.059-.656.348-.567.625A.283.283,0,0,0,325.419,380.006Z" transform="translate(-325.181 -379.128)" fill="#ff5f3f"/>
      </g>
      <g id="Group_2374" data-name="Group 2374">
        <path id="Path_3411" data-name="Path 3411" d="M318.231,380.006a2.108,2.108,0,0,1-.83-.131c-.64-.154-1.291.392-1.862.189-.422-.15-.1-.437.192-.553a4.345,4.345,0,0,1,1.04-.335,3.192,3.192,0,0,1,1.118.006c.222.059.656.348.567.625A.282.282,0,0,1,318.231,380.006Z" transform="translate(-315.337 -379.128)" fill="#ff5f3f"/>
      </g>
      <g id="Group_2375" data-name="Group 2375" transform="translate(1.039 2.412)">
        <path id="Path_3412" data-name="Path 3412" d="M317.545,382.707c0,.642-.683,1.1-.974.5-.176-.356-.054-1.279.272-1.391S317.545,382.294,317.545,382.707Z" transform="translate(-316.491 -381.806)"/>
      </g>
      <g id="Group_2376" data-name="Group 2376" transform="translate(10.071 2.412)">
        <path id="Path_3413" data-name="Path 3413" d="M326.518,382.707c0,.642.684,1.1.976.5.176-.356.053-1.279-.273-1.391S326.518,382.294,326.518,382.707Z" transform="translate(-326.518 -381.806)"/>
      </g>
    </g>
  </g>
</svg>
