<svg id="Group_2360" data-name="Group 2360" xmlns="http://www.w3.org/2000/svg" xmlns:xlink="http://www.w3.org/1999/xlink" width="59.556" height="58.127" viewBox="0 0 59.556 58.127">
  <defs>
    <clipPath id="clip-path">
      <path id="Path_3394" data-name="Path 3394" d="M476.428,259.061a22.646,22.646,0,0,1-.389,4.03c-2.74,14.434-11.36,21.639-25.362,23.9a41.4,41.4,0,0,1-11.07.522,23.579,23.579,0,0,1-16.953-9.891c-7.949-11.209-8.149-28.93,2.214-38.72,4.767-4.5,15.38-7.953,21.771-9.01a21.258,21.258,0,0,1,16.714,3.959C470.812,239.487,476.511,249.444,476.428,259.061Z" transform="translate(-416.873 -229.565)" fill="none"/>
    </clipPath>
  </defs>
  <g id="Group_2359" data-name="Group 2359" transform="translate(0 0)" clip-path="url(#clip-path)">
    <path id="Path_3373" data-name="Path 3373" d="M480.5,259.111A34.11,34.11,0,1,1,446.389,225,34.111,34.111,0,0,1,480.5,259.111Z" transform="translate(-416.529 -229.223)" fill="#a0f2b6"/>
    <g id="Group_2358" data-name="Group 2358" transform="translate(1.922 3.937)">
      <path id="Path_3374" data-name="Path 3374" d="M438.669,261.785c.16,1.783-.7,2.8-2.229,3.579a7.288,7.288,0,0,0-3.872,5.25c-.245,1.681.473,3.378.158,5.042a5.008,5.008,0,0,1-2.428,3.136c3.757.549,8.744-.568,11.024-3.893a9.862,9.862,0,0,0,1.332-5.058,23.731,23.731,0,0,1,.4-4.23c.064-.253,2.593-1.634,2.331-1.717-1.956-.6-3.905-1.228-5.859-1.84C439.241,261.965,438.952,261.879,438.669,261.785Z" transform="translate(-419.802 -235.919)" fill="#f7b537"/>
      <path id="Path_3375" data-name="Path 3375" d="M442.641,264.921l-.014-.012c.082.305-.235-.2,0,0l0-.012a1.082,1.082,0,0,1-.087-.1l-.108-.061a1.75,1.75,0,0,0-.874-.371c-.228-.059-.455-.114-.686-.155l-.224-.019q-.327-.012-.65,0c-1.132,3.36-1.191,7.037-3.315,10.026a6.871,6.871,0,0,1-4.568,3.073,6.448,6.448,0,0,1-1.814,1.684c3.757.549,8.744-.568,11.024-3.893a9.862,9.862,0,0,0,1.332-5.058,23.731,23.731,0,0,1,.4-4.23.16.16,0,0,1,.037-.055A3.247,3.247,0,0,1,442.641,264.921Z" transform="translate(-419.802 -236.099)" fill="#e97341" opacity="0.5" style="mix-blend-mode: multiply;isolation: isolate"/>
      <path id="Path_3376" data-name="Path 3376" d="M437.373,241.253c-1.747,4.06-3.692,9.137-2.1,13.247a20.419,20.419,0,0,0,3.06,4.7,14.669,14.669,0,0,0,3.69,3.4,12.486,12.486,0,0,0,9.4,1.587,18.209,18.209,0,0,0,5.5-2.169,10.429,10.429,0,0,0,4.391-5.088c.972-2.445,1.013-5.184,1.259-7.844.211-2.279.665-4.627-.3-6.8-2.012-4.528-7.175-7.641-11.964-8.251-2.69-.342-5.994-.436-8.378,1.064a10.381,10.381,0,0,0-3.84,4.5C437.864,240.121,437.621,240.677,437.373,241.253Z" transform="translate(-420.131 -233.822)" fill="#f7b537"/>
      <path id="Path_3377" data-name="Path 3377" d="M440.158,262.9a1.106,1.106,0,0,1-.2-.228c-.068-.074-.139-.145-.213-.214a1.83,1.83,0,0,0-.548-.354c-.372-.146-.944-.167-1.172.233a.712.712,0,0,0-.084.309.64.64,0,0,0,.124.425,1.354,1.354,0,0,0,.183.245c.146.154.326.27.481.413.309.287.252.636.309,1.019a1.16,1.16,0,0,0,.47.833,1.481,1.481,0,0,0,.813.128,2.4,2.4,0,0,1,1.013.114,1.377,1.377,0,0,1,.589.591,3.627,3.627,0,0,0,.3.409,1.911,1.911,0,0,0,1.475.539c.768.018,1.969-.031,2-1.014.023-.856-.931-1.622-1.678-1.762-.708-.133-1.719-.148-2.192-.761-.29-.376-.488-.957-.988-1.109a.665.665,0,0,0-.375-.023c-.1.038-.088.173-.169.216A.128.128,0,0,1,440.158,262.9Z" transform="translate(-420.375 -235.935)" fill="#e8546b"/>
      <path id="Path_3378" data-name="Path 3378" d="M438.518,262.025a.659.659,0,0,0-.5.312.713.713,0,0,0-.084.309.64.64,0,0,0,.124.425,1.354,1.354,0,0,0,.183.245c.146.154.326.27.481.413.309.287.252.636.309,1.019a1.16,1.16,0,0,0,.47.833,1.481,1.481,0,0,0,.813.128,2.406,2.406,0,0,1,1.013.114,1.377,1.377,0,0,1,.589.591,3.627,3.627,0,0,0,.3.409,1.911,1.911,0,0,0,1.475.539,5.266,5.266,0,0,0,.879-.043C441.979,266.447,440.8,264.276,438.518,262.025Z" transform="translate(-420.375 -235.937)" fill="#e8546b" opacity="0.5" style="mix-blend-mode: multiply;isolation: isolate"/>
      <path id="Path_3379" data-name="Path 3379" d="M464.118,255.433c-.151,1.233-1.224,1.506-2.245,1.659a5.894,5.894,0,0,1,.275-1.742c.1-.536-.009-2.017.816-1.8A1.636,1.636,0,0,1,464.118,255.433Z" transform="translate(-422.169 -235.299)" fill="#f8b9b7"/>
      <path id="Path_3380" data-name="Path 3380" d="M435.851,254.932c.151,1.234,1.222,1.507,2.244,1.66a5.808,5.808,0,0,0-.276-1.742c-.1-.536.011-2.017-.814-1.8A1.633,1.633,0,0,0,435.851,254.932Z" transform="translate(-420.217 -235.262)" fill="#f8b9b7"/>
      <path id="Path_3381" data-name="Path 3381" d="M483.864,302.422c-.448-3.249-.315-8.387-2.017-11.2-2.8-4.624-9.368-5.442-14.169-6.809-5.371-1.529-11.469-3.087-14.31-8.268a17.818,17.818,0,0,1-1.84-6.586c-.11-1.7.425-6.91-.323-6.7l-7.166-.322c0,5.032.923,10.477-2.653,14.412-2.867,3.152-10.143,4.523-13.81,5.71-9.508,3.077-8.9,14.429-8.367,22.659" transform="translate(-418.951 -235.975)" fill="#f8b9b7"/>
      <path id="Path_3382" data-name="Path 3382" d="M481.846,292.657c-2.8-4.624-9.368-5.442-14.169-6.809-1.877-.535-3.84-1.076-5.722-1.769a61.236,61.236,0,0,1-14.813,1.348c-4.579-.056-8.545-.493-11.6-3.715-2.861,1.026-5.957,1.733-7.969,2.385-9.508,3.077-8.9,14.429-8.367,22.659l64.655-2.9C483.416,300.612,483.549,295.473,481.846,292.657Z" transform="translate(-418.951 -237.413)" fill="#ffd200"/>
      <path id="Path_3383" data-name="Path 3383" d="M453.476,267.8a4.6,4.6,0,0,1-5.1,2.894,3.52,3.52,0,0,1-2.155-3.042Z" transform="translate(-420.996 -236.359)" fill="#fd8787" opacity="0.5"/>
      <path id="Path_3384" data-name="Path 3384" d="M459.2,253.259q.061-.584.094-1.156c.225-3.892.181-8.66-2.919-11.594-3.935-3.725-13.2-4.53-16.069.946-2.313,4.428-2.29,10.137-.811,14.72,1.047,3.239,2.591,7.437,5.779,9.317,2.336,1.376,6.087,1.451,8.257-.321C457.045,262.3,458.741,257.542,459.2,253.259Z" transform="translate(-420.415 -234.1)" fill="#fdd4d4"/>
      <path id="Path_3385" data-name="Path 3385" d="M449.864,253.662a.592.592,0,0,0-.395.227,16.852,16.852,0,0,0-.351,3.8c.1.343.823.823,1.215.2.536-.856.244-3.462.09-3.842A.609.609,0,0,0,449.864,253.662Z" transform="translate(-421.212 -235.31)" fill="#f8b9b7"/>
      <g id="Group_2352" data-name="Group 2352" transform="translate(26.38 23.884)">
        <path id="Path_3386" data-name="Path 3386" d="M449.266,261.392a3.167,3.167,0,0,1-.708-.395c-.189-.137-1.27-.814-1.063-1.093a.2.2,0,0,1,.28-.043,4.009,4.009,0,0,0,2.395,1.035,4.278,4.278,0,0,0,2.13-1.215.2.2,0,1,1,.23.327c-.212.149-.511.534-.68.679a2.846,2.846,0,0,1-1.6.822A1.923,1.923,0,0,1,449.266,261.392Z" transform="translate(-447.47 -259.642)" fill="#fd8787"/>
      </g>
      <path id="Path_3387" data-name="Path 3387" d="M457.294,240.6a9.962,9.962,0,0,0-2.839-1.82c2.152,5.672,3.236,12.483,2.035,18.214-.7,3.358-2.462,8.016-5.8,9.581a6.5,6.5,0,0,0,3.755-1.314c3.514-2.872,5.21-7.628,5.67-11.911q.061-.584.094-1.156C460.438,248.3,460.394,243.536,457.294,240.6Z" transform="translate(-421.332 -234.194)" fill="#f8b9b7"/>
      <path id="Path_3388" data-name="Path 3388" d="M437.024,250.507c1.06,1.186,3.905-.074,5.173-4.627.3.416,7.958-2.152,11.3,1.577a12.446,12.446,0,0,0,5.707,3.437c2,.594,2.1-1.871,1.647-3.48a19.809,19.809,0,0,0-.819-2.33,35.206,35.206,0,0,0-2.4-4.671,8.862,8.862,0,0,0-7.346-4.517,11.535,11.535,0,0,0-7.715,1.745,13.93,13.93,0,0,0-5.211,7.552c-.21.783-1.5,5.016-.493,5.4,0-.015.055-.207.064-.238A.56.56,0,0,0,437.024,250.507Z" transform="translate(-420.266 -233.973)" fill="#f7b537"/>
      <path id="Path_3389" data-name="Path 3389" d="M457.705,248.427c-1.744-2.418-2.059-5.178-5.319-5.807-3.2-.619-10.814-1.422-9.848,3.817.011.06.017.119.024.179.026-.089.056-.17.081-.261.3.416,7.958-2.152,11.3,1.577a12.445,12.445,0,0,0,5.707,3.437,1.409,1.409,0,0,0,1.149-.06A9.757,9.757,0,0,1,457.705,248.427Z" transform="translate(-420.714 -234.448)" fill="#e97341" opacity="0.5" style="mix-blend-mode: multiply;isolation: isolate"/>
      <g id="Group_2357" data-name="Group 2357" transform="translate(22.181 15.766)">
        <g id="Group_2353" data-name="Group 2353" transform="translate(9.347)">
          <path id="Path_3390" data-name="Path 3390" d="M453.287,251.792a2.22,2.22,0,0,0,.874-.14c.675-.162,1.362.413,1.963.2.444-.158.106-.461-.2-.583a4.576,4.576,0,0,0-1.1-.353,3.384,3.384,0,0,0-1.178.006c-.232.063-.691.366-.6.66A.3.3,0,0,0,453.287,251.792Z" transform="translate(-453.036 -250.866)" fill="#f7b537"/>
        </g>
        <g id="Group_2354" data-name="Group 2354">
          <path id="Path_3391" data-name="Path 3391" d="M445.982,251.792a2.217,2.217,0,0,1-.874-.14c-.674-.162-1.361.413-1.963.2-.444-.158-.105-.461.2-.583a4.562,4.562,0,0,1,1.1-.353,3.379,3.379,0,0,1,1.178.006c.234.063.691.366.6.66A.3.3,0,0,1,445.982,251.792Z" transform="translate(-442.931 -250.866)" fill="#f7b537"/>
        </g>
        <g id="Group_2355" data-name="Group 2355" transform="translate(1.095 2.542)">
          <path id="Path_3392" data-name="Path 3392" d="M445.227,254.564c0,.677-.72,1.154-1.027.531-.185-.375-.057-1.349.287-1.466S445.227,254.129,445.227,254.564Z" transform="translate(-444.115 -253.614)"/>
        </g>
        <g id="Group_2356" data-name="Group 2356" transform="translate(10.616 2.542)">
          <path id="Path_3393" data-name="Path 3393" d="M454.408,254.564c0,.677.721,1.154,1.028.531.186-.375.056-1.349-.288-1.466S454.408,254.129,454.408,254.564Z" transform="translate(-454.408 -253.614)"/>
        </g>
      </g>
    </g>
  </g>
</svg>
