<svg id="Group_2336" data-name="Group 2336" xmlns="http://www.w3.org/2000/svg" xmlns:xlink="http://www.w3.org/1999/xlink" width="57.668" height="56.285" viewBox="0 0 57.668 56.285">
  <defs>
    <clipPath id="clip-path">
      <path id="Path_3352" data-name="Path 3352" d="M320.791,158.658a21.931,21.931,0,0,1-.376,3.9c-2.653,13.976-11,20.954-24.558,23.146a40.094,40.094,0,0,1-10.72.5,22.828,22.828,0,0,1-16.415-9.578c-7.7-10.853-7.892-28.013,2.142-37.492,4.616-4.359,14.893-7.7,21.081-8.725a20.586,20.586,0,0,1,16.185,3.834C315.352,139.7,320.87,149.346,320.791,158.658Z" transform="translate(-263.123 -130.097)" fill="none"/>
    </clipPath>
  </defs>
  <g id="Group_2335" data-name="Group 2335" clip-path="url(#clip-path)">
    <path id="Path_3334" data-name="Path 3334" d="M324.587,158.562a33.029,33.029,0,1,1-33.029-33.029A33.03,33.03,0,0,1,324.587,158.562Z" transform="translate(-262.644 -129.621)" fill="#ffccd9"/>
    <g id="Group_2334" data-name="Group 2334" transform="translate(1.736 3.228)">
      <g id="Group_2333" data-name="Group 2333">
        <path id="Path_3335" data-name="Path 3335" d="M281.177,139.987a16.753,16.753,0,0,0-1.247,2.726c-.893,2.494-1.373,5.1-2.148,7.628-.845,2.76-2.093,5.371-3.2,8.031-.638,1.539-1.687,4.22.244,5.289a4.686,4.686,0,0,0,2.306.333c1.077-.005,2.559-.536,3.16.69.463.945.059,2.361,1.106,3.028,1.224.778,2.447-.3,3.585-.685,1.572-.536,2.417.777,3.676,1.478a10.329,10.329,0,0,0,2.915,1.132,7,7,0,0,0,4.114-.372c1.234-.508,2.168-1.635,3.436-2.053,1.19-.394,2.391.362,3.457.814a3.576,3.576,0,0,0,2.232.3c1.249-.278,1.3-1.61,1.5-2.638.623-3.11,4.707-1.127,5.558-3.944.717-2.377-.494-5.5-1.65-7.565-2.092-3.735-2.749-8.188-4.562-12.052a13.993,13.993,0,0,0-7.94-7.277A18.159,18.159,0,0,0,291.6,133.7,11.768,11.768,0,0,0,281.177,139.987Z" transform="translate(-265.965 -133.701)" fill="#ff5f3f"/>
        <path id="Path_3336" data-name="Path 3336" d="M292.916,168.782a4.067,4.067,0,0,1-1.923-.5c-2.052-1.179-3.365-2.419-5.859-1.465-1.514.58-3.123,1.043-3.636-.945-.324-1.256-.238-2.774-1.671-3.326-.976-.375-2.286-.391-3.031-1.213-1.067-1.173-.36-3.022-.538-4.406a32.214,32.214,0,0,0-1.67,3.865c-.638,1.539-1.687,4.22.244,5.289a4.685,4.685,0,0,0,2.306.333c1.077-.005,2.559-.536,3.16.69.463.945.059,2.361,1.106,3.028,1.224.778,2.447-.3,3.585-.685,1.572-.537,2.417.777,3.676,1.478a10.328,10.328,0,0,0,2.915,1.132,7,7,0,0,0,4.114-.372c1.234-.508,2.168-1.635,3.436-2.053,1.19-.394,2.391.362,3.457.814a3.576,3.576,0,0,0,2.232.3c1.249-.278,1.3-1.61,1.5-2.638.623-3.11,4.707-1.127,5.558-3.944a2.523,2.523,0,0,0,.148-1.1c-.082-.476-2.972-.434-3.382-.4a3.753,3.753,0,0,0-3.182,1.893c-.611,1.042-1.1,2.309-2.4,2.629-1.09.267-1.891-.716-2.9-.906-1.23-.231-2.315.612-3.255,1.274A6.978,6.978,0,0,1,292.916,168.782Z" transform="translate(-265.965 -136.124)" fill="#db452d"/>
        <path id="Path_3337" data-name="Path 3337" d="M308.547,154.427c-.141,1.152-1.142,1.407-2.1,1.55a5.479,5.479,0,0,1,.256-1.627c.093-.5-.008-1.884.761-1.685A1.526,1.526,0,0,1,308.547,154.427Z" transform="translate(-269.378 -135.677)" fill="#f8b9b7"/>
        <path id="Path_3338" data-name="Path 3338" d="M281.15,154.427c.141,1.152,1.142,1.407,2.1,1.55a5.421,5.421,0,0,0-.257-1.627c-.091-.5.01-1.884-.76-1.685A1.525,1.525,0,0,0,281.15,154.427Z" transform="translate(-266.739 -135.677)" fill="#f8b9b7"/>
        <path id="Path_3339" data-name="Path 3339" d="M325.675,198.578c-.419-3.034-.295-7.832-1.885-10.462-2.615-4.318-8.747-5.081-13.231-6.358-5.014-1.429-10.708-2.883-13.36-7.72a16.645,16.645,0,0,1-1.72-6.15c-.1-1.59.4-6.452-.3-6.254l-6.692-.3c0,4.7.863,9.784-2.477,13.458-2.677,2.943-9.47,4.223-12.9,5.331C264.237,183,264.8,193.6,265.3,201.283" transform="translate(-265.062 -136.584)" fill="#f8b9b7"/>
        <path id="Path_3340" data-name="Path 3340" d="M323.79,190.046c-2.615-4.318-8.747-5.081-13.231-6.358-1.752-.5-3.585-1-5.343-1.652a57.161,57.161,0,0,1-13.831,1.258c-4.275-.053-7.98-.46-10.829-3.469-2.672.957-5.563,1.618-7.442,2.227-8.877,2.872-8.314,13.474-7.811,21.159l60.372-2.7C325.255,197.474,325.38,192.675,323.79,190.046Z" transform="translate(-265.062 -138.513)" fill="#ffd200"/>
        <path id="Path_3341" data-name="Path 3341" d="M298.133,166.4a4.293,4.293,0,0,1-4.766,2.7,3.289,3.289,0,0,1-2.013-2.841Z" transform="translate(-267.804 -137.098)" fill="#fd8787" opacity="0.5"/>
        <path id="Path_3342" data-name="Path 3342" d="M303.243,151.909c.038-.364.066-.725.088-1.08.21-3.635.168-8.086-2.727-10.826-3.674-3.478-12.329-4.229-15,.883-2.161,4.134-2.139,9.466-.759,13.745.978,3.024,2.419,6.943,5.4,8.7,2.181,1.285,5.684,1.355,7.709-.3C301.228,160.348,302.812,155.907,303.243,151.909Z" transform="translate(-267.025 -134.068)" fill="#fdd4d4"/>
        <path id="Path_3343" data-name="Path 3343" d="M294.423,150.206c-.121,0-.245.086-.355.292a35.956,35.956,0,0,0,.009,5.443c.126.5.856,1.261,1.172.4.432-1.184-.08-4.972-.262-5.534C294.893,150.516,294.664,150.2,294.423,150.206Z" transform="translate(-268.077 -135.423)" fill="#f8b9b7"/>
        <g id="Group_2327" data-name="Group 2327" transform="translate(24.643 21.639)">
          <path id="Path_3344" data-name="Path 3344" d="M294.552,160.239a2.9,2.9,0,0,1-.736-.175c-.2-.075-1.348-.408-1.232-.713a.184.184,0,0,1,.241-.109,3.751,3.751,0,0,0,2.415.322c.755-.262,1.147-1.036,1.605-1.634a.186.186,0,1,1,.289.235c-.151.188-.324.609-.438.784a2.658,2.658,0,0,1-1.225,1.144A1.792,1.792,0,0,1,294.552,160.239Z" transform="translate(-292.575 -157.86)" fill="#fd8787"/>
        </g>
        <path id="Path_3345" data-name="Path 3345" d="M301.834,140.128a9.3,9.3,0,0,0-2.65-1.7c2.009,5.3,3.02,11.656,1.9,17.007-.657,3.136-2.3,7.485-5.414,8.947a6.081,6.081,0,0,0,3.507-1.226c3.281-2.683,4.864-7.123,5.3-11.122.038-.364.066-.725.088-1.08C304.77,147.319,304.729,142.868,301.834,140.128Z" transform="translate(-268.255 -134.194)" fill="#f8b9b7"/>
        <path id="Path_3346" data-name="Path 3346" d="M282.474,149.287c.989,1.106,4.48-1.429,5.346-1.971a30.2,30.2,0,0,0,5.952-4.776c.283.389,2.281,3.765,5.049,4.908a16.529,16.529,0,0,0,4.435,1.321c1.9.423,1.882-.869,1.462-2.371a18.309,18.309,0,0,0-.764-2.176,32.792,32.792,0,0,0-2.24-4.362,8.274,8.274,0,0,0-6.859-4.218,10.773,10.773,0,0,0-7.2,1.628,13,13,0,0,0-4.864,7.052c-.2.732-1.4,4.684-.46,5.041,0-.013.051-.193.059-.222A.521.521,0,0,0,282.474,149.287Z" transform="translate(-266.826 -133.898)" fill="#ff5f3f"/>
        <path id="Path_3347" data-name="Path 3347" d="M295.831,138.887l0,.014c-.631,2.442,2.055,5.417,4.054,6.372.98.468,1.988.926,3,1.318,1.348.523,3.334.968,3.538,2.7-.036-.3.237-.746.228-1.095a3.138,3.138,0,0,0-.27-1.117,5.987,5.987,0,0,0-1.121-1.686,11.093,11.093,0,0,0-3.469-2.258,16.2,16.2,0,0,1-2.964-1.676c-1.078-.831-1.3-1.789-2-2.856C296.428,138.01,295.952,138.392,295.831,138.887Z" transform="translate(-268.261 -134.181)" fill="#db452d"/>
        <g id="Group_2332" data-name="Group 2332" transform="translate(20.531 14.582)">
          <g id="Group_2328" data-name="Group 2328" transform="translate(8.727)">
            <path id="Path_3348" data-name="Path 3348" d="M297.963,150.846a2.07,2.07,0,0,0,.816-.13c.631-.151,1.271.386,1.833.186.416-.148.1-.43-.189-.544a4.194,4.194,0,0,0-1.024-.331,3.129,3.129,0,0,0-1.1.006c-.218.058-.646.342-.559.615A.279.279,0,0,0,297.963,150.846Z" transform="translate(-297.728 -149.982)" fill="#ff5f3f"/>
          </g>
          <g id="Group_2329" data-name="Group 2329">
            <path id="Path_3349" data-name="Path 3349" d="M290.833,150.846a2.071,2.071,0,0,1-.817-.13c-.63-.151-1.27.386-1.833.186-.415-.148-.1-.43.189-.544a4.206,4.206,0,0,1,1.024-.331,3.134,3.134,0,0,1,1.1.006c.219.058.645.342.559.615A.279.279,0,0,1,290.833,150.846Z" transform="translate(-287.984 -149.982)" fill="#ff5f3f"/>
          </g>
          <g id="Group_2330" data-name="Group 2330" transform="translate(1.023 2.374)">
            <path id="Path_3350" data-name="Path 3350" d="M290.164,153.519c0,.632-.672,1.078-.958.5-.173-.349-.054-1.258.268-1.369S290.164,153.113,290.164,153.519Z" transform="translate(-289.126 -152.632)"/>
          </g>
          <g id="Group_2331" data-name="Group 2331" transform="translate(9.912 2.374)">
            <path id="Path_3351" data-name="Path 3351" d="M299.051,153.519c0,.632.674,1.078.96.5.173-.349.053-1.258-.268-1.369S299.051,153.113,299.051,153.519Z" transform="translate(-299.051 -152.632)"/>
          </g>
        </g>
      </g>
    </g>
  </g>
</svg>
