<?xml version="1.0" encoding="utf-8"?>
<!-- Generator: Adobe Illustrator 24.2.3, SVG Export Plug-In . SVG Version: 6.00 Build 0)  -->
<svg version="1.1" id="Layer_1" xmlns="http://www.w3.org/2000/svg" xmlns:xlink="http://www.w3.org/1999/xlink" x="0px" y="0px"
	 viewBox="0 0 512 512" style="enable-background:new 0 0 512 512;" xml:space="preserve">
<style type="text/css">
	.st0{opacity:0.4;fill:#CD3B42;}
	.st1{fill:#CD3B42;}
</style>
<circle class="st0" cx="237.4" cy="208.7" r="113.2"/>
<path d="M480.5,361.1l-34.8-34.8c-7.1-7.1-18.7-7.1-25.9,0c-7.1,7.1-7.1,18.7,0,25.9l29.3,29.3l-49.3,0.1
	c-10.1,0-18.2,8.2-18.3,18.3l-0.1,49.4l-93.8-93.6c77.8-14.8,136.8-83.4,136.8-165.4c0-92.9-75.5-168.4-168.4-168.4
	S87.6,97.3,87.6,190.1c0,32.8,9.4,63.3,25.7,89.2l-81.7,81.7c-6.4,6.4-9.9,14.8-9.8,23.8c0.1,9,3.8,17.8,10.3,24.1
	c6.2,6,14.3,9.1,23.5,9.1l38.5,0.1l0.1,38.4c-0.1,8.9,3.2,17.2,9.2,23.4c6.3,6.5,15.1,10.3,24.1,10.4h0.3c8.8,0,17.1-3.5,23.4-9.8
	l105-104.8l105,104.8c6.3,6.3,14.6,9.8,23.4,9.8h0.3c9-0.1,17.8-3.9,24.1-10.4c6-6.2,9.2-14.5,9.2-23.4l0.1-38.4l38.5-0.1h0.4
	c9,0,17-3.1,23.1-9.1c6.5-6.3,10.2-15.1,10.3-24.1C490.3,375.9,486.8,367.4,480.5,361.1z M256,58.3c72.7,0,131.8,59.1,131.8,131.8
	S328.7,321.9,256,321.9s-131.8-59.1-131.8-131.8S183.3,58.3,256,58.3z M130.6,449.1l-0.1-49.3c0-10.1-8.2-18.2-18.3-18.3L63,381.4
	l73.2-73.2c23.5,23.9,54.1,40.7,88.2,47.3L130.6,449.1z M329.3,189.3l-21,15.2l8,24.6c3.4,10.5-0.3,21.8-9.2,28.3
	c-4.5,3.3-9.7,4.9-15,4.9c-5.2,0-10.4-1.6-14.9-4.8l-21.1-15.3l-21.1,15.3c-9,6.5-21,6.5-29.9-0.1c-8.9-6.5-12.6-17.9-9.2-28.3
	l8-24.6l-21-15.2c-9-6.5-12.7-18-9.2-28.7c3.4-10.6,13.1-17.7,24.1-17.7h26.2l7.9-24.3c3.4-10.5,13.1-17.5,24.2-17.5
	s20.7,7,24.2,17.5l7.9,24.3h26.2c11,0,20.7,7.1,24.1,17.7C342,171.3,338.3,182.8,329.3,189.3z M299.4,173.4h-14.7
	c-11.3,0-20.8-6.7-24.2-17l-4.4-13.6l-4.4,13.6c-3.4,10.4-12.9,17.1-24.2,17.1h-14.7l12,8.7c9,6.5,12.7,17.9,9.2,28.4l-4.4,13.4
	l11.5-8.3c4.4-3.2,9.5-4.8,14.9-4.8c5.4,0,10.5,1.7,14.9,4.8l11.5,8.3l-4.4-13.4c-3.4-10.5,0.3-21.9,9.2-28.4L299.4,173.4z"/>
<ellipse transform="matrix(0.3547 -0.935 0.935 0.3547 -3.2996 110.1794)" class="st1" cx="78.2" cy="57.5" rx="30" ry="30"/>
<ellipse transform="matrix(0.3547 -0.935 0.935 0.3547 -85.0881 122.961)" class="st1" cx="46.5" cy="123.1" rx="12.2" ry="12.2"/>
<ellipse class="st1" cx="459.4" cy="103.1" rx="22.5" ry="21.9"/>
<circle class="st1" cx="453.9" cy="250.7" r="16.9"/>
<ellipse class="st1" cx="436.3" cy="59.9" rx="8.4" ry="8.6"/>
</svg>
