<?xml version="1.0" encoding="utf-8"?>
<!-- Generator: Adobe Illustrator 24.2.3, SVG Export Plug-In . SVG Version: 6.00 Build 0)  -->
<svg version="1.1" id="Capa_1" xmlns="http://www.w3.org/2000/svg" xmlns:xlink="http://www.w3.org/1999/xlink" x="0px" y="0px"
	 viewBox="0 0 512 512" style="enable-background:new 0 0 512 512;" xml:space="preserve">
<style type="text/css">
	.st0{opacity:0.4;fill:#A4C639;}
	.st1{fill:#A4C639;}
</style>
<g>
	<path d="M13.1,240.9c8.2,1,15.7-4.8,16.7-13c2.4-19.4,9.9-38.3,18.7-59.1c3.2-7.6-0.4-16.4-8-19.7c-7.6-3.2-16.4,0.4-19.7,8
		C11.6,179.2,3,200.9,0.1,224.1C-0.9,232.4,4.9,239.9,13.1,240.9L13.1,240.9z"/>
	<path d="M55.8,122.9c6.6,5,16,3.7,21-2.9c13.6-17.9,28.2-32.8,43.3-44.3c6.6-5,7.9-14.4,2.9-21c-5-6.6-14.4-7.9-21-2.9
		c-17.3,13.1-33.8,30-49,50C47.9,108.5,49.2,117.9,55.8,122.9z"/>
	<path d="M168.8,47.6c17.2-7.3,37.6-15,59.1-17.7c8.2-1,14-8.5,13-16.7s-8.5-14-16.7-13c-25.3,3.2-49.1,12.3-67,19.9
		c-7.6,3.2-11.2,12-8,19.7C152.3,47.3,161.2,50.8,168.8,47.6z"/>
	<path d="M287.9,0.1c-8.2-1-15.7,4.8-16.7,13c-1,8.2,4.8,15.7,13,16.7C395.1,43.8,482,143.1,482,256c0,124.6-101.4,226-226,226
		c-112.9,0-212.2-86.9-226.1-197.9c-1-8.2-8.5-14-16.7-13c-8.2,1-14,8.5-13,16.7C16,414.3,127,512,256,512
		c140.8,0,256-115.3,256-256C512,126.8,414.1,15.9,287.9,0.1L287.9,0.1z"/>
	<path d="M60,256c0,107.8,88.2,196,196,196c107.8,0,196-88.2,196-196c0-101.5-81.3-196-196-196C148.2,60,60,148.2,60,256L60,256z
		 M391,352.5V346c0-24.8-20.2-45-45-45c-6.4,0-11.9-4.1-14-9.7l20.8-20.8c16.6-2.5,30.2-14.1,35.7-29.5h32.9c0.4,4.9,0.7,9.9,0.7,15
		C422,292,410.5,325.3,391,352.5z M415.8,211H376c-8.3,0-15,6.7-15,15c0,8.3-6.7,15-15,15c-4,0-7.8,1.6-10.6,4.4l-30,30
		c-2.8,2.8-4.4,6.6-4.4,10.6c0,24.8,20.2,45,45,45c8.3,0,15,6.7,15,15v38.5c-28.6,23.4-65.2,37.5-105,37.5c-5.1,0-10.1-0.2-15-0.7
		V406c0-8.3,6.7-15,15-15c24.8,0,45-20.2,45-45c0-4-1.6-7.8-4.4-10.6L271,309.8V256c0-8.3-6.7-15-15-15h-30
		c-19.6,0-36.2,12.5-42.4,30H166c-8.3,0-15-6.7-15-15v-23.8l16.8-16.8c2.8-2.8,6.6-4.4,10.6-4.4H226c4,0,7.8-1.6,10.6-4.4l30-30
		c2.8-2.8,4.4-6.6,4.4-10.6c0-8.3,6.7-15,15-15c24.2,0,43.9-19.2,45-43.1C371.9,128.7,403.1,166,415.8,211L415.8,211z M256,90
		c15.6,0,30.7,2.2,45,6.2v9.8c0,8.3-6.7,15-15,15c-22.5,0-41.3,16.6-44.5,38.3L219.8,181h-41.4c-12,0-23.3,4.7-31.8,13.2l-21.2,21.2
		c-2.8,2.8-4.4,6.6-4.4,10.6v30c0,24.8,20.2,45,45,45h30c8.3,0,15-6.7,15-15c0-8.3,6.7-15,15-15h15v45c0,4,1.6,7.8,4.4,10.6
		l24.7,24.7c-2.1,5.7-7.6,9.7-14,9.7c-24.8,0-45,20.2-45,45v9.8C141.3,396.1,90,331.9,90,256C90,164.5,164.5,90,256,90L256,90z"/>
</g>
<path class="st0" d="M415.8,211H376c-8.3,0-15,6.7-15,15c0,8.3-6.7,15-15,15c-4,0-7.8,1.6-10.6,4.4l-30,30
	c-2.8,2.8-4.4,6.6-4.4,10.6c0,24.8,20.2,45,45,45c8.3,0,15,6.7,15,15v38.5c-28.6,23.4-65.2,37.5-105,37.5c-5.1,0-10.1-0.2-15-0.7
	V406c0-8.3,6.7-15,15-15c24.8,0,45-20.2,45-45c0-4-1.6-7.8-4.4-10.6L271,309.8V256c0-8.3-6.7-15-15-15h-30
	c-19.6,0-36.2,12.5-42.4,30H166c-8.3,0-15-6.7-15-15v-23.8l16.8-16.8c2.8-2.8,6.6-4.4,10.6-4.4H226c4,0,7.8-1.6,10.6-4.4l30-30
	c2.8-2.8,4.4-6.6,4.4-10.6c0-8.3,6.7-15,15-15c24.2,0,43.9-19.2,45-43.1C371.9,128.7,403.1,166,415.8,211L415.8,211z"/>
<circle class="st1" cx="35.8" cy="36.2" r="35.8"/>
<circle class="st1" cx="12.4" cy="95.9" r="12.4"/>
<circle class="st1" cx="469.6" cy="472.3" r="27.1"/>
</svg>
