<?xml version="1.0" encoding="utf-8"?>
<!-- Generator: Adobe Illustrator 24.2.3, SVG Export Plug-In . SVG Version: 6.00 Build 0)  -->
<svg version="1.1" id="Layer_1" xmlns="http://www.w3.org/2000/svg" xmlns:xlink="http://www.w3.org/1999/xlink" x="0px" y="0px"
	 viewBox="0 0 512 512" style="enable-background:new 0 0 512 512;" xml:space="preserve">
<style type="text/css">
	.st0{opacity:0.4;fill:#EE4323;}
	.st1{fill:#EE4323;}
</style>
<path class="st0" d="M339.3,134.2c-1.1,0-2.2-0.1-3.4-0.1c-30.1,0-52.2,11.2-65.7,33.2c-10.3,16.8-11.9,33.8-11.9,34
	c-0.6,8-7.5,14.2-15.8,14.2s-15.1-6.2-15.8-14.2c0-0.1-1.7-17.8-12.4-34.9c-13.5-21.5-35.5-32.3-65.1-32.3
	c-45.6,0-77.5,33.4-77.5,81.2c0,54.1,54.2,93.5,106.7,131.6c23.7,17.2,46.3,33.7,64.2,51.4c8.1-8,17.9-16.5,29.8-25.8 M212.4,372.6
	c11.9,9.3,21.7,17.8,29.8,25.8c17.9-17.8,40.5-34.2,64.2-51.4c52.4-38.1,106.7-77.5,106.7-131.6c0-47.8-31.9-81.2-77.5-81.2
	c-29.7,0-51.6,10.9-65.1,32.3c-10.7,17-12.4,34.8-12.4,34.9c-0.6,8-7.5,14.2-15.8,14.2s-15.1-6.2-15.8-14.2c0-0.2-1.6-17.2-11.9-34
	c-13.5-22-35.6-33.2-65.7-33.2c-1.1,0-2.2,0-3.4,0.1"/>
<path d="M312.3,372.3c5.9,7.4,4.7,18.1-2.6,24.1c-18.3,14.7-31.1,26.9-40.3,38.3c-3.2,4-8.1,6.4-13.3,6.4c-5.2,0-10.1-2.3-13.3-6.4
	c-17.9-22.3-46.4-43.5-76.6-66C105.6,323.5,37,272.4,37,195.2c0-36.3,11.9-67.6,34.5-90.5c21.5-21.8,51.2-33.8,83.6-33.8
	c56.6,0,85.8,29.1,100.4,53.5c0.2,0.3,0.4,0.6,0.5,0.9c0.2-0.3,0.4-0.6,0.5-0.9c14.6-24.4,43.8-53.5,100.4-53.5c1.6,0,3.3,0,4.9,0.1
	c9.4,0.4,16.8,8.3,16.5,17.7s-8.3,16.8-17.7,16.5c-1.2,0-2.4-0.1-3.6-0.1c-32.5,0-56.4,12.4-71,36.9c-11.1,18.6-12.8,37.6-12.9,37.7
	c-0.7,8.9-8.1,15.8-17.1,15.8s-16.4-6.9-17.1-15.8c0-0.1-1.8-19.8-13.4-38.7c-14.6-23.8-38.3-35.9-70.4-35.9
	c-49.4,0-83.8,37-83.8,90.1c0,60,58.6,103.7,115.3,146c25.6,19.1,50.1,37.4,69.4,57.1c8.8-8.9,19.3-18.3,32.2-28.7
	C295.6,363.7,306.4,364.9,312.3,372.3z M474.3,180.2c-0.9-9.4-9.3-16.3-18.7-15.4c-9.4,0.9-16.3,9.3-15.4,18.7
	c0.4,3.8,0.6,7.7,0.6,11.7c0,49.7-40.4,88.1-84.1,122.3c-7.4,5.8-8.7,16.6-2.9,24c3.4,4.3,8.4,6.6,13.5,6.6c3.7,0,7.4-1.2,10.5-3.6
	c20.8-16.3,47.1-38.3,66.5-64.1c20.7-27.6,30.7-55.4,30.7-85.2C475,190.2,474.8,185.1,474.3,180.2z M259.1,285.4
	c-4.6,0.2-9-1.5-12.4-4.6l-72.9-70.9c-6.8-6.6-17.6-6.4-24.2,0.3c-6.6,6.8-6.4,17.6,0.3,24.2l72.9,71c0,0,0.1,0.1,0.1,0.1
	c9.6,9.2,22.1,14.1,35.3,14.1c0.7,0,1.4,0,2.1,0c14-0.6,26.8-6.6,36.2-17c0.2-0.2,0.4-0.5,0.6-0.7l162-201.6
	c5.9-7.4,4.7-18.1-2.6-24.1c-7.4-5.9-18.1-4.7-24.1,2.6L270.9,280C267.8,283.3,263.6,285.2,259.1,285.4z"/>
<circle class="st1" cx="53.2" cy="45.2" r="27.1"/>
<circle class="st1" cx="113.3" cy="45.2" r="9.7"/>
<circle class="st1" cx="103.3" cy="381.7" r="18"/>
<circle class="st1" cx="427.6" cy="406.1" r="29.4"/>
<circle class="st1" cx="367.9" cy="391.6" r="14.6"/>
</svg>
