<?xml version="1.0" encoding="utf-8"?>
<!-- Generator: Adobe Illustrator 24.2.3, SVG Export Plug-In . SVG Version: 6.00 Build 0)  -->
<svg version="1.1" id="Layer_1" xmlns="http://www.w3.org/2000/svg" xmlns:xlink="http://www.w3.org/1999/xlink" x="0px" y="0px"
	 viewBox="0 0 512 512" style="enable-background:new 0 0 512 512;" xml:space="preserve">
<style type="text/css">
	.st0{opacity:0.4;fill:#006B9A;}
	.st1{fill:#006B9A;}
</style>
<path class="st0" d="M373.6,394.4l11.3,28.5l-35.1-15.8c-3.8-1.7-8.1-1.7-11.9-0.1c-13.8,6-28.5,9-43.8,9.1c-0.2,0-0.4,0-0.6,0
	c-29.6,0-57.5-11.8-77-31.3c24.7-1.2,49-7.6,70.6-18.8c7.4-3.8,10.3-13,6.6-20.5c-3.8-7.5-12.8-10.5-20.2-6.7
	c-19.9,10.3-42.6,15.7-65.5,15.7c-20,0-39.2-3.9-57.1-11.7c-3.8-1.7-8.1-1.6-11.9,0.1l-52.5,23.5l17.7-44.5
	c2.1-5.3,1.1-11.3-2.5-15.6c-18.3-21.8-27.9-47.9-27.9-75.5c0-68.2,60.2-123.7,134.2-123.7s134.2,55.5,134.2,123.7
	c0,22-6.4,43.7-18.4,62.6c-4.5,7.1-2.5,16.5,4.4,21.1c6.9,4.6,16.2,2.6,20.7-4.5c10.7-16.8,17.8-35.3,21.1-54.5
	c17.6,17.5,27.6,40.6,27.6,64.9c0,21.3-7.5,41.5-21.6,58.3C372.5,383.1,371.5,389.1,373.6,394.4z"/>
<path d="M446.1,387.8c17-23.1,25.9-49.9,25.9-78.2c0-45.3-23.5-87.3-63.1-113.6c-3.7-40.3-22.5-77.8-54-106.6
	C320.1,57.6,273.9,40,224.8,40S129.5,57.6,94.7,89.4C59.4,121.7,40,164.7,40,210.6c0,35.3,11.4,68.7,33,97.3l-31.7,78.5
	c-2.6,6.4-1,13.7,3.9,18.4c3.2,3.1,7.4,4.8,11.7,4.8c2.3,0,4.6-0.5,6.8-1.4l90.5-39.9c11.4,4.3,23.1,7.6,35.1,9.7
	c12.3,20.2,29.8,37.3,51.1,49.7c23.8,13.9,51.2,21.3,79.4,21.5c0.4,0,0.8,0.1,1.3,0.1c19.5,0,38.4-3.4,56.3-10l71.1,31.3
	c2.2,1,4.5,1.4,6.8,1.4c4.3,0,8.5-1.6,11.8-4.8c4.9-4.8,6.5-12.1,3.9-18.4L446.1,387.8z M411.2,391.4l12.7,31.5l-39.5-17.4
	c-4.3-1.9-9.1-1.9-13.4-0.1c-15.5,6.6-32.1,10-49.3,10.1c-0.2,0-0.5,0-0.7,0c-33.3,0-64.7-13-86.6-34.6c27.8-1.3,55.1-8.4,79.4-20.8
	c8.3-4.2,11.6-14.4,7.4-22.7c-4.2-8.3-14.4-11.6-22.7-7.4c-22.4,11.4-47.9,17.4-73.7,17.4c-22.4,0-44.1-4.4-64.2-13
	c-4.3-1.8-9.2-1.8-13.4,0.1l-59,26l19.9-49.2c2.4-5.8,1.3-12.5-2.8-17.3c-20.6-24.1-31.4-53-31.4-83.5c0-75.4,67.8-136.8,151-136.8
	s151,61.4,151,136.8c0,24.4-7.2,48.3-20.7,69.2c-5.1,7.8-2.8,18.3,5,23.3c7.8,5.1,18.3,2.8,23.3-5c12-18.5,20.1-39,23.8-60.3
	c19.8,19.4,31.1,44.9,31.1,71.8c0,23.6-8.4,45.9-24.3,64.5C409.9,378.9,408.8,385.6,411.2,391.4z"/>
<ellipse class="st1" cx="453" cy="64.2" rx="32" ry="31.2"/>
<ellipse class="st1" cx="434.6" cy="137.3" rx="17.1" ry="16.7"/>
<circle class="st1" cx="128" cy="449.6" r="32.2"/>
<circle class="st1" cx="196.6" cy="462.5" r="15"/>
<circle class="st1" cx="63" cy="56.1" r="17.1"/>
</svg>
