<svg id="Group_2802" data-name="Group 2802" xmlns="http://www.w3.org/2000/svg" width="65.323" height="75.662" viewBox="0 0 65.323 75.662">
  <path id="Path_3703" data-name="Path 3703" d="M348.975,101.431c.824.633.763-.545.631-1.616-.633-.087-1.29-.154-1.93-.215C348.151,100.192,348.541,100.82,348.975,101.431Z" transform="translate(-288.085 -79.513)" fill="#ebeef4" fill-rule="evenodd"/>
  <path id="Path_3704" data-name="Path 3704" d="M345.793,95.854l-1.452-.783c-.488-.247-.984-.476-1.468-.7.6.4,1.224.8,1.807,1.252.315,1.192-.082,1.339-.627,1.146a8.621,8.621,0,0,1-1.608-.983c1.183,1.376,1.74,1.425,2.159,1.09S345.255,95.839,345.793,95.854Z" transform="translate(-287.539 -78.967)" fill="#ebeef4" fill-rule="evenodd"/>
  <path id="Path_3705" data-name="Path 3705" d="M341.5,92.217c-1.1-1.712-1.473-.425-1.229.481C340.656,92.452,341.761,93.139,341.5,92.217Z" transform="translate(-287.306 -78.655)" fill="#ebeef4" fill-rule="evenodd"/>
  <path id="Path_3706" data-name="Path 3706" d="M299.009,148.778c-.213-.535-.48-1.11-.328-1.276C298.26,147.327,298.087,147.447,299.009,148.778Z" transform="translate(-282.941 -84.501)" fill="#ebeef4" fill-rule="evenodd"/>
  <path id="Path_3707" data-name="Path 3707" d="M298.466,147.029c.134.034.279.069.443.119-.119-.062-.213-.123-.357-.183C298.5,146.972,298.5,147.009,298.466,147.029Z" transform="translate(-282.954 -84.452)" fill="#ebeef4" fill-rule="evenodd"/>
  <g id="Group_2792" data-name="Group 2792" transform="translate(0 2.008)">
    <path id="Path_3702" data-name="Path 3702" d="M341.711,99.565c7.71,16.588,2.009,35.553-12.734,42.36s-32.944-1.122-40.654-17.71-2.01-35.553,12.733-42.36S334,82.977,341.711,99.565Z" transform="translate(-281.538 -79.416)" fill="#f5f8fc" fill-rule="evenodd"/>
    <g id="Group_2780" data-name="Group 2780" transform="translate(0 0.345)">
      <path id="Path_3708" data-name="Path 3708" d="M292.779,107.922c-.625-1.511-.1-2.316-.143-3.724.419-.187.851-.359,1.288-.518-.035-.744-.228-.963-.46-1.138a1.331,1.331,0,0,1-.653-.929,3.558,3.558,0,0,0,.689-1.1,13.314,13.314,0,0,0,.522-1.361,14.419,14.419,0,0,1,.75-2.03c.345-.065.439.146.473.405a2.559,2.559,0,0,0,.131.754c.424-1.635-.609-2.138.625-3.938l.275.157a13.428,13.428,0,0,1,5.48-6.63,26.556,26.556,0,0,1,8.763-3.508c-.427-.032-.34-.281-.526-.5a28.288,28.288,0,0,1,10.668.744c3.58.849,6.952,2.141,10.207,3.023a60.708,60.708,0,0,0-6.363-4.53,15.239,15.239,0,0,0-3.926-1.555,7.78,7.78,0,0,0-3.743-.011,2.608,2.608,0,0,0-1.218-.508,7.5,7.5,0,0,0-1.359-.114c-.88-.049-1.632-.023-1.954-.635a12.133,12.133,0,0,0-7.1,1.5c-1.877,1.016-3.521,2.213-5.872,3.632-.777.255-.763-.434-1.259-.764a24.143,24.143,0,0,1,3.866-2.663,25.283,25.283,0,0,0-2.815.846,3.784,3.784,0,0,1,.968-.793,14.988,14.988,0,0,1,1.3-.75,12.2,12.2,0,0,0,1.147-.712,1.068,1.068,0,0,0,.5-.768c-1.869,1.287-4.34,2.525-6.5,4.166S292.57,87.574,292,89.433c1.267-1.121,2.53-2.826,4.184-3.969.468-.11,1-.313,1.458-.405s.833-.072.949.186c-1.835,2.137-3.389,3.9-4.885,5.789a20.876,20.876,0,0,0-3.627,6.54c-.4,1.286-1.045,2.983-1.61,3.069.056-.927-.568-.4-.593-1.2a1.329,1.329,0,0,0,.763,1.468c.362.263.582.583.187,1.893q-.9-.367-1.8-.757c.856.78.617,1.589.283,2.54a3.746,3.746,0,0,0-.176,3.09c-.791.715-1.223-.674-1.106-2.306-.5,1.815.618,2.05.562,3.473-.562-.457-1.069-.935-1.6-1.437a1.965,1.965,0,0,1,.566,1.148,1.723,1.723,0,0,1-.228,1c-.346.631-.885,1.208-1.132,1.692.2.042.6-.171.956-.138s.641.3.7,1.284c-.124.868-.579.484-.789.711a2.378,2.378,0,0,1,1.5,1.94c-.5.336-.971-.71-1.525-.721.08.5.214.943.264,1.366a2.844,2.844,0,0,1-.089,1.231c.857,1.64.745-.288,1.571.62.162,1.336-.262,1.543-.855,1.56s-1.337-.17-1.75.5c-1.4-1.873-2.147-4.7-2.713-5.852a39.38,39.38,0,0,0,1.22,4.179c-.339-.056-.454.726-.584,1.266s-.336.846-.945-.218a19.7,19.7,0,0,0,2.27,6.767,32.165,32.165,0,0,0,3.991,5.732c-.159-.614-.433-1.339-.023-1.446,1.47,1.6.7,1.822.562,2.47,1.331,1.041,2.085.244,3.33.466a11.461,11.461,0,0,0,.892,1.793c.28.466.529.839.782,1.19a10.949,10.949,0,0,1,.709,1.164,14.9,14.9,0,0,1,.786,1.7l.614-.937a2.194,2.194,0,0,0,1.587,1.378,3.109,3.109,0,0,1,1.861,1.208c-.038.255-.872.039-1.543-.167,1.723.821.863,1.808,2.678,2.469q-.951.122-1.941.215c1.3.834,3.452,1.609,2.241,2.13a26.185,26.185,0,0,1,5.077,1.391,19.191,19.191,0,0,0,5.517,1.135l-.427.883a4.381,4.381,0,0,1,1.843-.143c.713.037,1.5.17,2.287.232.394.032.786.062,1.166.078a9.082,9.082,0,0,0,1.091-.049,2.7,2.7,0,0,0,1.627-.622l.263.386a29.372,29.372,0,0,0,3.278-1.564,1.1,1.1,0,0,1,1.309.958c3.354-.856,5.776-1.935,7.991-2.444a1.792,1.792,0,0,1,.464-1.125,8.735,8.735,0,0,1,1.2-1.271c.954-.9,2.161-1.866,3.15-2.81a24.731,24.731,0,0,0,6.689-7.358,28.413,28.413,0,0,0,2.172-4.526,31.047,31.047,0,0,0,1.32-4.79,32.674,32.674,0,0,0,.5-4.851,33.965,33.965,0,0,0-.253-4.741,32.993,32.993,0,0,0-2.362-8.643,7.169,7.169,0,0,0-1.675-2.493l-1.2-1.216c-.416-.394-.812-.785-1.154-1.178a9.538,9.538,0,0,0,1.033,2.349,8.78,8.78,0,0,1,1.093,2.316,3.913,3.913,0,0,1-.485,2.3,18.231,18.231,0,0,0-1.022,2.09q.466-.46.927-.942c.665,1.081.569,1.528.5,1.885s-.106.64.527,1.527l-1.755.089a.984.984,0,0,1,.459.591,1.992,1.992,0,0,1,.007.815,3.8,3.8,0,0,1-.615,1.46c.4.193.815.393,1.216.6-.7,1.451-1.085,2.343-2.215,2.643l1.121-.017c-.377.23-.515,1.574-.838,2.6-.352,1.028-.785,1.7-1.525.7.167.433.611.923.258,1.723l-1.1-.2c-.065,1.222-.4,2.559-1.11,2.612a1.8,1.8,0,0,0-.748-1.425,3.607,3.607,0,0,0-.461,2.225,2.206,2.206,0,0,0,.846,1.118,2.437,2.437,0,0,1,.9,1.092,2.628,2.628,0,0,1-.6,2.177l-.561-.451c-.022.46-.027.951-.084,1.415-.51.145-.983.3-1.49.4.408,1.433-.844,2.682-2.383,3.654-1.551,1-3.339,1.67-4.36,2.855a1.719,1.719,0,0,1-.888.276,6.813,6.813,0,0,1-1.152.006c-.417-.021-.849-.018-1.31-.01a6.141,6.141,0,0,0-1.413.249l.393,1.043c-.975-.314-3.041-.4-4.969-1.015-1.935-.583-3.659-1.672-4.088-3.054-1.531.575.1.253-.081,1.113a6.068,6.068,0,0,1-.993.116,3.159,3.159,0,0,1-.756-.1,1.847,1.847,0,0,1-.962-.607c-.466-.515-.661-1.241-1.216-1.785-.886-.066-.633.151-.285.446s.8.622.209.863a2.969,2.969,0,0,0-2.474-.755,3.449,3.449,0,0,1-2.891-1.24c.049-.707.986.129,1.506-.066a8.43,8.43,0,0,1-4.333-2.256,41.883,41.883,0,0,1-4.047-4.231,41.82,41.82,0,0,1-2.97-6.825,21.409,21.409,0,0,1-1.1-7.616l-.408-.023a5.193,5.193,0,0,0,.268-1.516,14.144,14.144,0,0,0-.082-1.509,8.059,8.059,0,0,1,.117-3.174C293.2,107.217,292.981,107.564,292.779,107.922Z" transform="translate(-281.148 -79.801)" fill="#f5f8fc" fill-rule="evenodd"/>
    </g>
  </g>
  <path id="Path_3709" data-name="Path 3709" d="M306.176,78.064l-.752-.89c-.455.29-.9.609-1.327.946s-.861.656-1.269,1.023a2.14,2.14,0,0,0,1.576-.3A5.283,5.283,0,0,1,306.176,78.064Z" transform="translate(-283.409 -77.175)" fill="#ebeef4" fill-rule="evenodd"/>
  <path id="Path_3710" data-name="Path 3710" d="M306.682,80.835c.372-.228.748-.468,1.143-.67-.343.078-.678.178-1.012.283s-.673.194-1,.321C306.1,80.777,306.4,80.806,306.682,80.835Z" transform="translate(-283.72 -77.486)" fill="#ebeef4" fill-rule="evenodd"/>
  <path id="Path_3711" data-name="Path 3711" d="M283.7,110.109l.183-.368a32.5,32.5,0,0,1-.031-5.658A32.5,32.5,0,0,0,283.7,110.109Z" transform="translate(-281.406 -79.98)" fill="#ebeef4" fill-rule="evenodd"/>
  <path id="Path_3712" data-name="Path 3712" d="M297.77,149.179c-.895-.031-1.615-.773-2.418-.99.431.246.881.47,1.329.692s.887.449,1.349.647Z" transform="translate(-282.629 -84.579)" fill="#ebeef4" fill-rule="evenodd"/>
  <g id="Group_2781" data-name="Group 2781" transform="translate(41.243 73.808)">
    <path id="Path_3713" data-name="Path 3713" d="M327.537,161.428c1.051-2.126,2.682-.467.606-1.854C326.114,160.258,328.039,160.687,327.537,161.428Z" transform="translate(-327.192 -159.574)" fill="#ebeef4" fill-rule="evenodd"/>
  </g>
  <path id="Path_3714" data-name="Path 3714" d="M334.735,156.409a5.175,5.175,0,0,0-2.008,1.264c.81.183,1.163.009,1.382-.272A8.143,8.143,0,0,1,334.735,156.409Z" transform="translate(-286.526 -85.436)" fill="#ebeef4" fill-rule="evenodd"/>
</svg>
