<svg id="Group_2802" data-name="Group 2802" xmlns="http://www.w3.org/2000/svg" width="65.605" height="75.989" viewBox="0 0 65.605 75.989">
  <path id="Path_3703" data-name="Path 3703" d="M348.98,101.439c.828.636.766-.547.634-1.623-.636-.088-1.3-.155-1.939-.216C348.153,100.195,348.545,100.825,348.98,101.439Z" transform="translate(-287.827 -79.426)" fill="#ebeef4" fill-rule="evenodd"/>
  <path id="Path_3704" data-name="Path 3704" d="M345.808,95.86l-1.458-.787c-.49-.248-.989-.478-1.474-.706.605.4,1.229.808,1.815,1.258.317,1.2-.082,1.344-.63,1.151a8.658,8.658,0,0,1-1.615-.987c1.188,1.382,1.748,1.431,2.168,1.095S345.267,95.846,345.808,95.86Z" transform="translate(-287.302 -78.901)" fill="#ebeef4" fill-rule="evenodd"/>
  <path id="Path_3705" data-name="Path 3705" d="M341.509,92.221c-1.1-1.719-1.48-.427-1.234.483C340.658,92.456,341.767,93.146,341.509,92.221Z" transform="translate(-287.077 -78.6)" fill="#ebeef4" fill-rule="evenodd"/>
  <path id="Path_3706" data-name="Path 3706" d="M299.012,148.784c-.214-.537-.482-1.115-.329-1.281C298.26,147.327,298.085,147.447,299.012,148.784Z" transform="translate(-282.874 -84.229)" fill="#ebeef4" fill-rule="evenodd"/>
  <path id="Path_3707" data-name="Path 3707" d="M298.466,147.029c.135.034.281.069.445.12-.12-.062-.214-.123-.358-.184C298.5,146.972,298.5,147.009,298.466,147.029Z" transform="translate(-282.887 -84.181)" fill="#ebeef4" fill-rule="evenodd"/>
  <g id="Group_2792" data-name="Group 2792" transform="translate(0 2.016)">
    <path id="Path_3702" data-name="Path 3702" d="M341.957,99.653c7.744,16.66,2.018,35.707-12.789,42.543s-33.087-1.127-40.829-17.787S286.32,88.7,301.127,81.865,334.213,82.993,341.957,99.653Z" transform="translate(-281.523 -79.416)" fill="#eafcf3" fill-rule="evenodd"/>
    <g id="Group_2780" data-name="Group 2780" transform="translate(0 0.346)">
      <path id="Path_3708" data-name="Path 3708" d="M292.829,108.044c-.628-1.518-.1-2.326-.144-3.741.421-.188.855-.361,1.294-.52-.035-.748-.229-.967-.462-1.142a1.337,1.337,0,0,1-.656-.933,3.573,3.573,0,0,0,.692-1.108,13.376,13.376,0,0,0,.525-1.367,14.482,14.482,0,0,1,.753-2.039c.346-.066.441.146.475.407a2.569,2.569,0,0,0,.131.758c.426-1.642-.612-2.147.628-3.955l.276.157a13.486,13.486,0,0,1,5.5-6.659,26.671,26.671,0,0,1,8.8-3.524c-.429-.032-.341-.282-.528-.5a28.41,28.41,0,0,1,10.714.747c3.6.853,6.982,2.151,10.251,3.036a60.971,60.971,0,0,0-6.391-4.55,15.3,15.3,0,0,0-3.943-1.562,7.814,7.814,0,0,0-3.759-.011,2.619,2.619,0,0,0-1.223-.51,7.536,7.536,0,0,0-1.365-.115c-.883-.049-1.639-.023-1.963-.638a12.185,12.185,0,0,0-7.135,1.511c-1.885,1.02-3.536,2.222-5.9,3.648-.78.256-.767-.436-1.264-.767a24.245,24.245,0,0,1,3.883-2.675,25.393,25.393,0,0,0-2.827.849,3.8,3.8,0,0,1,.972-.8,15.049,15.049,0,0,1,1.305-.753,12.265,12.265,0,0,0,1.152-.715,1.072,1.072,0,0,0,.5-.771c-1.877,1.293-4.359,2.536-6.53,4.184s-3.982,3.622-4.555,5.489c1.272-1.126,2.541-2.839,4.2-3.986.47-.111,1.008-.314,1.465-.407s.837-.072.954.187c-1.843,2.146-3.4,3.92-4.906,5.814a20.967,20.967,0,0,0-3.642,6.569c-.4,1.292-1.05,3-1.617,3.082.057-.931-.57-.4-.6-1.2a1.334,1.334,0,0,0,.766,1.474c.363.264.585.586.188,1.9q-.908-.368-1.809-.76c.86.784.62,1.6.284,2.551a3.762,3.762,0,0,0-.176,3.1c-.794.718-1.228-.677-1.111-2.316-.506,1.823.621,2.059.565,3.488-.564-.459-1.073-.939-1.61-1.443a1.973,1.973,0,0,1,.569,1.153,1.731,1.731,0,0,1-.229,1c-.347.633-.889,1.214-1.137,1.7.2.042.605-.172.96-.139s.644.3.7,1.29c-.125.872-.581.486-.793.714a2.388,2.388,0,0,1,1.5,1.949c-.5.337-.975-.713-1.532-.724.08.5.215.947.265,1.372a2.856,2.856,0,0,1-.089,1.236c.861,1.647.748-.289,1.578.623.163,1.341-.264,1.55-.859,1.567s-1.343-.171-1.758.506c-1.4-1.881-2.156-4.719-2.725-5.877a39.559,39.559,0,0,0,1.225,4.2c-.341-.056-.456.729-.587,1.271s-.337.85-.949-.219a19.789,19.789,0,0,0,2.28,6.8,32.307,32.307,0,0,0,4.009,5.757c-.159-.616-.434-1.345-.023-1.452,1.476,1.6.7,1.83.564,2.48,1.337,1.045,2.094.245,3.345.468a11.509,11.509,0,0,0,.9,1.8c.282.468.532.843.785,1.2a11,11,0,0,1,.713,1.169,14.969,14.969,0,0,1,.79,1.707l.616-.941a2.2,2.2,0,0,0,1.594,1.384,3.122,3.122,0,0,1,1.869,1.214c-.038.256-.876.04-1.55-.167,1.731.825.866,1.815,2.69,2.479q-.955.123-1.949.216c1.3.838,3.467,1.616,2.251,2.139a26.3,26.3,0,0,1,5.1,1.4,19.274,19.274,0,0,0,5.541,1.14l-.429.887a4.4,4.4,0,0,1,1.851-.144c.716.037,1.5.171,2.3.233.4.032.79.062,1.171.078a9.124,9.124,0,0,0,1.1-.049,2.708,2.708,0,0,0,1.634-.624l.264.388a29.5,29.5,0,0,0,3.293-1.571,1.1,1.1,0,0,1,1.314.963c3.369-.86,5.8-1.943,8.025-2.455a1.8,1.8,0,0,1,.466-1.13,8.773,8.773,0,0,1,1.21-1.277c.958-.9,2.171-1.874,3.164-2.822a24.838,24.838,0,0,0,6.718-7.389,28.536,28.536,0,0,0,2.181-4.546,31.185,31.185,0,0,0,1.326-4.811,32.819,32.819,0,0,0,.5-4.872,34.116,34.116,0,0,0-.254-4.762,33.138,33.138,0,0,0-2.372-8.68,7.2,7.2,0,0,0-1.682-2.5l-1.209-1.222c-.417-.4-.815-.788-1.159-1.183a9.579,9.579,0,0,0,1.037,2.359,8.817,8.817,0,0,1,1.1,2.326,3.93,3.93,0,0,1-.488,2.311,18.311,18.311,0,0,0-1.026,2.1q.468-.461.931-.946c.668,1.086.571,1.535.5,1.893s-.106.642.529,1.534l-1.762.089a.988.988,0,0,1,.461.594,2,2,0,0,1,.007.819,3.818,3.818,0,0,1-.617,1.466c.406.193.819.395,1.222.6-.7,1.457-1.089,2.353-2.225,2.655l1.125-.017c-.379.231-.517,1.581-.841,2.612-.354,1.033-.788,1.71-1.531.7.167.435.613.927.259,1.73l-1.1-.2c-.066,1.227-.4,2.57-1.115,2.623a1.8,1.8,0,0,0-.751-1.431,3.623,3.623,0,0,0-.463,2.235,2.216,2.216,0,0,0,.85,1.123,2.448,2.448,0,0,1,.9,1.1,2.639,2.639,0,0,1-.6,2.186l-.563-.453c-.022.462-.027.955-.085,1.421-.512.146-.987.3-1.5.4.41,1.439-.847,2.693-2.393,3.669-1.558,1-3.354,1.677-4.379,2.867a1.726,1.726,0,0,1-.892.277,6.845,6.845,0,0,1-1.157.006c-.418-.022-.853-.018-1.315-.01a6.167,6.167,0,0,0-1.42.25l.395,1.047c-.979-.316-3.054-.4-4.99-1.019-1.943-.586-3.675-1.68-4.106-3.068-1.537.578.1.255-.081,1.118a6.1,6.1,0,0,1-1,.117,3.173,3.173,0,0,1-.759-.105,1.855,1.855,0,0,1-.966-.61c-.468-.517-.664-1.246-1.221-1.793-.89-.067-.636.152-.286.448s.8.624.21.866a2.982,2.982,0,0,0-2.485-.758,3.464,3.464,0,0,1-2.9-1.245c.049-.71.99.13,1.512-.067A8.466,8.466,0,0,1,301.745,132a42.064,42.064,0,0,1-4.064-4.25,42,42,0,0,1-2.983-6.854,21.5,21.5,0,0,1-1.1-7.648l-.41-.023a5.216,5.216,0,0,0,.269-1.523,14.2,14.2,0,0,0-.083-1.516,8.094,8.094,0,0,1,.118-3.188C293.254,107.335,293.032,107.684,292.829,108.044Z" transform="translate(-281.148 -79.801)" fill="#eafcf3" fill-rule="evenodd"/>
    </g>
  </g>
  <path id="Path_3709" data-name="Path 3709" d="M306.191,78.068l-.755-.893c-.457.291-.9.612-1.333.95s-.865.659-1.275,1.027a2.15,2.15,0,0,0,1.583-.3A5.307,5.307,0,0,1,306.191,78.068Z" transform="translate(-283.325 -77.175)" fill="#ebeef4" fill-rule="evenodd"/>
  <path id="Path_3710" data-name="Path 3710" d="M306.686,80.838c.373-.229.751-.47,1.148-.672-.345.078-.681.179-1.017.284s-.676.195-1,.322C306.1,80.779,306.4,80.809,306.686,80.838Z" transform="translate(-283.625 -77.475)" fill="#ebeef4" fill-rule="evenodd"/>
  <path id="Path_3711" data-name="Path 3711" d="M283.7,110.136l.184-.37a32.642,32.642,0,0,1-.031-5.683A32.648,32.648,0,0,0,283.7,110.136Z" transform="translate(-281.396 -79.876)" fill="#ebeef4" fill-rule="evenodd"/>
  <path id="Path_3712" data-name="Path 3712" d="M297.781,149.183c-.9-.031-1.622-.776-2.429-.994.433.247.885.472,1.335.7s.891.451,1.355.65Z" transform="translate(-282.574 -84.304)" fill="#ebeef4" fill-rule="evenodd"/>
  <g id="Group_2781" data-name="Group 2781" transform="translate(41.421 74.127)">
    <path id="Path_3713" data-name="Path 3713" d="M327.538,161.436c1.055-2.136,2.693-.469.609-1.862C326.11,160.261,328.043,160.691,327.538,161.436Z" transform="translate(-327.192 -159.574)" fill="#ebeef4" fill-rule="evenodd"/>
  </g>
  <path id="Path_3714" data-name="Path 3714" d="M334.744,156.409a5.2,5.2,0,0,0-2.017,1.269c.813.184,1.168.009,1.388-.273A8.182,8.182,0,0,1,334.744,156.409Z" transform="translate(-286.326 -85.129)" fill="#ebeef4" fill-rule="evenodd"/>
</svg>
