<svg xmlns="http://www.w3.org/2000/svg" width="110.652" height="117.289" viewBox="0 0 110.652 117.289">
  <g id="pointer-re" transform="translate(5.859) rotate(3)">
    <path id="Path_3311" data-name="Path 3311" d="M63.971,11.576h2.957c.623,0,1.557-.155,1.557.779,0,.778-.779.934-1.4,1.089a43.675,43.675,0,0,1-7.63,1.4C46.224,16.4,34.7,21.538,25.363,31.347c-7.16,7.628-12.3,16.344-13.854,27.087a27.517,27.517,0,0,0,1.246,12.3c.466,1.557.934,1.4,2.023.468,6.537-4.826,13.544-7.939,21.95-7.473a11.9,11.9,0,0,1,7.162,2.648c6.383,4.826,6.071,14.788-.468,19.614-6.071,4.359-12.61,4.048-19.148,1.246a24.037,24.037,0,0,1-10.742-8.874c-.934-1.246-1.4-1.246-2.18-.155C3.725,87.546-.012,97.663,4.347,109.651c.155.466.468.934,0,1.557-.778.778-1.246,1.244-1.868-.155A28.454,28.454,0,0,1,1.545,90.19,38.32,38.32,0,0,1,9.952,75.557a2.181,2.181,0,0,0,.623-2.8,30.586,30.586,0,0,1-.468-22.573c7.318-20.238,21.484-33.158,42.811-37.517C56.341,11.887,60.234,11.887,63.971,11.576ZM75.179,25.9a54.875,54.875,0,0,1,1.246-7.005c1.4-5.6,2.957-11.052,4.669-16.5C82.028-.41,82.962-.72,85.142,1.3c5.916,5.137,11.831,10.43,17.9,15.569,1.868,1.555,1.557,3.89,1.868,5.915.156.466-.466.623-.934.623-8.717,1.868-17.436,3.579-26.308,4.826-1.868.31-2.491-.468-2.491-2.336Z" transform="translate(0 0)"/>
    <path id="Path_3314" data-name="Path 3314" d="M5.41,7.028a1.657,1.657,0,0,1-.779-.31A27.21,27.21,0,0,1,.273,1.58C-.039,1.114-.2.646.428.18a1.188,1.188,0,0,1,1.246,0A22.207,22.207,0,0,1,6.5,4.694,1.342,1.342,0,0,1,5.41,7.028Z" transform="translate(67.435 2.056)"/>
    <path id="Path_3315" data-name="Path 3315" d="M1.658,4.417c-.779,0-1.246,0-1.557-.468C-.21,3.327.256,3.015.724,2.7A23.088,23.088,0,0,1,7.106.058,1.41,1.41,0,0,1,8.663.526.716.716,0,0,1,8.2,1.615C6.017,2.7,3.681,3.638,1.658,4.417Z" transform="translate(63.559 18.055)"/>
    <path id="Path_3323" data-name="Path 3323" d="M17.357,19.569C10.352,19.1,4.592,15.678.39,9.3c-.468-.623-.623-1.089.155-1.712C6.927,2.758,13.777-.667,22.028.11,26.387.578,29.5,3.069,30.434,6.8a10.082,10.082,0,0,1-4.358,10.43A14.98,14.98,0,0,1,17.357,19.569Z" transform="translate(15.011 66.575)" fill="#fefefe"/>
    <path id="Path_3324" data-name="Path 3324" d="M20.4,16.5c-5.76-1.713-11.676-3.425-17.436-5.139C-.3,10.43-.3,10.43.321,7.16.787,4.826,1.255,2.646,1.878,0,8.26,5.448,14.332,10.9,20.559,16.189c-.156,0-.156.156-.156.313Z" transform="translate(81.241 2.549)" fill="#fdfefe"/>
    <path id="Path_3325" data-name="Path 3325" d="M21.07,5.731C14.376,6.976,7.527,8.378.833,9.624.054,9.779-.1,9.469.054,8.845.677,6.042,1.3,3.4,2.079.594,2.234-.184,2.7-.029,3.323.128c5.916,1.712,11.987,3.58,17.9,5.293-.156,0-.156.155-.156.31Z" transform="translate(78.083 15.501)" fill="#fdfdfe"/>
  </g>
</svg>
