<?xml version="1.0" encoding="utf-8"?>
<!-- Generator: Adobe Illustrator 24.2.3, SVG Export Plug-In . SVG Version: 6.00 Build 0)  -->
<svg version="1.1" id="Layer_1" xmlns="http://www.w3.org/2000/svg" xmlns:xlink="http://www.w3.org/1999/xlink" x="0px" y="0px"
	 viewBox="0 0 488 470.2" style="enable-background:new 0 0 488 470.2;" xml:space="preserve">
<style type="text/css">
	.st0{fill:#F4A196;}
	.st1{fill:#F44E42;}
	.st2{fill:#EF3A6A;}
</style>
<g>
	<path class="st0" d="M327.8,278.9c0-60.9,0-151.1,0-212H99c-7.6,0-13.8,7.7-13.8,17.2V398c4.3-1.9,9,0.2,13.8,0.2
		c4.6,0,13.8,0,13.8,0c70.4,0.3,214.1,2,214.1,2S327.8,322.3,327.8,278.9z"/>
	<path d="M378.8,211.7V33.5H101.9c-9.2,0-16.7,7.5-16.7,16.7v280.6c5.2-1.9,10.9-2.9,16.7-2.9h16.7V83.7c0-9.2,7.5-16.7,16.7-16.7
		s16.7,7.5,16.7,16.7v244.3h226.7v-32.6c0-9.2,7.5-16.7,16.7-16.7s16.7,7.5,16.7,16.7v49.4c0,9.2-7.5,16.7-16.7,16.7H101.9
		c-9.2,0-16.7,7.5-16.7,16.7c0,9.2,7.5,16.7,16.7,16.7h293.6c9.2,0,16.7,7.5,16.7,16.7s-7.5,16.7-16.7,16.7H101.9
		c-27.7,0-50.2-22.5-50.2-50.2V50.2C51.7,22.5,74.2,0,101.9,0h293.6c9.2,0,16.7,7.5,16.7,16.7v194.9c0,9.2-7.5,16.7-16.7,16.7
		S378.8,220.9,378.8,211.7z M263.4,153.9c-9.2,0-16.7,7.5-16.7,16.7V261c0,9.2,7.5,16.7,16.7,16.7s16.7-7.5,16.7-16.7v-90.4
		C280.1,161.4,272.6,153.9,263.4,153.9z M263.4,96.2c-9.2,0-16.7,7.5-16.7,16.7c0,9.2,7.5,16.7,16.7,16.7s16.7-7.5,16.7-16.7
		S272.6,96.2,263.4,96.2z"/>
</g>
<ellipse transform="matrix(0.7072 -0.707 0.707 0.7072 -303.7652 174.8914)" class="st1" cx="59.3" cy="454.2" rx="16" ry="16"/>
<ellipse transform="matrix(0.7072 -0.707 0.707 0.7072 -287.8973 139.1161)" class="st1" cx="24" cy="417.1" rx="24.1" ry="23.9"/>
<ellipse id="Ellipse_8" class="st2" cx="142" cy="342.5" rx="2.9" ry="2.9"/>
<ellipse transform="matrix(0.7072 -0.707 0.707 0.7072 -51.0114 375.887)" class="st1" cx="428.3" cy="249.5" rx="16" ry="16"/>
<ellipse transform="matrix(0.7072 -0.707 0.707 0.7072 -11.6094 389.1509)" class="st1" cx="464" cy="208.6" rx="24.1" ry="23.9"/>
</svg>
