<?xml version="1.0" encoding="utf-8"?>
<!-- Generator: Adobe Illustrator 24.2.3, SVG Export Plug-In . SVG Version: 6.00 Build 0)  -->
<svg version="1.1" id="Layer_1" xmlns="http://www.w3.org/2000/svg" xmlns:xlink="http://www.w3.org/1999/xlink" x="0px" y="0px"
	 viewBox="0 0 512 512" style="enable-background:new 0 0 512 512;" xml:space="preserve">
<style type="text/css">
	.st0{opacity:0.4;fill:#F4B124;}
	.st1{fill:#F4B124;}
</style>
<path class="st0" d="M153,158.4c0-49.4,40.2-89.6,89.6-89.6s89.6,40.2,89.6,89.6c0,48-37.9,87.3-85.4,89.5c-1.4,0-2.8-0.1-4.2-0.1
	c-1.5,0-2.9,0-4.4,0C190.9,245.6,153,206.3,153,158.4z"/>
<path class="st0" d="M149.3,472c-30.2,0-60.3,0-90.5,0c-7.3,0-11.8-4.1-13.7-6.5c-3.4-4.2-4.8-9.7-3.6-15.1
	C59.2,364.7,134.9,302,222.3,300c1.5,0.1,2.9,0.1,4.4,0.1c2.4,0,4.2-0.1,4.4-0.1c2.7-0.1,67.2,14.3,67.2,14.3l9.8,157.7
	C307.9,472,220,472,149.3,472z M159.1,314.3c21.9-8.9,44.5-13.7,67.2-14.3c1.4,0.1,2.9,0.1,4.4,0.1c1.5,0,2.9,0,4.4-0.1
	c87.4,2,163,64.7,180.9,150.4c1.1,5.4-0.2,10.8-3.6,15.1c-2,2.4-6.4,6.5-13.7,6.5h-90.5"/>
<path d="M167,472H61.7c-8.5,0-13.7-4.8-16-7.6c-4-4.9-5.5-11.3-4.2-17.5c20.8-99.8,108.8-172.6,210.4-175c1.7,0.1,3.4,0.1,5.1,0.1
	c1.7,0,3.4,0,5.1-0.1c26.4,0.6,52.7,6.2,78.1,16.6c10.2,4.2,21.9-0.7,26.1-11c4.2-10.2-0.7-21.9-11-26.1c-5.7-2.3-11.5-4.4-17.2-6.4
	C371.4,220.3,393,180.6,393,136C393,61,332,0,257,0c-75,0-136,61-136,136c0,44.5,21.5,84.1,54.6,108.9c-30.4,10-58.9,25.5-83.8,46.1
	c-45.7,37.6-77.5,90.1-89.5,147.7c-3.8,18.1,0.7,36.6,12.4,50.9c11.6,14.2,28.7,22.4,47,22.4H167c11,0,20-9,20-20S178,472,167,472z
	 M161,136c0-52.9,43.1-96,96-96s96,43.1,96,96c0,51.4-40.6,93.5-91.5,95.9c-1.5,0-3-0.1-4.5-0.1c-1.6,0-3.1,0-4.7,0.1
	C201.5,229.4,161,187.4,161,136z M513,360v69c0,11-9,20-20,20s-20-9-20-20v-48.5l-68.4,68.3c-17.4,17.3-45.1,17.9-63.2,1.4
	l-10.2-9.3c-2.3-2.1-5.9-2-8.1,0.3l-61.5,64.7c-3.9,4.1-9.2,6.2-14.5,6.2c-4.9,0-9.9-1.8-13.8-5.5c-8-7.6-8.3-20.3-0.7-28.3
	l61.6-64.8c8.4-8.7,19.6-13.8,31.6-14.2c12-0.4,23.6,3.8,32.4,12l10.2,9.3c2.3,2.1,5.8,2,8-0.2l70.6-70.4H397c-11,0-20-9-20-20
	s9-20,20-20h66C490.6,310,513,332.4,513,360z"/>
<ellipse class="st1" cx="47.3" cy="184.2" rx="36.5" ry="36"/>
<ellipse class="st1" cx="115" cy="236.3" rx="16.4" ry="16.1"/>
<ellipse class="st1" cx="432.8" cy="231.4" rx="24.9" ry="24.6"/>
</svg>
