<?xml version="1.0" encoding="utf-8"?>
<!-- Generator: Adobe Illustrator 24.2.3, SVG Export Plug-In . SVG Version: 6.00 Build 0)  -->
<svg version="1.1" id="Layer_1" xmlns="http://www.w3.org/2000/svg" xmlns:xlink="http://www.w3.org/1999/xlink" x="0px" y="0px"
	 viewBox="0 0 512 512" style="enable-background:new 0 0 512 512;" xml:space="preserve">
<style type="text/css">
	.st0{opacity:0.4;fill:#77B65D;}
	.st1{fill:#77B65D;}
</style>
<ellipse class="st0" cx="238.1" cy="273.2" rx="169.8" ry="174.5"/>
<path d="M255.1,117.3c-34.5,0-62.6,27.6-62.6,61.5v24.8c-21.7,3.1-38.5,21.7-38.5,44.3v102c0,9.9,8,17.9,17.9,17.9h166.4
	c9.9,0,17.9-8,17.9-17.9v-102c0-22.5-16.8-41.2-38.5-44.3v-24.8C317.7,144.9,289.6,117.3,255.1,117.3z M255.1,153.1
	c14.8,0,26.8,11.5,26.8,25.7v24.4h-53.7v-24.4C228.3,164.7,240.3,153.1,255.1,153.1z M320.4,247.9V332H189.8v-84.1
	c0-4.9,4-8.9,8.9-8.9h112.7C316.4,239,320.4,243,320.4,247.9z M273,285.5c0,9.9-8,17.9-17.9,17.9s-17.9-8-17.9-17.9
	s8-17.9,17.9-17.9S273,275.6,273,285.5z M485,256c0,45.2-13.4,89.2-38.8,127.1c-5.5,8.2-16.6,10.4-24.8,4.9
	c-8.2-5.5-10.4-16.6-4.9-24.8c21.4-32.1,32.8-69.1,32.8-107.2c0-106.5-86.7-193.2-193.2-193.2S62.8,149.5,62.8,256
	S149.5,449.2,256,449.2c35.3,0,69.9-9.6,100-27.8c8.4-5.1,19.5-2.4,24.6,6c5.1,8.4,2.4,19.4-6,24.6c-35.6,21.6-76.6,33-118.5,33
	c-61.2,0-118.7-23.8-161.9-67.1C50.8,374.7,27,317.2,27,256S50.8,137.3,94.1,94.1S194.8,27,256,27s118.7,23.8,161.9,67.1
	C461.2,137.3,485,194.8,485,256z"/>
<circle class="st1" cx="56.7" cy="50.7" r="22.7"/>
<circle class="st1" cx="447.4" cy="453.9" r="25.7"/>
<circle class="st1" cx="472.6" cy="406" r="10.4"/>
</svg>
