<?xml version="1.0" encoding="utf-8"?>
<!-- Generator: Adobe Illustrator 24.2.3, SVG Export Plug-In . SVG Version: 6.00 Build 0)  -->
<svg version="1.1" id="Layer_1" xmlns="http://www.w3.org/2000/svg" xmlns:xlink="http://www.w3.org/1999/xlink" x="0px" y="0px"
	 viewBox="0 0 512 512" style="enable-background:new 0 0 512 512;" xml:space="preserve">
<style type="text/css">
	.st0{opacity:0.4;fill:#3880FF;}
	.st1{fill:#3880FF;}
</style>
<path class="st0" d="M260.3,481.8c0-97,0-234,0-331.1h-15.6c-8.6,0-15.6-7-15.6-15.6v-15.6h-93.6v15.6c0,8.6-7,15.6-15.6,15.6h-15.6
	c0,97,0,234,0,331.1C156.2,481.8,208.3,481.8,260.3,481.8z"/>
<path class="st0" d="M411.9,307.6c0-19.4,0-38.8,0-58.2c0-15.5,2.2-29.7-11-38l-79.7-50.4v284.1h16v-29.5
	c0-10.2,18.3-21.4,28.4-21.4s28.4,11.3,28.4,21.4v29.5h17.8c0-18.7,0-27.5,0-46.2C411.9,368.5,411.9,338,411.9,307.6z"/>
<path d="M492,473.6c0,10.2-8.3,18.4-18.4,18.4H292.9c-10.2,0-18.4-8.3-18.4-18.4V129.7H256c-10.2,0-18.4-8.3-18.4-18.4V92.8H126.9
	v18.4c0,10.2-8.3,18.4-18.4,18.4H90.1v343.9c0,10.2-8.3,18.4-18.4,18.4H38.4c-10.2,0-18.4-8.3-18.4-18.4s8.3-18.4,18.4-18.4h14.8
	V111.3c0-10.2,8.3-18.4,18.4-18.4h18.4V74.4c0-10.2,8.3-18.4,18.4-18.4h55.3V38.4c0-10.2,8.3-18.4,18.4-18.4s18.4,8.3,18.4,18.4V56
	H256c10.2,0,18.4,8.3,18.4,18.4v18.4h18.4c0.1,0,0.2,0,0.3,0c3.6-0.1,7.2,0.8,10.5,2.8l117,73.6c23.9,15,38.2,40.9,38.2,69.2v69.2
	c0,10.2-8.3,18.4-18.4,18.4s-18.4-8.3-18.4-18.4v-69.2c0-15.5-7.8-29.7-21-38l-89.7-56.4v311.1h36v-29.5c0-10.2,8.3-18.4,18.4-18.4
	s18.4,8.3,18.4,18.4v29.5h37.8v-56.2c0-10.2,8.3-18.4,18.4-18.4s18.4,8.3,18.4,18.4v56.2h14.8C483.7,455.1,492,463.4,492,473.6z
	 M144.5,241.3c-10.2,0-18.4,8.3-18.4,18.4v18.4c0,10.2,8.3,18.4,18.4,18.4s18.4-8.3,18.4-18.4v-18.4
	C162.9,249.5,154.6,241.3,144.5,241.3z M218.2,241.3c-10.2,0-18.4,8.3-18.4,18.4v18.4c0,10.2,8.3,18.4,18.4,18.4s18.4-8.3,18.4-18.4
	v-18.4C236.6,249.5,228.4,241.3,218.2,241.3z M144.5,324.2c-10.2,0-18.4,8.3-18.4,18.4v18.4c0,10.2,8.3,18.4,18.4,18.4
	s18.4-8.3,18.4-18.4v-18.4C162.9,332.5,154.6,324.2,144.5,324.2z M218.2,324.2c-10.2,0-18.4,8.3-18.4,18.4v18.4
	c0,10.2,8.3,18.4,18.4,18.4s18.4-8.3,18.4-18.4v-18.4C236.6,332.5,228.4,324.2,218.2,324.2z M218.2,407.2
	c-10.2,0-18.4,8.3-18.4,18.4v18.4c0,10.2,8.3,18.4,18.4,18.4s18.4-8.3,18.4-18.4v-18.4C236.6,415.4,228.4,407.2,218.2,407.2z
	 M384.1,259.7c0-10.2-8.3-18.4-18.4-18.4s-18.4,8.3-18.4,18.4v18.4c0,10.2,8.3,18.4,18.4,18.4s18.4-8.3,18.4-18.4V259.7z
	 M365.7,324.2c-10.2,0-18.4,8.3-18.4,18.4v18.4c0,10.2,8.3,18.4,18.4,18.4s18.4-8.3,18.4-18.4v-18.4
	C384.1,332.5,375.9,324.2,365.7,324.2z M144.5,407.2c-10.2,0-18.4,8.3-18.4,18.4v18.4c0,10.2,8.3,18.4,18.4,18.4s18.4-8.3,18.4-18.4
	v-18.4C162.9,415.4,154.6,407.2,144.5,407.2z M144.5,158.3c-10.2,0-18.4,8.3-18.4,18.4v18.4c0,10.2,8.3,18.4,18.4,18.4
	s18.4-8.3,18.4-18.4v-18.4C162.9,166.5,154.6,158.3,144.5,158.3z M218.2,158.3c-10.2,0-18.4,8.3-18.4,18.4v18.4
	c0,10.2,8.3,18.4,18.4,18.4s18.4-8.3,18.4-18.4v-18.4C236.6,166.5,228.4,158.3,218.2,158.3z"/>
<circle class="st1" cx="46.3" cy="44.8" r="23.7"/>
<circle class="st1" cx="452.1" cy="56.7" r="32.4"/>
<circle class="st1" cx="384.9" cy="95" r="15.3"/>
</svg>
