<?xml version="1.0" encoding="utf-8"?>
<!-- Generator: Adobe Illustrator 24.2.3, SVG Export Plug-In . SVG Version: 6.00 Build 0)  -->
<svg version="1.1" id="Capa_1" xmlns="http://www.w3.org/2000/svg" xmlns:xlink="http://www.w3.org/1999/xlink" x="0px" y="0px"
	 viewBox="0 0 512 512" style="enable-background:new 0 0 512 512;" xml:space="preserve">
<style type="text/css">
	.st0{opacity:0.4;fill:#F78E37;}
	.st1{fill:#F78E37;}
</style>
<ellipse class="st0" cx="255.7" cy="321.9" rx="165.3" ry="162.6"/>
<g>
	<g>
		<path d="M492,288H379l42.6-112l23.8,59.4c3.1,7.8,10.6,12.6,18.6,12.6c2.5,0,5-0.5,7.4-1.4c10.3-4.1,15.2-15.7,11.1-26l-34.4-86.1
			c19.5-9.9,32.9-30.2,32.9-53.5c0-11-9-20-20-20s-20,9-20,20c0,11-8.9,19.9-19.9,20c-8.2-0.1-20.6-9.6-32.6-18.8
			c-16.6-12.7-35.4-27.2-59.2-32c-17.9-3.6-35.5-1.2-53.3,7.2V20c0-11-9-20-20-20c-11,0-20,9-20,20v36.9c-17.5-8-34.8-10.2-52.3-6.7
			c-23.9,4.8-42.6,19.2-59.2,32c-12,9.2-24.4,18.8-32.6,18.8c-11-0.1-19.9-9-19.9-20c0-11-9-20-20-20s-20,9-20,20
			c0,23.1,13.2,43.2,32.4,53.2L1.3,299.9c-1,2.6-1.4,5.3-1.3,7.9c0,0.1,0,0.2,0,0.2c0,50.2,40.8,91,91,91s91-40.8,91-91
			c0-11-9-20-20-20H48.6l46.7-122.6l28.1,70c3.1,7.8,10.6,12.5,18.6,12.5c2.5,0,5-0.5,7.5-1.4c10.2-4.1,15.2-15.8,11.1-26l-36-89.5
			c8.4-4.9,16.4-11,24.3-17.1c28.8-22.2,50.1-38.5,87.1-10.4v339.5c-53,5.5-96.1,30.5-98.1,31.7c-9.5,5.6-12.7,17.9-7.1,27.4
			c5.6,9.5,17.9,12.7,27.4,7.1C158.6,509,205,482,256,482c50.6,0,97.4,27,97.9,27.2c3.2,1.9,6.7,2.8,10.1,2.8
			c6.9,0,13.5-3.5,17.3-9.9c5.6-9.5,2.4-21.8-7.1-27.4c-2-1.2-45.1-26.2-98.1-31.7V104.3c37.6-29.2,59-12.7,88.1,9.6
			c9.8,7.5,19.8,15.2,30.6,20.5l-63,165.5c0,0,0,0.1,0,0.1c-1.1,2.4-1.7,5.1-1.7,8c0,50.2,40.8,91,91,91c50.2,0,91-40.8,91-91
			C512,297,503,288,492,288z M137.9,328c-7.8,18.2-25.9,31-46.9,31c-21,0-39.1-12.8-46.9-31H137.9z M421,359
			c-21,0-39.1-12.8-46.9-31h93.8C460.1,346.2,442,359,421,359z"/>
	</g>
</g>
<circle class="st1" cx="104.5" cy="35" r="17"/>
<circle class="st1" cx="434.3" cy="452.5" r="22.8"/>
<circle class="st1" cx="483.2" cy="495.9" r="11.4"/>
</svg>
