<?xml version="1.0" encoding="utf-8"?>
<!-- Generator: Adobe Illustrator 24.2.3, SVG Export Plug-In . SVG Version: 6.00 Build 0)  -->
<svg version="1.1" id="Layer_1" xmlns="http://www.w3.org/2000/svg" xmlns:xlink="http://www.w3.org/1999/xlink" x="0px" y="0px"
	 viewBox="0 0 512 512" style="enable-background:new 0 0 512 512;" xml:space="preserve">
<style type="text/css">
	.st0{display:none;}
	.st1{opacity:0.4;fill:#C3002F;}
	.st2{fill:#DD0031;}
</style>
<path d="M124.4,174.3c27.9,0,50.6-22.9,50.6-51.1s-22.7-51.1-50.6-51.1S73.8,95,73.8,123.2S96.5,174.3,124.4,174.3z M124.4,106.1
	c9.3,0,16.9,7.6,16.9,17s-7.6,17-16.9,17s-16.9-7.6-16.9-17S115.1,106.1,124.4,106.1z M387.6,174.3c27.9,0,50.6-22.9,50.6-51.1
	s-22.7-51.1-50.6-51.1S337,95,337,123.2S359.7,174.3,387.6,174.3z M387.6,106.1c9.3,0,16.9,7.6,16.9,17s-7.6,17-16.9,17
	s-16.9-7.6-16.9-17S378.3,106.1,387.6,106.1z M472,241.5v74.9c0,22.2-14.1,41.1-33.8,48.2V457c0,9.4-7.6,17-16.9,17
	s-16.9-7.6-16.9-17V350.5c0-9.4,7.6-17,16.9-17c9.3,0,16.9-7.6,16.9-17v-74.9c0-9.4-7.6-17-16.9-17H391c-9.3,0-16.9-7.6-16.9-17
	s7.6-17,16.9-17h30.4C449.3,190.4,472,213.3,472,241.5z M370.8,350.5V457c0,9.4-7.6,17-16.9,17s-16.9-7.6-16.9-17v-92.3
	c-10-3.6-18.5-10.2-24.5-18.7c-1.9,1-3.9,1.8-5.9,2.6V457c0,9.4-7.6,17-16.9,17s-16.9-7.6-16.9-17V334.3c0-9.4,7.6-17,16.9-17
	c9.3,0,16.9-7.6,16.9-17v-92.8c0-9.4-7.6-17-16.9-17h-67.5c-9.3,0-16.9,7.6-16.9,17v92.8c0,9.4,7.6,17,16.9,17
	c9.3,0,16.9,7.6,16.9,17V457c0,9.4-7.6,17-16.9,17s-16.9-7.6-16.9-17V348.5c-2-0.7-4-1.6-5.9-2.6c-6,8.6-14.5,15.2-24.5,18.7V457
	c0,9.4-7.6,17-16.9,17s-16.9-7.6-16.9-17V350.5c0-9.4,7.6-17,16.9-17c8.7,0,15.8-6.6,16.8-15.2c-2.1-5.6-3.3-11.7-3.3-18.1v-92.8
	c0-28.2,22.7-51.1,50.6-51.1h67.5c27.9,0,50.6,22.9,50.6,51.1v92.8c0,6.4-1.2,12.4-3.3,18.1c0.9,8.5,8.1,15.2,16.8,15.2
	C363.2,333.5,370.8,341.1,370.8,350.5z M137.9,207.5c0,9.4-7.6,17-16.9,17H90.6c-9.3,0-16.9,7.6-16.9,17v74.9c0,9.4,7.6,17,16.9,17
	c9.3,0,16.9,7.6,16.9,17V457c0,9.4-7.6,17-16.9,17s-16.9-7.6-16.9-17v-92.3c-19.6-7-33.8-26-33.8-48.2v-74.9
	c0-28.2,22.7-51.1,50.6-51.1H121C130.3,190.4,137.9,198.1,137.9,207.5z M256,140.2c27.9,0,50.6-22.9,50.6-51.1S283.9,38,256,38
	s-50.6,22.9-50.6,51.1S228.1,140.2,256,140.2z M256,72.1c9.3,0,16.9,7.6,16.9,17s-7.6,17-16.9,17s-16.9-7.6-16.9-17
	S246.7,72.1,256,72.1z"/>
<path class="st0" d="M136.3,470.4c0-83.4,0-157.6,0-240.1c-10.1,0-30.7-0.8-40.8-0.8c-9.3,0-16.9,7.6-16.9,17v69.9
	c0,9.4,7.6,17,16.9,17c9.3,0,16.9,7.6,16.9,17c0,47.2,0,119.7,0,119.7S119.5,470.4,136.3,470.4z"/>
<path class="st1" d="M285.7,474c-8.2,0-14.8-6.7-14.8-15V331.1c0-8.3,6.6-15,14.8-15c8.2,0,14.8-6.7,14.8-15v-61.7
	c0-8.3-6.7-15-14.8-15h-59.4c-8.2,0-14.8,6.7-14.8,15v61.7c0,8.3,6.7,15,14.8,15c8.2,0,14.8,6.7,14.8,15V459c0,8.3-6.6,15-14.8,15"
	/>
<path class="st0" d="M399.6,470.2c0,0,0-72.5,0-119.7c0-9.4,7.6-17,16.9-17c9.3,0,16.9-7.6,16.9-17v-69.9c0-9.4-7.6-17-16.9-17
	c-10.1,0-30.7,0.8-40.8,0.8c0,82.4,0,156.7,0,240.1C392.5,470.4,399.6,470.2,399.6,470.2z"/>
<path class="st1" d="M154.2,474.8c-8.2,0-14.8-6.7-14.8-15V341.9c0-8.3,6.6-15,14.8-15c8.2,0,14.8-6.7,14.8-15v-61.7
	c0-8.3-6.7-15-14.8-15H94.8c-8.2,0-14.8,6.7-14.8,15v61.7c0,8.3,6.7,15,14.8,15c8.2,0,14.8,6.7,14.8,15v117.9c0,8.3-6.6,15-14.8,15"
	/>
<path class="st1" d="M417.3,474c-8.2,0-14.8-6.7-14.8-15V341.1c0-8.3,6.6-15,14.8-15c8.2,0,14.8-6.7,14.8-15v-61.7
	c0-8.3-6.7-15-14.8-15h-59.4c-8.2,0-14.8,6.7-14.8,15v61.7c0,8.3,6.7,15,14.8,15c8.2,0,14.8,6.7,14.8,15V459c0,8.3-6.6,15-14.8,15"
	/>
<ellipse class="st2" cx="35.1" cy="36" rx="34.7" ry="35.8"/>
<ellipse class="st2" cx="118" cy="36" rx="14.2" ry="14.7"/>
<circle class="st2" cx="480" cy="480" r="32"/>
<ellipse class="st2" cx="481.9" cy="406.1" rx="14.2" ry="14.7"/>
</svg>
