<svg height="512pt" viewBox="0 0 512 512.001" width="512pt" xmlns="http://www.w3.org/2000/svg"><path d="m512 236c0 45.449219-14.039062 89.578125-40.601562 127.613281-6.324219 9.058594-18.792969 11.273438-27.847657 4.949219-9.058593-6.324219-11.273437-18.792969-4.949219-27.847656 21.851563-31.289063 33.398438-67.5 33.398438-104.714844 0-108.074219-96.898438-196-216-196s-216 87.925781-216 196c0 43.78125 15.578125 85.199219 45.046875 119.773438 4.832031 5.671874 6.113281 13.5625 3.320313 20.46875l-31.367188 77.589843 91.347656-40.265625c5.0625-2.230468 10.824219-2.265625 15.914063-.09375 28.820312 12.292969 59.683593 18.527344 91.738281 18.527344 36.890625 0 73.300781-8.585938 105.285156-24.832031 9.851563-5 21.886719-1.074219 26.890625 8.773437 5 9.851563 1.074219 21.886719-8.773437 26.890625-37.574219 19.082031-80.246094 29.167969-123.402344 29.167969-34.480469 0-67.835938-6.191406-99.277344-18.414062l-128.652344 56.714843c-2.597656 1.144531-5.34375 1.699219-8.066406 1.699219-5.09375 0-10.113281-1.945312-13.921875-5.640625-5.847656-5.664063-7.671875-14.308594-4.621093-21.855469l45.410156-112.332031c-30.707032-39.917969-46.871094-86.746094-46.871094-136.171875 0-63.375 26.855469-122.855469 75.621094-167.488281 48.269531-44.179688 112.332031-68.511719 180.378906-68.511719s132.109375 24.332031 180.378906 68.511719c48.765625 44.632812 75.621094 104.113281 75.621094 167.488281zm-159.828125 9.972656-27.632813 19.988282 10.542969 32.308593c4.488281 13.75-.355469 28.722657-12.054687 37.25-5.886719 4.292969-12.792969 6.441407-19.703125 6.441407-6.867188 0-13.734375-2.121094-19.601563-6.363282l-27.722656-20.0625-27.722656 20.058594c-11.773438 8.515625-27.566406 8.484375-39.304688-.074219-11.699218-8.53125-16.542968-23.5-12.054687-37.25l10.542969-32.308593-27.632813-19.988282c-11.800781-8.535156-16.679687-23.683594-12.144531-37.691406 4.511718-13.925781 17.265625-23.28125 31.746094-23.28125h34.441406l10.359375-31.949219c4.503906-13.800781 17.265625-23.050781 31.769531-23.050781s27.265625 9.25 31.757812 23.015625l10.371094 31.984375h34.445313c14.476562 0 27.234375 9.355469 31.742187 23.28125 4.535156 14.007812-.34375 29.15625-12.144531 37.691406zm-39.253906-20.972656h-19.367188c-14.851562 0-27.320312-8.785156-31.757812-22.382812l-5.792969-17.863282-5.78125 17.824219c-4.445312 13.636719-16.914062 22.421875-31.769531 22.421875h-19.367188l15.761719 11.398438c11.777344 8.519531 16.664062 23.523437 12.160156 37.328124l-5.734375 17.566407 15.128907-10.949219c5.742187-4.152344 12.519531-6.34375 19.601562-6.34375 7.085938 0 13.863281 2.191406 19.597656 6.34375l15.132813 10.949219-5.730469-17.566407c-4.503906-13.804687.378906-28.808593 12.160156-37.328124zm0 0"/></svg>