<svg xmlns="http://www.w3.org/2000/svg" width="391.482" height="403.569" viewBox="0 0 391.482 403.569">
  <g id="flutter" transform="translate(-1246.936 -55.496)">
    <g id="angular-dev" transform="translate(1247.485 55.495)">
      <g id="Group_1271" data-name="Group 1271" transform="translate(92.357 158.545)">
        <path id="XMLID_19_" d="M1353.32,131.163s21.366,45.634,21.366,48.008S1355.7,191.833,1352,193.943s-8.7,4.221-8.7,4.221l2.111,21.1s32.709-7.386,46.426-14.772,13.189-15.827,10.024-28.225-24.268-60.67-24.268-60.67Z" transform="translate(-1182.914 -115.6)" fill="#fff" stroke="#333" stroke-linecap="round" stroke-linejoin="round" stroke-miterlimit="10" stroke-width="1"/>
        <path id="Path_627" data-name="Path 627" d="M1382.34,204.6c13.716-7.386,13.189-15.827,10.024-28.225S1368.1,115.7,1368.1,115.7l-3.429,2.11-1.055,2.11s19.784,48.272,20.839,64.363c.792,10.815-20.839,24.268-35.347,31.918C1359.92,213.3,1374.42,208.815,1382.34,204.6Z" transform="translate(-1173.415 -115.436)" fill="#fbe7cf"/>
        <path id="XMLID_30_" d="M1298.59,117.7s-15.563,57.241-16.09,67.264,30.862,30.071,32.181,31.126-1.846-34.819-1.846-34.819l10.551-52.229Z" transform="translate(-1282.498 -112.161)" fill="#fff" stroke="#333" stroke-linecap="round" stroke-linejoin="round" stroke-miterlimit="10" stroke-width="1"/>
        <path id="Path_628" data-name="Path 628" d="M1314.52,204.648c-9.232-7.913-22.685-18.992-24.268-23.74-2.374-7.122,15.563-58.56,15.563-58.56l-.264-1.583-6.858-3.165s-15.563,57.241-16.091,67.264,30.862,30.071,32.181,31.126C1315.05,216.782,1314.79,211.506,1314.52,204.648Z" transform="translate(-1282.333 -112.324)" fill="#fbe7cf"/>
      </g>
      <g id="Group_1272" data-name="Group 1272" transform="translate(97.375 102.191)">
        <path id="XMLID_18_" d="M1368.81,98.625s-6.067,4.221-17.673,4.748c-11.87.528-12.4-7.913-26.906-7.913-17.673,0-39.831,55.922-39.831,55.922s11.079,10.815,21.894,15.3a82.878,82.878,0,0,0,18.729,5.539l1.583,36.666h118.966l1.319-36.666,37.193-24.268s-18.2-32.709-27.17-44.843-23.74-7.65-28.225-4.484-17.937,3.957-22.949,3.165-19.256-5.276-19.256-5.276S1378.83,90.184,1368.81,98.625Z" transform="translate(-1284.4 -94.236)" fill="#75a7ff" stroke="#000" stroke-miterlimit="10" stroke-width="0.5"/>
        <line id="XMLID_20_" x1="0.528" y2="60.934" transform="translate(41.15 17.578)" fill="none" stroke="#333" stroke-linecap="round" stroke-linejoin="round" stroke-miterlimit="10" stroke-width="0.5"/>
        <path id="XMLID_21_" d="M1301.8,103s1.583,29.807,7.913,46.426" transform="translate(-1255.902 -79.882)" fill="none" stroke="#333" stroke-linecap="round" stroke-linejoin="round" stroke-miterlimit="10" stroke-width="0.5"/>
        <path id="XMLID_22_" d="M1305.3,121.4s3.165,8.969,5.012,11.87" transform="translate(-1250.17 -49.746)" fill="none" stroke="#333" stroke-linecap="round" stroke-linejoin="round" stroke-miterlimit="10" stroke-width="0.5"/>
        <path id="XMLID_23_" d="M1303.3,101.7s3.693,17.673,9.5,31.654" transform="translate(-1253.445 -82.011)" fill="none" stroke="#333" stroke-linecap="round" stroke-linejoin="round" stroke-miterlimit="10" stroke-width="0.5"/>
        <path id="XMLID_24_" d="M1349.21,103.7s-5.8,23.477-10.815,34.028" transform="translate(-1195.958 -78.736)" fill="none" stroke="#333" stroke-linecap="round" stroke-linejoin="round" stroke-miterlimit="10" stroke-width="0.5"/>
        <line id="XMLID_25_" x1="0.264" y1="47.481" transform="translate(162.489 30.768)" fill="none" stroke="#333" stroke-linecap="round" stroke-linejoin="round" stroke-miterlimit="10" stroke-width="0.5"/>
        <path id="XMLID_26_" d="M1354.27,106.2s-4.22,30.071-14.772,45.9" transform="translate(-1194.156 -74.641)" fill="none" stroke="#333" stroke-linecap="round" stroke-linejoin="round" stroke-miterlimit="10" stroke-width="0.5"/>
        <path id="XMLID_27_" d="M1348.18,121.3a144.245,144.245,0,0,1-8.18,13.98" transform="translate(-1193.337 -49.91)" fill="none" stroke="#333" stroke-linecap="round" stroke-linejoin="round" stroke-miterlimit="10" stroke-width="0.5"/>
        <path id="XMLID_28_" d="M1313.8,97.3s3.429,20.575,8.177,31.126,13.189,12.662,20.311,9.5,12.4-18.465,12.134-38.248" transform="translate(-1236.248 -89.218)" fill="none" stroke="#333" stroke-linecap="round" stroke-linejoin="round" stroke-miterlimit="10" stroke-width="0.5"/>
      </g>
      <g id="Group_1273" data-name="Group 1273" transform="translate(148.78 16.773)">
        <path id="XMLID_13_" d="M1313.15,84.045s-4.484-7.913-8.177-3.957,2.9,13.453,6.595,16.618,6.331,1.319,6.067-2.11C1317.11,91.431,1313.15,84.045,1313.15,84.045Z" transform="translate(-1303.888 -33.805)" fill="#fbe7cf" stroke="#000" stroke-miterlimit="10" stroke-width="0.5"/>
        <path id="XMLID_16_" d="M1337.7,84.045s4.484-7.913,8.177-3.957-2.9,13.453-6.595,16.618-6.331,1.319-6.067-2.11C1333.74,91.431,1337.7,84.045,1337.7,84.045Z" transform="translate(-1255.89 -33.805)" fill="#fbe7cf" stroke="#000" stroke-miterlimit="10" stroke-width="0.5"/>
        <path id="XMLID_17_" d="M1315.6,95.3s4.221,19.52,8.7,30.335c4.221,10.815,12.4,10.815,15.827,3.957s5.539-32.973,5.539-32.973S1322.99,99.521,1315.6,95.3Z" transform="translate(-1284.705 -7.076)" fill="#fff" stroke="#333" stroke-linecap="round" stroke-linejoin="round" stroke-miterlimit="10" stroke-width="1"/>
        <path id="XMLID_7_" d="M1308.37,114.731s6.331,22.158,17.937,35.083c11.87,12.925,16.091,16.091,22.421,15.036s12.925-9.232,22.421-26.114c9.232-17.146,10.024-30.071,10.815-31.126.792-1.319-1.846-25.323-15.3-35.611s-28.225-14.772-41.414-3.693C1312.06,79.648,1303.89,98.113,1308.37,114.731Z" transform="translate(-1298.576 -61.854)" fill="#fff" stroke="#333" stroke-linecap="round" stroke-linejoin="round" stroke-miterlimit="10" stroke-width="1"/>
        <path id="Path_629" data-name="Path 629" d="M1366.49,72c-13.453-10.288-28.225-14.772-41.414-3.693-12.925,11.343-21.1,29.807-16.882,46.426,0,0,1.319,4.221,3.429,10.024a5.146,5.146,0,0,1,.264-2.11c2.9-8.969,11.343-26.642,39.831-18.729,22.685,6.331,19.784,26.378,17.673,36.93.527-.791.792-1.319,1.319-2.11,9.232-17.146,10.024-30.071,10.815-31.126C1382.58,106.29,1379.94,82.286,1366.49,72Z" transform="translate(-1298.666 -61.854)" fill="#fbe7cf"/>
        <path id="XMLID_8_" d="M1326.83,86.3a137.612,137.612,0,0,0-1.319,14.244c.264,4.748,1.583,6.331-.527,6.595-2.11.528-4.484-2.9-4.484-2.9" transform="translate(-1276.679 -21.817)" fill="none" stroke="#333" stroke-linecap="round" stroke-linejoin="round" stroke-miterlimit="10" stroke-width="1"/>
        <path id="XMLID_11_" d="M1331.88,89.336s-4.484-11.343-19.784-6.067" transform="translate(-1290.437 -29.073)" fill="none" stroke="#333" stroke-linecap="round" stroke-linejoin="round" stroke-miterlimit="10" stroke-width="1"/>
        <path id="XMLID_12_" d="M1324.3,88.285s3.957-11.079,17.41-4.484" transform="translate(-1270.456 -29.341)" fill="none" stroke="#333" stroke-linecap="round" stroke-linejoin="round" stroke-miterlimit="10" stroke-width="1"/>
        <path id="XMLID_6_" d="M1340.35,93.516c0,6.067-7.122,11.079-15.827,11.079S1308.7,99.583,1308.7,93.516s6.595-8.7,15.3-8.7C1332.7,84.547,1340.35,87.185,1340.35,93.516Z" transform="translate(-1296.006 -24.285)" fill="none" stroke="#333" stroke-linecap="round" stroke-linejoin="round" stroke-miterlimit="10" stroke-width="1"/>
        <path id="XMLID_14_" d="M1354.15,93.516c0,6.067-7.122,11.079-15.827,11.079S1322.5,99.583,1322.5,93.516s6.595-8.7,15.3-8.7C1346.5,84.547,1354.15,87.185,1354.15,93.516Z" transform="translate(-1273.404 -24.285)" fill="none" stroke="#333" stroke-linecap="round" stroke-linejoin="round" stroke-miterlimit="10" stroke-width="1"/>
      </g>
      <g id="Group_1274" data-name="Group 1274" transform="translate(9.799 278.302)">
        <path id="XMLID_48_" d="M1258.45,161l-1.055,97.336c0,.528,1.319,1.055,2.9,1.055h0c1.583,0,2.9-.528,2.9-1.055L1270.06,161Z" transform="translate(-1241.045 -161)" fill="#fff" stroke="#333" stroke-linecap="round" stroke-linejoin="round" stroke-miterlimit="10" stroke-width="1"/>
        <path id="XMLID_46_" d="M1252.26,169.7l-1.06,100.765c0,.528,1.319,1.055,2.9,1.055h0c1.583,0,2.9-.528,2.9-1.055l6.858-100.5Z" transform="translate(-1251.2 -146.751)" fill="#fff" stroke="#333" stroke-linecap="round" stroke-linejoin="round" stroke-miterlimit="10" stroke-width="1"/>
        <path id="XMLID_51_" d="M1392.51,161l1.055,97.336c0,.528-1.319,1.055-2.9,1.055h0c-1.583,0-2.9-.528-2.9-1.055L1380.9,161Z" transform="translate(-1038.774 -161)" fill="#fff" stroke="#333" stroke-linecap="round" stroke-linejoin="round" stroke-miterlimit="10" stroke-width="1"/>
        <path id="XMLID_49_" d="M1398.71,169.7l1.055,100.765c0,.528-1.319,1.055-2.9,1.055h0c-1.582,0-2.9-.528-2.9-1.055l-6.858-100.5Z" transform="translate(-1028.62 -146.751)" fill="#fff" stroke="#333" stroke-linecap="round" stroke-linejoin="round" stroke-miterlimit="10" stroke-width="1"/>
      </g>
      <g id="Group_1275" data-name="Group 1275" transform="translate(0 264.322)">
        <path id="XMLID_50_" d="M1637.63,207.372l-7.122-6.6-16.618-36.138a9.569,9.569,0,0,0-8.7-5.539H1280.47a9.569,9.569,0,0,0-8.7,5.539l-20.839,45.107-3.429-1.319v10.288h.264a5.756,5.756,0,0,0,5.8,5.012h378.527a5.769,5.769,0,0,0,5.8-5.276Z" transform="translate(-1247.461 -150.131)" fill="#333" stroke="#333" stroke-linecap="round" stroke-linejoin="round" stroke-miterlimit="10" stroke-width="1"/>
        <path id="XMLID_42_" d="M1631.85,219.8H1253.33c-4.22,0-7.122-4.221-5.276-7.65l23.74-50.91a9.569,9.569,0,0,1,8.7-5.539H1604.95a9.569,9.569,0,0,1,8.7,5.539l23.74,50.91C1638.98,215.842,1636.08,219.8,1631.85,219.8Z" transform="translate(-1247.485 -155.7)" fill="#fff" stroke="#333" stroke-linecap="round" stroke-linejoin="round" stroke-miterlimit="10" stroke-width="1"/>
        <path id="Path_630" data-name="Path 630" d="M1260.04,182.241s-8.441,5.8-3.165,7.913,67,.528,74.386-1.583,16.091-21.894,16.091-25.059-10.815-5.539-14.772-5.8-56.45,2.9-56.45,2.9Z" transform="translate(-1234.944 -152.434)" fill="#f4bd58"/>
        <ellipse id="Ellipse_83" data-name="Ellipse 83" cx="21.894" cy="9.232" rx="21.894" ry="9.232" transform="translate(309.72 21.63)" fill="#fcd392"/>
        <ellipse id="Ellipse_84" data-name="Ellipse 84" cx="78.607" cy="14.772" rx="78.607" ry="14.772" transform="translate(113.202 21.63)" fill="#f4bd58"/>
      </g>
      <g id="Group_1276" data-name="Group 1276" transform="translate(305.178 254.562)">
        <path id="XMLID_33_" d="M1373.52,156.482s-1.319-5.8-6.331-3.957-4.22,14.772-3.429,21.894c1.055,7.122,7.386,3.957,7.386,3.957v-4.221s-2.374,1.846-3.693-.791-1.055-15.827.264-15.563,3.693,4.221,3.693,4.221S1372.2,161.494,1373.52,156.482Z" transform="translate(-1363.179 -151.734)" fill="#f4bd58" stroke="#000" stroke-miterlimit="10" stroke-width="1"/>
        <path id="XMLID_36_" d="M1365.8,154.2v31.654c0,3.693,8.441,6.6,18.992,6.6s18.992-2.9,18.992-6.6V154.2Z" transform="translate(-1358.885 -148.397)" fill="#f4bd58"/>
        <path id="XMLID_32_" d="M1403.79,157.8c0,3.165-8.441,5.8-18.992,5.8s-18.992-2.638-18.992-5.8,8.441-5.8,18.992-5.8S1403.79,154.638,1403.79,157.8Z" transform="translate(-1358.885 -152)" fill="#fff" stroke="#333" stroke-linecap="round" stroke-linejoin="round" stroke-miterlimit="10" stroke-width="1"/>
        <path id="XMLID_31_" d="M1399.94,157.312c0,2.9-7.386,5.012-16.619,5.012s-16.618-2.374-16.618-5.012c0-2.9,7.386-5.012,16.618-5.012S1399.94,154.41,1399.94,157.312Z" transform="translate(-1357.411 -151.509)" fill="#fff" stroke="#333" stroke-linecap="round" stroke-linejoin="round" stroke-miterlimit="10" stroke-width="1"/>
        <path id="XMLID_109_" d="M1368.2,156.546a41.494,41.494,0,0,0,12.662,1.846,40.208,40.208,0,0,0,12.662-1.846,41.491,41.491,0,0,0-12.662-1.846,40.208,40.208,0,0,0-12.662,1.846Z" transform="translate(-1354.954 -147.578)" fill="#333" stroke="#333" stroke-linecap="round" stroke-linejoin="round" stroke-miterlimit="10" stroke-width="1"/>
      </g>
      <g id="Group_1277" data-name="Group 1277" transform="translate(10.5 242.377)">
        <path id="XMLID_41_" d="M1256.1,160.355l.264,10.551,72.8.791V159.3Z" transform="translate(-1243.876 -127.859)" fill="#fff" stroke="#333" stroke-linecap="round" stroke-linejoin="round" stroke-miterlimit="10" stroke-width="1"/>
        <path id="XMLID_40_" d="M1284.13,182.344l10.551-22.685V152.8L1283.6,172.056Z" transform="translate(-1198.836 -138.504)" fill="#fff" stroke="#333" stroke-linecap="round" stroke-linejoin="round" stroke-miterlimit="10" stroke-width="1"/>
        <path id="XMLID_45_" d="M1256.1,164.055l.264,10.815,72.8.791V163Z" transform="translate(-1243.876 -121.799)" fill="#fff" stroke="#333" stroke-linecap="round" stroke-linejoin="round" stroke-miterlimit="10" stroke-width="1"/>
        <path id="XMLID_44_" d="M1284.13,186.144l10.551-22.949V156.6L1283.6,175.592Z" transform="translate(-1198.836 -132.281)" fill="#fff" stroke="#333" stroke-linecap="round" stroke-linejoin="round" stroke-miterlimit="10" stroke-width="1"/>
        <g id="XMLID_39_">
          <path id="XMLID_38_" d="M1291.92,152.444s1.583-3.429-.792-4.748-5.012,1.846-6.594,3.165-31.654,21.1-32.709,24.268,0,10.024,6.594,10.815,12.134-3.693,15.036-4.221c2.9-.791,3.957-1.055,3.957-1.055l20.047-26.906Z" transform="translate(-1251.466 -147.381)" fill="#fff" stroke="#333" stroke-linecap="round" stroke-linejoin="round" stroke-miterlimit="10" stroke-width="1"/>
          <path id="XMLID_43_" d="M1258.34,169.4c6.595.791,12.134-3.693,15.036-4.221,2.9-.791,3.957-1.055,3.957-1.055l.791-1.055-18.728-3.957a6.251,6.251,0,0,0-7.65-.791C1250.95,161.748,1252.01,168.871,1258.34,169.4Z" transform="translate(-1251.388 -131.098)" fill="#fff" stroke="#333" stroke-linecap="round" stroke-linejoin="round" stroke-miterlimit="10" stroke-width="1"/>
          <path id="XMLID_34_" d="M1254.6,172.677h56.186c17.41,0,22.685-1.055,22.685-1.055l10.815-22.422s-34.028,2.11-44.579,1.319-12.925-1.319-12.925-1.319Z" transform="translate(-1246.332 -144.401)" fill="#fff" stroke="#333" stroke-linecap="round" stroke-linejoin="round" stroke-miterlimit="10" stroke-width="1"/>
          <path id="XMLID_37_" d="M1254.6,158.755l1.055,4.221s45.634.264,57.5.264c12.134,0,21.1.528,21.1.528l-.791-6.067Z" transform="translate(-1246.332 -130.479)" fill="#fff" stroke="#333" stroke-linecap="round" stroke-linejoin="round" stroke-miterlimit="10" stroke-width="1"/>
          <path id="XMLID_35_" d="M1285.29,177.525l10.023-22.949V149.3L1284.5,171.458Z" transform="translate(-1197.362 -144.237)" fill="#fff" stroke="#333" stroke-linecap="round" stroke-linejoin="round" stroke-miterlimit="10" stroke-width="1"/>
        </g>
      </g>
      <g id="Group_1278" data-name="Group 1278" transform="translate(112.146 202.333)">
        <path id="XMLID_2_" d="M1433.27,173.148h-137.7a2.364,2.364,0,0,1-2.374-2.374h0a2.364,2.364,0,0,1,2.374-2.374h137.694a2.364,2.364,0,0,1,2.374,2.374h0a2.527,2.527,0,0,1-2.368,2.374Z" transform="translate(-1284.758 -72.911)" fill="#fff" stroke="#333" stroke-linecap="round" stroke-linejoin="round" stroke-miterlimit="10" stroke-width="1"/>
        <path id="XMLID_29_" d="M1439.56,227.953h-139.8a2.039,2.039,0,0,1-2.111-1.846L1290,134.574a2.155,2.155,0,0,1,2.11-2.374h155.1a2.155,2.155,0,0,1,2.11,2.374l-7.65,91.532A2.239,2.239,0,0,1,1439.56,227.953Z" transform="translate(-1290 -132.2)" fill="#fff" stroke="#333" stroke-linecap="round" stroke-linejoin="round" stroke-miterlimit="10" stroke-width="1"/>
        <g id="fluttr" transform="translate(-1020.702 -139.956)">
          <path id="Path_475" data-name="Path 475" d="M1089.833,2167.084l9.874-9.01h10.711l-16.151,14.116Z" transform="translate(1.818 -1964.44)" fill="#9fbcef"/>
          <g id="Group_310" data-name="Group 310" transform="translate(1082.14 177.802)">
            <g id="flutter-2" data-name="flutter">
              <path id="Path_471" data-name="Path 471" d="M5.825,22.2,0,16.969,18.913,0H30.561m0,15.659H18.913L14.55,19.574,20.374,24.8" fill="none" stroke="#373f54" stroke-width="2"/>
              <path id="Path_472" data-name="Path 472" d="M951.7,1813.125l4.363,3.915h11.648l-10.187-9.141" transform="translate(-937.15 -1783.099)" fill="none" stroke="#373f54" stroke-width="2"/>
              <path id="Path_473" data-name="Path 473" d="M571.6,1432.819l5.815-5.22,5.816,5.218-5.816,5.22Z" transform="translate(-562.861 -1408.016)" fill="none" stroke="#373f54" stroke-width="2"/>
              <path id="Path_474" data-name="Path 474" d="M26.59,14.016,15.226,24.456" transform="translate(4.834 1.315)" fill="none" stroke="#373f54" stroke-width="2"/>
            </g>
          </g>
          <ellipse id="Ellipse_126" cx="1.736" cy="1.557" rx="1.736" ry="1.557" transform="translate(1085.676 180.24)" fill="#3880ff"/>
          <ellipse id="Ellipse_127" cx="1.736" cy="1.557" rx="1.736" ry="1.557" transform="translate(1112.806 203.739)" fill="#3880ff"/>
          <ellipse id="Ellipse_128" cx="0.7" cy="0.628" rx="0.7" ry="0.628" transform="translate(1117.069 206.191)" fill="#3880ff"/>
        </g>
      </g>
      <g id="Group_1279" data-name="Group 1279" transform="translate(315.523 167.777)">
        <path id="XMLID_110_" d="M1377,131.762a11.936,11.936,0,0,0,4.22-6.6,11.728,11.728,0,0,0-.264-6.067" transform="translate(-1350.886 -119.1)" fill="none" stroke="#333" stroke-linecap="round" stroke-linejoin="round" stroke-miterlimit="10" stroke-width="1"/>
        <path id="XMLID_101_" d="M1377.12,193.583s13.453-7.913,8.969-17.146-18.992-15.3-18.992-29.544c0-12.4,13.189-16.882,21.63-21.894" transform="translate(-1367.1 -109.437)" fill="none" stroke="#333" stroke-linecap="round" stroke-linejoin="round" stroke-miterlimit="10" stroke-width="1"/>
        <path id="XMLID_106_" d="M1379.2,169.571s7.386-5.012,7.386-12.925c0-5.276-5.539-8.7-13.189-17.146" transform="translate(-1356.782 -85.688)" fill="none" stroke="#333" stroke-linecap="round" stroke-linejoin="round" stroke-miterlimit="10" stroke-width="1"/>
        <path id="XMLID_108_" d="M1373.49,144.479s-4.748-3.957-1.319-11.079" transform="translate(-1360.83 -95.679)" fill="none" stroke="#333" stroke-linecap="round" stroke-linejoin="round" stroke-miterlimit="10" stroke-width="1"/>
      </g>
      <path id="Path_631" data-name="Path 631" d="M1332.31,111.957s18.729-.528,35.611,8.177,30.071-7.913,22.158-16.354,10.288,9.232,13.189-1.319-23.477-46.426-50.119-46.953-32.973,16.618-32.973,16.618-3.165-8.969-5.539-3.957a22.448,22.448,0,0,0-2.374,8.7s-5.276,4.221-7.65,6.6.791,5.012.791,5.012-4.748,12.4-2.11,21.63l13.716,20.575s4.748.264,8.441-4.748c3.429-4.748.792-19.784.792-19.784s.264,16.091,4.484,12.662-2.111-19.256-2.111-19.256Z" transform="translate(-1157.385 -55.495)" fill="#1a2e35"/>
      <ellipse id="Ellipse_89" data-name="Ellipse 89" cx="1.846" cy="0.791" rx="1.846" ry="0.791" transform="translate(178.092 85.477)" fill="none" stroke="#333" stroke-linecap="round" stroke-linejoin="round" stroke-miterlimit="10" stroke-width="5"/>
      <ellipse id="Ellipse_90" data-name="Ellipse 90" cx="1.846" cy="0.791" rx="1.846" ry="0.791" transform="translate(207.636 84.158)" fill="none" stroke="#333" stroke-linecap="round" stroke-linejoin="round" stroke-miterlimit="10" stroke-width="5"/>
    </g>
    <g id="obj1" transform="translate(1248.316 92.964)">
      <path id="XMLID_100_" d="M1357.53,119.027H1255.19a7.373,7.373,0,0,1-7.386-7.386V77.086a7.373,7.373,0,0,1,7.386-7.386h102.348a7.373,7.373,0,0,1,7.386,7.386v34.555a7.549,7.549,0,0,1-7.394,7.386Z" transform="translate(-1247.8 -69.7)" fill="#333" stroke="#333" stroke-linecap="round" stroke-linejoin="round" stroke-miterlimit="10" stroke-width="1"/>
      <g id="Group_1371" data-name="Group 1371" transform="translate(8.442 6.595)">
        <path id="Path_820" data-name="Path 820" d="M1256.54,72.2l.527,1.055c-2.638,1.583-5.012,3.957-5.012,6.858a3.914,3.914,0,0,0,3.693,4.221.528.528,0,1,0,0-1.055,2.392,2.392,0,0,1-1.582-2.374c0-1.846,1.582-2.9,3.429-2.9a3.492,3.492,0,0,1,3.429,3.429,4.4,4.4,0,0,1-4.484,4.221,5.2,5.2,0,0,1-5.54-5.278C1251,76.684,1253.64,73.783,1256.54,72.2Zm11.606,0,.528,1.055c-2.638,1.583-5.012,3.957-5.012,6.858a3.914,3.914,0,0,0,3.693,4.221.528.528,0,0,0,0-1.055,2.391,2.391,0,0,1-1.583-2.374c0-1.846,1.583-2.9,3.429-2.9a3.492,3.492,0,0,1,3.429,3.429,4.4,4.4,0,0,1-4.484,4.221,5.2,5.2,0,0,1-5.539-5.276c0-3.695,2.633-6.6,5.543-8.179Z" transform="translate(-1251 -72.2)" fill="#f4bd58"/>
      </g>
      <line id="XMLID_102_" x2="66.737" transform="translate(36.666 16.618)" fill="none" stroke="#fff" stroke-linecap="round" stroke-linejoin="round" stroke-miterlimit="10" stroke-width="1"/>
      <line id="XMLID_103_" x2="66.737" transform="translate(36.666 22.421)" fill="none" stroke="#fff" stroke-linecap="round" stroke-linejoin="round" stroke-miterlimit="10" stroke-width="1"/>
      <line id="XMLID_104_" x2="66.737" transform="translate(36.666 28.225)" fill="none" stroke="#fff" stroke-linecap="round" stroke-linejoin="round" stroke-miterlimit="10" stroke-width="1"/>
      <line id="XMLID_105_" x2="66.737" transform="translate(36.666 33.764)" fill="none" stroke="#fff" stroke-linecap="round" stroke-linejoin="round" stroke-miterlimit="10" stroke-width="1"/>
    </g>
    <g id="obj2" transform="translate(1269.363 182.186)">
      <circle id="XMLID_119_" cx="25.323" cy="25.323" r="25.323" transform="translate(0.944 9.147) rotate(-9.271)" fill="#333" stroke="#333" stroke-linecap="round" stroke-linejoin="round" stroke-miterlimit="10" stroke-width="1"/>
      <circle id="XMLID_116_" cx="21.366" cy="21.366" r="21.366" transform="translate(0 32.109) rotate(-48.69)" fill="#fff" stroke="#333" stroke-linecap="round" stroke-linejoin="round" stroke-miterlimit="10" stroke-width="1"/>
      <path id="XMLID_120_" d="M1267.2,109v15.563h10.551" transform="translate(-1237.073 -94.556)" fill="none" stroke="#333" stroke-linecap="round" stroke-linejoin="round" stroke-miterlimit="10" stroke-width="2"/>
    </g>
    <g id="obj3" transform="translate(1554.303 122.244)">
      <path id="XMLID_125_" d="M1432.38,80.8h-59.351a8.782,8.782,0,0,0-8.7,8.7v31.918a8.782,8.782,0,0,0,8.7,8.7h1.846c-1.846,4.221-5.276,10.288-11.079,13.98,0,0,12.134-.791,24.532-13.98h44.052a8.782,8.782,0,0,0,8.7-8.7V89.5a8.783,8.783,0,0,0-8.7-8.7Z" transform="translate(-1363.8 -80.8)" fill="#333" stroke="#333" stroke-linecap="round" stroke-linejoin="round" stroke-miterlimit="10" stroke-width="1"/>
      <g id="Group_1372" data-name="Group 1372" transform="translate(19.52 18.992)">
        <path id="XMLID_122_" d="M1380.17,92.484a4.484,4.484,0,1,0-4.484,4.484C1378.32,97.232,1380.17,95.122,1380.17,92.484Z" transform="translate(-1371.2 -88)" fill="#f4bd58"/>
        <path id="XMLID_124_" d="M1386.07,92.484a4.484,4.484,0,1,0-4.484,4.484,4.288,4.288,0,0,0,4.484-4.484Z" transform="translate(-1361.537 -88)" fill="#f4bd58"/>
        <path id="XMLID_126_" d="M1391.87,92.484a4.484,4.484,0,1,0-4.484,4.484C1390.02,97.232,1391.87,95.122,1391.87,92.484Z" transform="translate(-1352.038 -88)" fill="#f4bd58"/>
      </g>
    </g>
  </g>
</svg>
