<svg xmlns="http://www.w3.org/2000/svg" xmlns:xlink="http://www.w3.org/1999/xlink" width="42.428" height="58.712" viewBox="0 0 42.428 58.712">
  <defs>
    <filter id="Path_3978" x="0" y="0" width="42.428" height="50.569" filterUnits="userSpaceOnUse">
      <feOffset dy="3" input="SourceAlpha"/>
      <feGaussianBlur stdDeviation="3" result="blur"/>
      <feFlood flood-opacity="0.161"/>
      <feComposite operator="in" in2="blur"/>
      <feComposite in="SourceGraphic"/>
    </filter>
    <filter id="Path_3980" x="2.714" y="29.855" width="26.143" height="28.856" filterUnits="userSpaceOnUse">
      <feOffset dy="3" input="SourceAlpha"/>
      <feGaussianBlur stdDeviation="3" result="blur-2"/>
      <feFlood flood-opacity="0.161"/>
      <feComposite operator="in" in2="blur-2"/>
      <feComposite in="SourceGraphic"/>
    </filter>
    <filter id="Path_3981" x="13.57" y="29.855" width="26.143" height="28.856" filterUnits="userSpaceOnUse">
      <feOffset dy="3" input="SourceAlpha"/>
      <feGaussianBlur stdDeviation="3" result="blur-3"/>
      <feFlood flood-opacity="0.161"/>
      <feComposite operator="in" in2="blur-3"/>
      <feComposite in="SourceGraphic"/>
    </filter>
  </defs>
  <g id="android" transform="translate(-28.55 -172.425)">
    <g id="android-2" data-name="android" transform="translate(38.568 190.296)">
      <path id="Path_398" data-name="Path 398" d="M-225.617,404.752H-240a3.623,3.623,0,0,1-3.8-3.394V388.494A3.623,3.623,0,0,1-240,385.1h14.387a3.623,3.623,0,0,1,3.8,3.394v12.864A3.623,3.623,0,0,1-225.617,404.752Z" transform="translate(243.8 -385.1)" fill="#77b65d"/>
    </g>
    <g id="android-3" data-name="android" transform="translate(32.121 175.709)">
      <g id="Group_2892" data-name="Group 2892" transform="translate(5.428 2.716)">
        <g id="Group_2891" data-name="Group 2891" transform="translate(0)">
          <g transform="matrix(1, 0, 0, 1, -9, -6)" filter="url(#Path_3978)">
            <path id="Path_3978-2" data-name="Path 3978" d="M132.859,35.59a12.219,12.219,0,0,0-20.847,8.647v19a1.358,1.358,0,0,0,1.357,1.357h2.714a1.357,1.357,0,1,0,0-2.714h-1.357V44.238a9.5,9.5,0,1,1,19,0V61.879h-1.357a1.357,1.357,0,1,0,0,2.714h2.714a1.358,1.358,0,0,0,1.357-1.357v-19A12.251,12.251,0,0,0,132.859,35.59Z" transform="translate(-103.01 -26.02)"/>
          </g>
        </g>
      </g>
      <g id="Group_2894" data-name="Group 2894" transform="translate(13.571 32.572)">
        <g id="Group_2893" data-name="Group 2893" transform="translate(0)">
          <path id="Path_3979" data-name="Path 3979" d="M214.8,384.024h-5.428a1.357,1.357,0,0,0,0,2.714H214.8a1.357,1.357,0,0,0,0-2.714Z" transform="translate(-208.012 -384.024)"/>
        </g>
      </g>
      <g id="Group_2896" data-name="Group 2896" transform="translate(8.142 32.572)">
        <g id="Group_2895" data-name="Group 2895" transform="translate(0)">
          <g transform="matrix(1, 0, 0, 1, -11.71, -35.86)" filter="url(#Path_3980)">
            <path id="Path_3980-2" data-name="Path 3980" d="M150.8,384.024a1.358,1.358,0,0,0-1.357,1.357v5.428a1.357,1.357,0,0,1-2.714,0v-5.428a1.357,1.357,0,0,0-2.714,0v5.428a4.071,4.071,0,0,0,8.142,0v-5.428A1.358,1.358,0,0,0,150.8,384.024Z" transform="translate(-132.3 -348.17)"/>
          </g>
        </g>
      </g>
      <g id="Group_2898" data-name="Group 2898" transform="translate(18.999 32.572)">
        <g id="Group_2897" data-name="Group 2897" transform="translate(0)">
          <g transform="matrix(1, 0, 0, 1, -22.57, -35.86)" filter="url(#Path_3981)">
            <path id="Path_3981-2" data-name="Path 3981" d="M278.8,384.024a1.358,1.358,0,0,0-1.357,1.357v5.428a1.357,1.357,0,0,1-2.714,0v-5.428a1.357,1.357,0,0,0-2.714,0v5.428a4.071,4.071,0,1,0,8.142,0v-5.428A1.358,1.358,0,0,0,278.8,384.024Z" transform="translate(-249.44 -348.17)"/>
          </g>
        </g>
      </g>
      <g id="Group_2900" data-name="Group 2900" transform="translate(0 13.573)">
        <g id="Group_2899" data-name="Group 2899" transform="translate(0)">
          <path id="Path_3982" data-name="Path 3982" d="M49.369,160.024a1.358,1.358,0,0,0-1.357,1.357v13.571a1.357,1.357,0,0,0,2.714,0V161.381A1.358,1.358,0,0,0,49.369,160.024Z" transform="translate(-48.012 -160.024)"/>
        </g>
      </g>
      <g id="Group_2902" data-name="Group 2902" transform="translate(32.569 13.573)">
        <g id="Group_2901" data-name="Group 2901">
          <path id="Path_3983" data-name="Path 3983" d="M433.369,160.024a1.358,1.358,0,0,0-1.357,1.357v13.571a1.357,1.357,0,0,0,2.714,0V161.381A1.358,1.358,0,0,0,433.369,160.024Z" transform="translate(-432.012 -160.024)"/>
        </g>
      </g>
      <g id="Group_2904" data-name="Group 2904" transform="translate(5.428 13.573)">
        <g id="Group_2903" data-name="Group 2903" transform="translate(0)">
          <path id="Path_3984" data-name="Path 3984" d="M135.082,160.024H113.369a1.357,1.357,0,1,0,0,2.714h21.713a1.357,1.357,0,1,0,0-2.714Z" transform="translate(-112.012 -160.024)"/>
        </g>
      </g>
      <g id="Group_2906" data-name="Group 2906" transform="translate(5.428 0.001)">
        <g id="Group_2905" data-name="Group 2905" transform="translate(0)">
          <path id="Path_3985" data-name="Path 3985" d="M118.09,6.173,114.507.637a1.357,1.357,0,1,0-2.28,1.471l3.583,5.537a1.357,1.357,0,1,0,2.28-1.471Z" transform="translate(-112.01 -0.014)"/>
        </g>
      </g>
      <g id="Group_2908" data-name="Group 2908" transform="translate(23.776 0)">
        <g id="Group_2907" data-name="Group 2907" transform="translate(0 0)">
          <path id="Path_3986" data-name="Path 3986" d="M333.742.187a1.358,1.358,0,0,0-1.856.483L328.52,6.4A1.359,1.359,0,0,0,329,8.256a1.335,1.335,0,0,0,.687.187,1.359,1.359,0,0,0,1.17-.67l3.365-5.727A1.359,1.359,0,0,0,333.742.187Z" transform="translate(-328.333 0)"/>
        </g>
      </g>
      <g id="Group_2910" data-name="Group 2910" transform="translate(19.04 8.144)">
        <g id="Group_2909" data-name="Group 2909" transform="translate(0)">
          <path id="Path_3987" data-name="Path 3987" d="M273.863,96.024h-.027a1.344,1.344,0,0,0-1.343,1.357,1.364,1.364,0,1,0,1.371-1.357Z" transform="translate(-272.492 -96.024)"/>
        </g>
      </g>
      <g id="Group_2912" data-name="Group 2912" transform="translate(13.611 8.144)">
        <g id="Group_2911" data-name="Group 2911">
          <path id="Path_3988" data-name="Path 3988" d="M209.863,96.024h-.027a1.346,1.346,0,0,0-1.343,1.357,1.364,1.364,0,1,0,1.371-1.357Z" transform="translate(-208.492 -96.024)"/>
        </g>
      </g>
    </g>
    <circle id="Ellipse_552" data-name="Ellipse 552" cx="2.891" cy="2.891" r="2.891" transform="translate(62.641 210.723)" fill="#77b65d"/>
    <circle id="Ellipse_553" data-name="Ellipse 553" cx="1.667" cy="1.667" r="1.667" transform="translate(32.045 181.351)" fill="#77b65d"/>
  </g>
</svg>
