<svg xmlns="http://www.w3.org/2000/svg" xmlns:xlink="http://www.w3.org/1999/xlink" width="48.705" height="48.666" viewBox="0 0 48.705 48.666">
  <defs>
    <filter id="Path_410" x="0" y="2.944" width="48.705" height="45.722" filterUnits="userSpaceOnUse">
      <feOffset dy="3" input="SourceAlpha"/>
      <feGaussianBlur stdDeviation="3" result="blur"/>
      <feFlood flood-opacity="0.161"/>
      <feComposite operator="in" in2="blur"/>
      <feComposite in="SourceGraphic"/>
    </filter>
  </defs>
  <g id="apple" transform="translate(-158.52 -176.748)">
    <g id="apple-2" data-name="apple" transform="translate(165.934 177)">
      <path id="Path_408" data-name="Path 408" d="M-216.957,600.948a4.3,4.3,0,0,1-1.908.5h-.036c-1.908,0-3.529-2.089-4.717-3.925a17.141,17.141,0,0,1-2.881-11.738,8.288,8.288,0,0,1,1.08-3.025,7.333,7.333,0,0,1,5.869-3.565,8.268,8.268,0,0,1,3.025.684,8.453,8.453,0,0,0,2.953.648,7.621,7.621,0,0,0,2.665-.612,8.285,8.285,0,0,1,3.241-.72,6.969,6.969,0,0,1,4.753,2.161l.072.072-.072.072a7.3,7.3,0,0,0-2.593,3.457,7.647,7.647,0,0,0,3.673,9.362l.072.036-.036.072a21.253,21.253,0,0,1-1.62,2.917c-1.26,1.908-2.953,4.141-4.825,4.141h-.036a4.15,4.15,0,0,1-1.872-.5,7.1,7.1,0,0,0-3.349-.792h-.036A7.065,7.065,0,0,0-216.957,600.948Z" transform="translate(232.908 -568.961)" opacity="0.4"/>
      <g id="Apple-3" data-name="Apple" transform="translate(1.836 0)">
        <g id="_Group_" transform="translate(0 0)">
          <g id="_Path_" transform="translate(14.942)">
            <path id="Path_409" data-name="Path 409" d="M-196.5,560.032a1.088,1.088,0,0,1-.576-.18.887.887,0,0,1-.324-.684,8.423,8.423,0,0,1,6.7-8.39.962.962,0,0,1,.756.18.886.886,0,0,1,.324.684,8.423,8.423,0,0,1-6.7,8.39Zm4.969-7.129a6.544,6.544,0,0,0-4,5.005A6.544,6.544,0,0,0-191.533,552.9Z" transform="translate(197.404 -550.765)" stroke="#000" stroke-width="0.5"/>
          </g>
          <g id="_Path_2" transform="translate(0 8.942)">
            <g transform="matrix(1, 0, 0, 1, -9.25, -9.19)" filter="url(#Path_410)">
              <path id="Path_410-2" data-name="Path 410" d="M-216.323,602.822a9.839,9.839,0,0,1-4.249-.9,6.163,6.163,0,0,0-2.484-.612,5.628,5.628,0,0,0-2.485.612,9.839,9.839,0,0,1-4.249.9c-3.349,0-9.11-8.21-9.11-16.6,0-7.85,4.9-10.622,9.11-10.622a9.145,9.145,0,0,1,3.565.792,8.375,8.375,0,0,0,3.169.72,8.375,8.375,0,0,0,3.169-.72,9.493,9.493,0,0,1,3.6-.792,9.1,9.1,0,0,1,6.589,2.845.836.836,0,0,1,.216.756,1.049,1.049,0,0,1-.432.648,6.505,6.505,0,0,0-3.277,5.617,6.21,6.21,0,0,0,3.925,5.869.9.9,0,0,1,.5,1.116C-210.382,597.529-213.587,602.822-216.323,602.822Zm-6.733-3.277a7.446,7.446,0,0,1,3.133.72,8.214,8.214,0,0,0,3.565.756c1.116,0,3.817-3.241,5.617-8.354a8.05,8.05,0,0,1-4.285-7.2h0a8.368,8.368,0,0,1,3.2-6.481,7.181,7.181,0,0,0-4.5-1.548h-.036a7.548,7.548,0,0,0-2.917.684,9.687,9.687,0,0,1-3.817.828,9.84,9.84,0,0,1-3.817-.828,7.549,7.549,0,0,0-2.917-.684c-1.224,0-7.309.432-7.309,8.822,0,8.138,5.545,14.8,7.309,14.8a8.213,8.213,0,0,0,3.565-.756A7.506,7.506,0,0,1-223.057,599.545Z" transform="translate(248.15 -566.41)" stroke="#000" stroke-width="0.5"/>
            </g>
          </g>
        </g>
      </g>
      <circle id="Ellipse_142" data-name="Ellipse 142" cx="2.881" cy="2.881" r="2.881" transform="translate(0 3.505)"/>
      <circle id="Ellipse_143" data-name="Ellipse 143" cx="1.116" cy="1.116" r="1.116" transform="translate(6.949 0.733)"/>
      <circle id="Ellipse_144" data-name="Ellipse 144" cx="1.764" cy="1.764" r="1.764" transform="translate(30.246 32.491)"/>
    </g>
  </g>
</svg>
