<svg xmlns="http://www.w3.org/2000/svg" xmlns:xlink="http://www.w3.org/1999/xlink" width="76.305" height="76.233" viewBox="0 0 76.305 76.233">
  <defs>
    <filter id="Subtraction_7" x="0" y="0" width="76.305" height="76.233" filterUnits="userSpaceOnUse">
      <feOffset dy="3" input="SourceAlpha"/>
      <feGaussianBlur stdDeviation="3" result="blur"/>
      <feFlood flood-opacity="0.161"/>
      <feComposite operator="in" in2="blur"/>
      <feComposite in="SourceGraphic"/>
    </filter>
    <filter id="Path_3" x="15.104" y="12.841" width="48.228" height="45.361" filterUnits="userSpaceOnUse">
      <feOffset dy="3" input="SourceAlpha"/>
      <feGaussianBlur stdDeviation="3" result="blur-2"/>
      <feFlood flood-opacity="0.161"/>
      <feComposite operator="in" in2="blur-2"/>
      <feComposite in="SourceGraphic"/>
    </filter>
  </defs>
  <g id="buddypress" transform="translate(8.87 5.582)">
    <g transform="matrix(1, 0, 0, 1, -8.87, -5.58)" filter="url(#Subtraction_7)">
      <path id="Subtraction_7-2" data-name="Subtraction 7" d="M29.153,58.235c-1.318,0-2.835-.062-3.453-.14s-1.722-.262-2.443-.408-1.866-.43-2.524-.629-1.686-.558-2.284-.8-1.593-.681-2.2-.98-1.608-.843-2.231-1.224c-.6-.362-1.623-1.058-2.285-1.551s-1.676-1.331-2.284-1.881-1.545-1.5-2.072-2.1-1.3-1.556-1.724-2.119S4.513,44.762,4.056,44,2.951,42,2.6,41.235s-.857-2.073-1.138-2.921S.835,36.223.687,35.551s-.345-1.709-.44-2.337c-.092-.611-.2-2.065-.23-3.241a31.9,31.9,0,0,1,.068-3.506c.07-.759.241-2,.382-2.762s.417-1.951.619-2.657.589-1.842.867-2.55.8-1.873,1.175-2.6S4.072,14.137,4.4,13.61,5.414,12.1,5.917,11.432A31.933,31.933,0,0,1,8.534,8.5a31.627,31.627,0,0,1,2.981-2.66c.7-.522,1.711-1.223,2.258-1.561S15.31,3.4,16,3.049s1.562-.758,1.94-.918,1.162-.452,1.753-.652,1.615-.5,2.284-.673S23.8.4,24.53.283c.691-.11,1.51-.23,1.753-.257C26.43.01,27.066,0,27.984,0c.5,0,1.051,0,1.593.008a23.208,23.208,0,0,1,4.2.256c.737.127,1.881.369,2.551.539s1.8.507,2.5.747,2.038.807,2.975,1.262,2.153,1.106,2.709,1.451,1.583,1.055,2.284,1.579A31.61,31.61,0,0,1,49.772,8.5a32.058,32.058,0,0,1,2.617,2.929c.5.672,1.181,1.65,1.513,2.178s.907,1.559,1.275,2.284.9,1.9,1.175,2.6.669,1.856.868,2.55.477,1.888.619,2.657.311,2,.382,2.762a31.43,31.43,0,0,1,.065,3.506c-.034,1.176-.137,2.63-.229,3.241s-.287,1.66-.437,2.337-.5,1.923-.78,2.763S56.05,40.47,55.7,41.235s-1,2-1.453,2.763-1.167,1.839-1.591,2.408-1.194,1.513-1.723,2.119-1.457,1.544-2.072,2.1-1.645,1.4-2.285,1.881-1.676,1.181-2.284,1.551-1.622.928-2.231,1.224-1.606.741-2.2.98-1.626.6-2.284.8-1.786.48-2.524.629c-.722.146-1.818.329-2.443.408S30.471,58.235,29.153,58.235ZM29,3.3c-.664,0-1.319.019-1.71.049-.606.048-1.556.159-2.118.247s-1.548.288-2.167.439-1.657.456-2.291.673-1.614.6-2.167.842-1.415.673-1.9.942-1.3.77-1.823,1.112-1.311.916-1.771,1.282-1.277,1.084-1.812,1.593S9.9,11.842,9.44,12.381s-1.233,1.572-1.723,2.3A29.69,29.69,0,0,0,6,17.658a29.193,29.193,0,0,0-1.31,3.128,29.314,29.314,0,0,0-.787,2.931c-.163.817-.347,1.956-.41,2.541a29.131,29.131,0,0,0-.066,3.273,22.523,22.523,0,0,0,.263,3.42c.114.667.321,1.653.461,2.2s.406,1.432.6,2,.5,1.37.687,1.808.577,1.235.881,1.807.866,1.51,1.258,2.1,1.069,1.518,1.5,2.052,1.248,1.436,1.819,2,1.5,1.4,2.064,1.85,1.559,1.167,2.213,1.592a28.954,28.954,0,0,0,2.562,1.438c.764.373,1.8.828,2.315,1.015s1.4.478,1.97.639,1.469.383,2.02.493,1.557.264,2.266.347,1.989.149,2.857.149,2.149-.067,2.858-.149,1.725-.238,2.265-.347,1.456-.332,2.02-.493,1.447-.447,1.971-.639,1.553-.644,2.315-1.015a28.948,28.948,0,0,0,2.561-1.438c.652-.423,1.645-1.138,2.214-1.592s1.472-1.262,2.02-1.8,1.361-1.441,1.819-2,1.179-1.548,1.608-2.2a29.678,29.678,0,0,0,1.5-2.638,28.683,28.683,0,0,0,1.179-2.785c.25-.726.561-1.734.692-2.247s.335-1.489.448-2.15a22.558,22.558,0,0,0,.262-3.42,28.332,28.332,0,0,0-.067-3.273c-.067-.606-.208-1.548-.314-2.1s-.306-1.44-.445-1.955-.437-1.445-.654-2.052-.741-1.8-1.161-2.639a30.745,30.745,0,0,0-1.648-2.833c-.493-.731-1.265-1.761-1.722-2.3s-1.241-1.367-1.755-1.859S45.787,9.307,45.27,8.9,43.927,7.886,43.448,7.57s-1.318-.826-1.871-1.133-1.491-.758-2.119-1.025-1.679-.655-2.364-.876-1.738-.506-2.364-.644-1.64-.313-2.266-.392-1.8-.166-2.611-.192C29.6,3.3,29.308,3.3,29,3.3Z" transform="translate(9 6)"/>
    </g>
    <ellipse id="Ellipse_549" data-name="Ellipse 549" cx="21.5" cy="21" rx="21.5" ry="21" transform="translate(6.269 13.502)" fill="#f87171"/>
    <ellipse id="Ellipse_126" cx="8.86" cy="8.86" rx="8.86" ry="8.86" transform="translate(19.154 10.464)" fill="#f87171"/>
    <g transform="matrix(1, 0, 0, 1, -8.87, -5.58)" filter="url(#Path_3)">
      <path id="Path_3-2" data-name="Path 3" d="M122.635,88.174a9.749,9.749,0,0,0-1.183.375,5.982,5.982,0,0,0-.845.388c-.137.1-.144.13-.042.158.069.019.373.12.676.224a9.643,9.643,0,0,1,.971.4,10.256,10.256,0,0,1,.929.553,10.443,10.443,0,0,1,1.128.938,9.553,9.553,0,0,1,1.123,1.357A9.225,9.225,0,0,1,126.153,94a11.083,11.083,0,0,1,.419,1.436,8.736,8.736,0,0,1,0,3.294,9.934,9.934,0,0,1-.391,1.351,8.485,8.485,0,0,1-.454.966l-.22.376a6.233,6.233,0,0,0,1.1-.333,8.945,8.945,0,0,0,.97-.482,8.2,8.2,0,0,0,1.188-.992,7.854,7.854,0,0,0,1.074-1.309,9.3,9.3,0,0,0,.625-1.394,4.475,4.475,0,0,0,.279-2.027,5.567,5.567,0,0,0-.193-1.9,8.714,8.714,0,0,0-.525-1.309,8.177,8.177,0,0,0-.823-1.225,7.677,7.677,0,0,0-1.038-1,8.769,8.769,0,0,0-1.134-.708,8.2,8.2,0,0,0-1.394-.5,5.768,5.768,0,0,0-1.647-.194A8.469,8.469,0,0,0,122.635,88.174Zm-5.068,2.243a9.444,9.444,0,0,0-1.225.309,6.838,6.838,0,0,0-1.2.531c-.267.163-.7.468-.968.677a7.293,7.293,0,0,0-.981,1.014,7.966,7.966,0,0,0-.78,1.225,9.692,9.692,0,0,0-.471,1.267,5.454,5.454,0,0,0-.191,1.689,6.263,6.263,0,0,0,.152,1.6,8.83,8.83,0,0,0,.424,1.182,9.083,9.083,0,0,0,.612,1.1,7.976,7.976,0,0,0,.925,1.058,8.073,8.073,0,0,0,1.172.9,8.711,8.711,0,0,0,1.394.621,5.3,5.3,0,0,0,1.732.312,6.1,6.1,0,0,0,1.647-.1,8.753,8.753,0,0,0,1.267-.368,7.9,7.9,0,0,0,1.14-.612,8.409,8.409,0,0,0,1.091-.889,8.506,8.506,0,0,0,.911-1.133,7.026,7.026,0,0,0,.584-1.1c.095-.256.235-.693.311-.971a6.423,6.423,0,0,0,.14-1.6,5.363,5.363,0,0,0-.189-1.753,8.331,8.331,0,0,0-.452-1.183,9.29,9.29,0,0,0-.623-1.035,7.559,7.559,0,0,0-.813-.933,8.8,8.8,0,0,0-.876-.713,7.925,7.925,0,0,0-.929-.522,8.172,8.172,0,0,0-1.183-.406,8.719,8.719,0,0,0-1.394-.208A7.53,7.53,0,0,0,117.567,90.417Zm10.63,11.717c-.119.128-.4.451-.63.718-.352.414-.391.494-.265.541.081.03.376.146.655.258a7.038,7.038,0,0,1,1.056.571,8.686,8.686,0,0,1,1.046.862,9.547,9.547,0,0,1,.859,1,11.4,11.4,0,0,1,.787,1.394,12.972,12.972,0,0,1,.632,1.6,16.853,16.853,0,0,1,.357,1.647,3.8,3.8,0,0,0,.241.991,8.857,8.857,0,0,0,1.4.063,9.14,9.14,0,0,0,1.411-.063c.078-.047.083-.349.021-1.286-.044-.674-.137-1.529-.205-1.9s-.224-1.018-.345-1.436a11.663,11.663,0,0,0-.514-1.394,6.6,6.6,0,0,0-1.561-2.156,6.623,6.623,0,0,0-1.088-.813,7.329,7.329,0,0,0-1.1-.481,8.811,8.811,0,0,0-1.1-.263,7.884,7.884,0,0,0-1-.087C128.481,101.9,128.38,101.937,128.2,102.134Zm-15.867,1.833c-.325.059-.819.173-1.1.253a9.95,9.95,0,0,0-1.14.44,8.417,8.417,0,0,0-1.14.658,8.563,8.563,0,0,0-.98.86,9.018,9.018,0,0,0-.856,1.087,9.78,9.78,0,0,0-.682,1.309,12,12,0,0,0-.467,1.394c-.094.372-.219.98-.278,1.351a18.627,18.627,0,0,0-.109,2.154,15.486,15.486,0,0,0,.059,1.71l.061.232c24.9,0,25.6-.008,25.656-.148a15.515,15.515,0,0,0,.06-1.837,12.5,12.5,0,0,0-.153-2.449c-.083-.418-.21-.97-.283-1.225s-.253-.75-.4-1.1a9.361,9.361,0,0,0-.65-1.225,9.7,9.7,0,0,0-.806-1.056,8.712,8.712,0,0,0-1.007-.9,9.825,9.825,0,0,0-1.386-.818,10.329,10.329,0,0,0-1.478-.557,9.652,9.652,0,0,0-1.225-.229l-.549-.053-4.941,4.839-4.9-4.814A8.27,8.27,0,0,0,112.33,103.967Z" transform="translate(-81.48 -69.21)"/>
    </g>
    <ellipse id="Ellipse_127" cx="3.413" cy="3.413" rx="3.413" ry="3.413" transform="translate(47.935 53.816)" fill="#f87171"/>
    <ellipse id="Ellipse_127-2" data-name="Ellipse_127" cx="3.413" cy="3.413" rx="3.413" ry="3.413" transform="translate(3.935 -1.184)" fill="#f87171"/>
    <ellipse id="Ellipse_128" cx="1.377" cy="1.377" rx="1.377" ry="1.377" transform="translate(56.32 53.131)" fill="#f87171"/>
  </g>
</svg>
