<svg xmlns="http://www.w3.org/2000/svg" xmlns:xlink="http://www.w3.org/1999/xlink" width="63.123" height="57.038" viewBox="0 0 63.123 57.038">
  <defs>
    <filter id="Path_504" x="0" y="0" width="63.123" height="57.038" filterUnits="userSpaceOnUse">
      <feOffset dy="3" input="SourceAlpha"/>
      <feGaussianBlur stdDeviation="3" result="blur"/>
      <feFlood flood-opacity="0.161"/>
      <feComposite operator="in" in2="blur"/>
      <feComposite in="SourceGraphic"/>
    </filter>
  </defs>
  <g id="cross" transform="translate(9 -33.882)">
    <g id="Group_336" data-name="Group 336" transform="translate(0 39.882)">
      <rect id="Rectangle_15" data-name="Rectangle 15" width="21" height="20" rx="3" transform="translate(4.558 8.873)" fill="#ffd45e"/>
      <rect id="Rectangle_16" data-name="Rectangle 16" width="7" height="20" rx="3" transform="translate(36.558 17.873)" fill="#ffd45e"/>
      <g id="Group_335" data-name="Group 335">
        <g transform="matrix(1, 0, 0, 1, -9, -6)" filter="url(#Path_504)">
          <path id="Path_504-2" data-name="Path 504" d="M42.038,76H27.056c-1.7,0-3.085,1.7-3.085,3.8H3.085C1.384,79.8,0,81.5,0,83.591v23.857c0,2.093,1.384,3.8,3.085,3.8H23.972c0,2.093,1.384,3.8,3.085,3.8H42.038c1.7,0,3.085-1.7,3.085-3.8V79.8C45.123,77.7,43.739,76,42.038,76ZM23.972,107.99H3.085a.5.5,0,0,1-.441-.542v-1.627H23.972Zm0-5.422H2.644V83.591a.5.5,0,0,1,.441-.542H23.972Zm13.81-23.315-.353,2.169H31.665l-.353-2.169Zm4.7,31.99a.5.5,0,0,1-.441.542H27.056a.5.5,0,0,1-.441-.542V79.8a.5.5,0,0,1,.441-.542h1.56l.881,5.422H39.6l.881-5.422h1.56a.5.5,0,0,1,.441.542Z" transform="translate(9 -70)"/>
        </g>
      </g>
    </g>
    <ellipse id="Ellipse_126" cx="2.357" cy="2.357" rx="2.357" ry="2.357" transform="translate(14.461 35.215)" fill="#ffd45e"/>
  </g>
</svg>
