<svg xmlns="http://www.w3.org/2000/svg" xmlns:xlink="http://www.w3.org/1999/xlink" width="73.216" height="70.323" viewBox="0 0 73.216 70.323">
  <defs>
    <filter id="Path_308" x="0" y="1.422" width="73.216" height="68.901" filterUnits="userSpaceOnUse">
      <feOffset dy="3" input="SourceAlpha"/>
      <feGaussianBlur stdDeviation="3" result="blur"/>
      <feFlood flood-opacity="0.161"/>
      <feComposite operator="in" in2="blur"/>
      <feComposite in="SourceGraphic"/>
    </filter>
  </defs>
  <g id="enterprise" transform="translate(3.735)">
    <path id="Path_307" data-name="Path 307" d="M164.348,225.229c-6.048-.167-10.157-.334-16.218-.514H128.111A3.721,3.721,0,0,1,124.4,221V195.9h40.038v6.767C165.054,210.179,163.732,217.7,164.348,225.229Z" transform="translate(-108.426 -170.745)" fill="#32373c" opacity="0.4"/>
    <g transform="matrix(1, 0, 0, 1, -3.74, 0)" filter="url(#Path_308)">
      <path id="Path_308-2" data-name="Path 308" d="M89.744,57.8H47.472A6.478,6.478,0,0,0,41,64.272v35.8a8.64,8.64,0,0,0,8.629,8.629H72.922a2.157,2.157,0,0,0,0-4.315H49.629a4.324,4.324,0,0,1-4.315-4.315V70.846H91.9v7.871a2.157,2.157,0,1,0,4.315,0V64.272A6.478,6.478,0,0,0,89.744,57.8Zm-8.732,4.315a2.157,2.157,0,1,1-2.157,2.157A2.154,2.154,0,0,1,81.012,62.115ZM91.8,64.272a2.157,2.157,0,1,1-2.157-2.157A2.154,2.154,0,0,1,91.8,64.272Zm-46.484,0a2.154,2.154,0,0,1,2.157-2.157H74.913a6.427,6.427,0,0,0,.039,4.417H45.315Zm42.17,32.346a2.157,2.157,0,1,1,2.157-2.157A2.154,2.154,0,0,1,87.484,96.618Zm7.075-9.425a17,17,0,0,1,.026,14.587,5.793,5.793,0,0,1-5.3,3.467h-.013l-6.819-.013a5.8,5.8,0,0,1-5.367-3.608,18.618,18.618,0,0,1-.873-2.774,2.152,2.152,0,0,1,4.186-1,13.114,13.114,0,0,0,.668,2.132,1.507,1.507,0,0,0,1.387.937l6.819.013h0a1.46,1.46,0,0,0,1.348-.886,14.474,14.474,0,0,0,1.271-5.6,13.865,13.865,0,0,0-1.271-5.5,1.468,1.468,0,0,0-1.374-.86H82.515a1.4,1.4,0,0,0-1.374.886,15.641,15.641,0,0,0-.706,2.221,2.156,2.156,0,0,1-2.093,1.644H63.523L61.918,94.5l1.669,1.695h6.1a2.157,2.157,0,0,1,0,4.315H62.675a2.178,2.178,0,0,1-1.541-.642l-3.775-3.839a2.167,2.167,0,0,1-.013-3.018L61.057,89.2a2.138,2.138,0,0,1,1.541-.655H76.723c.141-.437.283-.809.4-1.1a5.7,5.7,0,0,1,5.393-3.647h6.741A5.791,5.791,0,0,1,94.559,87.193Z" transform="translate(-32 -50.38)"/>
    </g>
    <ellipse id="Ellipse_63" data-name="Ellipse 63" cx="3.056" cy="3.056" rx="3.056" ry="3.056" transform="translate(0 0)" fill="#32373c"/>
    <ellipse id="Ellipse_64" data-name="Ellipse 64" cx="1.541" cy="1.541" rx="1.541" ry="1.541" transform="translate(7.692 3.056)" fill="#32373c"/>
    <ellipse id="Ellipse_65" data-name="Ellipse 65" cx="3" cy="3.5" rx="3" ry="3.5" transform="translate(57.858 58)" fill="#32373c"/>
    <ellipse id="Ellipse_66" data-name="Ellipse 66" cx="2.17" cy="2.17" rx="2.17" ry="2.17" transform="translate(52.738 56.911)" fill="#32373c"/>
  </g>
</svg>
