<svg xmlns="http://www.w3.org/2000/svg" width="48.624" height="43.859" viewBox="0 0 48.624 43.859">
  <g id="experience" transform="translate(-0.583 -2.29)">
    <g id="Group_2973" data-name="Group 2973" transform="translate(0.583 2.29)">
      <path id="Path_4083" data-name="Path 4083" d="M44.205,37.653c0-9.656,5-16.286,5-20.939S46.532,2.29,25.129,2.29.583,15.435.583,20.553C.583,44.517,44.205,54.753,44.205,37.653Z" transform="translate(-0.583 -2.29)" fill="#efefef"/>
    </g>
    <g id="Group_2974" data-name="Group 2974" transform="translate(37.097 3.853)">
      <path id="Path_4084" data-name="Path 4084" d="M0,0H1.4V2.792H0Z" transform="translate(0 0.987) rotate(-45)" fill="#a4afc1"/>
    </g>
    <g id="Group_2975" data-name="Group 2975" transform="translate(42.772 9.529)">
      <path id="Path_4085" data-name="Path 4085" d="M0,0H1.4V2.792H0Z" transform="translate(0 0.987) rotate(-45)" fill="#a4afc1"/>
    </g>
    <g id="Group_2976" data-name="Group 2976" transform="translate(42.527 3.853)">
      <path id="Path_4086" data-name="Path 4086" d="M0,0H2.792V1.4H0Z" transform="translate(0 1.974) rotate(-45)" fill="#a4afc1"/>
    </g>
    <g id="Group_2977" data-name="Group 2977" transform="translate(4.655 17.938)">
      <path id="Path_4087" data-name="Path 4087" d="M5.594,17.688a2.094,2.094,0,1,1,2.094-2.094A2.1,2.1,0,0,1,5.594,17.688Zm0-2.792a.7.7,0,1,0,.7.7A.7.7,0,0,0,5.594,14.9Z" transform="translate(-3.5 -13.5)" fill="#a4afc1"/>
    </g>
    <g id="Group_2978" data-name="Group 2978" transform="translate(9.192 17.589)">
      <path id="Path_4088" data-name="Path 4088" d="M18.964,13.25,31.528,35.585H6.75Z" transform="translate(-6.75 -13.25)" fill="#c5bbf5"/>
    </g>
    <g id="Group_2979" data-name="Group 2979" transform="translate(30.023 26.663)">
      <path id="Path_4089" data-name="Path 4089" d="M21.673,26.124l3.248-6.374L32.25,33.011H25.619Z" transform="translate(-21.673 -19.75)" fill="#c5bbf5"/>
    </g>
    <g id="Group_2980" data-name="Group 2980" transform="translate(21.406 8.516)">
      <path id="Path_4090" data-name="Path 4090" d="M15.5,6.75h8.027L21.433,9.193l2.094,2.443H15.5Z" transform="translate(-15.5 -6.75)" fill="#f3f3f1"/>
    </g>
    <g id="Group_2981" data-name="Group 2981" transform="translate(21.406 8.516)">
      <path id="Path_4091" data-name="Path 4091" d="M15.5,6.75h3.141v4.886H15.5Z" transform="translate(-15.5 -6.75)" fill="#d5dbe1"/>
    </g>
    <g id="Group_2982" data-name="Group 2982" transform="translate(9.192 17.589)">
      <path id="Path_4092" data-name="Path 4092" d="M18.964,13.25,6.75,35.585H9.716L20.468,15.923Z" transform="translate(-6.75 -13.25)" fill="#9f8feb"/>
    </g>
    <g id="Group_2983" data-name="Group 2983" transform="translate(30.023 26.663)">
      <path id="Path_4093" data-name="Path 4093" d="M26.464,22.542,24.921,19.75l-3.248,6.374,3.946,6.887h2.966l-3.946-6.887Z" transform="translate(-21.673 -19.75)" fill="#9f8feb"/>
    </g>
    <g id="Group_2984" data-name="Group 2984" transform="translate(8.145 16.542)">
      <path id="Path_4094" data-name="Path 4094" d="M31.824,36.929H7.047a1.048,1.048,0,0,1-.919-1.549l4.008-7.329,1.837,1.005-3.16,5.779H30.035l-10.76-19.13L13.31,26.613l-1.837-1.005,6.871-12.563a1.046,1.046,0,0,1,.913-.544,1.072,1.072,0,0,1,.919.533L32.739,35.368a1.047,1.047,0,0,1-.914,1.561Z" transform="translate(-6 -12.5)"/>
    </g>
    <g id="Group_2985" data-name="Group 2985" transform="translate(29.089 25.616)">
      <path id="Path_4095" data-name="Path 4095" d="M32.515,34.355H25.884V32.261h4.856l-5.517-9.982L22.869,26.9,21,25.945l3.25-6.374A1.047,1.047,0,0,1,25.168,19a1.022,1.022,0,0,1,.934.54L33.43,32.8a1.047,1.047,0,0,1-.916,1.554Z" transform="translate(-21.004 -19)"/>
    </g>
    <g id="Group_2986" data-name="Group 2986" transform="translate(20.359 7.469)">
      <path id="Path_4096" data-name="Path 4096" d="M16.844,16.12H14.75V7.047A1.047,1.047,0,0,1,15.8,6h8.027a1.048,1.048,0,0,1,.794,1.73L23.109,9.49l1.51,1.762a1.047,1.047,0,0,1-.8,1.728h-6.98Zm0-5.235h4.7l-.611-.715a1.048,1.048,0,0,1,0-1.364l.611-.713h-4.7Z" transform="translate(-14.75 -6)"/>
    </g>
    <g id="Group_2987" data-name="Group 2987" transform="translate(16.649 24.22)">
      <path id="Path_4097" data-name="Path 4097" d="M18.943,22.188a1.042,1.042,0,0,1-.74-.307l-1.354-1.354L15.5,21.881a1.046,1.046,0,0,1-1.407.067l-2-1.647,1.333-1.615,1.262,1.043,1.421-1.421a1.047,1.047,0,0,1,1.481,0l1.421,1.421,1.262-1.043L21.605,20.3l-2,1.647a1.042,1.042,0,0,1-.666.24Z" transform="translate(-12.092 -18)"/>
    </g>
    <g id="Group_2988" data-name="Group 2988" transform="translate(2.561 38.877)">
      <path id="Path_4098" data-name="Path 4098" d="M2,28.5H46.669v2.094H2Z" transform="translate(-2 -28.5)"/>
    </g>
  </g>
</svg>
