<svg xmlns="http://www.w3.org/2000/svg" width="47.614" height="51.83" viewBox="0 0 47.614 51.83">
  <g id="experts" transform="translate(-2 -0.583)">
    <g id="Group_2924" data-name="Group 2924" transform="translate(2.432 0.583)">
      <path id="Path_4034" data-name="Path 4034" d="M11.347,47.081c10.292,0,17.36,5.331,22.319,5.331s15.375-2.851,15.375-25.666S35.029.583,29.574.583c-25.544,0-36.455,46.5-18.227,46.5Z" transform="translate(-2.29 -0.583)" fill="#efefef"/>
    </g>
    <g id="Group_2925" data-name="Group 2925" transform="translate(38.641 4.551)">
      <path id="Path_4035" data-name="Path 4035" d="M26.625,3.25h1.488V6.226H26.625Z" transform="translate(-26.625 -3.25)" fill="#a4afc1"/>
    </g>
    <g id="Group_2926" data-name="Group 2926" transform="translate(41.989 9.015)">
      <path id="Path_4036" data-name="Path 4036" d="M28.875,6.25h2.976V7.738H28.875Z" transform="translate(-28.875 -6.25)" fill="#a4afc1"/>
    </g>
    <g id="Group_2927" data-name="Group 2927" transform="translate(7.208 46.586)">
      <path id="Path_4037" data-name="Path 4037" d="M7.732,35.964a2.232,2.232,0,1,1,2.232-2.232A2.235,2.235,0,0,1,7.732,35.964Zm0-2.976a.744.744,0,1,0,.744.744A.745.745,0,0,0,7.732,32.988Z" transform="translate(-5.5 -31.5)" fill="#a4afc1"/>
    </g>
    <g id="Group_2928" data-name="Group 2928" transform="translate(9.068 9.759)">
      <path id="Path_4038" data-name="Path 4038" d="M23.489,6.75h-.06A12.37,12.37,0,0,0,11.095,19.13h.015a5.512,5.512,0,0,1-.848,2.931L6.869,27.953a.663.663,0,0,0-.119.387.721.721,0,0,0,.729.729h3.735v4.508a2.178,2.178,0,0,0,2.172,2.187,1.862,1.862,0,0,0,.64-.1l4.628-1.25v5.818h4.836Z" transform="translate(-6.75 -6.75)" fill="#ff9d8f"/>
    </g>
    <g id="Group_2929" data-name="Group 2929" transform="translate(25.807 9.759)">
      <path id="Path_4039" data-name="Path 4039" d="M30.945,25.6a15.076,15.076,0,0,0,0-4.226L33.46,19.07a1.491,1.491,0,0,0,.268-1.815l-2.47-4.27a1.433,1.433,0,0,0-1.7-.655l-3.273,1.027a12.908,12.908,0,0,0-3.645-2.113l-.759-3.363A1.45,1.45,0,0,0,20.47,6.75H18v9.672a7.068,7.068,0,0,1,0,14.135v9.672h2.47A1.45,1.45,0,0,0,21.884,39.1l.759-3.363a12.908,12.908,0,0,0,3.645-2.113l3.273,1.027a1.433,1.433,0,0,0,1.7-.655l2.47-4.27a1.491,1.491,0,0,0-.268-1.815Z" transform="translate(-18 -6.75)" fill="#f3f3f1"/>
    </g>
    <g id="Group_2930" data-name="Group 2930" transform="translate(9.068 9.759)">
      <path id="Path_4040" data-name="Path 4040" d="M10.1,28.34a.663.663,0,0,1,.119-.387l3.393-5.892a5.512,5.512,0,0,0,.848-2.931h-.015A12.385,12.385,0,0,1,23.489,7.21V6.75h-.06A12.37,12.37,0,0,0,11.095,19.13h.015a5.512,5.512,0,0,1-.848,2.931L6.869,27.953a.663.663,0,0,0-.119.387.721.721,0,0,0,.729.729h3.348A.721.721,0,0,1,10.1,28.34Z" transform="translate(-6.75 -6.75)" fill="#e18073"/>
    </g>
    <g id="Group_2931" data-name="Group 2931" transform="translate(20.971 37.42)">
      <path id="Path_4041" data-name="Path 4041" d="M14.75,26.245v4.913H18.1V25.34Z" transform="translate(-14.75 -25.34)" fill="#e18073"/>
    </g>
    <g id="Group_2932" data-name="Group 2932" transform="translate(13.532 32.078)">
      <path id="Path_4042" data-name="Path 4042" d="M13.1,26.258V21.75H9.75v4.508a2.178,2.178,0,0,0,2.172,2.187,1.862,1.862,0,0,0,.64-.1l1.37-.37a2.179,2.179,0,0,1-.835-1.713Z" transform="translate(-9.75 -21.75)" fill="#e18073"/>
    </g>
    <g id="Group_2933" data-name="Group 2933" transform="translate(36.403 15.271)">
      <path id="Path_4043" data-name="Path 4043" d="M26.161,11.549l1.534-.481a1.427,1.427,0,0,0-1.608-.546l-.966.3c.351.235.713.454,1.04.723Z" transform="translate(-25.121 -10.454)" fill="#d5dbe1"/>
    </g>
    <g id="Group_2934" data-name="Group 2934" transform="translate(25.807 9.759)">
      <path id="Path_4044" data-name="Path 4044" d="M21.348,30.557a7.068,7.068,0,0,0,0-14.135V7.054a1.442,1.442,0,0,0-.878-.3H18v9.672a7.068,7.068,0,0,1,0,14.135v9.672h2.47a1.432,1.432,0,0,0,.878-.3Z" transform="translate(-18 -6.75)" fill="#d5dbe1"/>
    </g>
    <g id="Group_2935" data-name="Group 2935" transform="translate(36.403 36.631)">
      <path id="Path_4045" data-name="Path 4045" d="M26.161,24.81c-.327.269-.69.488-1.04.723l.966.3a1.428,1.428,0,0,0,1.608-.546Z" transform="translate(-25.121 -24.81)" fill="#d5dbe1"/>
    </g>
    <g id="Group_2936" data-name="Group 2936" transform="translate(7.952 8.643)">
      <path id="Path_4046" data-name="Path 4046" d="M23.855,41.711H19.02A1.116,1.116,0,0,1,17.9,40.595V36.234l-3.221.869a2.716,2.716,0,0,1-.93.144,3.3,3.3,0,0,1-3.288-3.3V30.551H7.845A1.848,1.848,0,0,1,6,28.706a1.767,1.767,0,0,1,.327-1.036l3.333-5.8a4.456,4.456,0,0,0,.7-2.211,1.216,1.216,0,0,1-.012-.165,13.427,13.427,0,0,1,2.885-8.337l1.759,1.375a11.207,11.207,0,0,0-2.41,6.788,1.115,1.115,0,0,1,.013.174,6.625,6.625,0,0,1-1.019,3.523l-3.05,5.3H11.58A1.116,1.116,0,0,1,12.7,29.435v4.508a1.066,1.066,0,0,0,1.056,1.071.772.772,0,0,0,.26-.037L18.729,33.7a1.1,1.1,0,0,1,.969.19,1.12,1.12,0,0,1,.437.887v4.7h2.6V8.284a11.138,11.138,0,0,0-5.846,2.33L15.52,8.852A13.353,13.353,0,0,1,23.8,6a1.169,1.169,0,0,1,1.175,1.116V40.595a1.116,1.116,0,0,1-1.116,1.116ZM8.2,28.873v0h0A.012.012,0,0,1,8.2,28.873Z" transform="translate(-6 -6)"/>
    </g>
    <g id="Group_2937" data-name="Group 2937" transform="translate(25.807 8.643)">
      <path id="Path_4047" data-name="Path 4047" d="M20.47,41.711H18V39.479h2.47a.331.331,0,0,0,.324-.263l.759-3.36a1.111,1.111,0,0,1,.693-.8,11.862,11.862,0,0,0,3.332-1.933,1.119,1.119,0,0,1,1.043-.2l3.273,1.027a.317.317,0,0,0,.384-.128l2.48-4.291a.373.373,0,0,0-.079-.457l-2.491-2.284a1.118,1.118,0,0,1-.35-.989,12.962,12.962,0,0,0,.135-1.946,13.176,13.176,0,0,0-.135-1.946,1.118,1.118,0,0,1,.35-.989L32.7,18.61a.365.365,0,0,0,.054-.437l-2.469-4.266a.326.326,0,0,0-.393-.152l-3.278,1.028a1.119,1.119,0,0,1-1.043-.2,11.862,11.862,0,0,0-3.332-1.933,1.114,1.114,0,0,1-.693-.8l-.759-3.363a.326.326,0,0,0-.321-.254H18V6h2.47a2.554,2.554,0,0,1,2.5,2l.631,2.8a14.1,14.1,0,0,1,2.913,1.689l2.713-.851a2.553,2.553,0,0,1,3.009,1.183l2.458,4.247a2.614,2.614,0,0,1-.457,3.177l-2.111,1.937a16.709,16.709,0,0,1,0,3.363l2.089,1.915a2.618,2.618,0,0,1,.481,3.195L32.225,34.92a2.548,2.548,0,0,1-3,1.159l-2.708-.85A14.022,14.022,0,0,1,23.6,36.918l-.631,2.793a2.554,2.554,0,0,1-2.5,2Z" transform="translate(-18 -6)"/>
    </g>
    <g id="Group_2938" data-name="Group 2938" transform="translate(25.807 18.315)">
      <path id="Path_4048" data-name="Path 4048" d="M18,28.867V26.635a5.952,5.952,0,0,0,0-11.9V12.5a8.184,8.184,0,0,1,0,16.367Z" transform="translate(-18 -12.5)"/>
    </g>
    <g id="Group_2939" data-name="Group 2939" transform="translate(2 42.122)">
      <path id="Path_4049" data-name="Path 4049" d="M2,28.5H49.614v2.232H2Z" transform="translate(-2 -28.5)"/>
    </g>
  </g>
</svg>
