<svg xmlns="http://www.w3.org/2000/svg" xmlns:xlink="http://www.w3.org/1999/xlink" width="67.01" height="67.01" viewBox="0 0 67.01 67.01">
  <defs>
    <filter id="Path_1971" x="0" y="0" width="67.01" height="67.01" filterUnits="userSpaceOnUse">
      <feOffset dy="3" input="SourceAlpha"/>
      <feGaussianBlur stdDeviation="3" result="blur"/>
      <feFlood flood-opacity="0.161"/>
      <feComposite operator="in" in2="blur"/>
      <feComposite in="SourceGraphic"/>
    </filter>
  </defs>
  <g id="migration" transform="translate(9 6)">
    <path id="Rectangle_28" data-name="Rectangle 28" d="M0,0H25A10,10,0,0,1,35,10V34a0,0,0,0,1,0,0H0a0,0,0,0,1,0,0V0A0,0,0,0,1,0,0Z" transform="translate(7 14)" fill="#9ab7e9"/>
    <g transform="matrix(1, 0, 0, 1, -9, -6)" filter="url(#Path_1971)">
      <path id="Path_1971-2" data-name="Path 1971" d="M44.7,31.78H43.266V10.051a1.442,1.442,0,0,0-.421-1.016L34.231.421A1.44,1.44,0,0,0,33.216,0H7.179A1.436,1.436,0,0,0,5.743,1.436V8.615H4.307A4.312,4.312,0,0,0,0,12.922v5.743a4.312,4.312,0,0,0,4.308,4.308H5.743v24.6A1.436,1.436,0,0,0,7.179,49.01H41.831a1.436,1.436,0,0,0,1.436-1.436V46.138H44.7a4.312,4.312,0,0,0,4.307-4.308V36.087A4.312,4.312,0,0,0,44.7,31.78Zm1.436,4.308V37.77a4.29,4.29,0,0,0-1.436-.247H36.087a1.436,1.436,0,0,0-1.436,1.436v.189l-4.591-3.06,4.591-3.06v.189a1.436,1.436,0,0,0,1.436,1.436H44.7a1.438,1.438,0,0,1,1.436,1.436ZM34.651,4.9l3.713,3.713H34.651ZM4.307,11.487h8.615a1.436,1.436,0,0,0,1.436-1.436V9.846l4.666,3.077L14.358,16v-.205a1.436,1.436,0,0,0-1.436-1.436H4.307a4.29,4.29,0,0,0-1.436.247V12.922a1.438,1.438,0,0,1,1.436-1.436Zm0,8.615a1.436,1.436,0,1,1,0-2.872H5.743V20.1ZM40.395,46.138H8.615V17.23h2.872v1.436a1.436,1.436,0,0,0,2.226,1.2l8.711-5.743a1.436,1.436,0,0,0,0-2.4L13.713,5.98a1.436,1.436,0,0,0-2.226,1.2V8.615H8.615V2.872H31.78v7.179a1.436,1.436,0,0,0,1.436,1.436h7.179V31.78H37.523V30.344a1.436,1.436,0,0,0-2.232-1.195l-8.615,5.743a1.436,1.436,0,0,0,0,2.389l8.615,5.743a1.436,1.436,0,0,0,2.232-1.195V40.395h2.872ZM44.7,43.266H43.266V40.395H44.7a1.436,1.436,0,1,1,0,2.872Zm0,0" transform="translate(9 6)"/>
    </g>
    <path id="Path_1972" data-name="Path 1972" d="M243.436,152.872h8.615a1.436,1.436,0,1,0,0-2.872h-8.615a1.436,1.436,0,1,0,0,2.872Zm0,0" transform="translate(-218.835 -135.642)"/>
    <path id="Path_1975" data-name="Path 1975" d="M130.147,392h-8.711a1.436,1.436,0,1,0,0,2.872h8.711a1.436,1.436,0,1,0,0-2.872Zm0,0" transform="translate(-108.513 -354.477)"/>
  </g>
</svg>
