<svg xmlns="http://www.w3.org/2000/svg" width="40.266" height="43.83" viewBox="0 0 40.266 43.83">
  <g id="mobile-projects" transform="translate(-2 -0.583)">
    <g id="Group_2957" data-name="Group 2957" transform="translate(2.365 0.583)">
      <path id="Path_4067" data-name="Path 4067" d="M9.949,39.9c8.7,0,14.68,4.508,18.874,4.508s13-2.411,13-21.7S29.976.583,25.363.583C3.762.583-5.465,39.9,9.949,39.9Z" transform="translate(-2.29 -0.583)" fill="#efefef"/>
    </g>
    <g id="Group_2958" data-name="Group 2958" transform="translate(33.331 3.505)">
      <path id="Path_4068" data-name="Path 4068" d="M0,0H1.258V2.517H0Z" transform="translate(0 0.89) rotate(-45)" fill="#a4afc1"/>
    </g>
    <g id="Group_2959" data-name="Group 2959" transform="translate(38.447 8.62)">
      <path id="Path_4069" data-name="Path 4069" d="M0,0H1.258V2.517H0Z" transform="translate(0 0.89) rotate(-45)" fill="#a4afc1"/>
    </g>
    <g id="Group_2960" data-name="Group 2960" transform="translate(38.228 3.511)">
      <path id="Path_4070" data-name="Path 4070" d="M0,0H2.517V1.258H0Z" transform="translate(0 1.779) rotate(-45)" fill="#a4afc1"/>
    </g>
    <g id="Group_2961" data-name="Group 2961" transform="translate(25.593 10.859)">
      <path id="Path_4071" data-name="Path 4071" d="M31.445,23.22V22.06a2.517,2.517,0,0,0-.737-1.779L28.929,18.5V14.8a6.29,6.29,0,0,0-1.119-3.581L26.1,8.75l-1.713,2.474A6.29,6.29,0,0,0,23.267,14.8v3.7l-1.779,1.779a2.517,2.517,0,0,0-.737,1.779v1.16Z" transform="translate(-20.75 -8.75)" fill="#f3f3f1"/>
    </g>
    <g id="Group_2962" data-name="Group 2962" transform="translate(7.977 32.25)">
      <path id="Path_4072" data-name="Path 4072" d="M25,25.75v1.573a2.516,2.516,0,0,1-2.517,2.517H9.267a2.475,2.475,0,0,1-2.517-2.2V25.75Z" transform="translate(-6.75 -25.75)" fill="#f3f3f1"/>
    </g>
    <g id="Group_2963" data-name="Group 2963" transform="translate(7.977 8.343)">
      <path id="Path_4073" data-name="Path 4073" d="M24.366,23.737v-1.16A2.508,2.508,0,0,1,25,20.928V9.267A2.516,2.516,0,0,0,22.479,6.75H9.267A2.516,2.516,0,0,0,6.75,9.267V30.658H25V23.737Z" transform="translate(-6.75 -6.75)" fill="#6497f3"/>
    </g>
    <g id="Group_2964" data-name="Group 2964" transform="translate(7.977 8.343)">
      <path id="Path_4074" data-name="Path 4074" d="M12.1,6.75H9.267A2.516,2.516,0,0,0,6.75,9.267V30.658H9.581V9.267A2.516,2.516,0,0,1,12.1,6.75Z" transform="translate(-6.75 -6.75)" fill="#4684f2"/>
    </g>
    <g id="Group_2965" data-name="Group 2965" transform="translate(25.593 10.859)">
      <path id="Path_4075" data-name="Path 4075" d="M24.161,20.281,25.94,18.5V14.8a6.29,6.29,0,0,1,1.119-3.581l.375-.542L26.1,8.75l-1.713,2.474A6.29,6.29,0,0,0,23.267,14.8v3.7l-1.779,1.779a2.517,2.517,0,0,0-.737,1.779v1.16h2.674V22.06A2.517,2.517,0,0,1,24.161,20.281Z" transform="translate(-20.75 -8.75)" fill="#d5dbe1"/>
    </g>
    <g id="Group_2966" data-name="Group 2966" transform="translate(7.977 32.25)">
      <path id="Path_4076" data-name="Path 4076" d="M9.424,27.637V25.75H6.75v1.887a2.475,2.475,0,0,0,2.517,2.2H11.94A2.475,2.475,0,0,1,9.424,27.637Z" transform="translate(-6.75 -25.75)" fill="#d5dbe1"/>
    </g>
    <g id="Group_2967" data-name="Group 2967" transform="translate(24.649 9.94)">
      <path id="Path_4077" data-name="Path 4077" d="M31.639,24.353h-10.7A.944.944,0,0,1,20,23.409V22.25A3.437,3.437,0,0,1,21.014,19.8l1.5-1.5V14.994A7.225,7.225,0,0,1,23.8,10.875L25.515,8.4a.977.977,0,0,1,1.55,0l1.713,2.474a7.2,7.2,0,0,1,1.288,4.118V18.3l1.5,1.5a3.437,3.437,0,0,1,1.014,2.447v1.159A.944.944,0,0,1,31.639,24.353Zm-9.752-1.887H30.7V22.25a1.563,1.563,0,0,0-.461-1.112l-1.779-1.78a.944.944,0,0,1-.277-.667v-3.7a5.328,5.328,0,0,0-.951-3.044L26.291,10.6l-.937,1.353a5.337,5.337,0,0,0-.95,3.044v3.7a.94.94,0,0,1-.277.667l-1.779,1.779a1.563,1.563,0,0,0-.461,1.112Z" transform="translate(-20 -8.019)"/>
    </g>
    <g id="Group_2968" data-name="Group 2968" transform="translate(32.828 25.33)">
      <path id="Path_4078" data-name="Path 4078" d="M26.5,20.25h1.887v2.517H26.5Z" transform="translate(-26.5 -20.25)"/>
    </g>
    <g id="Group_2969" data-name="Group 2969" transform="translate(27.166 25.33)">
      <path id="Path_4079" data-name="Path 4079" d="M22,20.25h1.887v2.517H22Z" transform="translate(-22 -20.25)"/>
    </g>
    <g id="Group_2970" data-name="Group 2970" transform="translate(7.977 31.307)">
      <path id="Path_4080" data-name="Path 4080" d="M6.75,25H25v1.887H6.75Z" transform="translate(-6.75 -25)"/>
    </g>
    <g id="Group_2971" data-name="Group 2971" transform="translate(7.033 7.399)">
      <path id="Path_4081" data-name="Path 4081" d="M22.672,36.2H9.46A3.463,3.463,0,0,1,6,32.739V9.46A3.463,3.463,0,0,1,9.46,6H22.672a3.463,3.463,0,0,1,3.46,3.46V10.4H24.245V9.46a1.575,1.575,0,0,0-1.573-1.573H9.46A1.575,1.575,0,0,0,7.887,9.46V32.739A1.575,1.575,0,0,0,9.46,34.312H22.672a1.575,1.575,0,0,0,1.573-1.573V28.649h1.887v4.089A3.463,3.463,0,0,1,22.672,36.2Z" transform="translate(-6 -6)"/>
    </g>
    <g id="Group_2972" data-name="Group 2972" transform="translate(2 35.711)">
      <path id="Path_4082" data-name="Path 4082" d="M2,28.5H42.265v1.887H2Z" transform="translate(-2 -28.5)"/>
    </g>
  </g>
</svg>
