<svg xmlns="http://www.w3.org/2000/svg" xmlns:xlink="http://www.w3.org/1999/xlink" width="85.253" height="83.373" viewBox="0 0 85.253 83.373">
  <defs>
    <filter id="Path_1970" x="0" y="0" width="85.253" height="83.373" filterUnits="userSpaceOnUse">
      <feOffset dy="3" input="SourceAlpha"/>
      <feGaussianBlur stdDeviation="3" result="blur"/>
      <feFlood flood-opacity="0.161"/>
      <feComposite operator="in" in2="blur"/>
      <feComposite in="SourceGraphic"/>
    </filter>
  </defs>
  <g id="optimization" transform="translate(-11071.82 -15440.007)">
    <g id="optimization-2" data-name="optimization" transform="translate(11080.82 15442)">
      <path id="Union_10" data-name="Union 10" d="M20.737,0C32.189,0,41.474,9.035,41.474,20.179S32.189,40.358,20.737,40.358,0,31.324,0,20.179,9.284,0,20.737,0Z" transform="translate(12.796 16.897)" fill="#f87171"/>
      <path id="Path_1967" data-name="Path 1967" d="M221.554,195.561l-2.1,2.1a5.909,5.909,0,1,0,2.784,2.784l2.1-2.1a1.969,1.969,0,1,0-2.785-2.785Zm-4.647,9.4a1.969,1.969,0,1,1,1.969-1.969A1.971,1.971,0,0,1,216.907,204.962Zm0,0" transform="translate(-183.279 -166.264)"/>
      <path id="Path_1968" data-name="Path 1968" d="M112.682,91A21.694,21.694,0,0,0,91,112.658a21.44,21.44,0,0,0,4.348,13,1.971,1.971,0,0,0,1.575.785h31.518a1.973,1.973,0,0,0,1.575-.785,21.442,21.442,0,0,0,4.348-13A21.7,21.7,0,0,0,112.682,91Zm14.743,31.5H97.939a17.479,17.479,0,0,1-2.889-7.876h1.863a1.969,1.969,0,1,0,0-3.938H95.052a17.624,17.624,0,0,1,3.775-9.085l1.31,1.309a1.97,1.97,0,1,0,2.788-2.785l-1.31-1.309a17.667,17.667,0,0,1,9.1-3.771v1.859a1.971,1.971,0,0,0,3.942,0V95.048a17.663,17.663,0,0,1,9.1,3.771l-1.31,1.309a1.97,1.97,0,0,0,2.788,2.785l1.31-1.309a17.627,17.627,0,0,1,3.775,9.086H128.45a1.969,1.969,0,1,0,0,3.938h1.863a17.476,17.476,0,0,1-2.888,7.876Zm0,0" transform="translate(-79.055 -75.738)"/>
      <path id="Path_1969" data-name="Path 1969" d="M220.845,391h-7.876a1.969,1.969,0,0,0,0,3.938h7.876a1.969,1.969,0,0,0,0-3.938Zm0,0" transform="translate(-183.28 -337.157)"/>
      <g transform="matrix(1, 0, 0, 1, -9, -1.99)" filter="url(#Path_1970)">
        <path id="Path_1970-2" data-name="Path 1970" d="M65.748,26.995,62.4,26.206a27.909,27.909,0,0,0-3.715-8.733l1.7-2.761a1.876,1.876,0,0,0-.3-2.34L54.525,6.956a2.013,2.013,0,0,0-2.407-.288L49.277,8.324a29.626,29.626,0,0,0-8.984-3.611l-.812-3.249A1.96,1.96,0,0,0,37.567,0H29.686a1.961,1.961,0,0,0-1.915,1.463l-.812,3.249a29.631,29.631,0,0,0-8.984,3.611L15.135,6.668a2.013,2.013,0,0,0-2.407.288L7.156,12.372a1.876,1.876,0,0,0-.3,2.34l1.7,2.761a27.92,27.92,0,0,0-3.715,8.733l-3.343.789A1.927,1.927,0,0,0,0,28.856v7.661a1.927,1.927,0,0,0,1.505,1.861l3.343.789A27.92,27.92,0,0,0,8.563,47.9l-1.7,2.761a1.876,1.876,0,0,0,.3,2.34l5.573,5.417a2.012,2.012,0,0,0,2.407.288l2.841-1.656a29.636,29.636,0,0,0,8.984,3.611l.812,3.249a1.961,1.961,0,0,0,1.915,1.463h7.881a1.961,1.961,0,0,0,1.915-1.463l.812-3.249a29.631,29.631,0,0,0,8.984-3.611l2.841,1.656a2.013,2.013,0,0,0,2.407-.288L60.1,53a1.876,1.876,0,0,0,.3-2.34L58.69,47.9A27.9,27.9,0,0,0,62.4,39.167l3.343-.789a1.926,1.926,0,0,0,1.505-1.861V28.856A1.927,1.927,0,0,0,65.748,26.995Zm-2.435,8.016-3.048.719a1.939,1.939,0,0,0-1.473,1.513,24.239,24.239,0,0,1-4.051,9.526,1.871,1.871,0,0,0-.066,2.07l1.549,2.509-3.4,3.3-2.581-1.506a2.017,2.017,0,0,0-2.13.064,25.715,25.715,0,0,1-9.8,3.938,1.948,1.948,0,0,0-1.556,1.431l-.74,2.964H31.235l-.74-2.963a1.947,1.947,0,0,0-1.556-1.431,25.721,25.721,0,0,1-9.8-3.938,2.019,2.019,0,0,0-2.13-.064l-2.581,1.506-3.4-3.3,1.549-2.509a1.871,1.871,0,0,0-.066-2.071,24.225,24.225,0,0,1-4.051-9.526A1.94,1.94,0,0,0,6.99,35.731l-3.049-.72V30.362l3.048-.719A1.939,1.939,0,0,0,8.462,28.13,24.239,24.239,0,0,1,12.513,18.6a1.872,1.872,0,0,0,.066-2.071L11.03,14.024l3.4-3.3,2.582,1.506a2.016,2.016,0,0,0,2.13-.064,25.721,25.721,0,0,1,9.8-3.938A1.947,1.947,0,0,0,30.5,6.794l.74-2.964h4.783l.74,2.963a1.947,1.947,0,0,0,1.556,1.431,25.721,25.721,0,0,1,9.8,3.938,2.017,2.017,0,0,0,2.13.064l2.582-1.506,3.4,3.3-1.549,2.509a1.87,1.87,0,0,0,.066,2.07,24.229,24.229,0,0,1,4.051,9.527,1.94,1.94,0,0,0,1.473,1.512l3.049.72Zm0,0" transform="translate(9 6)"/>
      </g>
      <ellipse id="Ellipse_126" cx="3.761" cy="3.761" rx="3.761" ry="3.761" transform="translate(14.449 0)" fill="#f87171"/>
      <ellipse id="Ellipse_127" cx="3.761" cy="3.761" rx="3.761" ry="3.761" transform="translate(41.157 64.762)" fill="#f87171"/>
      <ellipse id="Ellipse_128" cx="1.517" cy="1.517" rx="1.517" ry="1.517" transform="translate(50.395 64.007)" fill="#f87171"/>
    </g>
  </g>
</svg>
