<svg xmlns="http://www.w3.org/2000/svg" xmlns:xlink="http://www.w3.org/1999/xlink" width="50.509" height="61.329" viewBox="0 0 50.509 61.329">
  <defs>
    <filter id="Path_344" x="11.33" y="6.799" width="27.79" height="36.854" filterUnits="userSpaceOnUse">
      <feOffset dy="3" input="SourceAlpha"/>
      <feGaussianBlur stdDeviation="3" result="blur"/>
      <feFlood flood-opacity="0.161"/>
      <feComposite operator="in" in2="blur"/>
      <feComposite in="SourceGraphic"/>
    </filter>
    <filter id="Path_345" x="8.158" y="29.913" width="34.136" height="20.539" filterUnits="userSpaceOnUse">
      <feOffset dy="3" input="SourceAlpha"/>
      <feGaussianBlur stdDeviation="3" result="blur-2"/>
      <feFlood flood-opacity="0.161"/>
      <feComposite operator="in" in2="blur-2"/>
      <feComposite in="SourceGraphic"/>
    </filter>
    <filter id="Path_346" x="-0.001" y="0" width="50.452" height="61.329" filterUnits="userSpaceOnUse">
      <feOffset dy="3" input="SourceAlpha"/>
      <feGaussianBlur stdDeviation="3" result="blur-3"/>
      <feFlood flood-opacity="0.161"/>
      <feComposite operator="in" in2="blur-3"/>
      <feComposite in="SourceGraphic"/>
    </filter>
  </defs>
  <g id="payment" transform="translate(-1131.513 -100)">
    <path id="Rectangle_8" data-name="Rectangle 8" d="M0,0H31a0,0,0,0,1,0,0V25a0,0,0,0,1,0,0H5a5,5,0,0,1-5-5V0A0,0,0,0,1,0,0Z" transform="translate(1140.747 108.165)" fill="#f4a196"/>
    <g id="invoice" transform="translate(1140.512 106)">
      <g id="Group_199" data-name="Group 199" transform="translate(11.331 6.798)">
        <g id="Group_198" data-name="Group 198">
          <g transform="matrix(1, 0, 0, 1, -20.33, -12.8)" filter="url(#Path_344)">
            <path id="Path_344-2" data-name="Path 344" d="M203.957,88.492h-1.813a1.45,1.45,0,0,1,0-2.9h3.626a1.269,1.269,0,0,0,0-2.539h-1.45V81.6a1.269,1.269,0,0,0-2.539,0v1.467a3.988,3.988,0,0,0,.363,7.96h1.813a1.45,1.45,0,1,1,0,2.9h-3.626a1.269,1.269,0,1,0,0,2.539h1.45v1.45a1.269,1.269,0,1,0,2.539,0V96.452a3.988,3.988,0,0,0-.363-7.96Z" transform="translate(-177.82 -67.54)"/>
          </g>
        </g>
      </g>
      <g id="Group_201" data-name="Group 201" transform="translate(8.158 29.913)">
        <g id="Group_200" data-name="Group 200">
          <g transform="matrix(1, 0, 0, 1, -17.16, -35.91)" filter="url(#Path_345)">
            <path id="Path_345-2" data-name="Path 345" d="M175.533,353.467h-13.6a1.269,1.269,0,0,0,0,2.539h13.6a1.269,1.269,0,1,0,0-2.539Z" transform="translate(-143.51 -317.55)"/>
          </g>
        </g>
      </g>
      <g id="Group_203" data-name="Group 203" transform="translate(0)">
        <g id="Group_202" data-name="Group 202">
          <g transform="matrix(1, 0, 0, 1, -9, -6)" filter="url(#Path_346)">
            <path id="Path_346-2" data-name="Path 346" d="M95.449,0H65.536a1.269,1.269,0,0,0-1.269,1.269V38.321a1.27,1.27,0,0,0,.372.9l3.739,3.739a1.269,1.269,0,0,0,1.8,0l2.842-2.842,2.841,2.842a1.269,1.269,0,0,0,1.8,0l2.841-2.842,2.842,2.842a1.269,1.269,0,0,0,1.8,0l2.841-2.842,2.842,2.842a1.269,1.269,0,0,0,1.8,0l3.739-3.739a1.27,1.27,0,0,0,.372-.9V1.269A1.27,1.27,0,0,0,95.449,0ZM91.71,40.265l-2.842-2.842a1.269,1.269,0,0,0-1.8,0l-2.841,2.842L81.39,37.423a1.269,1.269,0,0,0-1.8,0l-2.842,2.842-2.841-2.842a1.269,1.269,0,0,0-1.8,0l-2.842,2.842-2.47-2.47V2.539H94.18V37.795h0Z" transform="translate(-55.27 6)"/>
          </g>
        </g>
      </g>
    </g>
    <ellipse id="Ellipse_127" cx="2.645" cy="2.645" rx="2.645" ry="2.645" transform="translate(1131.945 117.648)" fill="#f4a196"/>
    <ellipse id="Ellipse_127-2" data-name="Ellipse_127" cx="2.645" cy="2.645" rx="2.645" ry="2.645" transform="translate(1176.732 132.719)" fill="#f4a196"/>
    <ellipse id="Ellipse_128" cx="1.067" cy="1.067" rx="1.067" ry="1.067" transform="translate(1138.442 121.812)" fill="#f4a196"/>
    <ellipse id="Ellipse_128-2" data-name="Ellipse_128" cx="1.067" cy="1.067" rx="1.067" ry="1.067" transform="translate(1173.391 136.884)" fill="#f4a196"/>
  </g>
</svg>
