<svg xmlns="http://www.w3.org/2000/svg" width="43.859" height="39.562" viewBox="0 0 43.859 39.562">
  <g id="projects" transform="translate(-0.583 -2.29)">
    <g id="Group_2940" data-name="Group 2940" transform="translate(0.583 2.29)">
      <path id="Path_4050" data-name="Path 4050" d="M39.931,34.188c0-8.709,4.511-14.69,4.511-18.887S42.03,2.29,22.724,2.29.583,14.147.583,18.763C.583,40.379,39.931,49.612,39.931,34.188Z" transform="translate(-0.583 -2.29)" fill="#efefef"/>
    </g>
    <g id="Group_2941" data-name="Group 2941" transform="translate(32.468 3.074)">
      <path id="Path_4051" data-name="Path 4051" d="M0,0H1.259V2.518H0Z" transform="translate(0 0.89) rotate(-45)" fill="#a4afc1"/>
    </g>
    <g id="Group_2942" data-name="Group 2942" transform="translate(37.587 8.195)">
      <path id="Path_4052" data-name="Path 4052" d="M0,0H1.259V2.518H0Z" transform="translate(0 0.89) rotate(-45)" fill="#a4afc1"/>
    </g>
    <g id="Group_2943" data-name="Group 2943" transform="translate(37.361 3.071)">
      <path id="Path_4053" data-name="Path 4053" d="M0,0H2.518V1.259H0Z" transform="translate(0 1.78) rotate(-45)" fill="#a4afc1"/>
    </g>
    <g id="Group_2944" data-name="Group 2944" transform="translate(17.791 10.424)">
      <path id="Path_4054" data-name="Path 4054" d="M23.694,13.472a4.722,4.722,0,1,0-7.331,3.916A2.419,2.419,0,0,1,17.4,19.419v1.618c0,.614.325.933.727.933h1.695a.726.726,0,0,0,.727-.727V19.449a2.447,2.447,0,0,1,1.03-2.06,4.678,4.678,0,0,0,2.119-3.917Z" transform="translate(-14.249 -8.75)" fill="#f3f3f1"/>
    </g>
    <g id="Group_2945" data-name="Group 2945" transform="translate(12.125 7.906)">
      <path id="Path_4055" data-name="Path 4055" d="M28.007,6.75H12.268A2.526,2.526,0,0,0,9.75,9.268V21.23l10.388,4.722L30.526,21.23V9.268A2.526,2.526,0,0,0,28.007,6.75ZM22.742,17.908a2.447,2.447,0,0,0-1.03,2.06v1.794a.726.726,0,0,1-.727.727H19.29c-.4,0-.727-.319-.727-.933V19.938a2.419,2.419,0,0,0-1.034-2.031,4.724,4.724,0,1,1,5.212,0Z" transform="translate(-9.75 -6.75)" fill="#f3f3f1"/>
    </g>
    <g id="Group_2946" data-name="Group 2946" transform="translate(8.348 14.705)">
      <path id="Path_4056" data-name="Path 4056" d="M34.086,13.636,31.3,12.15v7.681L20.915,24.552,10.527,19.831V12.15L7.745,13.636A1.9,1.9,0,0,0,6.75,15.3V31.792a1.886,1.886,0,0,0,1.889,1.889H33.192a1.886,1.886,0,0,0,1.889-1.889V15.3A1.9,1.9,0,0,0,34.086,13.636Z" transform="translate(-6.75 -12.15)" fill="#fcd15c"/>
    </g>
    <g id="Group_2947" data-name="Group 2947" transform="translate(23.93 14.705)">
      <path id="Path_4057" data-name="Path 4057" d="M20.542,24.552l10.388-4.722V13.672c-.018-.01-.031-.026-.05-.037L28.1,12.15v7.681l-8.971,4.078Z" transform="translate(-19.125 -12.15)" fill="#ecbb34"/>
    </g>
    <g id="Group_2948" data-name="Group 2948" transform="translate(8.348 14.705)">
      <path id="Path_4058" data-name="Path 4058" d="M9.583,31.792V15.3a1.9,1.9,0,0,1,.944-1.626V12.15L7.745,13.636A1.9,1.9,0,0,0,6.75,15.3V31.792a1.886,1.886,0,0,0,1.889,1.889h2.833A1.886,1.886,0,0,1,9.583,31.792Z" transform="translate(-6.75 -12.15)" fill="#ecbb34"/>
    </g>
    <g id="Group_2949" data-name="Group 2949" transform="translate(17.792 10.434)">
      <path id="Path_4059" data-name="Path 4059" d="M20.231,21.036V19.418A2.419,2.419,0,0,0,19.2,17.387a4.7,4.7,0,0,1,1.158-8.406,4.783,4.783,0,0,0-2.507-.1,4.71,4.71,0,0,0-1.485,8.508A2.419,2.419,0,0,1,17.4,19.418v1.618c0,.614.325.933.727.933h1.695a.716.716,0,0,0,.583-.315,1.085,1.085,0,0,1-.171-.618Z" transform="translate(-14.25 -8.758)" fill="#d5dbe1"/>
    </g>
    <g id="Group_2950" data-name="Group 2950" transform="translate(12.125 7.906)">
      <path id="Path_4060" data-name="Path 4060" d="M12.583,21.23V9.268A2.526,2.526,0,0,1,15.1,6.75H12.268A2.526,2.526,0,0,0,9.75,9.268V21.23l10.388,4.722,1.417-.643Z" transform="translate(-9.75 -6.75)" fill="#d5dbe1"/>
    </g>
    <g id="Group_2951" data-name="Group 2951" transform="translate(7.404 13.872)">
      <path id="Path_4061" data-name="Path 4061" d="M33.386,34.8H8.833A2.837,2.837,0,0,1,6,31.964V15.469a2.831,2.831,0,0,1,1.49-2.492l2.788-1.49.889,1.667L8.384,14.641a.958.958,0,0,0-.495.829V31.964a.946.946,0,0,0,.944.944H33.386a.946.946,0,0,0,.944-.944V27.242h1.889v4.722A2.837,2.837,0,0,1,33.386,34.8Z" transform="translate(-6 -11.488)"/>
    </g>
    <g id="Group_2952" data-name="Group 2952" transform="translate(32.457 13.872)">
      <path id="Path_4062" data-name="Path 4062" d="M31.063,24.724H29.175V15.469a.961.961,0,0,0-.5-.832L25.9,13.155l.889-1.667,2.783,1.486a2.836,2.836,0,0,1,1.495,2.5Z" transform="translate(-25.897 -11.488)"/>
    </g>
    <g id="Group_2953" data-name="Group 2953" transform="translate(7.911 19.509)">
      <path id="Path_4063" data-name="Path 4063" d="M21.005,24.818a3.486,3.486,0,0,1-1.605-.392L6.4,17.64l.874-1.675,12.994,6.787a1.6,1.6,0,0,0,1.471,0l12.992-6.785.874,1.675L22.613,24.426A3.5,3.5,0,0,1,21.005,24.818Z" transform="translate(-6.403 -15.965)"/>
    </g>
    <g id="Group_2954" data-name="Group 2954" transform="translate(11.181 6.961)">
      <path id="Path_4064" data-name="Path 4064" d="M31.664,21.361H29.776V9.463A1.576,1.576,0,0,0,28.2,7.889H12.463a1.576,1.576,0,0,0-1.574,1.574v11.9H9V9.463A3.465,3.465,0,0,1,12.463,6H28.2a3.465,3.465,0,0,1,3.463,3.463Z" transform="translate(-9 -6)"/>
    </g>
    <g id="Group_2955" data-name="Group 2955" transform="translate(16.85 9.482)">
      <path id="Path_4065" data-name="Path 4065" d="M20.013,23.109H18.318a1.72,1.72,0,0,1-1.671-1.877V19.614a1.487,1.487,0,0,0-.611-1.244,5.666,5.666,0,1,1,6.253,0,1.508,1.508,0,0,0-.606,1.27v1.794a1.673,1.673,0,0,1-1.671,1.671ZM18.536,21.22H19.8V19.644A3.372,3.372,0,0,1,21.249,16.8a3.757,3.757,0,0,0,.266-6.088,3.823,3.823,0,0,0-3.261-.714,3.766,3.766,0,0,0-1.175,6.8,3.343,3.343,0,0,1,1.457,2.818Z" transform="translate(-13.502 -8.002)"/>
    </g>
    <g id="Group_2956" data-name="Group 2956" transform="translate(2.367 35.292)">
      <path id="Path_4066" data-name="Path 4066" d="M2,28.5H42.292v1.889H2Z" transform="translate(-2 -28.5)"/>
    </g>
  </g>
</svg>
