<svg xmlns="http://www.w3.org/2000/svg" xmlns:xlink="http://www.w3.org/1999/xlink" width="66.521" height="66.521" viewBox="0 0 66.521 66.521">
  <defs>
    <filter id="Path_477" x="0" y="0" width="66.521" height="66.521" filterUnits="userSpaceOnUse">
      <feOffset dy="3" input="SourceAlpha"/>
      <feGaussianBlur stdDeviation="3" result="blur"/>
      <feFlood flood-opacity="0.161"/>
      <feComposite operator="in" in2="blur"/>
      <feComposite in="SourceGraphic"/>
    </filter>
  </defs>
  <g id="prototype" transform="translate(9 6)">
    <path id="Path_478" data-name="Path 478" d="M101.854,214.3a4.63,4.63,0,0,1-.927,2.571,3.257,3.257,0,0,1-2.226,1.069H70.953a3.422,3.422,0,0,1-3.153-3.629V189.7h34.054v15.524A52.149,52.149,0,0,1,101.854,214.3Z" transform="translate(-65.834 -170.829)" fill="#ffd45e"/>
    <g id="Group_313" data-name="Group 313">
      <g transform="matrix(1, 0, 0, 1, -9, -6)" filter="url(#Path_477)">
        <path id="Path_477-2" data-name="Path 477" d="M44.257,5.781H41.414A1.422,1.422,0,0,0,39.992,7.2v4.265H28.525v-7.2a4.265,4.265,0,1,0-8.529,0v7.2H8.529V7.2A1.422,1.422,0,0,0,7.108,5.781H4.265A4.269,4.269,0,0,0,0,10.045V44.257a4.269,4.269,0,0,0,4.265,4.265H44.257a4.269,4.269,0,0,0,4.265-4.265V10.045A4.269,4.269,0,0,0,44.257,5.781ZM42.835,8.624h1.422a1.423,1.423,0,0,1,1.422,1.422v30.19a4.246,4.246,0,0,0-1.422-.244H42.835Zm-20-4.359a1.422,1.422,0,1,1,2.843,0V5.686H22.839Zm1.422,26.912L18.294,27.2l5.966-3.978L30.227,27.2Zm7.108-1.321v5.112l-5.686,3.791V33.645Zm-8.529,3.791v5.112l-5.686-3.791V29.855Zm0-25.116h2.843v7.1L24.261,18.4l-1.422-2.772Zm-20,1.516A1.423,1.423,0,0,1,4.265,8.624H5.686V39.992H4.265a4.246,4.246,0,0,0-1.422.244ZM44.257,45.678H4.265a1.422,1.422,0,1,1,0-2.843H7.108a1.422,1.422,0,0,0,1.422-1.422V14.31H20v1.658a1.421,1.421,0,0,0,.157.649l2.264,4.416-7.474,4.983-.025.018A1.426,1.426,0,0,0,14.31,27.2v8.529a1.421,1.421,0,0,0,.633,1.183L23.472,42.6l.015.009a1.421,1.421,0,0,0,1.546,0l.015-.009,8.529-5.686a1.422,1.422,0,0,0,.633-1.183V27.2a1.429,1.429,0,0,0-.633-1.183L26.1,21.033l2.264-4.416a1.422,1.422,0,0,0,.157-.649V14.31H39.992v27.1a1.422,1.422,0,0,0,1.422,1.422h2.843a1.422,1.422,0,1,1,0,2.843Z" transform="translate(9 6)"/>
      </g>
    </g>
    <ellipse id="Ellipse_126" cx="2.349" cy="2.349" rx="2.349" ry="2.349" transform="translate(1.673)" fill="#ffd45e"/>
    <ellipse id="Ellipse_127" cx="2.349" cy="2.349" rx="2.349" ry="2.349" transform="translate(46.763 47.161)" fill="#ffd45e"/>
    <ellipse id="Ellipse_128" cx="0.948" cy="0.948" rx="0.948" ry="0.948" transform="translate(52.533 50.86)" fill="#ffd45e"/>
  </g>
</svg>
