<svg xmlns="http://www.w3.org/2000/svg" xmlns:xlink="http://www.w3.org/1999/xlink" width="63.574" height="59.487" viewBox="0 0 63.574 59.487">
  <defs>
    <filter id="Path_312" x="0" y="0" width="63.574" height="59.487" filterUnits="userSpaceOnUse">
      <feOffset dy="3" input="SourceAlpha"/>
      <feGaussianBlur stdDeviation="3" result="blur"/>
      <feFlood flood-opacity="0.161"/>
      <feComposite operator="in" in2="blur"/>
      <feComposite in="SourceGraphic"/>
    </filter>
    <filter id="Path_337" x="19.303" y="17.61" width="29.591" height="29.592" filterUnits="userSpaceOnUse">
      <feOffset dy="3" input="SourceAlpha"/>
      <feGaussianBlur stdDeviation="3" result="blur-2"/>
      <feFlood flood-opacity="0.161"/>
      <feComposite operator="in" in2="blur-2"/>
      <feComposite in="SourceGraphic"/>
    </filter>
  </defs>
  <g id="seo" transform="translate(5.628 0.584)">
    <path id="Path_311" data-name="Path 311" d="M101.572,210.617a3.6,3.6,0,0,1-.92,2.187,3.488,3.488,0,0,1-2.207.909H70.927a3.112,3.112,0,0,1-3.127-3.086V189.7h33.772v13.2A38.058,38.058,0,0,1,101.572,210.617Z" transform="translate(-60.872 -170.316)" fill="#ffd45e"/>
    <g transform="matrix(1, 0, 0, 1, -5.63, -0.58)" filter="url(#Path_312)">
      <path id="Path_312-2" data-name="Path 312" d="M73.23,53H38.344A5.314,5.314,0,0,0,33,58.273V87.457a7.089,7.089,0,0,0,7.122,7.03h31.33a7.089,7.089,0,0,0,7.122-7.03,1.778,1.778,0,0,0-3.556,0,3.537,3.537,0,0,1-3.556,3.515H40.122a3.537,3.537,0,0,1-3.556-3.515V63.637H75.018V78.669a1.778,1.778,0,0,0,3.556,0v-20.4A5.314,5.314,0,0,0,73.23,53Zm-7.2,3.515a1.758,1.758,0,1,1-1.778,1.758A1.768,1.768,0,0,1,66.026,56.515Zm8.9,1.758a1.778,1.778,0,1,1-1.778-1.758A1.768,1.768,0,0,1,74.926,58.273Zm-38.37,0a1.768,1.768,0,0,1,1.778-1.758H60.978a5.217,5.217,0,0,0,.031,3.607H36.556Z" transform="translate(-24 -47)"/>
    </g>
    <ellipse id="Ellipse_126" cx="2.33" cy="2.33" rx="2.33" ry="2.33" transform="translate(0 0)" fill="#ffd45e"/>
    <ellipse id="Ellipse_127" cx="2.33" cy="2.33" rx="2.33" ry="2.33" transform="translate(44.716 46.77)" fill="#ffd45e"/>
    <ellipse id="Ellipse_128" cx="0.94" cy="0.94" rx="0.94" ry="0.94" transform="translate(50.438 50.438)" fill="#ffd45e"/>
    <g id="line-chart" transform="translate(15.216 23.027)">
      <g id="Group_181" data-name="Group 181" transform="translate(0 1.7)">
        <g id="Group_180" data-name="Group 180" transform="translate(0 0)">
          <path id="Path_335" data-name="Path 335" d="M100.554,75.215a.811.811,0,0,0-1.113,0l-5.975,5.71L91.74,79.266a.81.81,0,0,0-1.113,0l-7,6.72a.733.733,0,0,0,0,1.068.81.81,0,0,0,1.113,0l6.447-6.186,1.726,1.656a.81.81,0,0,0,1.112,0l6.531-6.242A.734.734,0,0,0,100.554,75.215Z" transform="translate(-83.393 -74.993)" stroke="#000" stroke-width="0.5"/>
        </g>
      </g>
      <g id="Group_185" data-name="Group 185" transform="translate(7.459)">
        <g id="Group_184" data-name="Group 184">
          <g transform="matrix(1, 0, 0, 1, -28.3, -23.61)" filter="url(#Path_337)">
            <path id="Path_337-2" data-name="Path 337" d="M338.129,74.344h-9.151a1.22,1.22,0,0,0,0,2.44h7.931v7.931a1.22,1.22,0,1,0,2.44,0V75.564A1.22,1.22,0,0,0,338.129,74.344Z" transform="translate(-299.46 -50.73)"/>
          </g>
        </g>
      </g>
    </g>
  </g>
</svg>
