<svg xmlns="http://www.w3.org/2000/svg" xmlns:xlink="http://www.w3.org/1999/xlink" width="61.146" height="57.633" viewBox="0 0 61.146 57.633">
  <defs>
    <filter id="Path_4019" x="11.396" y="17.477" width="38.353" height="40.156" filterUnits="userSpaceOnUse">
      <feOffset dy="3" input="SourceAlpha"/>
      <feGaussianBlur stdDeviation="3" result="blur"/>
      <feFlood flood-opacity="0.161"/>
      <feComposite operator="in" in2="blur"/>
      <feComposite in="SourceGraphic"/>
    </filter>
    <filter id="Path_4020" x="0" y="0" width="61.146" height="47.044" filterUnits="userSpaceOnUse">
      <feOffset dy="3" input="SourceAlpha"/>
      <feGaussianBlur stdDeviation="3" result="blur-2"/>
      <feFlood flood-opacity="0.161"/>
      <feComposite operator="in" in2="blur-2"/>
      <feComposite in="SourceGraphic"/>
    </filter>
  </defs>
  <g id="server-side" transform="translate(-458.679 165.67)">
    <path id="Path_4024" data-name="Path 4024" d="M12012.707,15477.22c-3.4.972-7.124-4.533-7.124-4.533v-7.609l4.21-3.4,2.914-.81,2.914-5.181a32.749,32.749,0,0,1,2.591-3.076,44.881,44.881,0,0,1,6.638-1.942c.647,0,6.313.81,6.313.81l3.563,2.914,2.267,2.429,1.942,1.133,4.857,2.914,1.619,5.182v5.019l-3.886,3.886-2.591,1.133S12016.107,15476.248,12012.707,15477.22Z" transform="translate(-11536 -15608.707)" fill="#f87171"/>
    <g transform="matrix(1, 0, 0, 1, 458.68, -165.67)" filter="url(#Path_4019)">
      <path id="Path_4019-2" data-name="Path 4019" d="M18.792,32.073H13.524a1.758,1.758,0,0,1-1.756-1.756v-8.78H7.378a.879.879,0,0,1-.622-1.5l8.78-8.78a.879.879,0,0,1,1.242,0l8.78,8.78a.879.879,0,0,1-.62,1.5h-4.39v8.78A1.758,1.758,0,0,1,18.792,32.073ZM9.5,19.78h3.149a.878.878,0,0,1,.878.878v9.658h5.268V20.658a.878.878,0,0,1,.878-.878h3.149L16.158,13.12Z" transform="translate(14.41 13.06)" stroke="#000" stroke-width="1"/>
    </g>
    <g transform="matrix(1, 0, 0, 1, 458.68, -165.67)" filter="url(#Path_4020)">
      <path id="Path_4020-2" data-name="Path 4020" d="M7.9,29.044a.98.98,0,0,1-.1-.005,8.778,8.778,0,0,1,.372-17.481A13.158,13.158,0,0,1,32.756,8.1a10.515,10.515,0,0,1,1.723,20.577.878.878,0,0,1-.469-1.693A8.758,8.758,0,0,0,32.141,9.814a.877.877,0,0,1-.748-.506,11.4,11.4,0,0,0-21.6,3.229.879.879,0,0,1-.869.755,7.023,7.023,0,0,0-.92,14,.878.878,0,0,1-.1,1.751Z" transform="translate(9.5 5.5)" stroke="#000" stroke-width="1"/>
    </g>
    <circle id="Ellipse_561" data-name="Ellipse 561" cx="2.881" cy="2.881" r="2.881" transform="translate(465.934 -154.366)" fill="#f77070"/>
    <circle id="Ellipse_562" data-name="Ellipse 562" cx="1.116" cy="1.116" r="1.116" transform="translate(472.884 -157.139)" fill="#f77070"/>
    <circle id="Ellipse_563" data-name="Ellipse 563" cx="1.764" cy="1.764" r="1.764" transform="translate(496.181 -125.38)" fill="#f77070"/>
  </g>
</svg>
