<svg xmlns="http://www.w3.org/2000/svg" xmlns:xlink="http://www.w3.org/1999/xlink" width="69.716" height="85.521" viewBox="0 0 69.716 85.521">
  <defs>
    <filter id="Path_310" x="2.046" y="0" width="66.795" height="85.521" filterUnits="userSpaceOnUse">
      <feOffset dy="3" input="SourceAlpha"/>
      <feGaussianBlur stdDeviation="3" result="blur"/>
      <feFlood flood-opacity="0.161"/>
      <feComposite operator="in" in2="blur"/>
      <feComposite in="SourceGraphic"/>
    </filter>
  </defs>
  <g id="ux" transform="translate(-814.284 -95)">
    <g id="mobileapp" transform="translate(814.284 101)">
      <path id="Path_309" data-name="Path 309" d="M144.484,127.434V98.316a4.621,4.621,0,0,0-4.616-4.616H115.616A4.621,4.621,0,0,0,111,98.316v40.658a4.621,4.621,0,0,0,4.616,4.616h24.252c4.339,0,4.616-4.616,4.616-4.616S144.8,128.094,144.484,127.434Z" transform="translate(-94.679 -81.343)" fill="#f4a196"/>
      <g transform="matrix(1, 0, 0, 1, 0, -6)" filter="url(#Path_310)">
        <path id="Path_310-2" data-name="Path 310" d="M114.52,43.8V10.55a5.274,5.274,0,0,0-5.275-5.275H81.55a5.274,5.274,0,0,0-5.275,5.275V56.971a5.274,5.274,0,0,0,5.275,5.275h27.694a5.274,5.274,0,0,0,5.275-5.275,2.638,2.638,0,1,1,5.275,0,10.564,10.564,0,0,1-10.55,10.55H81.55A10.564,10.564,0,0,1,71,56.971V10.55A10.564,10.564,0,0,1,81.55,0h27.694a10.564,10.564,0,0,1,10.55,10.55V43.8a2.638,2.638,0,1,1-5.275,0ZM92.76,55.534A2.638,2.638,0,1,0,95.4,52.9,2.645,2.645,0,0,0,92.76,55.534Z" transform="translate(-59.95 6)"/>
      </g>
      <ellipse id="Ellipse_11" cx="3.508" cy="3.508" rx="3.508" ry="3.508" transform="translate(58.799 0)" fill="#f4a196"/>
      <ellipse id="Ellipse_12" cx="1.332" cy="1.332" rx="1.332" ry="1.332" transform="translate(66.017 8.132) rotate(-34.002)" fill="#f4a196"/>
      <circle id="Ellipse_13" cx="4.339" cy="4.339" r="4.339" transform="translate(0 62.011) rotate(-34.002)" fill="#f4a196"/>
      <ellipse id="Ellipse_14" cx="1.648" cy="1.648" rx="1.648" ry="1.648" transform="translate(4.536 52.369) rotate(-34.002)" fill="#f4a196"/>
      <path id="Path_525" data-name="Path 525" d="M8.127,1.971c4.3,0,7.187-2.618,7.187-6.655V-14H9.946v9.339A1.753,1.753,0,0,1,8.127-2.776,1.753,1.753,0,0,1,6.308-4.661V-14H.94v9.317C.94-.646,3.824,1.971,8.127,1.971Zm24.179-.444L27.758-6.454,32.084-14H26.25L24.231-9.851,22.213-14H16.379l4.345,7.544L16.157,1.528h5.9l2.185-4.3,2.185,4.3Z" transform="translate(20.058 44.69)"/>
    </g>
  </g>
</svg>
