<svg xmlns="http://www.w3.org/2000/svg" width="64.34" height="51.2" viewBox="0 0 64.34 51.2">
  <g id="wooIcon" transform="translate(-1564.896 -183)">
    <path id="Path_481" data-name="Path 481" d="M1568.022,2159.429s2.715-4.7,3.969,0a95.365,95.365,0,0,1,1.984,11.906l7.31-11.487,4.7,10.025,4.282-14.2s5.013-1.984,3.342,3.759-4.282,20.365-4.282,20.365l-8.563-11.488-6.788,11.488Z" transform="translate(1.645 -1959.626)" fill="#bdb3ee"/>
    <g id="Background" transform="translate(1566.387 192.64)">
      <path id="Subtraction_2" data-name="Subtraction 2" d="M40.055,36.43c-.08,0-3.572-1.923-10.677-5.878l-24.893-.06-.72-.275a7.893,7.893,0,0,1-1.38-.728,6.423,6.423,0,0,1-1.207-1.164A9.706,9.706,0,0,1,.046,26.173L.013,15.5C-.018,5.218-.01,4.79.215,4.039a6.919,6.919,0,0,1,.708-1.5A6.354,6.354,0,0,1,2.039,1.3,7.368,7.368,0,0,1,3.165.557,8.014,8.014,0,0,1,4.3.152C4.713.042,6.59,0,24.855,0,31.694,0,41.28.006,56.91.02l.66.264a9.558,9.558,0,0,1,1.38.734,5.67,5.67,0,0,1,1.3,1.236,9.072,9.072,0,0,1,1.1,2.085V26.173l-.293.72a7.611,7.611,0,0,1-.84,1.432,6.452,6.452,0,0,1-1.207,1.164,10.667,10.667,0,0,1-2.1,1l-9.507.03c-5.242.017-9.507.071-9.509.12s.476,1.247,1.062,2.669,1.1,2.7,1.14,2.849a.321.321,0,0,1,0,.248A.05.05,0,0,1,40.055,36.43ZM5.29,4.475H5.264a2.8,2.8,0,0,0-1.126.234,1.909,1.909,0,0,0-.747.709A2.071,2.071,0,0,0,3.109,6.5c0,.33.263,2.16.589,4.079s.816,4.59,1.086,5.938c.274,1.368.706,3.332.963,4.379s.666,2.54.907,3.3a18.779,18.779,0,0,0,.767,2.039,3.914,3.914,0,0,0,.707.99,1.318,1.318,0,0,0,.677.33,2.144,2.144,0,0,0,.75-.226,4.282,4.282,0,0,0,.96-.78A14.754,14.754,0,0,0,11.669,25c.357-.548,1.528-2.754,2.609-4.919s1.99-3.93,2.023-3.93a4.408,4.408,0,0,1,.338.93c.154.515.522,1.551.819,2.311s.83,1.945,1.186,2.639.912,1.662,1.24,2.159.912,1.275,1.3,1.74a8.318,8.318,0,0,0,1.233,1.2,2.234,2.234,0,0,0,1.069.406c.059,0,.119.007.177.007a1.74,1.74,0,0,0,.76-.157,1.971,1.971,0,0,0,.66-.645c.255-.426.275-.623.346-3.509.051-2.033.164-3.749.338-5.1.146-1.134.4-2.83.558-3.779s.462-2.441.667-3.3.524-1.989.709-2.519.5-1.319.7-1.74a3.2,3.2,0,0,0,.365-1.32,2.207,2.207,0,0,0-.245-.96,2.658,2.658,0,0,0-.679-.72,1.944,1.944,0,0,0-1.1-.332c-.042,0-.087,0-.133,0a3.127,3.127,0,0,0-.946.131,1.374,1.374,0,0,0-.563.392c-.083.128-.4.756-.69,1.371s-.672,1.54-.84,2.039-.465,1.545-.667,2.339-.524,2.381-.72,3.539-.426,2.69-.511,3.39a7.563,7.563,0,0,1-.217,1.292,11.161,11.161,0,0,1-.564-1.471c-.277-.809-.691-2.2-.923-3.092s-.536-2.22-.679-2.939A10.623,10.623,0,0,0,18.777,8.6a2.116,2.116,0,0,0-.617-.757,1.35,1.35,0,0,0-.778-.191c-.074,0-.153,0-.242.008a1.7,1.7,0,0,0-1.02.319,3.373,3.373,0,0,0-.612.657c-.14.21-1.41,2.58-2.774,5.175C11.4,16.354,10.125,18.792,10,19.035c-.112.221-.17.319-.214.319s-.057-.051-.09-.139c-.049-.132-.334-1.369-.635-2.759-.305-1.41-.738-3.616-.966-4.919s-.537-3.146-.683-4.079a11.539,11.539,0,0,0-.486-2.129,1.721,1.721,0,0,0-.615-.654A2.476,2.476,0,0,0,5.29,4.475ZM36.124,6.09H36.1a7.935,7.935,0,0,0-1.26.159,6.763,6.763,0,0,0-1.44.529,8.328,8.328,0,0,0-1.38.959,9.774,9.774,0,0,0-1.274,1.471,16.419,16.419,0,0,0-.975,1.609c-.2.4-.5,1.1-.663,1.56A15.227,15.227,0,0,0,28.6,14.3a15.333,15.333,0,0,0-.2,2.579,9.909,9.909,0,0,0,.26,2.579,10.367,10.367,0,0,0,.762,2.039,7.554,7.554,0,0,0,1.162,1.623,6.11,6.11,0,0,0,1.321.991,8.543,8.543,0,0,0,1.32.505,8.1,8.1,0,0,0,1.68.18h.013a6.821,6.821,0,0,0,1.666-.192,8.942,8.942,0,0,0,1.2-.464,7.44,7.44,0,0,0,1.306-.977,10.5,10.5,0,0,0,1.333-1.546,16.672,16.672,0,0,0,.87-1.44c.163-.322.46-1.049.663-1.62a16.377,16.377,0,0,0,.57-2.279,11.77,11.77,0,0,0,.144-2.759,9.957,9.957,0,0,0-.35-2.459,10.636,10.636,0,0,0-.731-1.769A7.725,7.725,0,0,0,40.5,7.844,6.292,6.292,0,0,0,39.1,6.823a8.217,8.217,0,0,0-1.62-.564A8.065,8.065,0,0,0,36.124,6.09Zm15.6,0h-.035a8.511,8.511,0,0,0-1.14.124,7.409,7.409,0,0,0-1.495.557,6.389,6.389,0,0,0-1.62,1.164,11.028,11.028,0,0,0-1.2,1.44c-.264.4-.654,1.07-.87,1.5a15.318,15.318,0,0,0-.71,1.74,16.01,16.01,0,0,0-.476,1.859,16.94,16.94,0,0,0-.163,2.309,13.429,13.429,0,0,0,.186,2.339,11.616,11.616,0,0,0,.541,1.77,8.85,8.85,0,0,0,.919,1.6,6.341,6.341,0,0,0,1.23,1.206,8.762,8.762,0,0,0,1.38.739,4.972,4.972,0,0,0,2.289.293l1.568,0a9.655,9.655,0,0,0,2.732-1.7,10.8,10.8,0,0,0,1.153-1.358,18.051,18.051,0,0,0,.926-1.62,15.716,15.716,0,0,0,.785-1.92,15.02,15.02,0,0,0,.45-1.979,17.5,17.5,0,0,0,.09-2.7,7.436,7.436,0,0,0-.385-2.639,11.478,11.478,0,0,0-.7-1.62A7.914,7.914,0,0,0,56.137,7.86a5.46,5.46,0,0,0-1.446-1.048,8.842,8.842,0,0,0-1.62-.549A7.893,7.893,0,0,0,51.727,6.093Z" transform="translate(0 0)" fill="none" stroke="#000" stroke-width="3"/>
      <path id="Path_2" data-name="Path 2" d="M274.073,86.219a3.3,3.3,0,0,0-.858.627,10.177,10.177,0,0,0-.876,1.184,8.841,8.841,0,0,0-.8,1.74,9.974,9.974,0,0,0-.371,1.979,7.538,7.538,0,0,0,.06,1.62,10.986,10.986,0,0,0,.4,1.32,3.713,3.713,0,0,0,.668,1.11,1.864,1.864,0,0,0,.785.462,1.831,1.831,0,0,0,.99-.176,3.963,3.963,0,0,0,1.23-.912,6.611,6.611,0,0,0,.987-1.413,11.417,11.417,0,0,0,.6-1.71,8.69,8.69,0,0,0,.244-1.919,8.122,8.122,0,0,0-.19-1.68,7.077,7.077,0,0,0-.51-1.316,2.853,2.853,0,0,0-.743-.873,1.7,1.7,0,0,0-.78-.271A2.6,2.6,0,0,0,274.073,86.219Zm15.686-.05a3.906,3.906,0,0,0-.883.692,8.33,8.33,0,0,0-.953,1.29,10.123,10.123,0,0,0-.721,1.56,8.8,8.8,0,0,0-.338,1.74,10.937,10.937,0,0,0,.006,1.68,7.241,7.241,0,0,0,.354,1.44,4.154,4.154,0,0,0,.639,1.117,2.175,2.175,0,0,0,.726.516,1.551,1.551,0,0,0,.87-.007,3.524,3.524,0,0,0,1.125-.636,6,6,0,0,0,1.084-1.29,8.578,8.578,0,0,0,.708-1.56,13.581,13.581,0,0,0,.369-1.8,5,5,0,0,0-.073-2.039,7.318,7.318,0,0,0-.559-1.68,3.191,3.191,0,0,0-.68-.891,1.9,1.9,0,0,0-.805-.272A2.053,2.053,0,0,0,289.758,86.169Z" transform="translate(-238.637 -75.714)" fill="none" stroke="#000" stroke-width="3"/>
    </g>
    <ellipse id="Ellipse_126" cx="2.816" cy="2.816" rx="2.816" ry="2.816" transform="translate(1575.64 183)" fill="#bdb3ee"/>
    <ellipse id="Ellipse_127" cx="2.816" cy="2.816" rx="2.816" ry="2.816" transform="translate(1613.639 227.493)" fill="#bdb3ee"/>
    <ellipse id="Ellipse_128" cx="1.136" cy="1.136" rx="1.136" ry="1.136" transform="translate(1620.555 231.927)" fill="#bdb3ee"/>
  </g>
</svg>
