<?xml version="1.0" encoding="utf-8"?>
<!-- Generator: Adobe Illustrator 19.0.0, SVG Export Plug-In . SVG Version: 6.00 Build 0)  -->
<svg version="1.1" id="Layer_3" xmlns="http://www.w3.org/2000/svg" xmlns:xlink="http://www.w3.org/1999/xlink" x="0px" y="0px"
	 viewBox="0 0 292.1 153.9" style="enable-background:new 0 0 292.1 153.9;" xml:space="preserve">
<style type="text/css">
	.st0{fill:#2AABE2;}
	.st1{fill-rule:evenodd;clip-rule:evenodd;fill:#2AABE2;}
	.st2{fill-rule:evenodd;clip-rule:evenodd;fill:#FFFFFF;}
	.st3{fill-rule:evenodd;clip-rule:evenodd;fill:#40494E;}
</style>
<g>
	<path class="st0" d="M17.5,71c3.7-15.6,9.4-29.3,17.7-38.7c8.5-9.7,19.5-15,33.6-13.6c8.4,0.8,17.8,4,28.5,10.1
		c1.8-1.5,3.7-2.9,5.8-4.1c6.9-4,15.1-6.1,24-6.9c27.4-2.3,61.7,8.5,83.9,19.7l9.7,4.5l-4.3,0.6l-6.4-2.9
		c-21.9-11-55.8-21.7-82.8-19.5c-8.6,0.7-16.6,2.8-23.1,6.6c-1.7,1-3.2,2-4.7,3.3c2.5,1.5,5,3.1,7.6,4.9
		c17.7,12.2,27,24.7,30.8,36.1h-2.3c-3.8-10.7-12.8-22.5-29.7-34.1c-2.8-2-5.6-3.7-8.2-5.3c-3.5,3.2-6.3,7.2-8.4,12.1
		c-3,7.1-4.3,16.1-3.6,27.2h-2.2c-0.8-11.5,0.6-20.8,3.8-28.2c2.1-4.9,4.9-9,8.3-12.3c-10-5.6-18.9-8.6-26.8-9.4
		C55.2,19.8,44.8,24.8,36.8,34c-7.9,9-13.4,22-17,37H17.5z M16,164.9c-4.8-28.8-5.2-64.4,1.4-93.2l0.2-0.7h2.3
		c-0.1,0.4-0.2,0.9-0.3,1.3c-6.5,28.5-6.1,63.7-1.4,92.2L16,164.9L16,164.9z M137.7,71c1.5,4.5,2.1,8.8,2,12.8
		c-0.3,10.6-5.5,19.2-12.6,24.1c-7.1,5-16.2,6.4-24.3,2.5c-9.7-4.6-17.9-16.8-19.5-39.2l0-0.3h2.2l0,0.1
		c1.5,21.4,9.2,32.9,18.2,37.2c7.4,3.5,15.7,2.2,22.2-2.3c6.5-4.6,11.3-12.5,11.6-22.2c0.1-4-0.5-8.3-2.1-12.8H137.7z"/>
	<g>
		<path class="st1" d="M285.8,40.1c0-15-16-27.3-35.7-27.3c-19.7,0-35.7,12.3-35.7,27.3s16,27.3,35.7,27.3
			C269.8,67.4,285.8,55.1,285.8,40.1z"/>
		<path class="st2" d="M275.6,40.1c0-12.4-13.3-22.6-29.6-22.6c-16.3,0-29.6,10.1-29.6,22.6c0,12.4,13.3,22.6,29.6,22.6
			C262.3,62.7,275.6,52.5,275.6,40.1z"/>
		<path class="st1" d="M214.4,40.1c0-0.2,0-0.4,0-0.6h18.6v1.2h-18.6C214.4,40.5,214.4,40.3,214.4,40.1z"/>
		<path class="st3" d="M219.3,42.2V38c0-1,0.8-1.7,1.7-1.7h19.2c1,0,1.7,0.8,1.7,1.7v4.2c0,1-0.8,1.7-1.7,1.7H221
			C220,43.9,219.3,43.2,219.3,42.2z"/>
		<path class="st1" d="M220.6,41.2v-2.3c0-0.5,0.4-1,1-1h18.1c0.5,0,1,0.4,1,1v2.3c0,0.5-0.4,1-1,1h-18.1
			C221,42.2,220.6,41.8,220.6,41.2z"/>
	</g>
</g>
</svg>
