<?xml version="1.0" encoding="utf-8"?>
<!-- Generator: Adobe Illustrator 16.0.0, SVG Export Plug-In . SVG Version: 6.00 Build 0)  -->
<!DOCTYPE svg PUBLIC "-//W3C//DTD SVG 1.1//EN" "http://www.w3.org/Graphics/SVG/1.1/DTD/svg11.dtd">
<svg version="1.1" id="Layer_1" xmlns="http://www.w3.org/2000/svg" xmlns:xlink="http://www.w3.org/1999/xlink" x="0px" y="0px"
	 width="76px" height="76px" viewBox="0 0 76 76" enable-background="new 0 0 76 76" xml:space="preserve">
<g>
	<linearGradient id="SVGID_1_" gradientUnits="userSpaceOnUse" x1="38.001" y1="19.1855" x2="75.6299" y2="19.1855">
		<stop  offset="0" style="stop-color:#909191"/>
		<stop  offset="1" style="stop-color:#596769"/>
	</linearGradient>
	<path fill="url(#SVGID_1_)" d="M55.132,38H75.63c0-20.781-16.848-37.629-37.629-37.629v20.497
		C47.462,20.868,55.132,28.537,55.132,38z"/>
	<linearGradient id="SVGID_2_" gradientUnits="userSpaceOnUse" x1="38.001" y1="56.8145" x2="75.6299" y2="56.8145">
		<stop  offset="0" style="stop-color:#56AEE0"/>
		<stop  offset="1" style="stop-color:#429BC1"/>
	</linearGradient>
	<path fill="url(#SVGID_2_)" d="M55.132,38c0,9.461-7.67,17.131-17.131,17.131v20.498C58.782,75.629,75.63,58.781,75.63,38H55.132z"
		/>
	<linearGradient id="SVGID_3_" gradientUnits="userSpaceOnUse" x1="0.3711" y1="56.8145" x2="38.001" y2="56.8145">
		<stop  offset="0" style="stop-color:#FEC662"/>
		<stop  offset="1" style="stop-color:#F6B243"/>
	</linearGradient>
	<path fill="url(#SVGID_3_)" d="M20.868,38H0.371c0,20.781,16.849,37.629,37.63,37.629V55.131
		C28.538,55.131,20.868,47.461,20.868,38z"/>
	<linearGradient id="SVGID_4_" gradientUnits="userSpaceOnUse" x1="0.3711" y1="19.1855" x2="38.001" y2="19.1855">
		<stop  offset="0" style="stop-color:#F68D5D"/>
		<stop  offset="1" style="stop-color:#E9814B"/>
	</linearGradient>
	<path fill="url(#SVGID_4_)" d="M38.001,20.868V0.371C17.22,0.371,0.371,17.219,0.371,38h20.497
		C20.868,28.537,28.538,20.868,38.001,20.868z"/>
</g>
</svg>
