<?xml version="1.0" encoding="utf-8"?>
<!-- Generator: Adobe Illustrator 19.0.0, SVG Export Plug-In . SVG Version: 6.00 Build 0)  -->
<svg version="1.1" id="Layer_12" xmlns="http://www.w3.org/2000/svg" xmlns:xlink="http://www.w3.org/1999/xlink" x="0px" y="0px"
	 viewBox="0 0 771.7 1062.7" style="enable-background:new 0 0 771.7 1062.7;" xml:space="preserve">
<style type="text/css">
	.st0{clip-path:url(#SVGID_2_);fill:#26AFC7;}
	.st1{clip-path:url(#SVGID_2_);fill:#26AEC5;}
	.st2{clip-path:url(#SVGID_2_);fill:#26ADC4;}
	.st3{clip-path:url(#SVGID_2_);fill:#26ACC3;}
	.st4{clip-path:url(#SVGID_2_);fill:#26ABC3;}
	.st5{clip-path:url(#SVGID_2_);fill:#26ABC2;}
	.st6{clip-path:url(#SVGID_2_);fill:#26AAC1;}
	.st7{clip-path:url(#SVGID_2_);fill:#25AAC1;}
	.st8{clip-path:url(#SVGID_2_);fill:#25A9C0;}
	.st9{clip-path:url(#SVGID_2_);fill:#25A9BF;}
	.st10{clip-path:url(#SVGID_2_);fill:#25A8BF;}
	.st11{clip-path:url(#SVGID_2_);fill:#25A7BE;}
	.st12{clip-path:url(#SVGID_2_);fill:#25A6BD;}
	.st13{clip-path:url(#SVGID_2_);fill:#25A6BC;}
	.st14{clip-path:url(#SVGID_2_);fill:#25A5BC;}
	.st15{clip-path:url(#SVGID_2_);fill:#25A5BB;}
	.st16{clip-path:url(#SVGID_2_);fill:#25A4BB;}
	.st17{clip-path:url(#SVGID_2_);fill:#25A4BA;}
	.st18{clip-path:url(#SVGID_2_);fill:#24A3BA;}
	.st19{clip-path:url(#SVGID_2_);fill:#24A3B9;}
	.st20{clip-path:url(#SVGID_2_);fill:#24A2B8;}
	.st21{clip-path:url(#SVGID_2_);fill:#24A1B7;}
	.st22{clip-path:url(#SVGID_2_);fill:#24A0B6;}
	.st23{clip-path:url(#SVGID_2_);fill:#249FB5;}
	.st24{clip-path:url(#SVGID_2_);fill:#249FB4;}
	.st25{clip-path:url(#SVGID_2_);fill:#249EB4;}
	.st26{clip-path:url(#SVGID_2_);fill:#239EB3;}
	.st27{clip-path:url(#SVGID_2_);fill:#239DB3;}
	.st28{clip-path:url(#SVGID_2_);fill:#239DB2;}
	.st29{clip-path:url(#SVGID_2_);fill:#239CB2;}
	.st30{clip-path:url(#SVGID_2_);fill:#239CB1;}
	.st31{clip-path:url(#SVGID_2_);fill:#239BB0;}
	.st32{clip-path:url(#SVGID_2_);fill:#229AAF;}
	.st33{clip-path:url(#SVGID_2_);fill:#2299AE;}
	.st34{clip-path:url(#SVGID_2_);fill:#2299AD;}
	.st35{clip-path:url(#SVGID_2_);fill:#2298AD;}
	.st36{clip-path:url(#SVGID_2_);fill:#2198AC;}
	.st37{clip-path:url(#SVGID_2_);fill:#2197AC;}
	.st38{clip-path:url(#SVGID_2_);fill:#2197AB;}
	.st39{clip-path:url(#SVGID_2_);fill:#2196AB;}
	.st40{clip-path:url(#SVGID_2_);fill:#2196AA;}
	.st41{clip-path:url(#SVGID_2_);fill:#2195A9;}
	.st42{clip-path:url(#SVGID_2_);fill:#2095A9;}
	.st43{clip-path:url(#SVGID_2_);fill:#2094A8;}
	.st44{clip-path:url(#SVGID_2_);fill:#2093A7;}
	.st45{clip-path:url(#SVGID_2_);fill:#26ACC4;}
	.st46{clip-path:url(#SVGID_2_);fill:#26ADC5;}
	.st47{clip-path:url(#SVGID_2_);fill:#26AEC6;}
	.st48{clip-path:url(#SVGID_2_);fill:#EB5551;}
	.st49{clip-path:url(#SVGID_2_);fill:#FFFFFF;}
	.st50{clip-path:url(#SVGID_2_);fill:#F0EEEE;}
	.st51{clip-path:url(#SVGID_2_);fill:#7ABCBF;}
	.st52{clip-path:url(#SVGID_2_);fill:#D6DADD;}
	.st53{clip-path:url(#SVGID_2_);fill:#F1A01F;}
	.st54{clip-path:url(#SVGID_2_);fill:#0E3656;}
	.st55{clip-path:url(#SVGID_2_);fill:#AFD2D2;}
	.st56{clip-path:url(#SVGID_2_);fill:#426079;}
	.st57{clip-path:url(#SVGID_2_);fill:#EB5A4A;}
	.st58{clip-path:url(#SVGID_2_);fill:#87CCCC;}
	.st59{clip-path:url(#SVGID_2_);fill:url(#SVGID_3_);}
	.st60{clip-path:url(#SVGID_2_);}
	.st61{fill:#30556F;}
	.st62{clip-path:url(#SVGID_2_);fill:#A8D6EE;}
	.st63{clip-path:url(#SVGID_2_);fill:#30556F;}
	.st64{fill:#C0BFBF;}
	.st65{clip-path:url(#SVGID_2_);fill:#60BD6F;}
	.st66{clip-path:url(#SVGID_2_);fill:#E54E3F;}
	.st67{clip-path:url(#SVGID_2_);fill:#B4B4B4;}
	
		.st68{clip-path:url(#SVGID_2_);fill:none;stroke:#B4B4B4;stroke-width:0.996;stroke-linecap:round;stroke-linejoin:round;stroke-miterlimit:10;}
	
		.st69{clip-path:url(#SVGID_2_);fill:#B4B4B4;stroke:#B4B4B4;stroke-width:0.996;stroke-linecap:round;stroke-linejoin:round;stroke-miterlimit:10;}
	.st70{fill:#EB5551;}
	.st71{fill:#DA9D36;}
	.st72{fill:#F09620;}
	.st73{fill:#F9AB1F;}
	.st74{fill:#475059;}
	.st75{fill:#D6DADD;}
	.st76{fill:#E5E5E5;}
	.st77{fill:#FFFFFF;}
	.st78{fill:#B4B4B4;}
	.st79{fill:none;stroke:#B4B4B4;stroke-width:0.996;stroke-linecap:round;stroke-linejoin:round;stroke-miterlimit:10;}
	.st80{fill:#B4B4B4;stroke:#B4B4B4;stroke-width:0.996;stroke-linecap:round;stroke-linejoin:round;stroke-miterlimit:10;}
</style>
<g>
	<defs>
		<rect id="SVGID_1_" width="848.1" height="1061.8"/>
	</defs>
	<clipPath id="SVGID_2_">
		<use xlink:href="#SVGID_1_"  style="overflow:visible;"/>
	</clipPath>
	<path class="st0" d="M274.1,613c-11.5,0-20.8-9.3-20.8-20.8c0-11.5,9.3-20.8,20.8-20.8c11.5,0,20.8,9.3,20.8,20.8
		C294.9,603.7,285.6,613,274.1,613"/>
	<path class="st0" d="M290,673c-8.7,0-15.7-7-15.7-15.7c0-8.7,7-15.7,15.7-15.7c8.7,0,15.7,7,15.7,15.7C305.7,666,298.6,673,290,673
		"/>
	<path class="st1" d="M271.7,610.7c-11.5,0-20.8-9.3-20.8-20.8c0-11.5,9.3-20.8,20.8-20.8c11.5,0,20.8,9.3,20.8,20.8
		C292.5,601.4,283.2,610.7,271.7,610.7"/>
	<path class="st1" d="M287.6,670.7c-8.7,0-15.7-7-15.7-15.7c0-8.7,7-15.7,15.7-15.7c8.7,0,15.7,7,15.7,15.7
		C303.3,663.6,296.3,670.7,287.6,670.7"/>
	<path class="st2" d="M269.4,608.3c-11.5,0-20.8-9.3-20.8-20.8c0-11.5,9.3-20.8,20.8-20.8s20.8,9.3,20.8,20.8
		C290.2,599,280.9,608.3,269.4,608.3"/>
	<path class="st2" d="M285.3,668.3c-8.7,0-15.7-7-15.7-15.7c0-8.7,7-15.7,15.7-15.7c8.7,0,15.7,7,15.7,15.7
		C301,661.3,293.9,668.3,285.3,668.3"/>
	<path class="st3" d="M267,606c-11.5,0-20.8-9.3-20.8-20.8s9.3-20.8,20.8-20.8c11.5,0,20.8,9.3,20.8,20.8S278.5,606,267,606"/>
	<path class="st3" d="M282.9,666c-8.7,0-15.7-7-15.7-15.7c0-8.7,7-15.7,15.7-15.7c8.7,0,15.7,7,15.7,15.7
		C298.6,658.9,291.6,666,282.9,666"/>
	<path class="st4" d="M264.7,603.6c-11.5,0-20.8-9.3-20.8-20.8c0-11.5,9.3-20.8,20.8-20.8s20.8,9.3,20.8,20.8
		C285.5,594.3,276.1,603.6,264.7,603.6"/>
	<path class="st4" d="M280.5,663.6c-8.7,0-15.7-7-15.7-15.7c0-8.7,7-15.7,15.7-15.7c8.7,0,15.7,7,15.7,15.7
		C296.3,656.6,289.2,663.6,280.5,663.6"/>
	<path class="st5" d="M262.3,601.3c-11.5,0-20.8-9.3-20.8-20.8c0-11.5,9.3-20.8,20.8-20.8c11.5,0,20.8,9.3,20.8,20.8
		C283.1,591.9,273.8,601.3,262.3,601.3"/>
	<path class="st5" d="M278.2,661.2c-8.7,0-15.7-7-15.7-15.7c0-8.7,7-15.7,15.7-15.7c8.7,0,15.7,7,15.7,15.7
		C293.9,654.2,286.9,661.2,278.2,661.2"/>
	<path class="st6" d="M259.9,598.9c-11.5,0-20.8-9.3-20.8-20.8s9.3-20.8,20.8-20.8c11.5,0,20.8,9.3,20.8,20.8
		S271.4,598.9,259.9,598.9"/>
	<path class="st6" d="M275.8,658.9c-8.7,0-15.7-7-15.7-15.7c0-8.7,7-15.7,15.7-15.7c8.7,0,15.7,7,15.7,15.7
		C291.5,651.8,284.5,658.9,275.8,658.9"/>
	<path class="st7" d="M257.6,596.5c-11.5,0-20.8-9.3-20.8-20.8c0-11.5,9.3-20.8,20.8-20.8c11.5,0,20.8,9.3,20.8,20.8
		C278.4,587.2,269.1,596.5,257.6,596.5"/>
	<path class="st7" d="M273.5,656.5c-8.7,0-15.7-7-15.7-15.7c0-8.7,7-15.7,15.7-15.7c8.7,0,15.7,7,15.7,15.7
		C289.2,649.5,282.1,656.5,273.5,656.5"/>
	<path class="st8" d="M255.2,594.2c-11.5,0-20.8-9.3-20.8-20.8c0-11.5,9.3-20.8,20.8-20.8c11.5,0,20.8,9.3,20.8,20.8
		C276,584.9,266.7,594.2,255.2,594.2"/>
	<path class="st8" d="M271.1,654.2c-8.7,0-15.7-7-15.7-15.7c0-8.7,7-15.7,15.7-15.7c8.7,0,15.7,7,15.7,15.7
		C286.8,647.1,279.8,654.2,271.1,654.2"/>
	<path class="st9" d="M252.9,591.8c-11.5,0-20.8-9.3-20.8-20.8c0-11.5,9.3-20.8,20.8-20.8c11.5,0,20.8,9.3,20.8,20.8
		C273.7,582.5,264.4,591.8,252.9,591.8"/>
	<path class="st9" d="M268.8,651.8c-8.7,0-15.7-7-15.7-15.7c0-8.7,7-15.7,15.7-15.7c8.7,0,15.7,7,15.7,15.7
		C284.5,644.8,277.4,651.8,268.8,651.8"/>
	<path class="st10" d="M250.5,563.4c-11.5,0-20.8-9.3-20.8-20.8c0-11.5,9.3-20.8,20.8-20.8c11.5,0,20.8,9.3,20.8,20.8
		C271.3,554.1,262,563.4,250.5,563.4"/>
	<path class="st10" d="M266.4,649.4c-8.7,0-15.7-7-15.7-15.7c0-8.7,7-15.7,15.7-15.7c8.7,0,15.7,7,15.7,15.7
		C282.1,642.4,275.1,649.4,266.4,649.4"/>
	<path class="st11" d="M248.2,561c-11.5,0-20.8-9.3-20.8-20.8c0-11.5,9.3-20.8,20.8-20.8c11.5,0,20.8,9.3,20.8,20.8
		C269,551.7,259.6,561,248.2,561"/>
	<path class="st11" d="M264,647.1c-8.7,0-15.7-7-15.7-15.7c0-8.7,7-15.7,15.7-15.7c8.7,0,15.7,7,15.7,15.7
		C279.8,640.1,272.7,647.1,264,647.1"/>
	<path class="st11" d="M245.8,558.7c-11.5,0-20.8-9.3-20.8-20.8s9.3-20.8,20.8-20.8c11.5,0,20.8,9.3,20.8,20.8
		S257.3,558.7,245.8,558.7"/>
	<path class="st11" d="M261.7,644.7c-8.7,0-15.7-7-15.7-15.7c0-8.7,7-15.7,15.7-15.7c8.7,0,15.7,7,15.7,15.7
		C277.4,637.7,270.4,644.7,261.7,644.7"/>
	<path class="st12" d="M243.4,556.3c-11.5,0-20.8-9.3-20.8-20.8c0-11.5,9.3-20.8,20.8-20.8c11.5,0,20.8,9.3,20.8,20.8
		C264.2,547,254.9,556.3,243.4,556.3"/>
	<path class="st12" d="M259.3,642.4c-8.7,0-15.7-7-15.7-15.7c0-8.7,7-15.7,15.7-15.7c8.7,0,15.7,7,15.7,15.7
		C275,635.3,268,642.4,259.3,642.4"/>
	<path class="st13" d="M241.1,554c-11.5,0-20.8-9.3-20.8-20.8c0-11.5,9.3-20.8,20.8-20.8c11.5,0,20.8,9.3,20.8,20.8
		C261.9,544.7,252.6,554,241.1,554"/>
	<path class="st13" d="M257,640c-8.7,0-15.7-7-15.7-15.7c0-8.7,7-15.7,15.7-15.7s15.7,7,15.7,15.7C272.7,633,265.6,640,257,640"/>
	<path class="st14" d="M238.7,551.6c-11.5,0-20.8-9.3-20.8-20.8c0-11.5,9.3-20.8,20.8-20.8c11.5,0,20.8,9.3,20.8,20.8
		C259.5,542.3,250.2,551.6,238.7,551.6"/>
	<path class="st14" d="M254.6,637.7c-8.7,0-15.7-7-15.7-15.7c0-8.7,7-15.7,15.7-15.7s15.7,7,15.7,15.7
		C270.3,630.6,263.3,637.7,254.6,637.7"/>
	<path class="st15" d="M236.4,549.3c-11.5,0-20.8-9.3-20.8-20.8c0-11.5,9.3-20.8,20.8-20.8c11.5,0,20.8,9.3,20.8,20.8
		C257.2,539.9,247.9,549.3,236.4,549.3"/>
	<path class="st15" d="M252.3,635.3c-8.7,0-15.7-7-15.7-15.7c0-8.7,7-15.7,15.7-15.7c8.7,0,15.7,7,15.7,15.7
		C268,628.3,260.9,635.3,252.3,635.3"/>
	<path class="st16" d="M234,546.9c-11.5,0-20.8-9.3-20.8-20.8c0-11.5,9.3-20.8,20.8-20.8c11.5,0,20.8,9.3,20.8,20.8
		C254.8,537.6,245.5,546.9,234,546.9"/>
	<path class="st16" d="M249.9,632.9c-8.7,0-15.7-7-15.7-15.7c0-8.7,7-15.7,15.7-15.7c8.7,0,15.7,7,15.7,15.7
		C265.6,625.9,258.6,632.9,249.9,632.9"/>
	<path class="st17" d="M231.6,544.5c-11.5,0-20.8-9.3-20.8-20.8c0-11.5,9.3-20.8,20.8-20.8c11.5,0,20.8,9.3,20.8,20.8
		C252.4,535.2,243.1,544.5,231.6,544.5"/>
	<path class="st17" d="M247.5,630.6c-8.7,0-15.7-7-15.7-15.7c0-8.7,7-15.7,15.7-15.7c8.7,0,15.7,7,15.7,15.7
		C263.3,623.6,256.2,630.6,247.5,630.6"/>
	<path class="st18" d="M229.3,542.2c-11.5,0-20.8-9.3-20.8-20.8c0-11.5,9.3-20.8,20.8-20.8c11.5,0,20.8,9.3,20.8,20.8
		C250.1,532.9,240.8,542.2,229.3,542.2"/>
	<path class="st18" d="M245.2,628.2c-8.7,0-15.7-7-15.7-15.7c0-8.7,7-15.7,15.7-15.7c8.7,0,15.7,7,15.7,15.7
		C260.9,621.2,253.9,628.2,245.2,628.2"/>
	<path class="st19" d="M226.9,539.8c-11.5,0-20.8-9.3-20.8-20.8c0-11.5,9.3-20.8,20.8-20.8c11.5,0,20.8,9.3,20.8,20.8
		C247.7,530.5,238.4,539.8,226.9,539.8"/>
	<path class="st19" d="M242.8,625.9c-8.7,0-15.7-7-15.7-15.7c0-8.7,7-15.7,15.7-15.7c8.7,0,15.7,7,15.7,15.7
		C258.5,618.8,251.5,625.9,242.8,625.9"/>
	<path class="st20" d="M224.6,537.5c-11.5,0-20.8-9.3-20.8-20.8c0-11.5,9.3-20.8,20.8-20.8c11.5,0,20.8,9.3,20.8,20.8
		C245.4,528.2,236.1,537.5,224.6,537.5"/>
	<path class="st20" d="M240.5,623.5c-8.7,0-15.7-7-15.7-15.7c0-8.7,7-15.7,15.7-15.7c8.7,0,15.7,7,15.7,15.7
		C256.2,616.5,249.1,623.5,240.5,623.5"/>
	<path class="st20" d="M222.2,535.1c-11.5,0-20.8-9.3-20.8-20.8c0-11.5,9.3-20.8,20.8-20.8c11.5,0,20.8,9.3,20.8,20.8
		C243,525.8,233.7,535.1,222.2,535.1"/>
	<path class="st20" d="M238.1,621.2c-8.7,0-15.7-7-15.7-15.7c0-8.7,7-15.7,15.7-15.7c8.7,0,15.7,7,15.7,15.7
		C253.8,614.1,246.8,621.2,238.1,621.2"/>
	<path class="st21" d="M219.9,532.8c-11.5,0-20.8-9.3-20.8-20.8c0-11.5,9.3-20.8,20.8-20.8c11.5,0,20.8,9.3,20.8,20.8
		C240.7,523.4,231.3,532.8,219.9,532.8"/>
	<path class="st21" d="M235.8,618.8c-8.7,0-15.7-7-15.7-15.7c0-8.7,7-15.7,15.7-15.7c8.7,0,15.7,7,15.7,15.7
		C251.5,611.8,244.4,618.8,235.8,618.8"/>
	<path class="st21" d="M217.5,530.4c-11.5,0-20.8-9.3-20.8-20.8c0-11.5,9.3-20.8,20.8-20.8c11.5,0,20.8,9.3,20.8,20.8
		C238.3,521.1,229,530.4,217.5,530.4"/>
	<path class="st21" d="M233.4,616.4c-8.7,0-15.7-7-15.7-15.7c0-8.7,7-15.7,15.7-15.7c8.7,0,15.7,7,15.7,15.7
		C249.1,609.4,242.1,616.4,233.4,616.4"/>
	<path class="st22" d="M215.2,528c-11.5,0-20.8-9.3-20.8-20.8c0-11.5,9.3-20.8,20.8-20.8c11.5,0,20.8,9.3,20.8,20.8
		C235.9,518.7,226.6,528,215.2,528"/>
	<path class="st22" d="M231,614.1c-8.7,0-15.7-7-15.7-15.7s7-15.7,15.7-15.7c8.7,0,15.7,7,15.7,15.7S239.7,614.1,231,614.1"/>
	<path class="st22" d="M212.8,525.7c-11.5,0-20.8-9.3-20.8-20.8c0-11.5,9.3-20.8,20.8-20.8c11.5,0,20.8,9.3,20.8,20.8
		C233.6,516.4,224.3,525.7,212.8,525.7"/>
	<path class="st22" d="M228.7,611.7c-8.7,0-15.7-7-15.7-15.7c0-8.7,7-15.7,15.7-15.7c8.7,0,15.7,7,15.7,15.7
		C244.4,604.7,237.4,611.7,228.7,611.7"/>
	<path class="st23" d="M210.4,523.3c-11.5,0-20.8-9.3-20.8-20.8s9.3-20.8,20.8-20.8c11.5,0,20.8,9.3,20.8,20.8
		S221.9,523.3,210.4,523.3"/>
	<path class="st23" d="M226.3,609.4c-8.7,0-15.7-7-15.7-15.7c0-8.7,7-15.7,15.7-15.7c8.7,0,15.7,7,15.7,15.7
		C242,602.3,235,609.4,226.3,609.4"/>
	<path class="st24" d="M208.1,521c-11.5,0-20.8-9.3-20.8-20.8c0-11.5,9.3-20.8,20.8-20.8c11.5,0,20.8,9.3,20.8,20.8
		C228.9,511.7,219.6,521,208.1,521"/>
	<path class="st24" d="M224,607c-8.7,0-15.7-7-15.7-15.7c0-8.7,7-15.7,15.7-15.7c8.7,0,15.7,7,15.7,15.7
		C239.7,600,232.6,607,224,607"/>
	<path class="st25" d="M205.7,518.6c-11.5,0-20.8-9.3-20.8-20.8c0-11.5,9.3-20.8,20.8-20.8c11.5,0,20.8,9.3,20.8,20.8
		C226.5,509.3,217.2,518.6,205.7,518.6"/>
	<path class="st25" d="M221.6,604.7c-8.7,0-15.7-7-15.7-15.7c0-8.7,7-15.7,15.7-15.7c8.7,0,15.7,7,15.7,15.7
		C237.3,597.6,230.3,604.7,221.6,604.7"/>
	<path class="st26" d="M203.4,516.3c-11.5,0-20.8-9.3-20.8-20.8c0-11.5,9.3-20.8,20.8-20.8c11.5,0,20.8,9.3,20.8,20.8
		C224.2,506.9,214.8,516.3,203.4,516.3"/>
	<path class="st26" d="M219.3,602.3c-8.7,0-15.7-7-15.7-15.7c0-8.7,7-15.7,15.7-15.7c8.7,0,15.7,7,15.7,15.7
		C235,595.3,227.9,602.3,219.3,602.3"/>
	<path class="st27" d="M201,513.9c-11.5,0-20.8-9.3-20.8-20.8c0-11.5,9.3-20.8,20.8-20.8c11.5,0,20.8,9.3,20.8,20.8
		C221.8,504.6,212.5,513.9,201,513.9"/>
	<path class="st27" d="M216.9,599.9c-8.7,0-15.7-7-15.7-15.7c0-8.7,7-15.7,15.7-15.7c8.7,0,15.7,7,15.7,15.7
		C232.6,592.9,225.6,599.9,216.9,599.9"/>
	<path class="st28" d="M198.6,511.5c-11.5,0-20.8-9.3-20.8-20.8c0-11.5,9.3-20.8,20.8-20.8c11.5,0,20.8,9.3,20.8,20.8
		C219.4,502.2,210.1,511.5,198.6,511.5"/>
	<path class="st28" d="M214.5,597.6c-8.7,0-15.7-7-15.7-15.7c0-8.7,7-15.7,15.7-15.7c8.7,0,15.7,7,15.7,15.7
		C230.2,590.6,223.2,597.6,214.5,597.6"/>
	<path class="st29" d="M196.3,509.2c-11.5,0-20.8-9.3-20.8-20.8c0-11.5,9.3-20.8,20.8-20.8c11.5,0,20.8,9.3,20.8,20.8
		C217.1,499.9,207.8,509.2,196.3,509.2"/>
	<path class="st29" d="M212.2,595.2c-8.7,0-15.7-7-15.7-15.7c0-8.7,7-15.7,15.7-15.7c8.7,0,15.7,7,15.7,15.7
		C227.9,588.2,220.9,595.2,212.2,595.2"/>
	<path class="st30" d="M193.9,506.8c-11.5,0-20.8-9.3-20.8-20.8c0-11.5,9.3-20.8,20.8-20.8c11.5,0,20.8,9.3,20.8,20.8
		C214.7,497.5,205.4,506.8,193.9,506.8"/>
	<path class="st30" d="M209.8,592.9c-8.7,0-15.7-7-15.7-15.7c0-8.7,7-15.7,15.7-15.7c8.7,0,15.7,7,15.7,15.7
		C225.5,585.8,218.5,592.9,209.8,592.9"/>
	<path class="st31" d="M191.6,504.5c-11.5,0-20.8-9.3-20.8-20.8c0-11.5,9.3-20.8,20.8-20.8c11.5,0,20.8,9.3,20.8,20.8
		C212.4,495.2,203.1,504.5,191.6,504.5"/>
	<path class="st31" d="M207.5,590.5c-8.7,0-15.7-7-15.7-15.7c0-8.7,7-15.7,15.7-15.7c8.7,0,15.7,7,15.7,15.7
		C223.2,583.5,216.1,590.5,207.5,590.5"/>
	<path class="st31" d="M189.2,502.1c-11.5,0-20.8-9.3-20.8-20.8c0-11.5,9.3-20.8,20.8-20.8c11.5,0,20.8,9.3,20.8,20.8
		C210,492.8,200.7,502.1,189.2,502.1"/>
	<path class="st31" d="M205.1,588.2c-8.7,0-15.7-7-15.7-15.7c0-8.7,7-15.7,15.7-15.7c8.7,0,15.7,7,15.7,15.7
		C220.8,581.1,213.8,588.2,205.1,588.2"/>
	<path class="st32" d="M186.9,499.8c-11.5,0-20.8-9.3-20.8-20.8c0-11.5,9.3-20.8,20.8-20.8c11.5,0,20.8,9.3,20.8,20.8
		C207.7,490.4,198.3,499.8,186.9,499.8"/>
	<path class="st32" d="M202.8,585.8c-8.7,0-15.7-7-15.7-15.7c0-8.7,7-15.7,15.7-15.7c8.7,0,15.7,7,15.7,15.7
		C218.5,578.8,211.4,585.8,202.8,585.8"/>
	<path class="st32" d="M184.5,497.4c-11.5,0-20.8-9.3-20.8-20.8c0-11.5,9.3-20.8,20.8-20.8c11.5,0,20.8,9.3,20.8,20.8
		C205.3,488.1,196,497.4,184.5,497.4"/>
	<path class="st32" d="M200.4,583.4c-8.7,0-15.7-7-15.7-15.7c0-8.7,7-15.7,15.7-15.7c8.7,0,15.7,7,15.7,15.7
		C216.1,576.4,209.1,583.4,200.4,583.4"/>
	<path class="st33" d="M182.1,495c-11.5,0-20.8-9.3-20.8-20.8c0-11.5,9.3-20.8,20.8-20.8c11.5,0,20.8,9.3,20.8,20.8
		C202.9,485.7,193.6,495,182.1,495"/>
	<path class="st33" d="M198,581.1c-8.7,0-15.7-7-15.7-15.7c0-8.7,7-15.7,15.7-15.7c8.7,0,15.7,7,15.7,15.7
		C213.7,574.1,206.7,581.1,198,581.1"/>
	<path class="st34" d="M179.8,492.7c-11.5,0-20.8-9.3-20.8-20.8c0-11.5,9.3-20.8,20.8-20.8c11.5,0,20.8,9.3,20.8,20.8
		C200.6,483.4,191.3,492.7,179.8,492.7"/>
	<path class="st34" d="M195.7,552.7c-8.7,0-15.7-7-15.7-15.7c0-8.7,7-15.7,15.7-15.7c8.7,0,15.7,7,15.7,15.7
		C211.4,545.6,204.4,552.7,195.7,552.7"/>
	<path class="st35" d="M177.4,490.3c-11.5,0-20.8-9.3-20.8-20.8c0-11.5,9.3-20.8,20.8-20.8c11.5,0,20.8,9.3,20.8,20.8
		C198.2,481,188.9,490.3,177.4,490.3"/>
	<path class="st35" d="M193.3,550.3c-8.7,0-15.7-7-15.7-15.7c0-8.7,7-15.7,15.7-15.7c8.7,0,15.7,7,15.7,15.7
		C209,543.3,202,550.3,193.3,550.3"/>
	<path class="st36" d="M175.1,488c-11.5,0-20.8-9.3-20.8-20.8s9.3-20.8,20.8-20.8c11.5,0,20.8,9.3,20.8,20.8S186.6,488,175.1,488"/>
	<path class="st36" d="M191,547.9c-8.7,0-15.7-7-15.7-15.7c0-8.7,7-15.7,15.7-15.7c8.7,0,15.7,7,15.7,15.7
		C206.7,540.9,199.6,547.9,191,547.9"/>
	<path class="st37" d="M172.7,485.6c-11.5,0-20.8-9.3-20.8-20.8s9.3-20.8,20.8-20.8s20.8,9.3,20.8,20.8S184.2,485.6,172.7,485.6"/>
	<path class="st37" d="M188.6,545.6c-8.7,0-15.7-7-15.7-15.7c0-8.7,7-15.7,15.7-15.7c8.7,0,15.7,7,15.7,15.7
		C204.3,538.6,197.3,545.6,188.6,545.6"/>
	<path class="st38" d="M170.4,483.3c-11.5,0-20.8-9.3-20.8-20.8s9.3-20.8,20.8-20.8s20.8,9.3,20.8,20.8S181.8,483.3,170.4,483.3"/>
	<path class="st38" d="M186.3,543.2c-8.7,0-15.7-7-15.7-15.7c0-8.7,7-15.7,15.7-15.7c8.7,0,15.7,7,15.7,15.7
		C202,536.2,194.9,543.2,186.3,543.2"/>
	<path class="st39" d="M183.9,540.9c-8.7,0-15.7-7-15.7-15.7c0-8.7,7-15.7,15.7-15.7s15.7,7,15.7,15.7
		C199.6,533.8,192.6,540.9,183.9,540.9"/>
	<path class="st40" d="M165.6,478.5c-11.5,0-20.8-9.3-20.8-20.8s9.3-20.8,20.8-20.8c11.5,0,20.8,9.3,20.8,20.8
		S177.1,478.5,165.6,478.5"/>
	<path class="st40" d="M181.5,538.5c-8.7,0-15.7-7-15.7-15.7c0-8.7,7-15.7,15.7-15.7c8.7,0,15.7,7,15.7,15.7
		C197.2,531.5,190.2,538.5,181.5,538.5"/>
	<path class="st41" d="M163.3,476.2c-11.5,0-20.8-9.3-20.8-20.8c0-11.5,9.3-20.8,20.8-20.8s20.8,9.3,20.8,20.8
		C184.1,466.9,174.8,476.2,163.3,476.2"/>
	<path class="st41" d="M179.2,536.2c-8.7,0-15.7-7-15.7-15.7c0-8.7,7-15.7,15.7-15.7c8.7,0,15.7,7,15.7,15.7
		C194.9,529.1,187.9,536.2,179.2,536.2"/>
	<path class="st42" d="M160.9,473.8c-11.5,0-20.8-9.3-20.8-20.8c0-11.5,9.3-20.8,20.8-20.8c11.5,0,20.8,9.3,20.8,20.8
		C181.7,464.5,172.4,473.8,160.9,473.8"/>
	<path class="st42" d="M176.8,533.8c-8.7,0-15.7-7-15.7-15.7c0-8.7,7-15.7,15.7-15.7c8.7,0,15.7,7,15.7,15.7
		C192.5,526.8,185.5,533.8,176.8,533.8"/>
	<path class="st43" d="M158.6,471.5c-11.5,0-20.8-9.3-20.8-20.8c0-11.5,9.3-20.8,20.8-20.8c11.5,0,20.8,9.3,20.8,20.8
		C179.4,462.2,170.1,471.5,158.6,471.5"/>
	<path class="st43" d="M174.5,531.4c-8.7,0-15.7-7-15.7-15.7c0-8.7,7-15.7,15.7-15.7c8.7,0,15.7,7,15.7,15.7
		C190.2,524.4,183.1,531.4,174.5,531.4"/>
	<path class="st44" d="M156.2,469.1c-11.5,0-20.8-9.3-20.8-20.8c0-11.5,9.3-20.8,20.8-20.8c11.5,0,20.8,9.3,20.8,20.8
		C177,459.8,167.7,469.1,156.2,469.1"/>
	<path class="st44" d="M172.1,529.1c-8.7,0-15.7-7-15.7-15.7c0-8.7,7-15.7,15.7-15.7c8.7,0,15.7,7,15.7,15.7
		C187.8,522.1,180.8,529.1,172.1,529.1"/>
	<path class="st44" d="M153.9,466.7c-11.5,0-20.8-9.3-20.8-20.8c0-11.5,9.3-20.8,20.8-20.8c11.5,0,20.8,9.3,20.8,20.8
		C174.7,457.4,165.3,466.7,153.9,466.7"/>
	<path class="st44" d="M169.7,526.7c-8.7,0-15.7-7-15.7-15.7c0-8.7,7-15.7,15.7-15.7c8.7,0,15.7,7,15.7,15.7
		C185.5,519.7,178.4,526.7,169.7,526.7"/>
	<polyline class="st5" points="228.8,414.9 270.4,373.3 270.4,435.7 254.2,427.6 241.9,458.4 232.3,454.5 244.9,423 	"/>
	<path class="st5" d="M269.7,434.6v-59.8l-39.8,39.8l15.9,7.9l-12.6,31.5l8.4,3.4l12.3-30.8 M231.4,454.9l12.7-31.6l-16.4-8.2
		l43.3-43.3v65l-16.4-8.2l-12.3,30.7L231.4,454.9z"/>
	<polyline class="st3" points="230,416.1 271.6,374.5 271.6,436.9 255.5,428.8 243.1,459.6 233.5,455.8 246.1,424.2 	"/>
	<path class="st3" d="M270.9,435.8v-59.8l-39.8,39.8l15.9,7.9l-12.6,31.5l8.4,3.4l12.3-30.8 M232.6,456.1l12.7-31.6l-16.4-8.2
		l43.3-43.3v65l-16.4-8.2l-12.3,30.7L232.6,456.1z"/>
	<polyline class="st45" points="231.2,417.3 272.8,375.7 272.8,438.1 256.7,430 244.4,460.8 234.7,457 247.3,425.4 	"/>
	<path class="st45" d="M272.2,437.1v-59.8l-39.8,39.8l15.9,7.9l-12.6,31.5l8.4,3.4l12.3-30.8 M233.9,457.3l12.7-31.6l-16.4-8.2
		l43.3-43.3v65l-16.4-8.2l-12.3,30.7L233.9,457.3z"/>
	<path class="st46" d="M273.4,438.3v-59.8l-39.8,39.8l15.9,7.9l-12.6,31.5l8.4,3.4l12.3-30.8 M235.1,458.6l12.7-31.6l-16.4-8.2
		l43.3-43.3v65l-16.4-8.2l-12.3,30.7L235.1,458.6z"/>
	<polyline class="st47" points="233.6,419.7 275.2,378.2 275.2,440.5 259.1,432.5 246.8,463.3 237.1,459.4 249.8,427.8 	"/>
	<path class="st47" d="M274.6,439.5v-59.8l-39.8,39.8l15.9,7.9L238,459l8.4,3.4l12.3-30.8 M236.3,459.8l12.7-31.6l-16.4-8.2
		l43.3-43.3v65l-16.4-8.2l-12.3,30.7L236.3,459.8z"/>
	<polyline class="st0" points="234.9,421 276.5,379.4 276.5,441.8 260.3,433.7 248,464.5 238.4,460.6 251,429 	"/>
	<path class="st0" d="M275.8,440.7v-59.8L236,420.8l15.9,7.9l-12.6,31.5l8.4,3.4l12.3-30.8 M237.5,461l12.7-31.6l-16.4-8.2
		l43.3-43.3v65l-16.4-8.2l-12.3,30.7L237.5,461z"/>
	<path class="st48" d="M401.6,221.3c201.6,0,365,163.4,365,365c0,201.6-163.4,365-365,365c-201.6,0-365-163.4-365-365
		C36.6,384.7,200,221.3,401.6,221.3"/>
	<path class="st49" d="M593.9,381.6c-8.7,0-15.7-7-15.7-15.7c0-8.7,7-15.7,15.7-15.7c8.7,0,15.7,7,15.7,15.7
		C609.6,374.6,602.6,381.6,593.9,381.6"/>
	<path class="st50" d="M334.4,29.6h-582.9c-8,0-14.6,6.5-14.6,14.6v284.1h25.5v-111h174.9v111h14.6v-111h174.9v111h14.6v-111h174.9
		v111h32.8V44.1C348.9,36.1,342.4,29.6,334.4,29.6 M-62.7,202.7h-174.9V86.1h174.9V202.7z M126.7,202.7H-48.2V86.1h174.9V202.7z
		 M-129.8,64.9V50.3h338.1v14.6H-129.8z M316.1,202.7H141.3V86.1h174.9V202.7z"/>
	<rect x="-237.6" y="86.1" class="st51" width="174.9" height="116.6"/>
	<rect x="-237.6" y="217.2" class="st52" width="174.9" height="111"/>
	<rect x="-48.2" y="217.2" class="st53" width="174.9" height="111"/>
	<rect x="141.3" y="217.2" class="st51" width="174.9" height="111"/>
	<path class="st54" d="M363.5,335.6V44.1c0-16-13.1-29.1-29.1-29.1h-582.9c-16,0-29.1,13.1-29.1,29.1v291.4c0,2.2,0,4.7,0,7.3h641.1
		C363.5,340.3,363.5,337.8,363.5,335.6 M348.9,328.3h-32.8H141.3h-14.6H-48.2h-14.6h-174.9h-25.5V44.1c0-8,6.5-14.6,14.6-14.6h582.9
		c8,0,14.6,6.5,14.6,14.6V328.3z"/>
	<rect x="-29.9" y="430.3" class="st50" width="145.7" height="51"/>
	<polyline class="st52" points="-59.1,510.4 144.9,510.4 115.8,481.3 -29.9,481.3 	"/>
	<path class="st50" d="M334.4,29.6h-582.9c-8,0-14.6,6.5-14.6,14.6v284.1h25.5v-111h174.9v111h14.6v-111h174.9v111h14.6v-111h174.9
		v111h32.8V44.1C348.9,36.1,342.4,29.6,334.4,29.6 M-62.7,202.7h-174.9V86.1h174.9V202.7z M126.7,202.7H-48.2V86.1h174.9V202.7z
		 M-129.8,64.9V50.3h338.1v14.6H-129.8z M316.1,202.7H141.3V86.1h174.9V202.7z"/>
	<path class="st50" d="M363.5,342.8h-641.1c0,15.9,0,37.2,0,51c0,16,13.1,29.1,29.1,29.1h218.6h145.7h218.6
		c16,0,29.1-13.1,29.1-29.1C363.5,380.1,363.5,358.7,363.5,342.8 M102.3,390.2H-16.5v-14.6h118.8V390.2z"/>
	<rect x="-237.6" y="86.1" class="st51" width="174.9" height="116.6"/>
	<rect x="-237.6" y="217.2" class="st55" width="174.9" height="111"/>
	<rect x="-48.2" y="41.1" class="st50" width="373.3" height="287.2"/>
	<path class="st54" d="M363.5,335.6V44.1c0-16-13.1-29.1-29.1-29.1h-582.9c-16,0-29.1,13.1-29.1,29.1v291.4c0,2.2,0,4.7,0,7.3h641.1
		C363.5,340.3,363.5,337.8,363.5,335.6 M348.9,328.3h-32.8H141.3h-14.6H-48.2h-14.6h-174.9h-25.5V44.1c0-8,6.5-14.6,14.6-14.6h582.9
		c8,0,14.6,6.5,14.6,14.6V328.3z"/>
	<rect x="-16.5" y="375.6" class="st54" width="118.8" height="14.6"/>
	<path class="st54" d="M-151.5,240.2c-9.2,9.2-9.5,23.9-0.8,33.5c0.3,0.3,0.5,0.6,0.8,0.9c9.5,9.5,24.9,9.5,34.4,0
		c9.5-9.5,9.5-24.9,0-34.4c-0.3-0.3-0.6-0.6-0.9-0.8C-127.6,230.8-142.3,231-151.5,240.2 M-120.6,243.7c7.6,7.6,7.6,19.9,0,27.5
		c-7.6,7.6-19.9,7.6-27.5,0c-0.3-0.3-0.6-0.6-0.8-0.9c-6.7-7.6-6.5-19.3,0.8-26.6c7.3-7.3,19-7.6,26.6-0.8
		C-121.2,243.1-120.9,243.4-120.6,243.7z"/>
	<path class="st56" d="M-122.3,269.4c-7.3,7.3-19,7.6-26.6,0.8c0.3,0.3,0.5,0.6,0.8,0.9c7.6,7.6,19.9,7.6,27.5,0
		c7.6-7.6,7.6-19.9,0-27.5c-0.3-0.3-0.6-0.6-0.9-0.8C-114.7,250.5-115,262.2-122.3,269.4"/>
	<path class="st55" d="M-148.1,243.7c-7.3,7.3-7.6,19-0.8,26.6c7.6,6.7,19.3,6.5,26.6-0.8c7.3-7.3,7.6-19,0.8-26.6
		C-129.1,236.1-140.8,236.4-148.1,243.7 M-124,260.8c-1.9,1.9-5,1.9-6.9,0c-1.9-1.9-1.9-5,0-6.9c1.9-1.9,5-1.9,6.9,0
		C-122.1,255.9-122.1,258.9-124,260.8z M-118.5,258.6c-0.6,0.6-1.6,0.6-2.2,0c-0.6-0.6-0.6-1.6,0-2.2c0.6-0.6,1.6-0.6,2.2,0
		C-117.9,257-117.9,258-118.5,258.6z"/>
	<polyline class="st57" points="-156.7,283.2 -149.8,276.3 -151.5,274.6 -153.2,272.9 -160.1,279.7 -158.4,281.5 	"/>
	<polyline class="st56" points="-161.8,284.9 -158.4,288.3 -154.9,284.9 -156.7,283.2 -158.4,281.5 	"/>
	<polyline class="st56" points="-163.5,286.6 -185.8,308.9 -184.1,310.6 -182.4,312.3 -160.1,290 	"/>
	<polyline class="st54" points="-161.8,284.9 -158.4,281.5 -160.1,279.7 -161.8,278 -165.2,281.4 	"/>
	<polyline class="st54" points="-185.8,308.9 -163.5,286.6 -166.9,283.2 -189.3,305.5 -187.5,307.2 	"/>
	<path class="st50" d="M-130.9,254c-1.9,1.9-1.9,5,0,6.9c1.9,1.9,5,1.9,6.9,0c1.9-1.9,1.9-5,0-6.9C-125.9,252.1-129,252.1-130.9,254
		"/>
	<path class="st50" d="M-120.8,256.4c-0.6,0.6-0.6,1.6,0,2.2c0.6,0.6,1.6,0.6,2.2,0c0.6-0.6,0.6-1.6,0-2.2
		C-119.1,255.7-120.1,255.7-120.8,256.4"/>
	<polyline class="st57" points="-163.5,286.6 -160.1,290 -158.4,288.3 -161.8,284.9 -165.2,281.4 -166.9,283.2 	"/>
	<path class="st54" d="M-151.5,240.2c-9.2,9.2-9.5,23.9-0.8,33.5c0.3,0.3,0.5,0.6,0.8,0.9c9.5,9.5,24.9,9.5,34.4,0
		c9.5-9.5,9.5-24.9,0-34.4c-0.3-0.3-0.6-0.6-0.9-0.8C-127.6,230.8-142.3,231-151.5,240.2 M-120.6,243.7c7.6,7.6,7.6,19.9,0,27.5
		c-7.6,7.6-19.9,7.6-27.5,0c-0.3-0.3-0.6-0.6-0.8-0.9c-6.7-7.6-6.5-19.3,0.8-26.6c7.3-7.3,19-7.6,26.6-0.8
		C-121.2,243.1-120.9,243.4-120.6,243.7z"/>
	<path class="st55" d="M-120.6,271.2c7.6-7.6,7.6-19.9,0-27.5c-0.3-0.3-0.6-0.6-0.9-0.8c-7.6-6.7-19.3-6.5-26.6,0.8
		c-7.3,7.3-7.6,19-0.8,26.6c0.3,0.3,0.5,0.6,0.8,0.9C-140.5,278.7-128.2,278.7-120.6,271.2 M-118.5,256.4c0.6,0.6,0.6,1.6,0,2.2
		c-0.6,0.6-1.6,0.6-2.2,0c-0.6-0.6-0.6-1.6,0-2.2C-120.1,255.7-119.1,255.7-118.5,256.4z M-130.9,254c1.9-1.9,5-1.9,6.9,0
		c1.9,1.9,1.9,5,0,6.9c-1.9,1.9-5,1.9-6.9,0C-132.8,258.9-132.8,255.9-130.9,254z"/>
	<polyline class="st57" points="-156.7,283.2 -149.8,276.3 -151.5,274.6 -153.2,272.9 -160.1,279.7 -158.4,281.5 	"/>
	<polyline class="st56" points="-161.8,284.9 -158.4,288.3 -154.9,284.9 -156.7,283.2 -158.4,281.5 	"/>
	<polyline class="st56" points="-163.5,286.6 -185.8,308.9 -184.1,310.6 -182.4,312.3 -160.1,290 	"/>
	<polyline class="st54" points="-161.8,284.9 -158.4,281.5 -160.1,279.7 -161.8,278 -165.2,281.4 	"/>
	<polyline class="st54" points="-185.8,308.9 -163.5,286.6 -166.9,283.2 -189.3,305.5 -187.5,307.2 	"/>
	<path class="st50" d="M-130.9,254c-1.9,1.9-1.9,5,0,6.9c1.9,1.9,5,1.9,6.9,0c1.9-1.9,1.9-5,0-6.9C-125.9,252.1-129,252.1-130.9,254
		"/>
	<path class="st50" d="M-120.8,256.4c-0.6,0.6-0.6,1.6,0,2.2c0.6,0.6,1.6,0.6,2.2,0c0.6-0.6,0.6-1.6,0-2.2
		C-119.1,255.7-120.1,255.7-120.8,256.4"/>
	<polyline class="st57" points="-163.5,286.6 -160.1,290 -158.4,288.3 -161.8,284.9 -165.2,281.4 -166.9,283.2 	"/>
	<rect x="-179.3" y="183.6" class="st52" width="56.7" height="2"/>
	<path class="st49" d="M-138.8,119v-16.2h-40.5v2v78.8h56.7V121v-2 M-142.8,151.3h-24.6v-4h24.6V151.3z M-134.6,143.2h-32.7v-4h32.7
		V143.2z M-134.5,135.2h-33v-4h33V135.2z"/>
	<rect x="-167.4" y="131.1" class="st54" width="33" height="4"/>
	<rect x="-167.3" y="139.2" class="st58" width="32.7" height="4"/>
	<rect x="-167.5" y="147.3" class="st58" width="24.6" height="4"/>
	<polyline class="st52" points="-138.8,119 -122.6,119 -138.8,102.8 	"/>
	<rect x="-179.3" y="183.6" class="st52" width="56.7" height="2"/>
	<path class="st49" d="M-138.8,119v-16.2h-40.5v2v78.8h56.7V121v-2 M-142.8,151.3h-24.6v-4h24.6V151.3z M-134.6,143.2h-32.7v-4h32.7
		V143.2z M-134.5,135.2h-33v-4h33V135.2z"/>
	<rect x="-167.4" y="131.1" class="st54" width="33" height="4"/>
	<rect x="-167.3" y="139.2" class="st58" width="32.7" height="4"/>
	<rect x="-167.5" y="147.3" class="st58" width="24.6" height="4"/>
	<polyline class="st52" points="-138.8,119 -122.6,119 -138.8,102.8 	"/>
	
		<radialGradient id="SVGID_3_" cx="644.5907" cy="241.4157" r="41.495" gradientTransform="matrix(0.9598 -0.2203 0.2203 0.9598 -132.5592 188.576)" gradientUnits="userSpaceOnUse">
		<stop  offset="0.9636" style="stop-color:#231F20"/>
		<stop  offset="1" style="stop-color:#989898"/>
	</radialGradient>
	<path class="st59" d="M579.1,269.2c5,22-8.7,43.9-30.7,49c-22,5-43.9-8.7-49-30.7c-5-22,8.7-43.9,30.7-49
		C552.2,233.4,574.1,247.2,579.1,269.2z"/>
	<g class="st60">
		<path class="st61" d="M583.9,268c5.7,24.6-9.7,49.2-34.4,54.9c-24.6,5.7-49.2-9.8-54.9-34.4c-5.7-24.7,9.7-49.2,34.4-54.9
			C553.7,228,578.3,243.4,583.9,268z"/>
		<path class="st61" d="M529.1,233.9c24.5-5.6,48.9,9.7,54.5,34.2c5.6,24.5-9.7,48.9-34.2,54.5c-24.5,5.6-48.9-9.7-54.5-34.1
			C489.4,263.9,504.6,239.5,529.1,233.9z"/>
		<path class="st61" d="M529.2,234.2c24.3-5.6,48.5,9.6,54.1,33.9c5.6,24.3-9.6,48.5-33.9,54.1c-24.3,5.6-48.5-9.6-54.1-33.9
			C489.7,264,504.9,239.8,529.2,234.2z"/>
		<path class="st61" d="M529.2,234.5c24.1-5.5,48.2,9.5,53.7,33.7c5.5,24.1-9.5,48.2-33.7,53.7c-24.1,5.5-48.2-9.5-53.7-33.6
			C490,264.1,505.1,240,529.2,234.5z"/>
		<path class="st61" d="M529.3,234.7c24-5.5,47.8,9.5,53.3,33.4c5.5,24-9.5,47.8-33.4,53.3c-23.9,5.5-47.8-9.5-53.3-33.4
			C490.4,264.1,505.4,240.2,529.3,234.7z"/>
		<path class="st61" d="M529.4,235c23.8-5.5,47.5,9.4,52.9,33.2c5.5,23.8-9.4,47.5-33.2,52.9c-23.8,5.5-47.5-9.4-52.9-33.2
			C490.7,264.2,505.6,240.5,529.4,235z"/>
		<path class="st61" d="M582,268.2c5.4,23.6-9.3,47.1-32.9,52.6c-23.6,5.4-47.1-9.3-52.5-32.9c-5.4-23.6,9.3-47.1,32.9-52.6
			C553,229.8,576.6,244.6,582,268.2z"/>
	</g>
	<path class="st62" d="M547.5,313.9c-19.6,4.5-39.3-7.8-43.8-27.5c-4.5-19.7,7.8-39.3,27.5-43.8c19.7-4.5,39.3,7.8,43.8,27.5
		C579.5,289.8,567.1,309.4,547.5,313.9L547.5,313.9z"/>
	<polygon class="st63" points="522.5,275.5 546.2,282 545.3,285.3 521.5,278.9 	"/>
	<polygon class="st63" points="559.9,261.6 537.2,287.2 535.5,285.7 558.3,260.1 	"/>
	<g class="st60">
		<path class="st64" d="M529.1,233.7l20.5,89.3c24.6-5.7,40-30.2,34.4-54.9C578.3,243.4,553.7,228,529.1,233.7z"/>
	</g>
	<path class="st62" d="M652.4,289.8l-9.6-24.8l-0.5-1.4h-2.4h-26.7c0.4,7.7,3.8,14.7,9.1,19.7c0.8,0.7,1.6,1.4,2.4,2.1
		c5,3.8,11.2,6.1,18,6.1C645.9,291.5,649.3,290.9,652.4,289.8z"/>
	<path class="st65" d="M643.2,231.2c-3,0-5.8,0.4-8.5,1.2c-1,0.3-2,0.7-3,1.1c-6,2.5-11,7-14.2,12.7c0,0-0.6,1-1.4,2.8h0
		c0,0,0,0.1-0.1,0.2c-0.3,0.7-0.6,1.5-0.9,2.3c0,0,0,0,0,0l0,0c-0.3,0.8-0.5,1.8-0.8,2.8c-0.4,1.6-0.6,3.2-0.7,4.9h27.9h1.6l1.2-1.4
		l17.6-19.6C657,233.8,650.4,231.2,643.2,231.2z"/>
	<path class="st66" d="M646.9,263.3l9.7,25c9.4-4.5,16-13.9,16.6-25c0-0.4,0-0.8,0-1.2h-26.8L646.9,263.3z"/>
	<path class="st49" d="M671.2,237l-17.5,18.3l-1.7,1.8l26.7-2.3C678.3,248.1,675.6,241.8,671.2,237z"/>
	<polyline class="st49" points="705.6,304.3 671.2,338.8 639,306.5 681.8,263.7 706.4,288.4 	"/>
	<polygon class="st67" points="706.4,288.4 705.6,304.3 698,296.7 	"/>
	<line class="st68" x1="669.9" y1="282.7" x2="694.4" y2="307.1"/>
	<line class="st68" x1="666.4" y1="286.3" x2="690.8" y2="310.7"/>
	<line class="st68" x1="662.8" y1="289.9" x2="687.2" y2="314.3"/>
	<line class="st68" x1="659.3" y1="293.4" x2="683.7" y2="317.8"/>
	<line class="st68" x1="655.7" y1="297" x2="680.1" y2="321.4"/>
	<line class="st68" x1="652.1" y1="300.5" x2="676.6" y2="325"/>
	
		<rect x="676.1" y="276.8" transform="matrix(0.7071 0.7071 -0.7071 0.7071 399.3232 -402.0816)" class="st69" width="17.8" height="8.3"/>
</g>
<path class="st70" d="M690.1,984.5c-11.5,0-20.8-9.3-20.8-20.8c0-11.5,9.3-20.8,20.8-20.8c11.5,0,20.8,9.3,20.8,20.8
	C710.9,975.2,701.6,984.5,690.1,984.5"/>
<g>
	<polyline class="st71" points="424,859.6 424,1031 669.9,1031 669.9,859.6 669.9,853.5 424,853.5 	"/>
	<polyline class="st72" points="424,853.5 424,859.6 424,1031 523.5,959.2 	"/>
	<polyline class="st73" points="547,984.1 523.5,959.2 424,1031 669.9,1031 570.4,959.2 	"/>
	<polyline class="st72" points="570.4,959.2 669.9,1031 669.9,859.6 669.9,853.5 	"/>
	<polyline class="st74" points="547,972.1 424,853.5 523.5,959.2 547,984.1 570.4,959.2 669.9,853.5 	"/>
	<polyline class="st73" points="547,973 669.9,854.3 424,854.3 	"/>
	<polyline class="st75" points="424,854.3 424,860.5 424,1031.9 523.5,960 	"/>
	<polyline class="st76" points="547,984.9 523.5,960 424,1031.9 669.9,1031.9 570.4,960 	"/>
	<polyline class="st75" points="570.4,960 669.9,1031.9 669.9,860.5 669.9,854.3 	"/>
	<polyline class="st77" points="692.7,979.4 704.8,1051.3 637.5,1062.7 622.4,973.2 673.8,964.6 	"/>
	<polygon class="st78" points="673.8,963.7 692.7,978.5 676.8,981.2 	"/>
	<line class="st79" x1="635.3" y1="1003.3" x2="686.3" y2="994.7"/>
	<line class="st79" x1="636.6" y1="1010.8" x2="687.6" y2="1002.1"/>
	<line class="st79" x1="637.8" y1="1018.2" x2="688.8" y2="1009.6"/>
	<line class="st79" x1="639.1" y1="1025.6" x2="690.1" y2="1017"/>
	<line class="st79" x1="640.3" y1="1033.1" x2="691.4" y2="1024.5"/>
	<line class="st79" x1="641.6" y1="1040.5" x2="692.6" y2="1031.9"/>
	
		<rect x="632.9" y="977.2" transform="matrix(0.986 -0.1666 0.1666 0.986 -154.7707 121.3651)" class="st80" width="26.7" height="12.5"/>
</g>
</svg>
