<?xml version="1.0" encoding="utf-8"?>
<!-- Generator: Adobe Illustrator 19.0.0, SVG Export Plug-In . SVG Version: 6.00 Build 0)  -->
<svg version="1.1" id="Layer_2" xmlns="http://www.w3.org/2000/svg" xmlns:xlink="http://www.w3.org/1999/xlink" x="0px" y="0px"
	 viewBox="0 0 553 607" style="enable-background:new 0 0 553 607;" xml:space="preserve">
<style type="text/css">
	.st0{fill:#F9A452;}
	.st1{fill:#FFFFFF;}
	.st2{font-family:'Material-Design-Iconic-Font';}
	.st3{font-size:20px;}
	.st4{fill:#999999;}
	.st5{fill:#CCCCCC;}
</style>
<text transform="matrix(1 0 0 1 1467.084 526.5874)" style="opacity:0.8;fill:#F9A452; font-family:'OpenSans-Semibold'; font-size:44px;">Work Process</text>
<path class="st0" d="M36.4,98.6v-8c0-2,1.6-3.5,3.6-3.5h1.9c0.9,0,1.6,0.7,1.6,1.6c0,0.9-0.7,1.6-1.6,1.6h-1.9
	c-0.2,0-0.3,0.1-0.3,0.3v5.2l0.1-0.1c0.2-0.1,0.5-0.2,0.8-0.2H47c0.9,0,1.6,0.7,1.6,1.6c0,0.9-0.7,1.6-1.6,1.6H41l-2.2,1.2
	c-0.2,0.1-0.5,0.2-0.8,0.2c-0.3,0-0.6-0.1-0.8-0.2C36.7,99.7,36.4,99.2,36.4,98.6z M45.4,90.1v-4.6c0-2,1.6-3.5,3.6-3.5h8.7
	c2,0,3.6,1.6,3.6,3.5v9.8c0,0.7-0.4,1.3-1,1.5c-0.2,0.1-0.4,0.1-0.6,0.1c-0.5,0-0.9-0.2-1.2-0.5l-2.5-2.7h-6.9
	C47,93.7,45.4,92.1,45.4,90.1z M48.6,90.1c0,0.2,0.1,0.3,0.3,0.3h7.6c0.5,0,0.9,0.2,1.2,0.5l0.2,0.2v-5.6c0-0.2-0.1-0.3-0.3-0.3
	h-8.7c-0.2,0-0.3,0.1-0.3,0.3V90.1L48.6,90.1z M65.3,103.2c0-3.7,3-6.7,6.8-6.7c3.7,0,6.8,3,6.8,6.7c0,3.7-3,6.7-6.8,6.7
	C68.3,109.9,65.3,106.9,65.3,103.2z M68.6,103.2c0,1.9,1.6,3.5,3.5,3.5c1.9,0,3.5-1.6,3.5-3.5c0-1.9-1.6-3.5-3.5-3.5
	C70.1,99.7,68.6,101.3,68.6,103.2z M39.4,144.7h-2.8v-14.9c0-0.9-0.7-1.6-1.6-1.6l-9.9,0.1v-11.8l12,3.7c0.9,0.3,1.8-0.2,2.1-1
	c0.3-0.8-0.2-1.8-1-2l-13.6-4.5c-0.1-0.1-0.3-0.1-0.4-0.1c-0.1,0-0.2,0-0.3,0c-0.3,0-0.5,0.1-0.7,0.3c-0.3,0.2-0.5,0.5-0.6,0.8
	c-0.1,0.2-0.1,0.4-0.1,0.6v15.6c0,0,0,0.1,0,0.1c0,0,0,0,0,0v0c0,0,0,0,0,0v0c0,0,0,0,0,0v0c0,0,0,0,0,0c0,0,0,0,0,0c0,0,0,0,0,0
	c0,0,0,0,0,0c0,0,0,0,0,0c0,0,0,0,0,0c0,0,0,0,0,0v0c0,0,0,0,0,0v0c0,0,0,0,0,0c0,0,0,0,0,0c0,0,0,0,0,0v0c0,0,0,0,0,0c0,0,0,0,0,0
	c0,0,0,0,0,0c0,0,0,0,0,0c0,0,0,0,0,0c0,0,0,0,0,0c0,0,0,0,0,0c0,0,0,0,0,0c0,0,0,0,0,0c0,0,0,0,0,0c0,0,0,0,0,0c0,0,0,0,0,0
	c0,0,0,0,0,0c0,0,0,0,0,0c0,0,0,0,0,0c0,0,0,0,0,0c0,0,0,0,0,0c0,0,0,0,0,0c0,0,0,0,0,0c0,0,0,0,0,0c0,0,0,0,0,0c0,0,0,0,0,0
	c0,0,0,0,0,0c0,0,0,0,0,0c0,0,0,0,0,0c0,0,0,0,0,0c0,0,0,0,0,0c0,0,0,0,0,0c0,0,0,0,0,0c0,0,0,0,0,0c0,0,0,0,0,0c0,0,0,0,0,0
	c0,0,0,0,0,0c0,0,0,0,0,0c0,0,0,0,0,0v0c0,0,0,0,0,0c0,0,0,0,0,0c0,0,0,0,0,0v0c0,0,0,0,0,0c0,0,0,0,0,0c0,0,0,0,0,0c0,0,0,0,0,0
	c0,0,0,0,0,0c0,0,0,0,0,0c0,0,0,0,0,0v0c0,0,0,0,0,0v0c0,0,0,0,0,0c0,0,0,0,0,0l0,0c0.1,0.7,0.8,1.3,1.6,1.3l9-0.2l0.4,15.1
	c0,0,0,0,0,0c0,0.4,0.1,0.7,0.3,1c0.3,0.4,0.8,0.6,1.3,0.6c0,0,0,0,0,0h4.4c0.9,0,1.6-0.7,1.6-1.6C41,145.5,40.3,144.7,39.4,144.7z
	 M18.6,103.2c0-3.7,3-6.7,6.8-6.7c3.7,0,6.8,3,6.8,6.7c0,3.7-3,6.7-6.8,6.7C21.7,109.9,18.6,106.9,18.6,103.2z M21.9,103.2
	c0,1.9,1.6,3.5,3.5,3.5c1.9,0,3.5-1.6,3.5-3.5c0-1.9-1.6-3.5-3.5-3.5C23.5,99.7,21.9,101.3,21.9,103.2z M81.3,135.6v-16.3
	c0-0.9-0.7-1.6-1.6-1.6c-0.9,0-1.3,0.9-1.3,1.8v14.8h-9.8c-0.9,0-1,1.1-1,2v9.8c0,0.9,0.5,2,1.4,2c0.9,0,1.5-0.1,1.5-1v-9.8h7.9v8.9
	c0,0.9,0.4,2,1.3,2c0.9,0,1.6-0.7,1.6-1.6V135.6C81.3,135.6,81.3,135.6,81.3,135.6z M64.5,131.2l9,0.2c0.3,0,0.5-0.1,0.7-0.2v0
	c0,0,0,0,0,0l0,0c0,0,0,0,0,0l0,0l0,0l0,0c0,0,0,0,0,0c0,0,0,0,0,0c0,0,0,0,0,0l0,0l0,0c0,0,0,0,0,0c0,0,0,0,0,0l0,0c0,0,0,0,0,0
	l0,0c0,0,0,0,0,0l0,0c0,0,0,0,0,0h0c0,0,0,0,0,0c0,0,0,0,0,0c0,0,0,0,0,0c0,0,0,0,0,0l0,0l0,0l0,0c0,0,0,0,0,0c0,0,0,0,0,0s0,0,0,0
	c0,0,0,0,0,0c0,0,0,0,0,0c0,0,0,0,0,0c0,0,0,0,0,0c0,0,0,0,0,0c0,0,0,0,0,0l0,0c0,0,0,0,0,0c0,0,0,0,0,0s0,0,0,0v0c0,0,0,0,0,0l0,0
	c0,0,0,0,0,0c0,0,0,0,0,0c0,0,0,0,0,0h0c0,0,0,0,0,0v0c0,0,0,0,0,0l0,0c0,0,0,0,0,0l0,0c0,0,0,0,0,0l0,0c0,0,0,0,0,0h0c0,0,0,0,0,0
	l0,0c0,0,0,0,0,0l0,0c0,0,0,0,0,0l0,0c0,0,0,0,0,0l0,0c0,0,0.1-0.1,0.1-0.1l0,0c0,0,0,0,0,0l0,0c0,0,0,0,0,0l0,0c0,0,0,0,0,0l0,0
	c0,0,0,0,0,0l0,0c0,0,0,0,0,0h0l0,0v0c0,0,0,0,0,0c0,0,0,0,0,0c0,0,0,0,0,0l0,0c0,0,0,0,0,0h0c0,0,0,0,0,0l0,0c0,0,0,0,0,0
	c0,0,0,0,0,0c0,0,0,0,0,0v0l0,0l0,0c0,0,0,0,0,0l0,0c0,0,0,0,0,0v0c0,0,0,0,0,0v0c0,0,0,0,0,0l0,0c0,0,0,0,0,0c0,0,0,0,0,0l0,0
	c0,0,0,0,0,0c0,0,0,0,0,0v0c0,0,0,0,0,0c0,0,0,0,0,0c0,0,0,0,0,0l0,0c0,0,0,0,0,0c0,0,0,0,0,0c0,0,0,0,0,0c0,0,0,0,0,0c0,0,0,0,0,0
	l0,0c0,0,0,0,0,0c0,0,0,0,0,0c0,0,0,0,0,0c0,0,0,0,0,0c0,0,0,0,0,0c0,0,0,0,0,0c0,0,0,0,0,0c0,0,0,0,0,0l0,0c0,0,0,0,0,0
	c0,0,0,0,0,0c0,0,0,0,0,0l0,0c0,0,0,0,0,0c0,0,0,0,0,0c0,0,0,0,0,0s0,0,0,0l0,0l0,0c0,0,0,0,0,0c0,0,0,0,0,0c0,0,0,0,0,0v0
	c0,0,0,0,0,0c0,0,0,0,0,0c0,0,0,0,0,0c0,0,0,0,0,0c0,0,0,0,0,0c0,0,0,0,0,0c0,0,0,0,0,0l0,0c0,0,0,0,0,0v0c0,0,0,0,0,0l0,0
	c0,0,0,0,0,0c0,0,0,0,0,0s0,0,0,0l0,0c0,0,0,0,0,0v0c0,0,0,0,0,0l0,0c0,0,0,0,0,0l0,0c0,0,0,0,0,0c0,0,0,0,0,0c0,0,0,0,0,0l0,0
	c0,0,0,0,0,0c0.1-0.1,0.2-0.2,0.2-0.3v0c0,0,0,0,0,0l0,0c0,0,0,0,0,0v0c0,0,0,0,0,0v0c0,0,0,0,0,0c0,0,0,0,0,0c0,0,0,0,0,0
	c0,0,0,0,0,0c0,0,0,0,0,0v0c0,0,0,0,0,0c0,0,0,0,0,0c0,0,0,0,0,0l0,0c0,0,0,0,0,0c0,0,0,0,0,0c0,0,0,0,0,0c0,0,0,0,0,0c0,0,0,0,0,0
	c0,0,0,0,0,0c0,0,0,0,0,0c0,0,0,0,0,0c0,0,0,0,0,0c0,0,0,0,0,0c0,0,0,0,0,0c0,0,0,0,0,0l0,0c0,0,0,0,0,0c0,0,0,0,0,0c0,0,0,0,0,0v0
	c0,0,0,0,0,0v0c0,0,0,0,0,0l0,0c0,0,0,0,0,0c0,0,0,0,0,0c0,0,0,0,0,0l0,0c0,0,0,0,0,0v0c0.1-0.2,0.2-0.5,0.2-0.7v-15.6
	c0-0.1,0-0.2,0-0.3c0-0.2-0.1-0.4-0.2-0.6c-0.1-0.2-0.2-0.3-0.3-0.4c-0.2-0.2-0.5-0.3-0.9-0.4c-0.1,0-0.2,0-0.3,0
	c-0.1,0-0.3,0-0.4,0.1l-13.6,4.5c-0.9,0.3-1.3,1.2-1,2c0.3,0.8,1.2,1.3,2.1,1l12-3.7v11.8l-9.9-0.1c-0.9,0-1.6,0.7-1.6,1.6v14.9
	h-2.8c-0.9,0-1.6,0.7-1.6,1.6c0,0.9,0.7,1.6,1.6,1.6h4.4c0,0,0,0,0,0c0.5,0,1-0.3,1.3-0.6c0.2-0.3,0.3-0.6,0.3-1c0,0,0,0,0,0v-14.9
	L64.5,131.2z M29.1,134.2h-9.8v-14.8c0-0.9-0.4-1.8-1.3-1.8c-0.9,0-1.6,0.7-1.6,1.6v16.4c0,0,0,0,0,0v10.8c0,0.9,0.7,1.6,1.6,1.6
	c0.9,0,1.3-1.1,1.3-2v-8.9h7.9v8.9c0,0.9,0.7,2,1.5,2c0.9,0,1.4-1.1,1.4-2v-9.8C30,135.3,30,134.2,29.1,134.2z M52.4,144.7l-1.7,0.3
	v-19.7h9.8c0.9,0,1.4-0.6,1.4-1.5c0-0.9-0.7-1.6-1.6-1.6H48.8c0,0,0,0-0.1,0H37.1c-0.9,0-1.6,0.7-1.6,1.6c0,0.9,0.5,1.5,1.4,1.5h9.8
	V145l-1.7-0.3c-0.9,0-1.6,0.7-1.6,1.6s0.7,1.6,1.6,1.6h7.2c0.9,0,1.6-0.7,1.6-1.6S53.3,144.7,52.4,144.7z"/>
<g>
	<path class="st1" d="M114.3,127.4h-1.5v-8.3l0.2-3.5h0l-4.3,11.8h-1.4l-4.3-11.8h0l0.2,3.5v8.3h-1.5v-13.2h2.5l2.9,8l1,3.3h0l1-3.3
		l2.9-8h2.5V127.4z"/>
	<path class="st1" d="M128.2,125.9v1.5h-9.6v-13.2h9.3v1.5h-7.7v4.3h6v1.5h-6v4.4H128.2z"/>
	<path class="st1" d="M141,125.9v1.5h-9.6v-13.2h9.3v1.5H133v4.3h6v1.5h-6v4.4H141z"/>
	<path class="st1" d="M153.4,115.7h-4.6v11.7h-1.6v-11.7h-4.6v-1.5h10.8V115.7z"/>
	<path class="st1" d="M157.8,127.4h-1.6v-13.2h1.6V127.4z"/>
	<path class="st1" d="M172.5,127.4h-2l-5.5-8.8l-1.4-2.6h0l0.1,2.1v9.3h-1.5v-13.2h2l5.5,8.8l1.4,2.6h0l-0.1-2.1v-9.3h1.5V127.4z"/>
	<path class="st1" d="M187.6,120.7v6.7h-1.2l-0.1-1.8c-0.8,1.2-2.1,2-4.2,2c-3.8,0-6.1-2.6-6.1-6.8c0-4.2,2.5-6.8,6.2-6.8
		c2.6,0,4.3,1,5.3,3l-1.5,0.8c-0.6-1.5-2-2.3-3.8-2.3c-2.7,0-4.5,2-4.5,5.3c0,3.3,1.6,5.3,4.5,5.3c2.2,0,3.9-1.1,3.9-3.4v-0.5h-4.2
		v-1.5H187.6z"/>
</g>
<text transform="matrix(1 0 0 1 99.4058 96.3607)" class="st1 st2 st3"></text>
<path class="st4" d="M43.3,26.6h10.8c0.8,0,1.4,0.6,1.4,1.4c0,0.8-0.6,1.4-1.4,1.4H43.3c-0.8,0-1.4-0.6-1.4-1.4
	C42,27.2,42.6,26.6,43.3,26.6 M22.4,26.6h10.8c0.8,0,1.4,0.6,1.4,1.4c0,0.8-0.6,1.4-1.4,1.4H22.4c-0.8,0-1.4-0.6-1.4-1.4
	C21,27.2,21.7,26.6,22.4,26.6z M65,26.6h10.8c0.8,0,1.4,0.6,1.4,1.4c0,0.8-0.6,1.4-1.4,1.4H65c-0.8,0-1.4-0.6-1.4-1.4
	C63.6,27.2,64.2,26.6,65,26.6z M86.6,26.8c0.1,0,0.1,0,0.2,0c3.8,0.5,7.5,2,10.6,4.2c0.6,0.4,0.8,1.3,0.3,1.9
	c-0.4,0.6-1.3,0.8-1.9,0.3c-2.8-2-6-3.3-9.3-3.7c-0.8-0.1-1.3-0.8-1.2-1.6C85.4,27.3,86,26.8,86.6,26.8z M103.6,38.9
	c0.5,0,1,0.3,1.2,0.8c1.7,3.3,2.5,6.8,2.5,10.5v0.5c0,0.8-0.6,1.4-1.4,1.4c-0.8,0-1.4-0.6-1.4-1.4v-0.5c0-3.3-0.7-6.4-2.2-9.3
	c-0.3-0.7-0.1-1.5,0.6-1.9C103.2,39,103.4,38.9,103.6,38.9z M105.9,60.2c0.8,0,1.4,0.6,1.4,1.4v10.8c0,0.8-0.6,1.4-1.4,1.4
	c-0.8,0-1.4-0.6-1.4-1.4V61.6C104.5,60.8,105.2,60.2,105.9,60.2z"/>
<path class="st4" d="M112,208.5h-10.8c-0.8,0-1.4-0.6-1.4-1.4c0-0.8,0.6-1.4,1.4-1.4H112c0.8,0,1.4,0.6,1.4,1.4
	C113.4,207.8,112.8,208.5,112,208.5 M132.9,208.5h-10.8c-0.8,0-1.4-0.6-1.4-1.4c0-0.8,0.6-1.4,1.4-1.4h10.8c0.8,0,1.4,0.6,1.4,1.4
	C134.3,207.8,133.7,208.5,132.9,208.5z M153.9,208.5h-10.8c-0.8,0-1.4-0.6-1.4-1.4c0-0.8,0.6-1.4,1.4-1.4h10.8
	c0.8,0,1.4,0.6,1.4,1.4C155.3,207.8,154.7,208.5,153.9,208.5z M90.3,208.5H79.5c-0.8,0-1.4-0.6-1.4-1.4c0-0.8,0.6-1.4,1.4-1.4h10.8
	c0.8,0,1.4,0.6,1.4,1.4C91.7,207.8,91.1,208.5,90.3,208.5z M68.7,208.3c-0.1,0-0.1,0-0.2,0c-3.8-0.5-7.5-2-10.6-4.2
	c-0.6-0.4-0.8-1.3-0.3-1.9c0.4-0.6,1.3-0.8,1.9-0.3c2.8,2,6,3.3,9.3,3.7c0.8,0.1,1.3,0.8,1.2,1.6C70,207.8,69.4,208.3,68.7,208.3z
	 M51.8,196.2c-0.5,0-1-0.3-1.2-0.8c-1.7-3.3-2.5-6.8-2.5-10.5v-0.5c0-0.8,0.6-1.4,1.4-1.4c0.8,0,1.4,0.6,1.4,1.4v0.5
	c0,3.3,0.7,6.4,2.2,9.3c0.3,0.7,0.1,1.5-0.6,1.9C52.2,196.1,52,196.2,51.8,196.2z M49.4,174.9c-0.8,0-1.4-0.6-1.4-1.4v-10.8
	c0-0.8,0.6-1.4,1.4-1.4c0.8,0,1.4,0.6,1.4,1.4v10.8C50.8,174.2,50.2,174.9,49.4,174.9z"/>
<g>
	<path class="st5" d="M99.3,140.9c0-0.9,0.5-1.9,1.5-2.4l0.6,0.5c-0.8,0.3-1.2,0.8-1.4,1.4l0.1,0c0.1-0.1,0.2-0.1,0.4-0.1
		c0.3,0,0.8,0.3,0.8,0.9c0,0.5-0.4,0.9-0.9,0.9C99.7,142.2,99.3,141.7,99.3,140.9z M101.9,140.9c0-0.9,0.5-1.9,1.5-2.4l0.6,0.5
		c-0.8,0.3-1.2,0.8-1.4,1.4l0.1,0c0.1-0.1,0.2-0.1,0.4-0.1c0.3,0,0.8,0.3,0.8,0.9c0,0.5-0.4,0.9-0.9,0.9
		C102.3,142.2,101.9,141.7,101.9,140.9z"/>
	<path class="st5" d="M110,145.7h-4.2l-1,2.6h-1.2l3.6-9.2h1.3l3.6,9.2H111L110,145.7z M109.6,144.7l-1.2-3.3l-0.4-1.3h0l-0.4,1.2
		l-1.3,3.3H109.6z"/>
	<path class="st5" d="M117.9,141.3l-0.2,1.1c-0.2-0.1-0.5-0.2-0.9-0.2c-0.8,0-1.8,0.7-1.8,2.3v3.8h-1.1v-7h0.9l0.2,1.1
		c0.4-0.9,1.1-1.3,2.2-1.3C117.4,141.2,117.7,141.2,117.9,141.3z"/>
	<path class="st5" d="M123.6,141.3l-0.2,1.1c-0.2-0.1-0.5-0.2-0.9-0.2c-0.8,0-1.8,0.7-1.8,2.3v3.8h-1.1v-7h0.9l0.2,1.1
		c0.4-0.9,1.1-1.3,2.2-1.3C123.1,141.2,123.4,141.2,123.6,141.3z"/>
	<path class="st5" d="M131.4,147.4l-0.1,0.9c-0.2,0.1-0.5,0.1-0.8,0.1c-0.7,0-1.1-0.3-1.3-1c-0.4,0.7-1.4,1-2.3,1
		c-1.3,0-2.4-0.6-2.4-1.9c0-1.1,0.9-1.9,2.7-2.2l1.9-0.3v-0.4c0-0.9-0.6-1.5-1.6-1.5c-0.9,0-1.6,0.4-2,1.3l-0.8-0.6
		c0.4-1,1.5-1.7,2.8-1.7c1.6,0,2.8,0.8,2.8,2.4v3.4c0,0.3,0.1,0.5,0.5,0.5C131,147.5,131.2,147.5,131.4,147.4z M129.1,145.9v-1
		l-1.6,0.3c-1.2,0.2-1.9,0.6-1.9,1.3c0,0.6,0.5,0.9,1.3,0.9C128.1,147.5,129.1,146.9,129.1,145.9z"/>
	<path class="st5" d="M139.1,143.8v4.5H138v-4.1c0-1.6-0.8-2.1-1.7-2.1c-1,0-2.2,0.6-2.2,2.4v3.7H133v-7h1l0.1,1.1
		c0.5-0.9,1.4-1.2,2.4-1.2C137.9,141.2,139.1,142,139.1,143.8z"/>
	<path class="st5" d="M147.7,149.1c0,1.4-1.6,2.2-3.5,2.2c-2.2,0-3.2-0.8-3.2-1.8c0-0.6,0.5-1.1,1.2-1.4c-0.5-0.3-1-0.7-1-1.3
		c0-0.7,0.4-1.2,1-1.4c-0.7-0.4-1-1.1-1-1.9c0-1.4,1.2-2.4,2.9-2.4c0.5,0,1,0.1,1.4,0.3c0.3-1,0.9-1.4,2-1.4l0.3,1
		c-0.9,0-1.5,0.3-1.7,0.8c0.6,0.4,0.9,1,0.9,1.8c0,1.4-1.2,2.4-2.9,2.4c-0.4,0-0.8,0-1.1-0.1c-0.6,0.1-0.8,0.4-0.8,0.9
		c0,0.5,0.4,0.8,0.9,0.8h2.3C146.9,147.4,147.7,148.1,147.7,149.1z M146.6,149.2c0-0.5-0.3-0.8-1.4-0.8h-1.9c-0.9,0-1.3,0.3-1.3,0.9
		c0,0.7,0.8,1.1,2.3,1.1C145.8,150.4,146.6,149.8,146.6,149.2z M142.5,143.5c0,0.9,0.7,1.5,1.7,1.5s1.7-0.6,1.7-1.5
		c0-0.9-0.7-1.5-1.7-1.5S142.5,142.7,142.5,143.5z"/>
	<path class="st5" d="M155.3,145.2H150c0.1,1.4,1,2.2,2.3,2.2c1,0,1.7-0.4,2-1l0.9,0.5c-0.5,1-1.4,1.5-2.9,1.5
		c-2.1,0-3.4-1.4-3.4-3.6c0-2.3,1.2-3.6,3.3-3.6c2,0,3.1,1.5,3.1,3.3C155.3,144.8,155.3,145,155.3,145.2z M150,144.2h4.2
		c-0.2-1.3-0.9-2.1-2.1-2.1C150.9,142.1,150.2,142.9,150,144.2z"/>
	<path class="st5" d="M168.5,147.4l-0.1,0.9c-0.2,0.1-0.5,0.1-0.8,0.1c-0.7,0-1.1-0.3-1.3-1c-0.4,0.7-1.4,1-2.3,1
		c-1.3,0-2.4-0.6-2.4-1.9c0-1.1,0.9-1.9,2.7-2.2l1.9-0.3v-0.4c0-0.9-0.6-1.5-1.6-1.5c-0.9,0-1.6,0.4-2,1.3l-0.8-0.6
		c0.4-1,1.5-1.7,2.8-1.7c1.6,0,2.8,0.8,2.8,2.4v3.4c0,0.3,0.1,0.5,0.5,0.5C168.2,147.5,168.4,147.5,168.5,147.4z M166.3,145.9v-1
		l-1.6,0.3c-1.2,0.2-1.9,0.6-1.9,1.3c0,0.6,0.5,0.9,1.3,0.9C165.3,147.5,166.3,146.9,166.3,145.9z"/>
	<path class="st5" d="M185.4,143.8v4.5h-1.1v-4.4c0-1.3-0.7-1.8-1.7-1.8c-1.1,0-2.1,0.8-2.1,2.3v3.8h-1.1v-4.4
		c0-1.3-0.7-1.8-1.7-1.8c-0.9,0-2.1,0.7-2.1,2.4v3.7h-1.1v-7h1l0.1,1.1c0.5-0.9,1.4-1.2,2.2-1.2c1,0,1.9,0.4,2.4,1.4
		c0.4-1,1.6-1.4,2.4-1.4C184.1,141.2,185.4,142,185.4,143.8z"/>
	<path class="st5" d="M193.9,145.2h-5.3c0.1,1.4,1,2.2,2.3,2.2c1,0,1.7-0.4,2-1l0.9,0.5c-0.5,1-1.4,1.5-2.9,1.5
		c-2.1,0-3.4-1.4-3.4-3.6c0-2.3,1.2-3.6,3.3-3.6c2,0,3.1,1.5,3.1,3.3C194,144.8,193.9,145,193.9,145.2z M188.6,144.2h4.2
		c-0.2-1.3-0.9-2.1-2.1-2.1C189.6,142.1,188.8,142.9,188.6,144.2z"/>
	<path class="st5" d="M202,145.2h-5.3c0.1,1.4,1,2.2,2.3,2.2c1,0,1.7-0.4,2-1l0.9,0.5c-0.5,1-1.4,1.5-2.9,1.5
		c-2.1,0-3.4-1.4-3.4-3.6c0-2.3,1.2-3.6,3.3-3.6c2,0,3.1,1.5,3.1,3.3C202.1,144.8,202.1,145,202,145.2z M196.8,144.2h4.2
		c-0.2-1.3-0.9-2.1-2.1-2.1C197.7,142.1,196.9,142.9,196.8,144.2z"/>
	<path class="st5" d="M208.3,147.8c-0.4,0.4-1,0.6-1.8,0.6c-1,0-1.9-0.5-1.9-1.9v-4.3h-1.4v-1h1.4v-1.7l1.1-0.3v2h2.6v1h-2.6v4.1
		c0,0.7,0.4,1,1,1c0.5,0,0.9-0.2,1.2-0.5L208.3,147.8z"/>
	<path class="st5" d="M209.6,139.1c0-0.5,0.3-0.8,0.8-0.8c0.5,0,0.8,0.3,0.8,0.8s-0.3,0.8-0.8,0.8
		C209.9,140,209.6,139.6,209.6,139.1z M211,148.3h-1.1v-7h1.1V148.3z"/>
	<path class="st5" d="M219.7,143.8v4.5h-1.1v-4.1c0-1.6-0.8-2.1-1.7-2.1c-1,0-2.2,0.6-2.2,2.4v3.7h-1.1v-7h1l0.1,1.1
		c0.5-0.9,1.4-1.2,2.4-1.2C218.5,141.2,219.7,142,219.7,143.8z"/>
	<path class="st5" d="M228.3,149.1c0,1.4-1.6,2.2-3.5,2.2c-2.2,0-3.2-0.8-3.2-1.8c0-0.6,0.5-1.1,1.2-1.4c-0.5-0.3-1-0.7-1-1.3
		c0-0.7,0.4-1.2,1-1.4c-0.7-0.4-1-1.1-1-1.9c0-1.4,1.2-2.4,2.9-2.4c0.5,0,1,0.1,1.4,0.3c0.3-1,0.9-1.4,2-1.4l0.3,1
		c-0.9,0-1.5,0.3-1.7,0.8c0.6,0.4,0.9,1,0.9,1.8c0,1.4-1.2,2.4-2.9,2.4c-0.4,0-0.8,0-1.1-0.1c-0.6,0.1-0.8,0.4-0.8,0.9
		c0,0.5,0.4,0.8,0.9,0.8h2.3C227.5,147.4,228.3,148.1,228.3,149.1z M227.2,149.2c0-0.5-0.3-0.8-1.4-0.8H224c-0.9,0-1.3,0.3-1.3,0.9
		c0,0.7,0.8,1.1,2.3,1.1C226.4,150.4,227.2,149.8,227.2,149.2z M223.1,143.5c0,0.9,0.7,1.5,1.7,1.5s1.7-0.6,1.7-1.5
		c0-0.9-0.7-1.5-1.7-1.5S223.1,142.7,223.1,143.5z"/>
	<path class="st5" d="M244.6,141.3l-2.4,7H241l-2-5.6l-1.9,5.6h-1.1l-2.4-7h1.2l1.8,5.7l1.9-5.7h1.1l1.9,5.7l1.8-5.7H244.6z"/>
	<path class="st5" d="M246.1,139.1c0-0.5,0.3-0.8,0.8-0.8c0.5,0,0.8,0.3,0.8,0.8s-0.3,0.8-0.8,0.8
		C246.5,140,246.1,139.6,246.1,139.1z M247.5,148.3h-1.1v-7h1.1V148.3z"/>
	<path class="st5" d="M254.4,147.8c-0.4,0.4-1,0.6-1.8,0.6c-1,0-1.9-0.5-1.9-1.9v-4.3h-1.4v-1h1.4v-1.7l1.1-0.3v2h2.6v1h-2.6v4.1
		c0,0.7,0.4,1,1,1c0.5,0,0.9-0.2,1.2-0.5L254.4,147.8z"/>
	<path class="st5" d="M262.1,143.8v4.5H261v-4.1c0-1.6-0.8-2.1-1.7-2.1c-1,0-2.2,0.7-2.2,2.5v3.7H256v-10.2h1.1v4.3
		c0.5-0.8,1.3-1.2,2.3-1.2C260.9,141.2,262.1,142,262.1,143.8z"/>
	<path class="st5" d="M275.5,141.3v7h-1l-0.1-1.1c-0.5,0.8-1.4,1.2-2.5,1.2c-1.4,0-2.6-0.7-2.6-2.6v-4.6h1.1v4.3
		c0,1.4,0.6,1.9,1.7,1.9c1.2,0,2.2-0.7,2.2-2.4v-3.8H275.5z"/>
	<path class="st5" d="M277.5,146.9l0.9-0.6c0.3,0.9,1.2,1.2,2.2,1.2c1.1,0,1.7-0.5,1.7-1c0-0.5-0.4-0.8-1.8-1.1
		c-2-0.4-2.7-0.9-2.7-2.1c0-1.1,1.1-2.1,2.8-2.1c1.5,0,2.4,0.5,2.8,1.7l-1,0.6c-0.3-0.9-0.9-1.3-1.8-1.3c-0.9,0-1.6,0.5-1.6,1
		c0,0.6,0.5,0.9,1.9,1.1c2,0.3,2.7,0.9,2.7,2.1c0,1.2-1.1,2.1-2.9,2.1C279.2,148.4,278,147.9,277.5,146.9z"/>
	<path class="st5" d="M296.5,147.4l-0.1,0.9c-0.2,0.1-0.5,0.1-0.8,0.1c-0.7,0-1.1-0.3-1.3-1c-0.4,0.7-1.4,1-2.3,1
		c-1.3,0-2.4-0.6-2.4-1.9c0-1.1,0.9-1.9,2.7-2.2l1.9-0.3v-0.4c0-0.9-0.6-1.5-1.6-1.5c-0.9,0-1.6,0.4-2,1.3l-0.8-0.6
		c0.4-1,1.5-1.7,2.8-1.7c1.6,0,2.8,0.8,2.8,2.4v3.4c0,0.3,0.1,0.5,0.5,0.5C296.2,147.5,296.4,147.5,296.5,147.4z M294.3,145.9v-1
		l-1.6,0.3c-1.2,0.2-1.9,0.6-1.9,1.3c0,0.6,0.5,0.9,1.3,0.9C293.3,147.5,294.3,146.9,294.3,145.9z"/>
	<path class="st5" d="M302.2,147.8c-0.4,0.4-1,0.6-1.8,0.6c-1,0-1.9-0.5-1.9-1.9v-4.3H297v-1h1.4v-1.7l1.1-0.3v2h2.6v1h-2.6v4.1
		c0,0.7,0.4,1,1,1c0.5,0,0.9-0.2,1.2-0.5L302.2,147.8z"/>
	<path class="st5" d="M310.8,149.5c-0.5,1.4-1.2,1.8-2.2,1.8c-0.7,0-1.1-0.2-1.5-0.6l0.4-1c0.3,0.4,0.7,0.6,1.1,0.6
		c0.5,0,0.9-0.2,1.3-1.1l0.4-0.9l-2.9-7h1.3l1.8,4.6l0.4,1.2l0.5-1.4l1.6-4.4h1.2L310.8,149.5z"/>
	<path class="st5" d="M322,144.8c0,2.3-1.3,3.6-3.4,3.6c-2.1,0-3.4-1.4-3.4-3.6c0-2.3,1.3-3.6,3.4-3.6
		C320.7,141.2,322,142.5,322,144.8z M316.4,144.8c0,1.7,0.9,2.7,2.3,2.7c1.4,0,2.3-1,2.3-2.7s-0.9-2.7-2.3-2.7
		C317.2,142.1,316.4,143.1,316.4,144.8z"/>
	<path class="st5" d="M330.2,141.3v7h-1l-0.1-1.1c-0.5,0.8-1.4,1.2-2.5,1.2c-1.4,0-2.6-0.7-2.6-2.6v-4.6h1.1v4.3
		c0,1.4,0.6,1.9,1.7,1.9c1.2,0,2.2-0.7,2.2-2.4v-3.8H330.2z"/>
	<path class="st5" d="M343.5,143l-1.1,0.5c-0.3-0.9-0.9-1.4-1.9-1.4c-1.4,0-2.2,1-2.2,2.7s0.8,2.7,2.2,2.7c1.1,0,1.8-0.5,2-1.4
		l1,0.4c-0.5,1.3-1.5,2.1-3,2.1c-2.1,0-3.4-1.4-3.4-3.6c0-2.3,1.3-3.6,3.4-3.6C342,141.2,343,141.9,343.5,143z"/>
	<path class="st5" d="M351.9,144.8c0,2.3-1.3,3.6-3.4,3.6c-2.1,0-3.4-1.4-3.4-3.6c0-2.3,1.3-3.6,3.4-3.6
		C350.6,141.2,351.9,142.5,351.9,144.8z M346.2,144.8c0,1.7,0.9,2.7,2.3,2.7c1.4,0,2.3-1,2.3-2.7s-0.9-2.7-2.3-2.7
		C347.1,142.1,346.2,143.1,346.2,144.8z"/>
	<path class="st5" d="M360.2,143.8v4.5H359v-4.1c0-1.6-0.8-2.1-1.7-2.1c-1,0-2.2,0.6-2.2,2.4v3.7H354v-7h1l0.1,1.1
		c0.5-0.9,1.4-1.2,2.4-1.2C358.9,141.2,360.2,142,360.2,143.8z"/>
	<path class="st5" d="M368.3,141.3l-2.9,7h-1.1l-2.9-7h1.3l2.2,5.9l2.3-5.9H368.3z"/>
	<path class="st5" d="M375.7,145.2h-5.3c0.1,1.4,1,2.2,2.3,2.2c1,0,1.7-0.4,2-1l0.9,0.5c-0.5,1-1.4,1.5-2.9,1.5
		c-2.1,0-3.4-1.4-3.4-3.6c0-2.3,1.2-3.6,3.3-3.6c2,0,3.1,1.5,3.1,3.3C375.8,144.8,375.8,145,375.7,145.2z M370.5,144.2h4.2
		c-0.2-1.3-0.9-2.1-2.1-2.1C371.4,142.1,370.6,142.9,370.5,144.2z"/>
	<path class="st5" d="M384.1,143.8v4.5h-1.1v-4.1c0-1.6-0.8-2.1-1.7-2.1c-1,0-2.2,0.6-2.2,2.4v3.7h-1.1v-7h1l0.1,1.1
		c0.5-0.9,1.4-1.2,2.4-1.2C382.8,141.2,384.1,142,384.1,143.8z"/>
	<path class="st5" d="M386.3,139.1c0-0.5,0.3-0.8,0.8-0.8c0.5,0,0.8,0.3,0.8,0.8s-0.3,0.8-0.8,0.8
		C386.6,140,386.3,139.6,386.3,139.1z M387.7,148.3h-1.1v-7h1.1V148.3z"/>
	<path class="st5" d="M396.3,145.2H391c0.1,1.4,1,2.2,2.3,2.2c1,0,1.7-0.4,2-1l0.9,0.5c-0.5,1-1.4,1.5-2.9,1.5
		c-2.1,0-3.4-1.4-3.4-3.6c0-2.3,1.2-3.6,3.3-3.6c2,0,3.1,1.5,3.1,3.3C396.3,144.8,396.3,145,396.3,145.2z M391,144.2h4.2
		c-0.2-1.3-0.9-2.1-2.1-2.1C391.9,142.1,391.2,142.9,391,144.2z"/>
	<path class="st5" d="M404.6,143.8v4.5h-1.1v-4.1c0-1.6-0.8-2.1-1.7-2.1c-1,0-2.2,0.6-2.2,2.4v3.7h-1.1v-7h1l0.1,1.1
		c0.5-0.9,1.4-1.2,2.4-1.2C403.4,141.2,404.6,142,404.6,143.8z"/>
	<path class="st5" d="M413,143l-1.1,0.5c-0.3-0.9-0.9-1.4-1.9-1.4c-1.4,0-2.2,1-2.2,2.7s0.8,2.7,2.2,2.7c1.1,0,1.8-0.5,2-1.4l1,0.4
		c-0.5,1.3-1.5,2.1-3,2.1c-2.1,0-3.4-1.4-3.4-3.6c0-2.3,1.3-3.6,3.4-3.6C411.5,141.2,412.5,141.9,413,143z"/>
	<path class="st5" d="M421,145.2h-5.3c0.1,1.4,1,2.2,2.3,2.2c1,0,1.7-0.4,2-1l0.9,0.5c-0.5,1-1.4,1.5-2.9,1.5
		c-2.1,0-3.4-1.4-3.4-3.6c0-2.3,1.2-3.6,3.3-3.6c2,0,3.1,1.5,3.1,3.3C421,144.8,421,145,421,145.2z M415.7,144.2h4.2
		c-0.2-1.3-0.9-2.1-2.1-2.1C416.6,142.1,415.9,142.9,415.7,144.2z"/>
	<path class="st5" d="M424.2,139.9c0,0.9-0.5,1.9-1.5,2.4l-0.6-0.5c0.8-0.3,1.2-0.8,1.4-1.4l-0.1,0c-0.1,0.1-0.2,0.1-0.4,0.1
		c-0.3,0-0.8-0.3-0.8-0.9c0-0.5,0.4-0.9,0.9-0.9C423.8,138.5,424.2,139.1,424.2,139.9z M426.8,139.9c0,0.9-0.5,1.9-1.5,2.4l-0.6-0.5
		c0.8-0.3,1.2-0.8,1.4-1.4l-0.1,0c-0.1,0.1-0.2,0.1-0.4,0.1c-0.3,0-0.8-0.3-0.8-0.9c0-0.5,0.4-0.9,0.9-0.9
		C426.5,138.5,426.8,139.1,426.8,139.9z"/>
	<path class="st5" d="M428.4,147.5c0,0.5-0.4,0.9-0.9,0.9c-0.5,0-0.9-0.4-0.9-0.9s0.4-0.9,0.9-0.9
		C428.1,146.6,428.4,147,428.4,147.5z"/>
</g>
<g>
	<path class="st1" d="M182.7,237.2c0,2.5-1.8,4-4.4,4h-3.1v5.2h-1.6v-13.2h4.7C180.9,233.2,182.7,234.7,182.7,237.2z M181,237.2
		c0-1.6-0.9-2.5-3-2.5h-2.8v5h2.8C180.1,239.7,181,238.8,181,237.2z"/>
	<path class="st1" d="M194.9,244.9v1.5h-9.2v-13.2h1.6v11.7H194.9z"/>
	<path class="st1" d="M205.1,242.7h-6l-1.4,3.7h-1.7l5.1-13.2h1.9l5.1,13.2h-1.7L205.1,242.7z M204.6,241.2l-1.8-4.7l-0.6-1.8h0
		l-0.6,1.8l-1.8,4.7H204.6z"/>
	<path class="st1" d="M221.3,246.4h-2l-5.5-8.8l-1.4-2.6h0l0.1,2.1v9.3h-1.5v-13.2h2l5.5,8.8l1.4,2.6h0l-0.1-2.1v-9.3h1.5V246.4z"/>
	<path class="st1" d="M236,246.4h-2l-5.5-8.8l-1.4-2.6h0l0.1,2.1v9.3h-1.5v-13.2h2l5.5,8.8l1.4,2.6h0l-0.1-2.1v-9.3h1.5V246.4z"/>
	<path class="st1" d="M241.9,246.4h-1.6v-13.2h1.6V246.4z"/>
	<path class="st1" d="M256.6,246.4h-2l-5.5-8.8l-1.4-2.6h0l0.1,2.1v9.3h-1.5v-13.2h2l5.5,8.8l1.4,2.6h0l-0.1-2.1v-9.3h1.5V246.4z"/>
	<path class="st1" d="M271.6,239.7v6.7h-1.2l-0.1-1.8c-0.8,1.2-2.1,2-4.2,2c-3.8,0-6.1-2.6-6.1-6.8c0-4.2,2.5-6.8,6.2-6.8
		c2.6,0,4.3,1,5.3,3l-1.5,0.8c-0.6-1.5-2-2.3-3.8-2.3c-2.7,0-4.5,2-4.5,5.3c0,3.3,1.6,5.3,4.5,5.3c2.2,0,3.9-1.1,3.9-3.4v-0.5H266
		v-1.5H271.6z"/>
</g>
<text transform="matrix(1 0 0 1 171.4058 215.3607)" class="st1 st2 st3"></text>
<g>
	<path class="st5" d="M178.5,266.2v1.1h-6.4v-9.2h1.1v8.2H178.5z"/>
	<path class="st5" d="M186,264.2h-5.3c0.1,1.4,1,2.2,2.3,2.2c1,0,1.7-0.4,2-1l0.9,0.5c-0.5,1-1.4,1.5-2.9,1.5
		c-2.1,0-3.4-1.4-3.4-3.6c0-2.3,1.2-3.6,3.3-3.6c2,0,3.1,1.5,3.1,3.3C186,263.8,186,264,186,264.2z M180.7,263.2h4.2
		c-0.2-1.3-0.9-2.1-2.1-2.1C181.7,261.1,180.9,261.9,180.7,263.2z"/>
	<path class="st5" d="M192.2,266.8c-0.4,0.4-1,0.6-1.8,0.6c-1,0-1.9-0.5-1.9-1.9v-4.3h-1.4v-1h1.4v-1.7l1.1-0.3v2h2.6v1h-2.6v4.1
		c0,0.7,0.4,1,1,1c0.5,0,0.9-0.2,1.2-0.5L192.2,266.8z"/>
	<path class="st5" d="M204.7,260.3v7h-1l-0.1-1.1c-0.5,0.8-1.4,1.2-2.5,1.2c-1.4,0-2.6-0.7-2.6-2.6v-4.6h1.1v4.3
		c0,1.4,0.6,1.9,1.7,1.9c1.2,0,2.2-0.7,2.2-2.4v-3.8H204.7z"/>
	<path class="st5" d="M206.6,265.9l0.9-0.6c0.3,0.9,1.2,1.2,2.2,1.2c1.1,0,1.7-0.5,1.7-1c0-0.5-0.4-0.8-1.8-1.1
		c-2-0.4-2.7-0.9-2.7-2.1c0-1.1,1.1-2.1,2.8-2.1c1.5,0,2.4,0.5,2.8,1.7l-1,0.6c-0.3-0.9-0.9-1.3-1.8-1.3c-0.9,0-1.6,0.5-1.6,1
		c0,0.6,0.5,0.9,1.9,1.1c2,0.3,2.7,0.9,2.7,2.1c0,1.2-1.1,2.1-2.9,2.1C208.4,267.4,207.2,266.9,206.6,265.9z"/>
	<path class="st5" d="M229.3,260.3l-2.4,7h-1.1l-2-5.6l-1.9,5.6h-1.1l-2.4-7h1.2l1.8,5.7l1.9-5.7h1.1l1.9,5.7l1.8-5.7H229.3z"/>
	<path class="st5" d="M237.2,263.8c0,2.3-1.3,3.6-3.4,3.6c-2.1,0-3.4-1.4-3.4-3.6c0-2.3,1.3-3.6,3.4-3.6
		C235.9,260.2,237.2,261.5,237.2,263.8z M231.6,263.8c0,1.7,0.9,2.7,2.3,2.7c1.4,0,2.3-1,2.3-2.7s-0.9-2.7-2.3-2.7
		C232.4,261.1,231.6,262.1,231.6,263.8z"/>
	<path class="st5" d="M243.5,260.3l-0.2,1.1c-0.2-0.1-0.5-0.2-0.9-0.2c-0.8,0-1.8,0.7-1.8,2.3v3.8h-1.1v-7h0.9l0.2,1.1
		c0.4-0.9,1.1-1.3,2.2-1.3C242.9,260.2,243.2,260.2,243.5,260.3z"/>
	<path class="st5" d="M247.7,263.8l-1.5,1.5v2h-1.1v-10.2h1.1v6.8l3.6-3.6h1.4l-2.7,2.7l2.9,4.3h-1.4L247.7,263.8z"/>
	<path class="st5" d="M261.5,266.8c-0.4,0.4-1,0.6-1.8,0.6c-1,0-1.9-0.5-1.9-1.9v-4.3h-1.4v-1h1.4v-1.7l1.1-0.3v2h2.6v1h-2.6v4.1
		c0,0.7,0.4,1,1,1c0.5,0,0.9-0.2,1.2-0.5L261.5,266.8z"/>
	<path class="st5" d="M269.4,263.8c0,2.3-1.3,3.6-3.4,3.6c-2.1,0-3.4-1.4-3.4-3.6c0-2.3,1.3-3.6,3.4-3.6
		C268.2,260.2,269.4,261.5,269.4,263.8z M263.8,263.8c0,1.7,0.9,2.7,2.3,2.7c1.4,0,2.3-1,2.3-2.7s-0.9-2.7-2.3-2.7
		C264.6,261.1,263.8,262.1,263.8,263.8z"/>
	<path class="st5" d="M277.6,268.1c0,1.4-1.6,2.2-3.5,2.2c-2.2,0-3.2-0.8-3.2-1.8c0-0.6,0.5-1.1,1.2-1.4c-0.5-0.3-1-0.7-1-1.3
		c0-0.7,0.4-1.2,1-1.4c-0.7-0.4-1-1.1-1-1.9c0-1.4,1.2-2.4,2.9-2.4c0.5,0,1,0.1,1.4,0.3c0.3-1,0.9-1.4,2-1.4l0.3,1
		c-0.9,0-1.5,0.3-1.7,0.8c0.6,0.4,0.9,1,0.9,1.8c0,1.4-1.2,2.4-2.9,2.4c-0.4,0-0.8,0-1.1-0.1c-0.6,0.1-0.8,0.4-0.8,0.9
		c0,0.5,0.4,0.8,0.9,0.8h2.3C276.8,266.4,277.6,267.1,277.6,268.1z M276.6,268.2c0-0.5-0.3-0.8-1.4-0.8h-1.9c-0.9,0-1.3,0.3-1.3,0.9
		c0,0.7,0.8,1.1,2.3,1.1C275.8,269.4,276.6,268.8,276.6,268.2z M272.4,262.5c0,0.9,0.7,1.5,1.7,1.5s1.7-0.6,1.7-1.5
		c0-0.9-0.7-1.5-1.7-1.5S272.4,261.7,272.4,262.5z"/>
	<path class="st5" d="M285.2,264.2H280c0.1,1.4,1,2.2,2.3,2.2c1,0,1.7-0.4,2-1l0.9,0.5c-0.5,1-1.4,1.5-2.9,1.5
		c-2.1,0-3.4-1.4-3.4-3.6c0-2.3,1.2-3.6,3.3-3.6c2,0,3.1,1.5,3.1,3.3C285.3,263.8,285.3,264,285.2,264.2z M280,263.2h4.2
		c-0.2-1.3-0.9-2.1-2.1-2.1C280.9,261.1,280.1,261.9,280,263.2z"/>
	<path class="st5" d="M291.5,266.8c-0.4,0.4-1,0.6-1.8,0.6c-1,0-1.9-0.5-1.9-1.9v-4.3h-1.4v-1h1.4v-1.7l1.1-0.3v2h2.6v1h-2.6v4.1
		c0,0.7,0.4,1,1,1c0.5,0,0.9-0.2,1.2-0.5L291.5,266.8z"/>
	<path class="st5" d="M299.2,262.8v4.5h-1.1v-4.1c0-1.6-0.8-2.1-1.7-2.1c-1,0-2.2,0.7-2.2,2.5v3.7h-1.1v-10.2h1.1v4.3
		c0.5-0.8,1.3-1.2,2.3-1.2C298,260.2,299.2,261,299.2,262.8z"/>
	<path class="st5" d="M307.7,264.2h-5.3c0.1,1.4,1,2.2,2.3,2.2c1,0,1.7-0.4,2-1l0.9,0.5c-0.5,1-1.4,1.5-2.9,1.5
		c-2.1,0-3.4-1.4-3.4-3.6c0-2.3,1.2-3.6,3.3-3.6c2,0,3.1,1.5,3.1,3.3C307.7,263.8,307.7,264,307.7,264.2z M302.4,263.2h4.2
		c-0.2-1.3-0.9-2.1-2.1-2.1C303.4,261.1,302.6,261.9,302.4,263.2z"/>
	<path class="st5" d="M313.9,260.3l-0.2,1.1c-0.2-0.1-0.5-0.2-0.9-0.2c-0.8,0-1.8,0.7-1.8,2.3v3.8h-1.1v-7h0.9l0.2,1.1
		c0.4-0.9,1.1-1.3,2.2-1.3C313.4,260.2,313.7,260.2,313.9,260.3z"/>
	<path class="st5" d="M324,266.8c-0.4,0.4-1,0.6-1.8,0.6c-1,0-1.9-0.5-1.9-1.9v-4.3h-1.4v-1h1.4v-1.7l1.1-0.3v2h2.6v1h-2.6v4.1
		c0,0.7,0.4,1,1,1c0.5,0,0.9-0.2,1.2-0.5L324,266.8z"/>
	<path class="st5" d="M332,263.8c0,2.3-1.3,3.6-3.4,3.6c-2.1,0-3.4-1.4-3.4-3.6c0-2.3,1.3-3.6,3.4-3.6
		C330.7,260.2,332,261.5,332,263.8z M326.3,263.8c0,1.7,0.9,2.7,2.3,2.7c1.4,0,2.3-1,2.3-2.7s-0.9-2.7-2.3-2.7
		C327.2,261.1,326.3,262.1,326.3,263.8z"/>
	<path class="st5" d="M344.8,262l-1.1,0.5c-0.3-0.9-0.9-1.4-1.9-1.4c-1.4,0-2.2,1-2.2,2.7s0.8,2.7,2.2,2.7c1.1,0,1.8-0.5,2-1.4
		l1,0.4c-0.5,1.3-1.5,2.1-3,2.1c-2.1,0-3.4-1.4-3.4-3.6c0-2.3,1.3-3.6,3.4-3.6C343.3,260.2,344.2,260.9,344.8,262z"/>
	<path class="st5" d="M350.9,260.3l-0.2,1.1c-0.2-0.1-0.5-0.2-0.9-0.2c-0.8,0-1.8,0.7-1.8,2.3v3.8h-1.1v-7h0.9l0.2,1.1
		c0.4-0.9,1.1-1.3,2.2-1.3C350.3,260.2,350.7,260.2,350.9,260.3z"/>
	<path class="st5" d="M358.2,264.2H353c0.1,1.4,1,2.2,2.3,2.2c1,0,1.7-0.4,2-1l0.9,0.5c-0.5,1-1.4,1.5-2.9,1.5
		c-2.1,0-3.4-1.4-3.4-3.6c0-2.3,1.2-3.6,3.3-3.6c2,0,3.1,1.5,3.1,3.3C358.3,263.8,358.3,264,358.2,264.2z M353,263.2h4.2
		c-0.2-1.3-0.9-2.1-2.1-2.1C353.9,261.1,353.1,261.9,353,263.2z"/>
	<path class="st5" d="M366.7,266.4l-0.1,0.9c-0.2,0.1-0.5,0.1-0.8,0.1c-0.7,0-1.1-0.3-1.3-1c-0.4,0.7-1.4,1-2.3,1
		c-1.3,0-2.4-0.6-2.4-1.9c0-1.1,0.9-1.9,2.7-2.2l1.9-0.3v-0.4c0-0.9-0.6-1.5-1.6-1.5c-0.9,0-1.6,0.4-2,1.3l-0.8-0.6
		c0.4-1,1.5-1.7,2.8-1.7c1.6,0,2.8,0.8,2.8,2.4v3.4c0,0.3,0.1,0.5,0.5,0.5C366.3,266.5,366.6,266.5,366.7,266.4z M364.5,264.9v-1
		l-1.6,0.3c-1.2,0.2-1.9,0.6-1.9,1.3c0,0.6,0.5,0.9,1.3,0.9C363.5,266.5,364.5,265.9,364.5,264.9z"/>
	<path class="st5" d="M372.4,266.8c-0.4,0.4-1,0.6-1.8,0.6c-1,0-1.9-0.5-1.9-1.9v-4.3h-1.4v-1h1.4v-1.7l1.1-0.3v2h2.6v1h-2.6v4.1
		c0,0.7,0.4,1,1,1c0.5,0,0.9-0.2,1.2-0.5L372.4,266.8z"/>
	<path class="st5" d="M379.9,264.2h-5.3c0.1,1.4,1,2.2,2.3,2.2c1,0,1.7-0.4,2-1l0.9,0.5c-0.5,1-1.4,1.5-2.9,1.5
		c-2.1,0-3.4-1.4-3.4-3.6c0-2.3,1.2-3.6,3.3-3.6c2,0,3.1,1.5,3.1,3.3C379.9,263.8,379.9,264,379.9,264.2z M374.6,263.2h4.2
		c-0.2-1.3-0.9-2.1-2.1-2.1C375.6,261.1,374.8,261.9,374.6,263.2z"/>
	<path class="st5" d="M393.1,266.4l-0.1,0.9c-0.2,0.1-0.5,0.1-0.8,0.1c-0.7,0-1.1-0.3-1.3-1c-0.4,0.7-1.4,1-2.3,1
		c-1.3,0-2.4-0.6-2.4-1.9c0-1.1,0.9-1.9,2.7-2.2l1.9-0.3v-0.4c0-0.9-0.6-1.5-1.6-1.5c-0.9,0-1.6,0.4-2,1.3l-0.8-0.6
		c0.4-1,1.5-1.7,2.8-1.7c1.6,0,2.8,0.8,2.8,2.4v3.4c0,0.3,0.1,0.5,0.5,0.5C392.8,266.5,393,266.5,393.1,266.4z M390.9,264.9v-1
		l-1.6,0.3c-1.2,0.2-1.9,0.6-1.9,1.3c0,0.6,0.5,0.9,1.3,0.9C389.9,266.5,390.9,265.9,390.9,264.9z"/>
	<path class="st5" d="M398.6,265.9l0.9-0.6c0.3,0.9,1.2,1.2,2.2,1.2c1.1,0,1.7-0.5,1.7-1c0-0.5-0.4-0.8-1.8-1.1
		c-2-0.4-2.7-0.9-2.7-2.1c0-1.1,1.1-2.1,2.8-2.1c1.5,0,2.4,0.5,2.8,1.7l-1,0.6c-0.3-0.9-0.9-1.3-1.8-1.3c-0.9,0-1.6,0.5-1.6,1
		c0,0.6,0.5,0.9,1.9,1.1c2,0.3,2.7,0.9,2.7,2.1c0,1.2-1.1,2.1-2.9,2.1C400.3,267.4,399.1,266.9,398.6,265.9z"/>
	<path class="st5" d="M412.5,264.2h-5.3c0.1,1.4,1,2.2,2.3,2.2c1,0,1.7-0.4,2-1l0.9,0.5c-0.5,1-1.4,1.5-2.9,1.5
		c-2.1,0-3.4-1.4-3.4-3.6c0-2.3,1.2-3.6,3.3-3.6c2,0,3.1,1.5,3.1,3.3C412.6,263.8,412.6,264,412.5,264.2z M407.3,263.2h4.2
		c-0.2-1.3-0.9-2.1-2.1-2.1C408.2,261.1,407.5,261.9,407.3,263.2z"/>
	<path class="st5" d="M418.8,260.3l-0.2,1.1c-0.2-0.1-0.5-0.2-0.9-0.2c-0.8,0-1.8,0.7-1.8,2.3v3.8h-1.1v-7h0.9l0.2,1.1
		c0.4-0.9,1.1-1.3,2.2-1.3C418.3,260.2,418.6,260.2,418.8,260.3z"/>
	<path class="st5" d="M426.3,260.3l-2.9,7h-1.1l-2.9-7h1.3l2.2,5.9l2.3-5.9H426.3z"/>
	<path class="st5" d="M427.4,258.1c0-0.5,0.3-0.8,0.8-0.8c0.5,0,0.8,0.3,0.8,0.8s-0.3,0.8-0.8,0.8
		C427.8,259,427.4,258.6,427.4,258.1z M428.8,267.3h-1.1v-7h1.1V267.3z"/>
	<path class="st5" d="M437.3,262l-1.1,0.5c-0.3-0.9-0.9-1.4-1.9-1.4c-1.4,0-2.2,1-2.2,2.7s0.8,2.7,2.2,2.7c1.1,0,1.8-0.5,2-1.4
		l1,0.4c-0.5,1.3-1.5,2.1-3,2.1c-2.1,0-3.4-1.4-3.4-3.6c0-2.3,1.3-3.6,3.4-3.6C435.8,260.2,436.8,260.9,437.3,262z"/>
	<path class="st5" d="M445.3,264.2H440c0.1,1.4,1,2.2,2.3,2.2c1,0,1.7-0.4,2-1l0.9,0.5c-0.5,1-1.4,1.5-2.9,1.5
		c-2.1,0-3.4-1.4-3.4-3.6c0-2.3,1.2-3.6,3.3-3.6c2,0,3.1,1.5,3.1,3.3C445.4,263.8,445.3,264,445.3,264.2z M440,263.2h4.2
		c-0.2-1.3-0.9-2.1-2.1-2.1C441,261.1,440.2,261.9,440,263.2z"/>
	<path class="st5" d="M456.3,266.8c-0.4,0.4-1,0.6-1.8,0.6c-1,0-1.9-0.5-1.9-1.9v-4.3h-1.4v-1h1.4v-1.7l1.1-0.3v2h2.6v1h-2.6v4.1
		c0,0.7,0.4,1,1,1c0.5,0,0.9-0.2,1.2-0.5L456.3,266.8z"/>
	<path class="st5" d="M464,262.8v4.5h-1.1v-4.1c0-1.6-0.8-2.1-1.7-2.1c-1,0-2.2,0.7-2.2,2.5v3.7h-1.1v-10.2h1.1v4.3
		c0.5-0.8,1.3-1.2,2.3-1.2C462.7,260.2,464,261,464,262.8z"/>
	<path class="st5" d="M472.8,266.4l-0.1,0.9c-0.2,0.1-0.5,0.1-0.8,0.1c-0.7,0-1.1-0.3-1.3-1c-0.4,0.7-1.4,1-2.3,1
		c-1.3,0-2.4-0.6-2.4-1.9c0-1.1,0.9-1.9,2.7-2.2l1.9-0.3v-0.4c0-0.9-0.6-1.5-1.6-1.5c-0.9,0-1.6,0.4-2,1.3l-0.8-0.6
		c0.4-1,1.5-1.7,2.8-1.7c1.6,0,2.8,0.8,2.8,2.4v3.4c0,0.3,0.1,0.5,0.5,0.5C472.4,266.5,472.6,266.5,472.8,266.4z M470.6,264.9v-1
		l-1.6,0.3c-1.2,0.2-1.9,0.6-1.9,1.3c0,0.6,0.5,0.9,1.3,0.9C469.6,266.5,470.6,265.9,470.6,264.9z"/>
	<path class="st5" d="M478.4,266.8c-0.4,0.4-1,0.6-1.8,0.6c-1,0-1.9-0.5-1.9-1.9v-4.3h-1.4v-1h1.4v-1.7l1.1-0.3v2h2.6v1h-2.6v4.1
		c0,0.7,0.4,1,1,1c0.5,0,0.9-0.2,1.2-0.5L478.4,266.8z"/>
	<path class="st5" d="M484.2,265.9l0.9-0.6c0.3,0.9,1.2,1.2,2.2,1.2c1.1,0,1.7-0.5,1.7-1c0-0.5-0.4-0.8-1.8-1.1
		c-2-0.4-2.7-0.9-2.7-2.1c0-1.1,1.1-2.1,2.8-2.1c1.5,0,2.4,0.5,2.8,1.7l-1,0.6c-0.3-0.9-0.9-1.3-1.8-1.3c-0.9,0-1.6,0.5-1.6,1
		c0,0.6,0.5,0.9,1.9,1.1c2,0.3,2.7,0.9,2.7,2.1c0,1.2-1.1,2.1-2.9,2.1C485.9,267.4,484.7,266.9,484.2,265.9z"/>
	<path class="st5" d="M498.1,264.2h-5.3c0.1,1.4,1,2.2,2.3,2.2c1,0,1.7-0.4,2-1l0.9,0.5c-0.5,1-1.4,1.5-2.9,1.5
		c-2.1,0-3.4-1.4-3.4-3.6c0-2.3,1.2-3.6,3.3-3.6c2,0,3.1,1.5,3.1,3.3C498.2,263.8,498.1,264,498.1,264.2z M492.8,263.2h4.2
		c-0.2-1.3-0.9-2.1-2.1-2.1C493.8,261.1,493,261.9,492.8,263.2z"/>
	<path class="st5" d="M504.4,260.3l-0.2,1.1c-0.2-0.1-0.5-0.2-0.9-0.2c-0.8,0-1.8,0.7-1.8,2.3v3.8h-1.1v-7h0.9l0.2,1.1
		c0.4-0.9,1.1-1.3,2.2-1.3C503.8,260.2,504.2,260.2,504.4,260.3z"/>
	<path class="st5" d="M511.8,260.3l-2.9,7h-1.1l-2.9-7h1.3l2.2,5.9l2.3-5.9H511.8z"/>
	<path class="st5" d="M519.2,264.2H514c0.1,1.4,1,2.2,2.3,2.2c1,0,1.7-0.4,2-1l0.9,0.5c-0.5,1-1.4,1.5-2.9,1.5
		c-2.1,0-3.4-1.4-3.4-3.6c0-2.3,1.2-3.6,3.3-3.6c2,0,3.1,1.5,3.1,3.3C519.3,263.8,519.3,264,519.2,264.2z M514,263.2h4.2
		c-0.2-1.3-0.9-2.1-2.1-2.1C514.9,261.1,514.1,261.9,514,263.2z"/>
	<path class="st5" d="M520.8,265.9l0.9-0.6c0.3,0.9,1.2,1.2,2.2,1.2c1.1,0,1.7-0.5,1.7-1c0-0.5-0.4-0.8-1.8-1.1
		c-2-0.4-2.7-0.9-2.7-2.1c0-1.1,1.1-2.1,2.8-2.1c1.5,0,2.4,0.5,2.8,1.7l-1,0.6c-0.3-0.9-0.9-1.3-1.8-1.3c-0.9,0-1.6,0.5-1.6,1
		c0,0.6,0.5,0.9,1.9,1.1c2,0.3,2.7,0.9,2.7,2.1c0,1.2-1.1,2.1-2.9,2.1C522.5,267.4,521.3,266.9,520.8,265.9z"/>
	<path class="st5" d="M174.5,287.5c-0.5,1.4-1.2,1.8-2.2,1.8c-0.7,0-1.1-0.2-1.5-0.6l0.4-1c0.3,0.4,0.7,0.6,1.1,0.6
		c0.5,0,0.9-0.2,1.3-1.1l0.4-0.9l-2.9-7h1.3l1.8,4.6l0.4,1.2l0.5-1.4l1.6-4.4h1.2L174.5,287.5z"/>
	<path class="st5" d="M185.7,282.8c0,2.3-1.3,3.6-3.4,3.6c-2.1,0-3.4-1.4-3.4-3.6c0-2.3,1.3-3.6,3.4-3.6
		C184.4,279.2,185.7,280.5,185.7,282.8z M180.1,282.8c0,1.7,0.9,2.7,2.3,2.7c1.4,0,2.3-1,2.3-2.7s-0.9-2.7-2.3-2.7
		C180.9,280.1,180.1,281.1,180.1,282.8z"/>
	<path class="st5" d="M193.9,279.3v7h-1l-0.1-1.1c-0.5,0.8-1.4,1.2-2.5,1.2c-1.4,0-2.6-0.7-2.6-2.6v-4.6h1.1v4.3
		c0,1.4,0.6,1.9,1.7,1.9c1.2,0,2.2-0.7,2.2-2.4v-3.8H193.9z"/>
	<path class="st5" d="M200.6,279.3l-0.2,1.1c-0.2-0.1-0.5-0.2-0.9-0.2c-0.8,0-1.8,0.7-1.8,2.3v3.8h-1.1v-7h0.9l0.2,1.1
		c0.4-0.9,1.1-1.3,2.2-1.3C200.1,279.2,200.4,279.2,200.6,279.3z"/>
	<path class="st5" d="M213.3,282.8c0,2.3-1.2,3.6-3.2,3.6c-1.1,0-2-0.6-2.4-1.4l-0.1,1.2h-1v-10.2h1.1v4.3c0.4-0.7,1.3-1.2,2.3-1.2
		C212.1,279.2,213.3,280.5,213.3,282.8z M212.2,282.8c0-1.6-0.8-2.7-2.2-2.7c-1.3,0-2.2,1-2.2,2.6v0.2c0,1.6,0.9,2.6,2.2,2.6
		C211.4,285.5,212.2,284.4,212.2,282.8z"/>
	<path class="st5" d="M221.6,279.3v7h-1l-0.1-1.1c-0.5,0.8-1.4,1.2-2.5,1.2c-1.4,0-2.6-0.7-2.6-2.6v-4.6h1.1v4.3
		c0,1.4,0.6,1.9,1.7,1.9c1.2,0,2.2-0.7,2.2-2.4v-3.8H221.6z"/>
	<path class="st5" d="M223.6,284.9l0.9-0.6c0.3,0.9,1.2,1.2,2.2,1.2c1.1,0,1.7-0.5,1.7-1c0-0.5-0.4-0.8-1.8-1.1
		c-2-0.4-2.7-0.9-2.7-2.1c0-1.1,1.1-2.1,2.8-2.1c1.5,0,2.4,0.5,2.8,1.7l-1,0.6c-0.3-0.9-0.9-1.3-1.8-1.3c-0.9,0-1.6,0.5-1.6,1
		c0,0.6,0.5,0.9,1.9,1.1c2,0.3,2.7,0.9,2.7,2.1c0,1.2-1.1,2.1-2.9,2.1C225.3,286.4,224.1,285.9,223.6,284.9z"/>
	<path class="st5" d="M231.3,277.1c0-0.5,0.3-0.8,0.8-0.8c0.5,0,0.8,0.3,0.8,0.8s-0.3,0.8-0.8,0.8
		C231.6,278,231.3,277.6,231.3,277.1z M232.7,286.3h-1.1v-7h1.1V286.3z"/>
	<path class="st5" d="M241.4,281.8v4.5h-1.1v-4.1c0-1.6-0.8-2.1-1.7-2.1c-1,0-2.2,0.6-2.2,2.4v3.7h-1.1v-7h1l0.1,1.1
		c0.5-0.9,1.4-1.2,2.4-1.2C240.2,279.2,241.4,280,241.4,281.8z"/>
	<path class="st5" d="M249.9,283.2h-5.3c0.1,1.4,1,2.2,2.3,2.2c1,0,1.7-0.4,2-1l0.9,0.5c-0.5,1-1.4,1.5-2.9,1.5
		c-2.1,0-3.4-1.4-3.4-3.6c0-2.3,1.2-3.6,3.3-3.6c2,0,3.1,1.5,3.1,3.3C250,282.8,249.9,283,249.9,283.2z M244.6,282.2h4.2
		c-0.2-1.3-0.9-2.1-2.1-2.1C245.6,280.1,244.8,280.9,244.6,282.2z"/>
	<path class="st5" d="M251.5,284.9l0.9-0.6c0.3,0.9,1.2,1.2,2.2,1.2c1.1,0,1.7-0.5,1.7-1c0-0.5-0.4-0.8-1.8-1.1
		c-2-0.4-2.7-0.9-2.7-2.1c0-1.1,1.1-2.1,2.8-2.1c1.5,0,2.4,0.5,2.8,1.7l-1,0.6c-0.3-0.9-0.9-1.3-1.8-1.3c-0.9,0-1.6,0.5-1.6,1
		c0,0.6,0.5,0.9,1.9,1.1c2,0.3,2.7,0.9,2.7,2.1c0,1.2-1.1,2.1-2.9,2.1C253.2,286.4,252,285.9,251.5,284.9z"/>
	<path class="st5" d="M258.8,284.9l0.9-0.6c0.3,0.9,1.2,1.2,2.2,1.2c1.1,0,1.7-0.5,1.7-1c0-0.5-0.4-0.8-1.8-1.1
		c-2-0.4-2.7-0.9-2.7-2.1c0-1.1,1.1-2.1,2.8-2.1c1.5,0,2.4,0.5,2.8,1.7l-1,0.6c-0.3-0.9-0.9-1.3-1.8-1.3c-0.9,0-1.6,0.5-1.6,1
		c0,0.6,0.5,0.9,1.9,1.1c2,0.3,2.7,0.9,2.7,2.1c0,1.2-1.1,2.1-2.9,2.1C260.6,286.4,259.4,285.9,258.8,284.9z"/>
	<path class="st5" d="M277.8,281.8v4.5h-1.1v-4.1c0-1.6-0.8-2.1-1.7-2.1c-1,0-2.2,0.6-2.2,2.4v3.7h-1.1v-7h1l0.1,1.1
		c0.5-0.9,1.4-1.2,2.4-1.2C276.5,279.2,277.8,280,277.8,281.8z"/>
	<path class="st5" d="M286.2,283.2H281c0.1,1.4,1,2.2,2.3,2.2c1,0,1.7-0.4,2-1l0.9,0.5c-0.5,1-1.4,1.5-2.9,1.5
		c-2.1,0-3.4-1.4-3.4-3.6c0-2.3,1.2-3.6,3.3-3.6c2,0,3.1,1.5,3.1,3.3C286.3,282.8,286.3,283,286.2,283.2z M281,282.2h4.2
		c-0.2-1.3-0.9-2.1-2.1-2.1C281.9,280.1,281.1,280.9,281,282.2z"/>
	<path class="st5" d="M294.4,283.2h-5.3c0.1,1.4,1,2.2,2.3,2.2c1,0,1.7-0.4,2-1l0.9,0.5c-0.5,1-1.4,1.5-2.9,1.5
		c-2.1,0-3.4-1.4-3.4-3.6c0-2.3,1.2-3.6,3.3-3.6c2,0,3.1,1.5,3.1,3.3C294.4,282.8,294.4,283,294.4,283.2z M289.1,282.2h4.2
		c-0.2-1.3-0.9-2.1-2.1-2.1C290,280.1,289.3,280.9,289.1,282.2z"/>
	<path class="st5" d="M302.8,276.1v10.2h-1l-0.1-1.2c-0.4,0.8-1.3,1.4-2.4,1.4c-1.9,0-3.2-1.4-3.2-3.6s1.2-3.6,3.2-3.6
		c1.1,0,1.9,0.5,2.3,1.2v-4.3H302.8z M301.7,282.9v-0.2c0-1.6-0.9-2.6-2.2-2.6c-1.4,0-2.2,1-2.2,2.7s0.8,2.7,2.2,2.7
		C300.8,285.5,301.7,284.5,301.7,282.9z"/>
	<path class="st5" d="M304.7,284.9l0.9-0.6c0.3,0.9,1.2,1.2,2.2,1.2c1.1,0,1.7-0.5,1.7-1c0-0.5-0.4-0.8-1.8-1.1
		c-2-0.4-2.7-0.9-2.7-2.1c0-1.1,1.1-2.1,2.8-2.1c1.5,0,2.4,0.5,2.8,1.7l-1,0.6c-0.3-0.9-0.9-1.3-1.8-1.3c-0.9,0-1.6,0.5-1.6,1
		c0,0.6,0.5,0.9,1.9,1.1c2,0.3,2.7,0.9,2.7,2.1c0,1.2-1.1,2.1-2.9,2.1C306.5,286.4,305.3,285.9,304.7,284.9z"/>
</g>
<path class="st4" d="M182,350.5h-10.8c-0.8,0-1.4-0.6-1.4-1.4c0-0.8,0.6-1.4,1.4-1.4H182c0.8,0,1.4,0.6,1.4,1.4
	C183.4,349.8,182.8,350.5,182,350.5 M202.9,350.5h-10.8c-0.8,0-1.4-0.6-1.4-1.4c0-0.8,0.6-1.4,1.4-1.4h10.8c0.8,0,1.4,0.6,1.4,1.4
	C204.3,349.8,203.7,350.5,202.9,350.5z M223.9,350.5h-10.8c-0.8,0-1.4-0.6-1.4-1.4c0-0.8,0.6-1.4,1.4-1.4h10.8
	c0.8,0,1.4,0.6,1.4,1.4C225.3,349.8,224.7,350.5,223.9,350.5z M160.3,350.5h-10.8c-0.8,0-1.4-0.6-1.4-1.4c0-0.8,0.6-1.4,1.4-1.4
	h10.8c0.8,0,1.4,0.6,1.4,1.4C161.7,349.8,161.1,350.5,160.3,350.5z M138.7,350.3c-0.1,0-0.1,0-0.2,0c-3.8-0.5-7.5-2-10.6-4.2
	c-0.6-0.4-0.8-1.3-0.3-1.9c0.4-0.6,1.3-0.8,1.9-0.3c2.8,2,6,3.3,9.3,3.7c0.8,0.1,1.3,0.8,1.2,1.6C140,349.8,139.4,350.3,138.7,350.3
	z M121.8,338.2c-0.5,0-1-0.3-1.2-0.8c-1.7-3.3-2.5-6.8-2.5-10.5v-0.5c0-0.8,0.6-1.4,1.4-1.4c0.8,0,1.4,0.6,1.4,1.4v0.5
	c0,3.3,0.7,6.4,2.2,9.3c0.3,0.7,0.1,1.5-0.6,1.9C122.2,338.1,122,338.2,121.8,338.2z M119.4,316.9c-0.8,0-1.4-0.6-1.4-1.4v-10.8
	c0-0.8,0.6-1.4,1.4-1.4c0.8,0,1.4,0.6,1.4,1.4v10.8C120.8,316.2,120.2,316.9,119.4,316.9z"/>
<g>
	<path class="st1" d="M253.1,386.9v1.5h-9.6v-13.2h9.3v1.5h-7.7v4.3h6v1.5h-6v4.4H253.1z"/>
	<path class="st1" d="M263.7,388.4l-3.6-5.5l-3.6,5.5h-1.9l4.6-6.7l-4.2-6.5h1.9l3.4,5.2l3.4-5.2h1.7l-4.3,6.4l4.4,6.8H263.7z"/>
	<path class="st1" d="M277.9,386.9v1.5h-9.6v-13.2h9.3v1.5h-7.7v4.3h6v1.5h-6v4.4H277.9z"/>
	<path class="st1" d="M286.1,388.6c-3.8,0-6.1-2.6-6.1-6.8c0-4.2,2.4-6.8,6.1-6.8c2.6,0,4.3,1.1,5.1,3.1l-1.6,0.7
		c-0.6-1.5-1.7-2.3-3.4-2.3c-2.7,0-4.5,2-4.5,5.3c0,3.3,1.7,5.3,4.4,5.3c1.8,0,3.1-0.9,3.7-2.7l1.6,0.6
		C290.6,387.2,288.6,388.6,286.1,388.6z"/>
	<path class="st1" d="M304.7,383.4c0,3.4-1.8,5.1-5.2,5.1c-3.3,0-5.2-1.7-5.2-5.1v-8.3h1.6v7.9c0,2.8,1.1,4,3.6,4
		c2.5,0,3.6-1.3,3.6-4v-7.9h1.6V383.4z"/>
	<path class="st1" d="M318.2,376.7h-4.6v11.7H312v-11.7h-4.6v-1.5h10.8V376.7z"/>
	<path class="st1" d="M322.6,388.4H321v-13.2h1.6V388.4z"/>
	<path class="st1" d="M338.4,381.8c0,4.2-2.4,6.8-6.1,6.8s-6.1-2.6-6.1-6.8c0-4.2,2.4-6.8,6.1-6.8S338.4,377.6,338.4,381.8z
		 M327.8,381.8c0,3.3,1.7,5.3,4.4,5.3c2.7,0,4.4-2,4.4-5.3c0-3.3-1.7-5.3-4.4-5.3C329.5,376.5,327.8,378.4,327.8,381.8z"/>
	<path class="st1" d="M352.2,388.4h-2l-5.5-8.8l-1.4-2.6h0l0.1,2.1v9.3h-1.5v-13.2h2l5.5,8.8l1.4,2.6h0l-0.1-2.1v-9.3h1.5V388.4z"/>
</g>
<text transform="matrix(1 0 0 1 241.4058 357.3607)" class="st1 st2 st3"></text>
<g>
	<path class="st5" d="M248.5,408.2v1.1h-6.4v-9.2h1.1v8.2H248.5z"/>
	<path class="st5" d="M256,406.2h-5.3c0.1,1.4,1,2.2,2.3,2.2c1,0,1.7-0.4,2-1l0.9,0.5c-0.5,1-1.4,1.5-2.9,1.5
		c-2.1,0-3.4-1.4-3.4-3.6c0-2.3,1.2-3.6,3.3-3.6c2,0,3.1,1.5,3.1,3.3C256,405.8,256,406,256,406.2z M250.7,405.2h4.2
		c-0.2-1.3-0.9-2.1-2.1-2.1C251.7,403.1,250.9,403.9,250.7,405.2z"/>
	<path class="st5" d="M262.2,408.8c-0.4,0.4-1,0.6-1.8,0.6c-1,0-1.9-0.5-1.9-1.9v-4.3h-1.4v-1h1.4v-1.7l1.1-0.3v2h2.6v1h-2.6v4.1
		c0,0.7,0.4,1,1,1c0.5,0,0.9-0.2,1.2-0.5L262.2,408.8z"/>
	<path class="st5" d="M274.7,402.3v7h-1l-0.1-1.1c-0.5,0.8-1.4,1.2-2.5,1.2c-1.4,0-2.6-0.7-2.6-2.6v-4.6h1.1v4.3
		c0,1.4,0.6,1.9,1.7,1.9c1.2,0,2.2-0.7,2.2-2.4v-3.8H274.7z"/>
	<path class="st5" d="M276.6,407.9l0.9-0.6c0.3,0.9,1.2,1.2,2.2,1.2c1.1,0,1.7-0.5,1.7-1c0-0.5-0.4-0.8-1.8-1.1
		c-2-0.4-2.7-0.9-2.7-2.1c0-1.1,1.1-2.1,2.8-2.1c1.5,0,2.4,0.5,2.8,1.7l-1,0.6c-0.3-0.9-0.9-1.3-1.8-1.3c-0.9,0-1.6,0.5-1.6,1
		c0,0.6,0.5,0.9,1.9,1.1c2,0.3,2.7,0.9,2.7,2.1c0,1.2-1.1,2.1-2.9,2.1C278.4,409.4,277.2,408.9,276.6,407.9z"/>
	<path class="st5" d="M295.3,404l-1.1,0.5c-0.3-0.9-0.9-1.4-1.9-1.4c-1.4,0-2.2,1-2.2,2.7s0.8,2.7,2.2,2.7c1.1,0,1.8-0.5,2-1.4
		l1,0.4c-0.5,1.3-1.5,2.1-3,2.1c-2.1,0-3.4-1.4-3.4-3.6c0-2.3,1.3-3.6,3.4-3.6C293.8,402.2,294.8,402.9,295.3,404z"/>
	<path class="st5" d="M301.4,402.3l-0.2,1.1c-0.2-0.1-0.5-0.2-0.9-0.2c-0.8,0-1.8,0.7-1.8,2.3v3.8h-1.1v-7h0.9l0.2,1.1
		c0.4-0.9,1.1-1.3,2.2-1.3C300.9,402.2,301.2,402.2,301.4,402.3z"/>
	<path class="st5" d="M308.8,406.2h-5.3c0.1,1.4,1,2.2,2.3,2.2c1,0,1.7-0.4,2-1l0.9,0.5c-0.5,1-1.4,1.5-2.9,1.5
		c-2.1,0-3.4-1.4-3.4-3.6c0-2.3,1.2-3.6,3.3-3.6c2,0,3.1,1.5,3.1,3.3C308.8,405.8,308.8,406,308.8,406.2z M303.5,405.2h4.2
		c-0.2-1.3-0.9-2.1-2.1-2.1C304.4,403.1,303.7,403.9,303.5,405.2z"/>
	<path class="st5" d="M317.2,408.4l-0.1,0.9c-0.2,0.1-0.5,0.1-0.8,0.1c-0.7,0-1.1-0.3-1.3-1c-0.4,0.7-1.4,1-2.3,1
		c-1.3,0-2.4-0.6-2.4-1.9c0-1.1,0.9-1.9,2.7-2.2l1.9-0.3v-0.4c0-0.9-0.6-1.5-1.6-1.5c-0.9,0-1.6,0.4-2,1.3l-0.8-0.6
		c0.4-1,1.5-1.7,2.8-1.7c1.6,0,2.8,0.8,2.8,2.4v3.4c0,0.3,0.1,0.5,0.5,0.5C316.9,408.5,317.1,408.5,317.2,408.4z M315,406.9v-1
		l-1.6,0.3c-1.2,0.2-1.9,0.6-1.9,1.3c0,0.6,0.5,0.9,1.3,0.9C314,408.5,315,407.9,315,406.9z"/>
	<path class="st5" d="M322.9,408.8c-0.4,0.4-1,0.6-1.8,0.6c-1,0-1.9-0.5-1.9-1.9v-4.3h-1.4v-1h1.4v-1.7l1.1-0.3v2h2.6v1h-2.6v4.1
		c0,0.7,0.4,1,1,1c0.5,0,0.9-0.2,1.2-0.5L322.9,408.8z"/>
	<path class="st5" d="M330.4,406.2h-5.3c0.1,1.4,1,2.2,2.3,2.2c1,0,1.7-0.4,2-1l0.9,0.5c-0.5,1-1.4,1.5-2.9,1.5
		c-2.1,0-3.4-1.4-3.4-3.6c0-2.3,1.2-3.6,3.3-3.6c2,0,3.1,1.5,3.1,3.3C330.5,405.8,330.4,406,330.4,406.2z M325.1,405.2h4.2
		c-0.2-1.3-0.9-2.1-2.1-2.1C326.1,403.1,325.3,403.9,325.1,405.2z"/>
	<path class="st5" d="M343.7,408.4l-0.1,0.9c-0.2,0.1-0.5,0.1-0.8,0.1c-0.7,0-1.1-0.3-1.3-1c-0.4,0.7-1.4,1-2.3,1
		c-1.3,0-2.4-0.6-2.4-1.9c0-1.1,0.9-1.9,2.7-2.2l1.9-0.3v-0.4c0-0.9-0.6-1.5-1.6-1.5c-0.9,0-1.6,0.4-2,1.3l-0.8-0.6
		c0.4-1,1.5-1.7,2.8-1.7c1.6,0,2.8,0.8,2.8,2.4v3.4c0,0.3,0.1,0.5,0.5,0.5C343.3,408.5,343.5,408.5,343.7,408.4z M341.4,406.9v-1
		l-1.6,0.3c-1.2,0.2-1.9,0.6-1.9,1.3c0,0.6,0.5,0.9,1.3,0.9C340.4,408.5,341.4,407.9,341.4,406.9z"/>
	<path class="st5" d="M353.7,408.8c-0.4,0.4-1,0.6-1.8,0.6c-1,0-1.9-0.5-1.9-1.9v-4.3h-1.4v-1h1.4v-1.7l1.1-0.3v2h2.6v1h-2.6v4.1
		c0,0.7,0.4,1,1,1c0.5,0,0.9-0.2,1.2-0.5L353.7,408.8z"/>
	<path class="st5" d="M361.3,406.2H356c0.1,1.4,1,2.2,2.3,2.2c1,0,1.7-0.4,2-1l0.9,0.5c-0.5,1-1.4,1.5-2.9,1.5
		c-2.1,0-3.4-1.4-3.4-3.6c0-2.3,1.2-3.6,3.3-3.6c2,0,3.1,1.5,3.1,3.3C361.3,405.8,361.3,406,361.3,406.2z M356,405.2h4.2
		c-0.2-1.3-0.9-2.1-2.1-2.1C356.9,403.1,356.2,403.9,356,405.2z"/>
	<path class="st5" d="M369.3,404l-1.1,0.5c-0.3-0.9-0.9-1.4-1.9-1.4c-1.4,0-2.2,1-2.2,2.7s0.8,2.7,2.2,2.7c1.1,0,1.8-0.5,2-1.4
		l1,0.4c-0.5,1.3-1.5,2.1-3,2.1c-2.1,0-3.4-1.4-3.4-3.6c0-2.3,1.3-3.6,3.4-3.6C367.8,402.2,368.8,402.9,369.3,404z"/>
	<path class="st5" d="M377.5,404.8v4.5h-1.1v-4.1c0-1.6-0.8-2.1-1.7-2.1c-1,0-2.2,0.7-2.2,2.5v3.7h-1.1v-10.2h1.1v4.3
		c0.5-0.8,1.3-1.2,2.3-1.2C376.2,402.2,377.5,403,377.5,404.8z"/>
	<path class="st5" d="M386.1,404.8v4.5H385v-4.1c0-1.6-0.8-2.1-1.7-2.1c-1,0-2.2,0.6-2.2,2.4v3.7H380v-7h1l0.1,1.1
		c0.5-0.9,1.4-1.2,2.4-1.2C384.9,402.2,386.1,403,386.1,404.8z"/>
	<path class="st5" d="M395,405.8c0,2.3-1.3,3.6-3.4,3.6c-2.1,0-3.4-1.4-3.4-3.6c0-2.3,1.3-3.6,3.4-3.6
		C393.7,402.2,395,403.5,395,405.8z M389.4,405.8c0,1.7,0.9,2.7,2.3,2.7c1.4,0,2.3-1,2.3-2.7s-0.9-2.7-2.3-2.7
		C390.2,403.1,389.4,404.1,389.4,405.8z"/>
	<path class="st5" d="M398.3,407.4c0,0.7,0.2,0.9,0.8,0.9c0.4,0,0.6,0,1-0.2l-0.2,1.1c-0.3,0.1-0.7,0.2-1,0.2
		c-1.1,0-1.7-0.6-1.7-1.9v-8.5h1.1V407.4z"/>
	<path class="st5" d="M407.8,405.8c0,2.3-1.3,3.6-3.4,3.6c-2.1,0-3.4-1.4-3.4-3.6c0-2.3,1.3-3.6,3.4-3.6
		C406.5,402.2,407.8,403.5,407.8,405.8z M402.2,405.8c0,1.7,0.9,2.7,2.3,2.7c1.4,0,2.3-1,2.3-2.7s-0.9-2.7-2.3-2.7
		C403,403.1,402.2,404.1,402.2,405.8z"/>
	<path class="st5" d="M416,410.1c0,1.4-1.6,2.2-3.5,2.2c-2.2,0-3.2-0.8-3.2-1.8c0-0.6,0.5-1.1,1.2-1.4c-0.5-0.3-1-0.7-1-1.3
		c0-0.7,0.4-1.2,1-1.4c-0.7-0.4-1-1.1-1-1.9c0-1.4,1.2-2.4,2.9-2.4c0.5,0,1,0.1,1.4,0.3c0.3-1,0.9-1.4,2-1.4l0.3,1
		c-0.9,0-1.5,0.3-1.7,0.8c0.6,0.4,0.9,1,0.9,1.8c0,1.4-1.2,2.4-2.9,2.4c-0.4,0-0.8,0-1.1-0.1c-0.6,0.1-0.8,0.4-0.8,0.9
		c0,0.5,0.4,0.8,0.9,0.8h2.3C415.2,408.4,416,409.1,416,410.1z M415,410.2c0-0.5-0.3-0.8-1.4-0.8h-1.9c-0.9,0-1.3,0.3-1.3,0.9
		c0,0.7,0.8,1.1,2.3,1.1C414.2,411.4,415,410.8,415,410.2z M410.8,404.5c0,0.9,0.7,1.5,1.7,1.5s1.7-0.6,1.7-1.5
		c0-0.9-0.7-1.5-1.7-1.5S410.8,403.7,410.8,404.5z"/>
	<path class="st5" d="M420.3,410.5c-0.5,1.4-1.2,1.8-2.2,1.8c-0.7,0-1.1-0.2-1.5-0.6l0.4-1c0.3,0.4,0.7,0.6,1.1,0.6
		c0.5,0,0.9-0.2,1.3-1.1l0.4-0.9l-2.9-7h1.3l1.8,4.6l0.4,1.2l0.5-1.4l1.6-4.4h1.2L420.3,410.5z"/>
	<path class="st5" d="M432.2,405.8l-1.5,1.5v2h-1.1v-10.2h1.1v6.8l3.6-3.6h1.4L433,405l2.9,4.3h-1.4L432.2,405.8z"/>
	<path class="st5" d="M443.2,406.2h-5.3c0.1,1.4,1,2.2,2.3,2.2c1,0,1.7-0.4,2-1l0.9,0.5c-0.5,1-1.4,1.5-2.9,1.5
		c-2.1,0-3.4-1.4-3.4-3.6c0-2.3,1.2-3.6,3.3-3.6c2,0,3.1,1.5,3.1,3.3C443.3,405.8,443.3,406,443.2,406.2z M438,405.2h4.2
		c-0.2-1.3-0.9-2.1-2.1-2.1C438.9,403.1,438.1,403.9,438,405.2z"/>
	<path class="st5" d="M451.4,406.2h-5.3c0.1,1.4,1,2.2,2.3,2.2c1,0,1.7-0.4,2-1l0.9,0.5c-0.5,1-1.4,1.5-2.9,1.5
		c-2.1,0-3.4-1.4-3.4-3.6c0-2.3,1.2-3.6,3.3-3.6c2,0,3.1,1.5,3.1,3.3C451.4,405.8,451.4,406,451.4,406.2z M446.1,405.2h4.2
		c-0.2-1.3-0.9-2.1-2.1-2.1C447,403.1,446.3,403.9,446.1,405.2z"/>
	<path class="st5" d="M460.2,405.8c0,2.3-1.2,3.6-3.2,3.6c-1.1,0-1.9-0.5-2.3-1.2v4h-1.1v-9.9h1l0.1,1.2c0.4-0.8,1.3-1.4,2.4-1.4
		C458.9,402.2,460.2,403.5,460.2,405.8z M459.1,405.8c0-1.6-0.8-2.7-2.2-2.7c-1.3,0-2.2,1-2.2,2.6v0.2c0,1.6,0.9,2.6,2.2,2.6
		C458.2,408.5,459.1,407.4,459.1,405.8z"/>
	<path class="st5" d="M462.1,400.1c0-0.5,0.3-0.8,0.8-0.8c0.5,0,0.8,0.3,0.8,0.8s-0.3,0.8-0.8,0.8
		C462.4,401,462.1,400.6,462.1,400.1z M463.5,409.3h-1.1v-7h1.1V409.3z"/>
	<path class="st5" d="M472.2,404.8v4.5h-1.1v-4.1c0-1.6-0.8-2.1-1.7-2.1c-1,0-2.2,0.6-2.2,2.4v3.7h-1.1v-7h1l0.1,1.1
		c0.5-0.9,1.4-1.2,2.4-1.2C471,402.2,472.2,403,472.2,404.8z"/>
	<path class="st5" d="M480.8,410.1c0,1.4-1.6,2.2-3.5,2.2c-2.2,0-3.2-0.8-3.2-1.8c0-0.6,0.5-1.1,1.2-1.4c-0.5-0.3-1-0.7-1-1.3
		c0-0.7,0.4-1.2,1-1.4c-0.7-0.4-1-1.1-1-1.9c0-1.4,1.2-2.4,2.9-2.4c0.5,0,1,0.1,1.4,0.3c0.3-1,0.9-1.4,2-1.4l0.3,1
		c-0.9,0-1.5,0.3-1.7,0.8c0.6,0.4,0.9,1,0.9,1.8c0,1.4-1.2,2.4-2.9,2.4c-0.4,0-0.8,0-1.1-0.1c-0.6,0.1-0.8,0.4-0.8,0.9
		c0,0.5,0.4,0.8,0.9,0.8h2.3C480,408.4,480.8,409.1,480.8,410.1z M479.7,410.2c0-0.5-0.3-0.8-1.4-0.8h-1.9c-0.9,0-1.3,0.3-1.3,0.9
		c0,0.7,0.8,1.1,2.3,1.1C478.9,411.4,479.7,410.8,479.7,410.2z M475.6,404.5c0,0.9,0.7,1.5,1.7,1.5s1.7-0.6,1.7-1.5
		c0-0.9-0.7-1.5-1.7-1.5S475.6,403.7,475.6,404.5z"/>
	<path class="st5" d="M244.5,429.5c-0.5,1.4-1.2,1.8-2.2,1.8c-0.7,0-1.1-0.2-1.5-0.6l0.4-1c0.3,0.4,0.7,0.6,1.1,0.6
		c0.5,0,0.9-0.2,1.3-1.1l0.4-0.9l-2.9-7h1.3l1.8,4.6l0.4,1.2l0.5-1.4l1.6-4.4h1.2L244.5,429.5z"/>
	<path class="st5" d="M255.7,424.8c0,2.3-1.3,3.6-3.4,3.6c-2.1,0-3.4-1.4-3.4-3.6c0-2.3,1.3-3.6,3.4-3.6
		C254.4,421.2,255.7,422.5,255.7,424.8z M250.1,424.8c0,1.7,0.9,2.7,2.3,2.7c1.4,0,2.3-1,2.3-2.7s-0.9-2.7-2.3-2.7
		C250.9,422.1,250.1,423.1,250.1,424.8z"/>
	<path class="st5" d="M263.9,421.3v7h-1l-0.1-1.1c-0.5,0.8-1.4,1.2-2.5,1.2c-1.4,0-2.6-0.7-2.6-2.6v-4.6h1.1v4.3
		c0,1.4,0.6,1.9,1.7,1.9c1.2,0,2.2-0.7,2.2-2.4v-3.8H263.9z"/>
	<path class="st5" d="M272,422.1h-0.9v-3.5h1.2L272,422.1z M274.4,422.1h-0.9v-3.5h1.2L274.4,422.1z"/>
	<path class="st5" d="M276.7,419.1c0-0.5,0.3-0.8,0.8-0.8c0.5,0,0.8,0.3,0.8,0.8s-0.3,0.8-0.8,0.8C277,420,276.7,419.6,276.7,419.1z
		 M278.1,428.3H277v-7h1.1V428.3z"/>
	<path class="st5" d="M286.8,423.8v4.5h-1.1v-4.1c0-1.6-0.8-2.1-1.7-2.1c-1,0-2.2,0.6-2.2,2.4v3.7h-1.1v-7h1l0.1,1.1
		c0.5-0.9,1.4-1.2,2.4-1.2C285.6,421.2,286.8,422,286.8,423.8z"/>
	<path class="st5" d="M293.9,425.2h-4.6v-1.2h4.6V425.2z"/>
	<path class="st5" d="M300.4,427.8c-0.4,0.4-1,0.6-1.8,0.6c-1,0-1.9-0.5-1.9-1.9v-4.3h-1.4v-1h1.4v-1.7l1.1-0.3v2h2.6v1h-2.6v4.1
		c0,0.7,0.4,1,1,1c0.5,0,0.9-0.2,1.2-0.5L300.4,427.8z"/>
	<path class="st5" d="M308.1,423.8v4.5H307v-4.1c0-1.6-0.8-2.1-1.7-2.1c-1,0-2.2,0.7-2.2,2.5v3.7H302v-10.2h1.1v4.3
		c0.5-0.8,1.3-1.2,2.3-1.2C306.9,421.2,308.1,422,308.1,423.8z"/>
	<path class="st5" d="M316.6,425.2h-5.3c0.1,1.4,1,2.2,2.3,2.2c1,0,1.7-0.4,2-1l0.9,0.5c-0.5,1-1.4,1.5-2.9,1.5
		c-2.1,0-3.4-1.4-3.4-3.6c0-2.3,1.2-3.6,3.3-3.6c2,0,3.1,1.5,3.1,3.3C316.7,424.8,316.6,425,316.6,425.2z M311.3,424.2h4.2
		c-0.2-1.3-0.9-2.1-2.1-2.1C312.3,422.1,311.5,422.9,311.3,424.2z"/>
	<path class="st5" d="M323.4,425.2h-4.6v-1.2h4.6V425.2z"/>
	<path class="st5" d="M327,426.4c0,0.7,0.2,0.9,0.8,0.9c0.4,0,0.6,0,1-0.2l-0.2,1.1c-0.3,0.1-0.7,0.2-1,0.2c-1.1,0-1.7-0.6-1.7-1.9
		v-8.5h1.1V426.4z"/>
	<path class="st5" d="M336.5,424.8c0,2.3-1.3,3.6-3.4,3.6c-2.1,0-3.4-1.4-3.4-3.6c0-2.3,1.3-3.6,3.4-3.6
		C335.3,421.2,336.5,422.5,336.5,424.8z M330.9,424.8c0,1.7,0.9,2.7,2.3,2.7c1.4,0,2.3-1,2.3-2.7s-0.9-2.7-2.3-2.7
		C331.7,422.1,330.9,423.1,330.9,424.8z"/>
	<path class="st5" d="M345.1,424.8c0,2.3-1.3,3.6-3.4,3.6c-2.1,0-3.4-1.4-3.4-3.6c0-2.3,1.3-3.6,3.4-3.6
		C343.8,421.2,345.1,422.5,345.1,424.8z M339.4,424.8c0,1.7,0.9,2.7,2.3,2.7c1.4,0,2.3-1,2.3-2.7s-0.9-2.7-2.3-2.7
		C340.3,422.1,339.4,423.1,339.4,424.8z"/>
	<path class="st5" d="M353.9,424.8c0,2.3-1.2,3.6-3.2,3.6c-1.1,0-1.9-0.5-2.3-1.2v4h-1.1v-9.9h1l0.1,1.2c0.4-0.8,1.3-1.4,2.4-1.4
		C352.6,421.2,353.9,422.5,353.9,424.8z M352.7,424.8c0-1.6-0.8-2.7-2.2-2.7c-1.3,0-2.2,1-2.2,2.6v0.2c0,1.6,0.9,2.6,2.2,2.6
		C351.9,427.5,352.7,426.4,352.7,424.8z"/>
	<path class="st5" d="M356.5,422.1h-0.9v-3.5h1.2L356.5,422.1z M358.9,422.1H358v-3.5h1.2L358.9,422.1z"/>
	<path class="st5" d="M372.4,418.1v10.2h-1l-0.1-1.2c-0.4,0.8-1.3,1.4-2.4,1.4c-1.9,0-3.2-1.4-3.2-3.6s1.2-3.6,3.2-3.6
		c1.1,0,1.9,0.5,2.3,1.2v-4.3H372.4z M371.3,424.9v-0.2c0-1.6-0.9-2.6-2.2-2.6c-1.4,0-2.2,1-2.2,2.7s0.8,2.7,2.2,2.7
		C370.4,427.5,371.3,426.5,371.3,424.9z"/>
	<path class="st5" d="M381.1,421.3v7h-1l-0.1-1.1c-0.5,0.8-1.4,1.2-2.5,1.2c-1.4,0-2.6-0.7-2.6-2.6v-4.6h1.1v4.3
		c0,1.4,0.6,1.9,1.7,1.9c1.2,0,2.2-0.7,2.2-2.4v-3.8H381.1z"/>
	<path class="st5" d="M387.8,421.3l-0.2,1.1c-0.2-0.1-0.5-0.2-0.9-0.2c-0.8,0-1.8,0.7-1.8,2.3v3.8h-1.1v-7h0.9l0.2,1.1
		c0.4-0.9,1.1-1.3,2.2-1.3C387.2,421.2,387.6,421.2,387.8,421.3z"/>
	<path class="st5" d="M389.1,419.1c0-0.5,0.3-0.8,0.8-0.8c0.5,0,0.8,0.3,0.8,0.8s-0.3,0.8-0.8,0.8
		C389.5,420,389.1,419.6,389.1,419.1z M390.5,428.3h-1.1v-7h1.1V428.3z"/>
	<path class="st5" d="M399.3,423.8v4.5h-1.1v-4.1c0-1.6-0.8-2.1-1.7-2.1c-1,0-2.2,0.6-2.2,2.4v3.7h-1.1v-7h1l0.1,1.1
		c0.5-0.9,1.4-1.2,2.4-1.2C398,421.2,399.3,422,399.3,423.8z"/>
	<path class="st5" d="M407.8,429.1c0,1.4-1.6,2.2-3.5,2.2c-2.2,0-3.2-0.8-3.2-1.8c0-0.6,0.5-1.1,1.2-1.4c-0.5-0.3-1-0.7-1-1.3
		c0-0.7,0.4-1.2,1-1.4c-0.7-0.4-1-1.1-1-1.9c0-1.4,1.2-2.4,2.9-2.4c0.5,0,1,0.1,1.4,0.3c0.3-1,0.9-1.4,2-1.4l0.3,1
		c-0.9,0-1.5,0.3-1.7,0.8c0.6,0.4,0.9,1,0.9,1.8c0,1.4-1.2,2.4-2.9,2.4c-0.4,0-0.8,0-1.1-0.1c-0.6,0.1-0.8,0.4-0.8,0.9
		c0,0.5,0.4,0.8,0.9,0.8h2.3C407,427.4,407.8,428.1,407.8,429.1z M406.8,429.2c0-0.5-0.3-0.8-1.4-0.8h-1.9c-0.9,0-1.3,0.3-1.3,0.9
		c0,0.7,0.8,1.1,2.3,1.1C406,430.4,406.8,429.8,406.8,429.2z M402.6,423.5c0,0.9,0.7,1.5,1.7,1.5s1.7-0.6,1.7-1.5
		c0-0.9-0.7-1.5-1.7-1.5S402.6,422.7,402.6,423.5z"/>
	<path class="st5" d="M420.6,427.4l-0.1,0.9c-0.2,0.1-0.5,0.1-0.8,0.1c-0.7,0-1.1-0.3-1.3-1c-0.4,0.7-1.4,1-2.3,1
		c-1.3,0-2.4-0.6-2.4-1.9c0-1.1,0.9-1.9,2.7-2.2l1.9-0.3v-0.4c0-0.9-0.6-1.5-1.6-1.5c-0.9,0-1.6,0.4-2,1.3l-0.8-0.6
		c0.4-1,1.5-1.7,2.8-1.7c1.6,0,2.8,0.8,2.8,2.4v3.4c0,0.3,0.1,0.5,0.5,0.5C420.2,427.5,420.4,427.5,420.6,427.4z M418.3,425.9v-1
		l-1.6,0.3c-1.2,0.2-1.9,0.6-1.9,1.3c0,0.6,0.5,0.9,1.3,0.9C417.3,427.5,418.3,426.9,418.3,425.9z"/>
	<path class="st5" d="M423.2,426.4c0,0.7,0.2,0.9,0.8,0.9c0.4,0,0.6,0,1-0.2l-0.2,1.1c-0.3,0.1-0.7,0.2-1,0.2
		c-1.1,0-1.7-0.6-1.7-1.9v-8.5h1.1V426.4z"/>
	<path class="st5" d="M427.5,426.4c0,0.7,0.2,0.9,0.8,0.9c0.4,0,0.6,0,1-0.2l-0.2,1.1c-0.3,0.1-0.7,0.2-1,0.2
		c-1.1,0-1.7-0.6-1.7-1.9v-8.5h1.1V426.4z"/>
	<path class="st5" d="M441.7,424.8c0,2.3-1.2,3.6-3.2,3.6c-1.1,0-1.9-0.5-2.3-1.2v4H435v-9.9h1l0.1,1.2c0.4-0.8,1.3-1.4,2.4-1.4
		C440.4,421.2,441.7,422.5,441.7,424.8z M440.5,424.8c0-1.6-0.8-2.7-2.2-2.7c-1.3,0-2.2,1-2.2,2.6v0.2c0,1.6,0.9,2.6,2.2,2.6
		C439.7,427.5,440.5,426.4,440.5,424.8z"/>
	<path class="st5" d="M450,423.8v4.5h-1.1v-4.1c0-1.6-0.8-2.1-1.7-2.1c-1,0-2.2,0.7-2.2,2.5v3.7h-1.1v-10.2h1.1v4.3
		c0.5-0.8,1.3-1.2,2.3-1.2C448.8,421.2,450,422,450,423.8z"/>
	<path class="st5" d="M458.8,427.4l-0.1,0.9c-0.2,0.1-0.5,0.1-0.8,0.1c-0.7,0-1.1-0.3-1.3-1c-0.4,0.7-1.4,1-2.3,1
		c-1.3,0-2.4-0.6-2.4-1.9c0-1.1,0.9-1.9,2.7-2.2l1.9-0.3v-0.4c0-0.9-0.6-1.5-1.6-1.5c-0.9,0-1.6,0.4-2,1.3l-0.8-0.6
		c0.4-1,1.5-1.7,2.8-1.7c1.6,0,2.8,0.8,2.8,2.4v3.4c0,0.3,0.1,0.5,0.5,0.5C458.4,427.5,458.7,427.5,458.8,427.4z M456.6,425.9v-1
		l-1.6,0.3c-1.2,0.2-1.9,0.6-1.9,1.3c0,0.6,0.5,0.9,1.3,0.9C455.6,427.5,456.6,426.9,456.6,425.9z"/>
	<path class="st5" d="M459.8,426.9l0.9-0.6c0.3,0.9,1.2,1.2,2.2,1.2c1.1,0,1.7-0.5,1.7-1c0-0.5-0.4-0.8-1.8-1.1
		c-2-0.4-2.7-0.9-2.7-2.1c0-1.1,1.1-2.1,2.8-2.1c1.5,0,2.4,0.5,2.8,1.7l-1,0.6c-0.3-0.9-0.9-1.3-1.8-1.3c-0.9,0-1.6,0.5-1.6,1
		c0,0.6,0.5,0.9,1.9,1.1c2,0.3,2.7,0.9,2.7,2.1c0,1.2-1.1,2.1-2.9,2.1C461.5,428.4,460.3,427.9,459.8,426.9z"/>
	<path class="st5" d="M473.8,425.2h-5.3c0.1,1.4,1,2.2,2.3,2.2c1,0,1.7-0.4,2-1l0.9,0.5c-0.5,1-1.4,1.5-2.9,1.5
		c-2.1,0-3.4-1.4-3.4-3.6c0-2.3,1.2-3.6,3.3-3.6c2,0,3.1,1.5,3.1,3.3C473.8,424.8,473.8,425,473.8,425.2z M468.5,424.2h4.2
		c-0.2-1.3-0.9-2.1-2.1-2.1C469.4,422.1,468.7,422.9,468.5,424.2z"/>
	<path class="st5" d="M475.3,426.9l0.9-0.6c0.3,0.9,1.2,1.2,2.2,1.2c1.1,0,1.7-0.5,1.7-1c0-0.5-0.4-0.8-1.8-1.1
		c-2-0.4-2.7-0.9-2.7-2.1c0-1.1,1.1-2.1,2.8-2.1c1.5,0,2.4,0.5,2.8,1.7l-1,0.6c-0.3-0.9-0.9-1.3-1.8-1.3c-0.9,0-1.6,0.5-1.6,1
		c0,0.6,0.5,0.9,1.9,1.1c2,0.3,2.7,0.9,2.7,2.1c0,1.2-1.1,2.1-2.9,2.1C477,428.4,475.9,427.9,475.3,426.9z"/>
	<path class="st5" d="M494.5,424.8c0,2.3-1.3,3.6-3.4,3.6c-2.1,0-3.4-1.4-3.4-3.6c0-2.3,1.3-3.6,3.4-3.6
		C493.2,421.2,494.5,422.5,494.5,424.8z M488.8,424.8c0,1.7,0.9,2.7,2.3,2.7c1.4,0,2.3-1,2.3-2.7s-0.9-2.7-2.3-2.7
		C489.6,422.1,488.8,423.1,488.8,424.8z"/>
	<path class="st5" d="M498.2,421.3h2.3v1h-2.3v6H497v-6h-1.4v-1h1.4v-1.2c0-1.2,0.8-2.1,2.3-2.1c0.5,0,0.9,0.1,1.2,0.3l-0.3,0.9
		c-0.2-0.1-0.5-0.2-0.8-0.2c-0.8,0-1.3,0.4-1.3,1.2V421.3z"/>
	<path class="st5" d="M246.2,446.8c-0.4,0.4-1,0.6-1.8,0.6c-1,0-1.9-0.5-1.9-1.9v-4.3H241v-1h1.4v-1.7l1.1-0.3v2h2.6v1h-2.6v4.1
		c0,0.7,0.4,1,1,1c0.5,0,0.9-0.2,1.2-0.5L246.2,446.8z"/>
	<path class="st5" d="M253.9,442.8v4.5h-1.1v-4.1c0-1.6-0.8-2.1-1.7-2.1c-1,0-2.2,0.7-2.2,2.5v3.7h-1.1v-10.2h1.1v4.3
		c0.5-0.8,1.3-1.2,2.3-1.2C252.6,440.2,253.9,441,253.9,442.8z"/>
	<path class="st5" d="M262.4,444.2h-5.3c0.1,1.4,1,2.2,2.3,2.2c1,0,1.7-0.4,2-1l0.9,0.5c-0.5,1-1.4,1.5-2.9,1.5
		c-2.1,0-3.4-1.4-3.4-3.6c0-2.3,1.2-3.6,3.3-3.6c2,0,3.1,1.5,3.1,3.3C262.4,443.8,262.4,444,262.4,444.2z M257.1,443.2h4.2
		c-0.2-1.3-0.9-2.1-2.1-2.1C258,441.1,257.3,441.9,257.1,443.2z"/>
	<path class="st5" d="M279.2,440.3l-2.4,7h-1.1l-2-5.6l-1.9,5.6h-1.1l-2.4-7h1.2l1.8,5.7l1.9-5.7h1.1l1.9,5.7l1.8-5.7H279.2z"/>
	<path class="st5" d="M287.1,443.8c0,2.3-1.3,3.6-3.4,3.6c-2.1,0-3.4-1.4-3.4-3.6c0-2.3,1.3-3.6,3.4-3.6
		C285.8,440.2,287.1,441.5,287.1,443.8z M281.5,443.8c0,1.7,0.9,2.7,2.3,2.7c1.4,0,2.3-1,2.3-2.7s-0.9-2.7-2.3-2.7
		C282.3,441.1,281.5,442.1,281.5,443.8z"/>
	<path class="st5" d="M293.4,440.3l-0.2,1.1c-0.2-0.1-0.5-0.2-0.9-0.2c-0.8,0-1.8,0.7-1.8,2.3v3.8h-1.1v-7h0.9l0.2,1.1
		c0.4-0.9,1.1-1.3,2.2-1.3C292.8,440.2,293.1,440.2,293.4,440.3z"/>
	<path class="st5" d="M297.6,443.8l-1.5,1.5v2H295v-10.2h1.1v6.8l3.6-3.6h1.4l-2.7,2.7l2.9,4.3H300L297.6,443.8z"/>
	<path class="st5" d="M308.5,445.4c0,0.7,0.2,0.9,0.8,0.9c0.4,0,0.6,0,1-0.2l-0.2,1.1c-0.3,0.1-0.7,0.2-1,0.2
		c-1.1,0-1.7-0.6-1.7-1.9v-8.5h1.1V445.4z"/>
	<path class="st5" d="M311.4,438.1c0-0.5,0.3-0.8,0.8-0.8c0.5,0,0.8,0.3,0.8,0.8s-0.3,0.8-0.8,0.8
		C311.7,439,311.4,438.6,311.4,438.1z M312.8,447.3h-1.1v-7h1.1V447.3z"/>
	<path class="st5" d="M317.1,440.3h2.3v1h-2.3v6h-1.1v-6h-1.4v-1h1.4v-1.2c0-1.2,0.8-2.1,2.3-2.1c0.5,0,0.9,0.1,1.2,0.3l-0.3,0.9
		c-0.2-0.1-0.5-0.2-0.8-0.2c-0.8,0-1.3,0.4-1.3,1.2V440.3z"/>
	<path class="st5" d="M326.7,444.2h-5.3c0.1,1.4,1,2.2,2.3,2.2c1,0,1.7-0.4,2-1l0.9,0.5c-0.5,1-1.4,1.5-2.9,1.5
		c-2.1,0-3.4-1.4-3.4-3.6c0-2.3,1.2-3.6,3.3-3.6c2,0,3.1,1.5,3.1,3.3C326.7,443.8,326.7,444,326.7,444.2z M321.4,443.2h4.2
		c-0.2-1.3-0.9-2.1-2.1-2.1C322.3,441.1,321.6,441.9,321.4,443.2z"/>
	<path class="st5" d="M334.7,442l-1.1,0.5c-0.3-0.9-0.9-1.4-1.9-1.4c-1.4,0-2.2,1-2.2,2.7s0.8,2.7,2.2,2.7c1.1,0,1.8-0.5,2-1.4
		l1,0.4c-0.5,1.3-1.5,2.1-3,2.1c-2.1,0-3.4-1.4-3.4-3.6c0-2.3,1.3-3.6,3.4-3.6C333.2,440.2,334.2,440.9,334.7,442z"/>
	<path class="st5" d="M339.1,448.5c-0.5,1.4-1.2,1.8-2.2,1.8c-0.7,0-1.1-0.2-1.5-0.6l0.4-1c0.3,0.4,0.7,0.6,1.1,0.6
		c0.5,0,0.9-0.2,1.3-1.1l0.4-0.9l-2.9-7h1.3l1.8,4.6l0.4,1.2l0.5-1.4l1.6-4.4h1.2L339.1,448.5z"/>
	<path class="st5" d="M349.8,442l-1.1,0.5c-0.3-0.9-0.9-1.4-1.9-1.4c-1.4,0-2.2,1-2.2,2.7s0.8,2.7,2.2,2.7c1.1,0,1.8-0.5,2-1.4
		l1,0.4c-0.5,1.3-1.5,2.1-3,2.1c-2.1,0-3.4-1.4-3.4-3.6c0-2.3,1.3-3.6,3.4-3.6C348.4,440.2,349.3,440.9,349.8,442z"/>
	<path class="st5" d="M352.9,445.4c0,0.7,0.2,0.9,0.8,0.9c0.4,0,0.6,0,1-0.2l-0.2,1.1c-0.3,0.1-0.7,0.2-1,0.2
		c-1.1,0-1.7-0.6-1.7-1.9v-8.5h1.1V445.4z"/>
	<path class="st5" d="M362.1,444.2h-5.3c0.1,1.4,1,2.2,2.3,2.2c1,0,1.7-0.4,2-1l0.9,0.5c-0.5,1-1.4,1.5-2.9,1.5
		c-2.1,0-3.4-1.4-3.4-3.6c0-2.3,1.2-3.6,3.3-3.6c2,0,3.1,1.5,3.1,3.3C362.2,443.8,362.1,444,362.1,444.2z M356.8,443.2h4.2
		c-0.2-1.3-0.9-2.1-2.1-2.1C357.8,441.1,357,441.9,356.8,443.2z"/>
</g>
<path class="st4" d="M252,496.5h-10.8c-0.8,0-1.4-0.6-1.4-1.4c0-0.8,0.6-1.4,1.4-1.4H252c0.8,0,1.4,0.6,1.4,1.4
	C253.4,495.8,252.8,496.5,252,496.5 M272.9,496.5h-10.8c-0.8,0-1.4-0.6-1.4-1.4c0-0.8,0.6-1.4,1.4-1.4h10.8c0.8,0,1.4,0.6,1.4,1.4
	C274.3,495.8,273.7,496.5,272.9,496.5z M293.9,496.5h-10.8c-0.8,0-1.4-0.6-1.4-1.4c0-0.8,0.6-1.4,1.4-1.4h10.8
	c0.8,0,1.4,0.6,1.4,1.4C295.3,495.8,294.7,496.5,293.9,496.5z M230.3,496.5h-10.8c-0.8,0-1.4-0.6-1.4-1.4c0-0.8,0.6-1.4,1.4-1.4
	h10.8c0.8,0,1.4,0.6,1.4,1.4C231.7,495.8,231.1,496.5,230.3,496.5z M208.7,496.3c-0.1,0-0.1,0-0.2,0c-3.8-0.5-7.5-2-10.6-4.2
	c-0.6-0.4-0.8-1.3-0.3-1.9c0.4-0.6,1.3-0.8,1.9-0.3c2.8,2,6,3.3,9.3,3.7c0.8,0.1,1.3,0.8,1.2,1.6C210,495.8,209.4,496.3,208.7,496.3
	z M191.8,484.2c-0.5,0-1-0.3-1.2-0.8c-1.7-3.3-2.5-6.8-2.5-10.5v-0.5c0-0.8,0.6-1.4,1.4-1.4c0.8,0,1.4,0.6,1.4,1.4v0.5
	c0,3.3,0.7,6.4,2.2,9.3c0.3,0.7,0.1,1.5-0.6,1.9C192.2,484.1,192,484.2,191.8,484.2z M189.4,462.9c-0.8,0-1.4-0.6-1.4-1.4v-10.8
	c0-0.8,0.6-1.4,1.4-1.4c0.8,0,1.4,0.6,1.4,1.4v10.8C190.8,462.2,190.2,462.9,189.4,462.9z"/>
<g>
	<path class="st1" d="M324.5,527.8c0,4.2-2.5,6.6-6.6,6.6h-4.3v-13.2h4.3C322,521.2,324.5,523.5,324.5,527.8z M322.8,527.8
		c0-3.2-1.8-5.1-4.8-5.1h-2.8v10.2h2.8C321,532.9,322.8,531,322.8,527.8z"/>
	<path class="st1" d="M337.5,532.9v1.5H328v-13.2h9.3v1.5h-7.7v4.3h6v1.5h-6v4.4H337.5z"/>
	<path class="st1" d="M349.9,532.9v1.5h-9.2v-13.2h1.6v11.7H349.9z"/>
	<path class="st1" d="M354.3,534.4h-1.6v-13.2h1.6V534.4z"/>
	<path class="st1" d="M363.9,534.4H362l-5-13.2h1.7l3.4,9.1l0.8,2.6l0.8-2.6l3.4-9.1h1.7L363.9,534.4z"/>
	<path class="st1" d="M381.1,532.9v1.5h-9.6v-13.2h9.3v1.5h-7.7v4.3h6v1.5h-6v4.4H381.1z"/>
	<path class="st1" d="M389.1,528.9h-3.2v5.5h-1.6v-13.2h5c2.7,0,4.5,1.5,4.5,3.9c0,1.9-1.1,3.2-2.9,3.7l3.7,5.7h-1.9L389.1,528.9z
		 M385.9,527.4h3.4c1.9,0,2.8-0.8,2.8-2.4c0-1.6-0.9-2.4-2.8-2.4h-3.4V527.4z"/>
	<path class="st1" d="M401.6,529.2v5.2H400v-5.2l-4.7-8h1.9l3.6,6.4l3.6-6.4h1.9L401.6,529.2z"/>
</g>
<text transform="matrix(1 0 0 1 311.4058 503.3607)" class="st1 st2 st3"></text>
<g>
	<path class="st5" d="M318.5,548.9c0,1.7-1.2,2.8-3.1,2.8h-2.1v3.6h-1.1v-9.2h3.3C317.2,546.1,318.5,547.1,318.5,548.9z
		 M317.3,548.9c0-1.1-0.6-1.8-2.1-1.8h-2v3.5h2C316.6,550.6,317.3,550,317.3,548.9z"/>
	<path class="st5" d="M326.7,554.4l-0.1,0.9c-0.2,0.1-0.5,0.1-0.8,0.1c-0.7,0-1.1-0.3-1.3-1c-0.4,0.7-1.4,1-2.3,1
		c-1.3,0-2.4-0.6-2.4-1.9c0-1.1,0.9-1.9,2.7-2.2l1.9-0.3v-0.4c0-0.9-0.6-1.5-1.6-1.5c-0.9,0-1.6,0.4-2,1.3l-0.8-0.6
		c0.4-1,1.5-1.7,2.8-1.7c1.6,0,2.8,0.8,2.8,2.4v3.4c0,0.3,0.1,0.5,0.5,0.5C326.3,554.5,326.6,554.5,326.7,554.4z M324.5,552.9v-1
		l-1.6,0.3c-1.2,0.2-1.9,0.6-1.9,1.3c0,0.6,0.5,0.9,1.3,0.9C323.5,554.5,324.5,553.9,324.5,552.9z"/>
	<path class="st5" d="M332.4,548.3l-0.2,1.1c-0.2-0.1-0.5-0.2-0.9-0.2c-0.8,0-1.8,0.7-1.8,2.3v3.8h-1.1v-7h0.9l0.2,1.1
		c0.4-0.9,1.1-1.3,2.2-1.3C331.9,548.2,332.2,548.2,332.4,548.3z"/>
	<path class="st5" d="M337.9,554.8c-0.4,0.4-1,0.6-1.8,0.6c-1,0-1.9-0.5-1.9-1.9v-4.3h-1.4v-1h1.4v-1.7l1.1-0.3v2h2.6v1h-2.6v4.1
		c0,0.7,0.4,1,1,1c0.5,0,0.9-0.2,1.2-0.5L337.9,554.8z"/>
	<path class="st5" d="M345.6,550.8v4.5h-1.1v-4.1c0-1.6-0.8-2.1-1.7-2.1c-1,0-2.2,0.6-2.2,2.4v3.7h-1.1v-7h1l0.1,1.1
		c0.5-0.9,1.4-1.2,2.4-1.2C344.4,548.2,345.6,549,345.6,550.8z"/>
	<path class="st5" d="M354.1,552.2h-5.3c0.1,1.4,1,2.2,2.3,2.2c1,0,1.7-0.4,2-1l0.9,0.5c-0.5,1-1.4,1.5-2.9,1.5
		c-2.1,0-3.4-1.4-3.4-3.6c0-2.3,1.2-3.6,3.3-3.6c2,0,3.1,1.5,3.1,3.3C354.2,551.8,354.1,552,354.1,552.2z M348.8,551.2h4.2
		c-0.2-1.3-0.9-2.1-2.1-2.1C349.8,549.1,349,549.9,348.8,551.2z"/>
	<path class="st5" d="M360.4,548.3l-0.2,1.1c-0.2-0.1-0.5-0.2-0.9-0.2c-0.8,0-1.8,0.7-1.8,2.3v3.8h-1.1v-7h0.9l0.2,1.1
		c0.4-0.9,1.1-1.3,2.2-1.3C359.8,548.2,360.2,548.2,360.4,548.3z"/>
	<path class="st5" d="M361.7,546.1c0-0.5,0.3-0.8,0.8-0.8c0.5,0,0.8,0.3,0.8,0.8s-0.3,0.8-0.8,0.8
		C362.1,547,361.7,546.6,361.7,546.1z M363.1,555.3H362v-7h1.1V555.3z"/>
	<path class="st5" d="M371.9,550.8v4.5h-1.1v-4.1c0-1.6-0.8-2.1-1.7-2.1c-1,0-2.2,0.6-2.2,2.4v3.7h-1.1v-7h1l0.1,1.1
		c0.5-0.9,1.4-1.2,2.4-1.2C370.6,548.2,371.9,549,371.9,550.8z"/>
	<path class="st5" d="M380.4,556.1c0,1.4-1.6,2.2-3.5,2.2c-2.2,0-3.2-0.8-3.2-1.8c0-0.6,0.5-1.1,1.2-1.4c-0.5-0.3-1-0.7-1-1.3
		c0-0.7,0.4-1.2,1-1.4c-0.7-0.4-1-1.1-1-1.9c0-1.4,1.2-2.4,2.9-2.4c0.5,0,1,0.1,1.4,0.3c0.3-1,0.9-1.4,2-1.4l0.3,1
		c-0.9,0-1.5,0.3-1.7,0.8c0.6,0.4,0.9,1,0.9,1.8c0,1.4-1.2,2.4-2.9,2.4c-0.4,0-0.8,0-1.1-0.1c-0.6,0.1-0.8,0.4-0.8,0.9
		c0,0.5,0.4,0.8,0.9,0.8h2.3C379.6,554.4,380.4,555.1,380.4,556.1z M379.4,556.2c0-0.5-0.3-0.8-1.4-0.8h-1.9c-0.9,0-1.3,0.3-1.3,0.9
		c0,0.7,0.8,1.1,2.3,1.1C378.6,557.4,379.4,556.8,379.4,556.2z M375.2,550.5c0,0.9,0.7,1.5,1.7,1.5s1.7-0.6,1.7-1.5
		c0-0.9-0.7-1.5-1.7-1.5S375.2,549.7,375.2,550.5z"/>
	<path class="st5" d="M390.9,554.8c-0.4,0.4-1,0.6-1.8,0.6c-1,0-1.9-0.5-1.9-1.9v-4.3h-1.4v-1h1.4v-1.7l1.1-0.3v2h2.6v1h-2.6v4.1
		c0,0.7,0.4,1,1,1c0.5,0,0.9-0.2,1.2-0.5L390.9,554.8z"/>
	<path class="st5" d="M398.8,551.8c0,2.3-1.3,3.6-3.4,3.6c-2.1,0-3.4-1.4-3.4-3.6c0-2.3,1.3-3.6,3.4-3.6
		C397.5,548.2,398.8,549.5,398.8,551.8z M393.1,551.8c0,1.7,0.9,2.7,2.3,2.7c1.4,0,2.3-1,2.3-2.7s-0.9-2.7-2.3-2.7
		C394,549.1,393.1,550.1,393.1,551.8z"/>
	<path class="st5" d="M409.7,554.8c-0.4,0.4-1,0.6-1.8,0.6c-1,0-1.9-0.5-1.9-1.9v-4.3h-1.4v-1h1.4v-1.7l1.1-0.3v2h2.6v1h-2.6v4.1
		c0,0.7,0.4,1,1,1c0.5,0,0.9-0.2,1.2-0.5L409.7,554.8z"/>
	<path class="st5" d="M415.4,548.3l-0.2,1.1c-0.2-0.1-0.5-0.2-0.9-0.2c-0.8,0-1.8,0.7-1.8,2.3v3.8h-1.1v-7h0.9l0.2,1.1
		c0.4-0.9,1.1-1.3,2.2-1.3C414.9,548.2,415.2,548.2,415.4,548.3z"/>
	<path class="st5" d="M423.1,554.4l-0.1,0.9c-0.2,0.1-0.5,0.1-0.8,0.1c-0.7,0-1.1-0.3-1.3-1c-0.4,0.7-1.4,1-2.3,1
		c-1.3,0-2.4-0.6-2.4-1.9c0-1.1,0.9-1.9,2.7-2.2l1.9-0.3v-0.4c0-0.9-0.6-1.5-1.6-1.5c-0.9,0-1.6,0.4-2,1.3l-0.8-0.6
		c0.4-1,1.5-1.7,2.8-1.7c1.6,0,2.8,0.8,2.8,2.4v3.4c0,0.3,0.1,0.5,0.5,0.5C422.8,554.5,423,554.5,423.1,554.4z M420.9,552.9v-1
		l-1.6,0.3c-1.2,0.2-1.9,0.6-1.9,1.3c0,0.6,0.5,0.9,1.3,0.9C419.9,554.5,420.9,553.9,420.9,552.9z"/>
	<path class="st5" d="M430.9,550.8v4.5h-1.1v-4.1c0-1.6-0.8-2.1-1.7-2.1c-1,0-2.2,0.6-2.2,2.4v3.7h-1.1v-7h1l0.1,1.1
		c0.5-0.9,1.4-1.2,2.4-1.2C429.7,548.2,430.9,549,430.9,550.8z"/>
	<path class="st5" d="M432.8,553.9l0.9-0.6c0.3,0.9,1.2,1.2,2.2,1.2c1.1,0,1.7-0.5,1.7-1c0-0.5-0.4-0.8-1.8-1.1
		c-2-0.4-2.7-0.9-2.7-2.1c0-1.1,1.1-2.1,2.8-2.1c1.5,0,2.4,0.5,2.8,1.7l-1,0.6c-0.3-0.9-0.9-1.3-1.8-1.3c-0.9,0-1.6,0.5-1.6,1
		c0,0.6,0.5,0.9,1.9,1.1c2,0.3,2.7,0.9,2.7,2.1c0,1.2-1.1,2.1-2.9,2.1C434.5,555.4,433.3,554.9,432.8,553.9z"/>
	<path class="st5" d="M440.5,546.1c0-0.5,0.3-0.8,0.8-0.8c0.5,0,0.8,0.3,0.8,0.8s-0.3,0.8-0.8,0.8
		C440.9,547,440.5,546.6,440.5,546.1z M441.9,555.3h-1.1v-7h1.1V555.3z"/>
	<path class="st5" d="M448.8,554.8c-0.4,0.4-1,0.6-1.8,0.6c-1,0-1.9-0.5-1.9-1.9v-4.3h-1.4v-1h1.4v-1.7l1.1-0.3v2h2.6v1h-2.6v4.1
		c0,0.7,0.4,1,1,1c0.5,0,0.9-0.2,1.2-0.5L448.8,554.8z"/>
	<path class="st5" d="M450.1,546.1c0-0.5,0.3-0.8,0.8-0.8c0.5,0,0.8,0.3,0.8,0.8s-0.3,0.8-0.8,0.8
		C450.4,547,450.1,546.6,450.1,546.1z M451.5,555.3h-1.1v-7h1.1V555.3z"/>
	<path class="st5" d="M460.5,551.8c0,2.3-1.3,3.6-3.4,3.6c-2.1,0-3.4-1.4-3.4-3.6c0-2.3,1.3-3.6,3.4-3.6
		C459.2,548.2,460.5,549.5,460.5,551.8z M454.8,551.8c0,1.7,0.9,2.7,2.3,2.7c1.4,0,2.3-1,2.3-2.7s-0.9-2.7-2.3-2.7
		C455.7,549.1,454.8,550.1,454.8,551.8z"/>
	<path class="st5" d="M468.8,550.8v4.5h-1.1v-4.1c0-1.6-0.8-2.1-1.7-2.1c-1,0-2.2,0.6-2.2,2.4v3.7h-1.1v-7h1l0.1,1.1
		c0.5-0.9,1.4-1.2,2.4-1.2C467.5,548.2,468.8,549,468.8,550.8z"/>
	<path class="st5" d="M482.4,551.8c0,2.3-1.3,3.6-3.4,3.6c-2.1,0-3.4-1.4-3.4-3.6c0-2.3,1.3-3.6,3.4-3.6
		C481.1,548.2,482.4,549.5,482.4,551.8z M476.8,551.8c0,1.7,0.9,2.7,2.3,2.7c1.4,0,2.3-1,2.3-2.7s-0.9-2.7-2.3-2.7
		C477.6,549.1,476.8,550.1,476.8,551.8z"/>
	<path class="st5" d="M490.4,548.3l-2.9,7h-1.1l-2.9-7h1.3l2.2,5.9l2.3-5.9H490.4z"/>
	<path class="st5" d="M497.8,552.2h-5.3c0.1,1.4,1,2.2,2.3,2.2c1,0,1.7-0.4,2-1l0.9,0.5c-0.5,1-1.4,1.5-2.9,1.5
		c-2.1,0-3.4-1.4-3.4-3.6c0-2.3,1.2-3.6,3.3-3.6c2,0,3.1,1.5,3.1,3.3C497.9,551.8,497.8,552,497.8,552.2z M492.5,551.2h4.2
		c-0.2-1.3-0.9-2.1-2.1-2.1C493.5,549.1,492.7,549.9,492.5,551.2z"/>
	<path class="st5" d="M504.1,548.3l-0.2,1.1c-0.2-0.1-0.5-0.2-0.9-0.2c-0.8,0-1.8,0.7-1.8,2.3v3.8H500v-7h0.9l0.2,1.1
		c0.4-0.9,1.1-1.3,2.2-1.3C503.5,548.2,503.9,548.2,504.1,548.3z"/>
	<path class="st5" d="M316.2,573.8c-0.4,0.4-1,0.6-1.8,0.6c-1,0-1.9-0.5-1.9-1.9v-4.3H311v-1h1.4v-1.7l1.1-0.3v2h2.6v1h-2.6v4.1
		c0,0.7,0.4,1,1,1c0.5,0,0.9-0.2,1.2-0.5L316.2,573.8z"/>
	<path class="st5" d="M324.1,570.8c0,2.3-1.3,3.6-3.4,3.6c-2.1,0-3.4-1.4-3.4-3.6c0-2.3,1.3-3.6,3.4-3.6
		C322.8,567.2,324.1,568.5,324.1,570.8z M318.4,570.8c0,1.7,0.9,2.7,2.3,2.7c1.4,0,2.3-1,2.3-2.7s-0.9-2.7-2.3-2.7
		C319.3,568.1,318.4,569.1,318.4,570.8z"/>
	<path class="st5" d="M335,573.8c-0.4,0.4-1,0.6-1.8,0.6c-1,0-1.9-0.5-1.9-1.9v-4.3h-1.4v-1h1.4v-1.7l1.1-0.3v2h2.6v1h-2.6v4.1
		c0,0.7,0.4,1,1,1c0.5,0,0.9-0.2,1.2-0.5L335,573.8z"/>
	<path class="st5" d="M342.7,569.8v4.5h-1.1v-4.1c0-1.6-0.8-2.1-1.7-2.1c-1,0-2.2,0.7-2.2,2.5v3.7h-1.1v-10.2h1.1v4.3
		c0.5-0.8,1.3-1.2,2.3-1.2C341.5,567.2,342.7,568,342.7,569.8z"/>
	<path class="st5" d="M351.2,571.2H346c0.1,1.4,1,2.2,2.3,2.2c1,0,1.7-0.4,2-1l0.9,0.5c-0.5,1-1.4,1.5-2.9,1.5
		c-2.1,0-3.4-1.4-3.4-3.6c0-2.3,1.2-3.6,3.3-3.6c2,0,3.1,1.5,3.1,3.3C351.3,570.8,351.3,571,351.2,571.2z M346,570.2h4.2
		c-0.2-1.3-0.9-2.1-2.1-2.1C346.9,568.1,346.1,568.9,346,570.2z"/>
	<path class="st5" d="M364.3,569.8v4.5h-1.1v-4.1c0-1.6-0.8-2.1-1.7-2.1c-1,0-2.2,0.6-2.2,2.4v3.7h-1.1v-7h1l0.1,1.1
		c0.5-0.9,1.4-1.2,2.4-1.2C363.1,567.2,364.3,568,364.3,569.8z"/>
	<path class="st5" d="M372.8,571.2h-5.3c0.1,1.4,1,2.2,2.3,2.2c1,0,1.7-0.4,2-1l0.9,0.5c-0.5,1-1.4,1.5-2.9,1.5
		c-2.1,0-3.4-1.4-3.4-3.6c0-2.3,1.2-3.6,3.3-3.6c2,0,3.1,1.5,3.1,3.3C372.9,570.8,372.8,571,372.8,571.2z M367.5,570.2h4.2
		c-0.2-1.3-0.9-2.1-2.1-2.1C368.5,568.1,367.7,568.9,367.5,570.2z"/>
	<path class="st5" d="M385,567.3l-2.4,7h-1.1l-2-5.6l-1.9,5.6h-1.1l-2.4-7h1.2l1.8,5.7l1.9-5.7h1.1l1.9,5.7l1.8-5.7H385z"/>
	<path class="st5" d="M397.9,570.8c0,2.3-1.2,3.6-3.2,3.6c-1.1,0-1.9-0.5-2.3-1.2v4h-1.1v-9.9h1l0.1,1.2c0.4-0.8,1.3-1.4,2.4-1.4
		C396.7,567.2,397.9,568.5,397.9,570.8z M396.8,570.8c0-1.6-0.8-2.7-2.2-2.7c-1.3,0-2.2,1-2.2,2.6v0.2c0,1.6,0.9,2.6,2.2,2.6
		C396,573.5,396.8,572.4,396.8,570.8z"/>
	<path class="st5" d="M404.2,567.3l-0.2,1.1c-0.2-0.1-0.5-0.2-0.9-0.2c-0.8,0-1.8,0.7-1.8,2.3v3.8h-1.1v-7h0.9l0.2,1.1
		c0.4-0.9,1.1-1.3,2.2-1.3C403.6,567.2,404,567.2,404.2,567.3z"/>
	<path class="st5" d="M411.9,570.8c0,2.3-1.3,3.6-3.4,3.6c-2.1,0-3.4-1.4-3.4-3.6c0-2.3,1.3-3.6,3.4-3.6
		C410.6,567.2,411.9,568.5,411.9,570.8z M406.3,570.8c0,1.7,0.9,2.7,2.3,2.7c1.4,0,2.3-1,2.3-2.7s-0.9-2.7-2.3-2.7
		C407.1,568.1,406.3,569.1,406.3,570.8z"/>
	<path class="st5" d="M419.9,567.3l-2.9,7h-1.1l-2.9-7h1.3l2.2,5.9l2.3-5.9H419.9z"/>
	<path class="st5" d="M421.1,565.1c0-0.5,0.3-0.8,0.8-0.8c0.5,0,0.8,0.3,0.8,0.8s-0.3,0.8-0.8,0.8
		C421.4,566,421.1,565.6,421.1,565.1z M422.5,574.3h-1.1v-7h1.1V574.3z"/>
	<path class="st5" d="M424.5,572.9l0.9-0.6c0.3,0.9,1.2,1.2,2.2,1.2c1.1,0,1.7-0.5,1.7-1c0-0.5-0.4-0.8-1.8-1.1
		c-2-0.4-2.7-0.9-2.7-2.1c0-1.1,1.1-2.1,2.8-2.1c1.5,0,2.4,0.5,2.8,1.7l-1,0.6c-0.3-0.9-0.9-1.3-1.8-1.3c-0.9,0-1.6,0.5-1.6,1
		c0,0.6,0.5,0.9,1.9,1.1c2,0.3,2.7,0.9,2.7,2.1c0,1.2-1.1,2.1-2.9,2.1C426.2,574.4,425,573.9,424.5,572.9z"/>
	<path class="st5" d="M432.2,565.1c0-0.5,0.3-0.8,0.8-0.8c0.5,0,0.8,0.3,0.8,0.8s-0.3,0.8-0.8,0.8
		C432.5,566,432.2,565.6,432.2,565.1z M433.6,574.3h-1.1v-7h1.1V574.3z"/>
	<path class="st5" d="M442.5,570.8c0,2.3-1.3,3.6-3.4,3.6c-2.1,0-3.4-1.4-3.4-3.6c0-2.3,1.3-3.6,3.4-3.6
		C441.3,567.2,442.5,568.5,442.5,570.8z M436.9,570.8c0,1.7,0.9,2.7,2.3,2.7c1.4,0,2.3-1,2.3-2.7s-0.9-2.7-2.3-2.7
		C437.7,568.1,436.9,569.1,436.9,570.8z"/>
	<path class="st5" d="M450.8,569.8v4.5h-1.1v-4.1c0-1.6-0.8-2.1-1.7-2.1c-1,0-2.2,0.6-2.2,2.4v3.7h-1.1v-7h1l0.1,1.1
		c0.5-0.9,1.4-1.2,2.4-1.2C449.6,567.2,450.8,568,450.8,569.8z"/>
</g>
<g>
	<g>
		<path class="st0" d="M151,232.7h-8.8v-4.1c0-1.1-0.9-2-2-2c-1.1,0-2,0.9-2,2v4.1h-12.2v-4.1c0-1.1-0.9-2-2-2s-2,0.9-2,2v4.1h-12.2
			v-4.1c0-1.1-0.9-2-2-2s-2,0.9-2,2v4.1h-8.8c-3,0-5.4,2.4-5.4,5.4v48.1c0,3,2.4,5.4,5.4,5.4H151c3,0,5.4-2.4,5.4-5.4v-48.1
			C156.4,235.1,154,232.7,151,232.7z M153.4,286.6c0,0.7-2.3,2-3,2h-53c-0.7,0-3-2.3-3-3v-47c0-0.7,2.3-3,3-3h8l0.2,5.2
			c0,1.1,0.9,2,2,2s2-0.9,2-2l-0.3-5.2h12l0.5,5.2c0,1.1,0.9,2,2,2s2-0.9,2-2l-0.5-5.2h13l-0.3,5.2c0,1.1,0.9,2,2,2c1.1,0,2-0.9,2-2
			l0.2-5.2h8c0.7,0,3,2.3,3,3V286.6z M105.4,257.6h8v-6h-8V257.6z M105.4,267.6h8v-6h-8V267.6z M105.4,277.6h8v-6h-8V277.6z
			 M121.4,277.6h8v-6h-8V277.6z M121.4,267.6h8v-6h-8V267.6z M121.4,257.6h8v-6h-8V257.6z M136.4,277.6h8v-6h-8V277.6z M136.4,267.6
			h8v-6h-8V267.6z M136.4,257.6h8v-6h-8V257.6z"/>
	</g>
</g>
<g>
	<g>
		<path class="st0" d="M193.3,432.3h-23c-1.7,0-4-0.2-4-2v-50c0-1.8,2.3-3,4-3h32l-0.1,4.7c0,2.9,3.8,5.5,6.6,5.5l4.5,0.8v18
			c0,0.5,0.9,1.4,1.4,1.4c0.5,0,1.6-0.9,1.6-1.4v-20c0,0-0.6-0.6-0.6-0.6c0,0,0,0,0-0.1c0,0,0,0,0,0c0,0,0-0.1,0-0.1c0,0,0,0,0,0
			c0,0,0-0.1,0-0.1c0,0,0,0,0,0c0,0,0,0,0-0.1c0,0,0,0,0,0c0,0,0,0,0-0.1c0,0,0,0,0,0c0,0,0,0,0-0.1c0,0,0,0,0,0c0,0,0,0-0.1-0.1
			L205,374.6c0,0,0,0-0.1-0.1c0,0,0,0,0,0c0,0,0,0-0.1,0c0,0,0,0,0,0c0,0,0,0-0.1,0c0,0,0,0,0,0c0,0,0,0-0.1,0c0,0,0,0,0,0
			c0,0-0.1,0-0.1,0c0,0,0,0,0,0c0,0-0.1,0-0.1,0c0,0,0,0,0,0c0,0,0,0-0.1,0c0,0-0.1,0-0.1,0h-36c-2.8,0-5.1,2.3-5.1,5.2v50.3
			c0,2.9,2.2,5.5,5,5.5h25c0.5,0,1.7-0.7,1.7-1.3C195,433.5,193.8,432.3,193.3,432.3z M205.3,377.7l7,7.1h-3.9
			c-1.7,0-3.2-1.4-3.2-3.2V377.7z M210.6,417.3c-4.5,0-8.2,3.7-8.2,8.3c0,4.6,3.7,8.3,8.2,8.3c4.5,0,8.2-3.7,8.2-8.3
			C218.8,421,215.1,417.3,210.6,417.3z M210.4,430.3c-2.7,0-5-2.2-5-4.9c0-2.7,2.2-4.9,5-4.9s5,2.2,5,4.9
			C215.4,428.1,213.1,430.3,210.4,430.3z M224.3,428.9l-0.6-0.4c0.2-1,0.3-1.9,0.3-2.9c0-1-0.1-1.9-0.3-2.9l0.6-0.4
			c0.5-0.3,0.8-0.7,0.9-1.2c0.1-0.5,0.1-1.1-0.2-1.5l-2.1-3.6c-0.3-0.5-0.7-0.8-1.2-0.9c-0.5-0.1-1.1-0.1-1.5,0.2l-0.6,0.4
			c-1.4-1.3-3.1-2.3-4.9-2.9V412c0-1.1-0.9-2-2-2h-4.1c-1.1,0-2,0.9-2,2v0.7c-1.8,0.6-3.5,1.6-4.9,2.9l-0.6-0.4
			c-0.5-0.3-1-0.3-1.5-0.2c-0.5,0.1-1,0.5-1.2,0.9l-2.1,3.6c-0.3,0.5-0.3,1-0.2,1.5c0.1,0.5,0.5,1,0.9,1.2l0.6,0.4
			c-0.2,1-0.3,1.9-0.3,2.9c0,1,0.1,1.9,0.3,2.9l-0.6,0.4c-0.5,0.3-0.8,0.7-0.9,1.2c-0.1,0.5-0.1,1.1,0.2,1.5l2.1,3.6
			c0.6,1,1.8,1.3,2.7,0.7l0.6-0.4c1.4,1.3,3.1,2.3,4.9,2.9v0.7c0,1.1,0.9,2,2,2h4.1c1.1,0,2-0.9,2-2v-0.7c1.8-0.6,3.5-1.6,4.9-2.9
			l0.6,0.4c1,0.6,2.2,0.2,2.7-0.7l2.1-3.6c0.3-0.5,0.3-1,0.2-1.5C225.1,429.6,224.7,429.1,224.3,428.9z M221.6,422.5
			c0.3,1,0.4,2.1,0.4,3.1c0,1-0.1,2.1-0.4,3.1c-0.1,0.4,0.1,0.9,0.5,1.1l1.2,0.7c0,0,0,0,0,0c0,0,0,0,0,0l-2.1,3.6c0,0-0.1,0-0.1,0
			l-1.2-0.7c-0.4-0.2-0.9-0.2-1.2,0.2c-1.5,1.5-3.3,2.6-5.3,3.1c-0.4,0.1-0.7,0.5-0.7,1v1.5c0,0,0,0.1-0.1,0.1h-4.1
			c0,0-0.1,0-0.1-0.1v-1.5c0-0.4-0.3-0.8-0.7-1c-2-0.5-3.9-1.6-5.3-3.1c-0.2-0.2-0.4-0.3-0.7-0.3c-0.2,0-0.3,0-0.5,0.1l-1.2,0.7
			c0,0-0.1,0-0.1,0l-2.1-3.6c0,0,0,0,0,0c0,0,0,0,0,0l1.2-0.7c0.4-0.2,0.6-0.7,0.5-1.1c-0.3-1-0.4-2.1-0.4-3.1c0-1,0.1-2.1,0.4-3.1
			c0.1-0.4-0.1-0.9-0.5-1.1l-1.2-0.7c0,0,0,0,0,0c0,0,0,0,0,0l2.1-3.6c0,0,0.1,0,0.1,0l1.2,0.7c0.4,0.2,0.9,0.2,1.2-0.2
			c1.5-1.5,3.3-2.6,5.3-3.1c0.4-0.1,0.7-0.5,0.7-1V412c0,0,0-0.1,0.1-0.1h4.1c0,0,0.1,0,0.1,0.1v1.5c0,0.4,0.3,0.8,0.7,1
			c2,0.5,3.9,1.6,5.3,3.1c0.3,0.3,0.8,0.4,1.2,0.2l1.2-0.7c0,0,0.1,0,0.1,0l2.1,3.6c0,0,0,0,0,0c0,0,0,0,0,0l-1.2,0.7
			C221.7,421.6,221.5,422.1,221.6,422.5z M179.9,390.8h-2.1c-0.5,0-1,0.4-1,1c0,0.5,0.4,1,1,1h2.1c0.5,0,1-0.4,1-1
			C180.9,391.2,180.4,390.8,179.9,390.8z M184,392.7h2.1c0.5,0,1-0.4,1-1c0-0.5-0.4-1-1-1H184c-0.5,0-1,0.4-1,1
			C183.1,392.2,183.5,392.7,184,392.7z M200.6,390.8h-10.4c-0.5,0-1,0.4-1,1c0,0.5,0.4,1,1,1h10.4c0.5,0,1-0.4,1-1
			C201.6,391.2,201.2,390.8,200.6,390.8z M193.3,396.8c0-0.5-0.4-1-1-1H184c-0.5,0-1,0.4-1,1c0,0.5,0.4,1,1,1h8.3
			C192.9,397.8,193.3,397.3,193.3,396.8z M195.5,396.8c0,0.5,0.4,1,1,1h7.3c0.5,0,1-0.4,1-1c0-0.5-0.4-1-1-1h-7.3
			C195.9,395.9,195.5,396.3,195.5,396.8z M179.9,395.9h-2.1c-0.5,0-1,0.4-1,1c0,0.5,0.4,1,1,1h2.1c0.5,0,1-0.4,1-1
			C180.9,396.3,180.4,395.9,179.9,395.9z M180.9,401.9c0-0.5-0.4-1-1-1h-2.1c-0.5,0-1,0.4-1,1c0,0.5,0.4,1,1,1h2.1
			C180.4,402.8,180.9,402.4,180.9,401.9z M191.3,402.8h17.6c0.5,0,1-0.4,1-1c0-0.5-0.4-1-1-1h-17.6c-0.5,0-1,0.4-1,1
			C190.3,402.4,190.8,402.8,191.3,402.8z M184,400.9c-0.5,0-1,0.4-1,1c0,0.5,0.4,1,1,1h3.1c0.5,0,1-0.4,1-1c0-0.5-0.4-1-1-1H184z
			 M195,406.8h-11.4c-0.5,0-1,0.4-1,1c0,0.5,0.4,1,1,1H195c0.5,0,1-0.4,1-1C196,407.3,195.6,406.8,195,406.8z M182.6,417.2h4.1
			c0.5,0,1-0.4,1-1c0-0.5-0.4-1-1-1h-4.1c-0.5,0-1,0.4-1,1C181.7,416.7,182.1,417.2,182.6,417.2z M179.5,406.8h-2.1
			c-0.5,0-1,0.4-1,1c0,0.5,0.4,1,1,1h2.1c0.5,0,1-0.4,1-1C180.5,407.3,180.1,406.8,179.5,406.8z M176.8,416.9
			c0.2,0.2,0.4,0.3,0.7,0.3c0.2,0,0.5-0.1,0.7-0.3l2.1-2.1c0.4-0.4,0.4-1,0-1.4l-2.1-2.1c-0.4-0.4-1-0.4-1.4,0c-0.4,0.4-0.4,1,0,1.4
			l1.4,1.4l-1.4,1.4C176.4,415.9,176.4,416.5,176.8,416.9z"/>
	</g>
</g>
<g>
	<g>
		<path class="st0" d="M284.1,521.8C284.1,521.7,284.1,521.7,284.1,521.8C284.1,521.7,284.1,521.7,284.1,521.8
			C284.1,521.7,284.1,521.7,284.1,521.8C284.1,521.7,284.1,521.7,284.1,521.8c0-0.1,0-0.1,0-0.1c0,0,0,0,0-0.1c0,0,0,0,0,0
			c0,0,0,0,0,0c0,0,0,0,0-0.1c0,0,0,0,0,0c0,0,0,0,0,0c0,0,0,0,0,0c0,0,0,0,0,0c0,0,0,0,0,0c0,0,0,0,0,0c0,0,0,0,0-0.1c0,0,0,0,0,0
			c0,0,0,0,0,0c0,0,0,0,0,0c0,0,0,0,0-0.1c0,0,0,0,0,0c0,0,0,0,0,0c0,0,0,0,0,0c0,0,0,0,0,0c0,0,0,0,0,0c0,0,0,0,0,0c0,0,0,0,0,0
			c0,0,0,0,0,0c0,0,0,0,0,0c0,0,0,0,0,0c0,0,0,0,0,0c0,0,0,0-0.1,0c0,0,0,0,0,0c0,0,0,0,0,0c0,0,0,0,0,0c0,0,0,0,0,0c0,0,0,0,0,0
			c0,0,0,0,0,0c0,0,0,0,0,0c0,0,0,0,0,0c0,0,0,0,0,0c0,0,0,0-0.1,0c0,0,0,0,0,0c0,0,0,0,0,0c0,0,0,0-0.1,0c0,0,0,0,0,0c0,0,0,0,0,0
			c0,0,0,0,0,0h0c0,0,0,0-0.1,0c0,0,0,0,0,0c0,0,0,0,0,0c0,0,0,0,0,0c0,0,0,0,0,0c0,0,0,0-0.1,0c0,0,0,0,0,0c0,0,0,0,0,0
			c0,0,0,0-0.1,0c0,0,0,0,0,0c0,0,0,0,0,0l-63.9,24.5c-0.4,0.2-0.7,0.5-0.7,1c0,0.4,0.3,0.8,0.7,1l19.1,7.2l6.1,18.6c0,0,0,0,0,0
			c0,0,0,0,0,0c0,0,0,0.1,0.1,0.1c0,0,0,0,0,0c0,0,0,0.1,0.1,0.1c0,0,0,0,0,0c0,0,0,0,0,0c0,0,0,0,0,0c0,0,0,0,0,0c0,0,0,0,0,0
			c0,0,0,0,0,0c0,0,0,0,0,0c0,0,0,0,0,0c0,0,0,0,0,0c0,0,0,0,0,0c0,0,0,0,0.1,0c0,0,0,0,0,0c0,0,0,0,0,0c0,0,0,0,0,0
			c0,0,0.1,0,0.1,0.1c0,0,0,0,0,0c0,0,0,0,0,0c0,0,0.1,0,0.1,0c0,0,0,0,0,0c0,0,0,0,0,0c0,0,0.1,0,0.1,0c0,0,0,0,0,0c0,0,0,0,0,0
			c0,0,0.1,0,0.1,0c0,0,0,0,0,0c0,0,0.1,0,0.1,0c0,0,0,0,0,0c0,0,0,0,0,0c0,0,0.1,0,0.1,0c0,0,0,0,0,0c0,0,0,0,0,0c0,0,0,0,0,0
			c0,0,0,0,0,0c0,0,0,0,0.1,0c0,0,0,0,0,0c0,0,0,0,0,0c0,0,0,0,0,0c0,0,0,0,0.1,0c0,0,0,0,0,0v0c0,0,0,0,0,0c0,0,0,0,0,0
			c0,0,0,0,0,0c0,0,0,0,0,0c0,0,0,0,0,0c0,0,0.1-0.1,0.1-0.1c0,0,0,0,0,0c0,0,0,0,0,0c0,0,0,0,0,0l7.5-10.1c0.3-0.5,0.2-1.1-0.2-1.4
			c-0.5-0.3-1.1-0.2-1.4,0.2l-3.3,4.4l2.6-7l24.6,9.2c0.1,0,0.2,0.1,0.4,0.1c0.2,0,0.4,0,0.5-0.1c0.3-0.2,0.5-0.4,0.5-0.7l7.1-45.9
			c0,0,0,0,0,0c0,0,0,0,0-0.1C284.1,521.9,284.1,521.9,284.1,521.8C284.1,521.9,284.1,521.8,284.1,521.8
			C284.1,521.8,284.1,521.8,284.1,521.8C284.1,521.8,284.1,521.8,284.1,521.8z M249.6,556.5c-0.1,0.1-0.2,1.1-0.2,1.2
			c0,0,0-0.9,0-0.8l-4,10.8l-4.9-15c-0.1-0.3-1.1,0-1.4-0.1c0,0,0.8-0.5,0.8-0.5l-15.7-5.9l49.9-19l-27.4,19.4
			c-0.5,0.3-0.6,1-0.2,1.4c0.2,0.3,0.5,0.4,0.8,0.4c0.2,0,0.4-0.1,0.6-0.2l26.1-18.7L249.6,556.5z M274.1,564.8l-22.2-8l28.2-31
			L274.1,564.8z M243.4,549l-2,1.4c-0.5,0.3-0.6,1-0.2,1.4c0.2,0.3,0.5,0.4,0.8,0.4c0.2,0,0.4-0.1,0.6-0.2l2-1.4
			c0.5-0.3,0.6-1,0.2-1.4C244.5,548.8,243.8,548.7,243.4,549z"/>
	</g>
</g>
</svg>
