<?xml version="1.0" encoding="utf-8"?>
<!-- Generator: Adobe Illustrator 19.0.0, SVG Export Plug-In . SVG Version: 6.00 Build 0)  -->
<svg version="1.1" id="Isolation_Mode" xmlns="http://www.w3.org/2000/svg" xmlns:xlink="http://www.w3.org/1999/xlink" x="0px"
	 y="0px" viewBox="0 0 143 67" style="enable-background:new 0 0 143 67;" xml:space="preserve">
<style type="text/css">
	.st0{fill:#2BADE3;}
</style>
<g>
	<path class="st0" d="M59.9,36.1c0.6-0.6,0.9-1.4,0.9-2.2c0-0.8-0.3-1.6-0.9-2.2L56,28.1c-1.2-1.2-3.2-1.2-4.4,0L33.4,46.3
		L20.9,33.5l18.3-18.3c0.6-0.6,0.9-1.4,0.9-2.2c0-0.8-0.3-1.6-0.9-2.2l-3.7-3.6c-0.6-0.6-1.4-0.9-2.2-0.9c-0.8,0-1.6,0.3-2.2,0.9
		L6.9,31.4c-1.2,1.2-1.2,3.2,0,4.4l24.5,24.5c1.2,1.2,3.2,1.2,4.4,0L59.9,36.1z M33.6,58.8c-0.4,0-0.8-0.2-1.2-0.6L8.8,34.7
		c-0.7-0.7-0.7-1.5,0-2.3L32.1,9.2c0.6-0.6,1.6-0.6,2.2,0l2.8,2.7c0.4,0.4,0.5,0.8,0.4,1.3c-0.1,0.5-0.5,1.1-1.2,1.7L17.8,33.5
		l15.6,15.8L52.7,30c0.6-0.6,1.6-0.6,2.2,0l3,2.8c0.3,0.3,0.5,0.7,0.5,1.1c0,0.4-0.2,0.8-0.5,1.1L34.7,58.3
		C34.4,58.6,34,58.8,33.6,58.8z"/>
	<path class="st0" d="M28.1,30.9c-0.6,0.6-0.9,1.4-0.9,2.2c0,0.8,0.3,1.6,0.9,2.2L32,39c1.2,1.2,3.2,1.2,4.4,0l18.2-18.2l12.6,12.8
		L48.9,51.9C48.3,52.5,48,53.2,48,54c0,0.8,0.3,1.6,0.9,2.2l3.7,3.6c0.6,0.6,1.4,0.9,2.2,0.9c0.8,0,1.6-0.3,2.2-0.9l24.2-24.2
		c1.2-1.2,1.2-3.2,0-4.4L56.6,6.8c-1.2-1.2-3.2-1.2-4.4,0L28.1,30.9z M54.4,8.2c0.4,0,0.8,0.2,1.2,0.6l23.6,23.6
		c0.7,0.7,0.7,1.5,0,2.3L55.9,57.9c-0.6,0.6-1.6,0.6-2.2,0l-2.8-2.7c-0.4-0.4-0.5-0.8-0.4-1.3c0.1-0.5,0.5-1.1,1.2-1.7l18.5-18.5
		L54.6,17.7L35.3,37c-0.6,0.6-1.6,0.6-2.2,0l-3-2.8c-0.3-0.3-0.5-0.7-0.5-1.1c0-0.4,0.2-0.8,0.5-1.1L53.3,8.8
		C53.6,8.4,54,8.2,54.4,8.2z"/>
</g>
<rect x="90" y="32" class="st0" width="46.5" height="3"/>
</svg>
