<?xml version="1.0" encoding="utf-8"?>
<!-- Generator: Adobe Illustrator 19.0.0, SVG Export Plug-In . SVG Version: 6.00 Build 0)  -->
<svg version="1.1" id="Layer_2" xmlns="http://www.w3.org/2000/svg" xmlns:xlink="http://www.w3.org/1999/xlink" x="0px" y="0px"
	 viewBox="0 0 195.4 160.6" style="enable-background:new 0 0 195.4 160.6;" xml:space="preserve">
<style type="text/css">
	.st0{fill:#F9A452;}
	.st1{fill:#FFFFFF;}
	.st2{fill:#D8D8D9;}
	.st3{fill:#C3C3C6;}
	.st4{fill:#252D3D;}
</style>
<g>
	<path class="st0" d="M21.2,94.3H25v-77c0-7.4,6-13.5,13.5-13.5c7.4,0,13.5,6,13.5,13.5v46.2c0,9.6,7.8,17.3,17.3,17.3
		c9.6,0,17.3-7.8,17.3-17.3V48.1c0-7.4,6-13.5,13.5-13.5h95.3v-3.8h-95.3c-9.6,0-17.3,7.8-17.3,17.3v15.4c0,7.4-6,13.5-13.5,13.5
		c-7.4,0-13.5-6-13.5-13.5V17.3C55.8,7.8,48,0,38.5,0c-9.5,0-17.3,7.8-17.3,17.3"/>
	<path class="st1" d="M23.1,79.8c12.8,0,23.1,10.3,23.1,23.1H23.1"/>
	<path class="st2" d="M0,102.9c0-12.8,10.3-23.1,23.1-23.1v23.1"/>
	<rect y="102.9" class="st2" width="23.1" height="5.8"/>
	<path class="st3" d="M23.1,108.7v52C10.3,160.6,0,150.3,0,137.5v-28.9"/>
	<rect x="23.1" y="102.9" class="st1" width="23.1" height="5.8"/>
	<path class="st2" d="M46.2,108.7v28.9c0,12.8-10.3,23.1-23.1,23.1v-52"/>
	<path class="st4" d="M23.1,111.5c1.6,0,2.9-1.3,2.9-2.9V97.1c0-1.6-1.3-2.9-2.9-2.9c-1.6,0-2.9,1.3-2.9,2.9v11.5
		C20.2,110.3,21.5,111.5,23.1,111.5"/>
</g>
</svg>
