<?xml version="1.0" encoding="utf-8"?>
<!-- Generator: Adobe Illustrator 19.0.0, SVG Export Plug-In . SVG Version: 6.00 Build 0)  -->
<svg version="1.1" id="Layer_12" xmlns="http://www.w3.org/2000/svg" xmlns:xlink="http://www.w3.org/1999/xlink" x="0px" y="0px"
	 viewBox="0 0 247.4 157.5" style="enable-background:new 0 0 247.4 157.5;" xml:space="preserve">
<style type="text/css">
	.st0{fill:#F8971D;}
	.st1{fill-rule:evenodd;clip-rule:evenodd;fill:#F8971D;}
	.st2{fill-rule:evenodd;clip-rule:evenodd;fill:#FFFFFF;}
	.st3{fill-rule:evenodd;clip-rule:evenodd;fill:#40494E;}
</style>
<g>
	<path class="st0" d="M-2.6,65.1c3,13.8,7.7,25.9,14.8,34.3c7.1,8.6,16.6,13.4,28.9,12.5c7.3-0.5,15.5-3.1,24.8-8
		c-3-3.1-5.5-6.9-7.3-11.5c-2.7-6.9-3.8-15.4-2.9-25.9l2,0c-0.9,10.2,0.1,18.4,2.7,25c1.8,4.5,4.3,8.2,7.4,11.3
		c2.5-1.4,5-2.9,7.7-4.7c15.7-10.3,24.2-20.9,27.9-30.6l2.1,0c-3.7,10.3-12.6,21.6-29,32.4c-2.4,1.6-4.7,3-7,4.3
		c1.3,1.1,2.8,2.2,4.3,3.1c5.9,3.6,13.2,5.7,21.1,6.6c24.7,2.7,56-6.4,76.3-16.1l5.9-2.5l3.9,0.6l-9,3.9
		c-20.5,9.7-52.2,18.9-77.3,16.2c-8.2-0.9-15.7-3-21.9-6.8c-1.9-1.1-3.6-2.4-5.2-3.9c-9.9,5.3-18.6,8.1-26.3,8.6
		c-13,1-23-4.1-30.5-13.2C3.3,92.1-1.7,79.5-4.7,65.1L-2.6,65.1z M-4.1-21l2,0.4c-5,26-6.1,58.3-0.7,84.5c0.1,0.4,0.2,0.8,0.2,1.2
		l-2.1,0l-0.1-0.6C-10.3,37.9-9.1,5.3-4.1-21L-4.1-21z M103.4,67.6c1.6-4.1,2.2-8,2.2-11.7c0-8.9-4.2-16.2-10.1-20.6
		C89.6,31,82,29.6,75.2,32.7c-8.3,3.8-15.6,14.1-17.4,33.7l0,0.1l-2,0l0-0.3c1.9-20.5,9.7-31.5,18.7-35.5c7.5-3.4,15.8-1.9,22.2,2.8
		c6.4,4.7,11,12.7,11,22.4c0,3.7-0.6,7.6-2.1,11.7L103.4,67.6z"/>
	<g>
		<path class="st1" d="M240.6,99.2c-0.3,13.8-15.3,24.7-33.3,24.2c-18-0.4-32.5-12-32.1-25.8c0.3-13.8,15.3-24.7,33.3-24.2
			C226.5,73.8,240.9,85.4,240.6,99.2z"/>
		<path class="st2" d="M231.2,99c-0.3,11.4-12.7,20.4-27.6,20.1c-14.9-0.4-26.9-9.9-26.6-21.3c0.3-11.4,12.7-20.4,27.6-20.1
			C219.5,78,231.5,87.5,231.2,99z"/>
		<path class="st1" d="M175.1,97.6c0,0.2,0,0.4,0,0.5l17.1,0.4l0-1.1l-17.1-0.4C175.1,97.3,175.1,97.5,175.1,97.6z"/>
		<path class="st3" d="M179.6,95.8l-0.1,3.9c0,0.9,0.7,1.6,1.5,1.6l17.6,0.4c0.9,0,1.6-0.7,1.6-1.5l0.1-3.9c0-0.9-0.7-1.6-1.5-1.6
			l-17.6-0.4C180.3,94.2,179.6,94.9,179.6,95.8z"/>
		<path class="st1" d="M180.8,96.7l0,2.1c0,0.5,0.4,0.9,0.9,0.9l16.6,0.4c0.5,0,0.9-0.4,0.9-0.9l0-2.1c0-0.5-0.4-0.9-0.9-0.9
			l-16.6-0.4C181.2,95.8,180.8,96.2,180.8,96.7z"/>
	</g>
</g>
</svg>
