<?xml version="1.0" encoding="utf-8"?>
<!-- Generator: Adobe Illustrator 19.0.0, SVG Export Plug-In . SVG Version: 6.00 Build 0)  -->
<svg version="1.1" id="Layer_1" xmlns="http://www.w3.org/2000/svg" xmlns:xlink="http://www.w3.org/1999/xlink" x="0px" y="0px"
	 viewBox="0 0 55 55" style="enable-background:new 0 0 55 55;" xml:space="preserve">
<style type="text/css">
	.st0{fill:#ECECEC;}
	.st1{clip-path:url(#XMLID_11_);fill:#EF4328;}
	.st2{fill:#FFFFFF;}
</style>
<circle id="XMLID_9_" class="st0" cx="27.5" cy="27.5" r="25"/>
<g>
	<defs>
		<path id="XMLID_7_" d="M11.7,11.6c4-4.1,9.7-6.7,15.8-6.7c6.2,0,11.8,2.6,15.9,6.7c4,4.1,6.5,9.7,6.5,15.9
			c0,6.2-2.6,11.8-6.5,15.9c-4.1,4.1-9.7,6.7-15.9,6.7c-6.2,0-11.8-2.5-15.8-6.7c-4-4.1-6.5-9.7-6.5-15.9
			C5.1,21.3,7.7,15.7,11.7,11.6"/>
	</defs>
	<clipPath id="XMLID_11_">
		<use xlink:href="#XMLID_7_"  style="overflow:visible;"/>
	</clipPath>
	<path id="XMLID_8_" class="st1" d="M50.6,35c0,8.4-6.9,15.3-15.3,15.3H19.9c-8.4,0-15.3-6.9-15.3-15.3V19.6
		c0-8.4,6.9-15.3,15.3-15.3h15.3c8.4,0,15.3,6.9,15.3,15.3V35"/>
</g>
<g>
	<g id="XMLID_53_">
		<path id="XMLID_54_" class="st2" d="M29.2,24.3c-0.4,0-0.7,0.4-0.8,0.8c0,0.4,0.4,0.8,0.8,0.8c0.4,0,0.7-0.4,0.8-0.8
			c0-0.1-0.1-0.3-0.1-0.4c0.2-0.2,0.4-0.5,0.6-0.7c0.1-0.1,0.1-0.1,0.2-0.2c0.2,0.1,0.4,0.2,0.6,0.3c0.2,0,0.4-0.1,0.6-0.2
			c0.3,0.4,0.6,0.7,1,1.1c-0.1,0.2-0.2,0.5-0.2,0.7c0,0.7,0.5,1.1,1.1,1.2c0.6,0,1.1-0.6,1.1-1.2c0-0.3-0.1-0.6-0.4-0.8
			c0.3-0.5,0.6-0.9,0.9-1.4c0.7,0.3,1.7-0.1,1.8-1.2c0-0.7-0.6-1.3-1.3-1.3c-0.7,0-1.3,0.6-1.3,1.3c0,0.5,0.2,0.8,0.5,1
			c-0.3,0.4-0.6,0.9-0.9,1.3c-0.2-0.1-0.3-0.1-0.5-0.2c-0.3,0-0.5,0.1-0.7,0.2c-0.3-0.4-0.7-0.8-1-1.1c0.1-0.1,0.1-0.3,0.1-0.4
			c0-0.5-0.4-0.9-0.9-0.9c-0.5,0-0.9,0.4-0.9,0.9c0,0.1,0,0.3,0.1,0.4c-0.3,0.3-0.5,0.7-0.8,1C29.5,24.3,29.4,24.3,29.2,24.3z
			 M40.8,15.4H17.4c-0.6,0-0.8,0.5-0.8,1.1v7.1h1.1v-7.1h23v16.6H24.7V35h1.1l-0.9,2.7h-1.1c-0.3,0-0.5,0.2-0.5,0.5v0.8
			c0,0.3,0.2,0.5,0.5,0.5h11c0.3,0,0.5-0.2,0.5-0.5v-0.8c0-0.3-0.2-0.5-0.5-0.5h-1.1L32.8,35h8c0.6,0,1-0.5,1-1.1V16.5
			C41.8,15.9,41.4,15.4,40.8,15.4z M24.5,27.8c-0.6-2.7-3.2-4.4-5.9-3.9c-2.7,0.6-4.4,3.3-3.8,6c0.2,1.1,0.8,2,1.5,2.6l-3,4.8
			c-0.2,0.4-0.1,0.9,0.2,1.2c0.2,0.1,0.4,0.2,0.6,0.1c0.2,0,0.4-0.2,0.5-0.4l3-4.8c0.9,0.4,1.9,0.5,3,0.3
			C23.4,33.2,25,30.5,24.5,27.8z M20.3,32.1c-0.7,0.1-1.4,0.1-2-0.2l-0.5-0.2l-0.4-0.4c-0.5-0.5-0.9-1.1-1-1.8
			c-0.4-1.8,0.7-3.6,2.5-4c1.8-0.4,3.5,0.8,3.9,2.6C23.2,30,22.1,31.8,20.3,32.1z"/>
	</g>
</g>
</svg>
