<?xml version="1.0" encoding="utf-8"?>
<!-- Generator: Adobe Illustrator 19.0.0, SVG Export Plug-In . SVG Version: 6.00 Build 0)  -->
<svg version="1.1" id="Layer_1" xmlns="http://www.w3.org/2000/svg" xmlns:xlink="http://www.w3.org/1999/xlink" x="0px" y="0px"
	 viewBox="0 0 55 55" style="enable-background:new 0 0 55 55;" xml:space="preserve">
<style type="text/css">
	.st0{fill:#ECECEC;}
	.st1{clip-path:url(#XMLID_14_);fill:#4B6FB6;}
	.st2{fill-rule:evenodd;clip-rule:evenodd;fill:#FFFFFF;}
</style>
<circle id="XMLID_12_" class="st0" cx="27.5" cy="27.5" r="25"/>
<g>
	<defs>
		<path id="XMLID_10_" d="M11.7,11.6c4-4.1,9.7-6.7,15.8-6.7c6.2,0,11.8,2.6,15.9,6.7c4,4.1,6.5,9.7,6.5,15.9
			c0,6.2-2.6,11.8-6.5,15.9c-4.1,4.1-9.7,6.7-15.9,6.7c-6.2,0-11.8-2.5-15.8-6.7c-4-4.1-6.5-9.7-6.5-15.9
			C5.1,21.3,7.7,15.7,11.7,11.6"/>
	</defs>
	<clipPath id="XMLID_14_">
		<use xlink:href="#XMLID_10_"  style="overflow:visible;"/>
	</clipPath>
	<path id="XMLID_11_" class="st1" d="M50.6,35c0,8.4-6.9,15.3-15.3,15.3H19.9c-8.4,0-15.3-6.9-15.3-15.3V19.6
		c0-8.4,6.9-15.3,15.3-15.3h15.3c8.4,0,15.3,6.9,15.3,15.3V35"/>
</g>
<g>
	<g id="XMLID_104_">
		<path id="XMLID_105_" class="st2" d="M28,25c-1.4-0.3-2.7,0.6-3,2c-0.3,1.4,0.6,2.7,2,3c1.4,0.3,2.7-0.6,3-2
			C30.3,26.6,29.4,25.3,28,25z M41.4,28l-1.7-0.3c0-1.8-0.4-3.6-1.1-5.2l1.4-1c0.1-0.1,0.2-0.2,0.3-0.4c0-0.2,0-0.3-0.1-0.5
			l-1.7-2.5c-0.2-0.3-0.6-0.4-0.9-0.2l-1.5,1c-1.2-1.2-2.7-2.2-4.3-2.8l0.3-1.8c0.1-0.3-0.2-0.7-0.5-0.7l-3-0.6
			c-0.3-0.1-0.7,0.2-0.7,0.5l-0.3,1.8c-1.7,0-3.5,0.3-5.1,1l-1-1.4c-0.2-0.3-0.6-0.4-0.9-0.2l-2.5,1.7c-0.1,0.1-0.2,0.2-0.3,0.4
			c0,0.2,0,0.3,0.1,0.5l1,1.4c-1.3,1.2-2.3,2.7-2.9,4.4l-1.6-0.3c-0.3-0.1-0.7,0.2-0.7,0.5l-0.6,3c-0.1,0.3,0.2,0.7,0.5,0.7l1.5,0.3
			c0,1.8,0.3,3.6,1,5.2l-1.3,0.9c-0.3,0.2-0.4,0.6-0.2,0.9l1.7,2.5c0.1,0.1,0.2,0.2,0.4,0.3c0.2,0,0.3,0,0.5-0.1l1.3-0.9
			c1.3,1.3,2.8,2.4,4.5,3l-0.3,1.5c-0.1,0.3,0.2,0.7,0.5,0.7l3,0.6c0.3,0.1,0.7-0.2,0.7-0.5l0.3-1.5c1.8,0,3.6-0.4,5.3-1.1l0.9,1.3
			c0.2,0.3,0.6,0.4,0.9,0.2l2.5-1.7c0.3-0.2,0.4-0.6,0.2-0.9L36,36.4c1.3-1.3,2.3-2.8,2.9-4.5l1.7,0.3c0.3,0.1,0.7-0.2,0.7-0.5
			l0.6-3C42,28.4,41.8,28,41.4,28z M38.2,29.6c-1.1,5.9-6.9,9.8-12.8,8.7c-5.9-1.1-9.8-6.9-8.7-12.8c1.1-5.9,6.9-9.8,12.8-8.7
			C35.5,17.9,39.4,23.6,38.2,29.6z M21.2,29.3c-0.9,0-1.6,0.7-1.6,1.6c0,0.9,0.7,1.6,1.6,1.6c0.9,0,1.6-0.7,1.6-1.6
			C22.8,30.1,22.1,29.3,21.2,29.3z M21.2,32.2c-0.7,0-1.2-0.5-1.2-1.2c0-0.7,0.5-1.2,1.2-1.2c0.7,0,1.2,0.5,1.2,1.2
			C22.4,31.6,21.9,32.2,21.2,32.2z M33,30.1c-0.9,0-1.6,0.7-1.6,1.6s0.7,1.6,1.6,1.6c0.9,0,1.6-0.7,1.6-1.6S33.9,30.1,33,30.1z
			 M33,33c-0.7,0-1.2-0.5-1.2-1.2c0-0.7,0.5-1.2,1.2-1.2c0.7,0,1.2,0.5,1.2,1.2C34.2,32.4,33.7,33,33,33z M28.9,19.6
			c-0.9,0-1.6,0.7-1.6,1.6c0,0.9,0.7,1.6,1.6,1.6c0.9,0,1.6-0.7,1.6-1.6C30.6,20.3,29.8,19.6,28.9,19.6z M28.9,22.4
			c-0.7,0-1.2-0.5-1.2-1.2c0-0.7,0.5-1.2,1.2-1.2s1.2,0.5,1.2,1.2C30.1,21.9,29.6,22.4,28.9,22.4z"/>
	</g>
</g>
</svg>
