<?xml version="1.0" encoding="utf-8"?>
<!-- Generator: Adobe Illustrator 19.0.0, SVG Export Plug-In . SVG Version: 6.00 Build 0)  -->
<svg version="1.1" id="Layer_1" xmlns="http://www.w3.org/2000/svg" xmlns:xlink="http://www.w3.org/1999/xlink" x="0px" y="0px"
	 viewBox="0 0 55 55" style="enable-background:new 0 0 55 55;" xml:space="preserve">
<style type="text/css">
	.st0{fill:#ECECEC;}
	.st1{clip-path:url(#XMLID_56_);fill:#54C5D0;}
	.st2{fill-rule:evenodd;clip-rule:evenodd;fill:#FFFFFF;}
</style>
<circle id="XMLID_98_" class="st0" cx="27.5" cy="27.5" r="25"/>
<g>
	<defs>
		<path id="XMLID_96_" d="M11.7,11.6c4-4.1,9.7-6.7,15.8-6.7c6.2,0,11.8,2.6,15.9,6.7c4,4.1,6.5,9.7,6.5,15.9
			c0,6.2-2.6,11.8-6.5,15.9c-4.1,4.1-9.7,6.7-15.9,6.7c-6.2,0-11.8-2.5-15.8-6.7c-4-4.1-6.5-9.7-6.5-15.9
			C5.1,21.3,7.7,15.7,11.7,11.6"/>
	</defs>
	<clipPath id="XMLID_56_">
		<use xlink:href="#XMLID_96_"  style="overflow:visible;"/>
	</clipPath>
	<path id="XMLID_97_" class="st1" d="M50.6,35c0,8.4-6.9,15.3-15.3,15.3H19.9c-8.4,0-15.3-6.9-15.3-15.3V19.6
		c0-8.4,6.9-15.4,15.3-15.4h15.3c8.4,0,15.3,6.9,15.3,15.4V35"/>
</g>
<g>
	<g id="XMLID_144_">
		<path id="XMLID_145_" class="st2" d="M38.5,15.6c-1.3,0-2.4,1.1-2.4,2.4c0,0.3,0.4,1.2,0.5,1.5l-3.9,3.9c-1-0.7-2.5-1.8-3.9-1.8
			c-1.1,0-2.1,0.3-3,0.8l-2.5-2.8c0.2-0.3,0.3-0.7,0.3-1.1c0-1.3-1.1-2.4-2.4-2.4c-1.3,0-2.4,1.1-2.4,2.4c0,1.3,1.1,2.4,2.4,2.4
			c0.2,0,0.8-0.4,1-0.4l2.4,2.8c-1,1.1-1.8,2.8-1.8,4.2c0,0.6,0.1,1.5,0.3,2l-5.3,3.8c-0.4-0.2-0.8-0.7-1.3-0.7
			c-1.3,0-2.4,1.1-2.4,2.4c0,1.3,1.1,2.4,2.4,2.4c1.3,0,2.4-1.1,2.4-2.4c0-0.2,0-0.3-0.1-0.5l5.1-3.6c0.7,0.9,2.2,1.6,3.3,2.1
			l-0.6,1.6c-1.2,0.1-2.8,1.1-2.8,2.3c0,1.3,1.1,2.4,2.4,2.4c1.3,0,2.4-1.1,2.4-2.4c0-0.7-0.3-1.3-0.8-1.8l0.6-1.7
			c0.1,0,0.3,0,0.4,0c0.8,0,1.5-0.1,2.2-0.4l2.6,3c-0.2,0.3-0.3,0.7-0.3,1.1c0,1.3,1.1,2.4,2.4,2.4c1.3,0,2.4-1.1,2.4-2.4
			c0-1.3-1.4-2.4-2.7-2.4c-0.2,0-0.5,0-0.7,0.1L32.3,32c1.4-1.1,2.5-2.8,2.5-4.5c0-1.3-0.4-2.5-1.1-3.4l3.9-3.9
			c0.3,0.1,0.6,0.2,0.9,0.2c1.3,0,2.4-1.1,2.4-2.4C40.8,16.7,39.8,15.6,38.5,15.6z M21.2,19.8c-0.7,0-1.3-0.6-1.3-1.3
			c0-0.7,0.6-1.3,1.3-1.3c0.7,0,1.3,0.6,1.3,1.3C22.5,19.2,21.9,19.8,21.2,19.8z M16.4,35.9c-0.7,0-1.3-0.6-1.3-1.3
			c0-0.7,0.6-1.3,1.3-1.3c0.7,0,1.3,0.6,1.3,1.3C17.7,35.3,17.1,35.9,16.4,35.9z M35.4,35.9c0.7,0,1.3,0.6,1.3,1.3
			c0,0.7-0.6,1.3-1.3,1.3c-0.7,0-1.3-0.6-1.3-1.3C34.1,36.4,34.7,35.9,35.4,35.9z M26.4,38.4c-0.7,0-1.3-0.6-1.3-1.3
			c0-0.7,0.6-1.3,1.3-1.3c0.7,0,1.3,0.6,1.3,1.3C27.7,37.9,27.1,38.4,26.4,38.4z M28.6,32c-2.5,0-4.5-2-4.5-4.5c0-2.5,2-4.5,4.5-4.5
			c2.5,0,4.5,2,4.5,4.5C33.1,30,31.1,32,28.6,32z M38.6,19.5c-0.7,0-1.3-0.6-1.3-1.3c0-0.7,0.6-1.3,1.3-1.3c0.7,0,1.3,0.6,1.3,1.3
			C39.9,18.9,39.3,19.5,38.6,19.5z"/>
	</g>
</g>
</svg>
