<?xml version="1.0" encoding="utf-8"?>
<!-- Generator: Adobe Illustrator 19.0.0, SVG Export Plug-In . SVG Version: 6.00 Build 0)  -->
<svg version="1.1" id="Layer_1" xmlns="http://www.w3.org/2000/svg" xmlns:xlink="http://www.w3.org/1999/xlink" x="0px" y="0px"
	 viewBox="0 0 55 55" style="enable-background:new 0 0 55 55;" xml:space="preserve">
<style type="text/css">
	.st0{fill:#ECECEC;}
	.st1{clip-path:url(#XMLID_20_);fill:#099A4E;}
	.st2{fill:#FFFFFF;}
</style>
<circle id="XMLID_18_" class="st0" cx="27.5" cy="27.5" r="25"/>
<g>
	<defs>
		<path id="XMLID_16_" d="M11.7,11.6c4-4.1,9.7-6.7,15.8-6.7c6.2,0,11.8,2.6,15.9,6.7c4,4.1,6.5,9.7,6.5,15.9
			c0,6.2-2.6,11.8-6.5,15.9c-4.1,4.1-9.7,6.7-15.9,6.7c-6.2,0-11.8-2.5-15.8-6.7c-4-4.1-6.5-9.7-6.5-15.9
			C5.1,21.3,7.7,15.7,11.7,11.6"/>
	</defs>
	<clipPath id="XMLID_20_">
		<use xlink:href="#XMLID_16_"  style="overflow:visible;"/>
	</clipPath>
	<path id="XMLID_17_" class="st1" d="M50.6,35c0,8.4-6.9,15.3-15.3,15.3H19.9c-8.4,0-15.3-6.9-15.3-15.3V19.6
		c0-8.4,6.9-15.3,15.3-15.3h15.3c8.4,0,15.3,6.9,15.3,15.3V35"/>
</g>
<g>
	<g id="XMLID_128_">
		<path id="XMLID_129_" class="st2" d="M27.5,12.1c-8.5,0-15.4,6.9-15.4,15.4c0,8.5,6.9,15.4,15.4,15.4c8.5,0,15.4-6.9,15.4-15.4
			C42.9,19,36,12.1,27.5,12.1z M27.5,41.5c-7.7,0-14-6.3-14-14c0-7.7,6.3-14,14-14c7.7,0,14,6.3,14,14
			C41.5,35.2,35.2,41.5,27.5,41.5z M22.7,17.4l-0.6-1.1l-0.6,0.3l0.6,1.1C22.3,17.6,22.5,17.5,22.7,17.4z M16.2,27.7
			c0-0.2,0-0.5,0-0.7h-1.6v1.4h1.6C16.3,28.2,16.2,28,16.2,27.7z M27.7,16.1c0.2,0,0.7,0,0.9,0v-1.3h-1.3v1.3
			C27.5,16.1,27.5,16.1,27.7,16.1z M39.6,22.5l-0.3-0.6l-1.3,0.6c0.1,0.2,0.2,0.4,0.3,0.6L39.6,22.5z M33.9,17.9
			c0.2,0.1,0.4,0.3,0.6,0.4l0.7-1.1l-0.6-0.4L33.9,17.9z M16.8,20.9l1.1,0.8c0.1-0.2,0.2-0.4,0.4-0.6l-1.1-0.8L16.8,20.9z
			 M32.5,38.3l0.9,1.7l0.6-0.3l-0.8-1.7C33,38.1,32.7,38.2,32.5,38.3z M36.9,34.8l1.5,1l0.4-0.6l-1.5-1C37.2,34.4,37,34.6,36.9,34.8
			z M39.3,27c0,0.2,0,0.5,0,0.7c0,0.2,0,0.5,0,0.7h1.6V27H39.3z M27.1,39.2v1.6h1.4v-1.6c-0.2,0-0.5,0-0.7,0
			C27.5,39.3,27.3,39.3,27.1,39.2z M20.4,38.9l0.6,0.4l1-1.6c-0.2-0.1-0.4-0.2-0.6-0.4L20.4,38.9z M15.9,33.7l0.3,0.6l1.6-0.8
			c-0.1-0.2-0.2-0.4-0.3-0.6L15.9,33.7z M28.6,17.4h-1.3l0,9.6v1.1l-5.8,6.4l0.4,0.4l5.8-6.3h7.2v-1.8h-6.3V17.4z"/>
	</g>
</g>
</svg>
