<?xml version="1.0" encoding="utf-8"?>
<!-- Generator: Adobe Illustrator 19.0.0, SVG Export Plug-In . SVG Version: 6.00 Build 0)  -->
<svg version="1.1" id="Layer_1" xmlns="http://www.w3.org/2000/svg" xmlns:xlink="http://www.w3.org/1999/xlink" x="0px" y="0px"
	 viewBox="0 0 55 55" style="enable-background:new 0 0 55 55;" xml:space="preserve">
<style type="text/css">
	.st0{fill:#ECECEC;}
	.st1{clip-path:url(#XMLID_57_);fill:#C28049;}
	.st2{fill:#FFFFFF;}
</style>
<circle id="XMLID_247_" class="st0" cx="27.5" cy="27.5" r="25"/>
<g id="XMLID_244_">
	<defs>
		<path id="XMLID_245_" d="M11.7,11.6c4-4.1,9.7-6.7,15.8-6.7c6.2,0,11.8,2.6,15.9,6.7c4,4.1,6.5,9.7,6.5,15.9
			c0,6.2-2.6,11.8-6.5,15.9c-4.1,4.1-9.7,6.7-15.9,6.7c-6.2,0-11.8-2.5-15.8-6.7c-4-4.1-6.5-9.7-6.5-15.9
			C5.1,21.3,7.7,15.7,11.7,11.6"/>
	</defs>
	<clipPath id="XMLID_57_">
		<use xlink:href="#XMLID_245_"  style="overflow:visible;"/>
	</clipPath>
	<path id="XMLID_246_" class="st1" d="M50.6,35c0,8.4-6.9,15.3-15.3,15.3H19.9c-8.4,0-15.3-6.9-15.3-15.3V19.6
		c0-8.4,6.9-15.4,15.3-15.4h15.3c8.4,0,15.3,6.9,15.3,15.4V35"/>
</g>
<g id="XMLID_56_">
	<g id="XMLID_401_">
		<path id="XMLID_402_" class="st2" d="M39,37.1V18.1c0-0.6-0.3-1.2-0.7-1.6l0,0c-0.4-0.4-1-0.6-1.6-0.6H18.2
			c-0.6,0-1.2,0.2-1.6,0.6l0,0l0,0l0,0c-0.4,0.4-0.7,1-0.7,1.6v18.6c0,0.6,0.3,1.2,0.7,1.6l0,0l0,0c0.4,0.4,1,0.7,1.6,0.7h18.6
			c0.6,0,1.2-0.3,1.6-0.7c0.4-0.4,0.6-0.6,0.6-1.1C39,37.2,39,37.2,39,37.1L39,37.1C39,37.1,39,37.1,39,37.1
			C39,37.1,39,37.1,39,37.1z M38.4,36.8c0,0.1-0.1,0.1-0.1,0.2c0,0.4-0.2,0.5-0.4,0.7c-0.3,0.3-0.7,0.6-1.1,0.6H18.2
			c-0.4,0-0.8-0.3-1.1-0.6l0,0c-0.3-0.3-0.5-0.6-0.5-1V18.2c0-0.4,0.2-0.9,0.5-1.1l0,0c0.3-0.3,0.7-0.5,1.1-0.5h18.6
			c0.4,0,0.8,0.2,1.1,0.5l0,0c0.3,0.3,0.5,0.7,0.5,1.1V36.8z M24,18.2c0,0-4.4,0-5,0c-0.4,0-0.4,0-0.6,0.2c-0.2,0.2-0.2,0.4-0.2,0.8
			v16.7c0,0.4,0,0.4,0.2,0.7l0,0c0.2,0.2,0.4,0.3,0.7,0.3H24c0.4,0,0.5-0.1,0.7-0.3l0,0c0.2-0.2,0.2-0.6,0.2-1V19.2
			c0-0.4,0-0.6-0.2-0.8C24.5,18.2,24.3,18.2,24,18.2z M24.3,35.5c0,0.2,0,0.4-0.1,0.5l0,0c-0.1,0.1-0.2,0.2-0.4,0.2h-4.4
			c-0.2,0-0.3-0.1-0.4-0.2l0,0c-0.1-0.1-0.1-0.3-0.1-0.5V19.2c0-0.2,0-0.2,0.1-0.3c0.1-0.1,0.1,0,0.2,0h4.5c0.2,0,0.4-0.1,0.5,0
			c0.1,0.1,0.1,0.1,0.1,0.3V35.5z M23,34.1h-2.8c-0.2,0-0.4,0.2-0.4,0.4c0,0.2,0.2,0.4,0.4,0.4H23c0.2,0,0.4-0.2,0.4-0.4
			C23.3,34.2,23.2,34.1,23,34.1z M36.8,18.4L36.8,18.4c-0.2-0.2-0.6-0.2-1-0.2h-8c-0.4,0-0.5-0.1-0.8,0.2c-0.2,0.2-0.4,0.6-0.4,0.9
			v2.8c0,0.4,0.1,0.7,0.4,0.9l0,0c0.2,0.2,0.7,0.3,1.1,0.3h7.7l0,0c0.4,0,0.7-0.1,0.9-0.4l0,0c0.2-0.2,0.4-0.6,0.4-0.9v-2.8
			C37.2,18.9,37,18.6,36.8,18.4L36.8,18.4z M36.4,22.1c0,0.2-0.1,0.3-0.2,0.4l0,0c-0.1,0.1-0.3,0.2-0.5,0.2h-8
			c-0.2,0-0.2-0.1-0.3-0.2l0,0c-0.1-0.1-0.2-0.2-0.2-0.4v-2.8c0-0.2,0.1-0.3,0.2-0.4c0.1-0.1,0.1,0,0.3,0h8c0.2,0,0.3-0.1,0.5,0l0,0
			c0.1,0.1,0.2,0.2,0.2,0.4V22.1z M26.9,26.4h1.8c0.2,0,0.4-0.2,0.4-0.4v-1.4c0-0.2-0.2-0.4-0.4-0.4h-1.8c-0.2,0-0.4,0.2-0.4,0.4
			v1.4C26.5,26.3,26.7,26.4,26.9,26.4z M27.3,25h1.1v0.7h-1.1V25z M30.6,26.4h1.8c0.2,0,0.4-0.2,0.4-0.4v-1.4c0-0.2-0.2-0.4-0.4-0.4
			h-1.8c-0.2,0-0.4,0.2-0.4,0.4v1.4C30.2,26.3,30.4,26.4,30.6,26.4z M30.9,25h1.1v0.7h-1.1V25z M34.3,26.4h1.8
			c0.2,0,0.4-0.2,0.4-0.4v-1.4c0-0.2-0.2-0.4-0.4-0.4h-1.8c-0.2,0-0.4,0.2-0.4,0.4v1.4C33.9,26.3,34.1,26.4,34.3,26.4z M34.6,25h1.1
			v0.7h-1.1V25z M26.9,29.7h1.8c0.2,0,0.4-0.2,0.4-0.4v-1.4c0-0.2-0.2-0.4-0.4-0.4h-1.8c-0.2,0-0.4,0.2-0.4,0.4v1.4
			C26.5,29.5,26.7,29.7,26.9,29.7z M27.3,28.3h1.1V29h-1.1V28.3z M30.2,29.3c0,0.2,0.2,0.4,0.4,0.4h1.8c0.2,0,0.4-0.2,0.4-0.4v-1.4
			c0-0.2-0.2-0.4-0.4-0.4h-1.8c-0.2,0-0.4,0.2-0.4,0.4V29.3z M30.9,28.3h1.1V29h-1.1V28.3z M33.9,29.3c0,0.2,0.2,0.4,0.4,0.4h1.8
			c0.2,0,0.4-0.2,0.4-0.4v-1.4c0-0.2-0.2-0.4-0.4-0.4h-1.8c-0.2,0-0.4,0.2-0.4,0.4V29.3z M34.6,28.3h1.1V29h-1.1V28.3z M28.7,32.9
			c0.2,0,0.4-0.2,0.4-0.4v-1.4c0-0.2-0.2-0.4-0.4-0.4h-1.8c-0.2,0-0.4,0.2-0.4,0.4v1.4c0,0.2,0.2,0.4,0.4,0.4H28.7z M27.3,31.5h1.1
			v0.7h-1.1V31.5z M32.4,32.9c0.2,0,0.4-0.2,0.4-0.4v-1.4c0-0.2-0.2-0.4-0.4-0.4h-1.8c-0.2,0-0.4,0.2-0.4,0.4v1.4
			c0,0.2,0.2,0.4,0.4,0.4H32.4z M30.9,31.5h1.1v0.7h-1.1V31.5z M28.9,34.5H27c-0.2,0-0.4,0.2-0.4,0.4v1.4c0,0.2,0.2,0.4,0.4,0.4h1.9
			c0.2,0,0.4-0.2,0.4-0.4v-1.4C29.3,34.7,29.1,34.5,28.9,34.5z M28.5,35.9h-1.1v-0.7h1.1V35.9z M33.9,32.6c0,0.2,0.2,0.4,0.4,0.4
			h1.8c0.2,0,0.4-0.2,0.4-0.4v-1.4c0-0.2-0.2-0.4-0.4-0.4h-1.8c-0.2,0-0.4,0.2-0.4,0.4V32.6z M34.6,31.5h1.1v0.7h-1.1V31.5z
			 M36.5,34.5h-5.8c-0.2,0-0.3,0.1-0.3,0.3v0l0,1.3c0,0.2,0.1,0.6,0.3,0.6c0,0,5.5,0,5.8,0c0.4-0.1,0.2-0.3,0.2-0.5l0.1,0.2v-1.6
			C36.8,34.7,36.7,34.5,36.5,34.5z M36.1,36.1H31v-1h5.1V36.1z"/>
	</g>
</g>
</svg>
