<?xml version="1.0" encoding="utf-8"?>
<!-- Generator: Adobe Illustrator 19.0.0, SVG Export Plug-In . SVG Version: 6.00 Build 0)  -->
<svg version="1.1" id="Layer_1" xmlns="http://www.w3.org/2000/svg" xmlns:xlink="http://www.w3.org/1999/xlink" x="0px" y="0px"
	 viewBox="0 0 55 55" style="enable-background:new 0 0 55 55;" xml:space="preserve">
<style type="text/css">
	.st0{fill:#ECECEC;}
	.st1{clip-path:url(#XMLID_92_);fill:#67BC45;}
	.st2{fill:#FFFFFF;}
</style>
<circle id="XMLID_90_" class="st0" cx="27.5" cy="27.5" r="25"/>
<g>
	<defs>
		<path id="XMLID_64_" d="M11.7,11.6c4-4.1,9.7-6.7,15.8-6.7c6.2,0,11.8,2.6,15.9,6.7c4,4.1,6.5,9.7,6.5,15.9
			c0,6.2-2.6,11.8-6.5,15.9c-4.1,4.1-9.7,6.7-15.9,6.7c-6.2,0-11.8-2.5-15.8-6.7c-4-4.1-6.5-9.7-6.5-15.9
			C5.1,21.3,7.7,15.7,11.7,11.6"/>
	</defs>
	<clipPath id="XMLID_92_">
		<use xlink:href="#XMLID_64_"  style="overflow:visible;"/>
	</clipPath>
	<path id="XMLID_89_" class="st1" d="M50.6,35c0,8.4-6.9,15.3-15.3,15.3H19.9c-8.4,0-15.3-6.9-15.3-15.3V19.6
		c0-8.4,6.9-15.4,15.3-15.4h15.3c8.4,0,15.3,6.9,15.3,15.4V35"/>
</g>
<g>
	<g id="XMLID_170_">
		<path id="XMLID_171_" class="st2" d="M38.1,16.8H18.4c-0.7,0-1.1,0.8-1.1,1.6v12c0.1,0,0.2,0.2,0.3,0.2c0.1,0,0.3,0.1,0.4,0.1
			c0.1-0.4-0.2-0.3,0.2-0.3V19h20.1v16.1H23.9c0,0.1,0,0.5-0.1,0.5c-0.1,0.1,0.2,0,0,0.1c0.1,0.1,0.1-0.1,0.1,0.1
			c0.1,0.3,0,0.1-0.1,0.3h13.9c0.7,0,1.6-0.2,1.6-0.9v-17C39.3,17.3,38.8,16.8,38.1,16.8z M34.8,17.9c0,0.2-0.1,0.3-0.3,0.3h-0.3
			c-0.2,0-0.3-0.1-0.3-0.3v-0.3c0-0.2,0.1-0.3,0.3-0.3h0.3c0.2,0,0.3,0.1,0.3,0.3V17.9z M36.2,17.9c0,0.2-0.1,0.3-0.3,0.3h-0.3
			c-0.2,0-0.3-0.1-0.3-0.3v-0.3c0-0.2,0.1-0.3,0.3-0.3h0.3c0.2,0,0.3,0.1,0.3,0.3V17.9z M37.5,17.9c0,0.2-0.1,0.3-0.3,0.3h-0.3
			c-0.2,0-0.3-0.1-0.3-0.3v-0.3c0-0.2,0.1-0.3,0.3-0.3h0.3c0.2,0,0.3,0.1,0.3,0.3V17.9z M22.8,33.3L22,33.4
			c-0.1-0.2-0.2-0.4-0.3-0.6l0.5-0.6c0,0,0.1-0.1,0-0.2c0-0.1,0-0.1-0.1-0.1l-0.7-0.6c-0.1-0.1-0.2-0.1-0.3,0L20.7,32
			c-0.2-0.1-0.4-0.2-0.6-0.2V31c0-0.1-0.1-0.2-0.2-0.2H19c-0.1,0-0.2,0.1-0.2,0.2v0.8c-0.2,0.1-0.4,0.1-0.6,0.2l-0.5-0.6
			c0,0-0.1-0.1-0.1-0.1c-0.1,0-0.1,0-0.2,0L16.7,32c0,0-0.1,0.1-0.1,0.1c0,0.1,0,0.1,0,0.2l0.5,0.6c-0.1,0.2-0.3,0.4-0.3,0.6
			l-0.8-0.1c-0.1,0-0.2,0.1-0.2,0.2l-0.1,0.8c0,0.1,0,0.1,0,0.2c0,0,0.1,0.1,0.1,0.1l0.8,0.1c0,0.2,0.1,0.5,0.1,0.7l-0.7,0.4
			c0,0-0.1,0.1-0.1,0.1c0,0.1,0,0.1,0,0.2l0.4,0.7c0,0,0.1,0.1,0.1,0.1c0,0,0,0,0.1,0c0,0,0.1,0,0.1,0l0.7-0.4
			c0.2,0.2,0.3,0.3,0.5,0.4l-0.3,0.7c0,0.1,0,0.1,0,0.2c0,0.1,0.1,0.1,0.1,0.1l0.8,0.3c0,0,0,0,0.1,0c0,0,0.1,0,0.1,0
			c0,0,0.1-0.1,0.1-0.1l0.3-0.7c0.1,0,0.2,0,0.3,0c0.1,0,0.2,0,0.3,0l0.3,0.7c0,0.1,0.1,0.1,0.1,0.1c0,0,0.1,0,0.1,0c0,0,0,0,0.1,0
			l0.8-0.3c0.1,0,0.1-0.1,0.1-0.1c0-0.1,0-0.1,0-0.2L21,36.9c0.2-0.1,0.4-0.3,0.5-0.4l0.7,0.4c0,0,0.1,0,0.1,0c0,0,0,0,0.1,0
			c0.1,0,0.1-0.1,0.1-0.1l0.4-0.7c0,0,0-0.1,0-0.2c0-0.1,0-0.1-0.1-0.1l-0.7-0.4c0.1-0.2,0.1-0.4,0.1-0.7l0.8-0.1
			c0.1,0,0.1,0,0.1-0.1c0,0,0-0.1,0-0.2L23,33.5C23,33.4,22.9,33.3,22.8,33.3z M19.4,36.7c-1.2,0-2.2-1-2.2-2.2c0-1.2,1-2.2,2.2-2.2
			c1.2,0,2.2,1,2.2,2.2C21.7,35.7,20.7,36.7,19.4,36.7z M30.2,29.2L30.2,29.2c0,0.3,0.1,0.5,0.3,0.6c0.1,0.1,0.2,0.1,0.4,0.1
			c0.1,0,0.2,0,0.3-0.1l3.6-1.7c0.2-0.1,0.4-0.4,0.4-0.6v0c0-0.3-0.2-0.5-0.4-0.6l-3.6-1.7c-0.1,0-0.2-0.1-0.3-0.1
			c-0.1,0-0.3,0-0.4,0.1c-0.2,0.1-0.3,0.3-0.3,0.6v0c0,0.3,0.5,0.3,0.7,0.4l3.3,1.2L30.9,29C30.7,29.1,30.2,29,30.2,29.2z
			 M29.3,29.8L29.3,29.8c0.2,0,0.2,0.1,0.3,0c0.1-0.1,0.2,0.2,0.2,0l-1.5-4.8c-0.1-0.2-0.2-0.3-0.4-0.3h0c-0.1,0-0.3,0.1-0.4,0.2
			c-0.1,0.1-0.1,0.3-0.1,0.4l1.5,4.8C28.9,30.3,29.1,29.8,29.3,29.8z M26.7,25.9L26.7,25.9c0-0.3-0.1-0.5-0.3-0.6
			c-0.1-0.1-0.2-0.1-0.4-0.1c-0.1,0-0.2,0-0.3,0.1l-3.6,1.7c-0.2,0.1-0.4,0.4-0.4,0.6v0c0,0.3,0.2,0.5,0.4,0.6l3.6,1.7
			c0.1,0,0.2,0.1,0.3,0.1c0.1,0,0.3,0,0.4-0.1c0.2-0.1,0.3-0.3,0.3-0.6v0c0-0.3-0.3,0.2-0.5,0l-3.6-1.8l3.6-1.5
			C26.4,25.9,26.7,26.1,26.7,25.9z"/>
	</g>
</g>
</svg>
