<?xml version="1.0" encoding="utf-8"?>
<!-- Generator: Adobe Illustrator 19.0.0, SVG Export Plug-In . SVG Version: 6.00 Build 0)  -->
<svg version="1.1" id="Layer_1" xmlns="http://www.w3.org/2000/svg" xmlns:xlink="http://www.w3.org/1999/xlink" x="0px" y="0px"
	 viewBox="0 0 55 55" style="enable-background:new 0 0 55 55;" xml:space="preserve">
<style type="text/css">
	.st0{fill:#ECECEC;}
	.st1{clip-path:url(#XMLID_62_);fill:#D93752;}
	.st2{fill:#FFFFFF;}
</style>
<circle id="XMLID_60_" class="st0" cx="27.5" cy="27.5" r="25"/>
<g>
	<defs>
		<path id="XMLID_58_" d="M11.7,11.6c4-4.1,9.7-6.7,15.8-6.7c6.2,0,11.8,2.6,15.9,6.7c4,4.1,6.5,9.7,6.5,15.9
			c0,6.2-2.6,11.8-6.5,15.9c-4.1,4.1-9.7,6.7-15.9,6.7c-6.2,0-11.8-2.5-15.8-6.7c-4-4.1-6.5-9.7-6.5-15.9
			C5.1,21.3,7.7,15.7,11.7,11.6"/>
	</defs>
	<clipPath id="XMLID_62_">
		<use xlink:href="#XMLID_58_"  style="overflow:visible;"/>
	</clipPath>
	<path id="XMLID_59_" class="st1" d="M50.6,35c0,8.4-6.9,15.3-15.3,15.3H19.9c-8.4,0-15.3-6.9-15.3-15.3V19.6
		c0-8.4,6.9-15.4,15.3-15.4h15.3c8.4,0,15.3,6.9,15.3,15.4V35"/>
</g>
<g>
	<g id="XMLID_123_">
		<path id="XMLID_124_" class="st2" d="M39.1,18.2c-0.1,0-6.6-0.7-11.1-4c-0.3-0.2-0.7-0.2-1,0c-4.5,3.3-11,4-11.1,4
			c-0.4,0-0.8,0.4-0.8,0.8c0,0.2,0,4.5,1.5,9.4c0.9,2.9,2.1,5.3,3.5,7.3c1.9,2.5,4.3,4.2,7.1,5.1c0.1,0,0.2,0,0.3,0
			c0.1,0,0.2,0,0.3,0c2.8-0.9,5.2-2.6,7.1-5.1c1.5-2,2.7-4.4,3.5-7.3c1.5-4.8,1.5-9.2,1.5-9.4C39.8,18.6,39.5,18.3,39.1,18.2z
			 M37.4,27.9c-1.9,6.4-5.2,10.4-9.9,12c-4.6-1.6-7.9-5.6-9.9-12c-1.1-3.7-1.4-7.2-1.5-8.7c2-0.3,7.2-1.3,11.3-4.1
			c4.2,2.8,9.3,3.8,11.3,4.1C38.8,20.7,38.5,24.2,37.4,27.9z M24.6,27.5c-0.4-0.3-0.9-0.3-1.2,0.1c-0.3,0.4-0.3,0.9,0.1,1.2l3,2.6
			c0.2,0.1,0.3,0.2,0.5,0.2c0,0,0.1,0,0.1,0c0.2,0,0.4-0.1,0.6-0.3l5.2-6.9c0.3-0.4,0.2-0.9-0.2-1.2c-0.4-0.3-0.9-0.2-1.2,0.2
			l-4.7,6.2L24.6,27.5z"/>
	</g>
</g>
</svg>
