<?xml version="1.0" encoding="utf-8"?>
<!-- Generator: Adobe Illustrator 19.0.0, SVG Export Plug-In . SVG Version: 6.00 Build 0)  -->
<svg version="1.1" id="Layer_1" xmlns="http://www.w3.org/2000/svg" xmlns:xlink="http://www.w3.org/1999/xlink" x="0px" y="0px"
	 viewBox="0 0 55 55" style="enable-background:new 0 0 55 55;" xml:space="preserve">
<style type="text/css">
	.st0{fill:#ECECEC;}
	.st1{clip-path:url(#XMLID_102_);fill:#009F9D;}
	.st2{fill:#FFFFFF;}
</style>
<circle id="XMLID_100_" class="st0" cx="27.5" cy="27.5" r="25"/>
<g>
	<defs>
		<path id="XMLID_98_" d="M11.7,11.6c4-4.1,9.7-6.7,15.8-6.7c6.2,0,11.8,2.6,15.9,6.7c4,4.1,6.5,9.7,6.5,15.9
			c0,6.2-2.6,11.8-6.5,15.9c-4.1,4.1-9.7,6.7-15.9,6.7c-6.2,0-11.8-2.5-15.8-6.7c-4-4.1-6.5-9.7-6.5-15.9
			C5.1,21.3,7.7,15.7,11.7,11.6"/>
	</defs>
	<clipPath id="XMLID_102_">
		<use xlink:href="#XMLID_98_"  style="overflow:visible;"/>
	</clipPath>
	<path id="XMLID_99_" class="st1" d="M50.6,35c0,8.4-6.9,15.3-15.3,15.3H19.9c-8.4,0-15.3-6.9-15.3-15.3V19.6
		c0-8.4,6.9-15.4,15.3-15.4h15.3c8.4,0,15.3,6.9,15.3,15.4V35"/>
</g>
<g>
	<g id="XMLID_246_">
		<path id="XMLID_247_" class="st2" d="M30.7,34.6c0.1,0,0.3-0.1,0.3-0.2c0.1-0.2,0.1-0.4-0.1-0.6l-3-2v-3.5c0-0.2-0.2-0.4-0.4-0.4
			c-0.2,0-0.4,0.2-0.4,0.4v3.5l-3,2c-0.2,0.1-0.2,0.4-0.1,0.6c0.1,0.1,0.2,0.2,0.3,0.2c0.1,0,0.2,0,0.2-0.1l3-2l3,2
			C30.5,34.5,30.6,34.6,30.7,34.6z M23.3,26.7l4.2,0c0,0,0,0,0,0c0,0,0,0,0,0h4.2c0.5,0,0.9-0.4,0.9-0.8v-0.4c0-0.8-0.5-1.7-1.4-2
			c0,0,0,0,0,0l-1.5-0.4c-0.1,0-0.2-0.1-0.2-0.1l0-0.8c0,0,0,0,0,0c0.5-0.6,0.8-1.4,0.8-2.2v-0.6c0.5-1.6,0.1-3.1,0-3.5c0,0,0,0,0,0
			c0,0,0,0,0,0c0,0,0,0,0,0c0,0,0,0,0,0c0,0,0,0,0,0c0,0,0,0,0,0c0,0,0,0,0,0c0,0,0,0,0,0c0,0,0,0,0,0c0,0,0,0,0,0c0,0,0,0,0,0
			c0,0,0,0,0,0c0,0,0,0,0,0c0,0,0,0,0,0c0,0,0,0,0,0c0,0,0,0,0,0c0,0,0,0,0,0c0,0,0,0,0,0c0,0,0,0,0,0c0,0,0,0,0,0c0,0,0,0,0,0
			c0,0,0,0,0,0c0,0,0,0,0,0h0c0,0,0,0,0,0h0c0,0,0,0,0,0c0,0,0,0,0,0c-0.4,0.1-0.8-0.1-1.3-0.2c-0.9-0.2-1.9-0.4-2.7,0.2
			c-0.8,0.1-1.4,0.8-1.4,1.7c0,0.7,0.3,1.9,0.4,2.2v0.3c0,0.9,0.3,1.6,0.8,2.2l0,0.9c0,0-0.1,0.1-0.2,0.1l-1.5,0.4c0,0,0,0,0,0
			c-0.9,0.3-1.4,1.2-1.4,2v0.4C22.3,26.3,22.8,26.7,23.3,26.7z M27.5,24.3l-1.4-0.8c0.1-0.1,0.2-0.3,0.2-0.5l0-0.2
			c0.4,0.2,0.8,0.3,1.2,0.3c0.4,0,0.8-0.1,1.2-0.3l0,0.1c0,0.2,0.1,0.4,0.2,0.5L27.5,24.3z M25.5,19.9v-0.1c0-0.4,0.2-1,0.3-1.3
			c1.8,0,3.2,0.5,3.7,0.7v0.9c0,0.7-0.3,1.3-0.7,1.8c0,0,0,0,0,0c-0.4,0.4-0.8,0.6-1.3,0.6C26.5,22.3,25.5,21.2,25.5,19.9z
			 M29.7,23.9l1.3,0.3c0.6,0.2,0.8,0.7,0.8,1.2v0.4c0,0,0,0.1-0.1,0.1h-3.8v-1L29.7,23.9z M25.5,17.6C25.5,17.6,25.5,17.6,25.5,17.6
			C25.5,17.6,25.5,17.6,25.5,17.6C25.5,17.6,25.5,17.6,25.5,17.6C25.4,17.6,25.4,17.6,25.5,17.6C25.4,17.6,25.4,17.6,25.5,17.6
			c-0.1,0-0.1,0-0.1,0c0,0,0,0,0,0c0,0,0,0,0,0c0,0,0,0,0,0c0,0,0,0,0,0c0,0,0,0,0,0c0,0,0,0,0,0c0,0,0,0,0,0c0,0,0,0,0,0
			c0,0,0,0,0,0c0,0,0,0,0,0c0,0,0,0,0,0c0,0,0,0,0,0c0,0,0,0,0,0c0,0,0,0,0,0c0,0,0,0,0,0c0,0,0,0,0,0c0-0.2,0-0.4,0-0.5
			c0-0.4,0.2-0.9,0.8-0.9c0,0,0,0,0,0c0,0,0,0,0,0c0,0,0,0,0,0c0,0,0,0,0,0c0,0,0,0,0,0c0,0,0,0,0,0c0,0,0,0,0,0c0,0,0,0,0,0
			c0,0,0,0,0,0c0,0,0,0,0,0c0,0,0,0,0,0c0,0,0,0,0,0c0,0,0,0,0,0c0,0,0,0,0,0c0.6-0.5,1.3-0.3,2.1-0.1c0.4,0.1,0.9,0.2,1.3,0.2
			c0.1,0.4,0.2,1.1,0.1,1.9C29.1,18,27.5,17.6,25.5,17.6C25.5,17.6,25.5,17.6,25.5,17.6C25.5,17.6,25.5,17.6,25.5,17.6
			C25.5,17.6,25.5,17.6,25.5,17.6z M23.1,25.4c0-0.5,0.3-1,0.9-1.2l1.3-0.3l1.8,1.1v1h-3.8c-0.1,0-0.1,0-0.1-0.1V25.4z M24.1,36.5
			C24.1,36.5,24.1,36.5,24.1,36.5l-1.5-0.4c-0.1,0-0.2-0.1-0.2-0.1l0-0.8c0,0,0,0,0,0c0.5-0.6,0.8-1.4,0.8-2.2v-0.6
			c0.5-1.6,0.1-3.1,0-3.5c0,0,0,0,0,0c0,0,0,0,0,0c0,0,0,0,0,0c0,0,0,0,0,0c0,0,0,0,0,0c0,0,0,0,0,0c0,0,0,0,0,0c0,0,0,0,0,0
			c0,0,0,0,0,0c0,0,0,0,0,0c0,0,0,0,0,0c0,0,0,0,0,0c0,0,0,0,0,0c0,0,0,0,0,0c0,0,0,0,0,0c0,0,0,0,0,0c0,0,0,0,0,0c0,0,0,0,0,0
			c0,0,0,0,0,0c0,0,0,0,0,0c0,0,0,0,0,0c0,0,0,0,0,0c0,0,0,0,0,0h0c0,0,0,0,0,0c0,0,0,0,0,0c0,0,0,0,0,0c-0.4,0.1-0.8-0.1-1.3-0.2
			c-0.9-0.2-1.9-0.4-2.7,0.2c-0.8,0.1-1.4,0.8-1.4,1.7c0,0.7,0.3,1.9,0.4,2.2v0.3c0,0.9,0.3,1.6,0.8,2.2l0,0.9c0,0-0.1,0.1-0.2,0.1
			l-1.5,0.4c0,0,0,0,0,0c-0.9,0.3-1.4,1.2-1.4,2v0.4c0,0.5,0.4,0.8,0.9,0.8l4.2,0c0,0,0,0,0,0c0,0,0,0,0,0l4.2,0
			c0.5,0,0.9-0.4,0.9-0.8v-0.4C25.5,37.7,25,36.8,24.1,36.5z M18.4,30.7C18.4,30.7,18.4,30.7,18.4,30.7
			C18.3,30.7,18.3,30.7,18.4,30.7C18.3,30.7,18.3,30.7,18.4,30.7C18.3,30.7,18.3,30.7,18.4,30.7C18.3,30.7,18.3,30.7,18.4,30.7
			c-0.1,0-0.1,0-0.1,0c0,0,0,0,0,0c0,0,0,0,0,0c0,0,0,0,0,0c0,0,0,0,0,0c0,0,0,0,0,0c0,0,0,0,0,0c0,0,0,0,0,0c0,0,0,0,0,0
			c0,0,0,0,0,0c0,0,0,0,0,0c0,0,0,0,0,0c0,0,0,0,0,0c0,0,0,0,0,0c0,0,0,0,0,0c0,0,0,0,0,0c0,0,0,0,0,0c0-0.2,0-0.4,0-0.5
			c0-0.4,0.2-0.9,0.8-0.9c0,0,0,0,0,0c0,0,0,0,0,0c0,0,0,0,0,0c0,0,0,0,0,0c0,0,0,0,0,0c0,0,0,0,0,0c0,0,0,0,0,0c0,0,0,0,0,0
			c0,0,0,0,0,0c0,0,0,0,0,0c0,0,0,0,0,0c0,0,0,0,0,0c0,0,0,0,0,0c0,0,0,0,0,0c0.6-0.5,1.3-0.3,2.1-0.1c0.4,0.1,0.9,0.2,1.3,0.2
			c0.1,0.4,0.2,1.1,0.1,1.9C21.9,31.1,20.4,30.7,18.4,30.7L18.4,30.7C18.4,30.7,18.4,30.7,18.4,30.7C18.4,30.7,18.4,30.7,18.4,30.7z
			 M22.4,32.1v0.2c0,0,0,0,0,0V33c0,0.7-0.3,1.3-0.7,1.8c0,0,0,0,0,0c-0.4,0.4-0.8,0.6-1.3,0.6c-1.1,0-2-1.2-2-2.5v-0.1
			c0-0.4,0.2-1,0.3-1.3C20.5,31.5,21.8,31.9,22.4,32.1z M20,39l-3.8,0c-0.1,0-0.1,0-0.1-0.1v-0.4c0-0.5,0.3-1,0.8-1.2l1.3-0.3L20,38
			V39z M20.4,37.3L19,36.5c0.1-0.1,0.2-0.3,0.2-0.5l0-0.2c0.4,0.2,0.8,0.3,1.2,0.3c0.4,0,0.8-0.1,1.2-0.3V36c0,0.2,0.1,0.4,0.2,0.5
			L20.4,37.3z M24.7,38.9c0,0,0,0.1-0.1,0.1l-3.8,0v-1l1.8-1.1l1.3,0.3c0.6,0.2,0.9,0.7,0.9,1.2V38.9z M38.4,36.5
			C38.4,36.5,38.4,36.5,38.4,36.5l-1.5-0.4c-0.1,0-0.2-0.1-0.2-0.1l0-0.8c0,0,0,0,0,0c0.5-0.6,0.8-1.4,0.8-2.2v-0.6
			c0.5-1.6,0.1-3.1,0-3.5c0,0,0,0,0,0c0,0,0,0,0,0c0,0,0,0,0,0c0,0,0,0,0,0c0,0,0,0,0,0c0,0,0,0,0,0c0,0,0,0,0,0c0,0,0,0,0,0
			c0,0,0,0,0,0c0,0,0,0,0,0c0,0,0,0,0,0c0,0,0,0,0,0c0,0,0,0,0,0c0,0,0,0,0,0c0,0,0,0,0,0c0,0,0,0,0,0c0,0,0,0,0,0c0,0,0,0,0,0
			c0,0,0,0,0,0c0,0,0,0,0,0c0,0,0,0,0,0c0,0,0,0,0,0c0,0,0,0,0,0h0c0,0,0,0,0,0h0c0,0,0,0,0,0c0,0,0,0,0,0c-0.4,0.1-0.8-0.1-1.3-0.2
			c-0.9-0.2-1.9-0.4-2.7,0.2c-0.8,0.1-1.4,0.8-1.4,1.7c0,0.7,0.3,1.9,0.4,2.2v0.3c0,0.9,0.3,1.6,0.8,2.2l0,0.9c0,0-0.1,0.1-0.2,0.1
			l-1.5,0.4c0,0,0,0,0,0c-0.9,0.3-1.4,1.2-1.4,2v0.4c0,0.5,0.4,0.8,0.9,0.8l4.2,0c0,0,0,0,0,0c0,0,0,0,0,0l4.2,0
			c0.5,0,0.9-0.4,0.9-0.8v-0.4C39.8,37.7,39.3,36.8,38.4,36.5z M32.6,30.7C32.6,30.7,32.6,30.7,32.6,30.7
			C32.6,30.7,32.6,30.7,32.6,30.7C32.6,30.7,32.6,30.7,32.6,30.7C32.6,30.7,32.6,30.7,32.6,30.7C32.6,30.7,32.6,30.7,32.6,30.7
			c-0.1,0-0.1,0-0.1,0c0,0,0,0,0,0c0,0,0,0,0,0c0,0,0,0,0,0c0,0,0,0,0,0c0,0,0,0,0,0c0,0,0,0,0,0c0,0,0,0,0,0c0,0,0,0,0,0
			c0,0,0,0,0,0c0,0,0,0,0,0c0,0,0,0,0,0c0,0,0,0,0,0c0,0,0,0,0,0c0,0,0,0,0,0c0,0,0,0,0,0c0,0,0,0,0,0c0-0.2,0-0.4,0-0.5
			c0-0.4,0.2-0.9,0.8-0.9c0,0,0,0,0,0c0,0,0,0,0,0c0,0,0,0,0,0c0,0,0,0,0,0c0,0,0,0,0,0c0,0,0,0,0,0c0,0,0,0,0,0c0,0,0,0,0,0
			c0,0,0,0,0,0c0,0,0,0,0,0c0,0,0,0,0,0c0,0,0,0,0,0c0,0,0,0,0,0c0,0,0,0,0,0c0.6-0.5,1.3-0.3,2.1-0.1c0.4,0.1,0.9,0.2,1.3,0.2
			c0.1,0.4,0.2,1.1,0.1,1.9C36.2,31.1,34.7,30.7,32.6,30.7C32.7,30.7,32.7,30.7,32.6,30.7C32.7,30.7,32.7,30.7,32.6,30.7
			C32.6,30.7,32.6,30.7,32.6,30.7z M36.6,32.1v0.2c0,0,0,0,0,0V33c0,0.7-0.3,1.3-0.7,1.8c0,0,0,0,0,0c-0.4,0.4-0.8,0.6-1.3,0.6
			c-1.1,0-2-1.2-2-2.5v-0.1c0-0.4,0.2-1,0.3-1.3C34.8,31.5,36.1,31.9,36.6,32.1z M34.2,39l-3.8,0c-0.1,0-0.1,0-0.1-0.1v-0.4
			c0-0.5,0.3-1,0.8-1.2l1.3-0.3l1.8,1.1V39z M34.6,37.3l-1.4-0.8c0.1-0.1,0.2-0.3,0.2-0.5l0-0.2c0.4,0.2,0.8,0.3,1.2,0.3
			c0.4,0,0.8-0.1,1.2-0.3V36c0,0.2,0.1,0.4,0.2,0.5L34.6,37.3z M39,38.9c0,0,0,0.1-0.1,0.1L35,39v-1l1.8-1.1l1.3,0.3
			c0.6,0.2,0.9,0.7,0.9,1.2V38.9z"/>
	</g>
</g>
</svg>
