<?xml version="1.0" encoding="utf-8"?>
<!-- Generator: Adobe Illustrator 19.0.0, SVG Export Plug-In . SVG Version: 6.00 Build 0)  -->
<svg version="1.1" id="Layer_1" xmlns="http://www.w3.org/2000/svg" xmlns:xlink="http://www.w3.org/1999/xlink" x="0px" y="0px"
	 viewBox="0 0 55 55" style="enable-background:new 0 0 55 55;" xml:space="preserve">
<style type="text/css">
	.st0{fill:#ECECEC;}
	.st1{clip-path:url(#XMLID_2_);fill:#3DABE1;}
	.st2{clip-path:url(#XMLID_3_);fill:#FFFFFF;}
	.st3{fill:#FFFFFF;}
</style>
<circle id="XMLID_18_" class="st0" cx="27.5" cy="27.5" r="25"/>
<g>
	<defs>
		<path id="XMLID_16_" d="M11.7,11.6c4-4.1,9.7-6.7,15.8-6.7c6.2,0,11.8,2.6,15.9,6.7c4,4.1,6.5,9.7,6.5,15.9
			c0,6.2-2.6,11.8-6.5,15.9c-4.1,4.1-9.7,6.7-15.9,6.7c-6.2,0-11.8-2.5-15.8-6.7c-4-4.1-6.5-9.7-6.5-15.9
			C5.1,21.3,7.7,15.7,11.7,11.6"/>
	</defs>
	<clipPath id="XMLID_2_">
		<use xlink:href="#XMLID_16_"  style="overflow:visible;"/>
	</clipPath>
	<path id="XMLID_17_" class="st1" d="M50.6,35c0,8.4-6.9,15.3-15.3,15.3H19.9c-8.4,0-15.3-6.9-15.3-15.3V19.6
		c0-8.4,6.9-15.3,15.3-15.3h15.3c8.4,0,15.3,6.9,15.3,15.3V35"/>
</g>
<g id="XMLID_20_">
	<g id="XMLID_26_">
		<defs>
			<rect id="XMLID_27_" x="16.7" y="15" width="23.4" height="26.1"/>
		</defs>
		<clipPath id="XMLID_3_">
			<use xlink:href="#XMLID_27_"  style="overflow:visible;"/>
		</clipPath>
		<path id="XMLID_31_" class="st2" d="M39.4,35.4c-0.2,0-0.5,0.1-0.5,0.3c-0.5,2.3-2.3,3.9-4.6,3.9c-2.1,0-4-1.4-4.7-3.4h2v-0.8
			h-3.4v3.4H29v-1.6c0.9,2,2.9,3.3,5.2,3.3c2.7,0,4.9-1.8,5.4-4.6C39.7,35.7,39.6,35.5,39.4,35.4L39.4,35.4z M39.4,35.4"/>
		<path id="XMLID_28_" class="st2" d="M39.3,30.3v1.8c-1-1.9-2.9-3.1-5-3.1c-2.6,0-4.9,1.7-5.6,4.1c-0.1,0.2,0.1,0.5,0.3,0.5
			c0.2,0.1,0.5-0.1,0.5-0.3c0.6-2,2.6-3.5,4.8-3.5c1.9,0,3.6,1.2,4.4,3h-2v0.9h3.4v-3.4H39.3z M39.3,30.3"/>
	</g>
	<path id="XMLID_21_" class="st3" d="M27.3,32.9c-0.4,0-0.7,0-1,0c-0.2,0-0.4,0-0.6,0c-0.1,0-0.3,0-0.4,0c-0.3,0-0.5,0-0.8-0.1
		c0,0-0.1,0-0.2,0c-0.3,0-0.6-0.1-0.9-0.1c0,0,0,0,0,0c-1.4-0.2-2.7-0.5-3.6-0.9c0,0,0,0,0,0c-0.2-0.1-0.3-0.1-0.5-0.2
		c0,0,0,0-0.1,0c-0.1-0.1-0.3-0.1-0.4-0.2c0,0-0.1,0-0.1-0.1c-0.1-0.1-0.2-0.1-0.3-0.2c0,0-0.1-0.1-0.1-0.1
		c-0.1-0.1-0.2-0.1-0.2-0.2c0,0-0.1-0.1-0.1-0.1c-0.1-0.1-0.1-0.1-0.2-0.2c0,0-0.1-0.1-0.1-0.1c0-0.1-0.1-0.1-0.1-0.2
		c0,0,0-0.1-0.1-0.1c0-0.1,0-0.1,0-0.2c0-0.1,0-0.1,0-0.2v-3.5c0,0,0,0,0,0c0.1,0.1,0.2,0.2,0.3,0.2c1.6,1.2,4.8,2.2,9.5,2.2
		c4.6,0,7.8-0.9,9.4-2.1c0.1-0.1,0.2-0.2,0.4-0.3h0v1.6c0,0.2,0.2,0.4,0.4,0.4c0.2,0,0.4-0.2,0.4-0.4v-8.5c0-0.1,0-0.1,0-0.2
		c-0.5-2.1-5-3.7-10.6-3.7c-5.6,0-10.1,1.6-10.6,3.7c0,0.1-0.1,0.1-0.1,0.2v15.8c0,0.1,0,0.1,0.1,0.2c0.5,2.1,4.6,3.3,8.4,3.6
		c0,0,0,0,0,0c0.2,0,0.4-0.2,0.4-0.4c0-0.2-0.2-0.4-0.4-0.5c-4.7-0.4-7.5-1.8-7.7-3c0,0,0,0,0-0.1v-3.6c0,0,0,0,0,0
		c0.1,0.1,0.2,0.2,0.3,0.2c1.6,1.2,4.8,2.2,9.5,2.2c0.2,0,0.4-0.2,0.4-0.4C27.8,33.1,27.6,32.9,27.3,32.9L27.3,32.9z M17.8,21.3
		c0.1,0.1,0.3,0.2,0.4,0.3c0,0,0.1,0,0.1,0.1c0.1,0.1,0.3,0.2,0.4,0.2c0.1,0,0.1,0.1,0.2,0.1c0.2,0.1,0.3,0.2,0.5,0.2
		c0,0,0.1,0,0.1,0c0.2,0.1,0.4,0.2,0.6,0.2c0.1,0,0.1,0,0.2,0.1c0.2,0.1,0.4,0.1,0.5,0.2c0.1,0,0.1,0,0.2,0.1
		c0.3,0.1,0.5,0.1,0.8,0.2c0,0,0.1,0,0.1,0c0.2,0.1,0.5,0.1,0.7,0.1c0.1,0,0.2,0,0.3,0c0.2,0,0.5,0.1,0.7,0.1c0.1,0,0.1,0,0.2,0
		c0.3,0,0.6,0.1,1,0.1c0.1,0,0.2,0,0.3,0c0.3,0,0.5,0,0.8,0c0.1,0,0.2,0,0.3,0c0.4,0,0.7,0,1.1,0c0.4,0,0.8,0,1.1,0
		c0.1,0,0.2,0,0.3,0c0.3,0,0.6,0,0.8,0c0.1,0,0.2,0,0.3,0c0.3,0,0.7-0.1,1-0.1c0.1,0,0.1,0,0.2,0c0.3,0,0.5-0.1,0.7-0.1
		c0.1,0,0.2,0,0.3,0c0.3,0,0.5-0.1,0.7-0.1c0,0,0.1,0,0.1,0c0.3-0.1,0.5-0.1,0.8-0.2c0.1,0,0.1,0,0.2-0.1c0.2-0.1,0.4-0.1,0.5-0.2
		c0.1,0,0.1,0,0.2-0.1c0.2-0.1,0.4-0.2,0.6-0.2c0,0,0.1,0,0.1,0c0.2-0.1,0.3-0.2,0.5-0.2c0.1,0,0.1-0.1,0.2-0.1
		c0.1-0.1,0.3-0.2,0.4-0.2c0,0,0.1,0,0.1-0.1c0.1-0.1,0.3-0.2,0.4-0.3c0,0,0.1,0,0.1-0.1c0.1,0,0.1-0.1,0.2-0.1v3.5
		c0,0.1,0,0.1,0,0.2c0,0.1,0,0.1,0,0.2c0,0,0,0.1-0.1,0.1c0,0.1-0.1,0.1-0.1,0.2c0,0-0.1,0.1-0.1,0.1c0,0.1-0.1,0.1-0.2,0.2
		c0,0-0.1,0.1-0.1,0.1c-0.1,0.1-0.1,0.1-0.2,0.2c0,0-0.1,0.1-0.1,0.1C36.1,26,36,26,35.9,26.1c0,0-0.1,0-0.1,0.1
		c-0.1,0.1-0.3,0.1-0.4,0.2c0,0,0,0-0.1,0c-0.2,0.1-0.3,0.1-0.5,0.2c0,0,0,0,0,0c-1,0.4-2.2,0.7-3.6,0.9c0,0,0,0,0,0
		c-0.3,0-0.6,0.1-0.9,0.1c0,0-0.1,0-0.2,0c-0.3,0-0.5,0.1-0.8,0.1c-0.1,0-0.3,0-0.4,0c-0.2,0-0.4,0-0.6,0c-0.3,0-0.7,0-1,0
		c-0.4,0-0.7,0-1,0c-0.2,0-0.4,0-0.6,0c-0.1,0-0.3,0-0.4,0c-0.3,0-0.5,0-0.8-0.1c0,0-0.1,0-0.2,0c-0.3,0-0.6-0.1-0.9-0.1
		c0,0,0,0,0,0c-1.4-0.2-2.7-0.5-3.6-0.9c0,0,0,0,0,0c-0.2-0.1-0.3-0.1-0.5-0.2c0,0,0,0-0.1,0c-0.1-0.1-0.3-0.1-0.4-0.2
		c0,0-0.1,0-0.1-0.1c-0.1-0.1-0.2-0.1-0.3-0.2c0,0-0.1,0-0.1-0.1c-0.1-0.1-0.2-0.1-0.2-0.2c0,0-0.1-0.1-0.1-0.1
		c-0.1-0.1-0.1-0.1-0.2-0.2c0,0-0.1-0.1-0.1-0.1c0-0.1-0.1-0.1-0.1-0.2c0,0,0-0.1-0.1-0.1c0,0,0-0.1,0-0.2c0-0.1,0-0.1,0-0.2v-3.5
		C17.6,21.2,17.6,21.2,17.8,21.3C17.7,21.3,17.8,21.3,17.8,21.3L17.8,21.3z M27.3,16.2c5.8,0,9.8,1.7,9.8,3.3c0,1.5-4,3.2-9.8,3.2
		c-5.8,0-9.8-1.7-9.8-3.2C17.5,18,21.6,16.2,27.3,16.2L27.3,16.2z M27.3,16.2"/>
</g>
</svg>
