<?xml version="1.0" encoding="utf-8"?>
<!-- Generator: Adobe Illustrator 19.0.0, SVG Export Plug-In . SVG Version: 6.00 Build 0)  -->
<svg version="1.1" id="Layer_1" xmlns="http://www.w3.org/2000/svg" xmlns:xlink="http://www.w3.org/1999/xlink" x="0px" y="0px"
	 viewBox="0 0 55 55" style="enable-background:new 0 0 55 55;" xml:space="preserve">
<style type="text/css">
	.st0{fill:#ECECEC;}
	.st1{clip-path:url(#XMLID_11_);fill:#E6A923;}
	.st2{fill:#FFFFFF;}
</style>
<circle id="XMLID_9_" class="st0" cx="27.5" cy="27.5" r="25"/>
<g>
	<defs>
		<path id="XMLID_7_" d="M11.7,11.6c4-4.1,9.7-6.7,15.8-6.7c6.2,0,11.8,2.6,15.9,6.7c4,4.1,6.5,9.7,6.5,15.9
			c0,6.2-2.6,11.8-6.5,15.9c-4.1,4.1-9.7,6.7-15.9,6.7c-6.2,0-11.8-2.5-15.8-6.7c-4-4.1-6.5-9.7-6.5-15.9
			C5.1,21.3,7.7,15.7,11.7,11.6"/>
	</defs>
	<clipPath id="XMLID_11_">
		<use xlink:href="#XMLID_7_"  style="overflow:visible;"/>
	</clipPath>
	<path id="XMLID_8_" class="st1" d="M50.6,35c0,8.4-6.9,15.3-15.3,15.3H19.9c-8.4,0-15.3-6.9-15.3-15.3V19.6
		c0-8.4,6.9-15.3,15.3-15.3h15.3c8.4,0,15.3,6.9,15.3,15.3V35"/>
</g>
<g>
	<g id="XMLID_65_">
		<path id="XMLID_66_" class="st2" d="M15,16.7v17.2H40V16.7H15z M39,32.8H16v-2.3h23V32.8z M39,29.6H16l0-12h23L39,29.6z
			 M31.8,34.4l-1.5,0.4l0.6,2.6h-6.6l0.6-2.6l-1.5-0.4l-0.6,3h-2.8v0.9h15.1v-0.9h-2.5L31.8,34.4z M33.3,20.7l-0.7-1.4l-11.7,6.2
			l0.7,1.4L33.3,20.7z M28.3,25.5l0.7,1.4l4.7-2.5L33,23L28.3,25.5z"/>
	</g>
</g>
</svg>
