<?xml version="1.0" encoding="utf-8"?>
<!-- Generator: Adobe Illustrator 19.0.0, SVG Export Plug-In . SVG Version: 6.00 Build 0)  -->
<svg version="1.1" id="Layer_1" xmlns="http://www.w3.org/2000/svg" xmlns:xlink="http://www.w3.org/1999/xlink" x="0px" y="0px"
	 viewBox="0 0 55 55" style="enable-background:new 0 0 55 55;" xml:space="preserve">
<style type="text/css">
	.st0{fill:#ECECEC;}
	.st1{clip-path:url(#XMLID_10_);fill:#8D4098;}
	.st2{fill:#FFFFFF;}
</style>
<circle id="XMLID_8_" class="st0" cx="27.5" cy="27.5" r="25"/>
<g>
	<defs>
		<path id="XMLID_6_" d="M11.7,11.6c4-4.1,9.7-6.7,15.8-6.7c6.2,0,11.8,2.6,15.9,6.7c4,4.1,6.5,9.7,6.5,15.9
			c0,6.2-2.6,11.8-6.5,15.9c-4.1,4.1-9.7,6.7-15.9,6.7c-6.2,0-11.8-2.5-15.8-6.7c-4-4.1-6.5-9.7-6.5-15.9
			C5.1,21.3,7.7,15.7,11.7,11.6"/>
	</defs>
	<clipPath id="XMLID_10_">
		<use xlink:href="#XMLID_6_"  style="overflow:visible;"/>
	</clipPath>
	<path id="XMLID_7_" class="st1" d="M50.6,35c0,8.4-6.9,15.3-15.3,15.3H19.9c-8.4,0-15.3-6.9-15.3-15.3V19.6
		c0-8.4,6.9-15.3,15.3-15.3h15.3c8.4,0,15.3,6.9,15.3,15.3V35"/>
</g>
<g>
	<g id="XMLID_65_">
		<path id="XMLID_66_" class="st2" d="M29.7,13.8c-6.4,0-11.6,5.1-11.6,11.4c0,2.9,1.1,5.6,3,7.6l-7.1,7c-0.3,0.3-0.3,0.9,0,1.2
			c0.3,0.3,0.9,0.3,1.3,0l7.1-7c2,1.6,4.5,2.5,7.3,2.5c6.4,0,11.6-5.1,11.6-11.4C41.3,18.8,36.1,13.8,29.7,13.8z M29.7,35.4
			c-5.8,0-10.5-4.6-10.5-10.3c0-5.7,4.7-10.3,10.5-10.3s10.5,4.6,10.5,10.3C40.1,30.8,35.5,35.4,29.7,35.4z M32.3,26.4
			c-0.2,0-0.4,0.2-0.4,0.4c0,0.2,0.2,0.4,0.4,0.4c1.4,0,2.6,1.2,2.6,2.6c0,0.2-0.2,0.4-0.4,0.4h-9.5c-0.2,0-0.4-0.2-0.4-0.4
			c0-1.4,1.2-2.6,2.6-2.6c0.2,0,0.4-0.2,0.4-0.4c0-0.2-0.2-0.4-0.4-0.4c-1.8,0-3.3,1.5-3.3,3.3c0,0.6,0.5,1.1,1.1,1.1h9.5
			c0.6,0,1.1-0.5,1.1-1.1C35.6,27.9,34.1,26.4,32.3,26.4z M29.7,27.1c1.8,0,3.3-1.8,3.3-4c0-1.1-0.3-2.1-0.9-2.8
			c-0.6-0.8-1.5-1.2-2.4-1.2c-1.8,0-3.3,1.8-3.3,4C26.4,25.3,27.9,27.1,29.7,27.1z M29.7,19.8c1.4,0,2.6,1.5,2.6,3.3
			c0,1.8-1.2,3.3-2.6,3.3c-1.4,0-2.6-1.5-2.6-3.3C27.1,21.3,28.3,19.8,29.7,19.8z"/>
	</g>
</g>
</svg>
