<?xml version="1.0" encoding="utf-8"?>
<!-- Generator: Adobe Illustrator 19.0.0, SVG Export Plug-In . SVG Version: 6.00 Build 0)  -->
<svg version="1.1" id="Layer_1" xmlns="http://www.w3.org/2000/svg" xmlns:xlink="http://www.w3.org/1999/xlink" x="0px" y="0px"
	 viewBox="0 0 55 55" style="enable-background:new 0 0 55 55;" xml:space="preserve">
<style type="text/css">
	.st0{fill:#ECECEC;}
	.st1{clip-path:url(#XMLID_10_);fill:#1A4759;}
	.st2{fill:#FFFFFF;}
</style>
<circle id="XMLID_8_" class="st0" cx="27.5" cy="27.5" r="25"/>
<g>
	<defs>
		<path id="XMLID_6_" d="M11.7,11.6c4-4.1,9.7-6.7,15.8-6.7c6.2,0,11.8,2.6,15.9,6.7c4,4.1,6.5,9.7,6.5,15.9
			c0,6.2-2.6,11.8-6.5,15.9c-4.1,4.1-9.7,6.7-15.9,6.7c-6.2,0-11.8-2.5-15.8-6.7c-4-4.1-6.5-9.7-6.5-15.9
			C5.1,21.3,7.7,15.7,11.7,11.6"/>
	</defs>
	<clipPath id="XMLID_10_">
		<use xlink:href="#XMLID_6_"  style="overflow:visible;"/>
	</clipPath>
	<path id="XMLID_7_" class="st1" d="M50.6,35c0,8.4-6.9,15.3-15.3,15.3H19.9c-8.4,0-15.3-6.9-15.3-15.3V19.6
		c0-8.4,6.9-15.3,15.3-15.3h15.3c8.4,0,15.3,6.9,15.3,15.3V35"/>
</g>
<path class="st2" d="M33.3,34.1H21.7c-0.5,0-1,0-1-0.6c0-0.5,0.4-1,1-1h11.6c0.5,0,1,0.4,1,1C34.2,34,33.8,34.1,33.3,34.1z
	 M34.2,36.4c0-0.5-0.4-1-1-1H21.7c-0.5,0-1,0.4-1,1c0,0.5,0.4,0.6,1,0.6h11.6C33.8,37,34.2,36.9,34.2,36.4z M32.3,39.3
	c0-0.5-0.4-1-1-1h-7.7c-0.5,0-1,0.4-1,1c0,0.5,0.4,0.6,1,0.6h7.7C31.9,39.9,32.3,39.8,32.3,39.3z M20.4,31.3c0.4-0.4-0.1-0.6-0.5-1
	c-3.7-4.1-3.5-10.3,0.5-14.1c4-3.8,10.2-3.8,14.1,0c4,3.8,4.2,10,0.5,14.1c-0.4,0.4-0.9,0.6-0.5,1c0.4,0.4,1,0.3,1.4-0.1
	c4.1-4.6,3.9-11.5-0.5-15.8c-4.4-4.3-11.3-4.3-15.8,0c-4.4,4.3-4.7,11.2-0.5,15.8c0.2,0.2,0.5,0.3,0.7,0.3
	C20,31.6,20.3,31.5,20.4,31.3z M30.4,42.2c0-0.5-0.4-1-1-1h-3.9c-0.5,0-1,0.4-1,1c0,0.5,0.4,0.6,1,0.6h3.9
	C30,42.8,30.4,42.7,30.4,42.2z"/>
</svg>
