<?xml version="1.0" encoding="utf-8"?>
<!-- Generator: Adobe Illustrator 19.0.0, SVG Export Plug-In . SVG Version: 6.00 Build 0)  -->
<svg version="1.1" id="Layer_2" xmlns="http://www.w3.org/2000/svg" xmlns:xlink="http://www.w3.org/1999/xlink" x="0px" y="0px"
	 viewBox="0 0 349.5 588" style="enable-background:new 0 0 349.5 588;" xml:space="preserve">
<style type="text/css">
	.st0{fill:#F9A452;}
	.st1{fill:#FFFFFF;}
	.st2{font-family:'Material-Design-Iconic-Font';}
	.st3{font-size:20px;}
	.st4{fill:#999999;}
</style>
<text transform="matrix(1 0 0 1 1354.5337 528.4407)" style="opacity:0.8;fill:#F9A452; font-family:'OpenSans-Semibold'; font-size:44px;">Work Process</text>
<path class="st0" d="M45,93.2v-8c0-2,1.6-3.5,3.6-3.5h1.9c0.9,0,1.6,0.7,1.6,1.6c0,0.9-0.7,1.6-1.6,1.6h-1.9c-0.2,0-0.3,0.1-0.3,0.3
	v5.2l0.1-0.1c0.2-0.1,0.5-0.2,0.8-0.2h6.5c0.9,0,1.6,0.7,1.6,1.6c0,0.9-0.7,1.6-1.6,1.6h-6.1l-2.2,1.2c-0.2,0.1-0.5,0.2-0.8,0.2
	c-0.3,0-0.6-0.1-0.8-0.2C45.3,94.3,45,93.8,45,93.2z M54,84.8v-4.6c0-2,1.6-3.5,3.6-3.5h8.7c2,0,3.6,1.6,3.6,3.5V90
	c0,0.7-0.4,1.3-1,1.5c-0.2,0.1-0.4,0.1-0.6,0.1c-0.5,0-0.9-0.2-1.2-0.5l-2.5-2.7h-6.9C55.6,88.3,54,86.7,54,84.8z M57.3,84.8
	c0,0.2,0.1,0.3,0.3,0.3h7.6c0.5,0,0.9,0.2,1.2,0.5l0.2,0.2v-5.6c0-0.2-0.1-0.3-0.3-0.3h-8.7c-0.2,0-0.3,0.1-0.3,0.3V84.8L57.3,84.8z
	 M73.9,97.8c0-3.7,3-6.7,6.8-6.7c3.7,0,6.8,3,6.8,6.7c0,3.7-3,6.7-6.8,6.7C77,104.6,73.9,101.6,73.9,97.8z M77.2,97.8
	c0,1.9,1.6,3.5,3.5,3.5c1.9,0,3.5-1.6,3.5-3.5c0-1.9-1.6-3.5-3.5-3.5C78.8,94.3,77.2,95.9,77.2,97.8z M48,139.4h-2.8v-14.9
	c0-0.9-0.7-1.6-1.6-1.6l-9.9,0.1v-11.8l12,3.7c0.9,0.3,1.8-0.2,2.1-1c0.3-0.8-0.2-1.8-1-2l-13.6-4.5c-0.1-0.1-0.3-0.1-0.4-0.1
	c-0.1,0-0.2,0-0.3,0c-0.3,0-0.5,0.1-0.7,0.3c-0.3,0.2-0.5,0.5-0.6,0.8c-0.1,0.2-0.1,0.4-0.1,0.6v15.6c0,0,0,0.1,0,0.1c0,0,0,0,0,0v0
	c0,0,0,0,0,0v0c0,0,0,0,0,0v0c0,0,0,0,0,0c0,0,0,0,0,0c0,0,0,0,0,0c0,0,0,0,0,0c0,0,0,0,0,0c0,0,0,0,0,0c0,0,0,0,0,0v0c0,0,0,0,0,0
	v0c0,0,0,0,0,0s0,0,0,0c0,0,0,0,0,0v0c0,0,0,0,0,0c0,0,0,0,0,0s0,0,0,0c0,0,0,0,0,0c0,0,0,0,0,0c0,0,0,0,0,0c0,0,0,0,0,0
	c0,0,0,0,0,0c0,0,0,0,0,0c0,0,0,0,0,0c0,0,0,0,0,0c0,0,0,0,0,0c0,0,0,0,0,0c0,0,0,0,0,0c0,0,0,0,0,0c0,0,0,0,0,0c0,0,0,0,0,0
	c0,0,0,0,0,0c0,0,0,0,0,0c0,0,0,0,0,0c0,0,0,0,0,0c0,0,0,0,0,0c0,0,0,0,0,0c0,0,0,0,0,0c0,0,0,0,0,0c0,0,0,0,0,0c0,0,0,0,0,0
	c0,0,0,0,0,0c0,0,0,0,0,0c0,0,0,0,0,0c0,0,0,0,0,0c0,0,0,0,0,0c0,0,0,0,0,0c0,0,0,0,0,0c0,0,0,0,0,0v0c0,0,0,0,0,0c0,0,0,0,0,0
	c0,0,0,0,0,0v0c0,0,0,0,0,0c0,0,0,0,0,0c0,0,0,0,0,0c0,0,0,0,0,0c0,0,0,0,0,0c0,0,0,0,0,0c0,0,0,0,0,0v0c0,0,0,0,0,0v0c0,0,0,0,0,0
	c0,0,0,0,0,0l0,0c0.1,0.7,0.8,1.3,1.6,1.3l9-0.2L42,141c0,0,0,0,0,0c0,0.4,0.1,0.7,0.3,1c0.3,0.4,0.8,0.6,1.3,0.6c0,0,0,0,0,0H48
	c0.9,0,1.6-0.7,1.6-1.6C49.7,140.1,48.9,139.4,48,139.4z M27.3,97.8c0-3.7,3-6.7,6.8-6.7c3.7,0,6.8,3,6.8,6.7c0,3.7-3,6.7-6.8,6.7
	C30.3,104.6,27.3,101.6,27.3,97.8z M30.5,97.8c0,1.9,1.6,3.5,3.5,3.5c1.9,0,3.5-1.6,3.5-3.5c0-1.9-1.6-3.5-3.5-3.5
	C32.1,94.3,30.5,95.9,30.5,97.8z M89.9,130.2v-16.3c0-0.9-0.7-1.6-1.6-1.6c-0.9,0-1.3,0.9-1.3,1.8v14.8h-9.8c-0.9,0-1,1.1-1,2v9.8
	c0,0.9,0.5,2,1.4,2s1.5-0.1,1.5-1v-9.8h7.9v8.9c0,0.9,0.4,2,1.3,2c0.9,0,1.6-0.7,1.6-1.6V130.2C89.9,130.2,89.9,130.2,89.9,130.2z
	 M73.1,125.9l9,0.2c0.3,0,0.5-0.1,0.7-0.2v0c0,0,0,0,0,0l0,0c0,0,0,0,0,0l0,0l0,0l0,0c0,0,0,0,0,0c0,0,0,0,0,0c0,0,0,0,0,0l0,0l0,0
	c0,0,0,0,0,0c0,0,0,0,0,0l0,0c0,0,0,0,0,0l0,0c0,0,0,0,0,0l0,0c0,0,0,0,0,0h0c0,0,0,0,0,0c0,0,0,0,0,0c0,0,0,0,0,0c0,0,0,0,0,0l0,0
	l0,0l0,0c0,0,0,0,0,0c0,0,0,0,0,0s0,0,0,0c0,0,0,0,0,0c0,0,0,0,0,0c0,0,0,0,0,0c0,0,0,0,0,0c0,0,0,0,0,0c0,0,0,0,0,0l0,0
	c0,0,0,0,0,0c0,0,0,0,0,0s0,0,0,0v0c0,0,0,0,0,0l0,0c0,0,0,0,0,0c0,0,0,0,0,0c0,0,0,0,0,0h0c0,0,0,0,0,0v0c0,0,0,0,0,0l0,0
	c0,0,0,0,0,0l0,0c0,0,0,0,0,0l0,0c0,0,0,0,0,0h0c0,0,0,0,0,0l0,0c0,0,0,0,0,0l0,0c0,0,0,0,0,0l0,0c0,0,0,0,0,0l0,0
	c0,0,0.1-0.1,0.1-0.1l0,0c0,0,0,0,0,0l0,0c0,0,0,0,0,0l0,0c0,0,0,0,0,0l0,0c0,0,0,0,0,0l0,0c0,0,0,0,0,0h0l0,0v0c0,0,0,0,0,0
	c0,0,0,0,0,0c0,0,0,0,0,0l0,0c0,0,0,0,0,0h0c0,0,0,0,0,0l0,0c0,0,0,0,0,0c0,0,0,0,0,0c0,0,0,0,0,0v0l0,0l0,0c0,0,0,0,0,0l0,0
	c0,0,0,0,0,0v0c0,0,0,0,0,0v0c0,0,0,0,0,0l0,0c0,0,0,0,0,0c0,0,0,0,0,0l0,0c0,0,0,0,0,0c0,0,0,0,0,0v0c0,0,0,0,0,0c0,0,0,0,0,0
	c0,0,0,0,0,0l0,0c0,0,0,0,0,0c0,0,0,0,0,0c0,0,0,0,0,0c0,0,0,0,0,0c0,0,0,0,0,0l0,0c0,0,0,0,0,0c0,0,0,0,0,0c0,0,0,0,0,0
	c0,0,0,0,0,0c0,0,0,0,0,0c0,0,0,0,0,0c0,0,0,0,0,0c0,0,0,0,0,0l0,0c0,0,0,0,0,0c0,0,0,0,0,0c0,0,0,0,0,0l0,0c0,0,0,0,0,0
	c0,0,0,0,0,0c0,0,0,0,0,0s0,0,0,0l0,0l0,0c0,0,0,0,0,0c0,0,0,0,0,0c0,0,0,0,0,0v0c0,0,0,0,0,0c0,0,0,0,0,0c0,0,0,0,0,0c0,0,0,0,0,0
	c0,0,0,0,0,0c0,0,0,0,0,0c0,0,0,0,0,0l0,0c0,0,0,0,0,0v0c0,0,0,0,0,0l0,0c0,0,0,0,0,0c0,0,0,0,0,0s0,0,0,0l0,0c0,0,0,0,0,0v0
	c0,0,0,0,0,0l0,0c0,0,0,0,0,0l0,0c0,0,0,0,0,0c0,0,0,0,0,0c0,0,0,0,0,0l0,0c0,0,0,0,0,0c0.1-0.1,0.2-0.2,0.2-0.3v0c0,0,0,0,0,0l0,0
	c0,0,0,0,0,0v0c0,0,0,0,0,0v0c0,0,0,0,0,0c0,0,0,0,0,0c0,0,0,0,0,0c0,0,0,0,0,0c0,0,0,0,0,0v0c0,0,0,0,0,0c0,0,0,0,0,0c0,0,0,0,0,0
	l0,0c0,0,0,0,0,0c0,0,0,0,0,0s0,0,0,0c0,0,0,0,0,0c0,0,0,0,0,0c0,0,0,0,0,0c0,0,0,0,0,0c0,0,0,0,0,0c0,0,0,0,0,0c0,0,0,0,0,0
	c0,0,0,0,0,0c0,0,0,0,0,0l0,0c0,0,0,0,0,0c0,0,0,0,0,0c0,0,0,0,0,0v0c0,0,0,0,0,0v0c0,0,0,0,0,0l0,0c0,0,0,0,0,0c0,0,0,0,0,0
	c0,0,0,0,0,0l0,0c0,0,0,0,0,0v0c0.1-0.2,0.2-0.5,0.2-0.7v-15.6c0-0.1,0-0.2,0-0.3c0-0.2-0.1-0.4-0.2-0.6c-0.1-0.2-0.2-0.3-0.3-0.4
	c-0.2-0.2-0.5-0.3-0.9-0.4c-0.1,0-0.2,0-0.3,0c-0.1,0-0.3,0-0.4,0.1L68,111.8c-0.9,0.3-1.3,1.2-1,2c0.3,0.8,1.2,1.3,2.1,1l12-3.7
	v11.8l-9.9-0.1c-0.9,0-1.6,0.7-1.6,1.6v14.9h-2.8c-0.9,0-1.6,0.7-1.6,1.6c0,0.9,0.7,1.6,1.6,1.6h4.4c0,0,0,0,0,0
	c0.5,0,1-0.3,1.3-0.6c0.2-0.3,0.3-0.6,0.3-1c0,0,0,0,0,0v-14.9L73.1,125.9z M37.7,128.8h-9.8v-14.8c0-0.9-0.4-1.8-1.3-1.8
	c-0.9,0-1.6,0.7-1.6,1.6v16.4c0,0,0,0,0,0V141c0,0.9,0.7,1.6,1.6,1.6c0.9,0,1.3-1.1,1.3-2v-8.9h7.9v8.9c0,0.9,0.7,2,1.5,2
	c0.9,0,1.4-1.1,1.4-2v-9.8C38.7,129.9,38.6,128.8,37.7,128.8z M61,139.4l-1.7,0.3V120h9.8c0.9,0,1.4-0.6,1.4-1.5
	c0-0.9-0.7-1.6-1.6-1.6H57.4c0,0,0,0-0.1,0H45.7c-0.9,0-1.6,0.7-1.6,1.6c0,0.9,0.5,1.5,1.4,1.5h9.8v19.7l-1.7-0.3
	c-0.9,0-1.6,0.7-1.6,1.6s0.7,1.6,1.6,1.6H61c0.9,0,1.6-0.7,1.6-1.6S61.9,139.4,61,139.4z"/>
<text transform="matrix(1 0 0 1 108.0224 91.0134)" class="st1 st2 st3"></text>
<path class="st4" d="M52,21.2h10.8c0.8,0,1.4,0.6,1.4,1.4c0,0.8-0.6,1.4-1.4,1.4H52c-0.8,0-1.4-0.6-1.4-1.4
	C50.6,21.9,51.2,21.2,52,21.2 M31,21.2h10.8c0.8,0,1.4,0.6,1.4,1.4c0,0.8-0.6,1.4-1.4,1.4H31c-0.8,0-1.4-0.6-1.4-1.4
	C29.6,21.9,30.3,21.2,31,21.2z M73.6,21.2h10.8c0.8,0,1.4,0.6,1.4,1.4c0,0.8-0.6,1.4-1.4,1.4H73.6c-0.8,0-1.4-0.6-1.4-1.4
	C72.2,21.9,72.8,21.2,73.6,21.2z M95.3,21.4c0.1,0,0.1,0,0.2,0c3.8,0.5,7.5,2,10.6,4.2c0.6,0.4,0.8,1.3,0.3,1.9
	c-0.4,0.6-1.3,0.8-1.9,0.3c-2.8-2-6-3.3-9.3-3.7c-0.8-0.1-1.3-0.8-1.2-1.6C94,21.9,94.6,21.4,95.3,21.4z M112.2,33.6
	c0.5,0,1,0.3,1.2,0.8c1.7,3.3,2.5,6.8,2.5,10.5v0.5c0,0.8-0.6,1.4-1.4,1.4c-0.8,0-1.4-0.6-1.4-1.4v-0.5c0-3.3-0.7-6.4-2.2-9.3
	c-0.3-0.7-0.1-1.5,0.6-1.9C111.8,33.6,112,33.6,112.2,33.6z M114.5,54.8c0.8,0,1.4,0.6,1.4,1.4v10.8c0,0.8-0.6,1.4-1.4,1.4
	c-0.8,0-1.4-0.6-1.4-1.4V56.2C113.2,55.5,113.8,54.8,114.5,54.8z"/>
<path class="st4" d="M120.6,203.1h-10.8c-0.8,0-1.4-0.6-1.4-1.4c0-0.8,0.6-1.4,1.4-1.4h10.8c0.8,0,1.4,0.6,1.4,1.4
	C122,202.5,121.4,203.1,120.6,203.1 M141.5,203.1h-10.8c-0.8,0-1.4-0.6-1.4-1.4c0-0.8,0.6-1.4,1.4-1.4h10.8c0.8,0,1.4,0.6,1.4,1.4
	C142.9,202.5,142.3,203.1,141.5,203.1z M162.5,203.1h-10.8c-0.8,0-1.4-0.6-1.4-1.4c0-0.8,0.6-1.4,1.4-1.4h10.8
	c0.8,0,1.4,0.6,1.4,1.4C163.9,202.5,163.3,203.1,162.5,203.1z M99,203.1H88.1c-0.8,0-1.4-0.6-1.4-1.4c0-0.8,0.6-1.4,1.4-1.4H99
	c0.8,0,1.4,0.6,1.4,1.4C100.4,202.5,99.7,203.1,99,203.1z M77.3,202.9c-0.1,0-0.1,0-0.2,0c-3.8-0.5-7.5-2-10.6-4.2
	c-0.6-0.4-0.8-1.3-0.3-1.9c0.4-0.6,1.3-0.8,1.9-0.3c2.8,2,6,3.3,9.3,3.7c0.8,0.1,1.3,0.8,1.2,1.6C78.6,202.4,78,202.9,77.3,202.9z
	 M60.4,190.8c-0.5,0-1-0.3-1.2-0.8c-1.7-3.3-2.5-6.8-2.5-10.5V179c0-0.8,0.6-1.4,1.4-1.4c0.8,0,1.4,0.6,1.4,1.4v0.5
	c0,3.3,0.7,6.4,2.2,9.3c0.3,0.7,0.1,1.5-0.6,1.9C60.8,190.8,60.6,190.8,60.4,190.8z M58,169.5c-0.8,0-1.4-0.6-1.4-1.4v-10.8
	c0-0.8,0.6-1.4,1.4-1.4c0.8,0,1.4,0.6,1.4,1.4v10.8C59.4,168.9,58.8,169.5,58,169.5z"/>
<text transform="matrix(1 0 0 1 180.0224 210.0134)" class="st1 st2 st3"></text>
<path class="st4" d="M190.6,345.1h-10.8c-0.8,0-1.4-0.6-1.4-1.4c0-0.8,0.6-1.4,1.4-1.4h10.8c0.8,0,1.4,0.6,1.4,1.4
	C192,344.5,191.4,345.1,190.6,345.1 M211.5,345.1h-10.8c-0.8,0-1.4-0.6-1.4-1.4c0-0.8,0.6-1.4,1.4-1.4h10.8c0.8,0,1.4,0.6,1.4,1.4
	C212.9,344.5,212.3,345.1,211.5,345.1z M232.5,345.1h-10.8c-0.8,0-1.4-0.6-1.4-1.4c0-0.8,0.6-1.4,1.4-1.4h10.8
	c0.8,0,1.4,0.6,1.4,1.4C233.9,344.5,233.3,345.1,232.5,345.1z M169,345.1h-10.8c-0.8,0-1.4-0.6-1.4-1.4c0-0.8,0.6-1.4,1.4-1.4H169
	c0.8,0,1.4,0.6,1.4,1.4C170.4,344.5,169.7,345.1,169,345.1z M147.3,344.9c-0.1,0-0.1,0-0.2,0c-3.8-0.5-7.5-2-10.6-4.2
	c-0.6-0.4-0.8-1.3-0.3-1.9c0.4-0.6,1.3-0.8,1.9-0.3c2.8,2,6,3.3,9.3,3.7c0.8,0.1,1.3,0.8,1.2,1.6C148.6,344.4,148,344.9,147.3,344.9
	z M130.4,332.8c-0.5,0-1-0.3-1.2-0.8c-1.7-3.3-2.5-6.8-2.5-10.5V321c0-0.8,0.6-1.4,1.4-1.4c0.8,0,1.4,0.6,1.4,1.4v0.5
	c0,3.3,0.7,6.4,2.2,9.3c0.3,0.7,0.1,1.5-0.6,1.9C130.8,332.8,130.6,332.8,130.4,332.8z M128,311.5c-0.8,0-1.4-0.6-1.4-1.4v-10.8
	c0-0.8,0.6-1.4,1.4-1.4c0.8,0,1.4,0.6,1.4,1.4v10.8C129.4,310.9,128.8,311.5,128,311.5z"/>
<text transform="matrix(1 0 0 1 250.0224 352.0134)" class="st1 st2 st3"></text>
<path class="st4" d="M260.6,491.1h-10.8c-0.8,0-1.4-0.6-1.4-1.4c0-0.8,0.6-1.4,1.4-1.4h10.8c0.8,0,1.4,0.6,1.4,1.4
	C262,490.5,261.4,491.1,260.6,491.1 M281.5,491.1h-10.8c-0.8,0-1.4-0.6-1.4-1.4c0-0.8,0.6-1.4,1.4-1.4h10.8c0.8,0,1.4,0.6,1.4,1.4
	C282.9,490.5,282.3,491.1,281.5,491.1z M302.5,491.1h-10.8c-0.8,0-1.4-0.6-1.4-1.4c0-0.8,0.6-1.4,1.4-1.4h10.8
	c0.8,0,1.4,0.6,1.4,1.4C303.9,490.5,303.3,491.1,302.5,491.1z M239,491.1h-10.8c-0.8,0-1.4-0.6-1.4-1.4c0-0.8,0.6-1.4,1.4-1.4H239
	c0.8,0,1.4,0.6,1.4,1.4C240.4,490.5,239.7,491.1,239,491.1z M217.3,490.9c-0.1,0-0.1,0-0.2,0c-3.8-0.5-7.5-2-10.6-4.2
	c-0.6-0.4-0.8-1.3-0.3-1.9c0.4-0.6,1.3-0.8,1.9-0.3c2.8,2,6,3.3,9.3,3.7c0.8,0.1,1.3,0.8,1.2,1.6C218.6,490.4,218,490.9,217.3,490.9
	z M200.4,478.8c-0.5,0-1-0.3-1.2-0.8c-1.7-3.3-2.5-6.8-2.5-10.5V467c0-0.8,0.6-1.4,1.4-1.4c0.8,0,1.4,0.6,1.4,1.4v0.5
	c0,3.3,0.7,6.4,2.2,9.3c0.3,0.7,0.1,1.5-0.6,1.9C200.8,478.8,200.6,478.8,200.4,478.8z M198,457.5c-0.8,0-1.4-0.6-1.4-1.4v-10.8
	c0-0.8,0.6-1.4,1.4-1.4c0.8,0,1.4,0.6,1.4,1.4v10.8C199.4,456.9,198.8,457.5,198,457.5z"/>
<text transform="matrix(1 0 0 1 320.0224 498.0134)" class="st1 st2 st3"></text>
<g>
	<g>
		<path class="st0" d="M159.6,227.4h-8.8v-4.1c0-1.1-0.9-2-2-2s-2,0.9-2,2v4.1h-12.2v-4.1c0-1.1-0.9-2-2-2s-2,0.9-2,2v4.1h-12.2
			v-4.1c0-1.1-0.9-2-2-2s-2,0.9-2,2v4.1h-8.8c-3,0-5.4,2.4-5.4,5.4v48.1c0,3,2.4,5.4,5.4,5.4h54.2c3,0,5.4-2.4,5.4-5.4v-48.1
			C165,229.8,162.6,227.4,159.6,227.4z M162,281.3c0,0.7-2.3,2-3,2h-53c-0.7,0-3-2.3-3-3v-47c0-0.7,2.3-3,3-3h8l0.2,5.2
			c0,1.1,0.9,2,2,2s2-0.9,2-2l-0.3-5.2h12l0.5,5.2c0,1.1,0.9,2,2,2s2-0.9,2-2l-0.5-5.2h13l-0.3,5.2c0,1.1,0.9,2,2,2s2-0.9,2-2
			l0.2-5.2h8c0.7,0,3,2.3,3,3V281.3z M114,252.3h8v-6h-8V252.3z M114,262.3h8v-6h-8V262.3z M114,272.3h8v-6h-8V272.3z M130,272.3h8
			v-6h-8V272.3z M130,262.3h8v-6h-8V262.3z M130,252.3h8v-6h-8V252.3z M145,272.3h8v-6h-8V272.3z M145,262.3h8v-6h-8V262.3z
			 M145,252.3h8v-6h-8V252.3z"/>
	</g>
</g>
<g>
	<g>
		<path class="st0" d="M201.9,426.9h-23c-1.7,0-4-0.2-4-2v-50c0-1.8,2.3-3,4-3h32l-0.1,4.7c0,2.9,3.8,5.5,6.6,5.5l4.5,0.8v18
			c0,0.5,0.9,1.4,1.4,1.4s1.6-0.9,1.6-1.4v-20c0,0-0.6-0.6-0.6-0.6c0,0,0,0,0-0.1c0,0,0,0,0,0c0,0,0-0.1,0-0.1c0,0,0,0,0,0
			c0,0,0-0.1,0-0.1c0,0,0,0,0,0c0,0,0,0,0-0.1c0,0,0,0,0,0c0,0,0,0,0-0.1c0,0,0,0,0,0c0,0,0,0,0-0.1c0,0,0,0,0,0c0,0,0,0-0.1-0.1
			l-10.4-10.5c0,0,0,0-0.1-0.1c0,0,0,0,0,0c0,0,0,0-0.1,0c0,0,0,0,0,0c0,0,0,0-0.1,0c0,0,0,0,0,0c0,0,0,0-0.1,0c0,0,0,0,0,0
			c0,0-0.1,0-0.1,0c0,0,0,0,0,0c0,0-0.1,0-0.1,0c0,0,0,0,0,0c0,0,0,0-0.1,0c0,0-0.1,0-0.1,0h-36c-2.8,0-5.1,2.3-5.1,5.2v50.3
			c0,2.9,2.2,5.5,5,5.5h25c0.5,0,1.7-0.7,1.7-1.3C203.6,428.1,202.4,426.9,201.9,426.9z M213.9,372.3l7,7.1h-3.9
			c-1.7,0-3.2-1.4-3.2-3.2V372.3z M219.2,412c-4.5,0-8.2,3.7-8.2,8.3c0,4.6,3.7,8.3,8.2,8.3s8.2-3.7,8.2-8.3
			C227.4,415.7,223.7,412,219.2,412z M219,425c-2.7,0-5-2.2-5-4.9c0-2.7,2.2-4.9,5-4.9s5,2.2,5,4.9C224,422.7,221.8,425,219,425z
			 M232.9,423.5l-0.6-0.4c0.2-1,0.3-1.9,0.3-2.9c0-1-0.1-1.9-0.3-2.9l0.6-0.4c0.5-0.3,0.8-0.7,0.9-1.2s0.1-1.1-0.2-1.5l-2.1-3.6
			c-0.3-0.5-0.7-0.8-1.2-0.9c-0.5-0.1-1.1-0.1-1.5,0.2l-0.6,0.4c-1.4-1.3-3.1-2.3-4.9-2.9v-0.7c0-1.1-0.9-2-2-2h-4.1
			c-1.1,0-2,0.9-2,2v0.7c-1.8,0.6-3.5,1.6-4.9,2.9l-0.6-0.4c-0.5-0.3-1-0.3-1.5-0.2c-0.5,0.1-1,0.5-1.2,0.9l-2.1,3.6
			c-0.3,0.5-0.3,1-0.2,1.5c0.1,0.5,0.5,1,0.9,1.2l0.6,0.4c-0.2,1-0.3,1.9-0.3,2.9c0,1,0.1,1.9,0.3,2.9l-0.6,0.4
			c-0.5,0.3-0.8,0.7-0.9,1.2s-0.1,1.1,0.2,1.5l2.1,3.6c0.6,1,1.8,1.3,2.7,0.7l0.6-0.4c1.4,1.3,3.1,2.3,4.9,2.9v0.7c0,1.1,0.9,2,2,2
			h4.1c1.1,0,2-0.9,2-2v-0.7c1.8-0.6,3.5-1.6,4.9-2.9l0.6,0.4c1,0.6,2.2,0.2,2.7-0.7l2.1-3.6c0.3-0.5,0.3-1,0.2-1.5
			S233.3,423.8,232.9,423.5z M230.2,417.2c0.3,1,0.4,2.1,0.4,3.1c0,1-0.1,2.1-0.4,3.1c-0.1,0.4,0.1,0.9,0.5,1.1l1.2,0.7c0,0,0,0,0,0
			c0,0,0,0,0,0l-2.1,3.6c0,0-0.1,0-0.1,0l-1.2-0.7c-0.4-0.2-0.9-0.2-1.2,0.2c-1.5,1.5-3.3,2.6-5.3,3.1c-0.4,0.1-0.7,0.5-0.7,1v1.5
			c0,0,0,0.1-0.1,0.1h-4.1c0,0-0.1,0-0.1-0.1v-1.5c0-0.4-0.3-0.8-0.7-1c-2-0.5-3.9-1.6-5.3-3.1c-0.2-0.2-0.4-0.3-0.7-0.3
			c-0.2,0-0.3,0-0.5,0.1l-1.2,0.7c0,0-0.1,0-0.1,0l-2.1-3.6c0,0,0,0,0,0c0,0,0,0,0,0l1.2-0.7c0.4-0.2,0.6-0.7,0.5-1.1
			c-0.3-1-0.4-2.1-0.4-3.1s0.1-2.1,0.4-3.1c0.1-0.4-0.1-0.9-0.5-1.1l-1.2-0.7c0,0,0,0,0,0s0,0,0,0l2.1-3.6c0,0,0.1,0,0.1,0l1.2,0.7
			c0.4,0.2,0.9,0.2,1.2-0.2c1.5-1.5,3.3-2.6,5.3-3.1c0.4-0.1,0.7-0.5,0.7-1v-1.5c0,0,0-0.1,0.1-0.1h4.1c0,0,0.1,0,0.1,0.1v1.5
			c0,0.4,0.3,0.8,0.7,1c2,0.5,3.9,1.6,5.3,3.1c0.3,0.3,0.8,0.4,1.2,0.2l1.2-0.7c0,0,0.1,0,0.1,0l2.1,3.6c0,0,0,0,0,0c0,0,0,0,0,0
			l-1.2,0.7C230.3,416.3,230.1,416.7,230.2,417.2z M188.5,385.4h-2.1c-0.5,0-1,0.4-1,1c0,0.5,0.4,1,1,1h2.1c0.5,0,1-0.4,1-1
			C189.5,385.8,189.1,385.4,188.5,385.4z M192.7,387.3h2.1c0.5,0,1-0.4,1-1c0-0.5-0.4-1-1-1h-2.1c-0.5,0-1,0.4-1,1
			C191.7,386.9,192.1,387.3,192.7,387.3z M209.2,385.4h-10.4c-0.5,0-1,0.4-1,1c0,0.5,0.4,1,1,1h10.4c0.5,0,1-0.4,1-1
			C210.2,385.8,209.8,385.4,209.2,385.4z M201.9,391.5c0-0.5-0.4-1-1-1h-8.3c-0.5,0-1,0.4-1,1c0,0.5,0.4,1,1,1h8.3
			C201.5,392.4,201.9,392,201.9,391.5z M204.1,391.5c0,0.5,0.4,1,1,1h7.3c0.5,0,1-0.4,1-1c0-0.5-0.4-1-1-1h-7.3
			C204.6,390.5,204.1,390.9,204.1,391.5z M188.5,390.5h-2.1c-0.5,0-1,0.4-1,1c0,0.5,0.4,1,1,1h2.1c0.5,0,1-0.4,1-1
			C189.5,390.9,189.1,390.5,188.5,390.5z M189.5,396.5c0-0.5-0.4-1-1-1h-2.1c-0.5,0-1,0.4-1,1c0,0.5,0.4,1,1,1h2.1
			C189.1,397.5,189.5,397.1,189.5,396.5z M199.9,397.5h17.6c0.5,0,1-0.4,1-1c0-0.5-0.4-1-1-1h-17.6c-0.5,0-1,0.4-1,1
			C198.9,397.1,199.4,397.5,199.9,397.5z M192.7,395.6c-0.5,0-1,0.4-1,1c0,0.5,0.4,1,1,1h3.1c0.5,0,1-0.4,1-1c0-0.5-0.4-1-1-1H192.7
			z M203.7,401.5h-11.4c-0.5,0-1,0.4-1,1s0.4,1,1,1h11.4c0.5,0,1-0.4,1-1S204.2,401.5,203.7,401.5z M191.2,411.8h4.1
			c0.5,0,1-0.4,1-1c0-0.5-0.4-1-1-1h-4.1c-0.5,0-1,0.4-1,1C190.3,411.4,190.7,411.8,191.2,411.8z M188.1,401.5h-2.1
			c-0.5,0-1,0.4-1,1s0.4,1,1,1h2.1c0.5,0,1-0.4,1-1S188.7,401.5,188.1,401.5z M185.4,411.5c0.2,0.2,0.4,0.3,0.7,0.3s0.5-0.1,0.7-0.3
			l2.1-2.1c0.4-0.4,0.4-1,0-1.4l-2.1-2.1c-0.4-0.4-1-0.4-1.4,0c-0.4,0.4-0.4,1,0,1.4l1.4,1.4l-1.4,1.4
			C185,410.5,185,411.1,185.4,411.5z"/>
	</g>
</g>
<g>
	<g>
		<path class="st0" d="M292.7,516.4C292.7,516.4,292.7,516.4,292.7,516.4C292.7,516.4,292.7,516.4,292.7,516.4
			C292.7,516.4,292.7,516.4,292.7,516.4C292.7,516.3,292.7,516.3,292.7,516.4c0-0.1,0-0.1,0-0.1c0,0,0,0,0-0.1c0,0,0,0,0,0
			c0,0,0,0,0,0c0,0,0,0,0-0.1c0,0,0,0,0,0c0,0,0,0,0,0c0,0,0,0,0,0c0,0,0,0,0,0c0,0,0,0,0,0c0,0,0,0,0,0c0,0,0,0,0-0.1c0,0,0,0,0,0
			c0,0,0,0,0,0c0,0,0,0,0,0c0,0,0,0,0-0.1c0,0,0,0,0,0c0,0,0,0,0,0c0,0,0,0,0,0c0,0,0,0,0,0c0,0,0,0,0,0c0,0,0,0,0,0c0,0,0,0,0,0
			c0,0,0,0,0,0c0,0,0,0,0,0c0,0,0,0,0,0c0,0,0,0,0,0c0,0,0,0-0.1,0c0,0,0,0,0,0c0,0,0,0,0,0c0,0,0,0,0,0c0,0,0,0,0,0c0,0,0,0,0,0
			c0,0,0,0,0,0c0,0,0,0,0,0c0,0,0,0,0,0c0,0,0,0,0,0c0,0,0,0-0.1,0c0,0,0,0,0,0c0,0,0,0,0,0c0,0,0,0-0.1,0c0,0,0,0,0,0c0,0,0,0,0,0
			c0,0,0,0,0,0h0c0,0,0,0-0.1,0c0,0,0,0,0,0c0,0,0,0,0,0c0,0,0,0,0,0c0,0,0,0,0,0c0,0,0,0-0.1,0c0,0,0,0,0,0c0,0,0,0,0,0
			c0,0,0,0-0.1,0c0,0,0,0,0,0c0,0,0,0,0,0L227.3,540c-0.4,0.2-0.7,0.5-0.7,1c0,0.4,0.3,0.8,0.7,1l19.1,7.2l6.1,18.6c0,0,0,0,0,0
			c0,0,0,0,0,0c0,0,0,0.1,0.1,0.1c0,0,0,0,0,0c0,0,0,0.1,0.1,0.1c0,0,0,0,0,0c0,0,0,0,0,0c0,0,0,0,0,0c0,0,0,0,0,0c0,0,0,0,0,0
			c0,0,0,0,0,0c0,0,0,0,0,0c0,0,0,0,0,0c0,0,0,0,0,0c0,0,0,0,0,0c0,0,0,0,0.1,0c0,0,0,0,0,0c0,0,0,0,0,0c0,0,0,0,0,0
			c0,0,0.1,0,0.1,0.1c0,0,0,0,0,0c0,0,0,0,0,0c0,0,0.1,0,0.1,0c0,0,0,0,0,0c0,0,0,0,0,0c0,0,0.1,0,0.1,0c0,0,0,0,0,0c0,0,0,0,0,0
			c0,0,0.1,0,0.1,0c0,0,0,0,0,0c0,0,0.1,0,0.1,0c0,0,0,0,0,0c0,0,0,0,0,0c0,0,0.1,0,0.1,0c0,0,0,0,0,0c0,0,0,0,0,0c0,0,0,0,0,0
			c0,0,0,0,0,0c0,0,0,0,0.1,0c0,0,0,0,0,0c0,0,0,0,0,0c0,0,0,0,0,0c0,0,0,0,0.1,0c0,0,0,0,0,0v0c0,0,0,0,0,0c0,0,0,0,0,0
			c0,0,0,0,0,0c0,0,0,0,0,0c0,0,0,0,0,0c0,0,0.1-0.1,0.1-0.1c0,0,0,0,0,0c0,0,0,0,0,0c0,0,0,0,0,0l7.5-10.1c0.3-0.5,0.2-1.1-0.2-1.4
			c-0.5-0.3-1.1-0.2-1.4,0.2l-3.3,4.4l2.6-7l24.6,9.2c0.1,0,0.2,0.1,0.4,0.1c0.2,0,0.4,0,0.5-0.1c0.3-0.2,0.5-0.4,0.5-0.7l7.1-45.9
			c0,0,0,0,0,0c0,0,0,0,0-0.1C292.7,516.5,292.7,516.5,292.7,516.4C292.7,516.5,292.7,516.5,292.7,516.4
			C292.7,516.5,292.7,516.5,292.7,516.4C292.7,516.4,292.7,516.4,292.7,516.4z M258.2,551.2c-0.1,0.1-0.2,1.1-0.2,1.2
			c0,0,0-0.9,0-0.8l-4,10.8l-4.9-15c-0.1-0.3-1.1,0-1.4-0.1c0,0,0.8-0.5,0.8-0.5l-15.7-5.9l49.9-19l-27.4,19.4
			c-0.5,0.3-0.6,1-0.2,1.4c0.2,0.3,0.5,0.4,0.8,0.4c0.2,0,0.4-0.1,0.6-0.2l26.1-18.7L258.2,551.2z M282.7,559.5l-22.2-8l28.2-31
			L282.7,559.5z M252,543.7l-2,1.4c-0.5,0.3-0.6,1-0.2,1.4c0.2,0.3,0.5,0.4,0.8,0.4c0.2,0,0.4-0.1,0.6-0.2l2-1.4
			c0.5-0.3,0.6-1,0.2-1.4C253.1,543.4,252.5,543.3,252,543.7z"/>
	</g>
</g>
</svg>
