<svg xmlns="http://www.w3.org/2000/svg" width="380.999" height="107.001" viewBox="0 0 380.999 107.001">
  <path id="Union_55" data-name="Union 55" d="M-2681.769,61.136a4.875,4.875,0,0,1,4.885-4.864A4.873,4.873,0,0,1-2672,61.136,4.873,4.873,0,0,1-2676.883,66,4.875,4.875,0,0,1-2681.769,61.136Zm-19.538,0a4.874,4.874,0,0,1,4.884-4.864,4.874,4.874,0,0,1,4.883,4.864A4.874,4.874,0,0,1-2696.422,66,4.874,4.874,0,0,1-2701.306,61.136Zm-19.539,0a4.874,4.874,0,0,1,4.883-4.864,4.875,4.875,0,0,1,4.885,4.864A4.875,4.875,0,0,1-2715.962,66,4.874,4.874,0,0,1-2720.845,61.136Zm-19.538,0a4.874,4.874,0,0,1,4.884-4.864,4.875,4.875,0,0,1,4.885,4.864A4.875,4.875,0,0,1-2735.5,66,4.874,4.874,0,0,1-2740.384,61.136Zm-19.54,0a4.875,4.875,0,0,1,4.885-4.864,4.875,4.875,0,0,1,4.885,4.864A4.875,4.875,0,0,1-2755.038,66,4.875,4.875,0,0,1-2759.924,61.136Zm-19.538,0a4.875,4.875,0,0,1,4.885-4.864,4.875,4.875,0,0,1,4.885,4.864A4.875,4.875,0,0,1-2774.577,66,4.875,4.875,0,0,1-2779.462,61.136Zm-19.538,0a4.875,4.875,0,0,1,4.885-4.864,4.875,4.875,0,0,1,4.885,4.864A4.875,4.875,0,0,1-2794.115,66,4.875,4.875,0,0,1-2799,61.136Zm-19.539,0a4.875,4.875,0,0,1,4.885-4.864,4.875,4.875,0,0,1,4.885,4.864A4.875,4.875,0,0,1-2813.653,66,4.875,4.875,0,0,1-2818.539,61.136Zm-19.538,0a4.875,4.875,0,0,1,4.885-4.864,4.875,4.875,0,0,1,4.885,4.864A4.875,4.875,0,0,1-2833.192,66,4.875,4.875,0,0,1-2838.076,61.136Zm-19.539,0a4.875,4.875,0,0,1,4.885-4.864,4.874,4.874,0,0,1,4.884,4.864A4.874,4.874,0,0,1-2852.73,66,4.875,4.875,0,0,1-2857.615,61.136Zm-19.538,0a4.875,4.875,0,0,1,4.885-4.864,4.873,4.873,0,0,1,4.883,4.864A4.873,4.873,0,0,1-2872.268,66,4.875,4.875,0,0,1-2877.153,61.136Zm-19.539,0a4.875,4.875,0,0,1,4.885-4.864,4.874,4.874,0,0,1,4.883,4.864A4.874,4.874,0,0,1-2891.806,66,4.875,4.875,0,0,1-2896.692,61.136Zm-19.538,0a4.874,4.874,0,0,1,4.884-4.864,4.875,4.875,0,0,1,4.885,4.864A4.875,4.875,0,0,1-2911.347,66,4.874,4.874,0,0,1-2916.23,61.136Zm-19.538,0a4.873,4.873,0,0,1,4.883-4.864A4.875,4.875,0,0,1-2926,61.136,4.875,4.875,0,0,1-2930.885,66,4.873,4.873,0,0,1-2935.768,61.136Zm-19.541,0a4.875,4.875,0,0,1,4.885-4.864,4.875,4.875,0,0,1,4.885,4.864A4.875,4.875,0,0,1-2950.423,66,4.875,4.875,0,0,1-2955.309,61.136Zm-19.538,0a4.875,4.875,0,0,1,4.885-4.864,4.875,4.875,0,0,1,4.885,4.864A4.875,4.875,0,0,1-2969.962,66,4.875,4.875,0,0,1-2974.846,61.136Zm-19.539,0a4.875,4.875,0,0,1,4.885-4.864,4.875,4.875,0,0,1,4.885,4.864A4.875,4.875,0,0,1-2989.5,66,4.875,4.875,0,0,1-2994.385,61.136Zm-19.538,0a4.875,4.875,0,0,1,4.885-4.864,4.875,4.875,0,0,1,4.885,4.864A4.875,4.875,0,0,1-3009.038,66,4.875,4.875,0,0,1-3013.923,61.136Zm-19.539,0a4.875,4.875,0,0,1,4.885-4.864,4.875,4.875,0,0,1,4.885,4.864A4.875,4.875,0,0,1-3028.576,66,4.875,4.875,0,0,1-3033.462,61.136Zm-19.538,0a4.875,4.875,0,0,1,4.885-4.864,4.873,4.873,0,0,1,4.883,4.864A4.873,4.873,0,0,1-3048.115,66,4.875,4.875,0,0,1-3053,61.136Zm371.231-19.454a4.875,4.875,0,0,1,4.885-4.864A4.873,4.873,0,0,1-2672,41.682a4.873,4.873,0,0,1-4.883,4.864A4.875,4.875,0,0,1-2681.769,41.682Zm-19.538,0a4.874,4.874,0,0,1,4.884-4.864,4.874,4.874,0,0,1,4.883,4.864,4.874,4.874,0,0,1-4.883,4.864A4.874,4.874,0,0,1-2701.306,41.682Zm-19.539,0a4.874,4.874,0,0,1,4.883-4.864,4.875,4.875,0,0,1,4.885,4.864,4.875,4.875,0,0,1-4.885,4.864A4.874,4.874,0,0,1-2720.845,41.682Zm-19.538,0a4.874,4.874,0,0,1,4.884-4.864,4.875,4.875,0,0,1,4.885,4.864,4.875,4.875,0,0,1-4.885,4.864A4.874,4.874,0,0,1-2740.384,41.682Zm-19.54,0a4.875,4.875,0,0,1,4.885-4.864,4.875,4.875,0,0,1,4.885,4.864,4.875,4.875,0,0,1-4.885,4.864A4.875,4.875,0,0,1-2759.924,41.682Zm-19.538,0a4.875,4.875,0,0,1,4.885-4.864,4.875,4.875,0,0,1,4.885,4.864,4.875,4.875,0,0,1-4.885,4.864A4.875,4.875,0,0,1-2779.462,41.682Zm-19.538,0a4.875,4.875,0,0,1,4.885-4.864,4.875,4.875,0,0,1,4.885,4.864,4.875,4.875,0,0,1-4.885,4.864A4.875,4.875,0,0,1-2799,41.682Zm-19.539,0a4.875,4.875,0,0,1,4.885-4.864,4.875,4.875,0,0,1,4.885,4.864,4.875,4.875,0,0,1-4.885,4.864A4.875,4.875,0,0,1-2818.539,41.682Zm-19.538,0a4.875,4.875,0,0,1,4.885-4.864,4.875,4.875,0,0,1,4.885,4.864,4.875,4.875,0,0,1-4.885,4.864A4.875,4.875,0,0,1-2838.076,41.682Zm-19.539,0a4.875,4.875,0,0,1,4.885-4.864,4.874,4.874,0,0,1,4.884,4.864,4.874,4.874,0,0,1-4.884,4.864A4.875,4.875,0,0,1-2857.615,41.682Zm-19.538,0a4.875,4.875,0,0,1,4.885-4.864,4.873,4.873,0,0,1,4.883,4.864,4.873,4.873,0,0,1-4.883,4.864A4.875,4.875,0,0,1-2877.153,41.682Zm-19.539,0a4.875,4.875,0,0,1,4.885-4.864,4.874,4.874,0,0,1,4.883,4.864,4.874,4.874,0,0,1-4.883,4.864A4.875,4.875,0,0,1-2896.692,41.682Zm-19.538,0a4.874,4.874,0,0,1,4.884-4.864,4.875,4.875,0,0,1,4.885,4.864,4.875,4.875,0,0,1-4.885,4.864A4.874,4.874,0,0,1-2916.23,41.682Zm-19.538,0a4.873,4.873,0,0,1,4.883-4.864A4.875,4.875,0,0,1-2926,41.682a4.875,4.875,0,0,1-4.885,4.864A4.873,4.873,0,0,1-2935.768,41.682Zm-19.541,0a4.875,4.875,0,0,1,4.885-4.864,4.875,4.875,0,0,1,4.885,4.864,4.875,4.875,0,0,1-4.885,4.864A4.875,4.875,0,0,1-2955.309,41.682Zm-19.538,0a4.875,4.875,0,0,1,4.885-4.864,4.875,4.875,0,0,1,4.885,4.864,4.875,4.875,0,0,1-4.885,4.864A4.875,4.875,0,0,1-2974.846,41.682Zm-19.539,0a4.875,4.875,0,0,1,4.885-4.864,4.875,4.875,0,0,1,4.885,4.864,4.875,4.875,0,0,1-4.885,4.864A4.875,4.875,0,0,1-2994.385,41.682Zm-19.538,0a4.875,4.875,0,0,1,4.885-4.864,4.875,4.875,0,0,1,4.885,4.864,4.875,4.875,0,0,1-4.885,4.864A4.875,4.875,0,0,1-3013.923,41.682Zm-19.539,0a4.875,4.875,0,0,1,4.885-4.864,4.875,4.875,0,0,1,4.885,4.864,4.875,4.875,0,0,1-4.885,4.864A4.875,4.875,0,0,1-3033.462,41.682Zm-19.538,0a4.875,4.875,0,0,1,4.885-4.864,4.873,4.873,0,0,1,4.883,4.864,4.873,4.873,0,0,1-4.883,4.864A4.875,4.875,0,0,1-3053,41.682Zm371.231-19.454a4.875,4.875,0,0,1,4.885-4.864A4.873,4.873,0,0,1-2672,22.228a4.873,4.873,0,0,1-4.883,4.864A4.875,4.875,0,0,1-2681.769,22.228Zm-19.538,0a4.874,4.874,0,0,1,4.884-4.864,4.874,4.874,0,0,1,4.883,4.864,4.874,4.874,0,0,1-4.883,4.864A4.874,4.874,0,0,1-2701.306,22.228Zm-19.539,0a4.874,4.874,0,0,1,4.883-4.864,4.875,4.875,0,0,1,4.885,4.864,4.875,4.875,0,0,1-4.885,4.864A4.874,4.874,0,0,1-2720.845,22.228Zm-19.538,0a4.874,4.874,0,0,1,4.884-4.864,4.875,4.875,0,0,1,4.885,4.864,4.875,4.875,0,0,1-4.885,4.864A4.874,4.874,0,0,1-2740.384,22.228Zm-19.54,0a4.875,4.875,0,0,1,4.885-4.864,4.875,4.875,0,0,1,4.885,4.864,4.875,4.875,0,0,1-4.885,4.864A4.875,4.875,0,0,1-2759.924,22.228Zm-19.538,0a4.875,4.875,0,0,1,4.885-4.864,4.875,4.875,0,0,1,4.885,4.864,4.875,4.875,0,0,1-4.885,4.864A4.875,4.875,0,0,1-2779.462,22.228Zm-19.538,0a4.875,4.875,0,0,1,4.885-4.864,4.875,4.875,0,0,1,4.885,4.864,4.875,4.875,0,0,1-4.885,4.864A4.875,4.875,0,0,1-2799,22.228Zm-19.539,0a4.875,4.875,0,0,1,4.885-4.864,4.875,4.875,0,0,1,4.885,4.864,4.875,4.875,0,0,1-4.885,4.864A4.875,4.875,0,0,1-2818.539,22.228Zm-19.538,0a4.875,4.875,0,0,1,4.885-4.864,4.875,4.875,0,0,1,4.885,4.864,4.875,4.875,0,0,1-4.885,4.864A4.875,4.875,0,0,1-2838.076,22.228Zm-19.539,0a4.875,4.875,0,0,1,4.885-4.864,4.874,4.874,0,0,1,4.884,4.864,4.874,4.874,0,0,1-4.884,4.864A4.875,4.875,0,0,1-2857.615,22.228Zm-19.538,0a4.875,4.875,0,0,1,4.885-4.864,4.873,4.873,0,0,1,4.883,4.864,4.873,4.873,0,0,1-4.883,4.864A4.875,4.875,0,0,1-2877.153,22.228Zm-19.539,0a4.875,4.875,0,0,1,4.885-4.864,4.874,4.874,0,0,1,4.883,4.864,4.874,4.874,0,0,1-4.883,4.864A4.875,4.875,0,0,1-2896.692,22.228Zm-19.538,0a4.874,4.874,0,0,1,4.884-4.864,4.875,4.875,0,0,1,4.885,4.864,4.875,4.875,0,0,1-4.885,4.864A4.874,4.874,0,0,1-2916.23,22.228Zm-19.538,0a4.873,4.873,0,0,1,4.883-4.864A4.875,4.875,0,0,1-2926,22.228a4.875,4.875,0,0,1-4.885,4.864A4.873,4.873,0,0,1-2935.768,22.228Zm-19.541,0a4.875,4.875,0,0,1,4.885-4.864,4.875,4.875,0,0,1,4.885,4.864,4.875,4.875,0,0,1-4.885,4.864A4.875,4.875,0,0,1-2955.309,22.228Zm-19.538,0a4.875,4.875,0,0,1,4.885-4.864,4.875,4.875,0,0,1,4.885,4.864,4.875,4.875,0,0,1-4.885,4.864A4.875,4.875,0,0,1-2974.846,22.228Zm-19.539,0a4.875,4.875,0,0,1,4.885-4.864,4.875,4.875,0,0,1,4.885,4.864,4.875,4.875,0,0,1-4.885,4.864A4.875,4.875,0,0,1-2994.385,22.228Zm-19.538,0a4.875,4.875,0,0,1,4.885-4.864,4.875,4.875,0,0,1,4.885,4.864,4.875,4.875,0,0,1-4.885,4.864A4.875,4.875,0,0,1-3013.923,22.228Zm-19.539,0a4.875,4.875,0,0,1,4.885-4.864,4.875,4.875,0,0,1,4.885,4.864,4.875,4.875,0,0,1-4.885,4.864A4.875,4.875,0,0,1-3033.462,22.228Zm-19.538,0a4.875,4.875,0,0,1,4.885-4.864,4.873,4.873,0,0,1,4.883,4.864,4.873,4.873,0,0,1-4.883,4.864A4.875,4.875,0,0,1-3053,22.228Zm371.231-19.456a4.875,4.875,0,0,1,4.885-4.864A4.873,4.873,0,0,1-2672,2.772a4.873,4.873,0,0,1-4.883,4.864A4.875,4.875,0,0,1-2681.769,2.772Zm-19.538,0a4.874,4.874,0,0,1,4.884-4.864,4.874,4.874,0,0,1,4.883,4.864,4.874,4.874,0,0,1-4.883,4.864A4.874,4.874,0,0,1-2701.306,2.772Zm-19.539,0a4.874,4.874,0,0,1,4.883-4.864,4.875,4.875,0,0,1,4.885,4.864,4.875,4.875,0,0,1-4.885,4.864A4.874,4.874,0,0,1-2720.845,2.772Zm-19.538,0a4.874,4.874,0,0,1,4.884-4.864,4.875,4.875,0,0,1,4.885,4.864,4.875,4.875,0,0,1-4.885,4.864A4.874,4.874,0,0,1-2740.384,2.772Zm-19.54,0a4.875,4.875,0,0,1,4.885-4.864,4.875,4.875,0,0,1,4.885,4.864,4.875,4.875,0,0,1-4.885,4.864A4.875,4.875,0,0,1-2759.924,2.772Zm-19.538,0a4.875,4.875,0,0,1,4.885-4.864,4.875,4.875,0,0,1,4.885,4.864,4.875,4.875,0,0,1-4.885,4.864A4.875,4.875,0,0,1-2779.462,2.772Zm-19.538,0a4.875,4.875,0,0,1,4.885-4.864,4.875,4.875,0,0,1,4.885,4.864,4.875,4.875,0,0,1-4.885,4.864A4.875,4.875,0,0,1-2799,2.772Zm-19.539,0a4.875,4.875,0,0,1,4.885-4.864,4.875,4.875,0,0,1,4.885,4.864,4.875,4.875,0,0,1-4.885,4.864A4.875,4.875,0,0,1-2818.539,2.772Zm-19.538,0a4.875,4.875,0,0,1,4.885-4.864,4.875,4.875,0,0,1,4.885,4.864,4.875,4.875,0,0,1-4.885,4.864A4.875,4.875,0,0,1-2838.076,2.772Zm-19.539,0a4.875,4.875,0,0,1,4.885-4.864,4.874,4.874,0,0,1,4.884,4.864,4.874,4.874,0,0,1-4.884,4.864A4.875,4.875,0,0,1-2857.615,2.772Zm-19.538,0a4.875,4.875,0,0,1,4.885-4.864,4.873,4.873,0,0,1,4.883,4.864,4.873,4.873,0,0,1-4.883,4.864A4.875,4.875,0,0,1-2877.153,2.772Zm-19.539,0a4.875,4.875,0,0,1,4.885-4.864,4.874,4.874,0,0,1,4.883,4.864,4.874,4.874,0,0,1-4.883,4.864A4.875,4.875,0,0,1-2896.692,2.772Zm-19.538,0a4.874,4.874,0,0,1,4.884-4.864,4.875,4.875,0,0,1,4.885,4.864,4.875,4.875,0,0,1-4.885,4.864A4.874,4.874,0,0,1-2916.23,2.772Zm-19.538,0a4.873,4.873,0,0,1,4.883-4.864A4.875,4.875,0,0,1-2926,2.772a4.875,4.875,0,0,1-4.885,4.864A4.873,4.873,0,0,1-2935.768,2.772Zm-19.541,0a4.875,4.875,0,0,1,4.885-4.864,4.875,4.875,0,0,1,4.885,4.864,4.875,4.875,0,0,1-4.885,4.864A4.875,4.875,0,0,1-2955.309,2.772Zm-19.538,0a4.875,4.875,0,0,1,4.885-4.864,4.875,4.875,0,0,1,4.885,4.864,4.875,4.875,0,0,1-4.885,4.864A4.875,4.875,0,0,1-2974.846,2.772Zm-19.539,0a4.875,4.875,0,0,1,4.885-4.864,4.875,4.875,0,0,1,4.885,4.864,4.875,4.875,0,0,1-4.885,4.864A4.875,4.875,0,0,1-2994.385,2.772Zm-19.538,0a4.875,4.875,0,0,1,4.885-4.864,4.875,4.875,0,0,1,4.885,4.864,4.875,4.875,0,0,1-4.885,4.864A4.875,4.875,0,0,1-3013.923,2.772Zm-19.539,0a4.875,4.875,0,0,1,4.885-4.864,4.875,4.875,0,0,1,4.885,4.864,4.875,4.875,0,0,1-4.885,4.864A4.875,4.875,0,0,1-3033.462,2.772Zm-19.538,0a4.875,4.875,0,0,1,4.885-4.864,4.873,4.873,0,0,1,4.883,4.864,4.873,4.873,0,0,1-4.883,4.864A4.875,4.875,0,0,1-3053,2.772Zm371.231-19.454a4.875,4.875,0,0,1,4.885-4.864A4.873,4.873,0,0,1-2672-16.682a4.873,4.873,0,0,1-4.883,4.864A4.875,4.875,0,0,1-2681.769-16.682Zm-19.538,0a4.874,4.874,0,0,1,4.884-4.864,4.874,4.874,0,0,1,4.883,4.864,4.874,4.874,0,0,1-4.883,4.864A4.874,4.874,0,0,1-2701.306-16.682Zm-19.539,0a4.874,4.874,0,0,1,4.883-4.864,4.875,4.875,0,0,1,4.885,4.864,4.875,4.875,0,0,1-4.885,4.864A4.874,4.874,0,0,1-2720.845-16.682Zm-19.538,0a4.874,4.874,0,0,1,4.884-4.864,4.875,4.875,0,0,1,4.885,4.864,4.875,4.875,0,0,1-4.885,4.864A4.874,4.874,0,0,1-2740.384-16.682Zm-19.54,0a4.875,4.875,0,0,1,4.885-4.864,4.875,4.875,0,0,1,4.885,4.864,4.875,4.875,0,0,1-4.885,4.864A4.875,4.875,0,0,1-2759.924-16.682Zm-19.538,0a4.875,4.875,0,0,1,4.885-4.864,4.875,4.875,0,0,1,4.885,4.864,4.875,4.875,0,0,1-4.885,4.864A4.875,4.875,0,0,1-2779.462-16.682Zm-19.538,0a4.875,4.875,0,0,1,4.885-4.864,4.875,4.875,0,0,1,4.885,4.864,4.875,4.875,0,0,1-4.885,4.864A4.875,4.875,0,0,1-2799-16.682Zm-19.539,0a4.875,4.875,0,0,1,4.885-4.864,4.875,4.875,0,0,1,4.885,4.864,4.875,4.875,0,0,1-4.885,4.864A4.875,4.875,0,0,1-2818.539-16.682Zm-19.538,0a4.875,4.875,0,0,1,4.885-4.864,4.875,4.875,0,0,1,4.885,4.864,4.875,4.875,0,0,1-4.885,4.864A4.875,4.875,0,0,1-2838.076-16.682Zm-19.539,0a4.875,4.875,0,0,1,4.885-4.864,4.874,4.874,0,0,1,4.884,4.864,4.874,4.874,0,0,1-4.884,4.864A4.875,4.875,0,0,1-2857.615-16.682Zm-19.538,0a4.875,4.875,0,0,1,4.885-4.864,4.873,4.873,0,0,1,4.883,4.864,4.873,4.873,0,0,1-4.883,4.864A4.875,4.875,0,0,1-2877.153-16.682Zm-19.539,0a4.875,4.875,0,0,1,4.885-4.864,4.874,4.874,0,0,1,4.883,4.864,4.874,4.874,0,0,1-4.883,4.864A4.875,4.875,0,0,1-2896.692-16.682Zm-19.538,0a4.874,4.874,0,0,1,4.884-4.864,4.875,4.875,0,0,1,4.885,4.864,4.875,4.875,0,0,1-4.885,4.864A4.874,4.874,0,0,1-2916.23-16.682Zm-19.538,0a4.873,4.873,0,0,1,4.883-4.864A4.875,4.875,0,0,1-2926-16.682a4.875,4.875,0,0,1-4.885,4.864A4.873,4.873,0,0,1-2935.768-16.682Zm-19.541,0a4.875,4.875,0,0,1,4.885-4.864,4.875,4.875,0,0,1,4.885,4.864,4.875,4.875,0,0,1-4.885,4.864A4.875,4.875,0,0,1-2955.309-16.682Zm-19.538,0a4.875,4.875,0,0,1,4.885-4.864,4.875,4.875,0,0,1,4.885,4.864,4.875,4.875,0,0,1-4.885,4.864A4.875,4.875,0,0,1-2974.846-16.682Zm-19.539,0a4.875,4.875,0,0,1,4.885-4.864,4.875,4.875,0,0,1,4.885,4.864,4.875,4.875,0,0,1-4.885,4.864A4.875,4.875,0,0,1-2994.385-16.682Zm-19.538,0a4.875,4.875,0,0,1,4.885-4.864,4.875,4.875,0,0,1,4.885,4.864,4.875,4.875,0,0,1-4.885,4.864A4.875,4.875,0,0,1-3013.923-16.682Zm-19.539,0a4.875,4.875,0,0,1,4.885-4.864,4.875,4.875,0,0,1,4.885,4.864,4.875,4.875,0,0,1-4.885,4.864A4.875,4.875,0,0,1-3033.462-16.682Zm-19.538,0a4.875,4.875,0,0,1,4.885-4.864,4.873,4.873,0,0,1,4.883,4.864,4.873,4.873,0,0,1-4.883,4.864A4.875,4.875,0,0,1-3053-16.682Zm371.231-19.454A4.875,4.875,0,0,1-2676.883-41,4.873,4.873,0,0,1-2672-36.136a4.873,4.873,0,0,1-4.883,4.864A4.875,4.875,0,0,1-2681.769-36.136Zm-19.538,0A4.874,4.874,0,0,1-2696.422-41a4.874,4.874,0,0,1,4.883,4.864,4.874,4.874,0,0,1-4.883,4.864A4.874,4.874,0,0,1-2701.306-36.136Zm-19.539,0A4.874,4.874,0,0,1-2715.962-41a4.875,4.875,0,0,1,4.885,4.864,4.875,4.875,0,0,1-4.885,4.864A4.874,4.874,0,0,1-2720.845-36.136Zm-19.538,0A4.874,4.874,0,0,1-2735.5-41a4.875,4.875,0,0,1,4.885,4.864,4.875,4.875,0,0,1-4.885,4.864A4.874,4.874,0,0,1-2740.384-36.136Zm-19.54,0A4.875,4.875,0,0,1-2755.038-41a4.875,4.875,0,0,1,4.885,4.864,4.875,4.875,0,0,1-4.885,4.864A4.875,4.875,0,0,1-2759.924-36.136Zm-19.538,0A4.875,4.875,0,0,1-2774.577-41a4.875,4.875,0,0,1,4.885,4.864,4.875,4.875,0,0,1-4.885,4.864A4.875,4.875,0,0,1-2779.462-36.136Zm-19.538,0A4.875,4.875,0,0,1-2794.115-41a4.875,4.875,0,0,1,4.885,4.864,4.875,4.875,0,0,1-4.885,4.864A4.875,4.875,0,0,1-2799-36.136Zm-19.539,0A4.875,4.875,0,0,1-2813.653-41a4.875,4.875,0,0,1,4.885,4.864,4.875,4.875,0,0,1-4.885,4.864A4.875,4.875,0,0,1-2818.539-36.136Zm-19.538,0A4.875,4.875,0,0,1-2833.192-41a4.875,4.875,0,0,1,4.885,4.864,4.875,4.875,0,0,1-4.885,4.864A4.875,4.875,0,0,1-2838.076-36.136Zm-19.539,0A4.875,4.875,0,0,1-2852.73-41a4.874,4.874,0,0,1,4.884,4.864,4.874,4.874,0,0,1-4.884,4.864A4.875,4.875,0,0,1-2857.615-36.136Zm-19.538,0A4.875,4.875,0,0,1-2872.268-41a4.873,4.873,0,0,1,4.883,4.864,4.873,4.873,0,0,1-4.883,4.864A4.875,4.875,0,0,1-2877.153-36.136Zm-19.539,0A4.875,4.875,0,0,1-2891.806-41a4.874,4.874,0,0,1,4.883,4.864,4.874,4.874,0,0,1-4.883,4.864A4.875,4.875,0,0,1-2896.692-36.136Zm-19.538,0A4.874,4.874,0,0,1-2911.347-41a4.875,4.875,0,0,1,4.885,4.864,4.875,4.875,0,0,1-4.885,4.864A4.874,4.874,0,0,1-2916.23-36.136Zm-19.538,0A4.873,4.873,0,0,1-2930.885-41,4.875,4.875,0,0,1-2926-36.136a4.875,4.875,0,0,1-4.885,4.864A4.873,4.873,0,0,1-2935.768-36.136Zm-19.541,0A4.875,4.875,0,0,1-2950.423-41a4.875,4.875,0,0,1,4.885,4.864,4.875,4.875,0,0,1-4.885,4.864A4.875,4.875,0,0,1-2955.309-36.136Zm-19.538,0A4.875,4.875,0,0,1-2969.962-41a4.875,4.875,0,0,1,4.885,4.864,4.875,4.875,0,0,1-4.885,4.864A4.875,4.875,0,0,1-2974.846-36.136Zm-19.539,0A4.875,4.875,0,0,1-2989.5-41a4.875,4.875,0,0,1,4.885,4.864,4.875,4.875,0,0,1-4.885,4.864A4.875,4.875,0,0,1-2994.385-36.136Zm-19.538,0A4.875,4.875,0,0,1-3009.038-41a4.875,4.875,0,0,1,4.885,4.864,4.875,4.875,0,0,1-4.885,4.864A4.875,4.875,0,0,1-3013.923-36.136Zm-19.539,0A4.875,4.875,0,0,1-3028.576-41a4.875,4.875,0,0,1,4.885,4.864,4.875,4.875,0,0,1-4.885,4.864A4.875,4.875,0,0,1-3033.462-36.136Zm-19.538,0A4.875,4.875,0,0,1-3048.115-41a4.873,4.873,0,0,1,4.883,4.864,4.873,4.873,0,0,1-4.883,4.864A4.875,4.875,0,0,1-3053-36.136Z" transform="translate(3053 41)" fill="#d6d6d6" opacity="0.34"/>
</svg>
