<?xml version="1.0" encoding="utf-8"?>
<!-- Generator: Adobe Illustrator 19.0.0, SVG Export Plug-In . SVG Version: 6.00 Build 0)  -->
<svg version="1.1" id="OBJECTS" xmlns="http://www.w3.org/2000/svg" xmlns:xlink="http://www.w3.org/1999/xlink" x="0px" y="0px"
	 viewBox="0 0 20 20" style="enable-background:new 0 0 20 20;" xml:space="preserve">
<style type="text/css">
	.st0{fill-rule:evenodd;clip-rule:evenodd;fill:#34283D;}
	.st1{fill-rule:evenodd;clip-rule:evenodd;fill:#4C4354;}
	.st2{fill-rule:evenodd;clip-rule:evenodd;fill:#D9D3DD;}
	.st3{fill-rule:evenodd;clip-rule:evenodd;fill:#946535;}
	.st4{fill-rule:evenodd;clip-rule:evenodd;fill:#C7B79C;}
</style>
<g>
	<path class="st0" d="M4.1,3.4c3.7-3.3,9.3-3,12.5,0.7c3.3,3.7,3,9.3-0.7,12.5c-3.6,3.3-9.3,3-12.5-0.7C0.1,12.3,0.4,6.7,4.1,3.4
		L4.1,3.4z"/>
	<path class="st1" d="M4.5,4.2C7.6,1.4,12.3,1.7,15,4.8c2.7,3.1,2.5,7.8-0.6,10.6c-3.1,2.8-7.8,2.5-10.5-0.6
		C1.2,11.7,1.4,6.9,4.5,4.2L4.5,4.2z"/>
	<path class="st2" d="M4.4,7.5c0.9-0.1,1.8,1,2,2.4c0.2,1.4-0.4,2.7-1.3,2.8c-0.9,0.1-1.8-1-2-2.4C3,8.9,3.5,7.6,4.4,7.5L4.4,7.5z"
		/>
	<g>
		<path class="st3" d="M12.3,3.4c1.1,0.7,1.5,1.9,1.1,2.6c-0.5,0.8-1.8,0.9-2.8,0.2C9.4,5.6,9,4.4,9.5,3.6
			C9.9,2.8,11.2,2.7,12.3,3.4L12.3,3.4z"/>
		<path class="st4" d="M11.9,4c0.5,0.3,0.7,0.8,0.5,1.1c-0.2,0.3-0.8,0.4-1.2,0.1c-0.5-0.3-0.7-0.8-0.5-1.1
			C10.9,3.7,11.5,3.7,11.9,4L11.9,4z"/>
	</g>
</g>
</svg>
