<svg xmlns="http://www.w3.org/2000/svg" width="78.527" height="77.056" viewBox="0 0 78.527 77.056">
  <g id="Component_16_1" data-name="Component 16 – 1" transform="translate(0.053)">
    <path id="Path_996" data-name="Path 996" d="M2296.071,7364.014a13.013,13.013,0,0,0,3.286,13.109,12.713,12.713,0,0,0,9.2,3.872,13.767,13.767,0,0,0,2.466-.224v10.023a1.531,1.531,0,1,0,3.063,0v-10.027a13.74,13.74,0,0,0,2.488.228,12.713,12.713,0,0,0,9.195-3.872,13.015,13.015,0,0,0,3.286-13.109,1.534,1.534,0,0,0-.945-1.008,10.943,10.943,0,0,0-2.021-.473,13.017,13.017,0,0,0,2.966-12.777,1.534,1.534,0,0,0-.945-1.008,13.182,13.182,0,0,0-8.238.086,13.729,13.729,0,0,0,.383-3.272,13.009,13.009,0,0,0-6.946-11.592,1.529,1.529,0,0,0-1.381-.046,12.966,12.966,0,0,0-7.035,11.638,13.767,13.767,0,0,0,.383,3.278,13.174,13.174,0,0,0-8.255-.092,1.534,1.534,0,0,0-.945,1.008,13.016,13.016,0,0,0,2.966,12.777,10.936,10.936,0,0,0-2.021.473A1.533,1.533,0,0,0,2296.071,7364.014Z" transform="translate(-2277.92 -7321.414)" fill="#77b65d" opacity="0.4" style="isolation: isolate"/>
    <path id="Path_997" data-name="Path 997" d="M2298.217,7362.591a13.014,13.014,0,0,0,3.286,13.109,12.71,12.71,0,0,0,9.194,3.872,13.754,13.754,0,0,0,2.466-.224v10.023a1.532,1.532,0,0,0,3.064,0v-10.027a13.778,13.778,0,0,0,2.487.228,12.709,12.709,0,0,0,9.195-3.872,13.013,13.013,0,0,0,3.286-13.109,1.531,1.531,0,0,0-.944-1.008,10.92,10.92,0,0,0-2.021-.473,13.018,13.018,0,0,0,2.965-12.777,1.531,1.531,0,0,0-.944-1.008,13.178,13.178,0,0,0-8.238.086,13.784,13.784,0,0,0,.382-3.272,13.012,13.012,0,0,0-6.945-11.592,1.53,1.53,0,0,0-1.381-.046,12.965,12.965,0,0,0-7.036,11.638,13.768,13.768,0,0,0,.384,3.278,13.179,13.179,0,0,0-8.256-.092,1.533,1.533,0,0,0-.944,1.008,13.018,13.018,0,0,0,2.965,12.777,10.926,10.926,0,0,0-2.021.473A1.533,1.533,0,0,0,2298.217,7362.591Zm27.526,10.943a5.5,5.5,0,1,1-6.53-6.53,10.1,10.1,0,0,1,3.455-2.3q.327-.105.658-.233a10.182,10.182,0,0,1,5.147-.208A9.879,9.879,0,0,1,2325.743,7373.534Zm2.73-23.529a9.876,9.876,0,0,1-2.73,9.271,10.128,10.128,0,0,1-3.446,2.3q-.333.106-.671.237a10.178,10.178,0,0,1-5.152.2,10.331,10.331,0,0,1-.238-2.158v-.039a9.7,9.7,0,0,1,2.368-6.413c.226-.224.453-.466.678-.725A9.885,9.885,0,0,1,2328.473,7350Zm-13.767-14.352a9.877,9.877,0,0,1,4.625,8.486,9.77,9.77,0,0,1-2.292,6.448c-.248.249-.48.5-.7.752a10.317,10.317,0,0,1-1.623,1.29,10.463,10.463,0,0,1-1.875-1.549c-.072-.079-.144-.157-.219-.236a9.774,9.774,0,0,1-2.526-6.705A9.889,9.889,0,0,1,2314.706,7335.653Zm-13.768,14.355a9.936,9.936,0,0,1,9.261,2.738l.064.067c.135.151.27.295.4.434a9.692,9.692,0,0,1,2.5,6.046v1.022a2.8,2.8,0,0,1-5.382,1.494q-.331-.127-.66-.233a10.125,10.125,0,0,1-3.452-2.3A9.879,9.879,0,0,1,2300.938,7350.008Zm0,14.257a10.276,10.276,0,0,1,5.263.249c.146.055.292.107.438.155a10.052,10.052,0,0,1,3.56,2.335,9.768,9.768,0,0,1,2.964,6.546v1.022a10.138,10.138,0,0,1-.225,1.7,10.106,10.106,0,0,1-12-12.007Z" transform="translate(-2277.92 -7321.414)" stroke="#000" stroke-width="0.734"/>
    <path id="Path_998" data-name="Path 998" d="M2343.66,7324.369l.017.007a1.532,1.532,0,0,0,1.148-2.841l-.028-.011a1.532,1.532,0,0,0-1.137,2.845Z" transform="translate(-2277.92 -7321.414)" fill="#77b65d"/>
    <circle id="Ellipse_29" data-name="Ellipse 29" cx="2.338" cy="2.338" r="2.338" transform="translate(0 63.042)" fill="#77b65d"/>
    <circle id="Ellipse_30" data-name="Ellipse 30" cx="6.077" cy="6.077" r="6.077" transform="translate(66.319 4.618)" fill="#77b65d"/>
    <path id="Path_999" data-name="Path 999" d="M2292.795,7334.543a34.772,34.772,0,1,1-9.615,12.241" transform="translate(-2277.92 -7321.414)" fill="none" stroke="#000" stroke-linecap="round" stroke-linejoin="round" stroke-width="4"/>
  </g>
</svg>
