<svg id="Component_17_1" data-name="Component 17 – 1" xmlns="http://www.w3.org/2000/svg" width="63.558" height="80.822" viewBox="0 0 63.558 80.822">
  <path id="Path_1000" data-name="Path 1000" d="M2206.6,7356.876h35.735l-4.853,36.709h-25.765Z" transform="translate(-2189.905 -7317.786)" fill="#08c" opacity="0.4"/>
  <g id="Group_412" data-name="Group 412" transform="translate(-2189.905 -7317.786)">
    <path id="Path_1001" data-name="Path 1001" d="M2244.977,7345.256l-.3-.11-.03-.32a20.129,20.129,0,0,0-17.78-18.38l-.45-.05v-3.16a5.45,5.45,0,0,0-5.45-5.45H2206.3a1.825,1.825,0,0,0,0,3.65h14.67a1.805,1.805,0,0,1,1.8,1.8v3.16l-.44.05a20.129,20.129,0,0,0-17.78,18.38l-.03.32-.3.11a6.933,6.933,0,0,0,.61,13.2l.33.09.04.34,4.21,35.47a1.828,1.828,0,0,0,1.82,1.61h27.13a1.819,1.819,0,0,0,1.81-1.62l2.98-27.47v-.03l.86-7.96.04-.34.33-.09a6.935,6.935,0,0,0,.6-13.2Zm-18.56-15.2.57.08a16.535,16.535,0,0,1,13.94,14.12l.07.57h-14.58Zm-18.15,14.2a16.524,16.524,0,0,1,13.93-14.12l.57-.08v14.77H2208.2Zm-4.93,7.5a3.282,3.282,0,0,1,3.28-3.28h16.15v6.57h-16.15A3.284,3.284,0,0,1,2203.337,7351.756Zm6.24,13.09-.05-.44-.61-5.15-.07-.56h13.92v6.15Zm29.66,4.2-2.47,22.83-.05.44h-23.87l-.06-.44-2.71-22.83-.06-.56h12.75V7385a1.825,1.825,0,1,0,3.65,0v-16.51h12.88Zm1.06-9.8-.55,5.15-.05.45h-13.28v-6.15h13.94Zm2.27-4.2h-16.15v-6.57h16.15a3.285,3.285,0,1,1,0,6.57Z"/>
  </g>
  <path id="Path_1002" data-name="Path 1002" d="M2236.267,7391.821" transform="translate(-2189.905 -7317.786)"/>
  <path id="Path_1003" data-name="Path 1003" d="M2231.7,7376.538a1.962,1.962,0,1,0,2.428,1.342,1.961,1.961,0,0,0-2.428-1.342Zm0,0" transform="translate(-2189.905 -7317.786)"/>
  <path id="Path_1004" data-name="Path 1004" d="M2216.212,7372.614a1.962,1.962,0,1,0,2.428,1.342,1.962,1.962,0,0,0-2.428-1.342Zm0,0" transform="translate(-2189.905 -7317.786)"/>
  <circle id="Ellipse_159" data-name="Ellipse 159" cx="6.626" cy="6.626" r="6.626" transform="translate(0 4.774)" fill="#08c"/>
  <circle id="Ellipse_160" data-name="Ellipse 160" cx="3.853" cy="3.853" r="3.853" transform="translate(53.928 73.116)" fill="#08c"/>
  <circle id="Ellipse_161" data-name="Ellipse 161" cx="2.079" cy="2.079" r="2.079" transform="translate(59.4 65.412)" fill="#08c"/>
</svg>
