<svg xmlns="http://www.w3.org/2000/svg" width="97.29" height="91.762" viewBox="0 0 97.29 91.762">
  <g id="Component_14_1" data-name="Component 14 – 1" transform="translate(0.303 0.303)">
    <circle id="Ellipse_27" data-name="Ellipse 27" cx="32.409" cy="32.409" r="32.409" transform="translate(10.482 10.466)" fill="#a6a8ab"/>
    <circle id="Ellipse_28" data-name="Ellipse 28" cx="31.153" cy="31.153" r="31.153" transform="translate(13.377 12.811)" fill="#d0d2d3"/>
    <g id="Group_411" data-name="Group 411" transform="translate(-2524.066 -7323.35)">
      <path id="Path_984" data-name="Path 984" d="M2589.318,7333.384a1.539,1.539,0,1,0-2.061,2.287,35.949,35.949,0,0,1,3.7,3.873l-4.463,13.734-9,3.29-12.788-9.29V7337.4l11.667-8.474a35.721,35.721,0,0,1,5.864,2.953,1.539,1.539,0,1,0,1.632-2.61,39.093,39.093,0,0,0-54,12.683,1.539,1.539,0,1,0,2.621,1.615q.312-.5.638-1l3.673,11.3-9.613,6.983a35.812,35.812,0,0,1,2.482-11.667,1.538,1.538,0,1,0-2.861-1.132,39.1,39.1,0,1,0,62.517-14.678Zm4.211,48.416-14.453-.038-5.494-7.2,4.9-15.078,9-3.29,11.63,8.448a35.763,35.763,0,0,1-5.584,17.158Zm-.326-39.213a36.087,36.087,0,0,1,5.941,18.272l-9.609-6.981Zm-22.453,30.727h-15.172l-4.69-14.431,12.276-8.918,12.276,8.918Zm2.031-45.58-9.617,6.984-9.614-6.984a36.059,36.059,0,0,1,19.231,0Zm-37.41,11.809a36.281,36.281,0,0,1,9.957-8.4,35.787,35.787,0,0,1,4.631-2.213l11.666,8.473v9.873l-12.788,9.291-9-3.291Zm3.474,16.651,9,3.29,4.9,15.078-5.523,7.24H2532.8a35.8,35.8,0,0,1-5.587-17.161Zm-3.839,28.687h11.859l3.671,11.3a36.191,36.191,0,0,1-15.53-11.3Zm40.228,11.5.937-2.882a1.539,1.539,0,1,0-2.928-.951l-1.594,4.9a36.1,36.1,0,0,1-17.5-.132l-4.449-13.688,5.525-7.241h15.886l5.18,6.789-1.008,3.1a1.539,1.539,0,1,0,2.928.952l.778-2.4,12.343.032a36.158,36.158,0,0,1-16.094,11.512Zm0,0" stroke="#000" stroke-width="0.607"/>
      <path id="Path_985" data-name="Path 985" d="M2574.894,7403.254"/>
      <path id="Path_986" data-name="Path 986" d="M2619.513,7389.682a1.54,1.54,0,0,0,1.089-2.628l-13.341-13.342a1.54,1.54,0,0,0-2.178,2.178l13.342,13.341a1.53,1.53,0,0,0,1.088.451Zm0,0"/>
      <path id="Path_987" data-name="Path 987" d="M2618.086,7414.809a1.54,1.54,0,0,0,1.09-2.628l-16.359-15.97a1.539,1.539,0,0,0-2.177,2.177l16.358,15.97a1.532,1.532,0,0,0,1.088.451Zm0,0"/>
      <path id="Path_988" data-name="Path 988" d="M2616.308,7399.445a1.539,1.539,0,1,0,2.168-2.186l-8.173-8.106a1.539,1.539,0,1,0-2.168,2.185Zm0,0"/>
    </g>
    <circle id="Ellipse_159" data-name="Ellipse 159" cx="2.755" cy="2.755" r="2.755" transform="translate(77.058 62.438) rotate(-42.596)"/>
  </g>
</svg>
