<svg xmlns="http://www.w3.org/2000/svg" width="588.336" height="470.917" viewBox="0 0 588.336 470.917">
  <g id="Component_15_1" data-name="Component 15 – 1" transform="translate(0 3.03)">
    <g id="Group_353" data-name="Group 353" transform="translate(-2097.889 -124.933)">
      <path id="Path_819" data-name="Path 819" d="M2617.417,196a10.895,10.895,0,1,0,10.89,10.89A10.889,10.889,0,0,0,2617.417,196Zm-424.13-56.01a14.215,14.215,0,1,0,14.21,14.21A14.222,14.222,0,0,0,2193.287,139.99Zm457.82,295.49a91.925,91.925,0,0,0-65.12-27.09,38.985,38.985,0,0,1,0-77.97h4.64a40.535,40.535,0,0,0,0-81.07h-14.24a15.78,15.78,0,0,1,0-31.56h10.46a10.9,10.9,0,0,0,0-21.79h-70.31a17.11,17.11,0,0,1,0-34.22h21.03a10.9,10.9,0,0,0,0-21.79h-307.92a14.215,14.215,0,0,0,0,28.43h21.56a22.33,22.33,0,0,1,0,44.66H2167.8a14.21,14.21,0,0,0,0,28.42h13.65a20.658,20.658,0,0,1,20.6,20.59v.01a20.658,20.658,0,0,1-20.6,20.59h-18.57a52.89,52.89,0,0,0,0,105.78h6.05a50.814,50.814,0,0,1,36.27,86.47c-.11.11-.22.23-.33.34a50.723,50.723,0,0,1-35.94,14.94h-13.11a51.3,51.3,0,0,0,0,102.6h430.17c50.71,0,92.21-41.5,92.21-92.21A91.925,91.925,0,0,0,2651.107,435.48Z" fill="#c5d2ef" fill-rule="evenodd"/>
      <path id="Path_820" data-name="Path 820" d="M2283.123,582.816c145.963,0,203.469-.563,307.862,0,39.607.213,92.21-42.332,92.21-94.071v4.081c0-51.74-41.494-94.071-92.21-94.073h0c-21.444,0-38.988-17.9-38.988-39.775h0c0-21.876,17.545-39.775,38.988-39.775h4.641c22.294,0,40.534-18.609,40.534-41.354h0c0-22.744-18.24-41.353-40.534-41.353h-14.234a15.992,15.992,0,0,1-15.783-16.1h0a15.992,15.992,0,0,1,15.783-16.1h10.459a11.036,11.036,0,0,0,10.891-11.111h0a11.036,11.036,0,0,0-10.891-11.111h-70.313a17.338,17.338,0,0,1-17.112-17.459h0a17.337,17.337,0,0,1,17.112-17.458h21.024a11.036,11.036,0,0,0,10.891-11.112h0a11.036,11.036,0,0,0-10.891-11.112H2234.65" fill="none" stroke="#b2c0db" stroke-linecap="round" stroke-linejoin="round" stroke-width="6.06" fill-rule="evenodd"/>
    </g>
    <g id="Group_360" data-name="Group 360" transform="translate(-2097.889 -124.933)">
      <path id="Path_821" data-name="Path 821" d="M2117.134,308.643c5.453,4.074,6.364,15.083,6.517,18.04.9-1.356,1.928-2.984,3.1-4.949,2.9-4.836,6.87-6.585,8.372-5.845s.392,3.263-.967,7.92c-4.182,14.358-7.722,25.681-8.208,27.233l1.079,5.557-17.6,4.056c-.369-2.2-.688-4.049-.916-5.408-.917-2.44-4.147-6.728-5.907-12.652a115.681,115.681,0,0,1-4.711-25.558C2097.681,310.241,2101.506,296.967,2117.134,308.643Z" fill="#fa997b"/>
      <g id="Group_354" data-name="Group 354">
        <path id="Path_822" data-name="Path 822" d="M2123.409,352.132a6.046,6.046,0,0,1,7.768,2.9c7,14.221,25.243,49.086,40.928,49.007,21.944-.1,27.2-20.331,37.811-26.607,22.394-13.249,24.734,3.386,24.734,3.386l-7.9,87.443s-53.357,6.163-76.791-9.818c-15.266-10.407-28.514-18.343-38.147-62.852-3.964-18.329-2.932-23.194-3.975-32.155a6.083,6.083,0,0,1,3.676-6.33Z" fill="#fa7269"/>
      </g>
      <path id="Path_823" data-name="Path 823" d="M2222.035,378.127c10.972,10.412,71.32,80.7,70.208,92.883,0,0,86.41,16.559,62.037-30.587,0,0,3.328-31.14,8.782-45.137,9.765-25.058-7.349-18.3-10.47-34.583-6.294-32.827-30.283-17.845-30.789-29.4-1.329-30.328-18.827-16.994-18.871-30.836-.1-33.064-38.929-66.593-79.256-50.883-22.121,8.618-32.246,48.492-23.832,82.749,2.2,8.952-6.595,12.86,1.571,24.6C2208,366.4,2219.986,361.867,2222.035,378.127Z" fill="#404041"/>
      <g id="Group_355" data-name="Group 355">
        <path id="Path_824" data-name="Path 824" d="M2350.807,592.82h-159.72c.52-2.92,13.5-75.68,14.46-95.92.28-5.73.08-13.36-.35-21.96-1.2-24.1-4.19-55.78-3.36-74.31a58.259,58.259,0,0,1,1.12-9.94c2.7-11.72,22.36-23.28,46.14-25.11,57.48-4.45,100.87-4.27,85.73,80.6C2329.947,473.53,2346.157,567.06,2350.807,592.82Z" fill="#fa7269"/>
      </g>
      <path id="Path_825" data-name="Path 825" d="M2240.637,592.82c4.35-41.6-5.34-221.17-5.34-221.17l33.61-3.91,43.65,225.08Z" fill="#e6e7e8"/>
      <path id="Path_826" data-name="Path 826" d="M2178.668,467.871s27.448-26.37,32.508-43.827a49.391,49.391,0,0,1-6.323,45.358s-5.742.047-7.626.011C2195.277,469.375,2178.668,467.871,2178.668,467.871Z" fill="#e0625f"/>
      <g id="Group_358" data-name="Group 358">
        <g id="Group_357" data-name="Group 357">
          <path id="Path_827" data-name="Path 827" d="M2235.3,371.646l.559-39.395-.071-5.686,28.206-2.68,4.914,43.851s-9.872,12.74-23.056,10.007C2239.76,376.478,2235.3,371.646,2235.3,371.646Z" fill="#fa997b"/>
          <path id="Path_828" data-name="Path 828" d="M2275.1,310.617c-.522,21.7-16.377,34.99-34.678,34.448-34.8-1.029-32.093-26.025-30.205-47.642.938-10.575,5.532-18.1,12.125-22.917,6.882-5.032,29.552-6.808,32.866,1.934C2267.086,307.736,2275.433,296.78,2275.1,310.617Z" fill="#fa997b"/>
          <g id="Group_356" data-name="Group 356">
            <path id="Path_829" data-name="Path 829" d="M2234.862,302.614s-1.353,7.175-1.741,9.859a6.376,6.376,0,0,0-.123,1.851c.2,1.327,1.672,1.877,3.014,1.913a10.143,10.143,0,0,0,2.894-.522" fill="none" stroke="#d26665" stroke-linecap="round" stroke-linejoin="round" stroke-width="1.093"/>
            <circle id="Ellipse_45" data-name="Ellipse 45" cx="3.434" cy="3.434" r="3.434" transform="translate(2222.035 297.542)" fill="#1a1a1a"/>
            <circle id="Ellipse_46" data-name="Ellipse 46" cx="3.434" cy="3.434" r="3.434" transform="translate(2247.976 297.542)" fill="#1a1a1a"/>
            <path id="Path_830" data-name="Path 830" d="M2221.648,293.049s4.224-5.016,8.518,0" fill="none" stroke="#1a1a1a" stroke-linecap="round" stroke-linejoin="round" stroke-width="1.391"/>
            <path id="Path_831" data-name="Path 831" d="M2246.766,293.049s4.224-5.016,8.518,0" fill="none" stroke="#1a1a1a" stroke-linecap="round" stroke-linejoin="round" stroke-width="1.391"/>
            <path id="Path_832" data-name="Path 832" d="M2230.294,326.419s5.721,6.558,12,0" fill="none" stroke="#d26665" stroke-linecap="round" stroke-linejoin="round" stroke-width="3"/>
          </g>
          <path id="Path_833" data-name="Path 833" d="M2285.724,320.4c-4.844,6.585-12.411,8.971-16.885,5.354-4.508-3.647-4.2-11.929.642-18.513s12.385-8.974,16.9-5.322C2290.847,305.551,2290.567,313.84,2285.724,320.4Z" fill="#fa997b"/>
        </g>
        <path id="Path_834" data-name="Path 834" d="M2277.316,313.01c-1.129,2.2-1.019,4.519.254,5.174s3.224-.6,4.36-2.807,1.008-4.521-.261-5.173S2278.445,310.8,2277.316,313.01Z" fill="#ef5d23"/>
        <path id="Path_835" data-name="Path 835" d="M2265.275,335.345s-10.43,9.736-21.449,9.639c-3.4-.03-8.313-.257-8.313-.257L2235.32,359a67.674,67.674,0,0,0,16.781-8.892A53.539,53.539,0,0,0,2265.275,335.345Z" fill="#ef5d23"/>
      </g>
      <g id="Group_359" data-name="Group 359">
        <path id="Path_836" data-name="Path 836" d="M2356.465,533.412c-1.076-1.441-10.3,4.019-18.226,11.757-1.8,1.747-5.544,7.11-4.485,9.224,1.011,2.017,8.927,1.332,8.927,1.332s-6.325,1.091-7.881,8.931c-1.267,6.385,11.019,7.547,17.523,4.706,11.673-5.1,15.785-30.067,15.785-30.067Z" fill="#fa997b"/>
        <path id="Path_837" data-name="Path 837" d="M2288.074,366.4c-7.238,7.831,1.771,40.131,7.268,51.554,14.022,29.161,26.85,23.888,59.258,41.609,15.924,8.7,3.1,53.294-2.007,69a6.967,6.967,0,0,0,3.337,8.287l11.617,6.261a6.971,6.971,0,0,0,8.99-2.075c10.838-15.2,41.919-61.682,36.816-88.165-8.865-46.047-80.358-79.393-89.3-81.821C2306.5,366.284,2291.744,362.424,2288.074,366.4Z" fill="#fa7269"/>
      </g>
    </g>
    <g id="Group_364" data-name="Group 364" transform="translate(-2097.889 -124.933)">
      <path id="Path_838" data-name="Path 838" d="M2403.182,455.066l-72.241,22.647,70.342-65.233Z" fill="#204272"/>
      <path id="Path_839" data-name="Path 839" d="M2401.284,412.481l-66.976,63.656,68.06-39.347Z" opacity="0.5"/>
      <g id="Group_361" data-name="Group 361">
        <path id="Path_840" data-name="Path 840" d="M2470.415,385.224h0a23.543,23.543,0,0,1-23.543-23.543V311.576h47.085v50.105A23.542,23.542,0,0,1,2470.415,385.224Z" fill="#fa997b"/>
        <path id="Path_841" data-name="Path 841" d="M2446.872,327.494s13.8,20.552,28.607,19.375c14.514-1.155,18.524-11.949,18.62-19.732a79.065,79.065,0,0,0-.251-7.932s-9,19.923-23.042,19.94A30.72,30.72,0,0,1,2446.872,327.494Z" fill="#ef5d23"/>
      </g>
      <path id="Path_842" data-name="Path 842" d="M2435.288,294.2l-2.347-23.812c-3.023-15.225,8.854-23.274,19.24-23.274h35.973c11.016,0,22.074,5.205,21.368,22.917-.26,6.532-6.029,28.18-6.029,28.18Z" fill="#a9453e"/>
      <g id="Group_362" data-name="Group 362">
        <path id="Path_843" data-name="Path 843" d="M2501.255,306.8c7.014,5.417,19.863-18.255,13.039-24.074s-11.641,4.476-11.641,4.476-.823,6.479-1.021,8.646c-.191,2.089-.54,8.374-.54,8.374l-.448,2.53Z" fill="#fa997b"/>
      </g>
      <g id="Group_363" data-name="Group 363">
        <path id="Path_844" data-name="Path 844" d="M2438.793,307.255c-7.129,5.264-19.463-18.68-12.515-24.351s11.309,4.835,11.309,4.835l1.005,8.7.813,8.1v2.681Z" fill="#fa997b"/>
      </g>
      <path id="Path_845" data-name="Path 845" d="M2503.4,276.357a175.008,175.008,0,0,1-3.94,36.71,34.7,34.7,0,0,1-15.012,21.66l-1.4.911a25.014,25.014,0,0,1-26.816.316h0a34.678,34.678,0,0,1-15.9-23.019,256.2,256.2,0,0,1-3.61-36.578s-3.095-37.437,32.863-36.71S2503.4,276.357,2503.4,276.357Z" fill="#fa997b"/>
      <path id="Path_846" data-name="Path 846" d="M2479.172,278.728s4.224-5.017,8.518,0" fill="none" stroke="#1a1a1a" stroke-linecap="round" stroke-linejoin="round" stroke-width="1.391"/>
      <path id="Path_847" data-name="Path 847" d="M2450.68,278.728s4.224-5.017,8.518,0" fill="none" stroke="#1a1a1a" stroke-linecap="round" stroke-linejoin="round" stroke-width="1.391"/>
      <path id="Path_848" data-name="Path 848" d="M2465.374,317.56s5.2,5.962,10.909,0" fill="none" stroke="#d26665" stroke-linecap="round" stroke-linejoin="round" stroke-width="2.727"/>
      <path id="Path_849" data-name="Path 849" d="M2490.613,232.191c-11.427-8.082-29.512-4.549-37.471-.867-16.87,7.8-20.253,20.506-20.679,27.89-.5,8.6.479,14.236,4.938,31.923,0,0,5.737-20.478,5.9-32.691,9.6,4.233,35.916,14.525,53.078,8.769,1.7,10.427,6.2,23.922,6.2,23.922,1.8-12.263,1.042-21.011-.176-26.931a19.965,19.965,0,0,0,2.972-2.52A34.991,34.991,0,0,0,2490.613,232.191Z" fill="#a9453e"/>
      <path id="Path_850" data-name="Path 850" d="M2468.872,292.343s-1.52,8.063-1.956,11.08a7.1,7.1,0,0,0-.138,2.08c.228,1.492,1.878,2.11,3.387,2.151a11.4,11.4,0,0,0,3.253-.588" fill="none" stroke="#d26665" stroke-linecap="round" stroke-linejoin="round" stroke-width="1.228"/>
      <circle id="Ellipse_47" data-name="Ellipse 47" cx="3.122" cy="3.122" r="3.122" transform="translate(2451.817 284.201)" fill="#1a1a1a"/>
      <circle id="Ellipse_48" data-name="Ellipse 48" cx="3.122" cy="3.122" r="3.122" transform="translate(2480.726 284.201)" fill="#1a1a1a"/>
      <path id="Path_851" data-name="Path 851" d="M2466.932,290.336s3.072-2.8,6.041.188" fill="none" stroke="#1a1a1a" stroke-linecap="round" stroke-linejoin="round" stroke-width="0.909"/>
      <line id="Line_14" data-name="Line 14" x1="2.692" transform="translate(2437.337 290.774)" fill="none" stroke="#1a1a1a" stroke-miterlimit="10" stroke-width="0.899"/>
      <line id="Line_15" data-name="Line 15" x1="2.246" transform="translate(2500.073 290.524)" fill="none" stroke="#1a1a1a" stroke-miterlimit="10" stroke-width="0.899"/>
      <path id="Rectangle_80" data-name="Rectangle 80" d="M0,0H19.1a7.617,7.617,0,0,1,7.617,7.617v2.592A12.787,12.787,0,0,1,13.934,23h-.476A13.458,13.458,0,0,1,0,9.538V0A0,0,0,0,1,0,0Z" transform="translate(2439.938 281.212)" fill="#fff" opacity="0.19"/>
      <path id="Rectangle_81" data-name="Rectangle 81" d="M0,0H19.1a7.617,7.617,0,0,1,7.617,7.617v2.592A12.787,12.787,0,0,1,13.934,23h-.476A13.458,13.458,0,0,1,0,9.538V0A0,0,0,0,1,0,0Z" transform="translate(2439.938 281.212)" fill="none" stroke="#1a1a1a" stroke-linecap="round" stroke-linejoin="round" stroke-width="0.909"/>
      <path id="Rectangle_82" data-name="Rectangle 82" d="M13.458,0h.476A12.787,12.787,0,0,1,26.721,12.787v2.592A7.617,7.617,0,0,1,19.1,23H0a0,0,0,0,1,0,0V13.458A13.458,13.458,0,0,1,13.458,0Z" transform="translate(2499.85 304.208) rotate(-180)" fill="#fff" opacity="0.19"/>
      <path id="Rectangle_83" data-name="Rectangle 83" d="M13.458,0h.476A12.787,12.787,0,0,1,26.721,12.787v2.592A7.617,7.617,0,0,1,19.1,23H0a0,0,0,0,1,0,0V13.458A13.458,13.458,0,0,1,13.458,0Z" transform="translate(2499.85 304.208) rotate(-180)" fill="none" stroke="#1a1a1a" stroke-linecap="round" stroke-linejoin="round" stroke-width="0.909"/>
      <path id="Path_852" data-name="Path 852" d="M2431.067,295.409c.76,1.748,2.2,2.815,3.206,2.376s1.219-2.213.459-3.968-2.2-2.809-3.21-2.372S2430.3,293.658,2431.067,295.409Z" fill="#ef5d23"/>
      <path id="Path_853" data-name="Path 853" d="M2508.214,295.409c-.76,1.748-2.194,2.815-3.206,2.376s-1.218-2.213-.458-3.968,2.2-2.809,3.209-2.372S2508.977,293.658,2508.214,295.409Z" fill="#ef5d23"/>
      <path id="Path_854" data-name="Path 854" d="M2544.476,451.742l80.8,19.268-82.87-63.023Z" fill="#204272"/>
      <path id="Path_855" data-name="Path 855" d="M2542.4,407.987l70.107,59.98-68.889-36.086Z" opacity="0.5"/>
      <path id="Path_856" data-name="Path 856" d="M2568.586,592.816c-6.855-86.484-25.962-227.365-25.962-227.365-17.6-4.73-24.547-7.918-39.638-9.674-11.914,15.824-20.467,19.5-31.358,23.806-17.527-2.424-32.295-24.011-32.295-24.506-25.443,2.607-39.846,7.96-39.846,7.96-8.732,3.662-19.688,168.884-25.162,229.779Z" fill="#2a4e96"/>
      <path id="Path_857" data-name="Path 857" d="M2441.121,346.869a13.628,13.628,0,0,0-7.316,8.837s22.863,23.518,37.823,23.877Z" fill="#ed7d2b"/>
      <path id="Path_858" data-name="Path 858" d="M2471.628,379.583l29.509-33.9s6.093,4.009,6.006,10.608C2507.143,356.288,2484.316,380.481,2471.628,379.583Z" fill="#ed7d2b"/>
      <path id="Path_859" data-name="Path 859" d="M2493.961,501.374c0,7.627-7.819,22.654-13.8,33.036a7.986,7.986,0,0,1-13.819.027c-.618-1.054-1.254-2.181-1.909-3.363a159.041,159.041,0,0,1-11.827-26.755c-7.846-23.7,14.682-127.228,14.682-127.228l9.582-.173s6.872,45.064,11.9,81.192C2491.67,478.973,2493.961,496.846,2493.961,501.374Z" fill="#ed7d2b"/>
      <path id="Path_860" data-name="Path 860" d="M2493.957,501.374c0,7.627-7.818,22.654-13.8,33.036a7.985,7.985,0,0,1-13.818.027c-.618-1.054-1.255-2.181-1.909-3.363,12.536-3.455,24.327-72.973,24.327-72.973a.009.009,0,0,1,.009.009C2491.666,478.973,2493.957,496.846,2493.957,501.374Z" fill-rule="evenodd" opacity="0.2"/>
      <path id="Path_861" data-name="Path 861" d="M2460.82,366.93s13.669-.578,21.9.74a2.294,2.294,0,0,1,1.558,3.5c-2.56,4.041-7.71,11-12.657,10.719C2464.664,381.492,2454.628,367.054,2460.82,366.93Z" fill="#f99746"/>
      <path id="Path_862" data-name="Path 862" d="M2404.128,364.149s18.043-16,24.483-20.783,15.88,4.058,19.171,6.9,2.288,12.065-.453,16.055a9.319,9.319,0,0,1-9.147,4.237c-2.672-.315-5.589-2.263-7.211-.349s-11.128,8.612-20.813,9.22Z" fill="#fa997b"/>
      <path id="Path_863" data-name="Path 863" d="M2405.435,361.867s-86.38,40.634-104.951,53.529c-28.1,19.512-24.084,46.494-6.256,59.668s56.539,14.173,122.495-84.59Z" fill="#204272"/>
      <path id="Path_864" data-name="Path 864" d="M2536.786,361.035s-19.125-14.688-25.886-19.007-15.555,5.167-18.637,8.238-1.433,12.2,1.583,15.983a9.318,9.318,0,0,0,9.422,3.582c2.643-.5,5.416-2.651,7.168-.856s11.707,7.806,21.411,7.731Z" fill="#fa997b"/>
      <path id="Path_865" data-name="Path 865" d="M2535.322,358.851s89.027,34.449,108.46,46c29.405,17.484,27.3,44.682,10.443,59.079s-55.4,18.12-128.148-75.752Z" fill="#204272"/>
    </g>
    <g id="Group_373" data-name="Group 373" transform="translate(-2097.889 -124.933)">
      <g id="Group_366" data-name="Group 366">
        <g id="Group_365" data-name="Group 365">
          <path id="Path_866" data-name="Path 866" d="M2361.422,213.621a23.663,23.663,0,0,0-.328,2.582,12.871,12.871,0,0,0,1.629,6.78c.68,1.333,1.565,2.737,2.252,4.4a9.645,9.645,0,0,1,.576,5.671,10.194,10.194,0,0,1-3.075,5.5,9.387,9.387,0,0,1-6.3,2.406,9.9,9.9,0,0,1-6.389-2.183,9.968,9.968,0,0,1-2.841-11.091,18.534,18.534,0,0,1,2.623-4.216,16.947,16.947,0,0,0,2.143-3.4,7.759,7.759,0,0,0,.687-2.921,5.585,5.585,0,0,0-.584-2.491,2.374,2.374,0,0,1,.358.58,4.75,4.75,0,0,1,.429,1.91,7.757,7.757,0,0,1-.622,3.035,16.707,16.707,0,0,1-2.114,3.505,18.567,18.567,0,0,0-2.518,4.154,9.215,9.215,0,0,0,8.823,12.6,8.909,8.909,0,0,0,5.96-2.264,9.761,9.761,0,0,0,2.948-5.215,9.245,9.245,0,0,0-.507-5.416c-.649-1.623-1.512-3.036-2.179-4.4a12.711,12.711,0,0,1-1.5-6.958,10.9,10.9,0,0,1,.316-1.925A2.721,2.721,0,0,1,2361.422,213.621Z" fill="#b2c0db" stroke="#b2c0db" stroke-miterlimit="10" stroke-width="0.75"/>
        </g>
      </g>
      <g id="Group_368" data-name="Group 368">
        <g id="Group_367" data-name="Group 367">
          <path id="Path_867" data-name="Path 867" d="M2357.814,214.551a16.753,16.753,0,0,1-.265,1.835,47.714,47.714,0,0,0-.5,5.012,40.372,40.372,0,0,0,.326,7.419,1.667,1.667,0,0,0,.405.831.821.821,0,0,0,.76.275c.537-.116.825-.937.718-1.579a3.2,3.2,0,0,0-3.045-2.661,3.166,3.166,0,0,0-3.106,2.572,1.391,1.391,0,0,0,.818,1.567,1.232,1.232,0,0,0,1.423-.826,6.129,6.129,0,0,0,.332-1.941c.05-.662.073-1.306.083-1.93a33.173,33.173,0,0,0-.143-3.465,34.23,34.23,0,0,0-.84-4.958c-.283-1.156-.475-1.788-.436-1.8a1.708,1.708,0,0,1,.2.44c.114.294.262.735.435,1.309a29.069,29.069,0,0,1,1.01,4.972,31.486,31.486,0,0,1,.209,3.506c0,.631-.015,1.285-.058,1.957a6.406,6.406,0,0,1-.351,2.106,2.083,2.083,0,0,1-.76.922,1.45,1.45,0,0,1-1.259.18,1.89,1.89,0,0,1-1.166-2.1,3.623,3.623,0,0,1,7.161.077,2.382,2.382,0,0,1-.155,1.254,1.411,1.411,0,0,1-.961.885,1.313,1.313,0,0,1-1.217-.42,2.146,2.146,0,0,1-.523-1.069,38.9,38.9,0,0,1,.445-12.57c.123-.585.229-1.038.314-1.342A1.708,1.708,0,0,1,2357.814,214.551Z" fill="#b2c0db" stroke="#b2c0db" stroke-miterlimit="10" stroke-width="0.75"/>
        </g>
      </g>
      <g id="Group_370" data-name="Group 370">
        <g id="Group_369" data-name="Group 369">
          <path id="Path_868" data-name="Path 868" d="M2356.173,124.933a4.11,4.11,0,0,1,.053.754c.012.544.028,1.262.049,2.16.02,1.932.048,4.632.082,7.944.02,6.757.047,16,.077,26.208-.03,10.214-.057,19.456-.077,26.214-.034,3.311-.062,6.011-.082,7.943-.021.9-.037,1.616-.049,2.16a.378.378,0,1,1-.1,0c-.013-.544-.029-1.262-.049-2.16-.02-1.932-.048-4.632-.083-7.943-.02-6.758-.046-16-.076-26.214.03-10.209.056-19.451.076-26.208.035-3.312.063-6.012.083-7.944.02-.9.036-1.616.049-2.16A4.126,4.126,0,0,1,2356.173,124.933Z" fill="#b2c0db" stroke="#b2c0db" stroke-miterlimit="10" stroke-width="1"/>
        </g>
      </g>
      <g id="Group_371" data-name="Group 371">
        <path id="Path_869" data-name="Path 869" d="M2349.16,199.949l2.709-12.126h9l2.3,12.126Z" fill="#94a1b2"/>
      </g>
      <g id="Group_372" data-name="Group 372">
        <path id="Path_870" data-name="Path 870" d="M2349.16,199.949l-43.678,14.671h98.693l-41.011-14.671Z" fill="#94a1b2"/>
      </g>
    </g>
  </g>
</svg>
