<?xml version="1.0" encoding="utf-8"?>
<!-- Generator: Adobe Illustrator 19.0.0, SVG Export Plug-In . SVG Version: 6.00 Build 0)  -->
<svg version="1.1" id="Layer_1" xmlns="http://www.w3.org/2000/svg" xmlns:xlink="http://www.w3.org/1999/xlink" x="0px" y="0px"
	 viewBox="0 0 13 13" style="enable-background:new 0 0 13 13;" xml:space="preserve">
<style type="text/css">
	.st0{fill:#FFFFFF;}
</style>
<g id="XMLID_79_">
	<path id="XMLID_80_" class="st0" d="M7.6,6.5c0,0.1,0,0.2-0.1,0.3l-5.2,5.1C2.2,11.9,2.1,12,2,12s-0.2,0-0.3-0.1l-0.6-0.5
		c-0.1-0.1-0.1-0.2-0.1-0.3s0-0.2,0.1-0.3l4.4-4.3L1.2,2.2C1.1,2.1,1.1,2,1.1,1.9s0-0.2,0.1-0.3l0.6-0.5C1.9,1.1,1.9,1,2,1
		s0.2,0,0.3,0.1l5.2,5.1C7.6,6.3,7.6,6.4,7.6,6.5z M11.9,6.5c0,0.1,0,0.2-0.1,0.3l-5.2,5.1C6.5,11.9,6.4,12,6.3,12s-0.2,0-0.3-0.1
		l-0.6-0.5c-0.1-0.1-0.1-0.2-0.1-0.3s0-0.2,0.1-0.3l4.4-4.3L5.5,2.2C5.4,2.1,5.4,2,5.4,1.9s0-0.2,0.1-0.3l0.6-0.5
		C6.1,1.1,6.2,1,6.3,1s0.2,0,0.3,0.1l5.2,5.1C11.9,6.3,11.9,6.4,11.9,6.5z"/>
</g>
</svg>
