<svg xmlns="http://www.w3.org/2000/svg" width="53.858" height="63.373" viewBox="0 0 53.858 63.373">
  <g id="android" transform="translate(0 0)">
    <path id="Path_3328" data-name="Path 3328" d="M-220.216,403.728h-18.66c-2.708,0-4.923-1.448-4.923-3.217V388.317c0-1.769,2.216-3.217,4.923-3.217h18.66c2.708,0,4.924,1.448,4.924,3.217V400.51C-215.293,402.28-217.509,403.728-220.216,403.728Z" transform="translate(256.676 -353.414)" fill="#0ca192" opacity="0.3"/>
    <g id="Group_2619" data-name="Group 2619" transform="translate(0 0)">
      <g id="Group_2613" data-name="Group 2613" transform="translate(10.657 0)">
        <path id="Path_3329" data-name="Path 3329" d="M-205.946,352.711l2.48-4.174a1.381,1.381,0,0,0-.484-1.875,1.318,1.318,0,0,0-1.875.484l-2.661,4.476a15.948,15.948,0,0,0-10.344,0l-2.662-4.476a1.382,1.382,0,0,0-1.875-.484,1.367,1.367,0,0,0-.484,1.875l2.48,4.174a16.184,16.184,0,0,0-8.529,14.276,1.407,1.407,0,0,0,1.391,1.391h29.7a1.369,1.369,0,0,0,1.391-1.391A16.184,16.184,0,0,0-205.946,352.711ZM-227.057,365.6a13.508,13.508,0,0,1,13.429-12.1A13.6,13.6,0,0,1-200.2,365.6Z" transform="translate(229.9 -346.452)" fill="#0ca192"/>
      </g>
      <g id="Group_2614" data-name="Group 2614" transform="translate(31.949 14.316)">
        <path id="Path_3330" data-name="Path 3330" d="M-191.313,367.428v1.391a1.02,1.02,0,0,1-1.028,1.028h-1.391a.971.971,0,0,1-.968-1.028v-1.391a1.008,1.008,0,0,1,.968-1.028h1.391a1.116,1.116,0,0,1,.726.3A1.116,1.116,0,0,1-191.313,367.428Z" transform="translate(194.7 -366.4)" fill="#0ca192"/>
      </g>
      <g id="Group_2615" data-name="Group 2615" transform="translate(18.521 14.316)">
        <path id="Path_3331" data-name="Path 3331" d="M-213.513,367.428v1.391a1.008,1.008,0,0,1-.968,1.028h-1.391a1.02,1.02,0,0,1-1.028-1.028v-1.391a1.019,1.019,0,0,1,1.028-1.028h1.391A1.008,1.008,0,0,1-213.513,367.428Z" transform="translate(216.9 -366.4)" fill="#0ca192"/>
      </g>
      <g id="Group_2616" data-name="Group 2616" transform="translate(10.718 24.538)">
        <path id="Path_3332" data-name="Path 3332" d="M-197.741,383.723a1.427,1.427,0,0,0-.968-.423h-29.7a1.369,1.369,0,0,0-1.391,1.391V406.1a5.421,5.421,0,0,0,5.444,5.444h.968V417.6a4.57,4.57,0,0,0,4.537,4.537,4.531,4.531,0,0,0,4.537-4.537v-6.049h1.512V417.6a4.57,4.57,0,0,0,4.537,4.537,4.57,4.57,0,0,0,4.537-4.537v-6.049h.907a5.421,5.421,0,0,0,5.444-5.444V384.691A1.374,1.374,0,0,0-197.741,383.723Zm-8.71,26.434v7.44a1.82,1.82,0,0,1-1.815,1.815,1.782,1.782,0,0,1-1.815-1.815v-7.44a1.407,1.407,0,0,0-1.391-1.391h-4.234a1.407,1.407,0,0,0-1.391,1.391v7.44a1.782,1.782,0,0,1-1.815,1.815,1.82,1.82,0,0,1-1.815-1.815v-7.44a1.407,1.407,0,0,0-1.391-1.391h-2.3a2.711,2.711,0,0,1-2.722-2.722V386.022h26.978V406.1a2.711,2.711,0,0,1-2.722,2.722h-2.3A1.332,1.332,0,0,0-206.451,410.157Z" transform="translate(229.8 -383.3)" fill="#0ca192"/>
      </g>
      <g id="Group_2617" data-name="Group 2617" transform="translate(45.873 24.538)">
        <path id="Path_3333" data-name="Path 3333" d="M-171.408,383.3a3.988,3.988,0,0,0-3.992,3.992v14.82a3.988,3.988,0,0,0,3.992,3.992,3.988,3.988,0,0,0,3.992-3.992v-14.76A4,4,0,0,0-171.408,383.3Zm-1.27,4.053a1.278,1.278,0,0,1,1.27-1.27,1.278,1.278,0,0,1,1.27,1.27v14.82a1.278,1.278,0,0,1-1.27,1.27,1.278,1.278,0,0,1-1.27-1.27Z" transform="translate(175.4 -383.3)" fill="#0ca192"/>
      </g>
      <g id="Group_2618" data-name="Group 2618" transform="translate(0 24.538)">
        <path id="Path_3334" data-name="Path 3334" d="M-239.808,383.3a3.989,3.989,0,0,0-3.992,3.992v14.82a3.988,3.988,0,0,0,3.992,3.992,4.041,4.041,0,0,0,4.053-3.992v-14.76A4.093,4.093,0,0,0-239.808,383.3Zm-1.27,4.053a1.278,1.278,0,0,1,1.27-1.27,1.278,1.278,0,0,1,1.27,1.27v14.82a1.278,1.278,0,0,1-1.27,1.27,1.278,1.278,0,0,1-1.27-1.27Z" transform="translate(243.8 -383.3)" fill="#0ca192"/>
      </g>
    </g>
  </g>
</svg>
