<svg xmlns="http://www.w3.org/2000/svg" width="55.284" height="59.195" viewBox="0 0 55.284 59.195">
  <g id="apple" transform="translate(0 0)">
    <path id="Path_3806" data-name="Path 3806" d="M-210.773,614.8a7.039,7.039,0,0,1-3.124.825h-.059c-3.124,0-5.776-3.418-7.721-6.424-3.949-6.071-5.717-13.2-4.715-19.214a13.568,13.568,0,0,1,1.768-4.951c2.358-3.6,6.012-5.835,9.607-5.835a13.536,13.536,0,0,1,4.951,1.12,13.832,13.832,0,0,0,4.833,1.061,12.47,12.47,0,0,0,4.361-1,13.563,13.563,0,0,1,5.3-1.179,11.407,11.407,0,0,1,7.78,3.536l.118.118-.118.118a11.957,11.957,0,0,0-4.244,5.658,12.517,12.517,0,0,0,6.012,15.324l.118.059-.059.118a34.778,34.778,0,0,1-2.652,4.774c-2.063,3.124-4.833,6.778-7.9,6.778h-.059a6.791,6.791,0,0,1-3.065-.825,11.618,11.618,0,0,0-5.481-1.3h-.059A11.562,11.562,0,0,0-210.773,614.8Z" transform="translate(236.883 -562.441)" fill="#ff816a" opacity="0.4"/>
    <g id="Apple-2" data-name="Apple" transform="translate(3.006)">
      <g id="_Group_">
        <g id="_Path_" transform="translate(24.457)">
          <path id="Path_3807" data-name="Path 3807" d="M-195.928,565.933a1.781,1.781,0,0,1-.943-.295,1.452,1.452,0,0,1-.53-1.12,13.788,13.788,0,0,1,10.963-13.733,1.576,1.576,0,0,1,1.238.295,1.451,1.451,0,0,1,.53,1.12,13.787,13.787,0,0,1-10.963,13.733Zm8.133-11.67a10.711,10.711,0,0,0-6.542,8.192A10.711,10.711,0,0,0-187.795,554.263Z" transform="translate(197.404 -550.765)" fill="#ff816a"/>
        </g>
        <g id="_Path_2" transform="translate(0 14.637)">
          <path id="Path_3808" data-name="Path 3808" d="M-201.946,620.158a16.106,16.106,0,0,1-6.955-1.474,10.086,10.086,0,0,0-4.067-1,9.213,9.213,0,0,0-4.067,1,16.107,16.107,0,0,1-6.955,1.474c-5.481,0-14.911-13.438-14.911-27.171,0-12.849,8.016-17.387,14.911-17.387a14.968,14.968,0,0,1,5.835,1.3,13.713,13.713,0,0,0,5.187,1.179,13.713,13.713,0,0,0,5.187-1.179,15.538,15.538,0,0,1,5.894-1.3,14.893,14.893,0,0,1,10.786,4.656,1.368,1.368,0,0,1,.354,1.238,1.716,1.716,0,0,1-.707,1.061,10.649,10.649,0,0,0-5.363,9.194,10.165,10.165,0,0,0,6.424,9.607,1.469,1.469,0,0,1,.825,1.827C-192.221,611.494-197.466,620.158-201.946,620.158Zm-11.022-5.363a12.187,12.187,0,0,1,5.128,1.179A13.444,13.444,0,0,0-202,617.21c1.827,0,6.247-5.3,9.194-13.674a13.177,13.177,0,0,1-7.014-11.788h0a13.7,13.7,0,0,1,5.245-10.609,11.754,11.754,0,0,0-7.367-2.534H-202a12.354,12.354,0,0,0-4.774,1.12,15.858,15.858,0,0,1-6.247,1.356,16.109,16.109,0,0,1-6.247-1.356,12.355,12.355,0,0,0-4.774-1.12c-2,0-11.965.707-11.965,14.44,0,13.32,9.077,24.224,11.965,24.224a13.444,13.444,0,0,0,5.835-1.238A12.287,12.287,0,0,1-212.967,614.794Z" transform="translate(238.9 -575.6)" fill="#ff816a"/>
        </g>
      </g>
    </g>
    <circle id="Ellipse_522" data-name="Ellipse 522" cx="4.715" cy="4.715" r="4.715" transform="translate(0 5.738)" fill="#ff816a"/>
    <circle id="Ellipse_523" data-name="Ellipse 523" cx="1.827" cy="1.827" r="1.827" transform="translate(11.375 1.199)" fill="#ff816a"/>
    <circle id="Ellipse_524" data-name="Ellipse 524" cx="2.888" cy="2.888" r="2.888" transform="translate(49.508 53.183)" fill="#ff816a"/>
  </g>
</svg>
