<svg xmlns="http://www.w3.org/2000/svg" width="50.474" height="47.294" viewBox="0 0 50.474 47.294">
  <g id="xamarian" transform="translate(0.194 0.388)">
    <path id="Path_3809" data-name="Path 3809" d="M-231.7,357.6h20a1.5,1.5,0,0,1,1.31.756l10.228,17.685a1.606,1.606,0,0,1,0,1.512l-10.127,17.584a1.5,1.5,0,0,1-1.31.756h-20.255a1.5,1.5,0,0,1-1.31-.756l-10.127-17.584a1.606,1.606,0,0,1,0-1.512l10.228-17.685A1.725,1.725,0,0,1-231.7,357.6Z" transform="translate(248.282 -354.932)" fill="#67b3e8" opacity="0.4"/>
    <g id="Group_2811" data-name="Group 2811" transform="translate(0.172 0.502)">
      <path id="Path_3810" data-name="Path 3810" d="M-215.856,397.286h-23.58a1.5,1.5,0,0,1-1.31-.756l-11.74-20.456a1.606,1.606,0,0,1,0-1.512l11.941-20.507a1.5,1.5,0,0,1,1.31-.756h23.278a1.5,1.5,0,0,1,1.31.756l11.891,20.507a1.606,1.606,0,0,1,0,1.512L-214.5,396.53A1.654,1.654,0,0,1-215.856,397.286Zm-22.119-2.519h20.658a1.5,1.5,0,0,0,1.31-.756l10.279-17.937a1.606,1.606,0,0,0,0-1.512l-10.48-18.038a1.5,1.5,0,0,0-1.31-.756h-20.356a1.5,1.5,0,0,0-1.31.756l-10.48,18.038a1.606,1.606,0,0,0,0,1.512l10.329,17.937A1.653,1.653,0,0,0-237.975,394.767Z" transform="translate(252.675 -353.3)" fill="#67b3e8"/>
    </g>
    <g id="Group_2812" data-name="Group 2812" transform="translate(16.726 10.77)">
      <path id="Path_3811" data-name="Path 3811" d="M-219.155,396.514h0a1.243,1.243,0,0,1-.453-1.713l5.492-9.372-5.542-9.875a1.26,1.26,0,0,1,.5-1.713h0a1.259,1.259,0,0,1,1.713.5l6.248,11.135-6.2,10.631A1.348,1.348,0,0,1-219.155,396.514Z" transform="translate(219.82 -373.68)" fill="#67b3e8"/>
    </g>
    <g id="Group_2813" data-name="Group 2813" transform="translate(25.1 10.959)">
      <path id="Path_3812" data-name="Path 3812" d="M-196.952,396.449l-6.248-10.833,6.248-10.934a1.243,1.243,0,0,1,1.713-.453h0a1.243,1.243,0,0,1,.453,1.713l-5.542,9.674,5.492,9.573a1.243,1.243,0,0,1-.453,1.713h0A1.207,1.207,0,0,1-196.952,396.449Z" transform="translate(203.2 -374.056)" fill="#67b3e8"/>
    </g>
    <ellipse id="Ellipse_525" data-name="Ellipse 525" cx="3" cy="3.5" rx="3" ry="3.5" transform="translate(-0.194 -0.388)" fill="#67b3e8"/>
    <circle id="Ellipse_526" data-name="Ellipse 526" cx="1.108" cy="1.108" r="1.108" transform="translate(8.271 0.451)" fill="#67b3e8"/>
    <circle id="Ellipse_527" data-name="Ellipse 527" cx="3.225" cy="3.225" r="3.225" transform="translate(42.835 36.225)" fill="#67b3e8"/>
    <circle id="Ellipse_528" data-name="Ellipse 528" cx="1.36" cy="1.36" r="1.36" transform="translate(40.367 44.186)" fill="#67b3e8"/>
  </g>
</svg>
