<svg xmlns="http://www.w3.org/2000/svg" width="18.29" height="18.29" viewBox="0 0 18.29 18.29">
  <path id="linkedin" d="M16.636,0H1.654A1.655,1.655,0,0,0,0,1.654V16.636A1.655,1.655,0,0,0,1.654,18.29H16.636a1.655,1.655,0,0,0,1.655-1.655V1.654A1.655,1.655,0,0,0,16.636,0ZM5.66,15.793a.481.481,0,0,1-.481.481H3.129a.481.481,0,0,1-.481-.481V7.2a.481.481,0,0,1,.481-.481h2.05A.481.481,0,0,1,5.66,7.2ZM4.153,5.91A1.947,1.947,0,1,1,6.1,3.963,1.947,1.947,0,0,1,4.153,5.91Zm12.217,9.922a.443.443,0,0,1-.443.443h-2.2a.443.443,0,0,1-.443-.443V11.8c0-.6.176-2.634-1.571-2.634-1.355,0-1.63,1.392-1.686,2.016v4.648a.443.443,0,0,1-.443.443H7.459a.443.443,0,0,1-.443-.443V7.163a.443.443,0,0,1,.443-.443H9.587a.443.443,0,0,1,.443.443v.75a3.019,3.019,0,0,1,2.84-1.336c3.522,0,3.5,3.29,3.5,5.1v4.158Z" fill="#0077b7"/>
</svg>
