<svg xmlns="http://www.w3.org/2000/svg" width="354.198" height="362.348" viewBox="0 0 354.198 362.348">
  <g id="audit" transform="translate(-19.173 -22.9)">
    <rect id="Rectangle_1" data-name="Rectangle 1" width="178.568" height="191.349" transform="translate(89.315 134.712)" fill="#9d9fa1"/>
    <path id="Path_1" data-name="Path 1" d="M301.279,247.561A12.81,12.81,0,0,0,314.06,234.78V105.664a50.97,50.97,0,0,0-50.871-50.871H223.161V35.681A12.81,12.81,0,0,0,210.4,22.9H159.381A12.81,12.81,0,0,0,146.6,35.681V54.792H106.571A50.97,50.97,0,0,0,55.7,105.664V297.786a50.97,50.97,0,0,0,50.871,50.871H263.057a50.97,50.97,0,0,0,50.871-50.871,12.781,12.781,0,0,0-25.563,0,25.4,25.4,0,0,1-25.436,25.436H106.7a25.4,25.4,0,0,1-25.436-25.436v-192A25.4,25.4,0,0,1,106.7,80.355h40.028V86.68a38.217,38.217,0,1,0,76.434,0V80.355h40.023a25.4,25.4,0,0,1,25.436,25.436V234.907A12.673,12.673,0,0,0,301.279,247.561ZM197.6,86.685a12.781,12.781,0,0,1-25.563,0v-38.2h25.436v38.2ZM253.251,167.9a12.673,12.673,0,0,1,3.226,17.686L199.8,267.177c-.127.259-.387.514-.514.773a32.883,32.883,0,0,1-23.37,12.135c-.773,0-1.415.127-2.193.127a32.718,32.718,0,0,1-22.6-9.037l-.127-.127-33.571-33.312a12.692,12.692,0,1,1,17.819-18.078l33.571,33.185a7.155,7.155,0,0,0,5.424,1.938,7.3,7.3,0,0,0,4.905-2.452l56.286-81.075a12.758,12.758,0,0,1,17.819-3.358Z" transform="translate(20.632 10)" fill="#fff" stroke="#707070" stroke-width="1"/>
    <path id="Path_1-2" data-name="Path 1" d="M301.279,247.561A12.81,12.81,0,0,0,314.06,234.78V105.664a50.97,50.97,0,0,0-50.871-50.871H223.161V35.681A12.81,12.81,0,0,0,210.4,22.9H159.381A12.81,12.81,0,0,0,146.6,35.681V54.792H106.571A50.97,50.97,0,0,0,55.7,105.664V297.786a50.97,50.97,0,0,0,50.871,50.871H263.057a50.97,50.97,0,0,0,50.871-50.871,12.781,12.781,0,0,0-25.563,0,25.4,25.4,0,0,1-25.436,25.436H106.7a25.4,25.4,0,0,1-25.436-25.436v-192A25.4,25.4,0,0,1,106.7,80.355h40.028V86.68a38.217,38.217,0,1,0,76.434,0V80.355h40.023a25.4,25.4,0,0,1,25.436,25.436V234.907A12.673,12.673,0,0,0,301.279,247.561ZM197.6,86.685a12.781,12.781,0,0,1-25.563,0v-38.2h25.436v38.2ZM253.251,167.9a12.673,12.673,0,0,1,3.226,17.686L199.8,267.177c-.127.259-.387.514-.514.773a32.883,32.883,0,0,1-23.37,12.135c-.773,0-1.415.127-2.193.127a32.718,32.718,0,0,1-22.6-9.037l-.127-.127-33.571-33.312a12.692,12.692,0,1,1,17.819-18.078l33.571,33.185a7.155,7.155,0,0,0,5.424,1.938,7.3,7.3,0,0,0,4.905-2.452l56.286-81.075a12.758,12.758,0,0,1,17.819-3.358Z" transform="translate(10.632 0)" fill="#373f54"/>
    <circle id="Ellipse_1" data-name="Ellipse 1" cx="18.465" cy="18.465" r="18.465" transform="translate(336.441 24.452)" fill="#9d9fa1"/>
    <circle id="Ellipse_2" data-name="Ellipse 2" cx="19.238" cy="19.238" r="19.238" transform="translate(23.47 23.673)" fill="#9d9fa1"/>
    <circle id="Ellipse_3" data-name="Ellipse 3" cx="8.909" cy="8.909" r="8.909" transform="translate(345.996 176.933)" fill="#9d9fa1"/>
    <circle id="Ellipse_4" data-name="Ellipse 4" cx="8.909" cy="8.909" r="8.909" transform="translate(33.799 185.975)" fill="#9d9fa1"/>
    <circle id="Ellipse_5" data-name="Ellipse 5" cx="18.465" cy="18.465" r="18.465" transform="translate(336.441 343.366)" fill="#9d9fa1"/>
    <circle id="Ellipse_6" data-name="Ellipse 6" cx="18.465" cy="18.465" r="18.465" transform="translate(19.173 372.876) rotate(-70.423)" fill="#9d9fa1"/>
  </g>
</svg>
