<svg id="consulting-top" xmlns="http://www.w3.org/2000/svg" width="386.093" height="386.093" viewBox="0 0 386.093 386.093">
  <rect id="Rectangle_2" data-name="Rectangle 2" width="261.369" height="205.572" transform="translate(22.303 98.291)" fill="#a0e4d5"/>
  <g id="Group_409" data-name="Group 409" transform="translate(10 10)">
    <path id="Path_13" data-name="Path 13" d="M202.033,167.184a52.766,52.766,0,1,0-52.4,52.4A52.766,52.766,0,0,0,202.033,167.184Zm-52.4,31.388a31.481,31.481,0,1,1,31.481-31.481A31.476,31.476,0,0,1,149.628,198.573Z" transform="translate(-7.938 -9.976)" fill="#fff" stroke="#707070" stroke-width="1"/>
    <path id="Path_14" data-name="Path 14" d="M195.159,62.862H26.126V272.475H5.2v31.479a31.529,31.529,0,0,0,31.479,31.479H331.542a31.529,31.529,0,0,0,31.464-31.479V272.475H342.1V104.8h20.906V0H195.159Zm146.74,241a10.458,10.458,0,0,1-10.463,10.463H36.588a10.458,10.458,0,0,1-10.463-10.463V293.4H341.9Zm-146.74-31.383H88.988V262.012a32.207,32.207,0,0,1,32.122-31.479h41.942a32.207,32.207,0,0,1,32.107,31.479Zm125.729,0h-104.7V262.012a52.957,52.957,0,0,0-53.133-52.4H121.11a52.957,52.957,0,0,0-53.138,52.4v10.463H47.046V83.878H195.159v48.364L250.041,104.8H320.9ZM216.185,20.926H341.9V83.788H245.1l-29,14.5V20.926Z" transform="translate(-0.426)" fill="#fff" stroke="#707070" stroke-width="1"/>
    <path id="Path_15" data-name="Path 15" d="M246.5,45.7h20.926V66.626H246.5Z" transform="translate(-20.278 -3.758)" fill="#fff" stroke="#707070" stroke-width="1"/>
    <path id="Path_16" data-name="Path 16" d="M292.1,45.7h21.016V66.626H292.191V45.7Z" transform="translate(-24.032 -3.758)" fill="#fff" stroke="#707070" stroke-width="1"/>
    <path id="Path_17" data-name="Path 17" d="M337.8,45.7h20.925V66.626H337.8Z" transform="translate(-27.791 -3.758)" fill="#fff" stroke="#707070" stroke-width="1"/>
  </g>
  <g id="Group_408" data-name="Group 408">
    <path id="Path_13-2" data-name="Path 13" d="M202.033,167.184a52.766,52.766,0,1,0-52.4,52.4A52.766,52.766,0,0,0,202.033,167.184Zm-52.4,31.388a31.481,31.481,0,1,1,31.481-31.481A31.476,31.476,0,0,1,149.628,198.573Z" transform="translate(-7.938 -9.976)" fill="#373f54"/>
    <path id="Path_14-2" data-name="Path 14" d="M195.159,62.862H26.126V272.475H5.2v31.479a31.529,31.529,0,0,0,31.479,31.479H331.542a31.529,31.529,0,0,0,31.464-31.479V272.475H342.1V104.8h20.906V0H195.159Zm146.74,241a10.458,10.458,0,0,1-10.463,10.463H36.588a10.458,10.458,0,0,1-10.463-10.463V293.4H341.9Zm-146.74-31.383H88.988V262.012a32.207,32.207,0,0,1,32.122-31.479h41.942a32.207,32.207,0,0,1,32.107,31.479Zm125.729,0h-104.7V262.012a52.957,52.957,0,0,0-53.133-52.4H121.11a52.957,52.957,0,0,0-53.138,52.4v10.463H47.046V83.878H195.159v48.364L250.041,104.8H320.9ZM216.185,20.926H341.9V83.788H245.1l-29,14.5V20.926Z" transform="translate(-0.426)" fill="#373f54"/>
    <path id="Path_15-2" data-name="Path 15" d="M246.5,45.7h20.926V66.626H246.5Z" transform="translate(-20.278 -3.758)" fill="#373f54"/>
    <path id="Path_16-2" data-name="Path 16" d="M292.1,45.7h21.016V66.626H292.191V45.7Z" transform="translate(-24.032 -3.758)" fill="#373f54"/>
    <path id="Path_17-2" data-name="Path 17" d="M337.8,45.7h20.925V66.626H337.8Z" transform="translate(-27.791 -3.758)" fill="#373f54"/>
  </g>
  <ellipse id="Ellipse_20" data-name="Ellipse 20" cx="14.96" cy="14.96" rx="14.96" ry="14.96" transform="translate(0 13.674)" fill="#a0e4d5"/>
  <ellipse id="Ellipse_21" data-name="Ellipse 21" cx="8.352" cy="8.352" rx="8.352" ry="8.352" transform="translate(47.444 33.589)" fill="#a0e4d5"/>
  <ellipse id="Ellipse_22" data-name="Ellipse 22" cx="14.96" cy="14.96" rx="14.96" ry="14.96" transform="translate(196.944 356.172)" fill="#a0e4d5"/>
  <ellipse id="Ellipse_23" data-name="Ellipse 23" cx="8.352" cy="8.352" rx="8.352" ry="8.352" transform="translate(173.083 347.82)" fill="#a0e4d5"/>
  <ellipse id="Ellipse_24" data-name="Ellipse 24" cx="14.96" cy="14.96" rx="14.96" ry="14.96" transform="translate(356.172 194.652)" fill="#a0e4d5"/>
</svg>
