<svg id="digital-top" xmlns="http://www.w3.org/2000/svg" width="358.223" height="358.59" viewBox="0 0 358.223 358.59">
  <g id="Group_261" data-name="Group 261" transform="translate(0 0)">
    <circle id="Ellipse_135" data-name="Ellipse 135" cx="122.5" cy="122.5" r="122.5" transform="translate(51.768 51.115)" fill="#ffd45e"/>
    <path id="uber" d="M124.77,179.295H11.224c-35.511,0,16.792,168.443,162.474,168.428,103.665,0,183.786-89.162,173.485-191.277A173.951,173.951,0,0,0,173.8,0C27.437,0-25.417,168.428,11.21,168.428H124.77c15.561,0,10.069-20.139,10.721-32.5,42.9,1.521,65.531-1.217,76.456-.246v76.354c-12.359,1.1-30.947-1.97-76.485-.261C135.072,199.651,140.157,179.295,124.77,179.295Zm66.618,54.332c20.2.666,42.292,2.434,42.292-19.023v-81.5c0-21.37-21.863-19.661-42.234-19.009-13.706.435-32.425,1.043-58.5,0-17.328,0-19.777,15.068-19.009,31.324.014.42.043.855.058,1.275H23.67A151.953,151.953,0,0,1,173.8,21.733c128.991,0,198.912,149.753,118.11,248.376-81.9,99.985-245.029,58.62-268.2-69.1h90.321c-.666,15.662.087,32.556,19.313,32.6,25.6-1.043,44.364-.435,58.041.014Z" transform="translate(10 358.076) rotate(-90)" fill="#fff" stroke="#707070" stroke-width="1"/>
    <path id="uber-2" data-name="uber" d="M124.77,179.295H11.224c-35.511,0,16.792,168.443,162.474,168.428,103.665,0,183.786-89.162,173.485-191.277A173.951,173.951,0,0,0,173.8,0C27.437,0-25.417,168.428,11.21,168.428H124.77c15.561,0,10.069-20.139,10.721-32.5,42.9,1.521,65.531-1.217,76.456-.246v76.354c-12.359,1.1-30.947-1.97-76.485-.261C135.072,199.651,140.157,179.295,124.77,179.295Zm66.618,54.332c20.2.666,42.292,2.434,42.292-19.023v-81.5c0-21.37-21.863-19.661-42.234-19.009-13.706.435-32.425,1.043-58.5,0-17.328,0-19.777,15.068-19.009,31.324.014.42.043.855.058,1.275H23.67A151.953,151.953,0,0,1,173.8,21.733c128.991,0,198.912,149.753,118.11,248.376-81.9,99.985-245.029,58.62-268.2-69.1h90.321c-.666,15.662.087,32.556,19.313,32.6,25.6-1.043,44.364-.435,58.041.014Z" transform="translate(0 348.076) rotate(-90)" fill="#373f54"/>
  </g>
</svg>
