<svg id="it-consulting" xmlns="http://www.w3.org/2000/svg" width="380.511" height="380.511" viewBox="0 0 380.511 380.511">
  <rect id="Rectangle_12" data-name="Rectangle 12" width="257.593" height="202.602" transform="translate(21.979 96.869)" fill="#a5efdd"/>
  <g id="Group_416" data-name="Group 416" transform="translate(13.748 9.045)">
    <path id="Path_359" data-name="Path 359" d="M200.514,165.845A51.686,51.686,0,0,0,148.869,114.2c-28.581,0-52.369,23.064-52.369,51.645s23.788,51.645,52.369,51.645A51.745,51.745,0,0,0,200.514,165.845Zm-51.645,30.933c-17.185,0-31.656-14.2-31.656-31.023s14.472-31.023,31.656-31.023a31.023,31.023,0,1,1,0,62.047Z" transform="translate(-13.922 -10.909)" fill="#fff" stroke="#707070" stroke-width="1"/>
    <path id="Path_360" data-name="Path 360" d="M192.426,61.956H25.822V268.538H5.2v31.023a31.074,31.074,0,0,0,31.023,31.023H326.83a31.074,31.074,0,0,0,31.023-31.023V268.538H337.231V103.291h20.622V0H192.426ZM337.05,299.47a10.306,10.306,0,0,1-10.311,10.311H36.133A10.306,10.306,0,0,1,25.822,299.47V289.159H337.05ZM192.426,268.538H87.778V258.227c0-16.823,14.472-31.023,31.656-31.023h41.334c17.185,0,31.656,14.2,31.656,31.023Zm123.913,0h-103.2V258.227c0-28.581-23.788-51.645-52.369-51.645H119.435c-28.581,0-52.369,23.064-52.369,51.645v10.311H46.444V82.669H192.426v47.666l54.087-27.044h69.825ZM213.138,20.622H337.05V82.578H241.629L213.047,96.869V20.622Z" transform="translate(-5.2)" fill="#fff" stroke="#707070" stroke-width="1"/>
    <path id="Path_361" data-name="Path 361" d="M246.5,45.7h20.622V66.322H246.5Z" transform="translate(-28.251 -4.366)" fill="#fff" stroke="#707070" stroke-width="1"/>
    <path id="Path_362" data-name="Path 362" d="M292.1,45.7h20.712V66.322H292.19V45.7Z" transform="translate(-32.607 -4.366)" fill="#fff" stroke="#707070" stroke-width="1"/>
    <path id="Path_363" data-name="Path 363" d="M337.8,45.7h20.622V66.322H337.8Z" transform="translate(-36.973 -4.366)" fill="#fff" stroke="#707070" stroke-width="1"/>
  </g>
  <g id="Group_415" data-name="Group 415" transform="translate(4.703)">
    <path id="Path_359-2" data-name="Path 359" d="M200.514,165.845A51.686,51.686,0,0,0,148.869,114.2c-28.581,0-52.369,23.064-52.369,51.645s23.788,51.645,52.369,51.645A51.745,51.745,0,0,0,200.514,165.845Zm-51.645,30.933c-17.185,0-31.656-14.2-31.656-31.023s14.472-31.023,31.656-31.023a31.023,31.023,0,1,1,0,62.047Z" transform="translate(-13.922 -10.909)" fill="#373f54"/>
    <path id="Path_360-2" data-name="Path 360" d="M192.426,61.956H25.822V268.538H5.2v31.023a31.074,31.074,0,0,0,31.023,31.023H326.83a31.074,31.074,0,0,0,31.023-31.023V268.538H337.231V103.291h20.622V0H192.426ZM337.05,299.47a10.306,10.306,0,0,1-10.311,10.311H36.133A10.306,10.306,0,0,1,25.822,299.47V289.159H337.05ZM192.426,268.538H87.778V258.227c0-16.823,14.472-31.023,31.656-31.023h41.334c17.185,0,31.656,14.2,31.656,31.023Zm123.913,0h-103.2V258.227c0-28.581-23.788-51.645-52.369-51.645H119.435c-28.581,0-52.369,23.064-52.369,51.645v10.311H46.444V82.669H192.426v47.666l54.087-27.044h69.825ZM213.138,20.622H337.05V82.578H241.629L213.047,96.869V20.622Z" transform="translate(-5.2)" fill="#373f54"/>
    <path id="Path_361-2" data-name="Path 361" d="M246.5,45.7h20.622V66.322H246.5Z" transform="translate(-28.251 -4.366)" fill="#373f54"/>
    <path id="Path_362-2" data-name="Path 362" d="M292.1,45.7h20.712V66.322H292.19V45.7Z" transform="translate(-32.607 -4.366)" fill="#373f54"/>
    <path id="Path_363-2" data-name="Path 363" d="M337.8,45.7h20.622V66.322H337.8Z" transform="translate(-36.973 -4.366)" fill="#373f54"/>
  </g>
  <circle id="Ellipse_107" data-name="Ellipse 107" cx="14.743" cy="14.743" r="14.743" transform="translate(0 13.477)" fill="#47eabf"/>
  <circle id="Ellipse_108" data-name="Ellipse 108" cx="8.231" cy="8.231" r="8.231" transform="translate(46.761 33.104)" fill="#47eabf"/>
  <circle id="Ellipse_109" data-name="Ellipse 109" cx="14.743" cy="14.743" r="14.743" transform="translate(194.1 351.025)" fill="#47eabf"/>
  <circle id="Ellipse_110" data-name="Ellipse 110" cx="8.231" cy="8.231" r="8.231" transform="translate(170.583 342.795)" fill="#47eabf"/>
  <circle id="Ellipse_111" data-name="Ellipse 111" cx="14.743" cy="14.743" r="14.743" transform="translate(351.025 191.838)" fill="#47eabf"/>
</svg>
