<svg id="mobile-top" xmlns="http://www.w3.org/2000/svg" width="356.35" height="355.636" viewBox="0 0 356.35 355.636">
  <path id="Path_309" data-name="Path 309" d="M282.152,266.133V117.293A23.619,23.619,0,0,0,258.559,93.7H134.593A23.619,23.619,0,0,0,111,117.293V325.116a23.619,23.619,0,0,0,23.593,23.593H258.559c22.178,0,23.593-23.593,23.593-23.593S283.77,269.5,282.152,266.133Z" transform="translate(-27.576 -30.537)" fill="#7e65ff" opacity="0.38"/>
  <path id="Path_522" data-name="Path 522" d="M293.451,223.866V53.927a26.956,26.956,0,0,0-26.964-26.964H124.927A26.956,26.956,0,0,0,97.964,53.927V291.208a26.956,26.956,0,0,0,26.964,26.964h141.56a26.956,26.956,0,0,0,26.964-26.964,13.482,13.482,0,1,1,26.964,0,54,54,0,0,1-53.928,53.927H124.927A54,54,0,0,1,71,291.208V53.927A54,54,0,0,1,124.927,0h141.56a54,54,0,0,1,53.928,53.927V223.866a13.482,13.482,0,0,1-26.964,0ZM182.225,283.861a13.482,13.482,0,1,0,13.482-13.482A13.522,13.522,0,0,0,182.225,283.861ZM209.189,74.892a13.482,13.482,0,0,0,0-26.964H182.225a13.482,13.482,0,1,0,0,26.964Zm47.187,165.827a13.521,13.521,0,0,0,13.482-13.482V145a13.482,13.482,0,0,0-26.964,0v68.758H229.412V118.034a13.482,13.482,0,0,0-26.964,0v95.721H188.966V171.961a13.482,13.482,0,0,0-26.964,0v41.794H148.521V145a13.482,13.482,0,1,0-26.964,0v82.239a13.522,13.522,0,0,0,13.482,13.482Z" transform="translate(-4.54 10)" fill="#fff" stroke="#707070" stroke-width="1"/>
  <path id="Path_310" data-name="Path 310" d="M293.451,223.866V53.927a26.956,26.956,0,0,0-26.964-26.964H124.927A26.956,26.956,0,0,0,97.964,53.927V291.208a26.956,26.956,0,0,0,26.964,26.964h141.56a26.956,26.956,0,0,0,26.964-26.964,13.482,13.482,0,1,1,26.964,0,54,54,0,0,1-53.928,53.927H124.927A54,54,0,0,1,71,291.208V53.927A54,54,0,0,1,124.927,0h141.56a54,54,0,0,1,53.928,53.927V223.866a13.482,13.482,0,0,1-26.964,0ZM182.225,283.861a13.482,13.482,0,1,0,13.482-13.482A13.522,13.522,0,0,0,182.225,283.861ZM209.189,74.892a13.482,13.482,0,0,0,0-26.964H182.225a13.482,13.482,0,1,0,0,26.964Zm47.187,165.827a13.521,13.521,0,0,0,13.482-13.482V145a13.482,13.482,0,0,0-26.964,0v68.758H229.412V118.034a13.482,13.482,0,0,0-26.964,0v95.721H188.966V171.961a13.482,13.482,0,0,0-26.964,0v41.794H148.521V145a13.482,13.482,0,1,0-26.964,0v82.239a13.522,13.522,0,0,0,13.482,13.482Z" transform="translate(-14.54 0)" fill="#373f54"/>
  <ellipse id="Ellipse_11" cx="17.931" cy="17.931" rx="17.931" ry="17.931" transform="translate(300.55 0)" fill="#7e65ff" opacity="0.38"/>
  <ellipse id="Ellipse_12" cx="6.808" cy="6.808" rx="6.808" ry="6.808" transform="translate(337.447 41.569) rotate(-34.002)" fill="#7e65ff" opacity="0.38"/>
  <ellipse id="Ellipse_13" cx="22.178" cy="22.178" rx="22.178" ry="22.178" transform="translate(0 316.967) rotate(-34.002)" fill="#7e65ff" opacity="0.38"/>
  <circle id="Ellipse_14" cx="8.426" cy="8.426" r="8.426" transform="translate(23.186 267.685) rotate(-34.002)" fill="#7e65ff" opacity="0.38"/>
</svg>
