<svg id="mvp-top" xmlns="http://www.w3.org/2000/svg" width="398" height="398" viewBox="0 0 398 398">
  <path id="Path_311" data-name="Path 311" d="M324.712,348.823c-.7,5.053-1.866,11.5-7,16.635-5.675,5.6-13.215,6.685-16.791,6.918H91.587A23.672,23.672,0,0,1,67.8,348.9V189.7H324.712V290.133C325.645,300.316,327.666,326.9,324.712,348.823Z" transform="translate(-15.096 -42.238)" fill="#ffd45e"/>
  <ellipse id="Ellipse_126" cx="17.723" cy="17.723" rx="17.723" ry="17.723" transform="translate(0 0)" fill="#ffd45e"/>
  <ellipse id="Ellipse_127" cx="17.723" cy="17.723" rx="17.723" ry="17.723" transform="translate(340.166 355.79)" fill="#ffd45e"/>
  <ellipse id="Ellipse_128" cx="7.152" cy="7.152" rx="7.152" ry="7.152" transform="translate(383.697 383.697)" fill="#ffd45e"/>
  <g id="Group_385" data-name="Group 385" transform="translate(10 10)">
    <path id="Path_312" data-name="Path 312" d="M339.04,53H73.655C51.19,53,33,71.034,33,93.111V315.12C33,344.581,57.331,368.6,87.181,368.6H325.514c29.85,0,54.181-24.02,54.181-53.481a13.527,13.527,0,0,0-27.051,0,26.906,26.906,0,0,1-27.052,26.741H87.181A26.906,26.906,0,0,1,60.129,315.12v-181.2H352.644V248.269a13.527,13.527,0,0,0,27.052,0V93.111C379.7,71.034,361.505,53,339.04,53Zm-54.8,26.741a13.371,13.371,0,1,1-13.526,13.37A13.453,13.453,0,0,1,284.238,79.741Zm67.707,13.37a13.527,13.527,0,1,1-13.526-13.37A13.453,13.453,0,0,1,351.944,93.111Zm-291.893,0a13.453,13.453,0,0,1,13.526-13.37H245.837a39.685,39.685,0,0,0,.233,27.44H60.052Z" transform="translate(-7.348 -11.801)" fill="#fff" stroke="#707070" stroke-width="1"/>
    <path id="Path_313" data-name="Path 313" d="M91.42,52.956,81.663-14h-22L45.875,18.2,32.212-14h-22L.36,52.956H22.742L26.5,19.2,42.064,52.956h7.652L65.3,19.15l3.929,33.806ZM135.515-14,125.082,21.487,114.567-14H88.455l26.4,66.956h20.374L161.627-14Zm62.364,0H166.123V52.956H188.41V36.886h9.469c15.113,0,26.017-10.617,26.017-25.539S212.992-14,197.879-14Zm-4.3,32.521H188.41V4.365h5.165a6.753,6.753,0,0,1,7.174,7.078A6.753,6.753,0,0,1,193.575,18.521Z" transform="translate(86.577 237.403)" fill="#fff" stroke="#707070" stroke-width="1"/>
  </g>
  <g id="Group_384" data-name="Group 384">
    <path id="Path_312-2" data-name="Path 312" d="M339.04,53H73.655C51.19,53,33,71.034,33,93.111V315.12C33,344.581,57.331,368.6,87.181,368.6H325.514c29.85,0,54.181-24.02,54.181-53.481a13.527,13.527,0,0,0-27.051,0,26.906,26.906,0,0,1-27.052,26.741H87.181A26.906,26.906,0,0,1,60.129,315.12v-181.2H352.644V248.269a13.527,13.527,0,0,0,27.052,0V93.111C379.7,71.034,361.505,53,339.04,53Zm-54.8,26.741a13.371,13.371,0,1,1-13.526,13.37A13.453,13.453,0,0,1,284.238,79.741Zm67.707,13.37a13.527,13.527,0,1,1-13.526-13.37A13.453,13.453,0,0,1,351.944,93.111Zm-291.893,0a13.453,13.453,0,0,1,13.526-13.37H245.837a39.685,39.685,0,0,0,.233,27.44H60.052Z" transform="translate(-7.348 -11.801)" fill="#373f54"/>
    <path id="Path_313-2" data-name="Path 313" d="M91.42,52.956,81.663-14h-22L45.875,18.2,32.212-14h-22L.36,52.956H22.742L26.5,19.2,42.064,52.956h7.652L65.3,19.15l3.929,33.806ZM135.515-14,125.082,21.487,114.567-14H88.455l26.4,66.956h20.374L161.627-14Zm62.364,0H166.123V52.956H188.41V36.886h9.469c15.113,0,26.017-10.617,26.017-25.539S212.992-14,197.879-14Zm-4.3,32.521H188.41V4.365h5.165a6.753,6.753,0,0,1,7.174,7.078A6.753,6.753,0,0,1,193.575,18.521Z" transform="translate(86.577 237.403)" fill="#373f54"/>
  </g>
</svg>
