<svg xmlns="http://www.w3.org/2000/svg" width="371.553" height="371.552" viewBox="0 0 371.553 371.552">
  <g id="odc" transform="translate(2.5 2.5)">
    <g id="Group_210" data-name="Group 210" transform="translate(72.567 180.336)">
      <g id="Group_209" data-name="Group 209">
        <path id="Path_366" data-name="Path 366" d="M102.7,227.48a7.165,7.165,0,0,0-4.96-2.08,6.833,6.833,0,0,0-4.96,2.08,7.165,7.165,0,0,0-2.08,4.96,6.833,6.833,0,0,0,2.08,4.96,7.315,7.315,0,0,0,4.96,2.08,6.833,6.833,0,0,0,4.96-2.08,7.165,7.165,0,0,0,2.08-4.96A6.833,6.833,0,0,0,102.7,227.48Z" transform="translate(-90.7 -225.4)"/>
      </g>
    </g>
    <g id="Group_212" data-name="Group 212" transform="translate(106.33 180.336)">
      <g id="Group_211" data-name="Group 211">
        <path id="Path_367" data-name="Path 367" d="M146.021,225.4h-6.081a7.041,7.041,0,1,0,0,14.081h6.081a7.041,7.041,0,0,0,0-14.081Z" transform="translate(-132.9 -225.4)"/>
      </g>
    </g>
    <g id="Group_214" data-name="Group 214" transform="translate(140.093 180.336)">
      <g id="Group_213" data-name="Group 213">
        <path id="Path_368" data-name="Path 368" d="M187.1,227.48a7.165,7.165,0,0,0-4.96-2.08,6.833,6.833,0,0,0-4.96,2.08,7.165,7.165,0,0,0-2.08,4.96,6.833,6.833,0,0,0,2.08,4.96,7.165,7.165,0,0,0,4.96,2.08,6.833,6.833,0,0,0,4.96-2.08,6.954,6.954,0,0,0,0-9.921Z" transform="translate(-175.1 -225.4)"/>
      </g>
    </g>
    <g id="Group_216" data-name="Group 216" transform="translate(173.776 180.336)">
      <g id="Group_215" data-name="Group 215">
        <path id="Path_369" data-name="Path 369" d="M229.2,227.48a7.165,7.165,0,0,0-4.96-2.08,6.833,6.833,0,0,0-4.96,2.08,7.165,7.165,0,0,0-2.08,4.96,6.833,6.833,0,0,0,2.08,4.96,7.165,7.165,0,0,0,4.96,2.08,6.833,6.833,0,0,0,4.96-2.08,7.165,7.165,0,0,0,2.08-4.96A6.833,6.833,0,0,0,229.2,227.48Z" transform="translate(-217.2 -225.4)"/>
      </g>
    </g>
    <g id="Group_218" data-name="Group 218" transform="translate(207.539 180.336)">
      <g id="Group_217" data-name="Group 217">
        <path id="Path_370" data-name="Path 370" d="M271.4,227.48a7.165,7.165,0,0,0-4.96-2.08,6.833,6.833,0,0,0-4.96,2.08,7.315,7.315,0,0,0-2.08,4.96,6.833,6.833,0,0,0,2.08,4.96,7.165,7.165,0,0,0,4.96,2.08,7.1,7.1,0,0,0,7.041-7.041A7.165,7.165,0,0,0,271.4,227.48Z" transform="translate(-259.4 -225.4)"/>
      </g>
    </g>
    <g id="Group_220" data-name="Group 220" transform="translate(241.222 180.336)">
      <g id="Group_219" data-name="Group 219">
        <path id="Path_371" data-name="Path 371" d="M313.581,227.48a7.357,7.357,0,0,0-5.04-2.08,6.833,6.833,0,0,0-4.96,2.08,7.165,7.165,0,0,0-2.08,4.96,6.833,6.833,0,0,0,2.08,4.96,7.315,7.315,0,0,0,4.96,2.08,7.1,7.1,0,0,0,7.121-7.041A7.536,7.536,0,0,0,313.581,227.48Z" transform="translate(-301.5 -225.4)"/>
      </g>
    </g>
    <g id="Group_222" data-name="Group 222" transform="translate(274.985 180.336)">
      <g id="Group_221" data-name="Group 221">
        <path id="Path_372" data-name="Path 372" d="M355.7,227.48a7.165,7.165,0,0,0-4.96-2.08,6.833,6.833,0,0,0-4.96,2.08,7.165,7.165,0,0,0-2.08,4.96,6.833,6.833,0,0,0,2.08,4.96,7.165,7.165,0,0,0,4.96,2.08,6.833,6.833,0,0,0,4.96-2.08,7.165,7.165,0,0,0,2.08-4.96A6.833,6.833,0,0,0,355.7,227.48Z" transform="translate(-343.7 -225.4)"/>
      </g>
    </g>
    <path id="Path_373" data-name="Path 373" d="M272.6,327.191H37.7a20.009,20.009,0,0,1-20-20V228.3a20.009,20.009,0,0,1,20-20H272.683a20.009,20.009,0,0,1,20,20v78.887A20.129,20.129,0,0,1,272.6,327.191Z" transform="translate(-3.539 -41.645)" fill="#aeaeff"/>
    <g id="Group_418" data-name="Group 418" transform="translate(7 7)">
      <g id="Group_224" data-name="Group 224" transform="translate(38.164 216.26)">
        <g id="Group_223" data-name="Group 223">
          <path id="Path_374" data-name="Path 374" d="M60.341,270.3h-5.6a7.041,7.041,0,1,0,0,14.081h5.6a7.041,7.041,0,1,0,0-14.081Z" transform="translate(-47.7 -270.3)" fill="#fff" stroke="#707070" stroke-width="1"/>
        </g>
      </g>
      <g id="Group_226" data-name="Group 226" transform="translate(77.527 216.26)">
        <g id="Group_225" data-name="Group 225">
          <path id="Path_375" data-name="Path 375" d="M109.541,270.3h-5.6a7.041,7.041,0,1,0,0,14.081h5.6a7.041,7.041,0,1,0,0-14.081Z" transform="translate(-96.9 -270.3)" fill="#fff" stroke="#707070" stroke-width="1"/>
        </g>
      </g>
      <g id="Group_228" data-name="Group 228" transform="translate(111.29 216.26)">
        <g id="Group_227" data-name="Group 227">
          <path id="Path_376" data-name="Path 376" d="M151.181,272.38a7.357,7.357,0,0,0-5.04-2.08,6.833,6.833,0,0,0-4.96,2.08,7.165,7.165,0,0,0-2.08,4.96,6.833,6.833,0,0,0,2.08,4.96,7.081,7.081,0,0,0,12.081-4.96A6.833,6.833,0,0,0,151.181,272.38Z" transform="translate(-139.1 -270.3)" fill="#fff" stroke="#707070" stroke-width="1"/>
        </g>
      </g>
      <g id="Group_230" data-name="Group 230" transform="translate(145.533 216.26)">
        <g id="Group_229" data-name="Group 229">
          <path id="Path_377" data-name="Path 377" d="M193.9,272.38a7.165,7.165,0,0,0-4.96-2.08,6.833,6.833,0,0,0-4.96,2.08,7.165,7.165,0,0,0-2.08,4.96,6.833,6.833,0,0,0,2.08,4.96,7.165,7.165,0,0,0,4.96,2.08,6.833,6.833,0,0,0,4.96-2.08,7.165,7.165,0,0,0,2.08-4.96A6.833,6.833,0,0,0,193.9,272.38Z" transform="translate(-181.9 -270.3)" fill="#fff" stroke="#707070" stroke-width="1"/>
        </g>
      </g>
      <g id="Group_232" data-name="Group 232" transform="translate(78.487 250.262)">
        <g id="Group_231" data-name="Group 231">
          <path id="Path_378" data-name="Path 378" d="M110.1,314.88a7.165,7.165,0,0,0-4.96-2.08,6.832,6.832,0,0,0-4.96,2.08,7.165,7.165,0,0,0-2.08,4.96,6.833,6.833,0,0,0,2.08,4.96,7.165,7.165,0,0,0,4.96,2.08,6.833,6.833,0,0,0,4.96-2.08,6.954,6.954,0,0,0,0-9.921Z" transform="translate(-98.1 -312.8)" fill="#fff" stroke="#707070" stroke-width="1"/>
        </g>
      </g>
      <g id="Group_234" data-name="Group 234" transform="translate(112.57 250.262)">
        <g id="Group_233" data-name="Group 233">
          <path id="Path_379" data-name="Path 379" d="M152.781,314.88a7.356,7.356,0,0,0-5.04-2.08,6.832,6.832,0,0,0-4.96,2.08,7.165,7.165,0,0,0-2.08,4.96,6.833,6.833,0,0,0,2.08,4.96,7.081,7.081,0,0,0,12.081-4.96A6.833,6.833,0,0,0,152.781,314.88Z" transform="translate(-140.7 -312.8)" fill="#fff" stroke="#707070" stroke-width="1"/>
        </g>
      </g>
      <g id="Group_236" data-name="Group 236" transform="translate(187.857 216.26)">
        <g id="Group_235" data-name="Group 235">
          <path id="Path_380" data-name="Path 380" d="M256,270.3H241.841a7.041,7.041,0,1,0,0,14.081H256a7.051,7.051,0,0,0,7.041-7.041A6.95,6.95,0,0,0,256,270.3Z" transform="translate(-234.8 -270.3)" fill="#fff" stroke="#707070" stroke-width="1"/>
        </g>
      </g>
      <g id="Group_238" data-name="Group 238" transform="translate(150.894 250.262)">
        <g id="Group_237" data-name="Group 237">
          <path id="Path_381" data-name="Path 381" d="M234.044,312.8h-38.4a7.041,7.041,0,1,0,0,14.081h38.4a7.041,7.041,0,1,0,0-14.081Z" transform="translate(-188.6 -312.8)" fill="#fff" stroke="#707070" stroke-width="1"/>
        </g>
      </g>
      <g id="Group_240" data-name="Group 240" transform="translate(303.708 216.26)">
        <g id="Group_239" data-name="Group 239">
          <path id="Path_382" data-name="Path 382" d="M392.321,270.3h-5.681a7.041,7.041,0,1,0,0,14.081h5.681a7.041,7.041,0,1,0,0-14.081Z" transform="translate(-379.6 -270.3)" fill="#fff" stroke="#707070" stroke-width="1"/>
        </g>
      </g>
      <g id="Group_242" data-name="Group 242" transform="translate(136.332 38.163)">
        <g id="Group_241" data-name="Group 241">
          <path id="Path_383" data-name="Path 383" d="M182.4,49.78a7.165,7.165,0,0,0-4.96-2.08,6.833,6.833,0,0,0-4.96,2.08,7.165,7.165,0,0,0-2.08,4.96,6.833,6.833,0,0,0,2.08,4.96,7.165,7.165,0,0,0,4.96,2.08,6.833,6.833,0,0,0,4.96-2.08,7.165,7.165,0,0,0,2.08-4.96A6.833,6.833,0,0,0,182.4,49.78Z" transform="translate(-170.4 -47.7)" fill="#fff" stroke="#707070" stroke-width="1"/>
        </g>
      </g>
      <g id="Group_244" data-name="Group 244" transform="translate(0 38.163)">
        <g id="Group_243" data-name="Group 243">
          <path id="Path_384" data-name="Path 384" d="M323.629,147.229H187.857c0-.24.08-.48.08-.72v-28.4a11.063,11.063,0,0,1,11.041-11.041h27.6a29.683,29.683,0,1,0,0-59.365H170.255a7.041,7.041,0,1,0,0,14.081H226.58a15.521,15.521,0,1,1,0,31.043h-27.6a25.2,25.2,0,0,0-25.2,25.2v28.4a2.215,2.215,0,0,0,.08.72H38A38.365,38.365,0,0,0,0,185.472V269.56a38.038,38.038,0,0,0,38,38H172.1a7.041,7.041,0,1,0,0-14.081H38A23.85,23.85,0,0,1,14.161,269.64V185.472A24.005,24.005,0,0,1,38,161.39H323.629a23.954,23.954,0,0,1,23.842,24.082V269.56a24.008,24.008,0,0,1-16.962,22.882V282.121a19.8,19.8,0,0,0-19.762-19.762,20.3,20.3,0,0,0-6.641,1.12,19.778,19.778,0,0,0-18.8-13.6,22.132,22.132,0,0,0-5.681.8v-5.12a19.762,19.762,0,0,0-39.524,0v5.12a18.756,18.756,0,0,0-5.681-.8,19.8,19.8,0,0,0-19.762,19.762v17.042a32.551,32.551,0,0,0-18.242-5.6,7.051,7.051,0,0,0-7.041,7.041v48.644a51.178,51.178,0,0,0,11.041,31.683,6.929,6.929,0,0,0,5.52,2.64,7.037,7.037,0,0,0,5.52-11.441,37.244,37.244,0,0,1-8-22.962V296.522a18.532,18.532,0,0,1,11.2,14.721v4.4a7.051,7.051,0,0,0,7.041,7.041h.16a7.051,7.051,0,0,0,7.041-7.041v-2.08c0-1.04-.08-2.08-.16-3.12v-40.8a5.681,5.681,0,0,1,11.361,0v46a7.041,7.041,0,0,0,14.081,0V245.558a5.681,5.681,0,0,1,11.361,0v70.086a7.041,7.041,0,0,0,14.081,0v-46a5.681,5.681,0,1,1,11.361,0v46a7.041,7.041,0,0,0,14.081,0v-33.6a5.681,5.681,0,0,1,11.361,0v82.007a7.041,7.041,0,0,0,14.081,0V306.923a38.043,38.043,0,0,0,31.043-37.363V185.472A38.072,38.072,0,0,0,323.629,147.229Z" transform="translate(0 -47.7)" fill="#fff" stroke="#707070" stroke-width="1"/>
        </g>
      </g>
      <g id="Group_246" data-name="Group 246">
        <g id="Group_245" data-name="Group 245">
          <path id="Path_385" data-name="Path 385" d="M117.211,0H7.041A7.1,7.1,0,0,0,0,7.041v112.97a7.051,7.051,0,0,0,7.041,7.041h110.17a7.051,7.051,0,0,0,7.041-7.041V7.041A7,7,0,0,0,117.211,0ZM110.17,112.97H14.161V14.161H110.25V112.97Z" fill="#fff" stroke="#707070" stroke-width="1"/>
        </g>
      </g>
      <g id="Group_248" data-name="Group 248" transform="translate(31.603 84.728)">
        <g id="Group_247" data-name="Group 247">
          <path id="Path_386" data-name="Path 386" d="M93.585,105.9H46.541a7.041,7.041,0,0,0,0,14.081H93.585a7.041,7.041,0,0,0,0-14.081Z" transform="translate(-39.5 -105.9)" fill="#fff" stroke="#707070" stroke-width="1"/>
        </g>
      </g>
      <g id="Group_250" data-name="Group 250" transform="translate(31.603 56.485)">
        <g id="Group_249" data-name="Group 249">
          <path id="Path_387" data-name="Path 387" d="M93.585,70.6H46.541a7.041,7.041,0,0,0,0,14.081H93.585a7.041,7.041,0,1,0,0-14.081Z" transform="translate(-39.5 -70.6)" fill="#fff" stroke="#707070" stroke-width="1"/>
        </g>
      </g>
      <g id="Group_252" data-name="Group 252" transform="translate(31.603 28.242)">
        <g id="Group_251" data-name="Group 251">
          <path id="Path_388" data-name="Path 388" d="M93.585,35.3H46.541a7.041,7.041,0,1,0,0,14.081H93.585a7.041,7.041,0,1,0,0-14.081Z" transform="translate(-39.5 -35.3)" fill="#fff" stroke="#707070" stroke-width="1"/>
        </g>
      </g>
    </g>
    <g id="Group_417" data-name="Group 417">
      <g id="Group_224-2" data-name="Group 224" transform="translate(38.164 216.26)">
        <g id="Group_223-2" data-name="Group 223">
          <path id="Path_374-2" data-name="Path 374" d="M60.341,270.3h-5.6a7.041,7.041,0,1,0,0,14.081h5.6a7.041,7.041,0,1,0,0-14.081Z" transform="translate(-47.7 -270.3)" fill="#373f54" stroke="#373f54" stroke-width="5"/>
        </g>
      </g>
      <g id="Group_226-2" data-name="Group 226" transform="translate(77.527 216.26)">
        <g id="Group_225-2" data-name="Group 225">
          <path id="Path_375-2" data-name="Path 375" d="M109.541,270.3h-5.6a7.041,7.041,0,1,0,0,14.081h5.6a7.041,7.041,0,1,0,0-14.081Z" transform="translate(-96.9 -270.3)" fill="#373f54" stroke="#373f54" stroke-width="5"/>
        </g>
      </g>
      <g id="Group_228-2" data-name="Group 228" transform="translate(111.29 216.26)">
        <g id="Group_227-2" data-name="Group 227">
          <path id="Path_376-2" data-name="Path 376" d="M151.181,272.38a7.357,7.357,0,0,0-5.04-2.08,6.833,6.833,0,0,0-4.96,2.08,7.165,7.165,0,0,0-2.08,4.96,6.833,6.833,0,0,0,2.08,4.96,7.081,7.081,0,0,0,12.081-4.96A6.833,6.833,0,0,0,151.181,272.38Z" transform="translate(-139.1 -270.3)" fill="#373f54" stroke="#373f54" stroke-width="5"/>
        </g>
      </g>
      <g id="Group_230-2" data-name="Group 230" transform="translate(145.533 216.26)">
        <g id="Group_229-2" data-name="Group 229">
          <path id="Path_377-2" data-name="Path 377" d="M193.9,272.38a7.165,7.165,0,0,0-4.96-2.08,6.833,6.833,0,0,0-4.96,2.08,7.165,7.165,0,0,0-2.08,4.96,6.833,6.833,0,0,0,2.08,4.96,7.165,7.165,0,0,0,4.96,2.08,6.833,6.833,0,0,0,4.96-2.08,7.165,7.165,0,0,0,2.08-4.96A6.833,6.833,0,0,0,193.9,272.38Z" transform="translate(-181.9 -270.3)" fill="#373f54" stroke="#373f54" stroke-width="5"/>
        </g>
      </g>
      <g id="Group_232-2" data-name="Group 232" transform="translate(78.487 250.262)">
        <g id="Group_231-2" data-name="Group 231">
          <path id="Path_378-2" data-name="Path 378" d="M110.1,314.88a7.165,7.165,0,0,0-4.96-2.08,6.832,6.832,0,0,0-4.96,2.08,7.165,7.165,0,0,0-2.08,4.96,6.833,6.833,0,0,0,2.08,4.96,7.165,7.165,0,0,0,4.96,2.08,6.833,6.833,0,0,0,4.96-2.08,6.954,6.954,0,0,0,0-9.921Z" transform="translate(-98.1 -312.8)" fill="#373f54" stroke="#373f54" stroke-width="5"/>
        </g>
      </g>
      <g id="Group_234-2" data-name="Group 234" transform="translate(112.57 250.262)">
        <g id="Group_233-2" data-name="Group 233">
          <path id="Path_379-2" data-name="Path 379" d="M152.781,314.88a7.356,7.356,0,0,0-5.04-2.08,6.832,6.832,0,0,0-4.96,2.08,7.165,7.165,0,0,0-2.08,4.96,6.833,6.833,0,0,0,2.08,4.96,7.081,7.081,0,0,0,12.081-4.96A6.833,6.833,0,0,0,152.781,314.88Z" transform="translate(-140.7 -312.8)" fill="#373f54" stroke="#373f54" stroke-width="5"/>
        </g>
      </g>
      <g id="Group_236-2" data-name="Group 236" transform="translate(187.857 216.26)">
        <g id="Group_235-2" data-name="Group 235">
          <path id="Path_380-2" data-name="Path 380" d="M256,270.3H241.841a7.041,7.041,0,1,0,0,14.081H256a7.051,7.051,0,0,0,7.041-7.041A6.95,6.95,0,0,0,256,270.3Z" transform="translate(-234.8 -270.3)" fill="#373f54" stroke="#373f54" stroke-width="5"/>
        </g>
      </g>
      <g id="Group_238-2" data-name="Group 238" transform="translate(150.894 250.262)">
        <g id="Group_237-2" data-name="Group 237">
          <path id="Path_381-2" data-name="Path 381" d="M234.044,312.8h-38.4a7.041,7.041,0,1,0,0,14.081h38.4a7.041,7.041,0,1,0,0-14.081Z" transform="translate(-188.6 -312.8)" fill="#373f54" stroke="#373f54" stroke-width="5"/>
        </g>
      </g>
      <g id="Group_240-2" data-name="Group 240" transform="translate(303.708 216.26)">
        <g id="Group_239-2" data-name="Group 239">
          <path id="Path_382-2" data-name="Path 382" d="M392.321,270.3h-5.681a7.041,7.041,0,1,0,0,14.081h5.681a7.041,7.041,0,1,0,0-14.081Z" transform="translate(-379.6 -270.3)" fill="#373f54" stroke="#373f54" stroke-width="5"/>
        </g>
      </g>
      <g id="Group_242-2" data-name="Group 242" transform="translate(136.332 38.163)">
        <g id="Group_241-2" data-name="Group 241">
          <path id="Path_383-2" data-name="Path 383" d="M182.4,49.78a7.165,7.165,0,0,0-4.96-2.08,6.833,6.833,0,0,0-4.96,2.08,7.165,7.165,0,0,0-2.08,4.96,6.833,6.833,0,0,0,2.08,4.96,7.165,7.165,0,0,0,4.96,2.08,6.833,6.833,0,0,0,4.96-2.08,7.165,7.165,0,0,0,2.08-4.96A6.833,6.833,0,0,0,182.4,49.78Z" transform="translate(-170.4 -47.7)" fill="#373f54" stroke="#373f54" stroke-width="5"/>
        </g>
      </g>
      <g id="Group_244-2" data-name="Group 244" transform="translate(0 38.163)">
        <g id="Group_243-2" data-name="Group 243">
          <path id="Path_384-2" data-name="Path 384" d="M323.629,147.229H187.857c0-.24.08-.48.08-.72v-28.4a11.063,11.063,0,0,1,11.041-11.041h27.6a29.683,29.683,0,1,0,0-59.365H170.255a7.041,7.041,0,1,0,0,14.081H226.58a15.521,15.521,0,1,1,0,31.043h-27.6a25.2,25.2,0,0,0-25.2,25.2v28.4a2.215,2.215,0,0,0,.08.72H38A38.365,38.365,0,0,0,0,185.472V269.56a38.038,38.038,0,0,0,38,38H172.1a7.041,7.041,0,1,0,0-14.081H38A23.85,23.85,0,0,1,14.161,269.64V185.472A24.005,24.005,0,0,1,38,161.39H323.629a23.954,23.954,0,0,1,23.842,24.082V269.56a24.008,24.008,0,0,1-16.962,22.882V282.121a19.8,19.8,0,0,0-19.762-19.762,20.3,20.3,0,0,0-6.641,1.12,19.778,19.778,0,0,0-18.8-13.6,22.132,22.132,0,0,0-5.681.8v-5.12a19.762,19.762,0,0,0-39.524,0v5.12a18.756,18.756,0,0,0-5.681-.8,19.8,19.8,0,0,0-19.762,19.762v17.042a32.551,32.551,0,0,0-18.242-5.6,7.051,7.051,0,0,0-7.041,7.041v48.644a51.178,51.178,0,0,0,11.041,31.683,6.929,6.929,0,0,0,5.52,2.64,7.037,7.037,0,0,0,5.52-11.441,37.244,37.244,0,0,1-8-22.962V296.522a18.532,18.532,0,0,1,11.2,14.721v4.4a7.051,7.051,0,0,0,7.041,7.041h.16a7.051,7.051,0,0,0,7.041-7.041v-2.08c0-1.04-.08-2.08-.16-3.12v-40.8a5.681,5.681,0,0,1,11.361,0v46a7.041,7.041,0,0,0,14.081,0V245.558a5.681,5.681,0,0,1,11.361,0v70.086a7.041,7.041,0,0,0,14.081,0v-46a5.681,5.681,0,1,1,11.361,0v46a7.041,7.041,0,0,0,14.081,0v-33.6a5.681,5.681,0,0,1,11.361,0v82.007a7.041,7.041,0,0,0,14.081,0V306.923a38.043,38.043,0,0,0,31.043-37.363V185.472A38.072,38.072,0,0,0,323.629,147.229Z" transform="translate(0 -47.7)" fill="#373f54" stroke="#373f54" stroke-width="5"/>
        </g>
      </g>
      <g id="Group_246-2" data-name="Group 246">
        <g id="Group_245-2" data-name="Group 245">
          <path id="Path_385-2" data-name="Path 385" d="M117.211,0H7.041A7.1,7.1,0,0,0,0,7.041v112.97a7.051,7.051,0,0,0,7.041,7.041h110.17a7.051,7.051,0,0,0,7.041-7.041V7.041A7,7,0,0,0,117.211,0ZM110.17,112.97H14.161V14.161H110.25V112.97Z" fill="#373f54" stroke="#373f54" stroke-width="5"/>
        </g>
      </g>
      <g id="Group_248-2" data-name="Group 248" transform="translate(31.603 84.728)">
        <g id="Group_247-2" data-name="Group 247">
          <path id="Path_386-2" data-name="Path 386" d="M93.585,105.9H46.541a7.041,7.041,0,0,0,0,14.081H93.585a7.041,7.041,0,0,0,0-14.081Z" transform="translate(-39.5 -105.9)" fill="#373f54" stroke="#373f54" stroke-width="5"/>
        </g>
      </g>
      <g id="Group_250-2" data-name="Group 250" transform="translate(31.603 56.485)">
        <g id="Group_249-2" data-name="Group 249">
          <path id="Path_387-2" data-name="Path 387" d="M93.585,70.6H46.541a7.041,7.041,0,0,0,0,14.081H93.585a7.041,7.041,0,1,0,0-14.081Z" transform="translate(-39.5 -70.6)" fill="#373f54" stroke="#373f54" stroke-width="5"/>
        </g>
      </g>
      <g id="Group_252-2" data-name="Group 252" transform="translate(31.603 28.242)">
        <g id="Group_251-2" data-name="Group 251">
          <path id="Path_388-2" data-name="Path 388" d="M93.585,35.3H46.541a7.041,7.041,0,1,0,0,14.081H93.585a7.041,7.041,0,1,0,0-14.081Z" transform="translate(-39.5 -35.3)" fill="#373f54" stroke="#373f54" stroke-width="5"/>
        </g>
      </g>
    </g>
    <circle id="Ellipse_117" data-name="Ellipse 117" cx="23.282" cy="23.282" r="23.282" transform="translate(303.707 45.204)" fill="#aeaeff"/>
    <circle id="Ellipse_118" data-name="Ellipse 118" cx="7.041" cy="7.041" r="7.041" transform="translate(289.066 91.848)" fill="#aeaeff"/>
    <circle id="Ellipse_119" data-name="Ellipse 119" cx="23.282" cy="23.282" r="23.282" transform="translate(2.88 315.388)" fill="#aeaeff"/>
    <circle id="Ellipse_120" data-name="Ellipse 120" cx="8.881" cy="8.881" r="8.881" transform="translate(55.685 316.589)" fill="#aeaeff"/>
  </g>
</svg>
