<svg id="Component_19_1" data-name="Component 19 – 1" xmlns="http://www.w3.org/2000/svg" width="373" height="597" viewBox="0 0 373 597">
  <rect id="Rectangle_91" data-name="Rectangle 91" width="373" height="597" transform="translate(0)" fill="#b8c4e7"/>
  <path id="Path_988" data-name="Path 988" d="M2095.6,1382.514v359.239h270.657a40.716,40.716,0,0,0-4.409-81.2H2351.41a40.388,40.388,0,1,1,0-80.776h4.813a41.99,41.99,0,1,0,0-83.98H2341.46a16.349,16.349,0,1,1,0-32.7h10.848a11.282,11.282,0,1,0,0-22.564h-66.327a17.729,17.729,0,1,1,0-35.458h17.144a11.282,11.282,0,1,0,0-22.564Zm225.148,11.282a11.3,11.3,0,1,0,11.3-11.282A11.285,11.285,0,0,0,2320.744,1393.8Z" transform="translate(-2095.596 -1259.926)" fill="#c5d2ef" fill-rule="evenodd"/>
  <g id="Group_430" data-name="Group 430" transform="translate(-2095.596 -1259.926)">
    <g id="Group_422" data-name="Group 422">
      <g id="Group_421" data-name="Group 421">
        <path id="Path_989" data-name="Path 989" d="M2253.186,1543.349a60.758,60.758,0,0,1-18.22,43.45,69.326,69.326,0,0,0-18.45,31.28l-4.65,17.21h-39.95l-2.11-7.82-2.8-10.35a69.221,69.221,0,0,0-17.9-30.75,60.924,60.924,0,0,1,28.8-102.24h.01a60.935,60.935,0,0,1,75.27,59.22Z" fill="#f9c67d"/>
        <path id="Path_990" data-name="Path 990" d="M2145.89,1560.12c11.741,34.635,21.733,40.595,23.916,67.249v.1l-2.8-10.35a69.221,69.221,0,0,0-17.9-30.75,60.924,60.924,0,0,1,28.8-102.24C2176.956,1484.729,2128.479,1508.756,2145.89,1560.12Z" opacity="0.1"/>
        <path id="Path_991" data-name="Path 991" d="M2201.473,1656.569H2182c-5.518,0-10.238-4.074-10.553-9.244l-1.644-19.956,44.108-.283-1.883,20.239C2211.712,1652.495,2206.991,1656.569,2201.473,1656.569Z" fill="#59595b"/>
      </g>
      <path id="Path_992" data-name="Path 992" d="M2209.943,1635.789c-12.321.527-24.686-.1-37.006.44a.842.842,0,0,0,.062,1.681c12.33.409,24.692-.355,37.023.037C2211.405,1637.991,2211.344,1635.729,2209.943,1635.789Z" fill="#808183"/>
      <path id="Path_993" data-name="Path 993" d="M2209.943,1641.141c-12.321.527-24.686-.1-37.006.44a.842.842,0,0,0,.062,1.681c12.33.409,24.692-.355,37.023.037C2211.405,1643.343,2211.344,1641.081,2209.943,1641.141Z" fill="#808183"/>
    </g>
    <g id="Group_423" data-name="Group 423">
      <path id="Path_994" data-name="Path 994" d="M2218.546,1555.927a15.69,15.69,0,0,1-4.589-5.417c2.21-2.729,3.184-6.4,3.588-9.808a61.122,61.122,0,0,0,.351-6.273c.033-2.022-.233-3.739-1.946-5-1.526-1.122-3.565-.109-4.737.98-1.352,1.256-2.006,3.314-2.528,5.027a22.555,22.555,0,0,0-.373,10.7,21.264,21.264,0,0,0,1.019,3.608,9.375,9.375,0,0,1-2.927,1.559c-3.33,1.065-5.857-.853-7.4-3.691-.253-.466-.493-.961-.72-1.475.262-.7.512-1.4.745-2.1a43.771,43.771,0,0,0,2.042-10.445c.235-2.935.318-6.441-2.5-8.18a1.859,1.859,0,0,0-2.5.655c-4.125,5.723-3.894,13.313-1.653,19.807a43.116,43.116,0,0,1-2.508,5.017c-1.034,1.781-3.009,4.529-5.4,4.18-2.23-.325-4.013-3.124-5.122-4.855a19.783,19.783,0,0,1-1.953-4.033q.424-1.117.789-2.262a41.492,41.492,0,0,0,1.732-9.254c.207-2.613.291-6.285-2.567-7.537a1.853,1.853,0,0,0-2.5.656,26.178,26.178,0,0,0-1.408,17.632c.054.2.117.4.176.6a38.726,38.726,0,0,1-7.57,11.973c-1.437,1.56.837,3.861,2.333,2.334a40.661,40.661,0,0,0,7.083-9.815,25.614,25.614,0,0,0,1.85,2.972c1.867,2.585,4.206,5.006,7.566,5.187,3.137.17,5.685-2.468,7.385-4.761a24.85,24.85,0,0,0,2.164-3.548,9.639,9.639,0,0,0,6.772,4.813,11.154,11.154,0,0,0,7.745-2,23.1,23.1,0,0,0,5.066,5.994A2.056,2.056,0,1,0,2218.546,1555.927Zm-20.988-25.414a22.9,22.9,0,0,1-.29,4.147,34.75,34.75,0,0,1-.8,4.8A16.746,16.746,0,0,1,2197.558,1530.513Zm14.236,9.182a17.369,17.369,0,0,1,1.02-4.437,9.091,9.091,0,0,1,.887-1.836,3.851,3.851,0,0,1,.287-.355,2.822,2.822,0,0,1,.07.441,31.535,31.535,0,0,1-1.261,11.212,11.23,11.23,0,0,1-.508,1.274A20.84,20.84,0,0,1,2211.794,1539.695Z" fill="#fff"/>
      <path id="Path_995" data-name="Path 995" d="M2222.012,1546.964c-6.48,19.776-13.3,39.452-20.627,58.931-.877,2.332,1.427,2.578,2.3.248,7.3-19.508,14.677-39.755,21.454-57.933C2225.888,1546.2,2222.691,1544.893,2222.012,1546.964Z" fill="#fff"/>
      <path id="Path_996" data-name="Path 996" d="M2163.081,1545.714c5.171,20.158,11.778,39.846,16.074,60.208.514,2.438,2.534,2.28,2.017-.154-4.334-20.373-9.2-40.617-14.786-60.684C2165.81,1543.014,2162.539,1543.6,2163.081,1545.714Z" fill="#fff"/>
    </g>
    <rect id="Rectangle_92" data-name="Rectangle 92" width="213.032" height="85.183" transform="translate(2143.212 1656.569)" fill="#9a8479"/>
    <g id="Group_429" data-name="Group 429">
      <g id="Group_428" data-name="Group 428">
        <g id="Group_427" data-name="Group 427">
          <path id="Path_997" data-name="Path 997" d="M2296.1,1545.18s5.755,8.516,9.037,26.419c2.875,15.679,5.4,21.467,9.548,24.683s27.281,12.709,27.281,12.709l-1.729,4.051s-33.9-4.617-37.711-10.283-18.326-39.143-17.2-46.853S2296.1,1545.18,2296.1,1545.18Z" fill="#fa997b"/>
          <g id="Group_424" data-name="Group 424">
            <path id="Path_998" data-name="Path 998" d="M2382.648,1737.672c.142,3.317,4.811,3.5,10.13,3.044s3.868.847,11.286,1.178,10.051-2.043,10.442-3.092c.35-.931-3.2-1.833-7-2.881-.478-.13-.956-.267-1.435-.4-4.278-1.229-7.033-4.544-10.635-7.475-3.413-2.776-7.621-12.574-7.621-12.574l-10.123-.769s4,8.789,5.491,12.571c.875,2.224.391,4.91-.083,6.968A13.043,13.043,0,0,0,2382.648,1737.672Z" fill="#ffa683"/>
            <path id="Path_999" data-name="Path 999" d="M2392.771,1741.65c5.319-.452,3.875-.087,11.293.244s10.051-2.043,10.442-3.092c.35-.931-3.2-1.833-7-2.881l-.048.068a20.8,20.8,0,0,1-10.949,1.616c-4.965-.652-9.984-2.888-13.409-3.366a20.892,20.892,0,0,0-.463,4.366C2382.783,1741.923,2387.452,1742.1,2392.771,1741.65Z" fill="#b74b42"/>
          </g>
          <path id="Path_1000" data-name="Path 1000" d="M2280.255,1614.465s65.975-4.965,78.4,2.874,36.328,109.128,36.328,109.128a24.768,24.768,0,0,1-5.33,1.989,42.82,42.82,0,0,1-7.377.644s-32.062-53.412-34.078-63.7-1.525-19.476-6.117-19.722-61.831,6.959-70.489-8.294-1.5-30.352-1.5-30.352Z" fill="#163560"/>
          <g id="Group_425" data-name="Group 425">
            <path id="Path_1001" data-name="Path 1001" d="M2354.857,1737.92c.238,3.312,4.91,3.356,10.214,2.75s3.891.734,11.315.85,9.988-2.333,10.349-3.393c.322-.941-3.252-1.74-7.076-2.678-.481-.116-.964-.238-1.446-.361-4.312-1.1-7.162-4.337-10.848-7.163-3.491-2.676-7.982-12.348-7.982-12.348l-10.141-.476s4.255,8.67,5.853,12.408c.94,2.2.534,4.9.12,6.967A12.963,12.963,0,0,0,2354.857,1737.92Z" fill="#ffa683"/>
            <path id="Path_1002" data-name="Path 1002" d="M2363.743,1741.524c5.3-.606,5.253.06,12.677.176s9.954-2.513,10.315-3.573c.322-.941-3.252-1.74-7.076-2.678l-.046.07a20.806,20.806,0,0,1-10.9,1.933c-4.982-.509-10.063-2.6-13.5-2.976a12.963,12.963,0,0,0-.358,3.444C2355.095,1741.232,2358.44,1742.13,2363.743,1741.524Z" fill="#c65447"/>
          </g>
          <path id="Path_1003" data-name="Path 1003" d="M2267.333,1618.554s58.608,2.774,70.715,11.09,29.95,98.307,29.95,98.307a8.1,8.1,0,0,1-4.022,1.126,68.856,68.856,0,0,1-9.137-.764s-27.5-40.692-29.111-51.055-.765-19.52-5.344-19.945-76.214,12.352-75.317-10.979C2246.191,1617.069,2267.333,1618.554,2267.333,1618.554Z" fill="#1c468a"/>
          <path id="Path_1004" data-name="Path 1004" d="M2288.425,1492.061c-19.7-10.088-35.179,15.319-35.214,22.033s-5.037,10.565-15.193,15.911c-19.984,10.518-7.152,29.828-.624,36.041.127.121-4.675,17.56,13.317,17.542,5.438-.006,21.312-34.25,34.887-41.922,3.477-4.45,2.936-3.172,1.8-1.176C2299.087,1531.088,2295.776,1495.826,2288.425,1492.061Z" fill="#404041"/>
          <path id="Path_1005" data-name="Path 1005" d="M2264.869,1535.37a66.041,66.041,0,0,1,10.916,0,35.1,35.1,0,0,1,9.473,2.377c5.165,2.159,4.623,11.305-6.216,9.611S2264.11,1538.082,2264.869,1535.37Z" fill="#f47f26"/>
          <path id="Path_1006" data-name="Path 1006" d="M2284.8,1542.039c.063.034,1.546,7.868-5.551,7.554-4.659-.205-14.707-5.843-13.819-9.832.421-1.9,3.942-6.815,4.65-18.044l.848.226,14.26,3.825s-.632,4.526-.927,8.81C2284.011,1538.174,2284,1541.6,2284.8,1542.039Z" fill="#fa997b"/>
          <path id="Path_1007" data-name="Path 1007" d="M2285.188,1525.768s-.632,4.526-.927,8.81c-8.072-.767-11.854-8.429-13.333-12.635Z" fill="#ef5d23"/>
          <path id="Path_1008" data-name="Path 1008" d="M2269.54,1520.271s-3.791-6.979-4.426-12.772c-.454-4.136,2.814-20.572,17.894-17.375a20.743,20.743,0,0,1,8.363,3.815c3.156,2.454,7.431,9.015,1.215,21.881l-1.684,4.374Z" fill="#404041"/>
          <path id="Path_1009" data-name="Path 1009" d="M2287.618,1530.005s-19.153-.96-18.371-12.878-1.165-20.07,11.1-19.961,14.337,4.813,15.044,8.854S2292.621,1529.948,2287.618,1530.005Z" fill="#fa997b"/>
          <path id="Path_1010" data-name="Path 1010" d="M2287.7,1500.746a7.484,7.484,0,0,1,6.48,4.574,13.454,13.454,0,0,1,.574,8.948s4.581-9.24.5-14.912C2290.938,1493.342,2287.7,1500.746,2287.7,1500.746Z" fill="#404041"/>
          <path id="Path_1011" data-name="Path 1011" d="M2309.649,1614.208c-1.55,1.854-9.256,3.676-14.428,4.526-4.071.672-8.347,1.515-11.387,3.3-6.9,4.054-29.462,17.754-36.074,17.13-2.563-.241-2.083-5.134-.531-11.627,2.444-10.253,7.56-24.492,7.56-30.684,0-3.379,1.125-11.375,2.626-20.518q.183-1.106.371-2.23c2.97-17.775,8.473-38.736,8.473-38.736s3.2,10.011,12.137,10.011,6.861-7.633,6.861-7.633,8.156.959,10.082,3.035,6.815,11.047,7.785,13.494c0,0,.2,3.114-7.511,4.595a101.117,101.117,0,0,1,2.1,14.085c.165,4.162-2.84,17.188-3.7,25.29-.306,2.869-.347,5.121.119,6.143.6,1.308,5.392,1.359,7.587,2.638C2306.073,1609.564,2311.489,1612.005,2309.649,1614.208Z" fill="#f47f26"/>
          <g id="Group_426" data-name="Group 426">
            <rect id="Rectangle_93" data-name="Rectangle 93" width="18.458" height="2.181" transform="translate(2308.839 1614.535)" fill="#6d6e70"/>
            <path id="Path_1012" data-name="Path 1012" d="M2323.377,1616.417c.181-.721,16.968-27.082,16.968-27.082H2377.7l-18.735,26.374Z" fill="#6d6e70"/>
            <path id="Path_1013" data-name="Path 1013" d="M2324.949,1616.716c.18-.722,17.022-27.381,17.022-27.381H2377.7l-17.824,27.381Z" fill="#808184"/>
          </g>
          <path id="Path_1014" data-name="Path 1014" d="M2314.32,1605.163c-1.048-.449-9.139,1.023-11.448,1.457-7.326-1.435-31.413-6.249-32.585-7.756-1.384-1.78-4.4-55.991-7.863-56.9,0,0-6.805-4.131-13.384,3.707s4.676,63.874,14.424,66.753c10.829,3.2,42.109-.512,42.109-.512h0c2.57.877,7.062,1.371,9.447,2.166,3.147,1.049,5.945.175,6.645-1.049S2315.544,1605.688,2314.32,1605.163Z" fill="#fa997b"/>
          <path id="Path_1015" data-name="Path 1015" d="M2265.375,1535.328s-9.366-1.391-16.913,9.246c-3.548,5-3.747,20.819-3.747,20.819s9.184,2.819,24.01-1.036Z" fill="#f47f26"/>
        </g>
      </g>
      <path id="Path_1016" data-name="Path 1016" d="M2269.223,1515.851s5.18-19.275,21.005-14.532c.14-3.2-5.51-7.868-12.17-7.338S2261.986,1509.279,2269.223,1515.851Z" fill="#404041"/>
      <ellipse id="Ellipse_52" data-name="Ellipse 52" cx="2.702" cy="3.589" rx="2.702" ry="3.589" transform="translate(2266.001 1512.529) rotate(-10.196)" fill="#fa997b"/>
      <path id="Path_1017" data-name="Path 1017" d="M2269.017,1516.246c.378.491.914.714,1.2.5s.209-.794-.169-1.288-.916-.712-1.2-.494S2268.638,1515.754,2269.017,1516.246Z" fill="#ef5d23"/>
    </g>
    <path id="Path_1018" data-name="Path 1018" d="M2265.493,1553.26s8.1,10.706,8.016,18.118c-.031,2.615-5.474,8.212-5.474,8.212Z" fill="#dd6e24"/>
  </g>
</svg>
