<svg xmlns="http://www.w3.org/2000/svg" width="401.884" height="340.034" viewBox="0 0 401.884 340.034">
  <g id="outsource" transform="translate(-6.1 -19.4)">
    <ellipse id="Ellipse_121" data-name="Ellipse 121" cx="110.817" cy="137.896" rx="110.817" ry="137.896" transform="translate(38.04 42.73)" fill="#afccff"/>
    <ellipse id="Ellipse_122" data-name="Ellipse 122" cx="32.217" cy="39.577" rx="32.217" ry="39.577" transform="translate(261.617 184.514)" fill="#afccff"/>
    <g id="Group_257" data-name="Group 257" transform="translate(36.652 29.539)">
      <g id="Group_253" data-name="Group 253">
        <path id="Path_389" data-name="Path 389" d="M239.478,261.408c.139-.555.278-1.111.417-1.528.417,0,.694.139,1.111.139l.278-.278a67.619,67.619,0,0,1-10.971-37.078A68.531,68.531,0,0,1,253.92,171h-5.832a391.052,391.052,0,0,0-4.444-50.965c22.219-3.611,42.077-9.165,58.047-16.386a141.475,141.475,0,0,1,20.969,54.853,68.586,68.586,0,0,1,20.414,11.943,159.869,159.869,0,0,0-29.44-83.043.485.485,0,0,0-.139-.278,8.649,8.649,0,0,0-1.944-2.5,161.162,161.162,0,0,0-258.85,0,11.973,11.973,0,0,0-1.944,2.5.485.485,0,0,1-.139.278,160.943,160.943,0,0,0,0,186.361.485.485,0,0,0,.139.278,8.139,8.139,0,0,0,1.805,2.361A160.536,160.536,0,0,0,209.2,339.313c0-.555-.139-1.25-.139-1.944C209.066,307.79,220.314,280.294,239.478,261.408Zm-14.859-22.774a420.013,420.013,0,0,0-42.494-2.222,383.106,383.106,0,0,0-42.494,2.222,364.744,364.744,0,0,1-4.444-48.465h93.875A392.094,392.094,0,0,1,224.619,238.634Zm-89.57-67.49a342.9,342.9,0,0,1,4.444-48.465,420.008,420.008,0,0,0,42.494,2.222,383.106,383.106,0,0,0,42.494-2.222,364.75,364.75,0,0,1,4.444,48.465ZM289.887,88.1C276,93.933,258.781,98.377,239.895,101.432a222.162,222.162,0,0,0-9.026-30.69C226.7,59.633,221.981,50.19,216.7,42.691A142.4,142.4,0,0,1,289.887,88.1Zm-107.9-48.6c14.3,0,29.718,25,38.883,64.435-12.5,1.25-25.552,1.944-38.883,1.944s-26.385-.694-38.883-1.944C152.269,64.493,167.683,39.5,181.987,39.5Zm-34.578,3.194c-5.277,7.5-10,16.942-14.165,28.051a236.556,236.556,0,0,0-9.026,30.69C105.193,98.377,88.112,93.794,74.225,88.1A141.287,141.287,0,0,1,147.409,42.691ZM62.421,103.654c16.109,7.221,35.967,12.776,58.047,16.386A372.126,372.126,0,0,0,116.024,171H40.2A142.626,142.626,0,0,1,62.421,103.654Zm0,153.866a141.292,141.292,0,0,1-22.358-67.49h75.961a391.058,391.058,0,0,0,4.444,50.965C98.388,244.744,78.53,250.3,62.421,257.52Zm11.665,15.553c13.887-5.832,31.106-10.276,49.992-13.331a222.17,222.17,0,0,0,9.026,30.69c4.166,11.109,8.888,20.552,14.165,28.051A142.4,142.4,0,0,1,74.086,273.073Zm107.9,48.6c-14.3,0-29.718-25-38.883-64.435,12.5-1.25,25.552-1.944,38.883-1.944s26.385.694,38.883,1.944C211.7,296.68,196.29,321.676,181.987,321.676Z" transform="translate(-20.9 -19.5)" fill="#fff" stroke="#707070" stroke-width="1"/>
      </g>
      <g id="Group_256" data-name="Group 256" transform="translate(198.859 147.2)">
        <g id="Group_254" data-name="Group 254" transform="translate(21.108)">
          <path id="Path_390" data-name="Path 390" d="M235.264,237.566A55.947,55.947,0,0,1,179.3,181.6a56.1,56.1,0,1,1,55.964,55.964Zm0-94.291a38.189,38.189,0,1,0,38.189,38.189A38.167,38.167,0,0,0,235.264,143.275Z" transform="translate(-179.3 -125.5)" fill="#fff" stroke="#707070" stroke-width="1"/>
        </g>
        <g id="Group_255" data-name="Group 255" transform="translate(0 89.53)">
          <path id="Path_391" data-name="Path 391" d="M307.134,282.636H175.348A11.29,11.29,0,0,1,164.1,271.388c0-33.745,16.942-65.129,43.188-79.988a11.406,11.406,0,0,1,13.748,2.083l20.275,21.108,20.275-21.108a11.377,11.377,0,0,1,13.748-2.083h0c26.246,14.859,43.188,46.243,43.188,79.988A11.411,11.411,0,0,1,307.134,282.636ZM182.153,264.722H300.329c-1.805-22.913-12.915-43.6-29.579-55.131l-29.44,30.829-29.44-30.829C195.068,221.118,183.958,241.809,182.153,264.722Z" transform="translate(-164.1 -189.971)" fill="#fff" stroke="#707070" stroke-width="1"/>
        </g>
      </g>
    </g>
    <g id="Group_414" data-name="Group 414" transform="translate(26.652 19.539)">
      <g id="Group_253-2" data-name="Group 253">
        <path id="Path_389-2" data-name="Path 389" d="M239.478,261.408c.139-.555.278-1.111.417-1.528.417,0,.694.139,1.111.139l.278-.278a67.619,67.619,0,0,1-10.971-37.078A68.531,68.531,0,0,1,253.92,171h-5.832a391.052,391.052,0,0,0-4.444-50.965c22.219-3.611,42.077-9.165,58.047-16.386a141.475,141.475,0,0,1,20.969,54.853,68.586,68.586,0,0,1,20.414,11.943,159.869,159.869,0,0,0-29.44-83.043.485.485,0,0,0-.139-.278,8.649,8.649,0,0,0-1.944-2.5,161.162,161.162,0,0,0-258.85,0,11.973,11.973,0,0,0-1.944,2.5.485.485,0,0,1-.139.278,160.943,160.943,0,0,0,0,186.361.485.485,0,0,0,.139.278,8.139,8.139,0,0,0,1.805,2.361A160.536,160.536,0,0,0,209.2,339.313c0-.555-.139-1.25-.139-1.944C209.066,307.79,220.314,280.294,239.478,261.408Zm-14.859-22.774a420.013,420.013,0,0,0-42.494-2.222,383.106,383.106,0,0,0-42.494,2.222,364.744,364.744,0,0,1-4.444-48.465h93.875A392.094,392.094,0,0,1,224.619,238.634Zm-89.57-67.49a342.9,342.9,0,0,1,4.444-48.465,420.008,420.008,0,0,0,42.494,2.222,383.106,383.106,0,0,0,42.494-2.222,364.75,364.75,0,0,1,4.444,48.465ZM289.887,88.1C276,93.933,258.781,98.377,239.895,101.432a222.162,222.162,0,0,0-9.026-30.69C226.7,59.633,221.981,50.19,216.7,42.691A142.4,142.4,0,0,1,289.887,88.1Zm-107.9-48.6c14.3,0,29.718,25,38.883,64.435-12.5,1.25-25.552,1.944-38.883,1.944s-26.385-.694-38.883-1.944C152.269,64.493,167.683,39.5,181.987,39.5Zm-34.578,3.194c-5.277,7.5-10,16.942-14.165,28.051a236.556,236.556,0,0,0-9.026,30.69C105.193,98.377,88.112,93.794,74.225,88.1A141.287,141.287,0,0,1,147.409,42.691ZM62.421,103.654c16.109,7.221,35.967,12.776,58.047,16.386A372.126,372.126,0,0,0,116.024,171H40.2A142.626,142.626,0,0,1,62.421,103.654Zm0,153.866a141.292,141.292,0,0,1-22.358-67.49h75.961a391.058,391.058,0,0,0,4.444,50.965C98.388,244.744,78.53,250.3,62.421,257.52Zm11.665,15.553c13.887-5.832,31.106-10.276,49.992-13.331a222.17,222.17,0,0,0,9.026,30.69c4.166,11.109,8.888,20.552,14.165,28.051A142.4,142.4,0,0,1,74.086,273.073Zm107.9,48.6c-14.3,0-29.718-25-38.883-64.435,12.5-1.25,25.552-1.944,38.883-1.944s26.385.694,38.883,1.944C211.7,296.68,196.29,321.676,181.987,321.676Z" transform="translate(-20.9 -19.5)" fill="#373f54"/>
      </g>
      <g id="Group_256-2" data-name="Group 256" transform="translate(198.859 147.2)">
        <g id="Group_254-2" data-name="Group 254" transform="translate(21.108)">
          <path id="Path_390-2" data-name="Path 390" d="M235.264,237.566A55.947,55.947,0,0,1,179.3,181.6a56.1,56.1,0,1,1,55.964,55.964Zm0-94.291a38.189,38.189,0,1,0,38.189,38.189A38.167,38.167,0,0,0,235.264,143.275Z" transform="translate(-179.3 -125.5)" fill="#373f54"/>
        </g>
        <g id="Group_255-2" data-name="Group 255" transform="translate(0 89.53)">
          <path id="Path_391-2" data-name="Path 391" d="M307.134,282.636H175.348A11.29,11.29,0,0,1,164.1,271.388c0-33.745,16.942-65.129,43.188-79.988a11.406,11.406,0,0,1,13.748,2.083l20.275,21.108,20.275-21.108a11.377,11.377,0,0,1,13.748-2.083h0c26.246,14.859,43.188,46.243,43.188,79.988A11.411,11.411,0,0,1,307.134,282.636ZM182.153,264.722H300.329c-1.805-22.913-12.915-43.6-29.579-55.131l-29.44,30.829-29.44-30.829C195.068,221.118,183.958,241.809,182.153,264.722Z" transform="translate(-164.1 -189.971)" fill="#373f54"/>
        </g>
      </g>
    </g>
    <circle id="Ellipse_123" data-name="Ellipse 123" cx="20.414" cy="20.414" r="20.414" transform="translate(367.156 130.355)" fill="#afccff"/>
    <circle id="Ellipse_124" data-name="Ellipse 124" cx="6.666" cy="6.666" r="6.666" transform="translate(355.075 171.183)" fill="#afccff"/>
    <circle id="Ellipse_125" data-name="Ellipse 125" cx="20.414" cy="20.414" r="20.414" transform="translate(31.652 19.4)" fill="#afccff"/>
    <circle id="Ellipse_126" data-name="Ellipse 126" cx="6.666" cy="6.666" r="6.666" transform="translate(6.1 26.066)" fill="#afccff"/>
    <circle id="Ellipse_127" data-name="Ellipse 127" cx="20.414" cy="20.414" r="20.414" transform="translate(31.652 289.081)" fill="#afccff"/>
    <circle id="Ellipse_128" data-name="Ellipse 128" cx="6.666" cy="6.666" r="6.666" transform="translate(73.173 335.047)" fill="#afccff"/>
  </g>
</svg>
