<svg id="payment-top" xmlns="http://www.w3.org/2000/svg" width="379.453" height="338.831" viewBox="0 0 379.453 338.831">
  <path id="Rectangle_8" data-name="Rectangle 8" d="M0,0H232a0,0,0,0,1,0,0V196a0,0,0,0,1,0,0H5a5,5,0,0,1-5-5V0A0,0,0,0,1,0,0Z" transform="translate(70.59 13.877)" fill="#f4a196"/>
  <g id="invoice" transform="translate(74.917 10)">
    <g id="Group_199" data-name="Group 199" transform="translate(85.858 51.516)">
      <g id="Group_198" data-name="Group 198">
        <path id="Path_344" data-name="Path 344" d="M242.118,142.152H228.38a10.987,10.987,0,0,1,0-21.974h27.475a9.619,9.619,0,0,0,0-19.238H244.867V89.953a9.619,9.619,0,1,0-19.238,0v11.118a30.223,30.223,0,0,0,2.751,60.32h13.738a10.987,10.987,0,1,1,0,21.974H214.642a9.619,9.619,0,1,0,0,19.238h10.987v10.987a9.619,9.619,0,0,0,19.238,0V202.471a30.222,30.222,0,0,0-2.749-60.32Z" transform="translate(-198.155 -80.334)" fill="#fff" stroke="#707070" stroke-width="1"/>
      </g>
    </g>
    <g id="Group_201" data-name="Group 201" transform="translate(61.818 226.668)">
      <g id="Group_200" data-name="Group 200">
        <path id="Path_345" data-name="Path 345" d="M273.316,353.467H170.286a9.619,9.619,0,0,0,0,19.238h103.03a9.619,9.619,0,0,0,0-19.238Z" transform="translate(-160.667 -353.467)" fill="#fff" stroke="#707070" stroke-width="1"/>
      </g>
    </g>
    <g id="Group_203" data-name="Group 203" transform="translate(0)">
      <g id="Group_202" data-name="Group 202">
        <path id="Path_346" data-name="Path 346" d="M300.553,0H73.886a9.619,9.619,0,0,0-9.619,9.619V290.377a9.621,9.621,0,0,0,2.818,6.8l28.334,28.334a9.619,9.619,0,0,0,13.6,0l21.532-21.532,21.531,21.532a9.619,9.619,0,0,0,13.6,0l21.531-21.532,21.532,21.532a9.618,9.618,0,0,0,13.6,0l21.531-21.532,21.532,21.532a9.618,9.618,0,0,0,13.6,0l28.334-28.334a9.62,9.62,0,0,0,2.818-6.8V9.619A9.62,9.62,0,0,0,300.553,0ZM272.219,305.108l-21.532-21.532a9.618,9.618,0,0,0-13.6,0l-21.531,21.532L194.02,283.576a9.619,9.619,0,0,0-13.6,0l-21.532,21.532-21.531-21.532a9.618,9.618,0,0,0-13.6,0l-21.532,21.532L83.5,286.393V19.238h207.43V286.393h0Z" transform="translate(-64.267)" fill="#fff" stroke="#707070" stroke-width="1"/>
      </g>
    </g>
  </g>
  <g id="invoice-2" data-name="invoice" transform="translate(64.917 0)">
    <g id="Group_199-2" data-name="Group 199" transform="translate(85.858 51.516)">
      <g id="Group_198-2" data-name="Group 198">
        <path id="Path_344-2" data-name="Path 344" d="M242.118,142.152H228.38a10.987,10.987,0,0,1,0-21.974h27.475a9.619,9.619,0,0,0,0-19.238H244.867V89.953a9.619,9.619,0,1,0-19.238,0v11.118a30.223,30.223,0,0,0,2.751,60.32h13.738a10.987,10.987,0,1,1,0,21.974H214.642a9.619,9.619,0,1,0,0,19.238h10.987v10.987a9.619,9.619,0,0,0,19.238,0V202.471a30.222,30.222,0,0,0-2.749-60.32Z" transform="translate(-198.155 -80.334)" fill="#373f54"/>
      </g>
    </g>
    <g id="Group_201-2" data-name="Group 201" transform="translate(61.818 226.668)">
      <g id="Group_200-2" data-name="Group 200">
        <path id="Path_345-2" data-name="Path 345" d="M273.316,353.467H170.286a9.619,9.619,0,0,0,0,19.238h103.03a9.619,9.619,0,0,0,0-19.238Z" transform="translate(-160.667 -353.467)" fill="#373f54"/>
      </g>
    </g>
    <g id="Group_203-2" data-name="Group 203" transform="translate(0)">
      <g id="Group_202-2" data-name="Group 202">
        <path id="Path_346-2" data-name="Path 346" d="M300.553,0H73.886a9.619,9.619,0,0,0-9.619,9.619V290.377a9.621,9.621,0,0,0,2.818,6.8l28.334,28.334a9.619,9.619,0,0,0,13.6,0l21.532-21.532,21.531,21.532a9.619,9.619,0,0,0,13.6,0l21.531-21.532,21.532,21.532a9.618,9.618,0,0,0,13.6,0l21.531-21.532,21.532,21.532a9.618,9.618,0,0,0,13.6,0l28.334-28.334a9.62,9.62,0,0,0,2.818-6.8V9.619A9.62,9.62,0,0,0,300.553,0ZM272.219,305.108l-21.532-21.532a9.618,9.618,0,0,0-13.6,0l-21.531,21.532L194.02,283.576a9.619,9.619,0,0,0-13.6,0l-21.532,21.532-21.531-21.532a9.618,9.618,0,0,0-13.6,0l-21.532,21.532L83.5,286.393V19.238h207.43V286.393h0Z" transform="translate(-64.267)" fill="#373f54"/>
      </g>
    </g>
  </g>
  <ellipse id="Ellipse_127" cx="20.041" cy="20.041" rx="20.041" ry="20.041" transform="translate(0 88.262)" fill="#f4a196"/>
  <ellipse id="Ellipse_127-2" data-name="Ellipse_127" cx="20.041" cy="20.042" rx="20.041" ry="20.042" transform="translate(339.371 202.464)" fill="#f4a196"/>
  <ellipse id="Ellipse_128" cx="8.087" cy="8.087" rx="8.087" ry="8.087" transform="translate(49.225 119.82)" fill="#f4a196"/>
  <ellipse id="Ellipse_128-2" data-name="Ellipse_128" cx="8.087" cy="8.087" rx="8.087" ry="8.087" transform="translate(314.056 234.022)" fill="#f4a196"/>
</svg>
