<svg id="Component_119_1" data-name="Component 119 – 1" xmlns="http://www.w3.org/2000/svg" width="392.38" height="392.378" viewBox="0 0 392.38 392.378">
  <path id="Path_311" data-name="Path 311" d="M877.3,289.764c-.69,4.981-1.839,11.342-6.9,16.4-5.6,5.518-13.028,6.591-16.554,6.821H647.47a23.338,23.338,0,0,1-23.451-23.144V132.89H877.3S880.219,268.153,877.3,289.764Z" transform="translate(-572.059 12.489)" fill="#ffd45e"/>
  <path id="Path_1976" data-name="Path 1976" d="M905.067,33.128H643.43c-22.148,0-40.081,17.78-40.081,39.544V291.545c0,29.045,23.987,52.726,53.416,52.726H891.732c29.428,0,53.416-23.681,53.416-52.726a13.336,13.336,0,0,0-26.669,0,26.525,26.525,0,0,1-26.67,26.363H656.765a26.526,26.526,0,0,1-26.67-26.363V112.906H918.478V225.638a13.336,13.336,0,0,0,26.67,0V72.672C945.149,50.908,927.215,33.128,905.067,33.128ZM851.038,59.491A13.182,13.182,0,1,1,837.7,72.672,13.181,13.181,0,0,1,851.038,59.491Zm66.75,13.181a13.336,13.336,0,1,1-13.49-13.18h.151a13.263,13.263,0,0,1,13.34,13.181Zm-287.77,0a13.262,13.262,0,0,1,13.331-13.181H813.18a39.125,39.125,0,0,0,.23,27.053H630.018Z" transform="translate(-572.059 12.489)" fill="#fff" stroke="#707070" stroke-width="1"/>
  <path id="Path_312" data-name="Path 312" d="M899.067,28.128H637.43c-22.148,0-40.081,17.78-40.081,39.544V286.545c0,29.045,23.987,52.726,53.416,52.726H885.732c29.428,0,53.416-23.681,53.416-52.726a13.336,13.336,0,0,0-26.669,0,26.525,26.525,0,0,1-26.67,26.363H650.765a26.526,26.526,0,0,1-26.67-26.363V107.906H912.478V220.638a13.336,13.336,0,0,0,26.67,0V67.672C939.149,45.908,921.215,28.128,899.067,28.128ZM845.038,54.491A13.182,13.182,0,1,1,831.7,67.672,13.181,13.181,0,0,1,845.038,54.491Zm66.75,13.181a13.336,13.336,0,1,1-13.49-13.18h.151a13.263,13.263,0,0,1,13.34,13.181Zm-287.77,0a13.262,13.262,0,0,1,13.331-13.181H807.18a39.125,39.125,0,0,0,.23,27.053H624.018Z" transform="translate(-572.059 12.489)" fill="#373f54"/>
  <circle id="Ellipse_126" data-name="Ellipse 126" cx="17.473" cy="17.473" r="17.473" fill="#ffd45e"/>
  <circle id="Ellipse_127" data-name="Ellipse 127" cx="17.473" cy="17.473" r="17.473" transform="translate(335.362 350.764)" fill="#ffd45e"/>
  <circle id="Ellipse_128" data-name="Ellipse 128" cx="7.051" cy="7.051" r="7.051" transform="translate(378.278 378.276)" fill="#ffd45e"/>
  <path id="Path_7753" data-name="Path 7753" d="M671.4,294.307a5.568,5.568,0,0,0,7.879,0l38.033-38.033a53.03,53.03,0,1,0-7.88-7.879L671.4,286.427A5.567,5.567,0,0,0,671.4,294.307Zm37.375-79.17a41.794,41.794,0,1,1,41.794,41.8A41.838,41.838,0,0,1,708.773,215.137Z" transform="translate(-572.059 12.489)" fill="#fff" stroke="#707070" stroke-width="1"/>
  <path id="Path_7754" data-name="Path 7754" d="M667.2,287.6a5.57,5.57,0,0,0,7.88,0l38.033-38.033a53.038,53.038,0,1,0-7.88-7.88L667.2,279.715A5.568,5.568,0,0,0,667.2,287.6Zm37.376-79.17a41.794,41.794,0,1,1,41.794,41.795A41.838,41.838,0,0,1,704.578,208.425Z" transform="translate(-572.059 12.489)" fill="#373f54" stroke="#373f54" stroke-miterlimit="10" stroke-width="6"/>
  <g id="Group_4835" data-name="Group 4835" transform="translate(-572.059 12.489)">
    <path id="Path_7755" data-name="Path 7755" d="M744.316,236.072c11.348,0,18.1-5.4,18.1-14.6,0-9.877-8.159-12.024-14.231-13.618-3.62-.981-6.5-1.719-6.5-3.8,0-1.227.86-1.963,2.331-1.963,1.534,0,2.393.92,2.393,2.579h14.477c0-8.772-6.257-13.986-16.87-13.986-10.8,0-17.114,5.092-17.114,13.618,0,10.305,7.852,12.207,13.74,13.679,3.558.92,6.441,1.6,6.441,3.865,0,1.533-1.166,2.392-2.76,2.392a2.755,2.755,0,0,1-2.949-2.547,2.806,2.806,0,0,1,0-.458H726.342C726.342,230.551,733.029,236.072,744.316,236.072Z" fill="#fff" stroke="#707070" stroke-width="1"/>
    <path id="Path_7756" data-name="Path 7756" d="M740.348,232.765c11.349,0,18.1-5.4,18.1-14.6,0-9.876-8.159-12.023-14.232-13.617-3.619-.982-6.5-1.72-6.5-3.8,0-1.226.859-1.962,2.331-1.962,1.533,0,2.392.92,2.392,2.579h14.477c0-8.772-6.257-13.986-16.869-13.986-10.8,0-17.115,5.091-17.115,13.617,0,10.306,7.852,12.208,13.741,13.68,3.557.92,6.441,1.6,6.441,3.864,0,1.534-1.166,2.393-2.761,2.393a2.756,2.756,0,0,1-2.949-2.547,2.706,2.706,0,0,1,.005-.459H722.375C722.375,227.244,729.062,232.765,740.348,232.765Z" fill="#373f54"/>
    <g id="Group_4833" data-name="Group 4833">
      <path id="Path_7757" data-name="Path 7757" d="M805.987,233.619h-31.8V191.134h31.8v10.413H785.441v7.127h19.7V216.8h-19.7v6.944h20.546Z" fill="#fff" stroke="#707070" stroke-width="1"/>
    </g>
    <g id="Group_4834" data-name="Group 4834">
      <path id="Path_7758" data-name="Path 7758" d="M801.337,231.653h-31.8V189.168h31.8v10.413H780.79v7.127h19.7v8.127h-19.7v6.944h20.547Z" fill="#373f54"/>
    </g>
    <path id="Path_7759" data-name="Path 7759" d="M835.539,189.168c-11.323,0-20.487,8.225-20.487,18.294v9.125c0,10.111,9.164,18.294,20.487,18.294,11.276,0,20.488-8.183,20.488-18.294v-9.125C856.027,197.393,846.863,189.168,835.539,189.168Zm10.172,27.419c0,5.056-4.606,9.126-10.22,9.126-5.661,0-10.219-4.113-10.219-9.126v-9.125c0-5.056,4.606-9.126,10.219-9.126,5.662,0,10.22,4.113,10.22,9.126Z" fill="#fff" stroke="#707070" stroke-width="1"/>
    <path id="Path_7760" data-name="Path 7760" d="M831.281,188.076c-10.9,0-19.715,7.915-19.715,17.6v8.782c0,9.729,8.819,17.6,19.715,17.6,10.85,0,19.715-7.874,19.715-17.6v-8.782C851,195.991,842.177,188.076,831.281,188.076Zm9.788,26.385c0,4.864-4.432,8.781-9.834,8.781-5.448,0-9.834-3.958-9.834-8.781v-8.782c0-4.864,4.432-8.781,9.834-8.781,5.448,0,9.834,3.958,9.834,8.781Z" fill="#373f54"/>
  </g>
</svg>
