<svg id="seo-top" xmlns="http://www.w3.org/2000/svg" width="397.247" height="397.248" viewBox="0 0 397.247 397.248">
  <path id="Path_311" data-name="Path 311" d="M324.226,348.522c-.7,5.043-1.862,11.483-6.983,16.6-5.664,5.586-13.19,6.672-16.759,6.9H91.542A23.627,23.627,0,0,1,67.8,348.6V189.7H324.226V289.943C325.157,300.107,327.174,326.642,324.226,348.522Z" transform="translate(-15.196 -42.517)" fill="#ffd45e"/>
  <ellipse id="Ellipse_126" cx="17.69" cy="17.69" rx="17.69" ry="17.69" transform="translate(0 0)" fill="#ffd45e"/>
  <ellipse id="Ellipse_127" cx="17.69" cy="17.69" rx="17.69" ry="17.69" transform="translate(339.522 355.118)" fill="#ffd45e"/>
  <ellipse id="Ellipse_128" cx="7.138" cy="7.138" rx="7.138" ry="7.138" transform="translate(382.971 382.972)" fill="#ffd45e"/>
  <g id="line-chart" transform="translate(115.531 174.839)">
    <g id="Group_185" data-name="Group 185" transform="translate(56.633)">
      <g id="Group_184" data-name="Group 184">
        <path id="Path_337" data-name="Path 337" d="M406.5,74.344h-69.48a9.264,9.264,0,0,0,0,18.528h60.217v60.219a9.263,9.263,0,1,0,18.527,0V83.608A9.263,9.263,0,0,0,406.5,74.344Z" transform="translate(-327.758 -74.344)" fill="#373f54"/>
      </g>
    </g>
  </g>
  <g id="Group_402" data-name="Group 402" transform="translate(10 10)">
    <g id="Group_181" data-name="Group 181" transform="translate(109.531 185.75)">
      <g id="Group_180" data-name="Group 180" transform="translate(0 0)">
        <path id="Path_335" data-name="Path 335" d="M213.692,76.68a6.156,6.156,0,0,0-8.45-.015l-45.365,43.354-13.111-12.58a6.153,6.153,0,0,0-8.448,0L85.144,158.462a5.567,5.567,0,0,0,0,8.106,6.151,6.151,0,0,0,8.448,0l48.95-46.968,13.1,12.57a6.152,6.152,0,0,0,8.44.01l49.589-47.392A5.571,5.571,0,0,0,213.692,76.68Z" transform="translate(-83.393 -74.993)" fill="#fff" stroke="#373f54" stroke-width="1"/>
      </g>
    </g>
    <path id="Path_312" data-name="Path 312" d="M338.461,53H73.578C51.155,53,33,71,33,93.035v221.59c0,29.406,24.285,53.38,54.078,53.38H324.961c29.794,0,54.078-23.975,54.078-53.38a13.5,13.5,0,0,0-27,0,26.856,26.856,0,0,1-27,26.69H87.078a26.856,26.856,0,0,1-27-26.69V133.769H352.039V247.9a13.5,13.5,0,0,0,27,0V93.035C379.039,71,360.884,53,338.461,53Zm-54.7,26.69a13.346,13.346,0,1,1-13.5,13.345A13.428,13.428,0,0,1,283.762,79.69Zm67.578,13.345a13.5,13.5,0,1,1-13.5-13.345A13.428,13.428,0,0,1,351.341,93.035ZM60,93.035A13.428,13.428,0,0,1,73.5,79.69H245.434a39.611,39.611,0,0,0,.233,27.388H60Z" transform="translate(-7.396 -11.878)" fill="#fff"/>
  </g>
  <g id="Group_401" data-name="Group 401">
    <path id="Path_312-2" data-name="Path 312" d="M338.461,53H73.578C51.155,53,33,71,33,93.035v221.59c0,29.406,24.285,53.38,54.078,53.38H324.961c29.794,0,54.078-23.975,54.078-53.38a13.5,13.5,0,0,0-27,0,26.856,26.856,0,0,1-27,26.69H87.078a26.856,26.856,0,0,1-27-26.69V133.769H352.039V247.9a13.5,13.5,0,0,0,27,0V93.035C379.039,71,360.884,53,338.461,53Zm-54.7,26.69a13.346,13.346,0,1,1-13.5,13.345A13.428,13.428,0,0,1,283.762,79.69Zm67.578,13.345a13.5,13.5,0,1,1-13.5-13.345A13.428,13.428,0,0,1,351.341,93.035ZM60,93.035A13.428,13.428,0,0,1,73.5,79.69H245.434a39.611,39.611,0,0,0,.233,27.388H60Z" transform="translate(-7.396 -11.878)" fill="#373f54"/>
    <g id="Group_181-2" data-name="Group 181" transform="translate(115.531 187.75)">
      <g id="Group_180-2" data-name="Group 180" transform="translate(0 0)">
        <path id="Path_335-2" data-name="Path 335" d="M213.692,76.68a6.156,6.156,0,0,0-8.45-.015l-45.365,43.354-13.111-12.58a6.153,6.153,0,0,0-8.448,0L85.144,158.462a5.567,5.567,0,0,0,0,8.106,6.151,6.151,0,0,0,8.448,0l48.95-46.968,13.1,12.57a6.152,6.152,0,0,0,8.44.01l49.589-47.392A5.571,5.571,0,0,0,213.692,76.68Z" transform="translate(-83.393 -74.993)" fill="#373f54" stroke="#373f54" stroke-width="5"/>
      </g>
    </g>
  </g>
</svg>
