<svg id="shipping-top" xmlns="http://www.w3.org/2000/svg" width="406.731" height="240.198" viewBox="0 0 406.731 240.198">
  <path id="Path_343" data-name="Path 343" d="M242.474,327.346c-.476,4.371-1.268,9.952-4.757,14.39a16.129,16.129,0,0,1-11.416,5.984H83.973c-8.932,0-16.173-9.145-16.173-20.307V189.7H242.474v86.878C243.108,285.387,244.482,308.384,242.474,327.346Z" transform="translate(-11.289 -151.501)" fill="#a0e4d5"/>
  <ellipse id="Ellipse_127" cx="15.331" cy="15.331" rx="15.331" ry="15.331" transform="translate(327.017)" fill="#a0e4d5"/>
  <ellipse id="Ellipse_128" cx="6.186" cy="6.186" rx="6.186" ry="6.186" transform="translate(364.673 24.142)" fill="#a0e4d5"/>
  <g id="Group_407" data-name="Group 407" transform="translate(10 10)">
    <g id="van" transform="translate(54.603 8.924)">
      <g id="Group_187" data-name="Group 187" transform="translate(236.937 142.166)">
        <g id="Group_186" data-name="Group 186">
          <path id="Path_338" data-name="Path 338" d="M394.4,303.627a39.3,39.3,0,1,0,39.306,39.306A39.35,39.35,0,0,0,394.4,303.627Zm0,56.564a17.263,17.263,0,1,1,17.265-17.262A17.282,17.282,0,0,1,394.4,360.191Z" transform="translate(-355.097 -303.627)" fill="#fff" stroke="#707070" stroke-width="1"/>
        </g>
      </g>
      <g id="Group_189" data-name="Group 189" transform="translate(0 0)">
        <g id="Group_188" data-name="Group 188">
          <path id="Path_339" data-name="Path 339" d="M219.671,90.563H11.02A11.02,11.02,0,0,0,0,101.584V271.3a11.02,11.02,0,0,0,11.02,11.02H45.551v-22.04H22.04V112.6h186.61V271.3h22.04V101.584A11.019,11.019,0,0,0,219.671,90.563Z" transform="translate(0 -90.563)" fill="#fff" stroke="#707070" stroke-width="1"/>
        </g>
      </g>
      <g id="Group_191" data-name="Group 191" transform="translate(99.55 169.713)">
        <g id="Group_190" data-name="Group 190" transform="translate(0 0)">
          <rect id="Rectangle_5" data-name="Rectangle 5" width="148.407" height="22.04" fill="#fff" stroke="#707070" stroke-width="1"/>
        </g>
      </g>
      <g id="Group_193" data-name="Group 193" transform="translate(33.061 142.166)">
        <g id="Group_192" data-name="Group 192">
          <path id="Path_340" data-name="Path 340" d="M88.854,303.627a39.3,39.3,0,1,0,39.306,39.306A39.351,39.351,0,0,0,88.854,303.627Zm0,56.564a17.263,17.263,0,1,1,17.265-17.262A17.282,17.282,0,0,1,88.854,360.191Z" transform="translate(-49.548 -303.627)" fill="#fff" stroke="#707070" stroke-width="1"/>
        </g>
      </g>
      <g id="Group_195" data-name="Group 195" transform="translate(219.671 91.469)">
        <g id="Group_194" data-name="Group 194">
          <path id="Path_341" data-name="Path 341" d="M440.159,227.647H329.221v22.041h99.917v56.2h-15.8v22.04h26.815a11.017,11.017,0,0,0,11.021-11.02V238.667A11.019,11.019,0,0,0,440.159,227.647Z" transform="translate(-329.221 -227.647)" fill="#fff" stroke="#707070" stroke-width="1"/>
        </g>
      </g>
      <g id="Group_197" data-name="Group 197" transform="translate(219.671 40.041)">
        <g id="Group_196" data-name="Group 196" transform="translate(0 0)">
          <path id="Path_342" data-name="Path 342" d="M406.838,156.28a11.026,11.026,0,0,0-9.658-5.708H329.221v22.04h61.442l25.144,45.72,19.315-10.624Z" transform="translate(-329.221 -150.572)" fill="#fff" stroke="#707070" stroke-width="1"/>
        </g>
      </g>
    </g>
    <g id="Rectangle_6" data-name="Rectangle 6" transform="translate(0 63.312)" fill="#fff" stroke="#707070" stroke-width="1">
      <rect width="66" height="21" rx="5" stroke="none"/>
      <rect x="0.5" y="0.5" width="65" height="20" rx="4.5" fill="none"/>
    </g>
    <g id="Rectangle_7" data-name="Rectangle 7" transform="translate(11 95.312)" fill="#fff" stroke="#707070" stroke-width="1">
      <rect width="55" height="23" rx="5" stroke="none"/>
      <rect x="0.5" y="0.5" width="54" height="22" rx="4.5" fill="none"/>
    </g>
  </g>
  <g id="Group_406" data-name="Group 406">
    <g id="van-2" data-name="van" transform="translate(54.603 8.924)">
      <g id="Group_187-2" data-name="Group 187" transform="translate(236.937 142.166)">
        <g id="Group_186-2" data-name="Group 186">
          <path id="Path_338-2" data-name="Path 338" d="M394.4,303.627a39.3,39.3,0,1,0,39.306,39.306A39.35,39.35,0,0,0,394.4,303.627Zm0,56.564a17.263,17.263,0,1,1,17.265-17.262A17.282,17.282,0,0,1,394.4,360.191Z" transform="translate(-355.097 -303.627)" fill="#373f54"/>
        </g>
      </g>
      <g id="Group_189-2" data-name="Group 189" transform="translate(0 0)">
        <g id="Group_188-2" data-name="Group 188">
          <path id="Path_339-2" data-name="Path 339" d="M219.671,90.563H11.02A11.02,11.02,0,0,0,0,101.584V271.3a11.02,11.02,0,0,0,11.02,11.02H45.551v-22.04H22.04V112.6h186.61V271.3h22.04V101.584A11.019,11.019,0,0,0,219.671,90.563Z" transform="translate(0 -90.563)" fill="#373f54"/>
        </g>
      </g>
      <g id="Group_191-2" data-name="Group 191" transform="translate(99.55 169.713)">
        <g id="Group_190-2" data-name="Group 190" transform="translate(0 0)">
          <rect id="Rectangle_5-2" data-name="Rectangle 5" width="148.407" height="22.04" fill="#373f54"/>
        </g>
      </g>
      <g id="Group_193-2" data-name="Group 193" transform="translate(33.061 142.166)">
        <g id="Group_192-2" data-name="Group 192">
          <path id="Path_340-2" data-name="Path 340" d="M88.854,303.627a39.3,39.3,0,1,0,39.306,39.306A39.351,39.351,0,0,0,88.854,303.627Zm0,56.564a17.263,17.263,0,1,1,17.265-17.262A17.282,17.282,0,0,1,88.854,360.191Z" transform="translate(-49.548 -303.627)" fill="#373f54"/>
        </g>
      </g>
      <g id="Group_195-2" data-name="Group 195" transform="translate(219.671 91.469)">
        <g id="Group_194-2" data-name="Group 194">
          <path id="Path_341-2" data-name="Path 341" d="M440.159,227.647H329.221v22.041h99.917v56.2h-15.8v22.04h26.815a11.017,11.017,0,0,0,11.021-11.02V238.667A11.019,11.019,0,0,0,440.159,227.647Z" transform="translate(-329.221 -227.647)" fill="#373f54"/>
        </g>
      </g>
      <g id="Group_197-2" data-name="Group 197" transform="translate(219.671 40.041)">
        <g id="Group_196-2" data-name="Group 196" transform="translate(0 0)">
          <path id="Path_342-2" data-name="Path 342" d="M406.838,156.28a11.026,11.026,0,0,0-9.658-5.708H329.221v22.04h61.442l25.144,45.72,19.315-10.624Z" transform="translate(-329.221 -150.572)" fill="#373f54"/>
        </g>
      </g>
    </g>
    <rect id="Rectangle_6-2" data-name="Rectangle 6" width="66" height="21" rx="5" transform="translate(0 63.312)" fill="#373f54"/>
    <rect id="Rectangle_7-2" data-name="Rectangle 7" width="55" height="23" rx="5" transform="translate(11 95.312)" fill="#373f54"/>
  </g>
</svg>
