<svg id="social-top" xmlns="http://www.w3.org/2000/svg" width="390.078" height="329.852" viewBox="0 0 390.078 329.852">
  <ellipse id="Ellipse_34" data-name="Ellipse 34" cx="107.562" cy="133.845" rx="107.562" ry="133.845" transform="translate(31 22.644)" fill="#a8c1ff"/>
  <ellipse id="Ellipse_35" data-name="Ellipse 35" cx="31.27" cy="38.415" rx="31.27" ry="38.415" transform="translate(248.015 160.265)" fill="#a8c1ff"/>
  <g id="Group_52" data-name="Group 52" transform="translate(19.954 0.126)">
    <g id="Group_411" data-name="Group 411" transform="translate(10 10)">
      <g id="Group_48" data-name="Group 48">
        <path id="Path_43" data-name="Path 43" d="M233.058,254.314c.133-.541.271-1.078.416-1.482.416,0,.674.133,1.078.133l.271-.271a65.634,65.634,0,0,1-10.65-35.987,66.517,66.517,0,0,1,22.9-50.142h-5.662a379.59,379.59,0,0,0-4.309-49.472,227.615,227.615,0,0,0,56.342-15.9,137.321,137.321,0,0,1,20.354,53.24,66.572,66.572,0,0,1,19.813,11.591,155.175,155.175,0,0,0-28.577-80.605.471.471,0,0,0-.133-.271,8.394,8.394,0,0,0-1.886-2.427,156.427,156.427,0,0,0-251.249,0,11.623,11.623,0,0,0-1.886,2.427.471.471,0,0,1-.133.271,156.218,156.218,0,0,0,0,180.886.47.47,0,0,0,.133.271,7.911,7.911,0,0,0,1.753,2.29,155.823,155.823,0,0,0,152.034,61.067c0-.541-.133-1.212-.133-1.886a103.42,103.42,0,0,1,29.526-73.727Zm-14.4-22.111a407.7,407.7,0,0,0-41.245-2.157,371.858,371.858,0,0,0-41.246,2.157,354.02,354.02,0,0,1-4.313-47.045h91.1A380.583,380.583,0,0,1,218.653,232.2Zm-86.958-65.509a332.812,332.812,0,0,1,4.313-47.045,407.682,407.682,0,0,0,41.246,2.157,371.857,371.857,0,0,0,41.245-2.157,354.035,354.035,0,0,1,4.313,47.045ZM281.989,86.089a218.022,218.022,0,0,1-48.527,12.935,215.669,215.669,0,0,0-8.743-29.788A121.951,121.951,0,0,0,210.98,42.008a138.221,138.221,0,0,1,71,44.085ZM177.253,38.915c13.885,0,28.843,24.264,37.74,62.541-12.132,1.211-24.8,1.886-37.74,1.886s-25.608-.674-37.74-1.886C148.41,63.179,163.369,38.915,177.253,38.915Zm-33.564,3.1A121.952,121.952,0,0,0,129.95,69.244a229.611,229.611,0,0,0-8.743,29.788A223.454,223.454,0,0,1,72.684,86.093,137.138,137.138,0,0,1,143.689,42.017ZM61.2,101.189a231.064,231.064,0,0,0,56.342,15.9,361.2,361.2,0,0,0-4.313,49.468H39.632A138.438,138.438,0,0,1,61.2,101.189Zm0,149.345a137.143,137.143,0,0,1-21.7-65.509h73.732a379.6,379.6,0,0,0,4.317,49.472A237.007,237.007,0,0,0,61.2,250.534Zm11.324,15.1a218.016,218.016,0,0,1,48.523-12.939,215.651,215.651,0,0,0,8.743,29.788,121.957,121.957,0,0,0,13.739,27.228A138.221,138.221,0,0,1,72.522,265.63Zm104.731,47.178c-13.884,0-28.843-24.264-37.74-62.541,12.132-1.212,24.8-1.886,37.74-1.886s25.608.674,37.74,1.886C206.1,288.545,191.138,312.809,177.253,312.809Z" transform="translate(-20.901 -19.498)" fill="#fff"/>
      </g>
      <g id="Group_51" data-name="Group 51" transform="translate(193.014 142.744)">
        <g id="Group_49" data-name="Group 49" transform="translate(20.487 0)">
          <path id="Path_44" data-name="Path 44" d="M233.618,234.379a54.456,54.456,0,1,1,50.42-33.55A54.308,54.308,0,0,1,233.618,234.379Zm0-91.521a37.053,37.053,0,1,0,37.053,37.053A37.053,37.053,0,0,0,233.618,142.858Z" transform="translate(-179.3 -125.467)" fill="#fff"/>
        </g>
        <g id="Group_50" data-name="Group 50" transform="translate(0 87.036)">
          <path id="Path_45" data-name="Path 45" d="M302.933,279.917H175.016A10.958,10.958,0,0,1,164.1,269c0-32.752,16.445-63.215,41.92-77.641a11.07,11.07,0,0,1,13.343,2.024l19.68,20.487,19.68-20.487a11.041,11.041,0,0,1,13.343-2.024h0c25.475,14.422,41.92,44.884,41.92,77.641A11.074,11.074,0,0,1,302.933,279.917Zm-121.31-17.382H296.33A71.825,71.825,0,0,0,267.6,209.024l-28.577,29.922L210.45,209.024A71.525,71.525,0,0,0,181.623,262.535Z" transform="translate(-164.1 -189.97)" fill="#fff"/>
        </g>
      </g>
    </g>
    <g id="Group_410" data-name="Group 410">
      <g id="Group_48-2" data-name="Group 48">
        <path id="Path_43-2" data-name="Path 43" d="M233.058,254.314c.133-.541.271-1.078.416-1.482.416,0,.674.133,1.078.133l.271-.271a65.634,65.634,0,0,1-10.65-35.987,66.517,66.517,0,0,1,22.9-50.142h-5.662a379.59,379.59,0,0,0-4.309-49.472,227.615,227.615,0,0,0,56.342-15.9,137.321,137.321,0,0,1,20.354,53.24,66.572,66.572,0,0,1,19.813,11.591,155.175,155.175,0,0,0-28.577-80.605.471.471,0,0,0-.133-.271,8.394,8.394,0,0,0-1.886-2.427,156.427,156.427,0,0,0-251.249,0,11.623,11.623,0,0,0-1.886,2.427.471.471,0,0,1-.133.271,156.218,156.218,0,0,0,0,180.886.47.47,0,0,0,.133.271,7.911,7.911,0,0,0,1.753,2.29,155.823,155.823,0,0,0,152.034,61.067c0-.541-.133-1.212-.133-1.886a103.42,103.42,0,0,1,29.526-73.727Zm-14.4-22.111a407.7,407.7,0,0,0-41.245-2.157,371.858,371.858,0,0,0-41.246,2.157,354.02,354.02,0,0,1-4.313-47.045h91.1A380.583,380.583,0,0,1,218.653,232.2Zm-86.958-65.509a332.812,332.812,0,0,1,4.313-47.045,407.682,407.682,0,0,0,41.246,2.157,371.857,371.857,0,0,0,41.245-2.157,354.035,354.035,0,0,1,4.313,47.045ZM281.989,86.089a218.022,218.022,0,0,1-48.527,12.935,215.669,215.669,0,0,0-8.743-29.788A121.951,121.951,0,0,0,210.98,42.008a138.221,138.221,0,0,1,71,44.085ZM177.253,38.915c13.885,0,28.843,24.264,37.74,62.541-12.132,1.211-24.8,1.886-37.74,1.886s-25.608-.674-37.74-1.886C148.41,63.179,163.369,38.915,177.253,38.915Zm-33.564,3.1A121.952,121.952,0,0,0,129.95,69.244a229.611,229.611,0,0,0-8.743,29.788A223.454,223.454,0,0,1,72.684,86.093,137.138,137.138,0,0,1,143.689,42.017ZM61.2,101.189a231.064,231.064,0,0,0,56.342,15.9,361.2,361.2,0,0,0-4.313,49.468H39.632A138.438,138.438,0,0,1,61.2,101.189Zm0,149.345a137.143,137.143,0,0,1-21.7-65.509h73.732a379.6,379.6,0,0,0,4.317,49.472A237.007,237.007,0,0,0,61.2,250.534Zm11.324,15.1a218.016,218.016,0,0,1,48.523-12.939,215.651,215.651,0,0,0,8.743,29.788,121.957,121.957,0,0,0,13.739,27.228A138.221,138.221,0,0,1,72.522,265.63Zm104.731,47.178c-13.884,0-28.843-24.264-37.74-62.541,12.132-1.212,24.8-1.886,37.74-1.886s25.608.674,37.74,1.886C206.1,288.545,191.138,312.809,177.253,312.809Z" transform="translate(-20.901 -19.498)" fill="#373f54"/>
      </g>
      <g id="Group_51-2" data-name="Group 51" transform="translate(193.014 142.744)">
        <g id="Group_49-2" data-name="Group 49" transform="translate(20.487 0)">
          <path id="Path_44-2" data-name="Path 44" d="M233.618,234.379a54.456,54.456,0,1,1,50.42-33.55A54.308,54.308,0,0,1,233.618,234.379Zm0-91.521a37.053,37.053,0,1,0,37.053,37.053A37.053,37.053,0,0,0,233.618,142.858Z" transform="translate(-179.3 -125.467)" fill="#373f54"/>
        </g>
        <g id="Group_50-2" data-name="Group 50" transform="translate(0 87.036)">
          <path id="Path_45-2" data-name="Path 45" d="M302.933,279.917H175.016A10.958,10.958,0,0,1,164.1,269c0-32.752,16.445-63.215,41.92-77.641a11.07,11.07,0,0,1,13.343,2.024l19.68,20.487,19.68-20.487a11.041,11.041,0,0,1,13.343-2.024h0c25.475,14.422,41.92,44.884,41.92,77.641A11.074,11.074,0,0,1,302.933,279.917Zm-121.31-17.382H296.33A71.825,71.825,0,0,0,267.6,209.024l-28.577,29.922L210.45,209.024A71.525,71.525,0,0,0,181.623,262.535Z" transform="translate(-164.1 -189.97)" fill="#373f54"/>
        </g>
      </g>
    </g>
  </g>
  <ellipse id="Ellipse_36" data-name="Ellipse 36" cx="19.813" cy="19.813" rx="19.813" ry="19.813" transform="translate(350.452 107.696)" fill="#a8c1ff"/>
  <ellipse id="Ellipse_37" data-name="Ellipse 37" cx="6.47" cy="6.47" rx="6.47" ry="6.47" transform="translate(338.728 147.326)" fill="#a8c1ff"/>
  <ellipse id="Ellipse_38" data-name="Ellipse 38" cx="19.813" cy="19.813" rx="19.813" ry="19.813" transform="translate(24.801 0)" fill="#a8c1ff"/>
  <ellipse id="Ellipse_39" data-name="Ellipse 39" cx="6.47" cy="6.47" rx="6.47" ry="6.47" transform="translate(0 6.47)" fill="#a8c1ff"/>
  <ellipse id="Ellipse_40" data-name="Ellipse 40" cx="19.813" cy="19.813" rx="19.813" ry="19.813" transform="translate(24.801 261.762)" fill="#a8c1ff"/>
  <ellipse id="Ellipse_41" data-name="Ellipse 41" cx="6.47" cy="6.47" rx="6.47" ry="6.47" transform="translate(65.105 306.375)" fill="#a8c1ff"/>
</svg>
