<svg xmlns="http://www.w3.org/2000/svg" width="432.776" height="470.677" viewBox="0 0 432.776 470.677">
  <g id="startup" transform="matrix(0.819, -0.574, 0.574, 0.819, -910.491, 170.651)">
    <path id="Path_392" data-name="Path 392" d="M127.015,21.9s93.361,96.619,56.221,291.717H90.9S10.756,169.713,127.015,21.9Z" transform="translate(740.574 493.483)" fill="#f4a196"/>
    <g id="Group_412" data-name="Group 412" transform="translate(2.456 13.927)">
      <g id="Group_259" data-name="Group 259" transform="translate(764.919 494.975)">
        <g id="Group_258" data-name="Group 258" transform="translate(0 0)">
          <path id="Path_393" data-name="Path 393" d="M228.879,227.117c7.353-81.539-21.13-164.661-80.888-224.42a9.957,9.957,0,0,0-13.683,0C74.55,62.456,46.067,145.485,53.42,227.117a119.514,119.514,0,0,0,1.024,163.917c5.213,5.492,18.523,2.979,16.382-9.122-1.117-6.33-2.513-12.473-2.513-18.523a72.007,72.007,0,0,1,13.031-41.514A9.892,9.892,0,0,0,86,323.084H196.3a9.892,9.892,0,0,0,4.654-1.21,72.007,72.007,0,0,1,13.031,41.514c0,6.05-1.582,12.1-2.513,18.523-1.955,13.4,12.008,13.869,16.382,9.122a119.514,119.514,0,0,0,1.024-163.917ZM141.1,23.548a259.011,259.011,0,0,1,42.445,61.806h-84.8A254.156,254.156,0,0,1,141.1,23.548ZM49.883,350.264a100.578,100.578,0,0,1,7.26-96.526c.093.745,10.239,39.56,14.148,49.519a90.413,90.413,0,0,0-21.409,47.006ZM189.878,303.63H92.328C64.962,239.4,65.241,167.638,90.094,104.622H192.112C216.964,167.638,217.244,239.4,189.878,303.63Zm21.13-.372c5.4-13.869,14.055-48.961,14.148-49.519a99.177,99.177,0,0,1,16.289,54.825,100.845,100.845,0,0,1-9.029,41.7,91.9,91.9,0,0,0-21.409-47.006Z" transform="translate(-21.4 0.025)" fill="#fff" stroke="#707070" stroke-width="1"/>
          <path id="Path_394" data-name="Path 394" d="M107.18,364.5a9.673,9.673,0,0,0-9.68,9.68v48.682a9.68,9.68,0,1,0,19.361,0V374.18A9.673,9.673,0,0,0,107.18,364.5Z" transform="translate(-26.665 -25.195)" fill="#fff" stroke="#707070" stroke-width="1"/>
          <path id="Path_395" data-name="Path 395" d="M149.274,364.5a9.709,9.709,0,0,0-6.888,2.885l-.093.093a9.728,9.728,0,0,0-2.42,4.282,11.734,11.734,0,0,0-.372,2.606v97.27a9.18,9.18,0,0,0,.279,2.234,9.658,9.658,0,0,0,18.8,0,9.182,9.182,0,0,0,.279-2.234V374.18a8.031,8.031,0,0,0-.372-2.606A9.416,9.416,0,0,0,149.274,364.5Z" transform="translate(-29.571 -25.195)" fill="#fff" stroke="#707070" stroke-width="1"/>
          <path id="Path_396" data-name="Path 396" d="M191.38,364.5a9.673,9.673,0,0,0-9.68,9.68v48.682a9.68,9.68,0,1,0,19.361,0V374.18A9.557,9.557,0,0,0,191.38,364.5Z" transform="translate(-32.49 -25.195)" fill="#fff" stroke="#707070" stroke-width="1"/>
        </g>
      </g>
      <g id="Group_260" data-name="Group 260" transform="translate(839.478 641.509)">
        <path id="Path_397" data-name="Path 397" d="M147.389,249.178a45.889,45.889,0,1,1,45.889-45.889A45.922,45.922,0,0,1,147.389,249.178Zm0-77.816a31.927,31.927,0,1,0,31.927,31.927A31.979,31.979,0,0,0,147.389,171.362Z" transform="translate(-101.5 -157.4)" fill="#fff" stroke="#707070" stroke-width="1"/>
      </g>
    </g>
    <circle id="Ellipse_129" data-name="Ellipse 129" cx="13.404" cy="13.404" r="13.404" transform="translate(745 687.398)" fill="#f4a196"/>
    <circle id="Ellipse_130" data-name="Ellipse 130" cx="5.119" cy="5.119" r="5.119" transform="translate(774.6 709.086)" fill="#f4a196"/>
    <circle id="Ellipse_131" data-name="Ellipse 131" cx="13.404" cy="13.404" r="13.404" transform="translate(934.142 508.495)" fill="#f4a196"/>
    <circle id="Ellipse_132" data-name="Ellipse 132" cx="5.119" cy="5.119" r="5.119" transform="translate(949.407 544.331)" fill="#f4a196"/>
    <circle id="Ellipse_133" data-name="Ellipse 133" cx="13.404" cy="13.404" r="13.404" transform="translate(914.222 919.171)" fill="#f4a196"/>
    <circle id="Ellipse_134" data-name="Ellipse 134" cx="5.119" cy="5.119" r="5.119" transform="translate(942.426 902.416)" fill="#f4a196"/>
    <g id="Group_413" data-name="Group 413" transform="translate(0)">
      <g id="Group_259-2" data-name="Group 259" transform="translate(764.919 494.975)">
        <g id="Group_258-2" data-name="Group 258" transform="translate(0 0)">
          <path id="Path_393-2" data-name="Path 393" d="M228.879,227.117c7.353-81.539-21.13-164.661-80.888-224.42a9.957,9.957,0,0,0-13.683,0C74.55,62.456,46.067,145.485,53.42,227.117a119.514,119.514,0,0,0,1.024,163.917c5.213,5.492,18.523,2.979,16.382-9.122-1.117-6.33-2.513-12.473-2.513-18.523a72.007,72.007,0,0,1,13.031-41.514A9.892,9.892,0,0,0,86,323.084H196.3a9.892,9.892,0,0,0,4.654-1.21,72.007,72.007,0,0,1,13.031,41.514c0,6.05-1.582,12.1-2.513,18.523-1.955,13.4,12.008,13.869,16.382,9.122a119.514,119.514,0,0,0,1.024-163.917ZM141.1,23.548a259.011,259.011,0,0,1,42.445,61.806h-84.8A254.156,254.156,0,0,1,141.1,23.548ZM49.883,350.264a100.578,100.578,0,0,1,7.26-96.526c.093.745,10.239,39.56,14.148,49.519a90.413,90.413,0,0,0-21.409,47.006ZM189.878,303.63H92.328C64.962,239.4,65.241,167.638,90.094,104.622H192.112C216.964,167.638,217.244,239.4,189.878,303.63Zm21.13-.372c5.4-13.869,14.055-48.961,14.148-49.519a99.177,99.177,0,0,1,16.289,54.825,100.845,100.845,0,0,1-9.029,41.7,91.9,91.9,0,0,0-21.409-47.006Z" transform="translate(-21.4 0.025)" fill="#373f54"/>
          <path id="Path_394-2" data-name="Path 394" d="M107.18,364.5a9.673,9.673,0,0,0-9.68,9.68v48.682a9.68,9.68,0,1,0,19.361,0V374.18A9.673,9.673,0,0,0,107.18,364.5Z" transform="translate(-26.665 -25.195)" fill="#373f54"/>
          <path id="Path_395-2" data-name="Path 395" d="M149.274,364.5a9.709,9.709,0,0,0-6.888,2.885l-.093.093a9.728,9.728,0,0,0-2.42,4.282,11.734,11.734,0,0,0-.372,2.606v97.27a9.18,9.18,0,0,0,.279,2.234,9.658,9.658,0,0,0,18.8,0,9.182,9.182,0,0,0,.279-2.234V374.18a8.031,8.031,0,0,0-.372-2.606A9.416,9.416,0,0,0,149.274,364.5Z" transform="translate(-29.571 -25.195)" fill="#373f54"/>
          <path id="Path_396-2" data-name="Path 396" d="M191.38,364.5a9.673,9.673,0,0,0-9.68,9.68v48.682a9.68,9.68,0,1,0,19.361,0V374.18A9.557,9.557,0,0,0,191.38,364.5Z" transform="translate(-32.49 -25.195)" fill="#373f54"/>
        </g>
      </g>
      <g id="Group_260-2" data-name="Group 260" transform="translate(839.478 641.509)">
        <path id="Path_397-2" data-name="Path 397" d="M147.389,249.178a45.889,45.889,0,1,1,45.889-45.889A45.922,45.922,0,0,1,147.389,249.178Zm0-77.816a31.927,31.927,0,1,0,31.927,31.927A31.979,31.979,0,0,0,147.389,171.362Z" transform="translate(-101.5 -157.4)" fill="#373f54"/>
      </g>
    </g>
  </g>
</svg>
