<svg id="support-top" xmlns="http://www.w3.org/2000/svg" width="388.401" height="383.526" viewBox="0 0 388.401 383.526">
  <path id="Union_1" data-name="Union 1" d="M29,180.544C13.355,161.674,4.079,138.2,4.079,112.754,4.079,50.475,59.618,0,128.116,0S252.142,50.475,252.142,112.754,196.613,225.505,128.116,225.505a135.289,135.289,0,0,1-38.457-5.526l1.032,1.344L0,251.534Z" transform="translate(41.017 67.654)" fill="#f4a196"/>
  <ellipse id="Ellipse_84" data-name="Ellipse 84" cx="20.508" cy="20.508" rx="20.508" ry="20.508" transform="translate(0 0)" fill="#f4a196"/>
  <ellipse id="Ellipse_85" data-name="Ellipse 85" cx="7.341" cy="7.341" rx="7.341" ry="7.341" transform="translate(58.649 13.169)" fill="#f4a196"/>
  <g id="Group_398" data-name="Group 398" transform="translate(10 10)">
    <path id="starred-message" d="M341.2,157.271a147.984,147.984,0,0,1-27.057,85.042,13.328,13.328,0,0,1-21.856-15.26,121.462,121.462,0,0,0,22.257-69.782c0-72.021-64.573-130.615-143.943-130.615S26.656,85.25,26.656,157.271c0,29.176,10.381,56.777,30.019,79.817a13.331,13.331,0,0,1,2.213,13.64l-20.9,51.706L98.859,275.6a13.329,13.329,0,0,1,10.605-.062,157.25,157.25,0,0,0,131.3-4.2A13.329,13.329,0,0,1,252.834,295.1a184.029,184.029,0,0,1-148.394,7.166L18.707,340.065A13.328,13.328,0,0,1,.974,322.874l30.261-74.858C10.772,221.414,0,190.208,0,157.27,0,115.037,17.9,75.4,50.395,45.656,82.561,16.214,125.253,0,170.6,0s88.038,16.215,120.2,45.656C323.3,75.4,341.2,115.037,341.2,157.27Z" transform="translate(23.132 0.584)" fill="#fff" stroke="#707070" stroke-width="1"/>
    <g id="spanner" transform="translate(124.028 90.201)">
      <g id="Group_175" data-name="Group 175" transform="translate(0 0)">
        <path id="Path_332" data-name="Path 332" d="M247.582,197.092,143.532,93.046a75.246,75.246,0,0,0,3.2-21.35,73.453,73.453,0,0,0-20.8-50.7l-.03-.03A70.27,70.27,0,0,0,50.422,4.735a10.15,10.15,0,0,0-3.483,16.689L70.5,44.7,64.995,61.012l-14.907,5.1L26.5,41.952A10.147,10.147,0,0,0,9.843,45.2C5.869,54.918,4.016,63.336,4.016,71.7a73.455,73.455,0,0,0,20.8,50.7,70.688,70.688,0,0,0,66.525,19.517L197.172,247.75a36.21,36.21,0,0,0,25.222,10.169A35.658,35.658,0,0,0,247.7,247.5C261.329,233.4,261.278,210.792,247.582,197.092Zm-14.346,36.186a15.71,15.71,0,0,1-21.84,0l-109.9-109.9a10.158,10.158,0,0,0-7.186-2.98,10.28,10.28,0,0,0-3.2.514,49.665,49.665,0,0,1-15.732,2.523A50.5,50.5,0,0,1,39.36,108.247,52.983,52.983,0,0,1,24.307,71.693c0-.93.041-1.87.115-2.824l15.624,16a10.134,10.134,0,0,0,10.544,2.513l25.7-8.793a10.145,10.145,0,0,0,6.328-6.355l9.131-27.055a10.145,10.145,0,0,0-2.482-10.463L74.684,20.305A50.068,50.068,0,0,1,111.4,35.155,53,53,0,0,1,126.44,71.7a54.493,54.493,0,0,1-3.981,20.17,10.144,10.144,0,0,0,2.215,11.018L233.232,211.442A15.7,15.7,0,0,1,233.236,233.279Z" transform="translate(-4.016 0)" fill="#fff" stroke="#707070" stroke-width="1"/>
      </g>
    </g>
  </g>
  <g id="Group_397" data-name="Group 397">
    <path id="starred-message-2" data-name="starred-message" d="M341.2,157.271a147.984,147.984,0,0,1-27.057,85.042,13.328,13.328,0,0,1-21.856-15.26,121.462,121.462,0,0,0,22.257-69.782c0-72.021-64.573-130.615-143.943-130.615S26.656,85.25,26.656,157.271c0,29.176,10.381,56.777,30.019,79.817a13.331,13.331,0,0,1,2.213,13.64l-20.9,51.706L98.859,275.6a13.329,13.329,0,0,1,10.605-.062,157.25,157.25,0,0,0,131.3-4.2A13.329,13.329,0,0,1,252.834,295.1a184.029,184.029,0,0,1-148.394,7.166L18.707,340.065A13.328,13.328,0,0,1,.974,322.874l30.261-74.858C10.772,221.414,0,190.208,0,157.27,0,115.037,17.9,75.4,50.395,45.656,82.561,16.214,125.253,0,170.6,0s88.038,16.215,120.2,45.656C323.3,75.4,341.2,115.037,341.2,157.27Z" transform="translate(23.132 0.584)" fill="#373f54"/>
    <g id="spanner-2" data-name="spanner" transform="translate(124.028 90.201)">
      <g id="Group_175-2" data-name="Group 175" transform="translate(0 0)">
        <path id="Path_332-2" data-name="Path 332" d="M247.582,197.092,143.532,93.046a75.246,75.246,0,0,0,3.2-21.35,73.453,73.453,0,0,0-20.8-50.7l-.03-.03A70.27,70.27,0,0,0,50.422,4.735a10.15,10.15,0,0,0-3.483,16.689L70.5,44.7,64.995,61.012l-14.907,5.1L26.5,41.952A10.147,10.147,0,0,0,9.843,45.2C5.869,54.918,4.016,63.336,4.016,71.7a73.455,73.455,0,0,0,20.8,50.7,70.688,70.688,0,0,0,66.525,19.517L197.172,247.75a36.21,36.21,0,0,0,25.222,10.169A35.658,35.658,0,0,0,247.7,247.5C261.329,233.4,261.278,210.792,247.582,197.092Zm-14.346,36.186a15.71,15.71,0,0,1-21.84,0l-109.9-109.9a10.158,10.158,0,0,0-7.186-2.98,10.28,10.28,0,0,0-3.2.514,49.665,49.665,0,0,1-15.732,2.523A50.5,50.5,0,0,1,39.36,108.247,52.983,52.983,0,0,1,24.307,71.693c0-.93.041-1.87.115-2.824l15.624,16a10.134,10.134,0,0,0,10.544,2.513l25.7-8.793a10.145,10.145,0,0,0,6.328-6.355l9.131-27.055a10.145,10.145,0,0,0-2.482-10.463L74.684,20.305A50.068,50.068,0,0,1,111.4,35.155,53,53,0,0,1,126.44,71.7a54.493,54.493,0,0,1-3.981,20.17,10.144,10.144,0,0,0,2.215,11.018L233.232,211.442A15.7,15.7,0,0,1,233.236,233.279Z" transform="translate(-4.016 0)" fill="#373f54"/>
      </g>
    </g>
  </g>
  <ellipse id="Ellipse_86" data-name="Ellipse 86" cx="22.249" cy="22.249" rx="22.249" ry="22.249" transform="translate(247.766 339.028)" fill="#f4a196"/>
  <ellipse id="Ellipse_87" data-name="Ellipse 87" cx="11.049" cy="11.049" rx="11.049" ry="11.049" transform="translate(213.788 339.257)" fill="#f4a196"/>
</svg>
