<svg id="ux-top" xmlns="http://www.w3.org/2000/svg" width="396.107" height="396.107" viewBox="0 0 396.107 396.107">
  <path id="Path_311" data-name="Path 311" d="M323.49,348.066c-.7,5.029-1.857,11.45-6.963,16.556-5.648,5.57-13.152,6.653-16.711,6.885H91.474A23.56,23.56,0,0,1,67.8,348.143V189.7H323.49v99.955C324.419,299.79,326.43,326.249,323.49,348.066Z" transform="translate(-15.347 -42.939)" fill="#f4a196"/>
  <ellipse id="Ellipse_126" cx="17.639" cy="17.639" rx="17.639" ry="17.639" transform="translate(0 0)" fill="#f4a196"/>
  <ellipse id="Ellipse_127" cx="17.639" cy="17.639" rx="17.639" ry="17.639" transform="translate(338.548 354.098)" fill="#f4a196"/>
  <ellipse id="Ellipse_128" cx="7.118" cy="7.118" rx="7.118" ry="7.118" transform="translate(381.872 381.872)" fill="#f4a196"/>
  <g id="Group_388" data-name="Group 388" transform="translate(10 10)">
    <path id="Path_312" data-name="Path 312" d="M337.585,53H73.462C51.1,53,33,70.949,33,92.92V313.873C33,343.195,57.215,367.1,86.923,367.1h237.2c29.708,0,53.923-23.906,53.923-53.227a13.462,13.462,0,0,0-26.923,0A26.778,26.778,0,0,1,324.2,340.487H86.923A26.778,26.778,0,0,1,60,313.873V133.537H351.123v113.8a13.462,13.462,0,0,0,26.923,0V92.92C378.046,70.949,359.943,53,337.585,53ZM283.043,79.613A13.308,13.308,0,1,1,269.581,92.92,13.389,13.389,0,0,1,283.043,79.613ZM350.427,92.92a13.462,13.462,0,1,1-13.461-13.307A13.389,13.389,0,0,1,350.427,92.92Zm-290.5,0A13.389,13.389,0,0,1,73.384,79.613h171.44a39.5,39.5,0,0,0,.232,27.31H59.923Z" transform="translate(-7.47 -11.997)" fill="#fff" stroke="#707070" stroke-width="1"/>
    <path id="Path_314" data-name="Path 314" d="M34.7,61.027c20.216,0,33.762-12.3,33.762-31.261V-14H43.247V29.87c0,5.21-3.335,8.857-8.545,8.857s-8.545-3.647-8.545-8.857V-14H.94V29.766C.94,48.731,14.486,61.027,34.7,61.027Zm113.582-2.084-21.365-37.5L147.242-14H119.836L110.354,5.492,100.871-14H73.466L93.878,21.44l-21.455,37.5h27.718L110.406,38.75,120.67,58.943Z" transform="translate(123.949 239.099)" fill="#fff" stroke="#707070" stroke-width="1"/>
  </g>
  <g id="Group_387" data-name="Group 387">
    <path id="Path_312-2" data-name="Path 312" d="M337.585,53H73.462C51.1,53,33,70.949,33,92.92V313.873C33,343.195,57.215,367.1,86.923,367.1h237.2c29.708,0,53.923-23.906,53.923-53.227a13.462,13.462,0,0,0-26.923,0A26.778,26.778,0,0,1,324.2,340.487H86.923A26.778,26.778,0,0,1,60,313.873V133.537H351.123v113.8a13.462,13.462,0,0,0,26.923,0V92.92C378.046,70.949,359.943,53,337.585,53ZM283.043,79.613A13.308,13.308,0,1,1,269.581,92.92,13.389,13.389,0,0,1,283.043,79.613ZM350.427,92.92a13.462,13.462,0,1,1-13.461-13.307A13.389,13.389,0,0,1,350.427,92.92Zm-290.5,0A13.389,13.389,0,0,1,73.384,79.613h171.44a39.5,39.5,0,0,0,.232,27.31H59.923Z" transform="translate(-7.47 -11.997)" fill="#373f54"/>
    <path id="Path_314-2" data-name="Path 314" d="M34.7,61.027c20.216,0,33.762-12.3,33.762-31.261V-14H43.247V29.87c0,5.21-3.335,8.857-8.545,8.857s-8.545-3.647-8.545-8.857V-14H.94V29.766C.94,48.731,14.486,61.027,34.7,61.027Zm113.582-2.084-21.365-37.5L147.242-14H119.836L110.354,5.492,100.871-14H73.466L93.878,21.44l-21.455,37.5h27.718L110.406,38.75,120.67,58.943Z" transform="translate(123.949 239.099)" fill="#373f54"/>
  </g>
</svg>
