<svg id="website-top" xmlns="http://www.w3.org/2000/svg" width="396.107" height="396.107" viewBox="0 0 396.107 396.107">
  <path id="Path_311" data-name="Path 311" d="M323.49,348.065c-.7,5.029-1.857,11.45-6.963,16.556-5.648,5.57-13.152,6.653-16.711,6.885H91.474A23.56,23.56,0,0,1,67.8,348.143V189.7H323.49v99.955C324.419,299.79,326.43,326.249,323.49,348.065Z" transform="translate(-15.347 -42.939)" fill="#a0e4d5"/>
  <path id="Path_523" data-name="Path 523" d="M337.585,53H73.462C51.1,53,33,70.949,33,92.92V313.873C33,343.195,57.215,367.1,86.923,367.1h237.2c29.708,0,53.923-23.906,53.923-53.227a13.462,13.462,0,0,0-26.923,0A26.779,26.779,0,0,1,324.2,340.487H86.923A26.778,26.778,0,0,1,60,313.873V133.537H351.123v113.8a13.462,13.462,0,0,0,26.923,0V92.92C378.046,70.949,359.943,53,337.585,53ZM283.043,79.613A13.308,13.308,0,1,1,269.581,92.92,13.389,13.389,0,0,1,283.043,79.613ZM350.427,92.92a13.462,13.462,0,1,1-13.461-13.307A13.389,13.389,0,0,1,350.427,92.92Zm-290.5,0A13.389,13.389,0,0,1,73.384,79.613h171.44a39.5,39.5,0,0,0,.232,27.31H59.923Zm64.754,145.059c0,44.02,36.284,79.84,80.846,79.84s80.846-35.82,80.846-79.84-36.284-79.84-80.846-79.84S124.677,193.958,124.677,237.979Zm70.4,13.307h20.888c-1.7,20.579-6.885,33.731-10.444,38.528C202.042,285.094,196.781,271.864,195.079,251.285Zm0-26.613c1.7-20.579,6.885-33.731,10.444-38.528,3.481,4.8,8.742,17.949,10.444,38.528Zm-22.436-28.78a152.245,152.245,0,0,0-4.564,28.857H153.3A52.963,52.963,0,0,1,172.643,195.892ZM153.3,251.285h14.777a153.251,153.251,0,0,0,4.564,28.857A53.241,53.241,0,0,1,153.3,251.285Zm85.1,28.857a152.24,152.24,0,0,0,4.565-28.857h14.777A53.24,53.24,0,0,1,238.4,280.142Zm19.341-55.47H242.968a153.249,153.249,0,0,0-4.565-28.857A53.522,53.522,0,0,1,257.744,224.672Z" transform="translate(2.53 -1.997)" fill="#fff" stroke="#707070" stroke-width="1"/>
  <path id="Path_312" data-name="Path 312" d="M337.585,53H73.462C51.1,53,33,70.949,33,92.92V313.873C33,343.195,57.215,367.1,86.923,367.1h237.2c29.708,0,53.923-23.906,53.923-53.227a13.462,13.462,0,0,0-26.923,0A26.779,26.779,0,0,1,324.2,340.487H86.923A26.778,26.778,0,0,1,60,313.873V133.537H351.123v113.8a13.462,13.462,0,0,0,26.923,0V92.92C378.046,70.949,359.943,53,337.585,53ZM283.043,79.613A13.308,13.308,0,1,1,269.581,92.92,13.389,13.389,0,0,1,283.043,79.613ZM350.427,92.92a13.462,13.462,0,1,1-13.461-13.307A13.389,13.389,0,0,1,350.427,92.92Zm-290.5,0A13.389,13.389,0,0,1,73.384,79.613h171.44a39.5,39.5,0,0,0,.232,27.31H59.923Zm64.754,145.059c0,44.02,36.284,79.84,80.846,79.84s80.846-35.82,80.846-79.84-36.284-79.84-80.846-79.84S124.677,193.958,124.677,237.979Zm70.4,13.307h20.888c-1.7,20.579-6.885,33.731-10.444,38.528C202.042,285.094,196.781,271.864,195.079,251.285Zm0-26.613c1.7-20.579,6.885-33.731,10.444-38.528,3.481,4.8,8.742,17.949,10.444,38.528Zm-22.436-28.78a152.245,152.245,0,0,0-4.564,28.857H153.3A52.963,52.963,0,0,1,172.643,195.892ZM153.3,251.285h14.777a153.251,153.251,0,0,0,4.564,28.857A53.241,53.241,0,0,1,153.3,251.285Zm85.1,28.857a152.24,152.24,0,0,0,4.565-28.857h14.777A53.24,53.24,0,0,1,238.4,280.142Zm19.341-55.47H242.968a153.249,153.249,0,0,0-4.565-28.857A53.522,53.522,0,0,1,257.744,224.672Z" transform="translate(-7.47 -11.997)" fill="#373f54"/>
  <ellipse id="Ellipse_126" cx="17.639" cy="17.639" rx="17.639" ry="17.639" transform="translate(0 0)" fill="#a0e4d5"/>
  <ellipse id="Ellipse_127" cx="17.639" cy="17.639" rx="17.639" ry="17.639" transform="translate(338.548 354.098)" fill="#a0e4d5"/>
  <ellipse id="Ellipse_128" cx="7.118" cy="7.118" rx="7.118" ry="7.118" transform="translate(381.872 381.872)" fill="#a0e4d5"/>
</svg>
