<svg id="website" xmlns="http://www.w3.org/2000/svg" width="395.156" height="395.157" viewBox="0 0 395.156 395.157">
  <path id="Path_311" data-name="Path 311" d="M322.876,347.685c-.695,5.017-1.852,11.422-6.946,16.516-5.634,5.557-13.12,6.637-16.671,6.869H91.417A23.5,23.5,0,0,1,67.8,347.763V189.7H322.876v99.715C323.8,299.526,325.809,325.921,322.876,347.685Z" transform="translate(-15.473 -43.292)" fill="#afccff"/>
  <ellipse id="Ellipse_126" cx="17.597" cy="17.597" rx="17.597" ry="17.597" transform="translate(0 0)" fill="#3880ff"/>
  <ellipse id="Ellipse_127" cx="17.597" cy="17.597" rx="17.597" ry="17.597" transform="translate(337.735 353.248)" fill="#3880ff"/>
  <ellipse id="Ellipse_128" cx="7.1" cy="7.1" rx="7.1" ry="7.1" transform="translate(380.955 380.956)" fill="#3880ff"/>
  <g id="Group_400" data-name="Group 400" transform="translate(10 10)">
    <path id="Path_312" data-name="Path 312" d="M336.853,53H73.365C51.06,53,33,70.906,33,92.824V313.248c0,29.251,24.157,53.1,53.794,53.1h236.63c29.637,0,53.794-23.848,53.794-53.1a13.43,13.43,0,0,0-26.858,0A26.714,26.714,0,0,1,323.5,339.8H86.794a26.714,26.714,0,0,1-26.858-26.55v-179.9H350.359v113.53a13.43,13.43,0,0,0,26.858,0V92.824C377.218,70.906,359.158,53,336.853,53ZM282.442,79.55a13.276,13.276,0,1,1-13.429,13.275A13.357,13.357,0,0,1,282.442,79.55Zm67.223,13.275A13.43,13.43,0,1,1,336.236,79.55,13.357,13.357,0,0,1,349.665,92.824Zm-289.807,0A13.357,13.357,0,0,1,73.287,79.55H244.316a39.4,39.4,0,0,0,.232,27.244H59.858Z" transform="translate(-7.531 -12.095)" fill="#fff" stroke="#707070" stroke-width="1"/>
    <g id="Group_177" data-name="Group 177" transform="translate(133.875 158.944)">
      <g id="Group_179" data-name="Group 179" transform="translate(0)">
        <path id="Path_334" data-name="Path 334" d="M216.67,60a66.67,66.67,0,1,0,66.67,66.67A66.746,66.746,0,0,0,216.67,60Zm0,114.292a47.624,47.624,0,0,1-9.524-94.285V126.67a9.471,9.471,0,0,0,9.524,9.461h46.663A47.758,47.758,0,0,1,216.67,174.292Zm9.524-57.146V80.007a47.765,47.765,0,0,1,37.139,37.139Z" transform="translate(-150 -60)" fill="#fff" stroke="#707070" stroke-width="1"/>
      </g>
    </g>
  </g>
  <g id="Group_399" data-name="Group 399">
    <path id="Path_312-2" data-name="Path 312" d="M336.853,53H73.365C51.06,53,33,70.906,33,92.824V313.248c0,29.251,24.157,53.1,53.794,53.1h236.63c29.637,0,53.794-23.848,53.794-53.1a13.43,13.43,0,0,0-26.858,0A26.714,26.714,0,0,1,323.5,339.8H86.794a26.714,26.714,0,0,1-26.858-26.55v-179.9H350.359v113.53a13.43,13.43,0,0,0,26.858,0V92.824C377.218,70.906,359.158,53,336.853,53ZM282.442,79.55a13.276,13.276,0,1,1-13.429,13.275A13.357,13.357,0,0,1,282.442,79.55Zm67.223,13.275A13.43,13.43,0,1,1,336.236,79.55,13.357,13.357,0,0,1,349.665,92.824Zm-289.807,0A13.357,13.357,0,0,1,73.287,79.55H244.316a39.4,39.4,0,0,0,.232,27.244H59.858Z" transform="translate(-7.531 -12.095)" fill="#373f54"/>
    <g id="Group_177-2" data-name="Group 177" transform="translate(133.875 158.944)">
      <g id="Group_179-2" data-name="Group 179" transform="translate(0)">
        <path id="Path_334-2" data-name="Path 334" d="M216.67,60a66.67,66.67,0,1,0,66.67,66.67A66.746,66.746,0,0,0,216.67,60Zm0,114.292a47.624,47.624,0,0,1-9.524-94.285V126.67a9.471,9.471,0,0,0,9.524,9.461h46.663A47.758,47.758,0,0,1,216.67,174.292Zm9.524-57.146V80.007a47.765,47.765,0,0,1,37.139,37.139Z" transform="translate(-150 -60)" fill="#373f54"/>
      </g>
    </g>
  </g>
</svg>
