<svg id="wevdev-top" xmlns="http://www.w3.org/2000/svg" width="396.142" height="396.142" viewBox="0 0 396.142 396.142">
  <path id="Path_311" data-name="Path 311" d="M323.513,348.079c-.7,5.029-1.857,11.451-6.964,16.558-5.648,5.571-13.153,6.654-16.712,6.886H91.476A23.562,23.562,0,0,1,67.8,348.157V189.7H323.513v99.964C324.441,299.8,326.453,326.261,323.513,348.079Z" transform="translate(-15.342 -42.926)" fill="#f4a196"/>
  <g id="Group_386" data-name="Group 386" transform="translate(10 10)">
    <path id="Path_524" data-name="Path 524" d="M337.612,53H73.465C51.1,53,33,70.95,33,92.924V313.9c0,29.324,24.217,53.232,53.928,53.232H324.149c29.711,0,53.928-23.908,53.928-53.232a13.463,13.463,0,0,0-26.925,0,26.781,26.781,0,0,1-26.925,26.616H86.928A26.781,26.781,0,0,1,60,313.9V133.544H351.152V247.357a13.464,13.464,0,0,0,26.925,0V92.924C378.077,70.95,359.972,53,337.612,53ZM283.065,79.616A13.309,13.309,0,1,1,269.6,92.924,13.39,13.39,0,0,1,283.065,79.616Zm67.391,13.308a13.464,13.464,0,1,1-13.463-13.308A13.39,13.39,0,0,1,350.455,92.924Zm-290.53,0A13.39,13.39,0,0,1,73.388,79.616H244.843a39.5,39.5,0,0,0,.232,27.312H59.925Z" transform="translate(-7.467 -11.993)" fill="#fff"/>
    <g id="coding" transform="translate(113.088 186.576)">
      <g id="Group_157" data-name="Group 157" transform="translate(100.977 16.74)">
        <g id="Group_156" data-name="Group 156" transform="translate(0 0)">
          <path id="Path_315" data-name="Path 315" d="M398.285,148.735l-33.659-35.661a5.458,5.458,0,1,0-7.938,7.492l30.124,31.912L356.688,184.4a5.459,5.459,0,0,0,7.939,7.5l33.659-35.662A5.46,5.46,0,0,0,398.285,148.735Z" transform="translate(-355.199 -111.361)" fill="#fff" stroke="#000" stroke-width="1"/>
        </g>
      </g>
      <g id="Group_159" data-name="Group 159" transform="translate(0 16.739)">
        <g id="Group_158" data-name="Group 158" transform="translate(0 0)">
          <path id="Path_316" data-name="Path 316" d="M43.088,184.393,12.966,152.478l30.122-31.914a5.458,5.458,0,0,0-7.94-7.492L1.489,148.732a5.46,5.46,0,0,0,0,7.494L35.15,191.889a5.459,5.459,0,0,0,7.938-7.5Z" transform="translate(-0.001 -111.36)" fill="#fff" stroke="#000" stroke-width="1"/>
        </g>
      </g>
      <g id="Group_161" data-name="Group 161" transform="translate(59.312 0)">
        <g id="Group_160" data-name="Group 160">
          <path id="Path_317" data-name="Path 317" d="M230.932,52.54a5.464,5.464,0,0,0-6.221,4.572L208.7,161.911a5.46,5.46,0,0,0,4.572,6.221,5.631,5.631,0,0,0,.832.062,5.46,5.46,0,0,0,5.389-4.634L235.5,58.761A5.459,5.459,0,0,0,230.932,52.54Z" transform="translate(-208.636 -52.478)" fill="#fff" stroke="#000" stroke-width="1"/>
        </g>
      </g>
    </g>
  </g>
  <path id="Path_312" data-name="Path 312" d="M337.612,53H73.465C51.1,53,33,70.95,33,92.924V313.9c0,29.324,24.217,53.232,53.928,53.232H324.149c29.711,0,53.928-23.908,53.928-53.232a13.463,13.463,0,0,0-26.925,0,26.781,26.781,0,0,1-26.925,26.616H86.928A26.781,26.781,0,0,1,60,313.9V133.544H351.152V247.357a13.464,13.464,0,0,0,26.925,0V92.924C378.077,70.95,359.972,53,337.612,53ZM283.065,79.616A13.309,13.309,0,1,1,269.6,92.924,13.39,13.39,0,0,1,283.065,79.616Zm67.391,13.308a13.464,13.464,0,1,1-13.463-13.308A13.39,13.39,0,0,1,350.455,92.924Zm-290.53,0A13.39,13.39,0,0,1,73.388,79.616H244.843a39.5,39.5,0,0,0,.232,27.312H59.925Z" transform="translate(-7.467 -11.993)" fill="#373f54"/>
  <ellipse id="Ellipse_126" cx="17.641" cy="17.641" rx="17.641" ry="17.641" transform="translate(0 0)" fill="#f4a196"/>
  <ellipse id="Ellipse_127" cx="17.641" cy="17.641" rx="17.641" ry="17.641" transform="translate(338.578 354.129)" fill="#f4a196"/>
  <ellipse id="Ellipse_128" cx="7.118" cy="7.118" rx="7.118" ry="7.118" transform="translate(381.906 381.906)" fill="#f4a196"/>
  <g id="coding-2" data-name="coding" transform="translate(113.088 186.576)">
    <g id="Group_157-2" data-name="Group 157" transform="translate(100.977 16.74)">
      <g id="Group_156-2" data-name="Group 156" transform="translate(0 0)">
        <path id="Path_315-2" data-name="Path 315" d="M398.285,148.735l-33.659-35.661a5.458,5.458,0,1,0-7.938,7.492l30.124,31.912L356.688,184.4a5.459,5.459,0,0,0,7.939,7.5l33.659-35.662A5.46,5.46,0,0,0,398.285,148.735Z" transform="translate(-355.199 -111.361)" fill="#373f54" stroke="#373f54" stroke-width="8"/>
      </g>
    </g>
    <g id="Group_159-2" data-name="Group 159" transform="translate(0 16.739)">
      <g id="Group_158-2" data-name="Group 158" transform="translate(0 0)">
        <path id="Path_316-2" data-name="Path 316" d="M43.088,184.393,12.966,152.478l30.122-31.914a5.458,5.458,0,0,0-7.94-7.492L1.489,148.732a5.46,5.46,0,0,0,0,7.494L35.15,191.889a5.459,5.459,0,0,0,7.938-7.5Z" transform="translate(-0.001 -111.36)" fill="#373f54" stroke="#373f54" stroke-width="8"/>
      </g>
    </g>
    <g id="Group_161-2" data-name="Group 161" transform="translate(59.312 0)">
      <g id="Group_160-2" data-name="Group 160">
        <path id="Path_317-2" data-name="Path 317" d="M230.932,52.54a5.464,5.464,0,0,0-6.221,4.572L208.7,161.911a5.46,5.46,0,0,0,4.572,6.221,5.631,5.631,0,0,0,.832.062,5.46,5.46,0,0,0,5.389-4.634L235.5,58.761A5.459,5.459,0,0,0,230.932,52.54Z" transform="translate(-208.636 -52.478)" fill="#373f54" stroke="#373f54" stroke-width="8"/>
      </g>
    </g>
  </g>
</svg>
