<svg xmlns="http://www.w3.org/2000/svg" width="20.32" height="23.996" viewBox="0 0 20.32 23.996">
  <g id="angular-stop" transform="translate(-18.33 -18.76)">
    <g id="angular" transform="translate(262.081 -532.207)">
      <g id="Group_269" data-name="Group 269" transform="translate(-242.823 554.082)" opacity="0.5">
        <path id="Path_405" data-name="Path 405" d="M-219.365,571.327l-1.137,9.825a.7.7,0,0,1-.341.523l-6.232,3.434a.681.681,0,0,1-.66,0l-6.209-3.434a.7.7,0,0,1-.341-.523l-1.137-9.825a.692.692,0,0,1,.455-.728l7.346-2.615a.774.774,0,0,1,.455,0l7.346,2.615A.667.667,0,0,1-219.365,571.327Z" transform="translate(235.428 -567.95)" fill="#f77c7c"/>
      </g>
      <g id="Group_270" data-name="Group 270" transform="translate(-243.752 550.967)">
        <path id="Path_406" data-name="Path 406" d="M-229.342,576.072a.606.606,0,0,1-.273-.068l-8.142-4.526a.588.588,0,0,1-.3-.432l-1.456-12.736a.552.552,0,0,1,.364-.591l9.6-3.434a.564.564,0,0,1,.387,0l9.6,3.434a.542.542,0,0,1,.364.591l-1.456,12.736a.588.588,0,0,1-.3.432L-229.092,576A.459.459,0,0,1-229.342,576.072Zm-7.3-5.276,6.982,3.866a.681.681,0,0,0,.66,0l6.982-3.866a.7.7,0,0,0,.341-.523l1.3-11.121a.692.692,0,0,0-.455-.728l-8.233-2.957a.774.774,0,0,0-.455,0l-8.256,2.957a.719.719,0,0,0-.455.728l1.251,11.121A.628.628,0,0,0-236.643,570.8Z" transform="translate(239.511 -554.25)" fill="#f77c7c"/>
      </g>
      <g id="Group_271" data-name="Group 271" transform="translate(-238.763 554.927)">
        <path id="Path_407" data-name="Path 407" d="M-207.21,582.974l-4.64-10.894a.677.677,0,0,0-1.251,0l-4.435,10.894a.587.587,0,0,0,.318.75.664.664,0,0,0,.2.046.561.561,0,0,0,.523-.364l1.729-4.23h4.708l1.819,4.253a.551.551,0,0,0,.751.3A.559.559,0,0,0-207.21,582.974Zm-7.1-4.935,1.842-4.526,1.933,4.526Z" transform="translate(217.575 -571.662)" fill="#f77c7c"/>
      </g>
      <circle id="Ellipse_289" data-name="Ellipse 289" cx="1.997" cy="1.997" r="1.997" transform="translate(-242.059 569.802) rotate(21)" fill="#f77c7c"/>
      <circle id="Ellipse_290" data-name="Ellipse 290" cx="0.717" cy="0.717" r="0.717" transform="translate(-237.186 573.044) rotate(21)" fill="#f77c7c"/>
    </g>
  </g>
</svg>
