<svg xmlns="http://www.w3.org/2000/svg" width="23.457" height="23.805" viewBox="0 0 23.457 23.805">
  <g id="codeignitor-stop" transform="translate(-16.069 -16.584)">
    <g id="codeigniter" transform="translate(255.669 -540.165)">
      <path id="Path_413" data-name="Path 413" d="M-220.526,577.568a1.3,1.3,0,0,1-2.33.871c-.922-1.306.026-2.689.154-4.046a4.912,4.912,0,0,0-1.152-3.483.379.379,0,0,0-.666.231,5.168,5.168,0,0,1-1.152,2.51c-.691.845-1.536,1.562-2.279,2.33a20.747,20.747,0,0,0-2.279,2.689,8.587,8.587,0,0,0-1.562,6.863,6.079,6.079,0,0,0,2.663,3.662.373.373,0,0,0,.512-.512,3.323,3.323,0,0,1-.589-1.793,4.326,4.326,0,0,1,1.178-2.868.372.372,0,0,1,.64.2,1.06,1.06,0,0,0,.23.589,1.281,1.281,0,0,0,1.306.538,1.436,1.436,0,0,0,.512-2.433,3.257,3.257,0,0,1-1.05-2.817,3.211,3.211,0,0,1,.23-.64.362.362,0,0,1,.666.051,3.634,3.634,0,0,0,1.127,1.332,29.584,29.584,0,0,1,3.073,2.254,4.5,4.5,0,0,1,1.562,3.713,3.457,3.457,0,0,1-.615,1.69.371.371,0,0,0,.512.512,6.471,6.471,0,0,0,3.175-5.275,7.08,7.08,0,0,0-3.867-6.172" transform="translate(-5.655 -9.876)" fill="#f77c7c" opacity="0.5"/>
      <g id="Codeigniter-2" data-name="Codeigniter" transform="translate(-237.628 557.5)">
        <g id="_Group_" transform="translate(0)">
          <path id="_Path_" d="M-220.274,579.8c3.175-.691,6.786-3.611,6.786-7.273s-3.329-5.813-4.84-6.786a1.4,1.4,0,0,1-1.306,1.46h-.128a1.511,1.511,0,0,1-1.46-1.46c0-1.844.487-1.536.487-3.406,0-1.844-.2-2.766-2.433-4.84.794,3.944-2.612,5.531-5.327,8.246s-3.406,5.1-3.406,6.786a6.88,6.88,0,0,0,5.813,7.273c-2.023-1.869-2.433-2.843-2.433-3.892a5.479,5.479,0,0,1,2.433-3.892c-.973,2.458.64,2.919,1.46,2.919s1.46-.717,1.46-1.946c0-1.2-1.946-1.946-1.946-3.406a3.737,3.737,0,0,1,.973-2.433s-.333.973.973,1.946c1.28.973,5.813,3.227,5.813,5.813C-217.38,577.526-218.328,578.4-220.274,579.8Z" transform="translate(231.9 -557.5)" fill="none" stroke="#f77c7c" stroke-linecap="round" stroke-linejoin="round" stroke-width="1.5"/>
        </g>
      </g>
      <circle id="Ellipse_150" data-name="Ellipse 150" cx="1.997" cy="1.997" r="1.997" transform="translate(-239.6 558.908)" fill="#f77c7c"/>
      <circle id="Ellipse_151" data-name="Ellipse 151" cx="0.717" cy="0.717" r="0.717" transform="translate(-233.889 560.189)" fill="#f77c7c"/>
      <circle id="Ellipse_152" data-name="Ellipse 152" cx="1.536" cy="1.536" r="1.536" transform="translate(-219.216 577.346)" fill="#f77c7c"/>
      <circle id="Ellipse_153" data-name="Ellipse 153" cx="0.845" cy="0.845" r="0.845" transform="translate(-223.39 560.88)" fill="#f77c7c"/>
    </g>
  </g>
</svg>
