<svg xmlns="http://www.w3.org/2000/svg" width="31.55" height="21.54" viewBox="0 0 31.55 21.54">
  <g id="dotnet-stop" transform="translate(-11.998 -14.743)">
    <g id="dotnet" transform="translate(260.198 -542.909)">
      <path id="Path_414" data-name="Path 414" d="M-234.114,589.806c2.322-.122,3.331.978,3.972,2.9.611,1.864,1.069,3.789,1.589,5.683a3.838,3.838,0,0,0,.275.642c.611-1.956,1.131-3.728,1.681-5.5.4-1.283.764-2.628,2.047-3.3a5.392,5.392,0,0,1,2.231-.672c1.558-.061,3.147.061,4.736.092v.306c-.581.947-1.161,1.894-1.711,2.842a35.119,35.119,0,0,1-4.858,7.272,3.447,3.447,0,0,1-2.628,1.253h-5.775a2.521,2.521,0,0,1-2.6-1.65c-.519-1.161-.917-2.383-1.314-3.575-.4-1.253-.672-2.505-1.039-3.911a9.317,9.317,0,0,0-2.506,3.483,27.922,27.922,0,0,1-1.558,4.125,3.466,3.466,0,0,1-3.208,1.772c-1.069.031-2.139,0-3.422,0,.611-1.65,1.069-3.239,1.742-4.736a16.3,16.3,0,0,1,3.85-5.683,4.4,4.4,0,0,1,3.3-1.375Z" transform="translate(0 -22.392)" fill="#478aff" opacity="0.5"/>
      <g id="Dot_Net" transform="translate(-247.131 564.786)">
        <g id="_Group_" transform="translate(0 0)">
          <path id="_Path_" d="M-244.7,593.472h2.6c1.986,0,2.994,0,5.164-6.478l2.6-2.6c2.139,7.822,2.994,9.044,4.522,9.044h5.806c1.589,0,3.208-1.1,9.044-11.642h-5.164c-2.872,0-4,4.95-5.164,9.044-2.017-7.272-2.414-9.044-5.164-9.044h-5.806C-238.864,581.861-241.828,583.786-244.7,593.472Z" transform="translate(244.7 -581.8)" fill="none" stroke="#478aff" stroke-linecap="round" stroke-linejoin="round" stroke-width="1.5"/>
        </g>
      </g>
    </g>
    <circle id="Ellipse_305" data-name="Ellipse 305" cx="1.997" cy="1.997" r="1.997" transform="translate(25.069 14.743)" fill="#478aff"/>
    <circle id="Ellipse_306" data-name="Ellipse 306" cx="0.717" cy="0.717" r="0.717" transform="translate(30.78 16.023)" fill="#478aff"/>
  </g>
</svg>
