<svg xmlns="http://www.w3.org/2000/svg" width="25.241" height="25.865" viewBox="0 0 25.241 25.865">
  <g id="fluttr-stop" transform="translate(-3843.975 -6475.177)">
    <g id="Group_360" data-name="Group 360" transform="translate(2761.96 6295)">
      <path id="Path_475" data-name="Path 475" d="M1089.833,2164.586l6.948-6.513h7.537l-11.364,10.2Z" transform="translate(-1.001 -1965.95)" fill="#478aff" opacity="0.5"/>
      <g id="Group_310" data-name="Group 310" transform="translate(1083.075 180.927)">
        <g id="flutter">
          <path id="Path_471" data-name="Path 471" d="M3.752,15.934,0,12.182,12.183,0h7.5m0,11.241h-7.5L9.372,14.052,13.124,17.8" fill="none" stroke="#478aff" stroke-width="1.5"/>
          <path id="Path_472" data-name="Path 472" d="M951.7,1811.651l2.81,2.81h7.5l-6.562-6.562" transform="translate(-942.328 -1790.096)" fill="none" stroke="#478aff" stroke-width="1.5"/>
          <path id="Path_473" data-name="Path 473" d="M571.6,1431.347l3.746-3.747,3.746,3.746-3.746,3.747Z" transform="translate(-565.971 -1413.542)" fill="none" stroke="#478aff" stroke-width="1.5"/>
          <path id="Path_474" data-name="Path 474" d="M22.546,14.016l-7.32,7.495" transform="translate(-2.305 -3.01)" fill="none" stroke="#478aff" stroke-width="1.5"/>
        </g>
      </g>
    </g>
    <ellipse id="Ellipse_265" data-name="Ellipse 265" cx="1.997" cy="1.997" rx="1.997" ry="1.997" transform="translate(3865.221 6491.576)" fill="#478aff"/>
    <ellipse id="Ellipse_266" data-name="Ellipse 266" cx="0.717" cy="0.717" rx="0.717" ry="0.717" transform="translate(3862.071 6492.857)" fill="#478aff"/>
  </g>
</svg>
