<svg xmlns="http://www.w3.org/2000/svg" width="21.394" height="26.538" viewBox="0 0 21.394 26.538">
  <g id="ipad-stop" transform="translate(-15.069 -13.743)">
    <g id="mobileapp" transform="translate(14.991 17.804)">
      <path id="Path_309" data-name="Path 309" d="M122.146,104.93V95.236A1.538,1.538,0,0,0,120.61,93.7h-8.073A1.538,1.538,0,0,0,111,95.236v13.534a1.538,1.538,0,0,0,1.537,1.536h8.073c1.444,0,1.536-1.536,1.536-1.536S122.252,105.149,122.146,104.93Z" transform="translate(-104.865 -89.587)" fill="#07d4bf" opacity="0.38"/>
      <path id="Path_310" data-name="Path 310" d="M86.872,14.579V3.512a1.845,1.845,0,0,0-1.924-1.756h-10.1a1.845,1.845,0,0,0-1.924,1.756V18.965a1.845,1.845,0,0,0,1.924,1.756h10.1a1.845,1.845,0,0,0,1.924-1.756.966.966,0,0,1,1.924,0,3.7,3.7,0,0,1-3.848,3.512h-10.1A3.7,3.7,0,0,1,71,18.965V3.512A3.7,3.7,0,0,1,74.848,0h10.1A3.7,3.7,0,0,1,88.8,3.512V14.579a.966.966,0,0,1-1.924,0Zm-7.936,3.907a.966.966,0,1,0,.962-.878A.926.926,0,0,0,78.936,18.486ZM80.86,4.877A.926.926,0,0,0,81.822,4a.926.926,0,0,0-.962-.878H78.936A.926.926,0,0,0,77.974,4a.926.926,0,0,0,.962.878Zm3.367,10.8a.926.926,0,0,0,.962-.878V9.443a.966.966,0,0,0-1.924,0v4.478H82.3V7.687a.966.966,0,0,0-1.924,0v6.234h-.962V11.2a.966.966,0,0,0-1.924,0v2.722h-.962V9.443a.966.966,0,0,0-1.924,0V14.8a.926.926,0,0,0,.962.878Z" transform="translate(-67.323 0)" fill="#07d4bf"/>
    </g>
    <circle id="Ellipse_259" data-name="Ellipse 259" cx="1.997" cy="1.997" r="1.997" transform="translate(15.069 13.743)" fill="#07d4bf"/>
    <circle id="Ellipse_260" data-name="Ellipse 260" cx="0.717" cy="0.717" r="0.717" transform="translate(20.78 15.023)" fill="#07d4bf"/>
  </g>
</svg>
