<svg xmlns="http://www.w3.org/2000/svg" width="19.01" height="18.609" viewBox="0 0 19.01 18.609">
  <g id="kotlin-stop" transform="translate(-18.978 -19.146)">
    <g id="Group_362" data-name="Group 362" transform="translate(-1116.573 -160.405)">
      <path id="Path_476" data-name="Path 476" d="M1136.7,2154.2l7.919-7.682h8.805l-16.724,16.842Z" transform="translate(-0.296 -1966.234)" fill="#f77c7c" opacity="0.5"/>
      <path id="Path_0" data-name="Path 0" d="M9.056.04c8.251,0,8.782,0,8.868.075a.612.612,0,0,1,.14.172.627.627,0,0,1,.048.237c0,.128-.358.5-8.431,8.571L13.9,13.31c3.858,3.858,4.216,4.228,4.216,4.356a.627.627,0,0,1-.048.237.612.612,0,0,1-.14.172c-.086.07-.617.075-8.868.075s-8.782,0-8.868-.075a.612.612,0,0,1-.14-.172C.013,17.833,0,15.424,0,9.095S.013.357.048.286A.612.612,0,0,1,.188.115C.275.045.806.04,9.056.04ZM.862,8.857l.022,7.784L16.625.9H8.819Zm0-1.251C6.043,2.426,7.547.918,7.547.912S6.043.9,4.2.9H.863Zm.625,9.682H16.625c-5.849-5.849-7.557-7.547-7.569-7.547s-1.72,1.7-3.8,3.774Z" transform="translate(1135.801 179.762)" fill="#f77c7c" stroke="#f77c7c" stroke-width="0.5" fill-rule="evenodd"/>
      <ellipse id="Ellipse_281" data-name="Ellipse 281" cx="1.997" cy="1.997" rx="1.997" ry="1.997" transform="translate(1150.566 187.148)" fill="#f77c7c"/>
      <ellipse id="Ellipse_282" data-name="Ellipse 282" cx="0.717" cy="0.717" rx="0.717" ry="0.717" transform="translate(1148.643 188.429)" fill="#f77c7c"/>
    </g>
  </g>
</svg>
