<svg xmlns="http://www.w3.org/2000/svg" width="25.672" height="18.961" viewBox="0 0 25.672 18.961">
  <g id="laravel_stop" data-name="laravel=stop" transform="translate(-4939.121 -6670.635)">
    <g id="laravel-stop" transform="translate(4923.002 6652.833)">
      <g id="laravel" transform="translate(265.719 -543.26)">
        <path id="Path_430" data-name="Path 430" d="M-188.174,611.546l-2.465-3.846-8.061,2.021,2.514,4.462Z" transform="translate(-38.353 -34.811)" fill="#f77c7c" opacity="0.4"/>
        <path id="Path_431" data-name="Path 431" d="M-177.5,588.215l2.44,3.574,3.426-.961-2.317-3.328Z" transform="translate(-54.327 -19.591)" fill="#f77c7c" opacity="0.4"/>
        <path id="Path_432" data-name="Path 432" d="M-237.743,579.868-243.93,568.8l-5.67.222,6.434,12.2Z" transform="translate(0 -5.5)" fill="#f77c7c" opacity="0.4"/>
        <g id="comp_x5F_194-laravel" transform="translate(-248.589 563.201)">
          <path id="Path_433" data-name="Path 433" d="M-245.5,568.4l6.434,12.325,17.477-4.289-2.687-3.747-3.747.542,5.892,8.554-8.036,2.687-9.441-16.072Z" transform="translate(245.5 -568.4)" fill="none" stroke="#f77c7c" stroke-linecap="round" stroke-linejoin="round" stroke-miterlimit="10" stroke-width="1.5"/>
        </g>
      </g>
    </g>
    <ellipse id="Ellipse_273" data-name="Ellipse 273" cx="1.997" cy="1.997" rx="1.997" ry="1.997" transform="translate(4953.932 6673.46) rotate(-45)" fill="#f77c7c"/>
    <ellipse id="Ellipse_274" data-name="Ellipse 274" cx="0.717" cy="0.717" rx="0.717" ry="0.717" transform="translate(4952.611 6676.593) rotate(-45)" fill="#f77c7c"/>
  </g>
</svg>
