<svg xmlns="http://www.w3.org/2000/svg" width="25.494" height="25.03" viewBox="0 0 25.494 25.03">
  <g id="meteor-stop" transform="translate(-13.462 -15.555)">
    <g id="Group_369" data-name="Group 369" transform="translate(-1439.234 -161.081)">
      <circle id="Ellipse_219" data-name="Ellipse 219" cx="8.5" cy="8.5" r="8.5" transform="translate(1460.232 184.247)" fill="#f77c7c" opacity="0.4"/>
      <g id="meteor-icon" transform="translate(1453.06 177)">
        <path id="Path_480" data-name="Path 480" d="M.439.438,21.5,22.748a.983.983,0,0,0,1.266-.084.935.935,0,0,0,.127-1.181L.439.438ZM7.108,2.547,23.147,19.838a.983.983,0,0,0,1.266-.084.935.935,0,0,0,.127-1.181ZM2.423,7.059,18.462,24.351a.983.983,0,0,0,1.266-.084.935.935,0,0,0,.127-1.181Zm10.323-2.7,11.206,12.08a.687.687,0,0,0,.885-.059.653.653,0,0,0,.088-.825L12.746,4.36ZM3.966,12.289l11.206,12.08a.687.687,0,0,0,.885-.059.653.653,0,0,0,.088-.825ZM18.5,6.975l5.079,5.492a.354.354,0,0,0,.438-.028.294.294,0,0,0,.044-.387ZM6.77,17.856l5.079,5.492a.354.354,0,0,0,.438-.028.294.294,0,0,0,.044-.387Z" transform="translate(-0.439 -0.438)" fill="none" stroke="#f77c7c" stroke-width="1"/>
      </g>
    </g>
  </g>
</svg>
