<svg xmlns="http://www.w3.org/2000/svg" width="21.293" height="21.77" viewBox="0 0 21.293 21.77">
  <g id="mobiledes-stop" transform="translate(-20.88 -17.167)">
    <g id="mobileapp" transform="translate(17.319 17.167)">
      <path id="Path_309" data-name="Path 309" d="M121.8,104.576V95.188a1.49,1.49,0,0,0-1.488-1.488h-7.819A1.49,1.49,0,0,0,111,95.188V108.3a1.49,1.49,0,0,0,1.488,1.488h7.819c1.4,0,1.488-1.488,1.488-1.488S121.9,104.789,121.8,104.576Z" transform="translate(-105.738 -89.716)" fill="#9e8eee" opacity="0.38"/>
      <path id="Path_310" data-name="Path 310" d="M85.031,14.121V3.4a1.7,1.7,0,0,0-1.7-1.7H74.4a1.7,1.7,0,0,0-1.7,1.7V18.368a1.7,1.7,0,0,0,1.7,1.7H83.33a1.7,1.7,0,0,0,1.7-1.7.85.85,0,1,1,1.7,0,3.406,3.406,0,0,1-3.4,3.4H74.4a3.406,3.406,0,0,1-3.4-3.4V3.4A3.406,3.406,0,0,1,74.4,0H83.33a3.406,3.406,0,0,1,3.4,3.4V14.121a.85.85,0,1,1-1.7,0ZM78.016,17.9a.85.85,0,1,0,.85-.85A.853.853,0,0,0,78.016,17.9Zm1.7-13.181a.85.85,0,1,0,0-1.7h-1.7a.85.85,0,1,0,0,1.7Zm2.976,10.46a.853.853,0,0,0,.85-.85V9.146a.85.85,0,0,0-1.7,0v4.337h-.85V7.445a.85.85,0,0,0-1.7,0v6.038h-.85V10.847a.85.85,0,1,0-1.7,0v2.636h-.85V9.146a.85.85,0,1,0-1.7,0v5.187a.853.853,0,0,0,.85.85Z" transform="translate(-67.439 0)" fill="#9e8eee"/>
      <circle id="Ellipse_297" data-name="Ellipse 297" cx="1.997" cy="1.997" r="1.997" transform="translate(24.854 10.358) rotate(99)" fill="#9e8eee"/>
      <circle id="Ellipse_298" data-name="Ellipse 298" cx="0.717" cy="0.717" r="0.717" transform="translate(22.696 15.797) rotate(99)" fill="#9e8eee"/>
    </g>
  </g>
</svg>
