<svg xmlns="http://www.w3.org/2000/svg" width="18.674" height="22.307" viewBox="0 0 18.674 22.307">
  <g id="mvc-stop" transform="translate(-18.424 -21.43)">
    <g id="website" transform="translate(17.042 19.211)">
      <path id="Path_311" data-name="Path 311" d="M81.638,198.271a1.476,1.476,0,0,1-.377.9,1.429,1.429,0,0,1-.9.373H69.081a1.275,1.275,0,0,1-1.281-1.264V189.7H81.638v5.41A15.6,15.6,0,0,1,81.638,198.271Z" transform="translate(-64.961 -181.757)" fill="#f77c7c" opacity="0.45"/>
      <path id="Path_312" data-name="Path 312" d="M49.485,53H35.19A2.178,2.178,0,0,0,33,55.161V67.119A2.9,2.9,0,0,0,35.918,70H48.756a2.9,2.9,0,0,0,2.918-2.881.729.729,0,0,0-1.457,0,1.449,1.449,0,0,1-1.457,1.44H35.918a1.449,1.449,0,0,1-1.457-1.44v-9.76H50.217v6.159a.729.729,0,0,0,1.457,0V55.161A2.178,2.178,0,0,0,49.485,53Zm-2.952,1.44a.72.72,0,1,1-.729.72A.725.725,0,0,1,46.533,54.44Zm3.647.72a.729.729,0,1,1-.729-.72A.725.725,0,0,1,50.18,55.161Zm-15.722,0a.725.725,0,0,1,.729-.72h9.279a2.138,2.138,0,0,0,.013,1.478H34.457Z" transform="translate(-31.618 -50.781)" fill="#f77c7c"/>
      <path id="Path_485" data-name="Path 485" d="M5.988-2.074,5.364-6.358H3.956L3.074-4.3,2.2-6.358H.792L.162-2.074H1.594l.241-2.16,1,2.16h.49l1-2.163.251,2.163ZM8.809-6.358,8.142-4.087,7.469-6.358H5.8L7.488-2.074h1.3L10.48-6.358Zm3.9,4.406A2.213,2.213,0,0,0,15-3.959H13.528a.84.84,0,0,1-.814.7.86.86,0,0,1-.851-.955.862.862,0,0,1,.851-.961.877.877,0,0,1,.82.636h1.457a2.2,2.2,0,0,0-2.283-1.94,2.239,2.239,0,0,0-2.362,2.264A2.239,2.239,0,0,0,12.708-1.951Z" transform="translate(3.348 17.714)" fill="#f77c7c"/>
      <circle id="Ellipse_307" data-name="Ellipse 307" cx="1.997" cy="1.997" r="1.997" transform="translate(7.027 20.532)" fill="#f77c7c"/>
      <circle id="Ellipse_308" data-name="Ellipse 308" cx="0.717" cy="0.717" r="0.717" transform="translate(12.738 21.813)" fill="#f77c7c"/>
    </g>
  </g>
</svg>
