<svg xmlns="http://www.w3.org/2000/svg" width="20.067" height="23.941" viewBox="0 0 20.067 23.941">
  <g id="pwa-stop" transform="translate(-5031.729 -6517.63)">
    <g id="pwa-stop-2" data-name="pwa-stop" transform="translate(1185 39)">
      <g id="website" transform="translate(3845.029 6475.897)">
        <path id="Path_311" data-name="Path 311" d="M82.67,198.91a1.586,1.586,0,0,1-.4.963,1.536,1.536,0,0,1-.972.4H69.177a1.37,1.37,0,0,1-1.377-1.359V189.7H82.67v5.813A16.758,16.758,0,0,1,82.67,198.91Z" transform="translate(-64.533 -180.817)" fill="#478aff" opacity="0.5"/>
        <path id="Path_312" data-name="Path 312" d="M50.714,53H35.353A2.34,2.34,0,0,0,33,55.322v12.85a3.121,3.121,0,0,0,3.136,3.1H49.931a3.121,3.121,0,0,0,3.136-3.1.783.783,0,0,0-1.566,0,1.557,1.557,0,0,1-1.566,1.548h-13.8a1.557,1.557,0,0,1-1.566-1.548V57.684H51.5V64.3a.783.783,0,0,0,1.566,0V55.322A2.34,2.34,0,0,0,50.714,53Zm-3.172,1.548a.774.774,0,1,1-.783.774A.779.779,0,0,1,47.542,54.548Zm3.919.774a.783.783,0,1,1-.783-.774A.779.779,0,0,1,51.461,55.322Zm-16.895,0a.779.779,0,0,1,.783-.774h9.97a2.3,2.3,0,0,0,.014,1.588H34.566Z" transform="translate(-31.299 -50.268)" fill="#478aff"/>
        <path id="Path_486" data-name="Path 486" d="M2.678-6.3H.5v4.6H2.027V-2.8h.651A1.708,1.708,0,0,0,4.467-4.557,1.7,1.7,0,0,0,2.678-6.3Zm-.3,2.236H2.027v-.973h.355a.464.464,0,0,1,.493.487A.464.464,0,0,1,2.382-4.064ZM9.748-6.3,9.161-4.032,8.176-6.3H7.624L6.642-4.04l-.6-2.26H4.388L5.822-1.7H7.15L7.9-3.612,8.65-1.7H9.978l1.427-4.6Zm4.676,4.6h1.7L14.279-6.3H12.74L10.905-1.7h1.651l.206-.638h1.465Zm-.479-1.71h-.9l.447-1.268Z" transform="translate(4.467 18.85)" fill="#478aff"/>
      </g>
    </g>
    <circle id="Ellipse_267" data-name="Ellipse 267" cx="1.997" cy="1.997" r="1.997" transform="translate(5039.071 6537.576)" fill="#478aff"/>
    <circle id="Ellipse_268" data-name="Ellipse 268" cx="0.717" cy="0.717" r="0.717" transform="translate(5044.782 6538.857)" fill="#478aff"/>
  </g>
</svg>
