<svg xmlns="http://www.w3.org/2000/svg" width="18.843" height="22.384" viewBox="0 0 18.843 22.384">
  <g id="responsive-stop" transform="translate(-18.339 -20.353)">
    <g id="website" transform="translate(16.945 18.114)">
      <path id="Path_311" data-name="Path 311" d="M81.764,198.349a1.489,1.489,0,0,1-.38.9,1.442,1.442,0,0,1-.913.376H69.093a1.287,1.287,0,0,1-1.293-1.276V189.7H81.764v5.459A15.736,15.736,0,0,1,81.764,198.349Z" transform="translate(-64.935 -181.685)" fill="#a0e4d5"/>
      <path id="Path_312" data-name="Path 312" d="M49.634,53H35.21A2.2,2.2,0,0,0,33,55.18V67.247a2.931,2.931,0,0,0,2.945,2.907H48.9a2.931,2.931,0,0,0,2.945-2.907.735.735,0,0,0-1.47,0A1.462,1.462,0,0,1,48.9,68.7H35.945a1.462,1.462,0,0,1-1.47-1.453V57.4h15.9v6.215a.735.735,0,0,0,1.47,0V55.18A2.2,2.2,0,0,0,49.634,53Zm-2.979,1.453a.727.727,0,1,1-.735.727A.731.731,0,0,1,46.655,54.453Zm3.68.727a.735.735,0,1,1-.735-.727A.731.731,0,0,1,50.335,55.18Zm-15.865,0a.731.731,0,0,1,.735-.727h9.363a2.157,2.157,0,0,0,.013,1.491H34.47Z" transform="translate(-31.606 -50.761)" fill="#07d4bf"/>
      <g id="Rectangle_13" data-name="Rectangle 13" transform="translate(5.053 9.053)" fill="none" stroke="#07d4bf" stroke-width="1">
        <rect width="4" height="7" stroke="none"/>
        <rect x="0.5" y="0.5" width="3" height="6" fill="none"/>
      </g>
      <g id="Rectangle_14" data-name="Rectangle 14" transform="translate(10.053 10.053)" fill="none" stroke="#07d4bf" stroke-width="1">
        <rect width="4" height="6" stroke="none"/>
        <rect x="0.5" y="0.5" width="3" height="5" fill="none"/>
      </g>
      <circle id="Ellipse_299" data-name="Ellipse 299" cx="1.997" cy="1.997" r="1.997" transform="translate(7.124 20.629)" fill="#07d4bf"/>
      <circle id="Ellipse_300" data-name="Ellipse 300" cx="0.717" cy="0.717" r="0.717" transform="translate(12.834 21.91)" fill="#07d4bf"/>
    </g>
  </g>
</svg>
