<svg xmlns="http://www.w3.org/2000/svg" width="21.237" height="27.158" viewBox="0 0 21.237 27.158">
  <g id="shopify-stop" transform="translate(-17.37 -16.579)">
    <g id="shopify" transform="translate(18.028 16.425)">
      <path id="Path_483" data-name="Path 483" d="M170.035,36.591l-1.816-.135-1.336-1.328a.33.33,0,0,0-.186-.085l-.973,19.9,6.971-1.508s-2.447-16.546-2.463-16.659a.218.218,0,0,0-.2-.183" transform="translate(-152.819 -31.602)" fill="#95cf7d" opacity="0.45"/>
      <path id="Path_482" data-name="Path 482" d="M17.413,5.171a.218.218,0,0,0-.2-.183L15.4,4.853s-1.2-1.2-1.336-1.328a.548.548,0,0,0-.491-.063l-.674.208c-.4-1.158-1.112-2.221-2.361-2.221-.034,0-.07,0-.105,0A1.518,1.518,0,0,0,9.257.779c-2.909,0-4.3,3.637-4.735,5.485L2.485,6.9c-.631.2-.651.218-.734.812-.062.45-1.714,13.22-1.714,13.22L12.9,23.339l6.971-1.508S17.429,5.285,17.413,5.171ZM12.188,3.891,11.1,4.228c0-.077,0-.152,0-.235a5.34,5.34,0,0,0-.26-1.758C11.483,2.316,11.912,3.048,12.188,3.891ZM10.042,2.378a5.4,5.4,0,0,1,.3,1.96c0,.044,0,.085,0,.126l-2.248.7a3.845,3.845,0,0,1,1.954-2.782Zm-.864-.818a.657.657,0,0,1,.373.126C8.618,2.124,7.618,3.229,7.2,5.436l-1.777.55C5.913,4.3,7.087,1.559,9.177,1.559Z" fill="none" stroke="#95cf7d" stroke-width="1.25"/>
      <path id="Path_484" data-name="Path 484" d="M46.678,100.584l-.86,2.557a3.954,3.954,0,0,0-1.676-.4c-1.353,0-1.422.849-1.422,1.063,0,1.168,3.044,1.615,3.044,4.351a3.226,3.226,0,0,1-3.206,3.538,4.46,4.46,0,0,1-3.338-1.375l.591-1.954a4.228,4.228,0,0,0,2.141,1,.864.864,0,0,0,.9-.872c0-1.523-2.5-1.591-2.5-4.094,0-2.107,1.512-4.146,4.565-4.146a3.755,3.755,0,0,1,1.757.337" transform="translate(-36.14 -91.743)" fill="none" stroke="#95cf7d" stroke-linecap="round" stroke-linejoin="round" stroke-width="1.25"/>
      <circle id="Ellipse_311" data-name="Ellipse 311" cx="1.997" cy="1.997" r="1.997" transform="translate(1.042 23.317)" fill="#95cf7d"/>
      <circle id="Ellipse_312" data-name="Ellipse 312" cx="0.717" cy="0.717" r="0.717" transform="translate(6.752 24.598)" fill="#95cf7d"/>
    </g>
  </g>
</svg>
