<svg xmlns="http://www.w3.org/2000/svg" width="26.832" height="28.172" viewBox="0 0 26.832 28.172">
  <g id="symfony-stop" transform="translate(-4206.552 -6647.712)">
    <g id="Group_366" data-name="Group 366" transform="translate(2808.63 6471.63)">
      <g id="Group_314" data-name="Group 314" transform="translate(1399 176)">
        <g id="Background" transform="translate(0.833 0.833)">
          <circle id="Ellipse_218" data-name="Ellipse 218" cx="9" cy="9" r="9" transform="translate(4.537 6.537)" fill="#9d9fa1" opacity="0.4"/>
          <path id="Subtraction_1" data-name="Subtraction 1" d="M10.948.074c-.3.037-.78.109-1.066.162S9.094.409,8.768.5,7.93.78,7.631.9s-.716.311-.924.418-.592.327-.853.488-.719.48-1.019.708A13.66,13.66,0,0,0,3.68,3.544c-.335.337-.781.832-.991,1.1s-.5.673-.652.9-.39.633-.535.9-.37.739-.5,1.047-.311.8-.406,1.1S.373,9.365.309,9.659.149,10.512.1,10.9A11.206,11.206,0,0,0,0,12.459a10.178,10.178,0,0,0,.119,1.68c.065.455.193,1.118.284,1.473s.243.859.338,1.12.277.7.406.986.38.763.558,1.071.483.779.678,1.047.546.706.78.974a12.34,12.34,0,0,0,.872.885c.245.219.583.506.753.638s.51.377.758.544a14.244,14.244,0,0,0,1.256.712,13.848,13.848,0,0,0,1.445.623c.352.119.885.273,1.185.341s.875.169,1.28.223a11.854,11.854,0,0,0,1.374.1,11.852,11.852,0,0,0,1.374-.1c.4-.054.98-.155,1.28-.224s.8-.211,1.114-.316.814-.3,1.114-.441.737-.358.972-.492.587-.354.782-.489.494-.353.663-.484.509-.417.753-.636a12.34,12.34,0,0,0,.871-.885c.235-.268.585-.706.78-.974s.5-.739.678-1.047.429-.79.558-1.071.311-.725.406-.986.247-.765.338-1.12.219-1.023.284-1.485a10.636,10.636,0,0,0,.118-1.7,10.545,10.545,0,0,0-.1-1.546c-.053-.375-.151-.934-.219-1.242s-.214-.834-.326-1.169-.3-.839-.424-1.12-.329-.708-.462-.949-.363-.625-.511-.852-.423-.611-.61-.852-.58-.687-.872-.99-.724-.71-.958-.9-.565-.45-.735-.572-.5-.339-.735-.483-.661-.375-.948-.514S16.54.9,16.28.8,15.55.545,15.237.457,14.465.262,14.218.219,13.485.109,13.14.068A10.619,10.619,0,0,0,12,0C11.722,0,11.247.037,10.948.074Z" fill="none" stroke="#9d9fa1" stroke-width="1.5"/>
          <circle id="Ellipse_287" data-name="Ellipse 287" cx="1.997" cy="1.997" r="1.997" transform="matrix(0.883, 0.469, -0.469, 0.883, -0.036, 21.67)" fill="#9d9fa1"/>
          <circle id="Ellipse_288" data-name="Ellipse 288" cx="0.717" cy="0.717" r="0.717" transform="matrix(0.883, 0.469, -0.469, 0.883, 4.404, 25.482)" fill="#9d9fa1"/>
        </g>
      </g>
      <path id="Path_1" data-name="Path 1" d="M97.2,95.174a4.349,4.349,0,0,0-.663.219,5.345,5.345,0,0,0-.711.4,5.857,5.857,0,0,0-.689.569,8.907,8.907,0,0,0-.593.675c-.156.2-.4.562-.549.8s-.361.635-.479.876-.315.7-.438,1.023-.227.589-.231.6-.22-.188-.481-.432-.623-.558-.806-.7a4.914,4.914,0,0,0-.616-.4,4.977,4.977,0,0,0-.616-.252,3.572,3.572,0,0,0-.782-.132,2.835,2.835,0,0,0-.806.053,3.869,3.869,0,0,0-.758.284A2.769,2.769,0,0,0,86.809,99.9a3.81,3.81,0,0,0-.225.609,2.05,2.05,0,0,0-.053.67,3.431,3.431,0,0,0,.127.682,4.111,4.111,0,0,0,.285.633,7.623,7.623,0,0,0,.73.925,6.088,6.088,0,0,1,.669.852,1.105,1.105,0,0,1,.12.463,1.118,1.118,0,0,1-.131.483,1.471,1.471,0,0,1-.273.385,1.892,1.892,0,0,1-.355.22,1.285,1.285,0,0,1-.545.1,1.913,1.913,0,0,1-.569-.082,1.6,1.6,0,0,1-.422-.242.883.883,0,0,1-.227-.28c-.034-.1-.006-.2.135-.487a1.991,1.991,0,0,0,.2-.609,1.33,1.33,0,0,0-.043-.438,1.156,1.156,0,0,0-.184-.335.986.986,0,0,0-.239-.2,1.344,1.344,0,0,0-.332-.1.674.674,0,0,0-.4.046,1.189,1.189,0,0,0-.277.163.892.892,0,0,0-.154.216,1.875,1.875,0,0,0-.114.377,1.354,1.354,0,0,0,0,.523,2.032,2.032,0,0,0,.641,1.128,3.354,3.354,0,0,0,.64.45,5,5,0,0,0,.705.284,4.224,4.224,0,0,0,.877.133,2.9,2.9,0,0,0,.9-.058,3.939,3.939,0,0,0,.663-.219,3.63,3.63,0,0,0,.569-.355,2.919,2.919,0,0,0,.459-.458,3.371,3.371,0,0,0,.3-.5,2.878,2.878,0,0,0,.176-.609,1.863,1.863,0,0,0,.007-.633,3.15,3.15,0,0,0-.185-.609,4.454,4.454,0,0,0-.4-.682c-.146-.2-.471-.6-.723-.889a5.948,5.948,0,0,1-.537-.682,1.58,1.58,0,0,1-.115-.353,1.325,1.325,0,0,1,.007-.414,1.4,1.4,0,0,1,.21-.45,1.064,1.064,0,0,1,.439-.362.95.95,0,0,1,.652-.1,2.653,2.653,0,0,1,.687.147,3.987,3.987,0,0,1,.6.31,10.867,10.867,0,0,1,.939.775c.523.473.64.6.617.682-.016.054-.122.47-.236.925s-.295,1.3-.4,1.875-.271,1.452-.365,1.948-.262,1.273-.372,1.729S91,108.533,90.9,108.8a9.342,9.342,0,0,1-.374.876,5.83,5.83,0,0,1-.434.7,3.435,3.435,0,0,1-.472.506,2.962,2.962,0,0,1-.474.307,2.024,2.024,0,0,1-.506.151c-.233.031-.282.023-.369-.061a.314.314,0,0,1-.1-.183.511.511,0,0,1,.037-.165,1.085,1.085,0,0,1,.261-.243.523.523,0,0,0,.261-.34,2.014,2.014,0,0,0,.026-.4.917.917,0,0,0-.143-.442.929.929,0,0,0-.368-.341.941.941,0,0,0-.5-.122,1.286,1.286,0,0,0-.475.1,1.6,1.6,0,0,0-.391.277,1.623,1.623,0,0,0-.255.338,1.545,1.545,0,0,0-.1.45,1.417,1.417,0,0,0,.052.536,1.617,1.617,0,0,0,.261.463,1.838,1.838,0,0,0,.417.35,2.663,2.663,0,0,0,.516.207,3.1,3.1,0,0,0,.663.075,3.959,3.959,0,0,0,.687-.068,5.518,5.518,0,0,0,.687-.217,5.405,5.405,0,0,0,.806-.433,6.831,6.831,0,0,0,.824-.671,9.717,9.717,0,0,0,.669-.729c.15-.187.393-.527.542-.755s.4-.688.569-1.023.385-.85.49-1.144.256-.777.337-1.071.2-.788.27-1.1.214-1.075.325-1.7l.2-1.144a8.577,8.577,0,0,0,1.864-.092,4.47,4.47,0,0,0,.735-.272,2.917,2.917,0,0,0,.655-.446,2.074,2.074,0,0,0,.391-.5,1.123,1.123,0,0,0,.114-.536.935.935,0,0,0-.108-.485,1.042,1.042,0,0,0-.272-.305.642.642,0,0,0-.332-.111,1.068,1.068,0,0,0-.355.09.934.934,0,0,0-.3.23,1.1,1.1,0,0,0-.154.3c-.039.136-.021.213.132.552.168.372.174.4.105.523a.94.94,0,0,1-.308.261,2.82,2.82,0,0,1-.52.209,3.608,3.608,0,0,1-.877.076,2.969,2.969,0,0,1-.63-.038,2.478,2.478,0,0,1,.062-.621c.055-.321.175-.946.267-1.388s.252-1.066.355-1.388a8.233,8.233,0,0,1,.385-.974,2.914,2.914,0,0,1,.53-.735,1.568,1.568,0,0,1,.618-.455,1.812,1.812,0,0,1,.592-.114,1.108,1.108,0,0,1,.427.06.516.516,0,0,1,.153.118.363.363,0,0,1,.036.163,1.3,1.3,0,0,1-.143.39,1.039,1.039,0,0,0-.142.523.814.814,0,0,0,.1.414,1.011,1.011,0,0,0,.2.243,1.285,1.285,0,0,0,.242.13,1.213,1.213,0,0,0,.357.06,1.113,1.113,0,0,0,.4-.085,1.069,1.069,0,0,0,.31-.23,1.48,1.48,0,0,0,.208-.41,1.138,1.138,0,0,0,.057-.536,1.43,1.43,0,0,0-.142-.463,1.588,1.588,0,0,0-.272-.335,2.431,2.431,0,0,0-.4-.261,2.663,2.663,0,0,0-.545-.187,3.957,3.957,0,0,0-.711-.063A4.3,4.3,0,0,0,97.2,95.174Z" transform="translate(1319.335 86.359)" fill="#9d9fa1"/>
    </g>
  </g>
</svg>
