<svg xmlns="http://www.w3.org/2000/svg" width="25.042" height="24.04" viewBox="0 0 25.042 24.04">
  <g id="wordpress-stop" transform="translate(-4208.212 -6648.576)">
    <g id="wordpress" transform="translate(4454.989 6093.227)">
      <circle id="Ellipse_199" data-name="Ellipse 199" cx="9.246" cy="9.246" r="9.246" transform="translate(-244.238 560.897)" fill="#9d9fa1" opacity="0.4"/>
      <g id="Group_297" data-name="Group 297" transform="translate(-246.777 557.075)">
        <path id="Path_453" data-name="Path 453" d="M-221.841,567.014l-5.391,13.478a1.4,1.4,0,0,1-1.285.882h0a1.4,1.4,0,0,1-1.285-.856l-3.955-9.4-3.754,9.322a1.359,1.359,0,0,1-1.26.882h-.025a1.4,1.4,0,0,1-1.285-.857l-6.651-15.8a.662.662,0,0,1,.328-.831.662.662,0,0,1,.831.328l6.651,15.8c0,.025.025.076.126.076a.157.157,0,0,0,.126-.076l4.232-10.506-2.041-4.812a.661.661,0,0,1,.328-.831.661.661,0,0,1,.831.328l2.116,5.039,4.56,10.833c0,.025.025.076.126.076a.157.157,0,0,0,.126-.076L-223,566.535c.025-.025,0-.076,0-.126l-2.544-4.006a.649.649,0,0,1,.2-.882.614.614,0,0,1,.857.2l2.545,4.006A1.447,1.447,0,0,1-221.841,567.014Z" transform="translate(246.777 -561.428)" fill="#9d9fa1"/>
      </g>
      <g id="Group_298" data-name="Group 298" transform="translate(-246.777 557.075)">
        <path id="Path_454" data-name="Path 454" d="M-221.841,567.014l-5.391,13.478a1.4,1.4,0,0,1-1.285.882h0a1.4,1.4,0,0,1-1.285-.856l-3.955-9.4-3.754,9.322a1.359,1.359,0,0,1-1.26.882h-.025a1.4,1.4,0,0,1-1.285-.857l-6.651-15.8a.662.662,0,0,1,.328-.831.662.662,0,0,1,.831.328l6.651,15.8c0,.025.025.076.126.076a.157.157,0,0,0,.126-.076l4.232-10.506-2.041-4.812a.661.661,0,0,1,.328-.831.661.661,0,0,1,.831.328l2.116,5.039,4.56,10.833c0,.025.025.076.126.076a.157.157,0,0,0,.126-.076L-223,566.535c.025-.025,0-.076,0-.126l-2.544-4.006a.649.649,0,0,1,.2-.882.614.614,0,0,1,.857.2l2.545,4.006A1.447,1.447,0,0,1-221.841,567.014Z" transform="translate(246.777 -561.428)" fill="#9d9fa1"/>
      </g>
      <circle id="Ellipse_315" data-name="Ellipse 315" cx="1.997" cy="1.997" r="1.997" transform="translate(-243.917 555.349)" fill="#9d9fa1"/>
      <circle id="Ellipse_316" data-name="Ellipse 316" cx="0.717" cy="0.717" r="0.717" transform="translate(-238.207 556.63)" fill="#9d9fa1"/>
    </g>
  </g>
</svg>
