<svg xmlns="http://www.w3.org/2000/svg" width="24.092" height="26.697" viewBox="0 0 24.092 26.697">
  <g id="xamarin-stop" transform="translate(-5121.382 -6514.874)">
    <g id="xamarin-stop-2" data-name="xamarin-stop" transform="translate(5105.002 6497.833)">
      <g id="xamarian" transform="translate(269.074 -334.562)">
        <path id="Path_3338" data-name="Path 3338" d="M-238.415,357.6h8.593a.637.637,0,0,1,.563.363l4.394,8.5a.854.854,0,0,1,0,.727l-4.351,8.454a.637.637,0,0,1-.563.363h-8.7a.637.637,0,0,1-.563-.363l-4.351-8.454a.854.854,0,0,1,0-.727l4.394-8.5a.726.726,0,0,1,.584-.363Z" transform="translate(-4.764 -4.957)" fill="#3498db" opacity="0.5"/>
        <g id="Group_2623" data-name="Group 2623" transform="translate(-252.694 351.601)">
          <path id="Path_3339" data-name="Path 3339" d="M-234.973,374.448H-246.31a.723.723,0,0,1-.63-.363l-5.644-9.835a.772.772,0,0,1,0-.727l5.741-9.859a.723.723,0,0,1,.63-.363h11.192a.723.723,0,0,1,.63.363l5.717,9.859a.772.772,0,0,1,0,.727l-5.644,9.835a.8.8,0,0,1-.655.363Zm-10.635-1.211h9.932a.723.723,0,0,0,.63-.363l4.942-8.624a.772.772,0,0,0,0-.727l-5.039-8.672a.723.723,0,0,0-.63-.363h-9.787a.723.723,0,0,0-.63.363l-5.039,8.672a.772.772,0,0,0,0,.727l4.966,8.624a.8.8,0,0,0,.655.363Z" transform="translate(252.675 -353.3)" fill="#3498db"/>
        </g>
        <g id="Group_2624" data-name="Group 2624" transform="translate(-244.735 356.538)">
          <path id="Path_3340" data-name="Path 3340" d="M-219.5,384.659h0a.6.6,0,0,1-.281-.367.6.6,0,0,1,.063-.457l2.64-4.506-2.665-4.748a.606.606,0,0,1-.05-.462.606.606,0,0,1,.292-.362h0a.606.606,0,0,1,.462-.05.606.606,0,0,1,.362.292l3,5.354-2.98,5.111a.648.648,0,0,1-.843.2Z" transform="translate(219.82 -373.68)" fill="#3498db"/>
        </g>
        <g id="Group_2625" data-name="Group 2625" transform="translate(-240.709 356.629)">
          <path id="Path_3341" data-name="Path 3341" d="M-200.2,384.822l-3-5.208,3-5.257a.6.6,0,0,1,.367-.281.6.6,0,0,1,.457.063h0a.6.6,0,0,1,.281.367.6.6,0,0,1-.063.457l-2.665,4.651,2.641,4.6a.6.6,0,0,1,.063.457.6.6,0,0,1-.281.367h0a.58.58,0,0,1-.445.06.58.58,0,0,1-.355-.276Z" transform="translate(203.2 -374.056)" fill="#3498db"/>
        </g>
      </g>
    </g>
    <circle id="Ellipse_271" data-name="Ellipse 271" cx="1.997" cy="1.997" r="1.997" transform="translate(5130.071 6537.576)" fill="#3498db"/>
    <circle id="Ellipse_272" data-name="Ellipse 272" cx="0.717" cy="0.717" r="0.717" transform="translate(5135.782 6538.857)" fill="#3498db"/>
  </g>
</svg>
