<svg xmlns="http://www.w3.org/2000/svg" width="29.797" height="18.564" viewBox="0 0 29.797 18.564">
  <g id="zend-stop" transform="translate(-16.42 -20.426)">
    <g id="zend" transform="translate(265.52 -341.132)">
      <circle id="Ellipse_211" data-name="Ellipse 211" cx="8.83" cy="8.83" r="8.83" transform="translate(-248.195 362.463)" fill="#07d4bf" opacity="0.4"/>
      <g id="Group_305" data-name="Group 305" transform="translate(-249.1 361.559)">
        <path id="Path_467" data-name="Path 467" d="M-237.805,389.372h-9.267a.935.935,0,0,1-.749-1.5l8.175-10.515h-8.674a.772.772,0,0,1-.78-.78h0a.772.772,0,0,1,.78-.78h9.953a.935.935,0,0,1,.749,1.5l-8.175,10.515h7.987a.772.772,0,0,1,.78.78h0A.772.772,0,0,1-237.805,389.372Z" transform="translate(249.1 -375.8)" fill="#07d4bf"/>
      </g>
      <g id="Group_306" data-name="Group 306" transform="translate(-234.716 362.183)">
        <path id="Path_468" data-name="Path 468" d="M-189.147,379.36H-203a1.545,1.545,0,0,1,1.56-1.56h13.853A1.565,1.565,0,0,1-189.147,379.36Z" transform="translate(203 -377.8)" fill="#07d4bf"/>
      </g>
      <g id="Group_307" data-name="Group 307" transform="translate(-234.716 367.58)">
        <path id="Path_469" data-name="Path 469" d="M-195.325,396.66H-203a1.545,1.545,0,0,1,1.56-1.56h7.675A1.565,1.565,0,0,1-195.325,396.66Z" transform="translate(203 -395.1)" fill="#07d4bf"/>
      </g>
      <g id="Group_308" data-name="Group 308" transform="translate(-234.623 372.978)">
        <path id="Path_470" data-name="Path 470" d="M-199.206,413.96H-202.7a1.545,1.545,0,0,1,1.56-1.56h3.494A1.545,1.545,0,0,1-199.206,413.96Z" transform="translate(202.7 -412.4)" fill="#07d4bf"/>
      </g>
      <ellipse id="Ellipse_285" data-name="Ellipse 285" cx="1.997" cy="1.997" rx="1.997" ry="1.997" transform="translate(-228.301 375.875)" fill="#07d4bf"/>
      <ellipse id="Ellipse_286" data-name="Ellipse 286" cx="0.717" cy="0.717" rx="0.717" ry="0.717" transform="translate(-231.451 377.156)" fill="#07d4bf"/>
    </g>
  </g>
</svg>
