<?xml version="1.0" encoding="utf-8"?>
<!-- Generator: Adobe Illustrator 24.2.3, SVG Export Plug-In . SVG Version: 6.00 Build 0)  -->
<svg version="1.1" id="Layer_1" xmlns="http://www.w3.org/2000/svg" xmlns:xlink="http://www.w3.org/1999/xlink" x="0px" y="0px"
	 viewBox="0 0 512 512" style="enable-background:new 0 0 512 512;" xml:space="preserve">
<style type="text/css">
	.st0{opacity:0.4;fill:#006B9A;}
	.st1{fill:#006B9A;}
</style>
<path class="st0" d="M399.2,394.4c0,0-2.3,14.9-8.9,21.6c-7.2,7.2-16.9,8.6-21.6,8.9H100.4c-16.8,0-30.5-13.7-30.5-30.5V187.8h329.3
	c0,43.5,0,86.9,0,130.4C400.3,331.1,399.2,394.4,399.2,394.4z"/>
<path d="M347.1,303.6l10.2-49.4c1-5.1-0.2-10.3-3.5-14.4c-3.3-4-8.2-6.3-13.4-6.3H201.8c-5.4-26.4-28.7-45.7-56.1-45.7
	c-9.5,0-17.2,7.7-17.2,17.2c0,9.5,7.7,17.2,17.2,17.2c11.6,0,21.3,8.7,22.6,20.2c0.1,0.6,0.2,1.1,0.3,1.7l13,60.1c0,0,0,0.1,0,0.1
	c5.3,23.8,26.1,40.4,50.4,40.4h64.4C320.9,344.7,342.1,327.5,347.1,303.6z M313.4,296.6c-1.7,7.9-8.8,13.7-16.9,13.7h-64.4
	c-8.1,0-15-5.5-16.8-13.4l-6.3-28.9h110.2L313.4,296.6z M424.9,52.7H87.1c-28.5,0-51.7,23.2-51.7,51.7v286.1
	c0,38,30.9,68.9,68.9,68.9h303.3c38,0,68.9-30.9,68.9-68.9c0-9.5-7.7-17.2-17.2-17.2s-17.2,7.7-17.2,17.2c0,19-15.5,34.5-34.5,34.5
	H104.4c-19,0-34.5-15.5-34.5-34.5V156.9h372.2v147.3c0,9.5,7.7,17.2,17.2,17.2s17.2-7.7,17.2-17.2V104.4
	C476.6,75.8,453.4,52.7,424.9,52.7z M355.1,87.1c9.5,0,17.2,7.7,17.2,17.2s-7.7,17.2-17.2,17.2c-9.5,0-17.2-7.7-17.2-17.2
	S345.6,87.1,355.1,87.1z M441.3,104.4c0,9.5-7.7,17.2-17.2,17.2c-9.5,0-17.2-7.7-17.2-17.2s7.7-17.2,17.2-17.2
	C433.5,87.1,441.3,94.9,441.3,104.4z M69.9,104.4c0-9.5,7.7-17.2,17.2-17.2h219.2c-1.9,5.4-3,11.2-3,17.2c0,6.4,1.2,12.5,3.3,18.1
	H69.9V104.4z M229.3,362c9.5,0,17.2,7.7,17.2,17.2s-7.7,17.2-17.2,17.2c-9.5,0-17.2-7.7-17.2-17.2S219.8,362,229.3,362z M299.1,362
	c9.5,0,17.2,7.7,17.2,17.2s-7.7,17.2-17.2,17.2c-9.5,0-17.2-7.7-17.2-17.2S289.6,362,299.1,362z"/>
<circle class="st1" cx="18.1" cy="18.1" r="18.1"/>
<circle class="st1" cx="60.2" cy="34.7" r="9.7"/>
<circle class="st1" cx="439.5" cy="488" r="21.9"/>
<circle class="st1" cx="501.8" cy="501.8" r="10.2"/>
</svg>
