<?xml version="1.0" encoding="utf-8"?>
<!-- Generator: Adobe Illustrator 24.2.3, SVG Export Plug-In . SVG Version: 6.00 Build 0)  -->
<svg version="1.1" id="Layer_1" xmlns="http://www.w3.org/2000/svg" xmlns:xlink="http://www.w3.org/1999/xlink" x="0px" y="0px"
	 viewBox="0 0 512 512" style="enable-background:new 0 0 512 512;" xml:space="preserve">
<style type="text/css">
	.st0{opacity:0.4;fill:#32373C;}
	.st1{fill:#32373C;}
</style>
<path class="st0" d="M435.5,424.3c-47.1-1.3-79.1-2.6-126.3-4l0,0c0,0-119.8,0-155.9,0c-15.9,0-28.9-13-28.9-28.9V195.9h311.8
	c0,17.6,0,35.1,0,52.7C441,307.1,430.7,365.7,435.5,424.3z"/>
<path d="M420.6,57.8H91.4C63.6,57.8,41,80.4,41,108.2V387c0,37,30.1,67.2,67.2,67.2h181.4c9.3,0,16.8-7.5,16.8-16.8
	s-7.5-16.8-16.8-16.8H108.2c-18.5,0-33.6-15.1-33.6-33.6V159.4h362.8v61.3c0,9.3,7.5,16.8,16.8,16.8c9.3,0,16.8-7.5,16.8-16.8V108.2
	C471,80.4,448.4,57.8,420.6,57.8z M352.6,91.4c9.3,0,16.8,7.5,16.8,16.8s-7.5,16.8-16.8,16.8s-16.8-7.5-16.8-16.8
	S343.3,91.4,352.6,91.4z M436.6,108.2c0,9.3-7.5,16.8-16.8,16.8s-16.8-7.5-16.8-16.8s7.5-16.8,16.8-16.8S436.6,98.9,436.6,108.2z
	 M74.6,108.2c0-9.3,7.5-16.8,16.8-16.8h213.7c-1.9,5.3-2.9,10.9-2.9,16.8c0,6.2,1.1,12.1,3.2,17.6H74.6V108.2z M403,360.1
	c-9.3,0-16.8-7.5-16.8-16.8c0-9.3,7.5-16.8,16.8-16.8c9.3,0,16.8,7.5,16.8,16.8C419.8,352.6,412.3,360.1,403,360.1z M458.1,286.7
	c5.8,13.1,12.8,33.4,12.9,56.5c0.1,23.1-6.9,43.8-12.7,57.1c-7.2,16.4-23.4,27-41.3,27c0,0-0.1,0-0.1,0l-53.1-0.1
	c-18.4,0-34.8-11.1-41.8-28.1c-2.6-6.4-4.9-13.5-6.8-21.6c-2.2-9,3.4-18.1,12.4-20.2c9-2.2,18.1,3.4,20.2,12.4
	c1.5,6.4,3.2,11.9,5.2,16.6c1.8,4.4,6.1,7.3,10.8,7.3l53.1,0.1h0c4.6,0,8.7-2.7,10.5-6.9c4.5-10.4,9.9-26.3,9.9-43.6
	c0-17.1-5.4-32.7-9.9-42.8c-1.8-4.1-5.9-6.7-10.7-6.7h-52.4c0,0,0,0,0,0c-5,0-9.1,2.6-10.7,6.9c-2.5,6.4-4.2,11.7-5.5,17.3
	c-1.8,7.5-8.6,12.8-16.3,12.8H216.4l-12.5,12.9l13,13.2h47.5c9.3,0,16.8,7.5,16.8,16.8c0,9.3-7.5,16.8-16.8,16.8h-54.6
	c-4.5,0-8.8-1.8-12-5l-29.4-29.9c-6.4-6.5-6.4-16.9-0.1-23.5l28.9-29.7c3.2-3.3,7.5-5.1,12-5.1h110c1.1-3.4,2.2-6.3,3.1-8.6
	c6.6-17.3,23.1-28.4,42-28.4h0.1h52.4C434.8,260.2,451,270.7,458.1,286.7z"/>
<circle class="st1" cx="23.8" cy="23.8" r="23.8"/>
<circle class="st1" cx="71.9" cy="35.8" r="12"/>
<circle class="st1" cx="486" cy="486" r="26"/>
<circle class="st1" cx="427.6" cy="460.1" r="16.9"/>
</svg>
