<?xml version="1.0" encoding="utf-8"?>
<!-- Generator: Adobe Illustrator 24.2.3, SVG Export Plug-In . SVG Version: 6.00 Build 0)  -->
<svg version="1.1" id="Layer_1" xmlns="http://www.w3.org/2000/svg" xmlns:xlink="http://www.w3.org/1999/xlink" x="0px" y="0px"
	 viewBox="0 0 512 512" style="enable-background:new 0 0 512 512;" xml:space="preserve">
<style type="text/css">
	.st0{opacity:0.38;fill:#7E65FF;enable-background:new    ;}
</style>
<path class="st0" d="M364.9,349.5c0-73.6,0-147.2,0-220.8c0-19.3-15.7-35-35-35H146c-19.3,0-35,15.7-35,35V437c0,19.3,15.7,35,35,35
	h183.9c32.9,0,35-35,35-35S367.3,354.5,364.9,349.5z"/>
<path d="M401,332.1V80c0-22.1-17.9-40-40-40H151c-22.1,0-40,17.9-40,40v352c0,22.1,17.9,40,40,40h210c22.1,0,40-17.9,40-40
	c0-11,9-20,20-20s20,9,20,20c0,44.1-35.9,80-80,80H151c-44.1,0-80-35.9-80-80V80c0-44.1,35.9-80,80-80h210c44.1,0,80,35.9,80,80
	v252.1c0,11-9,20-20,20S401,343.2,401,332.1z M236,421.1c0,11,9,20,20,20s20-9,20-20s-9-20-20-20S236,410.1,236,421.1z M276,111.1
	c11,0,20-9,20-20s-9-20-20-20h-40c-11,0-20,9-20,20s9,20,20,20H276z M346,357.1c11,0,20-9,20-20v-122c0-11-9-20-20-20s-20,9-20,20
	v102h-20v-142c0-11-9-20-20-20s-20,9-20,20v142h-20v-62c0-11-9-20-20-20s-20,9-20,20v62h-20v-102c0-11-9-20-20-20s-20,9-20,20v122
	c0,11,9,20,20,20H346z"/>
<circle id="Ellipse_11" class="st0" cx="459.7" cy="26.6" r="26.6"/>
<ellipse id="Ellipse_12" transform="matrix(0.829 -0.5592 0.5592 0.829 49.7696 291.6664)" class="st0" cx="501.9" cy="64.4" rx="10.1" ry="10.1"/>
<ellipse id="Ellipse_13" transform="matrix(0.829 -0.5592 0.5592 0.829 -262.2725 100.312)" class="st0" cx="32.9" cy="479.1" rx="32.9" ry="32.9"/>
<ellipse id="Ellipse_14" transform="matrix(0.829 -0.5592 0.5592 0.829 -217.3004 90.2701)" class="st0" cx="39" cy="400.5" rx="12.5" ry="12.5"/>
</svg>
