<?xml version="1.0" encoding="utf-8"?>
<!-- Generator: Adobe Illustrator 24.2.3, SVG Export Plug-In . SVG Version: 6.00 Build 0)  -->
<svg version="1.1" id="Layer_1" xmlns="http://www.w3.org/2000/svg" xmlns:xlink="http://www.w3.org/1999/xlink" x="0px" y="0px"
	 viewBox="0 0 512 512" style="enable-background:new 0 0 512 512;" xml:space="preserve">
<style type="text/css">
	.st0{fill:#A0E4D5;}
</style>
<path class="st0" d="M398.3,394.4c-0.9,6.5-2.4,14.8-9,21.4c-7.3,7.2-17,8.6-21.6,8.9H98.4c-16.9,0-30.6-13.6-30.6-30.2V189.7h330.5
	c0,43.1,0,86.1,0,129.2C399.5,332,402.1,366.2,398.3,394.4z"/>
<path d="M426.7,53H85.3C56.4,53,33,76.2,33,104.6v285.6c0,37.9,31.3,68.8,69.7,68.8h306.6c38.4,0,69.7-30.9,69.7-68.8
	c0-9.5-7.8-17.2-17.4-17.2s-17.4,7.7-17.4,17.2c0,19-15.6,34.4-34.8,34.4H102.7c-19.2,0-34.8-15.4-34.8-34.4V157.1h376.3v147.1
	c0,9.5,7.8,17.2,17.4,17.2s17.4-7.7,17.4-17.2V104.6C479,76.2,455.6,53,426.7,53z M356.2,87.4c9.6,0,17.4,7.7,17.4,17.2
	s-7.8,17.2-17.4,17.2s-17.4-7.7-17.4-17.2S346.6,87.4,356.2,87.4z M443.3,104.6c0,9.5-7.8,17.2-17.4,17.2s-17.4-7.7-17.4-17.2
	s7.8-17.2,17.4-17.2S443.3,95.1,443.3,104.6z M67.8,104.6c0-9.5,7.8-17.2,17.4-17.2h221.6c-1.9,5.4-3,11.2-3,17.2
	c0,6.4,1.2,12.4,3.3,18.1H67.8V104.6z M151.5,292.1c0,56.9,46.9,103.2,104.5,103.2S360.5,349,360.5,292.1S313.6,188.9,256,188.9
	S151.5,235.2,151.5,292.1z M242.5,309.3h27c-2.2,26.6-8.9,43.6-13.5,49.8C251.5,353,244.7,335.9,242.5,309.3z M242.5,274.9
	c2.2-26.6,8.9-43.6,13.5-49.8c4.5,6.2,11.3,23.2,13.5,49.8H242.5z M213.5,237.7c-3,11.2-5,23.9-5.9,37.3h-19.1
	C192.4,259.9,201.4,246.9,213.5,237.7z M188.5,309.3h19.1c0.9,13.4,2.9,26,5.9,37.3C201.4,337.4,192.4,324.3,188.5,309.3z
	 M298.5,346.6c3-11.2,5-23.9,5.9-37.3h19.1C319.6,324.3,310.6,337.4,298.5,346.6z M323.5,274.9h-19.1c-0.9-13.4-2.9-26-5.9-37.3
	C310.6,246.9,319.6,259.9,323.5,274.9z"/>
<circle id="Ellipse_126" class="st0" cx="22.8" cy="22.8" r="22.8"/>
<circle id="Ellipse_127" class="st0" cx="460.4" cy="480.5" r="22.8"/>
<circle id="Ellipse_128" class="st0" cx="502.8" cy="502.8" r="9.2"/>
</svg>
