<?xml version="1.0" encoding="utf-8"?>
<!-- Generator: Adobe Illustrator 23.0.6, SVG Export Plug-In . SVG Version: 6.00 Build 0)  -->
<svg version="1.1" id="Layer_1" xmlns="http://www.w3.org/2000/svg" xmlns:xlink="http://www.w3.org/1999/xlink" x="0px" y="0px"
	 viewBox="0 0 316 322.7" style="enable-background:new 0 0 316 322.7;" xml:space="preserve">
<style type="text/css">
	.st0{fill:#F9C7D2;}
	.st1{fill:#EF3A6A;}
</style>
<rect x="73.5" y="109.5" class="st0" width="138.3" height="148.2"/>
<path d="M245.9,196.9c5.4,0,9.9-4.4,9.9-9.9v-100c0-21.7-17.7-39.4-39.4-39.4h-31V32.8c0-5.4-4.4-9.9-9.9-9.9H136
	c-5.4,0-9.9,4.4-9.9,9.9v14.8h-31c-21.7,0-39.4,17.7-39.4,39.4v148.8c0,21.7,17.7,39.4,39.4,39.4h121.2c21.7,0,39.4-17.7,39.4-39.4
	c0-5.4-4.4-9.9-9.9-9.9c-5.4,0-9.9,4.4-9.9,9.9c0,10.9-8.8,19.7-19.7,19.7H95.2c-10.9,0-19.7-8.8-19.7-19.7V87.1
	c0-10.9,8.8-19.7,19.7-19.7h31v4.9c0,16.3,13.3,29.6,29.6,29.6c16.3,0,29.6-13.3,29.6-29.6v-4.9h31c10.9,0,19.7,8.8,19.7,19.7v100
	C236.1,192.5,240.5,196.9,245.9,196.9z M165.6,72.3c0,5.4-4.4,9.9-9.9,9.9c-5.4,0-9.9-4.4-9.9-9.9V42.7h19.7V72.3z M208.7,135.2
	c4.5,3.1,5.6,9.2,2.5,13.7l-43.9,63.2c-0.1,0.2-0.3,0.4-0.4,0.6c-4.4,5.5-11,8.9-18.1,9.4c-0.6,0-1.1,0.1-1.7,0.1
	c-6.5,0-12.8-2.5-17.5-7c0,0-0.1-0.1-0.1-0.1l-26-25.8c-3.9-3.8-3.9-10.1-0.1-13.9c3.8-3.9,10.1-3.9,13.9-0.1l26,25.7
	c1.5,1.4,3.3,1.6,4.2,1.5c0.9-0.1,2.5-0.4,3.8-1.9l43.6-62.8C198.1,133.2,204.2,132.1,208.7,135.2z"/>
<circle class="st1" cx="279.2" cy="38.4" r="14.3"/>
<circle class="st1" cx="37.4" cy="38.4" r="14.9"/>
<circle class="st1" cx="279.2" cy="149.1" r="6.9"/>
<circle class="st1" cx="37.4" cy="156.1" r="6.9"/>
<circle class="st1" cx="279.2" cy="285.4" r="14.3"/>
<ellipse transform="matrix(0.3352 -0.9421 0.9421 0.3352 -243.8795 224.8794)" class="st1" cx="37.4" cy="285.3" rx="14.3" ry="14.3"/>
</svg>
