<?xml version="1.0" encoding="utf-8"?>
<!-- Generator: Adobe Illustrator 23.0.6, SVG Export Plug-In . SVG Version: 6.00 Build 0)  -->
<svg version="1.1" id="Layer_1" xmlns="http://www.w3.org/2000/svg" xmlns:xlink="http://www.w3.org/1999/xlink" x="0px" y="0px"
	 viewBox="0 0 480.6 436.8" style="enable-background:new 0 0 480.6 436.8;" xml:space="preserve">
<style type="text/css">
	.st0{fill:#FDE7CF;}
	.st1{fill:#F9BC80;}
</style>
<polygon class="st0" points="67.1,307.5 67.1,163.5 379.2,163.5 379.2,365.7 67.1,365.7 "/>
<path d="M412.7,36.5H55.8c-6.2,0-11.3,5-11.3,11.3V377c0,6.2,5,11.3,11.3,11.3h356.9c6.2,0,11.3-5,11.3-11.3V47.8
	C424,41.5,419,36.5,412.7,36.5z M67.1,59h334.4v46H67.1V59z M401.5,365.7H67.1V127.6h334.4V365.7z"/>
<path d="M167.9,301.4c2.2,2.2,5.1,3.3,8,3.3c2.9,0,5.8-1.1,8-3.3c4.4-4.4,4.4-11.5,0-15.9L145,246.7l38.8-38.8
	c4.4-4.4,4.4-11.5,0-15.9c-4.4-4.4-11.5-4.4-15.9,0l-46.8,46.8c-4.4,4.4-4.4,11.5,0,15.9L167.9,301.4z"/>
<path d="M292.7,277.5l-8,8c-4.4,4.4-4.4,11.5,0,15.9c2.2,2.2,5.1,3.3,8,3.3c2.9,0,5.8-1.1,8-3.3l46.8-46.8c4.4-4.4,4.4-11.5,0-15.9
	l-46.8-46.8c-4.4-4.4-11.5-4.4-15.9,0c-4.4,4.4-4.4,11.5,0,15.9l8,8l30.9,30.9L292.7,277.5z"/>
<path d="M210.3,303.8c1.4,0.6,2.9,0.9,4.4,0.9c4.4,0,8.6-2.6,10.4-6.9l39.3-93.6c2.4-5.7-0.3-12.3-6-14.7c-5.7-2.4-12.3,0.3-14.7,6
	l-39.3,93.6C201.9,294.8,204.6,301.4,210.3,303.8z"/>
<path d="M377.8,70.8c-5.9,0-11.5,5.2-11.3,11.3c0.3,6.1,5,11.3,11.3,11.3c5.9,0,11.5-5.2,11.3-11.3
	C388.8,75.9,384.1,70.8,377.8,70.8z"/>
<path d="M342.4,70.8c-5.9,0-11.5,5.2-11.3,11.3c0.3,6.1,5,11.3,11.3,11.3c5.9,0,11.5-5.2,11.3-11.3
	C353.4,75.9,348.7,70.8,342.4,70.8z"/>
<path d="M307,70.8c-5.9,0-11.5,5.2-11.3,11.3c0.3,6.1,4.9,11.3,11.3,11.3c5.9,0,11.5-5.2,11.3-11.3C318,75.9,313.4,70.8,307,70.8z"
	/>
<circle class="st1" cx="21.9" cy="24" r="18"/>
<circle class="st1" cx="58.3" cy="17.8" r="6.2"/>
<circle class="st1" cx="220" cy="418.8" r="18"/>
<circle class="st1" cx="260.3" cy="418.5" r="6.2"/>
<circle class="st1" cx="450.1" cy="220.7" r="18"/>
<circle class="st1" cx="474.4" cy="191.7" r="6.2"/>
</svg>
