<svg xmlns="http://www.w3.org/2000/svg" xmlns:xlink="http://www.w3.org/1999/xlink" width="1190" height="423" viewBox="0 0 1190 423">
  <defs>
    <clipPath id="clip-consulting-sprite">
      <rect width="1190" height="423"/>
    </clipPath>
  </defs>
  <g id="consulting-sprite" clip-path="url(#clip-consulting-sprite)">
    <g id="audit" transform="translate(10.827 12.1)">
      <rect id="Rectangle_1" data-name="Rectangle 1" width="37.861" height="40.571" transform="translate(34.045 46.607)" fill="#ffb4bc"/>
      <path id="Path_1" data-name="Path 1" d="M107.769,70.534a2.716,2.716,0,0,0,2.71-2.71V40.448A10.807,10.807,0,0,0,99.693,29.662H91.206V25.61A2.716,2.716,0,0,0,88.5,22.9H77.683a2.716,2.716,0,0,0-2.71,2.71v4.052H66.486A10.807,10.807,0,0,0,55.7,40.448V81.183A10.807,10.807,0,0,0,66.486,91.969H99.665a10.807,10.807,0,0,0,10.786-10.786,2.71,2.71,0,1,0-5.42,0,5.386,5.386,0,0,1-5.393,5.393H66.513a5.386,5.386,0,0,1-5.393-5.393V40.475a5.386,5.386,0,0,1,5.393-5.393H75v1.341a8.1,8.1,0,0,0,16.206,0V35.082h8.486a5.386,5.386,0,0,1,5.393,5.393V67.851A2.687,2.687,0,0,0,107.769,70.534ZM85.786,36.424a2.71,2.71,0,0,1-5.42,0v-8.1h5.393v8.1Zm11.8,17.219a2.687,2.687,0,0,1,.684,3.75l-12.018,17.3c-.027.055-.082.109-.109.164a6.972,6.972,0,0,1-4.955,2.573c-.164,0-.3.027-.465.027a6.937,6.937,0,0,1-4.791-1.916l-.027-.027-7.118-7.063a2.691,2.691,0,1,1,3.778-3.833l7.118,7.036a1.517,1.517,0,0,0,1.15.411,1.547,1.547,0,0,0,1.04-.52L93.807,54.355A2.705,2.705,0,0,1,97.585,53.643Z" transform="translate(-26.528)"/>
      <circle id="Ellipse_1" data-name="Ellipse 1" cx="3.915" cy="3.915" r="3.915" transform="translate(86.442 23.229)" fill="#ffb4bc"/>
      <circle id="Ellipse_2" data-name="Ellipse 2" cx="4.079" cy="4.079" r="4.079" transform="translate(20.084 23.064)" fill="#ffb4bc"/>
      <circle id="Ellipse_3" data-name="Ellipse 3" cx="1.889" cy="1.889" r="1.889" transform="translate(88.468 55.559)" fill="#ffb4bc"/>
      <circle id="Ellipse_4" data-name="Ellipse 4" cx="1.889" cy="1.889" r="1.889" transform="translate(22.274 57.476)" fill="#ffb4bc"/>
      <circle id="Ellipse_5" data-name="Ellipse 5" cx="3.915" cy="3.915" r="3.915" transform="translate(86.442 90.847)" fill="#ffb4bc"/>
      <circle id="Ellipse_6" data-name="Ellipse 6" cx="3.915" cy="3.915" r="3.915" transform="matrix(0.335, -0.942, 0.942, 0.335, 19.173, 97.104)" fill="#ffb4bc"/>
    </g>
    <g id="code" transform="translate(167.1 29)">
      <path id="Path_2" data-name="Path 2" d="M67.1,189.181V163.5h55.659v36.06H67.1Z" transform="translate(-51.929 -129.412)" fill="#ffd45e"/>
      <path id="Path_3" data-name="Path 3" d="M110.164,36.5H46.515A2.013,2.013,0,0,0,44.5,38.515V97.224a2.013,2.013,0,0,0,2.015,2.015h63.649a2.013,2.013,0,0,0,2.015-2.015V38.515A2,2,0,0,0,110.164,36.5ZM48.53,40.513h59.636v8.2H48.53Zm59.636,54.7H48.53V52.747h59.636Z" transform="translate(-33.359 -25.061)"/>
      <path id="Path_4" data-name="Path 4" d="M126.735,208.8a2.011,2.011,0,0,0,2.853-2.836l-6.937-6.92,6.92-6.92a2.005,2.005,0,0,0-2.836-2.836l-8.346,8.346a2,2,0,0,0,0,2.836Z" transform="translate(-93.587 -150.118)"/>
      <path id="Path_5" data-name="Path 5" d="M283.415,204.454l-1.427,1.427a2.011,2.011,0,0,0,2.853,2.836l8.346-8.346a2,2,0,0,0,0-2.836l-8.346-8.346a2.005,2.005,0,0,0-2.836,2.836l1.427,1.427,5.511,5.511Z" transform="translate(-228.011 -150.035)"/>
      <path id="Path_6" data-name="Path 6" d="M204.684,209.164a2.01,2.01,0,0,0,2.639-1.07l7.009-16.692a2,2,0,0,0-3.692-1.552l-7.009,16.692A1.983,1.983,0,0,0,204.684,209.164Z" transform="translate(-163.975 -150.055)"/>
      <path id="Path_7" data-name="Path 7" d="M368.511,70.8a2.015,2.015,0,1,0,2.015,2.015A2.048,2.048,0,0,0,368.511,70.8Z" transform="translate(-297.93 -53.244)"/>
      <path id="Path_8" data-name="Path 8" d="M333.111,70.8a2.015,2.015,0,1,0,2.015,2.015A2.048,2.048,0,0,0,333.111,70.8Z" transform="translate(-268.844 -53.244)"/>
      <path id="Path_9" data-name="Path 9" d="M297.711,70.8a2.015,2.015,0,1,0,2.015,2.015A2.048,2.048,0,0,0,297.711,70.8Z" transform="translate(-239.757 -53.244)"/>
      <circle id="Ellipse_7" data-name="Ellipse 7" cx="3.5" cy="3.5" r="3.5" transform="translate(3.9 6)" fill="#ffd45e"/>
      <circle id="Ellipse_8" data-name="Ellipse 8" cx="1.106" cy="1.106" r="1.106" transform="translate(12.496 6.999)" fill="#ffd45e"/>
      <circle id="Ellipse_9" data-name="Ellipse 9" cx="3.21" cy="3.21" r="3.21" transform="translate(39.229 76.408)" fill="#ffd45e"/>
      <circle id="Ellipse_10" data-name="Ellipse 10" cx="1.106" cy="1.106" r="1.106" transform="translate(48.52 78.459)" fill="#ffd45e"/>
      <circle id="Ellipse_11" data-name="Ellipse 11" cx="3.21" cy="3.21" r="3.21" transform="translate(80.264 41.079)" fill="#ffd45e"/>
      <circle id="Ellipse_12" data-name="Ellipse 12" cx="1.106" cy="1.106" r="1.106" transform="translate(86.702 38.012)" fill="#ffd45e"/>
    </g>
    <g id="devops" transform="translate(321.919 48)">
      <circle id="Ellipse_13" data-name="Ellipse 13" cx="11.58" cy="11.58" r="11.58" transform="translate(1.618 13.647)" fill="#7abff9"/>
      <circle id="Ellipse_14" data-name="Ellipse 14" cx="4.938" cy="4.938" r="4.938" transform="translate(32.416 19.851)" fill="#7abff9"/>
      <circle id="Ellipse_15" data-name="Ellipse 15" cx="3.503" cy="3.503" r="3.503" transform="translate(64.649 0)" fill="#7abff9"/>
      <circle id="Ellipse_16" data-name="Ellipse 16" cx="1.338" cy="1.338" r="1.338" transform="translate(72.385 5.668)" fill="#7abff9"/>
      <circle id="Ellipse_17" data-name="Ellipse 17" cx="11.58" cy="11.58" r="11.58" transform="translate(49.955 13.647)" fill="#7abff9"/>
      <g id="Group_2" data-name="Group 2" transform="translate(0.081 6.992)">
        <g id="Group_1" data-name="Group 1" transform="translate(0)">
          <path id="Path_10" data-name="Path 10" d="M70.828,33.4a17.171,17.171,0,0,0-24.254.73l-3.26,3.479a2.358,2.358,0,1,0,3.43,3.235L50,37.368a12.443,12.443,0,1,1,.535,17.588L28.986,34.668a17.158,17.158,0,1,0,.73,24.254l3.235-3.43a2.358,2.358,0,0,0-3.43-3.235l-3.235,3.43a12.434,12.434,0,1,1-.535-17.564L47.3,58.41A17.167,17.167,0,0,0,70.828,33.4Z" transform="translate(-0.081 -28.742)"/>
        </g>
      </g>
      <path id="Path_11" data-name="Path 11" d="M59.155,17.9,51.2,24.857l7.493,7.055" transform="translate(-38.683 -13.546)" fill="none" stroke="#000" stroke-linecap="round" stroke-miterlimit="10" stroke-width="2"/>
      <path id="Path_12" data-name="Path 12" d="M257.277,144.9l1.314-10.509L248.3,134.1" transform="translate(-187.835 -101.478)" fill="none" stroke="#000" stroke-linecap="round" stroke-miterlimit="10" stroke-width="2"/>
      <circle id="Ellipse_18" data-name="Ellipse 18" cx="3.503" cy="3.503" r="3.503" transform="translate(2.786 41.599)" fill="#7abff9"/>
      <circle id="Ellipse_19" data-name="Ellipse 19" cx="1.338" cy="1.338" r="1.338" transform="translate(10.522 47.267)" fill="#7abff9"/>
    </g>
    <g id="it-consulting" transform="translate(464 35)">
      <rect id="Rectangle_2" data-name="Rectangle 2" width="52.01" height="40.907" transform="translate(4.438 19.559)" fill="#a0e4d5"/>
      <path id="Path_13" data-name="Path 13" d="M117.5,124.628a10.5,10.5,0,1,0-10.428,10.428A10.436,10.436,0,0,0,117.5,124.628Zm-10.428,6.246a6.265,6.265,0,1,1,0-12.528,6.264,6.264,0,1,1,0,12.528Z" transform="translate(-78.877 -93.345)"/>
      <path id="Path_14" data-name="Path 14" d="M43,12.509H9.364V54.22H5.2v6.264a6.274,6.274,0,0,0,6.264,6.264H70.139A6.274,6.274,0,0,0,76.4,60.484V54.22H72.24V20.855H76.4V0H43ZM72.2,60.465a2.081,2.081,0,0,1-2.082,2.082H11.446a2.081,2.081,0,0,1-2.082-2.082V58.383H72.2ZM43,54.22H21.873V52.138a6.409,6.409,0,0,1,6.392-6.264h8.346A6.409,6.409,0,0,1,43,52.138Zm25.019,0H47.184V52.138A10.538,10.538,0,0,0,36.611,41.71H28.265A10.538,10.538,0,0,0,17.691,52.138V54.22H13.527V16.691H43v9.624l10.921-5.46h14.1ZM47.184,4.164H72.2V16.673H52.937l-5.771,2.885V4.164Z" transform="translate(-4.25)"/>
      <path id="Path_15" data-name="Path 15" d="M246.5,45.7h4.164v4.164H246.5Z" transform="translate(-201.484 -37.354)"/>
      <path id="Path_16" data-name="Path 16" d="M292.1,45.7h4.182v4.164h-4.164V45.7Z" transform="translate(-238.757 -37.354)"/>
      <path id="Path_17" data-name="Path 17" d="M337.8,45.7h4.164v4.164H337.8Z" transform="translate(-276.111 -37.354)"/>
      <circle id="Ellipse_20" data-name="Ellipse 20" cx="2.977" cy="2.977" r="2.977" transform="translate(0 2.721)" fill="#a0e4d5"/>
      <circle id="Ellipse_21" data-name="Ellipse 21" cx="1.662" cy="1.662" r="1.662" transform="translate(9.441 6.684)" fill="#a0e4d5"/>
      <circle id="Ellipse_22" data-name="Ellipse 22" cx="2.977" cy="2.977" r="2.977" transform="translate(39.19 70.875)" fill="#a0e4d5"/>
      <circle id="Ellipse_23" data-name="Ellipse 23" cx="1.662" cy="1.662" r="1.662" transform="translate(34.442 69.213)" fill="#a0e4d5"/>
      <circle id="Ellipse_24" data-name="Ellipse 24" cx="2.977" cy="2.977" r="2.977" transform="translate(70.875 38.734)" fill="#a0e4d5"/>
    </g>
    <g id="mobility" transform="translate(605.8 34)">
      <circle id="Ellipse_25" data-name="Ellipse 25" cx="14.441" cy="14.441" r="14.441" transform="translate(31.393 22.373)" fill="#babaf7"/>
      <g id="Group_3" data-name="Group 3" transform="translate(5.11 1)">
        <path id="Path_18" data-name="Path 18" d="M62.842,36.815h0A19.969,19.969,0,0,0,42.913,16.885h0A19.969,19.969,0,0,0,22.984,36.815h0A19.969,19.969,0,0,0,42.913,56.744h0A19.969,19.969,0,0,0,62.842,36.815ZM42.625,54.722h0c-2.022,0-4.332-4.044-5.2-10.109a31.392,31.392,0,0,0,5.2.289,31.392,31.392,0,0,0,5.2-.289C46.957,50.678,44.646,54.722,42.625,54.722Zm0-12.131a33.166,33.166,0,0,1-5.488-.289,33.166,33.166,0,0,1-.289-5.488,33.166,33.166,0,0,1,.289-5.488,34.954,34.954,0,0,1,5.488-.289,33.166,33.166,0,0,1,5.488.289,34.954,34.954,0,0,1,.289,5.488,33.166,33.166,0,0,1-.289,5.488A31.451,31.451,0,0,1,42.625,42.591ZM25.006,36.815c0-2.022,4.044-4.332,10.109-5.2a31.392,31.392,0,0,0-.289,5.2,31.392,31.392,0,0,0,.289,5.2c-6.354-1.155-10.109-3.177-10.109-5.2ZM42.625,18.907h0c2.022,0,4.332,4.044,5.2,10.109a31.392,31.392,0,0,0-5.2-.289,31.392,31.392,0,0,0-5.2.289C38.581,22.662,40.6,18.907,42.625,18.907Zm7.8,12.42c6.065,1.155,10.109,3.177,10.109,5.2h0c0,2.022-4.044,4.332-10.109,5.2a31.391,31.391,0,0,0,.289-5.2A33.17,33.17,0,0,0,50.423,31.327Zm9.82,1.155c-2.311-1.733-5.777-2.6-9.82-3.466-.578-4.044-1.733-7.509-3.466-9.82A19.232,19.232,0,0,1,60.243,32.482ZM38.581,19.2c-1.733,2.311-2.6,5.777-3.466,9.82-4.044.578-7.509,1.733-9.82,3.466A18.723,18.723,0,0,1,38.581,19.2ZM25.295,40.858c2.311,1.733,5.777,2.6,9.82,3.466.578,4.044,1.733,7.51,3.466,9.82A18.249,18.249,0,0,1,25.295,40.858ZM46.957,54.144c1.733-2.311,2.6-5.777,3.466-9.82,4.044-.578,7.51-1.733,9.82-3.466A18.723,18.723,0,0,1,46.957,54.144Zm-4.332,5.777c-.578,0-1.155-.289-1.733-.289V69.741L5.366,70.03V5.332l35.526-.289v8.665h3.177V5.91A5.061,5.061,0,0,0,39.159,1H6.81A5.061,5.061,0,0,0,1.9,5.91V68.586A5.061,5.061,0,0,0,6.81,73.5H39.159a5.061,5.061,0,0,0,4.91-4.91V59.921ZM17.785,4.466h10.4a.621.621,0,0,1,.578.578.621.621,0,0,1-.578.578h-10.4a.621.621,0,0,1-.578-.578A.621.621,0,0,1,17.785,4.466Zm5.2,66.719a2.311,2.311,0,1,1,2.311-2.311C25.584,70.03,24.429,71.185,22.984,71.185Z" transform="translate(-1.9 -1)"/>
      </g>
      <path id="Path_19" data-name="Path 19" d="M28.584,8.466S15.3,12.8,14.72,28.973C14.431,45.436,28.584,48.9,28.584,48.9v4.044H5.478L4.9,5H28.006Z" transform="translate(8.875 7.553)" fill="#babaf7"/>
      <circle id="Ellipse_26" data-name="Ellipse 26" cx="2.888" cy="2.888" r="2.888" transform="translate(51.9 5.044)" fill="#babaf7"/>
      <circle id="Ellipse_27" data-name="Ellipse 27" cx="2.888" cy="2.888" r="2.888" transform="translate(0.2 72.051)" fill="#babaf7"/>
      <circle id="Ellipse_28" data-name="Ellipse 28" cx="1.733" cy="1.733" r="1.733" transform="translate(60.565 14.864)" fill="#babaf7"/>
      <circle id="Ellipse_29" data-name="Ellipse 29" cx="2.022" cy="2.022" r="2.022" transform="translate(54.788 13.131)" fill="#babaf7"/>
    </g>
    <g id="odc" transform="translate(738 35)">
      <g id="Group_5" data-name="Group 5" transform="translate(15.403 38.278)">
        <g id="Group_4" data-name="Group 4">
          <path id="Path_20" data-name="Path 20" d="M93.247,225.842a1.521,1.521,0,0,0-1.053-.442,1.45,1.45,0,0,0-1.053.442,1.521,1.521,0,0,0-.442,1.053,1.45,1.45,0,0,0,.442,1.053,1.553,1.553,0,0,0,1.053.442,1.45,1.45,0,0,0,1.053-.442,1.521,1.521,0,0,0,.442-1.053A1.45,1.45,0,0,0,93.247,225.842Z" transform="translate(-90.7 -225.4)"/>
        </g>
      </g>
      <g id="Group_7" data-name="Group 7" transform="translate(22.569 38.278)">
        <g id="Group_6" data-name="Group 6">
          <path id="Path_21" data-name="Path 21" d="M135.685,225.4h-1.291a1.494,1.494,0,1,0,0,2.989h1.291a1.494,1.494,0,1,0,0-2.989Z" transform="translate(-132.9 -225.4)"/>
        </g>
      </g>
      <g id="Group_9" data-name="Group 9" transform="translate(29.736 38.278)">
        <g id="Group_8" data-name="Group 8">
          <path id="Path_22" data-name="Path 22" d="M177.647,225.842a1.521,1.521,0,0,0-1.053-.442,1.45,1.45,0,0,0-1.053.442,1.521,1.521,0,0,0-.442,1.053,1.45,1.45,0,0,0,.442,1.053,1.521,1.521,0,0,0,1.053.442,1.45,1.45,0,0,0,1.053-.442,1.476,1.476,0,0,0,0-2.106Z" transform="translate(-175.1 -225.4)"/>
        </g>
      </g>
      <g id="Group_11" data-name="Group 11" transform="translate(36.886 38.278)">
        <g id="Group_10" data-name="Group 10">
          <path id="Path_23" data-name="Path 23" d="M219.747,225.842a1.521,1.521,0,0,0-1.053-.442,1.45,1.45,0,0,0-1.053.442,1.521,1.521,0,0,0-.442,1.053,1.45,1.45,0,0,0,.442,1.053,1.521,1.521,0,0,0,1.053.442,1.45,1.45,0,0,0,1.053-.442,1.521,1.521,0,0,0,.442-1.053A1.45,1.45,0,0,0,219.747,225.842Z" transform="translate(-217.2 -225.4)"/>
        </g>
      </g>
      <g id="Group_13" data-name="Group 13" transform="translate(44.052 38.278)">
        <g id="Group_12" data-name="Group 12">
          <path id="Path_24" data-name="Path 24" d="M261.947,225.842a1.521,1.521,0,0,0-1.053-.442,1.45,1.45,0,0,0-1.053.442,1.553,1.553,0,0,0-.442,1.053,1.45,1.45,0,0,0,.442,1.053,1.521,1.521,0,0,0,1.053.442,1.508,1.508,0,0,0,1.494-1.494A1.521,1.521,0,0,0,261.947,225.842Z" transform="translate(-259.4 -225.4)"/>
        </g>
      </g>
      <g id="Group_15" data-name="Group 15" transform="translate(51.202 38.278)">
        <g id="Group_14" data-name="Group 14">
          <path id="Path_25" data-name="Path 25" d="M304.064,225.842a1.561,1.561,0,0,0-1.07-.442,1.45,1.45,0,0,0-1.053.442,1.521,1.521,0,0,0-.442,1.053,1.45,1.45,0,0,0,.442,1.053,1.553,1.553,0,0,0,1.053.442,1.508,1.508,0,0,0,1.511-1.494A1.6,1.6,0,0,0,304.064,225.842Z" transform="translate(-301.5 -225.4)"/>
        </g>
      </g>
      <g id="Group_17" data-name="Group 17" transform="translate(58.368 38.278)">
        <g id="Group_16" data-name="Group 16">
          <path id="Path_26" data-name="Path 26" d="M346.247,225.842a1.521,1.521,0,0,0-1.053-.442,1.45,1.45,0,0,0-1.053.442,1.521,1.521,0,0,0-.442,1.053,1.45,1.45,0,0,0,.442,1.053,1.521,1.521,0,0,0,1.053.442,1.45,1.45,0,0,0,1.053-.442,1.521,1.521,0,0,0,.442-1.053A1.45,1.45,0,0,0,346.247,225.842Z" transform="translate(-343.7 -225.4)"/>
        </g>
      </g>
      <path id="Path_27" data-name="Path 27" d="M71.806,233.536H21.946A4.247,4.247,0,0,1,17.7,229.29V212.546a4.247,4.247,0,0,1,4.246-4.246H71.823a4.247,4.247,0,0,1,4.246,4.246V229.29A4.273,4.273,0,0,1,71.806,233.536Z" transform="translate(-14.694 -172.926)" fill="#b8aaff"/>
      <g id="Group_19" data-name="Group 19" transform="translate(8.101 45.903)">
        <g id="Group_18" data-name="Group 18">
          <path id="Path_28" data-name="Path 28" d="M50.383,270.3H49.194a1.494,1.494,0,0,0,0,2.989h1.189a1.494,1.494,0,0,0,0-2.989Z" transform="translate(-47.7 -270.3)"/>
        </g>
      </g>
      <g id="Group_21" data-name="Group 21" transform="translate(16.456 45.903)">
        <g id="Group_20" data-name="Group 20">
          <path id="Path_29" data-name="Path 29" d="M99.583,270.3H98.394a1.494,1.494,0,0,0,0,2.989h1.189a1.494,1.494,0,1,0,0-2.989Z" transform="translate(-96.9 -270.3)"/>
        </g>
      </g>
      <g id="Group_23" data-name="Group 23" transform="translate(23.622 45.903)">
        <g id="Group_22" data-name="Group 22">
          <path id="Path_30" data-name="Path 30" d="M141.664,270.742a1.562,1.562,0,0,0-1.07-.442,1.45,1.45,0,0,0-1.053.442,1.521,1.521,0,0,0-.442,1.053,1.45,1.45,0,0,0,.442,1.053,1.5,1.5,0,0,0,2.564-1.053A1.45,1.45,0,0,0,141.664,270.742Z" transform="translate(-139.1 -270.3)"/>
        </g>
      </g>
      <g id="Group_25" data-name="Group 25" transform="translate(30.891 45.903)">
        <g id="Group_24" data-name="Group 24">
          <path id="Path_31" data-name="Path 31" d="M184.447,270.742a1.521,1.521,0,0,0-1.053-.442,1.45,1.45,0,0,0-1.053.442,1.521,1.521,0,0,0-.442,1.053,1.45,1.45,0,0,0,.442,1.053,1.521,1.521,0,0,0,1.053.442,1.45,1.45,0,0,0,1.053-.442,1.521,1.521,0,0,0,.442-1.053A1.45,1.45,0,0,0,184.447,270.742Z" transform="translate(-181.9 -270.3)"/>
        </g>
      </g>
      <g id="Group_27" data-name="Group 27" transform="translate(16.66 53.121)">
        <g id="Group_26" data-name="Group 26">
          <path id="Path_32" data-name="Path 32" d="M100.647,313.242a1.521,1.521,0,0,0-1.053-.442,1.45,1.45,0,0,0-1.053.442,1.521,1.521,0,0,0-.442,1.053,1.45,1.45,0,0,0,.442,1.053,1.521,1.521,0,0,0,1.053.442,1.45,1.45,0,0,0,1.053-.442,1.476,1.476,0,0,0,0-2.106Z" transform="translate(-98.1 -312.8)"/>
        </g>
      </g>
      <g id="Group_29" data-name="Group 29" transform="translate(23.894 53.121)">
        <g id="Group_28" data-name="Group 28">
          <path id="Path_33" data-name="Path 33" d="M143.264,313.242a1.562,1.562,0,0,0-1.07-.442,1.45,1.45,0,0,0-1.053.442,1.521,1.521,0,0,0-.442,1.053,1.45,1.45,0,0,0,.442,1.053,1.5,1.5,0,0,0,2.564-1.053A1.45,1.45,0,0,0,143.264,313.242Z" transform="translate(-140.7 -312.8)"/>
        </g>
      </g>
      <g id="Group_31" data-name="Group 31" transform="translate(39.874 45.903)">
        <g id="Group_30" data-name="Group 30">
          <path id="Path_34" data-name="Path 34" d="M239.3,270.3h-3.006a1.494,1.494,0,1,0,0,2.989H239.3a1.5,1.5,0,0,0,1.494-1.494A1.475,1.475,0,0,0,239.3,270.3Z" transform="translate(-234.8 -270.3)"/>
        </g>
      </g>
      <g id="Group_33" data-name="Group 33" transform="translate(32.029 53.121)">
        <g id="Group_32" data-name="Group 32">
          <path id="Path_35" data-name="Path 35" d="M198.246,312.8h-8.152a1.494,1.494,0,0,0,0,2.989h8.152a1.494,1.494,0,0,0,0-2.989Z" transform="translate(-188.6 -312.8)"/>
        </g>
      </g>
      <g id="Group_35" data-name="Group 35" transform="translate(64.465 45.903)">
        <g id="Group_34" data-name="Group 34">
          <path id="Path_36" data-name="Path 36" d="M382.3,270.3h-1.206a1.494,1.494,0,1,0,0,2.989H382.3a1.494,1.494,0,1,0,0-2.989Z" transform="translate(-379.6 -270.3)"/>
        </g>
      </g>
      <g id="Group_37" data-name="Group 37" transform="translate(28.938 8.101)">
        <g id="Group_36" data-name="Group 36">
          <path id="Path_37" data-name="Path 37" d="M172.947,48.142a1.521,1.521,0,0,0-1.053-.442,1.45,1.45,0,0,0-1.053.442,1.521,1.521,0,0,0-.442,1.053,1.45,1.45,0,0,0,.442,1.053,1.521,1.521,0,0,0,1.053.442,1.45,1.45,0,0,0,1.053-.442,1.521,1.521,0,0,0,.442-1.053A1.45,1.45,0,0,0,172.947,48.142Z" transform="translate(-170.4 -47.7)"/>
        </g>
      </g>
      <g id="Group_39" data-name="Group 39" transform="translate(0 8.101)">
        <g id="Group_38" data-name="Group 38">
          <path id="Path_38" data-name="Path 38" d="M68.693,68.826H39.874c0-.051.017-.1.017-.153V62.644A2.348,2.348,0,0,1,42.235,60.3h5.859a6.3,6.3,0,0,0,0-12.6H36.138a1.494,1.494,0,1,0,0,2.989H48.094a3.295,3.295,0,0,1,0,6.589H42.235a5.349,5.349,0,0,0-5.349,5.349v6.029a.47.47,0,0,0,.017.153H8.067A8.143,8.143,0,0,0,0,76.944V94.792a8.074,8.074,0,0,0,8.067,8.067H36.529a1.494,1.494,0,1,0,0-2.989H8.067a5.062,5.062,0,0,1-5.061-5.061V76.944a5.1,5.1,0,0,1,5.061-5.112H68.693a5.084,5.084,0,0,1,5.061,5.112V94.792a5.1,5.1,0,0,1-3.6,4.857V97.458a4.2,4.2,0,0,0-4.195-4.195,4.308,4.308,0,0,0-1.41.238,4.2,4.2,0,0,0-3.991-2.887,4.7,4.7,0,0,0-1.206.17V89.7a4.195,4.195,0,1,0-8.389,0v1.087a3.981,3.981,0,0,0-1.206-.17,4.2,4.2,0,0,0-4.195,4.195v3.617a6.909,6.909,0,0,0-3.872-1.189A1.5,1.5,0,0,0,40.2,98.732v10.325a10.863,10.863,0,0,0,2.344,6.725,1.471,1.471,0,0,0,1.172.56,1.494,1.494,0,0,0,1.172-2.428,7.905,7.905,0,0,1-1.7-4.874v-8.525a3.934,3.934,0,0,1,2.378,3.125v.934a1.5,1.5,0,0,0,1.494,1.494h.034a1.5,1.5,0,0,0,1.494-1.494v-.442c0-.221-.017-.442-.034-.662V94.809a1.206,1.206,0,0,1,2.411,0v9.765a1.494,1.494,0,0,0,2.989,0V89.7a1.206,1.206,0,1,1,2.411,0v14.877a1.494,1.494,0,0,0,2.989,0V94.809a1.206,1.206,0,0,1,2.411,0v9.765a1.494,1.494,0,0,0,2.989,0V97.441a1.206,1.206,0,0,1,2.411,0v17.407a1.494,1.494,0,1,0,2.989,0V102.723a8.075,8.075,0,0,0,6.589-7.931V76.944A8.081,8.081,0,0,0,68.693,68.826Z" transform="translate(0 -47.7)"/>
        </g>
      </g>
      <g id="Group_41" data-name="Group 41">
        <g id="Group_40" data-name="Group 40">
          <path id="Path_39" data-name="Path 39" d="M24.879,0H1.494A1.508,1.508,0,0,0,0,1.494V25.473a1.5,1.5,0,0,0,1.494,1.494H24.879a1.5,1.5,0,0,0,1.494-1.494V1.494A1.486,1.486,0,0,0,24.879,0ZM23.385,23.979H3.006V3.006H23.4V23.979Z"/>
        </g>
      </g>
      <g id="Group_43" data-name="Group 43" transform="translate(6.708 17.984)">
        <g id="Group_42" data-name="Group 42">
          <path id="Path_40" data-name="Path 40" d="M50.98,105.9H40.994a1.494,1.494,0,1,0,0,2.989H50.98a1.494,1.494,0,1,0,0-2.989Z" transform="translate(-39.5 -105.9)"/>
        </g>
      </g>
      <g id="Group_45" data-name="Group 45" transform="translate(6.708 11.99)">
        <g id="Group_44" data-name="Group 44">
          <path id="Path_41" data-name="Path 41" d="M50.98,70.6H40.994a1.494,1.494,0,1,0,0,2.989H50.98a1.494,1.494,0,1,0,0-2.989Z" transform="translate(-39.5 -70.6)"/>
        </g>
      </g>
      <g id="Group_47" data-name="Group 47" transform="translate(6.708 5.995)">
        <g id="Group_46" data-name="Group 46">
          <path id="Path_42" data-name="Path 42" d="M50.98,35.3H40.994a1.494,1.494,0,1,0,0,2.989H50.98a1.494,1.494,0,1,0,0-2.989Z" transform="translate(-39.5 -35.3)"/>
        </g>
      </g>
      <circle id="Ellipse_30" data-name="Ellipse 30" cx="4.942" cy="4.942" r="4.942" transform="translate(64.465 9.595)" fill="#b8aaff"/>
      <circle id="Ellipse_31" data-name="Ellipse 31" cx="1.494" cy="1.494" r="1.494" transform="translate(61.357 19.496)" fill="#b8aaff"/>
      <circle id="Ellipse_32" data-name="Ellipse 32" cx="4.942" cy="4.942" r="4.942" transform="translate(0.611 66.944)" fill="#b8aaff"/>
      <circle id="Ellipse_33" data-name="Ellipse 33" cx="1.885" cy="1.885" r="1.885" transform="translate(11.82 67.199)" fill="#b8aaff"/>
    </g>
    <g id="outsource" transform="translate(873.9 15.6)">
      <ellipse id="Ellipse_34" data-name="Ellipse 34" cx="25.836" cy="32.149" rx="25.836" ry="32.149" transform="translate(13.546 24.839)" fill="#a8c1ff"/>
      <ellipse id="Ellipse_35" data-name="Ellipse 35" cx="7.511" cy="9.227" rx="7.511" ry="9.227" transform="translate(65.672 57.895)" fill="#a8c1ff"/>
      <g id="Group_52" data-name="Group 52" transform="translate(10.892 19.432)">
        <g id="Group_48" data-name="Group 48" transform="translate(0 0)">
          <path id="Path_43" data-name="Path 43" d="M71.86,75.9c.032-.13.065-.259.1-.356.1,0,.162.032.259.032l.065-.065a15.765,15.765,0,0,1-2.558-8.644,15.977,15.977,0,0,1,5.5-12.044h-1.36A91.172,91.172,0,0,0,72.831,42.94a54.672,54.672,0,0,0,13.533-3.82,32.984,32.984,0,0,1,4.889,12.788,15.99,15.99,0,0,1,4.759,2.784,37.272,37.272,0,0,0-6.864-19.361.113.113,0,0,0-.032-.065,2.016,2.016,0,0,0-.453-.583,37.573,37.573,0,0,0-60.349,0,2.791,2.791,0,0,0-.453.583.113.113,0,0,1-.032.065,37.523,37.523,0,0,0,0,43.448.113.113,0,0,0,.032.065,1.9,1.9,0,0,0,.421.55A37.428,37.428,0,0,0,64.8,94.062c0-.13-.032-.291-.032-.453A24.841,24.841,0,0,1,71.86,75.9ZM68.4,70.589a97.924,97.924,0,0,0-9.907-.518,89.315,89.315,0,0,0-9.907.518,85.037,85.037,0,0,1-1.036-11.3H69.431A91.414,91.414,0,0,1,68.4,70.589ZM47.513,54.854a79.944,79.944,0,0,1,1.036-11.3,97.922,97.922,0,0,0,9.907.518,89.32,89.32,0,0,0,9.907-.518,85.039,85.039,0,0,1,1.036,11.3Zm36.1-19.361A52.368,52.368,0,0,1,71.957,38.6a51.8,51.8,0,0,0-2.1-7.155,29.292,29.292,0,0,0-3.3-6.54A33.2,33.2,0,0,1,83.612,35.494ZM58.456,24.162c3.335,0,6.928,5.828,9.065,15.022-2.914.291-5.957.453-9.065.453s-6.151-.162-9.065-.453C51.528,29.99,55.121,24.162,58.456,24.162Zm-8.062.745a29.293,29.293,0,0,0-3.3,6.54,55.152,55.152,0,0,0-2.1,7.155,53.674,53.674,0,0,1-11.655-3.108A32.94,32.94,0,0,1,50.394,24.907ZM30.58,39.12a55.5,55.5,0,0,0,13.533,3.82,86.758,86.758,0,0,0-1.036,11.882H25.4A33.252,33.252,0,0,1,30.58,39.12Zm0,35.872a32.941,32.941,0,0,1-5.213-15.735h17.71A91.173,91.173,0,0,0,44.114,71.14,56.928,56.928,0,0,0,30.58,74.992Zm2.72,3.626A52.368,52.368,0,0,1,44.955,75.51a51.8,51.8,0,0,0,2.1,7.155,29.293,29.293,0,0,0,3.3,6.54A33.2,33.2,0,0,1,33.3,78.618ZM58.456,89.95c-3.335,0-6.928-5.828-9.065-15.022,2.914-.291,5.957-.453,9.065-.453s6.151.162,9.065.453C65.384,84.122,61.791,89.95,58.456,89.95Z" transform="translate(-20.9 -19.5)"/>
        </g>
        <g id="Group_51" data-name="Group 51" transform="translate(46.362 34.318)">
          <g id="Group_49" data-name="Group 49" transform="translate(4.921)">
            <path id="Path_44" data-name="Path 44" d="M192.347,151.627A13.044,13.044,0,0,1,179.3,138.58a13.08,13.08,0,1,1,13.047,13.047Zm0-21.983a8.9,8.9,0,1,0,8.9,8.9A8.9,8.9,0,0,0,192.347,129.644Z" transform="translate(-179.3 -125.5)"/>
          </g>
          <g id="Group_50" data-name="Group 50" transform="translate(0 20.873)">
            <path id="Path_45" data-name="Path 45" d="M197.447,211.575H166.722a2.632,2.632,0,0,1-2.622-2.622c0-7.867,3.95-15.184,10.069-18.649a2.659,2.659,0,0,1,3.205.486l4.727,4.921,4.727-4.921a2.652,2.652,0,0,1,3.205-.486h0c6.119,3.464,10.069,10.781,10.069,18.649A2.66,2.66,0,0,1,197.447,211.575ZM168.309,207.4h27.552a17.252,17.252,0,0,0-6.9-12.853l-6.864,7.187-6.864-7.187A17.18,17.18,0,0,0,168.309,207.4Z" transform="translate(-164.1 -189.971)"/>
          </g>
        </g>
      </g>
      <circle id="Ellipse_36" data-name="Ellipse 36" cx="4.759" cy="4.759" r="4.759" transform="translate(90.277 45.268)" fill="#a8c1ff"/>
      <circle id="Ellipse_37" data-name="Ellipse 37" cx="1.554" cy="1.554" r="1.554" transform="translate(87.461 54.787)" fill="#a8c1ff"/>
      <circle id="Ellipse_38" data-name="Ellipse 38" cx="4.759" cy="4.759" r="4.759" transform="translate(12.057 19.4)" fill="#a8c1ff"/>
      <circle id="Ellipse_39" data-name="Ellipse 39" cx="1.554" cy="1.554" r="1.554" transform="translate(6.1 20.954)" fill="#a8c1ff"/>
      <circle id="Ellipse_40" data-name="Ellipse 40" cx="4.759" cy="4.759" r="4.759" transform="translate(12.057 82.274)" fill="#a8c1ff"/>
      <circle id="Ellipse_41" data-name="Ellipse 41" cx="1.554" cy="1.554" r="1.554" transform="translate(21.738 92.99)" fill="#a8c1ff"/>
    </g>
    <g id="startup" transform="translate(1040 35.025)">
      <path id="Path_46" data-name="Path 46" d="M74.594,21.9s15.725,16.274,9.47,49.136H68.51S55.011,46.8,74.594,21.9Z" transform="translate(-53.945 -18.488)" fill="#f7cba4"/>
      <g id="Group_54" data-name="Group 54" transform="translate(3.355 -0.025)">
        <g id="Group_53" data-name="Group 53" transform="translate(0 0)">
          <path id="Path_47" data-name="Path 47" d="M56.347,38.234A47.532,47.532,0,0,0,42.723.434a1.677,1.677,0,0,0-2.3,0,47.513,47.513,0,0,0-13.625,37.8,20.131,20.131,0,0,0,.172,27.61,1.638,1.638,0,0,0,2.759-1.536,18.376,18.376,0,0,1-.423-3.12A12.129,12.129,0,0,1,31.5,54.195a1.666,1.666,0,0,0,.784.2H50.86a1.666,1.666,0,0,0,.784-.2,12.129,12.129,0,0,1,2.195,6.993,22.509,22.509,0,0,1-.423,3.12,1.636,1.636,0,0,0,2.759,1.536,20.131,20.131,0,0,0,.172-27.61ZM41.562,3.946a43.627,43.627,0,0,1,7.149,10.41H34.429a42.809,42.809,0,0,1,7.134-10.41ZM26.2,58.977A16.941,16.941,0,0,1,27.42,42.718c.016.125,1.725,6.663,2.383,8.341A15.229,15.229,0,0,0,26.2,58.977Zm23.58-7.855H33.347a44.249,44.249,0,0,1-.376-33.52H50.154A44.249,44.249,0,0,1,49.778,51.122Zm3.559-.063c.909-2.336,2.367-8.247,2.383-8.341a16.7,16.7,0,0,1,2.744,9.235,16.986,16.986,0,0,1-1.521,7.024,15.479,15.479,0,0,0-3.606-7.918Z" transform="translate(-21.4 0.025)"/>
          <path id="Path_48" data-name="Path 48" d="M99.131,364.5a1.629,1.629,0,0,0-1.631,1.631v8.2a1.631,1.631,0,1,0,3.261,0v-8.2A1.629,1.629,0,0,0,99.131,364.5Z" transform="translate(-85.569 -307.348)"/>
          <path id="Path_49" data-name="Path 49" d="M141.146,364.5a1.635,1.635,0,0,0-1.16.486l-.016.016a1.639,1.639,0,0,0-.408.721,1.977,1.977,0,0,0-.063.439v16.384a1.546,1.546,0,0,0,.047.376,1.627,1.627,0,0,0,3.167,0,1.546,1.546,0,0,0,.047-.376V366.131a1.353,1.353,0,0,0-.063-.439A1.586,1.586,0,0,0,141.146,364.5Z" transform="translate(-120.984 -307.348)"/>
          <path id="Path_50" data-name="Path 50" d="M183.331,364.5a1.629,1.629,0,0,0-1.631,1.631v8.2a1.631,1.631,0,1,0,3.261,0v-8.2A1.61,1.61,0,0,0,183.331,364.5Z" transform="translate(-156.568 -307.348)"/>
        </g>
      </g>
      <g id="Group_55" data-name="Group 55" transform="translate(15.914 24.657)">
        <path id="Path_51" data-name="Path 51" d="M109.229,172.859a7.729,7.729,0,1,1,7.729-7.729A7.735,7.735,0,0,1,109.229,172.859Zm0-13.107a5.378,5.378,0,1,0,5.378,5.378A5.386,5.386,0,0,0,109.229,159.752Z" transform="translate(-101.5 -157.4)"/>
      </g>
      <circle id="Ellipse_42" data-name="Ellipse 42" cx="2.258" cy="2.258" r="2.258" transform="translate(0 32.386)" fill="#f99f5d"/>
      <circle id="Ellipse_43" data-name="Ellipse 43" cx="0.862" cy="0.862" r="0.862" transform="translate(4.986 36.039)" fill="#f99f5d"/>
      <circle id="Ellipse_44" data-name="Ellipse 44" cx="2.258" cy="2.258" r="2.258" transform="translate(31.858 2.252)" fill="#f99f5d"/>
      <circle id="Ellipse_45" data-name="Ellipse 45" cx="0.862" cy="0.862" r="0.862" transform="translate(34.43 8.288)" fill="#f99f5d"/>
      <circle id="Ellipse_46" data-name="Ellipse 46" cx="2.258" cy="2.258" r="2.258" transform="translate(28.503 71.425)" fill="#f99f5d"/>
      <circle id="Ellipse_47" data-name="Ellipse 47" cx="0.862" cy="0.862" r="0.862" transform="translate(33.254 68.603)" fill="#f99f5d"/>
    </g>
  </g>
</svg>
