<?xml version="1.0" encoding="utf-8"?>
<!-- Generator: Adobe Illustrator 23.0.6, SVG Export Plug-In . SVG Version: 6.00 Build 0)  -->
<svg version="1.1" id="Layer_1" xmlns="http://www.w3.org/2000/svg" xmlns:xlink="http://www.w3.org/1999/xlink" x="0px" y="0px"
	 viewBox="0 0 313.1 205.3" style="enable-background:new 0 0 313.1 205.3;" xml:space="preserve">
<style type="text/css">
	.st0{fill:#7ABFF9;}
	.st1{fill:none;stroke:#000000;stroke-width:10;stroke-linecap:round;stroke-miterlimit:10;}
</style>
<circle class="st0" cx="54" cy="103.7" r="47.6"/>
<circle class="st0" cx="153.3" cy="101.9" r="20.3"/>
<circle class="st0" cx="279.9" cy="14.4" r="14.4"/>
<circle class="st0" cx="302.8" cy="28.8" r="5.5"/>
<circle class="st0" cx="252.7" cy="103.7" r="47.6"/>
<g>
	<g>
		<path d="M290.9,47.9c-28.3-26.7-73.1-25.3-99.7,3l-13.4,14.3c-3.7,3.9-3.5,10.1,0.4,13.7c3.9,3.7,10.1,3.5,13.7-0.4l13.4-14.3
			c19.3-20.5,51.7-21.5,72.3-2.2c20.5,19.3,21.5,51.7,2.2,72.3s-51.7,21.5-72.3,2.2l-88.6-83.4c-28.3-26.7-73.1-25.3-99.7,3
			s-25.3,73.1,3,99.7s73.1,25.3,99.7-3l13.3-14.1c3.7-3.9,3.5-10.1-0.4-13.7c-3.9-3.7-10.1-3.5-13.7,0.4l-13.3,14.1
			C88.4,160.1,56,161,35.5,141.7C15,122.4,14,90,33.3,69.5s51.7-21.5,72.3-2.2l88.6,83.4c28.3,26.7,73.1,25.3,99.7-3
			S319.2,74.6,290.9,47.9z"/>
	</g>
</g>
<polyline class="st1" points="83.9,17.9 51.2,46.5 82,75.5 "/>
<polyline class="st1" points="285.2,178.5 290.6,135.3 248.3,134.1 "/>
<circle class="st0" cx="25.6" cy="185.4" r="14.4"/>
<circle class="st0" cx="48.5" cy="199.8" r="5.5"/>
</svg>
