<?xml version="1.0" encoding="utf-8"?>
<!-- Generator: Adobe Illustrator 23.0.6, SVG Export Plug-In . SVG Version: 6.00 Build 0)  -->
<svg version="1.1" id="Capa_1" xmlns="http://www.w3.org/2000/svg" xmlns:xlink="http://www.w3.org/1999/xlink" x="0px" y="0px"
	 viewBox="0 0 420.8 420.7" style="enable-background:new 0 0 420.8 420.7;" xml:space="preserve">
<style type="text/css">
	.st0{fill:#A5EFDD;}
	.st1{fill:#47EABF;}
</style>
<rect x="24.3" y="107.1" class="st0" width="284.8" height="224"/>
<path d="M211.5,171.3c0-31.5-25.6-57.1-57.1-57.1c-31.6,0-57.9,25.5-57.9,57.1c0,31.6,26.3,57.1,57.9,57.1
	C185.8,228.4,211.5,202.8,211.5,171.3z M154.4,205.5c-19,0-35-15.7-35-34.3s16-34.3,35-34.3c18.9,0,34.3,15.4,34.3,34.3
	S173.2,205.5,154.4,205.5z"/>
<path d="M212.2,68.5H28v228.4H5.2v34.3c0,18.9,15.4,34.3,34.3,34.3h321.3c18.9,0,34.3-15.4,34.3-34.3v-34.3h-22.8V114.2h22.8V0
	H212.2V68.5z M372.1,331.1c0,6.3-5.1,11.4-11.4,11.4H39.4c-6.3,0-11.4-5.1-11.4-11.4v-11.4h344.1V331.1z M212.2,296.9H96.5v-11.4
	c0-18.6,16-34.3,35-34.3h45.7c19,0,35,15.7,35,34.3V296.9z M349.2,296.9H235.1v-11.4c0-31.6-26.3-57.1-57.9-57.1h-45.7
	c-31.6,0-57.9,25.5-57.9,57.1v11.4H50.8V91.4h161.4v52.7l59.8-29.9h77.2V296.9z M235.1,22.8h137v68.5H266.6l-31.6,15.8V22.8z"/>
<path d="M246.5,45.7h22.8v22.8h-22.8V45.7z"/>
<path d="M292.1,45.7H315v22.8h-22.8V45.7z"/>
<path d="M337.8,45.7h22.8v22.8h-22.8V45.7z"/>
<circle class="st1" cx="16.3" cy="31.2" r="16.3"/>
<circle class="st1" cx="60.8" cy="45.7" r="9.1"/>
<circle class="st1" cx="230.9" cy="404.4" r="16.3"/>
<circle class="st1" cx="197.7" cy="388.1" r="9.1"/>
<circle class="st1" cx="404.4" cy="228.4" r="16.3"/>
</svg>
