<?xml version="1.0" encoding="utf-8"?>
<!-- Generator: Adobe Illustrator 23.0.6, SVG Export Plug-In . SVG Version: 6.00 Build 0)  -->
<svg version="1.1" id="Capa_1" xmlns="http://www.w3.org/2000/svg" xmlns:xlink="http://www.w3.org/1999/xlink" x="0px" y="0px"
	 viewBox="0 0 23 27.7" style="enable-background:new 0 0 23 27.7;" xml:space="preserve">
<style type="text/css">
	.st0{fill:#BABAF7;}
</style>
<circle class="st0" cx="16" cy="13.4" r="5"/>
<g>
	<path d="M23,13.4C23,13.4,23,13.4,23,13.4C23,13.4,23,13.4,23,13.4c0-3.8-3.1-6.9-6.9-6.9l0,0l0,0l0,0c-3.8,0-6.9,3.1-6.9,6.9l0,0
		l0,0c0,0,0,0,0,0c0,3.8,3.1,6.9,6.9,6.9l0,0l0,0l0,0C19.9,20.3,23,17.2,23,13.4z M16,19.6L16,19.6c-0.7,0-1.5-1.4-1.8-3.5
		c0.6,0.1,1.2,0.1,1.8,0.1c0.6,0,1.2,0,1.8-0.1C17.5,18.2,16.7,19.6,16,19.6z M16,15.4c-0.7,0-1.3,0-1.9-0.1
		C14,14.7,14,14.1,14,13.4c0-0.7,0-1.3,0.1-1.9c0.6-0.1,1.3-0.1,1.9-0.1c0.7,0,1.3,0,1.9,0.1c0.1,0.6,0.1,1.3,0.1,1.9
		c0,0.7,0,1.3-0.1,1.9C17.4,15.4,16.7,15.4,16,15.4z M9.9,13.4c0-0.7,1.4-1.5,3.5-1.8c-0.1,0.6-0.1,1.2-0.1,1.8c0,0.6,0,1.2,0.1,1.8
		C11.2,14.8,9.9,14.1,9.9,13.4L9.9,13.4z M16,7.2L16,7.2c0.7,0,1.5,1.4,1.8,3.5c-0.6-0.1-1.2-0.1-1.8-0.1c-0.6,0-1.2,0-1.8,0.1
		C14.6,8.5,15.3,7.2,16,7.2z M18.7,11.5c2.1,0.4,3.5,1.1,3.5,1.8c0,0,0,0,0,0c0,0,0,0,0,0c0,0.7-1.4,1.5-3.5,1.8
		c0.1-0.6,0.1-1.2,0.1-1.8C18.8,12.8,18.8,12.1,18.7,11.5z M22.1,11.9c-0.8-0.6-2-0.9-3.4-1.2c-0.2-1.4-0.6-2.6-1.2-3.4
		C19.7,7.9,21.5,9.7,22.1,11.9z M14.6,7.3c-0.6,0.8-0.9,2-1.2,3.4c-1.4,0.2-2.6,0.6-3.4,1.2C10.6,9.7,12.3,7.9,14.6,7.3z M10,14.8
		c0.8,0.6,2,0.9,3.4,1.2c0.2,1.4,0.6,2.6,1.2,3.4C12.3,18.8,10.6,17.1,10,14.8z M17.5,19.4c0.6-0.8,0.9-2,1.2-3.4
		c1.4-0.2,2.6-0.6,3.4-1.2C21.5,17.1,19.7,18.8,17.5,19.4z M16,21.4c-0.2,0-0.4-0.1-0.6-0.1l0,3.5L3.1,24.9l0-22.4l12.3-0.1l0,3
		c0.2,0,0.4,0,0.6,0c0.2,0,0.3,0,0.5,0V2.7c0-0.9-0.8-1.7-1.7-1.7H3.6C2.7,1,1.9,1.8,1.9,2.7v21.7c0,0.9,0.8,1.7,1.7,1.7h11.2
		c0.9,0,1.7-0.8,1.7-1.7v-3C16.3,21.4,16.2,21.4,16,21.4z M7.4,2.2H11c0.1,0,0.2,0.1,0.2,0.2c0,0.1-0.1,0.2-0.2,0.2H7.4
		c-0.1,0-0.2-0.1-0.2-0.2C7.2,2.3,7.3,2.2,7.4,2.2z M9.2,25.3c-0.5,0-0.8-0.4-0.8-0.8c0-0.5,0.4-0.8,0.8-0.8c0.5,0,0.8,0.4,0.8,0.8
		C10.1,24.9,9.7,25.3,9.2,25.3z"/>
</g>
<path class="st0" d="M13.1,6.2c0,0-4.6,1.5-4.8,7.1c-0.1,5.7,4.8,6.9,4.8,6.9l0,1.4l-8,0L4.9,5l8,0L13.1,6.2z"/>
<circle class="st0" cx="19.1" cy="3.4" r="1"/>
<circle class="st0" cx="1.2" cy="26.6" r="1"/>
<circle class="st0" cx="21.7" cy="6.4" r="0.6"/>
<circle class="st0" cx="19.8" cy="5.9" r="0.7"/>
</svg>
