<?xml version="1.0" encoding="utf-8"?>
<!-- Generator: Adobe Illustrator 23.0.6, SVG Export Plug-In . SVG Version: 6.00 Build 0)  -->
<svg version="1.1" id="Capa_1" xmlns="http://www.w3.org/2000/svg" xmlns:xlink="http://www.w3.org/1999/xlink" x="0px" y="0px"
	 viewBox="0 0 452 452.5" style="enable-background:new 0 0 452 452.5;" xml:space="preserve">
<style type="text/css">
	.st0{fill:#AEAEFF;}
</style>
<g>
	<g>
		<path d="M105.7,228c-1.6-1.6-3.9-2.6-6.2-2.6c-2.3,0-4.6,0.9-6.2,2.6c-1.6,1.6-2.6,3.9-2.6,6.2c0,2.3,0.9,4.6,2.6,6.2
			c1.7,1.6,3.9,2.6,6.2,2.6s4.6-0.9,6.2-2.6c1.6-1.6,2.6-3.9,2.6-6.2C108.3,231.9,107.4,229.6,105.7,228z"/>
	</g>
</g>
<g>
	<g>
		<path d="M149.3,225.4h-7.6c-4.9,0-8.8,4-8.8,8.8c0,4.9,4,8.8,8.8,8.8h7.6c4.9,0,8.8-4,8.8-8.8
			C158.1,229.4,154.2,225.4,149.3,225.4z"/>
	</g>
</g>
<g>
	<g>
		<path d="M190.1,228c-1.6-1.6-3.9-2.6-6.2-2.6c-2.3,0-4.6,0.9-6.2,2.6c-1.6,1.6-2.6,3.9-2.6,6.2c0,2.3,0.9,4.6,2.6,6.2
			c1.6,1.6,3.9,2.6,6.2,2.6c2.3,0,4.6-0.9,6.2-2.6c1.6-1.6,2.6-3.9,2.6-6.2C192.7,231.9,191.7,229.6,190.1,228z"/>
	</g>
</g>
<g>
	<g>
		<path d="M232.2,228c-1.6-1.6-3.9-2.6-6.2-2.6c-2.3,0-4.6,0.9-6.2,2.6c-1.6,1.6-2.6,3.9-2.6,6.2c0,2.3,0.9,4.6,2.6,6.2
			c1.6,1.6,3.9,2.6,6.2,2.6c2.3,0,4.6-0.9,6.2-2.6c1.6-1.6,2.6-3.9,2.6-6.2C234.8,231.9,233.9,229.6,232.2,228z"/>
	</g>
</g>
<g>
	<g>
		<path d="M274.4,228c-1.6-1.6-3.9-2.6-6.2-2.6s-4.6,0.9-6.2,2.6s-2.6,3.9-2.6,6.2c0,2.3,0.9,4.6,2.6,6.2c1.6,1.6,3.9,2.6,6.2,2.6
			s4.6-0.9,6.2-2.6c1.7-1.6,2.6-3.9,2.6-6.2C277,231.9,276,229.6,274.4,228z"/>
	</g>
</g>
<g>
	<g>
		<path d="M316.6,228c-1.7-1.6-3.9-2.6-6.3-2.6c-2.3,0-4.6,0.9-6.2,2.6c-1.6,1.6-2.6,3.9-2.6,6.2c0,2.3,0.9,4.6,2.6,6.2
			c1.7,1.6,3.9,2.6,6.2,2.6c2.3,0,4.6-0.9,6.3-2.6c1.6-1.6,2.6-3.9,2.6-6.2C319.1,231.9,318.2,229.6,316.6,228z"/>
	</g>
</g>
<g>
	<g>
		<path d="M358.7,228c-1.6-1.6-3.9-2.6-6.2-2.6c-2.3,0-4.6,0.9-6.2,2.6c-1.6,1.6-2.6,3.9-2.6,6.2c0,2.3,0.9,4.6,2.6,6.2
			c1.6,1.6,3.9,2.6,6.2,2.6s4.6-0.9,6.2-2.6c1.6-1.6,2.6-3.9,2.6-6.2C361.3,231.9,360.4,229.6,358.7,228z"/>
	</g>
</g>
<path class="st0" d="M336.3,356.9H42.7c-13.8,0-25-11.2-25-25v-98.6c0-13.8,11.2-25,25-25h293.7c13.8,0,25,11.2,25,25v98.6
	C361.3,345.7,350.1,356.9,336.3,356.9z"/>
<g>
	<g>
		<path d="M63.5,270.3h-7c-4.9,0-8.8,4-8.8,8.8c0,4.9,4,8.8,8.8,8.8h7c4.9,0,8.8-4,8.8-8.8C72.3,274.2,68.3,270.3,63.5,270.3z"/>
	</g>
</g>
<g>
	<g>
		<path d="M112.7,270.3h-7c-4.9,0-8.8,4-8.8,8.8c0,4.9,4,8.8,8.8,8.8h7c4.9,0,8.8-4,8.8-8.8C121.5,274.2,117.5,270.3,112.7,270.3z"
			/>
	</g>
</g>
<g>
	<g>
		<path d="M154.2,272.9c-1.7-1.6-3.9-2.6-6.3-2.6c-2.3,0-4.6,0.9-6.2,2.6c-1.6,1.6-2.6,3.9-2.6,6.2s0.9,4.6,2.6,6.2
			c1.6,1.6,3.9,2.6,6.2,2.6c2.3,0,4.6-0.9,6.3-2.6c1.6-1.6,2.6-3.9,2.6-6.2S155.9,274.5,154.2,272.9z"/>
	</g>
</g>
<g>
	<g>
		<path d="M196.9,272.9c-1.6-1.6-3.9-2.6-6.2-2.6c-2.3,0-4.6,0.9-6.2,2.6c-1.6,1.6-2.6,3.9-2.6,6.2s0.9,4.6,2.6,6.2
			c1.6,1.6,3.9,2.6,6.2,2.6c2.3,0,4.6-0.9,6.2-2.6c1.6-1.6,2.6-3.9,2.6-6.2S198.6,274.5,196.9,272.9z"/>
	</g>
</g>
<g>
	<g>
		<path d="M113.1,315.4c-1.6-1.6-3.9-2.6-6.2-2.6s-4.6,0.9-6.2,2.6c-1.6,1.6-2.6,3.9-2.6,6.2c0,2.3,0.9,4.6,2.6,6.2
			c1.6,1.6,3.9,2.6,6.2,2.6s4.6-0.9,6.2-2.6c1.6-1.6,2.6-3.9,2.6-6.2C115.7,319.3,114.7,317,113.1,315.4z"/>
	</g>
</g>
<g>
	<g>
		<path d="M155.8,315.4c-1.7-1.6-3.9-2.6-6.3-2.6c-2.3,0-4.6,0.9-6.2,2.6c-1.6,1.6-2.6,3.9-2.6,6.2c0,2.3,0.9,4.6,2.6,6.2
			c1.6,1.6,3.9,2.6,6.2,2.6c2.3,0,4.6-0.9,6.3-2.6c1.6-1.6,2.6-3.9,2.6-6.2C158.4,319.3,157.5,317,155.8,315.4z"/>
	</g>
</g>
<g>
	<g>
		<path d="M261.3,270.3h-17.7c-4.9,0-8.8,4-8.8,8.8c0,4.9,4,8.8,8.8,8.8h17.7c4.9,0,8.8-4,8.8-8.8
			C270.2,274.2,266.2,270.3,261.3,270.3z"/>
	</g>
</g>
<g>
	<g>
		<path d="M245.4,312.8h-48c-4.9,0-8.8,4-8.8,8.8c0,4.9,4,8.8,8.8,8.8h48c4.9,0,8.8-4,8.8-8.8C254.2,316.8,250.3,312.8,245.4,312.8z
			"/>
	</g>
</g>
<g>
	<g>
		<path d="M395.5,270.3h-7.1c-4.9,0-8.8,4-8.8,8.8c0,4.9,4,8.8,8.8,8.8h7.1c4.9,0,8.8-4,8.8-8.8
			C404.3,274.2,400.4,270.3,395.5,270.3z"/>
	</g>
</g>
<g>
	<g>
		<path d="M185.4,50.3c-1.6-1.6-3.9-2.6-6.2-2.6c-2.3,0-4.6,0.9-6.2,2.6c-1.6,1.6-2.6,3.9-2.6,6.2c0,2.3,0.9,4.6,2.6,6.2
			c1.6,1.6,3.9,2.6,6.2,2.6c2.3,0,4.6-0.9,6.2-2.6c1.6-1.6,2.6-3.9,2.6-6.2C188,54.2,187.1,51.9,185.4,50.3z"/>
	</g>
</g>
<g>
	<g>
		<path d="M404.5,172.1H234.8c0-0.3,0.1-0.6,0.1-0.9v-35.5c0-7.6,6.2-13.8,13.8-13.8h34.5c20.5,0,37.1-16.6,37.1-37.1
			c0-20.5-16.6-37.1-37.1-37.1h-70.4c-4.9,0-8.8,4-8.8,8.8s4,8.8,8.8,8.8h70.4c10.7,0,19.4,8.7,19.4,19.4s-8.7,19.4-19.4,19.4h-34.5
			c-17.4,0-31.5,14.1-31.5,31.5v35.5c0,0.3,0,0.6,0.1,0.9H47.5C21.3,172.2,0,193.6,0,219.9V325c0,26.2,21.3,47.5,47.5,47.5h167.6
			c4.9,0,8.8-4,8.8-8.8s-4-8.8-8.8-8.8H47.5c-16.5,0-29.8-13.4-29.8-29.8V219.9c0-16.6,13.4-30.1,29.8-30.1h357
			c16.5,0,29.8,13.5,29.8,30.1V325c0,13.4-8.9,24.8-21.2,28.6v-12.9c0-13.6-11.1-24.7-24.7-24.7c-2.9,0-5.7,0.5-8.3,1.4
			c-3.2-9.9-12.6-17-23.5-17c-2.5,0-4.8,0.4-7.1,1V295c0-13.6-11.1-24.7-24.7-24.7c-13.6,0-24.7,11.1-24.7,24.7v6.4
			c-2.2-0.7-4.6-1-7.1-1c-13.6,0-24.7,11.1-24.7,24.7v21.3c-6.5-4.4-14.4-7-22.8-7c-4.9,0-8.8,4-8.8,8.8V409
			c0,14.3,4.9,28.4,13.8,39.6c1.7,2.2,4.3,3.3,6.9,3.3c1.9,0,3.9-0.6,5.5-1.9c3.8-3,4.5-8.6,1.4-12.4c-6.4-8.1-10-18.3-10-28.7
			v-50.2c7.5,3.1,12.9,10.1,14,18.4v5.5c0,4.9,4,8.8,8.8,8.8c0,0,0.1,0,0.1,0c0,0,0.1,0,0.1,0c4.9,0,8.8-4,8.8-8.8V380
			c0-1.3-0.1-2.6-0.2-3.9v-51c0-3.9,3.2-7.1,7.1-7.1c3.9,0,7.1,3.2,7.1,7.1v57.5c0,4.9,4,8.8,8.8,8.8c4.9,0,8.8-4,8.8-8.8v-57.5V295
			c0-3.9,3.2-7.1,7.1-7.1c3.9,0,7.1,3.2,7.1,7.1v30.1v57.5c0,4.9,4,8.8,8.8,8.8s8.8-4,8.8-8.8v-57.5c0-3.9,3.2-7.1,7.1-7.1
			c3.9,0,7.1,3.2,7.1,7.1v57.5c0,4.9,4,8.8,8.8,8.8c4.9,0,8.8-4,8.8-8.8v-42c0-3.9,3.2-7.1,7.1-7.1c3.9,0,7.1,3.2,7.1,7.1v102.5
			c0,4.9,4,8.8,8.8,8.8c4.9,0,8.8-4,8.8-8.8v-71.4c22.1-4.1,38.8-23.5,38.8-46.7V219.9C452,193.6,430.7,172.1,404.5,172.1z"/>
	</g>
</g>
<g>
	<g>
		<path d="M146.5,0H8.8C4,0,0,4,0,8.8v141.2c0,4.9,4,8.8,8.8,8.8h137.7c4.9,0,8.8-4,8.8-8.8V8.8C155.4,4,151.4,0,146.5,0z
			 M137.7,141.2H17.7V17.7h120.1V141.2z"/>
	</g>
</g>
<g>
	<g>
		<path d="M107.1,105.9H48.3c-4.9,0-8.8,4-8.8,8.8c0,4.9,4,8.8,8.8,8.8h58.8c4.9,0,8.8-4,8.8-8.8
			C115.9,109.9,111.9,105.9,107.1,105.9z"/>
	</g>
</g>
<g>
	<g>
		<path d="M107.1,70.6H48.3c-4.9,0-8.8,4-8.8,8.8c0,4.9,4,8.8,8.8,8.8h58.8c4.9,0,8.8-4,8.8-8.8C115.9,74.6,111.9,70.6,107.1,70.6z"
			/>
	</g>
</g>
<g>
	<g>
		<path d="M107.1,35.3H48.3c-4.9,0-8.8,4-8.8,8.8s4,8.8,8.8,8.8h58.8c4.9,0,8.8-4,8.8-8.8S111.9,35.3,107.1,35.3z"/>
	</g>
</g>
<circle class="st0" cx="408.7" cy="85.6" r="29.1"/>
<circle class="st0" cx="370.1" cy="123.6" r="8.8"/>
<circle class="st0" cx="32.7" cy="423.3" r="29.1"/>
<circle class="st0" cx="80.7" cy="406.8" r="11.1"/>
</svg>
