<?xml version="1.0" encoding="utf-8"?>
<!-- Generator: Adobe Illustrator 23.0.6, SVG Export Plug-In . SVG Version: 6.00 Build 0)  -->
<svg version="1.1" id="Capa_1" xmlns="http://www.w3.org/2000/svg" xmlns:xlink="http://www.w3.org/1999/xlink" x="0px" y="0px"
	 viewBox="0 0 296.1 276.2" style="enable-background:new 0 0 296.1 276.2;" xml:space="preserve">
<style type="text/css">
	.st0{fill:#B7D8F9;}
	.st1{fill:#77BAF2;}
</style>
<ellipse class="st0" cx="108.9" cy="135.5" rx="79.8" ry="99.3"/>
<ellipse class="st0" cx="213.3" cy="166.8" rx="23.2" ry="28.5"/>
<g>
	<g>
		<path d="M178.3,193.7c0.1-0.4,0.2-0.8,0.3-1.1c0.3,0,0.5,0.1,0.8,0.1c0.1-0.1,0.1-0.1,0.2-0.2c-5-7.7-7.9-16.8-7.9-26.7
			c0-14.8,6.6-28.1,17-37.2h-4.2c-0.3-12.8-1.4-25.2-3.2-36.7c16-2.6,30.3-6.6,41.8-11.8c7.6,11.7,12.8,25.1,15.1,39.5
			c5.4,2,10.3,4.9,14.7,8.6c-1.4-22.2-9-42.7-21.2-59.8c0-0.1-0.1-0.2-0.1-0.2c-0.4-0.7-0.8-1.3-1.4-1.8
			c-21.2-28.5-55-46.9-93.2-46.9S64.9,38,43.8,66.4c-0.5,0.5-1,1.1-1.4,1.8c0,0.1-0.1,0.2-0.1,0.2c-13.5,19-21.4,42.1-21.4,67.1
			s7.9,48.1,21.4,67.1c0,0.1,0.1,0.2,0.1,0.2c0.4,0.7,0.8,1.3,1.3,1.7c21.2,28.5,55,47,93.2,47c6.7,0,13.2-0.6,19.6-1.7
			c0-0.4-0.1-0.9-0.1-1.4C156.4,227.1,164.5,207.3,178.3,193.7z M167.6,177.3c-9.8-1-20.1-1.6-30.6-1.6c-10.5,0-20.8,0.5-30.6,1.6
			c-1.7-10.7-2.9-22.4-3.2-34.9h67.6C170.4,154.8,169.3,166.6,167.6,177.3z M103.1,128.7c0.3-12.5,1.4-24.2,3.2-34.9
			c9.8,1,20.1,1.6,30.6,1.6s20.8-0.5,30.6-1.6c1.7,10.7,2.9,22.4,3.2,34.9H103.1z M214.6,68.9c-10,4.2-22.4,7.4-36,9.6
			c-1.8-7.9-3.9-15.4-6.5-22.1c-3-8-6.4-14.8-10.2-20.2C182.7,41.4,201,53.1,214.6,68.9z M136.9,33.9c10.3,0,21.4,18,28,46.4
			c-9,0.9-18.4,1.4-28,1.4c-9.6,0-19-0.5-28-1.4C115.5,51.9,126.6,33.9,136.9,33.9z M112,36.2c-3.8,5.4-7.2,12.2-10.2,20.2
			c-2.5,6.7-4.7,14.1-6.5,22.1c-13.7-2.2-26-5.5-36-9.6C72.8,53.1,91.1,41.4,112,36.2z M50.8,80.1c11.6,5.2,25.9,9.2,41.8,11.8
			c-1.8,11.6-3,24-3.2,36.7H34.8C36,110.9,41.7,94.3,50.8,80.1z M50.8,190.9c-9.2-14.2-14.9-30.8-16.1-48.6h54.7
			c0.3,12.8,1.4,25.2,3.2,36.7C76.7,181.7,62.4,185.7,50.8,190.9z M59.2,202.1c10-4.2,22.4-7.4,36-9.6c1.8,7.9,3.9,15.4,6.5,22.1
			c3,8,6.4,14.8,10.2,20.2C91.1,229.6,72.8,217.9,59.2,202.1z M136.9,237.1c-10.3,0-21.4-18-28-46.4c9-0.9,18.4-1.4,28-1.4
			s19,0.5,28,1.4C158.3,219.1,147.2,237.1,136.9,237.1z"/>
	</g>
	<g>
		<g>
			<path d="M219.6,206.2c-10.8,0-20.9-4.2-28.5-11.8c-7.6-7.6-11.8-17.8-11.8-28.5c0-22.3,18.1-40.4,40.4-40.4s40.4,18.1,40.4,40.4
				C260,188.1,241.9,206.2,219.6,206.2z M219.6,138.3c-15.2,0-27.5,12.3-27.5,27.5c0,7.3,2.9,14.2,8.1,19.4
				c5.2,5.2,12.1,8.1,19.4,8.1c15.2,0,27.5-12.3,27.5-27.5C247.1,150.7,234.8,138.3,219.6,138.3z"/>
		</g>
		<g>
			<path d="M267.1,256.7h-94.9c-4.5,0-8.1-3.7-8.1-8.1c0-24.3,12.2-46.9,31.1-57.6c3.2-1.8,7.3-1.2,9.9,1.5l14.6,15.2l14.6-15.2
				c2.6-2.7,6.6-3.3,9.9-1.5l0,0c18.9,10.7,31.1,33.3,31.1,57.6C275.3,253,271.6,256.7,267.1,256.7z M177.1,243.8h85.1
				c-1.3-16.5-9.3-31.4-21.3-39.7l-21.2,22.2l-21.2-22.2C186.4,212.4,178.4,227.3,177.1,243.8z"/>
		</g>
	</g>
</g>
<circle class="st1" cx="280.8" cy="114" r="14.7"/>
<circle class="st1" cx="262.2" cy="133.5" r="4.8"/>
<circle class="st1" cx="39.2" cy="34.1" r="14.7"/>
<circle class="st1" cx="10.9" cy="29" r="4.8"/>
<circle class="st1" cx="39.2" cy="228.3" r="14.7"/>
<circle class="st1" cx="59.2" cy="251.5" r="4.8"/>
</svg>
