<?xml version="1.0" encoding="utf-8"?>
<!-- Generator: Adobe Illustrator 23.0.6, SVG Export Plug-In . SVG Version: 6.00 Build 0)  -->
<svg version="1.1" id="Layer_1" xmlns="http://www.w3.org/2000/svg" xmlns:xlink="http://www.w3.org/1999/xlink" x="0px" y="0px"
	 viewBox="0 0 278.7 490" style="enable-background:new 0 0 278.7 490;" xml:space="preserve">
<style type="text/css">
	.st0{fill:#F7CBA4;}
	.st1{fill:#F99F5D;}
</style>
<path class="st0" d="M131.7,21.9c0,0,100.3,103.8,60.4,313.4H92.9C92.9,335.3,6.8,180.7,131.7,21.9z"/>
<g>
	<g>
		<path d="M244.3,244c7.9-87.6-22.7-176.9-86.9-241.1c-3.9-3.9-10.8-3.9-14.7,0C78.5,67.1,47.9,156.3,55.8,244
			c-22.2,23.9-34.4,54.7-34.4,87.5c0,33.1,12.6,64.6,35.5,88.6c5.6,5.9,19.9,3.2,17.6-9.8c-1.2-6.8-2.7-13.4-2.7-19.9
			c0-16.2,4.9-31.6,14-44.6c1.5,0.8,3.2,1.3,5,1.3h118.5c1.8,0,3.5-0.5,5-1.3c9.1,13,14,28.4,14,44.6c0,6.5-1.7,13-2.7,19.9
			c-2.1,14.4,12.9,14.9,17.6,9.8c22.8-24.1,35.5-55.5,35.5-88.6C278.6,298.7,266.5,267.8,244.3,244z M150,25.3
			c18.6,20,33.8,42.5,45.6,66.4h-91.1C116.2,67.7,131.4,45.3,150,25.3L150,25.3z M52,376.3c-6.4-13.9-9.7-29.1-9.7-44.8
			c0-21.2,6.1-41.5,17.5-58.9c0.1,0.8,11,42.5,15.2,53.2C62.5,340.2,54.6,357.6,52,376.3L52,376.3z M202.4,326.2H97.6
			c-29.4-69-29.1-146.1-2.4-213.8h109.6C231.5,180.1,231.8,257.2,202.4,326.2z M225.1,325.8c5.8-14.9,15.1-52.6,15.2-53.2
			c11.4,17.3,17.5,37.6,17.5,58.9c0,15.7-3.4,30.9-9.7,44.8C245.4,357.6,237.5,340.2,225.1,325.8L225.1,325.8z"/>
		<path d="M107.9,364.5c-5.8,0-10.4,4.7-10.4,10.4v52.3c0,5.8,4.7,10.4,10.4,10.4s10.4-4.7,10.4-10.4v-52.3
			C118.3,369.1,113.6,364.5,107.9,364.5z"/>
		<path d="M150,364.5c-2.9,0-5.5,1.2-7.4,3.1c0,0,0,0-0.1,0.1c-1.2,1.2-2.1,2.8-2.6,4.6c-0.2,0.9-0.4,1.8-0.4,2.8v104.5
			c0,0.8,0.1,1.6,0.3,2.4c1.1,4.6,5.2,8,10.1,8s9-3.4,10.1-8c0.2-0.8,0.3-1.6,0.3-2.4V374.9c0-1-0.1-1.9-0.4-2.8
			C158.8,367.7,154.8,364.5,150,364.5z"/>
		<path d="M192.1,364.5c-5.8,0-10.4,4.7-10.4,10.4v52.3c0,5.8,4.7,10.4,10.4,10.4s10.4-4.7,10.4-10.4v-52.3
			C202.6,369.1,197.9,364.5,192.1,364.5z"/>
	</g>
</g>
<g>
	<path d="M150.8,256c-27.2,0-49.3-22.1-49.3-49.3s22.1-49.3,49.3-49.3c27.2,0,49.3,22.1,49.3,49.3S178,256,150.8,256z M150.8,172.4
		c-18.9,0-34.3,15.4-34.3,34.3s15.4,34.3,34.3,34.3s34.3-15.4,34.3-34.3S169.7,172.4,150.8,172.4z"/>
</g>
<circle class="st1" cx="14.4" cy="221.1" r="14.4"/>
<circle class="st1" cx="37.3" cy="235.5" r="5.5"/>
<circle class="st1" cx="217.6" cy="28.9" r="14.4"/>
<circle class="st1" cx="225.1" cy="58.5" r="5.5"/>
<circle class="st1" cx="196.2" cy="470.1" r="14.4"/>
<circle class="st1" cx="217.6" cy="443.2" r="5.5"/>
</svg>
