<?xml version="1.0" standalone="no"?>
<!DOCTYPE svg PUBLIC "-//W3C//DTD SVG 1.1//EN" "http://www.w3.org/Graphics/SVG/1.1/DTD/svg11.dtd" >
<svg xmlns="http://www.w3.org/2000/svg">
<metadata>Generated by IcoMoon</metadata>
<defs>
<font id="icomoon" horiz-adv-x="1024">
<font-face units-per-em="1024" ascent="960" descent="-64" />
<missing-glyph horiz-adv-x="1024" />
<glyph unicode="&#x20;" horiz-adv-x="512" d="" />
<glyph unicode="&#xe900;" glyph-name="apple" d="M694.332 931.228c-1.606 10.692-10.893 18.743-21.624 18.743-0.532 0-1.054-0.010-1.606-0.060-54.603-3.815-116.455-37.025-153.841-82.653-40.699-49.584-59.372-109.96-49.905-161.471 1.867-10.099 10.662-17.659 20.922-17.99l1.124-0.010c1.175-0.030 2.359-0.060 3.524-0.060 55.316 0 115.381 31.222 153.018 79.541 38.822 49.865 56.471 109.628 48.389 163.96zM611.258 794.253c-24.546-31.563-62.785-54.945-99.76-61.038l-2.771-0.462 0.030 2.801c0.673 49.493 32.668 91.999 42.456 103.846 23.1 28.18 61.601 52.686 98.113 62.434l3.062 0.813-0.1-3.172c-1.677-49.654-29.244-90.132-41.030-105.221zM519.73-15.601c37.607 0 58.037-9.357 79.681-19.295 20.269-9.296 41.191-18.924 72.714-18.924l1.436 0.020c74.632 0.632 131.373 71.77 177.021 141.262 28.26 43.289 39.043 65.405 60.446 113.112 2.49 5.491 2.59 11.826 0.231 17.398-2.349 5.602-6.907 10.019-12.509 12.137-101.476 38.249-133.23 148.169-104.428 228.061 14.185 39.655 42.135 71.881 80.866 93.204 5.652 3.142 9.668 8.594 10.923 14.948 1.255 6.375-0.351 12.931-4.467 18-50.216 62.755-121.595 100.201-190.976 100.201-48.71 0-81.659-12.509-110.743-23.542-21.725-8.262-40.488-15.38-62.354-15.38-23.994 0-45.668 7.74-70.787 16.715-29.164 10.451-62.012 22.217-102.942 22.217-78.878 0-158.83-47.767-208.665-124.667-18.452-28.552-31.413-63.91-38.51-105.091-20.008-117.469 13.924-257.496 90.765-374.513 43.4-65.998 98.023-133.592 174.090-134.234h1.536c31.664 0 53.047 9.547 73.708 18.783 22.367 9.979 43.46 19.396 81.709 19.566h1.255v0.020zM418.826 4.909c-18.713-8.373-33.491-14.958-55.808-14.958h-1.094c-55.768 0.492-102.952 61.41-137.828 114.407-70.907 108.002-102.38 236.223-84.189 343.020 6.094 35.288 16.876 65.114 32.045 88.656 41.884 64.542 107.731 104.619 171.841 104.619 33.26 0 59.814-9.487 87.923-19.546 26.674-9.557 54.141-19.416 85.795-19.416 29.937 0 54.332 9.296 77.924 18.271 26.965 10.2 54.684 20.691 95.182 20.691 47.927 0 98.404-23.040 138.451-63.227l1.928-1.938-2.239-1.616c-35.107-25.58-61.33-60.446-75.816-100.854-37.697-104.98 8.232-222.579 106.867-273.579l1.988-1.024-0.944-2.038c-15.541-33.762-26.092-52.816-47.014-84.821-37.065-56.31-86.548-121.003-140.669-121.454h-1.074c-21.946 0-36.302 6.556-54.473 14.908-22.588 10.371-50.688 23.261-97.923 23.261h-1.546c-47.465-0.201-76.218-13.041-99.328-23.361z" />
<glyph unicode="&#xe901;" glyph-name="android" d="M632.862 849.96l43.952 73.347c4.989 8.343 2.319 19.095-6.024 24.164-8.433 4.979-19.175 2.309-24.174-6.124l-46.431-77.282c-27.608 9.808-57.173 15.48-88.134 15.48s-60.547-5.672-88.255-15.48l-46.341 77.282c-5.070 8.433-15.842 11.093-24.184 6.124-8.393-5.070-11.063-15.822-6.084-24.164l44.032-73.347c-85.042-43.952-143.36-132.508-143.36-234.596 0-9.798 7.821-17.629 17.539-17.629h493.197c9.718 0 17.619 7.831 17.619 17.629-0.070 102.079-58.378 190.645-143.35 234.596v0zM283.728 632.902c9.015 118.071 107.932 211.356 228.322 211.356 120.3 0 219.206-93.284 228.221-211.356h-456.543zM634.84 749.839h-23.13c-6.465 0-11.615-5.23-11.615-11.605v-23.221c0-6.455 5.16-11.605 11.615-11.605h23.221c6.345 0 11.595 5.15 11.595 11.605v23.221c0.010 6.375-5.24 11.605-11.686 11.605v0zM412.28 749.839h-23.221c-6.365 0-11.605-5.23-11.605-11.605v-23.221c0-6.455 5.23-11.605 11.605-11.605h23.221c6.455 0 11.615 5.15 11.615 11.605v23.221c0 6.375-5.17 11.605-11.615 11.605v0zM758.593 580.096h-493.187c-9.718 0-17.639-7.921-17.639-17.609v-355.258c0-46.873 38.29-85.052 85.153-85.052h20.55v-105.773c0-38.812 31.644-70.365 70.425-70.365 38.882 0 70.525 31.553 70.525 70.365v105.773h35.157v-105.773c0-38.812 31.644-70.365 70.435-70.365 38.862 0 70.505 31.553 70.505 70.365v105.773h20.47c46.953 0 85.133 38.179 85.133 85.052v355.258c0.020 9.688-7.811 17.609-17.528 17.609v0zM740.964 207.229c0-27.447-22.438-49.815-49.965-49.815h-38.099c-9.718 0-17.619-7.901-17.619-17.629v-123.382c0-19.356-15.822-35.107-35.268-35.107-19.366 0-35.187 15.752-35.187 35.107v123.382c0 9.728-7.901 17.629-17.619 17.629h-70.435c-9.718 0-17.639-7.901-17.639-17.629v-123.382c0-19.356-15.812-35.107-35.248-35.107-19.336 0-35.177 15.752-35.177 35.107v123.382c0 9.728-7.921 17.629-17.619 17.629h-38.079c-27.517 0-49.975 22.367-49.975 49.815v337.609h457.919v-337.609zM855.421 580.096c-33.973 0-61.661-27.688-61.661-61.721v-246.413c0-34.053 27.688-61.711 61.661-61.711s61.661 27.668 61.661 61.711v246.403c0 34.043-27.688 61.731-61.661 61.731v0zM881.835 271.952c0-14.607-11.886-26.493-26.413-26.493s-26.393 11.886-26.393 26.493v246.413c0 14.607 11.866 26.473 26.393 26.473s26.413-11.866 26.413-26.473v-246.413zM168.579 580.096c-33.973 0-61.661-27.688-61.661-61.721v-246.413c0-34.053 27.688-61.711 61.661-61.711 33.953 0 61.681 27.668 61.681 61.711v246.403c0 34.043-27.728 61.731-61.681 61.731v0zM194.972 271.952c0-14.607-11.866-26.493-26.393-26.493-14.617 0-26.393 11.886-26.393 26.493v246.413c0 14.607 11.776 26.473 26.393 26.473 14.537 0 26.393-11.866 26.393-26.473v-246.413z" />
<glyph unicode="&#xe902;" glyph-name="magento" d="M343.693 61.139v489.592l102.069 62.845v-557.156l86.016-52.806 85.976 52.575v558.12l103.936-63.317v-488.91l-189.872-116.043-188.125 115.1zM107.219 203.465v489.241l424.599 257.255 425.121-257.255v-489.221l-63.368-37.286 0.151 487.163-13.262 7.56-348.612 211.426-360.107-218.975v-487.926l-64.522 38.019z" />
<glyph unicode="&#xe903;" glyph-name="php" d="M979.597 678.28l-255.759 265.758c-3.644 3.795-8.654 5.923-13.924 5.923h-381.179c-42.657 0-77.372-34.696-77.372-77.352v-270.155h-154.493c-31.905 0-57.876-25.961-57.876-57.876v-289.702c0.010-31.905 25.981-57.856 57.876-57.856h154.493v-173.779c0-42.566 34.716-77.202 77.372-77.202h578.891c42.677 0 77.372 34.615 77.372 77.171v641.677c0 5.010-1.938 9.798-5.401 13.392zM714.712 897.837l209.97-218.162h-209.97v218.162zM96.868 235.63c-10.621 0-19.255 8.624-19.255 19.245v289.702c0 10.632 8.634 19.255 19.255 19.255h521.357c10.621 0 19.265-8.624 19.265-19.255v-289.702c0-10.621-8.644-19.245-19.265-19.245h-521.357zM946.407 23.211c0-21.263-17.398-38.571-38.771-38.571h-578.901c-21.373 0-38.751 17.328-38.751 38.611v173.769h328.242c31.915 0 57.876 25.951 57.876 57.856v289.702c0 31.915-25.961 57.876-57.876 57.876h-328.242v270.155c0 21.373 17.378 38.731 38.751 38.731h347.367v-250.98c0-10.662 8.644-19.305 19.305-19.305h251v-617.843zM226.635 476.2c-6.184 1.677-19.456 2.5-39.816 2.5h-53.75v-165.828h33.491v62.544h21.825c15.169 0 26.734 0.783 34.736 2.369 5.883 1.305 11.656 3.905 17.358 7.861 5.702 3.945 10.391 9.417 14.085 16.354 3.704 6.927 5.562 15.491 5.562 25.68 0 13.192-3.213 23.954-9.628 32.306-6.415 8.312-14.366 13.734-23.863 16.213zM221.837 414.328c-2.54-3.704-6.034-6.435-10.461-8.152-4.467-1.727-13.282-2.62-26.504-2.62h-18.301v47.064h16.173c12.047 0 20.088-0.371 24.084-1.114 5.431-0.994 9.919-3.443 13.453-7.359 3.554-3.925 5.321-8.915 5.321-14.928 0.010-4.889-1.235-9.186-3.765-12.89zM386.811 413.415h-65.606v65.285h-33.481v-165.828h33.481v72.503h65.606v-72.503h33.481v165.828h-33.481zM548.452 476.2c-6.164 1.677-19.456 2.5-39.816 2.5h-53.72v-165.828h33.461v62.544h21.845c15.159 0 26.734 0.783 34.736 2.369 5.883 1.305 11.656 3.905 17.358 7.861 5.692 3.945 10.381 9.417 14.085 16.354 3.674 6.927 5.532 15.491 5.532 25.68 0 13.192-3.192 23.954-9.608 32.306-6.405 8.312-14.356 13.734-23.873 16.213zM543.654 414.328c-2.53-3.704-6.024-6.435-10.451-8.152-4.457-1.727-13.282-2.62-26.493-2.62h-18.332v47.064h16.183c12.067 0 20.099-0.371 24.094-1.114 5.441-0.994 9.919-3.443 13.453-7.359 3.554-3.925 5.331-8.915 5.331-14.928 0.010-4.889-1.245-9.186-3.785-12.89z" />
<glyph unicode="&#xe904;" glyph-name="wordpress" d="M746.225 30.238c10.611 0.171 19.908 6.706 23.642 16.605l242.427 638.715c2.911 7.69 1.948 16.424-2.62 23.341l-95.945 145.458c-7.6 11.395-24.174 15.029-35.79 7.349-11.826-7.8-15.069-23.833-7.238-35.709l88.666-134.485-214.789-565.961-274.442 656.103c-5.281 12.7-20.6 19.295-33.672 13.814-6.335-2.65-11.274-7.63-13.884-13.995-2.62-6.385-2.58-13.382 0.050-19.737l80.163-191.508-168.759-444.677-274.512 656.103c-5.321 12.72-20.631 19.225-33.611 13.824-13.121-5.512-19.356-20.651-13.894-33.742l299.389-715.716c4.036-9.587 13.372-15.782 23.763-15.782 11.063 0.171 20.349 6.706 24.134 16.605l172.343 454.234 190.394-455.058c3.996-9.587 13.362-15.782 23.783-15.782z" />
<glyph unicode="&#xe905;" glyph-name="codeigniter" d="M703.046 570.639c2.45-67.273-80.454-93.716-116.646-43.038-46.221 64.763 0.964 134.536 7.58 203.083 8.212 85.956-41.171 169.362-102.48 219.277 33.782-59.543-10.722-138.29-46.271-182.292-34.495-42.717-76.439-78.356-114.507-117.097-40.89-41.663-80.243-85.514-113.875-134.415-67.263-97.842-108.434-220.883-78.135-342.97 30.228-121.976 127.137-199.64 236.584-227.117-55.266 26.052-106.918 92.2-107.038 159.875-0.12 73.768 42.757 136.383 96.065 177.513-6.375-26.413-9.919-50.547 5.993-74.18 14.758-21.966 40.609-32.607 65.024-26.825 57.083 13.593 59.703 81.99 25.851 121.886-33.441 39.434-65.797 83.998-53.057 141.232 6.345 28.692 22.528 55.537 42.988 74.752-15.721-45.106 29.013-89.54 58.398-111.676 51.12-38.39 107.149-67.423 154.152-112.459 49.383-47.325 85.845-111.315 78.547-185.525-7.961-80.404-66.61-136.393-132.377-164.623 138.933 33.4 282.564 151.030 285.505 319.046 2.44 138.27-84.54 244.636-192.301 305.554z" />
<glyph unicode="&#xe906;" glyph-name="dotnet" d="M36.452 84.219c-6.837 0-12.599-2.429-17.318-7.339-4.728-4.889-7.098-10.782-7.098-17.769 0-6.797 2.369-12.71 7.098-17.659 4.718-4.979 10.481-7.469 17.318-7.469 6.997 0 12.91 2.49 17.779 7.469 4.869 4.949 7.329 10.862 7.329 17.659 0 6.807-2.46 12.72-7.329 17.659-4.869 5-10.782 7.449-17.779 7.449zM335.491 133.311c0-22.046 0.743-37.677 2.209-46.823h-0.883c-2.168 4.247-6.515 11.374-12.89 21.293l-159.553 249.976h-48.419v-318.655h37.326v230.239c0 22.357-0.582 36.954-1.787 43.741h1.345c2.801-7.258 6.144-13.914 9.979-19.998l164.462-253.982h45.307v318.665h-37.095v-224.457zM480.447 184.21h115.15v33.792h-115.15v105.984h124.225v33.772h-161.491v-318.655h168.91v33.772h-131.644v111.335zM647.118 323.986h91.959v-284.883h37.326v284.883h91.809v33.772h-221.094v-33.772zM470.97 852.651c76.127 3.654 109.628-32.085 130.711-95.433 20.289-61.159 34.796-124.215 52.033-186.388 1.416-5.21 4.237-10.059 8.845-20.922 19.637 64.412 36.944 122.82 55.266 180.937 13.181 41.793 25.219 86.076 67.162 108.614 22.207 11.967 48.7 20.751 73.658 21.845 51.632 2.299 103.504-1.536 155.327-2.841 0-3.423 0-6.837 0-10.26-18.783-31.232-38.31-62.042-56.27-93.746-47.355-83.536-92.311-168.88-159.182-239.054-22.267-23.361-48.74-42.496-86.106-41.121l-189.701-0.201c-43.63-2.209-69.512 19.105-85.263 53.961-17.147 37.928-30.389 77.814-42.727 117.629-12.549 40.799-21.976 82.593-33.842 128.151-34.023-35.699-67.433-67.343-82.281-114.618-14.497-46.14-29.716-92.622-50.989-135.811-20.339-41.101-61.069-56.601-105.603-58.458-34.957-1.476-69.913-0.311-111.967-0.311 19.657 54.593 35.328 106.536 56.872 155.879 30.499 69.652 69.712 134.606 126.173 187.081 30.349 28.22 63.759 47.656 108.715 45.237l169.171-0.171z" />
<glyph unicode="&#xe907;" glyph-name="phonegap" d="M508.547 945.855c-22.909-8.493-37.848-25.229-45.156-50.407-5.060-17.227-5.060-22.458 5.461-347.608 5.11-156.401 10.581-337.478 12.659-402.332 2.53-85.333 4.578-122.649 7.138-134.596 8.463-39.886 40.328-64.873 82.984-64.873 16.043 0 368.429 59.854 386.339 65.556 16.294 5.311 35.77 24.295 44.705 43.801 13.794 29.997 13.794 29.555 4.317 168.277-12.81 188.486-30.891 465.408-34.796 535.833-4.126 69.682-6.666 82.301-20.711 103.193-10.039 14.908-31.784 31.152-47.636 36.011-6.646 1.797-46.943 8.654-89.881 14.898-268.489 38.992-283.598 40.579-305.423 32.336v-0.090zM748.885 759.055c118.754-9.186 133.010-10.571 141.663-14.938 14.487-7.549 26.865-19.918 33.712-33.712 5.963-12.127 6.164-14.697 11.475-105.934 2.931-51.351 9.186-152.917 13.523-226.043 7.549-122.669 8.082-133.431 4.809-144.615-6.445-21.353-27.277-39.966-52.937-46.793-16.043-4.116-278.809-30.489-293.717-29.405-26.835 2.098-48.138 19.285-57.073 46.351-2.982 8.493-4.337 25.921-6.003 68.779-1.104 31.634-5.261 144.183-9.186 250.408-6.415 177.905-6.877 193.948-3.393 205.141 4.568 15.832 15.36 28.652 29.796 35.348 16.243 7.539 30.901 7.288 187.332-4.588zM573.751 754.899c-18.884-5.030-31.383-24.054-31.383-46.984 0-11.033-3.032-10.33 48.118-14.657 32.306-2.781 45.387-7.8 57.485-22.739 12.82-15.35 13.111-18.131 21.363-207.42 8.192-192.201 8.483-187.583-4.126-204.117-3.433-4.367-12.408-10.822-20.701-14.948-12.579-6.144-18.994-7.499-49.684-10.772-19.516-1.837-35.84-3.925-36.252-4.327-1.827-1.636 5.261-25.68 10.531-34.846 2.992-5.311 9.397-12.419 14.015-15.36 14.888-9.879 25.369-10.32 85.072-4.176 29.766 3.002 54.784 6.465 55.517 7.118 0.904 0.934-4.407 129.074-11.515 284.732l-12.77 283.186-48.168 3.915c-55.728 4.367-65.556 4.568-77.493 1.345v0.050zM301.739 850.291c-17.147-4.568-26.985-11.274-34.856-23.632-13.965-22.006-13.513 10.822-6.616-363.56 6.204-338.944 6.897-358.872 13.754-374.443 9.879-22.909 30.499-36.483 61.892-40.589 9.427-1.144 132.056 13.061 134.636 15.832 0.893 0.893-3.765 155.668-4.809 156.602-0.251 0.442-21.143-1.345-46.341-3.925-47.235-4.819-59.352-4.387-73.848 3.223-13.011 6.857-23.843 22.458-27.758 40.568-1.094 5.522-3.875 99.95-6.114 210-4.608 225.38-5.311 212.309 12.82 228.603 14.205 12.82 22.036 13.965 72.252 10.732 24.004-1.556 46.050-3.343 49.021-4.036l5.311-1.395-1.345 50.216c-0.733 27.718-2.078 58.458-2.771 68.548l-1.185 18.573-61.229 6.124c-69.261 7.138-66.078 7.138-82.813 2.56zM130.199 737.22c-17.84-4.578-31.101-17.88-34.123-34.334-0.893-4.608-0.412-78.416 1.185-164.181 4.608-255.629 6.696-323.474 9.828-334.035 4.126-13.985 17.237-26.132 33.27-30.72 12.609-3.664 15.591-3.664 53.439 0 22.006 2.329 44.454 4.588 49.724 5.281l9.838 1.385-1.395 55.276c-0.893 30.208-1.827 55.467-1.998 55.677-0.241 0.442-14.898-0.452-32.788-1.847-40.167-3.172-50.658-1.827-61.641 7.8-15.39 13.553-14.657 8.694-18.412 168.307l-3.182 144.635 4.859 9.638c3.715 7.108 7.509 10.772 15.35 14.216 9.668 4.367 13.302 4.568 50.658 3.012l40.127-1.837-1.556 46.743c-0.693 25.389-2.078 46.984-2.53 47.676-1.385 1.144-48.66 5.471-84.831 8.041-10.079 0.693-21.554 0.211-25.64-0.653l-0.181-0.080zM341.414 695.045c-15.551-7.319-22.94-24.988-20.41-49.724l1.556-15.39 25.51-1.144c30.489-1.395 41.723-5.722 51.31-20.621l6.455-9.628v-273.96l-6.857-7.389c-10.33-10.983-24.084-15.992-47.927-17.83l-20.851-1.405-0.703-12.609c-1.797-28.612 8.282-48.62 28.451-56.37 9.186-3.464 13.302-3.715 45.357-0.974 19.516 1.616 36.452 3.715 38.089 4.598 3.383 2.078 3.182 29.997-1.185 224.648-4.809 224.035-5.261 231.133-14.898 236.152-2.329 1.144-20.661 2.781-40.619 3.393-28.371 1.225-37.798 0.693-43.309-1.837l0.030 0.090zM24.998 601.761c-2.771-0.934-7.098-4.769-9.879-8.242-4.769-6.003-4.769-7.549-4.769-102.701 0-52.997 0.683-111.445 1.626-129.536 1.345-29.816 1.757-33.471 6.616-39.213 7.389-8.513 18.824-11.003 46.582-9.618l23.391 1.104-0.693 28.943-0.653 28.893-21.143 1.165c-33.682 1.787-31.393-4.337-32.296 88.496-0.733 86.869-0.934 85.966 15.802 90.303 5.251 1.626 14.647 1.837 21.755 0.984l12.408-1.385v50.407l-7.148 1.385c-10.28 2.048-45.839 1.345-51.602-0.893v-0.090zM147.918 575.598v-24.285h7.108c9.387 0 22.247-6.204 25.429-12.368 4.116-7.108 5.752-143.48 1.837-152.486-2.982-7.319-14.446-13.995-23.843-13.995h-5.953v-20.4c0-11.284 0.693-23.693 1.375-27.568 1.355-6.867 1.847-7.108 14.416-7.108 14.657 0 26.363 5.12 33.029 14.216 4.608 6.003 4.608 8.092 1.837 123.814-2.53 101.527-3.433 118.754-6.696 125.41-6.124 12.609-14.376 17.147-32.487 18.040l-16.053 0.984v-24.255z" />
<glyph unicode="&#xe908;" glyph-name="mobile" d="M771.765 949.961h-519.529c-35.047 0-63.568-28.531-63.568-63.558v-876.775c0-35.087 28.521-63.588 63.568-63.588h519.529c35.057 0 63.558 28.501 63.558 63.588v876.775c0 35.027-28.501 63.558-63.558 63.558v0zM220.531 790.197h582.937v-663.893h-582.937v663.893zM252.235 918.106h519.529c17.488 0 31.704-14.226 31.704-31.704v-74.973h-582.937v74.973c0 17.478 14.205 31.704 31.704 31.704v0zM771.765-22.106h-519.529c-17.498 0-31.704 14.226-31.704 31.734v95.423h582.937v-95.423c0-17.508-14.216-31.734-31.704-31.734v0zM512 90.975c-28.742 0-52.164-23.361-52.164-52.144 0-28.772 23.421-52.134 52.164-52.134s52.144 23.361 52.144 52.134c0 28.772-23.371 52.144-52.144 52.144v0zM512 7.881c-17.047 0-30.921 13.884-30.921 30.941 0 17.067 13.874 30.921 30.921 30.921 17.057 0 30.921-13.854 30.921-30.921 0-17.057-13.864-30.941-30.921-30.941v0zM439.808 848.776h144.394c5.863 0 10.632 4.769 10.632 10.632s-4.769 10.632-10.632 10.632h-144.394c-5.853 0-10.611-4.769-10.611-10.632s4.749-10.632 10.611-10.632v0zM401.589 848.776c2.791 0 5.522 1.144 7.509 3.112 1.978 1.998 3.122 4.739 3.122 7.519 0 2.811-1.144 5.522-3.122 7.519-1.978 1.988-4.708 3.112-7.509 3.112s-5.512-1.114-7.509-3.112c-1.988-1.968-3.092-4.708-3.092-7.519 0-2.781 1.104-5.522 3.092-7.519 1.968-1.958 4.718-3.112 7.509-3.112v0z" />
<glyph unicode="&#xe909;" glyph-name="hire-developer" d="M414.81 443.061v143.731c0 7.74-3.986 14.989-10.29 19.225-12.429 8.202-19.717 21.795-19.717 36.583v149.112c0 61.169 49.965 111.124 111.124 111.124h32.136c61.199 0 111.094-49.965 111.094-111.124v-149.112c0-14.788-7.218-28.381-19.667-36.583-6.576-4.237-10.32-11.495-10.32-19.225v-143.731c0-11.254 6.576-21.765 16.635-26.724 18.753-9.116 117.017-58.84 207.721-133.15 11.264-9.397 17.85-23.221 17.85-37.998v-102.219c0-12.89 10.27-23.201 23.171-23.201s23.221 10.3 23.221 23.201v102.229c0 28.813-12.649 55.577-34.665 73.848-84.43 69.18-174.933 117.921-207.521 134.596v122.368c19.004 17.097 30.027 41.261 30.027 67.263v149.123c0.020 87.010-70.576 157.565-157.535 157.565h-32.136c-86.96 0-157.545-70.556-157.545-157.565v-149.112c0-25.781 11.043-50.176 30.017-67.263v-122.368c-32.577-16.675-123.332-65.215-207.501-134.596-22.026-18.030-34.685-45.036-34.685-73.848v-102.219c0-12.89 10.31-23.201 23.201-23.201 12.91 0 23.221 10.3 23.221 23.201v102.209c0 14.778 6.556 28.612 17.82 37.998 90.724 74.551 188.948 124.024 207.721 133.15 10.31 4.949 16.625 15.25 16.625 26.714v0zM561.353 425.010c-12.89 0-23.221-10.29-23.221-23.201 0-7.519-3.233-14.316-8.433-19.235-1.175-0.693-2.108-1.636-3.052-2.57-4.227-2.811-9.116-4.437-14.527-4.437-14.547 0-26.253 11.716-26.253 26.243 0 12.9-10.32 23.201-23.211 23.201-12.91 0-23.221-10.29-23.221-23.201 0-16.886 5.863-32.105 15.25-44.554l-14.778-344.415c-0.221-6.797 2.58-13.593 7.74-18.271l47.355-42.677c4.437-3.986 10.089-5.863 15.491-5.863 5.622 0 11.204 2.118 15.46 6.094l48.088 43.379c5.14 4.678 7.951 11.234 7.71 18.271l-15.46 340.209c11.204 12.86 18.271 29.505 18.271 48.028 0 12.71-10.34 23-23.211 23v0zM510.494 0.412l-23.693 21.353 13.362 308.314c3.986-0.723 7.981-1.175 11.957-1.175 3.022 0 6.104 0.231 8.915 0.683l13.864-307.371-24.405-21.805z" />
<glyph unicode="&#xe90a;" glyph-name="integrity" d="M686.712 647.198l-253.912 87.582c-24.064 8.232-50.979 6.556-74.019-4.538l-12.73-6.144c-17.277-8.443-37.637-9.668-55.728-3.102l-21.765 7.821c-1.054 0.602-2.068 1.225-3.122 1.636l-129.907 44.193c-3.072 1.034-6.576 0.823-9.457-0.602-2.881-1.466-5.13-3.915-6.144-7.007l-109.197-318.434c-2.279-6.365 1.245-13.352 7.61-15.621l130.118-44.594c1.466-0.643 2.711-0.843 4.126-0.843 1.847 0 3.694 0.412 5.331 1.225 2.881 1.446 5.16 3.915 6.194 7.007l105.060 306.317 13.151-4.728c24.245-8.634 51.602-7.007 74.842 4.327l12.72 6.164c17.067 8.423 37.225 9.668 55.105 3.484l244.495-84.289c-1.887-10.682-7.007-28.371-20.38-37.617-11.907-8.202-29.184-8.634-50.979-1.034l-106.717 36.402c-3.313 1.014-6.787 0.823-9.879-0.833-3.072-1.656-5.12-4.508-6.144-7.8-0.211-0.643-16.033-59.021-65.385-85.333-31.252-16.846-69.893-17.468-114.919-2.068-6.385 2.279-13.372-1.225-15.631-7.61-2.259-6.365 1.255-13.372 7.61-15.601 24.034-8.252 46.873-12.338 68.046-12.338 24.245 0 46.461 5.331 66.6 16.253 44.002 23.642 65.165 66.801 73.186 88.184l94.81-32.477c29.786-10.27 54.292-8.855 73.206 4.086 30.389 20.972 31.854 64.161 32.065 66.028 0.161 5.331-3.313 10.27-8.262 11.907v0zM144.976 415.714l-106.908 36.583 101.175 295.012 104.006-35.549 2.47-1.245 0.412-0.211-101.155-294.591zM1012.756 464.856l-148.42 301.578c-1.426 2.881-3.875 5.14-6.967 6.144-3.092 1.054-6.566 0.833-9.447-0.602l-123.543-60.446c-6.194-3.092-8.644-10.27-5.803-16.464l143.912-293.958-48.279-44.213c-40.92-37.607-87.171-69.080-137.166-93.535l-236.624-115.752c-6.576-3.273-13.995-3.694-20.972-1.225-7.007 2.47-12.529 7.409-15.822 13.995-3.313 6.576-3.715 13.975-1.245 20.952 2.45 6.987 7.389 12.559 13.975 15.842l132.206 64.753c6.184 3.082 8.634 10.27 5.763 16.454-3.102 6.164-10.491 8.634-16.424 5.752l-194.54-95.202c-13.543-6.566-30.218-1.014-36.794 12.559-6.576 13.563-1.034 30.017 12.549 36.794l189.952 92.913c6.194 3.102 8.644 10.27 5.783 16.464-3.122 6.144-10.511 8.624-16.484 5.742l-213.163-104.217c-13.583-6.576-30.218-1.034-36.794 12.529-6.576 13.593-1.034 30.228 12.529 36.824l193.456 94.77c6.174 3.072 8.644 10.29 5.763 16.444-3.092 6.164-10.481 8.634-16.464 5.752l-170.014-83.265c-6.576-3.283-13.975-3.694-20.972-1.245-6.987 2.5-12.529 7.389-15.822 14.015-3.313 6.546-3.694 13.975-1.245 20.952 2.47 6.987 7.409 12.529 13.975 15.842l90.273 44.183c6.184 3.102 8.634 10.27 5.763 16.444-3.102 6.174-10.491 8.624-16.464 5.763l-90.222-44.213c-12.549-6.164-22.006-16.856-26.524-29.997-4.508-13.161-3.694-27.347 2.45-39.896 4.728-9.859 12.549-17.669 22.006-22.819-15.631-15.41-20.349-39.464-10.27-60.014 9.025-18.512 27.558-29.184 46.853-29.184 2.279 0 4.538 0.171 6.797 0.381-1.636-10.27-0.412-21.163 4.538-31.443 9.045-18.512 27.538-29.204 46.873-29.204 7.61 0 15.41 1.646 22.799 5.371l22.418 11.083c-1.034-9.678 0.602-19.346 5.14-28.16 6.164-12.549 16.846-22.006 30.027-26.524 5.542-1.857 11.304-2.881 17.067-2.881 7.821 0 15.601 1.827 22.799 5.331l236.644 115.752c52.234 25.49 100.161 58.378 142.878 97.651l53.7 49.323 121.866 59.623c6.164 3.112 8.614 10.29 5.732 16.484v0zM883.24 414.69l-137.126 280.225 101.577 49.523 136.915-280.205-101.366-49.544z" />
<glyph unicode="&#xe90b;" glyph-name="accountability" d="M296.94 698.278h-272.434c-8.021 0-14.467-6.475-14.467-14.467v-645.481c0-8.021 6.445-14.436 14.467-14.436h272.434c7.991 0 14.456 6.425 14.456 14.436v645.481c0 7.991-6.465 14.467-14.456 14.467v0zM282.473 52.786h-243.531v616.579h243.531v-616.579zM870.269 675.107c-1.807 7.57-10.079 12.539-17.398 10.732l-201.638-48.078c-1.606-0.381-2.911-1.155-4.166-1.928v237.538c0 8.021-6.465 14.436-14.477 14.436h-272.434c-8.021 0-14.467-6.415-14.467-14.436v-835.042c0-8.021 6.445-14.436 14.467-14.436h272.424c7.911 0 14.477 6.425 14.477 14.436v554.687l136.724-573.771c0.904-3.704 3.152-6.897 6.505-8.925 2.259-1.456 4.859-2.128 7.57-2.128 1.054 0 2.158 0.1 3.263 0.321l201.798 48.118c7.67 1.928 12.529 9.728 10.632 17.488l-143.28 600.988zM618.135 52.786h-243.541v806.119h243.541v-806.119zM808.599 40.026l-136.614 572.988 173.407 41.311 136.614-572.858-173.407-41.442zM160.637 258.841c51.612 0 93.505 41.884 93.505 93.355 0 51.612-41.894 93.515-93.505 93.515-51.461 0-93.345-41.914-93.345-93.515 0-51.471 41.884-93.355 93.345-93.355v0zM160.637 416.798c35.699 0 64.602-29.033 64.602-64.602 0-35.549-29.023-64.452-64.602-64.452-35.549 0-64.442 28.903-64.442 64.452 0 35.569 28.903 64.602 64.442 64.602v0zM81.729 65.325h157.947c8.021 0 14.467 6.445 14.467 14.436v59.282c0 7.891-6.445 14.456-14.467 14.456h-157.947c-7.901 0-14.436-6.566-14.436-14.456v-59.282c0-8.001 6.536-14.436 14.436-14.436v0zM96.196 124.607h129.044v-30.379h-129.044v30.379zM81.729 533.203h157.947c8.021 0 14.467 6.445 14.467 14.436v59.191c0 7.991-6.445 14.436-14.467 14.436h-157.947c-7.901 0-14.436-6.445-14.436-14.436v-59.191c0-7.991 6.536-14.436 14.436-14.436v0zM96.196 592.364h129.044v-30.258h-129.044v30.258zM496.309 323.986c51.491 0 93.505 41.864 93.505 93.355s-41.924 93.405-93.505 93.405c-51.481 0-93.355-41.914-93.355-93.405s41.864-93.355 93.355-93.355v0zM496.309 481.842c35.549 0 64.582-28.903 64.582-64.502 0-35.569-29.033-64.452-64.582-64.452-35.539 0-64.452 28.883-64.452 64.452-0.010 35.599 28.903 64.502 64.452 64.502v0zM417.38 65.325h157.987c7.871 0 14.436 6.445 14.436 14.436v59.282c0 7.891-6.566 14.456-14.436 14.456h-157.987c-7.991 0-14.436-6.566-14.436-14.456v-59.282c0-8.001 6.445-14.436 14.436-14.436v0zM431.847 124.607h129.034v-30.379h-129.034v30.379zM417.38 740.483h157.987c7.871 0 14.436 6.445 14.436 14.467v59.161c0 8.021-6.566 14.436-14.436 14.436h-157.987c-7.991 0-14.436-6.425-14.436-14.436v-59.161c0-8.021 6.445-14.467 14.436-14.467v0zM431.847 799.644h129.034v-30.228h-129.034v30.228zM811.751 411.256c-17.047-4.186-31.483-14.567-40.759-29.576-9.226-14.888-12.087-32.637-8.031-49.684 7.118-29.806 33.441-50.557 63.92-50.557 5.17 0 10.381 0.643 15.39 1.897 35.298 8.343 57.103 43.922 48.64 79.139-6.877 29.254-34.003 50.487-64.221 50.487-5 0-10.069-0.582-14.938-1.707v0zM862.941 355.709c2.209-9.477 0.653-19.305-4.558-27.779-5.17-8.353-13.181-14.246-22.809-16.504-2.801-0.643-5.622-1.004-8.573-1.004-16.806 0-31.945 11.856-35.9 28.321-2.259 9.497-0.643 19.436 4.508 27.809 5.22 8.443 13.342 14.316 22.809 16.565 2.801 0.693 5.763 1.034 8.573 1.034 17.207-0.1 31.844-11.726 35.95-28.441v0zM805.587 139.274c-1.948-3.283-2.61-7.228-1.707-10.963l13.734-57.675c0.954-3.735 3.152-6.897 6.475-8.925 2.259-1.355 4.809-2.158 7.57-2.158 1.104 0 2.108 0.1 3.363 0.452l117.107 27.999c7.77 1.807 12.489 9.597 10.732 17.388l-13.784 57.575c-1.817 7.68-9.828 12.539-17.398 10.702l-117.218-27.949c-3.704-0.934-6.867-3.192-8.875-6.445v0zM924.301 142.205l7.017-29.465-88.988-21.353-6.957 29.576 88.927 21.243zM823.186 623.064l-117.067-27.999c-3.855-0.904-7.017-3.152-9.065-6.445-1.907-3.263-2.61-7.218-1.707-10.933l13.784-57.705c1.506-6.445 7.319-11.083 14.035-11.083 1.104 0 2.349 0.131 3.363 0.482l117.057 27.869c7.821 1.928 12.539 9.698 10.732 17.398l-13.744 57.685c-1.847 7.58-9.718 12.439-17.388 10.732v0zM733.897 540.873l-7.118 29.485 89.038 21.203 7.017-29.555-88.937-21.133z" />
<glyph unicode="&#xe90c;" glyph-name="creativity" d="M916.641 358.149l-55.808 55.838c-3.383 3.383-8.011 5.321-12.83 5.321s-9.447-1.938-12.83-5.321l-7.309-7.329-51.642 51.571v100.794c0 7.961-5.12 14.968-12.68 17.358l-318.725 99.88c-6.415 2.038-13.483 0.321-18.251-4.477-4.779-4.779-6.515-11.816-4.477-18.281l99.93-318.705c2.329-7.56 9.347-12.71 17.308-12.71h100.824l51.581-51.561-7.359-7.309c-3.383-3.433-5.271-8.041-5.271-12.88 0-4.809 1.887-9.407 5.271-12.83l55.848-55.818c3.544-3.534 8.202-5.311 12.83-5.311 4.678 0 9.306 1.787 12.83 5.311l150.759 150.769c7.118 7.088 7.118 18.603 0 25.69v0zM647.66 358.42h-95.001l-73.768 235.359 105.201-105.201c-4.377-8.403-6.766-17.81-6.766-27.588 0-16.013 6.264-31.061 17.609-42.396 11.686-11.696 27.056-17.559 42.386-17.559 15.36 0 30.78 5.863 42.466 17.559 23.331 23.371 23.331 61.42 0 84.821-18.954 18.924-47.455 22.538-70.034 10.842l-105.191 105.241 235.41-73.818v-95.001c0-4.819 1.887-9.447 5.271-12.83l56.902-56.872-84.711-84.751-56.902 56.872c-3.423 3.433-8.051 5.321-12.87 5.321v0zM637.309 484.653c6.064 0 12.137-2.309 16.755-6.907 9.206-9.226 9.206-24.225 0-33.451-9.196-9.226-24.215-9.226-33.471 0-9.206 9.226-9.206 24.225 0 33.451 4.628 4.598 10.702 6.907 16.715 6.907v0zM753.052 220.23l-30.138 30.118 125.089 125.089 30.098-30.138-125.048-125.069zM610.354 54.864c-24.566 0-45.407-16.414-52.124-38.842-97.39 10.391-189.008 53.75-259.042 122.93-70.034 69.16-114.497 160.125-126.083 257.275 21.885 7.058 37.747 27.598 37.747 51.772 0 24.225-15.872 44.765-37.747 51.832 11.585 97.139 56.049 188.105 126.083 257.265 70.034 69.19 161.601 112.53 259.042 122.91 6.666-22.458 27.507-38.872 52.124-38.872 29.987 0 54.413 24.395 54.413 54.413 0 29.987-24.425 54.413-54.413 54.413-25.52 0-47.004-17.659-52.826-41.382h-259.433v10.591c0 7.188-5.823 13.031-13.031 13.031h-47.255c-7.158 0-13.031-5.853-13.031-13.031v-47.255c0-7.208 5.863-13.031 13.031-13.031h47.255c7.208 0 13.031 5.823 13.031 13.031v10.601h153.791c-63.719-22.408-122.258-58.739-171.008-106.888-51.331-50.678-89.731-112.459-112.55-179.832v98.876h10.591c7.158 0 13.031 5.823 13.031 13.011v47.255c0 7.208-5.863 13.031-13.031 13.031h-47.255c-7.208 0-13.031-5.823-13.031-13.031v-47.255c0-7.188 5.823-13.011 13.031-13.011h10.601v-194.128c-23.181-6.244-40.237-27.427-40.237-52.525s17.057-46.281 40.237-52.525v-194.128h-10.601c-7.208 0-13.031-5.843-13.031-13.031v-47.224c0-7.218 5.823-13.041 13.031-13.041h47.255c7.158 0 13.031 5.823 13.031 13.041v47.224c0 7.188-5.863 13.031-13.031 13.031h-10.591v98.856c22.829-67.343 61.229-129.114 112.55-179.802 48.74-48.198 107.389-84.56 171.149-106.938h-153.931v10.601c0 7.218-5.823 13.031-13.031 13.031h-47.255c-7.158 0-13.031-5.813-13.031-13.031v-47.255c0-7.188 5.863-13.031 13.031-13.031h47.255c7.208 0 13.031 5.843 13.031 13.031v10.601h259.433c5.823-23.723 27.307-41.382 52.826-41.382 29.987 0 54.413 24.425 54.413 54.413s-24.425 54.403-54.413 54.403v0zM610.354 923.899c15.621 0 28.351-12.73 28.351-28.351 0-15.651-12.74-28.351-28.351-28.351s-28.351 12.71-28.351 28.351c0 15.621 12.73 28.351 28.351 28.351v0zM128.090 448c0 15.671 12.73 28.401 28.351 28.401s28.351-12.74 28.351-28.401c0-15.621-12.73-28.351-28.351-28.351s-28.351 12.73-28.351 28.351v0zM610.354-27.899c-15.621 0-28.351 12.72-28.351 28.351 0 15.621 12.74 28.351 28.351 28.351s28.351-12.74 28.351-28.351c0-15.641-12.73-28.351-28.351-28.351v0z" />
<glyph unicode="&#xe90d;" glyph-name="teachability" d="M1013.961 392.614c-0.161 30.178-24.074 54.764-53.338 54.764h-55.015v137.859c0 6.024-2.771 11.907-7.479 15.752-59.251 48.269-124.858 72.714-194.941 72.714-2.52 0.080-4.447 0.030-6.706-0.131l-16.384-1.074 2.259 16.284c1.044 7.62 1.616 15.39 1.616 23.291 0 103.805-84.49 188.296-188.396 188.296-103.805 0-188.296-84.49-188.296-188.296 0-7.951 0.632-15.812 1.516-23.351l1.787-14.657-14.768-0.371c-68.317-1.546-132.016-26.072-189.45-72.915-4.969-3.925-7.851-9.768-7.851-15.701v-137.859h-34.334c-29.857 0.010-54.141-24.476-54.141-54.603v-67.213c0-29.234 24.285-53.027 54.131-53.027h34.334v-256.482c0-7.56 4.508-14.517 11.726-18.191 6.756-3.192 15.491-2.409 20.992 1.837 12.88 8.875 76.9 49.574 171.701 49.574 61.621 0 122.077-16.304 179.662-48.469 12.248-6.787 34.455-2.962 39.896 0.050 59.362 32.146 119.778 48.419 179.612 48.419 100.563 0 168.348-47.345 171.179-49.363 6.275-4.658 14.185-5.441 21.404-1.938 6.656 3.433 10.943 10.421 10.943 18.091v256.472h55.015c29.897 0 53.338 23.291 53.338 53.027v67.213zM472.526 51.622l-18.422 7.459c-50.618 20.5-99.77 30.439-150.387 30.439-67.634 0-119.306-18.532-144.113-29.596l-18.844-8.403v220.853h57.846c29.576 0 52.716 23.291 52.716 53.027v67.213c0 30.208-23.612 54.764-52.716 54.764h-57.856v127.839l5.18 4.006c45.909 35.388 99.93 54.071 156.311 54.071 63.809 0 118.252-23.763 152.646-43.711l2.51-1.887c1.727-1.677 3.192-3.353 4.708-5.050 1.466-1.677 2.931-3.423 5.18-5.21l5.23-4.006v-521.808zM866.033 447.378h-39.896c-29.576 0-53.609-24.556-53.609-54.764v-67.213c0-29.736 23.562-53.027 53.609-53.027h39.896v-220.27l-18.532 7.69c-48.319 19.998-95.644 29.736-144.635 29.736-51.411 0-103.283-10.411-150.026-30.208l-18.633-7.871v527.38l6.124 3.955c23.341 15.179 86.056 50.517 163.84 50.517 54.653 0 107.269-18.111 156.311-53.84l5.552-4.006v-128.080z" />
<glyph unicode="&#xe90e;" glyph-name="respect" d="M202.461 288.587l-119.035-68.698c-8.021-4.628-10.752-14.848-6.124-22.869 3.072-5.371 8.704-8.363 14.477-8.363 2.841 0 5.712 0.713 8.363 2.249l119.065 68.698c7.981 4.598 10.712 14.848 6.114 22.869-4.618 7.991-14.838 10.742-22.859 6.114v0zM244.294 448c0 9.226-7.499 16.725-16.725 16.725l-200.784 0.030c-9.246-0.010-16.745-7.509-16.745-16.755 0-9.256 7.499-16.725 16.745-16.725l200.784-0.030c9.226 0 16.725 7.499 16.725 16.755v0zM296.769 787.336c3.102-5.371 8.734-8.363 14.507-8.363 2.841 0 5.712 0.723 8.333 2.249 8.011 4.598 10.742 14.848 6.144 22.839l-41.864 72.523c-4.658 7.981-14.888 10.742-22.869 6.114-8.011-4.618-10.742-14.848-6.114-22.839l41.864-72.523zM83.426 676.111l169.231-97.722c2.65-1.516 5.522-2.239 8.363-2.239 5.773 0 11.405 2.992 14.507 8.363 4.598 7.981 1.867 18.211-6.114 22.839l-169.241 97.742c-7.981 4.628-18.271 1.897-22.869-6.114-4.628-8.011-1.897-18.241 6.124-22.869v0zM748.474 584.513c3.102-5.371 8.734-8.393 14.477-8.393 2.811 0 5.742 0.753 8.393 2.269l169.231 97.692c8.051 4.628 10.742 14.858 6.144 22.869-4.658 7.991-14.878 10.742-22.869 6.124l-169.291-97.722c-7.981-4.628-10.742-14.858-6.084-22.839v0zM704.392 781.212c2.65-1.526 5.522-2.249 8.333-2.249 5.803 0 11.445 2.992 14.537 8.363l41.833 72.523c4.598 7.991 1.897 18.221-6.144 22.839-7.991 4.658-18.211 1.867-22.809-6.114l-41.894-72.523c-4.598-7.981-1.897-18.211 6.144-22.839v0zM684.564-21.323c-0.462 0.151-46.773 15.832-77.121 46.15-30.057 30.057-45.287 59.854-45.287 88.556v301.176c0 3.413 0.683 33.441 25.118 33.441 17.92 0 25.048-34.766 25.168-34.766l16.725-217.48c0.683-9.196 8.614-16.143 17.92-15.4 9.196 0.713 16.143 8.764 15.4 17.99l-16.896 218.975c-3.976 23.823-20.741 64.161-58.328 64.161-46.321 0-58.559-43.791-58.559-66.921v-301.176c0-37.898 18.563-75.656 55.105-112.208 35.8-35.85 87.984-53.529 90.162-54.242 1.777-0.612 3.554-0.863 5.281-0.863 7.007 0 13.563 4.447 15.862 11.435 2.952 8.764-1.757 18.241-10.551 21.173v0zM436.676 481.471c-37.567 0-54.322-40.338-58.488-65.626l-16.725-217.51c-0.723-9.226 6.174-17.277 15.4-17.99 9.025-0.683 17.267 6.204 17.96 15.4l16.545 216.044c0.070 0.351 7.188 36.211 25.309 36.211 23.562 0 25.058-27.929 25.108-33.441v-301.176c0-28.702-15.229-58.499-45.267-88.556-30.138-30.138-76.69-46-77.151-46.15-8.734-2.962-13.473-12.439-10.541-21.173 2.329-6.977 8.875-11.435 15.862-11.435 1.747 0 3.534 0.281 5.281 0.863 2.209 0.713 54.362 18.392 90.202 54.242 36.553 36.553 55.115 74.3 55.115 112.208v301.176c0.010 23.13-12.228 66.911-58.609 66.911v0zM973.734-23.823l-200.955 150.739c-10.571 7.73-22.006 35.077-26.714 55.878l-50.347 335.4c-3.674 18.271-7.128 35.94-10.461 52.947-29.827 152.747-47.867 244.947-106.365 244.947-35.167 0-50.166-15.029-50.166-50.196 0-33.732 16.093-243.331 16.776-252.235 0.693-9.196 8.734-16.123 17.99-15.4 9.196 0.683 16.093 8.734 15.34 17.96-0.12 2.189-16.665 217.249-16.665 249.685 0 16.725 0.341 16.725 16.725 16.725 30.971 0 51.662-105.853 73.547-217.911 3.333-17.037 6.787-34.736 10.29-52.264l50.447-335.832c1.325-5.833 13.563-57.545 39.705-76.629l200.784-150.558c3.052-2.279 6.556-3.363 10.059-3.363 5.060 0 10.12 2.299 13.392 6.696 5.522 7.379 4.026 17.9-3.383 23.411v0zM923.799 190.876c2.65-1.516 5.522-2.249 8.393-2.249 5.742 0 11.384 2.992 14.477 8.363 4.598 7.991 1.897 18.241-6.084 22.839l-119.065 68.759c-8.051 4.628-18.211 1.877-22.869-6.114-4.598-8.021-1.887-18.241 6.144-22.869l119.005-68.728zM997.235 464.695h-200.845c-9.186 0-16.715-7.499-16.715-16.725s7.529-16.725 16.715-16.725h200.845c9.196 0 16.725 7.469 16.725 16.725s-7.529 16.725-16.725 16.725v0zM528.725 933.215c0 9.216-7.519 16.725-16.715 16.725-9.246 0-16.725-7.499-16.725-16.725v-50.196c0-9.226 7.469-16.725 16.725-16.725 9.196 0 16.715 7.499 16.715 16.725v50.196zM445.069 816.098c-58.488 0-76.499-92.2-106.355-244.947-3.333-17.006-6.776-34.675-10.571-53.73l-50.256-335.029c-2.65-20.831-15.631-48.499-26.895-55.627l-200.784-150.588c-7.379-5.512-8.875-16.033-3.333-23.411 3.283-4.377 8.302-6.696 13.392-6.696 3.474 0 7.007 1.084 10.029 3.363l199.6 149.755c23.1 14.446 38.249 55.688 41.151 78.637l50.056 333.814c3.674 18.332 7.118 36.061 10.431 53.067 21.926 112.058 42.616 217.911 73.547 217.911 16.434 0 16.725 0 16.725-16.725 0-32.437-16.494-247.497-16.665-249.655-0.743-9.216 6.204-17.298 15.4-17.99 9.075-0.693 17.237 6.174 17.99 15.4 0.632 8.905 16.725 218.544 16.725 252.235 0.040 35.187-15.019 50.216-50.186 50.216v0z" />
<glyph unicode="&#xe90f;" glyph-name="courage" d="M512.010 605.144c-86.648 0-157.154-70.485-157.154-157.144s70.505-157.144 157.154-157.144 157.134 70.485 157.134 157.144c0 86.659-70.475 157.144-157.134 157.144zM457.608 569.304c-17.016-26.253-28.25-64.914-29.997-109.227h-47.997c4.407 48.771 35.238 89.992 77.995 109.227zM379.613 435.923h47.997c1.747-44.313 12.981-82.984 29.997-109.237-42.757 19.275-73.587 60.456-77.995 109.237zM499.903 318.093c-10.25 5.050-20.199 16.384-28.391 32.738-11.435 22.93-18.342 52.796-19.677 85.102h48.078v-117.84zM499.903 460.087h-48.078c1.345 32.306 8.242 62.163 19.677 85.092 8.192 16.354 18.141 27.698 28.391 32.748v-117.84zM644.367 460.087h-47.967c-1.747 44.313-12.981 82.974-30.037 109.227 42.757-19.245 73.618-60.466 78.005-109.227zM524.067 577.917c10.29-5.050 20.189-16.384 28.371-32.748 11.495-22.93 18.342-52.786 19.737-85.092h-48.108v117.84zM524.067 318.093v117.83h48.108c-1.395-32.306-8.242-62.163-19.737-85.102-8.182-16.354-18.071-27.688-28.371-32.728zM566.352 326.686c17.057 26.253 28.291 64.924 30.037 109.237h47.967c-4.377-48.781-35.238-89.961-78.005-109.237zM1008.53 777.407c-3.604 3.192-8.453 4.588-13.242 3.815-27.457-4.568-55.386-6.857-83.105-6.887-144.565 0-282.594 60.647-388.618 170.697-3.042 3.152-7.218 4.929-11.555 4.929-4.387 0-8.553-1.777-11.545-4.919-106.044-110.050-244.073-170.667-388.668-170.697-27.668 0-55.647 2.319-83.135 6.887-4.739 0.773-9.587-0.622-13.192-3.815-3.634-3.192-5.592-7.811-5.411-12.619 6.054-153.931 35.74-292.623 88.315-412.291 42.195-96.115 99.107-180.144 169.171-249.856 119.688-119.045 235.038-154.473 239.877-155.909 1.496-0.462 3.042-0.693 4.588-0.693s3.092 0.231 4.588 0.693c4.839 1.446 120.139 36.864 239.827 155.909 70.074 69.702 127.006 153.731 169.201 249.856 52.545 119.667 82.221 258.359 88.305 412.291 0.161 4.809-1.797 9.417-5.401 12.609zM735.152 126.655c-101.045-101.015-200.895-139.907-223.192-147.717-22.157 7.74-120.912 46.060-221.816 146.422-103.785 103.253-229.818 294.38-247.186 621.367 22.879-2.911 45.96-4.407 68.839-4.407 76.87 0 152.225 16.203 224.015 48.148 65.074 28.953 124.255 69.532 176.198 120.671 51.873-51.14 111.124-91.738 176.138-120.671 71.821-31.945 147.195-48.148 224.015-48.148 22.93 0 46.010 1.496 68.829 4.407-17.237-326.034-142.647-516.869-245.84-620.072zM522.109 830.354c-5.863 4.809-14.316 4.809-20.249 0-111.475-90.915-244.053-139.836-383.287-141.382-4.558-0.050-8.835-2.038-11.856-5.441-3.012-3.393-4.427-7.911-3.915-12.419 11.716-101.958 35.649-195.554 71.148-278.227 36.834-85.705 86.357-160.748 147.275-223.041 73.547-75.244 146.984-114.256 184.28-130.791 2.068-0.893 4.277-1.365 6.495-1.365s4.427 0.472 6.495 1.365c31.664 14.095 94.69 46.843 160.688 107.891 6.485 6.034 6.907 16.153 0.873 22.648-5.983 6.485-16.123 6.877-22.618 0.873-58.328-53.991-113.975-84.52-145.438-99.157-36.794 17.077-102.129 53.67-167.876 120.932-58.117 59.482-105.492 131.253-140.73 213.303-32.276 75.083-54.643 159.714-66.62 251.834 135.841 5.251 264.985 53.459 375.226 140.037 110.19-86.588 239.355-134.787 375.176-140.067-11.947-92.1-34.314-176.73-66.62-251.814-30.74-71.68-70.927-135.73-119.416-190.384-5.813-6.626-5.251-16.745 1.395-22.598 6.596-5.873 16.745-5.281 22.618 1.345 50.708 57.213 92.742 124.165 124.888 198.997 35.499 82.673 59.462 176.269 71.158 278.227 0.512 4.508-0.934 9.015-3.925 12.419-2.982 3.403-7.319 5.391-11.846 5.441-139.264 1.536-271.782 50.427-383.317 141.372z" />
<glyph unicode="&#xe910;" glyph-name="vision" d="M992.868 507.703c-59.804 74.732-131.333 133.702-212.691 175.265-84.4 43.088-174.642 64.954-268.188 64.954s-183.788-21.865-268.188-64.954c-81.288-41.562-152.867-100.533-212.671-175.265-28.12-35.157-28.12-84.269 0-119.406 59.804-74.752 131.383-133.722 212.691-175.265 84.39-43.118 174.632-64.964 268.178-64.964s183.788 21.845 268.188 64.964c81.358 41.542 152.887 100.513 212.691 175.265 28.11 35.137 28.11 84.249-0.010 119.406v0zM967.489 408.586c-56.862-71.138-124.868-127.187-202.069-166.661-79.782-40.719-165.025-61.41-253.42-61.41s-173.638 20.691-253.36 61.41c-77.252 39.474-145.267 95.523-202.13 166.661-18.552 23.201-18.552 55.597 0 78.828 56.862 71.108 124.868 127.157 202.13 166.601 79.721 40.779 164.964 61.44 253.36 61.44s173.638-20.661 253.42-61.44c77.192-39.444 145.207-95.493 202.069-166.601 18.613-23.231 18.613-55.627 0-78.828v0zM512 684.885c-130.6 0-236.915-106.285-236.915-236.915 0-130.6 106.315-236.865 236.915-236.865 130.65 0 236.915 106.265 236.915 236.865 0 130.63-106.265 236.915-236.915 236.915v0zM512 243.561c-112.73 0-204.439 91.718-204.439 204.439 0 112.7 91.708 204.378 204.439 204.378s204.439-91.678 204.439-204.378c0-112.73-91.708-204.439-204.439-204.439v0zM582.897 590.316c-10.401 0-20.329-2.289-29.325-6.335-13.603 4.176-27.588 6.335-41.572 6.335-78.467 0-142.316-63.849-142.316-142.346 0-78.467 63.849-142.286 142.316-142.286 78.456 0 142.316 63.819 142.316 142.286 0 14.005-2.098 27.959-6.305 41.592 4.046 8.965 6.305 18.894 6.305 29.355 0 39.364-32.005 71.399-71.419 71.399v0zM621.839 518.917c0-21.464-17.448-38.942-38.952-38.942-21.444 0-38.882 17.478-38.882 38.942 0 21.444 17.438 38.912 38.882 38.912 21.504 0.010 38.952-17.468 38.952-38.912v0zM512 338.141c-60.547 0-109.839 49.293-109.839 109.839 0 60.597 49.293 109.859 109.839 109.859 3.574 0 7.148-0.211 10.722-0.582-7.098-11.063-11.194-24.225-11.194-38.34 0-39.384 32.005-71.419 71.359-71.419 14.135 0 27.337 4.126 38.37 11.224 0.361-3.574 0.582-7.148 0.582-10.742 0-60.547-49.242-109.839-109.839-109.839v0z" />
<glyph unicode="&#xe911;" glyph-name="teamwork" d="M651.093 268.619l-76.077 43.861c1.074 4.528 1.667 9.246 1.667 14.145 0 28.501-18.854 52.666-44.885 60.697v87.753c0 10.24-8.413 18.643-18.643 18.643-10.29 0-18.693-8.403-18.693-18.643v-87.753c-26.022-8.031-44.885-32.196-44.885-60.697 0-4.899 0.643-9.618 1.616-14.145l-76.027-43.861c-8.403-5.12-11.485-16.615-6.355-25.399 3.504-5.963 9.638-9.246 16.213-9.246 3.072 0 6.355 0.803 9.216 2.45l76.087 43.891c11.264-10.481 26.403-17.027 42.998-17.027 16.655 0 31.794 6.546 43.058 17.027l76.087-43.891c2.851-1.646 6.134-2.45 9.216-2.45 6.355 0 12.72 3.283 16.213 9.246 5.11 8.784 2.038 20.279-6.807 25.399zM513.536 300.383c-14.547 0-26.243 11.696-26.243 26.243 0 14.567 11.696 26.263 26.243 26.263 14.607 0 26.243-11.696 26.243-26.263 0-14.547-11.645-26.243-26.243-26.243zM333.131 468.289c10.24 0 18.643 8.403 18.643 18.643v50.457c0 5.12 2.269 9.838 6.194 13.101 44.082 36.292 91.819 60.265 100.874 64.793 7.379 3.694 12.288 11.264 12.288 19.697v70.907c0 6.144-3.072 12.097-8.242 15.38-4.036 2.67-6.515 7.168-6.515 12.067v73.417c0 26.243 21.333 47.546 47.526 47.546h15.782c26.243 0 47.576-21.313 47.576-47.546v-73.417c0-4.899-2.47-9.407-6.566-12.067-5.12-3.504-8.192-9.236-8.192-15.38v-70.907c0-8.433 4.909-16.003 12.298-19.697 9.266-4.528 57.013-28.501 100.864-64.793 3.945-3.263 6.144-7.971 6.144-13.101v-50.457c0-10.24 8.403-18.643 18.693-18.643 10.24 0 18.643 8.403 18.643 18.643v50.457c0 16.384-7.168 31.553-19.667 41.793-38.962 32.196-80.776 55.366-99.639 65.205v52.887c9.427 9.668 14.768 22.578 14.768 36.292v73.206c0 46.743-38.149 84.872-84.922 84.872h-15.782c-46.723 0-84.872-37.938-84.872-84.872v-73.417c0-13.714 5.331-26.614 14.758-36.262v-52.897c-18.854-9.859-60.456-33.029-99.629-65.195-12.499-10.24-19.667-25.62-19.667-41.823v-50.427c0.211-10.25 8.403-18.462 18.643-18.462v0zM738.665 180.465c-18.864-9.828-60.506-32.999-99.639-65.195-12.549-10.24-19.717-25.63-19.717-41.813v-50.437c0-10.24 8.403-18.633 18.693-18.633 10.24 0 18.643 8.403 18.643 18.633v50.437c0 5.12 2.259 9.828 6.134 13.121 44.082 36.292 91.819 60.275 100.874 64.793 7.6 3.694 12.288 11.264 12.288 19.667v70.937c0 6.144-3.072 12.067-8.182 15.38-4.096 2.65-6.576 7.168-6.576 12.077v73.387c0 26.243 21.343 47.556 47.576 47.556h15.792c26.232 0 47.516-21.313 47.516-47.556v-73.387c0-4.909-2.419-9.427-6.515-12.077-5.17-3.504-8.242-9.236-8.242-15.38v-70.937c0-8.403 4.749-15.972 12.338-19.667 9.216-4.518 56.963-28.501 100.874-64.793 3.885-3.283 6.144-8.001 6.144-13.121v-50.437c0-10.24 8.403-18.633 18.633-18.633 10.25 0 18.643 8.403 18.643 18.633v50.437c0 16.404-7.168 31.583-19.667 41.813-39.173 32.196-80.776 55.366-99.639 65.195v52.897c9.427 9.648 14.768 22.578 14.768 36.292v73.387c0 46.743-38.149 84.872-84.861 84.872h-15.792c-46.763 0-84.861-38.129-84.861-84.872v-73.387c0-13.714 5.331-26.644 14.768-36.292v-52.897zM28.732 4.558c10.24 0 18.643 8.433 18.643 18.663v50.437c0 5.12 2.259 9.828 6.144 13.121 44.082 36.262 91.819 60.275 100.874 64.773 7.539 3.684 12.288 11.284 12.288 19.687v70.907c0 6.144-3.072 12.097-8.192 15.39-4.096 2.67-6.576 7.168-6.576 12.097v73.387c0 26.243 21.333 47.556 47.576 47.556h15.792c26.243 0 47.526-21.313 47.526-47.556v-73.387c0-4.929-2.429-9.427-6.576-12.097-5.12-3.514-8.182-9.246-8.182-15.39v-70.907c0-8.403 4.739-16.003 12.338-19.687 9.216-4.498 56.952-28.511 100.814-64.773 3.935-3.283 6.194-8.001 6.194-13.121v-50.437c0-10.24 8.403-18.663 18.643-18.663s18.643 8.433 18.643 18.663v50.437c0 16.384-7.168 31.583-19.667 41.813-39.173 32.196-80.765 55.366-99.629 65.175v52.917c9.427 9.648 14.768 22.548 14.768 36.262v73.397c0 46.743-38.149 84.892-84.872 84.892h-15.792c-46.773 0-84.872-38.149-84.872-84.892v-73.397c0-13.714 5.281-26.614 14.707-36.262v-52.917c-18.803-9.818-60.456-32.979-99.579-65.175-12.539-10.23-19.707-25.62-19.707-41.803v-50.437c0-10.461 8.403-18.673 18.693-18.673v0z" />
<glyph unicode="&#xe912;" glyph-name="handshake" d="M282.785 691.873c10.561-3.765 21.705-5.662 33.119-5.662 15.26 0 30.509 3.494 44.102 10.109l12.669 6.134c15.792 7.8 35.097 9.025 51.742 3.283l239.455-82.573c-2.058-9.618-6.897-23.964-17.99-31.644-10.782-7.439-26.965-7.62-47.194-0.552l-105.984 36.151c-4.357 1.345-8.885 0.964-12.74-1.094-3.755-2.008-6.586-5.552-7.931-9.899l-0.11-0.331c-1.707-5.883-18-58.217-62.966-82.201-15.491-8.363-33.139-12.599-52.465-12.599-17.9 0-37.597 3.634-58.488 10.792-1.697 0.602-3.464 0.904-5.24 0.904-6.776 0-12.87-4.337-15.159-10.782-1.426-4.026-1.165-8.373 0.733-12.248 1.887-3.825 5.13-6.706 9.186-8.152 51.913-17.769 98.696-16.434 136.684 4.126 43.49 23.371 64.883 65.677 73.045 86.086l90.564-31.041c13.362-4.608 25.881-6.937 37.245-6.937v0c14.627 0 27.688 3.865 38.812 11.485 28.070 19.346 32.688 56.822 33.431 67.845l0.050 0.653c0.271 6.987-4.156 13.402-10.722 15.591l-251.994 86.92c-10.35 3.544-21.233 5.341-32.356 5.341-15.219 0-30.419-3.464-44.002-10.009l-12.659-6.124c-9.176-4.477-19.456-6.847-29.726-6.847-7.79 0-15.39 1.325-22.598 3.945l-21.283 7.63c-1.034 0.612-2.098 1.245-3.474 1.777l-128.964 43.871c-3.996 1.325-8.584 1.034-12.318-0.823-3.855-1.938-6.706-5.19-8.011-9.126l-108.293-315.984c-2.941-8.262 1.476-17.408 9.899-20.42l129.034-44.213c1.777-0.743 3.464-1.054 5.441-1.054 2.47 0 4.889 0.562 7.007 1.626 3.855 1.897 6.716 5.16 8.041 9.106l102.982 300.333 9.427-3.393zM1012.395 466.412l-147.315 299.339c-1.938 3.865-5.2 6.716-9.146 8.021-3.986 1.335-8.614 1.034-12.288-0.793l-122.649-60.004c-7.921-3.965-11.194-13.352-7.439-21.434l141.563-289.18-45.819-41.954c-40.177-36.924-85.645-67.965-135.178-92.22l-234.877-114.859c-5.542-2.771-11.866-3.142-17.82-1.044-6.013 2.128-10.702 6.275-13.563 11.987-2.771 5.532-3.142 11.866-1.044 17.8 2.128 6.024 6.264 10.712 11.947 13.553l131.203 64.291c7.931 3.965 11.204 13.332 7.419 21.454-2.761 5.562-8.353 9.005-14.527 9.005-2.409 0-4.728-0.532-6.907-1.576l-192.994-94.449c-3.223-1.566-6.686-2.359-10.27-2.359-8.995 0-17.298 5.13-21.133 13.041-5.622 11.565-0.803 25.68 10.692 31.423l188.526 92.24c7.931 3.965 11.214 13.332 7.429 21.464-2.781 5.562-8.353 8.995-14.537 8.995-2.399 0-4.718-0.532-6.897-1.566l-211.546-103.434c-3.223-1.556-6.686-2.349-10.28-2.349-8.995 0-17.288 5.12-21.123 13.031-2.721 5.622-3.122 11.987-1.094 17.97s6.204 10.742 11.786 13.453l192.020 94.067c7.931 3.976 11.204 13.352 7.419 21.464-2.781 5.552-8.353 8.995-14.527 8.995-2.409 0-4.728-0.532-6.897-1.576l-168.759-82.663c-5.552-2.761-11.866-3.142-17.82-1.044-6.034 2.128-10.712 6.264-13.563 11.977-2.771 5.542-3.142 11.866-1.044 17.82 2.088 5.923 6.345 10.732 11.937 13.553l89.6 43.881c7.921 3.965 11.204 13.332 7.419 21.454-2.781 5.562-8.353 9.005-14.537 9.005-2.399 0-4.708-0.522-6.887-1.576l-89.57-43.861c-13.402-6.596-23.432-17.96-28.25-32.005-4.839-14.075-3.915-29.174 2.61-42.466 4.247-8.845 10.852-16.314 19.275-21.845-14.266-16.765-17.408-40.428-7.62-60.416 9.387-19.175 28.521-31.122 49.955-31.122 0.793 0 1.586 0.030 2.389 0.070-0.753-9.909 1.074-19.757 5.391-28.712 9.387-19.195 28.531-31.132 49.955-31.132 8.594 0 16.786 1.907 24.345 5.692l16.444 8.162c0.12-8.172 2.088-16.153 5.773-23.341 6.576-13.402 17.93-23.432 32.005-28.24 6.084-2.038 12.198-3.062 18.151-3.062 8.252 0 16.665 1.958 24.325 5.682l234.837 114.899c51.692 25.239 99.72 58.037 142.717 97.531l52.846 48.59 120.511 58.94c7.941 3.965 11.214 13.352 7.429 21.434z" />
<glyph unicode="&#xe913;" glyph-name="windows" d="M11.967 469.624h414.62v403.436l-414.62-57.123v-346.313zM38.189 793.088l362.195 49.905v-347.166h-362.195v297.261zM469.283 875.149v-405.534h542.75v480.346l-542.75-74.812zM985.821 495.837h-490.325v356.462l490.325 67.594v-424.056zM469.283 20.841l542.75-74.802v475.768h-542.75v-400.966zM495.496 395.585h490.325v-419.479l-490.325 67.584v351.895zM11.967 80.063l414.62-57.153v398.898h-414.62v-341.745zM38.189 395.585h362.195v-342.618l-362.195 49.945v292.673z" />
<glyph unicode="&#xe914;" glyph-name="blackberry" d="M346.714 764.235c-19.346 32.366-58.519 39.715-75.244 42.857-3.182 0.622-6.345 0.904-9.999 0.904l-136.794-0.723c-25.57-0.131-43.801-11.856-50.015-32.146l-33.33-103.886c-4.417-14.366-2.48-28.25 5.481-39.022 9.116-12.358 25.49-19.456 44.915-19.456l66.279-0.030c8.041-0.883 20.972-1.928 36.944-1.928 84.239 0 139.615 28.301 155.919 79.691 9.176 28.963 7.78 53.76-4.156 73.738zM316.607 701.4c-15.059-47.516-82.683-54.613-121.655-54.613-11.354 0-23.522 0.643-33.451 1.767l-69.783 0.211c-5.261 0-8.915 0.934-10.672 1.375-0.221 0.060-0.402 0.11-0.542 0.141 0.040 0 0.381-0.080 0.893-0.080v5.863l-6.345-0.843-0.090 0.833c-0.010 0.171-0.010 0.351-0.010 0.542l-0.040 2.199 0.361 0.371c0.090 0.402 0.201 0.833 0.341 1.285l34.083 106.034 1.024 1.044c2.299 2.369 7.469 3.745 14.175 3.775l136.855 0.723c1.064 0 2.008-0.080 2.921-0.251l1.596-0.291c10.581-1.988 38.591-7.248 49.604-25.7 6.405-10.762 6.656-25.68 0.733-44.383zM698.669 760.42c-20.068 33.732-56.089 43.881-70.636 46.672-1.456 0.281-2.691 0.532-3.745 0.853l-143.009-0.753c-22.347-0.11-50.658-13.975-57.464-36.171l-33.24-107.48c-4.849-15.802-2.168-32.276 7.369-45.176 10.049-13.613 25.57-21.745 41.532-21.745h29.174c76.941 0 209.559 11.194 233.301 86.136 10.049 31.684 8.975 57.083-3.283 77.663zM665.851 693.971c-11.866-37.446-87.432-60.707-197.2-60.707-14.185 0-23.863 0.442-27.046 0.592l-0.773 0.030c-5.873 0.040-10.973 2.419-14.005 6.536-2.66 3.594-3.343 8.162-1.897 12.85l33.22 107.299c2.419 7.79 9.798 10.652 15.902 10.722l136.945 0.723c1.064 0 1.998-0.080 2.911-0.261 8.594-1.656 37.697-8.714 50.216-29.746 7.339-12.328 7.911-28.491 1.727-48.038zM317.751 509.38c-19.315 32.326-58.519 39.705-75.254 42.857-3.172 0.622-6.335 0.904-9.999 0.904l-136.794-0.733c-25.028-0.131-43.721-12.499-50.025-33.059l-33.32-104.659c-4.498-14.697-2.419-29.033 5.883-40.277 9.347-12.669 25.58-19.928 44.534-19.928l66.389-0.020c8.654-0.783 18.994-1.215 29.094-1.215 88.686 0 146.803 29.264 163.639 82.412 9.186 28.943 7.78 53.75-4.146 73.718zM287.634 446.514c-16.394-51.712-95.935-57.294-129.365-57.294-12.278 0-21.604 0.673-26.232 1.084l-69.271 0.151c-8.373 0-13.523 2.67-15.37 4.949l-0.944 1.165-0.311 1.466c-0.201 0.934-0.392 2.952 0.522 5.923l33.32 104.649c1.064 3.504 4.718 7.76 15.902 7.831l136.925 0.703c0.833 0 1.827-0.030 2.901-0.231l1.606-0.301c10.551-1.988 38.551-7.248 49.584-25.71 6.435-10.762 6.686-25.7 0.733-44.383zM649.838 511.568c-18.613 30.72-56.32 37.306-72.433 40.117l-3.032 0.552c-3.263 0.622-6.445 0.904-10.029 0.904l-136.754-0.733c-25.038-0.131-43.751-12.499-50.066-33.059l-33.3-104.659c-4.508-14.717-2.429-29.043 5.883-40.277 9.347-12.669 25.57-19.928 44.534-19.928l78.055 0.030c5.783-0.462 12.91-0.703 20.078-0.703 85.112 0 143.792 31.101 160.989 85.323 9.116 28.712 7.79 53.087-3.925 72.433zM619.53 450.008c-17.237-54.362-94.379-60.235-126.745-60.235-6.013 0-11.746 0.201-17.037 0.582l-81.107 0.1c-8.252 0-13.392 2.61-15.29 4.839l-1.044 1.225-0.321 1.576c-0.191 0.934-0.361 2.941 0.572 5.903l33.26 104.609c1.104 3.524 4.779 7.76 15.932 7.831l136.935 0.703c0.833 0 1.857-0.030 2.952-0.261l3.574-0.643c11.254-1.958 37.707-6.566 47.867-23.351 6.124-10.059 6.275-24.486 0.452-42.877zM290.264 264.845l-33.24-108.032c-4.919-16.013-2.078-32.858 7.8-46.241 10.009-13.563 25.439-21.333 42.355-21.333 2.721-0.030 65.285-0.643 67.715-0.673l0.331-0.010c13.352-0.904 160.156-9.276 191.327 89.028 9.437 29.756 7.72 55.788-5.11 77.342-19.617 32.979-58.539 43.64-74.35 46.682-3.142 0.612-6.295 0.893-9.949 0.893l-136.794-0.723c-23.261-0.12-43.379-14.968-50.086-36.934zM477.465 266.531c1.084 0 2.048-0.090 2.941-0.271 6.054-1.144 37.256-8.072 50.146-29.756 7.349-12.328 7.941-28.501 1.747-48.048-18.462-58.177-103.203-64.462-138.772-64.462-7.61 0-13.262 0.291-15.952 0.472-0.833 0.060-7.71 0.151-70.224 0.753-5.481 0-10.471 2.46-13.623 6.746-3.062 4.156-3.895 9.226-2.349 14.286l33.25 108.062c2.088 6.847 8.493 11.475 15.942 11.495l136.895 0.723zM1003.821 575.578c-19.346 32.356-58.519 39.705-75.244 42.847-3.162 0.622-6.335 0.904-9.999 0.904l-136.764-0.713c-24.596-0.141-43.781-12.971-50.066-33.491l-33.29-105.050c-4.558-14.858-2.399-29.395 6.074-40.87 9.457-12.81 25.62-20.169 44.333-20.169l66.429-0.020c7.56-0.602 16.565-0.934 25.349-0.934 52.565 0 144.223 10.883 167.334 83.757 9.186 28.933 7.79 53.74-4.156 73.738zM973.744 512.733c-16.806-52.957-98.685-58.679-133.1-58.679-11.314 0-19.526 0.582-22.779 0.863l-69.020 0.11c-6.927 0-12.8 2.098-15.36 5.481-2.068 2.701-1.536 6.325-0.703 8.915l33.26 104.98c1.144 3.704 4.849 8.162 15.942 8.222l136.945 0.723c0.984 0 1.877-0.070 2.721-0.211l1.817-0.351c10.501-1.978 38.49-7.248 49.513-25.68 6.415-10.742 6.676-25.67 0.763-44.373zM957.49 320.713c-19.336 32.346-58.509 39.695-75.244 42.847-3.223 0.622-6.405 0.904-10.019 0.904l-136.754-0.733c-24.425-0.131-43.61-13.302-50.066-34.394l-33.3-105.843c-4.598-14.989-2.229-30.379 6.505-42.205 9.638-13.061 25.65-20.55 43.912-20.55l66.098 0.020c1.757-0.12 8.192-0.512 17.89-0.512 44.403 0 150.337 8.453 175.124 86.729 9.176 28.943 7.78 53.75-4.146 73.738zM927.393 257.857c-18.131-57.173-112.409-61.631-140.87-61.631-7.981 0-13.483 0.311-15.28 0.412l-0.211 0.010-68.518 0.070c-6.626 0-12.248 2.239-14.999 5.993-1.968 2.701-2.319 6.094-1.064 10.14l33.27 105.813c1.777 5.722 7.59 9.055 15.942 9.106l136.905 0.723c1.084 0 2.018-0.090 2.941-0.261l1.576-0.291c10.561-1.988 38.551-7.258 49.574-25.69 6.405-10.782 6.666-25.71 0.733-44.393z" />
<glyph unicode="&#xe915;" glyph-name="unity-3d" d="M660.872 447.97l175.686 303.375 84.892-303.375-84.892-303.295-175.686 303.295zM575.237 398.707l175.716-303.325-306.015 78.406-221.084 224.919h351.383zM750.913 800.648l-175.676-303.365h-351.383l221.074 224.939 305.985 78.426zM1001.723 551.213l-107.189 398.748-400.053-106.867-59.221-104.117-120.169 0.863-292.814-291.9 292.824-291.82 120.119 0.883 59.302-104.107 400.013-106.857 107.199 398.677-60.868 103.253 60.858 103.243z" />
<glyph unicode="&#xe916;" glyph-name="drupal" d="M857.429 635.272c-83.968 102.551-156.381 133.652-209.267 156.361-15.741 6.756-29.325 12.599-41.181 19.376-35.599 20.299-69.542 56.491-116.164 112.168l-22.377 26.785-3.644-34.716c-2.891-27.708-5.632-53.891-21.755-72.082-37.346-42.155-90.935-68.518-126.394-85.936-114.527-56.39-236.936-186.478-236.936-382.494 0-101.717 39.645-205.222 108.765-283.969 81.95-93.315 196.066-144.725 321.426-144.725h2.168c113.383 0.572 214.598 36.513 292.713 103.966 91.256 78.848 139.505 191.127 139.505 324.728 0 101.045-30.047 191.157-86.859 260.538zM728.435 47.365c-51.29-42.827-190.062-67.233-256.030-12.74-6.515 5.351-6.756 13.473-2.45 18.161 3.182 3.474 5.953 5.1 9.838 7.309 4.829 2.751 10.973 1.697 15.099-2.118 26.042-24.014 148.982-44.173 222.871 5.491 2.721 1.837 6.224 3.052 9.246 1.747 2.259-0.944 3.564-2.168 3.885-4.708 0.502-4.186 0.773-10.451-2.46-13.141zM555.661 112.158c0.161 6.194 1.877 9.979 6.244 14.346 25.349 25.208 52.224 40.127 82.432 39.384 48.228-1.165 50.296-12.509 64.261-40.759 2.861-5.732 1.235-10.662-0.602-13.573-0.994-1.596-6.536-6.887-8.443-6.887-4.618 0-6.295 1.656-8.212 6.425-11.485 28.712-28.552 28.833-50.056 28.853-33.139 0-47.596-16.173-67.172-32.366-4.859-4.016-9.437-7.048-13.111-3.986-2.962 2.5-5.391 5.973-5.341 8.563zM814.401 122.629c-46.060 3.554-97.451 109.608-148.149 108.755-66.721-1.144-164.493-113.443-274.312-111.817-56.019 0.823-116.385 21.233-118.212 106.606-1.516 71.128 67.935 145.027 156.11 142.958 117.218-2.751 174.984-105.311 233.663-105.703 57.424-0.351 124.938 89.339 182.975 90.724 30.981 0.753 54.824-29.043 57.133-70.556 3.443-62.283-36.151-165.055-89.208-160.969z" />
<glyph unicode="&#xe917;" glyph-name="joomla" d="M1010.447 813.859c0 72.744-58.98 131.715-131.704 131.715-66.429 0-121.334-49.162-130.369-113.102-0.853 0.452-1.345 0.703-1.345 0.703-107.711 48.59-198.455-37.456-198.455-37.456l-239.997-241.172 94.83-91.337 193.165 189.781c90.202 90.212 139.314 29.154 139.314 29.154 67.935-57.374 2.339-125.279 2.339-125.279l97.2-93.666c79.33 85.715 83.938 160.507 59.824 220.009 64.944 8.142 115.2 63.508 115.2 130.65zM896.482 208.143c0.452 0.823 0.703 1.295 0.703 1.295 48.57 107.731-37.476 198.465-37.476 198.465l-241.182 240.008-91.317-94.83 189.791-193.165c90.202-90.202 29.134-139.334 29.134-139.334-57.364-67.905-125.269-2.339-125.269-2.339l-93.656-97.149c85.695-79.38 160.497-83.988 220.009-59.854 8.122-64.954 63.498-115.2 130.63-115.2 72.754 0 131.715 58.96 131.715 131.715 0.010 66.419-49.162 121.324-113.082 130.389zM620.574 432.781l-193.165-189.781c-90.212-90.202-139.324-29.134-139.324-29.134-67.905 57.364-2.339 125.249-2.339 125.249l-97.16 93.676c-79.37-85.715-83.958-160.497-59.834-219.989-64.964-8.162-115.2-63.518-115.2-130.65 0-72.754 58.98-131.715 131.715-131.715 66.419 0 121.314 49.152 130.369 113.072 0.843-0.432 1.335-0.663 1.335-0.663 107.711-48.62 198.435 37.436 198.435 37.436l240.018 241.192-94.851 91.307zM306.999 536.094c-90.202 90.212-29.154 139.324-29.154 139.324 57.374 67.905 125.269 2.349 125.269 2.349l93.686 97.16c-85.715 79.35-160.517 83.968-220.009 59.834-8.142 64.954-63.508 115.2-130.65 115.2-72.744 0-131.704-58.96-131.715-131.715 0-66.429 49.162-121.324 113.092-130.379-0.442-0.833-0.703-1.325-0.703-1.325-48.59-107.721 37.456-198.445 37.456-198.445l241.182-240.018 91.327 94.84-189.781 193.175z" />
<glyph unicode="&#xe918;" glyph-name="yii" d="M651.776 669.084c-47.425 133.451 91.166 276.631 205.111 280.877 68.237-34.766 126.956-126.062 123.984-249.946-8.955-152.646-119.617-284.24-240.038-405.424-6.746 147.807-38.862 242.035-89.058 374.493v0zM383.107-53.961c-19.054 149.102 42.958 276.189 104.498 353.712 133.702 166.35 125.34 266.32 112.198 351.915 70.315-109.648 114.196-241.112 123.944-357.436 4.949-95.975-65.034-317.761-340.641-348.19v0zM287.081 512.11c-202.18 55.196-252.075 228.593-243.049 345.188 196.387 77.714 407.733-1.897 529.719-167.735 85.544-116.234 139.093-265.286 149.986-395.344-58.699 75.585-132.829 119.396-227.258 153.7-64.582 23.462-124.245 38.982-209.398 64.191v0z" />
<glyph unicode="&#xe919;" glyph-name="cakephp" d="M946.086 393.567l67.875 55.386-69.17 61.811 51.26 66.56-79.099 40.669 29.124 83.235-84.179 11.515 6.074 88.666-87.401-5.431-18.894 83.868-80.585-30.228-39.143 80.796-74.029-51.12-55.898 67.453-58.268-65.295-71.078 49.293-39.394-80.675-81.298 32.668-17.609-87.080-88.034 6.395 5.431-86.428-84.199-18.884 28.19-77.463-78.105-44.514 46.733-68.498-64.351-58.589 64.010-55.386-46.401-72.343 79.38-41.623-37.446-88.988 91.899-0.974-6.425-95.071 96.678 10.551 8.323-89.961 81.308 30.088 42.245-78.085 70.134 49.945 59.533-66.58 57.304 67.192 70.766-50.226 41.603 78.436 79.701-30.439 17.94 85.474 98.615-4.809-23.713 90.273 95.423 6.425-32.346 87.713 78.115 40.659-50.598 73.618zM819.21 560.188l-315.994 87.030 105.904-185.786-12.429-317.008c0 0-161.39-23.181-264.383 30.62-102.962 53.8-103.424 132.417-103.424 132.417l-38.149 274.522c0.010-0.040 0.040 57.605 0.070 57.565-2.691 7.831-4.116-41.813-4.116-33.621 0 83.767 144.906 151.672 323.735 151.672 178.798 0 323.725-67.915 323.725-151.672 0-15.942-5.24-31.302-14.938-45.739z" />
<glyph unicode="&#xe91a;" glyph-name="zend" d="M482.194 549.185c0 0 0 132.939 132.969 132.939h398.798c0 0 0-132.939-132.949-132.939h-398.818zM482.194 379.282c0 0 0 132.969 132.969 132.969h199.379c0 0 0-132.969-132.939-132.969h-199.409zM482.194 209.418c0 0 0 132.949 132.969 132.949h66.44c0 0 0-132.949-132.949-132.949h-66.46zM437.569 313.173v-106.054h-427.53l275.436 375.688h-236.454v106.084h446.022l-274.151-375.718z" />
<glyph unicode="&#xe91b;" glyph-name="symfony" d="M512 949.961c-277.213 0-501.961-224.718-501.961-501.921 0-277.243 224.748-502.001 501.961-502.001 277.223 0 501.961 224.758 501.961 502.001 0 277.203-224.738 501.921-501.961 501.921zM782.697 659.446c-23.241-0.813-39.283 13.061-40.026 34.163-0.231 7.73 1.767 14.477 7.068 22.397 5.18 10.14 6.275 11.304 6.134 15.741-0.462 13.282-20.53 13.784-26.022 13.523-75.344-2.5-95.222-104.177-111.325-186.88l-7.881-43.6c43.4-6.345 74.2 1.476 91.397 12.599 24.174 15.691-6.797 31.834-2.881 49.704 3.976 18.201 20.49 26.985 33.651 27.357 18.442 0.462 31.573-18.663 31.162-38.069-0.643-32.055-43.179-76.087-128.281-74.27-10.34 0.221-19.878 0.964-28.762 2.058l-16.083-88.646c-14.336-67.042-33.441-158.72-101.737-238.652-58.669-69.813-118.232-80.635-144.906-81.539-49.885-1.727-82.954 24.887-84.149 60.396-1.144 34.424 29.254 53.218 49.212 53.82 26.614 0.873 45.046-18.402 45.759-40.659 0.683-18.773-9.146-24.656-15.651-28.21-4.347-3.524-10.872-7.108-10.621-14.818 0.141-3.313 3.715-10.933 14.768-10.601 21.102 0.733 35.117 11.164 44.905 18.161 48.6 40.478 67.303 111.054 91.789 239.526l5.13 31.142c8.363 41.763 17.609 88.345 31.744 134.756-34.244 25.801-54.774 57.766-100.864 70.275-31.583 8.604-50.839 1.295-64.371-15.832-16.033-20.259-10.722-46.652 4.779-62.133l25.59-28.301c31.363-36.242 48.52-64.462 42.054-102.37-10.24-60.617-82.402-107.048-167.725-80.856-72.835 22.428-86.458 74.009-77.704 102.44 7.72 24.988 27.578 29.706 47.004 23.783 20.821-6.455 28.983-31.734 23.010-51.15-0.653-2.048-1.737-5.592-3.895-10.19-2.429-5.371-6.907-10.069-8.835-16.304-4.668-15.26 16.213-26.102 30.79-30.569 32.577-10.029 64.381 6.987 72.443 33.38 7.479 24.255-7.851 41.161-14.195 47.616l-30.861 33.019c-14.105 15.762-45.156 59.563-30.017 108.785 5.833 18.984 18.151 39.123 35.991 52.445 37.657 28.080 78.637 32.708 117.64 21.474 50.467-14.517 74.742-47.907 106.195-73.698 17.609 51.632 42.014 102.179 78.687 144.836 33.129 38.852 77.633 66.962 128.632 68.718 50.939 1.687 89.469-21.404 90.734-57.966 0.532-15.541-8.393-45.759-39.474-46.803z" />
<glyph unicode="&#xe91c;" glyph-name="osCommerce" d="M939.731 539.578c0 147.165-119.728 266.883-266.883 266.883-111.435 0-210.291-68.809-249.464-172.393 189.289-1.556 343.442-153.48 348.722-341.946 100.713 40.378 167.625 138.461 167.625 247.457zM318.755 619.048c28.029 8.433 57.485 13.282 87.713 14.446 39.755 113.082 146.101 188.687 266.381 188.687 1.104 0 2.189-0.020 3.263-0.060-31.985 76.941-107.42 127.839-191.368 127.839-114.387 0-207.47-93.033-207.47-207.38 0-44.675 14.346-87.271 41.482-123.533zM420.442 618.355c-185.384 0-336.173-150.799-336.173-336.163 0-185.354 150.789-336.153 336.173-336.153 185.304 0 336.083 150.799 336.083 336.153-0.010 185.364-150.779 336.163-336.083 336.163z" />
<glyph unicode="&#xe91d;" glyph-name="x-cart" d="M880.088 949.961h-736.156c-73.748 0-133.411-59.653-133.893-133.893v-736.125c0-74.24 60.145-133.903 133.893-133.903h736.156c74.22 0 133.873 60.135 133.873 133.903v736.125c0 74.24-60.115 133.893-133.873 133.893zM592.103 692.053h54.985v-54.965h-54.985v54.965zM592.103 591.039h54.985v-54.955h-54.985v54.955zM490.657 692.053h54.945v-54.965h-54.945v54.965zM490.657 590.587h54.945v-54.985h-54.945v54.985zM388.698 692.053h54.955v-54.965h-54.955v54.965zM388.698 591.039h54.955v-54.955h-54.955v54.955zM314.94 109.99c-24.445 0-44.624 16.926-49.784 39.464h40.388c11.294 0 20.671 9.407 20.671 20.681v40.87c22.558-5.16 39.946-25.369 39.946-49.805 0-28.19-23.050-51.21-51.22-51.21zM703.9 282.403c-13.141 13.161-49.333 49.784-62.474 63.408-7.037 7.529-17.86 10.33-26.775 10.33-45.588 0-172.413 0-203.395 0-8.945 0-19.767-3.293-26.775-10.33-13.181-13.623-49.825-50.256-62.514-63.408-7.981-7.991-9.869-13.613-9.869-25.369 0-29.586 0-50.276 0-75.174 0-13.131-3.745-16.906-17.358-16.906-7.549 0-9.869 0-57.334 0 0 28.19 0 92.572 0 136.724 0 8.463 4.227 17.378 9.889 23.010 15.009 15.049 44.614 44.614 68.568 68.568-23.954 23.984-53.559 53.569-68.568 68.618-6.114 6.094-9.889 14.547-9.889 22.99 0 44.173 0 217.53 0 245.74 66.229 0 63.418 0 74.23 0 0-23.502 0-167.273 0-201.096 0-11.746 1.887-17.358 9.859-25.359 13.161-13.161 49.333-49.784 62.494-63.428 7.037-7.519 17.84-10.33 26.775-10.33 45.106 0 171.008 0 203.395 0 8.975 0 19.737 3.303 26.795 10.33 13.161 13.643 49.805 50.276 62.494 63.428 7.981 8.011 9.828 13.613 9.828 25.359 0 33.822 0 177.594 0 201.096 11.304 0 8.011 0 74.24 0 0-28.21 0-201.096 0-245.74 0-7.981-4.227-16.896-9.848-22.538-15.049-15.029-44.634-44.634-68.578-69.070 23.944-23.954 53.529-53.519 68.578-68.568 6.114-6.114 9.848-14.547 9.848-23.010 0-36.663 0-85.514 0-121.224 0-13.603-2.791-15.501-16.444-15.501-46.984 0-47.455 0-57.304 0 0 23.502 0 58.288 0 92.080 0.010 11.746-1.877 17.378-9.869 25.369zM791.743 109.99c-23.954 0-44.132 16.926-49.784 39.012h40.378c11.294 0 20.681 9.387 20.681 20.671v41.331c22.558-5.16 39.946-25.369 39.946-49.805 0.010-28.19-23.010-51.21-51.22-51.21z" />
<glyph unicode="&#xe91e;" glyph-name="angular" d="M425.050 439.577c73.778-0.311 35.94-0.311 171.761 0l-85.875 203.977-85.885-203.977zM510.815 949.961l-473.941-165.737 74.451-617.231 400.675-220.953 399.882 220.953 75.234 617.231-476.301 165.737zM695.196 205.955l-61.43 145.91h-245.64l-61.43-145.91h-106.998l291.238 646.736 291.248-646.736h-106.988z" />
<glyph unicode="&#xe91f;" glyph-name="dotnetnuke" d="M985.459 615.484c-51.943 142.035-163.93 256.080-305.975 305.955-51.913 18.844-108.946 28.501-167.484 28.501h-501.961v-1003.881h501.961c277.966 0 501.961 223.985 501.961 501.941 0 58.529-10.19 115.551-28.501 167.484zM679.484 448.512c0-92.16-75.314-167.484-167.484-167.484h-167.484v334.456h334.968v-166.972z" />
<glyph unicode="&#xe920;" glyph-name="pro-development" d="M512 306.588c-12.168 0-22.006-9.859-22.006-22.016 0-12.168 9.848-22.026 22.006-22.026 12.168 0 22.026 9.859 22.026 22.026 0 12.157-9.859 22.016-22.026 22.016v0zM993.471 906.933h-962.941c-11.314 0-20.49-9.176-20.49-20.49v-670.901c0-11.314 9.176-20.49 20.49-20.49h357.948l-35.84-86.93h-67.353c-11.314 0-20.49-9.176-20.49-20.49v-78.065c0-11.314 9.176-20.49 20.49-20.49h453.451c11.304 0 20.48 9.176 20.48 20.49v78.065c0 11.314-9.176 20.49-20.48 20.49h-67.373l-35.84 86.93h357.948c11.314 0 20.49 9.176 20.49 20.49v670.901c0 11.314-9.176 20.49-20.49 20.49v0zM972.981 865.953v-493.568h-921.961v493.568h921.961zM718.246 30.047h-412.471v37.095h412.471v-37.095zM627.039 108.122h-230.069l35.83 86.93h158.409l35.83-86.93zM51.019 236.032v95.383h921.961v-95.383h-921.961zM672.236 619.922v0c0 11.314-9.186 20.48-20.5 20.48h-21.855c-1.225 7.118-3.062 14.025-5.501 20.651l18.904 10.923c9.798 5.652 13.161 18.191 7.489 27.979-5.652 9.808-18.191 13.171-27.989 7.499l-18.954-10.943c-4.568 5.461-9.618 10.511-15.089 15.099l10.943 18.944c5.652 9.798 2.309 22.337-7.499 27.989-9.788 5.662-22.317 2.299-27.969-7.489l-10.923-18.904c-6.616 2.44-13.533 4.277-20.651 5.522v21.835c0 11.314-9.176 20.49-20.49 20.49-0.050 0-0.11-0.010-0.161-0.010s-0.1 0.010-0.151 0.010c-11.314 0-20.49-9.176-20.49-20.49v-21.835c-7.118-1.245-14.025-3.082-20.661-5.512l-10.893 18.894c-5.662 9.798-18.201 13.161-27.989 7.489-9.798-5.652-13.161-18.201-7.499-27.989l10.943-18.944c-5.471-4.578-10.521-9.628-15.089-15.099l-18.954 10.943c-9.808 5.662-22.327 2.299-27.989-7.489-5.652-9.808-2.299-22.337 7.499-27.989l18.884-10.913c-2.429-6.626-4.257-13.543-5.501-20.661h-21.845c-11.314 0.010-20.49-9.166-20.49-20.47 0-11.334 9.176-20.49 20.49-20.49h21.845c1.235-7.118 3.072-14.025 5.501-20.651l-18.884-10.923c-9.808-5.652-13.161-18.191-7.499-27.989s18.191-13.161 27.989-7.489l18.954 10.943c4.568-5.471 9.618-10.521 15.089-15.099l-10.943-18.944c-5.662-9.798-2.299-22.337 7.499-27.989 9.798-5.662 22.327-2.299 27.989 7.489l10.903 18.904c6.636-2.45 13.533-4.277 20.661-5.522v-21.835c0-11.314 9.176-20.49 20.49-20.49 0.050 0 0.1 0.010 0.151 0.010s0.11-0.010 0.161-0.010c11.304 0 20.49 9.176 20.49 20.49v21.835c7.118 1.245 14.025 3.072 20.651 5.522l10.923-18.904c5.652-9.798 18.191-13.161 27.969-7.489 9.818 5.652 13.161 18.201 7.499 27.989l-10.943 18.944c5.471 4.578 10.521 9.628 15.089 15.099l18.954-10.943c9.808-5.662 22.337-2.299 27.989 7.489 5.662 9.808 2.299 22.337-7.489 27.989l-18.904 10.923c2.44 6.616 4.277 13.533 5.501 20.651h21.855c11.304-0.010 20.49 9.156 20.49 20.48v0zM512.161 541.365c-0.060 0-0.11 0-0.161 0s-0.1 0-0.161 0c-43.309 0-78.547 35.238-78.547 78.557 0 43.309 35.238 78.557 78.547 78.557 0.060 0 0.11 0 0.161 0s0.1 0 0.161 0c43.309 0 78.557-35.248 78.557-78.557 0-43.319-35.248-78.557-78.557-78.557v0z" />
<glyph unicode="&#xe921;" glyph-name="startup-mentoring" d="M512 949.961c-277.223 0-501.961-224.738-501.961-501.961s224.738-501.961 501.961-501.961 501.961 224.738 501.961 501.961-224.738 501.961-501.961 501.961zM574.484 13.965v133.532c0 36.533-29.616 66.148-66.148 66.148-36.543 0-66.158-29.616-66.158-66.148v-132.427c-184.681 29.555-330.832 174.411-362.335 358.43h136.323c36.543 0 66.158 29.616 66.158 66.148s-29.616 66.148-66.158 66.148h-138.852c25.279 191.91 174.642 344.686 364.865 375.135v-149.123c0-36.533 29.616-66.148 66.148-66.148 36.543 0 66.158 29.616 66.158 66.148v150.227c193.717-27.638 346.614-181.86 372.214-376.24h-146.211c-36.543 0-66.158-29.616-66.158-66.148s29.616-66.148 66.158-66.148h143.671c-31.915-186.448-181.539-332.7-369.674-359.534z" />
<glyph unicode="&#xe922;" glyph-name="budget-time" d="M480.678 634.137c-8.845 0-16.033-7.178-16.033-16.033v-141.593h-52.355c-8.865 0-16.033-7.178-16.033-16.033s7.168-16.043 16.033-16.043h68.397c8.865 0 16.033 7.188 16.033 16.043v157.626c0 8.855-7.168 16.033-16.043 16.033zM256.331 460.479c0 8.855-7.178 16.033-16.033 16.033h-45.116c-8.845 0-16.033-7.178-16.033-16.033s7.188-16.043 16.033-16.043h45.116c8.855 0.010 16.033 7.188 16.033 16.043zM705.044 460.479c0-8.855 7.178-16.043 16.033-16.043h45.116c8.865 0 16.043 7.188 16.043 16.043s-7.178 16.033-16.043 16.033h-45.116c-8.855 0-16.033-7.178-16.033-16.033zM480.678 762.017c-8.845 0-16.033-7.178-16.033-16.043v-45.106c0-8.855 7.188-16.033 16.033-16.033 8.865 0 16.033 7.178 16.033 16.033v45.106c0.010 8.865-7.158 16.043-16.033 16.043zM480.678 236.112c-8.845 0-16.033-7.168-16.033-16.033v-45.106c0-8.865 7.188-16.043 16.033-16.043 8.865 0 16.033 7.178 16.033 16.043v45.106c0.010 8.865-7.158 16.033-16.033 16.033zM240.248 340.169l-14.828-8.563c-7.67-4.427-10.3-14.246-5.873-21.906 2.972-5.15 8.363-8.021 13.904-8.021 2.711 0 5.471 0.683 8.001 2.158l14.828 8.563c7.67 4.417 10.3 14.236 5.873 21.906s-14.236 10.28-21.906 5.863zM713.126 578.64c2.721 0 5.481 0.683 8.011 2.148l14.838 8.563c7.66 4.427 10.28 14.246 5.863 21.906-4.417 7.68-14.236 10.29-21.906 5.873l-14.838-8.573c-7.67-4.417-10.3-14.236-5.863-21.896 2.962-5.15 8.353-8.021 13.894-8.021zM351.824 715.746c-4.437 7.68-14.236 10.3-21.916 5.873-7.66-4.427-10.29-14.226-5.863-21.906l8.573-14.838c2.962-5.14 8.353-8.021 13.894-8.021 2.721 0 5.481 0.683 8.011 2.158 7.66 4.417 10.29 14.236 5.863 21.906l-8.563 14.828zM354.515 241.935c-7.67 4.427-17.478 1.807-21.906-5.863l-8.573-14.838c-4.427-7.68-1.797-17.468 5.863-21.906 2.53-1.466 5.281-2.148 8.011-2.148 5.542 0 10.923 2.871 13.904 8.021l8.563 14.838c4.427 7.66 1.807 17.468-5.863 21.896zM606.861 679.022c2.52-1.466 5.271-2.158 8.001-2.158 5.552 0 10.933 2.881 13.914 8.021l8.563 14.838c4.417 7.68 1.797 17.468-5.873 21.906s-17.468 1.807-21.906-5.873l-8.573-14.828c-4.417-7.67-1.787-17.488 5.873-21.906zM256.281 608.547l-14.828 8.573c-7.67 4.417-17.488 1.797-21.916-5.883-4.427-7.66-1.797-17.468 5.873-21.906l14.828-8.563c2.53-1.466 5.291-2.148 8.011-2.148 5.542 0 10.923 2.871 13.904 8.021 4.427 7.68 1.797 17.488-5.873 21.906zM965.572 323.915v0c12.348 42.898 19.004 88.225 19.004 135.108 0 269.111-218.152 487.263-487.263 487.263s-487.273-218.162-487.273-487.263 218.152-487.263 487.263-487.263c51.341 0 100.824 7.961 147.305 22.689-0.010 0.010-0.020 0.010-0.020 0.020 38.43-28.12 85.775-44.745 136.935-44.745 128.161-0.010 232.438 104.257 232.438 232.438 0 53.318-18.081 102.49-48.389 141.754zM957.721 333.533c-0.010 0.010-0.020 0.020-0.030 0.030 0.010-0.010 0.030-0.020 0.030-0.030zM497.303 13.914c-245.82 0-445.109 199.288-445.109 445.109s199.288 445.109 445.109 445.109 445.109-199.288 445.109-445.109c0-34.123-3.865-67.353-11.133-99.278-5.602 4.739-11.425 9.216-17.448 13.412l-29.284 17.328c-8.021 3.976-16.294 7.509-24.797 10.561l-31.061 8.744c-15.24 3.142-31.011 4.809-47.164 4.809-128.171 0-232.438-104.277-232.438-232.438 0-16.725 1.797-33.039 5.17-48.771l8.935-30.991c3.112-8.493 6.706-16.725 10.742-24.727l17.518-29.154c5.11-7.238 10.621-14.165 16.504-20.761-0.010 0.010-0.020 0.020-0.030 0.030-35.378-9.065-72.433-13.874-110.622-13.874zM616.046 19.105c0.211-0.211 0.402-0.412 0.612-0.622-0.211 0.211-0.402 0.422-0.612 0.622zM634.509 2.269c0.221-0.181 0.442-0.351 0.663-0.532-0.221 0.171-0.432 0.351-0.663 0.532zM624.981 10.521c0.261-0.241 0.532-0.482 0.793-0.723-0.261 0.241-0.532 0.472-0.793 0.723zM781.523-18.211c-110.492 0-200.383 89.891-200.383 200.383 0 110.482 89.891 200.363 200.383 200.363 110.482 0 200.373-89.881 200.373-200.363 0-110.492-89.891-200.383-200.373-200.383zM796.903 194.5h-30.569c-11.746 0-21.414 10.662-21.414 23.793 0 13.151 9.567 23.803 21.414 23.803h53.961c6.776 0 12.248 5.471 12.248 12.248 0 6.766-5.471 12.248-12.248 12.248h-26.483v22.207c0 6.766-5.471 12.248-12.248 12.248-6.766 0-12.248-5.481-12.248-12.248v-22.207h-3.092c-25.188 0-45.809-21.604-45.809-48.198 0-26.574 20.621-48.188 45.809-48.188h30.569c11.756 0 21.303-10.652 21.303-23.793s-9.547-23.793-21.303-23.793h-54.965c-6.776 0-12.248-5.481-12.248-12.248 0-6.776 5.471-12.258 12.248-12.258h27.477v-22.598c0-6.776 5.481-12.248 12.248-12.248 6.776 0 12.248 5.471 12.248 12.248v22.598h3.674c24.887 0.402 45.106 21.815 45.106 48.198 0.020 26.594-20.48 48.188-45.678 48.188z" />
<glyph unicode="&#xe923;" glyph-name="process-focus" d="M513.235 714.32c-149.002 0.131-268.067-117.268-268.449-264.674s118.854-267.505 265.939-267.957c138.762-0.432 267.746 106.516 268.489 267.826 0.683 147.627-119.527 264.674-265.979 264.804zM509.018 226.013c-100.221-14.677-214.568 89.038-222.489 201.176-9.457 133.893 90.453 245.258 222.489 245.599 0-148.942 0-297.894 0-446.775zM63.588 742.832c0 71.831 58.237 130.078 130.078 130.078h97.38v45.829h-136.905c-79.581 0-144.103-64.522-144.103-144.103v-117.68h53.549v85.875zM63.588 153.168v83.476h-53.549v-115.28c0-79.581 64.522-144.103 144.103-144.103h136.895v45.819h-97.38c-71.831 0.010-130.068 58.258-130.068 130.088zM960.412 153.168c0-71.831-58.237-130.078-130.078-130.078h-99.77v-45.819h139.294c79.591 0 144.103 64.522 144.103 144.103v115.27h-53.549v-83.476zM869.858 918.739h-139.294v-45.829h99.77c71.841 0 130.078-58.237 130.078-130.078v-85.885h53.549v117.69c0 79.581-64.522 144.103-144.103 144.103z" />
<glyph unicode="&#xe924;" glyph-name="finance-banking" d="M925.907 157.646l-0.241 3.684c-4.568 78.798-86.92 488.197-341.865 553.241 121.203 37.978 168.568 147.416 169.131 148.741l12.318 29.596-31.403-6.315c-0.632-0.12-61.791-12.278-97.501-12.278-11.284 0-19.506 7.68-32.045 20.189-13.443 13.463-30.198 30.198-56.179 30.198-28.642 0-46.050-20.189-58.739-34.926-5.311-6.164-13.342-15.45-15.952-15.601-5.622 1.948-17.478 19.747-24.576 30.379-15.541 23.351-30.238 45.407-51.983 45.407-24.656 0-40.88-28.491-56.551-56.049-3.614-6.385-8.302-14.617-11.495-19.105-11.033 1.576-34.485 6.766-53.84 11.615l-30.168 7.57 9.828-29.495c0.452-1.405 41.101-117.358 167.314-152.616-247.878-75.374-324.668-502.242-324.668-551.032 0-36.563 9.447-64.502 34.836-103.113 25.259-38.42 137.176-110.994 380.275-111.696h3.413c240.048 0.251 340.731 59.994 382.123 109.166 0.904 0.924 5.23 5.592 8.423 12.057 23.462 34.886 20.831 72.302 19.546 90.383zM877.437 85.454l-1.656-2.962c-0.582-1.385-1.897-3.042-3.142-4.397-37.587-44.604-130.128-97.802-357.507-97.933-237.789 0.131-338.071 71.349-354.475 96.306-21.594 32.828-29.244 54.894-29.244 84.38 0 42.988 84.861 512.873 352.949 528.103l44.484-0.211c271.079-15.139 358.882-462.406 362.747-529.358l0.291-4.116c1.074-15.551 3.102-44.464-14.446-69.813zM607.152 314.478c-10.481 8.604-22.488 15.701-35.96 21.323-13.593 5.542-27.206 10.732-40.9 15.39v138.391c8.995-0.823 16.725-2.158 23.13-4.166 6.445-1.897 12.208-3.805 17.398-5.763 5.19-1.897 9.848-3.604 14.115-5.17 4.337-1.476 8.824-2.209 13.573-2.209 8.172 0 14.467 2.429 18.934 7.369 4.568 4.909 6.847 10.662 6.847 17.057 0 7.72-3.132 14.185-9.377 19.305-6.174 5.2-14.045 9.457-23.502 12.86-9.427 3.494-19.607 5.903-30.519 7.449-11.013 1.506-21.163 2.64-30.6 3.554v31.513c0 4.718-1.656 8.674-4.839 11.866-3.203 3.283-7.168 4.839-11.927 4.839-4.718 0-8.674-1.556-11.836-4.839-3.293-3.182-4.869-7.148-4.869-11.866v-31.503c-34.756-3.062-62.183-14.296-82.352-33.802-20.219-19.506-30.248-46.291-30.248-80.173 0-19.305 3.203-35.288 9.658-47.917 6.395-12.639 14.968-23.291 25.71-31.875 10.732-8.594 22.799-15.631 36.061-21.243 13.292-5.622 26.985-10.722 41.181-15.47v-146.713c-12.378 0.351-23.271 1.787-32.497 4.116-9.226 2.399-17.398 4.959-24.425 7.74-7.098 2.751-13.212 5.261-18.382 7.469-5.15 2.108-9.879 3.162-14.145 3.162-6.897 0-12.559-2.54-17.027-7.73-4.558-5.12-6.746-10.933-6.746-17.358 0-8.573 3.835-15.802 11.555-21.564 7.73-5.823 17.257-10.642 28.652-14.497 11.334-3.835 23.542-6.666 36.653-8.343 13.091-1.737 25.158-2.781 36.362-3.213v-30.971c0-4.668 1.656-8.624 4.869-11.917 3.152-3.203 7.118-4.839 11.886-4.839 4.718 0 8.674 1.636 11.886 4.839 3.263 3.182 4.839 7.248 4.839 11.917v32.196c16.324 2.189 31.373 6.455 45.066 12.89 13.683 6.425 25.66 14.798 35.709 25.078 10.089 10.28 17.91 22.297 23.502 36.071 5.542 13.683 8.403 29.415 8.403 47.024 0 18.834-3.363 34.726-10.029 47.546-6.676 12.951-15.28 23.612-25.811 32.176zM496.801 362.235c-3.885 1.677-7.65 3.303-11.284 4.809-3.604 1.476-7.168 3.062-10.632 4.809-3.845 1.707-7.901 3.986-12.248 6.746-4.237 2.781-8.222 6.475-11.836 10.963-3.684 4.508-6.746 10.079-9.387 16.755-2.56 6.566-3.865 14.487-3.865 23.472 0 9.899 1.586 18.201 4.869 25.078 3.203 6.897 7.439 12.639 12.83 17.398 5.321 4.688 11.585 8.373 18.653 10.933 7.128 2.56 14.728 4.467 22.869 5.773v-126.735zM530.281 164.573v133.23c3.815-1.275 7.58-2.68 11.264-4.186 3.604-1.496 7.168-3.112 10.581-4.809 8.172-3.865 16.324-10.079 24.526-18.613 8.152-8.594 12.188-22.167 12.188-40.629 0-36.864-19.536-58.499-58.559-64.994z" />
<glyph unicode="&#xe925;" glyph-name="ecommerce" d="M723.265 564.475h-246.804c-9.748 0-18.010-7.79-18.010-18.020 0-9.728 7.76-17.99 18.010-17.99h246.804c9.738 0 18.010 7.77 18.010 17.99 0 9.728-7.78 18.020-18.010 18.020zM704.753 475.317h-209.338c-9.698 0-18.010-8.292-18.010-18.020 0-9.748 7.821-18 18.010-18h209.338c9.748 0 18.010 8.262 18.010 18 0 9.728-7.76 18.020-18.010 18.020zM888.41 397.965l125.55 262.636h-57.043l-207.189 206.477-157.064-157.033-103.364 103.886-153.339-153.329h-79.681l-77.473 164.854c-4.628 10.039-14.627 16.966-26.202 16.966h-31.573v-0.793h-82.452c-16.183 0-28.501-13.061-28.501-28.501-0.763-16.183 12.328-29.274 28.501-29.274h95.543l198.013-421.426c4.598-10.019 14.617-16.976 26.202-16.976h497.704c18.492 0 33.119-14.587 33.119-33.099s-14.627-33.139-33.119-33.139h-493.879c-16.153 0-28.511-13.111-28.511-28.541 0-16.143 13.091-28.511 28.511-28.511h493.879c50.086 0 90.925 40.86 90.925 90.955-0.020 38.671-24.405 71.73-58.559 84.851zM826.78 404.058h-449.988l-93.736 199.529h639.227l-95.503-199.529zM765.872 187.663c-43.791 0-79.35-35.569-79.35-79.37s35.559-79.37 79.35-79.37c43.851 0 79.38 35.569 79.38 79.37s-35.529 79.37-79.38 79.37zM765.872 68.979c-21.675 0-39.293 17.589-39.293 39.314 0 21.685 17.619 39.273 39.293 39.273 21.725 0 39.293-17.589 39.293-39.273 0-21.725-17.569-39.314-39.293-39.314zM478.519 187.663c-43.821 0-79.36-35.569-79.36-79.37s35.539-79.37 79.36-79.37c43.811 0 79.34 35.569 79.34 79.37s-35.529 79.37-79.34 79.37zM478.519 68.979c-21.705 0-39.304 17.589-39.304 39.314 0 21.685 17.599 39.273 39.304 39.273 21.695 0 39.293-17.589 39.293-39.273 0-21.725-17.599-39.314-39.293-39.314z" />
<glyph unicode="&#xe926;" glyph-name="food-beverages" d="M357.436 772.538c0 97.109-47.305 175.857-105.522 175.857-58.308 0-105.532-78.748-105.532-175.857 0-87.391 38.29-159.704 88.445-173.327-0.131-0.853-0.522-1.626-0.522-2.52v-158.228c0-1.104 0.432-2.028 0.622-3.072-20.721-7.148-35.84-26.704-35.84-49.754v-386.791c0-29.003 23.793-52.806 52.826-52.806 29.023 0 52.736 23.803 52.736 52.806v386.801c0 23.050-15.059 42.586-35.75 49.754 0.171 1.044 0.612 1.958 0.612 3.072v158.228c0 0.893-0.392 1.667-0.512 2.52 50.096 13.653 88.435 85.936 88.435 173.317zM251.914 262.616c-9.708 0-17.599 7.891-17.599 17.579 0 9.638 7.891 17.528 17.599 17.528 9.608 0 17.599-7.891 17.599-17.528 0-9.688-7.991-17.579-17.599-17.579zM269.513 350.549c0-9.708-7.991-17.599-17.599-17.599-9.708 0-17.599 7.891-17.599 17.599 0 9.608 7.891 17.569 17.599 17.569 9.608 0 17.599-7.961 17.599-17.569zM877.417 708.086c0 133.542 9.367 224.587-103.715 224.587v-514.61c-10.501-9.487-17.288-23.080-17.288-38.28v-380.175c0-28.521 23.381-51.832 51.802-51.832 28.521 0 51.883 23.311 51.883 51.832v380.185c0 15.561-7.088 29.385-18.030 38.902 36.312 60.928 35.348 171.43 35.348 289.39zM808.227 258.791c-9.437 0-17.187 7.74-17.187 17.288 0 9.437 7.74 17.338 17.187 17.338 9.537 0 17.288-7.891 17.288-17.338 0-9.537-7.75-17.288-17.288-17.288zM808.227 327.891c-9.437 0-17.187 7.76-17.187 17.308 0 9.507 7.74 17.318 17.187 17.318 9.537 0 17.288-7.8 17.288-17.318 0-9.537-7.75-17.308-17.288-17.308zM635.251 949.961c-9.527 0-17.288-7.74-17.288-17.288v-224.587c0-22.508-14.446-41.562-34.495-48.73v273.318c0.010 9.547-7.79 17.288-17.277 17.288-9.537 0-17.338-7.74-17.338-17.288v-273.308c-20.048 7.168-34.505 26.202-34.505 48.72v224.587c0 9.537-7.77 17.288-17.298 17.288-9.537 0-17.308-7.74-17.308-17.288v-224.587c0-41.753 29.706-76.629 69.11-84.661v-191.829c0-1.064 0.432-1.988 0.632-3.002-20.329-7.017-35.127-26.172-35.127-48.801v-380.175c0-28.521 23.261-51.832 51.832-51.832 28.491 0 51.772 23.311 51.772 51.832v380.175c0 22.628-14.788 41.783-35.127 48.801 0.201 1.014 0.632 1.928 0.632 3.002v191.839c39.384 8.031 69.090 42.898 69.090 84.661v224.577c0.010 9.547-7.76 17.288-17.308 17.288zM566.192 258.791c-9.537 0-17.338 7.74-17.338 17.288 0 9.437 7.79 17.338 17.338 17.338 9.477 0 17.288-7.891 17.288-17.338 0-9.537-7.8-17.288-17.288-17.288zM583.479 345.198c0-9.537-7.8-17.308-17.288-17.308-9.537 0-17.338 7.76-17.338 17.308 0 9.507 7.79 17.318 17.338 17.318 9.487-0.010 17.288-7.811 17.288-17.318z" />
<glyph unicode="&#xe927;" glyph-name="healthcare" d="M386.52 808.84c0 17.308 14.015 31.373 31.332 31.373h188.255c17.358 0 31.373-14.055 31.373-31.373v-62.745h62.735v94.118c0 34.595-28.12 62.745-62.735 62.745h-250.96c-34.665 0-62.745-28.12-62.745-62.745v-94.118h62.745v62.745zM951.196 746.044h-878.411c-34.615 0-62.745-28.13-62.745-62.775v-627.451c0-34.645 28.13-62.775 62.745-62.775h878.411c34.645 0 62.765 28.13 62.765 62.775v627.451c0 34.655-28.12 62.775-62.765 62.775zM700.215 338.261c0-17.388-14.015-31.503-31.373-31.503h-94.108v-94.017c0-17.388-14.015-31.373-31.373-31.373h-62.735c-17.358 0-31.403 13.985-31.403 31.373v94.017h-94.077c-17.358 0-31.373 14.105-31.373 31.503v62.705c0 17.298 14.015 31.403 31.373 31.403h94.077v93.997c0 17.378 14.045 31.483 31.373 31.483h62.765c17.358 0 31.373-14.095 31.373-31.483v-93.997h94.108c17.358 0 31.373-14.135 31.373-31.403v-62.705z" />
<glyph unicode="&#xe928;" glyph-name="fashion" d="M512.020 949.961c-276.791 0-501.981-225.19-501.981-501.971 0-276.801 225.19-501.951 501.981-501.951 276.781 0 501.941 225.149 501.941 501.951 0 276.781-225.16 501.971-501.941 501.971zM512.020-27.036c-261.953 0-475.036 213.123-475.036 475.026 0 261.923 213.092 475.016 475.036 475.016 261.903 0 475.016-213.102 475.016-475.016s-213.112-475.026-475.016-475.026zM639.036 546.987l150.699 200.513-62.213 92.18-215.502-121.424 0.482-0.643h-0.954l0.472 0.643-215.442 121.424-62.283-92.18 150.709-200.513 37.768 50.929 33.21-32.868-87.793-371.762 143.832-136.975 143.832 136.975-87.763 371.762 33.21 32.888z" />
<glyph unicode="&#xe929;" glyph-name="media-entertainment" d="M836.769 503.768h-45.879v139.445h-107.078l-122.689 167.304h-467.396v-83.667h424.98l61.32-83.647h-486.3v-139.445h-83.687v-167.314h83.687v-250.96h697.163v139.425h45.869l177.202-88.566v456.031l-177.192-88.606zM512.020 392.242h-250.99v83.637h250.99v-83.637z" />
<glyph unicode="&#xe92a;" glyph-name="education" d="M1003.359 520.312l-465.438 220.562c-14.125 7.078-37.717 7.078-51.822 0l-465.468-220.562c-14.125-7.078-14.125-19.617 0-26.684l67.514-31.995v-133.16c-17.93-5.261-31.403-21.825-31.403-41.301 0-19.436 12.609-35.218 29.686-40.799-4.096-57.434-13.975-80.846-13.975-80.846l86.327-15.701c0 0-31.021 38.761-42.687 97.481 15.711 6.465 26.975 22.046 26.975 39.876 0 19.466-13.443 36.041-31.373 41.291v122.007l146.633-69.491c-4.558-32.547-9.236-66.219-11.615-84.289-0.994-4.156-1.586-8.383-1.586-12.649 0-0.050 0.040-0.090 0.040-0.141-0.040-0.412-0.070-0.653-0.040-0.653 0 0.11 0.060 0.241 0.060 0.351 0.512-64.944 119.577-118.081 266.812-118.081 147.095 0 266.059 53.027 266.802 117.901 0.030-0.070 0.070-0.131 0.070-0.181l-0.040 0.351c0 0.161 0.040 0.281 0.040 0.442 0 4.387-0.632 8.714-1.697 12.981l-10.983 84.189 237.166 112.409c14.135 7.078 14.135 19.617 0 26.694z" />
<glyph unicode="&#xe92b;" glyph-name="realestate" d="M222.409 949.961v-1003.922h212.4v231.675h154.423v-231.675h212.349v1003.922h-579.172zM473.419 280.696h-154.423v140.388h154.423v-140.388zM473.419 491.299h-154.423v140.419h154.423v-140.419zM473.419 701.912h-154.423v140.378h154.423v-140.378zM705.094 280.696h-154.463v140.388h154.473v-140.388zM705.094 491.299h-154.463v140.419h154.473v-140.419zM705.094 701.912h-154.463v140.378h154.473v-140.378z" />
<glyph unicode="&#xe92c;" glyph-name="insurance" d="M541.375 601.459v36.322c0 10.973-8.885 19.848-19.827 19.848-10.973 0-19.858-8.875-19.858-19.848v-36.342c-77.312-4.538-150.237-35.208-207.079-88.486-61.41-57.555-98.324-135.339-103.986-219.005-0.11-1.646 0.813-3.213 2.309-3.905 0.532-0.251 1.114-0.371 1.677-0.371 1.034 0 2.038 0.392 2.771 1.114 13.141 12.589 30.389 19.506 48.56 19.506 19.848 0 38.852-8.473 52.134-23.201 0.763-0.843 1.837-1.335 2.972-1.335 0.311 0 0.582 0.161 0.853 0.211v-0.1h0.020c0.381 0.060 0.723 0.211 1.054 0.392-0.201-0.1-0.442-0.1-0.673-0.181 0.643 0.231 1.275 0.512 1.747 1.004 13.272 14.958 32.286 23.512 52.134 23.512 19.827 0 38.832-8.553 52.114-23.512 0.783-0.843 1.857-1.335 2.972-1.335 0.512 0 0.873 0.412 1.325 0.592v-0.331c0.632 0.231 1.205 0.592 1.677 1.074 3.313 3.745 7.007 7.078 10.943 9.979 11.907 8.684 26.293 13.533 41.201 13.533 12.579 0 24.616-3.765 35.268-10.079v-283.608c0-39.063 31.814-70.887 70.927-70.887 39.133 0 70.957 31.824 70.957 70.887v40.056c0 10.943-8.865 19.827-19.848 19.827-10.943 0-19.827-8.885-19.827-19.827v-40.056c0-17.177-14.035-31.192-31.292-31.192-17.237 0-31.252 14.015-31.252 31.192v283.608c10.652 6.335 22.709 10.099 35.298 10.099 19.848 0 38.822-8.553 52.134-23.512 0.392-0.412 0.883-0.763 1.436-1.004l0.020 0.351c0.512-0.231 0.944-0.683 1.506-0.683 1.155 0 2.259 0.492 3.002 1.335 13.272 14.958 32.276 23.512 52.114 23.512 19.868 0 38.862-8.553 52.134-23.512 0.612-0.663 1.436-1.004 2.309-1.155-0.371 0.1-0.783 0.12-1.134 0.291 0.452-0.211 0.883-0.351 1.395-0.432v0.080c0.12-0.020 0.251-0.12 0.412-0.12 1.134 0 2.219 0.492 2.982 1.335 13.292 14.728 32.316 23.201 52.134 23.201 18.201 0 35.428-6.917 48.53-19.506 0.783-0.723 1.807-1.114 2.801-1.114 0.592 0 1.155 0.12 1.687 0.371 1.506 0.683 2.429 2.259 2.299 3.905-5.652 83.667-42.586 161.451-103.976 219.005-56.812 53.268-129.737 83.938-207.049 88.496zM300.102 681.231c26.674 0 48.379 21.675 48.379 48.329 0 5.933-1.094 11.806-3.293 17.458-0.070 0.191-40.779 74.933-40.779 74.933-0.873 1.576-2.51 2.56-4.317 2.56-1.787 0-3.443-0.984-4.297-2.56 0 0-40.679-74.742-40.749-74.933-2.189-5.642-3.313-11.515-3.313-17.458 0.010-26.654 21.695-48.329 48.369-48.329zM735.724 681.231c26.664 0 48.349 21.675 48.349 48.329 0 5.943-1.094 11.816-3.293 17.458-0.060 0.191-40.749 74.933-40.749 74.933-0.883 1.576-2.53 2.56-4.317 2.56-1.827 0-3.474-0.984-4.337-2.56 0 0-40.669-74.742-40.769-74.933-2.179-5.652-3.293-11.525-3.293-17.458 0.020-26.654 21.725-48.329 48.409-48.329zM521.547 786.663c30.389 0 55.115 24.707 55.115 55.075 0 6.756-1.255 13.453-3.765 19.878-0.1 0.221-46.451 85.424-46.451 85.424-0.954 1.797-2.861 2.921-4.899 2.921-2.058 0-3.945-1.134-4.929-2.921 0 0-46.371-85.203-46.451-85.414-2.49-6.425-3.765-13.111-3.765-19.888 0-30.369 24.727-55.075 55.145-55.075zM300.102 876.925c10.993 0 19.848 8.885 19.848 19.837v9.276c0 10.953-8.855 19.827-19.848 19.827-10.943 0-19.827-8.875-19.827-19.827v-9.276c0-10.953 8.885-19.837 19.827-19.837zM735.724 882.377c10.943 0 19.827 8.885 19.827 19.837v3.825c0 10.943-8.885 19.827-19.827 19.827-10.983 0-19.868-8.885-19.868-19.827v-3.825c0.010-10.953 8.885-19.837 19.868-19.837zM930.766 646.204c-10.943 0-19.848-8.885-19.848-19.837v-13.332c0-10.973 8.905-19.848 19.848-19.848 10.963 0 19.848 8.875 19.848 19.848v13.332c-0.010 10.953-8.885 19.837-19.848 19.837zM93.204 657.418c-10.943 0-19.807-8.885-19.807-19.837v-13.342c0-10.953 8.855-19.837 19.807-19.837 10.963 0 19.848 8.885 19.848 19.837v13.342c0 10.953-8.895 19.837-19.848 19.837zM912.414 806.43c0 10.953-8.865 19.827-19.827 19.827-10.983 0-19.868-8.875-19.868-19.827v-13.342c0-10.953 8.885-19.837 19.868-19.837 10.963 0 19.827 8.885 19.827 19.837v13.342zM142.316 815.355c-10.963 0-19.827-8.885-19.827-19.837v-13.342c0-10.963 8.865-19.837 19.827-19.837s19.827 8.875 19.827 19.837v13.342c0 10.953-8.865 19.837-19.827 19.837z" />
<glyph unicode="&#xe92d;" glyph-name="surveillance-camera" d="M935.655 785.318h-925.616v-31.122h78.306v-156.612h63.247v-63.247h16.063v-78.306c0-190.745 154.604-345.349 345.349-345.349s345.349 154.604 345.349 345.349v78.306h16.063v63.247h63.247v156.612h78.306v31.122h-80.314zM825.224 456.031c0-172.675-140.549-313.224-313.224-313.224s-313.224 140.549-313.224 313.224v78.306h627.451v-78.306zM841.286 565.459h-658.573v31.122h658.573v-31.122zM119.467 628.706v125.49h784.063v-125.49h-784.063zM512 173.929c78.306 0 141.553 63.247 141.553 141.553s-63.247 141.553-141.553 141.553c-78.306 0-141.553-63.247-141.553-141.553s63.247-141.553 141.553-141.553v0zM512 424.91c60.235 0 109.427-49.192 109.427-109.427s-49.192-110.431-109.427-110.431-109.427 49.192-109.427 109.427 49.192 110.431 109.427 110.431v0zM512 236.173c43.169 0 78.306 35.137 78.306 78.306s-35.137 78.306-78.306 78.306c-43.169 0-78.306-35.137-78.306-78.306s35.137-78.306 78.306-78.306v0zM512 361.663c26.102 0 47.184-21.082 47.184-47.184s-21.082-47.184-47.184-47.184-47.184 21.082-47.184 47.184c0 26.102 21.082 47.184 47.184 47.184v0zM517.020 341.584l22.086-22.086-31.122-31.122-22.086 22.086 31.122 31.122zM433.694 707.012h31.122v-31.122h-31.122v31.122zM495.937 707.012h31.122v-31.122h-31.122v31.122zM559.184 707.012h31.122v-31.122h-31.122v31.122z" />
<glyph unicode="&#xe92e;" glyph-name="security-shield" d="M909.553 772.267c-65.255 0-114.447 38.149-167.655 78.306-60.235 47.184-128.502 99.388-229.898 99.388s-169.663-52.204-229.898-99.388c-52.204-40.157-102.4-78.306-167.655-78.306-12.047 0-21.082-9.035-21.082-21.082 0-243.953 30.118-406.588 98.384-527.059 67.263-119.467 168.659-193.757 309.208-275.075 3.012-2.008 7.027-3.012 10.039-3.012 4.016 0 7.027 1.004 10.039 3.012 140.549 81.318 241.945 155.608 309.208 275.075 68.267 120.471 98.384 283.106 98.384 527.059 2.008 12.047-8.031 21.082-19.075 21.082v0zM512-8.784c-251.984 146.573-373.459 274.071-376.471 739.89 69.271 7.027 121.475 47.184 171.671 86.337 57.224 44.173 117.459 90.353 204.8 90.353s146.573-46.18 204.8-90.353c50.196-39.153 103.404-79.31 171.671-86.337-3.012-465.82-124.486-593.318-376.471-739.89v0zM265.035 711.027c-5.020 10.039-18.071 14.055-28.11 9.035-3.012-1.004-5.020-3.012-8.031-4.016-10.039-5.020-15.059-18.071-9.035-28.11 4.016-7.027 11.043-12.047 19.075-12.047 3.012 0 6.024 1.004 9.035 2.008s6.024 3.012 9.035 5.020c9.035 5.020 13.051 18.071 8.031 28.11v0zM817.192 547.388c1.004 0 1.004 0 2.008 0 11.043 0 20.078 8.031 21.082 19.075 0 3.012 0 5.020 1.004 8.031 1.004 11.043-8.031 22.086-19.075 23.090s-22.086-8.031-23.090-19.075c0-3.012 0-5.020-1.004-8.031-1.004-12.047 7.027-22.086 19.075-23.090v0zM306.196 718.055c4.016 0 8.031 1.004 12.047 4.016 12.047 9.035 24.094 18.071 35.137 26.102 53.208 40.157 99.388 75.294 158.62 75.294 12.047 0 21.082 9.035 21.082 21.082s-9.035 21.082-21.082 21.082c-73.286 0-126.494-41.161-183.718-84.329-11.043-8.031-23.090-17.067-34.133-26.102-9.035-7.027-11.043-20.078-5.020-29.114 4.016-5.020 11.043-8.031 17.067-8.031v0zM512 88.596c-53.208 33.129-118.463 77.302-166.651 134.525-7.027 9.035-21.082 10.039-29.114 2.008-9.035-7.027-10.039-21.082-2.008-29.114 55.216-65.255 129.506-114.447 187.733-149.584 0 0 0 0 0 0s1.004-1.004 2.008-1.004c0 0 1.004 0 1.004 0s1.004 0 1.004-1.004c0 0 1.004 0 1.004 0s1.004 0 1.004 0c0 0 1.004 0 1.004 0 1.004 0 1.004 0 2.008 0 0 0 0 0 1.004 0v0c0 0 0 0 1.004 0s1.004 0 2.008 0c0 0 1.004 0 1.004 0s1.004 0 1.004 0c0 0 1.004 0 1.004 0s1.004 0 1.004 1.004c0 0 1.004 0 1.004 0 1.004 0 1.004 1.004 2.008 1.004 0 0 0 0 0 0 58.227 35.137 131.514 84.329 187.733 149.584 63.247 75.294 103.404 176.69 122.478 310.212 2.008 11.043-6.024 22.086-18.071 24.094-11.043 2.008-22.086-6.024-24.094-18.071-18.071-125.49-54.212-219.859-112.439-289.129-47.184-57.224-112.439-101.396-165.647-134.525v0zM646.525 687.937l-217.851-217.851-52.204 52.204c-13.051 13.051-30.118 20.078-48.188 20.078s-35.137-7.027-48.188-20.078c-26.102-26.102-26.102-69.271 0-96.376l101.396-101.396c0 0 0 0 0 0l1.004-1.004c0 0 0 0 0 0l1.004-1.004c0 0 0 0 0 0l1.004-1.004c0 0 0 0 0 0l1.004-1.004c0 0 0 0 1.004 0l1.004-1.004c0 0 0 0 0 0l1.004-1.004c0 0 0 0 0 0l3.012-1.004c0 0 0 0 0 0l1.004-1.004c0 0 0 0 0 0l1.004-1.004c0 0 0 0 0 0l1.004-1.004c0 0 0 0 1.004 0l1.004-1.004c0 0 0 0 0 0l1.004-1.004c0 0 0 0 1.004 0h1.004c0 0 0 0 0 0h1.004c0 0 1.004 0 1.004-1.004h1.004c0 0 0 0 0 0h1.004c0 0 0 0 0 0h1.004c0 0 0 0 1.004 0h1.004c0 0 1.004 0 1.004 0h1.004c0 0 0 0 0 0h1.004c0 0 0 0 0 0h1.004c0 0 0 0 0 0h1.004c0 0 0 0 0 0h1.004c0 0 0 0 1.004 0h1.004c0 0 1.004 0 1.004 0h1.004c0 0 0 0 0 0h1.004c0 0 0 0 0 0h1.004c0 0 1.004 0 1.004 0h1.004c0 0 0 0 1.004 0h1.004c0 0 1.004 0 1.004 0h1.004c0 0 0 0 0 0h3.012c0 0 0 0 0 0h1.004c0 0 1.004 0 1.004 0h1.004c0 0 0 0 1.004 0h1.004c0 0 1.004 0 1.004 0h1.004c0 0 0 0 0 0h1.004c0 0 0 0 1.004 0h1.004c0 0 1.004 0 1.004 0h1.004c0 0 0 0 1.004 0h1.004c0 0 0 0 0 0h1.004c0 0 0 0 1.004 0h1.004c0 0 0 0 0 0h1.004c0 0 0 0 0 0h1.004c0 0 1.004 0 1.004 0h1.004c0 0 0 0 1.004 0h1.004c0 0 0 0 0 0h1.004c0 0 0 0 0 0h1.004c0 0 1.004 0 1.004 0h1.004c0 0 0 0 1.004 0h1.004c0 0 0 0 0 0l1.004 1.004c0 0 1.004 0 1.004 1.004h1.004c0 0 0 0 0 0l1.004 1.004c0 0 0 0 0 0l1.004 1.004c0 0 0 0 0 0l1.004 1.004c0 0 0 0 0 0l1.004 1.004c0 0 0 0 1.004 0l1.004 1.004c0 0 0 0 0 0l1.004 1.004c0 0 0 0 0 0l1.004 1.004c0 0 0 0 1.004 1.004h1.004c0 0 0 0 1.004 0l1.004 1.004c0 0 0 0 0 0l1.004 1.004c0 0 0 0 0 0l1.004 1.004c0 0 0 0 1.004 1.004l268.047 267.043c26.102 26.102 26.102 69.271 0 96.376-13.051 13.051-30.118 20.078-48.188 20.078-18.071-1.004-35.137-8.031-48.188-21.082v0zM713.788 621.678l-266.039-266.039c0 0 0 0 0 0l-2.008-2.008c0 0 0 0 0 0l-2.008-2.008-4.016-2.008c0 0 0 0 0 0l-2.008-1.004c0 0 0 0 0 0l-4.016-1.004c0 0 0 0 0 0h-2.008c0 0 0 0 0 0h-1.004c0 0 0 0 0 0h-2.008c0 0 0 0 0 0h-1.004c0 0 0 0 0 0h-2.008c0 0 0 0 0 0l-4.016 1.004c0 0 0 0 0 0l-6.024 3.012-4.016 3.012-100.392 100.392c-10.039 10.039-10.039 27.106 0 37.145 5.020 5.020 11.043 8.031 18.071 8.031s14.055-3.012 18.071-8.031l66.259-66.259c4.016-4.016 9.035-6.024 15.059-6.024s11.043 2.008 15.059 6.024l232.91 232.91c5.020 5.020 11.043 8.031 18.071 8.031s14.055-3.012 18.071-8.031c11.043-10.039 11.043-27.106 1.004-37.145v0z" />
</font>
</defs>
</svg>
