<svg xmlns="http://www.w3.org/2000/svg" width="68.247" height="55.372" viewBox="0 0 68.247 55.372">
  <g id="Component_75_1" data-name="Component 75 – 1" transform="translate(0.334 0.314)">
    <g id="Group_3697" data-name="Group 3697" transform="translate(-1483.485 -445.571)" opacity="0.1" style="mix-blend-mode: multiply;isolation: isolate">
      <path id="Path_5458" data-name="Path 5458" d="M1550.8,462.558l-11.144-14.478a1.305,1.305,0,0,0-1.735-.3l-7.2,4.575h-9.385a1.3,1.3,0,0,0-.359.061l-7.276,2.094-7.55-2.065-7.336-4.665a1.305,1.305,0,0,0-1.717.281l-12.326,15.269a1.305,1.305,0,0,0,.164,1.809l6.461,5.56,5.8,7.812a4.609,4.609,0,0,0,2.9,7.743,4.615,4.615,0,0,0,4.56,5.32l.049,0c0,.032,0,.063,0,.1a4.616,4.616,0,0,0,4.615,4.614,4.652,4.652,0,0,0,.72-.057,4.614,4.614,0,0,0,7.852,2.81l.706-.706.3.239a244.282,244.282,0,0,1,11.155-4.737,4.61,4.61,0,0,1,4.683-4.683,4.606,4.606,0,0,1,4.684-4.684,4.621,4.621,0,0,0,.606-5.776l4.233-8.864,6.363-5.475a1.306,1.306,0,0,0,.182-1.786Zm-52.4-11.953,5.274,3.354-11.475,13.98-4.6-3.958Zm.744,29.641,1.592-1.592a1.776,1.776,0,0,1,.151-.137,2,2,0,0,1,1.088-.442h.034a1.613,1.613,0,0,1,.171-.007,1.987,1.987,0,0,1,1.428.627,2.053,2.053,0,0,1-.088,2.841l-1.544,1.543a2,2,0,0,1-2.832-2.832Zm4.1,8.126a2,2,0,0,1,0-2.833l3.087-3.087a2.025,2.025,0,0,1,2.277-.393,2,2,0,0,1,1.1,2.068,2.117,2.117,0,0,1-.6,1.207l-3.039,3.038a2,2,0,0,1-2.832,0Zm4.661,4.706a2,2,0,0,1,0-2.832l3.087-3.087a2.026,2.026,0,0,1,2.421-.318,1.994,1.994,0,0,1,.956,2.025,2.124,2.124,0,0,1-.593,1.175l-3.038,3.037a2,2,0,0,1-2.833,0Zm5.31,4.105a2,2,0,0,1,0-2.832l1.592-1.592c.048-.048.1-.094.15-.136l0,0a2,2,0,0,1,.888-.413l.023,0c.056-.01.113-.018.17-.023l.068,0c.047,0,.094-.005.141-.005a1.988,1.988,0,0,1,1.428.628,1.553,1.553,0,0,1,.129.152,2.066,2.066,0,0,1-.225,2.7l-1.536,1.536a2,2,0,0,1-2.832,0Zm24.356-14.571a2,2,0,0,1-2.832,0,1.12,1.12,0,0,0-.089-.08l-8.4-8.483a1.306,1.306,0,0,0-1.856,1.837l8.486,8.574,0,0a2,2,0,0,1-2.833,2.833l-5.676-5.736a1.306,1.306,0,1,0-1.856,1.837l5.59,5.648a1.231,1.231,0,0,0,.091.1,2,2,0,1,1-2.833,2.832l-3.1-3.131a1.306,1.306,0,0,0-1.856,1.837l3.011,3.043c.029.035.059.07.092.1a2,2,0,0,1-2.832,2.832,2.824,2.824,0,0,0-.3-.236c-.085-.065-.108-.111-.065-.214s.108-.2.151-.306.086-.239.124-.361a4.71,4.71,0,0,0,.169-2.009,4.567,4.567,0,0,0-3.893-3.93,4.657,4.657,0,0,0-1.117-4.2,4.578,4.578,0,0,0-3.289-1.443q-.069,0-.138,0a4.568,4.568,0,0,0-4.523-4.707,4.683,4.683,0,0,0-1.114.118,4.6,4.6,0,0,0-7.629-2.731l-5.048-6.8,12.075-14.71,3.848,1.052-5.026,8.869a4.615,4.615,0,0,0,1.74,6.289c.067.038.135.074.2.109l.016.007a4.775,4.775,0,0,0,.554.233,4.618,4.618,0,0,0,5.516-2.088l3.266-5.764,5.832.413,15.528,15.529a2.005,2.005,0,0,1,0,2.832Zm.541-5.985-14.567-14.566a1.1,1.1,0,0,0-.086-.08,1.31,1.31,0,0,0-.744-.3l-7.141-.507a1.328,1.328,0,0,0-1.228.659l-3.672,6.48a2,2,0,1,1-3.484-1.975l4.9-8.651,1.986-.571.04-.013,7.413-2.141h8.957l11.182,14.215Zm5.268-9.5-10.341-13.152,5.278-3.357,9.662,12.551Zm0,0" stroke="#000" stroke-miterlimit="10" stroke-width="0.5"/>
    </g>
    <g id="Group_3700" data-name="Group 3700" transform="translate(-1483.485 -445.571)">
      <g id="Group_3699" data-name="Group 3699">
        <g id="Group_3698" data-name="Group 3698">
          <path id="Path_5459" data-name="Path 5459" d="M1549.8,460.558l-11.144-14.478a1.305,1.305,0,0,0-1.735-.3l-7.2,4.575h-9.385a1.3,1.3,0,0,0-.359.061l-7.276,2.094-7.55-2.065-7.336-4.665a1.305,1.305,0,0,0-1.717.281l-12.326,15.269a1.305,1.305,0,0,0,.164,1.809l6.461,5.56,5.8,7.812a4.609,4.609,0,0,0,2.9,7.743,4.615,4.615,0,0,0,4.56,5.32l.049,0c0,.032,0,.063,0,.1a4.616,4.616,0,0,0,4.615,4.614,4.652,4.652,0,0,0,.72-.057,4.614,4.614,0,0,0,7.852,2.81l.706-.706.3.239a244.282,244.282,0,0,1,11.155-4.737,4.61,4.61,0,0,1,4.683-4.683,4.606,4.606,0,0,1,4.684-4.684,4.621,4.621,0,0,0,.606-5.776l4.233-8.864,6.363-5.475a1.306,1.306,0,0,0,.182-1.786Zm-52.4-11.953,5.274,3.354-11.475,13.98-4.6-3.958Zm.744,29.641,1.592-1.592a1.776,1.776,0,0,1,.151-.137,2,2,0,0,1,1.088-.442h.034a1.613,1.613,0,0,1,.171-.007,1.987,1.987,0,0,1,1.428.627,2.053,2.053,0,0,1-.088,2.841l-1.544,1.543a2,2,0,0,1-2.832-2.832Zm4.1,8.126a2,2,0,0,1,0-2.833l3.087-3.087a2.025,2.025,0,0,1,2.277-.393,2,2,0,0,1,1.1,2.068,2.117,2.117,0,0,1-.6,1.207l-3.039,3.038a2,2,0,0,1-2.832,0Zm4.661,4.706a2,2,0,0,1,0-2.832l3.087-3.087a2.026,2.026,0,0,1,2.421-.318,1.994,1.994,0,0,1,.956,2.025,2.124,2.124,0,0,1-.593,1.175l-3.038,3.037a2,2,0,0,1-2.833,0Zm5.31,4.105a2,2,0,0,1,0-2.832l1.592-1.592c.048-.048.1-.094.15-.136l0,0a2,2,0,0,1,.888-.413l.023,0c.056-.01.113-.018.17-.023l.068,0c.047,0,.094-.005.141-.005a1.988,1.988,0,0,1,1.428.628,1.553,1.553,0,0,1,.129.152,2.066,2.066,0,0,1-.225,2.7l-1.536,1.536a2,2,0,0,1-2.832,0Zm24.356-14.571a2,2,0,0,1-2.832,0,1.12,1.12,0,0,0-.089-.08l-8.4-8.483a1.306,1.306,0,0,0-1.856,1.837l8.486,8.574,0,0a2,2,0,0,1-2.833,2.833l-5.676-5.736a1.306,1.306,0,1,0-1.856,1.837l5.59,5.648a1.231,1.231,0,0,0,.091.1,2,2,0,1,1-2.833,2.832l-3.1-3.131a1.306,1.306,0,0,0-1.856,1.837l3.011,3.043c.029.035.059.07.092.1a2,2,0,0,1-2.832,2.832,2.824,2.824,0,0,0-.3-.236c-.085-.065-.108-.111-.065-.214s.108-.2.151-.306.086-.239.124-.361a4.71,4.71,0,0,0,.169-2.009,4.567,4.567,0,0,0-3.893-3.93,4.657,4.657,0,0,0-1.117-4.2,4.578,4.578,0,0,0-3.289-1.443q-.069,0-.138,0a4.568,4.568,0,0,0-4.523-4.707,4.683,4.683,0,0,0-1.114.118,4.6,4.6,0,0,0-7.629-2.731l-5.048-6.8,12.075-14.71,3.848,1.052-5.026,8.869a4.615,4.615,0,0,0,1.74,6.289c.067.038.135.074.2.109l.016.007a4.775,4.775,0,0,0,.554.233,4.618,4.618,0,0,0,5.516-2.088l3.266-5.764,5.832.413,15.528,15.529a2.005,2.005,0,0,1,0,2.832Zm.541-5.985-14.567-14.566a1.1,1.1,0,0,0-.086-.08,1.31,1.31,0,0,0-.744-.3l-7.141-.507a1.328,1.328,0,0,0-1.228.659l-3.672,6.48a2,2,0,1,1-3.484-1.975l4.9-8.651,1.986-.571.04-.013,7.413-2.141h8.957l11.182,14.215Zm5.268-9.5-10.341-13.152,5.278-3.357,9.662,12.551Zm0,0" fill="#fff" stroke="#fff" stroke-miterlimit="10" stroke-width="0.5"/>
        </g>
      </g>
    </g>
  </g>
</svg>
