<svg xmlns="http://www.w3.org/2000/svg" width="47.117" height="58" viewBox="0 0 47.117 58">
  <g id="Component_74_1" data-name="Component 74 – 1" transform="translate(0.5 0.5)">
    <g id="Group_3695" data-name="Group 3695" transform="translate(-1554.626 -444.114)" opacity="0.1" style="mix-blend-mode: multiply;isolation: isolate">
      <path id="Path_5454" data-name="Path 5454" d="M1591.075,446.114h-25.781a3.225,3.225,0,0,0-3.222,3.222v1.719h-3.223a3.227,3.227,0,0,0-3.223,3.223c0,6.988,3.27,12.124,8.576,13.554a23.68,23.68,0,0,0,8.343,9.865,3.106,3.106,0,0,1,1.343,2.594v5.919a4.3,4.3,0,0,0-3.223,4.162h-1.074a3.226,3.226,0,0,0-3.223,3.222v6.446a1.075,1.075,0,0,0,1.075,1.074h21.484A1.074,1.074,0,0,0,1590,500.04v-6.446a3.225,3.225,0,0,0-3.222-3.222H1585.7a4.3,4.3,0,0,0-3.222-4.161V480.3a3.111,3.111,0,0,1,1.343-2.6,23.675,23.675,0,0,0,8.344-9.865c5.305-1.431,8.574-6.566,8.574-13.554a3.226,3.226,0,0,0-3.222-3.223H1594.3v-1.719A3.226,3.226,0,0,0,1591.075,446.114Zm-33.3,8.164a1.075,1.075,0,0,1,1.074-1.074h3.223v4.8a23.6,23.6,0,0,0,1.1,7.156C1559.756,463.468,1557.775,459.557,1557.775,454.278Zm29,38.242a1.076,1.076,0,0,1,1.074,1.074v5.371h-19.336v-5.371a1.076,1.076,0,0,1,1.074-1.074Zm-4.154-16.6a5.255,5.255,0,0,0-2.292,4.381v6.853a1.074,1.074,0,0,0,1.075,1.074,2.151,2.151,0,0,1,2.148,2.149h-10.742a2.149,2.149,0,0,1,2.064-2.147l.084,0a1.078,1.078,0,0,0,1.074-1.079v-6.858a5.253,5.253,0,0,0-2.29-4.376,21.6,21.6,0,0,1-9.526-17.91v-8.669a1.076,1.076,0,0,1,1.074-1.074h25.781a1.076,1.076,0,0,1,1.075,1.074v8.669a21.6,21.6,0,0,1-9.525,17.91Zm14.9-22.711a1.075,1.075,0,0,1,1.074,1.074c0,5.279-1.981,9.189-5.4,10.883a23.611,23.611,0,0,0,1.1-7.156v-4.8Z"/>
      <path id="Path_5455" data-name="Path 5455" d="M1591.075,446.114h-25.781a3.225,3.225,0,0,0-3.222,3.222v1.719h-3.223a3.227,3.227,0,0,0-3.223,3.223c0,6.988,3.27,12.124,8.576,13.554a23.68,23.68,0,0,0,8.343,9.865,3.106,3.106,0,0,1,1.343,2.594v5.919a4.3,4.3,0,0,0-3.223,4.162h-1.074a3.226,3.226,0,0,0-3.223,3.222v6.446a1.075,1.075,0,0,0,1.075,1.074h21.484A1.074,1.074,0,0,0,1590,500.04v-6.446a3.225,3.225,0,0,0-3.222-3.222H1585.7a4.3,4.3,0,0,0-3.222-4.161V480.3a3.111,3.111,0,0,1,1.343-2.6,23.675,23.675,0,0,0,8.344-9.865c5.305-1.431,8.574-6.566,8.574-13.554a3.226,3.226,0,0,0-3.222-3.223H1594.3v-1.719A3.226,3.226,0,0,0,1591.075,446.114Zm-33.3,8.164a1.075,1.075,0,0,1,1.074-1.074h3.223v4.8a23.6,23.6,0,0,0,1.1,7.156C1559.756,463.468,1557.775,459.557,1557.775,454.278Zm29,38.242a1.076,1.076,0,0,1,1.074,1.074v5.371h-19.336v-5.371a1.076,1.076,0,0,1,1.074-1.074Zm-4.154-16.6a5.255,5.255,0,0,0-2.292,4.381v6.853a1.074,1.074,0,0,0,1.075,1.074,2.151,2.151,0,0,1,2.148,2.149h-10.742a2.149,2.149,0,0,1,2.064-2.147l.084,0a1.078,1.078,0,0,0,1.074-1.079v-6.858a5.253,5.253,0,0,0-2.29-4.376,21.6,21.6,0,0,1-9.526-17.91v-8.669a1.076,1.076,0,0,1,1.074-1.074h25.781a1.076,1.076,0,0,1,1.075,1.074v8.669a21.6,21.6,0,0,1-9.525,17.91Zm14.9-22.711a1.075,1.075,0,0,1,1.074,1.074c0,5.279-1.981,9.189-5.4,10.883a23.611,23.611,0,0,0,1.1-7.156v-4.8Z" fill="none" stroke="#000" stroke-miterlimit="10" stroke-width="1"/>
    </g>
    <g id="Group_3696" data-name="Group 3696" transform="translate(-1554.626 -444.114)">
      <path id="Path_5456" data-name="Path 5456" d="M1590.075,444.114h-25.781a3.225,3.225,0,0,0-3.222,3.222v1.719h-3.223a3.227,3.227,0,0,0-3.223,3.223c0,6.988,3.27,12.124,8.576,13.554a23.68,23.68,0,0,0,8.343,9.865,3.106,3.106,0,0,1,1.343,2.594v5.919a4.3,4.3,0,0,0-3.223,4.162h-1.074a3.226,3.226,0,0,0-3.223,3.222v6.446a1.075,1.075,0,0,0,1.075,1.074h21.484A1.074,1.074,0,0,0,1589,498.04v-6.446a3.225,3.225,0,0,0-3.222-3.222H1584.7a4.3,4.3,0,0,0-3.222-4.161V478.3a3.111,3.111,0,0,1,1.343-2.6,23.675,23.675,0,0,0,8.344-9.865c5.305-1.431,8.574-6.566,8.574-13.554a3.226,3.226,0,0,0-3.222-3.223H1593.3v-1.719A3.226,3.226,0,0,0,1590.075,444.114Zm-33.3,8.164a1.075,1.075,0,0,1,1.074-1.074h3.223v4.8a23.6,23.6,0,0,0,1.1,7.156C1558.756,461.468,1556.775,457.557,1556.775,452.278Zm29,38.242a1.076,1.076,0,0,1,1.074,1.074v5.371h-19.336v-5.371a1.076,1.076,0,0,1,1.074-1.074Zm-4.154-16.6a5.255,5.255,0,0,0-2.292,4.381v6.853a1.074,1.074,0,0,0,1.075,1.074,2.151,2.151,0,0,1,2.148,2.149h-10.742a2.149,2.149,0,0,1,2.064-2.147l.084,0a1.078,1.078,0,0,0,1.074-1.079v-6.858a5.253,5.253,0,0,0-2.29-4.376,21.6,21.6,0,0,1-9.526-17.91v-8.669a1.076,1.076,0,0,1,1.074-1.074h25.781a1.076,1.076,0,0,1,1.075,1.074v8.669a21.6,21.6,0,0,1-9.525,17.91Zm14.9-22.711a1.075,1.075,0,0,1,1.074,1.074c0,5.279-1.981,9.189-5.4,10.883a23.611,23.611,0,0,0,1.1-7.156v-4.8Z" fill="#fff"/>
      <path id="Path_5457" data-name="Path 5457" d="M1590.075,444.114h-25.781a3.225,3.225,0,0,0-3.222,3.222v1.719h-3.223a3.227,3.227,0,0,0-3.223,3.223c0,6.988,3.27,12.124,8.576,13.554a23.68,23.68,0,0,0,8.343,9.865,3.106,3.106,0,0,1,1.343,2.594v5.919a4.3,4.3,0,0,0-3.223,4.162h-1.074a3.226,3.226,0,0,0-3.223,3.222v6.446a1.075,1.075,0,0,0,1.075,1.074h21.484A1.074,1.074,0,0,0,1589,498.04v-6.446a3.225,3.225,0,0,0-3.222-3.222H1584.7a4.3,4.3,0,0,0-3.222-4.161V478.3a3.111,3.111,0,0,1,1.343-2.6,23.675,23.675,0,0,0,8.344-9.865c5.305-1.431,8.574-6.566,8.574-13.554a3.226,3.226,0,0,0-3.222-3.223H1593.3v-1.719A3.226,3.226,0,0,0,1590.075,444.114Zm-33.3,8.164a1.075,1.075,0,0,1,1.074-1.074h3.223v4.8a23.6,23.6,0,0,0,1.1,7.156C1558.756,461.468,1556.775,457.557,1556.775,452.278Zm29,38.242a1.076,1.076,0,0,1,1.074,1.074v5.371h-19.336v-5.371a1.076,1.076,0,0,1,1.074-1.074Zm-4.154-16.6a5.255,5.255,0,0,0-2.292,4.381v6.853a1.074,1.074,0,0,0,1.075,1.074,2.151,2.151,0,0,1,2.148,2.149h-10.742a2.149,2.149,0,0,1,2.064-2.147l.084,0a1.078,1.078,0,0,0,1.074-1.079v-6.858a5.253,5.253,0,0,0-2.29-4.376,21.6,21.6,0,0,1-9.526-17.91v-8.669a1.076,1.076,0,0,1,1.074-1.074h25.781a1.076,1.076,0,0,1,1.075,1.074v8.669a21.6,21.6,0,0,1-9.525,17.91Zm14.9-22.711a1.075,1.075,0,0,1,1.074,1.074c0,5.279-1.981,9.189-5.4,10.883a23.611,23.611,0,0,0,1.1-7.156v-4.8Z" fill="none" stroke="#fff" stroke-miterlimit="10" stroke-width="1"/>
    </g>
  </g>
</svg>
