<svg id="Component_77_1" data-name="Component 77 – 1" xmlns="http://www.w3.org/2000/svg" width="40.431" height="55.529" viewBox="0 0 40.431 55.529">
  <g id="Group_3704" data-name="Group 3704" transform="translate(-1379.824 -445.571)" opacity="0.1" style="mix-blend-mode: multiply;isolation: isolate">
    <path id="Path_5464" data-name="Path 5464" d="M1383.992,501.1V450.739h33.1V501.1h3.168V449.155a1.584,1.584,0,0,0-1.584-1.584h-36.263a1.584,1.584,0,0,0-1.584,1.584V501.1Z"/>
    <path id="Path_5465" data-name="Path 5465" d="M1407.522,484.5h-13.965a1.583,1.583,0,0,0-1.584,1.583V501.1h3.168V487.668h10.8V501.1h3.167V486.084A1.583,1.583,0,0,0,1407.522,484.5Z"/>
    <path id="Path_5466" data-name="Path 5466" d="M1397.134,454.573h-7.762a1.584,1.584,0,0,0-1.583,1.584v7.762a1.583,1.583,0,0,0,1.583,1.583h7.762a1.584,1.584,0,0,0,1.584-1.583v-7.762a1.584,1.584,0,0,0-1.584-1.584Zm-1.584,7.762h-4.594v-4.6h4.594Zm0,0"/>
    <path id="Path_5467" data-name="Path 5467" d="M1411.707,454.573h-7.762a1.584,1.584,0,0,0-1.584,1.584v7.762a1.584,1.584,0,0,0,1.584,1.583h7.762a1.584,1.584,0,0,0,1.584-1.583v-7.762a1.584,1.584,0,0,0-1.584-1.584Zm-1.584,7.762h-4.594v-4.6h4.594Zm0,0"/>
    <path id="Path_5468" data-name="Path 5468" d="M1397.134,469.318h-7.762a1.584,1.584,0,0,0-1.583,1.584v7.762a1.584,1.584,0,0,0,1.583,1.584h7.762a1.584,1.584,0,0,0,1.584-1.584V470.9a1.584,1.584,0,0,0-1.584-1.584Zm-1.584,7.762h-4.594v-4.594h4.594Zm0,0"/>
    <path id="Path_5469" data-name="Path 5469" d="M1411.707,469.318h-7.762a1.585,1.585,0,0,0-1.584,1.584v7.762a1.585,1.585,0,0,0,1.584,1.584h7.762a1.585,1.585,0,0,0,1.584-1.584V470.9a1.585,1.585,0,0,0-1.584-1.584Zm-1.584,7.762h-4.594v-4.594h4.594Zm0,0"/>
  </g>
  <g id="Group_3706" data-name="Group 3706" transform="translate(-1379.824 -445.571)">
    <g id="Group_3705" data-name="Group 3705">
      <path id="Path_5470" data-name="Path 5470" d="M1382.992,499.1V448.739h33.1V499.1h3.168V447.155a1.584,1.584,0,0,0-1.584-1.584h-36.263a1.584,1.584,0,0,0-1.584,1.584V499.1Z" fill="#fff"/>
      <path id="Path_5471" data-name="Path 5471" d="M1406.522,482.5h-13.965a1.583,1.583,0,0,0-1.584,1.583V499.1h3.168V485.668h10.8V499.1h3.167V484.084A1.583,1.583,0,0,0,1406.522,482.5Z" fill="#fff"/>
      <path id="Path_5472" data-name="Path 5472" d="M1396.134,452.573h-7.762a1.584,1.584,0,0,0-1.583,1.584v7.762a1.583,1.583,0,0,0,1.583,1.583h7.762a1.584,1.584,0,0,0,1.584-1.583v-7.762a1.584,1.584,0,0,0-1.584-1.584Zm-1.584,7.762h-4.594v-4.6h4.594Zm0,0" fill="#fff"/>
      <path id="Path_5473" data-name="Path 5473" d="M1410.707,452.573h-7.762a1.584,1.584,0,0,0-1.584,1.584v7.762a1.584,1.584,0,0,0,1.584,1.583h7.762a1.584,1.584,0,0,0,1.584-1.583v-7.762a1.584,1.584,0,0,0-1.584-1.584Zm-1.584,7.762h-4.594v-4.6h4.594Zm0,0" fill="#fff"/>
      <path id="Path_5474" data-name="Path 5474" d="M1396.134,467.318h-7.762a1.584,1.584,0,0,0-1.583,1.584v7.762a1.584,1.584,0,0,0,1.583,1.584h7.762a1.584,1.584,0,0,0,1.584-1.584V468.9a1.584,1.584,0,0,0-1.584-1.584Zm-1.584,7.762h-4.594v-4.594h4.594Zm0,0" fill="#fff"/>
      <path id="Path_5475" data-name="Path 5475" d="M1410.707,467.318h-7.762a1.585,1.585,0,0,0-1.584,1.584v7.762a1.585,1.585,0,0,0,1.584,1.584h7.762a1.585,1.585,0,0,0,1.584-1.584V468.9a1.585,1.585,0,0,0-1.584-1.584Zm-1.584,7.762h-4.594v-4.594h4.594Zm0,0" fill="#fff"/>
    </g>
  </g>
</svg>
