<svg id="Layer_1" data-name="Layer 1" xmlns="http://www.w3.org/2000/svg" xmlns:xlink="http://www.w3.org/1999/xlink" viewBox="0 0 200 31"><defs><style>.cls-1{fill:#774efb;}.cls-2{fill:url(#linear-gradient);}.cls-3{fill:url(#linear-gradient-2);}.cls-4{opacity:0.2;}.cls-5{fill:#50e2b6;}.cls-6{fill:url(#linear-gradient-3);}.cls-7{fill:#fff;}.cls-8{fill:url(#linear-gradient-4);}.cls-9{fill:url(#linear-gradient-5);}</style><linearGradient id="linear-gradient" x1="21.93" y1="15.5" x2="10.36" y2="15.5" gradientUnits="userSpaceOnUse"><stop offset="0" stop-color="#784cfb"/><stop offset="1" stop-color="#2af4ff"/></linearGradient><linearGradient id="linear-gradient-2" x1="7.57" y1="15.62" x2="1.75" y2="15.62" xlink:href="#linear-gradient"/><linearGradient id="linear-gradient-3" x1="19.91" y1="15.5" x2="12.78" y2="15.5" xlink:href="#linear-gradient"/><linearGradient id="linear-gradient-4" x1="129" y1="15.5" x2="200.67" y2="15.5" xlink:href="#linear-gradient"/><linearGradient id="linear-gradient-5" x1="129" y1="15.64" x2="200.67" y2="15.64" xlink:href="#linear-gradient"/></defs><title>DesignRush 200x31 copy</title><path class="cls-1" d="M10.93,15.56a0,0,0,0,1,0,0,.46.46,0,0,0,0,.07L10.6,16l0,0L2.63,27.26a.78.78,0,0,1-.08.11l-.12.17-.07.11-.11.16L0,31l.92-6.33A3,3,0,0,1,1.06,24a.85.85,0,0,1,.09-.3,5.23,5.23,0,0,1,.23-.6,4,4,0,0,1,.25-.45,1.41,1.41,0,0,1,.2-.3A2.15,2.15,0,0,1,2,22.15c.1-.12.19-.24.29-.34a6.15,6.15,0,0,1,.82-.71l7.1-5,.06,0Z"/><path class="cls-1" d="M10.93,15.56l-.67-.47-.06,0L3.1,10A5.29,5.29,0,0,1,.92,6.46L.65,4.65h0L0,0,10.57,15Z"/><path class="cls-2" d="M21.87,15.56l-.68.47-.06,0L0,31l2.25-3.17.38-.57,7.94-11.19,0,0,.28-.38a.46.46,0,0,1,0-.07,0,0,0,0,0,0,0L10.57,15,0,0,21.13,15l.06,0Z"/><polygon class="cls-3" points="7.38 15.53 6.67 16.04 6.61 16.08 1.45 19.73 2.22 16.08 2.23 16.04 2.33 15.53 2.22 15.09 2.21 15.05 1.36 11.51 6.66 15.05 6.72 15.09 7.38 15.53"/><polygon class="cls-4" points="10.94 15.56 0 0 0.65 4.65 10.94 15.56"/><path class="cls-4" d="M21.87,15.56l-.68.47-.06,0L0,31l.92-6.33A3,3,0,0,1,1.06,24a.85.85,0,0,1,.09-.3,5.23,5.23,0,0,1,.23-.6,4,4,0,0,1,.25-.45,1.41,1.41,0,0,1,.2-.3A2.15,2.15,0,0,1,2,22.15c.1-.12.19-.24.29-.34a6,6,0,0,1,.81-.72l7.11-5,.06,0,.67-.47Z"/><path class="cls-5" d="M0,31S9,17.63,10.93,15.56A181,181,0,0,1,0,31Z"/><polygon class="cls-4" points="7.38 15.53 6.67 16.04 6.61 16.08 1.45 19.73 2.22 16.08 2.23 16.04 2.33 15.53 7.38 15.53"/><path class="cls-6" d="M21.87,15.5l-1.34.31a7,7,0,0,1-1.61.19H13.83a7,7,0,0,1-1.66-.2l-1.24-.3,1.24-.3a7,7,0,0,1,1.66-.2h5.09a7,7,0,0,1,1.61.19Z"/><path class="cls-7" d="M28.65,6.76h7c5.62,0,9.5,3.77,9.5,8.69v0c0,4.92-3.88,8.74-9.5,8.74h-7Zm7,14A5,5,0,0,0,41,15.55v0a5.08,5.08,0,0,0-5.39-5.27h-3V20.77Z"/><path class="cls-7" d="M48.61,6.76H62.09v3.42H52.52v3.55h8.43v3.42H52.52v3.67h9.7v3.42H48.61Z"/><path class="cls-7" d="M64.49,21.69,66.81,19a8.3,8.3,0,0,0,5.34,2.12c1.61,0,2.58-.62,2.58-1.65v0c0-1-.61-1.47-3.6-2.22-3.6-.9-5.92-1.87-5.92-5.34v0c0-3.17,2.6-5.27,6.26-5.27a10.49,10.49,0,0,1,6.64,2.22l-2,2.9a8.5,8.5,0,0,0-4.65-1.72c-1.51,0-2.3.67-2.3,1.52v0c0,1.15.77,1.52,3.86,2.3,3.63.92,5.67,2.2,5.67,5.24v0c0,3.47-2.71,5.42-6.56,5.42A11.52,11.52,0,0,1,64.49,21.69Z"/><path class="cls-7" d="M82.23,6.76h3.93V24.24H82.23Z"/><path class="cls-7" d="M89.83,15.55v0a9.08,9.08,0,0,1,9.37-9,10,10,0,0,1,7,2.4l-2.48,2.92A6.66,6.66,0,0,0,99.07,10a5.3,5.3,0,0,0-5.13,5.44v0A5.29,5.29,0,0,0,99.36,21a6.37,6.37,0,0,0,3.7-1V17.5h-4V14.18h7.76v7.59a11.75,11.75,0,0,1-7.63,2.77C93.66,24.54,89.83,20.72,89.83,15.55Z"/><path class="cls-7" d="M110.63,6.76h3.63l8.37,10.76V6.76h3.88V24.24h-3.34l-8.66-11.11V24.24h-3.88Z"/><path class="cls-8" d="M130.8,6.76H139a7.22,7.22,0,0,1,5.21,1.77,5.42,5.42,0,0,1,1.53,4v0A5.44,5.44,0,0,1,141.88,18l4.37,6.24h-4.6l-3.83-5.59h-3.09v5.59H130.8Zm7.91,8.49c1.91,0,3-1,3-2.47v0c0-1.65-1.17-2.5-3.09-2.5h-3.91v5Z"/><path class="cls-9" d="M149,16.75v-10h3.93v9.89c0,2.85,1.46,4.32,3.86,4.32s3.86-1.42,3.86-4.19v-10h3.93v9.86c0,5.29-3,7.89-7.84,7.89S149,21.89,149,16.75Z"/><path class="cls-8" d="M167.32,21.69,169.65,19A8.3,8.3,0,0,0,175,21.09c1.61,0,2.58-.62,2.58-1.65v0c0-1-.61-1.47-3.6-2.22-3.6-.9-5.92-1.87-5.92-5.34v0c0-3.17,2.6-5.27,6.26-5.27a10.49,10.49,0,0,1,6.64,2.22l-2,2.9a8.5,8.5,0,0,0-4.65-1.72c-1.51,0-2.3.67-2.3,1.52v0c0,1.15.77,1.52,3.86,2.3,3.63.92,5.67,2.2,5.67,5.24v0c0,3.47-2.71,5.42-6.56,5.42A11.52,11.52,0,0,1,167.32,21.69Z"/><path class="cls-8" d="M184.89,6.76h3.93v6.92h7.25V6.76H200V24.24h-3.93v-7h-7.25v7h-3.93Z"/></svg>