<svg xmlns="http://www.w3.org/2000/svg" viewBox="0 0 313.22 157.9"><title>Asset 1</title><g id="Layer_2" data-name="Layer 2"><g id="Layer_1-2" data-name="Layer 1"><path d="M178.6,75.65h-3.83l-10.36,23.7h4.24l2.42-5.68H182.2l2.39,5.68H189L178.6,75.65ZM180.68,90h-8.1l4-9.41Z" fill="#282728" fill-rule="evenodd"/><polygon points="305.76 79.65 313.22 79.65 313.22 75.82 294.13 75.82 294.13 79.65 301.59 79.65 301.59 99.35 305.76 99.35 305.76 79.65" fill="#282728" fill-rule="evenodd"/><path d="M278.26,82a2.5,2.5,0,0,1,1-2,4.35,4.35,0,0,1,2.82-.82,8.66,8.66,0,0,1,3.19.62,14.41,14.41,0,0,1,3.19,1.8l2.22-3.13a13.87,13.87,0,0,0-3.88-2.2,13.48,13.48,0,0,0-4.66-.76,10.2,10.2,0,0,0-3.22.49,7.31,7.31,0,0,0-2.53,1.4,6.61,6.61,0,0,0-1.65,2.17,6.48,6.48,0,0,0-.6,2.81,6.7,6.7,0,0,0,.52,2.79,5.35,5.35,0,0,0,1.52,2,8.55,8.55,0,0,0,2.46,1.34,28.36,28.36,0,0,0,3.36,1c1.1.27,2,.53,2.68.77a6.94,6.94,0,0,1,1.62.79,2.29,2.29,0,0,1,.81.92,2.85,2.85,0,0,1,.22,1.14,2.55,2.55,0,0,1-1.13,2.19,5.13,5.13,0,0,1-3,.81,9.53,9.53,0,0,1-4-.79A14.45,14.45,0,0,1,275.73,93l-2.49,3a14.23,14.23,0,0,0,4.61,2.84,14.84,14.84,0,0,0,5.21.92,11.62,11.62,0,0,0,3.4-.47,7.54,7.54,0,0,0,2.64-1.38,6.38,6.38,0,0,0,1.72-2.22,7,7,0,0,0,.62-3,6.27,6.27,0,0,0-.49-2.57,5.53,5.53,0,0,0-1.43-1.92,8.21,8.21,0,0,0-2.38-1.4,26.53,26.53,0,0,0-3.28-1c-1.13-.27-2.05-.53-2.78-.77a7,7,0,0,1-1.72-.81,2.47,2.47,0,0,1-.86-.94A2.85,2.85,0,0,1,278.26,82Z" fill="#282728" fill-rule="evenodd"/><polygon points="269.68 75.82 252.26 75.82 252.26 99.35 269.85 99.35 269.85 95.62 256.37 95.62 256.37 89.33 268.17 89.33 268.17 85.6 256.37 85.6 256.37 79.55 269.68 79.55 269.68 75.82" fill="#282728" fill-rule="evenodd"/><polygon points="247.69 75.82 230.21 75.82 230.21 99.35 234.31 99.35 234.31 89.77 246.18 89.77 246.18 86.04 234.31 86.04 234.31 79.55 247.69 79.55 247.69 75.82" fill="#282728" fill-rule="evenodd"/><rect x="219.79" y="75.82" width="4.1" height="23.54" fill="#282728"/><polygon points="209.4 92.09 196.82 75.82 192.99 75.82 192.99 99.35 197.09 99.35 197.09 82.61 210.04 99.35 213.5 99.35 213.5 75.82 209.4 75.82 209.4 92.09" fill="#282728" fill-rule="evenodd"/><polygon points="156.27 82.47 156.27 99.35 160.38 99.35 160.38 75.82 155.97 75.82 148.81 86.94 141.65 75.82 137.24 75.82 137.24 99.35 141.34 99.35 141.34 82.54 148.71 93.57 148.84 93.57 156.27 82.47" fill="#282728" fill-rule="evenodd"/><polygon points="122.05 75.82 104.63 75.82 104.63 99.35 122.21 99.35 122.21 95.62 108.73 95.62 108.73 89.33 120.53 89.33 120.53 85.6 108.73 85.6 108.73 79.55 122.05 79.55 122.05 75.82" fill="#951a42" fill-rule="evenodd"/><polygon points="94.47 89.43 94.47 99.35 98.58 99.35 98.58 75.82 94.47 75.82 94.47 85.6 83.18 85.6 83.18 75.82 79.08 75.82 79.08 99.35 83.18 99.35 83.18 89.43 94.47 89.43" fill="#951a42" fill-rule="evenodd"/><polygon points="67.24 79.65 74.7 79.65 74.7 75.82 55.61 75.82 55.61 79.65 63.07 79.65 63.07 99.35 67.24 99.35 67.24 79.65" fill="#951a42" fill-rule="evenodd"/><path d="M156.31,106v48H23.56V140.64H140.64V106h-3.94v30.71H23.56V21.21H136.69v48h3.94v-48h15.67v48h3.94V17.27H140.64V0H0V140.64H19.61V157.9H160.25V106ZM19.61,136.69H3.94V3.95H136.69V17.27H19.61Z" fill="#951a42" fill-rule="evenodd"/></g></g></svg>