<svg xmlns="http://www.w3.org/2000/svg" width="41.494" height="56.043" viewBox="0 0 41.494 56.043">
  <g id="Component_76_1" data-name="Component 76 – 1" transform="translate(0.25 0.25)">
    <g id="Group_3701" data-name="Group 3701" transform="translate(-1434.415 -445.571)" opacity="0.1" style="mix-blend-mode: multiply;isolation: isolate">
      <path id="Path_5460" data-name="Path 5460" d="M1475.409,467.568a20,20,0,1,0-31.215,16.546v15.523a1.464,1.464,0,0,0,2.064,1.334l9.154-4.119,9.154,4.119a1.464,1.464,0,0,0,2.064-1.334V484.114A19.993,19.993,0,0,0,1475.409,467.568Zm-11.706,18.2v11.606l-7.691-3.461a1.462,1.462,0,0,0-1.2,0l-7.691,3.461V485.768a19.814,19.814,0,0,0,2.26.867l.131.041c.1.03.2.06.3.088q.109.033.219.063c.08.023.159.044.239.065l.28.073.2.049.324.074.169.037c.119.026.238.05.357.073l.146.028c.127.024.254.046.381.067l.132.022c.131.021.263.04.4.058l.123.018c.134.017.268.033.4.048l.12.014c.135.014.27.027.405.038l.123.011c.133.011.267.019.4.027l.129.008c.135.007.271.012.407.016l.123.005c.176,0,.353.007.53.007s.353,0,.529-.007l.123-.005c.136,0,.272-.009.408-.016l.128-.008c.134-.008.268-.016.4-.027l.122-.011c.136-.011.271-.024.405-.038l.121-.014c.134-.015.269-.031.4-.048l.123-.018c.132-.018.264-.037.4-.058l.131-.022c.127-.021.255-.043.381-.067l.146-.028c.12-.023.239-.047.358-.073l.168-.037.324-.074.2-.049.28-.073c.08-.021.16-.042.239-.065s.147-.041.22-.063l.3-.088.131-.041A19.729,19.729,0,0,0,1463.7,485.768Zm-2.721-2.063-.175.059-.268.088-.314.1-.222.064c-.139.039-.278.076-.418.111l-.157.038c-.137.033-.274.065-.412.1l-.1.022q-.267.057-.535.1l-.055.01c-.162.027-.323.053-.486.076l-.109.015c-.173.024-.346.045-.52.064l-.02,0c-.182.019-.364.034-.547.047l-.119.008c-.142.009-.285.016-.427.022l-.145.006c-.179.005-.359.009-.538.009s-.359,0-.538-.009l-.145-.006c-.143-.006-.285-.013-.427-.022l-.119-.008c-.183-.013-.366-.028-.548-.047l-.019,0c-.174-.018-.347-.039-.52-.063l-.11-.015c-.162-.024-.324-.049-.485-.077l-.055-.009c-.179-.031-.357-.066-.535-.1l-.1-.022c-.137-.03-.275-.062-.412-.1l-.156-.038q-.21-.053-.418-.111l-.223-.064c-.1-.031-.209-.063-.314-.1-.089-.028-.179-.057-.268-.087-.058-.019-.117-.039-.175-.06a17.069,17.069,0,1,1,11.141,0Z" stroke="#000" stroke-miterlimit="10" stroke-width="0.5"/>
      <path id="Path_5461" data-name="Path 5461" d="M1466.816,460.984a1.464,1.464,0,0,0-1.216-.731l-5.848-.2-3.1-4.963a1.463,1.463,0,0,0-2.482,0l-3.1,4.963-5.847.2a1.463,1.463,0,0,0-1.241,2.15l2.748,5.165-2.748,5.166a1.462,1.462,0,0,0,1.241,2.149l5.847.2,3.1,4.963a1.463,1.463,0,0,0,2.482,0l3.1-4.963,5.848-.2a1.463,1.463,0,0,0,1.241-2.149l-2.749-5.166,2.749-5.165A1.462,1.462,0,0,0,1466.816,460.984Zm-5.673,7.272,2.014,3.784-4.284.148a1.464,1.464,0,0,0-1.191.688l-2.27,3.636-2.271-3.636a1.464,1.464,0,0,0-1.19-.688l-4.284-.148,2.013-3.784a1.462,1.462,0,0,0,0-1.375l-2.013-3.784,4.284-.149a1.463,1.463,0,0,0,1.19-.687l2.271-3.636,2.27,3.636a1.463,1.463,0,0,0,1.191.687l4.284.149-2.014,3.784A1.468,1.468,0,0,0,1461.143,468.256Z" stroke="#000" stroke-miterlimit="10" stroke-width="0.5"/>
    </g>
    <g id="Group_3703" data-name="Group 3703" transform="translate(-1434.415 -445.571)">
      <g id="Group_3702" data-name="Group 3702">
        <path id="Path_5462" data-name="Path 5462" d="M1474.409,465.568a20,20,0,1,0-31.215,16.546v15.523a1.464,1.464,0,0,0,2.064,1.334l9.154-4.119,9.154,4.119a1.464,1.464,0,0,0,2.064-1.334V482.114A19.993,19.993,0,0,0,1474.409,465.568Zm-11.706,18.2v11.606l-7.691-3.461a1.462,1.462,0,0,0-1.2,0l-7.691,3.461V483.768a19.814,19.814,0,0,0,2.26.867l.131.041c.1.03.2.06.3.088q.109.033.219.063c.08.023.159.044.239.065l.28.073.2.049.324.074.169.037c.119.026.238.05.357.073l.146.028c.127.024.254.046.381.067l.132.022c.131.021.263.04.4.058l.123.018c.134.017.268.033.4.048l.12.014c.135.014.27.027.405.038l.123.011c.133.011.267.019.4.027l.129.008c.135.007.271.012.407.016l.123.005c.176,0,.353.007.53.007s.353,0,.529-.007l.123-.005c.136,0,.272-.009.408-.016l.128-.008c.134-.008.268-.016.4-.027l.122-.011c.136-.011.271-.024.405-.038l.121-.014c.134-.015.269-.031.4-.048l.123-.018c.132-.018.264-.037.4-.058l.131-.022c.127-.021.255-.043.381-.067l.146-.028c.12-.023.239-.047.358-.073l.168-.037.324-.074.2-.049.28-.073c.08-.021.16-.042.239-.065s.147-.041.22-.063l.3-.088.131-.041A19.729,19.729,0,0,0,1462.7,483.768Zm-2.721-2.063-.175.059-.268.088-.314.1-.222.064c-.139.039-.278.076-.418.111l-.157.038c-.137.033-.274.065-.412.1l-.1.022q-.267.057-.535.1l-.055.01c-.162.027-.323.053-.486.076l-.109.015c-.173.024-.346.045-.52.064l-.02,0c-.182.019-.364.034-.547.047l-.119.008c-.142.009-.285.016-.427.022l-.145.006c-.179.005-.359.009-.538.009s-.359,0-.538-.009l-.145-.006c-.143-.006-.285-.013-.427-.022l-.119-.008c-.183-.013-.366-.028-.548-.047l-.019,0c-.174-.018-.347-.039-.52-.063l-.11-.015c-.162-.024-.324-.049-.485-.077l-.055-.009c-.179-.031-.357-.066-.535-.1l-.1-.022c-.137-.03-.275-.062-.412-.1l-.156-.038q-.21-.053-.418-.111l-.223-.064c-.1-.031-.209-.063-.314-.1-.089-.028-.179-.057-.268-.087-.058-.019-.117-.039-.175-.06a17.069,17.069,0,1,1,11.141,0Z" fill="#fff" stroke="#fff" stroke-miterlimit="10" stroke-width="0.5"/>
        <path id="Path_5463" data-name="Path 5463" d="M1465.816,458.984a1.464,1.464,0,0,0-1.216-.731l-5.848-.2-3.1-4.963a1.463,1.463,0,0,0-2.482,0l-3.1,4.963-5.847.2a1.463,1.463,0,0,0-1.241,2.15l2.748,5.165-2.748,5.166a1.462,1.462,0,0,0,1.241,2.149l5.847.2,3.1,4.963a1.463,1.463,0,0,0,2.482,0l3.1-4.963,5.848-.2a1.463,1.463,0,0,0,1.241-2.149l-2.749-5.166,2.749-5.165A1.462,1.462,0,0,0,1465.816,458.984Zm-5.673,7.272,2.014,3.784-4.284.148a1.464,1.464,0,0,0-1.191.688l-2.27,3.636-2.271-3.636a1.464,1.464,0,0,0-1.19-.688l-4.284-.148,2.013-3.784a1.462,1.462,0,0,0,0-1.375l-2.013-3.784,4.284-.149a1.463,1.463,0,0,0,1.19-.687l2.271-3.636,2.27,3.636a1.463,1.463,0,0,0,1.191.687l4.284.149-2.014,3.784A1.468,1.468,0,0,0,1460.143,466.256Z" fill="#fff" stroke="#fff" stroke-miterlimit="10" stroke-width="0.5"/>
      </g>
    </g>
  </g>
</svg>
