<svg xmlns="http://www.w3.org/2000/svg" width="44.6" height="52" viewBox="0 0 44.6 52">
  <g id="ond-2" transform="translate(-1199.7 589.7)">
    <ellipse id="Ellipse_567" data-name="Ellipse 567" cx="17.5" cy="16" rx="17.5" ry="16" transform="translate(1204.7 -589.7)" fill="#f9d180"/>
    <path id="Path_4552" data-name="Path 4552" d="M1222-537.7a4.192,4.192,0,0,1-2.8-1,17.415,17.415,0,0,0-1.4-1.2c-6.3-5.4-18.1-15.4-18.1-27.5,0-12.9,9.4-22.3,22.3-22.3s22.3,9.4,22.3,22.3c0,12.1-12.7,22.9-18.8,28.1l-.7.6h0A4.192,4.192,0,0,1,1222-537.7Zm2.1-1.7Zm-2.1-48.3c-11.7,0-20.3,8.5-20.3,20.3,0,11.2,11.3,20.8,17.4,26,.5.4,1,.9,1.4,1.2a2.264,2.264,0,0,0,2.9,0l.7-.6c5.4-4.6,18.1-15.4,18.1-26.6C1242.3-579.3,1233.9-587.7,1222-587.7Z"/>
    <path id="Path_4553" data-name="Path 4553" d="M1217-568.8a6.018,6.018,0,0,1-6-6v-5a.945.945,0,0,1,1-1,.945.945,0,0,1,1,1v5a4.012,4.012,0,0,0,4,4,4.012,4.012,0,0,0,4-4v-5a.945.945,0,0,1,1-1,.945.945,0,0,1,1,1v5A6.018,6.018,0,0,1,1217-568.8Z"/>
    <path id="Path_4554" data-name="Path 4554" d="M1217-553.9a3.631,3.631,0,0,1-2.6-1.1,3.631,3.631,0,0,1-1.1-2.6v-13.1a.945.945,0,0,1,1-1,.945.945,0,0,1,1,1v13.1a1.606,1.606,0,0,0,.5,1.1,1.606,1.606,0,0,0,1.1.5h0a1.666,1.666,0,0,0,1.7-1.6v-13.1a.945.945,0,0,1,1-1,.945.945,0,0,1,1,1v13.1a3.608,3.608,0,0,1-3.6,3.7Z"/>
    <path id="Path_4555" data-name="Path 4555" d="M1217-568.8a.945.945,0,0,1-1-1v-10a.945.945,0,0,1,1-1,.945.945,0,0,1,1,1v10A1,1,0,0,1,1217-568.8Z"/>
    <path id="Path_4556" data-name="Path 4556" d="M1229.5-553.9a3.757,3.757,0,0,1-3.7-3.7v-22.2a.945.945,0,0,1,1-1,6.445,6.445,0,0,1,6.4,6.4v16.8A3.692,3.692,0,0,1,1229.5-553.9Zm-1.7-24.8v21.1a1.752,1.752,0,0,0,1.7,1.7,1.752,1.752,0,0,0,1.7-1.7v-16.8A4.5,4.5,0,0,0,1227.8-578.7Z"/>
    <path id="Path_4557" data-name="Path 4557" d="M1232.2-563.9h-5.4a.945.945,0,0,1-1-1,.945.945,0,0,1,1-1h5.4a.945.945,0,0,1,1,1A1,1,0,0,1,1232.2-563.9Z"/>
  </g>
</svg>
