<svg xmlns="http://www.w3.org/2000/svg" width="37.7" height="51.9" viewBox="0 0 37.7 51.9">
  <g id="ond-6" transform="translate(925.3 589.4)">
    <rect id="Rectangle_820" data-name="Rectangle 820" width="24" height="31" transform="translate(-916.3 -587.4)" fill="#f4a196" opacity="0.65"/>
    <path id="Path_4593" data-name="Path 4593" d="M-894.3-546.8h-17.9a.945.945,0,0,1-1-1,.945.945,0,0,1,1-1h17.9a1.216,1.216,0,0,0,1.2-1.2v-36.2a1.216,1.216,0,0,0-1.2-1.2h-19.2a1.216,1.216,0,0,0-1.2,1.2v29a.945.945,0,0,1-1,1,.945.945,0,0,1-1-1v-29a3.222,3.222,0,0,1,3.2-3.2h19.2a3.222,3.222,0,0,1,3.2,3.2V-550A3.222,3.222,0,0,1-894.3-546.8Z"/>
    <path id="Path_4594" data-name="Path 4594" d="M-905.7-537.5h-18.6a.945.945,0,0,1-1-1v-15.4l4.3-24.5c.5-2.6,2-3.7,5.2-3.7h0a.945.945,0,0,1,1,1,.945.945,0,0,1-1,1c-2.7,0-3,.8-3.3,2.1l-4.3,24.4v14.2h16.6v-1.2a.961.961,0,0,1,.6-.9,9.786,9.786,0,0,0,3.3-2.3,19.85,19.85,0,0,0,1.4-4.1,1.037,1.037,0,0,1,1.2-.8,1.037,1.037,0,0,1,.8,1.2,16.346,16.346,0,0,1-1.6,4.7.1.1,0,0,1-.1.1,10.373,10.373,0,0,1-3.6,2.8v1.6C-904.7-537.9-905.1-537.5-905.7-537.5Z"/>
    <path id="Path_4595" data-name="Path 4595" d="M-915.5-541.1a1.234,1.234,0,0,1-.8-.4.984.984,0,0,1,.3-1.4,6.365,6.365,0,0,0,2-2,7.4,7.4,0,0,0,.8-2.9c0-.1.1-.3.1-.4l7-12.5a1.939,1.939,0,0,0,.2-1.5,2.15,2.15,0,0,0-.9-1.2,2,2,0,0,0-2.4.4l-6.4,7a1.071,1.071,0,0,1-1.4.1,1.071,1.071,0,0,1-.1-1.4l6.4-7a3.95,3.95,0,0,1,4.8-.8,3.65,3.65,0,0,1,1.8,2.4,3.542,3.542,0,0,1-.4,3l-6.9,12.3a10.794,10.794,0,0,1-1,3.5.1.1,0,0,1-.1.1,10.7,10.7,0,0,1-2.6,2.6A1.029,1.029,0,0,1-915.5-541.1Z"/>
    <path id="Path_4596" data-name="Path 4596" d="M-900.3-557.7h-5.8a.945.945,0,0,1-1-1,.945.945,0,0,1,1-1h5.8a.472.472,0,0,0,.5-.5v-3.1a.472.472,0,0,0-.5-.5h-7.6a.945.945,0,0,1-1-1,.945.945,0,0,1,1-1h7.6a2.476,2.476,0,0,1,2.5,2.5v3.1A2.476,2.476,0,0,1-900.3-557.7Z"/>
    <path id="Path_4597" data-name="Path 4597" d="M-899.5-571.4h-8.8a.945.945,0,0,1-1-1,.945.945,0,0,1,1-1h8.8a.945.945,0,0,1,1,1A.945.945,0,0,1-899.5-571.4Z"/>
    <path id="Path_4598" data-name="Path 4598" d="M-900.5-571.4h-6.7a.945.945,0,0,1-1-1v-.1a4.439,4.439,0,0,1,4.4-4.4,4.439,4.439,0,0,1,4.4,4.4v.1A1.09,1.09,0,0,1-900.5-571.4Zm-5.5-2h4.4a2.29,2.29,0,0,0-2.2-1.5A2.435,2.435,0,0,0-906-573.4Z"/>
    <path id="Path_4599" data-name="Path 4599" d="M-903.9-574.8a.945.945,0,0,1-1-1v-.9a.945.945,0,0,1,1-1,.945.945,0,0,1,1,1v.9A1,1,0,0,1-903.9-574.8Z"/>
    <path id="Path_4600" data-name="Path 4600" d="M-892.1-564.5a1,1,0,0,1-1-1,.945.945,0,0,1,1-1,2.291,2.291,0,0,0,2.4-2.3,1.246,1.246,0,0,0-.4-1.1,3.026,3.026,0,0,0-1.9-.7h0a.945.945,0,0,1-1-1,.945.945,0,0,1,1-1,5.054,5.054,0,0,1,3.4,1.3,3.392,3.392,0,0,1,1,2.6c-.1,3.2-3,4.1-4.5,4.2Z"/>
    <path id="Path_4601" data-name="Path 4601" d="M-892.1-558.3a1,1,0,0,1-1-1,.945.945,0,0,1,1-1,2.291,2.291,0,0,0,2.4-2.3,1.246,1.246,0,0,0-.4-1.1,3.026,3.026,0,0,0-1.9-.7h0a1,1,0,0,1-1-1,.945.945,0,0,1,1-1,4.914,4.914,0,0,1,3.4,1.3,3.392,3.392,0,0,1,1,2.6c-.1,3.2-3,4.1-4.5,4.2Z"/>
    <path id="Path_4602" data-name="Path 4602" d="M-908.2-558.6a.764.764,0,0,1-.5-.2l-1.4-.9a.984.984,0,0,1-.3-1.4.984.984,0,0,1,1.4-.3l1.4.9a.984.984,0,0,1,.3,1.4A1.058,1.058,0,0,1-908.2-558.6Z"/>
  </g>
</svg>
