<svg xmlns="http://www.w3.org/2000/svg" width="52" height="46" viewBox="0 0 52 46">
  <g id="ond-1" transform="translate(-1728 587)">
    <rect id="Rectangle_816" data-name="Rectangle 816" width="24" height="41" transform="translate(1744 -583)" fill="#7d9af4" opacity="0.65"/>
    <path id="Path_4543" data-name="Path 4543" d="M1768.1-541H1740a.945.945,0,0,1-1-1v-44a.945.945,0,0,1,1-1h28.1a.945.945,0,0,1,1,1v44A1,1,0,0,1,1768.1-541Zm-27.2-2H1767v-42h-26.1Z"/>
    <path id="Path_4544" data-name="Path 4544" d="M1763.5-553.2h-19a.945.945,0,0,1-1-1v-3.9a.945.945,0,0,1,1-1h19a.945.945,0,0,1,1,1v3.9A.945.945,0,0,1,1763.5-553.2Zm-18-2h17v-1.9h-17Z"/>
    <path id="Path_4545" data-name="Path 4545" d="M1760.8-547.8h-13.5a.945.945,0,0,1-1-1,.945.945,0,0,1,1-1h13.5a.945.945,0,0,1,1,1A1,1,0,0,1,1760.8-547.8Z"/>
    <path id="Path_4546" data-name="Path 4546" d="M1773.5-545.4H1768a.945.945,0,0,1-1-1,.945.945,0,0,1,1-1h4.5v-34.3H1768a.945.945,0,0,1-1-1,.945.945,0,0,1,1-1h5.5a.945.945,0,0,1,1,1v36.3A1,1,0,0,1,1773.5-545.4Z"/>
    <path id="Path_4547" data-name="Path 4547" d="M1739.9-545.4h-5.5a.945.945,0,0,1-1-1v-36.3a.945.945,0,0,1,1-1h5.5a.945.945,0,0,1,1,1,.945.945,0,0,1-1,1h-4.5v34.3h4.5a.945.945,0,0,1,1,1A.945.945,0,0,1,1739.9-545.4Z"/>
    <path id="Path_4548" data-name="Path 4548" d="M1734.5-550.4H1729a.945.945,0,0,1-1-1v-27.7a.945.945,0,0,1,1-1h5.5a.945.945,0,0,1,1,1,.945.945,0,0,1-1,1H1730v25.7h4.5a.945.945,0,0,1,1,1A1,1,0,0,1,1734.5-550.4Z"/>
    <path id="Path_4549" data-name="Path 4549" d="M1779-550.4h-5.5a.945.945,0,0,1-1-1,.945.945,0,0,1,1-1h4.5v-25.7h-4.5a.945.945,0,0,1-1-1,.945.945,0,0,1,1-1h5.5a.945.945,0,0,1,1,1v27.7A.945.945,0,0,1,1779-550.4Z"/>
    <path id="Path_4550" data-name="Path 4550" d="M1768.1-563H1740a.945.945,0,0,1-1-1,.945.945,0,0,1,1-1h28.1a.945.945,0,0,1,1,1A1,1,0,0,1,1768.1-563Z"/>
    <path id="Path_4551" data-name="Path 4551" d="M1763.5-580.7a.945.945,0,0,1-1-1v-.1a.945.945,0,0,1,1-1,.945.945,0,0,1,1,1v.1A1,1,0,0,1,1763.5-580.7Z"/>
  </g>
</svg>
