<svg xmlns="http://www.w3.org/2000/svg" width="37.225" height="52" viewBox="0 0 37.225 52">
  <g id="ond-8" transform="translate(-305.974 -10.4)">
    <rect id="Rectangle_822" data-name="Rectangle 822" width="24" height="31" transform="translate(307.975 31.4)" fill="#aabdf8" opacity="0.65"/>
    <path id="Path_4618" data-name="Path 4618" d="M342.1,62.4H307.6a.945.945,0,0,1-1-1v-28c0-1.8,1.9-6.4,2.2-6.9a.985.985,0,1,1,1.8.8c-.8,1.8-2,5-2,6.1v27h22.8v-27c0-1.9,3.9-10.6,5.2-13.3a.975.975,0,0,1,1.8,0c.5,1,4.8,10.2,4.8,13.3v28A1.164,1.164,0,0,1,342.1,62.4Zm-8.7-2h7.7v-27c0-1.8-2.2-7.1-3.7-10.4-2.1,4.8-4.1,9.6-4.1,10.4v27Z"/>
    <path id="Path_4619" data-name="Path 4619" d="M337.4,54a.945.945,0,0,1-1-1V32.8a1,1,0,0,1,2,0V53A1,1,0,0,1,337.4,54Z"/>
    <path id="Path_4620" data-name="Path 4620" d="M323.7,25.3a.908.908,0,0,1-.7-.3l-3.1-3.3L316,25a1.071,1.071,0,0,1-1.4-.1l-3.2-3.4-3.8,3.2a.909.909,0,0,1-1.1.1.876.876,0,0,1-.5-1l1.6-12.5a1.063,1.063,0,0,1,1-.9h27.1a3.064,3.064,0,0,1,2.8,3.1v2.2a1,1,0,0,1-2,0V13.5a1.11,1.11,0,0,0-1.1-1.1,1.172,1.172,0,0,0-1.1.9L333,24.2a.849.849,0,0,1-.7.8.905.905,0,0,1-1-.3l-3-3.3-3.8,3.5C324.1,25.2,323.9,25.3,323.7,25.3Zm-3.8-6a.908.908,0,0,1,.7.3l3.1,3.3,3.8-3.5a1.08,1.08,0,0,1,.7-.3.908.908,0,0,1,.7.3l2.2,2.4,1.1-8.7a1.445,1.445,0,0,1,.2-.7h-23l-1.1,9.1,2.6-2.2a1.071,1.071,0,0,1,1.4.1l3.2,3.4,3.9-3.3C319.4,19.3,319.7,19.3,319.9,19.3Z"/>
    <path id="Path_4621" data-name="Path 4621" d="M326.5,35.4H314a1,1,0,0,1,0-2h12.5a1,1,0,0,1,0,2Z"/>
    <path id="Path_4622" data-name="Path 4622" d="M326.5,43.7H314a1,1,0,0,1,0-2h12.5a1,1,0,0,1,0,2Z"/>
  </g>
</svg>
