<svg xmlns="http://www.w3.org/2000/svg" width="52.1" height="47.2" viewBox="0 0 52.1 47.2">
  <g id="ond-9" transform="translate(-937 -110.4)">
    <path id="Path_4662" data-name="Path 4662" d="M954.8,128.8a9.2,9.2,0,1,1,9.2-9.2A9.176,9.176,0,0,1,954.8,128.8Zm0-16.4a7.2,7.2,0,1,0,7.2,7.2A7.17,7.17,0,0,0,954.8,112.4Z"/>
    <path id="Path_4663" data-name="Path 4663" d="M960.4,150.9H938a.945.945,0,0,1-1-1,17.519,17.519,0,0,1,17.5-17.5h.5a17.325,17.325,0,0,1,14.3,7.5,1,1,0,0,1-1.6,1.2,15.549,15.549,0,0,0-12.7-6.6h-.5A15.6,15.6,0,0,0,939,149h21.4a.945.945,0,0,1,1,1A.919.919,0,0,1,960.4,150.9Z"/>
    <path id="Path_4664" data-name="Path 4664" d="M960.2,157.6a.908.908,0,0,1-.7-.3,1.08,1.08,0,0,1-.3-.7l.3-8.1a.908.908,0,0,1,.3-.7l19.9-19.9a.908.908,0,0,1,.7-.3h0a.908.908,0,0,1,.7.3l7.7,7.7a.967.967,0,0,1,0,1.4l-19.9,19.9a.908.908,0,0,1-.7.3l-8,.4Zm1.2-8.7-.2,6.6,6.5-.3,18.9-18.9-6.3-6.3Z"/>
    <ellipse id="Ellipse_568" data-name="Ellipse 568" cx="7" cy="7.5" rx="7" ry="7.5" transform="translate(948 112.4)" fill="#f9d180"/>
  </g>
</svg>
