<svg xmlns="http://www.w3.org/2000/svg" width="52" height="52" viewBox="0 0 52 52">
  <g id="ond-4" transform="translate(-132 590)">
    <path id="Path_4568" data-name="Path 4568" d="M181.6-538H153.7a2.433,2.433,0,0,1-2.4-2.4v-8.2a.945.945,0,0,1,1-1,.945.945,0,0,1,1,1v8.2a.43.43,0,0,0,.4.4h27.9a.43.43,0,0,0,.4-.4v-47.2a.43.43,0,0,0-.4-.4H153.7c-.1,0-.2.1-.3.1s-.1.1-.1.3v7.9a.945.945,0,0,1-1,1,.945.945,0,0,1-1-1v-7.9a2.342,2.342,0,0,1,.7-1.7,2.06,2.06,0,0,1,1.7-.7h27.9a2.433,2.433,0,0,1,2.4,2.4v47.2A2.433,2.433,0,0,1,181.6-538Z"/>
    <path id="Path_4569" data-name="Path 4569" d="M152.3-566.2a.945.945,0,0,1-1-1v-5.5a.945.945,0,0,1,1-1,.945.945,0,0,1,1,1v5.5A1,1,0,0,1,152.3-566.2Z"/>
    <path id="Path_4570" data-name="Path 4570" d="M152.3-554.2a.945.945,0,0,1-1-1v-5.6a.945.945,0,0,1,1-1,.945.945,0,0,1,1,1v5.6A.945.945,0,0,1,152.3-554.2Z"/>
    <path id="Path_4571" data-name="Path 4571" d="M153.9-563H133a.945.945,0,0,1-1-1,.945.945,0,0,1,1-1h20.9a.945.945,0,0,1,1,1A1,1,0,0,1,153.9-563Z"/>
    <path id="Path_4572" data-name="Path 4572" d="M153.9-575.1H135.5a.945.945,0,0,1-1-1,.945.945,0,0,1,1-1h18.4a.945.945,0,0,1,1,1A1,1,0,0,1,153.9-575.1Z"/>
    <path id="Path_4573" data-name="Path 4573" d="M153.1-550.9h-12a.945.945,0,0,1-1-1,.945.945,0,0,1,1-1h12a.945.945,0,0,1,1,1A.945.945,0,0,1,153.1-550.9Z"/>
    <path id="Path_4574" data-name="Path 4574" d="M163-584.8h-1a.945.945,0,0,1-1-1,.945.945,0,0,1,1-1h1a.945.945,0,0,1,1,1A.945.945,0,0,1,163-584.8Z"/>
    <path id="Path_4575" data-name="Path 4575" d="M173.3-584.8h-7.2a.945.945,0,0,1-1-1,.945.945,0,0,1,1-1h7.2a.945.945,0,0,1,1,1A.945.945,0,0,1,173.3-584.8Z"/>
    <rect id="Rectangle_818" data-name="Rectangle 818" width="24" height="41" transform="translate(158 -584)" fill="#3fd8cd" opacity="0.65"/>
    <path id="Path_4576" data-name="Path 4576" d="M175.7-565.4h-16a3.372,3.372,0,0,1-3.4-3.4,3.372,3.372,0,0,1,3.4-3.4h16a3.372,3.372,0,0,1,3.4,3.4A3.436,3.436,0,0,1,175.7-565.4Zm-16-4.9a1.367,1.367,0,0,0-1.4,1.4,1.367,1.367,0,0,0,1.4,1.4h16a1.367,1.367,0,0,0,1.4-1.4,1.367,1.367,0,0,0-1.4-1.4Z"/>
    <path id="Path_4577" data-name="Path 4577" d="M176.6-570.3H158.8a.945.945,0,0,1-1-1,5.848,5.848,0,0,1,5.9-5.9h8a5.848,5.848,0,0,1,5.9,5.9A1.075,1.075,0,0,1,176.6-570.3Zm-16.7-2h15.5a3.873,3.873,0,0,0-3.8-2.9h-8A3.844,3.844,0,0,0,159.9-572.3Z"/>
    <path id="Path_4578" data-name="Path 4578" d="M171.8-560.7h-8.2a5.8,5.8,0,0,1-5.8-5.8.945.945,0,0,1,1-1h17.8a.945.945,0,0,1,1,1A5.8,5.8,0,0,1,171.8-560.7Zm-11.9-4.7a3.75,3.75,0,0,0,3.6,2.8h8.2a3.75,3.75,0,0,0,3.6-2.8Z"/>
    <path id="Path_4579" data-name="Path 4579" d="M173.2-550.9H162.1a3.372,3.372,0,0,1-3.4-3.4,3.372,3.372,0,0,1,3.4-3.4h11.1a3.372,3.372,0,0,1,3.4,3.4A3.311,3.311,0,0,1,173.2-550.9Zm-11.1-4.9a1.367,1.367,0,0,0-1.4,1.4,1.367,1.367,0,0,0,1.4,1.4h11.1a1.367,1.367,0,0,0,1.4-1.4,1.367,1.367,0,0,0-1.4-1.4Z"/>
    <path id="Path_4580" data-name="Path 4580" d="M166.1-573.6a.6.6,0,0,1-.4-.1.992.992,0,0,1-.5-1.3l.8-1.7a.992.992,0,0,1,1.3-.5.992.992,0,0,1,.5,1.3l-.8,1.7A.875.875,0,0,1,166.1-573.6Z"/>
    <path id="Path_4581" data-name="Path 4581" d="M169.3-573.6a.6.6,0,0,1-.4-.1.992.992,0,0,1-.5-1.3l.8-1.7a.992.992,0,0,1,1.3-.5.992.992,0,0,1,.5,1.3l-.8,1.7A.875.875,0,0,1,169.3-573.6Z"/>
    <path id="Path_4582" data-name="Path 4582" d="M169.2-541.2h-3.9a.945.945,0,0,1-1-1,.945.945,0,0,1,1-1h3.9a.945.945,0,0,1,1,1A.945.945,0,0,1,169.2-541.2Z"/>
  </g>
</svg>
