<svg xmlns="http://www.w3.org/2000/svg" width="52" height="51.715" viewBox="0 0 52 51.715">
  <g id="ond-12" transform="translate(-1477 -299.185)">
    <rect id="Rectangle_827" data-name="Rectangle 827" width="9" height="32" transform="translate(1514 317.185)" fill="#3fd8cd"/>
    <path id="Path_4656" data-name="Path 4656" d="M1528,350.9h-50a.945.945,0,0,1-1-1V303.7a1,1,0,0,1,2,0v45.2h49a1,1,0,0,1,0,2Z"/>
    <rect id="Rectangle_825" data-name="Rectangle 825" width="8" height="24" transform="translate(1499 325.185)" fill="#3fd8cd"/>
    <rect id="Rectangle_826" data-name="Rectangle 826" width="8" height="16" transform="translate(1484 333.185)" fill="#3fd8cd"/>
    <path id="Path_4657" data-name="Path 4657" d="M1492,350.9h-8.3a.945.945,0,0,1-1-1V333.4a.945.945,0,0,1,1-1h8.3a.945.945,0,0,1,1,1v16.5A1,1,0,0,1,1492,350.9Zm-7.3-2h6.3V334.4h-6.3Z"/>
    <path id="Path_4658" data-name="Path 4658" d="M1507.2,350.9h-8.3a.945.945,0,0,1-1-1V325.3a.945.945,0,0,1,1-1h8.3a.945.945,0,0,1,1,1v24.6A1,1,0,0,1,1507.2,350.9Zm-7.3-2h6.3V326.3h-6.3Z"/>
    <path id="Path_4659" data-name="Path 4659" d="M1522.8,350.9h-8.7a.945.945,0,0,1-1-1V311.1a.945.945,0,0,1,1-1h8.7a.945.945,0,0,1,1,1v38.8A1,1,0,0,1,1522.8,350.9Zm-7.7-2h6.7V312.1h-6.7Z"/>
    <path id="Path_4660" data-name="Path 4660" d="M1487.1,322.6a1.235,1.235,0,0,1-.8-.4.984.984,0,0,1,.3-1.4l31.3-20.8a1.012,1.012,0,1,1,1.1,1.7l-31.3,20.8C1487.5,322.5,1487.3,322.6,1487.1,322.6Z"/>
    <path id="Path_4661" data-name="Path 4661" d="M1518.5,305.4h0a1,1,0,0,1-1-1l.1-2.7-3.1-.5a1.02,1.02,0,1,1,.4-2l4,.7a.9.9,0,0,1,.8,1l-.1,3.6A1.3,1.3,0,0,1,1518.5,305.4Z"/>
  </g>
</svg>
