<svg xmlns="http://www.w3.org/2000/svg" width="52.069" height="51.9" viewBox="0 0 52.069 51.9">
  <g id="ond-7" transform="translate(1464 589.7)">
    <path id="Rectangle_821" data-name="Rectangle 821" d="M0,0H25a0,0,0,0,1,0,0V21A10,10,0,0,1,15,31H0a0,0,0,0,1,0,0V0A0,0,0,0,1,0,0Z" transform="translate(-1462 -587.7)" fill="#f9d180" opacity="0.65"/>
    <path id="Path_4603" data-name="Path 4603" d="M-1439.8-538.6h-20.1a4.012,4.012,0,0,1-4-4v-43.1a4.012,4.012,0,0,1,4-4h20.1a4.012,4.012,0,0,1,4,4v15.8a.945.945,0,0,1-1,1,.945.945,0,0,1-1-1v-15.8a2.006,2.006,0,0,0-2-2h-20.1a2.006,2.006,0,0,0-2,2v43.1a2.006,2.006,0,0,0,2,2h20.1a1.9,1.9,0,0,0,1.3-.5.972.972,0,0,1,1.4.1.972.972,0,0,1-.1,1.4A3.7,3.7,0,0,1-1439.8-538.6Z"/>
    <path id="Path_4604" data-name="Path 4604" d="M-1431-537.8h0a16.986,16.986,0,0,1-17-17,16.986,16.986,0,0,1,17-17,16.986,16.986,0,0,1,17,17,.945.945,0,0,1-1,1,.945.945,0,0,1-1-1,14.98,14.98,0,0,0-15-15,14.98,14.98,0,0,0-15,15,14.98,14.98,0,0,0,15,15h0a14.979,14.979,0,0,0,13.6-8.7.992.992,0,0,1,1.3-.5.992.992,0,0,1,.5,1.3A16.954,16.954,0,0,1-1431-537.8Z"/>
    <path id="Path_4605" data-name="Path 4605" d="M-1445.4-547.1H-1463a.945.945,0,0,1-1-1,.945.945,0,0,1,1-1h17.6a.945.945,0,0,1,1,1A1,1,0,0,1-1445.4-547.1Z"/>
    <path id="Path_4606" data-name="Path 4606" d="M-1450.2-541.1a2.689,2.689,0,0,1-2.7-2.7,2.689,2.689,0,0,1,2.7-2.7,2.689,2.689,0,0,1,2.7,2.7A2.825,2.825,0,0,1-1450.2-541.1Zm0-3.4a.683.683,0,0,0-.7.7.684.684,0,0,0,.7.7.683.683,0,0,0,.7-.7A.842.842,0,0,0-1450.2-544.5Z"/>
    <path id="Path_4607" data-name="Path 4607" d="M-1431.7-567.3a.945.945,0,0,1-1-1v-2.6a.945.945,0,0,1,1-1,.945.945,0,0,1,1,1v2.6A.945.945,0,0,1-1431.7-567.3Z"/>
    <path id="Path_4608" data-name="Path 4608" d="M-1444.2-553.9h-2.8a.945.945,0,0,1-1-1,.945.945,0,0,1,1-1h2.8a.945.945,0,0,1,1,1A.945.945,0,0,1-1444.2-553.9Z"/>
    <path id="Path_4609" data-name="Path 4609" d="M-1431.7-537.9a.945.945,0,0,1-1-1v-2.8a.945.945,0,0,1,1-1,.945.945,0,0,1,1,1v2.8A.945.945,0,0,1-1431.7-537.9Z"/>
    <path id="Path_4610" data-name="Path 4610" d="M-1414.9-553.9a.6.6,0,0,1-.4-.1l-3-1.3a.992.992,0,0,1-.5-1.3.992.992,0,0,1,1.3-.5l2.2,1,1.5-2.2a.984.984,0,0,1,1.4-.3.984.984,0,0,1,.3,1.4l-1.9,2.8A1.058,1.058,0,0,1-1414.9-553.9Z"/>
    <path id="Path_4611" data-name="Path 4611" d="M-1431.7-552.3a2.476,2.476,0,0,1-2.5-2.5,2.476,2.476,0,0,1,2.5-2.5,2.476,2.476,0,0,1,2.5,2.5A2.476,2.476,0,0,1-1431.7-552.3Zm0-3.1a.472.472,0,0,0-.5.5.472.472,0,0,0,.5.5.472.472,0,0,0,.5-.5A.472.472,0,0,0-1431.7-555.4Z"/>
    <path id="Path_4612" data-name="Path 4612" d="M-1431.7-555.4a.945.945,0,0,1-1-1V-564a.945.945,0,0,1,1-1,.945.945,0,0,1,1,1v7.6A1,1,0,0,1-1431.7-555.4Z"/>
    <path id="Path_4613" data-name="Path 4613" d="M-1431.7-546.3a.945.945,0,0,1-1-1v-6.1a.945.945,0,0,1,1-1,.945.945,0,0,1,1,1v6.1A.945.945,0,0,1-1431.7-546.3Z"/>
    <path id="Path_4614" data-name="Path 4614" d="M-1446-584.2h-7.6a.945.945,0,0,1-1-1,.945.945,0,0,1,1-1h7.6a.945.945,0,0,1,1,1A.945.945,0,0,1-1446-584.2Z"/>
    <path id="Path_4615" data-name="Path 4615" d="M-1445.9-559.9h0a1,1,0,0,1-1-1l.1-6.2a5.782,5.782,0,0,1-2.2-4.5c0-3.3,2.2-5.4,4.3-5.4a4.937,4.937,0,0,1,4.5,5.1,5.287,5.287,0,0,1-2.5,4.9v1.8a.945.945,0,0,1-1,1,.945.945,0,0,1-1-1v-2.3a1.05,1.05,0,0,1,.5-.9,3.527,3.527,0,0,0,1.9-3.4v-.1a2.891,2.891,0,0,0-2.6-3.1c-.9,0-2.2,1.1-2.2,3.4a3.445,3.445,0,0,0,1.7,3.1,1.05,1.05,0,0,1,.5.9l-.1,6.7A.865.865,0,0,1-1445.9-559.9Z"/>
    <path id="Path_4616" data-name="Path 4616" d="M-1454.1-550.5a2.342,2.342,0,0,1-1.8-.8,2.978,2.978,0,0,1-.8-1.8v-.1l.4-14.3a3.044,3.044,0,0,1-2.3-3.3l.6-4.2a.991.991,0,0,1,1.1-.8.991.991,0,0,1,.8,1.1l-.6,4.2a.991.991,0,0,0,.8,1.1l.6.1a1.063,1.063,0,0,1,.9,1l-.5,15.2a.764.764,0,0,0,.2.5.758.758,0,0,0,.4.2c.2,0,.3-.1.5-.2a.758.758,0,0,0,.2-.4l-.6-15.3a.987.987,0,0,1,.9-1l.6-.1a1.611,1.611,0,0,0,.7-.4.952.952,0,0,0,.2-.7l-.7-4.2a.937.937,0,0,1,.8-1.1.89.89,0,0,1,1.1.8l.7,4.2a3.287,3.287,0,0,1-.5,2.2,3.218,3.218,0,0,1-1.8,1.2l.5,14.4a2.805,2.805,0,0,1-.7,1.9,3.1,3.1,0,0,1-1.8.9C-1454-550.5-1454.1-550.5-1454.1-550.5Z"/>
    <path id="Path_4617" data-name="Path 4617" d="M-1454-569.9a.945.945,0,0,1-1-1V-575a.945.945,0,0,1,1-1,.945.945,0,0,1,1,1v4.1A.945.945,0,0,1-1454-569.9Z"/>
  </g>
</svg>
