<svg xmlns="http://www.w3.org/2000/svg" width="52.1" height="48" viewBox="0 0 52.1 48">
  <g id="ond-5" transform="translate(400.5 588)">
    <rect id="Rectangle_819" data-name="Rectangle 819" width="24" height="41" transform="translate(-358 -586.5) rotate(90)" fill="#adafb1" opacity="0.65"/>
    <path id="Path_4583" data-name="Path 4583" d="M-376.7-553.2h-19.8a4.012,4.012,0,0,1-4-4V-584a4.012,4.012,0,0,1,4-4h44.1a4.012,4.012,0,0,1,4,4v15.6a.945.945,0,0,1-1,1,.945.945,0,0,1-1-1V-584a2.006,2.006,0,0,0-2-2h-44.1a2.006,2.006,0,0,0-2,2v26.8a2.006,2.006,0,0,0,2,2h19.8a.945.945,0,0,1,1,1A1,1,0,0,1-376.7-553.2Z"/>
    <path id="Path_4584" data-name="Path 4584" d="M-376.7-558.6h-11.8a.945.945,0,0,1-1-1v-.1a4.481,4.481,0,0,0-4.5-4.5.945.945,0,0,1-1-1V-576a.945.945,0,0,1,1-1,4.481,4.481,0,0,0,4.5-4.5.945.945,0,0,1,1-1h28.2a.908.908,0,0,1,.7.3.908.908,0,0,1,.3.7,4.816,4.816,0,0,0,1.3,3.2,4.626,4.626,0,0,0,3.2,1.3h0a.908.908,0,0,1,.7.3.908.908,0,0,1,.3.7v4.4a.945.945,0,0,1-1,1,.945.945,0,0,1-1-1v-3.5a6.205,6.205,0,0,1-3.6-1.8,6.205,6.205,0,0,1-1.8-3.6h-26.4a6.364,6.364,0,0,1-5.4,5.4v9a6.471,6.471,0,0,1,5.4,5.5h10.9a.945.945,0,0,1,1,1A1,1,0,0,1-376.7-558.6Z"/>
    <path id="Path_4585" data-name="Path 4585" d="M-378.8-564.7a1.08,1.08,0,0,1-.7-.3,7.2,7.2,0,0,1-2.4-5.5,7.555,7.555,0,0,1,7.5-7.5h0a7.184,7.184,0,0,1,4.2,1.3.984.984,0,0,1,.3,1.4.984.984,0,0,1-1.4.3,5.531,5.531,0,0,0-3-.9h0a5.549,5.549,0,0,0-5.5,5.5,5.54,5.54,0,0,0,1.8,4.1,1.071,1.071,0,0,1,.1,1.4A5.07,5.07,0,0,1-378.8-564.7Z"/>
    <path id="Path_4586" data-name="Path 4586" d="M-386.6-569.5h-.8a.945.945,0,0,1-1-1,.945.945,0,0,1,1-1h.8a.945.945,0,0,1,1,1A.945.945,0,0,1-386.6-569.5Z"/>
    <path id="Path_4587" data-name="Path 4587" d="M-365.8-543.6a.945.945,0,0,1-1-1v-2.5c-.6-.5-1.8-1.3-2.5-1.8a.1.1,0,0,1-.1-.1,13.493,13.493,0,0,1-2.8-3.5.9.9,0,0,1-.1-.5v-10a3.329,3.329,0,0,1,3.3-3.3,3.329,3.329,0,0,1,3.3,3.3v4.3a.945.945,0,0,1-1,1,.945.945,0,0,1-1-1V-563a1.324,1.324,0,0,0-1.3-1.3,1.324,1.324,0,0,0-1.3,1.3v9.7a14.421,14.421,0,0,0,2.2,2.7c1.1.7,2.9,2,3,2.1a.91.91,0,0,1,.4.8v3A1.175,1.175,0,0,1-365.8-543.6Z"/>
    <path id="Path_4588" data-name="Path 4588" d="M-366.9-557.5a.945.945,0,0,1-1-1v-14.3a3.222,3.222,0,0,1,3.2-3.2,3.159,3.159,0,0,1,3.2,3.2v8.8a.945.945,0,0,1-1,1,.945.945,0,0,1-1-1v-8.8a1.216,1.216,0,0,0-1.2-1.2,1.155,1.155,0,0,0-1.2,1.2v14.3A1,1,0,0,1-366.9-557.5Z"/>
    <path id="Path_4589" data-name="Path 4589" d="M-358.2-558.6a.945.945,0,0,1-1-1v-8.8a1.136,1.136,0,0,0-.3-.8,1.135,1.135,0,0,0-.8-.3h0a1.216,1.216,0,0,0-1.2,1.2v4.4a.945.945,0,0,1-1,1,.945.945,0,0,1-1-1v-4.4a3.222,3.222,0,0,1,3.2-3.2h0a3.222,3.222,0,0,1,3.2,3.2v8.8A1.172,1.172,0,0,1-358.2-558.6Z"/>
    <path id="Path_4590" data-name="Path 4590" d="M-353.8-555.4a.945.945,0,0,1-1-1V-564a1.155,1.155,0,0,0-1.2-1.2,1.155,1.155,0,0,0-1.2,1.2v4.4a.945.945,0,0,1-1,1,.945.945,0,0,1-1-1V-564a3.159,3.159,0,0,1,3.2-3.2,3.159,3.159,0,0,1,3.2,3.2v7.6A1.075,1.075,0,0,1-353.8-555.4Z"/>
    <path id="Path_4591" data-name="Path 4591" d="M-353.8-543.5a.945.945,0,0,1-1-1v-2.9a1.421,1.421,0,0,1,.2-.6s1.7-2.5,2.6-3.9a17.387,17.387,0,0,0,1.5-4v-4.9a1.216,1.216,0,0,0-1.2-1.2,1.216,1.216,0,0,0-1.2,1.2v5a.945.945,0,0,1-1,1,.945.945,0,0,1-1-1v-5a3.222,3.222,0,0,1,3.2-3.2,3.222,3.222,0,0,1,3.2,3.2v5.2a20.7,20.7,0,0,1-1.8,4.7c-.8,1.2-2,3.1-2.5,3.8v2.6A1.075,1.075,0,0,1-353.8-543.5Z"/>
    <path id="Path_4592" data-name="Path 4592" d="M-351.6-540a.945.945,0,0,1-1-1v-2.5h-15.5v2.5a.945.945,0,0,1-1,1,.945.945,0,0,1-1-1v-2.7a1.792,1.792,0,0,1,1.8-1.8h15.9a1.792,1.792,0,0,1,1.8,1.8v2.7A1,1,0,0,1-351.6-540Z"/>
  </g>
</svg>
