<svg xmlns="http://www.w3.org/2000/svg" width="52" height="51.5" viewBox="0 0 52 51.5">
  <g id="ond-10" transform="translate(-405.1 -108.2)">
    <path id="Path_4623" data-name="Path 4623" d="M453.9,154.2H408a.945.945,0,0,1-1-1V121.9a.945.945,0,0,1,1-1h9.9a1,1,0,0,1,0,2H409v29.3h43.9V122.9h-4.7a1,1,0,0,1,0-2h5.7a.945.945,0,0,1,1,1v31.3A.945.945,0,0,1,453.9,154.2Z"/>
    <rect id="Rectangle_823" data-name="Rectangle 823" width="44" height="23" transform="translate(409.1 129.2)" fill="#42c8fc" opacity="0.65"/>
    <path id="Path_4624" data-name="Path 4624" d="M420.7,131.5a.945.945,0,0,1-1-1v-6.8a1,1,0,0,1,2,0v6.8A1,1,0,0,1,420.7,131.5Z"/>
    <path id="Path_4625" data-name="Path 4625" d="M448.3,146.2H428.7a1,1,0,0,1,0-2h18.6V116.7l-6.5-6.5h-19v4.5a1,1,0,1,1-2,0v-5.5a.945.945,0,0,1,1-1h20.4a.908.908,0,0,1,.7.3l7.1,7a.908.908,0,0,1,.3.7v28.9A1.029,1.029,0,0,1,448.3,146.2Z"/>
    <path id="Path_4626" data-name="Path 4626" d="M450.5,159.7H411.6a6.487,6.487,0,0,1-6.5-6.5.945.945,0,0,1,1-1h50a.945.945,0,0,1,1,1A6.638,6.638,0,0,1,450.5,159.7Zm-43.4-5.5a4.594,4.594,0,0,0,4.4,3.5h38.9a4.425,4.425,0,0,0,4.4-3.5Z"/>
    <path id="Path_4627" data-name="Path 4627" d="M448.3,117.2h-7.1a.945.945,0,0,1-1-1v-7a1,1,0,1,1,2,0v6h6.1a.945.945,0,0,1,1,1A1,1,0,0,1,448.3,117.2Z"/>
    <path id="Path_4628" data-name="Path 4628" d="M436.5,117.2h-5.9a1,1,0,0,1,0-2h5.9a1,1,0,0,1,0,2Z"/>
    <path id="Path_4629" data-name="Path 4629" d="M443.5,124.7h-4.3a1,1,0,0,1,0-2h4.3a1,1,0,0,1,0,2Z"/>
    <path id="Path_4630" data-name="Path 4630" d="M443.5,132h-2.7a1,1,0,1,1,0-2h2.7a1,1,0,0,1,0,2Z"/>
    <path id="Path_4631" data-name="Path 4631" d="M443.5,139.4H432a1,1,0,0,1,0-2h11.5a1,1,0,0,1,0,2Z"/>
    <path id="Path_4632" data-name="Path 4632" d="M421.2,139.3a4.9,4.9,0,1,1,4.9-4.9A4.908,4.908,0,0,1,421.2,139.3Zm0-7.8a2.9,2.9,0,1,0,2.9,2.9A2.9,2.9,0,0,0,421.2,131.5Z"/>
    <path id="Path_4633" data-name="Path 4633" d="M421.2,149.9c-3.6,0-6.2-.7-7.5-2.1a3.067,3.067,0,0,1-1-2.1,8.5,8.5,0,0,1,17,.1,3.067,3.067,0,0,1-1,2.1C427.4,149.2,424.8,149.9,421.2,149.9Zm0-10.6a6.487,6.487,0,0,0-6.5,6.5s.2,2.2,6.5,2.2,6.5-2.2,6.5-2.2A6.487,6.487,0,0,0,421.2,139.3Z"/>
    <path id="Path_4634" data-name="Path 4634" d="M429.8,130.6a1.421,1.421,0,0,1-.6-.2l-17.5-11.6a.822.822,0,0,1-.4-.6,2.485,2.485,0,0,1,.1-.8l4-6.1a.984.984,0,0,1,1.4-.3l17.5,11.6a1,1,0,0,1,0,1.6l-2.9,2.1-.7,3.3a1.057,1.057,0,0,1-.6.7C430.1,130.6,429.9,130.6,429.8,130.6Zm-16.1-12.9,15.5,10.2.5-2.3c.1-.2.2-.5.4-.6l2.1-1.5-15.5-10.3Z"/>
    <path id="Path_4635" data-name="Path 4635" d="M412.3,119a1.421,1.421,0,0,1-.6-.2l-3.6-2.4a.984.984,0,0,1-.3-1.4l4-6.1a.984.984,0,0,1,1.4-.3l3.6,2.4a.822.822,0,0,1,.4.6,1.128,1.128,0,0,1-.1.8l-4,6.1a.822.822,0,0,1-.6.4C412.4,119,412.4,119,412.3,119Zm-2.2-3.6,1.9,1.3,2.9-4.4L413,111Z"/>
    <path id="Path_4636" data-name="Path 4636" d="M436.5,130.6h-6.7a1,1,0,0,1,0-2h5.1l-2.1-4.5a.985.985,0,1,1,1.8-.8l2.7,5.9a1.183,1.183,0,0,1-.1,1C437.2,130.4,436.9,130.6,436.5,130.6Z"/>
    <path id="Path_4637" data-name="Path 4637" d="M430.6,126.9a1.421,1.421,0,0,1-.6-.2l-16.3-10.9a1.012,1.012,0,0,1,1.1-1.7L431.1,125a.984.984,0,0,1,.3,1.4A.891.891,0,0,1,430.6,126.9Z"/>
  </g>
</svg>
