<svg xmlns="http://www.w3.org/2000/svg" width="52" height="47.8" viewBox="0 0 52 47.8">
  <g id="ond-11" transform="translate(127 -110.1)">
    <path id="Path_4638" data-name="Path 4638" d="M-105.8,149.4h-17.6a3.585,3.585,0,0,1-3.6-3.6V113.7a3.585,3.585,0,0,1,3.6-3.6h39.2a3.631,3.631,0,0,1,2.6,1.1,3.631,3.631,0,0,1,1.1,2.6v19.7a.945.945,0,0,1-1,1,.945.945,0,0,1-1-1V113.8a1.606,1.606,0,0,0-.5-1.1,1.606,1.606,0,0,0-1.1-.5h-39.2a1.58,1.58,0,0,0-1.6,1.6v32.1a1.58,1.58,0,0,0,1.6,1.6h17.6a.945.945,0,0,1,1,1C-104.7,149.1-105.2,149.4-105.8,149.4Z"/>
    <path id="Path_4639" data-name="Path 4639" d="M-86.9,116.6h-16.6a.945.945,0,0,1-1-1,.945.945,0,0,1,1-1h16.6a.945.945,0,0,1,1,1A.945.945,0,0,1-86.9,116.6Z"/>
    <rect id="Rectangle_824" data-name="Rectangle 824" width="44" height="23" transform="translate(-126 120.1)" fill="#c9cbcc" opacity="0.65"/>
    <path id="Path_4640" data-name="Path 4640" d="M-81.6,121H-126a.945.945,0,0,1-1-1,.945.945,0,0,1,1-1h44.4a.945.945,0,0,1,1,1A.945.945,0,0,1-81.6,121Z"/>
    <path id="Path_4641" data-name="Path 4641" d="M-103.5,132.4h-11.6a.945.945,0,0,1-1-1,.945.945,0,0,1,1-1h10.6v-4.6h-15.1v4.6a.945.945,0,0,1-1,1,.945.945,0,0,1-1-1v-5.6a.945.945,0,0,1,1-1h17.1a.945.945,0,0,1,1,1v6.6A.945.945,0,0,1-103.5,132.4Z"/>
    <path id="Path_4642" data-name="Path 4642" d="M-121.7,141.9h0a.908.908,0,0,1-.7-.3l-4.3-4.3a.908.908,0,0,1-.3-.7.908.908,0,0,1,.3-.7l3-3-1-1a.8.8,0,0,1-.2-1,.969.969,0,0,1,.8-.7l9.3-1.6a.855.855,0,0,1,.9.3,1.4,1.4,0,0,1,.3.9l-1.6,9.3a.969.969,0,0,1-.7.8,1.163,1.163,0,0,1-1-.2l-1-1-3,3A3.091,3.091,0,0,1-121.7,141.9Zm-2.9-5.3,2.9,2.9,3-3a.967.967,0,0,1,1.4,0l.3.3,1-6-6,1,.4.4a.908.908,0,0,1,.3.7.908.908,0,0,1-.3.7Z"/>
    <path id="Path_4643" data-name="Path 4643" d="M-78.1,153.8h-28.4a.945.945,0,0,1-1-1,15.193,15.193,0,0,1,15.2-15.2,15.193,15.193,0,0,1,15.2,15.2A1,1,0,0,1-78.1,153.8Zm-27.3-2h26.3a13.115,13.115,0,0,0-13.1-12.2A13.065,13.065,0,0,0-105.4,151.8Z"/>
    <path id="Path_4644" data-name="Path 4644" d="M-80.1,157.9h-24.2a5.121,5.121,0,0,1-5.1-5.1.945.945,0,0,1,1-1H-76a.945.945,0,0,1,1,1A5.121,5.121,0,0,1-80.1,157.9Zm-27.3-4.1a3.162,3.162,0,0,0,3,2.1h24.2a3.162,3.162,0,0,0,3-2.1Z"/>
    <path id="Path_4645" data-name="Path 4645" d="M-108.5,153.8h-10.1a.945.945,0,0,1-1-1,.945.945,0,0,1,1-1h10.1a.945.945,0,0,1,1,1A1,1,0,0,1-108.5,153.8Z"/>
    <path id="Path_4646" data-name="Path 4646" d="M-122.6,153.8h-.1a.945.945,0,0,1-1-1,.945.945,0,0,1,1-1h.1a.945.945,0,0,1,1,1A1,1,0,0,1-122.6,153.8Z"/>
    <path id="Path_4647" data-name="Path 4647" d="M-103.5,145h-10.1a.945.945,0,0,1-1-1,.945.945,0,0,1,1-1h10.1a.945.945,0,0,1,1,1A.945.945,0,0,1-103.5,145Z"/>
    <path id="Path_4648" data-name="Path 4648" d="M-90.6,139.7a.945.945,0,0,1-1-1v-1.4a.684.684,0,0,0-.7-.7.684.684,0,0,0-.7.7v1.4a.945.945,0,0,1-1,1,.945.945,0,0,1-1-1v-1.4a2.689,2.689,0,0,1,2.7-2.7,2.689,2.689,0,0,1,2.7,2.7v1.4A1.075,1.075,0,0,1-90.6,139.7Z"/>
    <path id="Path_4649" data-name="Path 4649" d="M-92.3,131.8a.945.945,0,0,1-1-1v-3.4a.945.945,0,0,1,1-1,.945.945,0,0,1,1,1v3.4A1.075,1.075,0,0,1-92.3,131.8Z"/>
    <path id="Path_4650" data-name="Path 4650" d="M-88.7,133.3a.908.908,0,0,1-.7-.3.967.967,0,0,1,0-1.4l2.5-2.5a.967.967,0,0,1,1.4,0,.967.967,0,0,1,0,1.4L-88,133A.908.908,0,0,1-88.7,133.3Z"/>
    <path id="Path_4651" data-name="Path 4651" d="M-96.1,133.3a.908.908,0,0,1-.7-.3l-2.5-2.5a.967.967,0,0,1,0-1.4.967.967,0,0,1,1.4,0l2.5,2.5a.967.967,0,0,1,0,1.4A.908.908,0,0,1-96.1,133.3Z"/>
    <path id="Path_4652" data-name="Path 4652" d="M-81.6,138.6a.945.945,0,0,1-1-1v-.1a.945.945,0,0,1,1-1,.945.945,0,0,1,1,1v.1A.945.945,0,0,1-81.6,138.6Z"/>
    <path id="Path_4653" data-name="Path 4653" d="M-111.2,116.6h-.1a.945.945,0,0,1-1-1,.945.945,0,0,1,1-1h.1a.945.945,0,0,1,1,1A1,1,0,0,1-111.2,116.6Z"/>
    <path id="Path_4654" data-name="Path 4654" d="M-115.9,116.6h-.1a.945.945,0,0,1-1-1,.945.945,0,0,1,1-1h.1a.945.945,0,0,1,1,1A.945.945,0,0,1-115.9,116.6Z"/>
    <path id="Path_4655" data-name="Path 4655" d="M-120.6,116.6h-.1a.945.945,0,0,1-1-1,.945.945,0,0,1,1-1h.1a.945.945,0,0,1,1,1A.945.945,0,0,1-120.6,116.6Z"/>
  </g>
</svg>
