<svg xmlns="http://www.w3.org/2000/svg" width="36.505" height="52.05" viewBox="0 0 36.505 52.05">
  <g id="ond-3" transform="translate(-671.2 590)">
    <path id="Path_4558" data-name="Path 4558" d="M704.2-544h-32a.945.945,0,0,1-1-1v-44a.945.945,0,0,1,1-1h32a3.478,3.478,0,0,1,3.5,3.5v38.9A3.442,3.442,0,0,1,704.2-544Zm-31-2h31a1.473,1.473,0,0,0,1.5-1.5v-38.9a1.473,1.473,0,0,0-1.5-1.5h-31Z"/>
    <path id="Path_4559" data-name="Path 4559" d="M676.3-583.8a.945.945,0,0,1-1-1V-589a.945.945,0,0,1,1-1,.945.945,0,0,1,1,1v4.2A1,1,0,0,1,676.3-583.8Z"/>
    <path id="Path_4560" data-name="Path 4560" d="M676.3-544a.945.945,0,0,1-1-1v-31.1a.945.945,0,0,1,1-1,.945.945,0,0,1,1,1V-545A.945.945,0,0,1,676.3-544Z"/>
    <rect id="Rectangle_817" data-name="Rectangle 817" width="24" height="41" transform="translate(682.2 -587)" fill="#f77c7c" opacity="0.65"/>
    <path id="Path_4561" data-name="Path 4561" d="M676.3-579.1a.945.945,0,0,1-1-1v-.1a.945.945,0,0,1,1-1,.945.945,0,0,1,1,1v.1A1,1,0,0,1,676.3-579.1Z"/>
    <path id="Path_4562" data-name="Path 4562" d="M686.5-569.3a5.121,5.121,0,0,1-5.1-5.1v-4a.945.945,0,0,1,1-1,.945.945,0,0,1,1,1v4a3.116,3.116,0,0,0,3.1,3.1,3.116,3.116,0,0,0,3.1-3.1v-4a.945.945,0,0,1,1-1,.945.945,0,0,1,1,1v4A5.058,5.058,0,0,1,686.5-569.3Z"/>
    <path id="Path_4563" data-name="Path 4563" d="M686.6-563a.945.945,0,0,1-1-1v-14.3a.945.945,0,0,1,1-1,.945.945,0,0,1,1,1V-564A1,1,0,0,1,686.6-563Z"/>
    <path id="Path_4564" data-name="Path 4564" d="M686.6-554.9a3.116,3.116,0,0,1-3.1-3.1v-6a.945.945,0,0,1,1-1h4.2a.945.945,0,0,1,1,1v6A3.116,3.116,0,0,1,686.6-554.9Zm-1.1-8.1v5a1.135,1.135,0,0,0,.3.8,1.135,1.135,0,0,0,.8.3,1.11,1.11,0,0,0,1.1-1.1v-5Z"/>
    <path id="Path_4565" data-name="Path 4565" d="M700.9-563h-6.3a.945.945,0,0,1-1-1v-8.1a7.341,7.341,0,0,1,7.3-7.3.945.945,0,0,1,1,1v14.3A1.029,1.029,0,0,1,700.9-563Zm-5.3-2h4.3v-12.2a5.358,5.358,0,0,0-4.3,5.2Z"/>
    <path id="Path_4566" data-name="Path 4566" d="M698.8-554.9a3.116,3.116,0,0,1-3.1-3.1v-6a.945.945,0,0,1,1-1h4.2a.945.945,0,0,1,1,1v6A3.116,3.116,0,0,1,698.8-554.9Zm-1.1-8.1v5a1.135,1.135,0,0,0,.3.8,1.135,1.135,0,0,0,.8.3,1.11,1.11,0,0,0,1.1-1.1v-5Z"/>
    <path id="Path_4567" data-name="Path 4567" d="M692.6-538a.749.749,0,0,1-.5-.1,1.05,1.05,0,0,1-.5-.9v-6a.945.945,0,0,1,1-1h8.2a.945.945,0,0,1,1,1v6a1.193,1.193,0,0,1-.5.9.908.908,0,0,1-1,0l-3.6-1.9-3.7,1.9A.6.6,0,0,1,692.6-538Zm1-6v3.4l2.7-1.3a1.388,1.388,0,0,1,.9,0l2.6,1.3V-544Z"/>
  </g>
</svg>
