<svg xmlns="http://www.w3.org/2000/svg" width="19" height="19.022" viewBox="0 0 19 19.022">
  <path id="dribbble" d="M12.96,18.361l.047-.017C22.686,14.5,20.008,0,9.509,0a9.505,9.505,0,1,0,3.45,18.361ZM4.185,15.9a12.25,12.25,0,0,1,6.589-5.441,20.028,20.028,0,0,1,1.38,6.938,8.268,8.268,0,0,1-7.97-1.5Zm9.138,1a21.336,21.336,0,0,0-1.355-6.71,10.77,10.77,0,0,1,5.725.782A8.34,8.34,0,0,1,13.323,16.9ZM17.818,9.74a11.531,11.531,0,0,0-6.307-.661c-.281-.634-.577-1.243-.89-1.8A15.85,15.85,0,0,0,15.8,4.081,8.214,8.214,0,0,1,17.818,9.74ZM14.957,3.235A15.254,15.254,0,0,1,10,6.222,22.237,22.237,0,0,0,6.353,1.815,8.271,8.271,0,0,1,14.957,3.235ZM5.217,2.4a20.919,20.919,0,0,1,3.6,4.245A26.164,26.164,0,0,1,1.365,7.809,8.336,8.336,0,0,1,5.217,2.4ZM1.214,9A27.363,27.363,0,0,0,9.463,7.7c.3.522.581,1.091.853,1.682A13.82,13.82,0,0,0,3.32,15.052,8.212,8.212,0,0,1,1.214,9Z"/>
</svg>
