<svg xmlns="http://www.w3.org/2000/svg" width="9.967" height="18.509" viewBox="0 0 9.967 18.509">
  <path id="Forma_1" data-name="Forma 1" d="M575.255,3172.68l-2.391,0a4.207,4.207,0,0,0-4.421,4.555v2.1h-2.4a.377.377,0,0,0-.376.378v3.043a.376.376,0,0,0,.376.377h2.4v7.678a.377.377,0,0,0,.376.378h3.136a.377.377,0,0,0,.376-.378v-7.678h2.811a.376.376,0,0,0,.376-.377v-3.043a.378.378,0,0,0-.11-.267.372.372,0,0,0-.266-.111h-2.811v-1.78c0-.856.2-1.291,1.313-1.291h1.611a.377.377,0,0,0,.376-.378v-2.826A.377.377,0,0,0,575.255,3172.68Z" transform="translate(-565.663 -3172.677)" fill="#1d1e31"/>
</svg>
