<svg xmlns="http://www.w3.org/2000/svg" width="19.002" height="19.006" viewBox="0 0 19.002 19.006">
  <g id="instagram" transform="translate(-0.449 0)">
    <path id="Path_1" data-name="Path 1" d="M19.4,5.588a6.945,6.945,0,0,0-.442-2.306A4.869,4.869,0,0,0,16.18.5,6.963,6.963,0,0,0,13.874.06C12.857.011,12.534,0,9.953,0S7.05.011,6.036.056A6.947,6.947,0,0,0,3.731.5,4.637,4.637,0,0,0,2.045,1.6,4.679,4.679,0,0,0,.95,3.278,6.963,6.963,0,0,0,.508,5.584C.46,6.6.449,6.924.449,9.5s.011,2.9.056,3.917a6.944,6.944,0,0,0,.442,2.306,4.868,4.868,0,0,0,2.781,2.781,6.964,6.964,0,0,0,2.306.442c1.013.045,1.337.056,3.917.056s2.9-.011,3.917-.056a6.943,6.943,0,0,0,2.306-.442,4.861,4.861,0,0,0,2.781-2.781,6.968,6.968,0,0,0,.442-2.306c.045-1.014.056-1.337.056-3.917s0-2.9-.048-3.917Zm-1.712,7.76a5.209,5.209,0,0,1-.327,1.764,3.153,3.153,0,0,1-1.8,1.8,5.228,5.228,0,0,1-1.764.327c-1,.045-1.3.056-3.839.056s-2.84-.011-3.839-.056a5.207,5.207,0,0,1-1.764-.327,2.925,2.925,0,0,1-1.092-.709,2.955,2.955,0,0,1-.709-1.092,5.229,5.229,0,0,1-.327-1.764c-.045-1-.056-1.3-.056-3.839s.011-2.84.056-3.839A5.207,5.207,0,0,1,2.554,3.91a2.889,2.889,0,0,1,.713-1.092,2.95,2.95,0,0,1,1.092-.709,5.231,5.231,0,0,1,1.764-.327c1-.045,1.3-.056,3.839-.056s2.84.011,3.839.056a5.209,5.209,0,0,1,1.764.327,2.922,2.922,0,0,1,1.092.709,2.954,2.954,0,0,1,.709,1.092,5.231,5.231,0,0,1,.327,1.764c.045,1,.056,1.3.056,3.839s-.011,2.833-.056,3.835Zm0,0"/>
    <path id="Path_2" data-name="Path 2" d="M129.831,124.5a4.882,4.882,0,1,0,4.882,4.882A4.884,4.884,0,0,0,129.831,124.5Zm0,8.049A3.167,3.167,0,1,1,133,129.382,3.168,3.168,0,0,1,129.831,132.549Zm0,0" transform="translate(-119.878 -119.878)"/>
    <path id="Path_3" data-name="Path 3" d="M364.729,89.742a1.14,1.14,0,1,1-1.14-1.14A1.14,1.14,0,0,1,364.729,89.742Zm0,0" transform="translate(-348.561 -85.312)"/>
  </g>
</svg>
