<svg xmlns="http://www.w3.org/2000/svg" width="19.223" height="18.508" viewBox="0 0 19.223 18.508">
  <path id="Forma_1" data-name="Forma 1" d="M700.226,3183.313v7.16h-4.12v-6.68c0-1.678-.6-2.824-2.087-2.824a2.256,2.256,0,0,0-2.114,1.519,2.859,2.859,0,0,0-.137,1.012v6.973h-4.122s.055-11.316,0-12.488h4.121v1.771c-.008.013-.019.027-.027.041h.027v-.041a4.087,4.087,0,0,1,3.714-2.065C698.193,3177.691,700.226,3179.477,700.226,3183.313Zm-16.891-11.348a2.163,2.163,0,1,0-.055,4.316h.028a2.163,2.163,0,1,0,.027-4.316Zm-2.087,18.508h4.12v-12.488h-4.12Z" transform="translate(-681.003 -3171.965)" fill="#1d1e31"/>
</svg>
