<svg xmlns="http://www.w3.org/2000/svg" width="17.088" height="14.237" viewBox="0 0 17.088 14.237">
  <path id="Forma_1" data-name="Forma 1" d="M639.237,3175.788a6.972,6.972,0,0,1-2.227.873,3.454,3.454,0,0,0-2.558-1.135,3.551,3.551,0,0,0-3.506,3.594,3.7,3.7,0,0,0,.091.819,9.871,9.871,0,0,1-7.225-3.756,3.661,3.661,0,0,0,1.085,4.8,3.438,3.438,0,0,1-1.588-.451v.045a3.578,3.578,0,0,0,2.811,3.525,3.417,3.417,0,0,1-1.583.061,3.523,3.523,0,0,0,3.274,2.5,6.923,6.923,0,0,1-4.353,1.539,7.327,7.327,0,0,1-.836-.05,9.752,9.752,0,0,0,5.374,1.615c6.448,0,9.973-5.478,9.973-10.229l-.011-.466a7.155,7.155,0,0,0,1.752-1.859,6.819,6.819,0,0,1-2.013.566A3.6,3.6,0,0,0,639.237,3175.788Z" transform="translate(-622.621 -3175.525)" fill="#1d1e31"/>
</svg>
