<svg xmlns="http://www.w3.org/2000/svg" width="19.935" height="14.237" viewBox="0 0 19.935 14.237">
  <path id="Shape_1" data-name="Shape 1" d="M758.543,3177.458c-.72-.868-2.048-1.222-4.586-1.222h-9.21c-2.6,0-3.946.377-4.663,1.3-.7.9-.7,2.229-.7,4.066v3.5c0,3.56.829,5.367,5.362,5.367h9.21c2.2,0,3.42-.311,4.208-1.078.809-.786,1.154-2.068,1.154-4.289v-3.5C759.32,3179.665,759.266,3178.33,758.543,3177.458Zm-6.36,6.38L748,3186.057a.633.633,0,0,1-.631-.021.655.655,0,0,1-.31-.558v-4.422a.656.656,0,0,1,.309-.558.635.635,0,0,1,.63-.021l4.182,2.2a.656.656,0,0,1,0,1.157Z" transform="translate(-739.385 -3176.236)" fill="#1d1e31"/>
</svg>
