<svg xmlns="http://www.w3.org/2000/svg" width="475.59" height="347.44" viewBox="0 0 475.59 347.44">
  <g id="developers" transform="translate(0.565 0.5)">
    <g id="Group_2885" data-name="Group 2885" transform="translate(242.727 56.498)">
      <g id="Group_2789" data-name="Group 2789" transform="translate(163.055 0)">
        <g id="Group_2788" data-name="Group 2788" transform="translate(0 0)">
          <path id="Path_3586" data-name="Path 3586" d="M9.785,44.579s-.514-2.4-1.371-9.084L1.043,20.926s1.714-3.085,5.485,3.428c1.714,2.914,7.542,1.714,6.685-2.914A5.935,5.935,0,0,0,2.586,19.212s-2.4.171-2.571-1.543c-.343-1.885,5.142-6.513,9.6-5.142a14.649,14.649,0,0,1,5.142,2.914S13.727.186,14.927.015s2.914.857,3.942,17.654c0,0,.514-13.2.857-14.912C19.9,1.043,22.3-.156,22.469,4.129c0,.514.857,13.541.857,13.541s1.543-8.57,1.714-9.256c.343-1.885,2.229-1.543,2.4.857.172,1.885.686,9.6.686,9.6l1.029,24h.171" fill="#fff" stroke="#333" stroke-linecap="round" stroke-linejoin="round" stroke-miterlimit="10" stroke-width="1"/>
        </g>
      </g>
      <g id="Group_2799" data-name="Group 2799" transform="translate(14.294 36.009)">
        <g id="Group_2790" data-name="Group 2790" transform="translate(0)">
          <path id="Path_3587" data-name="Path 3587" d="M182.2.686,154.26,0l-2.742,67.532L119.98,53.648v.171c-1.885-.857-3.6-1.543-4.456-2.057-17.483-9.427-28.8-10.627-47.65-3.942h0l-35.823,14.4C25.2,65.475,7.027,68.56.857,97.013L0,100.441l28.624,20.568,19.711,51.763,23.481,51.934,54.163-1.714,28.281-35.308-24-45.935-14.911-51.42c10.455,7.027,30.166,16.454,53.477,11.484C194.368,96.327,182.2.686,182.2.686Z" fill="#ffd3b2" stroke="#000" stroke-miterlimit="10" stroke-width="0.5"/>
        </g>
        <g id="Group_2794" data-name="Group 2794" transform="translate(7.199 83.382)">
          <g id="Group_2793" data-name="Group 2793">
            <path id="Path_3589" data-name="Path 3589" d="M22.282,55.795v-.171c0-.171.171-.343.171-.514.172-.514.514-1.2.857-2.057.685-1.714,1.714-4.285,2.913-7.542A62.312,62.312,0,0,0,28.8,33.855a37.965,37.965,0,0,0-1.029-14.4A27.181,27.181,0,0,0,20.74,6.946a23.286,23.286,0,0,0-10.113-6A19.874,19.874,0,0,0,2.743.09c-.515,0-.857.171-1.2.171A7.432,7.432,0,0,0,.686.432.63.63,0,0,0,.172.6h0C.343.6.514.432.686.432A7.432,7.432,0,0,1,1.543.261C1.885.261,2.4.09,2.743.09A24,24,0,0,1,10.8.775a26.819,26.819,0,0,1,10.284,6,28.963,28.963,0,0,1,7.2,12.684,38.844,38.844,0,0,1,1.028,14.569,50.692,50.692,0,0,1-2.742,11.655c-1.028,3.257-2.228,5.828-2.914,7.542a11.414,11.414,0,0,1-1.028,2.057c-.171.171-.171.343-.343.514Z" fill="#1a2e35"/>
          </g>
        </g>
        <g id="Group_2796" data-name="Group 2796" transform="translate(97.013 45.592)">
          <g id="Group_2795" data-name="Group 2795">
            <path id="Path_3590" data-name="Path 3590" d="M0,0A1.327,1.327,0,0,1,.514.171L1.885.857A18.947,18.947,0,0,1,6,4.628a23.857,23.857,0,0,1,3.943,7.2,70.273,70.273,0,0,1,2.913,9.6c1.885,6.856,3.428,13.026,4.628,17.654.514,2.228,1.028,4.114,1.371,5.313a5,5,0,0,1,.343,1.543.751.751,0,0,0,.172.514,1.326,1.326,0,0,0-.172-.514,7.017,7.017,0,0,0-.514-1.371c-.343-1.371-.857-3.085-1.543-5.313-1.2-4.628-2.913-10.8-4.8-17.654A70.273,70.273,0,0,0,9.427,12,28.209,28.209,0,0,0,5.656,4.8,15.522,15.522,0,0,0,1.714,1.028C.514.343,0,0,0,0Z" fill="#1a2e35"/>
          </g>
        </g>
        <g id="Group_2798" data-name="Group 2798" transform="translate(107.125 59.133)" opacity="0.3">
          <g id="Group_2797" data-name="Group 2797">
            <path id="Path_3591" data-name="Path 3591" d="M0,0C7.713,21.082,21.767,32.909,41.65,43.536a73.553,73.553,0,0,1-32.737-12"/>
          </g>
        </g>
      </g>
      <g id="Group_2835" data-name="Group 2835" transform="translate(9.183 9.442)">
        <g id="Group_2808" data-name="Group 2808" transform="translate(0 0.346)">
          <path id="Path_3596" data-name="Path 3596" d="M59.788,33.42a2.781,2.781,0,0,0,1.885,2.742,3.217,3.217,0,0,0,3.257-.514c1.542-1.543,1.028-4.285,0-6.17-1.028-2.057-2.4-3.942-2.057-6.17.172-1.714,1.372-3.085,2.229-4.628a9.447,9.447,0,0,0,.171-8.57,7.7,7.7,0,0,0-7.2-4.456c-3.085,0-6.17,1.885-8.913.514-1.885-1.028-2.742-3.428-4.456-4.8-2.571-2.228-6.685-1.371-9.77,0s-6.17,3.428-9.6,3.6c-2.914.171-5.656-1.028-8.4-1.371A15.356,15.356,0,0,0,1.513,11.652C-1.23,17.137-.2,24.507,4.255,28.792a9.744,9.744,0,0,0,5.828,3.085" fill="#1a2e35"/>
        </g>
        <g id="Group_2828" data-name="Group 2828" transform="translate(9.911 13.231)">
          <g id="Group_2823" data-name="Group 2823">
            <g id="Group_2822" data-name="Group 2822">
              <g id="Group_2809" data-name="Group 2809">
                <path id="Path_3597" data-name="Path 3597" d="M53.649,84.639h0a16.956,16.956,0,0,1-21.425-10.8c-1.714-5.142-3.085-9.427-3.085-9.427S15.6,66.47,11.312,53.615.343,12.136.343,12.136L0,10.422C12.855-.719,31.195-2.6,47.307,3.224l.857,2.742,16.8,58.276A17.3,17.3,0,0,1,53.649,84.639Z" fill="#fdfdfd" stroke="#000" stroke-miterlimit="10" stroke-width="1"/>
              </g>
              <g id="Group_2813" data-name="Group 2813" transform="translate(6.275 26.679)">
                <g id="Group_2810" data-name="Group 2810" transform="translate(2.206 3.003)">
                  <path id="Path_3598" data-name="Path 3598" d="M3.174,3.6A2.018,2.018,0,0,0,2.146,0,1.847,1.847,0,0,0,.775.343,2.018,2.018,0,0,0,1.8,3.942,3.228,3.228,0,0,0,3.174,3.6Z" fill="#1a2e35"/>
                </g>
                <g id="Group_2812" data-name="Group 2812">
                  <g id="Group_2811" data-name="Group 2811">
                    <path id="Path_3599" data-name="Path 3599" d="M.067,2.94c.342.171,1.2-1.2,3.085-1.714C4.867.712,6.58,1.226,6.58.883,6.58.712,6.238.369,5.553.2A5.508,5.508,0,0,0,2.639.2,3.92,3.92,0,0,0,.41,1.912C.067,2.426-.1,2.94.067,2.94Z" fill="#1a2e35"/>
                  </g>
                </g>
              </g>
              <g id="Group_2817" data-name="Group 2817" transform="translate(25.608 22.394)">
                <g id="Group_2814" data-name="Group 2814" transform="translate(1.836 2.954)">
                  <path id="Path_3600" data-name="Path 3600" d="M.495.735A1.914,1.914,0,0,0,.666,3.477a1.913,1.913,0,0,0,2.742-.171A1.913,1.913,0,0,0,3.237.563C2.551-.294,1.351-.122.495.735Z" fill="#1a2e35"/>
                </g>
                <g id="Group_2816" data-name="Group 2816">
                  <g id="Group_2815" data-name="Group 2815">
                    <path id="Path_3601" data-name="Path 3601" d="M.1,2.94c.343.171,1.2-1.2,3.085-1.714C4.9.712,6.616,1.226,6.616.884,6.616.712,6.273.369,5.587.2A5.507,5.507,0,0,0,2.674.2,3.921,3.921,0,0,0,.445,1.912C-.069,2.426-.069,2.94.1,2.94Z" fill="#1a2e35"/>
                  </g>
                </g>
              </g>
              <g id="Group_2819" data-name="Group 2819" transform="translate(17.97 26.534)">
                <g id="Group_2818" data-name="Group 2818">
                  <path id="Path_3602" data-name="Path 3602" d="M5.169,15.769c0-.171-1.2,0-3.085.343-.514.171-.857.171-1.028-.171a3.342,3.342,0,0,1-.171-1.371,36.374,36.374,0,0,1,.342-4.114C1.57,4.628,1.57,0,1.227,0S.542,4.628.2,10.455C.2,11.827.027,13.2.027,14.569A3.092,3.092,0,0,0,.37,16.626,1.222,1.222,0,0,0,1.4,17.14a1.545,1.545,0,0,0,.857-.171A30.527,30.527,0,0,0,5.169,15.769Z" fill="#1a2e35"/>
                </g>
              </g>
              <g id="Group_2820" data-name="Group 2820" transform="translate(21.597 41.997)">
                <path id="Path_3603" data-name="Path 3603" d="M7.884.306C9.427-1.408,3.6,4.591,0,5.619a4.975,4.975,0,0,0,6.342.171C9.77,3.22,7.884.306,7.884.306Z"/>
              </g>
              <g id="Group_2821" data-name="Group 2821" transform="translate(29.824 54.301)">
                <path id="Path_3604" data-name="Path 3604" d="M0,9.084A35.492,35.492,0,0,0,15.6,0S14.226,8.913.857,12Z"/>
              </g>
            </g>
          </g>
          <g id="Group_2827" data-name="Group 2827" transform="translate(49.878 14.201)">
            <g id="Group_2824" data-name="Group 2824">
              <path id="Path_3605" data-name="Path 3605" d="M0,.677C.171.506,9.427-3.093,11.312,8.219S1.028,17.646,1.028,17.475C1.028,17.132,0,.677,0,.677Z" fill="#fdfdfd" stroke="#000" stroke-miterlimit="10" stroke-width="1"/>
            </g>
            <g id="Group_2826" data-name="Group 2826" transform="translate(3.257 3.248)">
              <g id="Group_2825" data-name="Group 2825">
                <path id="Path_3606" data-name="Path 3606" d="M.513,9.6a.752.752,0,0,0,.514.171A1.73,1.73,0,0,0,2.57,9.6c1.2-.686,1.885-2.742,1.542-4.8A6.543,6.543,0,0,0,3.085,2.057,2.154,2.154,0,0,0,1.371.857C.685.857.342,1.2.342,1.543c-.171.343,0,.514,0,.514A.743.743,0,0,1,0,1.371,2.9,2.9,0,0,1,.342.514,1.222,1.222,0,0,1,1.371,0a2.953,2.953,0,0,1,2.4,1.371,6.16,6.16,0,0,1,1.2,3.085c.343,2.228-.514,4.628-2.057,5.313a2.362,2.362,0,0,1-1.886,0C.685,9.941.513,9.77.513,9.6Z" fill="#fdfdfd" stroke="#000" stroke-miterlimit="10" stroke-width="1"/>
              </g>
            </g>
          </g>
        </g>
        <g id="Group_2834" data-name="Group 2834" transform="translate(6.311 0)">
          <g id="Group_2829" data-name="Group 2829" transform="translate(0 9.598)">
            <path id="Path_3607" data-name="Path 3607" d="M2.571,22.111s8.912,1.543,17.654-6.342c5.828-5.142,13.2-9.084,15.255-8.227s4.456,7.713,11.655,7.884c0,0,3.256,13.369,8.4,11.312S51.592,5.313,51.592,5.313L37.194,0,22.454,1.2,7.37,7.2,0,15.083Z" fill="#1a2e35"/>
          </g>
          <g id="Group_2831" data-name="Group 2831" transform="translate(44.533 3.69)">
            <g id="Group_2830" data-name="Group 2830">
              <path id="Path_3608" data-name="Path 3608" d="M4.831.081A17.315,17.315,0,0,0,2.088,1.452C.717,2.481.2,3.852.031,3.681c-.172,0,.343-1.543,1.885-2.571C3.288-.09,4.831-.09,4.831.081Z" fill="#1a2e35"/>
            </g>
          </g>
          <g id="Group_2833" data-name="Group 2833" transform="translate(42.485)">
            <g id="Group_2832" data-name="Group 2832">
              <path id="Path_3609" data-name="Path 3609" d="M.022,0A4.249,4.249,0,0,1,.708,1.028a9.874,9.874,0,0,1,.857,2.914,9.257,9.257,0,0,1,0,3.085c-.172.686-.343,1.2-.514,1.2a13.839,13.839,0,0,0,0-4.114C.708,1.885-.149,0,.022,0Z" fill="#1a2e35"/>
            </g>
          </g>
        </g>
      </g>
      <path id="XMLID_10_" d="M24.245,4.116c1.371,4.628-2.743,10.113-9.427,12.169s-13.2-.171-14.569-4.8S3.334,3.259,9.847,1.2,22.873-.512,24.245,4.116Z" transform="translate(12.503 45.605)" fill="none" stroke="#1c2e35" stroke-linecap="round" stroke-linejoin="round" stroke-miterlimit="10" stroke-width="1"/>
      <path id="XMLID_9_" d="M24.244,4.116c1.372,4.628-2.742,10.113-9.427,12.169s-13.2-.171-14.569-4.8S3.334,3.259,9.847,1.2C16.532-.855,22.873-.512,24.244,4.116Z" transform="translate(40.27 37.206)" fill="none" stroke="#1c2e35" stroke-linecap="round" stroke-linejoin="round" stroke-miterlimit="10" stroke-width="1"/>
      <g id="Group_2883" data-name="Group 2883" transform="translate(83.026 202.61)">
        <g id="Group_2877" data-name="Group 2877" transform="translate(9.427)">
          <g id="Group_2870" data-name="Group 2870">
            <path id="Path_3632" data-name="Path 3632" d="M0,10.8,58.276,0l8.741,39.251L6.513,49.535Z" fill="#fff"/>
          </g>
          <g id="Group_2872" data-name="Group 2872" transform="translate(0.172)">
            <g id="Group_2871" data-name="Group 2871">
              <path id="Path_3633" data-name="Path 3633" d="M58.1,0h0c-.171.343-.342.514-.342.686-.343.343-.686,1.028-1.372,1.714-1.2,1.543-2.742,3.6-4.8,6.342-4.113,5.313-9.77,12.684-16.111,20.911l-.172.171-.171-.171a8.35,8.35,0,0,0-1.2-.514C24.51,24.167,16.111,19.54,9.77,16.283c-3.085-1.714-5.485-2.914-7.2-3.942-.857-.514-1.543-.857-1.885-1.028-.171-.171-.343-.171-.514-.343A.168.168,0,0,1,0,10.8H.171c.171,0,.342.171.514.171A11.252,11.252,0,0,1,2.742,12c1.714.857,4.285,2.228,7.37,3.771,6.17,3.257,14.74,7.713,24.167,12.684a8.35,8.35,0,0,0,1.2.514h-.343C41.479,20.739,47.306,13.541,51.42,8.056c2.057-2.571,3.771-4.8,4.971-6.17C56.9,1.2,57.419.686,57.762.171c0,.171.171,0,.342-.171Z" fill="#1a2e35"/>
            </g>
          </g>
          <g id="Group_2874" data-name="Group 2874" transform="translate(6.508 23.31)">
            <g id="Group_2873" data-name="Group 2873">
              <path id="Path_3634" data-name="Path 3634" d="M.005,26.224c-.171,0,3.6-6,8.4-13.2S16.974,0,17.146,0s-3.6,6-8.4,13.2S.177,26.224.005,26.224Z" fill="#1a2e35"/>
            </g>
          </g>
          <g id="Group_2876" data-name="Group 2876" transform="translate(43.017 20.392)">
            <g id="Group_2875" data-name="Group 2875">
              <path id="Path_3635" data-name="Path 3635" d="M24,18.859c0,.171-5.485-4.114-12.169-9.256C5.146,4.29-.167,0,0,0,0-.166,5.489,4.119,12.173,9.261,18.687,14.4,24,18.859,24,18.859Z" fill="#1a2e35"/>
            </g>
          </g>
        </g>
        <g id="Group_2878" data-name="Group 2878" transform="translate(0 19.54)">
          <path id="Path_3636" data-name="Path 3636" d="M10.97,0s.343,7.542,4.114,7.542c3.6,0,16.626-7.2,18.168-4.628,1.543,2.4-2.4,5.828-2.4,5.828s4.627,0,2.913,2.742S26.91,26.91,22.282,28.11C15.6,29.824,0,30.509,0,30.509L4.8,3.771Z" fill="#fff" stroke="#333" stroke-linecap="round" stroke-linejoin="round" stroke-miterlimit="10" stroke-width="1"/>
        </g>
        <g id="Group_2880" data-name="Group 2880" transform="translate(16.454 26.712)">
          <g id="Group_2879" data-name="Group 2879">
            <path id="Path_3637" data-name="Path 3637" d="M15.769.026,15.255.54a13.985,13.985,0,0,1-1.542,1.371A30.8,30.8,0,0,1,8.4,5.682,45.72,45.72,0,0,1,2.571,8.6c-.857.343-1.371.514-1.885.686A2.707,2.707,0,0,1,0,9.453a24.3,24.3,0,0,1,2.4-1.2A50.31,50.31,0,0,0,8.227,5.168c2.229-1.371,4.114-2.742,5.313-3.6C14.912.54,15.769-.145,15.769.026Z" fill="#fff" stroke="#333" stroke-linecap="round" stroke-linejoin="round" stroke-miterlimit="10" stroke-width="1"/>
          </g>
        </g>
        <g id="Group_2882" data-name="Group 2882" transform="translate(19.368 34.258)">
          <g id="Group_2881" data-name="Group 2881">
            <path id="Path_3638" data-name="Path 3638" d="M12.684.022a6.346,6.346,0,0,1-1.372,1.885A22.781,22.781,0,0,1,7.2,5.678,27.785,27.785,0,0,1,2.228,8.249C.857,8.763,0,8.935,0,8.763c0,0,.857-.343,2.228-.857A27.788,27.788,0,0,0,7.2,5.335a22.71,22.71,0,0,0,4.113-3.6C12,.708,12.512-.149,12.684.022Z" fill="#fff" stroke="#333" stroke-linecap="round" stroke-linejoin="round" stroke-miterlimit="10" stroke-width="1"/>
          </g>
        </g>
      </g>
      <g id="Group_2884" data-name="Group 2884" transform="translate(0 127.88)">
        <path id="Path_3639" data-name="Path 3639" d="M50.631,31.709S36.4,62.733,39.661,78.33C41.547,87.071,69.828,94.442,88,96.67l-5.485,30.338s-67.189-6.342-79.7-33.08C-4.389,78.844,2.982,41.822,16.522,0Z" fill="#ffd3b2" stroke="#000" stroke-miterlimit="10" stroke-width="0.5"/>
      </g>
      <path id="Path_3640" data-name="Path 3640" d="M0,8.056,2.4,0,34.966,32.566,27.424,43.878l-.514-.514-3.085,8.57Z" transform="translate(15.666 123.766)" fill="#ffd3b2"/>
    </g>
    <g id="Group_2849" data-name="Group 2849" transform="translate(0 0)">
      <g id="Group_2845" data-name="Group 2845" transform="translate(0 70.137)">
        <g id="Group_2836" data-name="Group 2836" transform="translate(75.233 129.582)">
          <path id="XMLID_19_" d="M7.989,12.665S25.525,49.881,25.525,52.024c0,1.949-15.588,10.327-18.511,12.081A70.193,70.193,0,0,1,0,67.612L1.754,84.954s26.694-6.04,37.8-12.081,10.717-13.055,8.183-23.187S27.864,0,27.864,0Z" transform="translate(131.332)" fill="#fff" stroke="#333" stroke-linecap="round" stroke-linejoin="round" stroke-miterlimit="10" stroke-width="1"/>
          <path id="Path_3610" data-name="Path 3610" d="M27.084,72.873C38.19,66.833,37.8,59.818,35.267,49.686S15.393,0,15.393,0L12.665,1.754l-.974,1.754S27.863,43.061,28.837,56.116C29.422,64.884,11.691,75.991,0,82.226,8.573,79.888,20.459,76.38,27.084,72.873Z" transform="translate(143.997 0)" fill="#ffd3b2"/>
          <path id="XMLID_30_" d="M13.254,0S.589,46.764,0,54.947c-.39,8.184,25.33,24.551,26.3,25.525s-1.364-28.448-1.364-28.448L33.713,9.353Z" transform="translate(0 4.482)" fill="#fff" stroke="#333" stroke-linecap="round" stroke-linejoin="round" stroke-miterlimit="10" stroke-width="1"/>
          <path id="Path_3611" data-name="Path 3611" d="M26.309,70.925C18.71,64.495,7.6,55.337,6.434,51.44,4.486,45.594,19.1,3.7,19.1,3.7L18.9,2.533,13.254,0S.589,46.764,0,54.947c-.39,8.184,25.33,24.551,26.3,25.525C26.893,80.667,26.7,76.381,26.309,70.925Z" transform="translate(0 4.676)" fill="#ffd3b2"/>
        </g>
        <g id="Group_2837" data-name="Group 2837" transform="translate(79.329 83.458)">
          <path id="XMLID_18_" d="M69.171,3.648S64.3,7.155,54.557,7.545C45.01,7.934,44.425.92,32.54,1.115,18.121,1.115,0,46.9,0,46.9s8.963,8.768,17.926,12.47a62.761,62.761,0,0,0,15.393,4.482l1.364,30.007h97.424l1.169-30.007,30.4-19.874s-15-26.694-22.213-36.631-19.485-6.235-23.187-3.7-14.808,3.118-18.9,2.533S83.59,1.894,83.59,1.894,77.355-3.367,69.171,3.648Z" fill="#ffd3b2" stroke="#000" stroke-miterlimit="10" stroke-width="0.5"/>
          <line id="XMLID_20_" x1="0.39" y2="49.686" transform="translate(33.709 14.364)" fill="none" stroke="#333" stroke-linecap="round" stroke-linejoin="round" stroke-miterlimit="10" stroke-width="0.5"/>
          <path id="XMLID_21_" d="M0,0S1.364,24.356,6.43,37.8" transform="translate(37.8 18.846)" fill="none" stroke="#333" stroke-linecap="round" stroke-linejoin="round" stroke-miterlimit="10" stroke-width="0.5"/>
          <path id="XMLID_22_" d="M0,0S2.533,7.209,4.092,9.548" transform="translate(45.205 58.595)" fill="none" stroke="#333" stroke-linecap="round" stroke-linejoin="round" stroke-miterlimit="10" stroke-width="0.5"/>
          <path id="XMLID_23_" d="M0,0S2.923,14.614,7.794,25.915" transform="translate(40.918 16.118)" fill="none" stroke="#333" stroke-linecap="round" stroke-linejoin="round" stroke-miterlimit="10" stroke-width="0.5"/>
          <path id="XMLID_24_" d="M8.768,0S4.092,19.29,0,27.863" transform="translate(116.714 20.404)" fill="none" stroke="#333" stroke-linecap="round" stroke-linejoin="round" stroke-miterlimit="10" stroke-width="0.5"/>
          <line id="XMLID_25_" x1="0.195" y1="38.775" transform="translate(132.886 25.081)" fill="none" stroke="#333" stroke-linecap="round" stroke-linejoin="round" stroke-miterlimit="10" stroke-width="0.5"/>
          <path id="XMLID_26_" d="M12.08,0S8.573,24.551,0,37.411" transform="translate(118.857 25.86)" fill="none" stroke="#333" stroke-linecap="round" stroke-linejoin="round" stroke-miterlimit="10" stroke-width="0.5"/>
          <path id="XMLID_27_" d="M6.625,0S2.728,7.4,0,11.3" transform="translate(120.026 58.4)" fill="none" stroke="#333" stroke-linecap="round" stroke-linejoin="round" stroke-miterlimit="10" stroke-width="0.5"/>
          <path id="XMLID_28_" d="M0,0S2.728,16.952,6.625,25.525s10.717,10.327,16.757,7.794c5.846-2.533,10.132-15.2,9.743-31.176" transform="translate(63.715 6.57)" fill="none" stroke="#333" stroke-linecap="round" stroke-linejoin="round" stroke-miterlimit="10" stroke-width="0.5"/>
        </g>
        <g id="Group_2838" data-name="Group 2838" transform="translate(121.534 13.565)">
          <path id="XMLID_13_" d="M7.481,4.066S3.779-2.364.856.948,3.194,11.86,6.117,14.588c2.923,2.533,5.066.974,4.871-1.754C10.794,9.911,7.481,4.066,7.481,4.066Z" transform="translate(0 37.129)" fill="#ffd3b2" stroke="#000" stroke-miterlimit="10" stroke-width="0.5"/>
          <path id="XMLID_16_" d="M3.519,4.066s3.7-6.43,6.625-3.118S7.806,11.86,4.884,14.588c-2.923,2.533-5.066.974-4.871-1.754C.207,9.911,3.519,4.066,3.519,4.066Z" transform="translate(63.391 37.129)" fill="#ffd3b2" stroke="#000" stroke-miterlimit="10" stroke-width="0.5"/>
          <path id="XMLID_17_" d="M0,0S3.507,15.978,7.014,24.746s10.132,8.768,13.055,3.118C22.8,22.213,24.551.974,24.551.974S6.04,3.507,0,0Z" transform="translate(25.213 72.176)" fill="#fff" stroke="#333" stroke-linecap="round" stroke-linejoin="round" stroke-miterlimit="10" stroke-width="1"/>
          <path id="XMLID_7_" d="M.943,43.338S6.009,61.459,15.752,71.981C25.3,82.5,29,85.231,34.068,84.256c5.066-.779,10.522-7.4,18.316-21.433,7.6-14.029,8.183-24.551,8.768-25.525S59.593,16.644,48.681,8.266,25.494-3.815,14.972,5.343C4.061,14.7-2.564,29.7.943,43.338Z" transform="translate(6.928)" fill="#fff" stroke="#333" stroke-linecap="round" stroke-linejoin="round" stroke-miterlimit="10" stroke-width="1"/>
          <path id="Path_3612" data-name="Path 3612" d="M48.472,8.266C37.56-.113,25.285-3.815,14.763,5.343S-2.579,29.7.929,43.143a77.8,77.8,0,0,0,2.923,8.184,5.4,5.4,0,0,1,.195-1.754c2.338-7.4,9.353-21.823,32.54-15.2C55.1,39.636,52.758,55.809,51,64.577c.389-.585.584-1.169.974-1.754,7.6-14.029,8.183-24.551,8.768-25.525C61.526,36.324,59.383,16.644,48.472,8.266Z" transform="translate(6.942 0.195)" fill="#ffd3b2"/>
          <path id="XMLID_8_" d="M5.066,0S3.9,7.6,4.092,11.5s1.364,5.066-.39,5.456S0,14.614,0,14.614" transform="translate(35.734 52.691)" fill="none" stroke="#333" stroke-linecap="round" stroke-linejoin="round" stroke-miterlimit="10" stroke-width="1"/>
          <path id="XMLID_11_" d="M16.172,6.014S12.47-3.144,0,1.142" transform="translate(17.613 43.17)" fill="none" stroke="#333" stroke-linecap="round" stroke-linejoin="round" stroke-miterlimit="10" stroke-width="1"/>
          <path id="XMLID_12_" d="M0,5.357s3.117-8.963,14.419-3.7" transform="translate(44.113 42.852)" fill="none" stroke="#333" stroke-linecap="round" stroke-linejoin="round" stroke-miterlimit="10" stroke-width="1"/>
          <path id="XMLID_6_" d="M26.109,7.209c0,5.066-5.845,9.158-13.055,9.158S0,12.275,0,7.209,5.456,0,12.47,0C19.874,0,26.109,2.143,26.109,7.209Z" transform="translate(10.014 49.379)" fill="none" stroke="#333" stroke-linecap="round" stroke-linejoin="round" stroke-miterlimit="10" stroke-width="1"/>
          <path id="XMLID_14_" d="M26.109,7.209c0,5.066-5.845,9.158-13.055,9.158S0,12.275,0,7.209,5.456,0,12.47,0,26.109,2.143,26.109,7.209Z" transform="translate(39.826 49.379)" fill="none" stroke="#333" stroke-linecap="round" stroke-linejoin="round" stroke-miterlimit="10" stroke-width="1"/>
        </g>
        <g id="Group_2840" data-name="Group 2840" transform="translate(0 216.095)">
          <path id="XMLID_50_" d="M474.143,39.164,465.448,33.9,445.161,4.481C443.422,1.754,439.075,0,434.438,0H39.995C35.358,0,31.3,1.754,29.271,4.481L4.057,41.308,0,40.334v8.378l.29-.195c.29,2.143,3.188,4.092,6.956,4.092H467.477c4.058,0,6.956-1.948,6.956-4.287Z" transform="translate(0.026 7.599)" fill="#333" stroke="#333" stroke-linecap="round" stroke-linejoin="round" stroke-miterlimit="10" stroke-width="1"/>
          <path id="XMLID_42_" d="M467.495,52.414H6.993c-5.216,0-8.4-3.312-6.376-6.235l28.691-41.7C31.047,1.754,35.394,0,40.031,0H434.457c4.637,0,8.694,1.754,10.722,4.482l28.691,41.7C475.9,49.1,472.421,52.414,467.495,52.414Z" fill="#fff" stroke="#333" stroke-linecap="round" stroke-linejoin="round" stroke-miterlimit="10" stroke-width="1"/>
          <path id="Path_3613" data-name="Path 3613" d="M4.029,20.079S-2.985,24.951,1.5,26.7c4.287,1.754,54.752.39,60.793-1.364S75.343,7.414,75.343,4.686C75.343,2.153,66.575.2,63.263.01S17.084,2.543,17.084,2.543Z" transform="translate(16.456 4.277)" fill="#f4bd58"/>
          <ellipse id="Ellipse_119" data-name="Ellipse 119" cx="17.926" cy="7.404" rx="17.926" ry="7.404" transform="translate(252.939 17.731)" fill="#fcd392"/>
          <ellipse id="Ellipse_120" data-name="Ellipse 120" cx="64.3" cy="12.081" rx="64.3" ry="12.081" transform="translate(92.384 17.731)" fill="#f4bd58"/>
        </g>
        <g id="Group_2841" data-name="Group 2841" transform="translate(249.507 208.106)">
          <path id="XMLID_33_" d="M8.3,3.436S7.133-1.241,3.236.318-.271,12.2.508,18.244s6.04,3.118,6.04,3.118V17.854S4.6,19.413,3.626,17.27,2.847,4.215,3.821,4.6c.974.195,2.923,3.507,2.923,3.507S7.328,7.528,8.3,3.436Z" transform="translate(0 0.461)" fill="#f4bd58" stroke="#000" stroke-miterlimit="10" stroke-width="1"/>
          <path id="XMLID_36_" d="M0,0V25.72c0,3.118,7.015,5.456,15.588,5.456s15.588-2.533,15.588-5.456V0Z" transform="translate(5.575 4.676)" fill="#f4bd58"/>
          <path id="XMLID_32_" d="M31.176,4.676c0,2.533-7.015,4.676-15.588,4.676S0,7.209,0,4.676,7.014,0,15.588,0C24.356,0,31.176,2.143,31.176,4.676Z" transform="translate(5.38)" fill="#fff" stroke="#333" stroke-linecap="round" stroke-linejoin="round" stroke-miterlimit="10" stroke-width="1"/>
          <path id="XMLID_31_" d="M27.279,4.092c0,2.338-6.04,4.092-13.639,4.092S0,6.43,0,4.092,6.04,0,13.639,0,27.279,1.754,27.279,4.092Z" transform="translate(7.328 0.585)" fill="#fff" stroke="#333" stroke-linecap="round" stroke-linejoin="round" stroke-miterlimit="10" stroke-width="1"/>
          <path id="XMLID_109_" d="M0,1.559A30.74,30.74,0,0,0,10.522,3.118,30.742,30.742,0,0,0,21.044,1.559,30.741,30.741,0,0,0,10.522,0,44.707,44.707,0,0,0,0,1.559Z" transform="translate(10.64 5.651)" fill="#333" stroke="#333" stroke-linecap="round" stroke-linejoin="round" stroke-miterlimit="10" stroke-width="1"/>
        </g>
        <g id="Group_2842" data-name="Group 2842" transform="translate(8.434 198.077)">
          <path id="XMLID_41_" d="M0,.779.195,9.742l59.429.585V0Z" transform="translate(10.102 25.616)" fill="#fff" stroke="#333" stroke-linecap="round" stroke-linejoin="round" stroke-miterlimit="10" stroke-width="1"/>
          <path id="XMLID_40_" d="M.389,24.161,8.963,5.456V0L0,15.588Z" transform="translate(69.336 11.782)" fill="#fff" stroke="#333" stroke-linecap="round" stroke-linejoin="round" stroke-miterlimit="10" stroke-width="1"/>
          <path id="XMLID_45_" d="M0,.779.195,9.548l59.429.585V0Z" transform="translate(10.102 33.8)" fill="#fff" stroke="#333" stroke-linecap="round" stroke-linejoin="round" stroke-miterlimit="10" stroke-width="1"/>
          <path id="XMLID_44_" d="M.389,24.161,8.963,5.456V0L0,15.783Z" transform="translate(69.336 19.771)" fill="#fff" stroke="#333" stroke-linecap="round" stroke-linejoin="round" stroke-miterlimit="10" stroke-width="1"/>
          <g id="XMLID_39_">
            <path id="XMLID_38_" d="M32.8,4.183s1.364-2.728-.585-3.9-4.092,1.559-5.261,2.533S1.037,20.161.258,22.694s0,8.184,5.261,8.768,9.937-2.923,12.276-3.507,3.312-.779,3.312-.779L37.474,5.157Z" transform="translate(0.297)" fill="#fff" stroke="#333" stroke-linecap="round" stroke-linejoin="round" stroke-miterlimit="10" stroke-width="1"/>
            <path id="XMLID_43_" d="M5.621,9.59c5.261.585,9.937-2.923,12.276-3.507S21.208,5.3,21.208,5.3l.585-.779L6.4,1.406A5.1,5.1,0,0,0,.165.822C-.42,3.16.36,9.005,5.621,9.59Z" transform="translate(0 21.872)" fill="#fff" stroke="#333" stroke-linecap="round" stroke-linejoin="round" stroke-miterlimit="10" stroke-width="1"/>
            <path id="XMLID_34_" d="M0,19.1H45.984c14.419,0,18.705-.779,18.705-.779L73.457,0S45.594,1.754,37.021,1.169,26.5,0,26.5,0Z" transform="translate(6.79 3.988)" fill="#fff" stroke="#333" stroke-linecap="round" stroke-linejoin="round" stroke-miterlimit="10" stroke-width="1"/>
            <path id="XMLID_37_" d="M0,.779.779,4.287S38,4.482,47.932,4.482c9.742,0,17.342.39,17.342.39L64.689,0Z" transform="translate(6.79 22.304)" fill="#fff" stroke="#333" stroke-linecap="round" stroke-linejoin="round" stroke-miterlimit="10" stroke-width="1"/>
            <path id="XMLID_35_" d="M.585,22.992,8.768,4.287V0L0,18.121Z" transform="translate(71.284 4.183)" fill="#fff" stroke="#333" stroke-linecap="round" stroke-linejoin="round" stroke-miterlimit="10" stroke-width="1"/>
          </g>
        </g>
        <g id="Group_2843" data-name="Group 2843" transform="translate(91.41 165.434)">
          <path id="XMLID_2_" d="M114.376,3.9H1.949A1.953,1.953,0,0,1,0,1.949H0A1.953,1.953,0,0,1,1.949,0H114.376a1.953,1.953,0,0,1,1.949,1.949h0A1.953,1.953,0,0,1,114.376,3.9Z" transform="translate(7.014 78.134)" fill="#fff" stroke="#333" stroke-linecap="round" stroke-linejoin="round" stroke-miterlimit="10" stroke-width="1"/>
          <path id="XMLID_29_" d="M122.365,78.134H7.989a1.706,1.706,0,0,1-1.754-1.559L0,1.754A1.746,1.746,0,0,1,1.754,0H128.6a1.746,1.746,0,0,1,1.754,1.754l-6.235,74.822A1.706,1.706,0,0,1,122.365,78.134Z" fill="#fff" stroke="#333" stroke-linecap="round" stroke-linejoin="round" stroke-miterlimit="10" stroke-width="1"/>
          <path id="XMLID_3_" d="M21.433,7.989c0,4.482-4.871,7.989-10.717,7.989S0,12.275,0,7.989C0,3.507,4.871,0,10.717,0S21.433,3.507,21.433,7.989Z" transform="translate(54.557 32.345)" fill="#fff" stroke="#333" stroke-linecap="round" stroke-linejoin="round" stroke-miterlimit="10" stroke-width="1"/>
        </g>
        <g id="Group_2844" data-name="Group 2844" transform="translate(258.005 136.986)">
          <path id="XMLID_110_" d="M0,10.327A11.029,11.029,0,0,0,3.507,4.871,8.257,8.257,0,0,0,3.313,0" transform="translate(21.239)" fill="none" stroke="#333" stroke-linecap="round" stroke-linejoin="round" stroke-miterlimit="10" stroke-width="1"/>
          <path id="XMLID_101_" d="M8.184,56.116s10.912-6.43,7.4-14.029S0,29.617,0,17.926C0,7.794,10.717,4.092,17.731,0" transform="translate(0 12.86)" fill="none" stroke="#333" stroke-linecap="round" stroke-linejoin="round" stroke-miterlimit="10" stroke-width="1"/>
          <path id="XMLID_106_" d="M4.676,24.551s6.04-4.092,6.04-10.522C10.717,9.742,6.04,6.82,0,0" transform="translate(13.445 44.231)" fill="none" stroke="#333" stroke-linecap="round" stroke-linejoin="round" stroke-miterlimit="10" stroke-width="1"/>
          <path id="XMLID_108_" d="M2.061,8.963S-1.836,5.845,1.087,0" transform="translate(8.071 30.981)" fill="none" stroke="#333" stroke-linecap="round" stroke-linejoin="round" stroke-miterlimit="10" stroke-width="1"/>
        </g>
        <path id="Path_3614" data-name="Path 3614" d="M24.22,45.992s15.2-.39,29.032,6.82S77.8,46.187,71.373,39.367s8.573,7.4,10.911-.974S62.995.4,41.367.008,14.478,13.647,14.478,13.647,11.945,6.438,10,10.335a17.3,17.3,0,0,0-1.948,7.015A58.425,58.425,0,0,0,1.813,22.61C-.136,24.559,2.4,26.7,2.4,26.7S-1.5,36.834.644,44.433L11.75,61.19a8.617,8.617,0,0,0,6.82-3.7c2.923-3.9.78-16.172.78-16.172s.195,13.25,3.507,10.327S21.1,35.86,21.1,35.86Z" transform="translate(118.824)" fill="#1a2e35"/>
      </g>
      <g id="XMLID_123_" transform="translate(0.61 100.542)">
        <path id="XMLID_100_" d="M90.215,40.334H5.456A5.446,5.446,0,0,1,0,34.878V5.456A5.446,5.446,0,0,1,5.456,0H90.215a5.446,5.446,0,0,1,5.456,5.456V34.878A5.446,5.446,0,0,1,90.215,40.334Z" fill="#333" stroke="#333" stroke-linecap="round" stroke-linejoin="round" stroke-miterlimit="10" stroke-width="1"/>
        <g id="Group_2846" data-name="Group 2846" transform="translate(6.625 5.456)">
          <path id="Path_3615" data-name="Path 3615" d="M4.676,0l.39.779C2.923,1.948.974,4.092.974,6.43A3.1,3.1,0,0,0,3.9,9.742c.39,0,.585-.195.585-.39a.419.419,0,0,0-.39-.39A1.785,1.785,0,0,1,2.728,7.015,2.509,2.509,0,0,1,5.456,4.482,2.831,2.831,0,0,1,8.184,7.4a3.541,3.541,0,0,1-3.7,3.507A4.142,4.142,0,0,1,0,6.625C0,3.7,2.143,1.364,4.676,0Zm9.548,0,.39.779C12.47,1.948,10.522,4.092,10.522,6.43a3.1,3.1,0,0,0,2.923,3.312c.39,0,.585-.195.585-.39a.419.419,0,0,0-.39-.39,1.785,1.785,0,0,1-1.364-1.948A2.509,2.509,0,0,1,15,4.482,2.831,2.831,0,0,1,17.731,7.4a3.541,3.541,0,0,1-3.7,3.507A4.142,4.142,0,0,1,9.548,6.625C9.547,3.7,11.691,1.364,14.224,0Z" fill="#f4bd58"/>
        </g>
        <line id="XMLID_102_" x2="54.557" transform="translate(29.812 13.834)" fill="none" stroke="#fff" stroke-linecap="round" stroke-linejoin="round" stroke-miterlimit="10" stroke-width="1"/>
        <line id="XMLID_103_" x2="54.557" transform="translate(29.812 18.511)" fill="none" stroke="#fff" stroke-linecap="round" stroke-linejoin="round" stroke-miterlimit="10" stroke-width="1"/>
        <line id="XMLID_104_" x2="54.557" transform="translate(29.812 23.187)" fill="none" stroke="#fff" stroke-linecap="round" stroke-linejoin="round" stroke-miterlimit="10" stroke-width="1"/>
        <line id="XMLID_105_" x2="54.557" transform="translate(29.812 27.863)" fill="none" stroke="#fff" stroke-linecap="round" stroke-linejoin="round" stroke-miterlimit="10" stroke-width="1"/>
      </g>
      <g id="XMLID_121_" transform="translate(18 173.661)">
        <circle id="XMLID_119_" cx="20.654" cy="20.654" r="20.654" transform="translate(0.71 7.454) rotate(-9.271)" fill="#333" stroke="#333" stroke-linecap="round" stroke-linejoin="round" stroke-miterlimit="10" stroke-width="1"/>
        <circle id="XMLID_116_" cx="17.341" cy="17.341" r="17.341" transform="matrix(0.66, -0.751, 0.751, 0.66, 0, 26.061)" fill="#fff" stroke="#333" stroke-linecap="round" stroke-linejoin="round" stroke-miterlimit="10" stroke-width="1"/>
        <path id="XMLID_120_" d="M0,0V12.665H8.378" transform="translate(24.503 11.834)" fill="none" stroke="#333" stroke-linecap="round" stroke-linejoin="round" stroke-miterlimit="10" stroke-width="2"/>
      </g>
      <g id="Group_2848" data-name="Group 2848" transform="translate(338.282)">
        <path id="XMLID_125_" d="M56.116,0H7.6A7.32,7.32,0,0,0,.39,7.209V33.124A7.32,7.32,0,0,0,7.6,40.334H9.158C7.6,43.646,4.676,48.712,0,51.83c0,0,9.937-.779,20.069-11.5H56.116a7.321,7.321,0,0,0,7.209-7.209V7.209A7.073,7.073,0,0,0,56.116,0Z" fill="#333" stroke="#333" stroke-linecap="round" stroke-linejoin="round" stroke-miterlimit="10" stroke-width="1"/>
        <g id="Group_2847" data-name="Group 2847" transform="translate(16.172 15.393)">
          <path id="XMLID_122_" d="M7.4,3.7A3.7,3.7,0,0,0,3.7,0,3.833,3.833,0,0,0,0,3.7a3.7,3.7,0,0,0,7.4,0Z" fill="#f4bd58"/>
          <path id="XMLID_124_" d="M7.4,3.7A3.7,3.7,0,1,0,3.7,7.4,3.583,3.583,0,0,0,7.4,3.7Z" transform="translate(12.47)" fill="#f4bd58"/>
          <path id="XMLID_126_" d="M7.4,3.7A3.7,3.7,0,1,0,3.7,7.4,3.583,3.583,0,0,0,7.4,3.7Z" transform="translate(25.135)" fill="#f4bd58"/>
        </g>
      </g>
      <ellipse id="Ellipse_121" data-name="Ellipse 121" cx="1.364" cy="0.779" rx="1.364" ry="0.779" transform="translate(145.577 139.706)" fill="none" stroke="#333" stroke-linecap="round" stroke-linejoin="round" stroke-miterlimit="10" stroke-width="1"/>
      <ellipse id="Ellipse_122" data-name="Ellipse 122" cx="1.364" cy="0.779" rx="1.364" ry="0.779" transform="translate(169.738 138.732)" fill="none" stroke="#333" stroke-linecap="round" stroke-linejoin="round" stroke-miterlimit="10" stroke-width="1"/>
    </g>
  </g>
</svg>
