<svg xmlns="http://www.w3.org/2000/svg" width="446" height="450.489" viewBox="0 0 446 450.489">
  <g id="startup-service" transform="translate(-1548 -239.511)">
    <g id="Polygon_1" data-name="Polygon 1" transform="translate(1548 317)" fill="none" opacity="0.04">
      <path d="M306.138,0a50,50,0,0,1,42.915,24.343l81.607,136.5a50,50,0,0,1,0,51.314l-81.607,136.5A50,50,0,0,1,306.138,373H139.862a50,50,0,0,1-42.915-24.343l-81.607-136.5a50,50,0,0,1,0-51.314l81.607-136.5A50,50,0,0,1,139.862,0Z" stroke="none"/>
      <path d="M 139.8616333007813 15 C 127.6157836914063 15 116.1049194335938 21.52935791015625 109.8210754394531 32.04006958007813 L 28.21377563476563 168.5400695800781 C 21.59063720703125 179.6181488037109 21.59063720703125 193.3817901611328 28.21377563476563 204.4599304199219 L 109.8210144042969 340.9599304199219 C 116.1048583984375 351.4706420898438 127.6157836914063 358 139.8616333007813 358 L 306.1383666992188 358 C 318.3842163085938 358 329.8950805664063 351.4706420898438 336.1789245605469 340.9599304199219 L 417.7862243652344 204.4600067138672 C 424.4093017578125 193.3818511962891 424.4093017578125 179.6181488037109 417.7862243652344 168.5400695800781 L 336.1789245605469 32.04006958007813 C 329.8950805664063 21.52935791015625 318.3842163085938 15 306.1383666992188 15 L 139.8616333007813 15 M 139.8616333007813 0 L 306.1383666992188 0 C 323.7296447753906 0 340.0267028808594 9.244293212890625 349.0534973144531 24.34292602539063 L 430.6607971191406 160.8429260253906 C 440.1071472167969 176.6434326171875 440.1071472167969 196.3565673828125 430.6607971191406 212.1570739746094 L 349.0534973144531 348.6570739746094 C 340.0267028808594 363.7557983398438 323.7296447753906 373 306.1383666992188 373 L 139.8616333007813 373 C 122.2703552246094 373 105.9732971191406 363.7557983398438 96.94644165039063 348.6570739746094 L 15.33920288085938 212.1570739746094 C 5.892791748046875 196.3565673828125 5.892791748046875 176.6433563232422 15.33920288085938 160.8429260253906 L 96.94650268554688 24.34292602539063 C 105.9732971191406 9.244293212890625 122.2703552246094 0 139.8616333007813 0 Z" stroke="none" fill="#373f54"/>
    </g>
    <g id="startup" transform="translate(1639.61 239.536)">
      <path id="Path_29" data-name="Path 29" d="M121.055,21.9s84.535,87.485,50.906,264.14H88.354S15.787,155.74,121.055,21.9Z" transform="translate(-10.056 -3.446)" fill="#ff8d90"/>
      <g id="Group_1487" data-name="Group 1487" transform="translate(18.036 -0.025)">
        <g id="Group_1486" data-name="Group 1486">
          <path id="Path_1118" data-name="Path 1118" d="M209.265,205.644c6.658-73.831-19.132-149.095-73.241-203.2a9.016,9.016,0,0,0-12.389,0c-54.109,54.109-79.9,129.289-73.241,203.2a108.216,108.216,0,0,0,.927,148.421c4.72,4.973,16.772,2.7,14.834-8.26-1.011-5.731-2.276-11.294-2.276-16.772a65.2,65.2,0,0,1,11.8-37.59,8.957,8.957,0,0,0,4.214,1.1h99.874a8.957,8.957,0,0,0,4.214-1.1,65.2,65.2,0,0,1,11.8,37.59c0,5.478-1.433,10.957-2.276,16.772-1.77,12.137,10.872,12.558,14.834,8.26a108.216,108.216,0,0,0,.927-148.421ZM129.787,21.319a234.526,234.526,0,0,1,38.433,55.963H91.438a230.129,230.129,0,0,1,38.348-55.963Zm-82.6,295.83a91.07,91.07,0,0,1,6.574-87.4c.084.674,9.271,35.82,12.811,44.838A81.866,81.866,0,0,0,47.19,317.149Zm126.76-42.225H85.623C60.844,216.769,61.1,151.788,83.6,94.729h92.373C198.477,151.788,198.729,216.769,173.95,274.924Zm19.132-.337c4.888-12.558,12.727-44.332,12.811-44.838a89.8,89.8,0,0,1,14.749,49.642,91.312,91.312,0,0,1-8.175,37.758,83.213,83.213,0,0,0-19.385-42.562Z" transform="translate(-13.815 3.396)" fill="#fff" stroke="#707070" stroke-width="1"/>
          <path id="Path_30" data-name="Path 30" d="M209.265,205.644c6.658-73.831-19.132-149.095-73.241-203.2a9.016,9.016,0,0,0-12.389,0c-54.109,54.109-79.9,129.289-73.241,203.2a108.216,108.216,0,0,0,.927,148.421c4.72,4.973,16.772,2.7,14.834-8.26-1.011-5.731-2.276-11.294-2.276-16.772a65.2,65.2,0,0,1,11.8-37.59,8.957,8.957,0,0,0,4.214,1.1h99.874a8.957,8.957,0,0,0,4.214-1.1,65.2,65.2,0,0,1,11.8,37.59c0,5.478-1.433,10.957-2.276,16.772-1.77,12.137,10.872,12.558,14.834,8.26a108.216,108.216,0,0,0,.927-148.421ZM129.787,21.319a234.526,234.526,0,0,1,38.433,55.963H91.438a230.129,230.129,0,0,1,38.348-55.963Zm-82.6,295.83a91.07,91.07,0,0,1,6.574-87.4c.084.674,9.271,35.82,12.811,44.838A81.866,81.866,0,0,0,47.19,317.149Zm126.76-42.225H85.623C60.844,216.769,61.1,151.788,83.6,94.729h92.373C198.477,151.788,198.729,216.769,173.95,274.924Zm19.132-.337c4.888-12.558,12.727-44.332,12.811-44.838a89.8,89.8,0,0,1,14.749,49.642,91.312,91.312,0,0,1-8.175,37.758,83.213,83.213,0,0,0-19.385-42.562Z" transform="translate(-21.4 0.025)" fill="#373f54"/>
          <path id="Path_31" data-name="Path 31" d="M106.265,364.5a8.759,8.759,0,0,0-8.765,8.765v44.079a8.765,8.765,0,0,0,17.531,0V373.265A8.759,8.759,0,0,0,106.265,364.5Z" transform="translate(-33.361 -57.271)" fill="#373f54"/>
          <path id="Path_32" data-name="Path 32" d="M148.35,364.5a8.791,8.791,0,0,0-6.237,2.613l-.084.084a8.808,8.808,0,0,0-2.191,3.877,10.624,10.624,0,0,0-.337,2.36v88.075a8.312,8.312,0,0,0,.253,2.023,8.745,8.745,0,0,0,17.025,0,8.312,8.312,0,0,0,.253-2.023V373.265a7.271,7.271,0,0,0-.337-2.36A8.526,8.526,0,0,0,148.35,364.5Z" transform="translate(-39.963 -57.271)" fill="#373f54"/>
          <path id="Path_33" data-name="Path 33" d="M190.465,364.5a8.759,8.759,0,0,0-8.765,8.765v44.079a8.765,8.765,0,0,0,17.531,0V373.265A8.653,8.653,0,0,0,190.465,364.5Z" transform="translate(-46.596 -57.271)" fill="#373f54"/>
        </g>
      </g>
      <g id="Group_1488" data-name="Group 1488" transform="translate(85.546 132.656)">
        <path id="Path_34" data-name="Path 34" d="M143.051,240.5A41.551,41.551,0,1,1,184.6,198.951,41.581,41.581,0,0,1,143.051,240.5Zm0-70.46a28.909,28.909,0,1,0,28.909,28.909A28.956,28.956,0,0,0,143.051,170.042Z" transform="translate(-101.5 -157.4)" fill="#373f54"/>
      </g>
      <circle id="Ellipse_9" data-name="Ellipse 9" cx="12.137" cy="12.137" r="12.137" transform="translate(0 174.207)" fill="#ff8d90"/>
      <circle id="Ellipse_10" data-name="Ellipse 10" cx="4.636" cy="4.636" r="4.636" transform="translate(26.802 193.845)" fill="#ff8d90"/>
      <circle id="Ellipse_11" data-name="Ellipse 11" cx="12.137" cy="12.137" r="12.137" transform="translate(171.261 12.217)" fill="#ff8d90"/>
      <circle id="Ellipse_12" data-name="Ellipse 12" cx="4.636" cy="4.636" r="4.636" transform="translate(185.083 44.666)" fill="#ff8d90"/>
      <circle id="Ellipse_13" data-name="Ellipse 13" cx="12.137" cy="12.137" r="12.137" transform="translate(153.225 384.069)" fill="#ff8d90"/>
      <circle id="Ellipse_14" data-name="Ellipse 14" cx="4.636" cy="4.636" r="4.636" transform="translate(178.762 368.898)" fill="#ff657a" opacity="0.38"/>
    </g>
  </g>
</svg>
