<svg xmlns="http://www.w3.org/2000/svg" width="744.38" height="449.234" viewBox="0 0 744.38 449.234">
  <g id="Component_29_1" data-name="Component 29 – 1" transform="translate(0 1.567)">
    <g id="Group_3219" data-name="Group 3219" transform="translate(-3149.768 -4196.268)">
      <g id="Group_3211" data-name="Group 3211">
        <path id="Path_4667" data-name="Path 4667" d="M3322.986,4629.914s-105.111-44.271-102.667-133.591,101.037-103.3,168.667-48.155S3521.8,4487,3556.838,4440.4s58.389-162.824,156.444-123.494c73.114,29.327,122.2,108.051,138.052,179.008,10.9,48.766-4.9,100.279-42.987,132.453q-1.859,1.569-3.806,3.1Z" fill="#bdc7e0"/>
        <path id="Path_4668" data-name="Path 4668" d="M3304.766,4635.5s-108.713-46.559-106.185-140.5,104.5-108.639,174.446-50.644,137.366,40.842,173.6-8.168,60.389-171.24,161.8-129.877c75.62,30.843,126.382,113.635,142.783,188.26,11.271,51.287-5.064,105.461-44.461,139.3q-1.922,1.652-3.936,3.26" fill="none" stroke="#a3adc1" stroke-miterlimit="10" stroke-width="3.135"/>
      </g>
      <g id="Group_3217" data-name="Group 3217">
        <g id="Group_3212" data-name="Group 3212">
          <path id="Path_4669" data-name="Path 4669" d="M3453.991,4277.8l127.483.531a29.394,29.394,0,0,1,29.2,31.462l-20.7,293.626a28.941,28.941,0,0,1-28.869,26.906H3431.514a28.941,28.941,0,0,1-28.861-31.089l21.9-294.222A29.4,29.4,0,0,1,3453.991,4277.8Z" fill="#f1f2ff"/>
          <path id="Path_4670" data-name="Path 4670" d="M3453.991,4277.8l127.483.531a29.394,29.394,0,0,1,29.2,31.462l-20.7,293.626a28.941,28.941,0,0,1-28.869,26.906H3431.514a28.941,28.941,0,0,1-28.861-31.089l21.9-294.222A29.4,29.4,0,0,1,3453.991,4277.8Z" fill="#9cb9f5"/>
          <path id="Path_4671" data-name="Path 4671" d="M3439.668,4277.8l127.482.531a29.394,29.394,0,0,1,29.2,31.462l-20.7,293.626a28.942,28.942,0,0,1-28.87,26.906H3417.19a28.941,28.941,0,0,1-28.861-31.089l21.9-294.222A29.4,29.4,0,0,1,3439.668,4277.8Z" fill="#3662c1"/>
          <path id="Path_4672" data-name="Path 4672" d="M3430.028,4304.694h145.789l-17.539,280.067-146.336,1.1Z" fill="#fff"/>
          <path id="Path_4673" data-name="Path 4673" d="M3478.632,4621.007a14.477,14.477,0,1,1,14.478-14.477A14.494,14.494,0,0,1,3478.632,4621.007Zm0-26.916a12.439,12.439,0,1,0,12.44,12.439A12.454,12.454,0,0,0,3478.632,4594.091Z" fill="#8592c8"/>
          <path id="Path_4674" data-name="Path 4674" d="M3516.293,4294.32h-24.451a2.479,2.479,0,0,1-2.478-2.478h0a2.478,2.478,0,0,1,2.478-2.478h24.451a2.478,2.478,0,0,1,2.478,2.478h0A2.479,2.479,0,0,1,3516.293,4294.32Z" fill="#8592c8"/>
        </g>
        <g id="Group_3213" data-name="Group 3213">
          <path id="Path_4675" data-name="Path 4675" d="M3557.943,4376.885H3439.6a5.388,5.388,0,0,1-5.381-5.654l1.587-32.095a5.388,5.388,0,0,1,5.381-5.122h118.338a5.389,5.389,0,0,1,5.382,5.654l-1.587,32.1A5.388,5.388,0,0,1,3557.943,4376.885Z" fill="#d7ddfb"/>
          <path id="Path_4676" data-name="Path 4676" d="M3525.291,4376.988h32.657a5.358,5.358,0,0,0,5.351-5.091l1.61-32.257a5.358,5.358,0,0,0-5.351-5.626H3526.9a5.359,5.359,0,0,0-5.352,5.092l-1.61,32.257A5.359,5.359,0,0,0,3525.291,4376.988Z" fill="#c6cbe9"/>
          <path id="Path_4677" data-name="Path 4677" d="M3514.27,4344.919h-67.318a.8.8,0,1,1,0-1.609h67.318a.8.8,0,1,1,0,1.609Z" fill="#8592c8"/>
          <path id="Path_4678" data-name="Path 4678" d="M3513.738,4355.658h-67.316a.8.8,0,1,1,0-1.609h67.316a.8.8,0,1,1,0,1.609Z" fill="#8592c8"/>
          <path id="Path_4679" data-name="Path 4679" d="M3479.147,4366.4h-33.256a.8.8,0,1,1,0-1.609h33.256a.8.8,0,1,1,0,1.609Z" fill="#8592c8"/>
        </g>
        <g id="Group_3214" data-name="Group 3214">
          <path id="Path_4680" data-name="Path 4680" d="M3553.754,4437.563H3435.416a5.388,5.388,0,0,1-5.381-5.654l1.586-32.1a5.388,5.388,0,0,1,5.381-5.122h118.339a5.388,5.388,0,0,1,5.381,5.654l-1.587,32.095A5.389,5.389,0,0,1,3553.754,4437.563Z" fill="#d7ddfb"/>
          <path id="Path_4681" data-name="Path 4681" d="M3521.1,4437.666h32.657a5.359,5.359,0,0,0,5.352-5.091l1.61-32.257a5.359,5.359,0,0,0-5.352-5.626h-32.657a5.358,5.358,0,0,0-5.351,5.092l-1.61,32.257A5.358,5.358,0,0,0,3521.1,4437.666Z" fill="#c6cbe9"/>
          <path id="Path_4682" data-name="Path 4682" d="M3510.081,4405.6h-67.318a.8.8,0,0,1,0-1.609h67.318a.8.8,0,1,1,0,1.609Z" fill="#8592c8"/>
          <path id="Path_4683" data-name="Path 4683" d="M3509.55,4416.336h-67.317a.8.8,0,1,1,0-1.609h67.317a.8.8,0,1,1,0,1.609Z" fill="#8592c8"/>
          <path id="Path_4684" data-name="Path 4684" d="M3474.959,4427.076H3441.7a.8.8,0,1,1,0-1.609h33.256a.8.8,0,0,1,0,1.609Z" fill="#8592c8"/>
        </g>
        <path id="Path_4685" data-name="Path 4685" d="M3430.028,4304.694l-18.086,281.164h-2.952l18.13-281.164Z" fill="#a9b0d4"/>
        <g id="Group_3215" data-name="Group 3215">
          <path id="Path_4686" data-name="Path 4686" d="M3554.011,4356.583a13.4,13.4,0,1,1-12.444-14.293A13.4,13.4,0,0,1,3554.011,4356.583Z" fill="#fff"/>
          <path id="Path_4687" data-name="Path 4687" d="M3538.244,4360.815a1.2,1.2,0,0,1-.761-.342l-4.5-4.423a1.2,1.2,0,0,1,1.688-1.716l3.736,3.673,8.582-6.912a1.2,1.2,0,1,1,1.509,1.874l-9.415,7.583A1.2,1.2,0,0,1,3538.244,4360.815Z" fill="#c6cbe9"/>
        </g>
        <g id="Group_3216" data-name="Group 3216">
          <path id="Path_4688" data-name="Path 4688" d="M3550.862,4417.26a13.4,13.4,0,1,1-12.444-14.292A13.4,13.4,0,0,1,3550.862,4417.26Z" fill="#fff"/>
          <path id="Path_4689" data-name="Path 4689" d="M3535.095,4421.493a1.2,1.2,0,0,1-.761-.342l-4.5-4.423a1.2,1.2,0,1,1,1.687-1.717l3.736,3.673,8.582-6.911a1.2,1.2,0,0,1,1.509,1.874l-9.415,7.583A1.209,1.209,0,0,1,3535.095,4421.493Z" fill="#c6cbe9"/>
        </g>
      </g>
      <g id="Group_3218" data-name="Group 3218">
        <path id="Path_4690" data-name="Path 4690" d="M3532.768,4522.686l-106.112,14.065a5.271,5.271,0,0,1-5.919-4.533l-3.744-28.247a5.273,5.273,0,0,1,4.533-5.919l106.112-14.066a5.273,5.273,0,0,1,5.919,4.534l3.744,28.247A5.272,5.272,0,0,1,3532.768,4522.686Z" fill="#b8b8b8" opacity="0.12" style="mix-blend-mode: multiply;isolation: isolate"/>
        <rect id="Rectangle_833" data-name="Rectangle 833" width="117.584" height="39.038" rx="5.272" transform="translate(3408.721 4485.96) rotate(-7.551)" fill="#d7ddfb"/>
        <path id="Path_4691" data-name="Path 4691" d="M3420.21,4494.449a.734.734,0,0,1-.1-1.46l60.767-8.057a.7.7,0,0,1,.823.629.728.728,0,0,1-.628.823l-60.767,8.057A.672.672,0,0,1,3420.21,4494.449Z" fill="#8592c8"/>
        <path id="Path_4692" data-name="Path 4692" d="M3421.5,4504.144a.733.733,0,0,1-.1-1.459l60.767-8.057a.7.7,0,0,1,.824.628.728.728,0,0,1-.628.823l-60.767,8.057A.694.694,0,0,1,3421.5,4504.144Z" fill="#8592c8"/>
        <path id="Path_4693" data-name="Path 4693" d="M3422.78,4513.837a.733.733,0,0,1-.1-1.459l30.066-4.024a.705.705,0,0,1,.824.628.73.73,0,0,1-.628.824l-30.066,4.023A.683.683,0,0,1,3422.78,4513.837Z" fill="#8592c8"/>
      </g>
    </g>
    <path id="Path_4694" data-name="Path 4694" d="M3149.769,4643.935h744.378v-13.609h-744.38v13.609Z" transform="translate(-3149.768 -4196.268)" fill="#333354"/>
    <g id="Group_3225" data-name="Group 3225" transform="translate(-3149.768 -4196.268)">
      <g id="Group_3222" data-name="Group 3222">
        <g id="Group_3221" data-name="Group 3221">
          <g id="Group_3220" data-name="Group 3220">
            <circle id="Ellipse_588" data-name="Ellipse 588" cx="24.934" cy="24.934" r="24.934" transform="matrix(0.438, -0.899, 0.899, 0.438, 3537.391, 4402.821)" fill="#fb7484"/>
            <path id="Path_4695" data-name="Path 4695" d="M3566.268,4400.936a2.241,2.241,0,0,1-1.415-.636l-8.375-8.23a2.239,2.239,0,1,1,3.14-3.194l6.952,6.834,15.968-12.86a2.239,2.239,0,1,1,2.809,3.487l-17.52,14.109A2.234,2.234,0,0,1,3566.268,4400.936Z" fill="#f2f7ff"/>
          </g>
        </g>
      </g>
      <path id="Path_4696" data-name="Path 4696" d="M3601.3,4394.428c-1.729-1.221-5.65-3.907-5.854-3.308a2.639,2.639,0,0,0,.533,1.922c-2.371-.885-4.779-1.467-10.474-.373a4.266,4.266,0,0,0-2.8,1.844,1.882,1.882,0,0,0,.655,2.938c2.906,1.807,2.063.724,6.1,3.355s8.983,3.3,11.938,1.457l3.964-.661.492-6.521S3603.591,4394.811,3601.3,4394.428Z" fill="#fa997b"/>
      <path id="Path_4697" data-name="Path 4697" d="M3705.186,4339.733s-9.346,11.088-21.249,6.449c0,0-2.561-6.192-2.6-10.757,0-.562-.011-1.107-.02-1.624-.063-5.141-.236-8.026-.236-8.026l.012,0c.541-.226,18.2-7.474,18.18-6.872C3698.973,4332.805,3705.186,4339.733,3705.186,4339.733Z" fill="#fa997b"/>
      <path id="Path_4698" data-name="Path 4698" d="M3697.5,4322.216c-1.7,3.156-7.544,9.329-16.184,11.585-.063-5.141-.236-8.026-.236-8.026l.012,0C3681.584,4325.642,3698.01,4321.286,3697.5,4322.216Z" fill="#ef5d23"/>
      <path id="Path_4699" data-name="Path 4699" d="M3677.386,4325.241s19.854,4.668,22.57-7.741,7.108-20.162-5.453-23.667-16.068.689-17.982,4.61S3672.292,4323.707,3677.386,4325.241Z" fill="#fa997b"/>
      <path id="Path_4700" data-name="Path 4700" d="M3699.277,4320.881c.271.174,4.543,1.486,12.633-14.63a14.037,14.037,0,0,0-.825-12.839c-2.96-4.836-11.227-8.638-19.948-10.293s-13.781,1.811-15.879,6.724c-.96,2.246-1.893,3.626-1.543,6.762.583,5.233,10.519,2.33,13.657,3.319s4.247,5.933,4.482,7.519.866,1.339,4.066,1c4.935-.532,2.06,6.006,1.63,7.423A4.233,4.233,0,0,0,3699.277,4320.881Z" fill="#a9453e"/>
      <g id="Group_3223" data-name="Group 3223">
        <path id="Path_4701" data-name="Path 4701" d="M3750.42,4630.32h12.022c2.52,0,5.32-2.523,6.021-7.143s5.881-7.143,7-10.924-4.622-9.106-4.622-9.106l-.961-1.234-1-1.286-9.522,2.24s-.235,2.267-.382,5.155a65.911,65.911,0,0,0-.039,6.61c.281,5.044-1.412,10.473-5.891,11.454S3750.42,4630.32,3750.42,4630.32Z" fill="#2d3a64"/>
        <path id="Path_4702" data-name="Path 4702" d="M3666.731,4630.32H3698.6a2.851,2.851,0,0,0,.677-.2c2.128-1.066,1.461-9.211,1.206-11.727-.049-.466-.085-.74-.085-.74s-11.205-8.962-12.747-2.1c-.049.214-.1.425-.164.632v0c-1.946,6.421-10.641,9.337-15.663,10.15C3667.983,4626.966,3666.987,4629.2,3666.731,4630.32Z" fill="#2d3a64"/>
        <path id="Path_4703" data-name="Path 4703" d="M3673.154,4446.56s1.7,21.231,3.7,46.753c2.719,34.669,5.988,77.255,6.311,85.322.559,14.009,2.8,36.417,2.8,36.417s5.319,5.324,15.967,3.08c0,0,9.487-31.988,12.2-65.834.041-.555.084-1.113.125-1.672,2.521-34.455,6.442-107.007,6.442-107.007Z" fill="#2b478b"/>
        <path id="Path_4704" data-name="Path 4704" d="M3673.154,4446.56s1.7,21.231,3.7,46.753l37.279,58.985c.041-.555.084-1.113.125-1.672,2.521-34.455,6.442-107.007,6.442-107.007Z" fill="#233862"/>
        <path id="Path_4705" data-name="Path 4705" d="M3680.925,4449.081s30.674,76.893,50.842,113.029,26.471,46.219,26.471,46.219,11.556-4.622,12.606-7.773c0,0-7.712-69.761-21.219-86.767-7.632-9.61-16.6-38.447-17.017-48.531s-2.732-30.043-2.732-30.043Z" fill="#2b478b"/>
      </g>
      <g id="Group_3224" data-name="Group 3224">
        <path id="Path_4706" data-name="Path 4706" d="M3750.877,4435.11l.324,4.946a10.654,10.654,0,0,0,5.877,13.291s3.911,1.578,4.07-1.467-.342-1.9-.024-6.188-1.368-8.341-4.205-9.706l-2.327-2.685Z" fill="#fa997b"/>
        <path id="Path_4707" data-name="Path 4707" d="M3754.446,4438.711c-3.4,1.09-3.939.844-3.939.844s-16.525-30.085-18.2-32.84-35.085-33.736-35.085-33.736l8.586-32.018s38,49.209,42.1,56.27c6.78,11.669,10.754,38.768,10.754,38.768A9.936,9.936,0,0,1,3754.446,4438.711Z" fill="#1d3e70"/>
      </g>
      <path id="Path_4708" data-name="Path 4708" d="M3666.679,4385.549c.119,6.575.5,13.967,1.016,21.474q.048.669.095,1.336c.329,4.651.687,9.312,1.1,13.858.165,1.822.34,3.624.522,5.394l.028.238c.014.663.095,1.381.168,2.036,1.676,17.027,3.431,30.479,3.758,30.685a1.9,1.9,0,0,0,1.307.333c4.465-.561,17.787.452,28.694-1.92,9.2-1.942,17.128-5.622,25.526-10.585,1.114-.659,3.656-2.4,3.449-3.708-.2-1.434-.579-3.5-1.055-6.109a330.389,330.389,0,0,1-5.485-42.868q-.285-5.094-.824-10.048a152.518,152.518,0,0,0-4.448-24c-3.74-13.465-9.235-23.776-16.129-27.81-.9-.5-5.748,2.579-10.2,5.435a19.65,19.65,0,0,1-12.649,3l-3.705,4.1c-4.486,5.215-9.263,12.159-10.567,22.028q-.147,1.094-.252,2.327A144.708,144.708,0,0,0,3666.679,4385.549Z" fill="#2a4e96"/>
      <path id="Path_4709" data-name="Path 4709" d="M3666.679,4385.549c.119,6.575.5,13.967,1.016,21.474q.048.669.095,1.336c25.5-15.965,29.434-45.178,29.434-45.178-12.548.551-22.516,3.435-30.2,7.56A144.708,144.708,0,0,0,3666.679,4385.549Z" fill="#1d3e70"/>
      <path id="Path_4710" data-name="Path 4710" d="M3602.237,4398.125c-.263-3.783,1.7-4.412,1.7-4.412s38.455-6.969,41.724-8,31.221-30.107,31.221-30.107,10.715-12.083,19.488-9.415c7.624,2.319,10.6,8.266,11.618,13.931a16.687,16.687,0,0,1-7.749,17.13c-13.123,8.049-39.4,23.908-45.583,25.722-13.771,4.038-50.772.324-50.772.324A11.945,11.945,0,0,1,3602.237,4398.125Z" fill="#2a4e96"/>
    </g>
    <path id="Path_4711" data-name="Path 4711" d="M3696.766,4311.279c-.429.429-.977.577-1.226.33s-.1-.8.328-1.228.978-.574,1.225-.327S3697.2,4310.851,3696.766,4311.279Z" transform="translate(-3149.768 -4196.268)" fill="#ef5d23"/>
    <path id="Path_4712" data-name="Path 4712" d="M3357.1,4302.353a10.83,10.83,0,0,0-2.617-.1c0-.01,0-.02,0-.03a2.606,2.606,0,0,0-2.606-2.606c-.031,0-.059.008-.089.009a5.587,5.587,0,0,0-4.872-6.545,10.5,10.5,0,0,0-18.664-8.667,7.423,7.423,0,0,0-5.86-.32c.02-.293.044-.585.044-.884a12.415,12.415,0,1,0-24.829,0c0,.354.024.7.053,1.047a2.556,2.556,0,0,0-3.1,1.519,7.5,7.5,0,0,0-9.021,9.606,2.54,2.54,0,0,0-2.8,1.48,5.34,5.34,0,0,0-9.075,3.818v.007a2.563,2.563,0,0,0-3.5,1c-.266-.082-6.028-1.817-10.763.76a9.329,9.329,0,0,0-4.555,5.484h106.957A5.228,5.228,0,0,0,3357.1,4302.353Z" transform="translate(-3149.768 -4196.268)" fill="none" stroke="#a3adc1" stroke-miterlimit="10" stroke-width="3.135" fill-rule="evenodd"/>
    <path id="Path_4713" data-name="Path 4713" d="M3395.633,4245.526h141.861a12.377,12.377,0,0,0-6.042-7.274c-6.28-3.418-13.924-1.117-14.276-1.008a3.4,3.4,0,0,0-4.635-1.33v-.009a7.083,7.083,0,0,0-12.037-5.065,3.369,3.369,0,0,0-3.713-1.963,9.934,9.934,0,0,0-11.966-12.74,3.384,3.384,0,0,0-4.114-2.014c.039-.459.071-.92.071-1.389a16.466,16.466,0,0,0-32.932,0c0,.4.031.783.059,1.172a9.855,9.855,0,0,0-7.773.424,13.924,13.924,0,0,0-24.755,11.5,7.415,7.415,0,0,0-6.462,8.68c-.04,0-.077-.012-.117-.012a3.456,3.456,0,0,0-3.456,3.457c0,.013,0,.026,0,.04a14.321,14.321,0,0,0-3.472.134A6.935,6.935,0,0,0,3395.633,4245.526Z" transform="translate(-3149.768 -4196.268)" fill="none" stroke="#a3adc1" stroke-miterlimit="10" stroke-width="3.135" fill-rule="evenodd"/>
  </g>
</svg>
