<svg xmlns="http://www.w3.org/2000/svg" width="30.951" height="31.401" viewBox="0 0 30.951 31.401">
  <g id="Component_48_1" data-name="Component 48 – 1" transform="translate(1 1)">
    <circle id="Ellipse_227" data-name="Ellipse 227" cx="12.485" cy="12.485" r="12.485" transform="translate(1 2.523)" fill="#f4a196"/>
    <path id="amazon-icon" d="M.035,13.668q.088-.141.282-.018A18.765,18.765,0,0,0,9.9,16.2a18.956,18.956,0,0,0,6.816-1.286l.255-.106q.167-.07.238-.106a.314.314,0,0,1,.414.106q.15.211-.1.387-.317.229-.81.528a13.2,13.2,0,0,1-3.382,1.391,14.245,14.245,0,0,1-3.646.493,14.106,14.106,0,0,1-5.2-.96,14.308,14.308,0,0,1-4.386-2.7A.24.24,0,0,1,0,13.774.189.189,0,0,1,.035,13.668Zm5.3-5.02a3.555,3.555,0,0,1,.6-2.078,3.7,3.7,0,0,1,1.638-1.3,8.862,8.862,0,0,1,2.343-.581q.476-.053,1.55-.141v-.3A3.136,3.136,0,0,0,11.22,2.73,1.32,1.32,0,0,0,10.057,2.2H9.916a1.927,1.927,0,0,0-1,.37,1.444,1.444,0,0,0-.546.881.447.447,0,0,1-.352.405L5.989,3.611q-.3-.07-.3-.317a.517.517,0,0,1,.018-.123A3.376,3.376,0,0,1,7.177.845,5.52,5.52,0,0,1,9.916,0h.44a4.451,4.451,0,0,1,3.135,1.039,3.356,3.356,0,0,1,.326.379,3.412,3.412,0,0,1,.238.361,1.848,1.848,0,0,1,.159.458q.07.3.106.414a2.515,2.515,0,0,1,.053.493q.018.379.018.449V7.856a2.526,2.526,0,0,0,.132.837,2.179,2.179,0,0,0,.255.546q.123.167.405.537a.527.527,0,0,1,.106.282.3.3,0,0,1-.141.247l-1.585,1.374a.491.491,0,0,1-.511.035q-.247-.211-.432-.405t-.264-.282a3.933,3.933,0,0,1-.255-.343q-.176-.255-.247-.343a4.325,4.325,0,0,1-1.937,1.339,5.317,5.317,0,0,1-1.48.176,3.086,3.086,0,0,1-2.228-.837A3.129,3.129,0,0,1,5.337,8.648ZM8.366,8.3A1.669,1.669,0,0,0,8.71,9.4a1.139,1.139,0,0,0,.925.414.9.9,0,0,0,.15-.018.9.9,0,0,1,.132-.018,1.79,1.79,0,0,0,1.145-.951,2.757,2.757,0,0,0,.291-.731,3.347,3.347,0,0,0,.106-.643q.009-.247.009-.81V6.2a6.417,6.417,0,0,0-1.55.141A1.888,1.888,0,0,0,8.366,8.3Zm7.4,5.671a.552.552,0,0,1,.106-.141,2.765,2.765,0,0,1,.845-.405,5.742,5.742,0,0,1,1.3-.194,1.052,1.052,0,0,1,.335.018q.793.07.951.264a.577.577,0,0,1,.07.317v.123A4.015,4.015,0,0,1,19.04,15.4a3.382,3.382,0,0,1-.934,1.347.266.266,0,0,1-.159.07.156.156,0,0,1-.07-.018q-.106-.053-.053-.194a6.721,6.721,0,0,0,.652-2.131.452.452,0,0,0-.07-.282q-.176-.211-.986-.211-.3,0-.7.035-.44.053-.81.106a.2.2,0,0,1-.141-.035.058.058,0,0,1-.018-.07A.135.135,0,0,1,15.764,13.967Z" transform="translate(3.69 5.387)"/>
    <circle id="Ellipse_226" data-name="Ellipse 226" cx="13.746" cy="13.746" r="13.746" fill="none" stroke="#000" stroke-miterlimit="10" stroke-width="2"/>
    <circle id="Ellipse_228" data-name="Ellipse 228" cx="2.458" cy="2.458" r="2.458" transform="translate(25.035 23.868)" fill="#f4a196"/>
    <circle id="Ellipse_229" data-name="Ellipse 229" cx="1.164" cy="1.164" r="1.164" transform="translate(21.218 28.073)" fill="#f4a196"/>
  </g>
</svg>
