<svg id="Component_8_1" data-name="Component 8 – 1" xmlns="http://www.w3.org/2000/svg" width="332.381" height="367.36" viewBox="0 0 332.381 367.36">
  <circle id="Ellipse_11" data-name="Ellipse 11" cx="17.931" cy="17.931" r="17.931" transform="translate(0 24.32)" fill="#9992cc" style="isolation: isolate"/>
  <circle id="Ellipse_12" data-name="Ellipse 12" cx="7.543" cy="7.543" r="7.543" transform="translate(38.805 60.183)" fill="#9992cc" style="isolation: isolate"/>
  <circle id="Ellipse_12-2" data-name="Ellipse 12" cx="7.543" cy="7.543" r="7.543" transform="translate(257.084 349.879)" fill="#9992cc" style="isolation: isolate"/>
  <path id="Rectangle_817" data-name="Rectangle 817" d="M26.129,0h218.8a26.129,26.129,0,0,1,26.129,26.129V62.471a0,0,0,0,1,0,0H0a0,0,0,0,1,0,0V26.129A26.129,26.129,0,0,1,26.129,0Z" transform="translate(14.54 245.625)" fill="#9992cc"/>
  <path id="Path_4503" data-name="Path 4503" d="M586.728,188.366q-.837-2.34-1.8-4.638a7.379,7.379,0,0,1,1.59-8.063l10.4-10.4a7.386,7.386,0,0,0,0-10.446l-34.78-34.78a7.386,7.386,0,0,0-10.446,0l-10.4,10.4a7.381,7.381,0,0,1-8.064,1.59l-.091-.038a7.377,7.377,0,0,1-4.546-6.813V109.762a7.387,7.387,0,0,0-7.387-7.387H472.024a7.386,7.386,0,0,0-7.386,7.387v15.417a7.379,7.379,0,0,1-4.546,6.813l-.092.038a7.38,7.38,0,0,1-8.063-1.59l-10.4-10.4a7.387,7.387,0,0,0-10.447,0l-34.78,34.78a7.387,7.387,0,0,0,0,10.446l10.4,10.4a7.379,7.379,0,0,1,1.59,8.063l-.038.091a7.378,7.378,0,0,1-6.813,4.547H344.105a7.386,7.386,0,0,0-7.387,7.386V416.209a7.386,7.386,0,0,0,7.387,7.386H457.251a7.387,7.387,0,0,1,7.387,7.387v6.547a7.386,7.386,0,0,1-7.387,7.386H429.384A7.386,7.386,0,0,0,422,452.3v6.547a7.386,7.386,0,0,0,7.386,7.386H563.851a7.386,7.386,0,0,0,7.386-7.386V452.3a7.386,7.386,0,0,0-7.386-7.387H535.984a7.386,7.386,0,0,1-7.386-7.386v-6.547a7.386,7.386,0,0,1,7.386-7.387H649.131a7.386,7.386,0,0,0,7.386-7.386V195.752a7.386,7.386,0,0,0-7.386-7.386Zm-178.663,21.32H416.9a7.386,7.386,0,0,0,7.149-5.529l.637-2.45a76.61,76.61,0,0,1,9.163-21.111,7.394,7.394,0,0,0-1.1-9.047l-6.283-6.282a7.387,7.387,0,0,1,0-10.446l4.628-4.629a7.387,7.387,0,0,1,10.447,0l6.284,6.284a7.392,7.392,0,0,0,9.045,1.1,76.721,76.721,0,0,1,21.112-9.164l2.45-.637a7.386,7.386,0,0,0,5.529-7.149v-9.542a7.386,7.386,0,0,1,7.386-7.387h6.547a7.387,7.387,0,0,1,7.387,7.387v9.543a7.385,7.385,0,0,0,5.527,7.148l2.448.637a76.68,76.68,0,0,1,21.112,9.164,7.391,7.391,0,0,0,9.045-1.1l6.286-6.285a7.387,7.387,0,0,1,10.445,0l4.63,4.628a7.388,7.388,0,0,1,0,10.447l-6.286,6.286a7.393,7.393,0,0,0-1.1,9.044,76.739,76.739,0,0,1,9.165,21.112l.637,2.448a7.387,7.387,0,0,0,7.149,5.528h8.832a7.386,7.386,0,0,1,7.386,7.386v6.547a7.387,7.387,0,0,1-7.386,7.387h-8.832a7.386,7.386,0,0,0-7.149,5.527l-.637,2.448a76.679,76.679,0,0,1-9.164,21.114,7.393,7.393,0,0,0,1.1,9.046l6.284,6.283a7.387,7.387,0,0,1,0,10.446l-4.63,4.629a7.386,7.386,0,0,1-10.446,0l-6.282-6.283a7.393,7.393,0,0,0-9.046-1.1,76.752,76.752,0,0,1-21.112,9.163l-2.45.637a7.385,7.385,0,0,0-5.528,7.149v9.542A7.387,7.387,0,0,1,499.891,317h-6.547a7.386,7.386,0,0,1-7.386-7.387v-9.542a7.386,7.386,0,0,0-5.529-7.149l-2.45-.637a76.67,76.67,0,0,1-21.111-9.162,7.392,7.392,0,0,0-9.046,1.1l-6.283,6.283a7.386,7.386,0,0,1-10.446,0l-4.629-4.628a7.386,7.386,0,0,1,0-10.446l6.284-6.285a7.391,7.391,0,0,0,1.1-9.045,76.8,76.8,0,0,1-9.164-21.112l-.637-2.45a7.385,7.385,0,0,0-7.149-5.528h-8.831a7.387,7.387,0,0,1-7.387-7.387v-6.547A7.386,7.386,0,0,1,408.065,209.686Zm91.826,235.229h-6.547a7.386,7.386,0,0,1-7.386-7.386v-6.547a7.386,7.386,0,0,1,7.386-7.387h6.547a7.387,7.387,0,0,1,7.387,7.387v6.547A7.386,7.386,0,0,1,499.891,444.915ZM358.038,394.889v-6.547a7.386,7.386,0,0,1,7.387-7.386H627.811a7.386,7.386,0,0,1,7.386,7.386v6.547a7.387,7.387,0,0,1-7.386,7.387H365.425A7.387,7.387,0,0,1,358.038,394.889ZM635.2,217.072V352.249a7.386,7.386,0,0,1-7.386,7.387H365.425a7.387,7.387,0,0,1-7.387-7.387V217.072a7.386,7.386,0,0,1,7.387-7.386h6.547a7.386,7.386,0,0,1,7.386,7.386v27.867a7.386,7.386,0,0,0,7.387,7.386h14.706a7.378,7.378,0,0,1,6.813,4.547l.038.091a7.379,7.379,0,0,1-1.59,8.063l-10.4,10.4a7.387,7.387,0,0,0,0,10.446l34.78,34.78a7.387,7.387,0,0,0,10.447,0l10.4-10.4a7.38,7.38,0,0,1,8.063-1.59l.092.038a7.378,7.378,0,0,1,4.546,6.813v15.417a7.386,7.386,0,0,0,7.386,7.387h49.187a7.387,7.387,0,0,0,7.387-7.387V315.512a7.377,7.377,0,0,1,4.546-6.813l.091-.038a7.381,7.381,0,0,1,8.064,1.59l10.4,10.4a7.386,7.386,0,0,0,10.446,0l34.78-34.78a7.386,7.386,0,0,0,0-10.446l-10.4-10.4a7.379,7.379,0,0,1-1.59-8.063l.038-.091a7.38,7.38,0,0,1,6.813-4.547h14.707a7.386,7.386,0,0,0,7.386-7.386V217.072a7.386,7.386,0,0,1,7.387-7.386h6.547A7.386,7.386,0,0,1,635.2,217.072Zm0-7.386" transform="translate(-324.636 -99.375)" fill="#fff" stroke="#707171" stroke-width="1"/>
  <path id="Path_4504" data-name="Path 4504" d="M576.728,185.366q-.837-2.34-1.8-4.638a7.379,7.379,0,0,1,1.59-8.063l10.4-10.4a7.386,7.386,0,0,0,0-10.446l-34.78-34.78a7.386,7.386,0,0,0-10.446,0l-10.4,10.4a7.381,7.381,0,0,1-8.064,1.59l-.091-.038a7.377,7.377,0,0,1-4.546-6.813V106.762a7.387,7.387,0,0,0-7.387-7.387H462.024a7.386,7.386,0,0,0-7.386,7.387v15.417a7.378,7.378,0,0,1-4.546,6.813l-.092.038a7.38,7.38,0,0,1-8.063-1.59l-10.4-10.4a7.387,7.387,0,0,0-10.447,0l-34.78,34.78a7.387,7.387,0,0,0,0,10.446l10.4,10.4a7.379,7.379,0,0,1,1.59,8.063l-.038.091a7.378,7.378,0,0,1-6.813,4.547H334.105a7.386,7.386,0,0,0-7.387,7.386V413.209a7.386,7.386,0,0,0,7.387,7.386H447.251a7.387,7.387,0,0,1,7.387,7.387v6.547a7.386,7.386,0,0,1-7.387,7.386H419.384A7.386,7.386,0,0,0,412,449.3v6.547a7.386,7.386,0,0,0,7.386,7.386H553.851a7.386,7.386,0,0,0,7.386-7.386V449.3a7.386,7.386,0,0,0-7.386-7.387H525.984a7.386,7.386,0,0,1-7.386-7.386v-6.547a7.386,7.386,0,0,1,7.386-7.387H639.131a7.386,7.386,0,0,0,7.386-7.386V192.752a7.386,7.386,0,0,0-7.386-7.386Zm-178.663,21.32H406.9a7.386,7.386,0,0,0,7.149-5.529l.637-2.45a76.61,76.61,0,0,1,9.163-21.111,7.394,7.394,0,0,0-1.1-9.047l-6.283-6.282a7.387,7.387,0,0,1,0-10.446l4.628-4.629a7.387,7.387,0,0,1,10.447,0l6.284,6.284a7.392,7.392,0,0,0,9.045,1.1,76.721,76.721,0,0,1,21.112-9.164l2.45-.637a7.386,7.386,0,0,0,5.529-7.149v-9.542a7.386,7.386,0,0,1,7.386-7.387h6.547a7.387,7.387,0,0,1,7.387,7.387v9.543a7.385,7.385,0,0,0,5.527,7.148l2.448.637a76.68,76.68,0,0,1,21.112,9.164,7.391,7.391,0,0,0,9.045-1.1l6.286-6.285a7.387,7.387,0,0,1,10.445,0l4.63,4.628a7.388,7.388,0,0,1,0,10.447l-6.286,6.286a7.393,7.393,0,0,0-1.1,9.044,76.739,76.739,0,0,1,9.165,21.112l.637,2.448a7.387,7.387,0,0,0,7.149,5.528h8.832a7.386,7.386,0,0,1,7.386,7.386v6.547a7.387,7.387,0,0,1-7.386,7.387h-8.832a7.386,7.386,0,0,0-7.149,5.527l-.637,2.448a76.679,76.679,0,0,1-9.164,21.114,7.393,7.393,0,0,0,1.1,9.046l6.284,6.283a7.387,7.387,0,0,1,0,10.446l-4.63,4.629a7.386,7.386,0,0,1-10.446,0l-6.282-6.283a7.393,7.393,0,0,0-9.046-1.1,76.753,76.753,0,0,1-21.112,9.163l-2.45.637a7.385,7.385,0,0,0-5.528,7.149v9.542A7.387,7.387,0,0,1,489.891,314h-6.547a7.386,7.386,0,0,1-7.386-7.387v-9.542a7.386,7.386,0,0,0-5.529-7.149l-2.45-.637a76.67,76.67,0,0,1-21.111-9.162,7.392,7.392,0,0,0-9.046,1.1l-6.283,6.283a7.386,7.386,0,0,1-10.446,0l-4.629-4.628a7.386,7.386,0,0,1,0-10.446l6.284-6.285a7.391,7.391,0,0,0,1.1-9.045,76.8,76.8,0,0,1-9.164-21.112l-.637-2.45a7.385,7.385,0,0,0-7.149-5.528h-8.831a7.387,7.387,0,0,1-7.387-7.387v-6.547A7.386,7.386,0,0,1,398.065,206.686Zm91.826,235.229h-6.547a7.386,7.386,0,0,1-7.386-7.386v-6.547a7.386,7.386,0,0,1,7.386-7.387h6.547a7.387,7.387,0,0,1,7.387,7.387v6.547A7.386,7.386,0,0,1,489.891,441.915ZM348.038,391.889v-6.547a7.386,7.386,0,0,1,7.387-7.386H617.811a7.386,7.386,0,0,1,7.386,7.386v6.547a7.387,7.387,0,0,1-7.386,7.387H355.425A7.387,7.387,0,0,1,348.038,391.889ZM625.2,214.072V349.249a7.386,7.386,0,0,1-7.386,7.387H355.425a7.387,7.387,0,0,1-7.387-7.387V214.072a7.386,7.386,0,0,1,7.387-7.386h6.547a7.386,7.386,0,0,1,7.386,7.386v27.867a7.386,7.386,0,0,0,7.387,7.386h14.706a7.378,7.378,0,0,1,6.813,4.547l.038.091a7.379,7.379,0,0,1-1.59,8.063l-10.4,10.4a7.387,7.387,0,0,0,0,10.446l34.78,34.78a7.387,7.387,0,0,0,10.447,0l10.4-10.4a7.38,7.38,0,0,1,8.063-1.59l.092.038a7.378,7.378,0,0,1,4.546,6.813v15.417a7.386,7.386,0,0,0,7.386,7.387h49.187a7.387,7.387,0,0,0,7.387-7.387V312.512a7.377,7.377,0,0,1,4.546-6.813l.091-.038a7.381,7.381,0,0,1,8.064,1.59l10.4,10.4a7.386,7.386,0,0,0,10.446,0l34.78-34.78a7.386,7.386,0,0,0,0-10.446l-10.4-10.4a7.379,7.379,0,0,1-1.59-8.063l.038-.091a7.38,7.38,0,0,1,6.813-4.547h14.707a7.386,7.386,0,0,0,7.386-7.386V214.072a7.386,7.386,0,0,1,7.387-7.386h6.547A7.386,7.386,0,0,1,625.2,214.072Zm0-7.386" transform="translate(-324.636 -99.375)" fill="#383f54"/>
</svg>
