<svg id="Component_25_1" data-name="Component 25 – 1" xmlns="http://www.w3.org/2000/svg" width="347.821" height="302.175" viewBox="0 0 347.821 302.175">
  <g id="Component_20_1" data-name="Component 20 – 1">
    <path id="Path_4601" data-name="Path 4601" d="M622.471,938.519c13.816-11.725,37.426-41.479,78.353-26.779,29.639,10.647,52.052,27.269,21.771,51.591,10.187,10.849-5.51,23.838,7.4,40.229,72.1,91.55,111.44,121.613,111.44,121.613s-23.518,29.734-27.282,28.669-12.485,12.485-12.485,12.485-6.806,13.055-14.335,16.646-23.214-5.425-23.214-5.425l-17.015-8s-5.363,4.888-17.109,10.187-24.508,0-24.508,0l-24.192-16.878s-18.979-8.271-17.254-20.242c-5.334-11.372-23.888-12.57-21.67-29.328-12.37-16.16-18.017-27.287-22.252-33.1S567.158,985.457,622.471,938.519Z" transform="translate(-577.59 -899.237)" fill="#f77b7a"/>
    <g id="Group_3175" data-name="Group 3175">
      <path id="Path_4602" data-name="Path 4602" d="M919.631,954.2a10.266,10.266,0,0,0-6.2-5.019,9.79,9.79,0,0,0-7.791,1.014,10.545,10.545,0,0,0-4.821,6.446,11,11,0,0,0,.974,8.111c18.961,34.721,13.238,78.7-13.923,106.979l-1.491,1.565a29.73,29.73,0,0,0-4.136-5.432l-64.974-67.652a50.621,50.621,0,0,0,8.849-7.322l13.105-13.656a10.994,10.994,0,0,0,0-15.108,10,10,0,0,0-14.512,0L811.6,977.78a28.227,28.227,0,0,1-20.512,8.837H764.88a10.008,10.008,0,0,0-7.25,3.129l-20.067,20.89a11.36,11.36,0,0,1-16.508,0,12.518,12.518,0,0,1,0-17.185l45.808-47.688c26.86-27.962,68.8-34.108,101.969-14.957a10.054,10.054,0,0,0,13.947-4.156,10.96,10.96,0,0,0,.89-8.123,10.5,10.5,0,0,0-4.881-6.4,102.85,102.85,0,0,0-119.234,11.678,103.363,103.363,0,0,0-67.883-25.571c-28.327,0-54.97,11.49-75.013,32.355a113.676,113.676,0,0,0,0,156.182l2.513,2.6c.18.188.373.375.577.551a30.307,30.307,0,0,0,8.1,17,27.973,27.973,0,0,0,17.758,8.624,30.175,30.175,0,0,0,8.3,18.5,27.955,27.955,0,0,0,17.746,8.611,30.144,30.144,0,0,0,8.3,18.5,27.968,27.968,0,0,0,17.77,8.624,30.521,30.521,0,0,0,8.272,18.5,27.9,27.9,0,0,0,40.554,0l6.757-7.034,10,10.426a27.9,27.9,0,0,0,40.554,0,30.411,30.411,0,0,0,8.3-18.725,27.972,27.972,0,0,0,17.987-8.636,30.417,30.417,0,0,0,8.272-18.487,28.013,28.013,0,0,0,17.782-8.636,30.521,30.521,0,0,0,8.272-18.474,28.013,28.013,0,0,0,17.77-8.636,29.563,29.563,0,0,0,5.723-8.511,10.841,10.841,0,0,0,1.515-1.3l12.9-13.43C936.043,1051.79,943.137,997.243,919.631,954.2ZM653.906,1091.818a7.931,7.931,0,0,1-11.542,0,8.724,8.724,0,0,1,0-12l11.47-11.941a7.917,7.917,0,0,1,11.53,0,8.771,8.771,0,0,1,0,12.016Zm26.042,27.123a7.959,7.959,0,0,1-11.542,0,8.771,8.771,0,0,1,0-12.016L679.876,1095a7.931,7.931,0,0,1,11.542,0,8.755,8.755,0,0,1,0,12Zm14.512,27.111a8.724,8.724,0,0,1,0-12l11.458-11.941a7.931,7.931,0,0,1,11.542,0,8.747,8.747,0,0,1,0,12.016l-11.47,11.928A7.924,7.924,0,0,1,694.46,1146.052Zm31.813,29.6a7.952,7.952,0,0,1-5.771-2.478,8.771,8.771,0,0,1,0-12.016l11.47-11.941a7.931,7.931,0,0,1,11.53.012,8.724,8.724,0,0,1,0,12l-11.458,11.941A7.952,7.952,0,0,1,726.274,1175.654Zm141.453-80.682a7.917,7.917,0,0,1-11.53,0l-53.744-55.949a10,10,0,0,0-14.512,0,10.994,10.994,0,0,0,0,15.107l53.744,55.949a8.732,8.732,0,0,1,0,12,7.931,7.931,0,0,1-11.542,0l-53.732-55.937a9.984,9.984,0,0,0-14.512,0,10.979,10.979,0,0,0,0,15.1l53.744,55.949a8.771,8.771,0,0,1,0,12.016,7.958,7.958,0,0,1-11.542,0l-27.69-28.838a10.678,10.678,0,0,0-2.068-1.652l-7.539-7.848a10,10,0,0,0-14.512,0,11.015,11.015,0,0,0,.012,15.108l37.044,38.576a8.747,8.747,0,0,1,0,12.016,7.917,7.917,0,0,1-11.53,0l-12.528-13.042a31.018,31.018,0,0,0,1.13-8.3,30.238,30.238,0,0,0-8.4-21.1,28.012,28.012,0,0,0-17.77-8.636A30.523,30.523,0,0,0,731.973,1107a28,28,0,0,0-17.782-8.624,30.455,30.455,0,0,0-8.272-18.487,28.012,28.012,0,0,0-17.77-8.636,30.523,30.523,0,0,0-8.272-18.475,27.9,27.9,0,0,0-40.554,0l-11.47,11.928c-.493.513-.962,1.051-1.419,1.589a91.775,91.775,0,0,1,4.737-120.61A83.1,83.1,0,0,1,744.633,938.7l-38.09,39.64a34.507,34.507,0,0,0,0,47.4,31.342,31.342,0,0,0,45.532,0l17.061-17.761h21.954c1.443,0,2.91-.063,4.412-.213l72.224,75.187a8.739,8.739,0,0,1,0,12.016Z" transform="translate(-585.59 -898.237)"/>
    </g>
  </g>
  <ellipse id="Ellipse_50" data-name="Ellipse 50" cx="24.946" cy="24.179" rx="24.946" ry="24.179" transform="matrix(0.571, -0.821, 0.821, 0.571, 268.683, 274.12)" fill="#adbfea"/>
  <ellipse id="Ellipse_50-2" data-name="Ellipse 50" cx="11.946" cy="11.679" rx="11.946" ry="11.679" transform="matrix(0.571, -0.821, 0.821, 0.571, 307.683, 26.12)" fill="#f77b7a"/>
  <ellipse id="Ellipse_50-3" data-name="Ellipse 50" cx="24.946" cy="24.179" rx="24.946" ry="24.179" transform="matrix(0.571, -0.821, 0.821, 0.571, 268.683, 274.12)" fill="#f77b7a"/>
</svg>
