<svg id="Component_1_1" data-name="Component 1 – 1" xmlns="http://www.w3.org/2000/svg" width="380.825" height="385" viewBox="0 0 380.825 385">
  <g id="computing" transform="translate(-287.664 -93.589)">
    <g id="Group_336" data-name="Group 336">
      <g id="Group_335" data-name="Group 335">
        <path id="Path_504" data-name="Path 504" d="M642.661,131.359H519.493c-13.982,0-25.359,14-25.359,31.2H322.428c-13.983,0-25.358,14-25.358,31.2V389.886c0,17.2,11.375,31.2,25.358,31.2H494.134c0,17.2,11.375,31.2,25.358,31.2H642.661c13.983,0,25.358-14,25.358-31.2V162.56C668.017,145.356,656.641,131.359,642.661,131.359ZM494.134,394.342H322.428c-2,0-3.623-2-3.623-4.458V376.513H494.134Zm0-44.574H318.8V193.762c0-2.457,1.626-4.457,3.623-4.457H494.134ZM607.669,158.1l-2.9,17.829H557.383l-2.9-17.829Zm38.613,262.982c0,2.458-1.626,4.458-3.623,4.458H519.493c-2,0-3.623-2-3.623-4.458V162.56c0-2.457,1.626-4.457,3.623-4.457h12.825l7.243,44.573h83.027l7.243-44.573h12.83c2,0,3.623,2,3.623,4.457Z" fill="#fff" stroke="#5d5d5d" stroke-width="0.941"/>
      </g>
    </g>
  </g>
  <g id="computing-2" transform="translate(-287.664 -93.589)">
    <g id="Group_336-2" data-name="Group 336-2">
      <rect id="Rectangle_15" data-name="Rectangle 15" width="173.078" height="152.384" rx="18.813" transform="translate(327.171 205.192)" fill="#ffc945"/>
      <rect id="Rectangle_16" data-name="Rectangle 16" width="67.726" height="152.384" rx="18.813" transform="translate(583.965 268.215)" fill="#ffc945"/>
      <g id="Group_335-2" data-name="Group 335-2">
        <path id="Path_504-2" data-name="Path 504-2" d="M633.255,121.953H510.086c-13.981,0-25.358,14-25.358,31.2H313.021c-13.982,0-25.357,14-25.357,31.2V380.479c0,17.2,11.375,31.2,25.357,31.2H484.728c0,17.205,11.375,31.2,25.357,31.2h123.17c13.982,0,25.357-14,25.357-31.2V153.154C658.611,135.95,647.234,121.953,633.255,121.953ZM484.728,384.935H313.021c-2,0-3.622-2-3.622-4.457V367.106H484.728Zm0-44.573H309.4V184.356c0-2.458,1.625-4.458,3.622-4.458H484.728ZM598.263,148.7l-2.9,17.829H547.976l-2.9-17.829ZM636.875,411.68c0,2.457-1.625,4.457-3.622,4.457H510.086c-2,0-3.622-2-3.622-4.457V153.154c0-2.458,1.625-4.458,3.622-4.458h12.826l7.243,44.574h83.026l7.243-44.574h12.831c2,0,3.622,2,3.622,4.458Z" fill="#273043"/>
      </g>
    </g>
    <circle id="Ellipse_126" data-name="Ellipse 126" cx="19.375" cy="19.375" r="19.375" transform="translate(406.548 93.589)" fill="#ffc945"/>
  </g>
  <circle id="Ellipse_127" data-name="Ellipse 127" cx="19.375" cy="19.375" r="19.375" transform="translate(106.038 338.854)" fill="#ffc945"/>
  <circle id="Ellipse_128" data-name="Ellipse 128" cx="7.819" cy="7.819" r="7.819" transform="translate(153.627 369.363)" fill="#ffc945"/>
</svg>
