<svg id="Component_31_1" data-name="Component 31 – 1" xmlns="http://www.w3.org/2000/svg" width="371.874" height="373.04" viewBox="0 0 371.874 373.04">
  <g id="Group_3266" data-name="Group 3266" transform="translate(10.813 48.292)">
    <g id="Group_3258" data-name="Group 3258" transform="translate(102.336 252.581)">
      <path id="Path_4818" data-name="Path 4818" d="M-707.594,416.469v2.3a7.12,7.12,0,0,1-7.115,7.115H-856.354a7.13,7.13,0,0,1-7.126-7.115v-2.3a7.132,7.132,0,0,1,7.126-7.126h5.569a4.5,4.5,0,0,0,4.325-3.211l14.046-46.83a7.081,7.081,0,0,1,6.823-5.082h2.4a7.063,7.063,0,0,1,5.72,2.876,7.044,7.044,0,0,1,1.1,6.293L-828.4,403.537a4.461,4.461,0,0,0,.692,3.99,4.482,4.482,0,0,0,3.622,1.817h77.105a4.481,4.481,0,0,0,3.622-1.817,4.5,4.5,0,0,0,.7-3.99L-754.7,363.389a7.077,7.077,0,0,1,1.1-6.293,7.078,7.078,0,0,1,5.72-2.876h2.4a7.081,7.081,0,0,1,6.823,5.082l14.057,46.83a4.522,4.522,0,0,0,4.314,3.211h5.579A7.123,7.123,0,0,1-707.594,416.469Z" transform="translate(863.48 -354.22)" fill="#fff" stroke="#707171" stroke-width="1"/>
    </g>
    <path id="Path_4819" data-name="Path 4819" d="M-956.609,244.95h340l-10.813,123.232-323.8-2.839Z" transform="translate(958.247 -110.519)" fill="#f5a195"/>
    <g id="Group_3263" data-name="Group 3263" transform="translate(83.617 29.41)">
      <g id="Group_3259" data-name="Group 3259" transform="translate(161.067 59.737)">
        <path id="Path_4820" data-name="Path 4820" d="M-703.587,213.3l-25.961,5.8-2.281-10.229,25.95-5.8Z" transform="translate(731.83 -203.07)" fill="#fff" stroke="#707171" stroke-width="1"/>
      </g>
      <g id="Group_3260" data-name="Group 3260" transform="translate(147.746 6.304)">
        <rect id="Rectangle_931" data-name="Rectangle 931" width="21.442" height="10.486" transform="translate(0 15.162) rotate(-45)" fill="#fff" stroke="#707171" stroke-width="1"/>
      </g>
      <g id="Group_3261" data-name="Group 3261" transform="translate(168.584 108)">
        <rect id="Rectangle_932" data-name="Rectangle 932" width="10.484" height="22.558" transform="translate(0 9.375) rotate(-63.409)" fill="#fff" stroke="#707171" stroke-width="1"/>
      </g>
      <g id="Group_3262" data-name="Group 3262">
        <path id="Path_4821" data-name="Path 4821" d="M-714.783,281.032-741.8,160.017A15.614,15.614,0,0,0-760.423,148.2a15.451,15.451,0,0,0-9.764,6.866,15.455,15.455,0,0,0-2.054,11.753l1.449,6.5-61.178,38.59-24.361,5.439a30.972,30.972,0,0,0-24.415,32.016,30.964,30.964,0,0,0,27.41,29.227l8.283,37.087a5.241,5.241,0,0,0,5.114,4.087,5.153,5.153,0,0,0,1.135-.13l20.2-4.509a5.187,5.187,0,0,0,3.287-2.3,5.213,5.213,0,0,0,.692-3.957l-7.882-35.314,4.1-.908,71.785,8.91,1.417,6.282a15.518,15.518,0,0,0,15.181,12.2h.011a15.554,15.554,0,0,0,12.175-5.839A15.538,15.538,0,0,0-714.783,281.032Zm-14.057,8.38a5.115,5.115,0,0,1-3.849-.638,5.2,5.2,0,0,1-2.292-3.233L-762,164.525a5.033,5.033,0,0,1,.67-3.849,5.12,5.12,0,0,1,3.2-2.238,4.907,4.907,0,0,1,1.125-.119,5.146,5.146,0,0,1,2.725.789,5.136,5.136,0,0,1,2.249,3.2l26.988,121.016a5.113,5.113,0,0,1-3.741,6.077Zm-107.154,18.836-6.736-30.178,9.948-2.217,6.758,30.167Zm-9.061-40.385a20.684,20.684,0,0,1-24.631-15.646l-.065-.281h-.011a20.685,20.685,0,0,1,15.7-24.361l20.144-4.487,8.985,40.277Zm30.676-5.277-9.656-43.294,55.664-35.109,19.311,86.5Z" transform="translate(880.791 -147.823)" fill="#fff" stroke="#707171" stroke-width="1"/>
      </g>
    </g>
    <g id="Group_3264" data-name="Group 3264">
      <path id="Path_4822" data-name="Path 4822" d="M-631.409,389.485H-924.278a33.883,33.883,0,0,1-33.846-33.844V154.469a33.884,33.884,0,0,1,33.846-33.846h292.869a33.884,33.884,0,0,1,33.846,33.846V355.641A33.883,33.883,0,0,1-631.409,389.485ZM-924.278,139.542a14.944,14.944,0,0,0-14.927,14.927V355.641a14.944,14.944,0,0,0,14.927,14.926h292.869a14.944,14.944,0,0,0,14.927-14.926V154.469a14.944,14.944,0,0,0-14.927-14.927Z" transform="translate(958.124 -120.623)" fill="#fff" stroke="#707171" stroke-width="1"/>
    </g>
    <g id="Group_3265" data-name="Group 3265" transform="translate(7.297 215.521)">
      <rect id="Rectangle_933" data-name="Rectangle 933" width="341.642" height="12.42" fill="#fff" stroke="#707171" stroke-width="1"/>
    </g>
  </g>
  <circle id="Ellipse_126" data-name="Ellipse 126" cx="19.105" cy="19.105" r="19.105" transform="translate(39.402)" fill="#f5a195"/>
  <circle id="Ellipse_128" data-name="Ellipse 128" cx="8.86" cy="8.86" r="8.86" transform="translate(85.597 15.52)" fill="#f5a195"/>
  <circle id="Ellipse_128-2" data-name="Ellipse 128" cx="8.86" cy="8.86" r="8.86" transform="translate(270.912 330.146)" fill="#f5a195"/>
  <g id="Group_3275" data-name="Group 3275" transform="translate(0 48.292)">
    <g id="Group_3267" data-name="Group 3267" transform="translate(102.336 252.581)">
      <path id="Path_4823" data-name="Path 4823" d="M-717.594,416.469v2.3a7.12,7.12,0,0,1-7.115,7.115H-866.354a7.13,7.13,0,0,1-7.125-7.115v-2.3a7.132,7.132,0,0,1,7.125-7.126h5.569a4.5,4.5,0,0,0,4.325-3.211l14.046-46.83a7.081,7.081,0,0,1,6.823-5.082h2.4a7.063,7.063,0,0,1,5.72,2.876,7.044,7.044,0,0,1,1.1,6.293L-838.4,403.537a4.461,4.461,0,0,0,.692,3.99,4.482,4.482,0,0,0,3.622,1.817h77.105a4.481,4.481,0,0,0,3.622-1.817,4.5,4.5,0,0,0,.7-3.99L-764.7,363.389a7.077,7.077,0,0,1,1.1-6.293,7.078,7.078,0,0,1,5.72-2.876h2.4a7.081,7.081,0,0,1,6.823,5.082l14.057,46.83a4.522,4.522,0,0,0,4.314,3.211h5.579A7.123,7.123,0,0,1-717.594,416.469Z" transform="translate(873.48 -354.22)" fill="#383f54"/>
    </g>
    <g id="Group_3272" data-name="Group 3272" transform="translate(83.617 29.41)">
      <g id="Group_3268" data-name="Group 3268" transform="translate(161.067 59.737)">
        <path id="Path_4824" data-name="Path 4824" d="M-713.587,213.3l-25.961,5.8-2.281-10.229,25.95-5.8Z" transform="translate(741.83 -203.07)" fill="#383f54"/>
      </g>
      <g id="Group_3269" data-name="Group 3269" transform="translate(147.746 6.304)">
        <rect id="Rectangle_934" data-name="Rectangle 934" width="21.442" height="10.486" transform="translate(0 15.162) rotate(-45)" fill="#383f54"/>
      </g>
      <g id="Group_3270" data-name="Group 3270" transform="translate(168.584 108)">
        <rect id="Rectangle_935" data-name="Rectangle 935" width="10.484" height="22.558" transform="translate(0 9.375) rotate(-63.409)" fill="#383f54"/>
      </g>
      <g id="Group_3271" data-name="Group 3271">
        <path id="Path_4825" data-name="Path 4825" d="M-724.783,281.032-751.8,160.017A15.614,15.614,0,0,0-770.423,148.2a15.451,15.451,0,0,0-9.764,6.866,15.455,15.455,0,0,0-2.054,11.753l1.449,6.5-61.178,38.59-24.361,5.439a30.972,30.972,0,0,0-24.415,32.016,30.964,30.964,0,0,0,27.41,29.227l8.283,37.087a5.241,5.241,0,0,0,5.114,4.087,5.153,5.153,0,0,0,1.135-.13l20.2-4.509a5.187,5.187,0,0,0,3.287-2.3,5.213,5.213,0,0,0,.692-3.957l-7.882-35.314,4.1-.908,71.785,8.91,1.417,6.282a15.518,15.518,0,0,0,15.181,12.2h.011a15.554,15.554,0,0,0,12.175-5.839A15.538,15.538,0,0,0-724.783,281.032Zm-14.057,8.38a5.115,5.115,0,0,1-3.849-.638,5.2,5.2,0,0,1-2.292-3.233L-772,164.525a5.033,5.033,0,0,1,.67-3.849,5.12,5.12,0,0,1,3.2-2.238,4.907,4.907,0,0,1,1.125-.119,5.146,5.146,0,0,1,2.725.789,5.136,5.136,0,0,1,2.249,3.2l26.988,121.016a5.113,5.113,0,0,1-3.741,6.077Zm-107.154,18.836-6.736-30.178,9.948-2.217,6.758,30.167Zm-9.061-40.385a20.684,20.684,0,0,1-24.631-15.646l-.065-.281h-.011a20.685,20.685,0,0,1,15.7-24.361l20.144-4.487,8.985,40.277Zm30.676-5.277-9.656-43.294,55.664-35.109,19.311,86.5Z" transform="translate(890.791 -147.823)" fill="#383f54"/>
      </g>
    </g>
    <g id="Group_3273" data-name="Group 3273">
      <path id="Path_4826" data-name="Path 4826" d="M-641.409,389.485H-934.278a33.883,33.883,0,0,1-33.846-33.844V154.469a33.884,33.884,0,0,1,33.846-33.846h292.869a33.884,33.884,0,0,1,33.846,33.846V355.641A33.883,33.883,0,0,1-641.409,389.485ZM-934.278,139.542a14.944,14.944,0,0,0-14.927,14.927V355.641a14.944,14.944,0,0,0,14.927,14.926h292.869a14.944,14.944,0,0,0,14.927-14.926V154.469a14.944,14.944,0,0,0-14.927-14.927Z" transform="translate(968.124 -120.623)" fill="#383f54"/>
    </g>
    <g id="Group_3274" data-name="Group 3274" transform="translate(9.46 210.114)">
      <rect id="Rectangle_936" data-name="Rectangle 936" width="341.642" height="12.42" fill="#383f54"/>
    </g>
  </g>
</svg>
