<svg xmlns="http://www.w3.org/2000/svg" xmlns:xlink="http://www.w3.org/1999/xlink" width="744.38" height="454.925" viewBox="0 0 744.38 454.925">
  <defs>
    <linearGradient id="linear-gradient" y1="0.5" x2="1" y2="0.5" gradientUnits="objectBoundingBox">
      <stop offset="0" stop-color="#2c9c48"/>
      <stop offset="1" stop-color="#34b34d"/>
    </linearGradient>
    <linearGradient id="linear-gradient-7" y1="0.5" x2="1" y2="0.5" gradientUnits="objectBoundingBox">
      <stop offset="0" stop-color="#f69144"/>
      <stop offset="1" stop-color="#ffce45"/>
    </linearGradient>
  </defs>
  <g id="Component_17_1" data-name="Component 17 – 1" transform="translate(0 1.421)">
    <g id="Group_3160" data-name="Group 3160" transform="translate(-3129.526 -2700.35)">
      <g id="Group_3150" data-name="Group 3150">
        <g id="Group_3149" data-name="Group 3149">
          <path id="Path_4533" data-name="Path 4533" d="M3695.485,3152.43s97.982-24.509,85.773-164.032-159.27-80.21-246.331-164.686-85.851-160.864-217.465-103.349-14.223,203.55-27.37,235.679-83.583,72.337-79.827,114.691,33.809,77.131,53.531,81.76l431.689-.063Z" fill="#e8c8c5"/>
          <path id="Path_4534" data-name="Path 4534" d="M3706.485,3152.43h0s97.982-24.509,85.773-164.032-196.768-50.647-257.558-154.054c-56.387-95.918-74.624-171.5-206.238-113.981s-27.37,165.092-27.37,235.679c0,34.5-90.972,44.694-90.972,92.428,0,61.693,36.829,80.606,64.676,104.023" fill="none" stroke="#b06bc1" stroke-miterlimit="10" stroke-width="2.935" style="mix-blend-mode: multiply;isolation: isolate"/>
        </g>
        <path id="Path_4535" data-name="Path 4535" d="M3873.905,3152.493H3129.527V3139.47h744.38v13.022Z" fill="#262261"/>
        <path id="Path_4536" data-name="Path 4536" d="M3207.164,3139.47H3158.34c-2.616-2.124,1.811-6.947,6.436-7.271a29.756,29.756,0,0,1,7.452.844c.672-8.539,4.509-46.928,18.969-45.385,16.259,1.727,0,16.905-4.6,25.892a208.588,208.588,0,0,0-8.637,20.7c1.32.274,2.687.543,4.082.788,2.156-6.331,10.174-27.629,20.371-26.389,11.972,1.453,7.16,9.992-1.326,15.062-6.225,3.727-13.87,9.025-17.5,11.585a54.287,54.287,0,0,0,9.549.732C3201.5,3135.843,3205.581,3138.2,3207.164,3139.47Z" fill="url(#linear-gradient)"/>
      </g>
      <g id="Group_3155" data-name="Group 3155">
        <rect id="Rectangle_818" data-name="Rectangle 818" width="208.977" height="183.597" transform="translate(3363.641 2735.337)" fill="#666"/>
        <rect id="Rectangle_819" data-name="Rectangle 819" width="208.977" height="183.597" transform="translate(3367.641 2735.337)" fill="#808184"/>
        <g id="Group_3151" data-name="Group 3151">
          <path id="Path_4537" data-name="Path 4537" d="M3528.3,2762.281h-33.169a2.191,2.191,0,0,0-2.186,2.185h0a2.192,2.192,0,0,0,2.186,2.186H3528.3a2.193,2.193,0,0,0,2.185-2.186h0A2.192,2.192,0,0,0,3528.3,2762.281Z" fill="#eaeaea"/>
          <path id="Path_4538" data-name="Path 4538" d="M3528.3,2771.28h-33.169a2.185,2.185,0,1,0,0,4.371H3528.3a2.185,2.185,0,0,0,0-4.371Z" fill="#eaeaea"/>
          <path id="Path_4539" data-name="Path 4539" d="M3528.3,2780.279h-33.169a2.185,2.185,0,1,0,0,4.371H3528.3a2.185,2.185,0,0,0,0-4.371Z" fill="#eaeaea"/>
        </g>
        <g id="Group_3152" data-name="Group 3152">
          <path id="Path_4540" data-name="Path 4540" d="M3528.3,2796.7h-33.169a2.191,2.191,0,0,0-2.186,2.185h0a2.192,2.192,0,0,0,2.186,2.186H3528.3a2.193,2.193,0,0,0,2.185-2.186h0A2.192,2.192,0,0,0,3528.3,2796.7Z" fill="#eaeaea"/>
          <path id="Path_4541" data-name="Path 4541" d="M3528.3,2805.7h-33.169a2.186,2.186,0,1,0,0,4.371H3528.3a2.186,2.186,0,0,0,0-4.371Z" fill="#eaeaea"/>
          <path id="Path_4542" data-name="Path 4542" d="M3528.3,2814.7h-33.169a2.186,2.186,0,1,0,0,4.371H3528.3a2.186,2.186,0,0,0,0-4.371Z" fill="#eaeaea"/>
        </g>
        <g id="Group_3153" data-name="Group 3153">
          <path id="Path_4543" data-name="Path 4543" d="M3538.3,2831.121h-43.169a2.191,2.191,0,0,0-2.186,2.185h0a2.192,2.192,0,0,0,2.186,2.186H3538.3a2.193,2.193,0,0,0,2.185-2.186h0A2.192,2.192,0,0,0,3538.3,2831.121Z" fill="#eaeaea"/>
          <path id="Path_4544" data-name="Path 4544" d="M3538.3,2840.12h-43.169a2.185,2.185,0,1,0,0,4.371H3538.3a2.185,2.185,0,0,0,0-4.371Z" fill="#eaeaea"/>
          <path id="Path_4545" data-name="Path 4545" d="M3538.3,2849.119h-43.169a2.186,2.186,0,1,0,0,4.371H3538.3a2.186,2.186,0,0,0,0-4.371Z" fill="#eaeaea"/>
        </g>
        <rect id="Rectangle_820" data-name="Rectangle 820" width="98.015" height="109.249" transform="translate(3381.547 2745.607)" fill="#f1f1f2"/>
        <circle id="Ellipse_578" data-name="Ellipse 578" cx="17.627" cy="17.627" r="17.627" transform="translate(3377.587 2899.523) rotate(-68.056)" fill="#f3f9ff"/>
        <path id="Path_4546" data-name="Path 4546" d="M3415.425,2889.76a14.9,14.9,0,1,0-5.862,11.848l-9.037-11.848,13.924,5.315A14.892,14.892,0,0,0,3415.425,2889.76Z" fill="#abddda"/>
        <circle id="Ellipse_579" data-name="Ellipse 579" cx="17.627" cy="17.627" r="17.627" transform="translate(3439.379 2902.866) rotate(-76.718)" fill="#f3f9ff"/>
        <path id="Path_4547" data-name="Path 4547" d="M3460.585,2874.859a14.9,14.9,0,0,0-10.62,25.353l10.62-10.452,13.924,5.315a14.913,14.913,0,0,0-13.924-20.216Z" fill="#abddda"/>
        <g id="Group_3154" data-name="Group 3154">
          <rect id="Rectangle_821" data-name="Rectangle 821" width="10.343" height="64.43" transform="translate(3390.275 2784.65)" fill="#abddda"/>
          <rect id="Rectangle_822" data-name="Rectangle 822" width="10.343" height="82.389" transform="translate(3407.22 2766.691)" fill="#abddda"/>
          <rect id="Rectangle_823" data-name="Rectangle 823" width="10.343" height="48.849" transform="translate(3425.709 2800.231)" fill="#abddda"/>
          <rect id="Rectangle_824" data-name="Rectangle 824" width="10.343" height="71.389" transform="translate(3443.7 2777.691)" fill="#abddda"/>
          <rect id="Rectangle_825" data-name="Rectangle 825" width="10.343" height="39.288" transform="translate(3461.785 2809.792)" fill="#abddda"/>
        </g>
      </g>
      <g id="Group_3159" data-name="Group 3159">
        <g id="Group_3158" data-name="Group 3158">
          <path id="Path_4548" data-name="Path 4548" d="M3217.319,2955.656l-2.093,3.393c-1.088,1.249-1.379,1.948-2.241,2.372a10.666,10.666,0,0,0-6.211,9.167s.066,3.123,2.159,2.111,1.179-.918,4.155-2.281,4.079-5.7,4.339-7.179l2.428-3.186Z" fill="#fa997b"/>
          <g id="Group_3157" data-name="Group 3157">
            <path id="Path_4549" data-name="Path 4549" d="M3349.922,2905.96s2.22-5.441,4.663-5.663,10.215-1.444,10.77-.333,0,5.107-1.665,6.551-11.992,3.775-11.992,3.775Z" fill="#fa997b"/>
            <path id="Path_4550" data-name="Path 4550" d="M3312.428,3136.108c-.273.85-1.852,2.562-5.987,3.364h-10.813a13.4,13.4,0,0,0-4.182-.4l-.224.016c-.095.007-.193.015-.29.026-.372.033-.788.084-1.249.142-.615.084-1.224.157-1.816.218q-.4.042-.794.075h-4.464c-.162-.022-.319-.047-.473-.075a6.287,6.287,0,0,1-1.38-.405.065.065,0,0,1-.017,0,2.867,2.867,0,0,1-1.866-2.481,13.594,13.594,0,0,1,.3-3.63c.025-.142.055-.285.086-.427.433-2.032,1.554-2.7,1.76-5.043.381-4.39-3.252-19.625-3.252-19.625h13.842s-.375,13.791,1.209,18.437c1.492,4.384,6.01,5.733,10.57,6.8q.766.177,1.534.349c.187.04.371.085.556.124C3309.308,3134.421,3312.73,3135.159,3312.428,3136.108Z" fill="#ffa683"/>
            <g id="Group_3156" data-name="Group 3156">
              <path id="Path_4551" data-name="Path 4551" d="M3262.766,2987.518c1.168,6.558,2.835,13.335,4.282,20.384,2.326,11.333,4.081,23.374,2.284,36.338a45.449,45.449,0,0,0-.382,5.49c-.348,22.914,9.89,64.44,9.89,64.44a18.068,18.068,0,0,0,7.441.969,23.65,23.65,0,0,0,6.082-1.666s.969-25.746,1.027-60.371c.042-25.1,4.97-58.144,5.966-77.563.6-11.752-.706-27.407-.706-27.407s-20.409-16.412-27.739-8.015C3263.668,2948.414,3258.394,2962.984,3262.766,2987.518Z" fill="#312e99"/>
            </g>
            <path id="Path_4552" data-name="Path 4552" d="M3269.332,3044.24a45.449,45.449,0,0,0-.382,5.49c15.285-22.145,18.665-70.435,18.665-70.435l-16.788,8.148s-1.841,9.056-3.779,20.459C3269.374,3019.235,3271.129,3031.276,3269.332,3044.24Z" opacity="0.5"/>
            <path id="Path_4553" data-name="Path 4553" d="M3268.273,3136.284c-.255.791-1.64,2.333-5.175,3.188H3250.57a10.891,10.891,0,0,0-3.28-.226c-.073.006-.148.008-.224.017-.095.005-.193.014-.29.022-.372.034-.788.084-1.249.145-.109.014-8.725-.1-8.927-.187a.029.029,0,0,1-.017-.006,2.863,2.863,0,0,1-1.866-2.48,13.625,13.625,0,0,1,.3-3.63c.025-.142.053-.285.086-.427.431-2.032,1.621-3.322,1.83-5.666.381-4.39-.416-19.863-.416-19.863l12.824,1.07s-2.265,13.579-.681,18.228c1.495,4.381,6.012,5.734,10.572,6.8.511.114,1.023.234,1.531.346l.559.126C3265.149,3134.594,3268.571,3135.332,3268.273,3136.284Z" fill="#ffa683"/>
            <path id="Path_4554" data-name="Path 4554" d="M3236.524,3115.342a31.161,31.161,0,0,0,5.67,2.035c2.374.474,7.3-.452,7.3-.452a334.464,334.464,0,0,1,6.971-43.157c4.573-20.03,11.377-43.7,20.863-66.115,2.026-4.787,10.381-27.447,11.8-33.165,4.288-17.277-.017-15.416-.017-15.416l-37.473-4.4s-4.617,2.372-6.744,26.77c-.636,7.306-.714,38.855-1.673,44.835a66.871,66.871,0,0,1-3.218,13.433C3233.044,3056.8,3236.524,3115.342,3236.524,3115.342Z" fill="#312e99"/>
            <path id="Path_4555" data-name="Path 4555" d="M3268.273,3136.324c-.255.8-1.64,2.36-5.175,3.223H3250.57a10.905,10.905,0,0,0-3.28-.228c-.073,0-.148.008-.224.016-.095.006-.193.017-.29.025-.38.028-.8.07-1.257.123-.188.023-.375.045-.562.064H3237.4a6.378,6.378,0,0,1-.8-.231.029.029,0,0,1-.017-.006,2.892,2.892,0,0,1-1.866-2.509,13.907,13.907,0,0,1,.3-3.668c.025-.146.053-.288.086-.433,3.775.53,9.148,2.662,14.412,3.174a22.891,22.891,0,0,0,11.807-2.118C3265.149,3134.617,3268.571,3135.362,3268.273,3136.324Z" fill="#9e332e"/>
            <path id="Path_4556" data-name="Path 4556" d="M3312.428,3136.152c-.273.86-1.852,2.593-5.987,3.4h-10.813a13.218,13.218,0,0,0-4.182-.407l-.224.017c-.095.005-.193.014-.29.025-.38.028-.794.068-1.258.125-.8.1-1.584.178-2.347.24a23.842,23.842,0,0,1-4.758,0,8.566,8.566,0,0,1-1.813-.41.045.045,0,0,1-.017-.006,2.9,2.9,0,0,1-1.866-2.511,13.907,13.907,0,0,1,.3-3.673c.025-.145.055-.289.086-.433,3.775.531,9.148,2.666,14.411,3.175a22.827,22.827,0,0,0,11.808-2.118C3309.308,3134.444,3312.73,3135.19,3312.428,3136.152Z" fill="#9e332e"/>
            <path id="Path_4557" data-name="Path 4557" d="M3293.864,2842.466c1.266-10.337-1.085-22.5-21.717-19.859s-26.279,20.063-22.118,29.078-9.412,8.236-15.529,17.322c-4.9,7.272-1.883,18.678-8.957,21.07-9.215,3.115-12.343,21.007-.455,22.667,11.412,1.594,27.559,17.309,36.5,14.739,30.74-8.838,34.7-10.157,33.609-34.31-.56-12.375-10.187-17.17-4.075-20.751C3305.889,2863.773,3291,2865.857,3293.864,2842.466Z" fill="#404041"/>
            <path id="Path_4558" data-name="Path 4558" d="M3263.538,2869.523l5.684,14.688,12.267.6,6.12-9.14c-3.863-2.937-5.494-7.343-6.093-11.287a32.285,32.285,0,0,1-.218-7.561c.082-.789.164-1.252.164-1.252l-15.286-4.65-.341-.153c-.191,4.052-.121,7.36-.366,9.835C3264.6,2869.333,3263.538,2869.523,3263.538,2869.523Z" fill="#fa997b"/>
            <path id="Path_4559" data-name="Path 4559" d="M3287.662,2869.007c-.79,0-14.188-2.727-36.815,3.062,0,0,12.392,56.775,8.182,67.476a113.112,113.112,0,0,0-5.809,20.2l45.668.567s-.638-36.73,1.467-49.73S3287.662,2869.007,3287.662,2869.007Z" fill="#fa997b"/>
            <path id="Path_4560" data-name="Path 4560" d="M3350.107,2903.23s-26.023,9.781-28.609,9.967c-5.634.4-11.367-26.79-16.633-35.851-3.565-6.137-15.581-8.093-17.093-8.316l-.11-.023v.007l-.046-.007.034.14c-.117,1.244-1.166,10.544-6.338,11.4-9.585,1.582-17.309-7.2-19.566-10.733h0s-10.863.429-15.9,5.117c-5.7,5.3-14.174,37.709-16.461,53.492,0,0-11.5,21.909-15.156,30.6a6.946,6.946,0,0,0,2.057,2.083,9.955,9.955,0,0,0,3.006,1.213s20.739-23.147,22.1-26.807c.648-1.739,5.588-9.764,10.447-20.983a43.75,43.75,0,0,1,2.155,17.809c-.668,7.515-7.69,24.688-6.171,28.347,1.592,3.841,3.8,5.787,8.642,6.9,3.335.769,7.917,1.139,14.4,1.462,13.759.683,28.5-1.046,30.508-7.586.963-3.139.592-15.286.082-20.894-.669-7.371-.022-16.778.622-25.423.032.048.062.1.094.144,1.5,2.281,3.206,4.731,4.959,7,2.638,3.408,5.39,6.4,7.745,7.759a6.055,6.055,0,0,0,1.637.687c1.8.426,5.1-.57,9.019-2.289,1.39-.609,2.857-1.31,4.363-2.071a271.8,271.8,0,0,0,23.714-14.094C3354.442,2907.292,3350.107,2903.23,3350.107,2903.23Z" fill="#fa7269"/>
            <path id="Path_4561" data-name="Path 4561" d="M3251.838,2914.527s3.6-12.011,2.472-18.086c4.387,4.5,6.795,23.647-.428,27.236C3253.882,2923.677,3251.682,2915.068,3251.838,2914.527Z" fill="#e75755"/>
            <path id="Path_4562" data-name="Path 4562" d="M3266.176,2850.92c2.312,3.78,7.888,11.559,15.34,13.463a32.285,32.285,0,0,1-.218-7.561c.082-.789.164-1.252.164-1.252Z" fill="#ef5d23"/>
            <path id="Path_4563" data-name="Path 4563" d="M3285.475,2856.609s-18.377,3.691-20.5-7.789-5.924-18.734,5.72-21.576,14.74,1.116,16.38,4.775S3290.2,2855.354,3285.475,2856.609Z" fill="#fa997b"/>
            <path id="Path_4564" data-name="Path 4564" d="M3283.925,2832.17s-7.39-4.145-13.152,2.709c-5.465,6.5-5.07,19.968-5.07,19.968s-11.316-22.663-4.285-26.842C3278.115,2818.08,3283.925,2832.17,3283.925,2832.17Z" fill="#404041"/>
            <path id="Path_4565" data-name="Path 4565" d="M3270.9,2822.789a18.2,18.2,0,0,1,19.69,4.117c3.905,3.848.032,9.7-2.06,14.087,0,0,.132-7.665-9.06-11.459A20.015,20.015,0,0,1,3270.9,2822.789Z" fill="#404041"/>
          </g>
        </g>
        <ellipse id="Ellipse_580" data-name="Ellipse 580" cx="2.999" cy="3.984" rx="2.999" ry="3.984" transform="translate(3261.837 2841.833) rotate(-22.422)" fill="#fa997b"/>
        <path id="Path_4566" data-name="Path 4566" d="M3265.559,2844.81c.419.545,1.015.793,1.33.551s.233-.882-.187-1.43-1.017-.79-1.331-.549S3265.138,2844.264,3265.559,2844.81Z" fill="#ef5d23"/>
      </g>
    </g>
    <g id="Group_3161" data-name="Group 3161" transform="translate(-3129.526 -2700.35)">
      <path id="Path_4567" data-name="Path 4567" d="M3646.159,2862.383s24.593,25.388,25.773,34.961-11.7,24.55-11.7,24.55Z" fill="#ee8914"/>
      <path id="Path_4568" data-name="Path 4568" d="M3635.644,3125.754s2,13.522-.612,13.716c-.347.025-16.079,0-16.079,0l-16.463-.1s.108-3.967,4.92-4.8,12.867-4.221,15.782-10.581C3626.258,3117.3,3635.644,3125.754,3635.644,3125.754Z" fill="#00081a"/>
      <path id="Path_4569" data-name="Path 4569" d="M3672.313,3125.754s2.2,13.534-.407,13.727c-.348.026-16.285-.011-16.285-.011l-16.513-.059s.158-4,4.97-4.842,12.867-4.221,15.782-10.581C3662.927,3117.3,3672.313,3125.754,3672.313,3125.754Z" fill="#00081a"/>
      <path id="Path_4570" data-name="Path 4570" d="M3617.412,2981.021s4.306,27.538,20.368,76.422,18.251,70.053,18.251,70.053a70.753,70.753,0,0,0,8.934.63,56.583,56.583,0,0,0,8.3-1.113s.147-53.425-7.255-78.007-1.6-88.621-1.6-88.621Z" fill="#3c5268"/>
      <path id="Path_4571" data-name="Path 4571" d="M3609.027,2961.893a668.344,668.344,0,0,0,6.57,92.451c7.18,50.952,4.746,72.58,4.746,72.58s5.911,1.059,7.988,1.128c2.222.074,9.209-.556,9.209-.556s10.276-50.971,7.33-76.474,14.072-87.512,14.072-87.512Z" fill="#465e7a"/>
      <path id="Path_4572" data-name="Path 4572" d="M3642.317,2864.782l-8.111,6.007-11.722-2.467c.162-1.07.936-5.5,1.641-9.512.042-.237.085-.474.125-.705.6-3.415,1.125-6.348,1.125-6.348l10.947-5.457,4.083-2.034c-.011.072-.317,3.79-.36,4.332A35.045,35.045,0,0,0,3642.317,2864.782Z" fill="#fa997b"/>
      <path id="Path_4573" data-name="Path 4573" d="M3623.3,2861.751c.257-.108,15.946-4.738,17.65-4.175s2.714,3.86,2.714,3.86l-25.662,5.8S3620.026,2863.131,3623.3,2861.751Z" fill="#ee8914"/>
      <path id="Path_4574" data-name="Path 4574" d="M3665.55,2967.016c-2.659,12.131-46.917,13.57-58.325,2.558-1.3-1.255-1.361-7.094-.872-14.969.957-15.383,4.032-38.524,4.151-50.347a93.655,93.655,0,0,1,1.888-16.851,136.8,136.8,0,0,1,5.614-20.171s21.617-6.988,25.662-5.8C3663.154,2867.162,3668.21,2954.885,3665.55,2967.016Z" fill="#ff9f23"/>
      <path id="Path_4575" data-name="Path 4575" d="M3606.353,2954.6c.957-15.383,4.032-38.524,4.151-50.347a93.655,93.655,0,0,1,1.888-16.851l13-2.295S3638.11,2937.041,3606.353,2954.6Z" fill="#ee8914"/>
      <path id="Path_4576" data-name="Path 4576" d="M3613.4,2933.163a3.06,3.06,0,0,1-.975,3.541c-1.862,1.423-3.069,3.727-2.643,5.411s4.51,4.432,5.925,3.989,4.3-2.661,3.987-3.55,1.937-7.8-1.514-10.455S3613.4,2933.163,3613.4,2933.163Z" fill="#fa997b"/>
      <path id="Path_4577" data-name="Path 4577" d="M3627.935,2864.124s-12.681,2.373-22.787,17.265-16.753,25.963-14.891,31.33,18.829,23.982,21.754,23.982,7.646-2.127,7.912-6.914c0,0-11.946-17.9-9.593-20.586,1-1.146,15.509-12.92,17.58-7.6C3631.336,2910.4,3627.935,2864.124,3627.935,2864.124Z" fill="#ff9f23"/>
      <path id="Path_4578" data-name="Path 4578" d="M3639.224,2848.768c-2.4,4.6-11.363,8.579-15.1,10.042.042-.237.085-.474.125-.705.6-3.415,1.125-6.348,1.125-6.348l10.947-5.457C3638.742,2846.263,3640.216,2846.875,3639.224,2848.768Z" fill="#ef5d23"/>
      <path id="Path_4579" data-name="Path 4579" d="M3621.847,2852.006s16.207,5.056,19.2-5.085,7.1-16.319-3.121-19.975-13.382-.383-15.205,2.759S3617.709,2850.43,3621.847,2852.006Z" fill="#fa997b"/>
      <path id="Path_4580" data-name="Path 4580" d="M3628.287,2841.391c-.512.56-.666,1.254-.342,1.55s1,.083,1.515-.478.662-1.256.339-1.55S3628.8,2840.83,3628.287,2841.391Z" fill="#ef5d23"/>
      <path id="Path_4581" data-name="Path 4581" d="M3623.358,2828.728s1.034,11.8,3.474,11.289,4.654-.893,4.3,2.665-3.741,7.665,3.78,8.294,18.333-18.768,16.267-22.44C3645.214,2817.939,3614.741,2815.8,3623.358,2828.728Z" fill="#a9453e"/>
    </g>
    <g id="Group_3164" data-name="Group 3164" transform="translate(-3129.526 -2700.35)">
      <rect id="Rectangle_826" data-name="Rectangle 826" width="157.939" height="82.4" transform="translate(3386.026 2939.829)" fill="#aed3ff"/>
      <rect id="Rectangle_827" data-name="Rectangle 827" width="157.937" height="82.4" transform="translate(3391.161 2939.829)" fill="#d2e4ff"/>
      <circle id="Ellipse_581" data-name="Ellipse 581" cx="28.557" cy="28.557" r="28.557" transform="translate(3397.043 2966.784) rotate(-22.5)" fill="#f3f9ff"/>
      <path id="Path_4582" data-name="Path 4582" d="M3434.354,2956.1a26.147,26.147,0,0,0-12.548,49.085c4.189-7.758,12.548-22.942,12.548-22.942l12.38,23.032a26.146,26.146,0,0,0-12.38-49.175Z" fill="#a8d29f"/>
      <g id="Group_3162" data-name="Group 3162">
        <rect id="Rectangle_828" data-name="Rectangle 828" width="53.542" height="6.234" rx="3.117" transform="translate(3480.918 2966.287)" fill="#f3f9ff"/>
        <path id="Path_4583" data-name="Path 4583" d="M3531.342,2979.122h-47.307a3.117,3.117,0,0,0,0,6.234h47.307a3.117,3.117,0,0,0,0-6.234Z" fill="#f3f9ff"/>
        <path id="Path_4584" data-name="Path 4584" d="M3531.342,2991.957h-47.307a3.117,3.117,0,0,0,0,6.235h47.307a3.117,3.117,0,0,0,0-6.235Z" fill="#f3f9ff"/>
      </g>
      <g id="Group_3163" data-name="Group 3163">
        <path id="Path_4585" data-name="Path 4585" d="M3435.317,2969.752h-14.19a1.468,1.468,0,0,0,0,2.936h14.19a1.468,1.468,0,0,0,0-2.936Z" fill="#82b378"/>
        <path id="Path_4586" data-name="Path 4586" d="M3424.359,2975.094h-3.232a1.472,1.472,0,0,0-1.468,1.468h0a1.473,1.473,0,0,0,1.468,1.468h3.232a1.472,1.472,0,0,0,1.468-1.468h0A1.471,1.471,0,0,0,3424.359,2975.094Z" fill="#82b378"/>
      </g>
    </g>
    <g id="Group_3170" data-name="Group 3170" transform="translate(-3129.526 -2700.35)">
      <g id="Group_3165" data-name="Group 3165">
        <path id="Path_4587" data-name="Path 4587" d="M3741.013,3114.6c-5.523-3.883-11.985-30.946-12.371-47.065-.2-8.258-2.638-11.7-4.792-14.733-2.058-2.9-3.836-5.406-2.8-11.159,1.978-11-3.224-15.741-3.277-15.787l.6-.686c.232.2,5.65,5.1,3.573,16.634-.967,5.375.628,7.624,2.647,10.471,2.119,2.985,4.756,6.7,4.96,15.238.414,17.3,7.021,42.852,11.982,46.341Z" fill="url(#linear-gradient)"/>
      </g>
      <g id="Group_3166" data-name="Group 3166">
        <path id="Path_4588" data-name="Path 4588" d="M3743.078,3116.609a11.81,11.81,0,0,1-2.334-.253,5.1,5.1,0,0,1-4.148-3.339c-1.489-4.257,1.96-11.172,4.76-14.506a21.285,21.285,0,0,0,4.232-13.719c-.084-1.33-.222-2.561-.343-3.648-.353-3.14-.607-5.411.742-6.926,1.189-1.336,3.484-1.914,7.674-1.935,7.35-.034,10.255-3.077,12.59-5.522a13.3,13.3,0,0,1,3.066-2.639c3.662-2,7.541-2.294,9.224-.7.8.757,1.474,2.241.151,5.007a19.351,19.351,0,0,1-4.039,5.416c-1.7,1.731-2.818,2.875-2.234,5.153.136.535.3,1.076.453,1.618,1.133,3.874,2.417,8.268-4.215,11.247-1.407.633-2.689,1.137-3.82,1.58-4.63,1.816-7.424,2.913-10.579,9.572-.611,1.29-1.15,2.511-1.671,3.693C3750.1,3112.346,3748.219,3116.609,3743.078,3116.609Zm26.677-51.686a12.553,12.553,0,0,0-2.844,2.469c-2.453,2.57-5.508,5.768-13.246,5.8-3.852.019-6.01.52-7,1.628-1.078,1.212-.843,3.311-.517,6.218.123,1.1.262,2.339.347,3.692a21.808,21.808,0,0,1-4.443,14.363c-2.771,3.3-5.91,9.867-4.6,13.618a4.239,4.239,0,0,0,3.467,2.744c6.246,1.263,7.969-2.645,10.826-9.12.524-1.187,1.066-2.414,1.681-3.714,3.31-6.987,6.4-8.2,11.071-10.032,1.121-.44,2.393-.94,3.78-1.562,5.906-2.655,4.841-6.3,3.713-10.159-.162-.552-.323-1.1-.462-1.647-.711-2.777.691-4.207,2.466-6.018a18.3,18.3,0,0,0,3.868-5.171c.6-1.255,1.094-2.957.045-3.952-1.38-1.309-4.887-.948-8.158.838Z" fill="url(#linear-gradient)"/>
      </g>
      <g id="Group_3167" data-name="Group 3167">
        <path id="Path_4589" data-name="Path 4589" d="M3740.842,3121.881l-.911-.048c.044-.857,1.2-21.053,9.3-26.965,8.9-6.485,11.7-13.454,13.037-18.132,1.575-5.511,9.586-6.985,9.927-7.045l.159.9c-.078.014-7.791,1.436-9.208,6.4-1.372,4.808-4.253,11.969-13.378,18.619C3742.012,3101.264,3740.853,3121.676,3740.842,3121.881Z" fill="url(#linear-gradient)"/>
      </g>
      <g id="Group_3168" data-name="Group 3168">
        <path id="Path_4590" data-name="Path 4590" d="M3741.445,3126.635c-1.143,0-2.662-.78-4.748-2.415l-.089-.07-.046-.1c-.111-.245-11.295-24.566-22.62-32.017-6.85-4.5-3.6-9.7-.45-14.721,2.508-4,5.1-8.144,3.581-12.487-1.89-5.4-4.718-8.708-7.213-11.629-4.355-5.1-7.5-8.781-1.544-19.305,4.505-7.96.161-14.649-3.671-20.551-2.44-3.754-4.546-7-3.736-9.873.465-1.654,1.858-3.015,4.259-4.163h0a2.461,2.461,0,0,1,2.127-.012c3.477,1.515,6.385,10.363,6.7,11.355,3.041,3.967,6.531,3.711,9.612,3.486,2.04-.15,3.8-.278,5,.912,1.1,1.095,1.5,3.2,1.266,6.621-.772,11.159,5.2,13.347,10.477,15.277,3.054,1.117,5.94,2.174,6.968,4.883,1.041,2.741,0,6.841-3.266,12.9-7.117,13.2-3.408,16.122.518,19.218,3.505,2.764,7.129,5.622,3.065,15.4-3.825,9.206-3.644,19.215-3.512,26.522.1,5.784.174,9.6-1.734,10.554A2.077,2.077,0,0,1,3741.445,3126.635Zm-4.1-3.067c2.259,1.758,3.817,2.444,4.632,2.038,1.391-.693,1.319-4.678,1.228-9.722-.134-7.387-.317-17.506,3.582-26.886,3.8-9.141.6-11.664-2.788-14.335-4.049-3.193-8.236-6.5-.756-20.369,3.134-5.81,4.156-9.67,3.216-12.145-.88-2.32-3.452-3.261-6.428-4.35-5.3-1.94-11.894-4.353-11.074-16.2.214-3.095-.113-5.029-1-5.911s-2.393-.786-4.284-.649c-3.166.233-7.1.521-10.455-3.907l-.048-.064-.024-.075c-.029-.1-2.991-9.462-6.218-10.868a1.567,1.567,0,0,0-1.368,0h0c-2.15,1.028-3.384,2.2-3.774,3.586-.7,2.477,1.3,5.56,3.622,9.129,3.778,5.816,8.479,13.056,3.7,21.5-5.642,9.968-2.824,13.268,1.443,18.262,2.548,2.983,5.434,6.361,7.381,11.921,1.665,4.757-1.168,9.282-3.669,13.274-3.18,5.075-5.926,9.459.178,13.473C3725.73,3098.7,3736.441,3121.6,3737.347,3123.568Z" fill="url(#linear-gradient)"/>
      </g>
      <path id="Path_4591" data-name="Path 4591" d="M3760.261,3020.415c-5.763-1.976-4.566,9.133-7,17.352s-27.094,3.586-16.744,24.169-13.09,6.883-6.088,24.845.609,37.17,8.22,32.283,4.275-27.5,12.19-30.191,9.207-5.822,1.37-13.127,20.535-14.561,13.533-29.314S3766.921,3022.7,3760.261,3020.415Z" fill="url(#linear-gradient)"/>
      <g id="Group_3169" data-name="Group 3169">
        <path id="Path_4592" data-name="Path 4592" d="M3741.3,3117.885c-.725-3.075-6.916-30.134-1.14-33.405,5.091-2.882,4.965-14.095,4.171-24.683-.7-9.373,11.335-13.754,11.847-13.936l.306.861c-.119.042-11.893,4.331-11.242,13.007.816,10.873.9,22.413-4.632,25.546-4.385,2.484-.348,24.23,1.578,32.4Z" fill="#fff"/>
      </g>
      <path id="Path_4593" data-name="Path 4593" d="M3754.4,3108.25l-8.229,31.22h-18.39l-8.229-31.22Z" fill="url(#linear-gradient-7)"/>
    </g>
    <g id="Group_3171" data-name="Group 3171" transform="translate(-3129.526 -2700.35)">
      <rect id="Rectangle_829" data-name="Rectangle 829" width="165.568" height="8.049" rx="3.841" transform="translate(3384.773 3066.423)" fill="#cd8b3a"/>
      <rect id="Rectangle_830" data-name="Rectangle 830" width="6.824" height="69.882" rx="3.412" transform="translate(3418.791 3070.122) rotate(10.778)" fill="#cd8b3a"/>
      <rect id="Rectangle_831" data-name="Rectangle 831" width="6.824" height="69.882" rx="3.412" transform="matrix(-0.982, 0.187, -0.187, -0.982, 3528.524, 3138.771)" fill="#cd8b3a"/>
    </g>
  </g>
</svg>
