<svg id="Component_46_1" data-name="Component 46 – 1" xmlns="http://www.w3.org/2000/svg" width="29.552" height="28.188" viewBox="0 0 29.552 28.188">
  <g id="Group_347" data-name="Group 347" transform="translate(-54.75 -37.068)">
    <path id="Path_510" data-name="Path 510" d="M61.731,50.441H82.546L71.992,56.166Z" transform="translate(-2.352 -3.735)" fill="#bdb3ee"/>
    <path id="Path_511" data-name="Path 511" d="M61.731,50.441H82.546L71.992,56.166Z" transform="translate(-2.352 1.569)" fill="#bdb3ee"/>
    <path id="Path_512" data-name="Path 512" d="M61.731,50.441H82.546L71.992,56.166Z" transform="translate(-2.352 8.2)" fill="#bdb3ee"/>
    <path id="Path_0" data-name="Path 0" d="M15.26.06c.021,0,3.357,1.658,7.414,3.687s7.377,3.7,7.377,3.711-3.326,1.686-14.784,7.414l-7.392-3.7C3.811,9.143.491,7.467.5,7.45S3.824,5.764,7.869,3.741,15.24.061,15.26.06ZM5.433,7.465l9.835,4.9,9.841-4.9c-7.591-3.8-9.816-4.9-9.841-4.9s-2.248,1.1-4.94,2.45Zm-2,4.033S6.1,12.823,15.268,17.406l11.827-5.913,1.463.739c.8.406,1.463.753,1.463.769s-3.32,1.69-14.753,7.407L7.891,16.72C3.834,14.691.518,13.016.522,13s.659-.362,1.456-.765Zm0,5.548S6.1,18.375,15.268,22.958l11.826-5.913,1.464.732c.805.4,1.464.749,1.464.769s-3.32,1.7-14.753,7.414L7.891,22.271C3.834,20.242.512,18.566.509,18.545s.6-.341,1.456-.768C2.768,17.376,3.429,17.047,3.434,17.046Z" transform="translate(54.25 39.297)" fill-rule="evenodd"/>
  </g>
  <g id="Group_348" data-name="Group 348" transform="translate(21.262)">
    <ellipse id="Ellipse_127" cx="1.597" cy="1.597" rx="1.597" ry="1.597" transform="translate(0)" fill="#bdb3ee"/>
    <ellipse id="Ellipse_128" cx="0.644" cy="0.644" rx="0.644" ry="0.644" transform="translate(3.922 2.514)" fill="#bdb3ee"/>
  </g>
</svg>
