<svg id="Component_11_1" data-name="Component 11 – 1" xmlns="http://www.w3.org/2000/svg" width="408.524" height="369.509" viewBox="0 0 408.524 369.509">
  <g id="Group_3113" data-name="Group 3113" transform="translate(-273.843 -99.725)">
    <path id="Path_4496" data-name="Path 4496" d="M630.933,332.414l-.04.04a1.881,1.881,0,0,0,.17-.14A1.54,1.54,0,0,1,630.933,332.414Z" fill="#fff" stroke="#707171" stroke-width="1"/>
    <path id="Path_4497" data-name="Path 4497" d="M292.474,387.169h239.36s89.11-63.547,96.64-64.715,30.117.157,26.823,19.024-114.353,92.75-114.353,92.75-64.47,9.882-93.647,7.529S302.843,415.4,302.843,415.4Z" fill="#91cebb"/>
    <path id="Path_4498" data-name="Path 4498" d="M673.713,326.354a37.1,37.1,0,0,0-51.62-6.07l-60.259,44.3c-5.91-12.82-14.781-26.1-29.5-26.1h-7.69c-30.04,0-59.29-7.58-93.97-18.97a70.8,70.8,0,0,0-73.84,18.97H298.343a14.517,14.517,0,0,0-14.5,14.5v67.5a14.509,14.509,0,0,0,14.5,14.5c26.52,0,53.29,7.6,81.62,15.66,31.32,8.89,63.7,18.09,99.19,18.09,34.67,0,59.67-5.37,86.28-18.54,27.94-13.84,58.74-36.81,102.51-71.83a36.969,36.969,0,0,0,5.81-51.959l-.04-.051Zm-20.93,24a7.924,7.924,0,0,1-2.95,5.36c-88.33,70.67-115.45,84.02-170.68,84.02-31.44,0-61.85-8.64-91.27-17-25.55-7.25-49.79-14.14-75.04-16.16v-39.09h50.74a14.553,14.553,0,0,0,11.59-5.79,41.794,41.794,0,0,1,46.45-14.63c37.33,12.26,69.13,20.42,103.02,20.42h7.69a8,8,0,0,1,0,16h-91.12a14.5,14.5,0,0,0,0,29l89.908-1.139c10.66,0,20.375-6.83,28.05-12.87,15.259-12.009,47.558-33.652,63.562-44.8,7.477-5.209,15.838-11.253,16.1-11.45,3.994-3,8.49-2.19,11.25,1.25C651.413,345.144,653.023,348.234,652.783,350.354Z" fill="#fff" stroke="#707171" stroke-width="1"/>
  </g>
  <g id="Group_3114" data-name="Group 3114" transform="translate(-273.843 -99.725)">
    <circle id="Ellipse_576" data-name="Ellipse 576" cx="14.5" cy="14.5" r="14.5" transform="translate(532.834 289.734)" fill="#fff" stroke="#707171" stroke-width="1"/>
  </g>
  <path id="Rectangle_816" data-name="Rectangle 816" d="M573.923,229.051H588v65.183H531.834V271.14A42.089,42.089,0,0,1,573.923,229.051Z" transform="translate(-273.843 -99.725)" fill="#91cebb"/>
  <g id="Group_3115" data-name="Group 3115" transform="translate(-273.843 -99.725)">
    <path id="Path_4499" data-name="Path 4499" d="M574.144,189.744a44.5,44.5,0,1,0-53.62,0,74.6,74.6,0,0,0-47.69,69.49v45a14.517,14.517,0,0,0,14.5,14.5h26.25a14.5,14.5,0,0,0,0-29h-11.75v-30.5a45.5,45.5,0,1,1,91,0v30.5h-11.75a14.5,14.5,0,0,0,0,29h26.25a14.517,14.517,0,0,0,14.5-14.5v-45A74.6,74.6,0,0,0,574.144,189.744Zm-42.31-35.5a15.5,15.5,0,1,1,15.5,15.5A15.5,15.5,0,0,1,531.834,154.244Z" fill="#fff" stroke="#707171" stroke-width="1"/>
  </g>
  <g id="Group_3116" data-name="Group 3116" transform="translate(-273.843 -99.725)">
    <path id="Path_4500" data-name="Path 4500" d="M620.933,322.414l-.04.04a1.881,1.881,0,0,0,.17-.14A1.54,1.54,0,0,1,620.933,322.414Z" fill="#383f54"/>
    <path id="Path_4501" data-name="Path 4501" d="M663.713,316.354a37.1,37.1,0,0,0-51.62-6.07l-56.12,39.8a37.177,37.177,0,0,0-33.64-21.6h-7.69c-30.04,0-59.29-7.58-93.97-18.97a70.8,70.8,0,0,0-73.84,18.97h-58.49a14.517,14.517,0,0,0-14.5,14.5v67.5a14.509,14.509,0,0,0,14.5,14.5c26.52,0,53.29,7.6,81.62,15.66,31.32,8.89,63.7,18.09,99.19,18.09,34.67,0,59.67-5.37,86.28-18.54,27.94-13.84,58.74-36.81,102.51-71.83a36.969,36.969,0,0,0,5.81-51.959l-.04-.051Zm-20.93,24a7.924,7.924,0,0,1-2.95,5.36c-88.33,70.67-115.45,84.02-170.68,84.02-31.44,0-61.85-8.64-91.27-17-25.55-7.25-49.79-14.14-75.04-16.16v-39.09h50.74a14.553,14.553,0,0,0,11.59-5.79,41.794,41.794,0,0,1,46.45-14.63c37.33,12.26,69.13,20.42,103.02,20.42h7.69a8,8,0,0,1,0,16h-91.12a14.5,14.5,0,0,0,0,29h91.12c10.66,0,19.663-6.274,28.05-12.87,15.54-12.221,63.35-44.94,63.35-44.94,6.81-4.83,10.71-7.59,12.97-9.2s2.87-2.05,3.13-2.25a8,8,0,0,1,12.95,7.13Z" fill="#383f54"/>
  </g>
  <g id="Group_3117" data-name="Group 3117" transform="translate(-273.843 -99.725)">
    <circle id="Ellipse_577" data-name="Ellipse 577" cx="14.5" cy="14.5" r="14.5" transform="translate(522.834 279.734)" fill="#383f54"/>
  </g>
  <g id="Group_3118" data-name="Group 3118" transform="translate(-273.843 -99.725)">
    <path id="Path_4502" data-name="Path 4502" d="M564.144,179.744a44.5,44.5,0,1,0-53.62,0,74.6,74.6,0,0,0-47.69,69.49v45a14.517,14.517,0,0,0,14.5,14.5h26.25a14.5,14.5,0,0,0,0-29h-11.75v-30.5a45.5,45.5,0,1,1,91,0v30.5h-11.75a14.5,14.5,0,0,0,0,29h26.25a14.517,14.517,0,0,0,14.5-14.5v-45A74.6,74.6,0,0,0,564.144,179.744Zm-42.31-35.5a15.5,15.5,0,1,1,15.5,15.5A15.5,15.5,0,0,1,521.834,144.244Z" fill="#383f54"/>
  </g>
  <circle id="Ellipse_11" data-name="Ellipse 11" cx="17.931" cy="17.931" r="17.931" transform="translate(69.955 74.221)" fill="#91cebb"/>
  <circle id="Ellipse_12" data-name="Ellipse 12" cx="6.808" cy="6.808" r="6.808" transform="translate(109.495 110.819)" fill="#91cebb"/>
  <g id="Group_3131" data-name="Group 3131" transform="translate(-273.843 -99.725)">
    <g id="Group_3129" data-name="Group 3129">
      <path id="Path_4516" data-name="Path 4516" d="M391.17,278.29a26.953,26.953,0,1,0-41.48,4.09c5.23,5.24,11.028,3.709,18.428,3.709,4.74,0,5.874-.8,9.764-2.971l5.288,5.342a6.511,6.511,0,0,0,9.01,0,.462.462,0,0,0,.07-.07,6.522,6.522,0,0,0-.03-9.05Zm-17.44-8.43c-.03.02-.05.05-.08.07a6.371,6.371,0,0,0-1.81,4.49,6.547,6.547,0,0,0,.53,2.61,14.7,14.7,0,0,1-3.64.43,14.107,14.107,0,1,1,14.13-14.12,13.67,13.67,0,0,1-1.16,5.7c-1.02-.65-1.58,2.431-2.84,2.431C377.12,271.471,374.95,268.67,373.73,269.86Z" fill="#fff" stroke="#707171" stroke-width="1"/>
    </g>
    <g id="Group_3130" data-name="Group 3130">
      <path id="Path_4517" data-name="Path 4517" d="M451.93,280.57l-19.72-40.64a6.331,6.331,0,0,0-1.2-1.65,6.248,6.248,0,0,0-4.49-1.88,6.444,6.444,0,0,0-5.79,3.74l-19.71,40.6a6.161,6.161,0,0,0-.87,3.19,6.278,6.278,0,0,0,1.83,4.46,6.362,6.362,0,0,0,8.96.07l.12-.12a6.86,6.86,0,0,0,1.17-1.69l4.72-9.73h19.11l4.72,9.73a2.822,2.822,0,0,0,.26.44,7.366,7.366,0,0,0,.94,1.26.6.6,0,0,1,.08.08,6.36,6.36,0,0,0,10.83-4.5A6.16,6.16,0,0,0,451.93,280.57Zm-22.02-16.33h-6.8l3.4-6.99Z" fill="#fff" stroke="#707171" stroke-width="1"/>
    </g>
  </g>
  <g id="Group_3134" data-name="Group 3134" transform="translate(-273.843 -99.725)">
    <g id="Group_3132" data-name="Group 3132">
      <path id="Path_4518" data-name="Path 4518" d="M387.17,278.29a26.968,26.968,0,1,0-22.44,11.98A26.26,26.26,0,0,0,377.71,287l1.46,1.46a6.511,6.511,0,0,0,9.01,0,.462.462,0,0,0,.07-.07,6.522,6.522,0,0,0-.03-9.05Zm-17.44-8.43c-.03.02-.05.05-.08.07a6.371,6.371,0,0,0-1.81,4.49,6.547,6.547,0,0,0,.53,2.61,14.7,14.7,0,0,1-3.64.43,14.107,14.107,0,1,1,14.13-14.12,13.67,13.67,0,0,1-1.16,5.7,6.531,6.531,0,0,0-7.97.82Z" fill="#383f54"/>
    </g>
    <g id="Group_3133" data-name="Group 3133">
      <path id="Path_4519" data-name="Path 4519" d="M447.93,280.57l-19.72-40.64a6.331,6.331,0,0,0-1.2-1.65,6.248,6.248,0,0,0-4.49-1.88,6.444,6.444,0,0,0-5.79,3.74l-19.71,40.6a6.161,6.161,0,0,0-.87,3.19,6.278,6.278,0,0,0,1.83,4.46,6.362,6.362,0,0,0,8.96.07l.12-.12a6.86,6.86,0,0,0,1.17-1.69l4.72-9.73h19.11l4.72,9.73a2.822,2.822,0,0,0,.26.44,7.366,7.366,0,0,0,.94,1.26.6.6,0,0,1,.08.08,6.36,6.36,0,0,0,10.83-4.5A6.16,6.16,0,0,0,447.93,280.57Zm-22.02-16.33h-6.8l3.4-6.99Z" fill="#383f54"/>
    </g>
  </g>
</svg>
