<svg id="Component_36_1" data-name="Component 36 – 1" xmlns="http://www.w3.org/2000/svg" width="442.698" height="428.027" viewBox="0 0 442.698 428.027">
  <circle id="Ellipse_595" data-name="Ellipse 595" cx="97.332" cy="97.332" r="97.332" transform="translate(80.23 145.334)" fill="#a0e4d5"/>
  <g id="Group_3413" data-name="Group 3413" transform="translate(316.602 1.059)">
    <g id="Group_3412" data-name="Group 3412">
      <path id="Path_4923" data-name="Path 4923" d="M2272.132,1164l-8.534,1.349a54.329,54.329,0,0,0-4.269-4.46l1.724-8.471a5.426,5.426,0,0,0-3.113-6.009l-18.963-8.353a5.433,5.433,0,0,0-6.539,1.762l-5.085,6.99a53.149,53.149,0,0,0-6.169-.139l-4.771-7.206a5.419,5.419,0,0,0-6.449-2.053l-19.319,7.5a5.422,5.422,0,0,0-3.373,5.869l1.346,8.537a53.519,53.519,0,0,0-4.458,4.266l-8.47-1.723a5.418,5.418,0,0,0-6.009,3.113l-8.356,18.965a5.424,5.424,0,0,0,1.767,6.536l6.989,5.082a52.766,52.766,0,0,0-.137,6.173l-7.208,4.766a5.431,5.431,0,0,0-2.051,6.454l7.5,19.314a5.429,5.429,0,0,0,5.87,3.378l8.535-1.349a52.875,52.875,0,0,0,4.268,4.46l-1.726,8.467a5.426,5.426,0,0,0,3.111,6.016l18.967,8.349a5.425,5.425,0,0,0,6.535-1.76l5.085-6.99a53.092,53.092,0,0,0,6.169.138l4.77,7.207a5.424,5.424,0,0,0,6.449,2.052l19.319-7.5a5.425,5.425,0,0,0,3.373-5.868l-1.345-8.537a53.479,53.479,0,0,0,4.458-4.267l8.47,1.723a5.425,5.425,0,0,0,6.013-3.115l8.352-18.963a5.433,5.433,0,0,0-1.761-6.539l-6.989-5.082a54.638,54.638,0,0,0,.137-6.171l7.207-4.767a5.431,5.431,0,0,0,2.047-6.453l-7.5-19.314A5.431,5.431,0,0,0,2272.132,1164Zm1.741,22.546-6.195,4.1a5.392,5.392,0,0,0-2.39,5.029,42.191,42.191,0,0,1-.228,10.159,5.382,5.382,0,0,0,2.166,5.133l6.008,4.367-4.849,11.008-7.281-1.482a5.4,5.4,0,0,0-5.248,1.868,42.117,42.117,0,0,1-7.337,7.026,5.382,5.382,0,0,0-2.1,5.161l1.157,7.333-11.212,4.356-4.1-6.191a5.382,5.382,0,0,0-5.031-2.394,42.047,42.047,0,0,1-10.155-.23,5.4,5.4,0,0,0-5.133,2.167l-4.372,6.008-11.008-4.847,1.483-7.278a5.379,5.379,0,0,0-1.867-5.25,42.337,42.337,0,0,1-7.027-7.34,5.394,5.394,0,0,0-5.159-2.1l-7.333,1.157-4.354-11.207,6.191-4.1a5.39,5.39,0,0,0,2.39-5.029,42.193,42.193,0,0,1,.228-10.16,5.381,5.381,0,0,0-2.166-5.133l-6.009-4.371,4.85-11,7.281,1.482a5.378,5.378,0,0,0,5.247-1.872,42.3,42.3,0,0,1,7.338-7.022,5.376,5.376,0,0,0,2.1-5.161l-1.157-7.333,11.213-4.356,4.1,6.191a5.375,5.375,0,0,0,5.031,2.394,41.906,41.906,0,0,1,10.155.23,5.4,5.4,0,0,0,5.133-2.167l4.372-6.008,11.007,4.844-1.482,7.281a5.38,5.38,0,0,0,1.867,5.25,42.213,42.213,0,0,1,7.027,7.341,5.392,5.392,0,0,0,5.159,2.1l7.337-1.158Z" transform="translate(-2160.323 -1137.052)" fill="#fff" stroke="#707070" stroke-width="0.864"/>
      <path id="Path_4924" data-name="Path 4924" d="M2206.02,1165.083a30.994,30.994,0,1,0,40.11,17.669A31.03,31.03,0,0,0,2206.02,1165.083Zm18.54,47.722a20.2,20.2,0,1,1,11.516-26.148A20.224,20.224,0,0,1,2224.56,1212.806Z" transform="translate(-2154.472 -1131.202)" fill="#fff" stroke="#707070" stroke-width="0.864"/>
    </g>
  </g>
  <g id="Group_3415" data-name="Group 3415" transform="translate(12.257 67.013)">
    <g id="Group_3414" data-name="Group 3414">
      <path id="Path_4925" data-name="Path 4925" d="M2255.147,1324.313l-23.827-5.172a153.441,153.441,0,0,0-6.667-16.093l13.188-20.517a15.31,15.31,0,0,0-2.047-18.985l-41.342-41.342a15.326,15.326,0,0,0-19-2.047l-20.518,13.188a150.638,150.638,0,0,0-16.081-6.667l-5.185-23.827a15.294,15.294,0,0,0-14.867-11.987h-58.476a15.294,15.294,0,0,0-14.867,11.987l-5.185,23.827a150.621,150.621,0,0,0-16.081,6.667l-20.517-13.188a15.291,15.291,0,0,0-18.986,2.047l-41.354,41.342a15.308,15.308,0,0,0-2.035,19l13.188,20.505a149.36,149.36,0,0,0-6.668,16.093L1924,1324.313a15.318,15.318,0,0,0-11.987,14.88v58.464a15.318,15.318,0,0,0,11.987,14.88l23.827,5.172a149.36,149.36,0,0,0,6.668,16.093l-13.188,20.505a15.308,15.308,0,0,0,2.035,19l41.354,41.341a15.306,15.306,0,0,0,18.986,2.047L2024.2,1503.5a150.6,150.6,0,0,0,16.081,6.668l5.185,23.827a15.306,15.306,0,0,0,14.867,11.987H2118.8A15.307,15.307,0,0,0,2133.672,1534l5.185-23.827a150.614,150.614,0,0,0,16.081-6.668l20.518,13.188a15.309,15.309,0,0,0,19-2.047l41.342-41.341a15.326,15.326,0,0,0,2.047-19l-13.188-20.505a153.441,153.441,0,0,0,6.667-16.093l23.827-5.172a15.32,15.32,0,0,0,11.975-14.88v-58.464A15.32,15.32,0,0,0,2255.147,1324.313Zm-18.458,61.075-20.481,4.449a15.214,15.214,0,0,0-11.423,10.786,119.068,119.068,0,0,1-10.982,26.486,15.18,15.18,0,0,0,.454,15.713l11.337,17.625-24,24-17.637-11.337a15.234,15.234,0,0,0-15.713-.453,118.637,118.637,0,0,1-26.474,10.982,15.19,15.19,0,0,0-10.786,11.435l-4.449,20.469H2072.6l-4.449-20.469a15.19,15.19,0,0,0-10.786-11.435,118.636,118.636,0,0,1-26.474-10.982,15.234,15.234,0,0,0-15.713.453l-17.637,11.337-24-24,11.337-17.625a15.18,15.18,0,0,0,.454-15.713,119.636,119.636,0,0,1-10.982-26.486,15.214,15.214,0,0,0-11.423-10.786l-20.469-4.449v-33.926l20.469-4.449a15.214,15.214,0,0,0,11.423-10.786,119.051,119.051,0,0,1,10.982-26.486,15.181,15.181,0,0,0-.454-15.713l-11.337-17.637,24-23.986,17.637,11.337a15.178,15.178,0,0,0,15.713.441,119.183,119.183,0,0,1,26.474-10.97,15.171,15.171,0,0,0,10.786-11.435l4.449-20.469h33.938l4.449,20.469a15.172,15.172,0,0,0,10.786,11.435,118.405,118.405,0,0,1,26.474,10.982,15.234,15.234,0,0,0,15.713-.453l17.637-11.337,24,23.986-11.337,17.637a15.181,15.181,0,0,0-.454,15.713,119.16,119.16,0,0,1,10.982,26.486,15.214,15.214,0,0,0,11.423,10.786l20.481,4.449Z" transform="translate(-1912.011 -1190.863)" fill="#fff" stroke="#707070" stroke-width="1"/>
      <path id="Path_4926" data-name="Path 4926" d="M2072.982,1264.383a87.451,87.451,0,1,0,87.438,87.451A87.554,87.554,0,0,0,2072.982,1264.383Zm0,144.456a57.005,57.005,0,1,1,57.005-57.005A57.063,57.063,0,0,1,2072.982,1408.839Z" transform="translate(-1895.421 -1174.273)" fill="#fff" stroke="#707070" stroke-width="1"/>
    </g>
  </g>
  <circle id="Ellipse_128" data-name="Ellipse 128" cx="13.196" cy="13.196" r="13.196" transform="translate(248.309 401.634)" fill="#a0e4d5"/>
  <ellipse id="Ellipse_128-2" data-name="Ellipse 128" cx="14.791" cy="14.791" rx="14.791" ry="14.791" transform="translate(92.891 53.801)" fill="#a0e4d5"/>
  <ellipse id="Ellipse_128-3" data-name="Ellipse 128" cx="6.842" cy="6.842" rx="6.842" ry="6.842" transform="translate(80.23 40.438)" fill="#a0e4d5"/>
  <g id="Group_3417" data-name="Group 3417" transform="translate(0 67.013)">
    <g id="Group_3416" data-name="Group 3416">
      <path id="Path_4927" data-name="Path 4927" d="M2245.147,1324.313l-23.827-5.172a153.441,153.441,0,0,0-6.667-16.093l13.188-20.517a15.31,15.31,0,0,0-2.047-18.985l-41.342-41.342a15.326,15.326,0,0,0-19-2.047l-20.517,13.188a150.638,150.638,0,0,0-16.081-6.667l-5.185-23.827a15.294,15.294,0,0,0-14.867-11.987h-58.476a15.294,15.294,0,0,0-14.867,11.987l-5.185,23.827a150.621,150.621,0,0,0-16.081,6.667l-20.517-13.188a15.291,15.291,0,0,0-18.986,2.047l-41.354,41.342a15.308,15.308,0,0,0-2.035,19l13.188,20.505a149.36,149.36,0,0,0-6.668,16.093L1914,1324.313a15.318,15.318,0,0,0-11.987,14.88v58.464a15.318,15.318,0,0,0,11.987,14.88l23.827,5.172a149.36,149.36,0,0,0,6.668,16.093l-13.188,20.505a15.308,15.308,0,0,0,2.035,19l41.354,41.341a15.306,15.306,0,0,0,18.986,2.047L2014.2,1503.5a150.6,150.6,0,0,0,16.081,6.668l5.185,23.827a15.307,15.307,0,0,0,14.867,11.987H2108.8A15.307,15.307,0,0,0,2123.672,1534l5.185-23.827a150.614,150.614,0,0,0,16.081-6.668l20.517,13.188a15.309,15.309,0,0,0,19-2.047l41.342-41.341a15.326,15.326,0,0,0,2.047-19l-13.188-20.505a153.441,153.441,0,0,0,6.667-16.093l23.827-5.172a15.32,15.32,0,0,0,11.975-14.88v-58.464A15.32,15.32,0,0,0,2245.147,1324.313Zm-18.458,61.075-20.481,4.449a15.214,15.214,0,0,0-11.423,10.786,119.068,119.068,0,0,1-10.982,26.486,15.18,15.18,0,0,0,.454,15.713l11.337,17.625-24,24-17.637-11.337a15.234,15.234,0,0,0-15.713-.453,118.637,118.637,0,0,1-26.474,10.982,15.19,15.19,0,0,0-10.786,11.435l-4.449,20.469H2062.6l-4.449-20.469a15.19,15.19,0,0,0-10.786-11.435,118.64,118.64,0,0,1-26.474-10.982,15.234,15.234,0,0,0-15.713.453l-17.637,11.337-24-24,11.337-17.625a15.18,15.18,0,0,0,.454-15.713,119.636,119.636,0,0,1-10.982-26.486,15.214,15.214,0,0,0-11.423-10.786l-20.469-4.449v-33.926l20.469-4.449a15.214,15.214,0,0,0,11.423-10.786,119.051,119.051,0,0,1,10.982-26.486,15.181,15.181,0,0,0-.454-15.713l-11.337-17.637,24-23.986,17.637,11.337a15.178,15.178,0,0,0,15.713.441,119.187,119.187,0,0,1,26.474-10.97,15.171,15.171,0,0,0,10.786-11.435l4.449-20.469h33.938l4.449,20.469a15.172,15.172,0,0,0,10.786,11.435,118.405,118.405,0,0,1,26.474,10.982,15.234,15.234,0,0,0,15.713-.453l17.637-11.337,24,23.986-11.337,17.637a15.181,15.181,0,0,0-.454,15.713,119.16,119.16,0,0,1,10.982,26.486,15.214,15.214,0,0,0,11.423,10.786l20.481,4.449Z" transform="translate(-1902.011 -1190.863)" fill="#373f54"/>
      <path id="Path_4928" data-name="Path 4928" d="M2062.982,1264.383a87.451,87.451,0,1,0,87.438,87.451A87.554,87.554,0,0,0,2062.982,1264.383Zm0,144.456a57.005,57.005,0,1,1,57.006-57.005A57.063,57.063,0,0,1,2062.982,1408.839Z" transform="translate(-1885.421 -1174.273)" fill="#373f54"/>
    </g>
  </g>
  <g id="Group_3419" data-name="Group 3419" transform="translate(311.307)">
    <g id="Group_3418" data-name="Group 3418">
      <path id="Path_4929" data-name="Path 4929" d="M2267.812,1163.138l-8.534,1.349a54.288,54.288,0,0,0-4.269-4.46l1.724-8.47a5.428,5.428,0,0,0-3.113-6.01l-18.963-8.353a5.432,5.432,0,0,0-6.539,1.762l-5.085,6.99a53.121,53.121,0,0,0-6.169-.139l-4.77-7.207a5.422,5.422,0,0,0-6.451-2.052l-19.318,7.5a5.422,5.422,0,0,0-3.373,5.869l1.344,8.537a53.676,53.676,0,0,0-4.457,4.266l-8.47-1.723a5.418,5.418,0,0,0-6.009,3.113L2157,1183.081a5.424,5.424,0,0,0,1.766,6.536l6.989,5.082a52.925,52.925,0,0,0-.138,6.172l-7.207,4.766a5.43,5.43,0,0,0-2.05,6.454l7.5,19.314a5.427,5.427,0,0,0,5.87,3.377l8.536-1.348a52.875,52.875,0,0,0,4.268,4.46l-1.726,8.467a5.424,5.424,0,0,0,3.111,6.014l18.967,8.35a5.425,5.425,0,0,0,6.535-1.76l5.085-6.99a53.122,53.122,0,0,0,6.169.139l4.77,7.207a5.425,5.425,0,0,0,6.449,2.052l19.319-7.5a5.426,5.426,0,0,0,3.373-5.869l-1.345-8.537a53.272,53.272,0,0,0,4.456-4.266l8.472,1.723a5.425,5.425,0,0,0,6.013-3.115l8.352-18.963a5.432,5.432,0,0,0-1.762-6.539l-6.988-5.082a54.525,54.525,0,0,0,.137-6.171l7.207-4.766a5.432,5.432,0,0,0,2.047-6.453l-7.5-19.314A5.431,5.431,0,0,0,2267.812,1163.138Zm1.74,22.546-6.195,4.1a5.39,5.39,0,0,0-2.39,5.029,42.2,42.2,0,0,1-.228,10.16,5.381,5.381,0,0,0,2.166,5.133l6.008,4.367-4.849,11.008-7.281-1.482a5.4,5.4,0,0,0-5.25,1.867,42.068,42.068,0,0,1-7.336,7.027,5.382,5.382,0,0,0-2.1,5.161l1.157,7.333-11.213,4.356-4.1-6.191a5.385,5.385,0,0,0-5.031-2.394,42.048,42.048,0,0,1-10.156-.23,5.4,5.4,0,0,0-5.132,2.167l-4.372,6.008-11.008-4.847,1.483-7.278a5.379,5.379,0,0,0-1.867-5.25,42.4,42.4,0,0,1-7.028-7.34,5.391,5.391,0,0,0-5.157-2.1l-7.333,1.157L2168,1212.238l6.191-4.1a5.387,5.387,0,0,0,2.389-5.029,42.18,42.18,0,0,1,.229-10.16,5.382,5.382,0,0,0-2.166-5.133l-6.009-4.371,4.85-11,7.281,1.482a5.379,5.379,0,0,0,5.247-1.872,42.255,42.255,0,0,1,7.338-7.022,5.376,5.376,0,0,0,2.1-5.161l-1.157-7.333,11.212-4.356,4.1,6.191a5.374,5.374,0,0,0,5.031,2.394,41.912,41.912,0,0,1,10.155.23,5.4,5.4,0,0,0,5.133-2.167l4.372-6.008,11.006,4.844-1.482,7.282a5.379,5.379,0,0,0,1.867,5.249,42.245,42.245,0,0,1,7.027,7.341,5.392,5.392,0,0,0,5.159,2.1l7.337-1.158Z" transform="translate(-2156.002 -1136.188)" fill="#373f54"/>
      <path id="Path_4930" data-name="Path 4930" d="M2201.7,1164.219a30.994,30.994,0,1,0,40.11,17.669A31.03,31.03,0,0,0,2201.7,1164.219Zm18.539,47.722a20.2,20.2,0,1,1,11.516-26.148A20.223,20.223,0,0,1,2220.24,1211.942Z" transform="translate(-2150.152 -1130.338)" fill="#373f54"/>
    </g>
  </g>
</svg>
