<svg id="Component_27_1" data-name="Component 27 – 1" xmlns="http://www.w3.org/2000/svg" width="325.251" height="367.1" viewBox="0 0 325.251 367.1">
  <g id="Component_18_1" data-name="Component 18 – 1" transform="translate(0.317)">
    <circle id="Ellipse_582" data-name="Ellipse 582" cx="105.909" cy="105.909" r="105.909" transform="translate(44.259 94.707)" fill="#79cc91"/>
    <g id="Group_3172" data-name="Group 3172" transform="translate(-229.153 -114.09)">
      <path id="Path_4594" data-name="Path 4594" d="M337.74,230.92v.02c0-.01.01-.01.01-.02Zm0,0v.02c0-.01.01-.01.01-.02Zm0,0v.02c0-.01.01-.01.01-.02Z" fill="#030504"/>
      <path id="Path_4595" data-name="Path 4595" d="M476.13,195.02a132.933,132.933,0,0,0-106.58-28.51c-4.11.69-8.42,1.64-12.82,2.83q-1.8.5-3.63,1.05a132.938,132.938,0,0,0,38.46,260.19h.12a133.377,133.377,0,0,0,29.19-3.24c2.78-.62,5.72-1.41,9.24-2.47a132.45,132.45,0,0,0,64.11-42.64C540.85,325.63,532.73,241.65,476.13,195.02ZM314.52,210.84l.28-.25c.1-.1.2-.19.36-.33,2.56-2.24,5.34-4.44,8.48-6.71.16-.12.32-.24.47-.36.19-.14.37-.28.56-.4.03-.02.07-.04.1-.06,2.84-2,5.8-3.89,8.82-5.62l.51-.3c.27-.16.54-.33.81-.46a.879.879,0,0,1,.1-.06c2.46-1.37,4.99-2.67,7.55-3.85a119.162,119.162,0,0,0-17.66,31.73,124.813,124.813,0,0,1-16.38-7.61C310.39,214.66,312.4,212.74,314.52,210.84Zm23.23,20.08c0,.01-.01.01-.01.02v-.02Zm-40.12-1.27a142.564,142.564,0,0,0,22.03,10.51,210.759,210.759,0,0,0-7.38,49.05H275.96A115.868,115.868,0,0,1,297.63,229.65Zm0,135.98a115.9,115.9,0,0,1-21.67-59.56h36.32a210.311,210.311,0,0,0,7.38,49.05A141.653,141.653,0,0,0,297.63,365.63Zm37.35,33.34c-.24-.13-.48-.27-.72-.41l-.62-.36c-3.06-1.75-6.05-3.66-8.89-5.66-.2-.14-.4-.29-.59-.43l-.44-.33c-2.99-2.15-5.88-4.43-8.54-6.75l-.13-.12c-.17-.16-.35-.32-.55-.48-2.09-1.85-4.1-3.76-6-5.7a125.727,125.727,0,0,1,16.4-7.62,119.437,119.437,0,0,0,17.68,31.74C339.97,401.63,337.43,400.33,334.98,398.97Zm48.21,13.63c-16.8-4.24-31.94-20.95-42.11-46.56a193.929,193.929,0,0,1,42.11-6.16Zm0-69.57a210.1,210.1,0,0,0-47.43,6.99,194.392,194.392,0,0,1-6.62-43.95h54.05Zm0-53.82H329.14a193.646,193.646,0,0,1,6.61-43.93,210.209,210.209,0,0,0,47.44,7.14Zm0-53.8a193.956,193.956,0,0,1-42.11-6.18c10.15-25.57,25.29-42.28,42.11-46.54Zm102.42-5.76a115.868,115.868,0,0,1,21.67,59.56H470.96a210.759,210.759,0,0,0-7.38-49.05A142.563,142.563,0,0,0,485.61,229.65Zm-37.4-33.35c.28.15.55.31.82.47l.58.34c3.09,1.77,6.07,3.67,8.86,5.64.2.14.4.28.59.43l.48.35c3.42,2.49,6.13,4.63,8.52,6.74.14.12.27.25.4.38l.11.11a.571.571,0,0,0,.08.07c2.16,1.93,4.16,3.82,6.04,5.74a128.279,128.279,0,0,1-16.35,7.6,119.37,119.37,0,0,0-17.69-31.75C443.29,193.65,445.83,194.95,448.21,196.3Zm19.76,188.82c-2.61,2.28-5.44,4.52-8.43,6.67l-.45.33c-.21.15-.41.3-.63.45-2.74,1.94-5.72,3.84-8.85,5.64l-.6.34c-.26.16-.52.31-.79.46-2.45,1.37-4.99,2.67-7.55,3.87a119.2,119.2,0,0,0,17.67-31.78,127.242,127.242,0,0,1,16.38,7.59c-1.9,1.94-3.94,3.87-6.1,5.79C468.39,384.68,468.18,384.9,467.97,385.12ZM400.05,182.68c16.8,4.24,31.94,20.95,42.11,46.55a193.333,193.333,0,0,1-42.11,6.17Zm0,69.74a210.209,210.209,0,0,0,47.44-7.14,193.648,193.648,0,0,1,6.61,43.93H400.05Zm0,53.65H454.1a194.4,194.4,0,0,1-6.62,43.95,210.666,210.666,0,0,0-47.43-6.99Zm0,106.53V359.88a193.84,193.84,0,0,1,42.11,6.16C431.99,391.63,416.84,408.35,400.05,412.6Zm85.55-46.96a141.481,141.481,0,0,0-22.05-10.52,210.348,210.348,0,0,0,7.41-49.05h36.32A115.858,115.858,0,0,1,485.6,365.64Z" fill="#030504"/>
    </g>
    <g id="Group_3173" data-name="Group 3173" transform="translate(-229.153 -114.09)">
      <path id="Path_4596" data-name="Path 4596" d="M554.08,303.85A162.754,162.754,0,0,1,391.62,460.22H325.38a3.43,3.43,0,0,0-2.43,5.85l.72.73a8.429,8.429,0,1,1-11.92,11.92l-20.96-20.97a8.45,8.45,0,0,1,0-11.92l20.96-20.96a8.432,8.432,0,0,1,11.93,11.92l-.73.72a3.427,3.427,0,0,0,2.43,5.85h66.24A145.434,145.434,0,0,0,537.23,303.28a8.434,8.434,0,0,1,14.51-5.55A8.273,8.273,0,0,1,554.08,303.85Z" fill="#030504"/>
    </g>
    <g id="Group_3174" data-name="Group 3174" transform="translate(-229.153 -114.09)">
      <path id="Path_4597" data-name="Path 4597" d="M483.05,143.48a8.372,8.372,0,0,1-2.46,5.96l-20.96,20.97a8.429,8.429,0,0,1-11.92-11.92l.72-.73a3.43,3.43,0,0,0-2.43-5.85H391.62A145.448,145.448,0,0,0,246.01,291.99a8.434,8.434,0,0,1-14.52,5.55,8.281,8.281,0,0,1-2.33-6.11A162.772,162.772,0,0,1,391.62,135.05H446a3.427,3.427,0,0,0,2.43-5.85l-.72-.72a8.432,8.432,0,0,1,9.19-13.75,8.3,8.3,0,0,1,2.73,1.83l20.96,20.96A8.39,8.39,0,0,1,483.05,143.48Z" fill="#030504"/>
    </g>
  </g>
  <ellipse id="Ellipse_50" data-name="Ellipse 50" cx="24.946" cy="24.179" rx="24.946" ry="24.179" transform="matrix(0.571, -0.821, 0.821, 0.571, 0, 304.366)" fill="#79cc91"/>
  <ellipse id="Ellipse_50-2" data-name="Ellipse 50" cx="13.946" cy="14.179" rx="13.946" ry="14.179" transform="matrix(0.571, -0.821, 0.821, 0.571, 262.492, 57.051)" fill="#79cc91"/>
</svg>
