<svg id="Component_14_1" data-name="Component 14 – 1" xmlns="http://www.w3.org/2000/svg" width="853.252" height="461.313" viewBox="0 0 853.252 461.313">
  <g id="Group_338" data-name="Group 338" transform="translate(-958.086 -7683.064)">
    <path id="Path_766" data-name="Path 766" d="M1700.537,8128.167s84.237-91.911,14.246-191.418c-62.1-88.289-134.505-82.254-187.626-46.426-22.625,15.26-104.512,84.593-160.031-5.244-75.713-122.514-321.508-130.921-273.655,57.569,23.157,91.217-92.7,94.532-44.987,185.712Z" fill="#f4c9c6"/>
    <path id="Path_767" data-name="Path 767" d="M1689.008,8130.58s89.65-98.288,15.775-201.862c-64.45-90.359-134.505-85.7-187.626-48.371-22.625,15.9-98.073,95.476-160.031-5.465-77.639-126.487-321.508-136.408-273.655,59.983,23.157,95.039-92.7,98.494-44.987,193.495" fill="none" stroke="#b06bc1" stroke-miterlimit="10" stroke-width="2.92" style="mix-blend-mode: multiply;isolation: isolate"/>
  </g>
  <rect id="Rectangle_73" data-name="Rectangle 73" width="853.252" height="16.307" transform="translate(0 445.006)" fill="#262261"/>
  <g id="Group_351" data-name="Group 351" transform="translate(-958.086 -7683.064)">
    <g id="Group_340" data-name="Group 340">
      <g id="Group_339" data-name="Group 339">
        <rect id="Rectangle_74" data-name="Rectangle 74" width="134.303" height="30.326" transform="translate(1108.199 8097.743)" fill="#7d5dcb"/>
        <rect id="Rectangle_75" data-name="Rectangle 75" width="134.302" height="30.328" transform="translate(1066.788 8097.742)" fill="#9c7fee"/>
      </g>
    </g>
    <g id="Group_343" data-name="Group 343">
      <g id="Group_342" data-name="Group 342">
        <g id="Group_341" data-name="Group 341">
          <rect id="Rectangle_76" data-name="Rectangle 76" width="100.004" height="139.779" transform="translate(1395.339 8128.063) rotate(180)" fill="#cb865d"/>
          <rect id="Rectangle_77" data-name="Rectangle 77" width="100.003" height="139.779" transform="translate(1364.504 8128.063) rotate(180)" fill="#eea67f"/>
        </g>
      </g>
      <path id="Path_768" data-name="Path 768" d="M1364.5,7988.283l30.835,20.988v-20.988Z" opacity="0.1"/>
    </g>
    <g id="Group_344" data-name="Group 344">
      <path id="Path_769" data-name="Path 769" d="M1453.732,7790.946c-1.546-.235-6.205,4.072-6.205,4.072h0c-9.562-1.673-24.491,3.791-29.726,4.8-3.713.715-13.693-2.688-23.443-6.595-11.6-4.649-22.864-10.012-22.864-10.012-6.435-.327-13.742,11.412-.693,18.875,1.992,1.14,9.477,3.084,18.095,4.86h0c11.889,2.449,25.934,4.576,30.716,3.829,5.553-.869,21.273-6.62,30.624-11.024h0l.024-.012.1-.049a11.435,11.435,0,0,1,4.377-1.191c1.752.1,5.654-3.1,5.773-3.958S1455.278,7791.181,1453.732,7790.946Z" fill="#fa997b"/>
      <path id="Path_770" data-name="Path 770" d="M1441.586,7938.831l-8.335,1.831s-19.328-27.072-26.6-37.2c-5.382-7.5-14.78-12.6-28.609-16.177-12.036-3.111-24.525-6.861-30.488-14.177-12.819-15.718,8.05-35.031,8.05-35.031s22.19,13.187,41.333,26.812c13.38,9.521,25.272,19.255,27.064,24.85C1428.356,7903.344,1437.585,7929.2,1441.586,7938.831Z" fill="#71808b"/>
      <path id="Path_771" data-name="Path 771" d="M1434.255,7948.121l8.456.031H1455.8c.329-.47.013-1.559-.3-2.361a1.86,1.86,0,0,0-1.225-1.119,14.117,14.117,0,0,1-6.629-3.029c-1.41-1.274-4.54-4.751-6.522-5.357-.834-.254-1,.842-3.452,2.916-1.269,1.069-5.277-.693-5.137.143a25.47,25.47,0,0,1-.224,6.17C1432.166,7946.452,1431.6,7947.79,1434.255,7948.121Z" fill="#231f20"/>
      <path id="Path_772" data-name="Path 772" d="M1388.381,7859.337l-19.556,25.174c-12.036-3.112-15.3-4.086-21.267-11.4-12.819-15.718,8.05-35.031,8.05-35.031S1369.238,7845.712,1388.381,7859.337Z" fill="#576870"/>
      <path id="Path_773" data-name="Path 773" d="M1379.771,7853.192s-1.524,4.8-4,12.03c-3.136,9.137-7.807,22.148-12.873,34.214-1.113,2.651-2.246,5.259-3.386,7.768-4.213,9.285-9.832,24.166-12.03,29.259-5.472,12.676-20.589,44-20.589,44l-9.138-1.366s18.2-79.637,20.314-94.9c.52-3.743,1.108-7.5,1.769-11.092.041-.23.086-.457.127-.684,3.106-16.628,6.079-24.023,9.917-27.743l28.221,8.033Z" fill="#71808b"/>
      <path id="Path_774" data-name="Path 774" d="M1319.182,7988.253h3.081a29.855,29.855,0,0,1,5.347,0c.02.02.029.031.029.031h13.087c.329-.471.013-1.56-.3-2.361a1.858,1.858,0,0,0-1.225-1.12,14.12,14.12,0,0,1-6.629-3.028c-1.41-1.274-4.538-3.886-4.538-3.886-1.539-.386-2.981-.629-5.436,1.444-1.269,1.069-4.356-2.15-4.356-2.15a12.3,12.3,0,0,0-.619,3.28,13.456,13.456,0,0,1-.385,5.183C1316.936,7986.544,1316.532,7987.921,1319.182,7988.253Z" fill="#231f20"/>
      <path id="Path_775" data-name="Path 775" d="M1325.235,7798.9s-4.721,11.552-10.166,22.8c-4.579,9.454-9.667,18.689-12.894,20.66-4.549,2.779-17.008,10.414-25.138,16.261,0,0-6.417.156-7.4,1.37s-3.26,6.672-2.6,7.224,5.707.3,6.933-.96a11.443,11.443,0,0,1,4.039-2.066l.11-.034.026-.007h0c9.878-3.039,25.374-9.371,30.064-12.468,4.039-2.666,12.992-13.694,20.134-23.51h0c5.177-7.115,9.4-13.592,10.108-15.776C1343.078,7798.09,1329.772,7794.329,1325.235,7798.9Z" fill="#fa997b"/>
      <path id="Path_776" data-name="Path 776" d="M1349.931,7753.6c-.561-.817-5.747-6.554-12.078-6.907-9.156-.51-14.9,12.353-14.9,12.353l23.461,13.826s.062-3.768,2.3-3.525C1352.208,7769.731,1355.114,7761.159,1349.931,7753.6Z" fill="#404041"/>
      <path id="Path_777" data-name="Path 777" d="M1351.029,7755.454s4.636.608,4.366,5.1,2.437,5.082,6.319,4.847,5.294,2.471,5.294,4.353-.706,4,3.647,3.647,8.235,3.274,7.529,5.931.236,9.134-3.529,10.954-26.521,8.813-26.521,8.813l-20.067,2.012s-1.412-8.769,0-12.063-1.255-7.549-.628-9.716,3.922-5.808,4.51-6.458S1351.029,7755.454,1351.029,7755.454Z" fill="#404041"/>
      <path id="Path_778" data-name="Path 778" d="M1351.425,7789.393c-5.383,2.538-12.526-1.117-12.488-1.155.461-.462.3-1.844-.124-3.651a26.634,26.634,0,0,0-3.268-7.537c-.385-.654-.769-1.307-1.231-2l.616-.23,10.458-4.191s1.692,3.037,3.461,5.806c1.5,2.307,3.076,4.383,3.768,4.307C1352.656,7780.7,1359.577,7785.471,1351.425,7789.393Z" fill="#fa997b"/>
      <path id="Path_779" data-name="Path 779" d="M1345.388,7771.667c-.269,3.729-1.538,10.458-6.575,12.92a26.634,26.634,0,0,0-3.268-7.537Z" fill="#ef5d23"/>
      <path id="Path_780" data-name="Path 780" d="M1334.932,7781.295s13.617-5.367,10.144-13.795-4.054-14.8-12.9-11.727-9.193,6.978-8.719,10.073S1331.3,7782.474,1334.932,7781.295Z" fill="#fa997b"/>
      <path id="Path_781" data-name="Path 781" d="M1340.012,7765.578c6.286-.888,8.122-3.429,8.122-3.429a17.413,17.413,0,0,1-9.193-7.332s-7.067-2.383-12.3,1.6a3.528,3.528,0,0,0-.663,1.477c-1.2-.394-3.005-.291-4.046,3.1-1.565,5.1,4,10.66,4,10.66,1.35-.381-.172-4.923-.385-7.347a3.544,3.544,0,0,1,2.228-3.633C1331.324,7759.683,1338.091,7765.849,1340.012,7765.578Z" fill="#404041"/>
      <path id="Path_782" data-name="Path 782" d="M1377.35,7806.758c-.115-.407-.239-.829-.369-1.261a31.948,31.948,0,0,0,3.436-10.3c.923-6.23-.653-10.075-.653-10.075s-9.445-5.009-13.615-5.646a.244.244,0,0,0-.052-.016c-.049-.007-.106-.012-.168-.016-4.209-.58-13.323,1.28-13.323,1.28s1.758,4.681-3.2,7.8-10.257-.8-10.257-.8c-.159.107-.33.226-.5.349h0s-13.051,8.611-14.222,10.578-6.191,11.711-6.191,11.711,1.591,8.18,19.221,8.864a40.728,40.728,0,0,1,2.92,9.8c1.4,11.1-.225,19.861,1.407,26.342s33.463,2.568,38.79,1.321,1.713-6.718,2.123-12.244C1383.2,7837.51,1379.084,7812.883,1377.35,7806.758Z" fill="#eeb56e"/>
    </g>
    <g id="Group_348" data-name="Group 348">
      <path id="Path_783" data-name="Path 783" d="M1260.646,7867.967s5.48-6.641,6.659-7.426,6.357-2.162,6.653-1.885.309.679-.332,1.245-3.09,2-2.74,2.156,7.734-3.516,8.8-2.279-.6,6.342-3.449,8.789-11.34,3.491-11.875,3.832C1259.83,7875.3,1260.646,7867.967,1260.646,7867.967Z" fill="#fa997b"/>
      <path id="Path_784" data-name="Path 784" d="M1164.16,7852.632s7.873,9.34,17.9,5.433c0,0,2.157-5.217,2.187-9.062,0-.473.01-.932.017-1.368.053-4.331.2-6.76.2-6.76l-.01,0c-.456-.19-15.327-6.295-15.314-5.789C1169.393,7846.8,1164.16,7852.632,1164.16,7852.632Z" fill="#fa997b"/>
      <path id="Path_785" data-name="Path 785" d="M1170.631,7837.877c1.434,2.658,6.354,7.858,13.632,9.758.053-4.331.2-6.76.2-6.76l-.01,0C1184.041,7840.763,1170.2,7837.094,1170.631,7837.877Z" fill="#ef5d23"/>
      <path id="Path_786" data-name="Path 786" d="M1187.577,7840.425s-16.724,3.932-19.012-6.521-5.987-16.984,4.593-19.936,13.536.581,15.148,3.884S1191.868,7839.133,1187.577,7840.425Z" fill="#fa997b"/>
      <path id="Path_787" data-name="Path 787" d="M1169.137,7836.752c-.228.146-3.827,1.252-10.641-12.324a11.823,11.823,0,0,1,.7-10.815c2.494-4.073,11.335-7.276,18.682-8.67s9.109,2.74,10.84,6.9c1.815,4.361-6.905,6.428-9.548,7.261s-3.577,5-3.775,6.334-.353,1.887-3.827,1.252c-4.908-.9-1.5,4.71-.971,5.839C1170.592,7832.524,1171.044,7835.531,1169.137,7836.752Z" fill="#a9453d"/>
      <g id="Group_345" data-name="Group 345">
        <path id="Path_788" data-name="Path 788" d="M1126.057,8097.743H1115.93c-2.122,0-4.481-2.154-5.071-6.1s-4.954-6.1-5.9-9.325,3.894-7.773,3.894-7.773l.809-1.053.841-1.1,8.022,1.912s.2,1.936.321,4.4c.086,1.78.133,3.838.033,5.643-.236,4.305,1.19,8.939,4.963,9.777S1126.057,8097.743,1126.057,8097.743Z" fill="#2c3a64"/>
        <path id="Path_789" data-name="Path 789" d="M1196.552,8097.841H1169.71a2.363,2.363,0,0,1-.57-.171c-1.792-.923-1.231-7.988-1.016-10.17.042-.4.071-.642.071-.642s9.439-7.772,10.738-1.821c.041.186.088.368.138.548v0c1.639,5.568,8.964,8.1,13.194,8.8C1195.5,8094.932,1196.337,8096.871,1196.552,8097.841Z" fill="#2c3a64"/>
        <path id="Path_790" data-name="Path 790" d="M1191.142,7942.618s-1.434,17.884-3.118,39.382c-2.29,29.2-5.044,65.076-5.317,71.871-.47,11.8-2.36,30.676-2.36,30.676s-4.481,4.484-13.45,2.594c0,0-7.992-26.945-10.275-55.455-.035-.467-.071-.938-.106-1.409-2.124-29.022-5.426-90.137-5.426-90.137Z" fill="#ee9849"/>
        <path id="Path_791" data-name="Path 791" d="M1191.142,7942.618s-1.434,17.884-3.118,39.382l-32.162,37.112c-.035-.468-4.772-78.972-4.772-78.972Z" fill="#e58638"/>
        <path id="Path_792" data-name="Path 792" d="M1184.6,7944.741s-25.838,64.771-42.827,95.21-22.3,38.933-22.3,38.933-9.733-3.893-10.618-6.547c0,0,6.5-58.764,17.874-73.089,6.428-8.094,13.98-32.385,14.334-40.88s2.3-25.307,2.3-25.307Z" fill="#ee9849"/>
      </g>
      <g id="Group_346" data-name="Group 346">
        <path id="Path_793" data-name="Path 793" d="M1125.438,7933.955s-.669,8.089-1.159,9.331-3.757,5.092-4.135,5.037-.6-.359-.413-1.142,1.318-3.206.961-3.143-4.095,6.882-5.584,6.5-2.946-5.233-2.06-8.658,6.9-8.8,7.13-9.355C1122.125,7927.843,1125.438,7933.955,1125.438,7933.955Z" fill="#fa997b"/>
        <path id="Path_794" data-name="Path 794" d="M1122.666,7936.006c2.86.918,3.318.711,3.318.711s13.919-25.342,15.329-27.662,29.554-28.418,29.554-28.418l-7.233-26.97s-32.01,41.451-35.467,47.4c-5.712,9.829-9.059,32.656-9.059,32.656A8.364,8.364,0,0,0,1122.666,7936.006Z" fill="#1e3d70"/>
      </g>
      <path id="Path_795" data-name="Path 795" d="M1196.6,7891.225c-.1,5.539-.422,11.765-.856,18.089q-.04.563-.08,1.125c-.277,3.918-.578,7.844-.924,11.673q-.208,2.3-.44,4.544l-.023.2c-.012.558-.08,1.163-.142,1.715-1.411,14.342-2.89,25.673-3.165,25.847a1.606,1.606,0,0,1-1.1.281c-3.761-.473-14.983.381-24.17-1.618-7.753-1.636-14.428-4.735-21.5-8.916-.939-.555-3.079-2.025-2.905-3.123.171-1.208.487-2.953.889-5.146a278.665,278.665,0,0,0,4.62-36.11q.239-4.292.694-8.464a128.4,128.4,0,0,1,3.746-20.215c3.15-11.342,7.779-20.028,13.587-23.426.759-.425,4.841,2.173,8.591,4.579a16.556,16.556,0,0,0,10.654,2.524l3.121,3.451c3.779,4.394,7.8,10.242,8.9,18.556q.125.921.213,1.96A121.838,121.838,0,0,1,1196.6,7891.225Z" fill="#2a4e96"/>
      <path id="Path_796" data-name="Path 796" d="M1196.6,7891.225c-.1,5.539-.422,11.765-.856,18.089q-.04.563-.08,1.125c-21.483-13.448-24.793-38.055-24.793-38.055,10.569.463,18.965,2.893,25.437,6.368A121.838,121.838,0,0,1,1196.6,7891.225Z" fill="#1e3d70"/>
      <g id="Group_347" data-name="Group 347">
        <path id="Path_797" data-name="Path 797" d="M1263.905,7868.631c-1.107-3-2.829-2.8-2.829-2.8s-31.943,7.96-34.81,8.3-34.4-12.312-34.4-12.312-12.411-5.57-18.224-.484c-5.052,4.42-5.282,10.018-4.1,14.72a14.056,14.056,0,0,0,11.88,10.472c12.864,1.638,38.53,4.722,43.91,3.974,11.973-1.667,39.1-17.328,39.1-17.328A10.059,10.059,0,0,0,1263.905,7868.631Z" fill="#2a4e96"/>
      </g>
    </g>
    <g id="man">
      <g id="Group_349" data-name="Group 349">
        <path id="Path_798" data-name="Path 798" d="M1578.884,7927.18s4.437,4.113,3.571,7.036-4.871,4.871-5.412,8.443-2.706,5.52-4.654,5.52H1563.1s-1.434-2.514,2.03-3.271,4.77-4.955,4.553-8.852a69.6,69.6,0,0,1,.325-9.092l7.36-1.732Z" fill="#2c3a64"/>
        <path id="Path_799" data-name="Path 799" d="M1523.573,7947.693a17.146,17.146,0,0,1-4.2.486h-21.006c.071-.625.56-2.852,3.995-3.406,3.88-.631,10.6-2.887,12.1-7.85.051-.159.093-.323.13-.487,1.19-5.3,9.848,1.623,9.848,1.623s.026.212.063.574C1524.7,7940.583,1525.215,7946.873,1523.573,7947.693Z" fill="#2c3a64"/>
        <path id="Path_800" data-name="Path 800" d="M1503.386,7805.831s1.316,16.409,2.861,36.132c2.1,26.794,4.628,59.705,4.878,65.939.432,10.827,2.165,28.144,2.165,28.144s4.112,4.115,12.34,2.38c0,0,7.332-24.721,9.427-50.877.032-.429.065-.861.1-1.293,1.949-26.628,4.978-82.7,4.978-82.7Z" fill="#35488b"/>
        <path id="Path_801" data-name="Path 801" d="M1503.386,7805.831s1.316,16.409,2.861,36.132l28.81,45.586c.032-.429.065-.861.1-1.293,1.949-26.628,4.978-82.7,4.978-82.7Z" fill="#2c3a64"/>
        <path id="Path_802" data-name="Path 802" d="M1509.393,7807.78s23.7,59.425,39.291,87.351,20.458,35.72,20.458,35.72,8.93-3.572,9.742-6.008c0,0-5.961-53.913-16.4-67.055-5.9-7.426-12.827-29.712-13.151-37.506s-2.111-23.218-2.111-23.218Z" fill="#35488b"/>
      </g>
      <g id="Group_350" data-name="Group 350">
        <path id="Path_803" data-name="Path 803" d="M1436.277,7775.55a71.309,71.309,0,0,0-7.512-1.4c-1.083.075-4.868,1.658-4.918,1.965s.129.556.782.6,2.808-.232,2.671.029-6.338,1.479-6.406,2.728,3.329,3.567,6.2,3.723,8.515-3.18,9-3.222C1440.2,7779.618,1436.277,7775.55,1436.277,7775.55Z" fill="#fa997b"/>
        <path id="Path_804" data-name="Path 804" d="M1433.524,7777.183c-.922-2.937-.706-3.405-.706-3.405s26.064-14.093,28.451-15.522,29.321-30.093,29.321-30.093l27.589,7.593s-42.694,32.523-48.812,36.025c-10.111,5.787-33.526,9.063-33.526,9.063A8.576,8.576,0,0,1,1433.524,7777.183Z" fill="#e58638"/>
      </g>
      <path id="Path_805" data-name="Path 805" d="M1498.95,7714.228s-9.672,17.018-19.126,19.239c0,0,.394-5.715,2.7-9.627-.943-1.111-1.771-2.133-2.487-3.047a57.054,57.054,0,0,1-3.512-4.916l3.209-8.626,2.177-5.852a28.106,28.106,0,0,0,3.4,4.9A23.144,23.144,0,0,0,1498.95,7714.228Z" fill="#fa997b"/>
      <path id="Path_806" data-name="Path 806" d="M1485.309,7706.3s1.154,8.528-5.276,14.492a57.054,57.054,0,0,1-3.512-4.916l3.209-8.626A18.339,18.339,0,0,1,1485.309,7706.3Z" fill="#ef5d23"/>
      <path id="Path_807" data-name="Path 807" d="M1473.972,7717.135s14.452-5.634,10.8-14.58-4.238-15.7-13.619-12.478-9.771,7.359-9.28,10.64S1470.119,7718.37,1473.972,7717.135Z" fill="#fa997b"/>
      <path id="Path_808" data-name="Path 808" d="M1548.624,7801.556c-5.831,8.381-49.415,19.58-48.9,13.778a62.952,62.952,0,0,0-.006-11.443q-.164-1.865-.463-3.953a91.152,91.152,0,0,0-9.6-28.77c-.44-.851-.9-1.707-1.373-2.575a88.634,88.634,0,0,1-6.043-13.577c-3.02-8.727-4.236-17.076-2.713-22.535.006-.027.351-6.2,3.357-10.253,5.98-8.062,9.308-10.375,9.308-10.375s31.084,5.58,48.494,47.012C1540.682,7758.865,1553.7,7794.261,1548.624,7801.556Z" fill="#ee9849"/>
      <path id="Path_809" data-name="Path 809" d="M1499.719,7803.891q-.164-1.865-.463-3.953a91.152,91.152,0,0,0-9.6-28.77c1.007-6.106,2.4-11.183,3.924-13.469,6.2-9.291,9.81-10.743,9.81-10.743S1512.683,7786.163,1499.719,7803.891Z" fill="#e58638"/>
      <path id="Path_810" data-name="Path 810" d="M1486.851,7685.938c-2.328-3.46-9.365-4.111-21.095-.2-15.458,5.149-7.735,14.123-5.392,14.843s6.656-3.9,10.535-4.529,5.978,4.774,7.457,5.222.373-1.763,2.034-2.528c2.571-1.183,2.591,2.181,2.558,4.216s2.986,3.963,2.986,3.963l1.771-3.249C1489.476,7700.424,1487.655,7687.134,1486.851,7685.938Z" fill="#a9453d"/>
    </g>
    <path id="Path_811" data-name="Path 811" d="M1242.5,8097.4v17.5l-41.412-17.5Z" opacity="0.1"/>
    <rect id="Rectangle_78" data-name="Rectangle 78" width="136.954" height="179.884" transform="translate(1459.95 7948.178)" fill="#5d85cb"/>
    <rect id="Rectangle_79" data-name="Rectangle 79" width="136.956" height="179.884" transform="translate(1417.72 7948.179)" fill="#7fadee"/>
    <path id="Path_812" data-name="Path 812" d="M1596.9,7948.179v26.9l-42.227-26.9Z" opacity="0.1"/>
  </g>
  <path id="Path_813" data-name="Path 813" d="M1318.228,7810.367s-16.4,27.41-21.161,30.783-20.647,13.783-20.647,13.783l5.117,10.059s26.824-10.941,32.118-14.294,22.177-27.464,23.794-31.467S1318.228,7810.367,1318.228,7810.367Z" transform="translate(-958.086 -7683.064)" fill="#eeb56e"/>
  <path id="Path_814" data-name="Path 814" d="M1443.4,7808.4s-22.622,4.526-26.332,5.766c-2.51.83-20.4-2.93-31.74-5.45-3.7-.82-6.7-1.52-8.24-1.87-.73-.17-1.14-.27-1.14-.27l.43-2.44,1.06-5.91,2.33-13.11s29.18,10.66,33.59,11.38,22.74-1.6,24.61-1.94Z" transform="translate(-958.086 -7683.064)" fill="#eeb56e"/>
  <path id="Path_815" data-name="Path 815" d="M1385.622,7808.8c-3.7-.82-6.7-1.52-8.24-1.87-.14-.59-.37-1.55-.71-2.71-.89-3.11-2.48-7.64-4.65-10.07a57.544,57.544,0,0,1,5.71,4.16C1381.152,7801.153,1384.952,7805.053,1385.622,7808.8Z" transform="translate(-958.086 -7683.064)" fill="#d89e60"/>
  <g id="Group_352" data-name="Group 352" transform="translate(-958.086 -7683.064)">
    <path id="Path_816" data-name="Path 816" d="M1450.722,7794.563s-8.6.451-9.932.932-5.52,3.821-5.473,4.224.361.652,1.2.474,3.441-1.295,3.363-.919-7.429,4.123-7.069,5.715,5.455,3.29,9.116,2.459,9.554-7.035,10.147-7.261C1457.1,7798.271,1450.722,7794.563,1450.722,7794.563Z" fill="#fa997b"/>
    <path id="Path_817" data-name="Path 817" d="M1449.1,7797.824c-1.723-2.783-.481-4.052-.481-4.052s26.563-20.8,28.645-22.9,11.727-35.557,11.727-35.557,3.32-13.54,11.093-15.033c6.755-1.3,11.424,2.045,14.479,5.963a14.4,14.4,0,0,1,.976,16.2c-6.782,11.428-20.464,34.113-24.459,37.989-8.891,8.625-38.642,20.679-38.642,20.679A10.3,10.3,0,0,1,1449.1,7797.824Z" fill="#ee9849"/>
  </g>
  <ellipse id="Ellipse_42" data-name="Ellipse 42" cx="0.89" cy="0.453" rx="0.89" ry="0.453" transform="translate(522.338 18.54) rotate(-79.727)" fill="#ef5d23"/>
  <path id="Path_818" data-name="Path 818" d="M1339.977,7764.454c-.611,1.667.31,2.716,1.7,3.213,2.185.778,3.01-.429,3.622-2.1a2.983,2.983,0,0,0-1.407-3.941C1342.507,7761.12,1340.589,7762.787,1339.977,7764.454Z" transform="translate(-958.086 -7683.064)" fill="#fa997b"/>
  <ellipse id="Ellipse_43" data-name="Ellipse 43" cx="1.296" cy="0.66" rx="1.296" ry="0.66" transform="translate(383.802 82.659) rotate(-71.55)" fill="#ef5d23"/>
  <ellipse id="Ellipse_44" data-name="Ellipse 44" cx="0.66" cy="1.296" rx="0.66" ry="1.296" transform="matrix(0.639, -0.769, 0.769, 0.639, 211.865, 145.431)" fill="#ef5d23"/>
</svg>
