<svg id="Component_47_1" data-name="Component 47 – 1" xmlns="http://www.w3.org/2000/svg" width="28" height="29.203" viewBox="0 0 28 29.203">
  <g id="Background" transform="translate(0.115 0.019)">
    <path id="Subtraction_6" data-name="Subtraction 6" d="M13.376,14H7.346c-4.733,0-6.03-.037-6.032-.171,0-.093-.06-.561-.134-1.064C1.1,12.2.869,10.7.775,10.088.631,9.156.413,7.725.272,6.794.121,5.79.029,4.968,0,4.351L6.515,2.186C10.172.972,13.11.017,13.2.011h0c.138,0,.172,1.647.172,13.989ZM11.945,1.629h0c-.051,0-2.4.776-5.352,1.757L1.336,5.133c.349,2.381.6,4.038.755,5.078.172,1.13.323,2.2.323,2.289a.025.025,0,0,0,.009.019c.107.107,1.184.138,4.8.138H12.04c0-3.641-.008-6.42-.024-8.258s-.04-2.77-.071-2.77ZM14.624,14h0V7c0-3.86.047-7,.1-7S19.138,1.422,28,4.348l-.014.468c-.008.258-.123,1.164-.251,1.978l-.007.044c-.208,1.339-.387,2.493-.5,3.25-.138.9-.33,2.167-.4,2.676s-.133.971-.134,1.064C26.683,13.965,25.263,14,14.624,14ZM16.138,1.654a37.365,37.365,0,0,0-.155,5.471l-.02,5.529,9.558,0c.386-2.624.679-4.575.87-5.8l.27-1.722c-6.987-2.3-10.428-3.443-10.518-3.481Z" transform="translate(-0.115 -0.019)"/>
    <path id="Subtraction_4" data-name="Subtraction 4" d="M13.077,13.819a.036.036,0,0,1-.022-.005c-.058-.054-.1-3.176-.1-6.957l0-6.856h5.857c3.229,0,5.857.047,5.858.1S24.56.954,24.4,2c-.161,1.068-.382,2.548-.493,3.307-.126.858-.253,1.736-.288,2s-.094.651-.129.862a.62.62,0,0,1-.286.426,7.66,7.66,0,0,1-1.052.592c-.711.358-2.242,1.152-3.411,1.771C17.55,11.586,15.819,12.5,14.885,13A9.47,9.47,0,0,1,13.077,13.819Zm1.211-12.4v5.26c0,2.9.042,5.259.093,5.259S15.7,11.3,17.2,10.5c1.484-.782,3.231-1.705,3.922-2.071l1.2-.635c.108-.905.28-2.1.524-3.652.2-1.264.36-2.388.36-2.507a.1.1,0,0,0-.027-.074c-.13-.131-.844-.142-4.429-.142Zm-2.694,12.4A9.577,9.577,0,0,1,9.786,13L5.927,10.955c-1.182-.625-2.712-1.42-3.411-1.771a7.667,7.667,0,0,1-1.053-.592.618.618,0,0,1-.285-.426c-.035-.209-.094-.6-.13-.862s-.162-1.141-.288-2C.63,4.414.408,2.931.267,2,.111.954,0,.157,0,.1,0,.035,3.943,0,11.715,0l0,6.856c0,3.782-.045,6.9-.1,6.957A.036.036,0,0,1,11.594,13.819ZM1.467,1.426v.279c0,.153.079.75.176,1.331.1.6.3,1.931.447,2.911l.271,1.858c3.5,1.853,5.65,2.995,6.569,3.49l1.456.784V1.426Z" transform="translate(1.568 15.364)"/>
  </g>
  <path id="Path_505" data-name="Path 505" d="M-600.31,8326.839l8-1.847v7.5H-598.4Z" transform="translate(602.847 -8320.909)" fill="#898989"/>
  <path id="Path_506" data-name="Path 506" d="M-592.722,8326.839l-7.588-1.847v7.5h5.777Z" transform="translate(618.055 -8320.634)" fill="#ecc29f"/>
  <path id="Path_508" data-name="Path 508" d="M-594.955,8330.78l-5.355,1.715v-7.5h6.732Z" transform="translate(617.516 -8307.401)" fill="#88beda"/>
  <path id="Path_509" data-name="Path 509" d="M-599.035,8330.78l4.958,1.715v-7.5h-6.233Z" transform="translate(604.616 -8307.401)" fill="#a0e4d5"/>
</svg>
