<svg id="Component_3_1" data-name="Component 3 – 1" xmlns="http://www.w3.org/2000/svg" width="350.422" height="357.921" viewBox="0 0 350.422 357.921">
  <path id="Path_309" data-name="Path 309" d="M540.2,337.258V188.418a23.619,23.619,0,0,0-23.593-23.593H392.645a23.619,23.619,0,0,0-23.593,23.593V396.241a23.619,23.619,0,0,0,23.593,23.593H516.611c22.178,0,23.593-23.593,23.593-23.593S541.822,340.625,540.2,337.258Z" transform="translate(-294.238 -99.375)" fill="#91cebb" style="isolation: isolate"/>
  <path id="Path_522" data-name="Path 522" d="M574.539,335.528V165.589a26.956,26.956,0,0,0-26.948-26.964H406.015a26.956,26.956,0,0,0-26.963,26.949v237.3A26.957,26.957,0,0,0,406,429.834H547.576a26.956,26.956,0,0,0,26.964-26.948v-.016a13.482,13.482,0,0,1,26.964-.025v.025A54,54,0,0,1,547.576,456.8H406.015a54,54,0,0,1-53.927-53.927V165.589a54,54,0,0,1,53.927-53.927h141.56A54,54,0,0,1,601.5,165.589V335.528a13.482,13.482,0,0,1-26.964,0ZM463.313,395.523A13.482,13.482,0,1,0,476.8,382.041h0A13.522,13.522,0,0,0,463.313,395.523Zm26.964-208.969a13.482,13.482,0,0,0,0-26.964H463.313a13.482,13.482,0,0,0,0,26.964Z" transform="translate(-294.238 -99.375)" fill="#fff" stroke="#707171" stroke-width="1"/>
  <path id="Path_310" data-name="Path 310" d="M564.539,325.528V155.589a26.956,26.956,0,0,0-26.948-26.964H396.015a26.956,26.956,0,0,0-26.963,26.949v237.3A26.957,26.957,0,0,0,396,419.834H537.576a26.956,26.956,0,0,0,26.964-26.948v-.016a13.482,13.482,0,0,1,26.964-.025v.025A54,54,0,0,1,537.576,446.8H396.015a54,54,0,0,1-53.927-53.927V155.589a54,54,0,0,1,53.927-53.927h141.56A54,54,0,0,1,591.5,155.589V325.528a13.482,13.482,0,0,1-26.964,0ZM453.313,385.523A13.482,13.482,0,1,0,466.8,372.041h0A13.522,13.522,0,0,0,453.313,385.523Zm26.964-208.969a13.482,13.482,0,0,0,0-26.964H453.313a13.482,13.482,0,0,0,0,26.964Z" transform="translate(-294.238 -99.375)" fill="#383f54"/>
  <circle id="Ellipse_11" data-name="Ellipse 11" cx="17.931" cy="17.931" r="17.931" transform="translate(297.266)" fill="#91cebb" style="isolation: isolate"/>
  <circle id="Ellipse_12" data-name="Ellipse 12" cx="6.808" cy="6.808" r="6.808" transform="translate(336.806 36.598)" fill="#91cebb" style="isolation: isolate"/>
  <circle id="Ellipse_13" data-name="Ellipse 13" cx="22.178" cy="22.178" r="22.178" transform="translate(0 303.059)" fill="#91cebb" style="isolation: isolate"/>
  <circle id="Ellipse_14" data-name="Ellipse 14" cx="8.426" cy="8.426" r="8.426" transform="translate(17.847 263.818)" fill="#91cebb" style="isolation: isolate"/>
  <g id="Group_3108" data-name="Group 3108" transform="translate(-294.238 -99.375)">
    <g id="Group_3105" data-name="Group 3105">
      <path id="Path_4484" data-name="Path 4484" d="M409.913,317.658a10.427,10.427,0,0,1-7.373-17.8l12.249-12.249-13.643-13.643a10.427,10.427,0,1,1,14.747-14.746l21.015,21.016a10.427,10.427,0,0,1,0,14.746L417.286,314.6A10.391,10.391,0,0,1,409.913,317.658Z" fill="#fff" stroke="#707171" stroke-width="1"/>
    </g>
    <g id="Group_3106" data-name="Group 3106">
      <path id="Path_4485" data-name="Path 4485" d="M522.663,319.658a10.389,10.389,0,0,1-7.373-3.054l-21.016-21.016a10.427,10.427,0,0,1,0-14.746L513.9,261.22a10.427,10.427,0,1,1,14.747,14.746l-12.249,12.249,13.642,13.643a10.427,10.427,0,0,1-7.373,17.8Z" fill="#fff" stroke="#707171" stroke-width="1"/>
    </g>
    <g id="Group_3107" data-name="Group 3107">
      <path id="Path_4486" data-name="Path 4486" d="M443.478,347.067a10.43,10.43,0,0,1-9.457-14.8l41.066-88.814a10.427,10.427,0,1,1,18.928,8.752l-41.067,88.814A10.426,10.426,0,0,1,443.478,347.067Z" fill="#fff" stroke="#707171" stroke-width="1"/>
    </g>
  </g>
  <g id="Group_3112" data-name="Group 3112" transform="translate(-294.238 -99.375)">
    <g id="Group_3109" data-name="Group 3109">
      <path id="Path_4487" data-name="Path 4487" d="M403.913,315.658a10.427,10.427,0,0,1-7.373-17.8l12.249-12.249-13.643-13.643a10.427,10.427,0,1,1,14.747-14.746l21.015,21.016a10.427,10.427,0,0,1,0,14.746L411.286,312.6A10.391,10.391,0,0,1,403.913,315.658Z" fill="#383f54"/>
    </g>
    <g id="Group_3110" data-name="Group 3110">
      <path id="Path_4488" data-name="Path 4488" d="M516.663,317.658a10.389,10.389,0,0,1-7.373-3.054l-21.016-21.016a10.427,10.427,0,0,1,0-14.746L507.9,259.22a10.427,10.427,0,1,1,14.747,14.746l-12.249,12.249,13.642,13.643a10.427,10.427,0,0,1-7.373,17.8Z" fill="#383f54"/>
    </g>
    <g id="Group_3111" data-name="Group 3111">
      <path id="Path_4489" data-name="Path 4489" d="M437.478,345.067a10.43,10.43,0,0,1-9.457-14.8l41.066-88.814a10.427,10.427,0,1,1,18.928,8.752l-41.067,88.814A10.426,10.426,0,0,1,437.478,345.067Z" fill="#383f54"/>
    </g>
  </g>
</svg>
