<svg xmlns="http://www.w3.org/2000/svg" width="414.464" height="360.428" viewBox="0 0 414.464 360.428">
  <g id="Component_15_1" data-name="Component 15 – 1" transform="translate(3.777 3.986)">
    <circle id="Ellipse_127" data-name="Ellipse 127" cx="19.066" cy="19.066" r="19.066" transform="translate(205.461 271.842)" fill="#98f49f"/>
    <circle id="Ellipse_128" data-name="Ellipse 128" cx="7.694" cy="7.694" r="7.694" transform="translate(228.118 321.654)" fill="#98f49f"/>
    <circle id="Ellipse_128-2" data-name="Ellipse 128" cx="8.45" cy="8.45" r="8.45" transform="translate(13.189 41.427)" fill="#98f49f"/>
    <path id="Path_4530" data-name="Path 4530" d="M317.4,255.661s164.525,7.11,206.672-59.411L526.1,385.793l-10.663,6.973S377.974,327.079,328.9,335.893Z" transform="translate(-189.545 -126.099)" fill="#98f49f"/>
    <g id="Group_3143" data-name="Group 3143" transform="translate(-189.545 -126.099)">
      <g id="Group_3142" data-name="Group 3142">
        <g id="Group_3141" data-name="Group 3141">
          <g id="Group_3140" data-name="Group 3140">
            <g id="Group_3139" data-name="Group 3139">
              <path id="Path_4531" data-name="Path 4531" d="M550.951,210.119V145.863a19.753,19.753,0,0,0-29.437-17.207A459.647,459.647,0,0,1,329.792,186.22c-.523.039-61.916.3-61.916.3a30.178,30.178,0,0,0-29.921,26.59h-12.6a25.049,25.049,0,0,0-25.022,25.022V293.1a25.048,25.048,0,0,0,25.022,25.014h12.6a30.212,30.212,0,0,0,17.768,24.024l44.842,123.746a19.636,19.636,0,0,0,18.393,12.878h44.99a19.581,19.581,0,0,0,18.4-26.255L343.824,346.244a459.048,459.048,0,0,1,177.69,56.307,19.639,19.639,0,0,0,19.7-.2,19.543,19.543,0,0,0,9.742-17.019V321.081a55.947,55.947,0,0,0,0-110.962Zm-313.214,88.7H225.358a5.729,5.729,0,0,1-5.725-5.725V238.136a5.729,5.729,0,0,1,5.725-5.725h12.379Zm25.724,25.646a10.86,10.86,0,0,1-6.427-9.9v-97.9a10.859,10.859,0,0,1,10.842-10.842H320.4V325.41s-52.978-.016-53.212-.031A10.274,10.274,0,0,1,263.461,324.466ZM364.2,459.093a.275.275,0,0,1-.257.375h-44.99a.268.268,0,0,1-.258-.172L277.181,344.707h45.56Zm167.449-73.756a.35.35,0,0,1-.2.374c-.249.149-2.691,5.848-2.808,5.785-59.31-33.165-121.312-58.863-188.953-65.033V204.753A478.545,478.545,0,0,0,530.929,145.5a.454.454,0,0,1,.522-.008.354.354,0,0,1,.2.374Zm19.3-83.787v-71.9a36.669,36.669,0,0,1,0,71.9Z" fill="#fff" stroke="#707171" stroke-width="1.079"/>
            </g>
          </g>
        </g>
      </g>
    </g>
    <g id="Group_3148" data-name="Group 3148" transform="translate(-189.545 -126.099)">
      <g id="Group_3147" data-name="Group 3147">
        <g id="Group_3146" data-name="Group 3146">
          <g id="Group_3145" data-name="Group 3145">
            <g id="Group_3144" data-name="Group 3144">
              <path id="Path_4532" data-name="Path 4532" d="M540.161,210.119V145.863a19.753,19.753,0,0,0-29.437-17.207A459.651,459.651,0,0,1,319,186.22c-.522.039-61.916.3-61.916.3a30.177,30.177,0,0,0-29.92,26.59h-12.6a25.05,25.05,0,0,0-25.023,25.022V293.1a25.048,25.048,0,0,0,25.023,25.014h12.6a30.211,30.211,0,0,0,17.768,24.024l44.842,123.746a19.634,19.634,0,0,0,18.392,12.878h44.99a19.581,19.581,0,0,0,18.4-26.255L333.033,346.244a459.053,459.053,0,0,1,177.691,56.307,19.639,19.639,0,0,0,19.7-.2,19.545,19.545,0,0,0,9.742-17.019V321.081a55.947,55.947,0,0,0,0-110.962Zm-313.215,88.7H214.568a5.729,5.729,0,0,1-5.725-5.725V238.136a5.729,5.729,0,0,1,5.725-5.725h12.378Zm25.724,25.646a10.86,10.86,0,0,1-6.427-9.9v-97.9a10.859,10.859,0,0,1,10.842-10.842H309.61V325.41s-52.977-.016-53.211-.031A10.28,10.28,0,0,1,252.67,324.466ZM353.414,459.093a.275.275,0,0,1-.257.375h-44.99a.266.266,0,0,1-.257-.172L266.391,344.707H311.95Zm167.45-73.756a.35.35,0,0,1-.2.374.444.444,0,0,1-.515,0A478.268,478.268,0,0,0,328.9,326.463V204.753A478.545,478.545,0,0,0,520.138,145.5a.456.456,0,0,1,.523-.008.354.354,0,0,1,.2.374Zm19.3-83.787v-71.9a36.669,36.669,0,0,1,0,71.9Z" fill="#383f54" stroke="#393f54" stroke-linecap="round" stroke-linejoin="round" stroke-width="7.553"/>
            </g>
          </g>
        </g>
      </g>
    </g>
  </g>
</svg>
