<svg xmlns="http://www.w3.org/2000/svg" xmlns:xlink="http://www.w3.org/1999/xlink" width="629.691" height="399.2" viewBox="0 0 629.691 399.2">
  <defs>
    <linearGradient id="linear-gradient" y1="0.5" x2="1" y2="0.5" gradientUnits="objectBoundingBox">
      <stop offset="0" stop-color="#2c9c48"/>
      <stop offset="1" stop-color="#34b34d"/>
    </linearGradient>
  </defs>
  <g id="Component_16_1" data-name="Component 16 – 1" transform="translate(1.533)">
    <path id="Path_871" data-name="Path 871" d="M1589.479,1019.539c-73.644-.5-119.165,11.647-203.583,11.647s-183.278-18-235.495,16.941,34.236,50.824,102.715,52.942,25.919,45.807,200.41,55.058c143.081,7.586,378.829-5.613,244.335-48.706C1669.78,1098.424,1894.723,1021.619,1589.479,1019.539Z" transform="translate(-1123.394 -766.008)" fill="#cec9f7"/>
    <path id="Path_872" data-name="Path 872" d="M1450.78,1127.933s-3.989,4.21,6.169,5.8c9.353,1.464,14.871,7.469,35.473,9.016,37.589,2.824,28.9-5.875,44.468-5.875,11.352,0,11.352-9.493,11.352-9.493S1460.14,1119.874,1450.78,1127.933Z" transform="translate(-1123.394 -766.008)" fill="#231f20" opacity="0.2"/>
    <path id="Path_873" data-name="Path 873" d="M1578.479,1020.034c-73.4,6.032-119.165,12.069-203.583,12.069s-183.278-18.651-235.495,17.553,34.236,52.66,102.715,54.855,25.919,47.462,200.41,57.048c143.081,7.861,378.829-5.816,244.335-50.466C1658.78,1101.771,1873.243,995.812,1578.479,1020.034Z" transform="translate(-1123.394 -766.008)" fill="none" stroke="#aca9db" stroke-miterlimit="10" stroke-width="3.054"/>
    <g id="Group_388" data-name="Group 388" transform="translate(-1123.394 -766.008)">
      <g id="Group_378" data-name="Group 378">
        <g id="Group_377" data-name="Group 377">
          <g id="Group_376" data-name="Group 376">
            <path id="Path_874" data-name="Path 874" d="M1612.647,919.33a105.156,105.156,0,0,1-30.46,74.05c-14.04,14.36-22.93,33.29-26.3,54.4a123.22,123.22,0,0,0-1.54,19.65v2.62H1445.6l.01-2.62a110.921,110.921,0,0,0-29.56-75.76c-21.71-23.84-32.16-55.35-27.84-87.68,6.81-47.58,49.05-91.94,107.85-93.6,1.14-.03,2.28-.05,3.43-.05C1561.207,810.34,1612.567,858.84,1612.647,919.33Z" fill="#f9c67d"/>
            <path id="Path_875" data-name="Path 875" d="M1612.647,919.33a105.156,105.156,0,0,1-30.46,74.05c-14.04,14.36-22.93,33.29-26.3,54.4l-.561,3.921s-.671-25.536,8.741-43.356c8.666-16.407,48.994-46.155,35.529-98-23.525-90.585-103.539-99.955-103.539-99.955C1559.126,807.449,1612.567,858.84,1612.647,919.33Z" opacity="0.1"/>
            <path id="Path_876" data-name="Path 876" d="M1444.505,1051.7s21.032,6.7,55.441,6.7,55.38-6.7,55.38-6.7-3.218,66.272-3.407,71.214c-.237,6.193-31.333,13.964-48.4,13.964-25.473,0-55.45-7.389-56.314-12.995S1444.505,1051.7,1444.505,1051.7Z" fill="#404041"/>
            <g id="Group_374" data-name="Group 374">
              <path id="Path_877" data-name="Path 877" d="M1521.951,1037.435c-.041,0-.083,0-.127-.005a2.04,2.04,0,0,1-1.913-2.165l3-48.746a1.985,1.985,0,0,1,.1-.511c.9-2.742,4.918-14.932,9.733-28.319-.237,0-.464,0-.69,0-9.221-.034-17.624-3.232-21.4-8.147-3.154-4.1-4.376-8.365-5.358-11.793-1.326-4.625-1.964-6.177-4.327-6.434h-2.1c-2.362.257-3,1.809-4.327,6.434-.982,3.428-2.2,7.7-5.357,11.793-3.781,4.915-12.182,8.113-21.4,8.147-.229,0-.461,0-.69,0,4.816,13.387,8.835,25.577,9.734,28.319a2.022,2.022,0,0,1,.1.511l3,48.746a2.044,2.044,0,0,1-4.08.252l-2.988-48.484c-2.9-8.848-6.548-19.492-10.238-29.662a35.247,35.247,0,0,1-23.451-13.153c-9.119-11.677-7.449-22.07-2.037-26.785a8.826,8.826,0,0,1,12.565.407c3.612,3.722,10.129,19.952,15.891,35.706.783.045,1.5.054,2.178.059,7.759-.029,15.234-2.722,18.178-6.55,2.679-3.482,3.737-7.172,4.669-10.428,1.25-4.366,2.544-8.881,7.964-9.386.063-.006.126-.008.19-.008h2.306c.064,0,.126,0,.19.008,5.42.5,6.714,5.02,7.965,9.386.933,3.256,1.989,6.946,4.668,10.428,2.945,3.828,10.421,6.521,18.179,6.55.675,0,1.4-.014,2.179-.059,5.761-15.754,12.277-31.984,15.89-35.706a8.827,8.827,0,0,1,12.565-.407c5.411,4.715,7.082,15.108-2.038,26.785a34.658,34.658,0,0,1-23.45,13.156c-3.692,10.168-7.337,20.811-10.238,29.659l-2.989,48.484A2.042,2.042,0,0,1,1521.951,1037.435ZM1556.513,919.1a4.726,4.726,0,0,0-3.442,1.584c-2.785,2.87-8.444,16.583-14.247,32.292a30.39,30.39,0,0,0,18.621-11.277c7.482-9.578,6.578-17.7,2.574-21.187A5.467,5.467,0,0,0,1556.513,919.1Zm-113.195,0a5.462,5.462,0,0,0-3.505,1.412c-4.006,3.49-4.908,11.607,2.573,21.187a30.385,30.385,0,0,0,18.621,11.277c-5.8-15.709-11.463-29.423-14.248-32.292A4.726,4.726,0,0,0,1443.318,919.1Z" fill="#fff"/>
            </g>
            <g id="Group_375" data-name="Group 375" opacity="0.2">
              <path id="Path_878" data-name="Path 878" d="M1450.78,1062.789a85.21,85.21,0,0,0,11.968,3.034c4.031.8,8.1,1.387,12.183,1.83a228.352,228.352,0,0,0,24.586,1.276,231.516,231.516,0,0,0,24.589-1.25c4.082-.434,8.154-1.009,12.184-1.811a79.892,79.892,0,0,0,11.952-3.079,41.881,41.881,0,0,1-5.739,2.382c-1.958.691-3.949,1.28-5.949,1.848-4.02,1.046-8.1,1.834-12.2,2.5a168.573,168.573,0,0,1-49.664-.034C1466.505,1068.148,1458.3,1066.323,1450.78,1062.789Z" fill="#fff"/>
              <path id="Path_879" data-name="Path 879" d="M1450.78,1076.226a85.063,85.063,0,0,0,11.968,3.035c4.031.8,8.1,1.386,12.183,1.83a228.6,228.6,0,0,0,24.586,1.276,231.517,231.517,0,0,0,24.589-1.251c4.082-.433,8.154-1.008,12.184-1.811a79.892,79.892,0,0,0,11.952-3.079,41.881,41.881,0,0,1-5.739,2.382c-1.958.691-3.949,1.28-5.949,1.849-4.02,1.046-8.1,1.834-12.2,2.5a168.612,168.612,0,0,1-49.664-.035C1466.505,1081.586,1458.3,1079.761,1450.78,1076.226Z" fill="#fff"/>
              <path id="Path_880" data-name="Path 880" d="M1450.78,1089.664a85.059,85.059,0,0,0,11.968,3.034c4.031.8,8.1,1.387,12.183,1.83a228.385,228.385,0,0,0,24.586,1.277,231.808,231.808,0,0,0,24.589-1.251c4.082-.434,8.154-1.008,12.184-1.811a79.892,79.892,0,0,0,11.952-3.079,41.881,41.881,0,0,1-5.739,2.382c-1.958.691-3.949,1.28-5.949,1.848-4.02,1.046-8.1,1.834-12.2,2.5a168.618,168.618,0,0,1-49.664-.035C1466.505,1095.023,1458.3,1093.2,1450.78,1089.664Z" fill="#fff"/>
              <path id="Path_881" data-name="Path 881" d="M1450.78,1103.1a85.21,85.21,0,0,0,11.968,3.034c4.031.8,8.1,1.386,12.183,1.83a228.6,228.6,0,0,0,24.586,1.276,231.484,231.484,0,0,0,24.589-1.25c4.082-.434,8.154-1.009,12.184-1.811a80.025,80.025,0,0,0,11.952-3.079,42.014,42.014,0,0,1-5.739,2.381c-1.958.691-3.949,1.28-5.949,1.849-4.02,1.046-8.1,1.834-12.2,2.5a168.612,168.612,0,0,1-49.664-.035C1466.505,1108.461,1458.3,1106.636,1450.78,1103.1Z" fill="#fff"/>
              <path id="Path_882" data-name="Path 882" d="M1450.78,1116.539a85.2,85.2,0,0,0,11.968,3.035c4.031.8,8.1,1.386,12.183,1.829a228.385,228.385,0,0,0,24.586,1.277,231.549,231.549,0,0,0,24.589-1.251c4.082-.433,8.154-1.008,12.184-1.811a79.892,79.892,0,0,0,11.952-3.079,41.881,41.881,0,0,1-5.739,2.382c-1.958.691-3.949,1.28-5.949,1.848-4.02,1.046-8.1,1.834-12.2,2.5a168.618,168.618,0,0,1-49.664-.035C1466.505,1121.9,1458.3,1120.073,1450.78,1116.539Z" fill="#fff"/>
            </g>
          </g>
        </g>
      </g>
      <g id="Group_387" data-name="Group 387">
        <path id="Path_883" data-name="Path 883" d="M1452.562,830.491a2.073,2.073,0,0,0-2.753,1.013l-5.089,11.007h-43.828l5.154-11.148a2.074,2.074,0,1,0-3.765-1.74L1344.543,954.5a2.046,2.046,0,0,0-.645,1.4l-36.215,78.327a2.074,2.074,0,0,0,3.766,1.74l5.1-11.024h43.826l-5.474,11.841a2.074,2.074,0,1,0,3.765,1.74l94.913-205.278A2.074,2.074,0,0,0,1452.562,830.491Zm-9.761,16.17-8.384,18.134h-43.828l8.384-18.134Zm-18.688,40.419h-43.828l8.385-18.136H1432.5Zm-10.3,22.286h-43.827l8.385-18.136h43.827Zm-10.3,22.285h-43.827l8.385-18.136h43.827Zm-10.3,22.284h-43.827l8.384-18.134h43.827Zm-10.3,22.286h-43.827l8.385-18.136h43.827Zm-10.3,22.285h-43.827l8.386-18.136h43.826Zm-54.13,22.286,8.385-18.136h43.826l-8.385,18.136Z" fill="#c47a00"/>
        <g id="Group_386" data-name="Group 386">
          <path id="Path_884" data-name="Path 884" d="M1353.282,771.2a15.416,15.416,0,0,0-8.694-4.368,21.619,21.619,0,0,0-19.332,6.239c-4.949,5.257-6.951,13.551-4.44,20.364a4.871,4.871,0,0,1,.5,2.382,3.565,3.565,0,0,1-.8,1.6c-2.8,3.595-7.53,4.791-10.885,7.815a15.785,15.785,0,0,0-4.9,11.454,19.525,19.525,0,0,0,4.055,11.834c2.069,2.725,4.971,5.646,4.153,9.064a7.477,7.477,0,0,1-1.962,3.262c-2.636,2.824-6.079,4.655-8.9,7.271s-5.091,6.581-4.115,10.358c.774,3,3.4,5.056,6.125,6.229,5.086,2.186,10.812,2.035,16.321,1.529,7.6-.7,15.288-2.053,22.166-5.609s17.081-9.458,19.445-17.115.385-16.923-5.738-21.6c-2.043-1.559-4.663-2.87-5.259-5.46-.415-1.8-.461-6.821,7.716-14.724a7.39,7.39,0,0,0,2.559-5.674c-.364-4.026-5.892-6.007-5.788-10.057.041-1.592,1.023-2.988,1.083-4.562a19.56,19.56,0,0,0-.4-2.877C1355.877,775.711,1355.241,773.3,1353.282,771.2Z" fill="#404041"/>
          <g id="Group_379" data-name="Group 379">
            <path id="Path_885" data-name="Path 885" d="M1403.311,841.554c2.891,1.23,6.086,2.221,9.141,1.486,2.183-.524,3.978-2.856,6.207-2.587,2.422.293-2.063,4.7-4.414,5.472,1.059-.292,3.381.008,3.1.662-.488,1.146-4.787,1.287-7.107.636-1.648-.463-3.07-1.547-4.721-2-2.551-.7-5.242.184-7.886.238a12.631,12.631,0,0,1-7.69-2.439c-3.591-2.647,1.3-5.016,3.9-4.942C1397.02,838.169,1400.47,840.346,1403.311,841.554Z" fill="#fa997b"/>
            <path id="Path_886" data-name="Path 886" d="M1402.779,840.553c-4.787-1.79-37.533-22.341-42.624-26.311-3.475-2.709-7.4-6.168-11.759-6.793-2.207,2.993-1.693,7.122-1.05,10.785q.687,3.907,1.42,7.807a4.2,4.2,0,0,0,.711,1.934,6.446,6.446,0,0,0,1.448,1c9.251,6.46,30.907,18.2,52.413,17.618a9.346,9.346,0,0,0,3.489-.661c1.066-.472,1.928-1.373,1.83-2.279C1408.6,843.1,1405.13,841.433,1402.779,840.553Z" fill="#f2a120"/>
          </g>
          <g id="Group_381" data-name="Group 381">
            <g id="Group_380" data-name="Group 380">
              <path id="Path_887" data-name="Path 887" d="M1379.568,976.886c1.085-.119,2.491.209,3.572.054,1.33-.191,3.219-1.212,3.462-2.36-.135-.842-.408-1.012-1.246-.857a13.481,13.481,0,0,1-2.669.241,10.784,10.784,0,0,1-3.83-.616,5.387,5.387,0,0,1-2.713-1.876c-.746-1.084-.688-2.749-1.819-3.422-.632-.377-3.433,1.136-3.943,1.5.314,1.585,1.626,2.638,2.35,4.043.754,1.465.13,2.849,1.846,4.211C1376.27,978.209,1377.609,977.1,1379.568,976.886Z" fill="#fa997b"/>
              <path id="Path_888" data-name="Path 888" d="M1382.907,973.982c-.454,0-.977-.031-1.512-.086a4.077,4.077,0,0,1-1.534,1.106,9.11,9.11,0,0,1-6.914-.1,4.147,4.147,0,0,0,1.51,3.078c1.764.423,3.159-.732,5.2-.956,1.131-.124,2.6.218,3.722.057,1.386-.2,3.354-1.263,3.608-2.459-.141-.877-.426-1.055-1.3-.893A14.072,14.072,0,0,1,1382.907,973.982Z" fill="#0c3563"/>
            </g>
            <path id="Path_889" data-name="Path 889" d="M1361.126,897.933c-2.944-10.726-10.609-34.941-13.889-38.97-1.474-1.81-6.162,1.684-8.388,2.384-4.393,1.383-10.431-1-14.665.81-5.977,18.787,25.868,72.668,28.063,78.3,1.524,3.907,11.853,27.113,18.135,32.657,0,0,6.14-2.31,7.214-2.882C1376.655,961.639,1362.6,903.295,1361.126,897.933Z" fill="#1e579b"/>
          </g>
          <path id="Path_890" data-name="Path 890" d="M1357.233,817.031c-.628-1.658-2.187-6.383-3.686-7.329-6.407-4.044-27.511-11.674-31.759-.958-2.483,6.265-.258,17.1.083,23.744q.581,11.319,1.885,22.586c.109.937-1.96,1.791-1.792,2.757,7.063,3.382,17.48,6.665,23.9,2.042a2.07,2.07,0,0,1,.538-.276,4.267,4.267,0,0,1,.831-.634c1.929-10.814,8.011-20.7,11.03-31.374C1359.279,824.008,1358.8,821.161,1357.233,817.031Z" fill="#fdb943"/>
          <g id="Group_382" data-name="Group 382">
            <path id="Path_891" data-name="Path 891" d="M1273.821,845.339c-2.632,1.715-5.606,3.248-8.742,3.058-2.241-.136-4.718-2.522-6.563-1.465-2.186,1.253,2.85,4.263,5.3,4.618-1.094-.1-3.338.168-2.94,1.193.572,1.47,4.938.433,7.109-.614,1.542-.743,2.753-2.059,4.3-2.793,2.389-1.136,5.193-.734,7.806-1.142a12.626,12.626,0,0,0,7.147-3.743c3.074-3.233-2.156-4.712-4.706-4.185C1279.425,840.908,1276.407,843.653,1273.821,845.339Z" fill="#fa997b"/>
            <path id="Path_892" data-name="Path 892" d="M1326.173,804.314c-4.283,1.035-7.943,4.565-11.194,7.54-4.589,4.2-8.623,8.935-14.471,13.285-1.84,1.369-21.936,16.523-26.338,19.121-2.162,1.276-5.285,3.526-5.248,4.074.062.909,1.068,1.646,2.2,1.924a10.009,10.009,0,0,0,3.552.042c7.5-.907,14.424-3.68,20.86-6.806,1.716-.834,21.15-10.208,29.749-17.516a6.407,6.407,0,0,0,1.346-1.128,4.2,4.2,0,0,0,.526-1.992q.36-3.952.674-7.907C1328.122,811.244,1328.653,807.085,1326.173,804.314Z" fill="#fdb943"/>
          </g>
          <g id="Group_384" data-name="Group 384">
            <g id="Group_383" data-name="Group 383">
              <path id="Path_893" data-name="Path 893" d="M1265.837,875.645c-1.025.375-2.469.394-3.481.8-1.245.5-2.834,1.949-2.795,3.121.333.785.639.885,1.416.533a13.475,13.475,0,0,1,2.533-.874,10.8,10.8,0,0,1,3.866-.321,5.386,5.386,0,0,1,3.083,1.171c.985.873,1.328,2.5,2.587,2.886.7.214,3.06-1.926,3.469-2.4-.685-1.464-2.212-2.171-3.251-3.362-1.084-1.241-.81-2.735-2.8-3.645C1268.721,873.569,1267.687,874.966,1265.837,875.645Z" fill="#fa997b"/>
              <path id="Path_894" data-name="Path 894" d="M1263.292,879.264c.441-.108.956-.2,1.489-.279a4.075,4.075,0,0,1,1.223-1.441,9.111,9.111,0,0,1,6.736-1.564,4.146,4.146,0,0,0-2.2-2.625c-1.814.012-2.891,1.468-4.819,2.174-1.069.392-2.572.411-3.627.838-1.3.526-2.953,2.031-2.913,3.253.348.818.666.922,1.475.555A14.148,14.148,0,0,1,1263.292,879.264Z" fill="#0c3563"/>
            </g>
            <path id="Path_895" data-name="Path 895" d="M1331.03,858.68c-3.436-.894-6.843-3.951-8.759-2.155-10.074,7.846-18.325,22.65-20.963,35.748-.563,2.794-1.253,6.331-1.955,9.985-5.077-6.091-17.687-19.938-23.86-24.795,0,0-5.711,3.068-6.617,3.882,2.647,5.074,17.156,32.819,21.132,39.53,1.32,2.227,7.589,10.3,14.029,7.775,23.506-9.232,40.821-63.13,42.417-67,.287-.7,1.239-2.352.792-3.058-1.23.5-2.308,1.325-3.581,1.726a10.293,10.293,0,0,1-4.03.424C1336.7,860.474,1333.869,859.418,1331.03,858.68Z" fill="#1d54b5"/>
          </g>
          <g id="Group_385" data-name="Group 385">
            <path id="Path_896" data-name="Path 896" d="M1357.039,779.086c-.971-3.815-4.806-7.857-8.337-9.6a11.979,11.979,0,0,0-12.181,1.46,16.548,16.548,0,0,0-6.093,11c-.627,4.539,3.373,4.038,5.686,7.065,1.833,2.4,1.268,12.547.823,14.167-.24.876-1.711,1.722-1.851,2.619-.821,5.268,15.381,9.317,13.3,2.327-.68-2.287-2.017-3.718-1.52-6.42.947-5.143,4.211-2.4,7.072-3.777,2.908-1.4,3.676-4.524,3.964-6.2A28.525,28.525,0,0,0,1357.039,779.086Z" fill="#fa997b"/>
            <path id="Path_897" data-name="Path 897" d="M1341.868,776.538a19.549,19.549,0,0,0,11.088,1.769,8.1,8.1,0,0,0,3.9-1.4,4.236,4.236,0,0,0,1.734-3.787,5.4,5.4,0,0,0-2.53-3.378,19.314,19.314,0,0,0-11.007-3.732,16.309,16.309,0,0,0-10.951,4.112,18.546,18.546,0,0,0-5.471,9.744,24,24,0,0,0,.362,11.3c.79,2.95,1.994,2.192,3.845.544a28.781,28.781,0,0,0,4-4.4,30.012,30.012,0,0,0,3.069-5.171C1340.135,781.669,1342.212,776.7,1341.868,776.538Z" fill="#404041"/>
          </g>
        </g>
      </g>
    </g>
    <g id="Group_390" data-name="Group 390" transform="translate(-1123.394 -766.008)">
      <path id="Path_898" data-name="Path 898" d="M1670.86,1089.61s.641,10.334,2.64,10.482c.265.02,10.14.02,10.14.02h12.619a4.16,4.16,0,0,0-3.781-3.752c-3.685-.642-9.852-3.232-12.084-8.1C1678.046,1083.135,1670.86,1089.61,1670.86,1089.61Z" fill="#003261"/>
      <path id="Path_899" data-name="Path 899" d="M1620.937,1004.675a86.365,86.365,0,0,0,6.026,9.615c6.63,9.334,13.847,17.03,15.1,24.3a35.931,35.931,0,0,0,1.166,4.656c.525,1.666,1.174,3.418,1.923,5.23a166.424,166.424,0,0,0,11.221,21.393c7.262,12,14.091,22.013,14.091,22.013l12.523-.595c-.5-1.4-5.963-17.968-13.27-38.217-2.967-8.22-6.122-16.963-9.166-25.395q-.608-1.689-1.212-3.359c-.931-2.58-1.847-5.12-2.741-7.593-6.861-19.013-12.326-34.153-12.326-34.153s-27.421-11.584-30.268-4.078C1611.66,984.686,1613.572,990.749,1620.937,1004.675Z" fill="#599dad"/>
      <path id="Path_900" data-name="Path 900" d="M1643.971,1078.41s-4.586,4.251-3.691,7.271,5.033,5.034,5.593,8.726,2.8,5.705,4.81,5.705h9.6s1.483-2.6-2.1-3.381-4.93-5.121-4.706-9.148a72.006,72.006,0,0,0-.336-9.4l-7.607-1.79Z" fill="#0c3563"/>
      <path id="Path_901" data-name="Path 901" d="M1648.026,981.149s28.855,46.8,28.855,50.528c0,8.237-21.8,55.66-21.8,55.66s-11.572-6.114-11.108-10.406c0,0,6.943-33.291,8.962-38.641s-36.468-25.511-38.486-49.869Z" fill="#6bb7bf"/>
      <path id="Path_902" data-name="Path 902" d="M1662.173,957.081s5.951,3.384,7.617,3.383,8.2-1.263,10.028-.332,5.121,4.678,5.74,5.9c1.114,2.2-4.481,1.229-7.125-.646a1.669,1.669,0,0,0-1.321-.273c-1.369.3-4.215.816-5.589.307-1.847-.684-11.579-1.443-11.579-1.443Z" fill="#fa997b"/>
      <path id="Path_903" data-name="Path 903" d="M1616.9,910.995s6.168,43.844,16.383,47.771c5.04,1.938,27.315,6.33,33.9,6.771,0,0,1.614-1.309,1.221-6.639,0,0-23.337-8.568-26.653-13.227-4.934-6.935,3.064-28.33-3.128-34.843S1622.006,901.516,1616.9,910.995Z" fill="#2a4e96"/>
      <path id="Path_904" data-name="Path 904" d="M1641.015,908.232c-8.246,2.132-21.915-5.508-21.915-5.508a20.233,20.233,0,0,0,7.275-11.4c.1-.4.188-.8.27-1.215l4.235-.9,6.3,5.642a54.082,54.082,0,0,1-.931,6.37q-.2,1.055-.474,2.26A19.433,19.433,0,0,1,1641.015,908.232Z" fill="#fa997b"/>
      <path id="Path_905" data-name="Path 905" d="M1610.369,942.412c1.181,15.885-.373,40.045.967,44.229,1.157,3.61,14.332,1.464,19.591.259,1.947-.446,4.3-1.083,6.74-1.837,6.792-2.1,14.193-5.106,14.987-7.336a1.912,1.912,0,0,0,.074-.256,2.047,2.047,0,0,0-.015-.935c-.265-1.136-1.285-2.366-1.4-5.179-.135-3.142-.115-6.842-.233-10.82-.006-.448-.012-.937-.061-1.383l0-.163-.006-.254c-.114-4.437-.346-9.1-.615-13.727-.171-2.906-.369-5.783-.6-8.539a114.066,114.066,0,0,0-2.447-17.446,28.01,28.01,0,0,0-9-13.891l-2.506-2.151a14.492,14.492,0,0,1-9.1-1.211c-3.237-1.538-4.355-2.639-4.919-2.224C1614.351,905.317,1608.974,922.992,1610.369,942.412Z" fill="#2a4e96"/>
      <path id="Path_906" data-name="Path 906" d="M1637.667,985.063c6.792-2.1,14.193-5.106,14.987-7.336a1.912,1.912,0,0,0,.074-.256c-.005-.312-.009-.623-.015-.935-.265-1.136-1.285-2.366-1.4-5.179-.135-3.142-.115-6.842-.233-10.82-.006-.448-.012-.937-.061-1.383l0-.163-.006-.254-27.46-34.984S1605.089,962.19,1637.667,985.063Z" fill="#163560"/>
      <path id="Path_907" data-name="Path 907" d="M1637.177,894.85a54.082,54.082,0,0,1-.931,6.37c-6.151-1.988-8.94-7.543-9.871-9.9.1-.4.188-.8.27-1.215l4.235-.9Z" fill="#ef5d23"/>
      <path id="Path_908" data-name="Path 908" d="M1638.005,898.4s-13.769-2.63-12.247-10.961,1.174-13.839,9.8-12.762,9.706,4.559,9.874,7.463S1641.533,898.769,1638.005,898.4Z" fill="#fa997b"/>
      <path id="Path_909" data-name="Path 909" d="M1629.6,884.9c-.328-.6-.875-.935-1.222-.745s-.363.829-.035,1.432.877.932,1.222.743S1629.926,885.5,1629.6,884.9Z" fill="#ef5d23"/>
      <g id="Group_389" data-name="Group 389">
        <rect id="Rectangle_84" data-name="Rectangle 84" width="1.244" height="32.565" transform="matrix(-0.951, -0.309, 0.309, -0.951, 1691.98, 970.068)" fill="#58595b"/>
        <rect id="Rectangle_85" data-name="Rectangle 85" width="34.173" height="2.044" transform="matrix(-1, -0.021, 0.021, -1, 1691.983, 970.069)" fill="#58595b"/>
      </g>
      <path id="Path_910" data-name="Path 910" d="M1658.5,970.971s10.977,2.894,15.094,2.59,7.54-2.261,8.058-3.284,1.607-2.834-1.2-2.5-6.629.931-6.748.392,2.285-.487,2.285-.487.727-1.057-.188-1.1-3.583-.762-4.575-.267-1.905,2.326-2.629,2.249-9.187-3.811-9.187-3.811Z" fill="#fa997b"/>
      <path id="Path_911" data-name="Path 911" d="M1619.621,912.795s1.3,44.256,11.017,49.285c4.8,2.482,26.451,9.3,32.951,10.468,0,0,1.749-1.123,1.946-6.464,0,0-22.251-11.089-25.033-16.085-4.139-7.436,6.168-27.819.732-34.975S1625.743,903.936,1619.621,912.795Z" fill="#2a4e96"/>
      <path id="Path_912" data-name="Path 912" d="M1626.339,891.576s-.118-3.114,1.645-4.752c0,0-2.985-2.448-.214-4.153,1.046-.644,2.558,1.012,2.624,2.374a11.587,11.587,0,0,0,3.826-4.818c.992-2.646,10.071.558,11.13,1.035s2.844-1.138,3.015-2.188a3.779,3.779,0,0,0-.634-3.146c-.851-1.134-6.8-8.787-15.117-6.614s-9.448,6.141-8.976,9.542S1622.934,890.435,1626.339,891.576Z" fill="#a9453e"/>
    </g>
    <g id="Group_391" data-name="Group 391" transform="translate(-1123.394 -766.008)">
      <path id="Path_913" data-name="Path 913" d="M1560.161,1133.729c-9.272-.095-18.541-.924-27.805-.53a3.748,3.748,0,0,1-1.516-.14,3.6,3.6,0,0,1-1.057-.731,41.738,41.738,0,0,1-6.3-6.247c-1.713-2.368-1.9-2.988-1.979-4.363a1.927,1.927,0,0,1,1.289-2.2,3.531,3.531,0,0,1,1.864.1c2.263,1.188,3.509,2.885,5.168,6.371a8.317,8.317,0,0,1,.716-9.015,2.486,2.486,0,0,1,2.286-1.172,2.634,2.634,0,0,1,1.527,1.42,14.448,14.448,0,0,1,1.9,7.495,18.187,18.187,0,0,1,.629-7.273,8.27,8.27,0,0,1,2.23-3.926,4.014,4.014,0,0,1,4.239-.823,4.611,4.611,0,0,1,2.25,3.861c.139,1.553-.164,3.111-.174,4.67a11.7,11.7,0,0,1,2.746-5.579,4.431,4.431,0,0,1,1.655-1.268,2.01,2.01,0,0,1,1.991.238,2.676,2.676,0,0,1,.759,1.686,9.366,9.366,0,0,1-1.191,6.127,21.69,21.69,0,0,1,4.008-5.038,7.334,7.334,0,0,1,5.964-1.861,2.506,2.506,0,0,1,1.6.883,2.564,2.564,0,0,1,.374,1.574,8.013,8.013,0,0,1-2,4.8,20.228,20.228,0,0,1-4,3.454,9.718,9.718,0,0,1,4.018-2.02c2.316-.684,5.126-1.009,6.871.659a2.625,2.625,0,0,1,.79,2.764,3.286,3.286,0,0,1-.83,1.094,11.065,11.065,0,0,1-3.785,2.354,3.459,3.459,0,0,1,1.388-.142,1.18,1.18,0,0,1,1,.861c.12.67-.549,1.21-1.178,1.472C1564.134,1133.909,1561.032,1133.738,1560.161,1133.729Z" fill="url(#linear-gradient)"/>
      <path id="Path_914" data-name="Path 914" d="M1434.015,1130.306c7.445-.077,14.6-.453,22.037-.137a4.865,4.865,0,0,0,1.55-.061c.322-.124.547-.7.806-.927a33.514,33.514,0,0,0,5.059-5.016c1.376-1.9,1.522-2.4,1.59-3.5a1.546,1.546,0,0,0-1.035-1.762,2.837,2.837,0,0,0-1.5.083c-1.817.954-2.817,2.317-4.149,5.116a6.679,6.679,0,0,0-.575-7.239,2,2,0,0,0-1.836-.941,2.114,2.114,0,0,0-1.226,1.14,11.607,11.607,0,0,0-1.528,6.019,14.614,14.614,0,0,0-.505-5.841,6.633,6.633,0,0,0-1.791-3.152,3.223,3.223,0,0,0-3.4-.661,3.7,3.7,0,0,0-1.807,3.1c-.112,1.248.131,2.5.14,3.751a9.4,9.4,0,0,0-2.2-4.481,3.577,3.577,0,0,0-1.329-1.018,1.615,1.615,0,0,0-1.6.192,2.139,2.139,0,0,0-.609,1.353,7.513,7.513,0,0,0,.956,4.92,17.433,17.433,0,0,0-3.218-4.045,5.892,5.892,0,0,0-4.79-1.495,2.023,2.023,0,0,0-1.285.71,2.062,2.062,0,0,0-.3,1.264,6.444,6.444,0,0,0,1.606,3.857,16.272,16.272,0,0,0,3.214,2.773,7.817,7.817,0,0,0-3.226-1.622c-1.86-.549-4.116-.81-5.517.53a2.108,2.108,0,0,0-.635,2.219,2.639,2.639,0,0,0,.666.878,8.887,8.887,0,0,0,3.04,1.891,2.789,2.789,0,0,0-1.115-.115.95.95,0,0,0-.8.692c-.1.538.441.972.946,1.181A13.954,13.954,0,0,0,1434.015,1130.306Z" fill="url(#linear-gradient)"/>
    </g>
    <ellipse id="Ellipse_49" data-name="Ellipse 49" cx="2.702" cy="3.589" rx="2.702" ry="3.589" transform="translate(209.284 19.512) rotate(-28.949)" fill="#fa997b"/>
    <path id="Path_915" data-name="Path 915" d="M1336.637,788c.445.431,1.008.574,1.258.317s.092-.816-.353-1.25-1.01-.571-1.259-.315S1336.191,787.564,1336.637,788Z" transform="translate(-1123.394 -766.008)" fill="#ef5d23"/>
  </g>
</svg>
