<svg xmlns="http://www.w3.org/2000/svg" width="366.546" height="362.679" viewBox="0 0 366.546 362.679">
  <g id="Component_2_1" data-name="Component 2 – 1" transform="translate(0 0.589)">
    <circle id="Ellipse_126" data-name="Ellipse 126" cx="19.416" cy="19.416" r="19.416" transform="translate(107.584 299.561)" fill="#6ac9e5"/>
    <circle id="Ellipse_127" data-name="Ellipse 127" cx="21.705" cy="21.705" r="21.705" transform="translate(71.219 6.231)" fill="#6ac9e5"/>
    <circle id="Ellipse_128" data-name="Ellipse 128" cx="8.759" cy="8.759" r="8.759" transform="translate(124.53 40.408)" fill="#6ac9e5"/>
    <path id="Path_4479" data-name="Path 4479" d="M400.824,317.824l74.683,6.668a32.358,32.358,0,0,1,22.518,12.177l52.6,66.61-24.876,3.109-85.383-30.048Z" transform="translate(-296.365 -96.283)" fill="#6ac9e5"/>
    <g id="Group_3103" data-name="Group 3103" transform="translate(15.515)">
      <path id="Path_4480" data-name="Path 4480" d="M634.193,481.5c-27.832-7.444-55.027-14.71-82.217-21.991-18.7-5.007-37.436-9.877-56.036-15.223a14.559,14.559,0,0,1-7.478-5.985c-5.687-9.119-10.954-18.514-16.047-27.982-1.759-3.269-3.734-4.59-7.5-4.5-11.417.259-21.64-3.233-33.058-3.457-2.331-.046-6.5,2.671-8.061,1.12q-50.9-50.584-101.507-101.467a8.288,8.288,0,0,1-.858-1.614c1.092-1.251,2.236-2.728,3.546-4.038q48.441-48.478,97.041-96.8c2.426-2.4,6.665.481,10.1.363,10.305-.354,20.6-4.446,30.917-4.042,4.569.179,7.417-1.174,9.655-5.536,5-9.751,10.56-19.229,16.2-28.631a10.594,10.594,0,0,1,5.624-4.494Q563,138.615,631.582,120.375a24.174,24.174,0,0,1,2.775-.314c1.638,5.76,3.39,11.617,4.969,17.519,10.843,40.505,21.714,81.005,32.314,121.574.655,2.508-.236,5.962-1.548,8.35q-7.914,14.421-16.651,28.384c-2.187,3.484-1.957,6.008.137,9.375,5.792,9.315,11.439,18.74,16.6,28.414a14.493,14.493,0,0,1,1.215,9.6c-11.693,44.71-23.669,89.344-35.6,133.991C635.463,478.483,634.9,479.638,634.193,481.5Zm-19.8-291.812a37.431,37.431,0,0,0-3.064,3.735q-29.951,51.6-59.7,103.31a8.92,8.92,0,0,0,.011,7.49q29.557,51.825,59.587,103.38a25.628,25.628,0,0,0,3.044,3.435c.581-1.622.906-2.377,1.126-3.164,9.721-34.775,19.479-69.542,29.047-104.361a14.926,14.926,0,0,0-.412-7.489c-6.66-24.247-13.474-48.452-20.242-72.67C620.749,212.484,617.719,201.612,614.392,189.688ZM392.621,318.374a45.448,45.448,0,0,0,3.02,4.061q13.643,14.189,27.362,28.3c14.581,14.948,29.107,29.953,43.905,44.683a24,24,0,0,0,10.1,6.257c32.832,8.683,65.759,17.007,98.672,25.379a71.941,71.941,0,0,0,7.659,1c-1.724-3.469-2.736-5.807-4-8q-28.156-48.922-56.3-97.85c-1.86-3.25-4.021-4.334-7.68-4.323-38.767.119-77.534.069-116.3.09C397.219,317.975,395.376,318.2,392.621,318.374ZM583.989,172.685c-3.828.6-5.718.733-7.523,1.2-30.378,7.791-60.687,15.858-91.151,23.3-8.806,2.152-15.833,5.532-22.295,12.409-21.947,23.359-44.758,45.906-67.206,68.794a41.555,41.555,0,0,0-3.167,4.286c1.723.223,2.527.418,3.333.419,40.041,0,80.083.078,120.122-.229,2.415-.018,5.724-2.54,7.07-4.812,14.333-24.232,28.379-48.634,42.448-73.02C571.5,194.835,577.244,184.569,583.989,172.685Z" transform="translate(-321.426 -120.061)" fill="#fff" stroke="#5d5d5d" stroke-width="1.086"/>
    </g>
    <path id="Path_4481" data-name="Path 4481" d="M495.187,284.048l54.119-101.833-52.429,11.439a82.86,82.86,0,0,0-42.948,24.458l-53.1,56.974Z" transform="translate(-296.365 -112.588)" fill="#6ac9e5"/>
    <path id="Path_4482" data-name="Path 4482" d="M581.533,221.335l-25.062,43.81A41.828,41.828,0,0,0,555.555,305l30.706,61.418L608.976,293.1Z" transform="translate(-278.314 -107.884)" fill="#6ac9e5"/>
    <g id="Group_3104" data-name="Group 3104">
      <path id="Path_4483" data-name="Path 4483" d="M620.343,481.5c-27.833-7.444-55.027-14.71-82.217-21.991-18.7-5.007-37.436-9.877-56.037-15.223a14.553,14.553,0,0,1-7.476-5.985c-5.689-9.119-10.954-18.514-16.047-27.982-1.759-3.269-3.734-4.59-7.5-4.5-11.417.259-22.846.244-34.265.02-2.331-.046-5.3-.807-6.856-2.357q-50.9-50.584-101.505-101.467a8.221,8.221,0,0,1-.858-1.614c1.091-1.251,2.236-2.728,3.546-4.038q48.441-48.478,97.04-96.8a16.338,16.338,0,0,1,10.057-4.186c10.3-.353,20.646.1,30.962.507,4.571.179,7.418-1.174,9.656-5.536,5-9.751,10.56-19.229,16.2-28.631a10.592,10.592,0,0,1,5.622-4.494q68.484-18.607,137.068-36.847a24.179,24.179,0,0,1,2.774-.314c1.639,5.76,3.391,11.617,4.97,17.519,10.843,40.505,21.714,81.005,32.314,121.574.655,2.508-.238,5.962-1.548,8.35q-7.915,14.421-16.652,28.384c-2.186,3.484-1.956,6.008.138,9.375,5.792,9.315,11.439,18.74,16.6,28.414a14.5,14.5,0,0,1,1.216,9.6c-11.693,44.71-23.669,89.344-35.6,133.991C621.613,478.483,621.052,479.638,620.343,481.5Zm-19.8-291.812a37.643,37.643,0,0,0-3.065,3.735q-29.949,51.6-59.7,103.31a8.928,8.928,0,0,0,.011,7.49q29.559,51.825,59.589,103.38a25.6,25.6,0,0,0,3.043,3.435c.583-1.622.907-2.377,1.127-3.164,9.721-34.775,19.479-69.542,29.045-104.361a14.911,14.911,0,0,0-.411-7.489c-6.66-24.247-13.474-48.452-20.242-72.67C606.9,212.484,603.869,201.612,600.542,189.688ZM378.77,318.374a45.419,45.419,0,0,0,3.021,4.061q13.641,14.189,27.362,28.3c14.581,14.948,29.107,29.953,43.9,44.683a24.006,24.006,0,0,0,10.1,6.257c32.832,8.683,65.759,17.007,98.672,25.379a71.9,71.9,0,0,0,7.659,1c-1.724-3.469-2.736-5.807-4-8q-28.154-48.922-56.3-97.85c-1.858-3.25-4.019-4.334-7.679-4.323-38.767.119-77.535.069-116.3.09C383.368,317.975,381.526,318.2,378.77,318.374ZM570.137,172.685c-3.827.6-5.716.733-7.523,1.2-30.377,7.791-60.688,15.858-91.15,23.3-8.806,2.152-15.833,5.532-22.295,12.409-21.946,23.359-44.758,45.906-67.207,68.794a41.721,41.721,0,0,0-3.167,4.286c1.724.223,2.528.418,3.333.419,40.042,0,80.083.078,120.123-.229,2.415-.018,5.724-2.54,7.069-4.812,14.333-24.232,28.38-48.634,42.449-73.02C557.647,194.835,563.394,184.569,570.137,172.685Z" transform="translate(-307.576 -120.061)" fill="#373f54"/>
    </g>
  </g>
</svg>
