<svg xmlns="http://www.w3.org/2000/svg" width="398.459" height="393.023" viewBox="0 0 398.459 393.023">
  <g id="Component_37_1" data-name="Component 37 – 1" transform="translate(0 0.5)">
    <g id="Group_3422" data-name="Group 3422" transform="translate(571.229 -438.26)">
      <g id="Group_3420" data-name="Group 3420">
        <path id="Path_4931" data-name="Path 4931" d="M-213.88,438.26h-2.81a25.778,25.778,0,0,0-25.61,25.8v32.86a25.641,25.641,0,0,0,25.61,25.61h2.81a25.634,25.634,0,0,0,25.61-25.61V464.11A25.757,25.757,0,0,0-213.88,438.26Zm0,75.24h-2.81a16.586,16.586,0,0,1-16.28-13.47h4.56a4.528,4.528,0,0,0,4.52-4.52,4.52,4.52,0,0,0-4.52-4.51h-4.86v-5.97h8.61a4.528,4.528,0,0,0,4.52-4.52,4.52,4.52,0,0,0-4.52-4.51h-8.61v-5.97h4.86a4.528,4.528,0,0,0,4.52-4.52,4.52,4.52,0,0,0-4.52-4.51h-4.57a16.651,16.651,0,0,1,16.29-13.71h2.81A16.643,16.643,0,0,1-197.59,461h-4.57a4.511,4.511,0,0,0-4.51,4.51,4.52,4.52,0,0,0,4.51,4.52h4.86V476h-8.61a4.511,4.511,0,0,0-4.51,4.51,4.52,4.52,0,0,0,4.51,4.52h8.61V491h-4.86a4.511,4.511,0,0,0-4.51,4.51,4.52,4.52,0,0,0,4.51,4.52h4.57A16.6,16.6,0,0,1-213.88,513.5Z" fill="#fff" stroke="#707070" stroke-width="1"/>
      </g>
      <g id="Group_3421" data-name="Group 3421">
        <path id="Path_4932" data-name="Path 4932" d="M-210.77,537.29v13.94h17.99a4.52,4.52,0,0,1,4.51,4.52,4.511,4.511,0,0,1-4.51,4.51h-45a4.52,4.52,0,0,1-4.52-4.51,4.528,4.528,0,0,1,4.52-4.52h17.98V537.29a42.288,42.288,0,0,1-37.5-41.78,4.52,4.52,0,0,1,4.52-4.51,4.511,4.511,0,0,1,4.51,4.51,33.028,33.028,0,0,0,32.99,32.99,33.02,33.02,0,0,0,32.98-32.99,4.52,4.52,0,0,1,4.52-4.51,4.511,4.511,0,0,1,4.51,4.51A42.28,42.28,0,0,1-210.77,537.29Z" fill="#fff" stroke="#707070" stroke-width="1"/>
      </g>
    </g>
    <g id="Component_33_1" data-name="Component 33 1" transform="translate(571.229 -438.26)">
      <path id="Path_4904" data-name="Path 4904" d="M-528.579,736.29l149.007,1.658a79.711,79.711,0,0,0,79.711-79.711h0a79.414,79.414,0,0,0-20.342-53.19c-16.961-18.919-42.207-28.21-67.494-25.721l-149.694,14.73-15.529,89.294Z" fill="#ffc945"/>
      <path id="Path_4905" data-name="Path 4905" d="M-262.293,567.288c-10.49-33.07-70.74-63.12-104.12-63.12h-1.09v-20.52a17.385,17.385,0,0,0,7.983-23.254,17.385,17.385,0,0,0-23.253-7.984,17.385,17.385,0,0,0-7.984,23.254,17.386,17.386,0,0,0,7.984,7.984v20.52h-4.7c-18.33,0-43.85,9.06-64.8,22.7-17.21,11.22-31.32,25.52-35.8,40.44a100.571,100.571,0,0,0-69.314,124.2,100.57,100.57,0,0,0,28.524,46.444c.61,6.68,5.04,66.81-30.61,88.83,45.3,13.21,82.39-14.1,101.51-32.96,18.88,15.29,45.3,25.06,66.53,25.06h37.08c18.71,0,40.32-7.58,57.25-19.84,13.38-9.68,23.84-22.28,27.64-36.36a100.624,100.624,0,0,0,78.332-118.806,100.624,100.624,0,0,0-71.162-76.584Zm-27.4,170.29h-170.9a73.465,73.465,0,0,1-73.465-73.465,73.464,73.464,0,0,1,73.465-73.465h170.9a73.465,73.465,0,0,1,73.465,73.465A73.466,73.466,0,0,1-289.693,737.578Z" fill="#fff" stroke="#707070" stroke-width="1"/>
      <circle id="Ellipse_127" data-name="Ellipse 127" cx="20.616" cy="20.616" r="20.616" transform="translate(-263.458 766.075)" fill="#ffc945"/>
      <circle id="Ellipse_128" data-name="Ellipse 128" cx="8.319" cy="8.319" r="8.319" transform="translate(-222.226 749.437)" fill="#ffc945"/>
      <circle id="Ellipse_128-2" data-name="Ellipse 128-2" cx="8.319" cy="8.319" r="8.319" transform="translate(-528.579 541.201)" fill="#ffc945"/>
      <g id="Group_3403" data-name="Group 3403">
        <g id="Group_3401" data-name="Group 3401">
          <circle id="Ellipse_589" data-name="Ellipse 589" cx="15.915" cy="15.915" r="15.915" transform="translate(-456.466 644.489)" fill="#373f54"/>
        </g>
        <g id="Group_3402" data-name="Group 3402">
          <circle id="Ellipse_590" data-name="Ellipse 590" cx="15.915" cy="15.915" r="15.915" transform="translate(-345.642 644.489)" fill="#373f54"/>
        </g>
      </g>
      <path id="Path_4906" data-name="Path 4906" d="M-272.293,567.288c-10.49-33.07-70.74-63.12-104.12-63.12h-1.09v-20.52a17.385,17.385,0,0,0,7.983-23.254,17.385,17.385,0,0,0-23.253-7.984,17.385,17.385,0,0,0-7.984,23.254,17.386,17.386,0,0,0,7.984,7.984v20.52h-4.7c-18.33,0-43.85,9.06-64.8,22.7-17.21,11.22-31.32,25.52-35.8,40.44a100.571,100.571,0,0,0-69.314,124.2,100.57,100.57,0,0,0,28.524,46.444c.61,6.68,5.04,66.81-30.61,88.83,45.3,13.21,82.39-14.1,101.51-32.96,18.88,15.29,45.3,25.06,66.53,25.06h37.08c18.71,0,40.32-7.58,57.25-19.84,13.38-9.68,23.84-22.28,27.64-36.36a100.624,100.624,0,0,0,78.332-118.806,100.624,100.624,0,0,0-71.162-76.584Zm-27.4,170.29h-170.9a73.465,73.465,0,0,1-73.465-73.465,73.464,73.464,0,0,1,73.465-73.465h170.9a73.465,73.465,0,0,1,73.465,73.465,73.466,73.466,0,0,1-73.465,73.465Z" fill="#373f54"/>
    </g>
    <g id="Group_3425" data-name="Group 3425" transform="translate(571.229 -438.26)">
      <g id="Group_3423" data-name="Group 3423">
        <path id="Path_4933" data-name="Path 4933" d="M-216.88,438.26h-2.81a25.778,25.778,0,0,0-25.61,25.8v32.86a25.641,25.641,0,0,0,25.61,25.61h2.81a25.634,25.634,0,0,0,25.61-25.61V464.11A25.757,25.757,0,0,0-216.88,438.26Zm0,75.24h-2.81a16.586,16.586,0,0,1-16.28-13.47h4.56a4.528,4.528,0,0,0,4.52-4.52,4.52,4.52,0,0,0-4.52-4.51h-4.86v-5.97h8.61a4.528,4.528,0,0,0,4.52-4.52,4.52,4.52,0,0,0-4.52-4.51h-8.61v-5.97h4.86a4.528,4.528,0,0,0,4.52-4.52,4.52,4.52,0,0,0-4.52-4.51h-4.57a16.651,16.651,0,0,1,16.29-13.71h2.81A16.643,16.643,0,0,1-200.59,461h-4.57a4.511,4.511,0,0,0-4.51,4.51,4.52,4.52,0,0,0,4.51,4.52h4.86V476h-8.61a4.511,4.511,0,0,0-4.51,4.51,4.52,4.52,0,0,0,4.51,4.52h8.61V491h-4.86a4.511,4.511,0,0,0-4.51,4.51,4.52,4.52,0,0,0,4.51,4.52h4.57A16.6,16.6,0,0,1-216.88,513.5Z" fill="#373f54"/>
      </g>
      <g id="Group_3424" data-name="Group 3424">
        <path id="Path_4934" data-name="Path 4934" d="M-213.77,537.29v13.94h17.99a4.52,4.52,0,0,1,4.51,4.52,4.511,4.511,0,0,1-4.51,4.51h-45a4.52,4.52,0,0,1-4.52-4.51,4.528,4.528,0,0,1,4.52-4.52h17.98V537.29a42.288,42.288,0,0,1-37.5-41.78,4.52,4.52,0,0,1,4.52-4.51,4.511,4.511,0,0,1,4.51,4.51,33.028,33.028,0,0,0,32.99,32.99,33.02,33.02,0,0,0,32.98-32.99,4.52,4.52,0,0,1,4.52-4.51,4.511,4.511,0,0,1,4.51,4.51A42.28,42.28,0,0,1-213.77,537.29Z" fill="#373f54"/>
      </g>
    </g>
  </g>
</svg>
