<svg xmlns="http://www.w3.org/2000/svg" xmlns:xlink="http://www.w3.org/1999/xlink" preserveAspectRatio="xMidYMid" width="16.687" height="13.09" viewBox="0 0 16.687 13.09">
  <defs>
    <style>
      .cls-1 {
        fill: #464646;
        opacity: 0.7;
        fill-rule: evenodd;
      }
    </style>
  </defs>
  <path d="M0.500,0.478 C0.174,0.798 0.012,1.186 0.012,1.646 L0.012,11.446 C0.012,11.905 0.174,12.295 0.500,12.613 C0.825,12.933 1.223,13.092 1.691,13.092 L15.012,13.092 C15.480,13.092 15.877,12.933 16.203,12.613 C16.528,12.295 16.691,11.905 16.691,11.446 L16.691,3.292 C16.691,2.833 16.528,2.444 16.203,2.124 C15.877,1.806 15.480,1.646 15.012,1.646 L8.332,1.646 L6.691,-0.000 L1.691,-0.000 C1.223,-0.000 0.825,0.159 0.500,0.478 ZM11.808,6.393 L14.348,6.584 L12.433,8.230 L12.980,10.642 L10.793,9.379 L8.605,10.642 L9.191,8.230 L7.277,6.584 L9.816,6.393 L10.793,4.096 L11.808,6.393 Z" class="cls-1"/>
</svg>
