<svg xmlns="http://www.w3.org/2000/svg" width="24.048" height="28.297" viewBox="0 0 24.048 28.297">
  <g id="android" transform="translate(247.651 -345.452)">
    <path id="Path_3328" data-name="Path 3328" d="M-233.27,393.417H-241.6c-1.209,0-2.2-.647-2.2-1.437v-5.444c0-.79.989-1.437,2.2-1.437h8.332c1.209,0,2.2.646,2.2,1.437v5.444C-231.071,392.771-232.06,393.417-233.27,393.417Z" transform="translate(1.898 -25.5)" fill="#6bb42d" opacity="0.98"/>
    <g id="Group_2619" data-name="Group 2619" transform="translate(-247.651 345.452)">
      <g id="Group_2613" data-name="Group 2613" transform="translate(4.759 0)">
        <path id="Path_3329" data-name="Path 3329" d="M-219.2,349.247l1.107-1.864a.617.617,0,0,0-.216-.837.589.589,0,0,0-.837.216l-1.188,2a7.12,7.12,0,0,0-4.619,0l-1.188-2a.617.617,0,0,0-.837-.216.611.611,0,0,0-.216.837l1.107,1.864a7.227,7.227,0,0,0-3.808,6.374.628.628,0,0,0,.621.621h13.261a.611.611,0,0,0,.621-.621A7.227,7.227,0,0,0-219.2,349.247ZM-228.631,355a6.032,6.032,0,0,1,6-5.4,6.073,6.073,0,0,1,6,5.4Z" transform="translate(229.9 -346.452)"/>
      </g>
      <g id="Group_2614" data-name="Group 2614" transform="translate(14.266 6.392)">
        <path id="Path_3330" data-name="Path 3330" d="M-193.187,366.859v.621a.455.455,0,0,1-.459.459h-.621a.434.434,0,0,1-.432-.459v-.621a.45.45,0,0,1,.432-.459h.621a.5.5,0,0,1,.324.135A.5.5,0,0,1-193.187,366.859Z" transform="translate(194.7 -366.4)"/>
      </g>
      <g id="Group_2615" data-name="Group 2615" transform="translate(8.27 6.392)">
        <path id="Path_3331" data-name="Path 3331" d="M-215.387,366.859v.621a.45.45,0,0,1-.432.459h-.621a.455.455,0,0,1-.459-.459v-.621a.455.455,0,0,1,.459-.459h.621A.45.45,0,0,1-215.387,366.859Z" transform="translate(216.9 -366.4)"/>
      </g>
      <g id="Group_2616" data-name="Group 2616" transform="translate(4.786 10.957)">
        <path id="Path_3332" data-name="Path 3332" d="M-215.485,383.489a.637.637,0,0,0-.432-.189h-13.262a.611.611,0,0,0-.621.621v9.561a2.421,2.421,0,0,0,2.431,2.431h.432v2.7a2.04,2.04,0,0,0,2.026,2.026,2.023,2.023,0,0,0,2.026-2.026v-2.7h.675v2.7a2.04,2.04,0,0,0,2.026,2.026,2.04,2.04,0,0,0,2.026-2.026v-2.7h.405a2.421,2.421,0,0,0,2.431-2.431v-9.561A.614.614,0,0,0-215.485,383.489Zm-3.889,11.8v3.322a.813.813,0,0,1-.81.81.8.8,0,0,1-.81-.81v-3.322a.628.628,0,0,0-.621-.621h-1.891a.628.628,0,0,0-.621.621v3.322a.8.8,0,0,1-.81.81.813.813,0,0,1-.81-.81v-3.322a.628.628,0,0,0-.621-.621H-227.4a1.21,1.21,0,0,1-1.215-1.215v-8.94h12.046v8.967a1.21,1.21,0,0,1-1.215,1.215h-1.026A.6.6,0,0,0-219.374,395.292Z" transform="translate(229.8 -383.3)"/>
      </g>
      <g id="Group_2617" data-name="Group 2617" transform="translate(20.483 10.957)">
        <path id="Path_3333" data-name="Path 3333" d="M-173.617,383.3a1.781,1.781,0,0,0-1.783,1.783V391.7a1.781,1.781,0,0,0,1.783,1.783,1.781,1.781,0,0,0,1.783-1.783v-6.59A1.787,1.787,0,0,0-173.617,383.3Zm-.567,1.81a.571.571,0,0,1,.567-.567.571.571,0,0,1,.567.567v6.617a.571.571,0,0,1-.567.567.571.571,0,0,1-.567-.567Z" transform="translate(175.4 -383.3)"/>
      </g>
      <g id="Group_2618" data-name="Group 2618" transform="translate(0 10.957)">
        <path id="Path_3334" data-name="Path 3334" d="M-242.017,383.3a1.781,1.781,0,0,0-1.783,1.783V391.7a1.781,1.781,0,0,0,1.783,1.783,1.8,1.8,0,0,0,1.81-1.783v-6.59A1.827,1.827,0,0,0-242.017,383.3Zm-.567,1.81a.571.571,0,0,1,.567-.567.57.57,0,0,1,.567.567v6.617a.571.571,0,0,1-.567.567.571.571,0,0,1-.567-.567Z" transform="translate(243.8 -383.3)"/>
      </g>
    </g>
  </g>
</svg>
