<svg xmlns="http://www.w3.org/2000/svg" xmlns:xlink="http://www.w3.org/1999/xlink" width="38.049" height="45.495" viewBox="0 0 38.049 45.495">
  <defs>
    <filter id="Path_3337" x="0" y="10.384" width="38.049" height="35.111" filterUnits="userSpaceOnUse">
      <feOffset dy="2" input="SourceAlpha"/>
      <feGaussianBlur stdDeviation="0.5" result="blur"/>
      <feFlood flood-opacity="0.161"/>
      <feComposite operator="in" in2="blur"/>
      <feComposite in="SourceGraphic"/>
    </filter>
  </defs>
  <g id="apple" transform="translate(244.224 -550.765)">
    <path id="Path_3335" data-name="Path 3335" d="M-215.391,604.455a4.992,4.992,0,0,1-2.216.585h-.042c-2.216,0-4.1-2.425-5.478-4.557-2.8-4.307-4.056-9.366-3.345-13.631a9.624,9.624,0,0,1,1.254-3.512,8.515,8.515,0,0,1,6.816-4.14,9.606,9.606,0,0,1,3.512.795,9.817,9.817,0,0,0,3.429.753,8.846,8.846,0,0,0,3.094-.711,9.623,9.623,0,0,1,3.763-.836,8.093,8.093,0,0,1,5.519,2.509l.084.084-.084.084a8.482,8.482,0,0,0-3.011,4.014,8.88,8.88,0,0,0,4.265,10.871l.084.042-.042.084a24.661,24.661,0,0,1-1.882,3.387c-1.463,2.216-3.429,4.809-5.6,4.809h-.042a4.819,4.819,0,0,1-2.174-.585,8.241,8.241,0,0,0-3.889-.92h-.042A8.2,8.2,0,0,0-215.391,604.455Z" transform="translate(-10.941 -16.545)" fill="#f77c7c"/>
    <g id="Apple-2" data-name="Apple" transform="translate(-242.724 550.765)">
      <g id="_Group_" transform="translate(0)">
        <g id="_Path_" transform="translate(17.351)">
          <path id="Path_3336" data-name="Path 3336" d="M-196.357,561.526a1.265,1.265,0,0,1-.669-.209,1.03,1.03,0,0,1-.376-.795,9.782,9.782,0,0,1,7.777-9.742,1.118,1.118,0,0,1,.878.209,1.03,1.03,0,0,1,.376.794,9.782,9.782,0,0,1-7.777,9.743Zm5.77-8.279a7.6,7.6,0,0,0-4.641,5.812A7.6,7.6,0,0,0-190.587,553.247Z" transform="translate(197.404 -550.765)"/>
        </g>
        <g id="_Path_2" transform="translate(0 10.384)">
          <g transform="matrix(1, 0, 0, 1, -1.5, -10.38)" filter="url(#Path_3337)">
            <path id="Path_3337-2" data-name="Path 3337" d="M-212.683,607.211a11.425,11.425,0,0,1-4.934-1.045,7.157,7.157,0,0,0-2.885-.711,6.534,6.534,0,0,0-2.885.711,11.426,11.426,0,0,1-4.934,1.045c-3.889,0-10.579-9.533-10.579-19.276,0-9.115,5.687-12.335,10.579-12.335a10.621,10.621,0,0,1,4.139.92,9.729,9.729,0,0,0,3.68.836,9.728,9.728,0,0,0,3.68-.836,11.025,11.025,0,0,1,4.181-.92,10.565,10.565,0,0,1,7.652,3.3.969.969,0,0,1,.251.878,1.218,1.218,0,0,1-.5.753,7.554,7.554,0,0,0-3.8,6.523,7.212,7.212,0,0,0,4.558,6.816,1.042,1.042,0,0,1,.585,1.3C-205.784,601.064-209.505,607.211-212.683,607.211Zm-7.819-3.805a8.646,8.646,0,0,1,3.638.836,9.534,9.534,0,0,0,4.139.878c1.3,0,4.432-3.763,6.523-9.7a9.348,9.348,0,0,1-4.976-8.363h0a9.718,9.718,0,0,1,3.721-7.526,8.338,8.338,0,0,0-5.227-1.8h-.042a8.766,8.766,0,0,0-3.387.794,11.247,11.247,0,0,1-4.432.962,11.426,11.426,0,0,1-4.432-.962,8.766,8.766,0,0,0-3.387-.794c-1.422,0-8.488.5-8.488,10.244,0,9.45,6.439,17.185,8.488,17.185a9.537,9.537,0,0,0,4.139-.878A8.713,8.713,0,0,1-220.5,603.406Z" transform="translate(240.4 -565.22)"/>
          </g>
        </g>
      </g>
    </g>
  </g>
</svg>
