<svg xmlns="http://www.w3.org/2000/svg" xmlns:xlink="http://www.w3.org/1999/xlink" width="31.796" height="34.555" viewBox="0 0 31.796 34.555">
  <defs>
    <filter id="Path_3279" x="0" y="0.221" width="31.796" height="34.334" filterUnits="userSpaceOnUse">
      <feOffset dy="3" input="SourceAlpha"/>
      <feGaussianBlur stdDeviation="0.5" result="blur"/>
      <feFlood flood-opacity="0.161"/>
      <feComposite operator="in" in2="blur"/>
      <feComposite in="SourceGraphic"/>
    </filter>
  </defs>
  <g id="finance" transform="translate(1.284)">
    <path id="Path_3276" data-name="Path 3276" d="M38.128,285.773l3.413-1.573,1.535,2.512,5.285-1.8,4.282-.476,4.016,1.339s2.284,4.346-5.3,1.573l2.925,5.38s-5.754-2.791-9.376-2.1c-3.9.749-.539-.856-.539-.856l.875,2.176L37.5,295.854v-9.732Z" transform="translate(-36.745 -266.446)" fill="#f9d180"/>
    <ellipse id="Ellipse_93" data-name="Ellipse 93" cx="4.936" cy="4.707" rx="4.936" ry="4.707" transform="translate(17.103 6.969)" fill="#f9d180"/>
    <g id="Group_2544" data-name="Group 2544" transform="translate(4.212 23.33)">
      <g id="Group_2543" data-name="Group 2543" transform="translate(0)">
        <circle id="Ellipse_94" data-name="Ellipse 94" cx="0.584" cy="0.584" r="0.584"/>
      </g>
    </g>
    <g id="Group_2546" data-name="Group 2546" transform="translate(26.524 16.383)">
      <g id="Group_2545" data-name="Group 2545" transform="translate(0)">
        <circle id="Ellipse_95" data-name="Ellipse 95" cx="0.584" cy="0.584" r="0.584"/>
      </g>
    </g>
    <g id="Group_2549" data-name="Group 2549" transform="translate(17.567 8.58)">
      <g id="Group_2548" data-name="Group 2548">
        <g id="Group_2547" data-name="Group 2547">
          <path id="Path_3277" data-name="Path 3277" d="M308.576,146.794h-.894a.512.512,0,0,1-.514-.514v-.52a.512.512,0,0,1,.514-.514h.99a.418.418,0,0,1,.419.419.584.584,0,0,0,1.167,0,1.585,1.585,0,0,0-1.542-1.58v-.5a.584.584,0,1,0-1.167,0v.508a1.68,1.68,0,0,0-1.542,1.675v.52a1.677,1.677,0,0,0,1.675,1.675h.895a.512.512,0,0,1,.514.514V149a.512.512,0,0,1-.514.514h-.99a.418.418,0,0,1-.419-.419.584.584,0,1,0-1.167,0,1.585,1.585,0,0,0,1.542,1.58v.5a.584.584,0,1,0,1.167,0v-.508a1.68,1.68,0,0,0,1.542-1.675v-.52A1.677,1.677,0,0,0,308.576,146.794Z" transform="translate(-305.778 -142.784)"/>
          <path id="Path_3278" data-name="Path 3278" d="M304.847,148.792a.807.807,0,0,1-.806-.806v-.3a1.814,1.814,0,0,1-1.542-1.783.806.806,0,0,1,1.611,0,.2.2,0,0,0,.2.2h.99a.3.3,0,0,0,.292-.292v-.52A.3.3,0,0,0,305.3,145H304.4a1.9,1.9,0,0,1-1.9-1.9v-.52a1.909,1.909,0,0,1,1.542-1.865v-.311a.806.806,0,0,1,1.611,0v.3a1.814,1.814,0,0,1,1.542,1.783.806.806,0,1,1-1.611,0,.2.2,0,0,0-.2-.2h-.99a.3.3,0,0,0-.292.292v.52a.3.3,0,0,0,.292.292h.895a1.9,1.9,0,0,1,1.9,1.9v.52a1.909,1.909,0,0,1-1.542,1.865v.311A.807.807,0,0,1,304.847,148.792Zm-1.542-3.248a.361.361,0,0,0-.362.362,1.37,1.37,0,0,0,1.326,1.358l.216.006v.717a.361.361,0,0,0,.362.362.357.357,0,0,0,.362-.362v-.711l.2-.019a1.468,1.468,0,0,0,1.339-1.453v-.52a1.453,1.453,0,0,0-1.453-1.453H304.4a.736.736,0,0,1-.736-.736v-.52a.736.736,0,0,1,.736-.736h.99a.643.643,0,0,1,.641.641.361.361,0,0,0,.362.362.357.357,0,0,0,.362-.362,1.37,1.37,0,0,0-1.326-1.358l-.216-.006V140.4a.361.361,0,0,0-.362-.362.357.357,0,0,0-.362.362v.711l-.2.019a1.463,1.463,0,0,0-1.339,1.453v.52a1.453,1.453,0,0,0,1.453,1.453h.895a.736.736,0,0,1,.736.736v.52a.736.736,0,0,1-.736.736h-.99a.643.643,0,0,1-.641-.641A.366.366,0,0,0,303.306,145.544Z" transform="translate(-302.5 -139.6)"/>
        </g>
      </g>
    </g>
    <g id="Group_2552" data-name="Group 2552" transform="translate(0 0)">
      <g id="Group_2551" data-name="Group 2551" transform="translate(0 0)">
        <g id="Group_2550" data-name="Group 2550">
          <g transform="matrix(1, 0, 0, 1, -1.28, 0)" filter="url(#Path_3279)">
            <path id="Path_3279-2" data-name="Path 3279" d="M57.605,28.27c-.241-.546-.679-1.656-1.231-1.871a2.2,2.2,0,0,0-1.7.038.006.006,0,0,0-.006.006L51,28.137a.583.583,0,0,0,.488,1.059l3.667-1.688a1.054,1.054,0,1,1,.85,1.929L48.5,32.755a4.333,4.333,0,0,1-3.686-.082l-2.747-1.364a5.507,5.507,0,0,0-4.676-.108l-.038.013L35.312,26.6l2.829-1.25a5.635,5.635,0,0,1,4.25-.133l5.526,2.03a.976.976,0,0,1-.653,1.84l-4.276-1.446a.582.582,0,1,0-.368,1.1L46.9,30.192a2.14,2.14,0,0,0,1.427-4.035L42.8,24.128a6.552,6.552,0,0,0-1.136-.311V20.594a5.768,5.768,0,0,1,5.76-5.76h2.125a5.768,5.768,0,0,1,5.76,5.76V22.11a.584.584,0,1,0,1.167,0V20.594a6.935,6.935,0,0,0-5.6-6.794V12.042l1.472-2.519a.578.578,0,0,0,.051-.469.586.586,0,0,0-.317-.355l-1.8-.818a.582.582,0,0,0-.438-.019l-1.339.482-1.186-.476a.549.549,0,0,0-.425,0l-1.891.73a.581.581,0,0,0-.3.825l1.446,2.614v1.751A6.927,6.927,0,0,0,40.5,20.594V23.7a6.876,6.876,0,0,0-2.829.584l-2.855,1.262a1.45,1.45,0,0,0-1.783-.514l-3.686,1.618a.592.592,0,0,0-.349.533v9.89a.591.591,0,0,0,.584.584.543.543,0,0,0,.26-.063L37,33.98a1.449,1.449,0,0,0,.8-1.688l.051-.025a4.333,4.333,0,0,1,3.686.082l2.747,1.364a5.507,5.507,0,0,0,4.676.108L56.47,30.5c.546-.241.958.019,1.174-.533A2.2,2.2,0,0,0,57.605,28.27Zm-7.892-14.6H47.321v-1.2h2.4l-.006,1.2ZM46.046,9.441,47.1,9.035l1.18.469a.578.578,0,0,0,.412.006l1.326-.476,1,.457L49.961,11.3H47.08ZM36.518,32.914c-.006.006-.019.006-.025.013l-6.325,3.2v-2.36l1.637-.806a.583.583,0,0,0-.514-1.047l-1.123.552v-4.91L33.5,26.088a.316.316,0,0,1,.216-.006.271.271,0,0,1,.152.146l.133.3h0l2.652,6.008A.274.274,0,0,1,36.518,32.914Z" transform="translate(-27.5 -7.6)"/>
          </g>
          <path id="Path_3280" data-name="Path 3280" d="M26.4,34.619a.765.765,0,0,1-.419-.121.809.809,0,0,1-.381-.685v-9.89a.806.806,0,0,1,.482-.736l3.686-1.618a1.656,1.656,0,0,1,1.941.444l2.69-1.186a6.98,6.98,0,0,1,2.7-.6V17.338a7.139,7.139,0,0,1,5.653-6.985V8.837L41.327,6.274a.806.806,0,0,1,.419-1.142l1.891-.73a.791.791,0,0,1,.59.006l1.11.444L46.6,4.4a.794.794,0,0,1,.6.025l1.808.818a.784.784,0,0,1,.431.488.8.8,0,0,1-.07.647L47.931,8.85v1.516a7.166,7.166,0,0,1,5.6,6.972v1.516a.806.806,0,1,1-1.611,0V17.338A5.544,5.544,0,0,0,46.377,11.8H44.251a5.544,5.544,0,0,0-5.538,5.538v3.039a6.774,6.774,0,0,1,.99.285l5.526,2.03a2.362,2.362,0,0,1-1.573,4.453L39.379,25.7a.812.812,0,0,1-.463-.406.8.8,0,0,1-.038-.615A.812.812,0,0,1,39.9,24.17l4.276,1.446a.754.754,0,0,0,.5-1.421l-5.526-2.03a5.424,5.424,0,0,0-4.086.133L32.439,23.46,34.3,27.672a5.7,5.7,0,0,1,4.695.184l2.747,1.364a4.111,4.111,0,0,0,3.5.082l7.511-3.318a.838.838,0,0,0-.032-1.548.815.815,0,0,0-.634.013l-3.66,1.688a.8.8,0,1,1-.672-1.459l3.686-1.7a2.437,2.437,0,0,1,1.865-.044c.59.228,1.009,1.193,1.281,1.827.025.057.051.108.07.159h0a2.424,2.424,0,0,1,.044,1.871.816.816,0,0,1-.812.546,1.508,1.508,0,0,0-.476.108l-7.511,3.318a5.729,5.729,0,0,1-4.866-.108L38.282,29.29a4.127,4.127,0,0,0-3.388-.127,1.671,1.671,0,0,1-.952,1.757l-7.175,3.61A.828.828,0,0,1,26.4,34.619Zm4.035-12.751a1.183,1.183,0,0,0-.488.1L26.26,23.587a.353.353,0,0,0-.216.33v9.89a.349.349,0,0,0,.171.3.359.359,0,0,0,.349.013L33.727,30.5a1.23,1.23,0,0,0,.679-1.427l-.051-.184.222-.1a4.533,4.533,0,0,1,3.876.089L41.2,30.242a5.284,5.284,0,0,0,4.485.1l7.5-3.318a1.951,1.951,0,0,1,.609-.146c.26-.032.362-.038.45-.266a2,2,0,0,0-.038-1.529c-.019-.051-.044-.1-.07-.165-.216-.5-.622-1.434-1.034-1.592a2,2,0,0,0-1.529.038l-3.673,1.694a.359.359,0,0,0,.3.653l3.667-1.688A1.28,1.28,0,1,1,52.9,26.365L45.4,29.7a4.533,4.533,0,0,1-3.876-.089L38.777,28.25a5.284,5.284,0,0,0-4.485-.1l-.241.108-2.214-5.024,3.039-1.339a5.864,5.864,0,0,1,4.422-.14l5.526,2.03a1.2,1.2,0,0,1-.793,2.258L39.753,24.6a.361.361,0,1,0-.228.685L43.8,26.727a1.832,1.832,0,0,0,.609.1,1.917,1.917,0,0,0,.666-3.718l-5.526-2.03a5.974,5.974,0,0,0-1.1-.3l-.184-.032V17.344a5.989,5.989,0,0,1,5.982-5.982h2.125a5.989,5.989,0,0,1,5.982,5.982v1.51a.361.361,0,0,0,.362.362.357.357,0,0,0,.362-.362V17.338a6.718,6.718,0,0,0-5.411-6.579l-.178-.038V8.729L49,6.16a.363.363,0,0,0,.032-.292.377.377,0,0,0-.2-.222l-1.808-.818a.37.37,0,0,0-.273-.013l-1.421.508-1.269-.508a.385.385,0,0,0-.266,0l-1.891.73a.37.37,0,0,0-.209.216.352.352,0,0,0,.025.3L43.2,8.723v1.992l-.184.032a6.7,6.7,0,0,0-5.475,6.585v3.331h-.222a6.662,6.662,0,0,0-2.734.565l-3.026,1.332-.1-.152a1.189,1.189,0,0,0-.571-.457A1.409,1.409,0,0,0,30.434,21.868ZM26.761,33.23V30.368l1.764-.863a.361.361,0,0,0,.165-.482.353.353,0,0,0-.209-.184.341.341,0,0,0-.273.019l-1.446.711V24.158l3.47-1.523a.486.486,0,0,1,.381-.006.514.514,0,0,1,.279.266l2.785,6.312a.468.468,0,0,1,.006.381.5.5,0,0,1-.266.279h0c-.006,0-.013.006-.019.006Zm.444-2.588V32.5l6-3.032.038-.019h0a.052.052,0,0,0,.032-.032.054.054,0,0,0,0-.044l-2.652-6-.013-.032-.121-.279a.076.076,0,0,0-.032-.032.054.054,0,0,0-.044,0l-3.2,1.408v4.4l.806-.393a.8.8,0,0,1,.615-.038.8.8,0,0,1,.1,1.484ZM46.751,10.632H43.909V8.989h2.842Zm-2.4-.444h1.954V9.433H44.353ZM46.9,8.266h-3.14l-1.218-2.2,1.37-.527,1.262.508a.387.387,0,0,0,.254.006l1.408-.508,1.307.6Zm-2.88-.444h2.626l.869-1.484-.7-.317-1.237.444a.773.773,0,0,1-.571-.013l-1.1-.438-.73.285Z" transform="translate(-25.6 -4.348)"/>
        </g>
      </g>
    </g>
    <ellipse id="Ellipse_96" data-name="Ellipse 96" cx="2.163" cy="2.163" rx="2.163" ry="2.163" transform="translate(9.434 0.688)" fill="#f9b438"/>
    <circle id="Ellipse_97" data-name="Ellipse 97" cx="0.78" cy="0.78" r="0.78" transform="translate(13.386 4.197)" fill="#f9b438"/>
    <ellipse id="Ellipse_98" data-name="Ellipse 98" cx="2.163" cy="2.163" rx="2.163" ry="2.163" transform="translate(9.053 27.663)" fill="#f9b438"/>
    <circle id="Ellipse_99" data-name="Ellipse 99" cx="0.78" cy="0.78" r="0.78" transform="translate(10.436 25.049)" fill="#f9b438"/>
  </g>
</svg>
