<svg id="healthcare" xmlns="http://www.w3.org/2000/svg" xmlns:xlink="http://www.w3.org/1999/xlink" width="44.213" height="41.095" viewBox="0 0 44.213 41.095">
  <defs>
    <filter id="Path_3196" x="0.879" y="4.687" width="43.334" height="36.409" filterUnits="userSpaceOnUse">
      <feOffset dy="3" input="SourceAlpha"/>
      <feGaussianBlur stdDeviation="0.5" result="blur"/>
      <feFlood flood-opacity="0.161"/>
      <feComposite operator="in" in2="blur"/>
      <feComposite in="SourceGraphic"/>
    </filter>
  </defs>
  <path id="Path_3195" data-name="Path 3195" d="M16.229,32.853s-4.7-21.64,15.182-12.066c0,0,7.251-4.815,12.519-1.416s-1.19,18.694-12.8,24.3A20.375,20.375,0,0,1,16.229,32.853Z" transform="translate(-7.675 -12.233)" fill="#f77c7c"/>
  <g id="Group_2460" data-name="Group 2460" transform="translate(2.379 4.687)">
    <g transform="matrix(1, 0, 0, 1, -2.38, -4.69)" filter="url(#Path_3196)">
      <path id="Path_3196-2" data-name="Path 3196" d="M46.034,26.808a9.641,9.641,0,0,1-.566,3.342c-1.7,7.761-16.541,17.165-17.165,17.561a1.227,1.227,0,0,1-1.246,0A76.593,76.593,0,0,1,18.5,41.367a1.2,1.2,0,1,1,1.586-1.813,92.024,92.024,0,0,0,7.648,5.778c4.475-2.889,14.276-10.31,15.465-15.748a7.825,7.825,0,0,0,.453-2.719,8.423,8.423,0,0,0-4.419-7.421,8.686,8.686,0,0,0-10.65,2.039,1.241,1.241,0,0,1-1.869,0,8.761,8.761,0,0,0-10.65-2.039,8.489,8.489,0,0,0-4.419,7.421,8.13,8.13,0,0,0,.453,2.606,8.406,8.406,0,0,0,.963,2.379h7.024L22.525,26.3a1.229,1.229,0,0,1,1.19-.736,1.209,1.209,0,0,1,1.076.906l1.756,7.478,2.323-3.739a1.266,1.266,0,0,1,1.02-.566h4.362a1.162,1.162,0,0,1,1.19,1.19,1.2,1.2,0,0,1-1.19,1.19H30.569l-3.456,5.665a1.266,1.266,0,0,1-1.02.566h-.17a1.145,1.145,0,0,1-.963-.906L23.318,30.49l-1.3,2.946a1.162,1.162,0,0,1-1.076.736H6.89a1.19,1.19,0,1,1,0-2.379H10.4a12.551,12.551,0,0,1-.566-1.756,9.9,9.9,0,0,1-.51-3.229,10.764,10.764,0,0,1,5.665-9.517,11.251,11.251,0,0,1,12.746,1.586,11.066,11.066,0,0,1,12.689-1.586A10.823,10.823,0,0,1,46.034,26.808Z" transform="translate(-3.32 -11.29)"/>
    </g>
  </g>
  <path id="Path_3197" data-name="Path 3197" d="M74.2,11.835H72.333L71.2,10.7V8.833L72.333,7.7H74.2l1.133,1.133V10.7Z" transform="translate(-31.716 -7.7)" fill="#f77c7c"/>
  <path id="Path_3198" data-name="Path 3198" d="M69.19,16.113h-.623L68,15.546v-.68l.566-.566h.68l.566.566v.68A6.2,6.2,0,0,0,69.19,16.113Z" transform="translate(-30.328 -10.561)" fill="#f77c7c"/>
  <path id="Path_3199" data-name="Path 3199" d="M4.559,30.035H2.633L1.5,28.9V27.033L2.633,25.9H4.5l1.133,1.133V28.9C5.239,29.356,4.956,29.639,4.559,30.035Z" transform="translate(-1.5 -15.59)" fill="#f77c7c"/>
  <path id="Path_3200" data-name="Path 3200" d="M8.49,35.013H7.866L7.3,34.446v-.68l.566-.566h.68l.566.566v.68C8.886,34.673,8.716,34.786,8.49,35.013Z" transform="translate(-4.014 -18.755)" fill="#f77c7c"/>
</svg>
