<svg xmlns="http://www.w3.org/2000/svg" width="31.173" height="33.97" viewBox="0 0 31.173 33.97">
  <g id="media" transform="translate(0 0)">
    <ellipse id="Ellipse_57" data-name="Ellipse 57" cx="12.368" cy="11.88" rx="12.368" ry="11.88" transform="translate(2.853 5.931)" fill="#adafb1"/>
    <g id="Group_2467" data-name="Group 2467" transform="translate(2.046 2.252)">
      <path id="Path_3209" data-name="Path 3209" d="M48.715,47.715H34.208A14.508,14.508,0,1,1,48.715,33.208h0a14.451,14.451,0,0,1-4.861,10.829h4.861ZM34.208,20.07a13.137,13.137,0,0,0,0,26.275H47.345v-.92H39.556l1.914-1.276A13.134,13.134,0,0,0,34.208,20.07ZM29.459,43.886a4.189,4.189,0,0,1-2.421-.788,4.1,4.1,0,0,1-1.652-2.7,4.162,4.162,0,0,1,.732-3.078,4.1,4.1,0,0,1,2.7-1.652,4.141,4.141,0,0,1,4,6.531h0a4.1,4.1,0,0,1-2.7,1.652C29.891,43.868,29.684,43.886,29.459,43.886Zm.019-6.925a3.08,3.08,0,0,0-.432.038,2.709,2.709,0,0,0-1.8,1.107,2.784,2.784,0,0,0-.488,2.064,2.709,2.709,0,0,0,1.107,1.8,2.784,2.784,0,0,0,2.064.488,2.709,2.709,0,0,0,1.8-1.107h0a2.765,2.765,0,0,0-.619-3.866A2.865,2.865,0,0,0,29.478,36.961Zm9.478,6.925a3.881,3.881,0,0,1-.657-.056A4.149,4.149,0,1,1,42.315,37.3a4.019,4.019,0,0,1,.732,3.078,4.167,4.167,0,0,1-1.652,2.7h0A4.176,4.176,0,0,1,38.956,43.886Zm-.019-6.925a2.718,2.718,0,0,0-1.614.526,2.782,2.782,0,0,0-.619,3.866,2.709,2.709,0,0,0,1.8,1.107,2.784,2.784,0,0,0,2.064-.488h0a2.709,2.709,0,0,0,1.107-1.8,2.764,2.764,0,0,0-2.74-3.209Zm-4.729-1.914a1.839,1.839,0,1,1,1.839-1.839A1.842,1.842,0,0,1,34.208,35.047Zm0-2.308a.469.469,0,1,0,.469.469A.465.465,0,0,0,34.208,32.738Zm7.676,2.121a4.157,4.157,0,1,1,1.276-.206A3.861,3.861,0,0,1,41.884,34.859Zm0-6.907a2.643,2.643,0,0,0-.845.131h0a2.772,2.772,0,1,0,3.491,1.783A2.83,2.83,0,0,0,41.884,27.953ZM26.531,34.859a3.786,3.786,0,0,1-1.276-.206,4.147,4.147,0,0,1-2.665-5.217h0a4.152,4.152,0,1,1,3.941,5.424ZM23.9,29.867a2.772,2.772,0,1,0,3.491-1.783A2.771,2.771,0,0,0,23.9,29.867Zm10.3-.582a4.148,4.148,0,1,1,4.148-4.148A4.149,4.149,0,0,1,34.208,29.285Zm0-6.907a2.768,2.768,0,1,0,2.759,2.778A2.763,2.763,0,0,0,34.208,22.378Z" transform="translate(-19.7 -18.7)"/>
    </g>
    <circle id="Ellipse_58" data-name="Ellipse 58" cx="2.046" cy="2.046" r="2.046" transform="translate(27.082 0)" fill="#797a7a"/>
    <circle id="Ellipse_59" data-name="Ellipse 59" cx="2.046" cy="2.046" r="2.046" transform="translate(0 29.878)" fill="#797a7a"/>
    <circle id="Ellipse_60" data-name="Ellipse 60" cx="0.92" cy="0.92" r="0.92" transform="translate(26.894 4.486)" fill="#797a7a"/>
    <circle id="Ellipse_61" data-name="Ellipse 61" cx="0.92" cy="0.92" r="0.92" transform="translate(3.81 28.058)" fill="#797a7a"/>
    <circle id="Ellipse_62" data-name="Ellipse 62" cx="0.92" cy="0.92" r="0.92" transform="translate(29.128 24.623)" fill="#797a7a"/>
  </g>
</svg>
