<svg id="real-estate" xmlns="http://www.w3.org/2000/svg" width="33.612" height="34.538" viewBox="0 0 33.612 34.538">
  <path id="Path_3201" data-name="Path 3201" d="M61.3,100.656,74.468,86.1l7.018,7.274v16.9H64.069V103S64.243,102.037,61.3,100.656Z" transform="translate(-59.186 -81.821)" fill="#adbee0"/>
  <path id="Path_3202" data-name="Path 3202" d="M60.353,436.187a6.62,6.62,0,0,1-3.494.875,6.692,6.692,0,0,1-3.494-.875,9.312,9.312,0,0,0-8.731,0,6.61,6.61,0,0,1-3.486.875,6.682,6.682,0,0,1-3.486-.875A8.59,8.59,0,0,0,33.3,435.1v1.962a6.682,6.682,0,0,1,3.486.875,9.3,9.3,0,0,0,8.723,0A6.61,6.61,0,0,1,49,437.062a6.692,6.692,0,0,1,3.494.875,9.327,9.327,0,0,0,8.738,0,6.692,6.692,0,0,1,3.494-.875V435.1A8.623,8.623,0,0,0,60.353,436.187Z" transform="translate(-33.299 -404.486)"/>
  <path id="Path_3203" data-name="Path 3203" d="M34.263,88.473h2.943V97.2c.143.068.294.136.438.211a8.466,8.466,0,0,0,1.532.634V87.492a.979.979,0,0,0-.981-.981h-1.66L49,73.215l12.451,13.3h-1.66a.979.979,0,0,0-.981.981V98.049a8.088,8.088,0,0,0,1.524-.634c.143-.068.294-.143.445-.211V88.473h2.943a.978.978,0,0,0,.709-1.653l-3.66-3.909V72.762H54.879v3.864L49.71,71.109a.985.985,0,0,0-1.434,0L33.546,86.82a.978.978,0,0,0,.717,1.653ZM56.849,74.724h1.962v6.09l-1.962-2.1Z" transform="translate(-33.281 -67.676)"/>
  <g id="Group_2465" data-name="Group 2465" transform="translate(11.207 17.899)">
    <rect id="Rectangle_703" data-name="Rectangle 703" width="7.365" height="9.795" transform="translate(0.77 0.762)" fill="#fff"/>
    <path id="Path_3204" data-name="Path 3204" d="M190.7,277.919h-8.9V266.6h8.9v11.319Zm-7.365-1.532h5.833v-8.255h-5.833Z" transform="translate(-181.8 -266.6)"/>
  </g>
  <path id="Path_3205" data-name="Path 3205" d="M54.443,187.375h-.611a1.13,1.13,0,0,0-1.132-1.132v-.611a1.13,1.13,0,0,0,1.132-1.132h.611a1.13,1.13,0,0,0,1.132,1.132v.611A1.13,1.13,0,0,0,54.443,187.375Z" transform="translate(-51.235 -172.796)" fill="#7d9af4"/>
  <path id="Path_3206" data-name="Path 3206" d="M423.852,351.584h-2.12a1.13,1.13,0,0,0-1.132-1.132v-2.12a1.13,1.13,0,0,0,1.132-1.132h2.12a1.13,1.13,0,0,0,1.132,1.132v2.12A1.135,1.135,0,0,0,423.852,351.584Z" transform="translate(-391.373 -323.218)" fill="#7d9af4"/>
  <path id="Path_3207" data-name="Path 3207" d="M341.343,32.275h-.611a1.13,1.13,0,0,0-1.132-1.132v-.611a1.13,1.13,0,0,0,1.132-1.132h.611a1.13,1.13,0,0,0,1.132,1.132v.611A1.13,1.13,0,0,0,341.343,32.275Z" transform="translate(-316.485 -29.4)" fill="#7d9af4"/>
  <path id="Path_3208" data-name="Path 3208" d="M324.621,64.952h-.189a1.13,1.13,0,0,0-1.132-1.132v-.189a1.13,1.13,0,0,0,1.132-1.132h.189a1.13,1.13,0,0,0,1.132,1.132v.189A1.135,1.135,0,0,0,324.621,64.952Z" transform="translate(-301.415 -60.002)" fill="#7d9af4"/>
</svg>
