<svg xmlns="http://www.w3.org/2000/svg" xmlns:xlink="http://www.w3.org/1999/xlink" width="34.172" height="41.728" viewBox="0 0 34.172 41.728">
  <defs>
    <filter id="Path_3291" x="0" y="0.747" width="34.172" height="40.982" filterUnits="userSpaceOnUse">
      <feOffset dy="3" input="SourceAlpha"/>
      <feGaussianBlur stdDeviation="0.5" result="blur"/>
      <feFlood flood-opacity="0.161"/>
      <feComposite operator="in" in2="blur"/>
      <feComposite in="SourceGraphic"/>
    </filter>
    <filter id="Path_3292" x="3.238" y="7.954" width="8.691" height="10.416" filterUnits="userSpaceOnUse">
      <feOffset dy="3" input="SourceAlpha"/>
      <feGaussianBlur stdDeviation="0.5" result="blur-2"/>
      <feFlood flood-opacity="0.161"/>
      <feComposite operator="in" in2="blur-2"/>
      <feComposite in="SourceGraphic"/>
    </filter>
    <filter id="Path_3293" x="9.552" y="7.055" width="4.532" height="6.023" filterUnits="userSpaceOnUse">
      <feOffset dy="3" input="SourceAlpha"/>
      <feGaussianBlur stdDeviation="0.5" result="blur-3"/>
      <feFlood flood-opacity="0.161"/>
      <feComposite operator="in" in2="blur-3"/>
      <feComposite in="SourceGraphic"/>
    </filter>
    <filter id="Path_3294" x="18.913" y="25.282" width="9.027" height="10.848" filterUnits="userSpaceOnUse">
      <feOffset dy="3" input="SourceAlpha"/>
      <feGaussianBlur stdDeviation="0.5" result="blur-4"/>
      <feFlood flood-opacity="0.161"/>
      <feComposite operator="in" in2="blur-4"/>
      <feComposite in="SourceGraphic"/>
    </filter>
    <filter id="Path_3295" x="17.03" y="31.35" width="4.558" height="6.037" filterUnits="userSpaceOnUse">
      <feOffset dy="3" input="SourceAlpha"/>
      <feGaussianBlur stdDeviation="0.5" result="blur-5"/>
      <feFlood flood-opacity="0.161"/>
      <feComposite operator="in" in2="blur-5"/>
      <feComposite in="SourceGraphic"/>
    </filter>
    <filter id="Path_3296" x="6.224" y="11.872" width="21.715" height="18.74" filterUnits="userSpaceOnUse">
      <feOffset dy="3" input="SourceAlpha"/>
      <feGaussianBlur stdDeviation="0.5" result="blur-6"/>
      <feFlood flood-opacity="0.161"/>
      <feComposite operator="in" in2="blur-6"/>
      <feComposite in="SourceGraphic"/>
    </filter>
  </defs>
  <g id="security" transform="translate(1.75)">
    <path id="Path_3290" data-name="Path 3290" d="M47.881,38.433s9.665-3.592,12.654-6.033c0,0,7,6.758,10.825,6.79,0,0,1.7,21.522-10.825,24.776C60.534,63.958,46.777,67.6,47.881,38.433Z" transform="translate(-47.059 -29.831)" fill="#7d9af4"/>
    <g id="Group_2571" data-name="Group 2571" transform="translate(0 1.009)">
      <g id="Group_2570" data-name="Group 2570">
        <g id="Group_2569" data-name="Group 2569">
          <g transform="matrix(1, 0, 0, 1, -1.75, -1.01)" filter="url(#Path_3291)">
            <path id="Path_3291-2" data-name="Path 3291" d="M68.508,19.233a59.968,59.968,0,0,1-14.393-6.105.764.764,0,0,0-.765,0,58.266,58.266,0,0,1-14.393,6.105.752.752,0,0,0-.556.733V27.7a22.241,22.241,0,0,0,6.75,16.246c3.318,3.246,7.177,5.05,8.586,5.05s5.268-1.8,8.586-5.05A22.256,22.256,0,0,0,69.072,27.7V19.966A.759.759,0,0,0,68.508,19.233Zm-.95,8.457a20.739,20.739,0,0,1-6.3,15.167c-3.262,3.2-6.75,4.615-7.523,4.615s-4.261-1.418-7.523-4.615a20.754,20.754,0,0,1-6.3-15.167V20.538a59.782,59.782,0,0,0,13.822-5.88,61.363,61.363,0,0,0,13.822,5.88V27.69Z" transform="translate(-36.65 -12.02)" stroke="#000" stroke-width="0.5"/>
          </g>
          <g transform="matrix(1, 0, 0, 1, -1.75, -1.01)" filter="url(#Path_3292)">
            <path id="Path_3292-2" data-name="Path 3292" d="M81.138,99.728a.761.761,0,0,0-.983-.427c-1.353.532-2.739,1.023-4.124,1.458a.762.762,0,0,0-.532.725v2.924a.757.757,0,0,0,1.514,0v-2.368c1.24-.4,2.481-.846,3.7-1.321A.77.77,0,0,0,81.138,99.728Z" transform="translate(-70.76 -91.29)"/>
          </g>
          <g transform="matrix(1, 0, 0, 1, -1.75, -1.01)" filter="url(#Path_3293)">
            <path id="Path_3293-2" data-name="Path 3293" d="M154.646,89.611a.835.835,0,0,0,.306-.064l.016-.008a.757.757,0,1,0-.612-1.385l-.016.008a.753.753,0,0,0-.387,1A.763.763,0,0,0,154.646,89.611Z" transform="translate(-142.84 -81.03)"/>
          </g>
          <g transform="matrix(1, 0, 0, 1, -1.75, -1.01)" filter="url(#Path_3294)">
            <path id="Path_3294-2" data-name="Path 3294" d="M275.8,314.511a.762.762,0,0,0-1.047.217,18.153,18.153,0,0,1-2.175,2.714,19.663,19.663,0,0,1-2.167,1.933.764.764,0,0,0-.145,1.063.763.763,0,0,0,1.063.145,20.486,20.486,0,0,0,2.344-2.086,20.239,20.239,0,0,0,2.352-2.94A.77.77,0,0,0,275.8,314.511Z" transform="translate(-249.7 -289.11)"/>
          </g>
          <g transform="matrix(1, 0, 0, 1, -1.75, -1.01)" filter="url(#Path_3295)">
            <path id="Path_3295-2" data-name="Path 3295" d="M247.143,389.822l-.04.024a.756.756,0,0,0,.379,1.41.727.727,0,0,0,.379-.1l.048-.032a.761.761,0,0,0,.274-1.039A.773.773,0,0,0,247.143,389.822Z" transform="translate(-228.2 -358.37)"/>
          </g>
          <g transform="matrix(1, 0, 0, 1, -1.75, -1.01)" filter="url(#Path_3296)">
            <path id="Path_3296-2" data-name="Path 3296" d="M116.773,153.474a2.429,2.429,0,0,0-1.74-.717,2.457,2.457,0,0,0-1.74,4.2l4.47,4.47a2.429,2.429,0,0,0,1.74.717,2.463,2.463,0,0,0,1.74-.717l9.327-9.327a2.465,2.465,0,0,0,0-3.48,2.429,2.429,0,0,0-1.74-.717,2.463,2.463,0,0,0-1.74.717L119.5,156.2Zm11.389-3.794a.945.945,0,0,1,1.337,1.337l-9.327,9.335a.953.953,0,0,1-1.337,0l-4.47-4.47a.945.945,0,0,1,1.337-1.337l3.262,3.262a.758.758,0,0,0,.532.226.73.73,0,0,0,.532-.226Z" transform="translate(-104.85 -136.03)"/>
          </g>
        </g>
      </g>
    </g>
    <path id="Path_3297" data-name="Path 3297" d="M389.166,17.627h-2.5l-.161-.161v-2.5l.161-.161h2.5l.161.161v2.5A1.521,1.521,0,0,1,389.166,17.627Z" transform="translate(-358.462 -13.648)" fill="#7d9af4"/>
    <path id="Path_3298" data-name="Path 3298" d="M364.844,41.516h-1.063l-.081-.081V40.381l.081-.081h1.063l.081.081v1.063C364.892,41.468,364.876,41.492,364.844,41.516Z" transform="translate(-337.499 -37.094)" fill="#7d9af4"/>
    <path id="Path_3299" data-name="Path 3299" d="M88.519,408.427h-.411a1.207,1.207,0,0,0-1.208-1.208v-.411a1.207,1.207,0,0,0,1.208-1.208h.411a1.207,1.207,0,0,0,1.208,1.208v.411A1.212,1.212,0,0,0,88.519,408.427Z" transform="translate(-82.994 -372.971)" fill="#7d9af4"/>
    <path id="Path_3300" data-name="Path 3300" d="M82.872,4.27,81.1,2.5V2.272L82.872.5H83.1L84.87,2.272V2.5L83.1,4.27Z" transform="translate(-77.661 -0.5)" fill="#7d9af4"/>
    <path id="Path_3301" data-name="Path 3301" d="M72.936,379.324H71.881l-.081-.081v-1.063l.081-.081h1.063l.081.081v1.063A.881.881,0,0,0,72.936,379.324Z" transform="translate(-69.11 -347.686)" fill="#7d9af4"/>
  </g>
</svg>
