<svg xmlns="http://www.w3.org/2000/svg" width="49" height="48" viewBox="0 0 49 48">
  <g id="whatsapp" transform="translate(-11484 -17073)">
    <ellipse id="Ellipse_104" data-name="Ellipse 104" cx="24.5" cy="24" rx="24.5" ry="24" transform="translate(11484 17073)" fill="#fff"/>
    <g id="whatsapp-2" data-name="whatsapp" transform="translate(11494 17082)">
      <path id="Path_1950" data-name="Path 1950" d="M14.554,0h-.007A14.541,14.541,0,0,0,2.77,23.079L.957,28.484,6.549,26.7a14.548,14.548,0,1,0,8-26.7Z" fill="#4caf50"/>
      <path id="Path_1951" data-name="Path 1951" d="M124.188,130.98a4.106,4.106,0,0,1-2.855,2.053c-.76.162-1.753.291-5.1-1.095-4.276-1.771-7.03-6.117-7.244-6.4a8.31,8.31,0,0,1-1.728-4.389,4.645,4.645,0,0,1,1.488-3.541,2.114,2.114,0,0,1,1.488-.522c.18,0,.342.009.487.016.427.018.642.044.924.718.351.846,1.206,2.934,1.308,3.148a.866.866,0,0,1,.062.788,2.515,2.515,0,0,1-.471.667c-.215.247-.418.437-.633.7-.2.231-.418.478-.171.906a12.915,12.915,0,0,0,2.361,2.934,10.7,10.7,0,0,0,3.412,2.1.92.92,0,0,0,1.026-.162,17.608,17.608,0,0,0,1.137-1.506.812.812,0,0,1,1.044-.316c.393.136,2.472,1.164,2.9,1.377s.709.316.813.5A3.624,3.624,0,0,1,124.188,130.98Z" transform="translate(-101.167 -110.433)" fill="#fafafa"/>
    </g>
  </g>
</svg>
