<svg id="check-green" xmlns="http://www.w3.org/2000/svg" width="53.056" height="53.056" viewBox="0 0 53.056 53.056">
  <circle id="Ellipse_520" data-name="Ellipse 520" cx="21" cy="21" r="21" transform="translate(8 7)" fill="#70cb8f"/>
  <g id="Group_2767" data-name="Group 2767" transform="translate(12.487 16.902)">
    <g id="Group_2766" data-name="Group 2766">
      <path id="Path_3428" data-name="Path 3428" d="M148.127,163.559a1.554,1.554,0,0,0-2.2,0L130.884,178.6l-7.73-7.73a1.554,1.554,0,0,0-2.2,2.2l8.829,8.829a1.554,1.554,0,0,0,2.2,0l16.144-16.144A1.554,1.554,0,0,0,148.127,163.559Z" transform="translate(-120.5 -163.104)"/>
    </g>
  </g>
  <g id="Group_2769" data-name="Group 2769" transform="translate(0 0)">
    <g id="Group_2768" data-name="Group 2768">
      <path id="Path_3429" data-name="Path 3429" d="M45.286,7.77A26.528,26.528,0,1,0,7.77,45.286,26.528,26.528,0,1,0,45.286,7.77ZM26.528,49.947A23.419,23.419,0,1,1,49.947,26.528,23.446,23.446,0,0,1,26.528,49.947Z" transform="translate(0 0)"/>
    </g>
  </g>
</svg>
