<svg xmlns="http://www.w3.org/2000/svg" width="68.097" height="68.098" viewBox="0 0 68.097 68.098">
  <g id="money-bag-green" transform="translate(-402 -2101.711)">
    <path id="Path_4474" data-name="Path 4474" d="M14,0H25A14,14,0,0,1,39,14V30H0V14A14,14,0,0,1,14,0Z" transform="translate(417 2112)" fill="#70cb8f"/>
    <g id="money-bag_1_" data-name="money-bag (1)" transform="translate(402 2101.711)">
      <path id="Path_3403" data-name="Path 3403" d="M136.858,39.724V23.834A14.712,14.712,0,0,0,123.882,9.193l3.783-7.551A1.135,1.135,0,0,0,126.644,0H106.215A1.135,1.135,0,0,0,105.2,1.642l3.778,7.551A14.768,14.768,0,0,0,96,23.834V44.263h2.27V23.834A12.5,12.5,0,0,1,110.754,11.35H122.1a12.467,12.467,0,0,1,12.485,12.485V39.724ZM121.4,9.08h-9.946l-3.4-6.81h16.756Zm0,0" transform="translate(-82.381 0)"/>
      <path id="Path_3404" data-name="Path 3404" d="M165.122,101.293a7.865,7.865,0,0,1,1.985-.815l-.567-2.2a10.242,10.242,0,0,0-2.555,1.047Zm0,0" transform="translate(-140.72 -84.338)"/>
      <path id="Path_3405" data-name="Path 3405" d="M128,128.232h2.27v-4.54a7.884,7.884,0,0,1,2.413-5.7l-1.581-1.628a10.134,10.134,0,0,0-3.1,7.325Zm0,0" transform="translate(-109.84 -99.858)"/>
      <path id="Path_3406" data-name="Path 3406" d="M3.237,306.3l19.268,10.509a14.75,14.75,0,0,0,7.072,1.808H66.962A1.135,1.135,0,0,0,68.1,317.48V297.051a1.135,1.135,0,0,0-1.135-1.135H58.277l-.13-.1a17.967,17.967,0,0,0-4.376-2.517,18.409,18.409,0,0,0-16.788,1.482H28.374a5.675,5.675,0,0,0-5.415,7.377l-14.03-7.03a6.072,6.072,0,0,0-6.43.615A6.241,6.241,0,0,0,0,300.729v.125A6.186,6.186,0,0,0,3.237,306.3Zm55.781-8.113h6.81v18.159h-6.81ZM2.27,300.729a4.009,4.009,0,0,1,1.645-3.212,3.8,3.8,0,0,1,4-.359L25.6,306.01a1.125,1.125,0,0,0,.507.12H43.128v-2.27H28.374a3.4,3.4,0,0,1,0-6.81h8.943a1.147,1.147,0,0,0,.626-.187,16.137,16.137,0,0,1,14.981-1.46,15.761,15.761,0,0,1,3.824,2.2v18.744H29.577a12.481,12.481,0,0,1-5.983-1.53L4.32,304.3a3.918,3.918,0,0,1-2.05-3.451Zm0,0" transform="translate(0 -250.518)"/>
      <path id="Path_3407" data-name="Path 3407" d="M432,424h2.27v2.27H432Zm0,0" transform="translate(-370.712 -363.847)"/>
      <path id="Path_3408" data-name="Path 3408" d="M199.945,156.429v-2.27h1.135a4.54,4.54,0,0,0,0-9.08h-4.54a2.27,2.27,0,0,1,0-4.54h7.945v-2.27h-4.54V136h-2.27v2.27H196.54a4.54,4.54,0,0,0,0,9.08h4.54a2.27,2.27,0,1,1,0,4.54h-7.945v2.27h4.54v2.27Zm0,0" transform="translate(-164.761 -116.706)"/>
      <path id="Path_3430" data-name="Path 3430" d="M3.237,306.3l19.268,10.509a14.75,14.75,0,0,0,7.072,1.808H66.962A1.135,1.135,0,0,0,68.1,317.48V297.051a1.135,1.135,0,0,0-1.135-1.135H58.277l-.13-.1a17.967,17.967,0,0,0-4.376-2.517,18.409,18.409,0,0,0-16.788,1.482H28.374a5.675,5.675,0,0,0-5.415,7.377l-14.03-7.03a6.072,6.072,0,0,0-6.43.615A6.241,6.241,0,0,0,0,300.729v.125A6.186,6.186,0,0,0,3.237,306.3Zm55.781-8.113h6.81v18.159h-6.81ZM2.27,300.729a4.009,4.009,0,0,1,1.645-3.212,3.8,3.8,0,0,1,4-.359L25.6,306.01a1.125,1.125,0,0,0,.507.12H43.128v-2.27H28.374a3.4,3.4,0,0,1,0-6.81h8.943a1.147,1.147,0,0,0,.626-.187,16.137,16.137,0,0,1,14.981-1.46,15.761,15.761,0,0,1,3.824,2.2v18.744H29.577a12.481,12.481,0,0,1-5.983-1.53L4.32,304.3a3.918,3.918,0,0,1-2.05-3.451Zm0,0" transform="translate(0 -250.518)"/>
      <path id="Path_3431" data-name="Path 3431" d="M3.237,306.3l19.268,10.509a14.75,14.75,0,0,0,7.072,1.808H66.962A1.135,1.135,0,0,0,68.1,317.48V297.051a1.135,1.135,0,0,0-1.135-1.135H58.277l-.13-.1a17.967,17.967,0,0,0-4.376-2.517,18.409,18.409,0,0,0-16.788,1.482H28.374a5.675,5.675,0,0,0-5.415,7.377l-14.03-7.03a6.072,6.072,0,0,0-6.43.615A6.241,6.241,0,0,0,0,300.729v.125A6.186,6.186,0,0,0,3.237,306.3Zm55.781-8.113h6.81v18.159h-6.81ZM2.27,300.729a4.009,4.009,0,0,1,1.645-3.212,3.8,3.8,0,0,1,4-.359L25.6,306.01a1.125,1.125,0,0,0,.507.12H43.128v-2.27H28.374a3.4,3.4,0,0,1,0-6.81h8.943a1.147,1.147,0,0,0,.626-.187,16.137,16.137,0,0,1,14.981-1.46,15.761,15.761,0,0,1,3.824,2.2v18.744H29.577a12.481,12.481,0,0,1-5.983-1.53L4.32,304.3a3.918,3.918,0,0,1-2.05-3.451Zm0,0" transform="translate(0 -250.518)"/>
    </g>
  </g>
</svg>
