<svg xmlns="http://www.w3.org/2000/svg" width="706.424" height="419.427" viewBox="0 0 706.424 419.427">
  <g id="Component_2_1" data-name="Component 2 – 1" transform="translate(0 1.383)">
    <g id="Group_121" data-name="Group 121" transform="translate(-1044.198 -7323.35)">
      <path id="Path_177" data-name="Path 177" d="M1147.119,7521.219c61.966-41.206,36.282-163.079,145.2-163.079s49.131,64.892,158.836,40.748,64.732,132.636,128.512,155.711c76.836,27.8,100.3,103.437,42.314,174.26H1140.85S1054.653,7582.705,1147.119,7521.219Z" fill="#bcbcbc"/>
      <path id="Path_178" data-name="Path 178" d="M1131.629,7729.618s-86.2-146.154,6.269-207.64c61.966-41.206,37.613-158.547,146.534-158.547s33.842,70.212,157.505,36.216c108.313-29.775,55.883,147.94,128.512,155.711,104.7,11.2,139.207,108.938,81.22,179.761" fill="none" stroke="#58595b" stroke-miterlimit="10" stroke-width="2.766"/>
      <path id="Path_179" data-name="Path 179" d="M1613.025,7582.279c-.222.594-.124,1.181.219,1.309s.8-.248,1.027-.844.121-1.182-.221-1.31S1613.247,7581.683,1613.025,7582.279Z" fill="#ef5d23"/>
      <path id="Path_180" data-name="Path 180" d="M1621.984,7728.859c-1.549,13.407-77.188,11.074-154.343,6.26-77.176-4.814-154.258-3.475-252.026-2.019-111.579,1.662-70.476-21.313-54-28.534,1.821-.8,3.831-1.54,5.988-2.24,17.211-5.6,42.084-8.046,31.553-10.481-11.83-2.757-.5-11.7,45.79-16.164s110.487-2.533,117.292-3.093c92.084-7.571,136.325,10.314,168.736,14.443a.109.109,0,0,1,.063.013C1563.429,7691.173,1623.513,7715.466,1621.984,7728.859Z" fill="#e09e4f"/>
      <g id="Group_115" data-name="Group 115">
        <g id="Group_114" data-name="Group 114">
          <g id="Group_76" data-name="Group 76">
            <path id="Path_181" data-name="Path 181" d="M1383.886,7680.7a26.53,26.53,0,0,0-9.83,6.972,14.556,14.556,0,0,1-5.875,3.834,16.123,16.123,0,0,0-2.6,1.217,4.332,4.332,0,0,0-1.114,1,3.472,3.472,0,0,0-.661,1.5c-.129.72-.223,1.29-.351,1.76a4.7,4.7,0,0,1-1.113,2.023,22.467,22.467,0,0,1-3.822,3.213,22.029,22.029,0,0,1-2.868,1.779c-.516.262-.915.431-1.323.627a4.914,4.914,0,0,0-1.842,1.422,17.448,17.448,0,0,0-1.781,3.044,20.573,20.573,0,0,1-3.323,5.193,18.893,18.893,0,0,1-4.753,3.366,33.307,33.307,0,0,0-7.728,5.873,1.4,1.4,0,0,0,2.064,1.891l.02-.022a30.961,30.961,0,0,1,7-5.3,21.509,21.509,0,0,0,5.421-3.882,23.188,23.188,0,0,0,3.8-5.872,18.114,18.114,0,0,1,1.351-2.4,2.14,2.14,0,0,1,.523-.539,15.358,15.358,0,0,1,1.548-.765,24.1,24.1,0,0,0,3.516-2.14c2.722-1.95,4.2-3.3,5.1-4.709a7.3,7.3,0,0,0,.907-2.073c.181-.674.279-1.311.4-1.991a.656.656,0,0,1,.129-.3,2.816,2.816,0,0,1,1.023-.68c1.744-.847,5.329-1.724,8.434-5.205a25.005,25.005,0,0,1,5.915-4.832,22.144,22.144,0,0,1,2.037-1.063c.245-.111.435-.19.561-.24l.137-.054.03-.011h0a1.4,1.4,0,1,0-.938-2.638Z" fill="#935324"/>
            <path id="Path_182" data-name="Path 182" d="M1403.4,7677.871a7.505,7.505,0,0,0-3,1.967,47.5,47.5,0,0,0-3.213,4.1,14.39,14.39,0,0,1-3.982,3.721,40.651,40.651,0,0,0-5.767,3.836,13.069,13.069,0,0,0-3.443,4.942,19.179,19.179,0,0,1-3.075,5.1,13.564,13.564,0,0,1-5.088,3.577,12.651,12.651,0,0,0-5.777,5.133c-1.338,2.049-2.4,4.22-3.948,6.244a10.886,10.886,0,0,1-4.625,3.394,17.478,17.478,0,0,0-2.485,1.3,6.535,6.535,0,0,0-2.166,2.357,1.4,1.4,0,1,0,2.464,1.327,3.709,3.709,0,0,1,1.267-1.363c.813-.56,2.021-1,3.423-1.726a12.508,12.508,0,0,0,4.346-3.592c1.753-2.3,2.858-4.58,4.064-6.409a9.847,9.847,0,0,1,4.523-4.088,16.376,16.376,0,0,0,6.1-4.308,21.941,21.941,0,0,0,3.538-5.831,10.24,10.24,0,0,1,2.726-3.961,38.69,38.69,0,0,1,5.36-3.539,19.894,19.894,0,0,0,5.847-5.876,22,22,0,0,1,1.909-2.393,4.727,4.727,0,0,1,1.886-1.269,1.4,1.4,0,1,0-.885-2.655Z" fill="#935324"/>
            <path id="Path_183" data-name="Path 183" d="M1427.748,7675.256a10.124,10.124,0,0,0-6.125,2.472,16.97,16.97,0,0,0-5.105,7.338,10.53,10.53,0,0,1-1.815,3.2,11.74,11.74,0,0,1-3.595,2.7,36.22,36.22,0,0,0-4.535,2.62,9.992,9.992,0,0,0-2.575,2.808,32.323,32.323,0,0,0-2.13,4.526,11.5,11.5,0,0,1-2.325,3.742,10.215,10.215,0,0,1-2.829,1.819c-1.791.854-3.99,1.6-6.027,2.549a16.791,16.791,0,0,0-2.886,1.656,7.791,7.791,0,0,0-2.222,2.418c-1.3,2.337-1.73,4.959-2.459,7.073a9.472,9.472,0,0,1-1.3,2.679,4.5,4.5,0,0,1-2.116,1.575,1.4,1.4,0,1,0,.967,2.626,7.319,7.319,0,0,0,3.384-2.517,15.748,15.748,0,0,0,2.267-5.266,22.521,22.521,0,0,1,1.7-4.8,5.92,5.92,0,0,1,2.158-2.016,41.763,41.763,0,0,1,5.692-2.558,17.207,17.207,0,0,0,5.654-3.261,17.591,17.591,0,0,0,3.544-6.108,18.111,18.111,0,0,1,1.3-2.65,7.189,7.189,0,0,1,1.86-2.04c1.71-1.266,3.694-2.014,5.711-3.287a12.655,12.655,0,0,0,2.9-2.479,13.352,13.352,0,0,0,2.3-4.027,14.184,14.184,0,0,1,4.242-6.143,7.42,7.42,0,0,1,4.367-1.851,1.4,1.4,0,0,0,0-2.8Z" fill="#935324"/>
            <path id="Path_184" data-name="Path 184" d="M1442.206,7676.05a4.461,4.461,0,0,0-1.732.788,7.159,7.159,0,0,0-1.968,2.452,49.413,49.413,0,0,0-1.933,4.6,18.555,18.555,0,0,1-2.307,4.38c-1.371,1.81-3.524,2.823-5.78,3.876a21.332,21.332,0,0,0-3.291,1.807,7.255,7.255,0,0,0-2.545,3c-.948,2.179-1.825,5.2-2.971,8.014a25.054,25.054,0,0,1-1.9,3.856,8.578,8.578,0,0,1-2.267,2.544,34.038,34.038,0,0,1-5.645,2.713,9.284,9.284,0,0,0-2.618,1.691,6.17,6.17,0,0,0-1.712,3.023,21.239,21.239,0,0,1-2.745,5.687c-.552.859-1.076,1.6-1.46,2.121-.192.261-.349.468-.456.607l-.123.158-.038.048a1.4,1.4,0,1,0,2.185,1.749c.02-.025,1.062-1.328,2.247-3.17a23.724,23.724,0,0,0,3.1-6.521,3.362,3.362,0,0,1,.943-1.691,9.956,9.956,0,0,1,3.145-1.718,24.288,24.288,0,0,0,4.758-2.39,11.313,11.313,0,0,0,3.05-3.361,34.614,34.614,0,0,0,2.979-6.523c.8-2.2,1.469-4.3,2.09-5.715a4.464,4.464,0,0,1,1.6-1.841,36.764,36.764,0,0,1,4.58-2.379,13.972,13.972,0,0,0,5.09-3.884c1.843-2.426,2.747-5.29,3.652-7.512a12.983,12.983,0,0,1,1.341-2.674,3.183,3.183,0,0,1,.657-.7,1.652,1.652,0,0,1,.654-.3,1.4,1.4,0,0,0-.587-2.737Z" fill="#935324"/>
          </g>
          <g id="Group_77" data-name="Group 77">
            <path id="Path_185" data-name="Path 185" d="M1296.1,7682.03a47.415,47.415,0,0,0-13.364,6.12,26.055,26.055,0,0,1-7.89,3.365,29.36,29.36,0,0,0-3.358,1.069,7.45,7.45,0,0,0-1.575.877,4.377,4.377,0,0,0-1.2,1.317c-.358.632-.63,1.133-.914,1.545a6.364,6.364,0,0,1-1.868,1.776,51.646,51.646,0,0,1-9.167,4.382c-.67.23-1.18.379-1.708.551a8.659,8.659,0,0,0-2.537,1.248,24.641,24.641,0,0,0-2.935,2.672,30.043,30.043,0,0,1-5.334,4.559,33.668,33.668,0,0,1-6.46,2.955,58.394,58.394,0,0,0-10.619,5.156c-.767.5-.978,1.277-.47,1.736a2.037,2.037,0,0,0,2.308-.076l.03-.019a54.313,54.313,0,0,1,9.615-4.649,38.308,38.308,0,0,0,7.38-3.409,33.939,33.939,0,0,0,6.08-5.154,25.089,25.089,0,0,1,2.253-2.108,3.486,3.486,0,0,1,.76-.473c.313-.149.921-.318,2.008-.672a43.3,43.3,0,0,0,4.677-1.879,31.964,31.964,0,0,0,7.252-4.134,9.107,9.107,0,0,0,1.644-1.819c.4-.592.7-1.152,1.041-1.748a.8.8,0,0,1,.235-.264,5.054,5.054,0,0,1,1.378-.6c2.258-.743,6.652-1.513,11.24-4.568a43.719,43.719,0,0,1,8.226-4.242c1.11-.433,2.028-.739,2.658-.934.315-.1.558-.167.717-.211l.175-.047.037-.009h0c.916-.227,1.586-.93,1.5-1.569s-.9-.973-1.819-.746Z" fill="#935324"/>
            <path id="Path_186" data-name="Path 186" d="M1319.451,7679.542a13.439,13.439,0,0,0-4.034,1.727c-1.76,1.1-3.246,2.385-4.894,3.6a24.424,24.424,0,0,1-5.672,3.266,73.271,73.271,0,0,0-7.766,3.368,19.553,19.553,0,0,0-5.4,4.338,27.266,27.266,0,0,1-5.023,4.481,24.082,24.082,0,0,1-6.908,3.141,21.53,21.53,0,0,0-8.152,4.505c-2.136,1.8-3.982,3.7-6.359,5.482a19.263,19.263,0,0,1-6.321,2.98,31.87,31.87,0,0,0-3.245,1.143,10.686,10.686,0,0,0-3.182,2.069c-.62.6-.57,1.343.11,1.664a2.284,2.284,0,0,0,2.353-.5,6.091,6.091,0,0,1,1.857-1.2c1.1-.491,2.624-.881,4.45-1.514a21.8,21.8,0,0,0,6.055-3.154c2.688-2.018,4.622-4.021,6.542-5.626a16.732,16.732,0,0,1,6.4-3.589,29.1,29.1,0,0,0,8.29-3.781,31.2,31.2,0,0,0,5.768-5.12,15.275,15.275,0,0,1,4.289-3.477,69.867,69.867,0,0,1,7.211-3.107,33.1,33.1,0,0,0,8.448-5.158,34.5,34.5,0,0,1,2.894-2.1,8.425,8.425,0,0,1,2.544-1.113c.917-.215,1.6-.911,1.532-1.555s-.871-.991-1.789-.777Z" fill="#935324"/>
            <path id="Path_187" data-name="Path 187" d="M1348.328,7677.247a18,18,0,0,0-7.786,2.17,25.382,25.382,0,0,0-8.012,6.442,14.7,14.7,0,0,1-3.018,2.807,20.764,20.764,0,0,1-4.93,2.371c-1.815.658-3.844,1.29-5.994,2.3a16.382,16.382,0,0,0-3.784,2.466,41.823,41.823,0,0,0-3.764,3.973,16.482,16.482,0,0,1-3.764,3.284,18.379,18.379,0,0,1-3.793,1.6c-2.314.749-5.069,1.406-7.7,2.237a30.443,30.443,0,0,0-3.81,1.454,12.741,12.741,0,0,0-3.264,2.123c-2.172,2.052-3.428,4.353-4.879,6.209a12.377,12.377,0,0,1-2.276,2.351,7.883,7.883,0,0,1-2.9,1.383c-.915.235-1.576.941-1.476,1.578s.921.963,1.836.728a12.877,12.877,0,0,0,4.634-2.21,19.606,19.606,0,0,0,4.137-4.623,26.179,26.179,0,0,1,3.344-4.212,9.984,9.984,0,0,1,3.073-1.769,75.691,75.691,0,0,1,7.311-2.247,31.08,31.08,0,0,0,7.471-2.862,24.474,24.474,0,0,0,5.854-5.362,23.753,23.753,0,0,1,2.267-2.326,11.724,11.724,0,0,1,2.737-1.791c2.34-1.112,4.847-1.768,7.543-2.886a21.927,21.927,0,0,0,4.061-2.176,18.6,18.6,0,0,0,3.82-3.536,21.186,21.186,0,0,1,6.671-5.392,13.223,13.223,0,0,1,5.577-1.625,2.171,2.171,0,0,0,2.019-1.229c.223-.678-.319-1.228-1.212-1.228Z" fill="#935324"/>
            <path id="Path_188" data-name="Path 188" d="M1364.8,7677.944a8.037,8.037,0,0,0-2.228.692,11.2,11.2,0,0,0-2.979,2.152c-1.265,1.232-2.363,2.645-3.559,4.037a25.1,25.1,0,0,1-3.927,3.845c-2.1,1.589-4.884,2.478-7.793,3.4a38.653,38.653,0,0,0-4.322,1.586,11.527,11.527,0,0,0-3.8,2.633c-1.724,1.912-3.608,4.567-5.742,7.035a33.261,33.261,0,0,1-3.31,3.385,13.966,13.966,0,0,1-3.352,2.233,61.813,61.813,0,0,1-7.3,2.382,16.672,16.672,0,0,0-3.512,1.484,8.552,8.552,0,0,0-2.849,2.654,27.6,27.6,0,0,1-4.809,4.992c-.886.755-1.705,1.4-2.3,1.863-.3.229-.537.41-.7.533l-.188.138-.058.043c-.732.529-.872,1.3-.315,1.726a2.119,2.119,0,0,0,2.335-.191c.03-.022,1.609-1.166,3.508-2.783a30.73,30.73,0,0,0,5.467-5.725,4.63,4.63,0,0,1,1.576-1.484,18.044,18.044,0,0,1,4.128-1.509,43.907,43.907,0,0,0,6.184-2.1,18.385,18.385,0,0,0,4.493-2.951,44.279,44.279,0,0,0,5.321-5.726c1.556-1.934,2.937-3.775,4.061-5.016a7.123,7.123,0,0,1,2.384-1.617c1.554-.722,3.682-1.318,5.975-2.088a24.635,24.635,0,0,0,7-3.41,40.186,40.186,0,0,0,6.383-6.6,17.248,17.248,0,0,1,2.32-2.347,5.256,5.256,0,0,1,.959-.61,2.984,2.984,0,0,1,.841-.264c.92-.142,1.69-.8,1.721-1.458s-.689-1.086-1.609-.944Z" fill="#935324"/>
          </g>
          <g id="Group_90" data-name="Group 90">
            <g id="Group_80" data-name="Group 80">
              <g id="Group_78" data-name="Group 78">
                <path id="Path_189" data-name="Path 189" d="M1461.276,7684.9s-8.722-.89-9.256-7.12S1461.454,7677.784,1461.276,7684.9Z" fill="#306f54"/>
                <path id="Path_190" data-name="Path 190" d="M1454.208,7677.84a42.531,42.531,0,0,1,7.068,7.064A12,12,0,0,0,1454.208,7677.84Z" fill="#59a780"/>
              </g>
              <g id="Group_79" data-name="Group 79">
                <path id="Path_191" data-name="Path 191" d="M1461.276,7684.9s7.854-.8,8.335-6.412S1461.115,7678.492,1461.276,7684.9Z" fill="#306f54"/>
                <path id="Path_192" data-name="Path 192" d="M1467.641,7678.542a38.3,38.3,0,0,0-6.365,6.362A10.8,10.8,0,0,1,1467.641,7678.542Z" fill="#59a780"/>
              </g>
            </g>
            <g id="Group_83" data-name="Group 83">
              <g id="Group_81" data-name="Group 81">
                <path id="Path_193" data-name="Path 193" d="M1451.6,7698.549s-8.721-.89-9.255-7.12S1451.774,7691.429,1451.6,7698.549Z" fill="#306f54"/>
                <path id="Path_194" data-name="Path 194" d="M1444.528,7691.484a42.558,42.558,0,0,1,7.068,7.065A11.993,11.993,0,0,0,1444.528,7691.484Z" fill="#59a780"/>
              </g>
              <g id="Group_82" data-name="Group 82">
                <path id="Path_195" data-name="Path 195" d="M1451.6,7698.549s7.854-.8,8.335-6.412S1451.436,7692.137,1451.6,7698.549Z" fill="#306f54"/>
                <path id="Path_196" data-name="Path 196" d="M1457.962,7692.186a38.317,38.317,0,0,0-6.366,6.363A10.8,10.8,0,0,1,1457.962,7692.186Z" fill="#59a780"/>
              </g>
            </g>
            <g id="Group_86" data-name="Group 86">
              <g id="Group_84" data-name="Group 84">
                <path id="Path_197" data-name="Path 197" d="M1441.917,7712.193s-8.721-.89-9.255-7.12S1442.095,7705.073,1441.917,7712.193Z" fill="#306f54"/>
                <path id="Path_198" data-name="Path 198" d="M1434.849,7705.129a42.531,42.531,0,0,1,7.068,7.064A11.992,11.992,0,0,0,1434.849,7705.129Z" fill="#59a780"/>
              </g>
              <g id="Group_85" data-name="Group 85">
                <path id="Path_199" data-name="Path 199" d="M1441.917,7712.193s7.854-.8,8.335-6.412S1441.756,7705.781,1441.917,7712.193Z" fill="#306f54"/>
                <path id="Path_200" data-name="Path 200" d="M1448.282,7705.831a38.3,38.3,0,0,0-6.365,6.362A10.8,10.8,0,0,1,1448.282,7705.831Z" fill="#59a780"/>
              </g>
            </g>
            <g id="Group_89" data-name="Group 89">
              <g id="Group_87" data-name="Group 87">
                <path id="Path_201" data-name="Path 201" d="M1432.237,7725.838s-8.721-.89-9.255-7.12S1432.415,7718.718,1432.237,7725.838Z" fill="#306f54"/>
                <path id="Path_202" data-name="Path 202" d="M1425.169,7718.773a42.521,42.521,0,0,1,7.068,7.065A11.993,11.993,0,0,0,1425.169,7718.773Z" fill="#59a780"/>
              </g>
              <g id="Group_88" data-name="Group 88">
                <path id="Path_203" data-name="Path 203" d="M1432.237,7725.838s7.855-.8,8.335-6.412S1432.077,7719.426,1432.237,7725.838Z" fill="#306f54"/>
                <path id="Path_204" data-name="Path 204" d="M1438.6,7719.476a38.287,38.287,0,0,0-6.366,6.362A10.8,10.8,0,0,1,1438.6,7719.476Z" fill="#59a780"/>
              </g>
            </g>
          </g>
          <g id="Group_103" data-name="Group 103">
            <g id="Group_93" data-name="Group 93">
              <g id="Group_91" data-name="Group 91">
                <path id="Path_205" data-name="Path 205" d="M1488.585,7684.9s-8.721-.89-9.255-7.12S1488.763,7677.784,1488.585,7684.9Z" fill="#306f54"/>
                <path id="Path_206" data-name="Path 206" d="M1481.517,7677.84a42.531,42.531,0,0,1,7.068,7.064A11.992,11.992,0,0,0,1481.517,7677.84Z" fill="#59a780"/>
              </g>
              <g id="Group_92" data-name="Group 92">
                <path id="Path_207" data-name="Path 207" d="M1488.585,7684.9s7.854-.8,8.335-6.412S1488.424,7678.492,1488.585,7684.9Z" fill="#306f54"/>
                <path id="Path_208" data-name="Path 208" d="M1494.95,7678.542a38.3,38.3,0,0,0-6.365,6.362A10.8,10.8,0,0,1,1494.95,7678.542Z" fill="#59a780"/>
              </g>
            </g>
            <g id="Group_96" data-name="Group 96">
              <g id="Group_94" data-name="Group 94">
                <path id="Path_209" data-name="Path 209" d="M1478.906,7698.549s-8.722-.89-9.256-7.12S1479.083,7691.429,1478.906,7698.549Z" fill="#306f54"/>
                <path id="Path_210" data-name="Path 210" d="M1471.837,7691.484a42.545,42.545,0,0,1,7.069,7.065A12,12,0,0,0,1471.837,7691.484Z" fill="#59a780"/>
              </g>
              <g id="Group_95" data-name="Group 95">
                <path id="Path_211" data-name="Path 211" d="M1478.905,7698.549s7.855-.8,8.336-6.412S1478.745,7692.137,1478.905,7698.549Z" fill="#306f54"/>
                <path id="Path_212" data-name="Path 212" d="M1485.271,7692.186a38.314,38.314,0,0,0-6.366,6.363A10.806,10.806,0,0,1,1485.271,7692.186Z" fill="#59a780"/>
              </g>
            </g>
            <g id="Group_99" data-name="Group 99">
              <g id="Group_97" data-name="Group 97">
                <path id="Path_213" data-name="Path 213" d="M1469.226,7712.193s-8.721-.89-9.255-7.12S1469.4,7705.073,1469.226,7712.193Z" fill="#306f54"/>
                <path id="Path_214" data-name="Path 214" d="M1462.158,7705.129a42.531,42.531,0,0,1,7.068,7.064A11.992,11.992,0,0,0,1462.158,7705.129Z" fill="#59a780"/>
              </g>
              <g id="Group_98" data-name="Group 98">
                <path id="Path_215" data-name="Path 215" d="M1469.226,7712.193s7.854-.8,8.335-6.412S1469.066,7705.781,1469.226,7712.193Z" fill="#306f54"/>
                <path id="Path_216" data-name="Path 216" d="M1475.591,7705.831a38.3,38.3,0,0,0-6.365,6.362A10.8,10.8,0,0,1,1475.591,7705.831Z" fill="#59a780"/>
              </g>
            </g>
            <g id="Group_102" data-name="Group 102">
              <g id="Group_100" data-name="Group 100">
                <path id="Path_217" data-name="Path 217" d="M1459.547,7725.838s-8.722-.89-9.256-7.12S1459.725,7718.718,1459.547,7725.838Z" fill="#306f54"/>
                <path id="Path_218" data-name="Path 218" d="M1452.479,7718.773a42.558,42.558,0,0,1,7.068,7.065A12,12,0,0,0,1452.479,7718.773Z" fill="#59a780"/>
              </g>
              <g id="Group_101" data-name="Group 101">
                <path id="Path_219" data-name="Path 219" d="M1459.546,7725.838s7.855-.8,8.336-6.412S1459.386,7719.426,1459.546,7725.838Z" fill="#306f54"/>
                <path id="Path_220" data-name="Path 220" d="M1465.912,7719.476a38.287,38.287,0,0,0-6.366,6.362A10.8,10.8,0,0,1,1465.912,7719.476Z" fill="#59a780"/>
              </g>
            </g>
          </g>
          <g id="Group_113" data-name="Group 113">
            <g id="Group_106" data-name="Group 106">
              <g id="Group_104" data-name="Group 104">
                <path id="Path_221" data-name="Path 221" d="M1506.215,7698.549s-8.722-.89-9.256-7.12S1506.393,7691.429,1506.215,7698.549Z" fill="#306f54"/>
                <path id="Path_222" data-name="Path 222" d="M1499.147,7691.484a42.558,42.558,0,0,1,7.068,7.065A12,12,0,0,0,1499.147,7691.484Z" fill="#59a780"/>
              </g>
              <g id="Group_105" data-name="Group 105">
                <path id="Path_223" data-name="Path 223" d="M1506.215,7698.549s7.854-.8,8.335-6.412S1506.054,7692.137,1506.215,7698.549Z" fill="#306f54"/>
                <path id="Path_224" data-name="Path 224" d="M1512.58,7692.186a38.287,38.287,0,0,0-6.365,6.363A10.8,10.8,0,0,1,1512.58,7692.186Z" fill="#59a780"/>
              </g>
            </g>
            <g id="Group_109" data-name="Group 109">
              <g id="Group_107" data-name="Group 107">
                <path id="Path_225" data-name="Path 225" d="M1496.535,7712.193s-8.721-.89-9.255-7.12S1496.713,7705.073,1496.535,7712.193Z" fill="#306f54"/>
                <path id="Path_226" data-name="Path 226" d="M1489.467,7705.129a42.536,42.536,0,0,1,7.068,7.064A11.993,11.993,0,0,0,1489.467,7705.129Z" fill="#59a780"/>
              </g>
              <g id="Group_108" data-name="Group 108">
                <path id="Path_227" data-name="Path 227" d="M1496.535,7712.193s7.854-.8,8.335-6.412S1496.375,7705.781,1496.535,7712.193Z" fill="#306f54"/>
                <path id="Path_228" data-name="Path 228" d="M1502.9,7705.831a38.3,38.3,0,0,0-6.365,6.362A10.8,10.8,0,0,1,1502.9,7705.831Z" fill="#59a780"/>
              </g>
            </g>
            <g id="Group_112" data-name="Group 112">
              <g id="Group_110" data-name="Group 110">
                <path id="Path_229" data-name="Path 229" d="M1486.856,7725.838s-8.722-.89-9.256-7.12S1487.034,7718.718,1486.856,7725.838Z" fill="#306f54"/>
                <path id="Path_230" data-name="Path 230" d="M1479.788,7718.773a42.558,42.558,0,0,1,7.068,7.065A12,12,0,0,0,1479.788,7718.773Z" fill="#59a780"/>
              </g>
              <g id="Group_111" data-name="Group 111">
                <path id="Path_231" data-name="Path 231" d="M1486.855,7725.838s7.855-.8,8.336-6.412S1486.695,7719.426,1486.855,7725.838Z" fill="#306f54"/>
                <path id="Path_232" data-name="Path 232" d="M1493.221,7719.476a38.287,38.287,0,0,0-6.366,6.362A10.8,10.8,0,0,1,1493.221,7719.476Z" fill="#59a780"/>
              </g>
            </g>
          </g>
        </g>
      </g>
      <g id="Group_120" data-name="Group 120">
        <path id="Path_233" data-name="Path 233" d="M1334.908,7525.745c-1.714-1.838-3.32-3.792-4.663-5.518h0c-3.916-9.087-10.111-30.41-10.111-30.41-.666-24.909-3.489-39.331-5.772-47.1a35.032,35.032,0,0,0-3.021-7.75c-.05-.085-.077-.128-.077-.128a1.11,1.11,0,0,0-.089.085,29.189,29.189,0,0,0-2.307,2.4c-15.663,18.21-2.284,47.376-1.873,54.04.427,6.978,14.349,28.976,14.349,28.976h0c.922,1.368,5.157,8.337,5.772,12.224.671,4.379,8.176,9.174,8.176,9.174s1.83.113,1.846-2.9C1337.2,7535.817,1339.547,7530.652,1334.908,7525.745Z" fill="#fa997b"/>
        <path id="Path_234" data-name="Path 234" d="M1314.363,7442.717s4.19,14.858,5.533,40.429c2.675,14.772,10.35,37.081,10.35,37.081l-7.941,3.3s-16.57-28.313-16.385-30.429-3.023-15.946-2.477-19.038,6.827-29.839,6.827-29.839S1313.671,7441.479,1314.363,7442.717Z" fill="#f47f26"/>
        <path id="Path_235" data-name="Path 235" d="M1465.36,7630.332l-35.134,7.394L1244.411,7433.5c-.907-1.271-4.542.279-1.618,3.461l183.6,201.571L1395.633,7645a2.423,2.423,0,0,0-1.842,2.049l-1.357,18.856a1.23,1.23,0,0,0,1.6,1.324,2.422,2.422,0,0,0,1.842-2.049l1.236-17.17,15.081-3.173-1.235,17.17a1.23,1.23,0,0,0,1.6,1.324,2.422,2.422,0,0,0,1.842-2.049l1.236-17.17,13.29-2.8.129.142.242-.22.394-.083-1.235,17.17a1.23,1.23,0,0,0,1.6,1.324,2.422,2.422,0,0,0,1.842-2.048l1.235-17.17,13.482-2.837-1.236,17.17a1.231,1.231,0,0,0,1.6,1.324,2.422,2.422,0,0,0,1.842-2.049l1.235-17.17,13.339-2.806-1.235,17.169a1.23,1.23,0,0,0,1.6,1.325,2.424,2.424,0,0,0,1.843-2.049l1.357-18.856A1.231,1.231,0,0,0,1465.36,7630.332Z" fill="#0d458d"/>
        <path id="Path_236" data-name="Path 236" d="M1303.6,7683.3l-5.761,2.146s-25.023-34.706-28.1-65.241a46.394,46.394,0,0,1,.823-15.611s-.244-1.4-.672-3.866c-.2-1.152-.443-2.54-.72-4.13-.814-4.661-1.933-11.039-3.213-18.3-2.944-16.711-6.758-38.074-9.722-53.78l1.552-.5,16.8-5.419,3.471-11.024,12.506-3.293s2.794,5.465,5.292,31.283c.461,3.386.879,7.121,1.2,11.171a221.2,221.2,0,0,1-1.19,45.224q-.861,6.73-2.2,13.88a61.978,61.978,0,0,0-.48,13.706C1294.434,7644.507,1303.6,7683.3,1303.6,7683.3Z" fill="#2c3480"/>
        <path id="Path_237" data-name="Path 237" d="M1297.04,7546.736l-27.158,53.991c-.2-1.152-.443-2.54-.72-4.13-.814-4.661-1.933-11.039-3.213-18.3-2.944-16.711-6.758-38.074-9.722-53.78l1.552-.5,16.8-5.419,3.471-11.024,14.939-4.443s.361,6.615,2.859,32.433C1296.306,7538.951,1296.724,7542.686,1297.04,7546.736Z" fill="#232c66"/>
        <path id="Path_238" data-name="Path 238" d="M1289.567,7506.63c.828-.992-5.1-.811-5.1-.811-10.532,2.8-38.675-7.817-38.675-7.817s-10.2,8.969-8.864,30.47c.654,10.493,1.848,55.087,3.1,68.282.451,4.782.845,8.186,1.007,9.546a.025.025,0,0,1,0,.013,1.879,1.879,0,0,1-.306,1.168,62.077,62.077,0,0,0-4.6,9.684c-12.244,32.629,1.886,72.811,1.886,72.811l3.667-1.477s8.042-44.719,14.575-64.475a39.121,39.121,0,0,1,3.147-7.557c2.84-4.585,5.477-12.076,7.87-20.987,4.522-16.846,8.163-38.76,10.585-55.675C1278.183,7539.82,1280.839,7517.088,1289.567,7506.63Z" fill="#2c3480"/>
        <path id="Path_239" data-name="Path 239" d="M1305.214,7445.818a32.792,32.792,0,0,1-12.13,2.84c-18.109.993-22.219-14.881-22.967-25.417a15.176,15.176,0,0,1,6.213-.786c1.284.071,2.625.2,3.73.339,2.215-1.157,6.468-7.141,8.768-16.543l.78.363,12.794,6.505s-1.388,4.252-2.413,8.32c-.8,3.184-1.374,6.261-.894,7.121,1.03.419,1.646.682,1.646.682a.032.032,0,0,0,.005.014A89.791,89.791,0,0,1,1305.214,7445.818Z" fill="#fa997b"/>
        <path id="Path_240" data-name="Path 240" d="M1302.076,7414.528s-1.389,4.247-2.413,8.32c-7.637-2.131-9.22-10.159-9.918-14.463Z" fill="#ef5d23"/>
        <path id="Path_241" data-name="Path 241" d="M1259.324,7692.972h-29.017s-.695-4.422.821-7.777c1.451-3.22,3.726-4.683,3.182-8.578a10.45,10.45,0,0,0,9.044,3.46c.513.833,3.317,5.293,5.034,6.526C1250.284,7687.966,1258.74,7687.48,1259.324,7692.972Z" fill="#0c3563"/>
        <path id="Path_242" data-name="Path 242" d="M1321.626,7692.972h-29.017s-1.085-4.628.821-7.777c1.686-2.787,1.039-4.374-.21-6.679a11.3,11.3,0,0,0,4.888.92,10.22,10.22,0,0,0,4.315-1.518c1.249,1.424,6.6,7.485,8.267,8.685C1312.587,7687.966,1321.042,7687.48,1321.626,7692.972Z" fill="#0c3563"/>
        <path id="Path_243" data-name="Path 243" d="M1314.363,7442.717a38.609,38.609,0,0,0-2.829-7.413c-.024-.076-.71-2.131-6.888-4.388-.981-.356-2-.906-3.177-1.389-.238-.091-.479-.189-.726-.287l0,.017c.124.449,3.421,12.4,2.219,14.94-.863,1.825-12.582-1.779-19.89-4.741-1.3-.527-2.47-1.036-3.406-1.489a7.571,7.571,0,0,1-2.339-1.453c-.714-1.079-.939-5.423-1-9-.025-1.5-.022-2.865-.012-3.8,0-.4,0-.724.006-.942s0-.326,0-.326l-.221-.029-.036,0c-.469-.056-1.558-.174-2.959-.248-2.959-.157-7.318-.121-10.281,1.075a37.317,37.317,0,0,1,2.624,8.766c.065.436.123.869.166,1.309a17.848,17.848,0,0,1,.071,2.758,5.276,5.276,0,0,1-1.671,3.287,25.621,25.621,0,0,1-3.477,2.888c-.9.647-1.867,1.329-2.861,2.068-.029,1.773-.01,3.914,0,6.328a161.633,161.633,0,0,1-.707,17.479,16.09,16.09,0,0,1-2.314,6.752,16.508,16.508,0,0,1-1.714,2.307c-1,1.124-2.15,2.464-3.346,3.946-4.882,6.087-10.415,14.579-8.815,20.288.147,6.7,52.665,7.224,51.456-.133,0,0,12.464-32.638,17.052-42.515.163-.365.313-.717.45-1.079,1.781-4.721,1.107-9.491.524-13.478A10.038,10.038,0,0,1,1314.363,7442.717Z" fill="#f47f26"/>
        <path id="Path_244" data-name="Path 244" d="M1269.837,7483.649c-7.576-.535-14.787-1.206-20.234-2.512,1.194-1.485,2.346-2.823,3.346-3.947a16.546,16.546,0,0,0,1.714-2.306,16.109,16.109,0,0,0,2.314-6.754,161.078,161.078,0,0,0,.706-17.477c6.606-7.4,12.154-13.41,12.154-13.41s12.313,11.286,14.22,22.529S1289.566,7485.045,1269.837,7483.649Z" fill="#f47f26"/>
        <path id="Path_245" data-name="Path 245" d="M1283.619,7448.655h-3.708a37.461,37.461,0,0,0-.242-10.688,38.493,38.493,0,0,0-3.337-10.45,31.692,31.692,0,0,0-3.219-5.344c1.4.074,2.49.192,2.959.248l.036,0c.075.12.146.238.218.355a51.374,51.374,0,0,1,6.749,16.677A28.021,28.021,0,0,1,1283.619,7448.655Z" fill="#2c3480"/>
        <path id="Path_246" data-name="Path 246" d="M1305.126,7457.082l-3.6-.888a37.517,37.517,0,0,0-.062-26.665c1.178.481,2.236.946,3.179,1.388C1309.635,7447.2,1305.126,7457.082,1305.126,7457.082Z" fill="#2c3480"/>
        <path id="Path_247" data-name="Path 247" d="M1277.608,7457.082c.076-1,.779-10.682.779-10.682s.4-2.973,5.43-1.68,22.873,5.939,22.873,5.939a5.732,5.732,0,0,1,1.028,5.174c-.9,2.973-3.9,20.672-3.9,20.672l-10.836,26.627-7.894,8.079-48.142,9.37s-1.018-19.97,7.257-31.79c4.827-6.894,10.453-13.906,10.453-13.906S1276.445,7472.287,1277.608,7457.082Z" fill="#2c3480"/>
        <path id="Path_248" data-name="Path 248" d="M1317.5,7511.137a33.942,33.942,0,0,1-13.212-3.628c-1.7-1.37-3.751-3.025-5.905-4.833a194.95,194.95,0,0,1-15.084-13.623c-2.276-2.36-3.948-4.39-4.417-5.715a60.108,60.108,0,0,1-2.093-9.018c-.345-2.012-.7-4.2-1.037-6.523-.636-3.836-1.217-7.973-1.843-12.117-1.115-7.557-2.4-15.187-3.841-21.163a39.675,39.675,0,0,0-3.126-8.938c-.9-1.625-1.886-2.556-2.99-2.578-.18.012-.316.031-.452.051,0,0-6.489.6-8.822,13.027a19.161,19.161,0,0,0-.352,2.2,46.939,46.939,0,0,0-.245,7.975,119.189,119.189,0,0,0,1.946,17.187c.322,1.653.636,3.349.993,5.052,2.556,12.336,6.582,24.139,10.943,28.692a5.43,5.43,0,0,0,.523.538,45.855,45.855,0,0,0,8.048,5.485c4.752,2.631,10.48,5.26,15.61,7.517l.043.007c3.008,1.253,5.767,2.416,8.084,3.322,0,0,.492.221,1.362.556.733.326,1.746.668,2.9,1.1l.528.2a22.294,22.294,0,0,1,6.942,3.941c5.681,5.033,12.892,2.112,12.892,2.112S1322.566,7511.465,1317.5,7511.137Z" fill="#fa997b"/>
        <path id="Path_249" data-name="Path 249" d="M1270.805,7434.6c-8.258-3.883-16.136,1.466-16.136,1.466,2.391-12.612,9.2-13.168,9.2-13.168C1266.67,7422.318,1268.907,7427.246,1270.805,7434.6Z" fill="#f47f26"/>
        <g id="Group_117" data-name="Group 117">
          <g id="Group_116" data-name="Group 116">
            <path id="Path_250" data-name="Path 250" d="M1280.189,7447.3a1.551,1.551,0,1,1,1.55,1.551A1.551,1.551,0,0,1,1280.189,7447.3Z" fill="#ff7e1c"/>
            <path id="Path_251" data-name="Path 251" d="M1280.467,7447.3a1.551,1.551,0,1,1,1.551,1.551A1.551,1.551,0,0,1,1280.467,7447.3Z" fill="#ff973d"/>
          </g>
          <path id="Path_252" data-name="Path 252" d="M1281.1,7447.012a.225.225,0,1,1,.146.283A.225.225,0,0,1,1281.1,7447.012Z" fill="#0d458d"/>
          <path id="Path_253" data-name="Path 253" d="M1282.5,7447.46a.226.226,0,1,1,.146.283A.227.227,0,0,1,1282.5,7447.46Z" fill="#0d458d"/>
        </g>
        <g id="Group_119" data-name="Group 119">
          <g id="Group_118" data-name="Group 118">
            <path id="Path_254" data-name="Path 254" d="M1302.54,7452.335a1.551,1.551,0,1,1,1.551,1.551A1.551,1.551,0,0,1,1302.54,7452.335Z" fill="#ff7e1c"/>
            <path id="Path_255" data-name="Path 255" d="M1302.819,7452.335a1.551,1.551,0,1,1,1.551,1.551A1.55,1.55,0,0,1,1302.819,7452.335Z" fill="#ff973d"/>
          </g>
          <path id="Path_256" data-name="Path 256" d="M1303.454,7452.043a.226.226,0,1,1,.147.283A.225.225,0,0,1,1303.454,7452.043Z" fill="#0d458d"/>
          <path id="Path_257" data-name="Path 257" d="M1304.856,7452.491a.226.226,0,1,1,.147.283A.225.225,0,0,1,1304.856,7452.491Z" fill="#0d458d"/>
        </g>
        <path id="Path_258" data-name="Path 258" d="M1316.951,7369.016c-14.785-14.369-31.784-2.752-34.507.016-8.6,8.743-6.232,28.377,5.7,34.2C1295.9,7407.019,1346.4,7397.636,1316.951,7369.016Z" fill="#404041"/>
        <circle id="Ellipse_1" data-name="Ellipse 1" cx="8.012" cy="8.012" r="8.012" transform="translate(1274.006 7394.725)" fill="#404041"/>
        <path id="Path_259" data-name="Path 259" d="M1308.371,7420.279s-23-5.586-19.7-20.584,1.246-25.073,16.81-22.563,17.293,8.89,17.409,14.164S1314.741,7421.174,1308.371,7420.279Z" fill="#fa997b"/>
        <path id="Path_260" data-name="Path 260" d="M1313.753,7380.25c4.963,1.22,6.387,4.719,7.4,8.949.958,3.986-.082,8.706-.667,12.458,0,0,7.609-10.859,3.524-18.856C1319.683,7374.321,1311.379,7379.667,1313.753,7380.25Z" fill="#404041"/>
      </g>
      <path id="Path_261" data-name="Path 261" d="M1287.211,7402.737s9.716-24.617,27.262-22.412c5.423-1.7-7.188-5.768-7.188-5.768l-19.122,5.207S1279.094,7399.532,1287.211,7402.737Z" fill="#404041"/>
      <path id="Path_262" data-name="Path 262" d="M1305.92,7517.179l1.075-9.729s-23.726-21.513-25.678-22.327-11.2-53.21-11.2-53.21h-9.73c-1.308,0-5.718,4.148-5.718,4.148s-4.214,27.752,9.617,55.492C1273.113,7510.019,1305.92,7517.179,1305.92,7517.179Z" fill="#f47f26"/>
      <path id="Path_263" data-name="Path 263" d="M1271.338,7438.716l4.576,24.241s2.692-2.882,2.529-14.3C1278.443,7442.49,1271.338,7438.716,1271.338,7438.716Z" fill="#cc6728"/>
    </g>
    <path id="Path_264" data-name="Path 264" d="M1571.248,7356.171a11.255,11.255,0,0,0-2.722-.1c0-.011,0-.021,0-.032a2.71,2.71,0,0,0-2.71-2.71c-.032,0-.061.008-.092.009a5.932,5.932,0,0,0,.092-1,5.848,5.848,0,0,0-5.159-5.8,10.922,10.922,0,0,0-19.41-9.013,7.718,7.718,0,0,0-6.095-.333c.021-.305.046-.609.046-.919a12.911,12.911,0,1,0-25.822,0c0,.368.025.729.055,1.089a2.665,2.665,0,0,0-.718-.108,2.708,2.708,0,0,0-2.508,1.687,7.8,7.8,0,0,0-9.382,9.99,2.647,2.647,0,0,0-2.911,1.539,5.555,5.555,0,0,0-9.439,3.972v.007a2.663,2.663,0,0,0-3.635,1.043c-.276-.086-6.269-1.89-11.193.79a9.706,9.706,0,0,0-4.738,5.7h111.235A5.437,5.437,0,0,0,1571.248,7356.171Z" transform="translate(-1044.198 -7323.35)" fill="none" stroke="#58595b" stroke-miterlimit="10" stroke-width="2.766" fill-rule="evenodd"/>
    <path id="Path_265" data-name="Path 265" d="M1601.336,7424.149H1748.87a12.869,12.869,0,0,0-6.283-7.565c-6.532-3.555-14.481-1.162-14.847-1.048a3.534,3.534,0,0,0-4.821-1.383v-.01a7.366,7.366,0,0,0-12.519-5.267,3.588,3.588,0,0,0-3.261-2.1,3.467,3.467,0,0,0-.6.061,10.333,10.333,0,0,0-12.445-13.25,3.591,3.591,0,0,0-3.325-2.239,3.552,3.552,0,0,0-.953.144c.04-.477.073-.957.073-1.445a17.125,17.125,0,0,0-34.249,0c0,.412.033.815.062,1.22a10.236,10.236,0,0,0-8.084.441,14.48,14.48,0,0,0-25.745,11.955,7.71,7.71,0,0,0-6.72,9.028c-.042,0-.08-.013-.122-.013a3.6,3.6,0,0,0-3.595,3.6c0,.014.005.028.005.042a14.949,14.949,0,0,0-3.611.139A7.212,7.212,0,0,0,1601.336,7424.149Z" transform="translate(-1044.198 -7323.35)" fill="none" stroke="#58595b" stroke-miterlimit="10" stroke-width="2.766" fill-rule="evenodd"/>
    <path id="Path_266" data-name="Path 266" d="M1730.576,7741.394H1044.2v-12.549h686.379v12.548Z" transform="translate(-1044.198 -7323.35)" fill="#404041"/>
    <path id="Path_267" data-name="Path 267" d="M1292.045,7399.793c-5.729,2.825-8.119-7.587-4.09-9.151,3.054-1.187,4.278,1.77,4.793,3.1C1293.3,7395.163,1294.525,7398.57,1292.045,7399.793Z" transform="translate(-1044.198 -7323.35)" fill="#fa997b"/>
    <path id="Path_268" data-name="Path 268" d="M1288.983,7395.352c.274.679.813,1.1,1.206.946s.491-.836.218-1.518-.815-1.1-1.207-.945S1288.709,7394.672,1288.983,7395.352Z" transform="translate(-1044.198 -7323.35)" fill="#ef5d23"/>
  </g>
</svg>
