<svg xmlns="http://www.w3.org/2000/svg" xmlns:xlink="http://www.w3.org/1999/xlink" width="744.38" height="454.925" viewBox="0 0 744.38 454.925">
  <defs>
    <linearGradient id="linear-gradient" y1="0.5" x2="1" y2="0.5" gradientUnits="objectBoundingBox">
      <stop offset="0" stop-color="#2c9c48"/>
      <stop offset="1" stop-color="#34b34d"/>
    </linearGradient>
  </defs>
  <g id="Component_9_1" data-name="Component 9 – 1" transform="translate(0 1.421)">
    <g id="Group_297" data-name="Group 297" transform="translate(-1078.184 -2700.35)">
      <g id="Group_296" data-name="Group 296">
        <path id="Path_746" data-name="Path 746" d="M1644.143,3152.43s97.982-24.509,85.773-164.032-159.27-80.21-246.331-164.686-85.851-160.864-217.465-103.349-14.223,203.55-27.37,235.679-83.583,72.337-79.827,114.691,33.809,77.131,53.531,81.76l431.689-.063Z" fill="#e8c8c5"/>
        <path id="Path_747" data-name="Path 747" d="M1655.143,3152.43h0s97.982-24.509,85.773-164.032-196.768-50.647-257.558-154.054c-56.387-95.918-74.624-171.5-206.238-113.981s-27.37,165.092-27.37,235.679c0,34.5-90.972,44.694-90.972,92.428,0,61.693,36.829,80.606,64.676,104.023" fill="none" stroke="#b06bc1" stroke-miterlimit="10" stroke-width="2.935" style="mix-blend-mode: multiply;isolation: isolate"/>
      </g>
      <path id="Path_748" data-name="Path 748" d="M1822.563,3152.493H1078.185V3139.47h744.38v13.022Z" fill="#262261"/>
      <path id="Path_749" data-name="Path 749" d="M1155.822,3139.47H1107c-2.616-2.124,1.811-6.947,6.436-7.271a29.755,29.755,0,0,1,7.452.844c.672-8.539,4.509-46.928,18.969-45.385,16.259,1.727,0,16.905-4.6,25.892a208.554,208.554,0,0,0-8.637,20.7c1.32.274,2.687.543,4.082.788,2.156-6.331,10.174-27.629,20.371-26.389,11.972,1.453,7.16,9.992-1.326,15.062-6.225,3.727-13.87,9.025-17.5,11.585a54.286,54.286,0,0,0,9.549.732C1150.157,3135.843,1154.239,3138.2,1155.822,3139.47Z" fill="url(#linear-gradient)"/>
      <path id="Path_750" data-name="Path 750" d="M1535.518,2852.232c-.37.69-.334,1.417.083,1.622s1.056-.188,1.429-.88.33-1.417-.086-1.622S1535.888,2851.54,1535.518,2852.232Z" fill="#ef5d23"/>
    </g>
    <g id="Group_308" data-name="Group 308" transform="translate(-1078.184 -2700.35)">
      <g id="Group_299" data-name="Group 299">
        <rect id="Rectangle_388" data-name="Rectangle 388" width="206.312" height="391.469" rx="10.557" transform="translate(1361.486 2747.97)" fill="#9cb9f5"/>
        <path id="Rectangle_389" data-name="Rectangle 389" d="M10.557,0h185.2a10.558,10.558,0,0,1,10.558,10.558V380.912a10.558,10.558,0,0,1-10.558,10.558H10.558A10.558,10.558,0,0,1,0,380.912V10.557A10.557,10.557,0,0,1,10.557,0Z" transform="translate(1341.487 2747.97)" fill="#3662c1"/>
        <rect id="Rectangle_390" data-name="Rectangle 390" width="191.12" height="317.213" transform="translate(1349.301 2779.269)" fill="#dfe9fd"/>
        <g id="Group_298" data-name="Group 298">
          <path id="Path_751" data-name="Path 751" d="M1468.039,2762.788h-53.631a2.086,2.086,0,0,0,0,4.173h53.631a2.086,2.086,0,1,0,0-4.173Z" fill="#9cb9f5"/>
          <path id="Path_752" data-name="Path 752" d="M1477.565,2762.788h0a2.086,2.086,0,1,0,0,4.173h0a2.086,2.086,0,0,0,0-4.173Z" fill="#9cb9f5"/>
        </g>
        <path id="Path_753" data-name="Path 753" d="M1440.4,3109.9a10.685,10.685,0,1,0,10.685,10.685A10.685,10.685,0,0,0,1440.4,3109.9Z" fill="#9cb9f5"/>
      </g>
      <rect id="Rectangle_391" data-name="Rectangle 391" width="191.877" height="115.198" transform="translate(1348.544 2984.759)" fill="#fff"/>
      <g id="Group_301" data-name="Group 301">
        <g id="Group_300" data-name="Group 300">
          <path id="Path_754" data-name="Path 754" d="M1437.877,3079.314a38.183,38.183,0,1,1,38.183-38.183A38.227,38.227,0,0,1,1437.877,3079.314Zm0-71.38a33.2,33.2,0,1,0,33.2,33.2A33.235,33.235,0,0,0,1437.877,3007.934Z" fill="#3c4bcd"/>
        </g>
        <path id="Path_755" data-name="Path 755" d="M1412.121,3035.458s16.732,19.377,26.678,28.207c0,0,19.242-39.578,42.334-67.262,0,0-26.731,19.812-49.161,44.84C1431.972,3041.243,1425.734,3040.352,1412.121,3035.458Z" fill="#fc9c9a"/>
      </g>
      <g id="Group_306" data-name="Group 306">
        <path id="Path_756" data-name="Path 756" d="M1411.053,2837.635h89.7l11.48,85.917h-74.7Z" fill="#af6c4e"/>
        <g id="Group_305" data-name="Group 305">
          <g id="Group_302" data-name="Group 302">
            <path id="Path_757" data-name="Path 757" d="M1469.586,2847.038h-.021a1.334,1.334,0,0,1-1.314-1.355c.289-18.848-2.653-31.4-8.745-37.308a14.7,14.7,0,0,0-11.519-4.065c-17.831.823-19.188,41.025-19.2,41.431a1.336,1.336,0,1,1-2.67-.076c.05-1.758,1.456-43.086,21.747-44.023a17.45,17.45,0,0,1,13.5,4.815c6.736,6.532,9.862,19.376,9.555,39.267A1.334,1.334,0,0,1,1469.586,2847.038Z" fill="#af6c4e"/>
          </g>
          <path id="Path_758" data-name="Path 758" d="M1481.971,2837.635h-83.1l-17.538,85.917h91.321Z" fill="#edb096"/>
          <g id="Group_303" data-name="Group 303">
            <path id="Path_759" data-name="Path 759" d="M1435.625,2868.73a14.055,14.055,0,0,1-4.621,6.637,11.255,11.255,0,0,1-7.264,2.74q-3.855,0-5.485-2.74a7.806,7.806,0,0,1-.364-6.637,14.462,14.462,0,0,1,4.7-6.807,11.374,11.374,0,0,1,7.369-2.8q3.965,0,5.523,2.881Q1436.928,2864.719,1435.625,2868.73Zm-10.376,4.731a5.145,5.145,0,0,0,3.536-1.465,7.717,7.717,0,0,0,2.043-3.323,4.934,4.934,0,0,0,.116-3.323,2.361,2.361,0,0,0-2.49-1.578,4.978,4.978,0,0,0-3.554,1.521,7.846,7.846,0,0,0-2.062,3.38,4.72,4.72,0,0,0,0,3.323A2.347,2.347,0,0,0,1425.249,2873.461Zm26.621-12.524a8.04,8.04,0,0,1-1.421,2.266l-15.761,19.31q-1.275,1.641-3.939,4.922-3.258,3.973-9.737,11.978-1.888,2.32-3.815,2.322a1.813,1.813,0,0,1-1.584-.708,1.908,1.908,0,0,1-.157-1.785,9.972,9.972,0,0,1,1.7-2.607l28.882-35.526q1.981-2.436,3.738-2.436Q1452.605,2858.673,1451.87,2860.937Zm-2.649,31a14,14,0,0,1-4.665,6.686,11.4,11.4,0,0,1-7.287,2.719,5.763,5.763,0,0,1-5.415-2.776,7.865,7.865,0,0,1-.368-6.629,14.646,14.646,0,0,1,4.664-6.856,11.25,11.25,0,0,1,7.362-2.777q4.08,0,5.566,2.748T1449.221,2891.933Zm-4.817-.17a5,5,0,0,0,.123-3.343,2.546,2.546,0,0,0-2.581-1.474,4.9,4.9,0,0,0-3.519,1.587,8,8,0,0,0-2.049,3.343,4.536,4.536,0,0,0-.03,3.23,2.408,2.408,0,0,0,2.45,1.529,5.109,5.109,0,0,0,3.557-1.529A7.8,7.8,0,0,0,1444.4,2891.763Z" fill="#fff"/>
          </g>
          <g id="Group_304" data-name="Group 304">
            <path id="Path_760" data-name="Path 760" d="M1460.94,2847.038h-.021a1.335,1.335,0,0,1-1.315-1.355c.29-18.848-2.652-31.4-8.744-37.308a14.7,14.7,0,0,0-11.519-4.065c-17.831.823-19.189,41.025-19.2,41.431a1.336,1.336,0,1,1-2.67-.076c.05-1.758,1.455-43.086,21.746-44.023a17.453,17.453,0,0,1,13.5,4.815c6.736,6.532,9.861,19.376,9.555,39.267A1.335,1.335,0,0,1,1460.94,2847.038Z" fill="#af6c4e"/>
          </g>
        </g>
        <path id="Path_761" data-name="Path 761" d="M1491.578,2840.9l-7.446,82.62h20.655Z" fill="#a85f3f"/>
      </g>
      <g id="Group_307" data-name="Group 307">
        <path id="Path_762" data-name="Path 762" d="M1378.036,2948.345l53.662-.117a2.055,2.055,0,1,0-.009-4.109l-53.662.117a2.06,2.06,0,0,0-2.05,2.059h0A2.061,2.061,0,0,0,1378.036,2948.345Z" fill="#fff"/>
        <path id="Path_763" data-name="Path 763" d="M1370.543,2948.361h.147a2.055,2.055,0,0,0-.009-4.109h-.147a2.055,2.055,0,0,0,.009,4.109Z" fill="#fff"/>
        <path id="Path_764" data-name="Path 764" d="M1378.053,2955.6l53.661-.116a2.054,2.054,0,1,0-.009-4.109l-53.662.116a2.062,2.062,0,0,0-2.05,2.059h0A2.06,2.06,0,0,0,1378.053,2955.6Z" fill="#fff"/>
        <path id="Path_765" data-name="Path 765" d="M1370.559,2955.613h.147a2.055,2.055,0,0,0-.009-4.11h-.147a2.055,2.055,0,0,0,.009,4.109Z" fill="#fff"/>
        <path id="Path_766" data-name="Path 766" d="M1431.721,2958.622l-53.662.117a2.054,2.054,0,1,0,.009,4.109l53.662-.117a2.054,2.054,0,1,0-.009-4.109Z" fill="#fff"/>
        <path id="Path_767" data-name="Path 767" d="M1370.713,2958.755h-.147a2.062,2.062,0,0,0-2.051,2.06h0a2.063,2.063,0,0,0,2.06,2.05h.146a2.055,2.055,0,1,0-.008-4.109Z" fill="#fff"/>
      </g>
    </g>
    <g id="Group_311" data-name="Group 311" transform="translate(-1078.184 -2700.35)">
      <path id="Path_768" data-name="Path 768" d="M1216.492,2955.656l-2.094,3.393c-1.088,1.249-1.379,1.948-2.24,2.372a10.666,10.666,0,0,0-6.211,9.167s.065,3.123,2.159,2.111,1.179-.918,4.155-2.281,4.079-5.7,4.339-7.179l2.428-3.186Z" fill="#fa997b"/>
      <g id="Group_310" data-name="Group 310">
        <path id="Path_769" data-name="Path 769" d="M1349.094,2905.96s2.221-5.441,4.663-5.663,10.216-1.444,10.771-.333,0,5.107-1.666,6.551-11.991,3.775-11.991,3.775Z" fill="#fa997b"/>
        <path id="Path_770" data-name="Path 770" d="M1311.6,3136.108c-.274.85-1.852,2.562-5.987,3.364H1294.8a13.4,13.4,0,0,0-4.183-.4l-.223.016c-.095.007-.193.015-.291.026-.371.033-.788.084-1.249.142-.614.084-1.224.157-1.816.218-.268.028-.533.053-.793.075h-4.465c-.162-.022-.319-.047-.472-.075a6.275,6.275,0,0,1-1.38-.405.056.056,0,0,1-.017,0,2.866,2.866,0,0,1-1.867-2.481,13.67,13.67,0,0,1,.3-3.63c.025-.142.056-.285.087-.427.433-2.032,1.554-2.7,1.76-5.043.38-4.39-3.252-19.625-3.252-19.625h13.841s-.374,13.791,1.21,18.437c1.492,4.384,6.01,5.733,10.57,6.8q.766.177,1.534.349c.187.04.371.085.555.124C1308.48,3134.421,1311.9,3135.159,1311.6,3136.108Z" fill="#ffa683"/>
        <g id="Group_309" data-name="Group 309">
          <path id="Path_771" data-name="Path 771" d="M1261.938,2987.518c1.169,6.558,2.835,13.335,4.283,20.384,2.325,11.333,4.081,23.374,2.284,36.338a45.227,45.227,0,0,0-.382,5.49c-.349,22.914,9.89,64.44,9.89,64.44a18.068,18.068,0,0,0,7.441.969,23.649,23.649,0,0,0,6.081-1.666s.97-25.746,1.028-60.371c.042-25.1,4.97-58.144,5.965-77.563.6-11.752-.7-27.407-.7-27.407s-20.409-16.412-27.74-8.015C1262.841,2948.414,1257.567,2962.984,1261.938,2987.518Z" fill="#312e99"/>
        </g>
        <path id="Path_772" data-name="Path 772" d="M1268.505,3044.24a45.227,45.227,0,0,0-.382,5.49c15.284-22.145,18.665-70.435,18.665-70.435L1270,2987.443s-1.841,9.056-3.779,20.459C1268.546,3019.235,1270.3,3031.276,1268.505,3044.24Z" opacity="0.5"/>
        <path id="Path_773" data-name="Path 773" d="M1267.445,3136.284c-.254.791-1.64,2.333-5.174,3.188h-12.528a10.894,10.894,0,0,0-3.28-.226c-.073.006-.148.008-.224.017-.095.005-.193.014-.29.022-.372.034-.788.084-1.249.145-.109.014-8.726-.1-8.927-.187a.029.029,0,0,1-.017-.006,2.86,2.86,0,0,1-1.866-2.48,13.624,13.624,0,0,1,.3-3.63c.026-.142.053-.285.087-.427.43-2.032,1.621-3.322,1.83-5.666.38-4.39-.416-19.863-.416-19.863l12.824,1.07s-2.266,13.579-.682,18.228c1.495,4.381,6.013,5.734,10.573,6.8.511.114,1.022.234,1.531.346l.559.126C1264.322,3134.594,1267.744,3135.332,1267.445,3136.284Z" fill="#ffa683"/>
        <path id="Path_774" data-name="Path 774" d="M1235.7,3115.342a31.159,31.159,0,0,0,5.67,2.035c2.373.474,7.3-.452,7.3-.452a334.464,334.464,0,0,1,6.971-43.157c4.573-20.03,11.376-43.7,20.863-66.115,2.025-4.787,10.38-27.447,11.8-33.165,4.288-17.277-.017-15.416-.017-15.416l-37.474-4.4s-4.617,2.372-6.743,26.77c-.636,7.306-.714,38.855-1.673,44.835a66.871,66.871,0,0,1-3.218,13.433C1232.216,3056.8,1235.7,3115.342,1235.7,3115.342Z" fill="#312e99"/>
        <path id="Path_775" data-name="Path 775" d="M1267.445,3136.324c-.254.8-1.64,2.36-5.174,3.223h-12.528a10.908,10.908,0,0,0-3.28-.228c-.073,0-.148.008-.224.016-.095.006-.193.017-.29.025-.38.028-.8.07-1.258.123-.187.023-.374.045-.561.064h-7.561a6.38,6.38,0,0,1-.8-.231.029.029,0,0,1-.017-.006,2.889,2.889,0,0,1-1.866-2.509,13.907,13.907,0,0,1,.3-3.668c.026-.146.053-.288.087-.433,3.775.53,9.148,2.662,14.411,3.174a22.894,22.894,0,0,0,11.808-2.118C1264.322,3134.617,1267.744,3135.362,1267.445,3136.324Z" fill="#9e332e"/>
        <path id="Path_776" data-name="Path 776" d="M1311.6,3136.152c-.274.86-1.852,2.593-5.987,3.4H1294.8a13.222,13.222,0,0,0-4.183-.407l-.223.017c-.095.005-.193.014-.291.025-.38.028-.793.068-1.257.125-.8.1-1.584.178-2.347.24a23.844,23.844,0,0,1-4.758,0,8.543,8.543,0,0,1-1.813-.41.039.039,0,0,1-.017-.006,2.9,2.9,0,0,1-1.867-2.511,13.984,13.984,0,0,1,.3-3.673c.025-.145.056-.289.087-.433,3.775.531,9.147,2.666,14.411,3.175a22.82,22.82,0,0,0,11.807-2.118C1308.48,3134.444,1311.9,3135.19,1311.6,3136.152Z" fill="#9e332e"/>
        <path id="Path_777" data-name="Path 777" d="M1293.037,2842.466c1.265-10.337-1.086-22.5-21.718-19.859s-26.278,20.063-22.117,29.078-9.412,8.236-15.53,17.322c-4.9,7.272-1.882,18.678-8.956,21.07-9.215,3.115-12.344,21.007-.455,22.667,11.411,1.594,27.558,17.309,36.5,14.739,30.74-8.838,34.7-10.157,33.608-34.31-.559-12.375-10.187-17.17-4.074-20.751C1305.062,2863.773,1290.173,2865.857,1293.037,2842.466Z" fill="#404041"/>
        <path id="Path_778" data-name="Path 778" d="M1262.71,2869.523l5.685,14.688,12.267.6,6.119-9.14c-3.862-2.937-5.494-7.343-6.092-11.287a32.177,32.177,0,0,1-.218-7.561c.082-.789.164-1.252.164-1.252l-15.287-4.65-.341-.153c-.19,4.052-.121,7.36-.365,9.835C1263.771,2869.333,1262.71,2869.523,1262.71,2869.523Z" fill="#fa997b"/>
        <path id="Path_779" data-name="Path 779" d="M1286.834,2869.007c-.789,0-14.187-2.727-36.814,3.062,0,0,12.392,56.775,8.182,67.476a113.058,113.058,0,0,0-5.81,20.2l45.669.567s-.638-36.73,1.466-49.73S1286.834,2869.007,1286.834,2869.007Z" fill="#fa997b"/>
        <path id="Path_780" data-name="Path 780" d="M1349.279,2903.23s-26.023,9.781-28.609,9.967c-5.633.4-11.367-26.79-16.632-35.851-3.565-6.137-15.581-8.093-17.093-8.316-.037-.008-.073-.016-.111-.023v.007l-.046-.007.034.14c-.117,1.244-1.166,10.544-6.339,11.4-9.584,1.582-17.309-7.2-19.565-10.733h0s-10.862.429-15.9,5.117c-5.7,5.3-14.174,37.709-16.461,53.492,0,0-11.5,21.909-15.157,30.6a6.958,6.958,0,0,0,2.057,2.083,9.953,9.953,0,0,0,3.006,1.213s20.739-23.147,22.1-26.807c.647-1.739,5.588-9.764,10.447-20.983a43.738,43.738,0,0,1,2.154,17.809c-.667,7.515-7.689,24.688-6.17,28.347,1.592,3.841,3.8,5.787,8.642,6.9,3.335.769,7.917,1.139,14.4,1.462,13.759.683,28.5-1.046,30.508-7.586.962-3.139.592-15.286.082-20.894-.669-7.371-.022-16.778.622-25.423.032.048.062.1.094.144,1.5,2.281,3.206,4.731,4.958,7,2.639,3.408,5.39,6.4,7.746,7.759a6.06,6.06,0,0,0,1.636.687c1.8.426,5.1-.57,9.02-2.289,1.39-.609,2.857-1.31,4.363-2.071a271.782,271.782,0,0,0,23.714-14.094C1353.615,2907.292,1349.279,2903.23,1349.279,2903.23Z" fill="#fa7269"/>
        <path id="Path_781" data-name="Path 781" d="M1251.011,2914.527s3.6-12.011,2.471-18.086c4.388,4.5,6.8,23.647-.427,27.236C1253.055,2923.677,1250.855,2915.068,1251.011,2914.527Z" fill="#e75755"/>
        <path id="Path_782" data-name="Path 782" d="M1265.348,2850.92c2.313,3.78,7.888,11.559,15.341,13.463a32.177,32.177,0,0,1-.218-7.561c.082-.789.164-1.252.164-1.252Z" fill="#ef5d23"/>
        <path id="Path_783" data-name="Path 783" d="M1284.648,2856.609s-18.377,3.691-20.5-7.789-5.923-18.734,5.721-21.576,14.739,1.116,16.379,4.775S1289.373,2855.354,1284.648,2856.609Z" fill="#fa997b"/>
        <path id="Path_784" data-name="Path 784" d="M1283.1,2832.17s-7.389-4.145-13.152,2.709c-5.464,6.5-5.069,19.968-5.069,19.968s-11.316-22.663-4.286-26.842C1277.288,2818.08,1283.1,2832.17,1283.1,2832.17Z" fill="#404041"/>
        <path id="Path_785" data-name="Path 785" d="M1270.073,2822.789a18.2,18.2,0,0,1,19.69,4.117c3.906,3.848.032,9.7-2.06,14.087,0,0,.133-7.665-9.06-11.459A20.023,20.023,0,0,1,1270.073,2822.789Z" fill="#404041"/>
      </g>
    </g>
    <g id="Group_315" data-name="Group 315" transform="translate(-1078.184 -2700.35)">
      <rect id="Rectangle_392" data-name="Rectangle 392" width="99.059" height="90.135" rx="24.216" transform="translate(1655.177 2873.285)" fill="#3662c1"/>
      <g id="Group_312" data-name="Group 312">
        <path id="Path_786" data-name="Path 786" d="M1699.694,3007.266a2.551,2.551,0,1,0,3.346,1.352A2.551,2.551,0,0,0,1699.694,3007.266Z" fill="#3662c1"/>
        <path id="Path_787" data-name="Path 787" d="M1710.418,2994.084a4.568,4.568,0,1,0,5.99,2.419A4.566,4.566,0,0,0,1710.418,2994.084Z" fill="#3662c1"/>
        <path id="Path_788" data-name="Path 788" d="M1725.766,2976.415a6.721,6.721,0,1,0-3.559,8.813A6.721,6.721,0,0,0,1725.766,2976.415Z" fill="#3662c1"/>
      </g>
      <g id="Group_314" data-name="Group 314">
        <path id="Path_789" data-name="Path 789" d="M1741.281,2904.665l-66.856-12.92a2.359,2.359,0,0,0-2.756,1.863l-7.091,36.694a2.358,2.358,0,0,0,1.863,2.755l66.856,12.921a2.359,2.359,0,0,0,2.755-1.863l7.092-36.694A2.359,2.359,0,0,0,1741.281,2904.665Z" fill="#fc9290"/>
        <rect id="Rectangle_393" data-name="Rectangle 393" width="8.327" height="72.797" transform="translate(1669.349 2905.615) rotate(-79.06)" fill="#af4e4e"/>
        <rect id="Rectangle_394" data-name="Rectangle 394" width="6.546" height="44.541" transform="matrix(0.19, -0.982, 0.982, 0.19, 1673.046, 2915.365)" fill="#af4e4e" opacity="0.4"/>
        <path id="Rectangle_395" data-name="Rectangle 395" d="M1.777,0H6.549A1.777,1.777,0,0,1,8.326,1.777V7.309A1.777,1.777,0,0,1,6.549,9.086H1.778A1.778,1.778,0,0,1,0,7.309V1.777A1.777,1.777,0,0,1,1.777,0Z" transform="translate(1670.476 2928.664) rotate(-79.063)" fill="#af4e4e"/>
        <g id="Group_313" data-name="Group 313">
          <path id="Rectangle_396" data-name="Rectangle 396" d="M.689,0h.672a.688.688,0,0,1,.688.688V44.443a.688.688,0,0,1-.688.688H.688A.688.688,0,0,1,0,44.443V.689A.689.689,0,0,1,.689,0Z" transform="translate(1688.298 2924.484) rotate(-79.062)" fill="#af4e4e" opacity="0.2"/>
          <path id="Rectangle_397" data-name="Rectangle 397" d="M.68,0h.642A.681.681,0,0,1,2,.681v43.77a.68.68,0,0,1-.68.68H.68a.68.68,0,0,1-.68-.68V.68A.68.68,0,0,1,.68,0Z" transform="translate(1687.569 2928.258) rotate(-79.062)" fill="#af4e4e" opacity="0.2"/>
          <rect id="Rectangle_398" data-name="Rectangle 398" width="2.131" height="45.131" rx="0.702" transform="translate(1686.862 2931.914) rotate(-79.062)" fill="#af4e4e" opacity="0.2"/>
        </g>
      </g>
    </g>
    <g id="Group_318" data-name="Group 318" transform="translate(-1078.184 -2700.35)">
      <path id="Path_790" data-name="Path 790" d="M1762.2,3139.4s19.035,1.632,19.847-1.977c.108-.48,2.785-18.5,2.785-18.5l3.283-23.027s-5.566-.673-7.736,5.879-8.569,17.1-18.062,19.858C1752.329,3124.531,1762.2,3139.4,1762.2,3139.4Z" fill="#010117"/>
      <path id="Path_791" data-name="Path 791" d="M1671.789,3046.266l1.7.6a11.311,11.311,0,0,1,13.518-4.475s3.626,1.518,1.475,3.5-1.619.958-4.588,3.812-7.024,4.287-9.817,3.323l-3.1-1.09Z" fill="#fa997b"/>
      <path id="Path_792" data-name="Path 792" d="M1595.3,3109.171s63.285-48.356,81.288-48.884,76.4,79.4,76.4,79.4h-21.868s-38.533-20.507-52.088-40a3.322,3.322,0,0,0-5.546.153c-7.006,11.2-25.327,38.661-37.173,39.843C1623.6,3140.958,1595.3,3109.171,1595.3,3109.171Z" fill="#010117"/>
      <path id="Path_793" data-name="Path 793" d="M1601.36,2977.591s-.4,3.169-.913,7.08c-.685,5.081-1.6,11.39-2.2,13.36l-19.042,4.825-1.4-13.846a56.17,56.17,0,0,0,4.739-23.095Z" fill="#fa997b"/>
      <g id="Group_316" data-name="Group 316">
        <path id="Path_794" data-name="Path 794" d="M1584.8,3006.41l27.057,33.143,9.462,11.59s16.946,3.174,25.842,3.947c6.42.556,26.914-2.06,26.914-2.06l-.588-6.162s-12.719-5.409-18.76-6.676c-6.164-1.292-21.735-4.806-21.735-4.806-5.888-2.141-28.261-31.063-28.261-31.063Z" fill="#3662c1"/>
      </g>
      <path id="Path_795" data-name="Path 795" d="M1567.146,3124.761l55.334-4.516.41-2.971a16.336,16.336,0,0,0,.14-1.806c.126-5.527-2.047-12.979-2.982-20.3-.618-4.835-.7-9.615.782-13.751,1.7-4.769,2.487-13.824,2.833-22.433.436-10.779.185-20.854.19-20.925.555-6.866-1.077-14.49-3.813-21.739-5.4-14.294-15.462-22.387-20.191-27.186,0,0-5.775,1.425-20.786-3.078-.447-.134-1.734,1.755-2.307,2.856,0,0-6.5,8.221-9.166,28.267C1565.2,3035.118,1567.146,3124.761,1567.146,3124.761Z" fill="#6d89cf"/>
      <path id="Path_796" data-name="Path 796" d="M1580.992,3025.4c.108,2.517,22.373,73.391,19.645,78.619-13.2,25.293,20.08,13.9,21.886,7.375-.643-4.355-1.638-24.38-.067-30.282,1.3-4.893.861-13.523,1.207-22.132a30.83,30.83,0,0,0-3.623-9.517C1611.767,3048.169,1580.163,3005.888,1580.992,3025.4Z" fill="#3662c1"/>
      <g id="Group_317" data-name="Group 317">
        <path id="Path_797" data-name="Path 797" d="M1691.661,3039.223l-6.863-4.713a.7.7,0,0,0-.184-.092l-.005,0-1.3-.529L1677,3053.826l5.524,4.47.992.432,0,0,.013.005h0a1.026,1.026,0,0,0,1.257-.692l7.149-17.518A1.077,1.077,0,0,0,1691.661,3039.223Z" fill="#060632"/>
        <path id="Path_798" data-name="Path 798" d="M1690.467,3038.736l-6.863-4.713a.984.984,0,0,0-1.4.617l-6.834,16.748a1.1,1.1,0,0,0,.22,1.258l6.548,5.482a.968.968,0,0,0,1.458-.573l7.148-17.518A1.077,1.077,0,0,0,1690.467,3038.736Z" fill="#bed2fa"/>
        <path id="Path_799" data-name="Path 799" d="M1676.653,3050.5l6.45,5.4,6.483-15.888-6.759-4.642Z" fill="#fff"/>
        <path id="Path_800" data-name="Path 800" d="M1678.912,3053.391c-.248-.1-.521.076-.61.395a.632.632,0,0,0,.285.761c.247.1.52-.076.61-.4A.633.633,0,0,0,1678.912,3053.391Z" fill="#060632"/>
        <path id="Path_801" data-name="Path 801" d="M1683.119,3036.433l-5.69,13.644,5.589,4.357,5.59-14.127Z" fill="#fff"/>
        <path id="Path_802" data-name="Path 802" d="M1683.327,3038.414l-3.987,9.558,3.916,3.053,3.916-9.9Z" fill="#fff"/>
      </g>
      <path id="Path_803" data-name="Path 803" d="M1672.587,3055.931l3.48-.115a8.46,8.46,0,0,1,11.409-3.782s3.186,1.662,1.43,3.517-1.347.868-3.767,3.542-5.837,3.9-8.281,2.819l-2.711-1.217Z" fill="#fa997b"/>
      <path id="Path_804" data-name="Path 804" d="M1586.135,2989.251s13.585,5.738,20.64,18c4.7,8.169,12.8,22.066,17.677,30.429a18.454,18.454,0,0,0,11.974,8.724l16.486,3.627,23.155,5.788a4.839,4.839,0,0,1,.415,2.586c-.19,2.278-1.68,2.736-1.68,2.736s-21.619,5.2-29.315,5.783c-18.962,1.425-27.949-1.06-30.735-2.084a5.9,5.9,0,0,1-1.692-.978c-2.9-2.36-14.045-11.694-19.91-20.611-5.707-8.676-21.441-31.221-21.441-31.221Z" fill="#6d89cf"/>
      <path id="Path_805" data-name="Path 805" d="M1567.146,3103.337s-5.836,36.352,10.9,36.352H1762.2a13.652,13.652,0,0,0,5.442-9.977c.379-6.939-1.814-9.4-1.814-9.4s-65.924-2.295-79.309-6.78C1619.431,3091.054,1567.146,3103.337,1567.146,3103.337Z" fill="#0b0754"/>
      <path id="Path_806" data-name="Path 806" d="M1601.36,2977.591s-.4,3.169-.913,7.08c-17.593-5.131-17.9-18.756-17.9-18.756Z" fill="#ef5d23"/>
      <path id="Path_807" data-name="Path 807" d="M1604.128,2978.606s-21.384.633-21.573-12.689-3.078-22.214,10.567-23.182,16.371,4.078,17.515,8.51S1609.686,2978.1,1604.128,2978.606Z" fill="#fa997b"/>
      <path id="Path_808" data-name="Path 808" d="M1582.555,2965.917a27.311,27.311,0,0,1,24.567-17.157c3.818-.188,7.518-4.26,4.882-7.192-4.557-5.069-10.255-8.731-22.477-5.353C1568.61,2942,1580.681,2963.067,1582.555,2965.917Z" fill="#a9453e"/>
    </g>
    <ellipse id="Ellipse_10" data-name="Ellipse 10" cx="2.999" cy="3.984" rx="2.999" ry="3.984" transform="translate(182.826 141.483) rotate(-22.422)" fill="#fa997b"/>
    <path id="Path_809" data-name="Path 809" d="M1264.731,2844.81c.42.545,1.015.793,1.331.551s.233-.882-.187-1.43-1.017-.79-1.332-.549S1264.311,2844.264,1264.731,2844.81Z" transform="translate(-1078.184 -2700.35)" fill="#ef5d23"/>
    <ellipse id="Ellipse_11" data-name="Ellipse 11" cx="2.999" cy="3.984" rx="2.999" ry="3.984" transform="translate(504.322 257.212) rotate(-22.422)" fill="#ffa683"/>
    <path id="Path_810" data-name="Path 810" d="M1586.228,2960.538c.419.546,1.015.794,1.33.551s.233-.881-.187-1.429-1.017-.791-1.331-.549S1585.807,2959.993,1586.228,2960.538Z" transform="translate(-1078.184 -2700.35)" fill="#ef5d23"/>
  </g>
</svg>
