<svg xmlns="http://www.w3.org/2000/svg" xmlns:xlink="http://www.w3.org/1999/xlink" width="747.454" height="395.505" viewBox="0 0 747.454 395.505">
  <defs>
    <linearGradient id="linear-gradient" y1="0.5" x2="1" y2="0.5" gradientUnits="objectBoundingBox">
      <stop offset="0" stop-color="#2c9c48"/>
      <stop offset="1" stop-color="#34b34d"/>
    </linearGradient>
  </defs>
  <g id="Component_9_1" data-name="Component 9 – 1" transform="translate(0 1.217)">
    <path id="Path_583" data-name="Path 583" d="M1783.593,2507.9s84.237-91.911,14.246-191.418c-62.1-88.289-134.505-82.254-187.626-46.426-22.625,15.26-104.511,84.593-160.031-5.244-75.713-122.514-321.508-130.921-273.655,57.57,23.157,91.216-92.7,94.531-44.987,185.711Z" transform="translate(-1078.184 -2114.636)" fill="#bbefe3"/>
    <path id="Path_584" data-name="Path 584" d="M1773.593,2507.888s88.121-95.867,14.246-199.441c-64.45-90.359-134.505-85.7-187.626-48.371-22.625,15.9-98.072,95.476-160.031-5.465-77.638-126.486-321.508-136.407-273.655,59.983,23.157,95.039-92.7,98.494-44.987,193.5" transform="translate(-1078.184 -2114.636)" fill="none" stroke="#8bccbb" stroke-miterlimit="10" stroke-width="3.062"/>
    <path id="Path_585" data-name="Path 585" d="M1822.563,2508.089H1078.185v-13.61h744.38v13.609Z" transform="translate(-1078.184 -2114.636)" fill="#417c6c"/>
    <g id="Group_279" data-name="Group 279" transform="translate(-1078.184 -2114.636)">
      <path id="Path_586" data-name="Path 586" d="M1669.443,2470.109a24.37,24.37,0,0,1-24.371,24.37H1446.539v-47.258h200.022a22.852,22.852,0,0,1,22.882,22.888Z" fill="#f99746"/>
      <path id="Path_587" data-name="Path 587" d="M1483.393,2470.586a23.811,23.811,0,0,1-6.923,16.823l-.074.074a23.818,23.818,0,0,1-16.891,7H1233.938v-47.258h226.1a23.365,23.365,0,0,1,23.359,23.365Z" fill="#fcecdb"/>
      <path id="Path_588" data-name="Path 588" d="M1502.141,2490.942a3.534,3.534,0,0,1-3.533,3.537H1225.9a3.535,3.535,0,1,1,0-7.07h272.705A3.535,3.535,0,0,1,1502.141,2490.942Z" fill="#ed7d2b"/>
      <path id="Path_589" data-name="Path 589" d="M1502.141,2450.754a3.535,3.535,0,0,1-3.533,3.538H1225.9a3.536,3.536,0,1,1,0-7.071h272.705A3.535,3.535,0,0,1,1502.141,2450.754Z" fill="#ed7d2b"/>
      <path id="Path_590" data-name="Path 590" d="M1233.94,2470.85l30.243.794-30.243.478Z" fill="#f4d2b8"/>
      <path id="Path_591" data-name="Path 591" d="M1233.94,2478.264l71.951.794-71.951.479Z" fill="#f4d2b8"/>
      <path id="Path_592" data-name="Path 592" d="M1650.245,2447.515l-65.276,46.964h-138.43v-47.258h200.022A23.1,23.1,0,0,1,1650.245,2447.515Z" fill="#ed7d2b"/>
    </g>
    <g id="Group_283" data-name="Group 283" transform="translate(-1078.184 -2114.636)">
      <g id="Group_281" data-name="Group 281">
        <g id="Group_280" data-name="Group 280">
          <path id="Rectangle_76" data-name="Rectangle 76" d="M0,0H168.009a30.783,30.783,0,0,1,30.783,30.783V42.989A28.906,28.906,0,0,1,169.886,71.9H0a0,0,0,0,1,0,0V0A0,0,0,0,1,0,0Z" transform="translate(1499.966 2447) rotate(180)" fill="#b5453c"/>
          <path id="Rectangle_77" data-name="Rectangle 77" d="M0,0H193.739a28.729,28.729,0,0,1,28.729,28.729V43.8A28.092,28.092,0,0,1,194.376,71.9H0a0,0,0,0,1,0,0V0A0,0,0,0,1,0,0Z" transform="translate(1689.565 2447) rotate(180)" fill="#fcecdb"/>
          <rect id="Rectangle_78" data-name="Rectangle 78" width="249.506" height="10.753" rx="4.464" transform="translate(1699.884 2447.001) rotate(-180)" fill="#b5453c"/>
          <rect id="Rectangle_79" data-name="Rectangle 79" width="249.506" height="10.752" rx="4.464" transform="translate(1699.884 2385.857) rotate(180)" fill="#b5453c"/>
        </g>
        <path id="Path_593" data-name="Path 593" d="M1689.565,2411.053l-26.972,1.208,26.972.728Z" fill="#f4d2b8"/>
        <path id="Path_594" data-name="Path 594" d="M1689.565,2394.507l-64.168,1.208,64.168.728Z" fill="#f4d2b8"/>
      </g>
      <g id="Group_282" data-name="Group 282">
        <path id="Path_595" data-name="Path 595" d="M1626.058,2395.475s4.234,2.28,5.637,6.027a6.8,6.8,0,0,1,.439,2.1c.234,4.979,0,16.247,0,16.247l12.5-5.634,12.47,5.634v-15.272a10.28,10.28,0,0,0-3.057-7.537,5.166,5.166,0,0,0-3.454-1.562Z" fill="#b5453c"/>
        <path id="Path_596" data-name="Path 596" d="M1626.058,2395.475s4.234,2.28,5.637,6.027l25.055.224s-.983-5.366-6.154-6.251Z" fill="#9e3732"/>
      </g>
    </g>
    <g id="Group_285" data-name="Group 285" transform="translate(-1078.184 -2114.636)">
      <path id="Path_597" data-name="Path 597" d="M1280.022,2294.755s-8.93,5.078-11.43,5.077-12.313-1.9-15.048-.5-7.686,7.021-8.616,8.858c-1.67,3.3,6.726,1.844,10.694-.969a2.5,2.5,0,0,1,1.982-.41c2.055.449,6.326,1.225,8.387.461,2.772-1.026,17.375-2.165,17.375-2.165Z" fill="#fa997b"/>
      <path id="Path_598" data-name="Path 598" d="M1269.927,2478.153s-.962,15.508-3.963,15.731c-.4.029-15.216.029-15.216.029l-18.916-.109s.124-4.558,5.653-5.522,14.783-4.849,18.133-12.157C1259.142,2468.437,1269.927,2478.153,1269.927,2478.153Z" fill="#163560"/>
      <path id="Path_599" data-name="Path 599" d="M1347.963,2225.6s-9.257,65.8-24.586,71.688c-7.563,2.908-40.99,9.5-50.878,10.161,0,0-2.422-1.965-1.832-9.963,0,0,35.021-12.857,40-19.85,7.4-10.406-4.6-42.513,4.694-52.287S1340.3,2211.371,1347.963,2225.6Z" fill="#2a4e96"/>
      <path id="Path_600" data-name="Path 600" d="M1344.843,2364.213a115.408,115.408,0,0,1-9.042,12.938c-9.95,12.56-20.78,22.916-22.667,32.706a44.425,44.425,0,0,1-1.749,6.265c-.788,2.243-1.762,4.6-2.886,7.038-4.222,9.171-10.536,19.447-16.84,28.788-10.9,16.148-21.145,29.623-21.145,29.623l-18.793-.8c.753-1.884,8.949-24.18,19.914-51.427,4.452-11.062,9.187-22.828,13.755-34.174q.912-2.272,1.819-4.52c1.4-3.472,2.771-6.89,4.114-10.218,10.3-25.585,18.495-45.958,18.495-45.958s41.15-15.588,45.424-5.487C1358.765,2337.314,1355.9,2345.473,1344.843,2364.213Z" fill="#599dad"/>
      <path id="Path_601" data-name="Path 601" d="M1313.443,2433.852s13.071,8.4,11.8,11.127c-.169.362-7.393,13.3-7.393,13.3l-9.317,16.463s-3.919-2.33-2.065-7.627,2.973-15.273-1.775-21.76C1299.7,2438.531,1313.443,2433.852,1313.443,2433.852Z" fill="#163560"/>
      <path id="Path_602" data-name="Path 602" d="M1307.047,2448.615s8.17-7.205,9.61-12.491c0,0-33.662-40.331-40.964-49.371-.334-.414-.249-.871.193-1.37,5.513-6.215,66.759-18.851,74.765-31.305a38.6,38.6,0,0,0,5.172-11.924,28.189,28.189,0,0,0,.38-12.848l-61.168-1.77s-50.928,31.711-56.7,53.333S1307.047,2448.615,1307.047,2448.615Z" fill="#6bb7bf"/>
      <path id="Path_603" data-name="Path 603" d="M1275.886,2385.383c5.513-6.215,66.759-18.851,74.765-31.305a38.6,38.6,0,0,0,5.172-11.924v-7.742l-26-4.088s-7.373,22.685-29.207,31.192C1280.168,2369.484,1276.3,2383.622,1275.886,2385.383Z" fill="#5aa9ad"/>
      <path id="Path_604" data-name="Path 604" d="M1311.773,2221.45c12.374,3.2,32.888-8.266,32.888-8.266s-7.966-5.354-10.918-17.113c-.15-.593-.283-1.2-.405-1.823-1.3-.275-3.74-.794-6.355-1.347l-9.451,8.467a81.19,81.19,0,0,0,1.4,9.559q.306,1.582.711,3.391A29.153,29.153,0,0,0,1311.773,2221.45Z" fill="#fa997b"/>
      <path id="Path_605" data-name="Path 605" d="M1357.762,2272.741c-1.772,23.839.56,60.095-1.451,66.374-1.736,5.417-21.507,2.2-29.4.388-2.921-.669-6.459-1.626-10.113-2.756-10.193-3.157-21.3-7.663-22.491-11.009a2.733,2.733,0,0,1-.11-.385,3.055,3.055,0,0,1,.021-1.4c.4-1.7,1.928-3.551,2.108-7.773.2-4.715.171-10.267.349-16.237.009-.672.018-1.406.092-2.075l0-.244.01-.382c.171-6.658.519-13.658.922-20.6.257-4.36.553-8.677.895-12.814.89-10.679,2.088-20.175,3.673-26.179,2.591-9.787,8.3-16.17,13.505-20.848l3.762-3.226a21.747,21.747,0,0,0,13.648-1.818c4.858-2.307,6.536-3.96,7.382-3.337C1351.786,2217.074,1359.855,2243.6,1357.762,2272.741Z" fill="#2a4e96"/>
      <path id="Path_606" data-name="Path 606" d="M1316.8,2336.747c-10.193-3.157-21.3-7.663-22.491-11.009a2.733,2.733,0,0,1-.11-.385c.006-.467.012-.935.021-1.4.4-1.7,1.928-3.551,2.108-7.773.2-4.715.171-10.267.349-16.237.009-.672.018-1.406.092-2.075l0-.244.01-.382,41.207-52.5S1365.685,2302.421,1316.8,2336.747Z" fill="#163560"/>
      <path id="Path_607" data-name="Path 607" d="M1317.532,2201.368a81.19,81.19,0,0,0,1.4,9.559c9.23-2.983,13.415-11.32,14.813-14.856-.15-.593-.283-1.2-.405-1.823-1.3-.275-3.74-.794-6.355-1.347Z" fill="#ef5d23"/>
      <path id="Path_608" data-name="Path 608" d="M1316.29,2206.7s20.128-3.359,17.843-15.862-1.225-21.355-14.173-19.739-14.566,6.841-14.818,11.2S1311,2207.248,1316.29,2206.7Z" fill="#fa997b"/>
      <g id="Group_284" data-name="Group 284">
        <rect id="Rectangle_80" data-name="Rectangle 80" width="1.866" height="48.869" transform="translate(1220.187 2267.768) rotate(-18.001)" fill="#58595b"/>
        <rect id="Rectangle_81" data-name="Rectangle 81" width="51.282" height="3.068" transform="translate(1235.223 2311.178) rotate(-1.224)" fill="#58595b"/>
      </g>
      <path id="Path_609" data-name="Path 609" d="M1285.532,2315.6s-16.474,4.344-22.652,3.888-11.316-3.394-12.093-4.928-2.41-4.254,1.8-3.752,9.947,1.4,10.126.588-3.429-.731-3.429-.731-1.09-1.585.283-1.643,5.376-1.143,6.864-.4,2.86,3.489,3.947,3.375,13.785-5.72,13.785-5.72Z" fill="#fa997b"/>
      <path id="Path_610" data-name="Path 610" d="M1343.878,2228.3s-1.947,66.414-16.533,73.962c-7.2,3.723-39.693,13.96-49.448,15.708,0,0-2.624-1.686-2.919-9.7,0,0,33.391-16.64,37.565-24.138,6.212-11.159-9.256-41.747-1.1-52.486S1334.691,2215,1343.878,2228.3Z" fill="#2a4e96"/>
      <path id="Path_611" data-name="Path 611" d="M1333.743,2196.071s.231-4.289-2.416-6.747c0,0,2.005-4.621-.378-5.5-2.728-1.01-2.794,2.553-3.573,1.986a13.368,13.368,0,0,1-5.406-6.383c-1.489-3.97-15.114.838-16.7,1.553s-4.357-2.99-4.054-5.317c.974-7.484,10.689-15.873,23.166-12.612s14.178,9.216,13.469,14.32S1338.853,2194.358,1333.743,2196.071Z" fill="#a9453e"/>
    </g>
    <g id="Group_290" data-name="Group 290" transform="translate(-1078.184 -2114.636)">
      <g id="Group_289" data-name="Group 289">
        <path id="Path_612" data-name="Path 612" d="M1469.025,2251.189s6.388,9.454,10.032,29.329c3.192,17.407,5.99,23.833,10.6,27.4s30.287,14.109,30.287,14.109l-1.92,4.5s-37.637-5.126-41.865-11.416-20.345-43.456-19.094-52.015S1469.025,2251.189,1469.025,2251.189Z" fill="#fa997b"/>
        <g id="Group_286" data-name="Group 286">
          <path id="Path_613" data-name="Path 613" d="M1561.189,2458.814c-.338,3.671,4.772,4.563,10.69,4.858s4.131,1.507,12.242,2.976,11.361-.75,11.948-1.847c.523-.971-3.248-2.492-7.267-4.211-.506-.214-1.012-.436-1.519-.657-4.523-1.989-7.061-6.046-10.587-9.807-3.341-3.562-6.511-14.968-6.511-14.968l-11.023-2.353s3.095,10.265,4.169,14.648c.632,2.577-.3,5.459-1.128,7.653A14.437,14.437,0,0,0,1561.189,2458.814Z" fill="#ffa683"/>
          <path id="Path_614" data-name="Path 614" d="M1571.879,2463.672c5.919.295,4.131,1.507,12.242,2.976s11.361-.75,11.948-1.847c.523-.971-3.248-2.492-7.267-4.211l-.063.068a23.092,23.092,0,0,1-12.286.147c-5.365-1.457-10.554-4.663-14.25-5.7a14.437,14.437,0,0,0-1.014,3.708C1560.851,2462.485,1565.961,2463.377,1571.879,2463.672Z" fill="#c65447"/>
        </g>
        <path id="Path_615" data-name="Path 615" d="M1451.428,2328.108s73.243-5.513,87.033,3.19,35.9,110.068,35.9,110.068a8.995,8.995,0,0,1-4.413,1.424c-2.835.307-9.079-1.36-9.079-1.36s-31.782-45.354-34.021-56.78-1.692-21.622-6.789-21.9-68.644,7.725-78.256-9.208-1.666-33.7-1.666-33.7Z" fill="#163560"/>
        <g id="Group_287" data-name="Group 287">
          <path id="Path_616" data-name="Path 616" d="M1533.162,2470.578c-.338,3.671,4.772,4.564,10.691,4.858s4.13,1.507,12.241,2.976,11.361-.75,11.948-1.846c.524-.972-3.247-2.493-7.267-4.212-.505-.214-1.012-.435-1.518-.657-4.523-1.989-7.061-6.045-10.587-9.806-3.341-3.563-6.512-14.969-6.512-14.969l-11.023-2.353s3.095,10.265,4.17,14.648c.632,2.578-.3,5.459-1.128,7.653A14.4,14.4,0,0,0,1533.162,2470.578Z" fill="#ffa683"/>
          <path id="Path_617" data-name="Path 617" d="M1543.853,2475.436c5.919.295,4.13,1.507,12.241,2.976s11.361-.75,11.948-1.846c.524-.972-3.247-2.493-7.267-4.212l-.062.069a23.107,23.107,0,0,1-12.286.147c-5.366-1.458-10.554-4.664-14.25-5.7a14.4,14.4,0,0,0-1.015,3.708C1532.824,2474.249,1537.934,2475.142,1543.853,2475.436Z" fill="#c65447"/>
        </g>
        <path id="Path_618" data-name="Path 618" d="M1437.082,2332.647s65.066,3.079,78.506,12.312,31.592,111.382,31.592,111.382a8.992,8.992,0,0,1-4.466,1.251c-2.844.2-9.019-1.712-9.019-1.712s-29.992-46.557-31.784-58.062-.85-21.67-5.933-22.142-68.892,5.048-77.838-12.247S1437.082,2332.647,1437.082,2332.647Z" fill="#1c468a"/>
        <path id="Path_619" data-name="Path 619" d="M1460.5,2193.9c-21.87-11.2-39.055,15.323-39.093,22.776s-5.592,11.73-16.868,17.665c-22.185,11.677-7.939,33.113-.692,40.011.141.134-5.19,19.5,14.785,19.474,6.036-.006,23.659-38.023,38.73-46.54,3.86-4.94,3.259-3.521,2-1.306C1472.335,2235.545,1468.659,2198.082,1460.5,2193.9Z" fill="#404041"/>
        <path id="Path_620" data-name="Path 620" d="M1434.348,2240.3a73.309,73.309,0,0,1,12.118,0,38.931,38.931,0,0,1,10.516,2.639c5.734,2.4,5.133,12.549-6.9,10.669S1433.5,2243.31,1434.348,2240.3Z" fill="#f47f26"/>
        <path id="Path_621" data-name="Path 621" d="M1456.474,2247.7c.07.037,1.716,8.734-6.163,8.386-5.172-.228-16.327-6.487-15.341-10.915.468-2.1,4.376-7.567,5.162-20.033l.942.252,15.831,4.246s-.7,5.024-1.03,9.78C1455.6,2243.412,1455.588,2247.216,1456.474,2247.7Z" fill="#fa997b"/>
        <path id="Path_622" data-name="Path 622" d="M1456.905,2229.639s-.7,5.024-1.03,9.78c-8.96-.851-13.159-9.357-14.8-14.026Z" fill="#ef5d23"/>
        <path id="Path_623" data-name="Path 623" d="M1439.533,2223.536s-4.209-7.747-4.914-14.179c-.5-4.591,2.929-21.258,19.671-17.708a23.018,23.018,0,0,1,9.284,4.235c3.5,2.723,8.444,8.428,1.543,22.711l-1.869,4.856Z" fill="#404041"/>
        <path id="Path_624" data-name="Path 624" d="M1459.6,2234.343s-21.263-1.066-20.4-14.3-1.293-22.28,12.32-22.159,15.917,5.343,16.7,9.83S1465.156,2234.279,1459.6,2234.343Z" fill="#fa997b"/>
        <path id="Path_625" data-name="Path 625" d="M1459.7,2201.86a8.306,8.306,0,0,1,7.193,5.078,14.931,14.931,0,0,1,.638,9.934s5.085-10.259.559-16.555C1463.288,2193.64,1459.7,2201.86,1459.7,2201.86Z" fill="#404041"/>
        <path id="Path_626" data-name="Path 626" d="M1480.878,2329.213c-1.721,2.058-7.094,2.69-12.836,3.634-4.518.746-9.265,1.682-12.64,3.664-7.665,4.5-32.709,19.71-40.049,19.018-2.845-.268-2.313-5.7-.589-12.908,2.713-11.383,8.393-27.191,8.393-34.065,0-3.751,1.248-12.628,2.915-22.778q.2-1.227.412-2.475c3.3-19.734,9.406-43,9.406-43s3.55,11.114,13.474,11.114,7.617-8.475,7.617-8.475,9.055,1.065,11.193,3.37,7.566,12.264,8.643,14.98c0,0,.22,3.457-8.339,5.1a112.2,112.2,0,0,1,2.331,15.637c.184,4.621-3.152,19.081-4.112,28.076-.339,3.185-.384,5.685.133,6.819.661,1.453,2.8,2.9,5.24,4.32C1476.907,2324.057,1482.92,2326.768,1480.878,2329.213Z" fill="#f47f26"/>
        <g id="Group_288" data-name="Group 288">
          <rect id="Rectangle_82" data-name="Rectangle 82" width="20.491" height="2.421" transform="translate(1483.162 2328.185)" fill="#6d6e70"/>
          <path id="Path_627" data-name="Path 627" d="M1499.3,2330.275c.2-.8,18.838-30.066,18.838-30.066H1559.6l-20.8,29.28Z" fill="#6d6e70"/>
          <path id="Path_628" data-name="Path 628" d="M1501.046,2330.606c.2-.8,18.9-30.4,18.9-30.4H1559.6l-19.788,30.4Z" fill="#bbbdbf"/>
        </g>
        <path id="Path_629" data-name="Path 629" d="M1489.246,2317.781c-1.163-.5-10.145,1.136-12.709,1.617-8.134-1.593-34.874-6.937-36.176-8.611-1.535-1.975-4.888-62.159-8.729-63.163,0,0-7.554-4.587-14.857,4.115s5.19,70.911,16.013,74.107c12.021,3.55,46.747-.568,46.747-.568h0c2.853.974,7.84,1.523,10.488,2.4,3.494,1.165,6.6.194,7.377-1.165S1490.6,2318.364,1489.246,2317.781Z" fill="#fa997b"/>
        <path id="Path_630" data-name="Path 630" d="M1435.773,2240.043s-16.939,1.655-21.445,6.758-5.822,18.929-5.822,18.929,13.662,11.029,30.122,6.749Z" fill="#f47f26"/>
      </g>
    </g>
    <path id="Path_631" data-name="Path 631" d="M1439.181,2218.629s5.751-21.4,23.318-16.133c.156-3.558-6.116-8.735-13.509-8.146S1431.146,2211.333,1439.181,2218.629Z" transform="translate(-1078.184 -2114.636)" fill="#404041"/>
    <path id="Path_632" data-name="Path 632" d="M1783.775,2494.479H1730.6c-2.85-2.417,1.972-7.906,7.01-8.275a31.024,31.024,0,0,1,8.116.96c.732-9.719,4.911-53.413,20.661-51.657,17.709,1.965,0,19.242-5.006,29.47a243.338,243.338,0,0,0-9.408,23.567c1.438.312,2.926.618,4.446.9,2.348-7.206,11.081-31.448,22.187-30.036,13.04,1.654,7.8,11.373-1.443,17.143-6.781,4.243-15.107,10.273-19.064,13.186a56.465,56.465,0,0,0,10.4.833C1777.6,2490.351,1782.051,2493.036,1783.775,2494.479Z" transform="translate(-1078.184 -2114.636)" fill="url(#linear-gradient)"/>
    <ellipse id="Ellipse_13" data-name="Ellipse 13" cx="2.999" cy="3.984" rx="2.999" ry="3.984" transform="translate(357.42 100.305) rotate(-10.196)" fill="#fa997b"/>
    <path id="Path_633" data-name="Path 633" d="M1438.952,2219.067c.419.546,1.015.793,1.331.551s.232-.881-.188-1.429-1.017-.791-1.331-.549S1438.531,2218.521,1438.952,2219.067Z" transform="translate(-1078.184 -2114.636)" fill="#ef5d23"/>
    <path id="Path_634" data-name="Path 634" d="M1329.308,2186.317c-.249.641-.151,1.279.22,1.423s.874-.259,1.124-.9.148-1.279-.221-1.423S1329.557,2185.674,1329.308,2186.317Z" transform="translate(-1078.184 -2114.636)" fill="#ef5d23"/>
    <g id="Group_291" data-name="Group 291" transform="translate(-1078.184 -2114.636)">
      <ellipse id="Ellipse_14" data-name="Ellipse 14" cx="43.352" cy="20.268" rx="43.352" ry="20.268" transform="translate(1537.687 2198.621) rotate(-75.614)" fill="none" stroke="#8bccbb" stroke-miterlimit="10" stroke-width="2"/>
      <ellipse id="Ellipse_15" data-name="Ellipse 15" cx="20.268" cy="43.352" rx="20.268" ry="43.352" transform="translate(1522.933 2145.824) rotate(-45.613)" fill="none" stroke="#8bccbb" stroke-miterlimit="10" stroke-width="2"/>
      <ellipse id="Ellipse_16" data-name="Ellipse 16" cx="43.352" cy="20.268" rx="43.352" ry="20.268" transform="translate(1520.884 2153.812) rotate(-15.613)" fill="none" stroke="#8bccbb" stroke-miterlimit="10" stroke-width="2"/>
      <path id="Path_635" data-name="Path 635" d="M1574.09,2163.2a6.193,6.193,0,1,1-4.46-7.538A6.193,6.193,0,0,1,1574.09,2163.2Z" fill="#ffbc00"/>
    </g>
  </g>
</svg>
