<svg id="Component_7_1" data-name="Component 7 – 1" xmlns="http://www.w3.org/2000/svg" xmlns:xlink="http://www.w3.org/1999/xlink" width="747.454" height="377.772" viewBox="0 0 747.454 377.772">
  <defs>
    <linearGradient id="linear-gradient" y1="0.5" x2="1" y2="0.5" gradientUnits="objectBoundingBox">
      <stop offset="0" stop-color="#2c9c48"/>
      <stop offset="1" stop-color="#34b34d"/>
    </linearGradient>
    <linearGradient id="linear-gradient-6" y1="0.5" x2="1" y2="0.5" gradientUnits="objectBoundingBox">
      <stop offset="0" stop-color="#f69144"/>
      <stop offset="1" stop-color="#ffce45"/>
    </linearGradient>
  </defs>
  <g id="Group_272" data-name="Group 272" transform="translate(-1078.184 -6687.494)">
    <path id="Path_593" data-name="Path 593" d="M1783.593,7065.072s84.237-91.911,14.246-191.417c-62.1-88.29-134.505-82.254-187.626-46.426-22.625,15.26-104.511,84.593-160.031-5.245-75.713-122.514-321.508-130.921-273.655,57.57,23.157,91.216-92.7,94.532-44.987,185.711Z" fill="#baddd4"/>
    <path id="Path_594" data-name="Path 594" d="M1773.593,7063.064s88.121-95.866,14.246-199.44c-64.45-90.36-134.505-85.7-187.626-48.372-22.625,15.9-98.072,95.476-160.031-5.464-77.638-126.487-321.508-136.408-273.655,59.983,23.157,95.039-92.7,98.493-44.987,193.494" fill="none" stroke="#97b4c9" stroke-miterlimit="10" stroke-width="3.062"/>
    <g id="Group_265" data-name="Group 265">
      <g id="Group_244" data-name="Group 244">
        <g id="Group_239" data-name="Group 239">
          <g id="Group_235" data-name="Group 235">
            <path id="Path_595" data-name="Path 595" d="M1169.914,6941.682h-.03a1.943,1.943,0,0,1-2.027-1.849c1.155-71.684-26.565-126.8-26.845-127.347-.469-.919-.38-2.967,2.607-3.227,2.612-.228,4.232.341,4.7,1.259.071.139,6.255,13.255,13.123,36.052,6.332,21.021,11.137,55.438,10.527,93.314A1.955,1.955,0,0,1,1169.914,6941.682Z" fill="#ee9849"/>
          </g>
          <g id="Group_236" data-name="Group 236">
            <path id="Path_596" data-name="Path 596" d="M1231.731,6941.682h-.029a1.943,1.943,0,0,1-2.027-1.849c1.154-71.684-26.565-126.8-26.846-127.347-.468-.919-.379-2.967,2.607-3.227,2.612-.228,4.232.341,4.7,1.259.072.139,6.255,13.255,13.122,36.052,6.333,21.021,11.138,55.438,10.528,93.314A1.956,1.956,0,0,1,1231.731,6941.682Z" fill="#ee9849"/>
          </g>
          <g id="Group_237" data-name="Group 237">
            <path id="Path_597" data-name="Path 597" d="M1151.609,6834.5a2,2,0,0,1-2.025-1.516,1.858,1.858,0,0,1,1.681-2.1c1.781-.269,43.822-6.545,62.641-1.309a1.792,1.792,0,0,1,1.346,2.285,2.113,2.113,0,0,1-2.578,1.193c-17.873-4.973-60.29,1.361-60.716,1.425A2.355,2.355,0,0,1,1151.609,6834.5Z" fill="#ee9849"/>
          </g>
          <g id="Group_238" data-name="Group 238">
            <path id="Path_598" data-name="Path 598" d="M1156.415,6846.57a2,2,0,0,1-2.025-1.516,1.857,1.857,0,0,1,1.68-2.1c1.781-.269,43.823-6.548,62.641-1.309a1.792,1.792,0,0,1,1.347,2.285,2.115,2.115,0,0,1-2.578,1.193c-17.881-4.977-60.291,1.361-60.717,1.425A2.282,2.282,0,0,1,1156.415,6846.57Z" fill="#ee9849"/>
          </g>
        </g>
        <path id="Path_599" data-name="Path 599" d="M1167.445,6941.684h126.688s-2.951-12.241-76.32-10.418C1165.891,6932.556,1167.445,6941.684,1167.445,6941.684Z" fill="#ee9849"/>
        <g id="Group_240" data-name="Group 240">
          <path id="Path_600" data-name="Path 600" d="M1157.133,7051.6c14.689-65.38,10.912-105.5,10.893-106.006-.037-1.007,2.073-1.921,3.208-1.953s6.22-.3,6.806.564c.769,1.128,3.727,50.559-18.165,107.4Z" fill="#e58638"/>
        </g>
        <g id="Group_241" data-name="Group 241">
          <path id="Path_601" data-name="Path 601" d="M1264.682,7051.6c-14.689-65.38-10.912-105.5-10.894-106.006.037-1.007-2.073-1.921-3.207-1.953-1.15-.018-6.22-.3-6.807.564-.768,1.128-3.726,50.559,18.166,107.4Z" fill="#e58638"/>
        </g>
        <g id="Group_242" data-name="Group 242">
          <path id="Path_602" data-name="Path 602" d="M1298.862,7051.6c-14.689-65.38-10.912-105.5-10.893-106.006.037-1.007-2.073-1.921-3.209-1.953s-6.219-.3-6.806.564c-.768,1.128-3.726,50.559,18.166,107.4Z" fill="#ce6d25"/>
        </g>
        <g id="Group_243" data-name="Group 243">
          <path id="Path_603" data-name="Path 603" d="M1194.325,7051.6c14.689-65.38,10.912-105.5,10.893-106.006-.037-1.007,2.073-1.921,3.209-1.953s6.219-.3,6.805.564c.769,1.128,3.727,50.559-18.165,107.4Z" fill="#ce6d25"/>
        </g>
        <path id="Path_604" data-name="Path 604" d="M1294.85,6945.59H1166.878a1.959,1.959,0,0,1-1.954-1.953h0a1.959,1.959,0,0,1,1.954-1.953H1294.85a1.958,1.958,0,0,1,1.953,1.953h0A1.959,1.959,0,0,1,1294.85,6945.59Z" fill="#e58638"/>
      </g>
      <g id="Group_254" data-name="Group 254">
        <g id="Group_249" data-name="Group 249">
          <g id="Group_245" data-name="Group 245">
            <path id="Path_605" data-name="Path 605" d="M1666.266,6942.182h.03a1.942,1.942,0,0,0,2.026-1.849c-1.155-71.684,26.565-126.8,26.846-127.348.468-.918.379-2.966-2.608-3.226-2.611-.228-4.232.341-4.7,1.258-.071.14-6.255,13.256-13.122,36.053-6.333,21.021-11.138,55.438-10.528,93.315A1.954,1.954,0,0,0,1666.266,6942.182Z" fill="#ee9849"/>
          </g>
          <g id="Group_246" data-name="Group 246">
            <path id="Path_606" data-name="Path 606" d="M1604.447,6942.182h.03a1.942,1.942,0,0,0,2.027-1.849c-1.154-71.684,26.565-126.8,26.846-127.348.468-.918.379-2.966-2.607-3.226-2.612-.228-4.233.341-4.7,1.258-.071.14-6.254,13.256-13.122,36.053-6.333,21.021-11.138,55.438-10.528,93.315A1.955,1.955,0,0,0,1604.447,6942.182Z" fill="#ee9849"/>
          </g>
          <g id="Group_247" data-name="Group 247">
            <path id="Path_607" data-name="Path 607" d="M1684.57,6835a2,2,0,0,0,2.024-1.516,1.857,1.857,0,0,0-1.68-2.1c-1.781-.269-43.822-6.545-62.641-1.309a1.794,1.794,0,0,0-1.346,2.285,2.113,2.113,0,0,0,2.578,1.193c17.873-4.973,60.29,1.361,60.716,1.425A2.352,2.352,0,0,0,1684.57,6835Z" fill="#ee9849"/>
          </g>
          <g id="Group_248" data-name="Group 248">
            <path id="Path_608" data-name="Path 608" d="M1679.765,6847.07a2,2,0,0,0,2.024-1.516,1.857,1.857,0,0,0-1.681-2.1c-1.78-.269-43.822-6.548-62.64-1.309a1.792,1.792,0,0,0-1.347,2.285,2.116,2.116,0,0,0,2.579,1.193c17.88-4.977,60.29,1.36,60.715,1.425A2.3,2.3,0,0,0,1679.765,6847.07Z" fill="#ee9849"/>
          </g>
        </g>
        <path id="Path_609" data-name="Path 609" d="M1668.735,6942.183H1542.046s2.95-12.239,76.32-10.417C1670.289,6933.056,1668.735,6942.183,1668.735,6942.183Z" fill="#ee9849"/>
        <g id="Group_250" data-name="Group 250">
          <path id="Path_610" data-name="Path 610" d="M1679.046,7052.1c-14.689-65.381-10.912-105.5-10.893-106.007.037-1.007-2.073-1.921-3.209-1.954-1.149-.017-6.219-.3-6.8.564-.769,1.129-3.727,50.561,18.166,107.4Z" fill="#e58638"/>
        </g>
        <g id="Group_251" data-name="Group 251">
          <path id="Path_611" data-name="Path 611" d="M1571.5,7052.1c14.689-65.381,10.911-105.5,10.893-106.007-.037-1.007,2.073-1.921,3.208-1.954,1.149-.017,6.219-.3,6.806.564.769,1.129,3.727,50.561-18.166,107.4Z" fill="#e58638"/>
        </g>
        <g id="Group_252" data-name="Group 252">
          <path id="Path_612" data-name="Path 612" d="M1537.6,7051.656c14.69-65.381,10.633-105.061,10.614-105.566-.037-1.007,2.074-1.921,3.209-1.954,1.149-.017,6.219-.3,6.805.564.769,1.129,4.007,50.12-17.885,106.956Z" fill="#ce6d25"/>
        </g>
        <g id="Group_253" data-name="Group 253">
          <path id="Path_613" data-name="Path 613" d="M1641.854,7052.1c-14.689-65.381-10.912-105.5-10.893-106.007.037-1.007-2.073-1.921-3.209-1.954-1.149-.017-6.218-.3-6.8.564-.768,1.129-3.727,50.561,18.165,107.4Z" fill="#ce6d25"/>
        </g>
        <path id="Path_614" data-name="Path 614" d="M1541.329,6946.09H1669.3a1.958,1.958,0,0,0,1.953-1.954h0a1.958,1.958,0,0,0-1.953-1.953H1541.329a1.958,1.958,0,0,0-1.952,1.953h0A1.958,1.958,0,0,0,1541.329,6946.09Z" fill="#e58638"/>
      </g>
      <g id="Group_258" data-name="Group 258">
        <path id="Path_615" data-name="Path 615" d="M1326.74,6850.989s7.405-4.611,10.619-3.912,12.016,3.213,12.3,6.846-12.574,9.361-22.076,6.148S1326.74,6850.989,1326.74,6850.989Z" fill="#fa997b"/>
        <path id="Path_616" data-name="Path 616" d="M1287.472,7044.274a3.8,3.8,0,0,0,2.168,3.5.032.032,0,0,0,.021.008c2.519,1.388,6.541.323,11.353.113.616-.025,1.57,1.162,2.065,1.162.129,0,.259,0,.385,0,.1,0,.2,0,.3,0,4.762.117,4.259,1.542,13.309,2.317,10.316.881,14.117-2.275,14.725-3.713.511-1.22-3.915-2.6-8.861-4.183-.238-.076-.478-.155-.721-.231-.658-.21-1.32-.428-1.979-.641-5.889-1.958-11.686-4.28-13.131-10.24-1.535-6.321,3.076-23.964,3.076-23.964l-16.347-1.765s-1.577,18.443-2.6,24.19c-.553,3.069-1.945,5.508-2.758,8.136-.058.185-.113.369-.163.554A18.086,18.086,0,0,0,1287.472,7044.274Z" fill="#fa997b"/>
        <g id="Group_255" data-name="Group 255">
          <path id="Path_617" data-name="Path 617" d="M1331.8,7047.663c-.324.767-1.007,3.015-5.335,3.932h-16.408c-.051-.024-.1-.048-.15-.067a31.438,31.438,0,0,0-13.132-2.731,39.337,39.337,0,0,1-4.7-.193h0a6.15,6.15,0,0,1-2.131-.665h0c-.095-.051-.185-.1-.276-.162a.031.031,0,0,1-.02-.007c-.083-.044-.162-.091-.241-.143h0l0,0a4.547,4.547,0,0,1-.423-.292c-.071-.052-.134-.1-.2-.158s-.127-.111-.186-.17l-.131-.131c-.075-.078-.146-.165-.217-.252l-.012-.016c-.039-.051-.079-.1-.114-.158s-.08-.115-.115-.178c0,0-.008-.011-.012-.016l-.008-.019a1.164,1.164,0,0,1-.087-.155l0,0c-.019-.035-.035-.071-.052-.107s-.05-.106-.071-.158a2.293,2.293,0,0,1-.086-.233,1.516,1.516,0,0,1-.059-.189,2.555,2.555,0,0,1-.06-.253,1.992,1.992,0,0,1-.035-.21c-.008-.047-.016-.094-.02-.142-.008-.067-.016-.138-.02-.209-.008-.1-.012-.2-.012-.3v-.023c0-.087,0-.174,0-.258s.008-.169.012-.257.008-.177.016-.268.012-.174.024-.265c.011-.13.028-.257.043-.383l.012-.075a2.191,2.191,0,0,1,.036-.241c.015-.119.039-.241.059-.36.035-.21.079-.415.122-.62.02-.087.04-.17.059-.258.044-.2.092-.39.139-.584.024-.1.051-.2.075-.293.051-.193.1-.387.154-.577.028-.1.051-.193.079-.288.051-.186.107-.371.166-.553,4.916,1.142,11.753,4.568,18.637,5.861.1.019.21.039.313.055a29.972,29.972,0,0,0,9.792.067,28.462,28.462,0,0,0,5.722-1.47C1327.879,7045.063,1332.305,7046.446,1331.8,7047.663Z" fill="#2f5791"/>
          <path id="Path_618" data-name="Path 618" d="M1296.77,7051.6v-3.284l-.3-.048-7.351-1.158.273.518,0,0h0l.178.336.541,1.016h0l1.4,2.616Z" fill="#2f5791"/>
        </g>
        <path id="Path_619" data-name="Path 619" d="M1203.01,6887.051l52.92-5.044s80.995.366,88.54,11.058c0,0,14.461,10.024-1.886,51.457s-35.545,82.84-35.545,82.84a37.412,37.412,0,0,1-11.6.817,45.406,45.406,0,0,1-6.218-1.114s3.691-61.827,11.864-85.885,10.688-19.38-3.773-18.043-60.985,12.029-82.361,9.356S1203.01,6887.051,1203.01,6887.051Z" fill="#253070"/>
        <path id="Path_620" data-name="Path 620" d="M1277.273,7044.274a3.794,3.794,0,0,0,2.167,3.5.037.037,0,0,0,.021.008c2.519,1.388,6.541.323,11.353.113.617-.025,1.57,1.162,2.065,1.162.13,0,.26,0,.385,0,.1,0,.2,0,.3,0,4.762.117,4.259,1.542,13.308,2.317,10.316.881,14.118-2.275,14.725-3.713.512-1.22-3.914-2.6-8.861-4.183-.239-.076-.477-.155-.72-.231-.659-.21-1.321-.428-1.979-.641-5.889-1.958-11.686-4.28-13.133-10.24-1.533-6.321,3.077-23.964,3.077-23.964l-16.347-1.765s-1.576,18.443-2.6,24.19c-.553,3.069-1.945,5.508-2.758,8.136-.059.185-.113.369-.163.554A18.011,18.011,0,0,0,1277.273,7044.274Z" fill="#fa997b"/>
        <path id="Path_621" data-name="Path 621" d="M1195.612,6890.809l49.629-4.192s81,.355,88.541,10.71c0,0,12.239,7.667-4.108,47.794s-32.9,84.284-32.9,84.284a41.7,41.7,0,0,1-8.1.144c-5.581-.453-7.44-2.266-7.44-2.266s1.153-54.908,9.326-78.207,11.317-20.927-3.144-19.633-55.12,11.435-83.141,6.069C1183.106,6931.46,1195.612,6890.809,1195.612,6890.809Z" fill="#2c3480"/>
        <g id="Group_256" data-name="Group 256">
          <path id="Path_622" data-name="Path 622" d="M1321.635,7047.469a.492.492,0,0,1-.039.194c-.3.715-.913,2.7-4.466,3.719-.273.079-.561.15-.869.213h-16.408a32.96,32.96,0,0,0-3.083-1.21,29.783,29.783,0,0,0-6.647-1.406h0c-1.28-.126-2.462-.166-3.549-.182-3.074-.051-5.4.079-7.109-1.02a.03.03,0,0,1-.02-.007c-.083-.044-.162-.091-.241-.143h0l0,0a4.817,4.817,0,0,1-.424-.292c-.067-.052-.134-.1-.2-.158a2.457,2.457,0,0,1-.186-.17l-.131-.131c-.039-.043-.082-.094-.126-.142a1.749,1.749,0,0,1-.118-.154c-.024-.031-.048-.059-.068-.091a1.836,1.836,0,0,1-.114-.166c-.032-.051-.063-.1-.091-.158-.048-.087-.1-.174-.135-.264l-.007-.016a1.726,1.726,0,0,1-.072-.178c-.015-.044-.035-.091-.047-.135,0-.008,0-.012-.008-.02s0-.015-.008-.023a.035.035,0,0,1,0-.02c-.02-.055-.035-.114-.051-.169a1.511,1.511,0,0,1-.048-.2,1.743,1.743,0,0,1-.035-.21c-.008-.043-.016-.091-.02-.134v-.008c-.008-.067-.016-.138-.019-.209-.009-.1-.012-.2-.012-.3a17.844,17.844,0,0,1,.837-4.75c.047-.186.1-.371.163-.553a95.815,95.815,0,0,1,9.405,3.173,61.01,61.01,0,0,0,9.232,2.688,30.071,30.071,0,0,0,10.512.055,27.828,27.828,0,0,0,5.314-1.4c1.6.509,3.139,1,4.478,1.47.257.091.506.182.747.269s.455.17.668.253.419.166.613.249c.1.039.193.082.288.122s.181.079.273.122c.174.08.339.163.49.242.078.039.149.079.221.118.142.08.272.158.391.237.091.06.178.123.253.182.056.048.107.091.15.135a.662.662,0,0,1,.075.074.9.9,0,0,1,.214.317.707.707,0,0,1,.027.082v.009A.487.487,0,0,1,1321.635,7047.469Z" fill="#365da4"/>
          <path id="Path_623" data-name="Path 623" d="M1286.57,7048.311v3.284h-5.248l-2.122-3.968h0l0,0-.273-.518,7.351,1.158Z" fill="#365da4"/>
        </g>
        <path id="Path_624" data-name="Path 624" d="M1330.356,6860.567a5.329,5.329,0,0,1-.4,1.32c-2.095,4.611-42.706,8.22-48.155,5.286-2.436-1.311-8.959-21.034-12.128-44.938-3.919-29.552-7.273-62.046-7.273-62.046s18.095,5.709,20.191,15.35,2.515,69.163,7.965,72.1,28.5.419,36.467,1.676C1327.024,6849.312,1331.19,6855.906,1330.356,6860.567Z" fill="#fa7269"/>
        <path id="Path_625" data-name="Path 625" d="M1263.587,6691.693c-19.02-11.755-34.3,4.527-36.537,8.1-7.063,11.273.045,31.509,14.041,34.883C1250.19,6736.864,1301.47,6715.1,1263.587,6691.693Z" fill="#404041"/>
        <path id="Path_626" data-name="Path 626" d="M1224.285,6712.713s-7.8,9.96-6.48,17.96-2.915,14.136-8.326,15.815c-15.765,4.891-16.412,26.273-9.03,33.347s43.147,0,43.147,0,5.883-40.691,1.883-48.926S1224.285,6712.713,1224.285,6712.713Z" fill="#404041"/>
        <path id="Path_627" data-name="Path 627" d="M1263.7,6764.989c.091.042-8.775,4.645-15.444,2.821-6.274-1.711-10.372-9.844-10.286-9.863,2.657-.528,3.422-4.178,3.366-19.866l1.2.237,20.194,4s-.46,6.355-.473,12.342C1262.243,6759.685,1262.548,6764.453,1263.7,6764.989Z" fill="#fa997b"/>
        <path id="Path_628" data-name="Path 628" d="M1262.73,6742.317s-.46,6.355-.473,12.342c-11.3-.32-17.273-10.628-19.721-16.341Z" fill="#ef5d23"/>
        <path id="Path_629" data-name="Path 629" d="M1240.451,6736.119s-5.922-9.357-7.343-17.358c-1.015-5.712,1.894-26.884,23.171-23.836a28.926,28.926,0,0,1,11.989,4.533c4.619,3.12,11.285,9.856,3.831,28.331l-1.936,6.242Z" fill="#404041"/>
        <path id="Path_630" data-name="Path 630" d="M1266.5,6747.985s-26.736.442-26.755-16.213-3.481-27.813,13.589-28.8,20.393,5.366,21.751,10.923S1273.458,6747.442,1266.5,6747.985Z" fill="#fa997b"/>
        <path id="Path_631" data-name="Path 631" d="M1263.7,6704.152s5.467,4.362,6.8,8.6,1.932,12.971,4.477,12.674c0,0,5.515-13.28-.683-20.793C1267.722,6696.67,1263.7,6704.152,1263.7,6704.152Z" fill="#404041"/>
        <path id="Path_632" data-name="Path 632" d="M1282.127,6816.2c-10.836,52.236-1.769,60.255-7.4,65.39-.03.025-5,2.171-5.03,2.2-5.868,5.089-6.015-1.077-24.458,6.917-8.786,3.81-20.049,8.857-29.886,11.841a61.273,61.273,0,0,1-10.3,2.314c-5.927.7-10.35-.336-11.792-4.339-4.191-11.631,15.929-42.523,10.9-63.6-.042-.181-.084-.365-.122-.545a23.126,23.126,0,0,1-.243-6.284c.939-11.761,8.367-28.855,16.062-43.45,8.5-16.1,17.316-29.162,18.109-28.692,22.408,13.3,24.432,2.242,24.432,2.242S1285.824,6798.384,1282.127,6816.2Z" fill="#fa7269"/>
        <path id="Path_633" data-name="Path 633" d="M1271.48,6883.055h0c-5.868,5.089-7.8-.344-26.239,7.65-8.786,3.81-20.049,8.857-29.886,11.841-5.027.876-8.769,1.647-10.3,2.314-5.927.7-10.35-.336-11.792-4.339-4.191-11.631,15.929-42.523,10.9-63.6-.042-.181-.084-.365-.122-.545a19.517,19.517,0,0,1-.243-6.284c1.06-8.936,7.633-18.631,15.077-32.753,4.98,5.261,42.378-.839,33.533,51.138C1249.7,6864.407,1269.154,6870.69,1271.48,6883.055Z" fill="#d85855"/>
        <g id="Group_257" data-name="Group 257">
          <path id="Path_634" data-name="Path 634" d="M1334.838,6859.62l0,0a8.777,8.777,0,0,0,15.377-5.8V6850.4a8.682,8.682,0,0,0-.072-1.1H1332.71a60.839,60.839,0,0,0,.388,6.507A8.052,8.052,0,0,0,1334.838,6859.62Z" fill="#58595b"/>
          <rect id="Rectangle_375" data-name="Rectangle 375" width="7.173" height="1.074" transform="translate(1345.018 6862.918) rotate(180)" fill="#404041"/>
        </g>
        <path id="Path_635" data-name="Path 635" d="M1269.664,6885.71s8.244-1.957,12.016-.419,11.318,5.449,10.619,7.544-9.641,3.214-13.413,1.118-6.567.559-11.178-.978S1269.664,6885.71,1269.664,6885.71Z" fill="#fa997b"/>
        <path id="Path_636" data-name="Path 636" d="M1237.969,6757.947s-30.406.407-35.856,15.078-3.773,66.227,4.192,81.736,53.234,36.467,58.264,37.306,8.173-6.916,7.964-7.755-47.576-39.191-47.366-43.173S1237.969,6757.947,1237.969,6757.947Z" fill="#fa7269"/>
      </g>
      <g id="Group_260" data-name="Group 260">
        <path id="Path_637" data-name="Path 637" d="M1467.536,6818.834s-7.768-9.413-9.44-10.526-9.008-3.063-9.428-2.67-.438.962.47,1.765,4.379,2.827,3.884,3.055-10.962-4.983-12.471-3.23.854,8.988,4.888,12.456,16.073,4.947,16.83,5.432C1468.69,6829.222,1467.536,6818.834,1467.536,6818.834Z" fill="#fa997b"/>
        <path id="Path_638" data-name="Path 638" d="M1540.339,7044.567a3.665,3.665,0,0,1-2.167,3.386.034.034,0,0,1-.021.008c-2.519,1.344-6.941,1.479-11.753,1.275-.616-.024-1.17-.041-1.664-.041-.13,0-.261,0-.386.005-.1,0-.2,0-.3,0-4.762.113-4.258,1.494-13.308,2.245-10.316.853-14.118-2.205-14.726-3.6-.511-1.182,3.916-2.522,8.862-4.052.239-.074.477-.151.721-.224.658-.2,1.32-.414,1.978-.621,5.889-1.9,11.686-4.146,13.133-9.92,1.534-6.123-3.077-23.213-3.077-23.213l16.348-1.71s1.575,17.866,2.6,23.433c.554,2.972,1.945,5.336,2.759,7.881.058.179.112.357.163.536A17.006,17.006,0,0,1,1540.339,7044.567Z" fill="#fa997b"/>
        <path id="Path_639" data-name="Path 639" d="M1540.339,7044.567a3.665,3.665,0,0,1-2.167,3.386.034.034,0,0,1-.021.008c-2.683,1.2-7.033,1.377-11.745,1.247-.616-.016-1.17-.021-1.672-.013-.13,0-.261,0-.386.005-.1,0-.2,0-.3,0-4.762.113-4.258,1.494-13.308,2.245-10.316.853-14.118-2.205-14.726-3.6-.511-1.182,3.916-2.522,8.862-4.052a31.5,31.5,0,0,0,15.827,1.307c6.883-1.255,13.72-4.572,18.637-5.681.058.179.112.357.163.536A17.006,17.006,0,0,1,1540.339,7044.567Z" fill="#c65447"/>
        <path id="Path_640" data-name="Path 640" d="M1434.263,7024.878c-.909,4.541-7.38,3.784-14.61,2.017s-5.512.333-15.8-.806-13.408-4.976-13.721-6.5c-.281-1.358,4.8-1.837,10.257-2.465.686-.078,1.375-.162,2.064-.247,6.158-.773,10.666-4.746,16.26-8.009,5.3-3.091,13.2-15.684,13.2-15.684l14.111,1.118s-7.4,11.248-10.269,16.137c-1.684,2.877-1.595,6.681-1.385,9.618A18.109,18.109,0,0,1,1434.263,7024.878Z" fill="#fa997b"/>
        <path id="Path_641" data-name="Path 641" d="M1419.653,7026.9c-7.23-1.767-5.512.333-15.8-.806s-13.408-4.976-13.721-6.5c-.281-1.358,4.8-1.837,10.257-2.465l.051.1a29.006,29.006,0,0,0,14.737,4.581c6.981.17,14.375-1.831,19.2-1.752a18.109,18.109,0,0,1-.108,4.826C1433.354,7029.419,1426.883,7028.662,1419.653,7026.9Z" fill="#c65447"/>
        <path id="Path_642" data-name="Path 642" d="M1488.343,6934.644l30.413,81.849a27.868,27.868,0,0,0,9.152-.838,39.434,39.434,0,0,0,8.846-4.308s-7.545-78.589-21.377-94.936S1488.343,6934.644,1488.343,6934.644Z" fill="#d1653f"/>
        <path id="Path_643" data-name="Path 643" d="M1608.636,6901.532s-87.391-29.55-106.881-23.263-78.009,122.715-78.009,122.715a11.3,11.3,0,0,0,4.925,3.109c3.354,1.257,11.47,1.177,11.47,1.177s52.812-45.268,59.1-58.471,8.8-25.777,15.089-24.52,81.1,30.807,98.08,13.2,12.535-40.476,12.535-40.476Z" fill="#e27647"/>
        <path id="Path_644" data-name="Path 644" d="M1555.232,6764.064c.717.786,1.747,2.2,2.395,1.8,18.174,11.932,53.011,51.775,52.321,59.326,0,0,12.271-20.812,12.481-20.936,0,0,9.764-6.8,13.167-15.466,2.5-6.363-4.937-10.131-3.059-20.235,2.589-13.925-8.381-16.392-15.529-16.942-6.118-.47-12.335-11.761-11.766-21.1s-18.548-43.779-48.355-31.946C1536.182,6706.785,1539.841,6749.9,1555.232,6764.064Z" fill="#404041"/>
        <path id="Path_645" data-name="Path 645" d="M1558.7,6766.461c-.091.041,8.776,4.645,15.445,2.82,6.274-1.71,10.372-9.844,10.286-9.863-2.657-.527-3.423-4.178-3.367-19.865l-1.2.236-20.195,4s.46,6.356.474,12.342C1560.158,6761.156,1559.853,6765.924,1558.7,6766.461Z" fill="#fa997b"/>
        <path id="Path_646" data-name="Path 646" d="M1559.671,6743.787s.46,6.356.474,12.342c11.3-.318,17.273-10.626,19.721-16.34Z" fill="#ef5d23"/>
        <path id="Path_647" data-name="Path 647" d="M1581.951,6737.59s5.922-9.356,7.343-17.357c1.014-5.712-1.895-26.886-23.172-23.836a28.906,28.906,0,0,0-11.988,4.532c-4.62,3.12-11.286,9.856-3.832,28.332l1.937,6.242Z" fill="#404041"/>
        <path id="Path_648" data-name="Path 648" d="M1555.9,6749.457s26.735.441,26.754-16.213,3.482-27.813-13.588-28.8-20.393,5.365-21.751,10.923S1548.944,6748.913,1555.9,6749.457Z" fill="#fa997b"/>
        <path id="Path_649" data-name="Path 649" d="M1559.212,6710.979s10.238,1.384,17.914,14.951c11-1.238,9.807-10.345,9.807-10.345s-5.122-18.41-31.421-12.293C1556.214,6710.379,1559.212,6710.979,1559.212,6710.979Z" fill="#404041"/>
        <path id="Path_650" data-name="Path 650" d="M1560.249,6711.219c-4.741-2.075-12.687,9.189-12.824,15.681,0,0-6.837-14.6.683-20.792C1559.214,6696.967,1563.265,6712.54,1560.249,6711.219Z" fill="#404041"/>
        <path id="Path_651" data-name="Path 651" d="M1618.238,6838.389c2.637-11.058-6.334-32.515-15.7-50.279-8.5-16.1-17.315-29.161-18.107-28.692-22.409,13.3-24.433,2.243-24.433,2.243s-20.355,2.7-26.119,12.625c-7.972,13.72-16.653,54.89-25.183,54.282-3.915-.281-43.316-15.09-43.316-15.09s-6.564,6.149-5.307,13.694c0,0,19.454,13.028,35.906,21.34,8.7,4.4,16.565,7.473,20.262,6.6,7.494-1.764,19.2-19.138,25.527-29.366.014-.024.028-.045.042-.068,8.074,45.7-2.9,56.107,2.653,60.927,5.869,5.088,14.252-2.424,32.7,5.57,12.1,5.248,28.884,12.834,40.185,14.155,5.927.7,10.349-.335,11.791-4.338C1633.328,6890.361,1613.208,6859.468,1618.238,6838.389Z" fill="#312e99"/>
        <path id="Path_652" data-name="Path 652" d="M1629.136,6901.993c-1.442,4-5.864,5.034-11.791,4.338-7.822-3.407-41.61-16.5-41.233-25.368.562-13.132,6.5-13.551,2.306-29.76-3.367-13.015,27.854-37.215,32.834-42.476,9.364,17.765,9.623,18.6,6.986,29.662C1613.208,6859.468,1633.328,6890.361,1629.136,6901.993Z" fill="#26267f"/>
        <path id="Path_653" data-name="Path 653" d="M1541.77,6825.747c-6.326,10.228-18.033,27.6-25.527,29.366-3.7.872-11.561-2.2-20.262-6.6a52.624,52.624,0,0,0,18.514,1.014c6.5-.629,8.383-8.593,18.652-20.539C1539.808,6821.241,1541.443,6823.19,1541.77,6825.747Z" fill="#312e99"/>
        <g id="Group_259" data-name="Group 259">
          <path id="Path_654" data-name="Path 654" d="M1563.519,6849.919c-.824-.509-2.428-.311-3.591-.067v-1.683a8.863,8.863,0,0,0-.071-1.1h-17.433a8.863,8.863,0,0,0-.071,1.1v3.422a8.777,8.777,0,0,0,15.377,5.8h0s4.147-1.021,5.449-2.567S1564.9,6850.773,1563.519,6849.919Zm-.921,3.163c-.44,1.137-2.417,1.749-3.393,1.987a8.7,8.7,0,0,0,.7-2.892,2.568,2.568,0,0,1,2.249-1.18C1562.779,6851.11,1563.156,6851.642,1562.6,6853.082Z" fill="#58595b"/>
          <rect id="Rectangle_376" data-name="Rectangle 376" width="7.173" height="1.074" transform="translate(1547.548 6859.612)" fill="#404041"/>
        </g>
        <path id="Path_655" data-name="Path 655" d="M1573.073,6850.888s-5.659-4.4-11-3.353-7.965,4.716-7.754,6.392,3.038,6.393,7.125,6.812,15.719-2.515,15.719-2.515Z" fill="#fa997b"/>
        <path id="Path_656" data-name="Path 656" d="M1584.433,6759.418s21.79,1.343,29.334,11.864c10.619,14.811,29.062,75.275,24.032,89.107,0,0-20.682,2.179-35.459,2.179-7.711,0-30.839-2.458-30.839-2.458s-1.606-7.51.629-11.143,38.563-9.5,40.24-11.177-20.959-32.695-20.959-37.725S1584.433,6759.418,1584.433,6759.418Z" fill="#312e99"/>
      </g>
      <path id="Path_657" data-name="Path 657" d="M1574.307,6866.947H1277.874a5.765,5.765,0,0,0-5.749,5.748v7.5a5.764,5.764,0,0,0,5.749,5.748h143.233v145.238c-25.2,1.009-46.66,9.656-55.412,21.415h120.4c-8.686-11.8-29.817-20.4-55.021-21.413v-145.24h143.233a5.765,5.765,0,0,0,5.749-5.748v-7.5A5.766,5.766,0,0,0,1574.307,6866.947Z" fill="#603813"/>
      <g id="Group_261" data-name="Group 261">
        <path id="Path_658" data-name="Path 658" d="M1410.6,6842.46l-.265,6.05-.552,12.648-.254,5.825h-16.052l-.364-5.825-.787-12.648-.377-6.05Z" fill="#c45446"/>
        <path id="Path_659" data-name="Path 659" d="M1410.911,6838.373H1391.9l-.784,4.088h20.333Z" fill="#a6a8ab"/>
        <path id="Path_660" data-name="Path 660" d="M1410.34,6848.511l-.552,12.648h-16.67l-.787-12.648Z" fill="#e37970"/>
      </g>
      <g id="Group_263" data-name="Group 263">
        <path id="Path_661" data-name="Path 661" d="M1439.876,6844.193l-.111,2.487-.081,1.83-.507,11.651-.045,1-.253,5.825h-16.054l-.364-5.825-.061-1-.727-11.651-.115-1.83-.2-3.3.045-.1s3.742-.679,5.989.751,4.7-1.364,6.74-.547,2.181,1.838,3.815,1.16A7.969,7.969,0,0,1,1439.876,6844.193Z" fill="#e37970"/>
        <path id="Path_662" data-name="Path 662" d="M1439.949,6842.46l-.073,1.732-.111,2.487-.082,1.83-.507,11.65-.045,1-.253,5.826h-16.054l-.364-5.826-.061-1-.727-11.65-.115-1.83-.2-3.3-.058-.915Z" fill="#e2995c"/>
        <path id="Path_663" data-name="Path 663" d="M1440.046,6842.458c0-.1.007-.19.007-.286a9.344,9.344,0,1,0-18.687,0c0,.1,0,.191.007.286Z" fill="#f1f1f2"/>
        <g id="Group_262" data-name="Group 262">
          <path id="Path_664" data-name="Path 664" d="M1429.091,6865.5l-.817-.1c.051-.513,2.664-35.078,3.071-37.382a4.442,4.442,0,0,1,3.009-3.316l.045-.011,13.072-2.315.142.8-13.047,2.311a3.609,3.609,0,0,0-2.417,2.669C1431.748,6830.436,1429.1,6865.379,1429.091,6865.5Z" fill="#c45446"/>
        </g>
        <path id="Path_665" data-name="Path 665" d="M1439.765,6846.68l-.082,1.83-.507,11.65H1422.4l-.727-11.65-.115-1.83Z" fill="#cd8b3a"/>
      </g>
      <g id="Group_264" data-name="Group 264">
        <path id="Path_666" data-name="Path 666" d="M1362.736,6856.777c.063-.188,0-3.535,5.641-4.744s3.949-4.03,3.949-4.03,8.211,4.011,6.582,8.774S1362.736,6856.777,1362.736,6856.777Z" fill="#f1f1f2"/>
        <path id="Path_667" data-name="Path 667" d="M1379.037,6866.984h-16.564L1359.639,6855h21.868Z" fill="#e2995c"/>
      </g>
    </g>
    <g id="Group_271" data-name="Group 271">
      <g id="Group_266" data-name="Group 266">
        <path id="Path_668" data-name="Path 668" d="M1765.679,7017.763c-7.611-5.352-16.519-42.654-17.05-64.871-.273-11.381-3.637-16.122-6.6-20.306-2.837-4-5.287-7.452-3.86-15.38,2.727-15.155-4.443-21.7-4.516-21.759l.829-.947c.32.278,7.788,7.026,4.926,22.928-1.334,7.408.864,10.507,3.647,14.431,2.921,4.115,6.555,9.237,6.838,21,.569,23.843,9.676,59.063,16.514,63.873Z" fill="url(#linear-gradient)"/>
      </g>
      <g id="Group_267" data-name="Group 267">
        <path id="Path_669" data-name="Path 669" d="M1768.527,7020.529a16.281,16.281,0,0,1-3.218-.349c-2.935-.594-4.857-2.141-5.717-4.6-2.052-5.867,2.7-15.4,6.56-19.994a29.328,29.328,0,0,0,5.833-18.909c-.116-1.834-.3-3.53-.473-5.029-.486-4.328-.836-7.458,1.023-9.546,1.639-1.842,4.8-2.638,10.578-2.666,10.13-.047,14.134-4.241,17.352-7.612a18.346,18.346,0,0,1,4.227-3.637c5.047-2.757,10.394-3.163,12.714-.964,1.1,1.044,2.031,3.089.207,6.9a26.7,26.7,0,0,1-5.567,7.465c-2.339,2.386-3.883,3.961-3.079,7.1.188.737.406,1.483.625,2.228,1.561,5.341,3.331,11.4-5.81,15.5-1.94.873-3.707,1.567-5.266,2.178-6.381,2.5-10.232,4.015-14.58,13.193-.842,1.778-1.585,3.461-2.3,5.09C1778.2,7014.653,1775.612,7020.529,1768.527,7020.529Zm36.768-71.239a17.27,17.27,0,0,0-3.919,3.4c-3.382,3.542-7.592,7.951-18.257,8-5.31.026-8.285.717-9.644,2.244-1.485,1.67-1.162,4.564-.713,8.57.17,1.511.362,3.225.479,5.089a30.062,30.062,0,0,1-6.124,19.8c-3.819,4.547-8.146,13.6-6.337,18.77a5.842,5.842,0,0,0,4.778,3.782c8.609,1.74,10.985-3.646,14.922-12.571.722-1.636,1.47-3.327,2.318-5.118,4.561-9.63,8.817-11.3,15.258-13.828,1.546-.607,3.3-1.3,5.21-2.153,8.141-3.659,6.673-8.682,5.118-14-.223-.761-.445-1.519-.637-2.27-.98-3.828.953-5.8,3.4-8.294a25.265,25.265,0,0,0,5.331-7.129c.826-1.729,1.508-4.074.062-5.446-1.9-1.8-6.735-1.306-11.244,1.155Z" fill="url(#linear-gradient)"/>
      </g>
      <g id="Group_268" data-name="Group 268">
        <path id="Path_670" data-name="Path 670" d="M1765.444,7027.795l-1.256-.065c.061-1.181,1.647-29.018,12.824-37.167,12.263-8.938,16.128-18.544,17.97-24.991,2.17-7.6,13.212-9.627,13.682-9.71l.218,1.24c-.107.019-10.737,1.979-12.69,8.816-1.892,6.626-5.862,16.5-18.439,25.663C1767.056,6999.379,1765.459,7027.513,1765.444,7027.795Z" fill="url(#linear-gradient)"/>
      </g>
      <g id="Group_269" data-name="Group 269">
        <path id="Path_671" data-name="Path 671" d="M1766.275,7034.348c-1.575,0-3.668-1.075-6.544-3.329l-.122-.1-.064-.14c-.153-.337-15.568-33.86-31.178-44.129-9.441-6.21-4.956-13.37-.62-20.291,3.457-5.519,7.031-11.225,4.936-17.21-2.606-7.442-6.5-12-9.942-16.029-6-7.027-10.339-12.1-2.128-26.609,6.21-10.97.222-20.191-5.06-28.325-3.362-5.175-6.265-9.644-5.15-13.608.642-2.28,2.561-4.156,5.871-5.738h0a3.388,3.388,0,0,1,2.931-.017c4.794,2.089,8.8,14.284,9.236,15.651,4.191,5.468,9,5.115,13.248,4.8,2.812-.205,5.239-.383,6.887,1.258,1.516,1.509,2.071,4.409,1.745,9.126-1.064,15.38,7.173,18.4,14.44,21.056,4.211,1.54,8.188,3,9.606,6.73,1.433,3.779,0,9.429-4.5,17.786-9.81,18.19-4.7,22.22.713,26.488,4.831,3.81,9.826,7.749,4.224,21.227-5.271,12.689-5.022,26.484-4.84,36.555.145,7.972.24,13.238-2.39,14.547A2.867,2.867,0,0,1,1766.275,7034.348Zm-5.648-4.227c3.114,2.423,5.261,3.368,6.384,2.809,1.918-.956,1.819-6.447,1.692-13.4-.183-10.182-.437-24.129,4.938-37.059,5.235-12.6.826-16.075-3.843-19.757-5.58-4.4-11.352-8.952-1.041-28.075,4.319-8.009,5.727-13.328,4.432-16.741-1.213-3.2-4.758-4.493-8.86-6-7.3-2.673-16.393-6-15.264-22.323.3-4.267-.155-6.932-1.378-8.149-1.24-1.234-3.3-1.083-5.905-.894-4.363.321-9.791.718-14.409-5.385l-.066-.088-.033-.1c-.041-.13-4.124-13.041-8.572-14.979a2.156,2.156,0,0,0-1.885,0h0c-2.964,1.417-4.664,3.034-5.2,4.943-.961,3.415,1.8,7.663,4.993,12.583,5.207,8.016,11.687,18,5.1,29.629-7.776,13.739-3.891,18.289,1.99,25.172,3.512,4.11,7.49,8.767,10.173,16.431,2.3,6.556-1.611,12.792-5.057,18.294-4.383,6.995-8.168,13.038.245,18.571C1744.615,6995.838,1759.379,7027.41,1760.627,7030.121Z" fill="url(#linear-gradient)"/>
      </g>
      <path id="Path_672" data-name="Path 672" d="M1792.21,6887.944c-7.944-2.724-6.294,12.588-9.65,23.917s-37.345,4.942-23.078,33.312-18.043,9.487-8.392,34.243.839,51.233,11.329,44.5,5.894-37.91,16.8-41.613,12.69-8.025,1.888-18.094,28.3-20.069,18.653-40.4S1801.389,6891.091,1792.21,6887.944Z" fill="url(#linear-gradient)"/>
      <g id="Group_270" data-name="Group 270">
        <path id="Path_673" data-name="Path 673" d="M1766.076,7022.289c-1-4.239-9.531-41.536-1.57-46.043,7.016-3.973,6.842-19.427,5.749-34.021-.969-12.92,15.622-18.958,16.329-19.208l.421,1.186c-.164.058-16.392,5.969-15.495,17.928,1.124,14.986,1.245,30.892-6.384,35.21-6.044,3.424-.479,33.4,2.175,44.657Z" fill="#fff"/>
      </g>
      <path id="Path_674" data-name="Path 674" d="M1784.135,7009.008l-11.342,43.031h-25.347l-11.343-43.031Z" fill="url(#linear-gradient-6)"/>
    </g>
    <path id="Path_675" data-name="Path 675" d="M1239.449,6727.232s5.8-25.429,24.825-23.038c5.881-1.844-7.8-6.256-7.8-6.256l-20.738,5.647S1230.449,6729.085,1239.449,6727.232Z" fill="#404041"/>
    <path id="Path_676" data-name="Path 676" d="M1243.181,6729.807c-4.267,3.058-8.805-8.228-4.436-9.925,3.313-1.286,4.7,3.442,4.7,3.442S1245.618,6728.06,1243.181,6729.807Z" fill="#fa997b"/>
    <path id="Path_677" data-name="Path 677" d="M1239.861,6724.991c.3.736.881,1.2,1.307,1.026s.533-.907.236-1.647-.884-1.2-1.308-1.024S1239.563,6724.253,1239.861,6724.991Z" fill="#ef5d23"/>
    <path id="Path_678" data-name="Path 678" d="M1579.554,6732.591c-5.246.207-2.827-11.714,1.754-10.728,3.475.748,2.032,5.46,2.032,5.46S1582.549,6732.473,1579.554,6732.591Z" fill="#fa997b"/>
    <path id="Path_679" data-name="Path 679" d="M1579.43,6726.743c-.158.778.077,1.484.527,1.576s.944-.465,1.1-1.245-.082-1.484-.53-1.575S1579.587,6725.963,1579.43,6726.743Z" fill="#ef5d23"/>
  </g>
  <path id="Path_680" data-name="Path 680" d="M1822.563,7065.266H1078.185v-13.61h744.38v13.609Z" transform="translate(-1078.184 -6687.494)" fill="#417c6c"/>
</svg>
