<svg xmlns="http://www.w3.org/2000/svg" xmlns:xlink="http://www.w3.org/1999/xlink" width="708.879" height="452.662" viewBox="0 0 708.879 452.662">
  <defs>
    <clipPath id="clip-path">
      <rect id="Rectangle_366" data-name="Rectangle 366" width="198.089" height="328.78" transform="translate(1592.795 1180.375) rotate(-180)" fill="none"/>
    </clipPath>
  </defs>
  <g id="Component_3_1" data-name="Component 3 – 1" transform="translate(0 1.382)">
    <g id="Group_108" data-name="Group 108" transform="translate(-1095.934 -788.115)">
      <path id="Path_244" data-name="Path 244" d="M1265.846,1238.013s-93.309-24.39-81.683-163.24,151.675-79.823,234.584-163.892,81.757-160.087,207.094-102.849,13.544,202.567,26.064,234.541,79.6,71.988,76.02,114.138-32.2,76.759-50.978,81.365l-411.1-.063Z" fill="#f4c9c6"/>
      <path id="Path_245" data-name="Path 245" d="M1255.371,1238.013h0s-93.309-24.39-81.683-163.24,187.385-50.4,245.275-153.311c53.7-95.455,71.065-170.668,196.4-113.43s26.065,164.294,26.065,234.541c0,34.337,86.633,44.479,86.633,91.982,0,61.4-35.072,80.218-61.591,103.521" fill="none" stroke="#b06bc1" stroke-miterlimit="10" stroke-width="2.857" style="mix-blend-mode: multiply;isolation: isolate"/>
    </g>
    <path id="Path_246" data-name="Path 246" d="M1804.813,1238.076H1095.935v-12.961h708.879v12.96Z" transform="translate(-1095.934 -788.115)" fill="#262261"/>
    <g id="Group_110" data-name="Group 110" transform="translate(-1095.934 -788.115)">
      <g id="Group_109" data-name="Group 109">
        <path id="Path_247" data-name="Path 247" d="M1283.9,975.879l.748-13.639h14.789l4.337,15.882Z" fill="#fff"/>
        <path id="Path_248" data-name="Path 248" d="M1240.1,1159.205l-11.18,48.231-15.462,14.156,25.712-4.31-1.156-10.545,25.713-48.361Z" fill="#fa997b"/>
        <path id="Path_249" data-name="Path 249" d="M1311.794,1158.376l-2.513,49.06,15.462,14.156-25.712-4.31,1.156-10.545-6.551-48.361Z" fill="#fa997b"/>
        <path id="Path_250" data-name="Path 250" d="M1298.426,1210.175c-1.245,9.221,1.492,15.049,1.492,15.049h2.358l.7-6.837,8.856,6.891,19.013-.047v-2.148s-6.63-4.561-7.343-3.1C1321.3,1224.474,1299.128,1204.982,1298.426,1210.175Z" fill="#e2474b"/>
        <path id="Path_251" data-name="Path 251" d="M1328.748,1168.566l-111.511-1.642s44.86-101.342,50.537-124.148a85.36,85.36,0,0,1,4.7-14.319c3.816-8.444,6.855-8.4,6.855-8.4l35.44.344s6.474,3.462,9.741,19.691c.1.517.206,1.043.3,1.586C1327.963,1059.266,1328.748,1168.566,1328.748,1168.566Z" fill="#e27647"/>
        <path id="Path_252" data-name="Path 252" d="M1239.772,1210.175c1.245,9.221-1.488,15.049-1.488,15.049h-2.359l-.7-6.837-8.71,6.891-19.158-.047v-2.148s6.629-4.561,7.343-3.1C1216.9,1224.474,1239.071,1204.982,1239.772,1210.175Z" fill="#e2474b"/>
        <path id="Path_253" data-name="Path 253" d="M1295.922,908.267a21.475,21.475,0,0,1,14.443,10.334c5.13,9.015,4.423,10.43,1.923,16s-3.864,8.567-.127,12.082c2.4,2.253,1.638,7.387.078,9.058-2.23,2.389-6.241,7.282-5.611,9.969,2.273,9.7,8.768,12.92,8.768,12.92s-51.1,13.311-64.933,4.734c-5.962-3.7-12.233-25.042,4.335-27.725,3.116-.505,10.9-6.2,9.64-9.622-2.091-5.7-1.606-9.208.435-11.853,3.724-4.827,6.38-4.387,6.334-10.3C1271.183,920.694,1276.239,903.4,1295.922,908.267Z" fill="#404041"/>
        <path id="Path_254" data-name="Path 254" d="M1308.036,956.512s-13.673-5.149-17.872-5.359.138,5.359.138,5.359l15.124,6.767Z" fill="#f9b5a0"/>
        <path id="Path_255" data-name="Path 255" d="M1282.358,939.006s.7,17.3.043,18.213c-2.261,3.115-8.96,5.857-10.489,6.269s25,10.531,25,10.531l12.737-6.242-4.909-4.429a28.41,28.41,0,0,1-5.941-3.95c-1.814-1.873-2.7-19.477-2.7-19.477Z" fill="#fa997b"/>
        <path id="Path_256" data-name="Path 256" d="M1296.618,947.607s.643,6.815,1.125,8.589c-2.068-1.913-12.285-10.348-12.782-14.1C1288.995,945.4,1294.663,947.544,1296.618,947.607Z" fill="#ef5d23"/>
        <path id="Path_257" data-name="Path 257" d="M1282.945,940.927c-1.8-1.647-4.9-4.9-4.586-7.541s3.27-1.869,4.121-1.309c.567.372,2-12.886,2-12.886s15.793-.127,19.448,3.515c3.356,3.344,2.332,10.369.467,17.52-1.874,7.182-5.906,6.939-11.252,6.346a7.817,7.817,0,0,1-4.815-1.862Z" fill="#fa997b"/>
        <path id="Path_258" data-name="Path 258" d="M1281.349,935.751c.42.546,1.015.793,1.331.551s.232-.881-.188-1.429-1.016-.791-1.331-.549S1280.929,935.206,1281.349,935.751Z" fill="#ef5d23"/>
        <path id="Path_259" data-name="Path 259" d="M1283.023,932.675c-1.109,8.092,3.983,13.982,10.814,14.879,12.991,1.707,13.485-7.742,14.081-15.886a11.46,11.46,0,0,0-3.129-9.241c-2.254-2.282-10.569-4.3-12.325-1.254C1286.173,932.086,1283.73,927.515,1283.023,932.675Z" fill="#fa997b"/>
        <path id="Path_260" data-name="Path 260" d="M1317.066,964.611c7.492,5.938,27.345,34.852,26.829,37.436-2.637,13.208-25.76,19.364-25.76,19.364l-5.9-9.309,11.716-6.8-7.812-10.718-1.377,25.81-13.765.24s-27.183,1.366-33.878-3.912c-9.974-7.862-14.517-39.685-3.844-50.652,3.613-3.713,6.808-4.095,8.57-4.1,5.3-.008,28.519,21.5,35.072.265C1307.864,959.186,1315.04,963.005,1317.066,964.611Z" fill="#312e99"/>
        <path id="Path_261" data-name="Path 261" d="M1303.608,1031.787l17.263,2.68Z" fill="#fff"/>
        <path id="Path_262" data-name="Path 262" d="M1305.971,923.373c-8.65-5.985-18.563-.27-23.407,8.608a3.316,3.316,0,0,0-1.527-.456,6.7,6.7,0,0,0-1.618.081s-.077-12.61,3.014-14.762C1294.394,908.519,1307.369,917.292,1305.971,923.373Z" fill="#404041"/>
        <path id="Path_263" data-name="Path 263" d="M1324.507,1040.088a7.752,7.752,0,0,0-3.184,3.78c-3.2,6.581-6.686,3.651-6.686,3.651l.129-7.043h-2.525a4.4,4.4,0,0,0-5.528,2.068,8.007,8.007,0,0,1-6.686,3.992c-1,.017,1.629-22.2,1.629-22.2l-27.114.172c2.518-4.459,4.784-4.459,4.784-4.459l35.44.344S1321.24,1023.859,1324.507,1040.088Z" opacity="0.1"/>
        <path id="Path_264" data-name="Path 264" d="M1338.13,990.394s5.637,9.479,3.495,12.985a31.546,31.546,0,0,1-19.566,13.927s-3.758-13.929-3.261-14.426S1338.13,990.394,1338.13,990.394Z" fill="#312e99"/>
        <path id="Path_265" data-name="Path 265" d="M1314.635,1035.325s-3.736,11.013,0,12.193,6.687-12.193,6.687-12.193Z" fill="#2d3a64"/>
        <path id="Path_266" data-name="Path 266" d="M1300.027,1034.341s-3.737,11.014,0,12.194,6.686-12.194,6.686-12.194Z" fill="#2d3a64"/>
        <path id="Path_267" data-name="Path 267" d="M1313.708,990.879s-15.537,8.85-15.34,16.716.787,28.123.787,28.123h10.423v1.573h14.946s-2.753-19.863,0-24.779,10.794-9,10.794-9.788.551-12.33.551-12.33Z" fill="#a1c5e2"/>
        <path id="Path_268" data-name="Path 268" d="M1326.772,931.042c-2.513-.246-8.609-.923-9.518,3.476a116.225,116.225,0,0,0-1.719,15.142,2.789,2.789,0,0,0,2.218,2.89l15.147,3.129a2.79,2.79,0,0,0,3.214-1.863c1.492-4.541,4.565-14.173,4.32-15.772C1339.6,932.6,1330.75,931.432,1326.772,931.042Z" fill="#a9453e"/>
        <path id="Path_269" data-name="Path 269" d="M1322.912,951.339s-.571,8.236-2.875,10.2a15.1,15.1,0,0,1-5.739,2.787c-.59.2,2.85,6.293,2.85,6.293l18.783-3.933s-5.507-3.736-5.31-5.8,3.318-9.548,3.318-9.548Z" fill="#fa997b"/>
        <path id="Path_270" data-name="Path 270" d="M1330.275,963.624a6.476,6.476,0,0,1-10.238-2.082c-2.36-4.72-13.352-6.736-13.352-6.736l-4.177,7.142,4.12,3.758s1.77,25.566,6,27.533,24.6,1.176,24.6,1.176l-.907-15.567,8.266-.163s-3.124-14.661-6.012-16.445C1333.69,959.225,1331.407,962.459,1330.275,963.624Z" fill="#e2474b"/>
        <path id="Path_271" data-name="Path 271" d="M1334.357,977.637s2.391,7.555,2.139,12.456c-.273,5.32-2.53,8-3.6,8.879-1.364,1.124-7.209,1.97-6.755,3.6s2.356-.142,3.091.1c.358.116-6.668,3.708-3.11,5.281s11.08-5.659,11.735-7.1c.321-.7,4.172-3.461,5.418-9.183,1.305-5.993,0-14.946,0-14.946Z" fill="#fa997b"/>
        <path id="Path_272" data-name="Path 272" d="M1310.382,1009.123s5.958,1.545,9.268,0,2.875-4.324,4.3-3.818.2,3.552.2,3.552,2.009.307,7.1-3.954c.662-.555,1.531,4.465-.124,6.427a11.9,11.9,0,0,1-9.047,4.744c-4.634.11-13.351.662-13.351.662Z" fill="#fa997b"/>
        <path id="Path_273" data-name="Path 273" d="M1294.549,1006.048l-.711,14.792,20.928-.379v-13.1Z" fill="#312e99"/>
        <path id="Path_274" data-name="Path 274" d="M1332.559,970.181c.221.767,0,7.941,0,7.941l12.025.563-2.816-10.386Z" fill="#e2474b"/>
        <path id="Path_275" data-name="Path 275" d="M1332.908,953.784c1.859-.922,5.159-2.847,5.523-5.084s-2.233-2.3-3.061-2.04c-.551.171,1.4-11,1.4-11l-17.277-3.119s-3.793,9.341-3.951,15.625c-.159,6.311,2.495,8.283,7,9.055a10.7,10.7,0,0,0,5.546-.418Z" fill="#fa997b"/>
        <path id="Path_276" data-name="Path 276" d="M1319.861,936.67c-2.271-.609-5.2-2.366-3.8-6.8s6.071-3.323,8.685-2.877c12.827,2.185,16.77,7.654,15.543,12.535-.155.618-4.508,5.441-4.508,5.441l-.624-6.781S1323.572,937.666,1319.861,936.67Z" fill="#a9453e"/>
        <circle id="Ellipse_5" data-name="Ellipse 5" cx="1.821" cy="1.821" r="1.821" transform="translate(1293.06 981.54)" fill="#fff"/>
        <circle id="Ellipse_6" data-name="Ellipse 6" cx="1.821" cy="1.821" r="1.821" transform="translate(1294.131 991.594)" fill="#fff"/>
      </g>
      <path id="Path_277" data-name="Path 277" d="M1274.542,985.891s6.643,16.345,13.167,17.959c-5.941.1-12.058.044-12.058.044S1272.095,992.409,1274.542,985.891Z" fill="#242477"/>
    </g>
    <g id="Group_123" data-name="Group 123" transform="translate(-1095.934 -788.115)">
      <rect id="Rectangle_363" data-name="Rectangle 363" width="213.836" height="405.744" rx="3.672" transform="translate(1621.397 1224.898) rotate(-180)" fill="#ff5447"/>
      <rect id="Rectangle_364" data-name="Rectangle 364" width="213.836" height="405.744" rx="3.672" transform="translate(1600.669 1224.898) rotate(-180)" fill="#ff7469"/>
      <rect id="Rectangle_365" data-name="Rectangle 365" width="198.089" height="328.78" transform="translate(1593.021 1180.375) rotate(-180)" fill="#d2e9ff"/>
      <g id="Group_111" data-name="Group 111">
        <path id="Path_278" data-name="Path 278" d="M1462.413,834.512H1518a2.163,2.163,0,0,1,0,4.326h-55.587a2.163,2.163,0,0,1,0-4.326Z" fill="#e2615a"/>
        <path id="Path_279" data-name="Path 279" d="M1527.872,834.512a2.163,2.163,0,1,1-2.163,2.163A2.17,2.17,0,0,1,1527.872,834.512Z" fill="#e2615a"/>
      </g>
      <circle id="Ellipse_7" data-name="Ellipse 7" cx="11.075" cy="11.075" r="11.075" transform="translate(1482.901 1194.278)" fill="#e2615a"/>
      <path id="Path_280" data-name="Path 280" d="M1592.8,1068.966s-13.284-32-39.3-28.215-71.926,2.7-102.292-15.927-56.5-9.859-56.5-9.859v165.41H1592.8Z" fill="#64acbe" opacity="0.3"/>
      <g id="Group_119" data-name="Group 119">
        <g id="Group_118" data-name="Group 118" clip-path="url(#clip-path)">
          <g id="Group_117" data-name="Group 117">
            <path id="Path_281" data-name="Path 281" d="M1515.9,976.472c12.1,3.815,33.028-6.486,33.028-6.486s-9.438-7.082-10.494-21.774c-.018-.2-.03-.4-.039-.608-.062-1.089-.077-2.223-.038-3.4l-3.311,2.668-12.393,9.992s.635,4.926.89,13.135a25.842,25.842,0,0,0-4.729,3.326A18.942,18.942,0,0,0,1515.9,976.472Z" fill="#fa997b"/>
            <path id="Path_282" data-name="Path 282" d="M1562.349,968.42s-31.973-5.044-53.038,8.9c0,0-14.311,93.555-1.85,102.407s54.888,0,54.888,0Z" fill="#fa997b"/>
            <path id="Path_283" data-name="Path 283" d="M1519.682,1180.374h57.778s-6.714-98.588-8.631-122.587c-1.558-19.467-4.851-66.139-6.041-83.083-.275-3.949-.439-6.284-.439-6.284l-13.793-2.35-23.691,30.705s-3.747,81.884-3.611,94.79-1.495,63.193-1.572,71.648S1519.682,1180.374,1519.682,1180.374Z" fill="#e5f1ff"/>
            <path id="Path_284" data-name="Path 284" d="M1524.863,996.776l-5.18,183.6h-27.222s1.26-120.754,1.352-131.848-2.958-58.887,5.537-66.3c7.1-6.2,24.189-12.22,24.189-12.22Z" fill="#e5f1ff"/>
            <path id="Path_285" data-name="Path 285" d="M1523.364,965.766s-7.76,5.347-7.469,7.267a36.014,36.014,0,0,0,1.357,4.955l4.747-.964-4.005,2.818s4.542,13.247,6.869,16.934Z" fill="#e5f1ff"/>
            <path id="Path_286" data-name="Path 286" d="M1566.042,1020.455c-3.4-20.882-42.659,9.976-39.4,37.366,6.038,50.672,31.75,107.171,50.813,122.553Z" fill="#a7cbff" opacity="0.2"/>
            <path id="Path_287" data-name="Path 287" d="M1538.43,948.212a1.465,1.465,0,0,1,.175-.561l-.214-.047-3.349-.727-12.393,9.992s.536,4.653.919,13.157C1523.6,969.983,1536.339,962.931,1538.43,948.212Z" fill="#ef5d23"/>
            <path id="Path_288" data-name="Path 288" d="M1517.6,959.905s21.577-.6,20.994-14.035,1.809-22.554-11.992-22.736-16.252,5.059-17.148,9.589S1511.972,959.716,1517.6,959.905Z" fill="#fa997b"/>
            <path id="Path_289" data-name="Path 289" d="M1538.6,947.651a4.975,4.975,0,0,1-5.034-2.225c-2.225-2.967-5.934-14.39-10.829-15.131s-11.349,2.892-13.43.816c-3.033-3.027-7.319-5.363-6.946-7.981,1.241-8.719,24.282-17.312,33.974-9.3S1549.424,933.558,1538.6,947.651Z" fill="#a9453e"/>
            <g id="Group_112" data-name="Group 112">
              <path id="Path_290" data-name="Path 290" d="M1509.464,995.617c.455-8.318,4.995-21.871,5.035-22l-1.3.575c-.163.541-3.772,12.911-4.236,21.407Z" fill="#1f3765"/>
            </g>
            <g id="Group_113" data-name="Group 113">
              <path id="Path_291" data-name="Path 291" d="M1540.888,1020.455c.455-.473,11.562-11.156,9.193-18.639a7.467,7.467,0,0,0-4.426-4.914c-1.682-.612-5.607-1.251-7.635.025-3.7,2.328-5.565,8.763-6.114,19.464l.451.023c.651-12.693,3.924-17.289,6.368-18.325,3.074-1.3,8.466-.762,10.162,4.154,1.168,3.387-1.124,8.122-3.252,11.373-2.362,3.61-4.936,6.811-4.963,6.839Z" fill="#1f3765"/>
            </g>
            <path id="Path_292" data-name="Path 292" d="M1539.734,1021.609h0a1.1,1.1,0,0,0,1.547,0l.76-.761a1.1,1.1,0,0,0,0-1.547h0a1.1,1.1,0,0,0-1.547,0l-.76.761A1.1,1.1,0,0,0,1539.734,1021.609Z" fill="#ff7469"/>
            <path id="Path_293" data-name="Path 293" d="M1532.091,1018.434h0a1.1,1.1,0,0,0,1.094-1.094v-1.075a1.1,1.1,0,0,0-1.094-1.1h0a1.1,1.1,0,0,0-1.094,1.1v1.075A1.1,1.1,0,0,0,1532.091,1018.434Z" fill="#ff7469"/>
            <path id="Path_294" data-name="Path 294" d="M1512.278,995.617a2.967,2.967,0,1,0-2.967,2.967A2.967,2.967,0,0,0,1512.278,995.617Z" fill="#1f3765"/>
            <path id="Path_295" data-name="Path 295" d="M1510.708,995.617a1.508,1.508,0,1,0-1.508,1.508A1.509,1.509,0,0,0,1510.708,995.617Z" fill="#f1726b"/>
            <g id="Group_114" data-name="Group 114">
              <path id="Path_296" data-name="Path 296" d="M1522.757,1180.374a303.539,303.539,0,0,0,1.349-34.751c-.228-6.792-.035-14.776.151-22.5.265-11.013.857-21.621-.033-28.536-1.523-11.836-1.219-65.633-.594-71.463.609-5.684.027-11.92-.537-13.8-.575-1.915,1.887-12.407,1.914-12.513l-.287-.075c-.114.44-2.77,10.772-2.171,12.767a43.21,43.21,0,0,1,.786,13.589c-.625,5.836-1.822,59.623-.3,71.47.887,6.894,1.188,17.552.923,28.554-.186,7.726-.379,15.715-.151,22.514.539,16.054-2.187,34.557-2.206,34.742Z" fill="#a7cbff"/>
            </g>
            <path id="Path_297" data-name="Path 297" d="M1474.912,1032.69s-7.31,12.585.355,15.9,8.493-.178,8.493-.178Z" fill="#e5f1ff"/>
            <path id="Path_298" data-name="Path 298" d="M1536.166,1040.442a10.618,10.618,0,0,0-1.031,4.5,30.669,30.669,0,0,0,1.179,5.588s45.134,9.607,53.9,1.575c9.417-8.622-8.056-73.4-15.532-79.742-3.222-2.733-10.017-4.4-16.289-5.4-3.456-.552-6.753-.9-9.206-1.11-2.528-.219-4.166-.29-4.166-.29l1.018,3.761L1550,983.954l4.613,17.06s13.8,28.4,14.242,31.067S1536.166,1040.442,1536.166,1040.442Z" fill="#e5f1ff"/>
            <path id="Path_299" data-name="Path 299" d="M1529.884,992.238s11.51-5.011,19.782-9.577c5.4-2.981,8.165-8.563,8.731-15.7-3.456-.552-6.753-.9-9.206-1.11-.4.128-.635.214-.635.214l-2.513,3.257Z" fill="#a7cbff" opacity="0.2"/>
            <path id="Path_300" data-name="Path 300" d="M1524.863,996.776l17.927-34.186s6.686,1.356,8.931,3.46c0,0-1.141,10.281-2.031,12.556,0,0-3.461-.4-3.956-.1a19.92,19.92,0,0,0,2.176,2.868S1532.327,988.638,1524.863,996.776Z" fill="#e5f1ff"/>
            <g id="Group_115" data-name="Group 115">
              <path id="Path_301" data-name="Path 301" d="M1545.6,998.089c1.224-2.706,12.02-25.762,9.272-31.629l-1.056-.131c2.082,4.445-5.4,24.487-8.651,31.668Z" fill="#1f3765"/>
            </g>
            <path id="Path_302" data-name="Path 302" d="M1521.815,1018.049a1.439,1.439,0,1,0-1.44,1.439A1.439,1.439,0,0,0,1521.815,1018.049Z" fill="#a7cbff" opacity="0.5"/>
            <path id="Path_303" data-name="Path 303" d="M1521.815,1098.668a1.439,1.439,0,1,0-1.44,1.439A1.439,1.439,0,0,0,1521.815,1098.668Z" fill="#a7cbff" opacity="0.5"/>
            <path id="Path_304" data-name="Path 304" d="M1521.088,1061.824a1.439,1.439,0,1,0-1.439,1.439A1.439,1.439,0,0,0,1521.088,1061.824Z" fill="#a7cbff" opacity="0.5"/>
            <path id="Path_305" data-name="Path 305" d="M1521.088,1133.7a1.439,1.439,0,1,0-1.439,1.44A1.44,1.44,0,0,0,1521.088,1133.7Z" fill="#a7cbff" opacity="0.5"/>
            <path id="Path_306" data-name="Path 306" d="M1537.008,973.616s-4.988,2.454-13.05.935l.905,22.225Z" fill="#2a4e96"/>
            <g id="Group_116" data-name="Group 116">
              <path id="Path_307" data-name="Path 307" d="M1505.494,999.909l-46.679,4.182,28.482,50.6,43.937-2.523Z" fill="#8a5d3b"/>
              <path id="Path_308" data-name="Path 308" d="M1501.194,999.676s-.021-7.152-3.973-6.658-5.147,7.679-5.147,7.679Z" fill="#a7cbff"/>
              <path id="Path_309" data-name="Path 309" d="M1459.12,1003.453l46.679-4.182,25.74,52.256-.315.649-25.74-52.256L1458.8,1004.1Z" fill="#a87c4f"/>
              <path id="Path_310" data-name="Path 310" d="M1497.221,993.018s-6.6,3.239-4.265,13.615,5.235,16.068,3.542,22.206l-31.444,2.886s3.417-8.159-.379-16.418-1.1-17.7,2.385-18.517Z" fill="#e5f1ff"/>
            </g>
            <path id="Path_311" data-name="Path 311" d="M1481.517,1045.27s4.78-5.744,3.791-9.9-4.549-5.114-6.725-3.645-5.341,4.832-4.747,7.4S1479.11,1046.464,1481.517,1045.27Z" fill="#fa997b"/>
            <path id="Path_312" data-name="Path 312" d="M1538.553,1041.851s-8.1-3.56-11.807-2.522-8.712,1.781-9.1,3.115,2.668,6.279,7.22,6.528,12.564,2.374,14.492,0S1538.553,1041.851,1538.553,1041.851Z" fill="#fa997b"/>
          </g>
        </g>
      </g>
      <g id="Group_121" data-name="Group 121">
        <path id="Path_313" data-name="Path 313" d="M1369.576,931.45h102.608a4.379,4.379,0,0,1,4.366,4.367v44.391a4.379,4.379,0,0,1-4.366,4.366h-5.822v11.643l-18.15-11.643h-78.636a4.379,4.379,0,0,1-4.367-4.366V935.817A4.38,4.38,0,0,1,1369.576,931.45Z" fill="#fff"/>
        <g id="Group_120" data-name="Group 120" opacity="0.4">
          <path id="Path_314" data-name="Path 314" d="M1379.764,949.28H1462a2.919,2.919,0,0,0,2.91-2.911h0a2.919,2.919,0,0,0-2.91-2.911h-82.232a2.92,2.92,0,0,0-2.912,2.911h0A2.92,2.92,0,0,0,1379.764,949.28Z" fill="#a6a8ab"/>
          <path id="Path_315" data-name="Path 315" d="M1379.764,959.831H1462a2.918,2.918,0,0,0,2.91-2.91h0a2.919,2.919,0,0,0-2.91-2.911h-82.232a2.92,2.92,0,0,0-2.912,2.911h0A2.92,2.92,0,0,0,1379.764,959.831Z" fill="#a6a8ab"/>
          <path id="Path_316" data-name="Path 316" d="M1379.764,970.383H1462a2.919,2.919,0,0,0,2.91-2.91h0a2.919,2.919,0,0,0-2.91-2.911h-82.232a2.92,2.92,0,0,0-2.912,2.911h0A2.92,2.92,0,0,0,1379.764,970.383Z" fill="#a6a8ab"/>
        </g>
      </g>
      <g id="Group_122" data-name="Group 122">
        <path id="Path_317" data-name="Path 317" d="M1413.021,1134.111h43.965a2.166,2.166,0,0,1,0,4.332h-43.965a2.166,2.166,0,0,1,0-4.332Z" fill="#fff"/>
        <path id="Path_318" data-name="Path 318" d="M1413.021,1143.079h43.965a2.166,2.166,0,0,1,0,4.332h-43.965a2.166,2.166,0,0,1,0-4.332Z" fill="#fff"/>
        <path id="Path_319" data-name="Path 319" d="M1413.021,1153.048h43.965a2.166,2.166,0,1,1,0,4.331h-43.965a2.166,2.166,0,1,1,0-4.331Z" fill="#fff"/>
        <path id="Path_320" data-name="Path 320" d="M1413.021,1163.016h43.965a2.166,2.166,0,0,1,0,4.332h-43.965a2.166,2.166,0,0,1,0-4.332Z" fill="#fff"/>
        <path id="Path_321" data-name="Path 321" d="M1413.021,1087h43.965a2.173,2.173,0,0,1,2.166,2.166h0a2.173,2.173,0,0,1-2.166,2.166h-43.965a2.173,2.173,0,0,1-2.166-2.166h0A2.173,2.173,0,0,1,1413.021,1087Z" fill="#fff"/>
        <path id="Path_322" data-name="Path 322" d="M1413.021,1095.964h43.965a2.172,2.172,0,0,1,2.166,2.165h0a2.172,2.172,0,0,1-2.166,2.166h-43.965a2.172,2.172,0,0,1-2.166-2.166h0A2.172,2.172,0,0,1,1413.021,1095.964Z" fill="#fff"/>
        <path id="Path_323" data-name="Path 323" d="M1413.021,1105.932h43.965a2.173,2.173,0,0,1,2.166,2.166h0a2.173,2.173,0,0,1-2.166,2.166h-43.965a2.173,2.173,0,0,1-2.166-2.166h0A2.173,2.173,0,0,1,1413.021,1105.932Z" fill="#fff"/>
        <path id="Path_324" data-name="Path 324" d="M1413.021,1115.9h43.965a2.172,2.172,0,0,1,2.166,2.165h0a2.173,2.173,0,0,1-2.166,2.166h-43.965a2.173,2.173,0,0,1-2.166-2.166h0A2.172,2.172,0,0,1,1413.021,1115.9Z" fill="#fff"/>
      </g>
      <path id="Rectangle_367" data-name="Rectangle 367" d="M.3,0H17.08a.3.3,0,0,1,.3.3V17.079a.3.3,0,0,1-.3.3H.3a.3.3,0,0,1-.3-.3V.3A.3.3,0,0,1,.3,0Z" transform="translate(1482.183 1104.374) rotate(-180)" fill="#fff"/>
      <path id="Rectangle_368" data-name="Rectangle 368" d="M.3,0H17.08a.3.3,0,0,1,.3.3V17.079a.3.3,0,0,1-.3.3H.3a.3.3,0,0,1-.3-.3V.3A.3.3,0,0,1,.3,0Z" transform="translate(1482.183 1151.489) rotate(-180)" fill="#fff"/>
      <path id="Path_325" data-name="Path 325" d="M1467.751,1142.06l3.195,7.005,7.731-12.218-8.25,6.939Z" fill="#f1726b"/>
      <path id="Path_326" data-name="Path 326" d="M1467.751,1094.788l3.195,7.005,7.731-12.218-8.25,6.939Z" fill="#f1726b"/>
    </g>
    <path id="Path_327" data-name="Path 327" d="M1124.944,1225.116h46.495c2.492-2.113-1.724-6.913-6.129-7.236a27.18,27.18,0,0,0-7.1.84c-.64-8.5-4.294-46.7-18.064-45.166-15.484,1.719,0,16.824,4.377,25.767a212.747,212.747,0,0,1,8.225,20.606c-1.257.272-2.558.539-3.887.784-2.053-6.3-9.689-27.5-19.4-26.262-11.4,1.446-6.819,9.944,1.262,14.989,5.929,3.709,13.209,8.982,16.668,11.529a49.372,49.372,0,0,1-9.093.728C1130.339,1221.506,1126.451,1223.853,1124.944,1225.116Z" transform="translate(-1095.934 -788.115)" fill="#652d90"/>
    <path id="Path_328" data-name="Path 328" d="M1535.529,940.5c-1.014,2.341-3.149,3.594-4.762,2.806s-2.11-3.335-1.095-5.675,3.14-3.592,4.767-2.8S1536.544,938.167,1535.529,940.5Z" transform="translate(-1095.934 -788.115)" fill="#fa997b"/>
    <path id="Path_329" data-name="Path 329" d="M1531.457,939.264c-.352.687-.318,1.41.079,1.614s1.006-.187,1.361-.875.314-1.411-.081-1.614S1531.81,938.575,1531.457,939.264Z" transform="translate(-1095.934 -788.115)" fill="#ef5d23"/>
  </g>
</svg>
