<svg id="Component_13_1" data-name="Component 13 – 1" xmlns="http://www.w3.org/2000/svg" xmlns:xlink="http://www.w3.org/1999/xlink" width="757.498" height="423.239" viewBox="0 0 757.498 423.239">
  <defs>
    <linearGradient id="linear-gradient" x1="-0.083" y1="0.507" x2="1.264" y2="0.507" gradientUnits="objectBoundingBox">
      <stop offset="0" stop-color="#f4b073"/>
      <stop offset="1" stop-color="#e2995c"/>
    </linearGradient>
    <linearGradient id="linear-gradient-2" x1="0.154" y1="0.412" x2="1.194" y2="0.412" gradientUnits="objectBoundingBox">
      <stop offset="0" stop-color="#e09e4f"/>
      <stop offset="1" stop-color="#cd8b3a"/>
    </linearGradient>
    <linearGradient id="linear-gradient-3" x1="0.23" y1="0.398" x2="1.58" y2="0.398" xlink:href="#linear-gradient"/>
  </defs>
  <g id="Group_408" data-name="Group 408" transform="translate(-3094.295 -3550.333)">
    <g id="Group_388" data-name="Group 388">
      <path id="Path_883" data-name="Path 883" d="M3124.865,3972.96s-42.758-145.288,19.794-232.041c80.682-111.9,184.944-18.364,224.066-21.091s41.326-110.091,158.217-122.914c90.381-9.916,238.813-10.7,207.147,164.714-24.076,133.363,109.875,64.284,83.793,211.614" fill="none" stroke="#80c4b2" stroke-miterlimit="10" stroke-width="3.084"/>
      <path id="Path_884" data-name="Path 884" d="M3143.985,3972.968s-41.585-141.4,19.25-225.826c78.467-108.9,179.866-17.872,217.915-20.527s40.19-107.141,153.873-119.621c87.9-9.65,232.256-10.411,201.459,160.3-23.415,129.791,106.859,62.562,81.493,205.946Z" fill="#bbefe3"/>
      <g id="Group_378" data-name="Group 378">
        <g id="Group_372" data-name="Group 372">
          <path id="Path_885" data-name="Path 885" d="M3193.347,3805.615l2.831,2.3s7.744-2.777,9.492,6.425c0,0,.465,3.923-2.02,3.93s-1.459-.429-4.977-.326-6.434-1.752-6.949-4.606l-1.682-2.419Z" fill="#ff8e4b"/>
          <path id="Path_886" data-name="Path 886" d="M3193.026,3810.549c2.259-2.358,2.077-4.1,2.077-4.1s-26.153-21.412-28.8-23.157c-1.808-1.188-21.068-18.263-30.071-28.673-4.466-5.163-10-3.16-16.327-1.344l-5.212,1.5c-6.293,1.806-7.93,10.608-2.766,14.885,14.543,12.046,38.736,25.595,43.263,28.443,11.237,7.069,33.233,15.469,33.233,15.469A13.941,13.941,0,0,0,3193.026,3810.549Z" fill="#003b72"/>
        </g>
        <path id="Path_887" data-name="Path 887" d="M3222.872,3942.1s6.346,4.756,16.072,2.243c0,0,7.841-1.787,9.561,2.124,0,0-12.026,6.109-15.069,7.78a36.442,36.442,0,0,0-6.379,4.783,3.154,3.154,0,0,1-4.566-.352c-.529-.651-1.134-1.425-1.8-2.324-1.854-2.513-6.175-10.63-6.175-10.63Z" fill="#0c3563"/>
        <path id="Path_888" data-name="Path 888" d="M3226.6,3939.684s-3.866,8.912-12.786,7.273c0,0-18.2-15.033-30.691-30.65a69.3,69.3,0,0,1-9.537-14.9c-8.281-19.172-30.63-47.765-44.84-62.258l35.552-12.861s11.387,22.907,26.538,51.044C3201.753,3897.6,3214.624,3920.591,3226.6,3939.684Z" fill="#0d458d"/>
        <path id="Path_889" data-name="Path 889" d="M3190.834,3877.328l-7.713,38.979a69.3,69.3,0,0,1-9.537-14.9c-8.281-19.172-30.63-47.765-44.84-62.258l35.552-12.861S3175.683,3849.191,3190.834,3877.328Z" fill="#0c3563"/>
        <path id="Path_890" data-name="Path 890" d="M3161.775,3947.272s-.388,7.111,8.232,8.059c0,0,5.2.106,5.216,4.631h-25.33a19.472,19.472,0,0,1-.9-5.735c-.136-3,2.91-10.853,2.91-10.853Z" fill="#0c3563"/>
        <path id="Path_891" data-name="Path 891" d="M3152.635,3826.284s15.838,17.4,25.892,48.756c5.469,17.059-10.026,59.948-13.047,74.85,0,0-10.4.882-17.5-1.866,0,0-.54-30.778,3.617-54.5,2.326-13.276-20.853-28.393-30.982-52.381-6.89-16.32,1.492-16.043,11.794-16.435Z" fill="#0d458d"/>
        <path id="Path_892" data-name="Path 892" d="M3134.352,3748.642c-8.811,4.976-26.851.387-26.851.387s7.326-8.375,4-21.864l6.919,3.514,7.431,3.774a61.524,61.524,0,0,1,.815,6.661c.085,1.1.161,2.332.214,3.678A23.114,23.114,0,0,1,3134.352,3748.642Z" fill="#fa997b"/>
        <path id="Path_893" data-name="Path 893" d="M3166.663,3825.385c0,1.549-1.784,2.29-2.163,2.366-3.554.649-13.478,4.51-22.417,5.4-7.527.788-14.516.04-22.194-1.5-1.016-.205-3.4-.848-3.573-1.822-.212-1.064-29.615-59.941-6.757-85.232.536-.593,5.049.475,9.175,1.454a16.936,16.936,0,0,0,10.427-.852l3.87,2.036c4.752,2.648,13.743,12.056,14.795,19.438.535,3.754,2.681,6.534,3.3,9.836q.345,1.833.706,3.578.7,3.422,1.447,6.515c1.344,5.583,2.764,10.389,4.157,14.542,1.483,4.408,2.938,8.075,4.237,11.142,1.685,3.978,3.109,6.951,4,9.227A11.381,11.381,0,0,1,3166.663,3825.385Z" fill="#004d99"/>
        <path id="Path_894" data-name="Path 894" d="M3165.675,3821.506c-41.506-19.555-55.881-57.105-55.881-57.105s33.723,12.44,42.041,15.679q.7,3.422,1.447,6.515c1.344,5.583,2.764,10.389,4.157,14.542,1.483,4.408,2.938,8.075,4.237,11.142C3163.361,3816.257,3164.785,3819.23,3165.675,3821.506Z" fill="#003b72"/>
        <g id="Group_377" data-name="Group 377">
          <g id="Group_376" data-name="Group 376">
            <g id="Group_373" data-name="Group 373">
              <rect id="Rectangle_113" data-name="Rectangle 113" width="69.996" height="84.483" transform="matrix(0.908, -0.419, 0.419, 0.908, 3223.357, 3869.177)" fill="url(#linear-gradient)"/>
            </g>
            <g id="Group_374" data-name="Group 374">
              <rect id="Rectangle_114" data-name="Rectangle 114" width="59.958" height="17.419" transform="matrix(0.908, -0.419, 0.419, 0.908, 3215.919, 3853.067)" fill="url(#linear-gradient-2)"/>
            </g>
            <g id="Group_375" data-name="Group 375">
              <rect id="Rectangle_115" data-name="Rectangle 115" width="29.979" height="36.441" transform="matrix(0.908, -0.419, 0.419, 0.908, 3200.497, 3820.076)" fill="url(#linear-gradient-3)"/>
            </g>
            <path id="Path_895" data-name="Path 895" d="M3257.862,3947.129l-66.876-144.656a1.495,1.495,0,1,1,2.714-1.254l65.637,141.974,72.088-32.279a1.495,1.495,0,0,1,1.221,2.729Z" fill="#00081a"/>
            <circle id="Ellipse_21" data-name="Ellipse 21" cx="14.822" cy="14.822" r="14.822" transform="translate(3240.263 3955.002) rotate(-73.429)" fill="#00081a"/>
            <circle id="Ellipse_22" data-name="Ellipse 22" cx="5.176" cy="5.176" r="5.176" transform="translate(3252.271 3948.636) rotate(-73.429)" fill="#fdbe42"/>
            <path id="Path_896" data-name="Path 896" d="M3189.095,3804.552a3.9,3.9,0,1,0,.172-5.512A3.9,3.9,0,0,0,3189.095,3804.552Z" fill="#30353d"/>
          </g>
          <path id="Path_897" data-name="Path 897" d="M3189.959,3810.174l3.587,1.315s7.182-5.079,11.654,3.181c0,0,1.618,3.608-.943,4.392s-1.629.046-5.228,1.245-7.144.334-8.5-2.236l-2.438-1.789Z" fill="#fa997b"/>
          <path id="Path_898" data-name="Path 898" d="M3192.911,3815.246c1.326-3.46,1.931-5.027,1.931-5.027s-27.1-22.091-29.863-23.986c-1.881-1.291-20.615-15.294-29.749-26.207a19.114,19.114,0,0,0-18.582-6.439l-5.69,1.193a8.461,8.461,0,0,0-3.773,14.7c15.009,12.867,40.323,27.79,45.043,30.894,11.716,7.706,37.633,18.5,37.633,18.5A6.667,6.667,0,0,0,3192.911,3815.246Z" fill="#004d99"/>
        </g>
        <path id="Path_899" data-name="Path 899" d="M3126.663,3741.114c-8.665.486-14.3-6.668-14.3-6.668a68.873,68.873,0,0,0,6.055-3.767l7.431,3.774A61.524,61.524,0,0,1,3126.663,3741.114Z" fill="#ef5d23"/>
        <path id="Path_900" data-name="Path 900" d="M3130.354,3732.217s-13.129,9.423-18.871,1.156-11.3-12.618-3.163-18.983,11.977-4.355,14.565-2.061S3133.622,3729.554,3130.354,3732.217Z" fill="#fa997b"/>
        <path id="Path_901" data-name="Path 901" d="M3111.666,3726.543c-.594-.464-1.295-.564-1.564-.22s-.005,1,.591,1.467,1.3.561,1.564.218S3112.263,3727.008,3111.666,3726.543Z" fill="#ef5d23"/>
        <path id="Path_902" data-name="Path 902" d="M3122.608,3708.663c-.471-3.177-.69-5.8-6.927-6.272s-15.917.713-19.419,7.721c-5.007,10.022.663,18.326,4.6,19.936,5.757,2.354,5.711.558,11.5,4.4,0,0,1.554-1.926.494-3.221s-7.069-2.729-4.042-6.326c1.559-1.853,3.81-.589,5,.647.824-1.295-3.194-5.5,2.1-9.032S3123.079,3711.841,3122.608,3708.663Z" fill="#a9453e"/>
      </g>
      <g id="Group_380" data-name="Group 380">
        <path id="Path_903" data-name="Path 903" d="M3788.217,3948.369s.707,11.408,2.914,11.572c.294.021,11.194.021,11.194.021h13.931a4.594,4.594,0,0,0-4.175-4.142c-4.067-.709-10.875-3.567-13.339-8.943C3796.15,3941.222,3788.217,3948.369,3788.217,3948.369Z" fill="#003261"/>
        <path id="Path_904" data-name="Path 904" d="M3733.107,3854.609a95.5,95.5,0,0,0,6.652,10.614c7.319,10.3,15.286,18.8,16.674,26.83a39.828,39.828,0,0,0,1.286,5.14c.58,1.84,1.3,3.773,2.124,5.773a183.546,183.546,0,0,0,12.387,23.616c8.016,13.247,15.555,24.3,15.555,24.3l13.824-.657c-.554-1.545-6.583-19.836-14.649-42.188-3.275-9.074-6.758-18.726-10.118-28.034q-.672-1.864-1.339-3.708c-1.027-2.848-2.038-5.652-3.026-8.382-7.573-20.989-13.6-37.7-13.6-37.7s-30.271-12.788-33.414-4.5C3722.866,3832.543,3724.977,3839.236,3733.107,3854.609Z" fill="#599dad"/>
        <path id="Path_905" data-name="Path 905" d="M3758.535,3936s-5.063,4.693-4.076,8.027,5.557,5.557,6.175,9.632,3.087,6.3,5.31,6.3h10.6s1.636-2.867-2.316-3.732-5.442-5.653-5.2-10.1a79.585,79.585,0,0,0-.37-10.373l-8.4-1.976Z" fill="#0c3563"/>
        <path id="Path_906" data-name="Path 906" d="M3763.011,3828.639s31.853,51.668,31.853,55.778c0,9.092-24.067,61.443-24.067,61.443s-12.775-6.749-12.263-11.487c0,0,7.665-36.75,9.894-42.656s-40.257-28.162-42.485-55.051Z" fill="#6bb7bf"/>
        <path id="Path_907" data-name="Path 907" d="M3778.628,3802.07s6.569,3.735,8.408,3.734,9.057-1.4,11.07-.367,5.653,5.165,6.337,6.517c1.229,2.429-4.947,1.356-7.866-.713a1.837,1.837,0,0,0-1.458-.3c-1.512.329-4.653.9-6.17.338-2.039-.754-12.781-1.593-12.781-1.593Z" fill="#fa997b"/>
        <path id="Path_908" data-name="Path 908" d="M3728.649,3751.2s6.81,48.4,18.086,52.734c5.564,2.139,30.153,6.988,37.427,7.475,0,0,1.781-1.446,1.347-7.33,0,0-25.762-9.458-29.422-14.6-5.446-7.655,3.382-31.273-3.453-38.463S3734.287,3740.732,3728.649,3751.2Z" fill="#2a4e96"/>
        <path id="Path_909" data-name="Path 909" d="M3755.271,3748.145c-9.1,2.353-24.192-6.08-24.192-6.08a22.341,22.341,0,0,0,8.031-12.589c.11-.436.208-.882.3-1.341l4.675-.991,6.952,6.229a59.9,59.9,0,0,1-1.029,7.032c-.15.775-.323,1.608-.523,2.494A21.444,21.444,0,0,1,3755.271,3748.145Z" fill="#fa997b"/>
        <path id="Path_910" data-name="Path 910" d="M3721.441,3785.876c1.3,17.536-.411,44.206,1.068,48.825,1.276,3.986,15.821,1.617,21.626.286,2.149-.493,4.751-1.2,7.44-2.028,7.5-2.321,15.668-5.637,16.545-8.1a2.156,2.156,0,0,0,.081-.283,2.26,2.26,0,0,0-.016-1.032c-.292-1.254-1.419-2.611-1.551-5.718-.148-3.468-.126-7.551-.256-11.943-.007-.5-.014-1.035-.068-1.527l0-.18-.007-.28c-.126-4.9-.382-10.047-.678-15.154-.189-3.207-.407-6.383-.659-9.426-.654-7.856-1.535-14.841-2.7-19.258-1.906-7.2-6.109-11.9-9.934-15.335l-2.767-2.374a16,16,0,0,1-10.04-1.337c-3.574-1.7-4.808-2.914-5.43-2.455C3725.837,3744.927,3719.9,3764.438,3721.441,3785.876Z" fill="#2a4e96"/>
        <path id="Path_911" data-name="Path 911" d="M3751.575,3832.959c7.5-2.321,15.668-5.637,16.545-8.1a2.156,2.156,0,0,0,.081-.283c0-.344-.009-.688-.016-1.032-.292-1.254-1.419-2.611-1.551-5.718-.148-3.468-.126-7.551-.256-11.943-.007-.5-.014-1.035-.068-1.527l0-.18-.007-.28-30.312-38.619S3715.613,3807.709,3751.575,3832.959Z" fill="#163560"/>
        <path id="Path_912" data-name="Path 912" d="M3751.035,3733.373a59.9,59.9,0,0,1-1.029,7.032c-6.789-2.2-9.868-8.327-10.9-10.929.11-.436.208-.882.3-1.341l4.675-.991Z" fill="#ef5d23"/>
        <path id="Path_913" data-name="Path 913" d="M3751.948,3737.293s-15.2-2.9-13.519-12.1,1.3-15.278,10.82-14.089,10.715,5.033,10.9,8.239S3755.843,3737.7,3751.948,3737.293Z" fill="#fa997b"/>
        <path id="Path_914" data-name="Path 914" d="M3742.667,3722.389c-.362-.663-.966-1.032-1.349-.823s-.4.916-.039,1.581.968,1.029,1.35.82S3743.03,3723.052,3742.667,3722.389Z" fill="#ef5d23"/>
        <g id="Group_379" data-name="Group 379">
          <rect id="Rectangle_116" data-name="Rectangle 116" width="1.373" height="35.949" transform="matrix(-0.951, -0.309, 0.309, -0.951, 3811.531, 3816.406)" fill="#58595b"/>
          <rect id="Rectangle_117" data-name="Rectangle 117" width="37.724" height="2.257" transform="matrix(-1, -0.021, 0.021, -1, 3811.535, 3816.407)" fill="#58595b"/>
        </g>
        <path id="Path_915" data-name="Path 915" d="M3774.575,3817.4s12.118,3.195,16.663,2.859,8.323-2.5,8.9-3.625,1.773-3.129-1.321-2.76-7.317,1.027-7.448.433,2.522-.538,2.522-.538.8-1.166-.208-1.208-3.955-.842-5.05-.295-2.1,2.567-2.9,2.483-10.14-4.208-10.14-4.208Z" fill="#fa997b"/>
        <path id="Path_916" data-name="Path 916" d="M3731.654,3753.182s1.433,48.855,12.162,54.406c5.294,2.74,29.2,10.27,36.375,11.556,0,0,1.93-1.24,2.147-7.136,0,0-24.562-12.241-27.633-17.756-4.57-8.209,6.809-30.71.808-38.609S3738.412,3743.4,3731.654,3753.182Z" fill="#2a4e96"/>
        <path id="Path_917" data-name="Path 917" d="M3739.07,3729.758s-.13-3.437,1.817-5.245c0,0-3.3-2.7-.237-4.585,1.155-.711,2.823,1.118,2.9,2.621a12.787,12.787,0,0,0,4.224-5.319c1.1-2.921,11.118.617,12.286,1.142s3.14-1.255,3.329-2.415a4.179,4.179,0,0,0-.7-3.473c-.939-1.252-7.51-9.7-16.688-7.3s-10.429,6.779-9.908,10.533S3735.312,3728.5,3739.07,3729.758Z" fill="#a9453e"/>
      </g>
      <g id="Group_381" data-name="Group 381">
        <path id="Path_918" data-name="Path 918" d="M3729.069,3847.292l-28.684-17.284a7.421,7.421,0,0,1-3.508-6.906q.439-5.316.439-10.743a124.623,124.623,0,0,0-1.5-19.694,7.319,7.319,0,0,1,3.471-7.491l29.963-18.088a7.188,7.188,0,0,0,2.74-9.39l-14.1-28.721a7.11,7.11,0,0,0-8.77-3.544l-30.291,11a7.137,7.137,0,0,1-8.221-2.412,129.378,129.378,0,0,0-29.744-27.916,7.371,7.371,0,0,1-2.741-8.551l6.724-18.416a7.444,7.444,0,0,0-3.654-9.135l-28.538-13.958a6.54,6.54,0,0,0-1.79-.621,7.144,7.144,0,0,0-7.6,3.362l-12.935,21.412-3.142,5.225a128.091,128.091,0,0,0-18.051-1.279,129.857,129.857,0,0,0-24.043,2.229,7.138,7.138,0,0,1-7.491-3.325l-14.543-24.153a7.4,7.4,0,0,0-9.609-2.813l-21.961,10.778-6.285,3.107a7.494,7.494,0,0,0-3.763,9.281l9.171,25.322a7.127,7.127,0,0,1-2.193,8.112,128.467,128.467,0,0,0-19.329,19.512,22.152,22.152,0,0,0-1.461,1.791,3.9,3.9,0,0,1-.512.584,7.3,7.3,0,0,1-7.893,1.827l-29.926-10.852a5.381,5.381,0,0,0-1.023-.292,7.427,7.427,0,0,0-8.075,3.946l-13.959,28.428a7.39,7.39,0,0,0,2.814,9.573l29.926,18.015a7.14,7.14,0,0,1,3.4,7.344,130.647,130.647,0,0,0-1.5,19.8q0,5.373.439,10.634a7.529,7.529,0,0,1-3.618,7.052l-28.793,17.393a7.185,7.185,0,0,0-2.741,9.318l13.995,28.391a7.51,7.51,0,0,0,9.318,3.764l23.97-8.7a7.375,7.375,0,0,1,8.66,2.814,129.022,129.022,0,0,0,26.784,29.414,7.331,7.331,0,0,1,2.338,8.3l-9.792,26.967a7.582,7.582,0,0,0,3.763,9.353l28.319,13.922a7.245,7.245,0,0,0,9.426-2.777l.768-1.242,15.018-24.884a7.411,7.411,0,0,1,7.71-3.471h.037a128.391,128.391,0,0,0,22.654,2.01c4.129,0,8.185-.219,12.241-.585a7.268,7.268,0,0,1,6.979,3.471l14.762,24.519a7.521,7.521,0,0,0,9.757,2.886l28.281-13.922a8.093,8.093,0,0,0,2.083-1.534,7.488,7.488,0,0,0,1.608-7.6l-7.381-20.206a7.478,7.478,0,0,1,1.278-7.235,8.065,8.065,0,0,1,1.536-1.389,128.586,128.586,0,0,0,35.882-36.028,7.236,7.236,0,0,1,7.308-3.142,7.4,7.4,0,0,1,1.205.329l24.227,8.806a7.362,7.362,0,0,0,9.1-3.654l.329-.658,13.629-27.7A7.493,7.493,0,0,0,3729.069,3847.292Zm-226.437-54.627a85.951,85.951,0,0,1,5.773-14.945c4.75-9.537,16.479-21.339,26.053-26.053,1.023-.512,2.046-.987,3.069-1.462,62.63-28.135,123.03,33.361,92.665,96.027-3.983,8.185-12.789,17.8-21.376,23.751a45.637,45.637,0,0,1-5.845,3.435,79.507,79.507,0,0,1-25.908,7.673C3528.758,3886.462,3489,3842.067,3502.632,3792.665Z" fill="#929497"/>
      </g>
      <path id="Path_919" data-name="Path 919" d="M3498.632,3792.665a85.951,85.951,0,0,1,5.773-14.945c4.75-9.537,16.479-21.339,26.053-26.053,1.023-.512,2.046-.987,3.069-1.462,62.63-28.135,123.03,33.361,92.665,96.027-3.983,8.185-12.789,17.8-21.376,23.751a45.637,45.637,0,0,1-5.845,3.435,79.507,79.507,0,0,1-25.908,7.673C3524.758,3886.462,3485,3842.067,3498.632,3792.665Z" fill="none" stroke="#6e6f72" stroke-miterlimit="10" stroke-width="2"/>
      <g id="Group_387" data-name="Group 387">
        <g id="Group_384" data-name="Group 384">
          <path id="Rectangle_118" data-name="Rectangle 118" d="M4.153,0h65.4a4.153,4.153,0,0,1,4.153,4.153V15.215a4.153,4.153,0,0,1-4.153,4.153H4.152A4.152,4.152,0,0,1,0,15.215V4.153A4.153,4.153,0,0,1,4.153,0Z" transform="translate(3335.45 3882.832)" fill="#ff973d"/>
          <path id="Path_920" data-name="Path 920" d="M3409.156,3896.034v2.013A4.165,4.165,0,0,1,3405,3902.2h-65.4a4.165,4.165,0,0,1-4.153-4.153v-2.18h72.515A4.335,4.335,0,0,1,3409.156,3896.034Z" fill="#ff7e1c"/>
          <g id="Group_382" data-name="Group 382">
            <path id="Path_921" data-name="Path 921" d="M3351.2,3902.2l-2.948,11.166,0,0-12.274,46.476h-1.29l7.093-38.559c.007-.038.017-.076.024-.118l3.509-19.069Z" fill="#f3c6a6"/>
          </g>
          <path id="Path_922" data-name="Path 922" d="M3351.2,3902.2l-2.948,11.166,0,0c-.17.083-5.536,2.858-6.447,7.8l3.509-19.069Z" fill="#d49d7a"/>
          <g id="Group_383" data-name="Group 383">
            <path id="Path_923" data-name="Path 923" d="M3409.156,3959.846h-1.291l-10-37.86v-.007l-2.274-8.609,0,0-2.949-11.166,5.89-.1,2.007,10.9,1.5,8.166c.007.042.017.08.024.118Z" fill="#f3c6a6"/>
          </g>
          <path id="Path_924" data-name="Path 924" d="M3389.22,3916.823c-.006,0-.013,0-.02-.014C3389.173,3916.761,3389.179,3916.771,3389.22,3916.823Z" fill="#f3c6a6"/>
          <path id="Path_925" data-name="Path 925" d="M3400.536,3913a16.256,16.256,0,0,0-2.671,8.976l-2.274-8.609,0,0-2.949-11.166,5.89-.1Z" fill="#d49d7a"/>
        </g>
        <g id="man">
          <path id="Path_926" data-name="Path 926" d="M3326.477,3665.032c1.52-1.584,2.552-.989,2.552-.989s17.948,13.781,19.661,14.783,25.057,1.679,25.057,1.679,9.35-.106,11.619,4.7c1.971,4.171.581,7.763-1.454,10.4a9.664,9.664,0,0,1-10.362,3.341c-8.557-2.5-25.579-7.6-28.764-9.543-7.088-4.336-19.889-21.649-19.889-21.649A6.9,6.9,0,0,1,3326.477,3665.032Z" fill="#6d89cf"/>
          <g id="Group_386" data-name="Group 386">
            <g id="Group_385" data-name="Group 385">
              <path id="Path_927" data-name="Path 927" d="M3330.643,3630.956h-10.014v-24.839a23.234,23.234,0,0,0-46.469,0v24.839h-10.014v-24.839a33.249,33.249,0,1,1,66.5,0Z" fill="#ff912d"/>
            </g>
            <path id="Path_928" data-name="Path 928" d="M3340.125,3622.782c-16.144,11.3-38.192-2.22-42.12-4.809a1.106,1.106,0,0,0-1.221,0c-3.928,2.589-25.976,16.112-42.12,4.809a1.111,1.111,0,0,0-1.752.933c.248,10.905,3.71,57.645,44.483,70.617,40.772-12.972,44.234-59.712,44.482-70.617A1.111,1.111,0,0,0,3340.125,3622.782Z" fill="#808184"/>
            <path id="Path_929" data-name="Path 929" d="M3306.2,3650.31a8.81,8.81,0,1,0-12.036,8.2v11.987a3.227,3.227,0,1,0,6.453,0v-11.987A8.811,8.811,0,0,0,3306.2,3650.31Z" fill="#4d4e4f"/>
          </g>
          <path id="Path_930" data-name="Path 930" d="M3306.641,3669.546s.026-6.626-1.021-8.554-3.444-4.337-4.81-3.566-1.785,7.228-1.366,8.385a51.354,51.354,0,0,0,3.521,5.495Z" fill="#fa997b"/>
          <path id="Path_931" data-name="Path 931" d="M3388.8,3882.832c1.478-1.264.592-8.348.592-8.348s-7.607-6.086-8.653-1.427-7.228,6.752-10.747,7.323c-2.347.381-3.127,1.649-3.387,2.452Z" fill="#1f3765"/>
          <path id="Path_932" data-name="Path 932" d="M3389.653,3874.813c-7.044,1.093-9.619-.583-9.619-.583.091-6.938-2.048-22.58-4.981-40.541-3.866-23.682-9.11-51.393-12.423-68.477-1.906-9.826-3.175-16.135-3.175-16.135l5.756-.114,28.71-.568s-2.148,31.775-1.561,47.468c.142,3.747.44,6.579.958,7.841C3398.211,3815.594,3389.653,3874.813,3389.653,3874.813Z" fill="#26468d"/>
          <path id="Path_933" data-name="Path 933" d="M3392.36,3795.863c-3.9,7.3-13.67,26.1-17.307,37.826-3.866-23.682-9.11-51.393-12.423-68.477.163-6.457.936-12.1,2.581-16.249l28.71-.568S3391.773,3780.17,3392.36,3795.863Z" fill="#1f3765"/>
          <path id="Path_934" data-name="Path 934" d="M3364.621,3882.832c1.477-1.264.592-8.348.592-8.348s-7.608-6.086-8.654-1.427-7.227,6.752-10.746,7.323c-2.347.381-3.127,1.649-3.388,2.452Z" fill="#1f3765"/>
          <path id="Path_935" data-name="Path 935" d="M3346.973,3748.385s11.279,104.357,9.045,125.4c0,0,2.411,1.889,9.524,1.454,0,0,12.884-60.119,10.156-69.848-1.9-6.764,5.659-54.534,5.659-54.534Z" fill="#26468d"/>
          <path id="Path_936" data-name="Path 936" d="M3374.74,3673.758s-14.341,7.163-21.456,3.9c0,0,2.989-3.87,6.335-5.476-.071-1.276-.111-2.428-.133-3.447-.063-3.393.107-5.3.107-5.3l6.185-4.5,4.2-3.053a27.118,27.118,0,0,0-.17,5.237C3370.359,3669.367,3374.74,3673.758,3374.74,3673.758Z" fill="#fa997b"/>
          <path id="Path_937" data-name="Path 937" d="M3369.8,3661.114s-3.345,6.667-10.318,7.618c-.063-3.393.107-5.3.107-5.3l6.185-4.5A13.919,13.919,0,0,1,3369.8,3661.114Z" fill="#ef5d23"/>
          <path id="Path_938" data-name="Path 938" d="M3356.708,3662.842s14.322,5.1,17.361-3.868,6.935-14.349-2.081-17.985-11.962-.819-13.7,1.928S3353.061,3661.284,3356.708,3662.842Z" fill="#fa997b"/>
          <path id="Path_939" data-name="Path 939" d="M3364.01,3652.887c-.457.6-.547,1.3-.2,1.567s1-.008,1.459-.611.544-1.3.2-1.567S3364.466,3652.284,3364.01,3652.887Z" fill="#ef5d23"/>
          <path id="Path_940" data-name="Path 940" d="M3394.829,3748.386c-2.01,4.186-46.5,4-48.7,1.049-.9-1.2-1.919-13.209-2.506-27.172-.324-7.735-.515-16.069-.478-23.5.066-12.119.745-21.82,2.453-22.561,9.535-4.136,15.429-6.768,27.884-6.388a10.328,10.328,0,0,1,8.991,5.794,75.178,75.178,0,0,1,7.562,30.127C3390.542,3725.708,3397.36,3743.11,3394.829,3748.386Z" fill="#6d89cf"/>
          <path id="Path_941" data-name="Path 941" d="M3357.542,3690.542s-1.447,20.884-13.915,31.721c-.324-7.735-.515-16.069-.478-23.5C3346.874,3693.786,3351.789,3690.2,3357.542,3690.542Z" fill="#3662c1"/>
          <path id="Path_942" data-name="Path 942" d="M3363.675,3670.263s-13.682.085-17.976,4.072c-3.077,2.859-22.849,18.442-24.1,18.233s-13.985-25.621-13.985-25.621-6.276.531-7.323,3.248c0,0,5.919,31.727,18.691,38.624,0,0,32.284-6.124,41.863-16.8C3365.773,3686.518,3363.675,3670.263,3363.675,3670.263Z" fill="#6d89cf"/>
          <path id="Path_943" data-name="Path 943" d="M3358.914,3639.262s-.724,5.212,1.846,7.548,1.891,5.55,2.172,6.017c.47-1.163,2.715-2.707,3.98-1.053,1.279,1.673-1.178,4.064-2.24,4.5s2.712,7.782,5.485,8.052c4.793.468,12.2-12.786,12.822-16.671.817-5.081-2.411-10.2-10.307-12.614C3363.423,3632.216,3358.653,3636.188,3358.914,3639.262Z" fill="#a9453e"/>
        </g>
      </g>
    </g>
    <g id="Group_389" data-name="Group 389">
      <path id="Path_944" data-name="Path 944" d="M3724.069,3847.292l-28.684-17.284a7.421,7.421,0,0,1-3.508-6.906q.439-5.316.439-10.743a124.623,124.623,0,0,0-1.5-19.694,7.319,7.319,0,0,1,3.471-7.491l29.963-18.088a7.188,7.188,0,0,0,2.74-9.39l-14.1-28.721a7.11,7.11,0,0,0-8.77-3.544l-30.291,11a7.137,7.137,0,0,1-8.221-2.412,129.378,129.378,0,0,0-29.744-27.916,7.371,7.371,0,0,1-2.741-8.551l6.724-18.416a7.444,7.444,0,0,0-3.654-9.135l-28.538-13.958a6.54,6.54,0,0,0-1.79-.621,7.144,7.144,0,0,0-7.6,3.362l-12.935,21.412-3.142,5.225a128.091,128.091,0,0,0-18.051-1.279,129.857,129.857,0,0,0-24.043,2.229,7.138,7.138,0,0,1-7.491-3.325l-14.543-24.153a7.4,7.4,0,0,0-9.609-2.813l-21.961,10.778-6.285,3.107a7.494,7.494,0,0,0-3.763,9.281l9.171,25.322a7.127,7.127,0,0,1-2.193,8.112,128.467,128.467,0,0,0-19.329,19.512,22.152,22.152,0,0,0-1.461,1.791,3.9,3.9,0,0,1-.512.584,7.3,7.3,0,0,1-7.893,1.827l-29.926-10.852a5.381,5.381,0,0,0-1.023-.292,7.427,7.427,0,0,0-8.075,3.946l-13.959,28.428a7.39,7.39,0,0,0,2.814,9.573l29.926,18.015a7.14,7.14,0,0,1,3.4,7.344,130.647,130.647,0,0,0-1.5,19.8q0,5.373.439,10.634a7.529,7.529,0,0,1-3.618,7.052l-28.793,17.393a7.185,7.185,0,0,0-2.741,9.318l13.995,28.391a7.51,7.51,0,0,0,9.318,3.764l23.97-8.7a7.375,7.375,0,0,1,8.66,2.814,129.022,129.022,0,0,0,26.784,29.414,7.331,7.331,0,0,1,2.338,8.3l-9.792,26.967a7.582,7.582,0,0,0,3.763,9.353l28.319,13.922a7.245,7.245,0,0,0,9.426-2.777l.768-1.242,15.018-24.884a7.411,7.411,0,0,1,7.71-3.471h.037a128.391,128.391,0,0,0,22.654,2.01c4.129,0,8.185-.219,12.241-.585a7.268,7.268,0,0,1,6.979,3.471l14.762,24.519a7.521,7.521,0,0,0,9.757,2.886l28.281-13.922a8.093,8.093,0,0,0,2.083-1.534,7.488,7.488,0,0,0,1.608-7.6l-7.381-20.206a7.478,7.478,0,0,1,1.278-7.235,8.065,8.065,0,0,1,1.536-1.389,128.586,128.586,0,0,0,35.882-36.028,7.236,7.236,0,0,1,7.308-3.142,7.4,7.4,0,0,1,1.205.329l24.227,8.806a7.362,7.362,0,0,0,9.1-3.654l.329-.658,13.629-27.7A7.493,7.493,0,0,0,3724.069,3847.292Z" fill="none" stroke="#6e6f72" stroke-miterlimit="10" stroke-width="2"/>
    </g>
    <g id="Group_391" data-name="Group 391">
      <g id="Group_390" data-name="Group 390">
        <path id="Path_945" data-name="Path 945" d="M3538.562,3559.461s-12.848-9.128-34.772-9.128-34.773,9.128-34.773,9.128-8.585,49.016,34.773,70.081C3547.148,3608.477,3538.562,3559.461,3538.562,3559.461Z" fill="#6a90d9"/>
        <path id="Path_946" data-name="Path 946" d="M3535.577,3562.177s-11.745-8.186-31.787-8.186-31.788,8.186-31.788,8.186-7.848,44.808,31.788,64.065C3543.426,3606.985,3535.577,3562.177,3535.577,3562.177Z" fill="#fff"/>
        <path id="Path_947" data-name="Path 947" d="M3533.009,3564.513s-10.8-7.682-29.219-7.682-29.219,7.682-29.219,7.682-7.215,41.188,29.219,58.889C3540.223,3605.7,3533.009,3564.513,3533.009,3564.513Z" fill="#5675b0"/>
        <path id="Path_948" data-name="Path 948" d="M3502.3,3597.928a2.841,2.841,0,0,1-2.018-.837L3489.3,3586.11a2.854,2.854,0,0,1,4.036-4.037l8.964,8.963,14.4-14.394a2.854,2.854,0,0,1,4.036,4.036l-16.413,16.413A2.845,2.845,0,0,1,3502.3,3597.928Z" fill="#fff"/>
      </g>
    </g>
    <g id="Group_396" data-name="Group 396">
      <g id="Group_395" data-name="Group 395">
        <rect id="Rectangle_119" data-name="Rectangle 119" width="77.628" height="70.634" rx="12.094" transform="translate(3774.165 3636.887)" fill="#3662c1"/>
        <g id="Group_392" data-name="Group 392">
          <path id="Path_949" data-name="Path 949" d="M3809.051,3741.881a2,2,0,1,0,2.621,1.059A2,2,0,0,0,3809.051,3741.881Z" fill="#3662c1"/>
          <path id="Path_950" data-name="Path 950" d="M3817.454,3731.551a3.58,3.58,0,1,0,4.694,1.9A3.58,3.58,0,0,0,3817.454,3731.551Z" fill="#3662c1"/>
          <path id="Path_951" data-name="Path 951" d="M3829.482,3717.705a5.267,5.267,0,1,0-2.79,6.906A5.268,5.268,0,0,0,3829.482,3717.705Z" fill="#3662c1"/>
        </g>
        <g id="Group_394" data-name="Group 394">
          <path id="Path_952" data-name="Path 952" d="M3841.64,3661.478l-52.391-10.125a1.849,1.849,0,0,0-2.16,1.46l-5.557,28.755a1.848,1.848,0,0,0,1.46,2.16l52.391,10.125a1.85,1.85,0,0,0,2.16-1.46l5.557-28.755A1.85,1.85,0,0,0,3841.64,3661.478Z" fill="#fc9290"/>
          <rect id="Rectangle_120" data-name="Rectangle 120" width="6.525" height="57.047" transform="translate(3785.27 3662.223) rotate(-79.06)" fill="#af4e4e"/>
          <rect id="Rectangle_121" data-name="Rectangle 121" width="5.13" height="34.904" transform="matrix(0.19, -0.982, 0.982, 0.19, 3788.168, 3669.864)" fill="#af4e4e" opacity="0.4"/>
          <rect id="Rectangle_122" data-name="Rectangle 122" width="6.525" height="7.121" rx="1.393" transform="translate(3786.154 3680.285) rotate(-79.063)" fill="#af4e4e"/>
          <g id="Group_393" data-name="Group 393">
            <path id="Rectangle_123" data-name="Rectangle 123" d="M.54,0h.527a.539.539,0,0,1,.539.539V34.827a.54.54,0,0,1-.54.54H.54a.54.54,0,0,1-.54-.54V.54A.54.54,0,0,1,.54,0Z" transform="translate(3800.12 3677.009) rotate(-79.062)" fill="#af4e4e" opacity="0.2"/>
            <rect id="Rectangle_124" data-name="Rectangle 124" width="1.569" height="35.367" rx="0.533" transform="translate(3799.549 3679.967) rotate(-79.062)" fill="#af4e4e" opacity="0.2"/>
            <rect id="Rectangle_125" data-name="Rectangle 125" width="1.67" height="35.367" rx="0.55" transform="translate(3798.995 3682.832) rotate(-79.062)" fill="#af4e4e" opacity="0.2"/>
          </g>
        </g>
      </g>
      <rect id="Rectangle_126" data-name="Rectangle 126" width="69.514" height="63.251" rx="10.83" transform="translate(3778.222 3640.579)" fill="none" stroke="#fff" stroke-miterlimit="10" stroke-width="1.735"/>
    </g>
    <g id="Group_397" data-name="Group 397">
      <circle id="Ellipse_23" data-name="Ellipse 23" cx="27.013" cy="27.013" r="27.013" transform="translate(3576.186 3567.526)" fill="#ff4c41"/>
      <circle id="Ellipse_24" data-name="Ellipse 24" cx="22.544" cy="22.544" r="22.544" transform="translate(3580.655 3571.995)" fill="none" stroke="#fff" stroke-miterlimit="10" stroke-width="1.664"/>
      <path id="Path_953" data-name="Path 953" d="M3596.039,3580.2v28.669l21.632-14.334Z" fill="#fff"/>
    </g>
    <g id="Group_400" data-name="Group 400">
      <circle id="Ellipse_25" data-name="Ellipse 25" cx="21.073" cy="21.073" r="21.073" transform="translate(3663.486 3632.52) rotate(-71.972)" fill="#e08126"/>
      <circle id="Ellipse_26" data-name="Ellipse 26" cx="21.073" cy="21.073" r="21.073" transform="matrix(0.6, -0.8, 0.8, 0.6, 3658.719, 3623.438)" fill="#fcb73e"/>
      <g id="Group_398" data-name="Group 398">
        <path id="Path_954" data-name="Path 954" d="M3681.044,3637.259a19.2,19.2,0,1,1,9.453,1.275A19.216,19.216,0,0,1,3681.044,3637.259Zm13.99-34.534a18.105,18.105,0,1,0,4.4,2.567A18.14,18.14,0,0,0,3695.034,3602.725Z" fill="#fff"/>
      </g>
      <g id="Group_399" data-name="Group 399">
        <path id="Path_955" data-name="Path 955" d="M3691.527,3624.69a3.184,3.184,0,0,0-.175-1.1,2.332,2.332,0,0,0-.577-.864,4.331,4.331,0,0,0-1.034-.715,11.484,11.484,0,0,0-1.546-.642,30.392,30.392,0,0,1-2.853-1.156,9.605,9.605,0,0,1-2.2-1.394,5.621,5.621,0,0,1-1.417-1.848,6.35,6.35,0,0,1-.053-4.825,5.34,5.34,0,0,1,1.284-1.816,6.663,6.663,0,0,1,2-1.257,8.894,8.894,0,0,1,2.606-.616l0-3.187,2.564,0,0,3.232a7.982,7.982,0,0,1,2.5.731,6.024,6.024,0,0,1,3.116,3.51,8.024,8.024,0,0,1,.422,2.688l-4.633,0a3.9,3.9,0,0,0-.791-2.674,2.714,2.714,0,0,0-2.124-.888,3.475,3.475,0,0,0-1.242.2,2.332,2.332,0,0,0-.858.551,2.165,2.165,0,0,0-.5.826,3.2,3.2,0,0,0-.161,1.027,2.962,2.962,0,0,0,.159,1,2.168,2.168,0,0,0,.553.827,4.364,4.364,0,0,0,1.041.716,14.658,14.658,0,0,0,1.611.693q1.554.582,2.829,1.194a9.656,9.656,0,0,1,2.187,1.409,5.43,5.43,0,0,1,1.92,4.357,5.791,5.791,0,0,1-.459,2.353,5.272,5.272,0,0,1-1.292,1.8,6.421,6.421,0,0,1-2.012,1.219,9.586,9.586,0,0,1-2.622.594l0,2.964-2.549,0,0-2.948a10.738,10.738,0,0,1-2.573-.583,6.8,6.8,0,0,1-2.2-1.29,6.1,6.1,0,0,1-1.537-2.123,7.427,7.427,0,0,1-.575-3.068l4.633,0a4.574,4.574,0,0,0,.3,1.764,2.967,2.967,0,0,0,.793,1.133,2.864,2.864,0,0,0,1.13.6,4.927,4.927,0,0,0,1.29.173,4.111,4.111,0,0,0,1.323-.193,2.754,2.754,0,0,0,.954-.535,2.194,2.194,0,0,0,.578-.812A2.663,2.663,0,0,0,3691.527,3624.69Z" fill="#fff"/>
      </g>
    </g>
    <g id="Group_407" data-name="Group 407">
      <g id="Group_404" data-name="Group 404">
        <g id="Group_401" data-name="Group 401">
          <path id="Path_956" data-name="Path 956" d="M3547.444,3930.819a2.1,2.1,0,0,1,.374,2.246l-.006.011c-.541,1.5-2.331,3.168-4.409,4.837-.266.214-.5.409-.708.59-.054.047-.108.095-.159.142s-.082.075-.122.111c-1.938,1.786-1.209,2.2-4.691,5.821-3.97,4.131-6.7,4.205-7.481,3.829-.658-.321.679-2.512,2.16-4.974.071-.119.142-.239.216-.359.2-.328.393-.66.588-.989,1.736-2.964,1.29-4.354.879-8.765-.335-3.584-5.576-20.024-5.576-20.024l7.608-1.31s2.292,13.09,4.816,15.106c1.35,1.075,2.862,1.088,4.159,1.885.092.055.181.112.27.171A10.005,10.005,0,0,1,3547.444,3930.819Z" fill="#fa9960"/>
          <path id="Path_957" data-name="Path 957" d="M3547.444,3930.819a2.1,2.1,0,0,1,.374,2.246l-.006.011c-.663,1.5-2.408,3.158-4.416,4.822-.263.218-.5.417-.7.6-.054.047-.108.095-.159.142s-.082.075-.122.111c-1.938,1.786-1.209,2.2-4.691,5.821-3.97,4.131-6.7,4.205-7.481,3.829-.658-.321.679-2.512,2.16-4.974a16.92,16.92,0,0,0,7.077-5.215c2.39-3.051,3.985-6.971,5.613-9.241.092.055.181.112.27.171A10.005,10.005,0,0,1,3547.444,3930.819Z" fill="#e25345"/>
          <path id="Path_958" data-name="Path 958" d="M3486.093,3926.067c-.47,2.349-3.818,1.957-7.558,1.043s-2.851.173-8.174-.416-6.936-2.574-7.1-3.366c-.146-.7,2.485-.95,5.306-1.275.355-.04.711-.084,1.067-.128,3.186-.4,5.518-2.454,8.412-4.142,2.74-1.6,6.83-8.114,6.83-8.114l7.3.579s-3.831,5.818-5.312,8.348a8.823,8.823,0,0,0-.717,4.975A9.356,9.356,0,0,1,3486.093,3926.067Z" fill="#fa9960"/>
          <path id="Path_959" data-name="Path 959" d="M3478.535,3927.11c-3.74-.913-2.851.173-8.174-.416s-6.936-2.574-7.1-3.366c-.146-.7,2.485-.95,5.306-1.275l.026.055a15.011,15.011,0,0,0,7.624,2.369c3.611.088,7.436-.947,9.93-.906a9.356,9.356,0,0,1-.056,2.5C3485.623,3928.416,3482.275,3928.024,3478.535,3927.11Z" fill="#e25345"/>
          <path id="Path_960" data-name="Path 960" d="M3502.336,3818.846s-1.739-4.261-3.652-4.435-8-1.131-8.436-.261a6.019,6.019,0,0,0,1.3,5.131c1.3,1.13,9.393,2.957,9.393,2.957Z" fill="#fa997b"/>
          <path id="Path_961" data-name="Path 961" d="M3514.069,3879.388l15.733,42.341a14.415,14.415,0,0,0,4.734-.433,20.413,20.413,0,0,0,4.576-2.228s-3.9-40.655-11.058-49.112S3514.069,3879.388,3514.069,3879.388Z" fill="#2d2d8e"/>
          <path id="Path_962" data-name="Path 962" d="M3576.3,3862.259s-45.208-15.286-55.291-12.034-40.355,63.482-40.355,63.482a5.853,5.853,0,0,0,2.549,1.608c1.734.65,5.933.609,5.933.609s27.32-23.418,30.573-30.247,4.552-13.335,7.8-12.685,41.955,15.937,50.737,6.83,6.485-20.939,6.485-20.939Z" fill="#312e99"/>
          <path id="Path_963" data-name="Path 963" d="M3638.692,3771.468c4.144-6.062,5.432-14.121,2.583-20.97a19.649,19.649,0,0,0-15.658-11.7c-7.285-1.074-13.847,1.466-19.629,5.71-3.578,2.628-7.248,5.314-11.826,5.651-2.108.156-4.019-1.068-6.086-1.261a14.845,14.845,0,0,0-6.62,1.2l-.393.148c-4.475-1.7-8.963-3.667-13.658-4.386a24.967,24.967,0,0,0-17.667,3.817c-18.063,12.5-5.742,38.649,11.483,47.868.792.424,1.6.819,2.416,1.193a23.859,23.859,0,0,1,3.028,3.086,15.48,15.48,0,0,0,4.641,3.67,15.931,15.931,0,0,0,11.592,1.47c3.869-1.124,7.025-3.912,11.106-4.417,2.24-.278,4.5.282,6.73.466a35.614,35.614,0,0,0,7.411-.236c6.8-.866,13.38-4.094,15.525-10.641,1.431-.61,3.072-.967,4.21-1.378a7.863,7.863,0,0,0,5.05-4.888,10.447,10.447,0,0,0,0-8.347A24.529,24.529,0,0,0,3638.692,3771.468Z" fill="#404041"/>
          <path id="Path_964" data-name="Path 964" d="M3550.466,3792.386c-.046.021,4.54,2.4,7.99,1.459,3.245-.885,5.366-5.092,5.321-5.1-1.374-.273-1.771-2.161-1.741-10.277l-.622.123-10.446,2.068s.238,3.288.244,6.385C3551.219,3789.642,3551.062,3792.108,3550.466,3792.386Z" fill="#fa997b"/>
          <path id="Path_965" data-name="Path 965" d="M3550.968,3780.657s.238,3.288.244,6.385c5.846-.165,8.936-5.5,10.2-8.453Z" fill="#ef5d23"/>
          <path id="Path_966" data-name="Path 966" d="M3581.265,3829.595c1.363-5.72-3.277-16.82-8.121-26.009-4.4-8.329-8.958-15.086-9.367-14.843-11.592,6.88-12.64,1.16-12.64,1.16s-10.529,1.4-13.511,6.531c-4.124,7.1-8.615,28.4-13.027,28.081-2.026-.146-22.408-7.807-22.408-7.807s-3.4,3.182-2.745,7.084a212.75,212.75,0,0,0,18.574,11.039c4.5,2.275,8.569,3.867,10.482,3.416,3.877-.913,9.933-9.9,13.205-15.192l.022-.035c4.177,23.641-1.5,29.025,1.372,31.518,3.036,2.632,7.373-1.254,16.914,2.881,6.257,2.715,14.942,6.64,20.788,7.323,3.066.36,5.354-.174,6.1-2.244C3589.071,3856.48,3578.663,3840.5,3581.265,3829.595Z" fill="#e75755"/>
          <path id="Path_967" data-name="Path 967" d="M3557.9,3836.061s-2.928-2.277-5.692-1.734-4.121,2.439-4.012,3.306,1.572,3.307,3.686,3.524,8.132-1.3,8.132-1.3Z" fill="#fa997b"/>
          <path id="Path_968" data-name="Path 968" d="M3563.777,3788.743s11.273.694,15.175,6.137c5.493,7.662,15.034,38.941,12.432,46.1l-34.3-.145s-.832-3.885.325-5.764,19.949-4.915,20.816-5.782-10.842-16.913-10.842-19.515S3563.777,3788.743,3563.777,3788.743Z" fill="#e75755"/>
          <path id="Path_969" data-name="Path 969" d="M3566.151,3773.017c-.16,6.617-4.994,10.671-10.576,10.5-10.613-.314-9.787-7.936-9.211-14.529a9.289,9.289,0,0,1,3.7-6.989c2.1-1.534,9.013-2.076,10.024.59C3563.707,3772.138,3566.252,3768.8,3566.151,3773.017Z" fill="#fa997b"/>
          <path id="Path_970" data-name="Path 970" d="M3569.39,3776c-1.477,2.008-3.784,2.736-5.149,1.633s-1.281-3.638.2-5.646,3.777-2.736,5.153-1.623S3570.867,3774,3569.39,3776Z" fill="#fa997b"/>
          <path id="Path_971" data-name="Path 971" d="M3566.391,3773.482c-.344.671-.311,1.378.078,1.578s.983-.183,1.329-.856.308-1.379-.079-1.578S3566.735,3772.809,3566.391,3773.482Z" fill="#ef5d23"/>
        </g>
        <g id="Group_403" data-name="Group 403">
          <g id="Group_402" data-name="Group 402">
            <path id="Path_972" data-name="Path 972" d="M3547.409,3825.272h-41.457l7.486,26.1h41.52Z" fill="#00448c"/>
            <rect id="Rectangle_127" data-name="Rectangle 127" width="54.281" height="1.017" transform="translate(3513.58 3850.358)" fill="#003261"/>
          </g>
          <path id="Path_973" data-name="Path 973" d="M3529.945,3837.9a2.381,2.381,0,0,0-2.138-1.661,1.209,1.209,0,0,0-1.185,1.661,2.38,2.38,0,0,0,2.137,1.662A1.21,1.21,0,0,0,3529.945,3837.9Z" fill="#003261"/>
        </g>
      </g>
      <g id="Group_406" data-name="Group 406">
        <path id="Path_974" data-name="Path 974" d="M3495.961,3808.573l-.07,1.578-.052,1.16-.321,7.391-.029.632-.16,3.7h-10.184l-.231-3.7-.039-.632-.461-7.391-.073-1.16-.129-2.1.028-.065a6.321,6.321,0,0,1,3.8.477c1.426.907,2.98-.865,4.276-.347s1.384,1.166,2.42.736A5.048,5.048,0,0,1,3495.961,3808.573Z" fill="#e37970"/>
        <path id="Path_975" data-name="Path 975" d="M3496.008,3807.474l-.046,1.1-.07,1.578-.052,1.161-.321,7.39-.029.633-.16,3.7h-10.184l-.231-3.7-.039-.633-.461-7.39-.073-1.161-.129-2.1-.037-.581Z" fill="#e2995c"/>
        <path id="Path_976" data-name="Path 976" d="M3496.069,3807.472c0-.06,0-.12,0-.181a5.927,5.927,0,0,0-11.854,0c0,.061,0,.121.005.181Z" fill="#f1f1f2"/>
        <g id="Group_405" data-name="Group 405">
          <path id="Path_977" data-name="Path 977" d="M3489.12,3822.091l-.518-.064c.032-.325,1.689-22.251,1.947-23.713a2.822,2.822,0,0,1,1.909-2.1l.029-.006,8.292-1.469.09.51-8.276,1.466a2.292,2.292,0,0,0-1.534,1.693C3490.8,3799.846,3489.127,3822.012,3489.12,3822.091Z" fill="#c45446"/>
        </g>
        <path id="Path_978" data-name="Path 978" d="M3495.891,3810.15l-.052,1.161-.321,7.39h-10.643l-.461-7.39-.073-1.161Z" fill="#cd8b3a"/>
      </g>
      <path id="Path_979" data-name="Path 979" d="M3496.812,3814.191s-2.75-.747-3.25-.353.219,2.929,2.055,2.576S3496.812,3814.191,3496.812,3814.191Z" fill="#fa997b"/>
    </g>
    <path id="Path_980" data-name="Path 980" d="M3578.076,3828.459l-10.689-18.689s2.179,19.188,0,22.148C3574.738,3831.879,3578.076,3828.459,3578.076,3828.459Z" fill="#c64242"/>
  </g>
  <path id="Path_981" data-name="Path 981" d="M3845.233,3973.572H3100.855v-13.61h744.38v13.609Z" transform="translate(-3094.295 -3550.333)" fill="#417c6c"/>
  <g id="Group_409" data-name="Group 409" transform="translate(-3094.295 -3550.333)">
    <path id="Path_982" data-name="Path 982" d="M3720.935,3929.186l-5.068-3.054a1.31,1.31,0,0,1-.62-1.22q.078-.939.077-1.9a22.114,22.114,0,0,0-.264-3.48,1.292,1.292,0,0,1,.613-1.324l5.294-3.2a1.27,1.27,0,0,0,.485-1.659l-2.493-5.075a1.255,1.255,0,0,0-1.549-.626l-5.352,1.943a1.26,1.26,0,0,1-1.453-.426,22.874,22.874,0,0,0-5.256-4.932,1.3,1.3,0,0,1-.484-1.511l1.188-3.254a1.315,1.315,0,0,0-.645-1.614l-5.043-2.467a1.164,1.164,0,0,0-.316-.109,1.261,1.261,0,0,0-1.343.594l-2.286,3.783-.555.923a22.691,22.691,0,0,0-3.189-.226,22.975,22.975,0,0,0-4.249.394,1.26,1.26,0,0,1-1.323-.587l-2.57-4.268a1.306,1.306,0,0,0-1.7-.5l-3.88,1.9-1.111.549a1.326,1.326,0,0,0-.665,1.64l1.621,4.474a1.262,1.262,0,0,1-.388,1.434,22.714,22.714,0,0,0-3.415,3.447,3.961,3.961,0,0,0-.258.317.633.633,0,0,1-.091.1,1.29,1.29,0,0,1-1.394.323l-5.288-1.918a1.007,1.007,0,0,0-.181-.051,1.314,1.314,0,0,0-1.427.7l-2.466,5.023a1.306,1.306,0,0,0,.5,1.692l5.288,3.183a1.263,1.263,0,0,1,.6,1.3,22.985,22.985,0,0,0-.265,3.5q0,.95.077,1.878a1.33,1.33,0,0,1-.639,1.247l-5.088,3.073a1.27,1.27,0,0,0-.484,1.646l2.473,5.017a1.327,1.327,0,0,0,1.646.665l4.236-1.537a1.3,1.3,0,0,1,1.53.5,22.821,22.821,0,0,0,4.732,5.2,1.292,1.292,0,0,1,.413,1.465l-1.73,4.765a1.342,1.342,0,0,0,.665,1.653l5,2.46a1.281,1.281,0,0,0,1.666-.491l.135-.219,2.654-4.4a1.311,1.311,0,0,1,1.362-.614h.007a22.625,22.625,0,0,0,4,.355c.729,0,1.446-.038,2.162-.1a1.286,1.286,0,0,1,1.234.614l2.608,4.332a1.329,1.329,0,0,0,1.724.51l5-2.46a1.438,1.438,0,0,0,.368-.271,1.322,1.322,0,0,0,.284-1.343l-1.3-3.57a1.324,1.324,0,0,1,.226-1.279,1.4,1.4,0,0,1,.271-.245,22.728,22.728,0,0,0,6.34-6.366,1.281,1.281,0,0,1,1.292-.556,1.408,1.408,0,0,1,.212.059l4.281,1.556a1.3,1.3,0,0,0,1.608-.646l.058-.116,2.408-4.894A1.324,1.324,0,0,0,3720.935,3929.186Zm-40.01-9.652a15.179,15.179,0,0,1,1.02-2.641,11.947,11.947,0,0,1,4.6-4.6c.181-.091.362-.175.543-.259,11.066-4.971,21.738,5.9,16.373,16.968a12.391,12.391,0,0,1-3.777,4.2,8.017,8.017,0,0,1-1.033.607,14.047,14.047,0,0,1-4.578,1.356A12.257,12.257,0,0,1,3680.925,3919.534Z" fill="#ff973d"/>
  </g>
  <g id="Group_410" data-name="Group 410" transform="translate(-3094.295 -3550.333)">
    <path id="Path_983" data-name="Path 983" d="M3722.935,3929.186l-5.068-3.054a1.31,1.31,0,0,1-.62-1.22q.078-.939.077-1.9a22.114,22.114,0,0,0-.264-3.48,1.292,1.292,0,0,1,.613-1.324l5.294-3.2a1.27,1.27,0,0,0,.485-1.659l-2.493-5.075a1.255,1.255,0,0,0-1.549-.626l-5.352,1.943a1.26,1.26,0,0,1-1.453-.426,22.874,22.874,0,0,0-5.256-4.932,1.3,1.3,0,0,1-.484-1.511l1.188-3.254a1.315,1.315,0,0,0-.645-1.614l-5.043-2.467a1.164,1.164,0,0,0-.316-.109,1.261,1.261,0,0,0-1.343.594l-2.286,3.783-.555.923a22.691,22.691,0,0,0-3.189-.226,22.975,22.975,0,0,0-4.249.394,1.26,1.26,0,0,1-1.323-.587l-2.57-4.268a1.306,1.306,0,0,0-1.7-.5l-3.88,1.9-1.111.549a1.326,1.326,0,0,0-.665,1.64l1.621,4.474a1.262,1.262,0,0,1-.388,1.434,22.714,22.714,0,0,0-3.415,3.447,3.961,3.961,0,0,0-.258.317.633.633,0,0,1-.091.1,1.29,1.29,0,0,1-1.394.323l-5.288-1.918a1.007,1.007,0,0,0-.181-.051,1.314,1.314,0,0,0-1.427.7l-2.466,5.023a1.306,1.306,0,0,0,.5,1.692l5.288,3.183a1.263,1.263,0,0,1,.6,1.3,22.985,22.985,0,0,0-.265,3.5q0,.95.077,1.878a1.33,1.33,0,0,1-.639,1.247l-5.088,3.073a1.27,1.27,0,0,0-.484,1.646l2.473,5.017a1.327,1.327,0,0,0,1.646.665l4.236-1.537a1.3,1.3,0,0,1,1.53.5,22.821,22.821,0,0,0,4.732,5.2,1.292,1.292,0,0,1,.413,1.465l-1.73,4.765a1.342,1.342,0,0,0,.665,1.653l5,2.46a1.281,1.281,0,0,0,1.666-.491l.135-.219,2.654-4.4a1.311,1.311,0,0,1,1.362-.614h.007a22.625,22.625,0,0,0,4,.355c.729,0,1.446-.038,2.162-.1a1.286,1.286,0,0,1,1.234.614l2.608,4.332a1.329,1.329,0,0,0,1.724.51l5-2.46a1.438,1.438,0,0,0,.368-.271,1.322,1.322,0,0,0,.284-1.343l-1.3-3.57a1.324,1.324,0,0,1,.226-1.279,1.4,1.4,0,0,1,.271-.245,22.728,22.728,0,0,0,6.34-6.366,1.281,1.281,0,0,1,1.292-.556,1.408,1.408,0,0,1,.212.059l4.281,1.556a1.3,1.3,0,0,0,1.608-.646l.058-.116,2.408-4.894A1.324,1.324,0,0,0,3722.935,3929.186Zm-40.01-9.652a15.179,15.179,0,0,1,1.02-2.641,11.947,11.947,0,0,1,4.6-4.6c.181-.091.362-.175.543-.259,11.066-4.971,21.738,5.9,16.373,16.968a12.391,12.391,0,0,1-3.777,4.2,8.017,8.017,0,0,1-1.033.607,14.047,14.047,0,0,1-4.578,1.356A12.257,12.257,0,0,1,3682.925,3919.534Z" fill="none" stroke="#dd7f3a" stroke-miterlimit="10" stroke-width="2"/>
  </g>
</svg>
