<svg id="Component_10_1" data-name="Component 10 – 1" xmlns="http://www.w3.org/2000/svg" xmlns:xlink="http://www.w3.org/1999/xlink" width="744.38" height="447.541" viewBox="0 0 744.38 447.541">
  <defs>
    <linearGradient id="linear-gradient" y1="0.5" x2="1" y2="0.5" gradientUnits="objectBoundingBox">
      <stop offset="0" stop-color="#2c9c48"/>
      <stop offset="1" stop-color="#34b34d"/>
    </linearGradient>
    <linearGradient id="linear-gradient-6" y1="0.5" x2="1" y2="0.5" gradientUnits="objectBoundingBox">
      <stop offset="0" stop-color="#f69144"/>
      <stop offset="1" stop-color="#ffce45"/>
    </linearGradient>
  </defs>
  <g id="Group_354" data-name="Group 354" transform="translate(-1078.184 -3349.356)">
    <path id="Path_811" data-name="Path 811" d="M1184.643,3783.287s-43.781-53.871-22.141-157.924c13.611-65.449,70.785-97.872,147.431-94.777,26.346,1.064,69.213-30.647,130.8-69.6,131.747-83.323,322.319-47.935,276.708,139.487-22.072,90.7,69.427,92.153,23.951,182.815Z" fill="#bdc7e0"/>
    <path id="Path_812" data-name="Path 812" d="M1174.643,3786.7s-43.781-54.376-22.141-159.4c13.611-66.061,74.619-120.027,147.431-95.664,57.134,19.117,69.213-30.934,130.8-70.253,131.747-84.1,322.319-48.384,276.708,140.793-22.072,91.548,69.427,93.015,23.951,184.527" fill="none" stroke="#a3adc1" stroke-miterlimit="10" stroke-width="3.014"/>
    <g id="Group_319" data-name="Group 319">
      <rect id="Rectangle_399" data-name="Rectangle 399" width="286.284" height="384.621" transform="translate(1352.937 3398.467)" fill="#808184"/>
      <rect id="Rectangle_400" data-name="Rectangle 400" width="255.851" height="354.899" transform="translate(1369.725 3410.933)" fill="#fff"/>
      <path id="Path_813" data-name="Path 813" d="M1445.472,3398.467V3411.5a13.022,13.022,0,0,0,13.016,13.029h69.918a13.023,13.023,0,0,0,13.017-13.029v-13.029Z" fill="#f99746"/>
    </g>
    <g id="Group_342" data-name="Group 342">
      <g id="Group_320" data-name="Group 320">
        <path id="Path_814" data-name="Path 814" d="M1424.285,3459.565h-3.633v-16.82h3.633Z" fill="#abddda"/>
        <path id="Path_815" data-name="Path 815" d="M1444.47,3459.565h-3.633l-7.072-11.067v11.067h-3.633v-16.82h3.633l7.084,11.09v-11.09h3.621Z" fill="#abddda"/>
        <path id="Path_816" data-name="Path 816" d="M1459.266,3455.152a2.221,2.221,0,0,0-.133-.791,1.538,1.538,0,0,0-.515-.653,4.79,4.79,0,0,0-1.053-.589,17.144,17.144,0,0,0-1.738-.612,22.225,22.225,0,0,1-2.283-.832,8.492,8.492,0,0,1-1.877-1.092,4.906,4.906,0,0,1-1.271-1.45,3.81,3.81,0,0,1-.467-1.917,3.936,3.936,0,0,1,.479-1.924,4.42,4.42,0,0,1,1.344-1.485,6.77,6.77,0,0,1,2.059-.953,9.525,9.525,0,0,1,2.622-.34,8.654,8.654,0,0,1,2.664.387,6.208,6.208,0,0,1,2.046,1.08,4.817,4.817,0,0,1,1.308,1.646,4.729,4.729,0,0,1,.46,2.085h-3.632a2.687,2.687,0,0,0-.176-.982,2,2,0,0,0-.539-.774,2.535,2.535,0,0,0-.908-.5,4.109,4.109,0,0,0-1.284-.179,4.555,4.555,0,0,0-1.241.15,2.57,2.57,0,0,0-.872.416,1.764,1.764,0,0,0-.521.624,1.706,1.706,0,0,0-.176.762,1.627,1.627,0,0,0,.89,1.392,10.333,10.333,0,0,0,2.61,1.046,17.549,17.549,0,0,1,2.537.947,7.589,7.589,0,0,1,1.829,1.178,4.5,4.5,0,0,1,1.108,1.479,4.426,4.426,0,0,1,.375,1.86,4.193,4.193,0,0,1-.454,1.976,4.145,4.145,0,0,1-1.289,1.461,6.23,6.23,0,0,1-2.017.913,10.171,10.171,0,0,1-2.634.318,10.7,10.7,0,0,1-1.744-.145,8.658,8.658,0,0,1-1.665-.445,7.3,7.3,0,0,1-1.471-.751,5.316,5.316,0,0,1-1.181-1.063,4.733,4.733,0,0,1-.787-1.392,5,5,0,0,1-.285-1.727h3.646a2.971,2.971,0,0,0,.254,1.294,2.231,2.231,0,0,0,.708.861,3.021,3.021,0,0,0,1.1.479,6.279,6.279,0,0,0,1.429.151,4.617,4.617,0,0,0,1.223-.145,2.559,2.559,0,0,0,.86-.4,1.6,1.6,0,0,0,.5-.607A1.774,1.774,0,0,0,1459.266,3455.152Z" fill="#abddda"/>
        <path id="Path_817" data-name="Path 817" d="M1481.195,3442.745v11.1a6.134,6.134,0,0,1-.508,2.57,5.239,5.239,0,0,1-1.405,1.866,6.045,6.045,0,0,1-2.138,1.132,9.82,9.82,0,0,1-5.425,0,6.031,6.031,0,0,1-2.137-1.132,5.156,5.156,0,0,1-1.4-1.866,6.2,6.2,0,0,1-.5-2.57v-11.1h3.633v11.1a3.118,3.118,0,0,0,.83,2.409,3.862,3.862,0,0,0,4.59,0,3.149,3.149,0,0,0,.817-2.409v-11.1Z" fill="#abddda"/>
        <path id="Path_818" data-name="Path 818" d="M1493.181,3453.408h-2.894v6.157h-3.633v-16.82h6.552a10.43,10.43,0,0,1,2.737.329,5.836,5.836,0,0,1,2.046.97,4.29,4.29,0,0,1,1.284,1.589,5.072,5.072,0,0,1,.448,2.195,5.836,5.836,0,0,1-.218,1.658,4.3,4.3,0,0,1-.63,1.3,4.475,4.475,0,0,1-.992,1,6.54,6.54,0,0,1-1.309.74l3.815,6.874v.161h-3.9Zm-2.894-2.807h2.931a3.952,3.952,0,0,0,1.253-.18,2.419,2.419,0,0,0,.9-.508,2.118,2.118,0,0,0,.539-.785,2.75,2.75,0,0,0,.182-1.023,2.472,2.472,0,0,0-.709-1.871,3.031,3.031,0,0,0-2.173-.682h-2.919Z" fill="#abddda"/>
        <path id="Path_819" data-name="Path 819" d="M1514.917,3456.1h-6.37l-1.211,3.465h-3.863l6.563-16.82h3.367l6.6,16.82h-3.863Zm-5.389-2.808h4.408l-2.216-6.3Z" fill="#abddda"/>
        <path id="Path_820" data-name="Path 820" d="M1538.468,3459.565h-3.633l-7.072-11.067v11.067h-3.633v-16.82h3.633l7.084,11.09v-11.09h3.621Z" fill="#abddda"/>
        <path id="Path_821" data-name="Path 821" d="M1557.963,3453.962a6.638,6.638,0,0,1-.606,2.357,5.5,5.5,0,0,1-1.405,1.843,6.506,6.506,0,0,1-2.173,1.2,9.047,9.047,0,0,1-2.913.434,7.868,7.868,0,0,1-3.045-.561,6.216,6.216,0,0,1-2.289-1.611,7.219,7.219,0,0,1-1.441-2.548,10.5,10.5,0,0,1-.5-3.356v-1.109a10.224,10.224,0,0,1,.521-3.362,7.318,7.318,0,0,1,1.472-2.553,6.361,6.361,0,0,1,2.306-1.617,7.778,7.778,0,0,1,3.028-.566,8.782,8.782,0,0,1,2.912.444,6.341,6.341,0,0,1,2.15,1.236,5.633,5.633,0,0,1,1.38,1.884,7.592,7.592,0,0,1,.63,2.374h-3.633a5.069,5.069,0,0,0-.272-1.329,2.589,2.589,0,0,0-.612-.97,2.556,2.556,0,0,0-1.029-.595,5.029,5.029,0,0,0-1.526-.2,3.133,3.133,0,0,0-2.743,1.276,6.918,6.918,0,0,0-.9,3.957v1.132a11.61,11.61,0,0,0,.2,2.288,4.72,4.72,0,0,0,.63,1.64,2.729,2.729,0,0,0,1.114.988,3.791,3.791,0,0,0,1.653.329,5.228,5.228,0,0,0,1.484-.185,2.658,2.658,0,0,0,1.041-.56,2.5,2.5,0,0,0,.648-.942,4.467,4.467,0,0,0,.291-1.317Z" fill="#abddda"/>
        <path id="Path_822" data-name="Path 822" d="M1573.437,3452.276h-6.975v4.505h8.186v2.784h-11.819v-16.82h11.8v2.807h-8.162v4.009h6.975Z" fill="#abddda"/>
      </g>
      <g id="Group_323" data-name="Group 323">
        <g id="Group_321" data-name="Group 321">
          <path id="Path_823" data-name="Path 823" d="M1446.561,3571.075h-46.273V3524.8h46.273Zm-44.093-2.179h41.914v-41.915h-41.914Z" fill="#abddda"/>
        </g>
        <g id="Group_322" data-name="Group 322">
          <path id="Path_824" data-name="Path 824" d="M1424.574,3561.774a3.265,3.265,0,0,1-2.519-1.186l-14.279-17.273a3.269,3.269,0,1,1,5.039-4.166l11.324,13.7,20.487-34.384a3.269,3.269,0,0,1,5.617,3.347l-22.86,38.367a3.268,3.268,0,0,1-2.558,1.587C1424.741,3561.771,1424.657,3561.774,1424.574,3561.774Z" fill="#f99746"/>
        </g>
      </g>
      <g id="Group_326" data-name="Group 326">
        <g id="Group_324" data-name="Group 324">
          <path id="Path_825" data-name="Path 825" d="M1446.561,3643.427h-46.273v-46.273h46.273Zm-44.093-2.179h41.914v-41.914h-41.914Z" fill="#abddda"/>
        </g>
        <g id="Group_325" data-name="Group 325">
          <path id="Path_826" data-name="Path 826" d="M1424.574,3633.728a3.269,3.269,0,0,1-2.519-1.186l-14.279-17.274a3.269,3.269,0,0,1,5.039-4.166l11.324,13.7,20.487-34.384a3.269,3.269,0,0,1,5.617,3.347l-22.86,38.368a3.269,3.269,0,0,1-2.558,1.586C1424.741,3633.725,1424.657,3633.728,1424.574,3633.728Z" fill="#f99746"/>
        </g>
      </g>
      <g id="Group_329" data-name="Group 329">
        <g id="Group_327" data-name="Group 327">
          <path id="Path_827" data-name="Path 827" d="M1446.561,3714.281h-46.273v-46.273h46.273Zm-44.093-2.179h41.914v-41.915h-41.914Z" fill="#abddda"/>
        </g>
        <g id="Group_328" data-name="Group 328">
          <path id="Path_828" data-name="Path 828" d="M1424.574,3703.9a3.267,3.267,0,0,1-2.519-1.187l-14.279-17.273a3.269,3.269,0,1,1,5.039-4.166l11.324,13.7,20.487-34.384a3.269,3.269,0,0,1,5.617,3.347l-22.86,38.368a3.271,3.271,0,0,1-2.558,1.586C1424.741,3703.9,1424.657,3703.9,1424.574,3703.9Z" fill="#f99746"/>
        </g>
      </g>
      <g id="Group_333" data-name="Group 333" opacity="0.5">
        <g id="Group_330" data-name="Group 330">
          <rect id="Rectangle_401" data-name="Rectangle 401" width="60.338" height="4.515" transform="translate(1477.747 3535.599)" fill="#abddda"/>
          <rect id="Rectangle_402" data-name="Rectangle 402" width="13.714" height="4.515" transform="translate(1575.641 3535.599)" fill="#abddda"/>
        </g>
        <g id="Group_331" data-name="Group 331">
          <rect id="Rectangle_403" data-name="Rectangle 403" width="60.338" height="4.515" transform="translate(1477.747 3555.764)" fill="#abddda"/>
          <rect id="Rectangle_404" data-name="Rectangle 404" width="20.446" height="4.515" transform="translate(1568.909 3555.764)" fill="#abddda"/>
        </g>
        <g id="Group_332" data-name="Group 332">
          <rect id="Rectangle_405" data-name="Rectangle 405" width="16.805" height="4.515" transform="translate(1572.549 3545.681)" fill="#abddda"/>
          <rect id="Rectangle_406" data-name="Rectangle 406" width="16.805" height="4.515" transform="translate(1522.324 3545.681)" fill="#abddda"/>
          <rect id="Rectangle_407" data-name="Rectangle 407" width="37.341" height="4.515" transform="translate(1477.747 3545.681)" fill="#abddda"/>
        </g>
      </g>
      <g id="Group_337" data-name="Group 337" opacity="0.5">
        <g id="Group_334" data-name="Group 334">
          <rect id="Rectangle_408" data-name="Rectangle 408" width="58.035" height="4.515" transform="translate(1477.747 3605.088)" fill="#abddda"/>
        </g>
        <g id="Group_335" data-name="Group 335">
          <rect id="Rectangle_409" data-name="Rectangle 409" width="60.338" height="4.515" transform="translate(1477.747 3625.253)" fill="#abddda"/>
        </g>
        <g id="Group_336" data-name="Group 336">
          <rect id="Rectangle_410" data-name="Rectangle 410" width="15.615" height="4.515" transform="translate(1519.414 3615.171)" fill="#abddda"/>
          <rect id="Rectangle_411" data-name="Rectangle 411" width="37.341" height="4.515" transform="translate(1477.747 3615.171)" fill="#abddda"/>
        </g>
      </g>
      <g id="Group_341" data-name="Group 341" opacity="0.5">
        <g id="Group_338" data-name="Group 338">
          <rect id="Rectangle_412" data-name="Rectangle 412" width="60.338" height="4.515" transform="translate(1477.747 3676.547)" fill="#abddda"/>
        </g>
        <g id="Group_339" data-name="Group 339">
          <rect id="Rectangle_413" data-name="Rectangle 413" width="60.338" height="4.515" transform="translate(1477.747 3696.712)" fill="#abddda"/>
        </g>
        <g id="Group_340" data-name="Group 340">
          <rect id="Rectangle_414" data-name="Rectangle 414" width="26.241" height="4.515" transform="translate(1519.414 3686.63)" fill="#abddda"/>
          <rect id="Rectangle_415" data-name="Rectangle 415" width="37.341" height="4.515" transform="translate(1477.747 3686.63)" fill="#abddda"/>
        </g>
      </g>
    </g>
    <g id="Group_347" data-name="Group 347">
      <g id="Group_343" data-name="Group 343">
        <path id="Path_829" data-name="Path 829" d="M1656.573,3597.3s2.917,8.981,2.666,11.035-2.081,9.073-3.389,10.87-1.953-7.317-2.988-8.688-.212,3.431-.943,3.876-2.25-3.533-2.9-4.936,1.6-6.578,1.6-10.184S1656.573,3597.3,1656.573,3597.3Z" fill="#fa997b"/>
        <path id="Path_830" data-name="Path 830" d="M1587.987,3525.952c-.808-10.3,10.38-17.36,19.213-12,.182.11.361.222.539.337,13.225,8.512,41.761,48.233,43.724,52.212s7.761,35.635,7.761,35.635-7.164,2.62-10.513-.1c0,0-11.618-30.021-13.335-31.522s-46.467-26.609-46.848-36.022C1588.427,3532,1588.227,3529.007,1587.987,3525.952Z" fill="#233862"/>
      </g>
      <g id="Group_344" data-name="Group 344">
        <rect id="Rectangle_416" data-name="Rectangle 416" width="8.44" height="42.456" transform="translate(1481.032 3535.999) rotate(-109.196)" fill="#f99746"/>
        <path id="Path_831" data-name="Path 831" d="M1470.323,3535.26l10.709.74-2.775-7.97Z" fill="#f9ddbf"/>
        <path id="Path_832" data-name="Path 832" d="M1523.934,3515.09l.877,2.52a2.972,2.972,0,0,1-1.829,3.784l-1.855.646-2.775-7.971,2.017-.7A2.8,2.8,0,0,1,1523.934,3515.09Z" fill="#f9ddbf"/>
      </g>
      <g id="Group_345" data-name="Group 345">
        <path id="Path_833" data-name="Path 833" d="M1667.841,3758.444s5.333,4.866,4.292,8.324-5.852,5.763-6.5,9.989-3.252,6.53-5.593,6.53h-11.161s-1.723-2.973,2.439-3.87,5.731-5.862,5.471-10.472a81.29,81.29,0,0,1,.39-10.757l8.844-2.049Z" fill="#233862"/>
        <path id="Path_834" data-name="Path 834" d="M1602.424,3771.03s.957,11.075-1.384,12.227l-29.959-.061s0-3.458,4.812-4.226,13.266-3.586,14.7-9.861S1602.424,3771.03,1602.424,3771.03Z" fill="#233862"/>
        <path id="Path_835" data-name="Path 835" d="M1577.131,3614.593s1.58,19.413,3.437,42.747c2.525,31.7,5.56,70.635,5.86,78.011.519,12.808,2.6,33.3,2.6,33.3s4.939,4.868,14.826,2.816c0,0,8.81-29.247,11.326-60.192.039-.507.078-1.018.117-1.529,2.341-31.5,5.981-97.838,5.981-97.838Z" fill="#f99746"/>
        <path id="Path_836" data-name="Path 836" d="M1577.131,3614.593s1.58,19.413,3.437,42.747l34.615,53.931c.039-.507.078-1.018.117-1.529,2.341-31.5,5.981-97.838,5.981-97.838Z" fill="#ef7e29"/>
        <path id="Path_837" data-name="Path 837" d="M1584.347,3616.9s28.482,70.3,47.209,103.342,24.581,42.26,24.581,42.26,10.729-4.226,11.7-7.107c0,0-7.161-63.784-19.7-79.332-7.086-8.786-15.411-35.153-15.8-44.373s-2.536-27.468-2.536-27.468Z" fill="#f99746"/>
      </g>
      <path id="Path_838" data-name="Path 838" d="M1608.906,3511.439s-19.083,9.679-30.26,6.45a26.207,26.207,0,0,1,7.4-6.165c-.428-2.222-.766-4.151-.969-5.788a53.724,53.724,0,0,1-.588-5.922l7.318-5.995,6.938-5.735C1598.5,3504.028,1608.906,3511.439,1608.906,3511.439Z" fill="#fa997b"/>
      <path id="Path_839" data-name="Path 839" d="M1627.86,3609.784c-7.7,4.663-15,8.169-23.535,10.139-10.069,2.387-22.444,1.683-26.584,2.314a1.724,1.724,0,0,1-1.208-.306c-.325-.166-2.151-12.448-3.981-27.95-.082-.623-.167-1.254-.2-1.885l-.027-.209c-.712-6.06-1.335-12.425-1.876-18.806-.442-4.965-.805-9.876-1.057-14.488-.317-5.77-.449-11.071-.317-15.432.058-1.993.174-3.785.352-5.34,1.091-9.055,5.41-15.525,9.477-20.343l3.374-3.838a18.506,18.506,0,0,0,11.675-2.98c4.121-2.713,8.567-5.63,9.407-5.143,6.315,3.456,11.458,12.41,15.13,24.236a134.913,134.913,0,0,1,4.756,22.71c.333,2.539.615,5.143.832,7.736.042.48.077.96.116,1.432.495,7.089,1.3,13.733,2.2,19.665,1.208,8,2.582,14.705,3.553,19.426.487,2.4.859,4.26,1.08,5.591C1631.223,3607.474,1628.9,3609.138,1627.86,3609.784Z" fill="#2b478b"/>
      <path id="Path_840" data-name="Path 840" d="M1598.992,3494.3s-4.694,8.972-13.915,11.638a53.724,53.724,0,0,1-.588-5.922l7.318-5.995Z" fill="#ef5d23"/>
      <path id="Path_841" data-name="Path 841" d="M1581.094,3499.825s18.44,2.642,19.942-8.692,4.892-18.626-6.818-20.792-14.575,1.866-16.011,5.529S1576.336,3498.845,1581.094,3499.825Z" fill="#fa997b"/>
      <path id="Path_842" data-name="Path 842" d="M1583.8,3463.29c-18.536,1.834-12.181,13.6-9.75,14.968s8.4-2.636,12.889-2.369,5.465,6.72,7,7.578.908-.7,2.945-1.671,2.3,2.433,1.75,4.659,2.333,5.091,2.333,5.091l2.792-3.13c2.793-3.13,5.357-16.271,3.872-18.951C1604.214,3463.291,1597.865,3461.9,1583.8,3463.29Z" fill="#a9453e"/>
      <path id="Path_843" data-name="Path 843" d="M1601.419,3544.171s-15.548,11.829-32.029,14.422c-.317-5.77-.449-11.071-.317-15.432Z" fill="#233862"/>
      <g id="Group_346" data-name="Group 346">
        <path id="Path_844" data-name="Path 844" d="M1505.937,3528.906c-.245-.263-3.415-10.862-8.9-10.089-3.577.505-9.424,2.575-7.871,7.288.611,1.853,11.51,8.236,11.51,8.236Z" fill="#fa997b"/>
        <path id="Path_845" data-name="Path 845" d="M1603.342,3521.313c8.865,5.3,8.146,18.513-1.335,22.615-.195.084-.39.166-.587.244-14.6,5.856-63.505,6.129-67.885,5.425s-33.549-14.3-33.549-14.3,2.01-7.359,6.166-8.515c0,0,31.205,7.907,33.423,7.375s48.6-22.483,56.493-17.344C1598.156,3518.171,1600.712,3519.74,1603.342,3521.313Z" fill="#2b478b"/>
      </g>
    </g>
    <g id="Group_353" data-name="Group 353">
      <g id="Group_348" data-name="Group 348">
        <path id="Path_846" data-name="Path 846" d="M1178.194,3749.122c-7.612-5.352-16.519-42.654-17.051-64.871-.272-11.382-3.636-16.122-6.6-20.306-2.837-4-5.288-7.452-3.861-15.381,2.728-15.154-4.443-21.7-4.516-21.759l.83-.946c.32.278,7.788,7.025,4.925,22.927-1.333,7.409.865,10.508,3.648,14.432,2.92,4.115,6.555,9.236,6.837,21,.57,23.843,9.676,59.063,16.515,63.872Z" fill="url(#linear-gradient)"/>
      </g>
      <g id="Group_349" data-name="Group 349">
        <path id="Path_847" data-name="Path 847" d="M1181.041,3751.888a16.289,16.289,0,0,1-3.218-.349c-2.934-.594-4.857-2.142-5.717-4.6-2.052-5.868,2.7-15.4,6.561-19.995a29.333,29.333,0,0,0,5.833-18.908c-.116-1.835-.306-3.531-.473-5.029-.486-4.328-.837-7.458,1.023-9.546,1.638-1.842,4.8-2.639,10.577-2.667,10.131-.047,14.135-4.241,17.353-7.611a18.344,18.344,0,0,1,4.226-3.637c5.048-2.757,10.394-3.163,12.714-.964,1.1,1.044,2.031,3.089.208,6.9a26.675,26.675,0,0,1-5.568,7.464c-2.338,2.387-3.883,3.962-3.078,7.1.187.737.406,1.483.624,2.229,1.561,5.341,3.331,11.4-5.809,15.5-1.94.873-3.707,1.567-5.266,2.179-6.381,2.5-10.233,4.015-14.581,13.193-.842,1.777-1.584,3.461-2.3,5.09C1190.719,3746.012,1188.126,3751.888,1181.041,3751.888Zm36.768-71.24a17.3,17.3,0,0,0-3.919,3.4c-3.381,3.542-7.592,7.95-18.257,8-5.31.025-8.285.717-9.643,2.244-1.486,1.67-1.162,4.563-.713,8.57.169,1.511.361,3.224.479,5.089a30.07,30.07,0,0,1-6.124,19.8c-3.819,4.546-8.146,13.6-6.338,18.77a5.839,5.839,0,0,0,4.778,3.781c8.609,1.741,10.985-3.645,14.923-12.57.722-1.637,1.469-3.328,2.317-5.119,4.562-9.63,8.817-11.3,15.258-13.828,1.547-.606,3.3-1.3,5.211-2.152,8.14-3.659,6.672-8.683,5.117-14-.223-.761-.444-1.52-.636-2.271-.98-3.827.952-5.8,3.4-8.294a25.245,25.245,0,0,0,5.332-7.128c.826-1.729,1.508-4.075.062-5.446-1.9-1.8-6.736-1.307-11.245,1.154Z" fill="url(#linear-gradient)"/>
      </g>
      <g id="Group_350" data-name="Group 350">
        <path id="Path_848" data-name="Path 848" d="M1177.958,3759.154l-1.256-.066c.062-1.181,1.648-29.018,12.825-37.166,12.263-8.938,16.128-18.544,17.969-24.991,2.17-7.6,13.213-9.628,13.682-9.71l.219,1.239c-.107.019-10.737,1.979-12.69,8.817-1.893,6.626-5.863,16.5-18.439,25.663C1179.571,3730.738,1177.974,3758.871,1177.958,3759.154Z" fill="url(#linear-gradient)"/>
      </g>
      <g id="Group_351" data-name="Group 351">
        <path id="Path_849" data-name="Path 849" d="M1178.79,3765.707c-1.576,0-3.669-1.075-6.545-3.329l-.122-.095-.063-.14c-.154-.337-15.569-33.86-31.178-44.129-9.441-6.21-4.957-13.37-.62-20.292,3.457-5.518,7.031-11.224,4.935-17.209-2.6-7.442-6.5-12-9.942-16.029-6-7.027-10.339-12.1-2.128-26.609,6.21-10.971.223-20.191-5.059-28.325-3.363-5.175-6.265-9.644-5.15-13.608.642-2.28,2.561-4.156,5.87-5.738h0a3.391,3.391,0,0,1,2.932-.017c4.793,2.088,8.8,14.283,9.235,15.651,4.192,5.468,9,5.115,13.249,4.8,2.812-.206,5.239-.383,6.886,1.257,1.517,1.51,2.071,4.41,1.745,9.127-1.064,15.38,7.174,18.4,14.441,21.056,4.21,1.54,8.187,3,9.6,6.73,1.434,3.779,0,9.429-4.5,17.785-9.809,18.191-4.7,22.221.713,26.489,4.831,3.809,9.827,7.748,4.225,21.227-5.272,12.689-5.023,26.483-4.84,36.555.144,7.972.239,13.238-2.391,14.547A2.86,2.86,0,0,1,1178.79,3765.707Zm-5.649-4.227c3.114,2.423,5.261,3.368,6.385,2.808,1.917-.955,1.818-6.447,1.692-13.4-.184-10.182-.437-24.128,4.937-37.058,5.236-12.6.826-16.076-3.843-19.757-5.58-4.4-11.351-8.953-1.041-28.075,4.319-8.009,5.727-13.328,4.432-16.741-1.213-3.2-4.757-4.493-8.86-6-7.3-2.673-16.393-6-15.264-22.324.3-4.266-.155-6.931-1.377-8.148-1.24-1.234-3.3-1.083-5.906-.894-4.362.321-9.791.718-14.409-5.386l-.066-.087-.033-.1c-.04-.131-4.123-13.041-8.571-14.98a2.161,2.161,0,0,0-1.886,0h0c-2.963,1.417-4.664,3.033-5.2,4.942-.961,3.416,1.8,7.664,4.992,12.584,5.208,8.016,11.687,18,5.1,29.629-7.777,13.739-3.892,18.288,1.99,25.172,3.511,4.11,7.489,8.767,10.172,16.43,2.3,6.557-1.61,12.793-5.057,18.3-4.382,6.995-8.167,13.037.246,18.571C1157.129,3727.2,1171.893,3758.769,1173.141,3761.48Z" fill="url(#linear-gradient)"/>
      </g>
      <path id="Path_850" data-name="Path 850" d="M1204.724,3619.3c-7.943-2.724-6.293,12.588-9.65,23.917s-37.344,4.942-23.077,33.312-18.043,9.486-8.392,34.243.839,51.232,11.329,44.5,5.893-37.909,16.8-41.612,12.689-8.025,1.887-18.094,28.3-20.069,18.653-40.4S1213.9,3622.45,1204.724,3619.3Z" fill="url(#linear-gradient)"/>
      <g id="Group_352" data-name="Group 352">
        <path id="Path_851" data-name="Path 851" d="M1178.591,3753.647c-1-4.238-9.532-41.535-1.571-46.042,7.017-3.974,6.843-19.428,5.749-34.021-.969-12.92,15.623-18.958,16.329-19.208l.421,1.186c-.163.058-16.391,5.969-15.495,17.928,1.125,14.986,1.245,30.891-6.383,35.21-6.045,3.423-.48,33.4,2.175,44.657Z" fill="#fff"/>
      </g>
      <path id="Path_852" data-name="Path 852" d="M1196.649,3740.366l-11.342,43.031H1159.96l-11.343-43.031Z" fill="url(#linear-gradient-6)"/>
    </g>
  </g>
  <path id="Path_853" data-name="Path 853" d="M1822.563,3796.9H1078.185v-13.61h744.38V3796.9Z" transform="translate(-1078.184 -3349.356)" fill="#333354"/>
  <g id="Group_356" data-name="Group 356" transform="translate(-1078.184 -3349.356)">
    <path id="Path_854" data-name="Path 854" d="M1389.109,3614.015a15.884,15.884,0,0,1,9.954,17.344s-1.07,5.415-4.4,3.013-1.772-1.959-6.534-5.243-7.87-8.46-7.329-12.573Z" fill="#fa997b"/>
    <path id="Path_855" data-name="Path 855" d="M1389.639,3614.872l-6.861,8.324a1.376,1.376,0,0,1-1.318.475c-6.431-1.181-28.566-15.448-35.816-21.27a21.421,21.421,0,0,1-1.793-1.568c-2.7-2.754-12.026-16.344-18.642-28.448-3.809-6.971-6.722-13.448-6.953-17.077-.824-12.957,5.991-31.076,5.991-31.076,20.162,7.016,22.283,23.114,22.283,23.114l11.177,41.6,31.658,23.662A1.575,1.575,0,0,1,1389.639,3614.872Z" fill="#739af0"/>
    <path id="Path_856" data-name="Path 856" d="M1345.644,3602.4a21.421,21.421,0,0,1-1.793-1.568c-2.7-2.754-12.026-16.344-18.642-28.448-.857-7.314-.269-14.176,2.746-18.972C1327.955,3553.413,1345.094,3583.571,1345.644,3602.4Z" fill="#4a82d3"/>
    <path id="Path_857" data-name="Path 857" d="M1334.028,3722.25l-3.427,14.292-2.121,8.847-7.061,29.447a23.694,23.694,0,0,1-12.327,0,107.4,107.4,0,0,1-2.393-21.9,73.5,73.5,0,0,1,2.405-20,45.936,45.936,0,0,1,2.943-7.821C1322.009,3704.768,1334.028,3722.25,1334.028,3722.25Z" fill="#ffa683"/>
    <path id="Path_858" data-name="Path 858" d="M1339.88,3783.439H1306.7a28.216,28.216,0,0,1,.937-9.824,16.788,16.788,0,0,1,.789-2.11s7.408,1.68,13.8,0c0,0,6.007,5.116,9.638,6.684S1339.5,3778.905,1339.88,3783.439Z" fill="#2b478b"/>
    <path id="Path_859" data-name="Path 859" d="M1307.576,3722.25l-3.427,14.292-2.121,8.847-7.062,29.447a23.69,23.69,0,0,1-12.326,0,107.4,107.4,0,0,1-2.393-21.9,73.508,73.508,0,0,1,2.405-20,45.854,45.854,0,0,1,2.943-7.821C1295.557,3704.768,1307.576,3722.25,1307.576,3722.25Z" fill="#ffa683"/>
    <path id="Path_860" data-name="Path 860" d="M1281.969,3771.5s7.408,1.682,13.8,0c0,0,6.007,5.117,9.637,6.686s7.642.716,8.024,5.25h-33.183S1279.552,3776.816,1281.969,3771.5Z" fill="#2b478b"/>
    <path id="Path_861" data-name="Path 861" d="M1340.952,3735.6a6.76,6.76,0,0,1-6.528,5h-53.208a6.872,6.872,0,0,1-6.855-7.4c.558-7.248,2.553-19.084,3.425-27.077a35.9,35.9,0,0,0,.318-7.365c-5.371-35.537-9.879-77.4-9.332-85.4.078-1.127.132-1.708.132-1.708s3.875-.327,9.77-.556c17.135-.677,51.339-.559,57.022,10.646,5.789,11.415,9.285,87.206,9.285,87.206C1345.827,3716.022,1342.838,3728.618,1340.952,3735.6Z" fill="#312e99"/>
    <path id="Path_862" data-name="Path 862" d="M1300.685,3497.016c-5.154-1.288-8.148,2.773-8.148,7.554a8.659,8.659,0,0,0,8.658,8.658c4.782,0,8.658-5.54,8.658-10.322S1305.324,3498.176,1300.685,3497.016Z" fill="#404041"/>
    <path id="Path_863" data-name="Path 863" d="M1308.631,3506.156a13.683,13.683,0,0,1-6.682-6.159c-4.23-8.849-5.24-24.287,13.606-28.925,0,0,10.9-3.188,17.272,4.213s9.147,12.751,3.682,19.355S1308.631,3506.156,1308.631,3506.156Z" fill="#404041"/>
    <path id="Path_864" data-name="Path 864" d="M1283.223,3626.6a15.884,15.884,0,0,1-5.042,19.351s-4.556,3.116-5.254-.933.107-2.639-.992-8.318.307-11.552,3.574-14.108Z" fill="#fa997b"/>
    <path id="Path_865" data-name="Path 865" d="M1326.769,3505.971s-.272,2.986-.78,7.022c-.246,1.971-.547,4.2-.9,6.442-.253,1.614-.533,3.242-.84,4.8l-6.855,23.153-16.1-26.051s3.783-3.129,8.91-20.092c.049-.181.084-.279.084-.279Z" fill="#fa997b"/>
    <path id="Path_866" data-name="Path 866" d="M1336.149,3620.2c.209,2.6-.45,3.075-.45,3.075s-9.9,3.588-34.792,2.348q-4.041-.2-7.6-.413c-16.043-.946-24.624-1.935-24.624-1.935s-13.14-30.329,11.547-67.7a119.754,119.754,0,0,1,9.9-12.911c4-4.56,4.88-10.661,6.394-16.459.432-1.662-.82-2.029-.195-3.6,0,0,4.5-1.273,4.966-1.273,2.557,2.253,5.93,6.632,14.3,7.5,5.66.591,7.875-2.6,8.681-4.51a68.475,68.475,0,0,1,6.224,3.006c15.169,7.282,16.562,21.405,16.562,21.405s-13.939,45.837-14.805,51.56C1331.87,3602.838,1335.069,3606.795,1336.149,3620.2Z" fill="#739af0"/>
    <path id="Path_867" data-name="Path 867" d="M1325.989,3512.993c-.246,1.971-1.08,7.368-1.435,9.615-17.047-6.646-14.814-19.6-14.35-21.365.049-.181.084-.279.084-.279S1319.306,3507.367,1325.989,3512.993Z" fill="#ff9759"/>
    <g id="Group_355" data-name="Group 355">
      <path id="Path_868" data-name="Path 868" d="M1329.643,3515.283s-19.688.632-19.892-11.635-2.884-20.446,9.677-21.368,15.083,3.718,16.147,7.795S1334.759,3514.8,1329.643,3515.283Z" fill="#fa997b"/>
    </g>
    <path id="Path_869" data-name="Path 869" d="M1331.363,3480.442s8.745,15.181-.372,8.7c-5.11-3.632-15.13-.872-24.866,9.58C1306.125,3498.725,1306.636,3470.362,1331.363,3480.442Z" fill="#404041"/>
    <path id="Path_870" data-name="Path 870" d="M1326.515,3487.652s9.552,2.712,9.347,7.686c0,0,8.165-12.615-9.093-12.86Z" fill="#404041"/>
    <path id="Path_871" data-name="Path 871" d="M1293.307,3625.206c-16.043-.946-24.624-1.935-24.624-1.935s-13.14-30.329,11.547-67.7C1285.228,3567.224,1297.015,3598.358,1293.307,3625.206Z" fill="#4a82d3"/>
    <path id="Path_872" data-name="Path 872" d="M1301.294,3521.335s-19.046,3.908-27.532,13.734c-6.5,7.529-13.614,44.34-13.614,50.423,0,5.812,6.681,36.715,10.852,42.64a1.38,1.38,0,0,0,1.273.586l10.727-1.137a1.577,1.577,0,0,0,1.392-1.809l-6.028-39.064,21.155-37.52S1311.993,3534.4,1301.294,3521.335Z" fill="#739af0"/>
  </g>
  <g id="Group_357" data-name="Group 357" transform="translate(-1078.184 -3349.356)">
    <path id="Path_873" data-name="Path 873" d="M1378.99,3773.66a7.6,7.6,0,0,0,4.8,3.632,8.273,8.273,0,0,1,4.975,3.057,1.94,1.94,0,0,1-1.56,3.09h-16.779a2.412,2.412,0,0,1-2.4-2.654c.125-1.244.256-2.691.313-3.8.124-2.424,2.551-4.374,2.551-4.374Z" fill="#2c3a64"/>
    <path id="Path_874" data-name="Path 874" d="M1382.79,3731.343c.7,12.759-1.039,41.76-1.039,41.76s-1.17,3.234-8.558,4.006a22.14,22.14,0,0,1-7.52-.614q-2.236-10.3-4.139-19.656c-9.121-44.747-12.678-72.387-12.678-72.387l36-8.369s-1.577,25.262-2.041,42.489C1382.673,3723.949,1382.638,3728.544,1382.79,3731.343Z" fill="#35488b"/>
    <path id="Path_875" data-name="Path 875" d="M1384.859,3676.083s-1.577,25.262-2.041,42.489l-21.284,38.267c-9.121-44.747-12.678-72.387-12.678-72.387Z" fill="#2c3a64"/>
    <path id="Path_876" data-name="Path 876" d="M1348.662,3618.225s-13.932-6.341-24.472-.794-4.1,51.336,10.976,55.774h0S1363.4,3682.234,1348.662,3618.225Z" fill="#35488b"/>
    <path id="Path_877" data-name="Path 877" d="M1388.962,3686.757a1.777,1.777,0,0,0-.136-.178,23.386,23.386,0,0,1-1.305-2.744h0c2.8-13.719.916-21.652.916-21.652.333-4,2.718-31.9-2.774-44.825-2.65-6.237-7.087-6.248-7.087-6.248s1.04,9.965.353,15.321c-.63,4.917,4.058,51,4.832,58.528-.013,0-.022,0-.026,0l.222,7.658,2.247-.532a1.555,1.555,0,0,0,.281-.1h0a1.594,1.594,0,0,0,.685-.6l1.815-2.876a1.618,1.618,0,0,0-.023-1.756Zm-4.275-1.242.095-.057-.047.062C1384.729,3685.527,1384.711,3685.524,1384.687,3685.515Z" fill="#fa997b"/>
    <path id="Path_878" data-name="Path 878" d="M1349.779,3773.66a7.6,7.6,0,0,0,4.8,3.632,8.273,8.273,0,0,1,4.975,3.057,1.94,1.94,0,0,1-1.56,3.09h-16.78a2.413,2.413,0,0,1-2.4-2.654c.125-1.244.256-2.691.313-3.8.124-2.424,2.551-4.374,2.551-4.374Z" fill="#2c3a64"/>
    <path id="Path_879" data-name="Path 879" d="M1360.651,3565.148a12.271,12.271,0,0,0-7.8,2.889c-1.906,1.852-3.889,1.947-5.3,4.133a9.546,9.546,0,0,0-1.644,7.855c.808,3.5.644,6.891,2.844,9.463,1.089,1.273,2.863,1.417,4.1,2.587a10.624,10.624,0,0,0,7.8,2.827c5.553,0,9.009-3.29,11.851-7.389,2.278-3.285,1.827-5.5,2.361-8.308C1376.544,3570.362,1369.168,3565.148,1360.651,3565.148Z" fill="#a9453e"/>
    <path id="Path_880" data-name="Path 880" d="M1371.993,3608.024l-14.312,7.314-2.867-9.928a30.452,30.452,0,0,0,2.648-9.065,37.789,37.789,0,0,0,.3-8.172l11.66,5.971a22.064,22.064,0,0,0-.464,2.669,19.41,19.41,0,0,0,.2,6.239A8.637,8.637,0,0,0,1371.993,3608.024Z" fill="#fa997b"/>
    <path id="Path_881" data-name="Path 881" d="M1338.837,3679.968s-2.72,36.065-2.114,93.542a22.12,22.12,0,0,0,7.241,2.12c7.392.735,9.191-2.195,9.191-2.195s7.56-28.052,9.45-40.692c1.742-11.652,13.183-53.7,13.183-53.7Z" fill="#35488b"/>
    <path id="Path_882" data-name="Path 882" d="M1381.452,3609.025a45.821,45.821,0,0,0-11.278-3.2c.063,2.057-.476,3.994-4.087,4.466-4.8.626-9.1-2.652-11.273-4.88h0s-3.387.363-7.336,1.227a46.011,46.011,0,0,0-5.995,1.7,12.721,12.721,0,0,0-5.364,3.21h0v0c-3.7,4.536-9.776,18.195-9.776,18.195s10.121,3.752,12.675,5.941l.058.489,1.585,13.155-4.718,26.2a3.912,3.912,0,0,0-.063.685,3.862,3.862,0,0,0,2.958,3.75s.4.068,1.152.171c5,.7,25.306,3.125,41.226-1.2a7.73,7.73,0,0,0,5.641-8.091l-2.595-32.568c1.386-.238,2.984-.49,4.283-.635a8.067,8.067,0,0,1,2.31-.049S1389.055,3612.163,1381.452,3609.025Z" fill="#f99746"/>
    <path id="Path_883" data-name="Path 883" d="M1351.412,3657.358c-.2,9.142-6.192,19.884-11.424,22.779-.747-.1-1.152-.171-1.152-.171a3.862,3.862,0,0,1-2.958-3.75,3.912,3.912,0,0,1,.063-.685l4.718-26.2-1.585-13.155.117-.351S1351.768,3641.207,1351.412,3657.358Z" fill="#ed7d2b"/>
    <path id="Path_884" data-name="Path 884" d="M1388.543,3637.646c-1.332.149-4.291.636-4.291.636l-1.5-13.642S1387.76,3634.256,1388.543,3637.646Z" fill="#ed7d2b"/>
    <path id="Path_885" data-name="Path 885" d="M1336.783,3670.852l1.226-6.806c20.752-30.024,22.322-35.41,12.99-48.89a19.874,19.874,0,0,0-9.516-6.82,46.011,46.011,0,0,1,5.995-1.7,22.553,22.553,0,0,1,5.186,3.051C1381.146,3634.347,1336.783,3670.852,1336.783,3670.852Z" fill="#35488b"/>
    <path id="Path_886" data-name="Path 886" d="M1361.017,3632.32c-8.125.562-9.249,8.887-9.249,8.887s-13.636,1.237-15.651,2.133c0,0,1.106-2.993,3.074-7.517-1.778-1.748-7.621-4.349-11.49-5.543-2.951,7.528-4.085,14.979-2.43,22.164a1.742,1.742,0,0,0,1.619,1.338c4.34.2,18.68.13,29.18-8.564l.185-.05c2.513-.15,4.873-2.646,5.779-5.928s.979-2.279,1.673-4.589S1361.017,3632.32,1361.017,3632.32Z" fill="#fa997b"/>
    <path id="Path_887" data-name="Path 887" d="M1369.155,3603.052c-6.63-.177-11.693-6.707-11.693-6.707l11.492.468A19.41,19.41,0,0,0,1369.155,3603.052Z" fill="#ef5d23"/>
    <path id="Path_888" data-name="Path 888" d="M1369.786,3599.047s-14.649,1.785-14.962-8.536,5.794-17.006,9.87-16.93c8.127.152,9.467,3.437,10.41,6.857S1376.531,3598.32,1369.786,3599.047Z" fill="#fa997b"/>
    <path id="Path_889" data-name="Path 889" d="M1368.32,3573.677s-12.52-.008-9.643,8.588c1.813,5.417-4.216,6.259-4.216,6.259l-2.9-8.683,1.817-6.764Z" fill="#a9453e"/>
  </g>
  <g id="Group_358" data-name="Group 358" transform="translate(-1078.184 -3349.356)">
    <path id="Path_890" data-name="Path 890" d="M1407.535,3361.849s-17.587-12.493-47.6-12.493-47.594,12.493-47.594,12.493-11.752,67.091,47.594,95.924C1419.286,3428.94,1407.535,3361.849,1407.535,3361.849Z" fill="#6a90d9"/>
    <path id="Path_891" data-name="Path 891" d="M1403.449,3365.567s-16.077-11.2-43.51-11.2-43.508,11.2-43.508,11.2-10.743,61.331,43.508,87.689C1414.191,3426.9,1403.449,3365.567,1403.449,3365.567Z" fill="#fff"/>
    <path id="Path_892" data-name="Path 892" d="M1399.933,3368.765s-14.778-10.516-39.993-10.516-39.994,10.516-39.994,10.516-9.875,56.376,39.994,80.6C1409.808,3425.141,1399.933,3368.765,1399.933,3368.765Z" fill="#5675b0"/>
    <path id="Path_893" data-name="Path 893" d="M1357.9,3414.5a3.9,3.9,0,0,1-2.763-1.145l-15.031-15.031a3.907,3.907,0,0,1,5.525-5.525l12.269,12.268,19.7-19.7a3.907,3.907,0,0,1,5.525,5.525l-22.466,22.466A3.894,3.894,0,0,1,1357.9,3414.5Z" fill="#fff"/>
  </g>
  <ellipse id="Ellipse_12" data-name="Ellipse 12" cx="2.999" cy="3.984" rx="2.999" ry="3.984" transform="translate(227.55 145.531) rotate(-18.719)" fill="#fa997b"/>
  <path id="Path_894" data-name="Path 894" d="M1309.255,3498.1c.383.571.962.857,1.293.636s.288-.865-.095-1.439-.964-.854-1.293-.634S1308.871,3497.526,1309.255,3498.1Z" transform="translate(-1078.184 -3349.356)" fill="#ef5d23"/>
  <ellipse id="Ellipse_13" data-name="Ellipse 13" cx="2.151" cy="2.858" rx="2.151" ry="2.858" transform="translate(275.026 236.075) rotate(-18.719)" fill="#fa997b"/>
  <path id="Path_895" data-name="Path 895" d="M1355.736,3587.735c.275.41.69.615.927.456s.208-.62-.068-1.032-.691-.613-.927-.454S1355.461,3587.325,1355.736,3587.735Z" transform="translate(-1078.184 -3349.356)" fill="#ef5d23"/>
  <path id="Path_896" data-name="Path 896" d="M1596.528,3484.136c-.154.469-.06.922.211,1.012s.616-.218.772-.688.058-.922-.212-1.011S1596.682,3483.667,1596.528,3484.136Z" transform="translate(-1078.184 -3349.356)" fill="#ef5d23"/>
</svg>
