<svg xmlns="http://www.w3.org/2000/svg" xmlns:xlink="http://www.w3.org/1999/xlink" width="659.986" height="436.416" viewBox="0 0 659.986 436.416">
  <defs>
    <linearGradient id="linear-gradient" x1="1.563" y1="0.5" x2="2.563" y2="0.5" gradientUnits="objectBoundingBox">
      <stop offset="0" stop-color="#e09e4f"/>
      <stop offset="1" stop-color="#cd8b3a"/>
    </linearGradient>
    <linearGradient id="linear-gradient-2" x1="1.659" y1="0.5" x2="2.659" y2="0.5" gradientUnits="objectBoundingBox">
      <stop offset="0" stop-color="#f4b073"/>
      <stop offset="1" stop-color="#e2995c"/>
    </linearGradient>
    <linearGradient id="linear-gradient-3" x1="5.7" y1="0.5" x2="6.7" y2="0.5" xlink:href="#linear-gradient-2"/>
    <linearGradient id="linear-gradient-4" x1="-0.174" y1="0.5" x2="1.174" y2="0.5" xlink:href="#linear-gradient-2"/>
    <linearGradient id="linear-gradient-5" x1="-0.02" y1="0.5" x2="1.02" y2="0.5" xlink:href="#linear-gradient"/>
    <linearGradient id="linear-gradient-6" x1="-0.175" y1="0.5" x2="1.175" y2="0.5" xlink:href="#linear-gradient-2"/>
  </defs>
  <g id="Component_3_1" data-name="Component 3 – 1" transform="translate(0 1.33)">
    <g id="Group_141" data-name="Group 141" transform="translate(-1120.381 -5937.732)">
      <g id="Group_140" data-name="Group 140">
        <path id="Path_269" data-name="Path 269" d="M1179.222,6372s-78.13-99.472-12.631-206.941c57.143-93.758,119.256-88.924,166.354-50.19,20.06,16.5,86.954,99.066,141.887-5.67,68.837-131.244,285.057-141.538,242.63,62.238-20.532,98.614,82.188,102.2,39.886,200.772" fill="none" stroke="#a89469" stroke-miterlimit="10" stroke-width="2.66"/>
        <path id="Path_270" data-name="Path 270" d="M1170.356,6372s-74.687-95.367-12.631-198.616c55.06-91.61,119.255-85.347,166.354-48.172,20.06,15.834,92.662,87.774,141.887-5.442,67.129-127.121,285.057-135.844,242.63,59.735-20.532,94.647,82.187,98.087,39.886,192.7Z" fill="#ddcb9e"/>
        <g id="Group_129" data-name="Group 129">
          <g id="Group_128" data-name="Group 128">
            <g id="Group_126" data-name="Group 126">
              <g id="Group_122" data-name="Group 122">
                <path id="Path_271" data-name="Path 271" d="M1609.225,6105.271h85.834a12.048,12.048,0,0,1,9.984,5.3l38.141,56.416a12.055,12.055,0,0,1,2.067,6.75v112.147a4.474,4.474,0,0,1-4.474,4.474H1609.225a4.475,4.475,0,0,1-4.475-4.474V6109.745A4.475,4.475,0,0,1,1609.225,6105.271Z" fill="#ffa400"/>
                <path id="Path_272" data-name="Path 272" d="M1722.676,6165.19l-26.847-42.305a2.569,2.569,0,0,0-2.169-1.192h-70.831a2.569,2.569,0,0,0-2.569,2.569v42.3a2.569,2.569,0,0,0,2.569,2.569h97.679A2.568,2.568,0,0,0,1722.676,6165.19Z" fill="#21334f" stroke="#465e7a" stroke-miterlimit="10" stroke-width="5.474"/>
                <path id="Path_273" data-name="Path 273" d="M1583.159,6283.365v6.995h34.195a36.275,36.275,0,0,1,53.483,0h83.538v12.587a12.047,12.047,0,0,1-12.047,12.046H1312.8v-31.628Z" fill="#21334f"/>
                <path id="Rectangle_5" data-name="Rectangle 5" d="M0,0H14.159a4.088,4.088,0,0,1,4.088,4.088V14.158a4.089,4.089,0,0,1-4.089,4.089H0a0,0,0,0,1,0,0V0A0,0,0,0,1,0,0Z" transform="translate(1745.251 6264.476) rotate(-180)" fill="#fff"/>
                <path id="Path_274" data-name="Path 274" d="M1637.335,6192.589h19.375a2.021,2.021,0,0,0,2.021-2.021h0a2.021,2.021,0,0,0-2.021-2.021h-19.375a2.021,2.021,0,0,0-2.021,2.021h0A2.021,2.021,0,0,0,1637.335,6192.589Z" fill="#21334f"/>
              </g>
              <g id="Group_123" data-name="Group 123">
                <circle id="Ellipse_2" data-name="Ellipse 2" cx="40.613" cy="40.613" r="40.613" transform="translate(1603.482 6278.595)" fill="#414d5b"/>
                <circle id="Ellipse_3" data-name="Ellipse 3" cx="19.721" cy="19.721" r="19.721" transform="translate(1624.374 6299.487)" fill="#fff"/>
              </g>
              <g id="Group_124" data-name="Group 124">
                <circle id="Ellipse_4" data-name="Ellipse 4" cx="40.613" cy="40.613" r="40.613" transform="translate(1331.461 6278.595)" fill="#414d5b"/>
                <circle id="Ellipse_5" data-name="Ellipse 5" cx="19.721" cy="19.721" r="19.721" transform="translate(1352.353 6299.487)" fill="#fff"/>
              </g>
              <g id="Group_125" data-name="Group 125">
                <path id="Rectangle_6" data-name="Rectangle 6" d="M7.334,0H274.615a0,0,0,0,1,0,0V205.77a0,0,0,0,1,0,0H0a0,0,0,0,1,0,0V7.334A7.334,7.334,0,0,1,7.334,0Z" transform="translate(1592.89 6283.118) rotate(-180)" fill="#0d5dbc"/>
                <rect id="Rectangle_7" data-name="Rectangle 7" width="282.522" height="8.805" rx="2.148" transform="translate(1597.462 6078.788) rotate(-180)" fill="#ffa400"/>
              </g>
            </g>
            <g id="Group_127" data-name="Group 127">
              <path id="Path_275" data-name="Path 275" d="M1458.911,6313.447h40.367a1.113,1.113,0,0,1,1.168,1.048v44.683a1.113,1.113,0,0,1-1.168,1.047h-80.734a1.113,1.113,0,0,1-1.168-1.047V6314.5a1.113,1.113,0,0,1,1.168-1.048Z" fill="url(#linear-gradient)"/>
              <path id="Path_276" data-name="Path 276" d="M1464.968,6266.3h34.48a1.024,1.024,0,0,1,1,1.048v44.683a1.024,1.024,0,0,1-1,1.048h-68.96a1.024,1.024,0,0,1-1-1.048V6267.35a1.024,1.024,0,0,1,1-1.048Z" fill="url(#linear-gradient-2)"/>
              <path id="Path_277" data-name="Path 277" d="M1394.725,6313.447h22.014c.352,0,.637.469.637,1.048v44.683c0,.578-.285,1.047-.637,1.047h-44.028c-.352,0-.637-.469-.637-1.047V6314.5c0-.579.285-1.048.637-1.048Z" fill="url(#linear-gradient-3)"/>
            </g>
          </g>
          <rect id="Rectangle_8" data-name="Rectangle 8" width="77.47" height="2.85" rx="0.64" transform="translate(1342.122 6097.86)" fill="#e58e0e"/>
          <rect id="Rectangle_9" data-name="Rectangle 9" width="77.47" height="2.85" rx="0.64" transform="translate(1342.122 6109.968)" fill="#e58e0e"/>
          <rect id="Rectangle_10" data-name="Rectangle 10" width="77.47" height="2.85" rx="0.64" transform="translate(1342.122 6122.076)" fill="#e58e0e"/>
          <rect id="Rectangle_11" data-name="Rectangle 11" width="77.47" height="2.85" rx="0.64" transform="translate(1342.122 6134.184)" fill="#e58e0e"/>
        </g>
        <path id="Path_278" data-name="Path 278" d="M1170.393,6111.43c.368.617.955.947,1.313.735s.349-.886-.019-1.506-.958-.945-1.314-.733S1170.023,6110.812,1170.393,6111.43Z" fill="#ef5d23"/>
        <g id="Group_139" data-name="Group 139">
          <g id="Group_134" data-name="Group 134">
            <g id="Group_130" data-name="Group 130">
              <path id="Path_279" data-name="Path 279" d="M1145.743,6333.238l-6.4,7.647a2.082,2.082,0,0,0,.147,3.023l6.1,5.214a2.08,2.08,0,0,0,1.964.407l.59-.181a2.006,2.006,0,0,1,2.109.6c3,3.445,13.438,14.517,20.768,10.949,8.641-4.207-11.485-13.872-11.94-16.487s-.133-3.075-.133-3.075Z" fill="#00081a"/>
              <path id="Path_280" data-name="Path 280" d="M1150.564,6340.543a6.12,6.12,0,0,0,8.483-1.687l-10.572-6.706A6.12,6.12,0,0,0,1150.564,6340.543Z" fill="#ffa683"/>
              <path id="Path_281" data-name="Path 281" d="M1223.838,6347.239l.417,9.963a2.081,2.081,0,0,0,2.145,2.136l8.017-.25a2.08,2.08,0,0,0,1.726-1.021l.314-.531a2.007,2.007,0,0,1,1.962-.978c4.539.526,19.711,1.685,22.727-5.888,3.557-8.929-17.831-2.524-19.928-4.151s-2.169-2.184-2.169-2.184Z" fill="#00081a"/>
              <path id="Path_282" data-name="Path 282" d="M1232.321,6349.394c3.584-.628,6.028-3.769,5.459-7.016l-12.977,2.273C1225.371,6347.9,1228.737,6350.021,1232.321,6349.394Z" fill="#ffa683"/>
              <path id="Path_283" data-name="Path 283" d="M1158.522,6345.941l-15.294-9.7,24.739-55.909a10.246,10.246,0,0,0,1.283-6.791l-2.609-46.747,23.416-2.347,10,15.01,3.153,35.775a10.394,10.394,0,0,1-1.861,6.906Z" fill="#e5863e"/>
              <path id="Path_284" data-name="Path 284" d="M1170.327,6218.7c-1.243,14.391,7.448,23.267,17.732,38.427,11.153,16.442,17.572,30.266,17.995,32.565l17.982,62.274,17.881-4.177-10.611-72.063a22.434,22.434,0,0,0-1.548-5.919l-22.924-55.364Z" fill="#f99746"/>
            </g>
            <g id="Group_131" data-name="Group 131">
              <path id="Path_285" data-name="Path 285" d="M1168.528,6120.353a27.705,27.705,0,0,1-8.562-11.364c-2.966-8.049,10.307-18.44,32.2-11.854Z" fill="#a9453e"/>
              <path id="Path_286" data-name="Path 286" d="M1192.127,6098.264s2.869,10.625,0,19.55-3.824,9.243-11.156,8.765v9.4l-14.184-3.028s3.29-15.149.9-17.478c-2.015-1.965-3.128-5.726-.786-7.386,3.707-2.628,7.219,1.637,7.644,3.55,0,0-.1-5.99,1-7.532C1178.116,6100.539,1188.94,6097.52,1192.127,6098.264Z" fill="#fa997b"/>
              <path id="Path_287" data-name="Path 287" d="M1168.98,6112.021c.385.607.982.921,1.333.7s.325-.9-.061-1.505-.983-.918-1.333-.7S1168.594,6111.414,1168.98,6112.021Z" fill="#ef5d23"/>
              <path id="Path_288" data-name="Path 288" d="M1180.936,6126.571a27.479,27.479,0,0,1-9.088-3.061,14.352,14.352,0,0,0,9.088,6.65Z" fill="#ef5d23"/>
              <path id="Path_289" data-name="Path 289" d="M1192.866,6097.413c-2.7,3.691-13.844,1.746-17.993,3.266-3.88,1.422-14.811,8.6-14.811,8.6s-5.537-15.447,8.448-21.455S1197.266,6091.392,1192.866,6097.413Z" fill="#a9453e"/>
            </g>
            <path id="Path_290" data-name="Path 290" d="M1188,6165.589l.542,4.88a2.488,2.488,0,0,0,.934,1.68L1223,6198.528a2.488,2.488,0,0,0,2.462.355l5.3-2.12a2.484,2.484,0,0,1,2.406.313l4.581,3.4a3.644,3.644,0,0,1,1.156,4.412l-1.15,2.575a2.487,2.487,0,0,1-2.433,1.468l-8.91-.581a2.487,2.487,0,0,1-1.076-.324l-47.447-27.227a6.483,6.483,0,0,1-3.061-4.049l-1.9-7.614a2.488,2.488,0,0,1,1.783-3.01l10.193-2.669A2.488,2.488,0,0,1,1188,6165.589Z" fill="#f4af9a"/>
            <g id="Group_132" data-name="Group 132">
              <path id="Path_291" data-name="Path 291" d="M1208.1,6205.814s-5.753-50.594-16.708-63.982-26.015-14.824-30.838-2.671-5.756,26.808-4.584,42.846c1.861,25.468,8.432,46.485,9.463,51.083l45.259-8.642Z" fill="#2b478b"/>
              <path id="Path_292" data-name="Path 292" d="M1166.641,6147.8l3.029,24.631h3.427l-1.3-22.578Z" fill="#233862"/>
              <path id="Path_293" data-name="Path 293" d="M1187.621,6147.16l3.775,23.787-3.883.3-2.791-24.089Z" fill="#233862"/>
            </g>
            <path id="Path_294" data-name="Path 294" d="M1188,6168.182l.542,4.88a2.488,2.488,0,0,0,.934,1.68L1223,6201.121a2.489,2.489,0,0,0,2.462.355l5.3-2.12a2.486,2.486,0,0,1,2.406.313l4.581,3.4a3.644,3.644,0,0,1,1.156,4.412l-1.15,2.575a2.487,2.487,0,0,1-2.433,1.468l-8.91-.581a2.5,2.5,0,0,1-1.076-.324l-47.447-27.228a6.481,6.481,0,0,1-3.061-4.048l-1.9-7.614a2.487,2.487,0,0,1,1.783-3.01l10.193-2.669A2.488,2.488,0,0,1,1188,6168.182Z" fill="#fa997b"/>
            <g id="Group_133" data-name="Group 133">
              <path id="Path_295" data-name="Path 295" d="M1187.3,6146.4l2.49,23.147-18.788,1.4-4.366-23.142Z" fill="#2b478b"/>
            </g>
          </g>
          <g id="Group_138" data-name="Group 138">
            <g id="Group_135" data-name="Group 135">
              <rect id="Rectangle_12" data-name="Rectangle 12" width="63.897" height="77.122" transform="translate(1254.018 6274.09) rotate(-19.635)" fill="url(#linear-gradient-4)"/>
            </g>
            <g id="Group_136" data-name="Group 136">
              <rect id="Rectangle_13" data-name="Rectangle 13" width="54.734" height="15.901" transform="matrix(0.942, -0.336, 0.336, 0.942, 1248.575, 6258.834)" fill="url(#linear-gradient-5)"/>
            </g>
            <g id="Group_137" data-name="Group 137">
              <rect id="Rectangle_14" data-name="Rectangle 14" width="27.367" height="33.266" transform="translate(1237.253 6227.577) rotate(-19.635)" fill="url(#linear-gradient-6)"/>
            </g>
            <path id="Path_296" data-name="Path 296" d="M1279.009,6347.788l-48.962-137a1.365,1.365,0,0,1,2.571-.918l48.054,134.455,68.184-23.447a1.365,1.365,0,0,1,.887,2.581Z" fill="#00081a"/>
            <circle id="Ellipse_6" data-name="Ellipse 6" cx="13.531" cy="13.531" r="13.531" transform="translate(1266.409 6332.41)" fill="#00081a"/>
            <circle id="Ellipse_7" data-name="Ellipse 7" cx="4.725" cy="4.725" r="4.725" transform="translate(1275.215 6341.333)" fill="#fdbe42"/>
            <path id="Path_297" data-name="Path 297" d="M1228.158,6212.528a3.559,3.559,0,1,0,.608-5A3.558,3.558,0,0,0,1228.158,6212.528Z" fill="#30353d"/>
          </g>
        </g>
      </g>
      <path id="Path_298" data-name="Path 298" d="M1365.045,6023.36a10.837,10.837,0,0,0-2.618-.1c0-.011,0-.02,0-.031a2.606,2.606,0,0,0-2.606-2.606c-.031,0-.059.008-.089.009a5.566,5.566,0,0,0,.089-.964,5.623,5.623,0,0,0-4.961-5.581,10.5,10.5,0,0,0-18.664-8.667,7.425,7.425,0,0,0-5.86-.319c.02-.294.044-.586.044-.884a12.414,12.414,0,1,0-24.829,0c0,.353.024.7.053,1.047a2.551,2.551,0,0,0-3.1,1.519,7.5,7.5,0,0,0-9.021,9.6,2.564,2.564,0,0,0-.435-.044,2.6,2.6,0,0,0-2.365,1.524,5.339,5.339,0,0,0-9.075,3.819v.007a2.562,2.562,0,0,0-3.495,1c-.266-.082-6.028-1.817-10.763.76a9.333,9.333,0,0,0-4.556,5.485h106.958A5.229,5.229,0,0,0,1365.045,6023.36Z" fill="none" stroke="#a89469" stroke-miterlimit="10" stroke-width="2.66" fill-rule="evenodd"/>
      <path id="Path_299" data-name="Path 299" d="M1417.9,5986.99h141.861a12.374,12.374,0,0,0-6.042-7.274c-6.28-3.418-13.923-1.117-14.275-1.008a3.4,3.4,0,0,0-4.636-1.33v-.009a7.083,7.083,0,0,0-12.037-5.065,3.373,3.373,0,0,0-3.713-1.963,9.933,9.933,0,0,0-11.965-12.74,3.454,3.454,0,0,0-3.2-2.153,3.414,3.414,0,0,0-.916.139c.038-.459.07-.92.07-1.389a16.466,16.466,0,1,0-32.932,0c0,.4.032.784.059,1.173a9.845,9.845,0,0,0-7.773.423,13.922,13.922,0,0,0-24.754,11.5,7.409,7.409,0,0,0-6.462,8.68c-.04,0-.077-.012-.118-.012a3.457,3.457,0,0,0-3.456,3.457c0,.014,0,.026,0,.04a14.419,14.419,0,0,0-3.472.134A6.936,6.936,0,0,0,1417.9,5986.99Z" fill="none" stroke="#a89469" stroke-miterlimit="10" stroke-width="2.66" fill-rule="evenodd"/>
    </g>
    <path id="Path_300" data-name="Path 300" d="M1780.366,6372.205H1120.382v-12.066h659.986V6372.2Z" transform="translate(-1120.381 -5937.732)" fill="#63491a"/>
  </g>
</svg>
