<svg id="Component_10_1" data-name="Component 10 – 1" xmlns="http://www.w3.org/2000/svg" xmlns:xlink="http://www.w3.org/1999/xlink" width="744.38" height="415.639" viewBox="0 0 744.38 415.639">
  <defs>
    <linearGradient id="linear-gradient" y1="0.5" x2="1" y2="0.5" gradientUnits="objectBoundingBox">
      <stop offset="0" stop-color="#2c9c48"/>
      <stop offset="1" stop-color="#34b34d"/>
    </linearGradient>
    <linearGradient id="linear-gradient-6" y1="0.5" x2="1" y2="0.5" gradientUnits="objectBoundingBox">
      <stop offset="0" stop-color="#f69144"/>
      <stop offset="1" stop-color="#ffce45"/>
    </linearGradient>
  </defs>
  <path id="Path_636" data-name="Path 636" d="M1191.881,1627.091c67.2-44.688,39.348-176.859,157.474-176.859s53.282,70.375,172.257,44.191,70.2,143.844,139.371,168.869c83.329,30.147,108.778,112.177,45.891,188.985H1185.082S1091.6,1693.773,1191.881,1627.091Z" transform="translate(-1078.184 -1450.232)" fill="#bcbcbc"/>
  <path id="Path_637" data-name="Path 637" d="M1175.082,1853.1s-93.481-158.5,6.8-225.187c67.2-44.687,40.791-171.944,158.917-171.944s36.7,76.144,170.814,39.276c117.465-32.291,60.6,160.441,139.371,168.869,113.547,12.149,150.971,118.144,88.084,194.951" transform="translate(-1078.184 -1450.232)" fill="none" stroke="#58595b" stroke-miterlimit="10" stroke-width="3"/>
  <g id="Group_295" data-name="Group 295" transform="translate(-1078.184 -1450.232)">
    <g id="Group_292" data-name="Group 292">
      <rect id="Rectangle_83" data-name="Rectangle 83" width="3.523" height="173.44" transform="translate(1767.095 1680.235)" fill="#0f1d5b"/>
    </g>
    <rect id="Rectangle_84" data-name="Rectangle 84" width="10.569" height="6.655" transform="translate(1763.416 1631.106)" fill="#231313"/>
    <path id="Path_638" data-name="Path 638" d="M1757.252,1600.083s2.592-7.78,5.675-10.863,10.765-2.349,10.765-2.349v-2.055l10.521.881v5.48l-2.007,16.638Z" fill="#231313"/>
    <path id="Path_639" data-name="Path 639" d="M1765.765,1598.615h-21.236l-2.447-1.958h-10.863s-6.557,4.014-6.557,10.667.1,17.127,5.285,20.162h11.841l2.838-1.175,23.39-.1Z" fill="#231313"/>
    <path id="Path_640" data-name="Path 640" d="M1772.812,1593.918s-6.851-.1-9.4.881-6.164,14.777-6.164,24.857v12.038h13.113Z" fill="#231313"/>
    <path id="Path_641" data-name="Path 641" d="M1763.05,1594.554c-2.954,1.656-6.5,15.4-6.25,25.244.028.894.188,7.959.452,11.9.685-10.215-.067-13.879,1.787-23.6.454-2.471,2.451-12.306,5-13.107a48.925,48.925,0,0,1,8.774-1.067C1770.819,1593.774,1764.712,1593.6,1763.05,1594.554Z" fill="#868dad"/>
    <path id="Path_642" data-name="Path 642" d="M1798.061,1600.572l-25.249-6.654-2.447,37.775h24.859Z" fill="#231313"/>
    <path id="Path_643" data-name="Path 643" d="M1772.9,1629.4l2.1-32.429,20.57,5.421L1793.1,1629.4Z" fill="#b0b5dc"/>
    <path id="Path_644" data-name="Path 644" d="M1780.848,1598.275l1.74-10.965,8.541,2.455-2.38,10.593Z" fill="#231313"/>
    <path id="Path_645" data-name="Path 645" d="M1778.14,1597.488v-3.626a7.05,7.05,0,0,1,4.315-6.5l.133-.056-1.74,10.966Z" fill="#231313"/>
    <path id="Path_646" data-name="Path 646" d="M1783.779,1589.18l-1.249,7.873,5.494,1.61,1.367-7.868Z" fill="#959cd1"/>
    <rect id="Rectangle_85" data-name="Rectangle 85" width="6.655" height="60.614" transform="translate(1765.374 1637.761)" fill="#7b83c5"/>
    <rect id="Rectangle_86" data-name="Rectangle 86" width="8.769" height="32.001" transform="translate(1764.102 1646.472)" fill="#0f1d5b"/>
    <rect id="Rectangle_87" data-name="Rectangle 87" width="23.604" height="3.524" transform="translate(1756.078 1678.473)" fill="#0f1d5b"/>
    <rect id="Rectangle_88" data-name="Rectangle 88" width="13.836" height="6.753" transform="translate(1760.915 1639.718)" fill="#231313"/>
    <path id="Path_647" data-name="Path 647" d="M1742.082,1596.657c-6.42,6.046-5.132,17.254-3.871,27.224C1735.324,1615,1734.227,1601.628,1742.082,1596.657Z" fill="#868dad"/>
    <g id="Group_293" data-name="Group 293">
      <path id="Path_648" data-name="Path 648" d="M1732.91,1856.585l29.743-176.057-3.475-.587-29.842,176.643Z" fill="#0f1d5b"/>
    </g>
    <g id="Group_294" data-name="Group 294">
      <path id="Path_649" data-name="Path 649" d="M1802.375,1856.585,1778.125,1680l-3.492.479,24.186,176.11Z" fill="#0f1d5b"/>
    </g>
  </g>
  <path id="Path_650" data-name="Path 650" d="M1822.563,1865.871H1078.185v-13.61h744.38v13.609Z" transform="translate(-1078.184 -1450.232)" fill="#404041"/>
  <g id="Group_297" data-name="Group 297" transform="translate(-1078.184 -1450.232)">
    <g id="Group_296" data-name="Group 296">
      <rect id="Rectangle_89" data-name="Rectangle 89" width="331.097" height="235.282" rx="10.475" transform="translate(1239.564 1538.056)" fill="#0d5dbc"/>
      <rect id="Rectangle_90" data-name="Rectangle 90" width="204.836" height="261.316" rx="1.95" transform="translate(1526.454 1553.279) rotate(90)" fill="#fff"/>
      <path id="Path_651" data-name="Path 651" d="M1524.5,1553.279H1267.089a1.953,1.953,0,0,0-1.951,1.951v5.578h250.331a1.952,1.952,0,0,1,1.95,1.95v195.357h7.084a1.953,1.953,0,0,0,1.951-1.951V1555.23A1.953,1.953,0,0,0,1524.5,1553.279Z" fill="#b3d9ff"/>
      <path id="Path_652" data-name="Path 652" d="M1558.992,1655.7a10.656,10.656,0,1,0-10.656,10.656A10.656,10.656,0,0,0,1558.992,1655.7Z" fill="#fff"/>
      <path id="Path_653" data-name="Path 653" d="M1267.093,1758.113h140.635a190.347,190.347,0,0,1-24.525,15.227H1250.042a10.479,10.479,0,0,1-10.478-10.478V1548.527a10.477,10.477,0,0,1,10.478-10.469h224.19q2.763,7.47,4.893,15.218H1267.093a1.953,1.953,0,0,0-1.958,1.957v200.932A1.952,1.952,0,0,0,1267.093,1758.113Z" fill="#0061ef"/>
    </g>
    <path id="Path_654" data-name="Path 654" d="M1341.221,1618.787" fill="#1d88f2"/>
    <path id="Path_655" data-name="Path 655" d="M1252.034,1634.912h0a2,2,0,0,0-1.994,1.993v46.516a2,2,0,0,0,1.994,1.994h0a2,2,0,0,0,1.993-1.994v-46.516A2,2,0,0,0,1252.034,1634.912Z" fill="#fff"/>
    <path id="Path_656" data-name="Path 656" d="M1311.885,1699.59a8.227,8.227,0,0,1-.5-2.113C1311.454,1697.858,1311.614,1698.619,1311.885,1699.59Z" fill="#0d5dbc"/>
    <path id="Path_657" data-name="Path 657" d="M1482.43,1772.7" fill="#f4d1ae"/>
  </g>
  <g id="Group_304" data-name="Group 304" transform="translate(-1078.184 -1450.232)">
    <g id="Group_298" data-name="Group 298">
      <path id="Path_658" data-name="Path 658" d="M1170.681,1822.035l1.575-1.1c-.5-2.894-3.031-7.216-11.711-12.336-16.063-9.475-31.875-25.274-31.169-33.667,0,0-7.583,21.354,3.7,30.16C1143.658,1813.356,1164.805,1809,1170.681,1822.035Z" fill="url(#linear-gradient)"/>
    </g>
    <g id="Group_299" data-name="Group 299">
      <path id="Path_659" data-name="Path 659" d="M1163.871,1811.144a42.752,42.752,0,0,1,3.085,8.424l.848-.458c-.212-7.351-1.795-20.983-9.711-33.62-11.568-18.469-25.867-41.731-25.867-41.731s-6.064,27.953,13.448,44.771C1155.4,1796.915,1160.837,1804.86,1163.871,1811.144Z" fill="url(#linear-gradient)"/>
    </g>
    <g id="Group_300" data-name="Group 300">
      <path id="Path_660" data-name="Path 660" d="M1174.8,1816.827a37.609,37.609,0,0,1-6.863,3.926l.524.669c6.355-1.271,17.964-4.664,27.771-13.41,14.333-12.783,32.426-28.648,32.426-28.648s-25.181-1.132-36.905,18.308C1185.909,1807.365,1179.811,1813.261,1174.8,1816.827Z" fill="url(#linear-gradient)"/>
    </g>
    <g id="Group_301" data-name="Group 301">
      <path id="Path_661" data-name="Path 661" d="M1170.616,1823.228c.413,4.1.756,6.937.892,8.875l.807.01c.362-6.944.982-18.938.774-26.96-.306-11.813,3.318-16.634,5.579-36.52s-3.019-48.139-3.019-48.139-13.88,25.114-9.519,53.323S1168.8,1805.142,1170.616,1823.228Z" fill="url(#linear-gradient)"/>
    </g>
    <g id="Group_302" data-name="Group 302">
      <path id="Path_662" data-name="Path 662" d="M1202.338,1741.959c-.668,4.547-13.7,31.075-21.723,48.809a53.319,53.319,0,0,0-3.571,31.918l1.611-.035c-1.095-6.048-1.466-5.111-.275-14.606,1.306-10.415,15.968-17.946,24.856-38.154S1203.005,1737.412,1202.338,1741.959Z" fill="url(#linear-gradient)"/>
    </g>
    <g id="Group_303" data-name="Group 303">
      <path id="Path_663" data-name="Path 663" d="M1148.7,1820.751l4.6,27.25a5.278,5.278,0,0,0,5.205,4.4h26.621a5.278,5.278,0,0,0,5.2-4.4l4.6-27.25a4.038,4.038,0,0,0-3.981-4.711H1152.68A4.038,4.038,0,0,0,1148.7,1820.751Z" fill="url(#linear-gradient-6)"/>
    </g>
  </g>
  <g id="Group_307" data-name="Group 307" transform="translate(-1078.184 -1450.232)">
    <g id="Group_306" data-name="Group 306">
      <path id="Path_664" data-name="Path 664" d="M1653.445,1745.675l-9.758,13.961-44.833-21.819,0,0s-.845-7.877-3.056-8.108c-1.128-.119-1.727,1.249-2.047,2.619-2.207-2.15-4.583-4.112-5.911-4.106-2.973.017,4.506,12.01,5.678,14.228,2.221,4.2,30.847,24.058,62.879,38.16l12.758-23.965Z" fill="#fa997b"/>
      <path id="Path_665" data-name="Path 665" d="M1596.028,1731.092l-6.456-27.073a1.851,1.851,0,0,0-1.947-1.4l-2.97.434a1.383,1.383,0,0,0-1.223,1.734l6.456,27.073a1.593,1.593,0,0,0,1.755,1.415l2.97-.433A1.594,1.594,0,0,0,1596.028,1731.092Z"/>
      <path id="Path_666" data-name="Path 666" d="M1594.7,1760.114c-9.766.852-97.441,84.5-97.441,84.5l20.088-.279,76.421-45.011s52.008,41.533,96.3,42.249c19.236.31,19.882-23.3,19.882-23.3S1618.511,1758.036,1594.7,1760.114Z" fill="#084184"/>
      <path id="Path_667" data-name="Path 667" d="M1709.645,1821.688s-5.13,27.836-33.366,31.842l-221.679-1.1.931-17.848,191.983-21.9Z" fill="#083766"/>
      <path id="Path_668" data-name="Path 668" d="M1675.745,1717.852s-10.005,1.217-15.8,8.88c-3.191,4.216-13.2,23.661-13.2,23.661l22.017,13.276Z" fill="#bc9d0d"/>
      <g id="Group_305" data-name="Group 305">
        <path id="Path_669" data-name="Path 669" d="M1671.13,1688.163s-7.628-1.139-9.556-6.751c-2.42-7.037,6.211-16.955,10.61-17.768,5.562-1.028,8.471-3.53,22.442,2.864,6.7,3.066,25.25,20.165,2.543,40.856l-16.764-11.947Z" fill="#a9453e"/>
        <path id="Path_670" data-name="Path 670" d="M1700.325,1689.6a2.927,2.927,0,0,0-3.9-.369l-.08.09c-5.359-1.271-10.526-7.3-10.526-7.3-2.737,3.613-14.78,6.131-14.78,6.131v8.047a13.137,13.137,0,0,0,11.726,13.3l-.128,10.406,15.144-4.681V1699.4C1700.97,1698.094,1701.881,1691.263,1700.325,1689.6Z" fill="#fa997b"/>
        <path id="Path_671" data-name="Path 671" d="M1686.96,1711.449c1.056-.634,6.335-8.13,6.335-8.13-2.118,3.127-9.839,6.029-10.532,6.285l-.126,10.3,3.943-1.219C1686.434,1715.33,1686.414,1711.777,1686.96,1711.449Z" fill="#ef5d23"/>
      </g>
      <path id="Path_672" data-name="Path 672" d="M1766.1,1845.906s-14.1-36.088-26.53-78.751c-5.069,3.334-10.77,7.612-17.074,10.221l33.405,67.235s3.106,7.87,7.766,8.18,16.519,1.292,16.519.31C1780.187,1846.409,1766.1,1845.906,1766.1,1845.906Z" fill="#fa997b"/>
      <path id="Path_673" data-name="Path 673" d="M1725.108,1724.874c-6.344-5.246-21.545-8.626-26.941-9.7a11.205,11.205,0,0,0-3.8-.095l-18.706,2.716c-17.287,10.118-11.789,23.059-17.944,45.688s-15.931,47.249-15.931,47.249c14.3,11.585,64.6,19.339,64.6,19.339,8.039-8.4,8.39-39.539,8.929-59.046l6.846,7.483s22.876-11.668,22.629-12.491C1741.528,1755.161,1725.108,1724.874,1725.108,1724.874Z" fill="#efc800"/>
      <path id="Path_674" data-name="Path 674" d="M1454.52,1852.418l-8.876-.833a4.033,4.033,0,0,1-3.64-4.392l2.923-31.153a2.023,2.023,0,0,1,3.792-.787c2.943,5.463,6.9,14.155,7.232,21.919Z" fill="#084184"/>
    </g>
    <path id="Path_675" data-name="Path 675" d="M1715.312,1771.03s-1.763-23.033-5.356-27.621c14.346,8.235,12.2,35.1,12.2,35.1Z" fill="#bc9d0d"/>
  </g>
  <g id="Group_312" data-name="Group 312" transform="translate(-1078.184 -1450.232)">
    <g id="Group_308" data-name="Group 308">
      <path id="Path_676" data-name="Path 676" d="M1405.077,1760.858v19.5a9.344,9.344,0,0,1-9.32,9.312h-19.5a9.342,9.342,0,0,1-9.312-9.312v-19.5a9.344,9.344,0,0,1,9.312-9.32h19.5A9.346,9.346,0,0,1,1405.077,1760.858Z" fill="#fa0"/>
      <path id="Path_677" data-name="Path 677" d="M1385.774,1759.62a10.683,10.683,0,0,0-8.184,17.082,3.248,3.248,0,0,1,.571,2.682l-.68,2.936,3.593-1.582a3.247,3.247,0,0,1,2.187-.151,10.684,10.684,0,1,0,2.513-20.967Zm-4.367,11.286a.643.643,0,1,1,.642-.642A.642.642,0,0,1,1381.407,1770.906Zm4.565,0a.643.643,0,1,1,.642-.642A.643.643,0,0,1,1385.972,1770.906Zm4.817,0a.643.643,0,1,1,.642-.642A.642.642,0,0,1,1390.789,1770.906Z" fill="#fff"/>
    </g>
    <g id="Group_309" data-name="Group 309">
      <rect id="Rectangle_91" data-name="Rectangle 91" width="36.697" height="36.697" rx="8.969" transform="translate(1260.462 1752.256)" fill="#fa0"/>
      <path id="Path_678" data-name="Path 678" d="M1284.039,1759.715H1272.9a5.337,5.337,0,0,0-5.322,5.322v11.136a5.338,5.338,0,0,0,5.322,5.322h11.136a5.338,5.338,0,0,0,5.322-5.322v-11.136A5.337,5.337,0,0,0,1284.039,1759.715Zm-1.457,11.808-6.636,4.006a1.058,1.058,0,0,1-1.605-.905v-8.014a1.059,1.059,0,0,1,1.605-.906l6.636,4.007A1.058,1.058,0,0,1,1282.582,1771.523Z" fill="#fff"/>
    </g>
    <g id="Group_311" data-name="Group 311">
      <rect id="Rectangle_92" data-name="Rectangle 92" width="38.847" height="38.847" rx="9.492" transform="translate(1312.987 1751.181)" fill="#53a4f4"/>
      <g id="Group_310" data-name="Group 310">
        <path id="Path_679" data-name="Path 679" d="M1319.8,1772.4a.926.926,0,0,0-.57,1.195l.57,1.623a.95.95,0,0,0,1.2.571l.82-.294-1.2-3.381Z" fill="#0d5dbc"/>
        <path id="Path_680" data-name="Path 680" d="M1329.819,1776.74l-3.514,1.249a.092.092,0,0,0-.045.017l1.65,4.665a.358.358,0,0,0,.295.241l3.389.366a.363.363,0,0,0,.375-.482Z" fill="#0d5dbc"/>
        <path id="Path_681" data-name="Path 681" d="M1345.074,1773.664l-1.688-4.763a2.894,2.894,0,0,0,1.13-2.283,2.93,2.93,0,0,0-2.932-2.932l-.045,0-1.676-4.729a1.24,1.24,0,1,0-2.337.828l5.21,14.7a1.24,1.24,0,0,0,2.338-.828Z" fill="#0d5dbc"/>
        <path id="Path_682" data-name="Path 682" d="M1327.129,1767.145l-4.174,1.479a2.264,2.264,0,0,0-1.378,2.889l1.39,3.921a2.259,2.259,0,0,0,2.833,1.391l0,0a.129.129,0,0,0,.051-.017h0l4.17-1.478.008.009s8.848-2.181,11.448-.529l-5.125-14.465C1335.377,1763.268,1327.129,1767.145,1327.129,1767.145Z" fill="#0d5dbc"/>
      </g>
    </g>
  </g>
  <path id="Path_683" data-name="Path 683" d="M1697.158,1693.311c-.241.644-.135,1.28.237,1.42s.871-.27,1.114-.916.131-1.281-.24-1.42S1697.4,1692.665,1697.158,1693.311Z" transform="translate(-1078.184 -1450.232)" fill="#ef5d23"/>
  <g id="Group_317" data-name="Group 317" transform="translate(-1078.184 -1450.232)">
    <rect id="Rectangle_93" data-name="Rectangle 93" width="226.578" height="20.628" transform="translate(1278.142 1571.452)" fill="#d8e2e8"/>
    <rect id="Rectangle_94" data-name="Rectangle 94" width="113.243" height="14.919" transform="translate(1352.464 1574.307)" fill="#fff"/>
    <g id="Group_313" data-name="Group 313">
      <rect id="Rectangle_95" data-name="Rectangle 95" width="11.762" height="2.207" transform="translate(1286.565 1576.509)" fill="#fff"/>
      <rect id="Rectangle_96" data-name="Rectangle 96" width="11.762" height="2.207" transform="translate(1286.565 1580.663)" fill="#fff"/>
      <rect id="Rectangle_97" data-name="Rectangle 97" width="11.762" height="2.207" transform="translate(1286.565 1584.816)" fill="#fff"/>
    </g>
    <rect id="Rectangle_98" data-name="Rectangle 98" width="140.433" height="83.711" transform="translate(1278.142 1598.25)" fill="#d8e2e8"/>
    <rect id="Rectangle_99" data-name="Rectangle 99" width="39.063" height="29.456" transform="translate(1424.503 1598.25)" fill="#d8e2e8"/>
    <path id="Path_684" data-name="Path 684" d="M1380.7,1699.785h-78.029a3.361,3.361,0,0,1-3.361-3.361h0a3.361,3.361,0,0,1,3.361-3.361H1380.7a3.361,3.361,0,0,1,3.362,3.361h0A3.362,3.362,0,0,1,1380.7,1699.785Z" fill="#d8e2e8"/>
    <path id="Path_685" data-name="Path 685" d="M1501.483,1605.641h-31.512a1.579,1.579,0,0,1-1.579-1.58h0a1.579,1.579,0,0,1,1.579-1.579h31.512a1.579,1.579,0,0,1,1.579,1.579h0A1.579,1.579,0,0,1,1501.483,1605.641Z" fill="#d8e2e8"/>
    <path id="Path_686" data-name="Path 686" d="M1501.483,1612.686h-31.512a1.579,1.579,0,0,1-1.579-1.58h0a1.579,1.579,0,0,1,1.579-1.579h31.512a1.579,1.579,0,0,1,1.579,1.579h0A1.579,1.579,0,0,1,1501.483,1612.686Z" fill="#d8e2e8"/>
    <path id="Path_687" data-name="Path 687" d="M1482.4,1619.731h-12.433a1.579,1.579,0,0,1-1.579-1.58h0a1.579,1.579,0,0,1,1.579-1.579H1482.4a1.579,1.579,0,0,1,1.579,1.579h0A1.579,1.579,0,0,1,1482.4,1619.731Z" fill="#d8e2e8"/>
    <path id="Path_688" data-name="Path 688" d="M1501.483,1645.994h-31.512a1.579,1.579,0,0,1-1.579-1.58h0a1.579,1.579,0,0,1,1.579-1.579h31.512a1.579,1.579,0,0,1,1.579,1.579h0A1.579,1.579,0,0,1,1501.483,1645.994Z" fill="#d8e2e8"/>
    <path id="Path_689" data-name="Path 689" d="M1501.483,1653.039h-31.512a1.579,1.579,0,0,1-1.579-1.58h0a1.579,1.579,0,0,1,1.579-1.579h31.512a1.579,1.579,0,0,1,1.579,1.579h0A1.579,1.579,0,0,1,1501.483,1653.039Z" fill="#d8e2e8"/>
    <path id="Path_690" data-name="Path 690" d="M1482.4,1660.084h-12.433a1.579,1.579,0,0,1-1.579-1.58h0a1.579,1.579,0,0,1,1.579-1.579H1482.4a1.579,1.579,0,0,1,1.579,1.579h0A1.579,1.579,0,0,1,1482.4,1660.084Z" fill="#d8e2e8"/>
    <path id="Path_691" data-name="Path 691" d="M1501.483,1684.475h-31.512a1.579,1.579,0,0,1-1.579-1.58h0a1.579,1.579,0,0,1,1.579-1.579h31.512a1.579,1.579,0,0,1,1.579,1.579h0A1.579,1.579,0,0,1,1501.483,1684.475Z" fill="#d8e2e8"/>
    <path id="Path_692" data-name="Path 692" d="M1382.484,1713.063h-81.2a1.579,1.579,0,0,1-1.579-1.58h0a1.579,1.579,0,0,1,1.579-1.579h81.2a1.579,1.579,0,0,1,1.58,1.579h0A1.579,1.579,0,0,1,1382.484,1713.063Z" fill="#d8e2e8"/>
    <path id="Path_693" data-name="Path 693" d="M1382.484,1721.377h-81.2a1.58,1.58,0,0,1-1.579-1.58h0a1.579,1.579,0,0,1,1.579-1.579h81.2a1.579,1.579,0,0,1,1.58,1.579h0A1.58,1.58,0,0,1,1382.484,1721.377Z" fill="#d8e2e8"/>
    <path id="Path_694" data-name="Path 694" d="M1341.849,1729.69h-40.562a1.579,1.579,0,0,1-1.579-1.579h0a1.579,1.579,0,0,1,1.579-1.579h40.562a1.579,1.579,0,0,1,1.579,1.579h0A1.579,1.579,0,0,1,1341.849,1729.69Z" fill="#d8e2e8"/>
    <path id="Path_695" data-name="Path 695" d="M1501.483,1691.52h-31.512a1.579,1.579,0,0,1-1.579-1.58h0a1.579,1.579,0,0,1,1.579-1.579h31.512a1.579,1.579,0,0,1,1.579,1.579h0A1.579,1.579,0,0,1,1501.483,1691.52Z" fill="#d8e2e8"/>
    <path id="Path_696" data-name="Path 696" d="M1482.4,1698.565h-12.433a1.579,1.579,0,0,1-1.579-1.58h0a1.579,1.579,0,0,1,1.579-1.579H1482.4a1.579,1.579,0,0,1,1.579,1.579h0A1.579,1.579,0,0,1,1482.4,1698.565Z" fill="#d8e2e8"/>
    <path id="Path_697" data-name="Path 697" d="M1501.483,1722.956h-31.512a1.579,1.579,0,0,1-1.579-1.579h0a1.579,1.579,0,0,1,1.579-1.58h31.512a1.579,1.579,0,0,1,1.579,1.58h0A1.579,1.579,0,0,1,1501.483,1722.956Z" fill="#d8e2e8"/>
    <path id="Path_698" data-name="Path 698" d="M1501.483,1730h-31.512a1.579,1.579,0,0,1-1.579-1.579h0a1.579,1.579,0,0,1,1.579-1.58h31.512a1.579,1.579,0,0,1,1.579,1.58h0A1.579,1.579,0,0,1,1501.483,1730Z" fill="#d8e2e8"/>
    <path id="Path_699" data-name="Path 699" d="M1482.4,1737.046h-12.433a1.579,1.579,0,0,1-1.579-1.579h0a1.579,1.579,0,0,1,1.579-1.58H1482.4a1.579,1.579,0,0,1,1.579,1.58h0A1.579,1.579,0,0,1,1482.4,1737.046Z" fill="#d8e2e8"/>
    <rect id="Rectangle_100" data-name="Rectangle 100" width="39.063" height="29.456" transform="translate(1424.503 1636.731)" fill="#d8e2e8"/>
    <rect id="Rectangle_101" data-name="Rectangle 101" width="39.063" height="29.456" transform="translate(1424.503 1675.212)" fill="#d8e2e8"/>
    <rect id="Rectangle_102" data-name="Rectangle 102" width="39.063" height="29.456" transform="translate(1424.503 1713.693)" fill="#d8e2e8"/>
    <path id="Path_700" data-name="Path 700" d="M1292.148,1696.424a7,7,0,1,1-7-7A7,7,0,0,1,1292.148,1696.424Z" fill="#d8e2e8"/>
    <path id="Path_701" data-name="Path 701" d="M1318.863,1587.476h-8.2a5.727,5.727,0,0,1-5.71-5.71h0a5.727,5.727,0,0,1,5.71-5.71h8.2a5.727,5.727,0,0,1,5.71,5.71h0A5.727,5.727,0,0,1,1318.863,1587.476Z" fill="#ff4c41"/>
    <path id="Path_702" data-name="Path 702" d="M1461.271,1586.574a.955.955,0,0,1-1.351,0l-1.687-1.687a4.476,4.476,0,1,1,1.352-1.351l1.686,1.687A.955.955,0,0,1,1461.271,1586.574Zm-5.436-8.622a3.185,3.185,0,1,0,3.185,3.186A3.186,3.186,0,0,0,1455.835,1577.952Z" fill="#d8e2e8"/>
    <path id="Path_703" data-name="Path 703" d="M1495.371,1580.6l-.263-.623a11.319,11.319,0,0,0,.557-1.431l-.808-.789a11.169,11.169,0,0,0-1.434.574l-.636-.256a11.237,11.237,0,0,0-.638-1.4h-1.141a10.628,10.628,0,0,0-.6,1.4l-.634.257a11.835,11.835,0,0,0-1.461-.544l-.807.79a10.668,10.668,0,0,0,.587,1.4l-.263.622a11.928,11.928,0,0,0-1.426.624v1.117a11.045,11.045,0,0,0,1.429.588l.263.621a11.439,11.439,0,0,0-.557,1.429l.808.791a11.336,11.336,0,0,0,1.433-.575l.636.258a11.077,11.077,0,0,0,.639,1.4h1.141a10.645,10.645,0,0,0,.6-1.4l.636-.258a11.958,11.958,0,0,0,1.458.546l.809-.79a10.732,10.732,0,0,0-.588-1.4l.262-.623a11.78,11.78,0,0,0,1.426-.625v-1.117A11.1,11.1,0,0,0,1495.371,1580.6Zm-2.1,1.166a1.667,1.667,0,1,1-1.667-1.629A1.652,1.652,0,0,1,1493.269,1581.765Z" fill="#fff"/>
    <g id="Group_314" data-name="Group 314">
      <rect id="Rectangle_103" data-name="Rectangle 103" width="2.247" height="4.625" rx="0.452" transform="translate(1393.436 1694.936)" fill="#d8e2e8"/>
      <path id="Path_704" data-name="Path 704" d="M1401.292,1695.373h-.08a.715.715,0,1,0,0-1.429h-2.293a3.748,3.748,0,0,0,.666-1.737c0-.919-.5-1.429-.832-1.488a.563.563,0,0,0-.663.394c-.095.277.073.8.008.99a16.739,16.739,0,0,1-1.292,1.556,2.642,2.642,0,0,0-.525,1.714v3.13a.446.446,0,0,0,.445.445h4.26a.518.518,0,1,0,0-1.036h.073a.635.635,0,0,0,0-1.269h.233a.635.635,0,1,0,0-1.27Z" fill="#d8e2e8"/>
    </g>
    <g id="Group_315" data-name="Group 315">
      <rect id="Rectangle_104" data-name="Rectangle 104" width="2.247" height="4.625" rx="0.452" transform="translate(1412.884 1693.287)" fill="#d8e2e8"/>
      <path id="Path_705" data-name="Path 705" d="M1407.275,1697.475h.08a.715.715,0,1,0,0,1.429h2.293a3.749,3.749,0,0,0-.666,1.737c0,.919.5,1.429.831,1.488a.564.564,0,0,0,.664-.394c.095-.277-.073-.8-.008-.99a16.857,16.857,0,0,1,1.292-1.556,2.643,2.643,0,0,0,.525-1.714v-3.13a.446.446,0,0,0-.445-.445h-4.26a.518.518,0,1,0,0,1.036h-.073a.634.634,0,1,0,0,1.269h-.233a.635.635,0,0,0,0,1.27Z" fill="#d8e2e8"/>
    </g>
    <g id="Group_316" data-name="Group 316">
      <circle id="Ellipse_17" data-name="Ellipse 17" cx="30.331" cy="30.331" r="30.331" transform="translate(1318.028 1609.775)" fill="#ff4c41"/>
      <path id="Path_706" data-name="Path 706" d="M1340.319,1624.011v32.19l24.289-16.095Z" fill="#fff"/>
    </g>
  </g>
</svg>
