<svg xmlns="http://www.w3.org/2000/svg" xmlns:xlink="http://www.w3.org/1999/xlink" width="771.43" height="415.341" viewBox="0 0 771.43 415.341">
  <defs>
    <linearGradient id="linear-gradient" y1="0.5" x2="1" y2="0.5" gradientUnits="objectBoundingBox">
      <stop offset="0" stop-color="#2c9c48"/>
      <stop offset="1" stop-color="#34b34d"/>
    </linearGradient>
    <linearGradient id="linear-gradient-6" y1="0.5" x2="1" y2="0.5" gradientUnits="objectBoundingBox">
      <stop offset="0" stop-color="#f69144"/>
      <stop offset="1" stop-color="#ffce45"/>
    </linearGradient>
  </defs>
  <g id="Component_79_1" data-name="Component 79 – 1" transform="translate(0 1.508)">
    <g id="Group_3768" data-name="Group 3768" transform="translate(-1079.695 -4671.789)">
      <path id="Path_5517" data-name="Path 5517" d="M1184.461,5084.607h556.47c.04-.051.081-.1.121-.149,10.653-13.58,26.526-47.208,30.253-63.478,9.668-42.2,21.291-107.532-62.489-165.1-48.108-33.056-49.972-84.488-98.45-138.687-55.491-62.039-200.882-66.081-255.643,22.907-37.428,60.82-23.469,84.889-113.4,123.379-57.208,24.485-105.2,84.1-90.494,158.728C1155.774,5047.279,1168.329,5067.177,1184.461,5084.607Z" fill="#ddcb9e"/>
      <path id="Path_5518" data-name="Path 5518" d="M1750.016,5084.458c10.654-13.58,25.944-47.353,30.254-63.478,15.263-57.1,10.131-123.039-82.411-165.1-71.78-32.624-49.972-84.488-98.45-138.687-55.491-62.039-200.882-66.081-255.643,22.907-37.428,60.82-23.469,84.889-113.4,123.379-57.208,24.485-105.2,84.1-90.494,158.728,4.942,25.072,17.5,44.97,33.629,62.4" fill="none" stroke="#a89469" stroke-miterlimit="10" stroke-width="2.988"/>
      <g id="Group_3750" data-name="Group 3750">
        <g id="Group_3749" data-name="Group 3749">
          <g id="Group_3742" data-name="Group 3742">
            <g id="Group_3741" data-name="Group 3741">
              <g id="Group_3739" data-name="Group 3739">
                <rect id="Rectangle_1230" data-name="Rectangle 1230" width="206.15" height="161.542" transform="translate(1236.705 4909.424)" fill="#ffeeda"/>
              </g>
              <g id="Group_3740" data-name="Group 3740">
                <path id="Path_5519" data-name="Path 5519" d="M1442.771,5070.836h163.707V4909.294L1524.6,4827.57l-81.828,81.724Z" fill="bisque"/>
              </g>
            </g>
          </g>
          <g id="Group_3745" data-name="Group 3745">
            <path id="Path_5520" data-name="Path 5520" d="M1236.7,4909.424l-11.152-11.152h206.041l11.1,11.1S1237.246,4909.965,1236.7,4909.424Z" fill="#e68a00"/>
            <path id="Path_5521" data-name="Path 5521" d="M1442.694,4909.372l81.867-81.868,81.854,81.854L1617.77,4898l-93.17-93.17-93.222,93.222Z" fill="#ffa400"/>
            <g id="Group_3744" data-name="Group 3744">
              <path id="Path_5522" data-name="Path 5522" d="M1225.553,4898.272l93.52-93.52H1524.6l-92.979,93.526Z" fill="#ffbd30"/>
              <g id="Group_3743" data-name="Group 3743">
                <path id="Path_5523" data-name="Path 5523" d="M1359.083,4804.752h-2.067l-93.521,93.521h2.067Z" fill="#e68a00"/>
                <path id="Path_5524" data-name="Path 5524" d="M1384.744,4804.752h-2.067l-93.521,93.522h2.067Z" fill="#e68a00"/>
                <path id="Path_5525" data-name="Path 5525" d="M1239.9,4898.272l93.52-93.52h-2.067l-93.52,93.52Z" fill="#e68a00"/>
                <path id="Path_5526" data-name="Path 5526" d="M1410.4,4804.752h-2.067l-93.522,93.522h2.067Z" fill="#e68a00"/>
                <path id="Path_5527" data-name="Path 5527" d="M1513.047,4804.752h-2.067l-93.526,93.526h2.067Z" fill="#e68a00"/>
                <path id="Path_5528" data-name="Path 5528" d="M1487.386,4804.752h-2.067l-93.525,93.525h2.067Z" fill="#e68a00"/>
                <path id="Path_5529" data-name="Path 5529" d="M1436.065,4804.752H1434l-93.523,93.523h2.067Z" fill="#e68a00"/>
                <path id="Path_5530" data-name="Path 5530" d="M1461.726,4804.752h-2.067l-93.524,93.524h2.067Z" fill="#e68a00"/>
              </g>
            </g>
          </g>
          <g id="Group_3746" data-name="Group 3746">
            <rect id="Rectangle_1231" data-name="Rectangle 1231" width="59.766" height="92.248" transform="translate(1257.493 4932.811)" fill="#3b2314"/>
            <rect id="Rectangle_1232" data-name="Rectangle 1232" width="48.073" height="23.928" transform="translate(1263.34 4938.657)" fill="#fff"/>
            <rect id="Rectangle_1233" data-name="Rectangle 1233" width="20.084" height="50.455" transform="translate(1263.34 4968.757)" fill="#fff"/>
            <rect id="Rectangle_1234" data-name="Rectangle 1234" width="21.546" height="50.455" transform="translate(1289.812 4968.757)" fill="#fff"/>
          </g>
          <g id="Group_3747" data-name="Group 3747">
            <rect id="Rectangle_1235" data-name="Rectangle 1235" width="59.766" height="92.248" transform="translate(1347.467 4932.811)" fill="#3b2314"/>
            <rect id="Rectangle_1236" data-name="Rectangle 1236" width="48.073" height="23.928" transform="translate(1353.314 4938.657)" fill="#fff"/>
            <rect id="Rectangle_1237" data-name="Rectangle 1237" width="20.084" height="50.455" transform="translate(1353.314 4968.757)" fill="#fff"/>
            <rect id="Rectangle_1238" data-name="Rectangle 1238" width="21.546" height="50.455" transform="translate(1379.786 4968.757)" fill="#fff"/>
          </g>
          <g id="Group_3748" data-name="Group 3748">
            <path id="Path_5531" data-name="Path 5531" d="M1530.258,4926.281c-14.273,0-25.227,13.58-25.227,28.184v116.609h50.454V4954.465C1555.485,4939.861,1544.532,4926.281,1530.258,4926.281Z" fill="#3b2314"/>
          </g>
        </g>
      </g>
      <g id="Group_3757" data-name="Group 3757">
        <g id="Group_3751" data-name="Group 3751">
          <path id="Path_5532" data-name="Path 5532" d="M1156.1,5041.009l1.568-1.1c-.5-2.883-3.019-7.188-11.665-12.288-16-9.438-31.751-25.176-31.047-33.535,0,0-7.554,21.27,3.681,30.042C1129.179,5032.364,1150.244,5028.027,1156.1,5041.009Z" fill="url(#linear-gradient)"/>
        </g>
        <g id="Group_3752" data-name="Group 3752">
          <path id="Path_5533" data-name="Path 5533" d="M1149.313,5030.16a42.49,42.49,0,0,1,3.072,8.391l.845-.456c-.21-7.322-1.788-20.9-9.673-33.489-11.523-18.4-25.766-41.568-25.766-41.568s-6.04,27.844,13.4,44.6C1140.878,5015.987,1146.291,5023.9,1149.313,5030.16Z" fill="url(#linear-gradient)"/>
        </g>
        <g id="Group_3753" data-name="Group 3753">
          <path id="Path_5534" data-name="Path 5534" d="M1160.2,5035.821a37.525,37.525,0,0,1-6.836,3.911l.522.666c6.33-1.266,17.893-4.645,27.663-13.358,14.276-12.733,32.3-28.535,32.3-28.535s-25.083-1.128-36.761,18.236C1171.265,5026.4,1165.191,5032.269,1160.2,5035.821Z" fill="url(#linear-gradient)"/>
        </g>
        <g id="Group_3754" data-name="Group 3754">
          <path id="Path_5535" data-name="Path 5535" d="M1156.031,5042.2c.411,4.088.754,6.91.889,8.84l.8.01c.36-6.916.978-18.863.771-26.855-.305-11.766,3.305-16.569,5.557-36.377s-3.007-47.951-3.007-47.951-13.826,25.016-9.482,53.114S1154.218,5024.182,1156.031,5042.2Z" fill="url(#linear-gradient)"/>
        </g>
        <g id="Group_3755" data-name="Group 3755">
          <path id="Path_5536" data-name="Path 5536" d="M1187.629,4961.245c-.664,4.529-13.645,30.954-21.637,48.619a53.106,53.106,0,0,0-3.557,31.793l1.6-.034c-1.091-6.025-1.46-5.092-.274-14.55,1.3-10.374,15.906-17.876,24.759-38.005S1188.294,4956.716,1187.629,4961.245Z" fill="url(#linear-gradient)"/>
        </g>
        <g id="Group_3756" data-name="Group 3756">
          <path id="Path_5537" data-name="Path 5537" d="M1134.2,5039.729l4.587,27.144a5.259,5.259,0,0,0,5.185,4.382h26.517a5.259,5.259,0,0,0,5.185-4.382l4.587-27.144a4.022,4.022,0,0,0-3.966-4.692h-38.129A4.022,4.022,0,0,0,1134.2,5039.729Z" fill="url(#linear-gradient-6)"/>
        </g>
      </g>
      <g id="Group_3764" data-name="Group 3764">
        <g id="Group_3758" data-name="Group 3758">
          <path id="Path_5538" data-name="Path 5538" d="M1646.287,4828.542a2.4,2.4,0,0,1,2.9-1.567c6.087,1.622,23.176,5.7,28.043,1.81,6.812-5.443,9.737-12.244,12.42-16.342,6.466-9.873,18.979-11.669,18.979-11.669l2.032,35.264s-15.673,14.359-26.915,15.158c-7.323.522-10.491,1.416-26.327-7.338a101.523,101.523,0,0,1-11.819-7.7,2.419,2.419,0,0,1-.933-2.755Z" fill="#f47f26"/>
          <path id="Path_5539" data-name="Path 5539" d="M1627.782,4828.164a8.11,8.11,0,0,1-1.12-.719c-.236-.222-.274-2.123,1.329-1.777.025.007.056.015.083.02-.572-.285-1.054-.586-1.1-.765a1.536,1.536,0,0,1,1.632-1.854c-1.892-.944-5.454-2.712-6.111-2.942-.9-.319-2.741-1.852-1.53-2.457,1.334-.664,6.061,1.334,9.308,2.546a48.789,48.789,0,0,1,5.483,2.331c-.279-.582-.625-1.265-1.056-2.065-1.06-1.974-.847-3.685-.289-4.047s1.193.531,2.505,1.943c4.046,4.352,7.187,7.866,7.618,8.349l2.115.764-2.2,6.828c-.824-.322-1.521-.59-2.031-.789a37.262,37.262,0,0,0-5.52-.563,11.536,11.536,0,0,1-3.123-.515v0l-.041-.015c-.275-.09-.529-.179-.761-.272-.827-.294-2.14-.764-3.185-1.132a11.014,11.014,0,0,1-2.567-1.669A.738.738,0,0,1,1627.782,4828.164Z" fill="#fa997b"/>
        </g>
        <path id="Path_5540" data-name="Path 5540" d="M1844.816,4774.94c6.359-9.3,8.335-21.669,3.963-32.18-4.186-10.058-13.412-16.389-24.026-17.954-11.18-1.648-21.25,2.25-30.121,8.762-5.491,4.032-11.122,8.154-18.147,8.671-3.234.239-6.168-1.639-9.339-1.935-3.582-.332-6.832.607-10.158,1.834-.2.074-.4.15-.6.227-6.867-2.6-13.753-5.627-20.958-6.731-9.591-1.471-19.673.709-27.11,5.858-27.718,19.176-8.811,59.307,17.621,73.453,1.215.651,2.453,1.257,3.707,1.83a36.607,36.607,0,0,1,4.646,4.737,23.772,23.772,0,0,0,7.121,5.631c5.416,2.8,11.869,3.975,17.789,2.255,5.937-1.724,10.78-6,17.041-6.778,3.439-.426,6.907.434,10.328.716a54.62,54.62,0,0,0,11.372-.363c10.429-1.329,20.531-6.281,23.823-16.328,2.2-.936,4.714-1.484,6.461-2.114a12.066,12.066,0,0,0,7.749-7.5,16.033,16.033,0,0,0-.008-12.809A37.607,37.607,0,0,0,1844.816,4774.94Z" fill="#404041"/>
        <g id="Group_3761" data-name="Group 3761">
          <path id="Path_5541" data-name="Path 5541" d="M1716.733,5054.654s2.8,15.322.815,15.889c-3.513,1-9.384.627-11.955.657-2.348.026-4.369-.374-4.574-1.285-.61-2.678,1.8-2.335,4.638-3.424,2.229-.852,5.053-2.26,4.651-6.1a33.736,33.736,0,0,0-1.115-5.737Z" fill="#2c3480"/>
          <path id="Path_5542" data-name="Path 5542" d="M1743.632,5054.654s2.834,15.354.813,15.81c-3.457.78-9.385.679-11.954.736-1.991.044-4.45.127-4.654-.783-.609-2.678,1.873-2.837,4.718-3.926,2.228-.852,5.051-2.26,4.651-6.1a33.97,33.97,0,0,0-1.115-5.737Z" fill="#2c3480"/>
          <g id="Group_3759" data-name="Group 3759">
            <path id="Path_5543" data-name="Path 5543" d="M1700.987,4886.69s-5.27,27.228-2.3,74.3c.683,10.789,1.717,24.834,8.641,97.791l11.473-.456,7.679-129.3c3.353,36.8,1.634,40.469,3.97,62.672,1.783,17.034,4.19,69.273,4.19,69.273h12.173s2.678-58.815,4.576-77.255c3.682-35.915,10.9-68.222,8.671-101.349C1759.067,4867.63,1700.987,4886.69,1700.987,4886.69Z" fill="#2c3480"/>
          </g>
          <g id="Group_3760" data-name="Group 3760">
            <path id="Path_5544" data-name="Path 5544" d="M1701.516,4853.976c.522-10.778-2.942-37.373-1.107-45.373,1.153-5.007,9.551-9.949,19.713-10.73,24.555-1.9,43.092-1.822,36.623,34.434-2.423,13.583,7.381,65.705,7.381,65.705s-24.328,3.576-36.993,3.772-18.178.877-31.805-6.786C1695.328,4895,1701.1,4862.8,1701.516,4853.976Z" fill="#f47f26"/>
          </g>
          <path id="Path_5545" data-name="Path 5545" d="M1769.644,4892.131c-.68-.356-2.736,3.824-4.363,8.269-.371,1.007-1.31,3.389-.512,4.008.762.591,3.685-1.135,3.685-1.135s1.1,1.751-1.387,4.9c-1.726,2.181,5.639.873,7.62-1.423,3.554-4.122.529-14.5.529-14.5Z" fill="#fa997b"/>
          <path id="Path_5546" data-name="Path 5546" d="M1738.68,4799.276c-2.764,1.1,1.044,7.509,2.005,12.008s5.291,17.98,19.165,42.156c1.469,7.056,8.361,39.577,8.361,39.577a9.82,9.82,0,0,0,7.475-.175c.191-4.5-.66-34.653-1.965-40.911s-1.71-21.3-5.532-30.532C1763.286,4809.554,1750.128,4794.712,1738.68,4799.276Z" fill="#f47f26"/>
          <path id="Path_5547" data-name="Path 5547" d="M1695.174,4847.213s5.379-11.9,4.268-17.364c6.59,5.63,1.859,13.548,1.859,13.548s-1.891,1.275-2.524,1.676C1698.123,4845.488,1695.174,4847.213,1695.174,4847.213Z" fill="#cc6728"/>
        </g>
        <g id="Group_3763" data-name="Group 3763">
          <g id="Group_3762" data-name="Group 3762">
            <path id="Path_5548" data-name="Path 5548" d="M1714.225,4800.465l.239-16.83-.03-2.429,12.05-1.145,2.1,18.734s-4.217,5.443-9.85,4.276A9.616,9.616,0,0,1,1714.225,4800.465Z" fill="#fa997b"/>
            <path id="Path_5549" data-name="Path 5549" d="M1727.29,4778.991c-.17,7.081-5.344,11.419-11.317,11.242-11.357-.336-10.473-8.493-9.857-15.547a9.935,9.935,0,0,1,3.957-7.479c2.246-1.642,9.644-2.222,10.726.631C1724.674,4778.051,1727.4,4774.476,1727.29,4778.991Z" fill="#fa997b"/>
            <path id="Path_5550" data-name="Path 5550" d="M1730.757,4782.185c-1.581,2.149-4.05,2.928-5.511,1.747s-1.371-3.893.21-6.041,4.042-2.929,5.514-1.737S1732.337,4780.043,1730.757,4782.185Z" fill="#fa997b"/>
          </g>
          <path id="Path_5551" data-name="Path 5551" d="M1728.013,4779.772c-.369.719-.333,1.475.083,1.689s1.052-.2,1.423-.916.329-1.476-.085-1.688S1728.381,4779.052,1728.013,4779.772Z" fill="#ef5d23"/>
          <path id="Path_5552" data-name="Path 5552" d="M1721.081,4788.717a16.272,16.272,0,0,1-4,1.49c-1.111.026-2.713-.084-2.713-.084l-.056,4.161s3.581-3.25,4.753-4.081S1721.081,4788.717,1721.081,4788.717Z" fill="#ef5d23"/>
        </g>
      </g>
      <g id="Group_3767" data-name="Group 3767">
        <g id="Group_3765" data-name="Group 3765">
          <path id="Path_5553" data-name="Path 5553" d="M1593.3,4830.171c-4.353-8.479-3.988-20.472,1.861-31.375s15.638-17.842,25.11-18.9l1.767-3.294,10.193,5.468c12.049,6.463,14.989,24.433,6.565,40.137s-25.021,23.194-37.07,16.731l-10.193-5.468Z" fill="#ff8b7d"/>
          <path id="Path_5554" data-name="Path 5554" d="M1591.537,4833.465c12.049,6.463,28.646-1.027,37.07-16.731s5.484-33.674-6.565-40.137-28.646,1.027-37.07,16.731S1579.487,4827,1591.537,4833.465Z" fill="#f37362"/>
        </g>
        <path id="Path_5555" data-name="Path 5555" d="M1532.728,4751.835l75.639,40.939-11.779,21.763-18.943-10.253-6.749,2.009-4.18-2.263-2.009-6.749-4.578-2.478-4.525,1.347-2.538-1.374-.719-2.415-1.916-1.037-4.851,1.444-8.8-4.761-1.766-5.934-3.415-1.849-3.245.966-4.463-2.415-1.272-4.271-1.674-.907a12.373,12.373,0,1,1,11.779-21.762Z" fill="#f37362"/>
        <g id="Group_3766" data-name="Group 3766">
          <path id="Path_5556" data-name="Path 5556" d="M1609.517,4815.429a10.319,10.319,0,0,0,7.536-13.8l.494-.9-2.8-1.528c-3.307-1.806-7.9.224-10.251,4.534s-1.58,9.269,1.727,11.076l2.8,1.527Z" fill="#d6e0ff"/>
          <path id="Path_5557" data-name="Path 5557" d="M1609.023,4816.333c-3.307-1.806-4.081-6.764-1.726-11.075s6.943-6.34,10.25-4.534,4.08,6.765,1.726,11.075S1612.33,4818.14,1609.023,4816.333Z" fill="#fff"/>
        </g>
      </g>
    </g>
    <path id="Path_5558" data-name="Path 5558" d="M1821.169,5084.606H1079.7V5071.05H1821.17v13.556Z" transform="translate(-1079.695 -4671.789)" fill="#63491a"/>
  </g>
</svg>
