<svg xmlns="http://www.w3.org/2000/svg" xmlns:xlink="http://www.w3.org/1999/xlink" width="744.38" height="420.69" viewBox="0 0 744.38 420.69">
  <defs>
    <linearGradient id="linear-gradient" y1="0.5" x2="1" y2="0.5" gradientUnits="objectBoundingBox">
      <stop offset="0" stop-color="#2c9c48"/>
      <stop offset="1" stop-color="#34b34d"/>
    </linearGradient>
  </defs>
  <g id="Component_6_1" data-name="Component 6 – 1" transform="translate(0 1.559)">
    <g id="Group_215" data-name="Group 215" transform="translate(-1078.184 -4034.404)">
      <path id="Path_383" data-name="Path 383" d="M1201.23,4453.535c-16.555-23.282-38.06-55.124-47.276-82.164s-9.963-58.382,4.735-82.879c10.841-18.069,28.769-30.624,42.281-46.792,25.233-30.2,33.426-70.555,45.984-107.848s33.8-76.2,71.005-89a76.86,76.86,0,0,1,62.412,5.946c23.479,13.486,38.293,38.564,61.11,53.141,38,24.277,87.558,14.155,131.291,3.166s93.246-21.2,131.324,2.954c23.586,14.961,38.689,42.447,38.67,70.378-.022,31.353-17.629,61.263-14.667,92.475,3.409,35.93,33.245,65.058,37.31,100.92,4.053,35.766-22.472,72.4-57.718,79.7Z" fill="#cbc5f9"/>
      <path id="Path_384" data-name="Path 384" d="M1171.116,4449.739c-17.07-24-32.067-46.626-41.57-74.507s-10.273-60.2,4.882-85.456c11.178-18.63,29.663-31.575,43.595-48.247,26.018-31.134,34.466-72.748,47.414-111.2s34.846-78.565,73.213-91.767a79.251,79.251,0,0,1,64.352,6.131c24.209,13.906,39.484,39.763,63.011,54.794,39.18,25.031,90.28,14.6,135.372,3.264s104.915-37.635,144.177-12.731c24.32,15.426,39.892,43.767,39.872,72.566-.023,32.327-26.946,78.944-23.892,111.127,3.515,37.047,56.911,49.814,56.529,108.049-.244,37.114-26.541,61.642-62.883,69.177" fill="none" stroke="#a3a1db" stroke-miterlimit="10" stroke-width="3.093"/>
      <g id="Group_209" data-name="Group 209">
        <g id="Group_201" data-name="Group 201">
          <path id="Rectangle_39" data-name="Rectangle 39" d="M7.246,0h251.1A7.246,7.246,0,0,1,265.6,7.246V160.888a0,0,0,0,1,0,0H0a0,0,0,0,1,0,0V7.246A7.246,7.246,0,0,1,7.246,0Z" transform="translate(1341.747 4173.776)" fill="#00397f"/>
          <path id="Rectangle_40" data-name="Rectangle 40" d="M2.131,0H317.079a2.131,2.131,0,0,1,2.131,2.131v0a8.677,8.677,0,0,1-8.677,8.677H8.677A8.677,8.677,0,0,1,0,2.131v0A2.131,2.131,0,0,1,2.131,0Z" transform="translate(1314.941 4334.664)" fill="#004aa3"/>
          <rect id="Rectangle_41" data-name="Rectangle 41" width="247.786" height="143.078" rx="2.367" transform="translate(1350.652 4182.681)" fill="#dcedff"/>
          <path id="Path_385" data-name="Path 385" d="M1508.17,4339.657h-67.249a4.993,4.993,0,0,1-4.993-4.993h77.235A4.993,4.993,0,0,1,1508.17,4339.657Z" fill="#0052c2"/>
        </g>
        <g id="Group_202" data-name="Group 202">
          <path id="Path_386" data-name="Path 386" d="M1649.829,4148.3h-47.691a5.158,5.158,0,0,1-3.111-1.043l-11.973-7.5a5.161,5.161,0,0,0-3.111-1.043h-13.717a5.16,5.16,0,0,0-5.16,5.16v57.477a5.175,5.175,0,0,0,5.16,5.16h79.6a5.175,5.175,0,0,0,5.16-5.16v-47.892A5.175,5.175,0,0,0,1649.829,4148.3Z" fill="#f17c16"/>
          <path id="Path_387" data-name="Path 387" d="M1649.829,4148.3h-39.8v58.212h39.8a5.175,5.175,0,0,0,5.16-5.16v-47.892A5.175,5.175,0,0,0,1649.829,4148.3Z" fill="#ff912d"/>
          <rect id="Rectangle_42" data-name="Rectangle 42" width="82.355" height="52.602" rx="5.16" transform="translate(1568.85 4151.077)" fill="#f4c54b"/>
          <rect id="Rectangle_43" data-name="Rectangle 43" width="89.923" height="49.229" rx="5.16" transform="translate(1565.066 4157.282)" fill="#f17c16"/>
        </g>
        <g id="Group_203" data-name="Group 203">
          <path id="Path_388" data-name="Path 388" d="M1649.625,4285.494l33.413-23.329a1.937,1.937,0,0,1,1.543-.3l8.275,1.9a1.937,1.937,0,0,1,1.487,2.13l-1.063,8.425a1.933,1.933,0,0,1-.813,1.345l-3.794,2.649h0a1.6,1.6,0,0,1-1.055.282l-4.8-.416a.967.967,0,0,0-1.018.71l-1.16,4.268a.967.967,0,0,1-1.018.711l-4.4-.382a.967.967,0,0,0-1.018.71l-1.161,4.27a.969.969,0,0,1-1.018.711l-4.864-.421a.967.967,0,0,0-.638.171l-9.086,6.344Z" fill="#ff912d"/>
          <circle id="Ellipse_8" data-name="Ellipse 8" cx="21.106" cy="21.106" r="21.106" transform="translate(1615.574 4303.275) rotate(-55.386)" fill="#3c4bcd"/>
          <path id="Path_389" data-name="Path 389" d="M1638.542,4308.9a5.367,5.367,0,1,1,1.328-7.473A5.368,5.368,0,0,1,1638.542,4308.9Z" fill="#fff"/>
        </g>
        <g id="Group_206" data-name="Group 206">
          <g id="Group_205" data-name="Group 205">
            <path id="Path_390" data-name="Path 390" d="M1372.84,4272.117a20.18,20.18,0,0,0-6.974,1.235,30.122,30.122,0,0,0-55.571-4.537,23.1,23.1,0,1,0-10.366,43.742h72.911a20.22,20.22,0,1,0,0-40.44Z" fill="#ff912d"/>
            <g id="Group_204" data-name="Group 204">
              <path id="Path_391" data-name="Path 391" d="M1329.96,4296.866c-.043,0-.085,0-.129-.005a1.737,1.737,0,0,1-1.221-.641l-7.36-9.14a1.733,1.733,0,1,1,2.7-2.174l6.2,7.7,15.97-14.712a1.733,1.733,0,0,1,2.348,2.549l-17.332,15.968A1.732,1.732,0,0,1,1329.96,4296.866Z" fill="#fff"/>
            </g>
          </g>
        </g>
        <g id="Group_208" data-name="Group 208">
          <g id="Group_207" data-name="Group 207">
            <path id="Path_392" data-name="Path 392" d="M1520.01,4227.982h-13.694v-33.965a31.771,31.771,0,0,0-63.541,0v33.965h-13.694v-33.965a45.464,45.464,0,0,1,90.929,0Z" fill="#ff912d"/>
          </g>
          <path id="Path_393" data-name="Path 393" d="M1532.975,4216.805c-22.076,15.455-52.224-3.036-57.594-6.576a1.515,1.515,0,0,0-1.671,0c-5.37,3.54-35.518,22.031-57.594,6.576a1.519,1.519,0,0,0-2.4,1.275c.338,14.912,5.073,78.824,60.825,96.563,55.751-17.739,60.486-81.651,60.824-96.563A1.519,1.519,0,0,0,1532.975,4216.805Z" fill="#808184"/>
          <path id="Path_394" data-name="Path 394" d="M1486.592,4254.447a12.047,12.047,0,1,0-16.458,11.208v16.392a4.411,4.411,0,1,0,8.823,0v-16.392A12.045,12.045,0,0,0,1486.592,4254.447Z" fill="#4d4e4f"/>
        </g>
      </g>
      <g id="Group_214" data-name="Group 214">
        <g id="Group_210" data-name="Group 210">
          <path id="Path_395" data-name="Path 395" d="M1243.169,4250.787c0-.03-.008-.051-.008-.051Z" fill="#29394a"/>
          <path id="Path_396" data-name="Path 396" d="M1252.319,4342.093c-3.522-55.424-8.98-90.232-9.15-91.306.053.393.078,3.082-9.327,2.552-12.862-.723-32.4-3.947-32.4-3.947-12.946-1.221-17.029,35-16.05,50.2a315.676,315.676,0,0,1-.534,40.731c-6.857,37.305-1.862,71.985-1.7,79.2v11.432a10.6,10.6,0,0,0,9.8-.216l.761-8.035c5.583-29.745,10.385-54.6,24.412-118.723,2.589,9.65,7.112,23.437,10.693,34.18,0,.067,1.154,3.324,1.154,3.324.635,3.977-1.037,32.117,1.1,48.476,1.378,10.525,4.016,21.68,4.7,31.818h0l.32,9.093a10.2,10.2,0,0,0,9.777,0l.53-8.839h0c2.253-24.5,5.515-61.511,6.037-73.431C1252.487,4347.692,1252.413,4343.576,1252.319,4342.093Z" fill="#163754"/>
        </g>
        <path id="Path_397" data-name="Path 397" d="M1228.815,4338.159c-3.581-10.743-8.1-24.53-10.693-34.18l5.346-18.886S1223.889,4321.834,1228.815,4338.159Z" fill="#1f2b38"/>
        <path id="Path_398" data-name="Path 398" d="M1260.13,4182.644l19.042,30.35s2.22,13.23-8.429,11.339S1245.606,4195,1245.606,4195" fill="#fa997b"/>
        <path id="Path_399" data-name="Path 399" d="M1255.318,4210.555s7.388,9.806,10.592,12.223c2.578,1.945,6.79,4.046,10.433,1.643s21.474-17.383,35.183-33.115a49.241,49.241,0,0,1-4.117-4.638,101.761,101.761,0,0,1-18.237,10.243c-13.846,5.877-16.824,13.218-16.824,13.218" fill="#fa997b"/>
        <path id="Path_400" data-name="Path 400" d="M1270.077,4195.019s-6.056,7.785-14.756,11.131a28.547,28.547,0,0,1-3.668,1.136c-.407.095-.813.179-1.231.251l-7.3-11.807-5.4-8.724,9.01-24.295S1254.207,4169.039,1270.077,4195.019Z" fill="#9cd2ff"/>
        <path id="Path_401" data-name="Path 401" d="M1251.653,4207.286c-.407.095-.813.179-1.231.251l-7.3-11.807c1.088-1.876,2.02-3.454,2.02-3.454l3.8-.741A145.661,145.661,0,0,0,1251.653,4207.286Z" fill="#88c7f2"/>
        <path id="Path_402" data-name="Path 402" d="M1243.084,4223.12c-2.091,12.44,4.337,32,.932,32.4.67,3.848-13.073,5.521-21.366,5.521-9.334,0-24.837-4.27-29.617-7.031-.415-.229-2.349-3.19.744-12.313a36.319,36.319,0,0,0,1.566-6.425c1.4-9.67,1.913-17.923-.071-25.617-1.088-4.207-2.379-8.15-3.645-11.879-3.179-9.369-6.119-17.4-4.852-24.88a33.688,33.688,0,0,1,4.6-6.19,25.835,25.835,0,0,1,9.859-6.9.289.289,0,0,0,.083-.036,95.455,95.455,0,0,1,19.515-3.191c13.826-.418,20.495,1.589,25.382,5.628,4.111,3.394,4.6,17.245,2.187,33.258C1247.135,4203.832,1244.59,4214.169,1243.084,4223.12Z" fill="#9cd2ff"/>
        <g id="Group_211" data-name="Group 211">
          <path id="Path_403" data-name="Path 403" d="M1238.91,4116.347s1.709,13.234-2.187,14.44-3.432-3.989-3.432-3.989l-.017-5.751" fill="#a9453e"/>
          <path id="Path_404" data-name="Path 404" d="M1210.176,4159.475c.738-1.748.28-3.1.645-5.377a105.829,105.829,0,0,0,.793-17.926l9.608,8.079,4.529,3.812c.49,2.27,1.291,5.174,1.96,7.529a6.268,6.268,0,0,1-.182,4.218Z" fill="#fa997b"/>
          <path id="Path_405" data-name="Path 405" d="M1215.281,4144.258s3.852,8.509,12.434,11.328c-.676-2.35-1.471-5.249-1.963-7.521l-4.53-3.814Z" fill="#ef5d23"/>
          <path id="Path_406" data-name="Path 406" d="M1237.481,4125.609s1.932,20.249-4.683,23.934c-3.631,2.022-11.3,1.245-16.272-3.4a19.121,19.121,0,0,1-4.5-7.639c-1.658-4.552-4.2-13-2.585-18.412C1211.738,4112.4,1235.38,4107.626,1237.481,4125.609Z" fill="#fa997b"/>
          <path id="Path_407" data-name="Path 407" d="M1237.743,4113.219c-4.726-4.738-11.361-7.384-15.335-7.307-22.493.436-19.826,19.542-16.813,26.871a54.565,54.565,0,0,0,3.858,6.048c2.3,3.633,1.138,8.128,2.9,8.119s.607-7.687,1.615-13.1c.074-.4.165-.765.265-1.113,2.9-.276,6.1.933,6.07-1.184-.088-5.352.05-9.231,2.478-10.521,1.543-.82,4.154,1.437,8.177,1.554C1239.41,4122.833,1240.1,4115.582,1237.743,4113.219Z" fill="#a9453e"/>
          <path id="Path_408" data-name="Path 408" d="M1213.682,4135.957" fill="none" stroke="#fff" stroke-miterlimit="10" stroke-width="0.572"/>
          <path id="Path_409" data-name="Path 409" d="M1218.327,4131.256" fill="none" stroke="#fff" stroke-miterlimit="10" stroke-width="0.572"/>
          <path id="Path_410" data-name="Path 410" d="M1217.751,4138.362c-4.609,2.514-7.734-9.241-3.191-10.392,3.445-.872,4.244,3.99,4.244,3.99S1220.383,4136.926,1217.751,4138.362Z" fill="#fa997b"/>
        </g>
        <path id="Path_411" data-name="Path 411" d="M1194.774,4192.037s-6.971,14.006-12.757,22.224c-1.981,2.813-3.826,4.938-5.217,5.614-4.47,2.172-12.042-1.445-14.462-4.5.027-.563.077-1.117.145-1.652.019-.12.022-.234.048-.339a2.573,2.573,0,0,1,.044-.365,6.058,6.058,0,0,1,.127-.73,32.414,32.414,0,0,1,1.634-5c.712-1.775,1.41-3.34,1.669-3.907l0-.011c.012-.034.035-.063.048-.1a1.046,1.046,0,0,0,.056-.119c5.223-10.612,13.1-25.383,13.1-25.383Z" fill="#fa997b"/>
        <path id="Path_412" data-name="Path 412" d="M1197.948,4189.193l-2.676,20.459c-1.088-4.207-2.379-8.15-3.645-11.879Z" fill="#88c7f2"/>
        <path id="Path_413" data-name="Path 413" d="M1201.843,4183.059c-2.663,7.3-9.962,20.865-9.962,20.865-4.048.205-8.919-1.9-13.028-4.219a86.945,86.945,0,0,1-9.448-6.414,134.943,134.943,0,0,1,8.467-14.921,64.1,64.1,0,0,1,9.79-11.424,33.845,33.845,0,0,1,6.449-4.232Z" fill="#9cd2ff"/>
        <path id="Path_414" data-name="Path 414" d="M1201.231,4159.81s-9.953,3-12.731,7.135c-2.72,4.05-7.007,20.034-7.007,20.034l11.046-4.762" fill="#9cd2ff"/>
        <path id="Path_415" data-name="Path 415" d="M1323.245,4179.962c-.469.366-3.73,2.38-4.405,2.8.377-.2,2.01,1.251,2.125,1.193,0,.641.6,3.417.244,4.115-.5.509-1.374.642-1.683.837-1.213.778-4.176,2-5.332,1.956s-2.037-.171-2.678.481l-5.058-3.948s4.475-9.326,7.541-11.5a1.233,1.233,0,0,1,.939,1.476c-.149,1.3-2.014,2.884-2.106,4.108s.721,1.053,1.728.835,8.525-4.291,9.257-3.913S1323.783,4179.55,1323.245,4179.962Z" fill="#fa997b"/>
        <path id="Path_416" data-name="Path 416" d="M1193.033,4254.007a91.153,91.153,0,0,0,50.978,1.51,14.106,14.106,0,0,1,.862,7.4s-28.149,6.886-54.262-2.712C1190.611,4260.209,1191.35,4256.232,1193.033,4254.007Z" fill="#1f2b38"/>
        <g id="Group_213" data-name="Group 213">
          <rect id="Rectangle_44" data-name="Rectangle 44" width="53.29" height="76.296" rx="3.609" transform="matrix(0.652, 0.758, -0.758, 0.652, 1203.65, 4197.771)" fill="#fff"/>
          <rect id="Rectangle_45" data-name="Rectangle 45" width="46.519" height="70.368" rx="1.668" transform="matrix(0.652, 0.758, -0.758, 0.652, 1203.497, 4202.34)" fill="#9dd2f2" opacity="0.46"/>
          <rect id="Rectangle_46" data-name="Rectangle 46" width="25.151" height="5.666" rx="0.614" transform="matrix(0.652, 0.758, -0.758, 0.652, 1211.831, 4209.292)" fill="#9dd2f2"/>
          <g id="Group_212" data-name="Group 212">
            <line id="Line_1" data-name="Line 1" x2="26.625" y2="30.952" transform="translate(1161.302 4242.419)" fill="none" stroke="#fff" stroke-linecap="round" stroke-miterlimit="10" stroke-width="1.986"/>
            <line id="Line_2" data-name="Line 2" x2="26.625" y2="30.952" transform="translate(1157.413 4245.764)" fill="none" stroke="#fff" stroke-linecap="round" stroke-miterlimit="10" stroke-width="1.986"/>
            <line id="Line_3" data-name="Line 3" x2="26.625" y2="30.952" transform="translate(1196.299 4212.314)" fill="none" stroke="#fff" stroke-linecap="round" stroke-miterlimit="10" stroke-width="1.986"/>
            <line id="Line_4" data-name="Line 4" x2="26.626" y2="30.952" transform="translate(1192.41 4215.659)" fill="none" stroke="#fff" stroke-linecap="round" stroke-miterlimit="10" stroke-width="1.986"/>
            <line id="Line_5" data-name="Line 5" x2="26.625" y2="30.952" transform="translate(1188.522 4219.004)" fill="none" stroke="#fff" stroke-linecap="round" stroke-miterlimit="10" stroke-width="1.986"/>
            <line id="Line_6" data-name="Line 6" x2="26.625" y2="30.952" transform="translate(1184.633 4222.349)" fill="none" stroke="#fff" stroke-linecap="round" stroke-miterlimit="10" stroke-width="1.986"/>
            <line id="Line_7" data-name="Line 7" x2="26.625" y2="30.952" transform="translate(1180.745 4225.694)" fill="none" stroke="#fff" stroke-linecap="round" stroke-miterlimit="10" stroke-width="1.986"/>
            <line id="Line_8" data-name="Line 8" x2="26.625" y2="30.952" transform="translate(1176.856 4229.039)" fill="none" stroke="#fff" stroke-linecap="round" stroke-miterlimit="10" stroke-width="1.986"/>
            <line id="Line_9" data-name="Line 9" x2="26.625" y2="30.952" transform="translate(1172.968 4232.384)" fill="none" stroke="#fff" stroke-linecap="round" stroke-miterlimit="10" stroke-width="1.986"/>
            <line id="Line_10" data-name="Line 10" x2="26.625" y2="30.952" transform="translate(1169.079 4235.729)" fill="none" stroke="#fff" stroke-linecap="round" stroke-miterlimit="10" stroke-width="1.986"/>
            <line id="Line_11" data-name="Line 11" x2="26.626" y2="30.952" transform="translate(1165.19 4239.074)" fill="none" stroke="#fff" stroke-linecap="round" stroke-miterlimit="10" stroke-width="1.986"/>
            <line id="Line_12" data-name="Line 12" x2="26.625" y2="30.952" transform="translate(1200.188 4208.969)" fill="none" stroke="#fff" stroke-linecap="round" stroke-miterlimit="10" stroke-width="1.986"/>
          </g>
        </g>
        <path id="Path_417" data-name="Path 417" d="M1195.928,4257.871a285.181,285.181,0,0,1-31.306-28.057c-.382-.41-.751-.8-1.091-1.165-3.969-4.426-1.822-9,1.093-12.325.368-.426.748-.832,1.131-1.212.172-.177.339-.337.507-.5a6.035,6.035,0,0,1,.549-.5,32.3,32.3,0,0,1,4.368-2.932l4.715,5.344a49.154,49.154,0,0,1,5.3,9.411,118.075,118.075,0,0,0,19.066,27.5A49.456,49.456,0,0,0,1195.928,4257.871Z" fill="#fa997b"/>
        <path id="Path_418" data-name="Path 418" d="M1199.268,4252.381a7.011,7.011,0,0,0,3.881,2.381c1.26.194,1.911-.106,2.833.068a20.843,20.843,0,0,0,4.678.627c1.349-.13,1.817-.025,1.346,1.1s-3.09,1.27-3.82,1.357a6.187,6.187,0,0,0-2.006.91c-.13.1,2.942,3.542,4.125,3.523a3.178,3.178,0,0,1-.41,1.486c-.368.449-1.223.333-1.381.568s-.116.855-.441,1.2-1.029.083-1.563.643-.227.688-.7,1.306-1.4.407-1.709.7-.372.748-.839.855-3.492-2.295-4.545-3.307-2.59-7.111-5.684-10.159" fill="#fa997b"/>
        <path id="Path_419" data-name="Path 419" d="M1165.753,4203.938s-8.611,17.487-2.222,24.711,7.484-13.091,7.533-13.464S1165.753,4203.938,1165.753,4203.938Z" fill="#fa997b"/>
        <path id="Path_420" data-name="Path 420" d="M1208.087,4158.2l2.734-4.106s1,2.595,12.426,5.614l-1.773,6.439A31.465,31.465,0,0,1,1208.087,4158.2Z" fill="#c5e8ff"/>
        <path id="Path_421" data-name="Path 421" d="M1227.361,4154.343s.282,1.247-1.417,3.247a23.239,23.239,0,0,1-2.7,2.122l3.137,5.431s2.606-2.614,2.606-8.489Z" fill="#c5e8ff"/>
        <path id="Path_422" data-name="Path 422" d="M1265.372,4439.478h-19.061l-1.255-1.769-1.434,1.769H1234.8s-2.665-5.6,1.147-12.548c0,0,2.534,2.032,10.122.658a33.8,33.8,0,0,0,5.354,3.74C1253.624,4432.391,1266.22,4434.865,1265.372,4439.478Z" fill="#1e2a36"/>
        <path id="Path_423" data-name="Path 423" d="M1183.153,4425.818a15.976,15.976,0,0,0,10.186.805,13.273,13.273,0,0,1,1.363,2.938c.628,1.717,4.4,5.149,5.127,8.855a.9.9,0,0,1-.889,1.062h-18.222a.889.889,0,0,1-.877-.707C1179.463,4436.9,1178.915,4431.587,1183.153,4425.818Z" fill="#1e2a36"/>
        <path id="Path_424" data-name="Path 424" d="M1224.413,4258.618c.019,1.141.066,4.533.01,6.385a.387.387,0,0,0,.4.41,73.919,73.919,0,0,0,7.547-.422.389.389,0,0,0,.329-.382,47.229,47.229,0,0,0-.165-6.61.388.388,0,0,0-.438-.332c-1.061.119-4.206.449-7.289.552A.4.4,0,0,0,1224.413,4258.618Z" fill="#2b435d"/>
        <path id="Path_425" data-name="Path 425" d="M1314.926,4177.376c-.114,1.087-1.419,2.357-1.922,3.456l-3.41.755c1.4-2.346,3.032-4.726,4.405-5.687A1.228,1.228,0,0,1,1314.926,4177.376Z" fill="#fa997b"/>
        <path id="Path_426" data-name="Path 426" d="M1321.662,4181.4c-1.173-.342-4.13,1.08-4.631,1.563s.125,1.43,1.359,1.466a12.7,12.7,0,0,0,3.272-.639S1323.1,4181.815,1321.662,4181.4Z" fill="#fa997b"/>
        <path id="Path_427" data-name="Path 427" d="M1321.613,4183.572c-1.3-.379-4.58,1.2-5.135,1.733s.138,1.586,1.506,1.626a9.585,9.585,0,0,0,3.225-.753S1323.21,4184.038,1321.613,4183.572Z" fill="#fa997b"/>
        <path id="Path_428" data-name="Path 428" d="M1321.569,4185.742a31.464,31.464,0,0,0-4.035,1.676c-.4.383.1,1.135,1.079,1.163a10.056,10.056,0,0,0,2.6-.507S1322.378,4186.615,1321.569,4185.742Z" fill="#fa997b"/>
      </g>
      <path id="Path_429" data-name="Path 429" d="M1711.59,4439.926h-48.823c-2.617-2.219,1.811-7.26,6.436-7.6a28.476,28.476,0,0,1,7.452.882c.672-8.924,4.508-49.04,18.968-47.428,16.26,1.8,0,17.666-4.6,27.057a223.56,223.56,0,0,0-8.637,21.638c1.32.286,2.686.566,4.082.823,2.155-6.616,10.174-28.873,20.37-27.577,11.973,1.519,7.16,10.442-1.325,15.74-6.226,3.9-13.87,9.431-17.5,12.106a51.883,51.883,0,0,0,9.548.765C1705.925,4436.136,1710.008,4438.6,1711.59,4439.926Z" fill="url(#linear-gradient)"/>
    </g>
    <path id="Path_430" data-name="Path 430" d="M1822.563,4453.535H1078.185v-13.609h744.38v13.609Z" transform="translate(-1078.184 -4034.404)" fill="#333354"/>
    <path id="Path_431" data-name="Path 431" d="M1215.044,4133.177c.2.767.728,1.3,1.172,1.178s.639-.836.436-1.606-.732-1.294-1.174-1.176S1214.838,4132.408,1215.044,4133.177Z" transform="translate(-1078.184 -4034.404)" fill="#ef5d23"/>
  </g>
</svg>
