<svg id="Component_2_1" data-name="Component 2 – 1" xmlns="http://www.w3.org/2000/svg" xmlns:xlink="http://www.w3.org/1999/xlink" width="744.38" height="427.063" viewBox="0 0 744.38 427.063">
  <defs>
    <linearGradient id="linear-gradient" y1="0.5" x2="1" y2="0.5" gradientUnits="objectBoundingBox">
      <stop offset="0" stop-color="#2c9c48"/>
      <stop offset="1" stop-color="#34b34d"/>
    </linearGradient>
  </defs>
  <path id="Path_73" data-name="Path 73" d="M1767.617,5718.886c-2.08,3.22-3.42,4.92-3.42,4.92h-19l-144.45.04-104.07.03-4.84.01h-16.9l-8.25.01h-37.52l-1.19.01H1404.5l-8.28.01h-36.43l-1.07.01h-24.85l-8.12.01h-35.23l-1.19.01h-25.9l-8.32.01H1228.2l-8.33.01h-26.89l-8.34.01h-21.53c-.33-.61-.65-1.22-.96-1.82-.19-.37-.38-.75-.57-1.12-1.85-3.65-3.43-7.14-4.77-10.49-.03-.07-.06-.15-.09-.22-.15-.35-.28-.69-.41-1.04a93.822,93.822,0,0,1-3.85-12.18c-.12-.51-.24-1.01-.35-1.52-.35-1.62-.64-3.21-.87-4.76q-.21-1.425-.36-2.82a63.034,63.034,0,0,1-.35-6.47c0-.78.02-1.55.05-2.32q.045-1.23.15-2.43a56.723,56.723,0,0,1,.92-6.53c.11-.52.22-1.04.34-1.55.3-1.28.63-2.53,1-3.77a66.412,66.412,0,0,1,2.25-6.26c.25-.61.51-1.22.78-1.82.17-.4.35-.79.53-1.18.06-.13.12-.26.18-.38,1-2.13,2.08-4.21,3.23-6.27.57-1.04,1.17-2.07,1.77-3.1.13-.21.25-.42.37-.63l.25-.41,1.13-1.86c1.46-2.38,2.96-4.75,4.47-7.13.21-.34.43-.67.64-1.01,1.88-2.96,3.76-5.96,5.57-9.04.21-.35.41-.7.61-1.05q.54-.915,1.05-1.86c1.45-2.57,2.83-5.22,4.09-7.97.19-.39.37-.78.54-1.18.09-.19.17-.38.26-.58.18-.41.35-.82.53-1.24.1-.24.21-.49.31-.74.83-2.03,1.59-4.11,2.27-6.26q.54-1.665.99-3.39c.55-2.02,1.01-4.1,1.39-6.26.22-1.22.41-2.46.56-3.73.26-2.03.44-4.11.53-6.26.05-1.17.07-2.37.07-3.58-.01-2.02-.08-4.11-.24-6.26-.08-1.11-.19-2.23-.32-3.37q-.33-3.045-.9-6.26c-.25-1.43-.54-2.88-.85-4.35-.33-1.54-.71-3.1-1.12-4.69-.13-.53-.26-1.05-.39-1.58-.28-1.12-.54-2.25-.79-3.38q-.69-3.135-1.23-6.26c-.22-1.24-.42-2.49-.59-3.73-.31-2.09-.56-4.18-.77-6.26-.11-1.2-.22-2.39-.3-3.58-.15-2.09-.26-4.18-.31-6.26-.03-1.12-.05-2.25-.05-3.37,0-2.09.05-4.18.14-6.26.19-4.39.6-8.75,1.2-13.07,3.65-26.06,14.59-50.78,30.8-72.75a198.832,198.832,0,0,1,15.14-18.14,229.908,229.908,0,0,1,56.58-43.54c87.4-48.12,209.87-45.37,285.22,64.68,53.94,78.79,139.5,37.61,194.77,123.44,13.73,21.31,21.17,41.65,24.51,60.35C1796.827,5667.376,1776.107,5705.756,1767.617,5718.886Z" transform="translate(-1078.184 -5297.685)" fill="#bfe2d8"/>
  <path id="Path_74" data-name="Path 74" d="M1749.818,5723.8s1.37-1.737,3.484-5.01c8.652-13.386,29.778-52.5,20.63-103.729-3.4-19.056-10.989-39.792-24.972-61.5-56.332-87.477-143.528-45.507-198.506-125.81-76.785-112.154-201.6-114.952-290.676-65.909a234.023,234.023,0,0,0-57.656,44.374,201.718,201.718,0,0,0-15.437,18.486c-16.519,22.384-27.668,47.576-31.385,74.139q-.924,6.6-1.227,13.318-.142,3.178-.138,6.379,0,1.718.05,3.439.081,3.182.312,6.381.132,1.821.312,3.645.311,3.182.777,6.379.272,1.9.6,3.806.551,3.182,1.254,6.379.378,1.722.8,3.446c.129.536.265,1.068.4,1.6q.625,2.435,1.134,4.779.486,2.259.87,4.435.573,3.276.916,6.379.2,1.749.324,3.441c.163,2.187.242,4.315.249,6.38q0,1.854-.072,3.644-.142,3.286-.537,6.382-.237,1.934-.573,3.8-.58,3.294-1.417,6.381-.465,1.752-1.007,3.448-1.043,3.286-2.318,6.379c-.1.256-.211.51-.319.763-.175.424-.356.842-.537,1.261-.086.2-.174.394-.26.589-.181.405-.363.806-.551,1.206-1.6,3.473-3.377,6.79-5.238,10.013q-.312.537-.625,1.071c-1.844,3.142-3.764,6.2-5.677,9.216l-.65,1.023c-1.541,2.431-3.074,4.842-4.557,7.267l-1.147,1.9-.256.423c-.127.213-.252.424-.376.637q-.93,1.575-1.813,3.164c-1.166,2.1-2.271,4.22-3.287,6.382-.062.129-.12.258-.179.389-.188.4-.369.8-.548,1.207-.272.613-.539,1.231-.8,1.852-.86,2.078-1.625,4.2-2.286,6.379q-.57,1.891-1.023,3.842c-.12.522-.236,1.05-.342,1.582a56.5,56.5,0,0,0-.946,6.655c-.068.818-.12,1.642-.152,2.477v0a61.07,61.07,0,0,0,.31,8.958q.146,1.417.364,2.868.354,2.37.89,4.854v0c.113.514.231,1.028.358,1.551a95.861,95.861,0,0,0,3.918,12.41c.166.425.333.853.508,1.283q2.054,5.115,4.864,10.69c.193.378.388.761.585,1.143.316.614.642,1.234.973,1.856" transform="translate(-1078.184 -5297.685)" fill="none" stroke="#97b4c9" stroke-miterlimit="10" stroke-width="3.057"/>
  <path id="Path_75" data-name="Path 75" d="M1822.563,5723.979H1078.185v-13.61h744.38v13.609Z" transform="translate(-1078.184 -5297.685)" fill="#417c6c"/>
  <g id="Group_42" data-name="Group 42" transform="translate(-1078.184 -5297.685)">
    <g id="Group_33" data-name="Group 33">
      <path id="Path_76" data-name="Path 76" d="M1583.14,5462.284l-6.931,8.91-13.732,2.006c-.177-1.1-.8-5.714-1.362-9.891-.033-.247-.065-.494-.1-.734-.473-3.556-.876-6.612-.876-6.612l10.24-9.441,3.817-3.52c.012.074.914,3.813,1.049,4.358A32.482,32.482,0,0,0,1583.14,5462.284Z" fill="#fa997b"/>
      <path id="Path_77" data-name="Path 77" d="M1574.4,5447.836c-1.115,5.39-9.656,12.641-13.283,15.473-.033-.247-.065-.494-.1-.734-.473-3.556-.876-6.612-.876-6.612l10.24-9.441C1573.033,5445.574,1574.86,5445.616,1574.4,5447.836Z" fill="#ef5d23"/>
      <path id="Path_78" data-name="Path 78" d="M1554.1,5456.1s21.338,2.65,22.784-10.663,5.173-21.938-8.389-24.193-16.765,2.537-18.329,6.864S1548.586,5455.062,1554.1,5456.1Z" fill="#fa997b"/>
      <path id="Path_79" data-name="Path 79" d="M1559.562,5441.458c-.466.907-.421,1.863.1,2.133s1.329-.247,1.8-1.157.415-1.864-.108-2.133S1560.027,5440.548,1559.562,5441.458Z" fill="#ef5d23"/>
      <path id="Path_80" data-name="Path 80" d="M1550.739,5426.742c1.846,3.252,3.946,14.475,6.872,13.286s5.6-2.16,5.955,2.354-2.936,10.4,6.579,9.486,18.622-27.52,15.22-31.631C1575.548,5408.373,1541.023,5409.632,1550.739,5426.742Z" fill="#a9453e"/>
    </g>
    <path id="Path_81" data-name="Path 81" d="M1659.409,5534.209a2.779,2.779,0,0,0-.636,1.349,20.144,20.144,0,0,1-2.209,3.342c-1.343,1.1-.179,1.73,1.179,1.022.294-.153.848-.775,1.137-.978a26.775,26.775,0,0,0,3.962,8.506s1.742,2.959,2.734-.545c.663-2.343-.094-3.375.788-6.691s.156-6.768-1.868-8.29l-1.431-2.479-4.734,1.234Z" fill="#fa997b"/>
    <path id="Path_82" data-name="Path 82" d="M1576.209,5474.1s7.242-34.11,64.039,8.142c9.084,6.757,24.248,49.683,24.248,49.683s-2.064,4.106-5.087,2.285c0,0-26.074-31.8-26.73-35.276-.581-3.083-34.86-7.518-42.718-11.358S1576.209,5474.1,1576.209,5474.1Z" fill="#fa997b"/>
    <path id="Path_83" data-name="Path 83" d="M1584.28,5551.1s-44.317,45.679-46.6,59.4,26.9,92.641,26.9,92.641l7.22-8.645s3.468-42.36-2.429-73.325c-1.108-5.813,51.619-28.567,54.559-38.857S1601.474,5547.33,1584.28,5551.1Z" fill="#2c3480"/>
    <path id="Path_84" data-name="Path 84" d="M1613.632,5547.041s-10.951,70.09-8.991,79.89,38.679,77.093,38.679,77.093l5.237-9.524s-2.757-47.627-14.065-63.444c-8.264-11.558,24.653-64.417,4.075-84.015S1613.632,5547.041,1613.632,5547.041Z" fill="#2c3480"/>
    <g id="Group_34" data-name="Group 34">
      <path id="Path_85" data-name="Path 85" d="M1571.768,5713.047h-5.478c-1.836-.289-3.191-.82-5.072-1.066-2.859-.375-4.174.8-4.436,1.066-.035.035-.051.055-.051.055H1533.46c-.586-.836-.024-2.772.527-4.2a3.312,3.312,0,0,1,2.178-1.991c2.468-.714,7.334-1.351,11.789-5.384,2.506-2.265,12.1-8.329,12.1-8.329l.051-.011c.21,0,1.214.312,5.579,4,2.257,1.9,6.1-2.687,6.1-2.687a5.492,5.492,0,0,1,1.261,1.711,5.774,5.774,0,0,1,.5,3.572c-.347,2.1.773,5.994,1.667,8.629.543,1.6,1,2.73,1,2.73S1576.481,5712.458,1571.768,5713.047Z" fill="#ff912b"/>
      <path id="Path_86" data-name="Path 86" d="M1573.052,5696.211c-1.308.921-4.068,2.737-5.9,2.975-2.471.324-7.094-5.986-7.094-5.986l.051-.011c.21,0,1.214.312,5.579,4,2.257,1.9,6.1-2.687,6.1-2.687A5.492,5.492,0,0,1,1573.052,5696.211Z" fill="#3d6aa9"/>
      <path id="Path_87" data-name="Path 87" d="M1571.768,5713.047h-5.478c-1.836-.289-3.191-.82-5.072-1.066-2.859-.375-4.174.8-4.436,1.066-.035.035-.051.055-.051.055H1533.46c-.586-.836-.024-2.772.527-4.2.707-.628.906,2.73,1.3,3.265s18.984.195,20.058-.586,4.3-2.148,8.785-1.074c3.909.934,9.668-1.46,11.093-2.1.543,1.6,1,2.73,1,2.73S1576.481,5712.458,1571.768,5713.047Z" fill="#3d6aa9"/>
    </g>
    <g id="Group_35" data-name="Group 35">
      <path id="Path_88" data-name="Path 88" d="M1648.533,5713.047h-5.478c-1.835-.289-3.19-.82-5.072-1.066-2.858-.375-4.174.8-4.436,1.066-.035.035-.051.055-.051.055h-23.271c-.586-.836-.023-2.772.527-4.2a3.312,3.312,0,0,1,2.179-1.991c2.468-.714,7.333-1.351,11.788-5.384,2.507-2.265,12.1-8.329,12.1-8.329l.051-.011c.211,0,1.214.312,5.58,4,2.257,1.9,6.1-2.687,6.1-2.687a5.49,5.49,0,0,1,1.261,1.711,5.781,5.781,0,0,1,.5,3.572c-.348,2.1.773,5.994,1.667,8.629.543,1.6,1,2.73,1,2.73S1653.246,5712.458,1648.533,5713.047Z" fill="#ff912b"/>
      <path id="Path_89" data-name="Path 89" d="M1649.818,5696.211c-1.308.921-4.069,2.737-5.9,2.975-2.472.324-7.095-5.986-7.095-5.986l.051-.011c.211,0,1.214.312,5.58,4,2.257,1.9,6.1-2.687,6.1-2.687A5.49,5.49,0,0,1,1649.818,5696.211Z" fill="#3d6aa9"/>
      <path id="Path_90" data-name="Path 90" d="M1648.533,5713.047h-5.478c-1.835-.289-3.19-.82-5.072-1.066-2.858-.375-4.174.8-4.436,1.066-.035.035-.051.055-.051.055h-23.271c-.586-.836-.023-2.772.527-4.2.707-.628.906,2.73,1.3,3.265s18.984.195,20.057-.586,4.3-2.148,8.786-1.074c3.908.934,9.668-1.46,11.093-2.1.543,1.6,1,2.73,1,2.73S1653.246,5712.458,1648.533,5713.047Z" fill="#3d6aa9"/>
    </g>
    <g id="Group_41" data-name="Group 41">
      <path id="Path_91" data-name="Path 91" d="M1502.992,5576.1a23.015,23.015,0,0,1-7.51,17.033c-.1.09-.2.178-.3.265a22.96,22.96,0,0,1-13.318,5.691c-.258.022-.516.039-.776.051q-.582.031-1.172.031a23.048,23.048,0,0,1-18.915-9.858c-.144-.205-.285-.414-.422-.624a23.116,23.116,0,0,1-1.685-22.112c.107-.235.219-.469.333-.7a23.174,23.174,0,0,1,7.354-8.606c.115-.083.231-.165.349-.244a23.125,23.125,0,0,1,15.636-3.848c.245.027.487.06.728.095a23.024,23.024,0,0,1,13.671,7.281c.192.211.38.423.562.638a22.99,22.99,0,0,1,4.616,8.7c.066.234.129.472.186.709A23.1,23.1,0,0,1,1502.992,5576.1Z" fill="#ff912b"/>
      <g id="Group_40" data-name="Group 40">
        <g id="Group_36" data-name="Group 36">
          <path id="Path_92" data-name="Path 92" d="M1476.38,5571.947c-.175-.16-.351-.318-.531-.47a23.3,23.3,0,0,0-15.22-5.637c-.47,0-.935.013-1.4.042-.114.231-.226.465-.333.7.57-.042,1.149-.064,1.731-.064a22.626,22.626,0,0,1,14.706,5.412c.18.152.356.307.531.466a22.7,22.7,0,0,1,5.226,26.749c.26-.012.518-.029.776-.051a23.385,23.385,0,0,0-5.488-27.147Z" fill="#3b2314"/>
        </g>
        <g id="Group_37" data-name="Group 37">
          <path id="Path_93" data-name="Path 93" d="M1502.147,5569.9a22.688,22.688,0,0,1-12.888-6.382c-.181-.18-.361-.363-.538-.55a22.729,22.729,0,0,1-5.423-9.688c-.241-.035-.483-.068-.728-.095a23.4,23.4,0,0,0,5.5,10.079q.257.279.526.549a23.341,23.341,0,0,0,13.735,6.8C1502.276,5570.371,1502.213,5570.133,1502.147,5569.9Z" fill="#3b2314"/>
        </g>
        <g id="Group_38" data-name="Group 38">
          <path id="Path_94" data-name="Path 94" d="M1494.85,5593.462a50.32,50.32,0,0,0-6.562-17.749,44.584,44.584,0,0,0-9.506-10.973,39.752,39.752,0,0,0-12.295-7.14l.2-.649a40.417,40.417,0,0,1,12.508,7.247,45.26,45.26,0,0,1,9.665,11.143,50.987,50.987,0,0,1,6.662,18Z" fill="#3b2314"/>
        </g>
        <g id="Group_39" data-name="Group 39">
          <path id="Path_95" data-name="Path 95" d="M1497.531,5561.2a29.1,29.1,0,0,0-8.272,2.319c-.219.095-.439.194-.661.295a44.149,44.149,0,0,0-6.087,3.432c-.19.126-.382.255-.574.387a61.813,61.813,0,0,0-5.557,4.316c-.17.145-.343.3-.514.449q-1.665,1.469-3.4,3.188a98.352,98.352,0,0,0-11.463,13.734c-.144-.205-.285-.414-.422-.624a99.771,99.771,0,0,1,11.381-13.6q1.685-1.671,3.371-3.165c.171-.153.343-.3.514-.453a63.776,63.776,0,0,1,5.578-4.353c.19-.134.38-.263.57-.392q1.148-.771,2.283-1.451a42.169,42.169,0,0,1,3.792-2.018c.217-.1.432-.2.649-.3a30.057,30.057,0,0,1,8.248-2.407C1497.161,5560.771,1497.349,5560.983,1497.531,5561.2Z" fill="#3b2314"/>
        </g>
      </g>
    </g>
    <path id="Path_96" data-name="Path 96" d="M1486.373,5547.547a3.536,3.536,0,0,0-1.755-.717,25.673,25.673,0,0,1-4.388-2.586c-1.49-1.633-2.209-.113-1.221,1.564.214.363,1.041,1.026,1.317,1.379-2.526.69-5.961,2.281-10.54,5.59,0,0-3.643,2.408.872,3.436,3.018.688,4.279-.34,8.548.561s8.6-.247,10.4-2.918l3.053-1.979-1.879-5.931Z" fill="#fa997b"/>
    <path id="Path_97" data-name="Path 97" d="M1633.646,5620.194l-29.24,5.172-1.055-29.628,1.055-20.255,36.175-28.444a46.046,46.046,0,0,1,7.975,19.094C1650.254,5577.108,1633.646,5620.194,1633.646,5620.194Z" fill="#2c3480"/>
    <path id="Path_98" data-name="Path 98" d="M1629.158,5585.858s-14.682,16.043-25.129,26.636l-1.5-18.143Z" fill="#20295b"/>
    <path id="Path_99" data-name="Path 99" d="M1588.339,5545.065s-37.56,44.774-46.1,55.769c0,0,9.132,16.073,27.119,20.341,0,0,59.957-31.664,66.054-41.524s5.164-32.61,5.164-32.61Z" fill="#2c3480"/>
    <path id="Path_100" data-name="Path 100" d="M1554.573,5477.918s18.346-21.608,41.516-17.086c8.89,1.736,60.363,60.218,56.7,110.691,0,0-23.78,18.719-76.585-11.872,0,0-.368-7.008-1.74-22.1s-18.553-19.075-23.126-32.119S1547.732,5481.119,1554.573,5477.918Z" fill="#efc800"/>
    <path id="Path_101" data-name="Path 101" d="M1561.087,5473.807a5.638,5.638,0,0,1,4.086.214c7.147,3.206,28.6,17.592-19.02,62.514-8.893,8.391-56.543,17.321-56.543,17.321s-1.343-5.012,1.161-7.885c0,0,35.236-20.578,39.054-20.622,3.388-.038,14.546-35.658,20.106-43.293A22.761,22.761,0,0,1,1561.087,5473.807Z" fill="#fa997b"/>
    <path id="Path_102" data-name="Path 102" d="M1562.144,5470.889s-9.651,2.972-17.78,15.573-13.414,32.239-13.414,32.239,14.341,9.629,30.137,9.426c0,0,28.6-24.39,27.38-33.129S1575.615,5464.535,1562.144,5470.889Z" fill="#efc800"/>
    <path id="Path_103" data-name="Path 103" d="M1566.688,5523.125s7.232-16.561,4.953-22.55c9.367,13.069,2.828,36.978,2.828,36.978S1572.773,5528.644,1566.688,5523.125Z" fill="#a0840d"/>
    <path id="Path_104" data-name="Path 104" d="M1587.244,5460.3s29.423-2.087,48.172,14.681c0,0-.457,22.56-16.157,25.456S1587.244,5460.3,1587.244,5460.3Z" fill="#efc800"/>
  </g>
  <g id="Group_61" data-name="Group 61" transform="translate(-1078.184 -5297.685)">
    <path id="Path_105" data-name="Path 105" d="M1360.005,5710.257h-11.19l2.563-338.395h5.562Z" fill="#603813"/>
    <g id="Group_60" data-name="Group 60">
      <rect id="Rectangle_10" data-name="Rectangle 10" width="211.729" height="142.493" transform="translate(1248.546 5297.685)" fill="#e2995c"/>
      <g id="Group_43" data-name="Group 43">
        <path id="Path_106" data-name="Path 106" d="M1452.352,5431.712H1256.569V5303.826h195.783Zm-193.922-1.86h192.062V5305.686H1258.43Z" fill="#fff"/>
      </g>
      <g id="Group_44" data-name="Group 44">
        <path id="Path_107" data-name="Path 107" d="M1391.381,5387.068h-73.942V5339.98h73.942Zm-72.081-1.86h70.221V5341.84H1319.3Z" fill="#fff"/>
      </g>
      <g id="Group_59" data-name="Group 59">
        <g id="Group_58" data-name="Group 58">
          <g id="Group_45" data-name="Group 45">
            <rect id="Rectangle_11" data-name="Rectangle 11" width="1.86" height="63.991" transform="matrix(0.987, -0.16, 0.16, 0.987, 1322.617, 5393.96)" fill="#fff"/>
          </g>
          <g id="Group_46" data-name="Group 46">
            <rect id="Rectangle_12" data-name="Rectangle 12" width="63.72" height="1.86" transform="translate(1377.951 5456.857) rotate(-82.448)" fill="#fff"/>
          </g>
          <g id="Group_47" data-name="Group 47">
            <rect id="Rectangle_13" data-name="Rectangle 13" width="1.86" height="63.604" transform="matrix(0.994, -0.106, 0.106, 0.994, 1332.842, 5392.748)" fill="#fff"/>
          </g>
          <g id="Group_48" data-name="Group 48">
            <rect id="Rectangle_14" data-name="Rectangle 14" width="1.86" height="64.176" transform="translate(1353.48 5391.719)" fill="#fff"/>
          </g>
          <g id="Group_49" data-name="Group 49">
            <rect id="Rectangle_15" data-name="Rectangle 15" width="1.86" height="64.236" transform="translate(1343.068 5391.759) rotate(-2.49)" fill="#fff"/>
          </g>
          <g id="Group_50" data-name="Group 50">
            <rect id="Rectangle_16" data-name="Rectangle 16" width="63.493" height="1.86" transform="translate(1361.2 5455.813) rotate(-84.958)" fill="#fff"/>
          </g>
          <g id="Group_51" data-name="Group 51">
            <rect id="Rectangle_17" data-name="Rectangle 17" width="63.828" height="1.86" transform="translate(1369.351 5455.769) rotate(-82.254)" fill="#fff"/>
          </g>
          <g id="Group_52" data-name="Group 52">
            <rect id="Rectangle_18" data-name="Rectangle 18" width="48.561" height="1.86" transform="translate(1331.868 5441.789)" fill="#fff"/>
          </g>
          <g id="Group_53" data-name="Group 53">
            <rect id="Rectangle_19" data-name="Rectangle 19" width="48.561" height="1.86" transform="translate(1331.868 5449.771)" fill="#fff"/>
          </g>
          <g id="Group_54" data-name="Group 54">
            <rect id="Rectangle_20" data-name="Rectangle 20" width="51.931" height="1.86" transform="translate(1329.989 5433.076)" fill="#fff"/>
          </g>
          <g id="Group_55" data-name="Group 55">
            <rect id="Rectangle_21" data-name="Rectangle 21" width="55.299" height="1.86" transform="translate(1328.111 5421.822)" fill="#fff"/>
          </g>
          <g id="Group_56" data-name="Group 56">
            <rect id="Rectangle_22" data-name="Rectangle 22" width="58.739" height="1.86" transform="translate(1326.163 5410.568)" fill="#fff"/>
          </g>
          <g id="Group_57" data-name="Group 57">
            <rect id="Rectangle_23" data-name="Rectangle 23" width="61.95" height="1.86" transform="translate(1324.444 5399.314)" fill="#fff"/>
          </g>
        </g>
        <path id="Path_108" data-name="Path 108" d="M1388.358,5393.812h-67.9a2.092,2.092,0,0,1-2.092-2.093h0a2.092,2.092,0,0,1,2.092-2.093h67.9a2.093,2.093,0,0,1,2.093,2.093h0A2.093,2.093,0,0,1,1388.358,5393.812Z" fill="#25468f"/>
      </g>
    </g>
    <rect id="Rectangle_24" data-name="Rectangle 24" width="48.103" height="16.941" transform="translate(1330.359 5693.425)" fill="#404041"/>
  </g>
  <path id="Path_109" data-name="Path 109" d="M1299.007,5710.366l-135.61-.04h-6.68c-.15-.35-.28-.69-.41-1.04a93.822,93.822,0,0,1-3.85-12.18c-.12-.51-.24-1.01-.35-1.52-.35-1.62-.64-3.21-.87-4.76q-.21-1.425-.36-2.82a63.034,63.034,0,0,1-.35-6.47c0-.78.02-1.55.05-2.32q.045-1.23.15-2.43a56.723,56.723,0,0,1,.92-6.53c.11-.52.22-1.04.34-1.55.3-1.28.63-2.53,1-3.77a66.412,66.412,0,0,1,2.25-6.26c.25-.61.51-1.22.78-1.82.17-.4.35-.79.53-1.18.06-.13.12-.26.18-.38,1-2.13,2.08-4.21,3.23-6.27.57-1.04,1.17-2.07,1.77-3.1.13-.21.25-.42.37-.63l.25-.41,1.13-1.86c1.46-2.38,2.96-4.75,4.47-7.13.21-.34.43-.67.64-1.01,1.88-2.96,3.76-5.96,5.57-9.04.21-.35.41-.7.61-1.05q.54-.915,1.05-1.86c7.67,9.45,11.39,20.38,24.95,19.62,19.14-1.07,49.29,4.19,48.33,24.77C1248.147,5687.7,1297.127,5686.586,1299.007,5710.366Z" transform="translate(-1078.184 -5297.685)" fill="url(#linear-gradient)"/>
  <path id="Path_110" data-name="Path 110" d="M1179.458,5642.642s1.373,8.967,13.733,7.271,42.413,3.231,40.958,12.683-2.1,15.511,12.2,20.115,16.076,11.714,16.076,11.714" transform="translate(-1078.184 -5297.685)" fill="none" stroke="#006838" stroke-linecap="round" stroke-linejoin="round" stroke-width="2.747"/>
  <path id="Path_111" data-name="Path 111" d="M1609.154,5629.449" transform="translate(-1078.184 -5297.685)" fill="#ff912b"/>
  <path id="Path_112" data-name="Path 112" d="M1732.763,5710.369h-48.824c-2.616-2.219,1.811-7.259,6.436-7.6a28.492,28.492,0,0,1,7.452.882c.672-8.924,4.509-49.04,18.969-47.428,16.259,1.8,0,17.666-4.6,27.057a223.544,223.544,0,0,0-8.638,21.638c1.32.286,2.687.566,4.082.823,2.156-6.616,10.174-28.873,20.371-27.577,11.972,1.519,7.16,10.442-1.326,15.74-6.225,3.9-13.87,9.431-17.5,12.106a51.887,51.887,0,0,0,9.549.765C1727.1,5706.579,1731.18,5709.043,1732.763,5710.369Z" transform="translate(-1078.184 -5297.685)" fill="url(#linear-gradient)"/>
</svg>
