<svg xmlns="http://www.w3.org/2000/svg" width="377.617" height="443.216" viewBox="0 0 377.617 443.216">
  <g id="android" transform="translate(247.7 -344.928)">
    <path id="Path_398" data-name="Path 398" d="M-43.319,627.435H-201.946A41.977,41.977,0,0,1-243.8,585.581V426.954A41.977,41.977,0,0,1-201.946,385.1H-43.319A41.977,41.977,0,0,1-1.465,426.954V585.581A41.977,41.977,0,0,1-43.319,627.435Z" transform="translate(12.423 133.98)" fill="#b8d2ae"/>
    <g id="Group_315" data-name="Group 315" transform="translate(-235.852 352.847)">
      <g id="Group_262" data-name="Group 262" transform="translate(70.047 0)">
        <path id="Path_399" data-name="Path 399" d="M-64.158,389.763-47,360.884a9.561,9.561,0,0,0-3.349-12.975,9.121,9.121,0,0,0-12.974,3.349L-81.736,382.23a110.342,110.342,0,0,0-71.571,0l-18.416-30.972a9.56,9.56,0,0,0-12.975-3.349c-4.6,2.512-5.86,8.371-3.348,12.975l17.16,28.879A111.985,111.985,0,0,0-229.9,488.539a9.735,9.735,0,0,0,9.627,9.626h205.5a9.471,9.471,0,0,0,9.627-9.626A111.984,111.984,0,0,0-64.158,389.763Zm-146.07,89.149c4.6-47.295,45.2-83.708,92.916-83.708s87.893,36.832,92.916,83.708Z" transform="translate(229.9 -346.452)" fill="#fff" stroke="#707070" stroke-width="1"/>
      </g>
      <g id="Group_265" data-name="Group 265" transform="translate(70.465 166.094)">
        <path id="Path_402" data-name="Path 402" d="M-7.973,386.23a9.877,9.877,0,0,0-6.7-2.93h-205.5a9.472,9.472,0,0,0-9.627,9.627V541.089a37.512,37.512,0,0,0,37.669,37.668h6.7v41.854A31.619,31.619,0,0,0-154.044,652a31.348,31.348,0,0,0,31.39-31.39V578.758h10.463v41.854A31.619,31.619,0,0,0-80.8,652a31.618,31.618,0,0,0,31.39-31.39V578.758h6.278A37.512,37.512,0,0,0-5.462,541.089V392.926A9.506,9.506,0,0,0-7.973,386.23Zm-60.27,182.9v51.48A12.592,12.592,0,0,1-80.8,633.168a12.332,12.332,0,0,1-12.556-12.557v-51.48a9.736,9.736,0,0,0-9.627-9.626h-29.3a9.736,9.736,0,0,0-9.627,9.626v51.48a12.332,12.332,0,0,1-12.556,12.557,12.592,12.592,0,0,1-12.556-12.557v-51.48a9.735,9.735,0,0,0-9.627-9.626h-15.9a18.756,18.756,0,0,1-18.834-18.834V402.134H-24.715V541.089A18.756,18.756,0,0,1-43.55,559.924h-15.9C-64.058,559.924-68.243,564.11-68.243,569.132Z" transform="translate(229.8 -383.3)" fill="#fff" stroke="#707070" stroke-width="1"/>
      </g>
      <g id="Group_266" data-name="Group 266" transform="translate(310.021 166.094)">
        <path id="Path_403" data-name="Path 403" d="M-147.776,383.3A27.6,27.6,0,0,0-175.4,410.923V513.466a27.6,27.6,0,0,0,27.624,27.624,27.6,27.6,0,0,0,27.624-27.624V411.342A27.69,27.69,0,0,0-147.776,383.3Zm-8.789,28.042a8.841,8.841,0,0,1,8.789-8.789,8.841,8.841,0,0,1,8.789,8.789V513.885a8.841,8.841,0,0,1-8.789,8.789,8.84,8.84,0,0,1-8.789-8.789Z" transform="translate(175.4 -383.3)" fill="#fff" stroke="#707070" stroke-width="1"/>
      </g>
      <g id="Group_267" data-name="Group 267" transform="translate(0 166.094)">
        <path id="Path_404" data-name="Path 404" d="M-216.176,383.3A27.6,27.6,0,0,0-243.8,410.923V513.466a27.6,27.6,0,0,0,27.623,27.624c15.486,0,28.042-12.556,28.042-27.624V411.342C-188.553,395.856-200.69,383.3-216.176,383.3Zm-8.789,28.042a8.841,8.841,0,0,1,8.789-8.789,8.84,8.84,0,0,1,8.789,8.789V513.885a8.84,8.84,0,0,1-8.789,8.789,8.84,8.84,0,0,1-8.789-8.789Z" transform="translate(243.8 -383.3)" fill="#fff" stroke="#707070" stroke-width="1"/>
      </g>
    </g>
    <g id="Group_268" data-name="Group 268" transform="translate(-243.247 345.452)">
      <g id="Group_262-2" data-name="Group 262" transform="translate(70.047 0)">
        <path id="Path_399-2" data-name="Path 399" d="M-64.158,389.763-47,360.884a9.561,9.561,0,0,0-3.349-12.975,9.121,9.121,0,0,0-12.974,3.349L-81.736,382.23a110.342,110.342,0,0,0-71.571,0l-18.416-30.972a9.56,9.56,0,0,0-12.975-3.349c-4.6,2.512-5.86,8.371-3.348,12.975l17.16,28.879A111.985,111.985,0,0,0-229.9,488.539a9.735,9.735,0,0,0,9.627,9.626h205.5a9.471,9.471,0,0,0,9.627-9.626A111.984,111.984,0,0,0-64.158,389.763Zm-146.07,89.149c4.6-47.295,45.2-83.708,92.916-83.708s87.893,36.832,92.916,83.708Z" transform="translate(229.9 -346.452)" fill="#373f54" stroke="#373f54" stroke-width="1"/>
      </g>
      <g id="Group_263" data-name="Group 263" transform="translate(217.373 95.361)">
        <path id="Path_400" data-name="Path 400" d="M-171.262,373.515v9.626a7.054,7.054,0,0,1-7.115,7.115H-188c-3.767,0-6.7-2.929-6.7-7.115v-9.626A6.974,6.974,0,0,1-188,366.4h9.627a7.723,7.723,0,0,1,5.022,2.092A7.722,7.722,0,0,1-171.262,373.515Z" transform="translate(194.7 -366.4)" fill="#373f54" stroke="#373f54" stroke-width="1"/>
      </g>
      <g id="Group_264" data-name="Group 264" transform="translate(124.457 95.361)">
        <path id="Path_401" data-name="Path 401" d="M-193.462,373.515v9.626a6.974,6.974,0,0,1-6.7,7.115h-9.626a7.054,7.054,0,0,1-7.115-7.115v-9.626a7.054,7.054,0,0,1,7.115-7.115h9.626A6.974,6.974,0,0,1-193.462,373.515Z" transform="translate(216.9 -366.4)" fill="#373f54" stroke="#373f54" stroke-width="1"/>
      </g>
      <g id="Group_265-2" data-name="Group 265" transform="translate(70.465 166.094)">
        <path id="Path_402-2" data-name="Path 402" d="M-7.973,386.23a9.877,9.877,0,0,0-6.7-2.93h-205.5a9.472,9.472,0,0,0-9.627,9.627V541.089a37.512,37.512,0,0,0,37.669,37.668h6.7v41.854A31.619,31.619,0,0,0-154.044,652a31.348,31.348,0,0,0,31.39-31.39V578.758h10.463v41.854A31.619,31.619,0,0,0-80.8,652a31.618,31.618,0,0,0,31.39-31.39V578.758h6.278A37.512,37.512,0,0,0-5.462,541.089V392.926A9.506,9.506,0,0,0-7.973,386.23Zm-60.27,182.9v51.48A12.592,12.592,0,0,1-80.8,633.168a12.332,12.332,0,0,1-12.556-12.557v-51.48a9.736,9.736,0,0,0-9.627-9.626h-29.3a9.736,9.736,0,0,0-9.627,9.626v51.48a12.332,12.332,0,0,1-12.556,12.557,12.592,12.592,0,0,1-12.556-12.557v-51.48a9.735,9.735,0,0,0-9.627-9.626h-15.9a18.756,18.756,0,0,1-18.834-18.834V402.134H-24.715V541.089A18.756,18.756,0,0,1-43.55,559.924h-15.9C-64.058,559.924-68.243,564.11-68.243,569.132Z" transform="translate(229.8 -383.3)" fill="#373f54" stroke="#373f54" stroke-width="1"/>
      </g>
      <g id="Group_266-2" data-name="Group 266" transform="translate(310.021 166.094)">
        <path id="Path_403-2" data-name="Path 403" d="M-147.776,383.3A27.6,27.6,0,0,0-175.4,410.923V513.466a27.6,27.6,0,0,0,27.624,27.624,27.6,27.6,0,0,0,27.624-27.624V411.342A27.69,27.69,0,0,0-147.776,383.3Zm-8.789,28.042a8.841,8.841,0,0,1,8.789-8.789,8.841,8.841,0,0,1,8.789,8.789V513.885a8.841,8.841,0,0,1-8.789,8.789,8.84,8.84,0,0,1-8.789-8.789Z" transform="translate(175.4 -383.3)" fill="#373f54" stroke="#373f54" stroke-width="1"/>
      </g>
      <g id="Group_267-2" data-name="Group 267" transform="translate(0 166.094)">
        <path id="Path_404-2" data-name="Path 404" d="M-216.176,383.3A27.6,27.6,0,0,0-243.8,410.923V513.466a27.6,27.6,0,0,0,27.623,27.624c15.486,0,28.042-12.556,28.042-27.624V411.342C-188.553,395.856-200.69,383.3-216.176,383.3Zm-8.789,28.042a8.841,8.841,0,0,1,8.789-8.789,8.84,8.84,0,0,1,8.789,8.789V513.885a8.84,8.84,0,0,1-8.789,8.789,8.84,8.84,0,0,1-8.789-8.789Z" transform="translate(243.8 -383.3)" fill="#373f54" stroke="#373f54" stroke-width="1"/>
      </g>
    </g>
    <circle id="Ellipse_136" data-name="Ellipse 136" cx="29.298" cy="29.298" r="29.298" transform="translate(-247.7 405.655)" fill="#77b65d"/>
    <circle id="Ellipse_137" data-name="Ellipse 137" cx="7.952" cy="7.952" r="7.952" transform="translate(-247.7 478.063)" fill="#b8d2ae"/>
    <circle id="Ellipse_138" data-name="Ellipse 138" cx="28.042" cy="28.042" r="28.042" transform="translate(61.45 705.33)" fill="#77b65d"/>
  </g>
</svg>
