<svg xmlns="http://www.w3.org/2000/svg" width="394.769" height="426.459" viewBox="0 0 394.769 426.459">
  <g id="apple" transform="translate(244 -550.499)">
    <path id="Path_408" data-name="Path 408" d="M-113.173,833.4c-7.576,3.367-13.468,5.893-22.306,5.893h-.421c-22.306,0-41.245-24.41-55.133-45.874-28.2-43.349-40.824-94.273-33.669-137.2q3.788-21.466,12.626-35.353c16.835-25.671,42.928-41.665,68.6-41.665,13.468,0,23.989,3.787,35.353,8,10.522,3.787,21.464,7.575,34.511,7.575,11.784,0,21.885-3.788,31.144-7.155,10.943-4.208,21.885-8.417,37.878-8.417,19.36,0,39.14,9.258,55.554,25.252l.842.842-.842.842a85.379,85.379,0,0,0-30.3,40.4A89.382,89.382,0,0,0,63.589,755.963l.842.421-.421.842a248.369,248.369,0,0,1-18.939,34.089c-14.73,22.307-34.511,48.4-56.4,48.4h-.421c-8.838,0-14.31-2.525-21.885-5.892-8.838-4.21-20.2-9.26-39.14-9.26h-.421C-92.55,824.143-103.913,829.193-113.173,833.4Z" transform="translate(55.614 91.236)" opacity="0.4"/>
    <g id="Apple-2" data-name="Apple" transform="translate(-222.536 550.765)">
      <g id="_Group_" transform="translate(10 3)">
        <g id="_Path_" transform="translate(174.642)">
          <path id="Path_409" data-name="Path 409" d="M-186.866,659.073a12.717,12.717,0,0,1-6.734-2.1,10.365,10.365,0,0,1-3.788-8,98.452,98.452,0,0,1,78.28-98.061,11.248,11.248,0,0,1,8.838,2.1,10.362,10.362,0,0,1,3.788,8,98.454,98.454,0,0,1-78.28,98.061Zm58.079-83.33a76.484,76.484,0,0,0-46.716,58.5A76.485,76.485,0,0,0-128.788,575.743Z" transform="translate(197.404 -550.765)" fill="#fff" stroke="#707070" stroke-width="1"/>
        </g>
        <g id="_Path_2" transform="translate(0 104.521)">
          <path id="Path_410" data-name="Path 410" d="M24.98,893.772c-23.989,0-37.457-5.471-49.661-10.522-9.68-3.788-17.255-7.155-29.039-7.155s-19.36,2.946-29.04,7.155c-12.2,5.051-25.672,10.522-49.661,10.522-39.14,0-106.478-95.957-106.478-194.018,0-91.747,57.237-124.154,106.478-124.154,17.256,0,29.881,4.629,41.665,9.259,11.363,4.209,21.885,8.418,37.036,8.418s25.673-4.208,37.036-8.418C-4.48,580.229,8.146,575.6,25.4,575.6a106.345,106.345,0,0,1,77.018,33.248c2.1,2.525,3.367,5.47,2.525,8.838a12.261,12.261,0,0,1-5.05,7.576,76.036,76.036,0,0,0-38.3,65.654,72.584,72.584,0,0,0,45.873,68.6,10.491,10.491,0,0,1,5.892,13.047C94.423,831.905,56.966,893.772,24.98,893.772Zm-78.7-38.3c15.993,0,26.514,4.208,36.615,8.417,11.363,4.629,21.885,8.838,41.665,8.838,13.047,0,44.612-37.878,65.655-97.64-31.144-16.414-50.083-48.4-50.083-84.172h0a97.808,97.808,0,0,1,37.457-75.756,83.929,83.929,0,0,0-52.608-18.1h-.421c-13.468,0-23.147,3.788-34.09,8-11.784,4.629-25.252,9.679-44.612,9.679s-32.406-5.05-44.611-9.679c-10.943-4.208-20.623-8-34.09-8-14.309,0-85.434,5.05-85.434,103.111,0,95.114,64.812,172.974,85.434,172.974,19.781,0,30.3-4.208,41.665-8.838C-80.235,859.682-69.713,855.474-53.721,855.474Z" transform="translate(238.9 -575.6)" fill="#fff" stroke="#707070" stroke-width="1"/>
        </g>
      </g>
      <g id="_Group_2" data-name="_Group_" transform="translate(0 0)">
        <g id="_Path_2-2" data-name="_Path_" transform="translate(174.642)">
          <path id="Path_409-2" data-name="Path 409" d="M-186.866,659.073a12.717,12.717,0,0,1-6.734-2.1,10.365,10.365,0,0,1-3.788-8,98.452,98.452,0,0,1,78.28-98.061,11.248,11.248,0,0,1,8.838,2.1,10.362,10.362,0,0,1,3.788,8,98.454,98.454,0,0,1-78.28,98.061Zm58.079-83.33a76.484,76.484,0,0,0-46.716,58.5A76.485,76.485,0,0,0-128.788,575.743Z" transform="translate(197.404 -550.765)" fill="#373f54" stroke="#373f54" stroke-width="0.5"/>
        </g>
        <g id="_Path_2-3" data-name="_Path_2" transform="translate(0 104.521)">
          <path id="Path_410-2" data-name="Path 410" d="M24.98,893.772c-23.989,0-37.457-5.471-49.661-10.522-9.68-3.788-17.255-7.155-29.039-7.155s-19.36,2.946-29.04,7.155c-12.2,5.051-25.672,10.522-49.661,10.522-39.14,0-106.478-95.957-106.478-194.018,0-91.747,57.237-124.154,106.478-124.154,17.256,0,29.881,4.629,41.665,9.259,11.363,4.209,21.885,8.418,37.036,8.418s25.673-4.208,37.036-8.418C-4.48,580.229,8.146,575.6,25.4,575.6a106.345,106.345,0,0,1,77.018,33.248c2.1,2.525,3.367,5.47,2.525,8.838a12.261,12.261,0,0,1-5.05,7.576,76.036,76.036,0,0,0-38.3,65.654,72.584,72.584,0,0,0,45.873,68.6,10.491,10.491,0,0,1,5.892,13.047C94.423,831.905,56.966,893.772,24.98,893.772Zm-78.7-38.3c15.993,0,26.514,4.208,36.615,8.417,11.363,4.629,21.885,8.838,41.665,8.838,13.047,0,44.612-37.878,65.655-97.64-31.144-16.414-50.083-48.4-50.083-84.172h0a97.808,97.808,0,0,1,37.457-75.756,83.929,83.929,0,0,0-52.608-18.1h-.421c-13.468,0-23.147,3.788-34.09,8-11.784,4.629-25.252,9.679-44.612,9.679s-32.406-5.05-44.611-9.679c-10.943-4.208-20.623-8-34.09-8-14.309,0-85.434,5.05-85.434,103.111,0,95.114,64.812,172.974,85.434,172.974,19.781,0,30.3-4.208,41.665-8.838C-80.235,859.682-69.713,855.474-53.721,855.474Z" transform="translate(238.9 -575.6)" fill="#373f54" stroke="#373f54" stroke-width="0.5"/>
        </g>
      </g>
    </g>
    <circle id="Ellipse_142" data-name="Ellipse 142" cx="33.669" cy="33.669" r="33.669" transform="translate(-244 591.736)" fill="#373f54"/>
    <circle id="Ellipse_143" data-name="Ellipse 143" cx="13.047" cy="13.047" r="13.047" transform="translate(-162.774 559.329)" fill="#373f54"/>
    <circle id="Ellipse_144" data-name="Ellipse 144" cx="20.622" cy="20.622" r="20.622" transform="translate(109.524 930.529)" fill="#373f54"/>
  </g>
</svg>
