<svg xmlns="http://www.w3.org/2000/svg" width="426.386" height="435.439" viewBox="0 0 426.386 435.439">
  <g id="codeigniter" transform="translate(239.6 -547.5)">
    <path id="Path_413" data-name="Path 413" d="M-23.47,694.245c.931,24.205-29.326,33.981-42.36,15.826-16.757-23.739.466-48.875,2.793-73.547,2.327-23.275-6.982-45.617-20.947-63.307-3.724-4.654-11.637-2.327-12.1,4.191-1.4,16.757-12.1,34.446-20.947,45.617-12.568,15.361-27.929,28.395-41.428,42.359-14.9,15.361-29.326,31.188-41.428,48.876-24.206,35.376-39.567,80.064-28.395,124.75a110.492,110.492,0,0,0,48.411,66.564,6.772,6.772,0,0,0,9.31-9.309c-6.517-9.774-10.706-21.413-10.706-32.584,0-20.016,8.844-38.17,21.412-52.135,3.724-4.189,11.172-1.863,11.637,3.724.465,3.725,1.4,7.448,4.189,10.707a23.292,23.292,0,0,0,23.74,9.774c20.947-5.12,21.878-29.791,9.31-44.221-12.1-14.43-23.74-30.722-19.085-51.2a58.358,58.358,0,0,1,4.189-11.637,6.586,6.586,0,0,1,12.1.931c4.189,10.241,13.5,18.62,20.481,24.205,18.619,13.964,39.1,24.67,55.859,40.963,18.154,17.223,31.188,40.5,28.395,67.5a62.833,62.833,0,0,1-11.172,30.722c-4.189,6.051,3.258,13.033,9.31,9.309,32.118-20.482,56.789-54,57.72-95.89.466-51.2-31.188-89.839-70.288-112.182" transform="translate(27.785 48.52)" fill="#f4a196"/>
    <g id="Codeigniter-2" data-name="Codeigniter" transform="translate(-193.758 567.5)">
      <g id="_Group_" transform="translate(0)">
        <path id="_Path_" d="M-20.569,962.939c57.72-12.569,123.354-65.633,123.354-132.2S42.272,725.076,14.808,707.387c.931,13.965-10.241,25.6-23.74,26.533h-2.327a27.467,27.467,0,0,1-26.533-26.533c0-33.514,8.844-27.929,8.844-61.909,0-33.515-3.724-50.272-44.221-87.977,14.43,71.685-47.48,100.545-96.821,149.886S-231.9,800.02-231.9,830.741c0,39.1,11.172,110.786,105.666,132.2-36.774-33.981-44.221-51.67-44.221-70.754a99.587,99.587,0,0,1,44.221-70.754C-143.923,866.118-114.6,874.5-99.7,874.5s26.533-13.034,26.533-35.377c0-21.878-35.377-35.377-35.377-61.909a67.923,67.923,0,0,1,17.688-44.221s-6.051,17.688,17.689,35.376C-49.894,786.054,32.5,827.018,32.5,874.032,32.031,921.511,14.808,937.338-20.569,962.939Z" transform="translate(231.9 -557.5)" fill="none" stroke="#fff" stroke-linecap="round" stroke-linejoin="round" stroke-width="20"/>
      </g>
    </g>
    <g id="Codeigniter-3" data-name="Codeigniter" transform="translate(-203.757 557.5)">
      <g id="_Group_2" data-name="_Group_" transform="translate(0)">
        <path id="_Path_2" data-name="_Path_" d="M-20.569,962.939c57.72-12.569,123.354-65.633,123.354-132.2S42.272,725.076,14.808,707.387c.931,13.965-10.241,25.6-23.74,26.533h-2.327a27.467,27.467,0,0,1-26.533-26.533c0-33.514,8.844-27.929,8.844-61.909,0-33.515-3.724-50.272-44.221-87.977,14.43,71.685-47.48,100.545-96.821,149.886S-231.9,800.02-231.9,830.741c0,39.1,11.172,110.786,105.666,132.2-36.774-33.981-44.221-51.67-44.221-70.754a99.587,99.587,0,0,1,44.221-70.754C-143.923,866.118-114.6,874.5-99.7,874.5s26.533-13.034,26.533-35.377c0-21.878-35.377-35.377-35.377-61.909a67.923,67.923,0,0,1,17.688-44.221s-6.051,17.688,17.689,35.376C-49.894,786.054,32.5,827.018,32.5,874.032,32.031,921.511,14.808,937.338-20.569,962.939Z" transform="translate(231.9 -557.5)" fill="none" stroke="#373f54" stroke-linecap="round" stroke-linejoin="round" stroke-width="20"/>
      </g>
    </g>
    <circle id="Ellipse_150" data-name="Ellipse 150" cx="36.308" cy="36.308" r="36.308" transform="translate(-239.6 583.102)" fill="#f4a196"/>
    <circle id="Ellipse_151" data-name="Ellipse 151" cx="13.034" cy="13.034" r="13.034" transform="translate(-135.796 606.376)" fill="#f4a196"/>
    <circle id="Ellipse_152" data-name="Ellipse 152" cx="27.929" cy="27.929" r="27.929" transform="translate(130.928 918.253)" fill="#f4a196"/>
    <circle id="Ellipse_153" data-name="Ellipse 153" cx="15.361" cy="15.361" r="15.361" transform="translate(55.053 618.944)" fill="#f4a196"/>
  </g>
</svg>
