<svg xmlns="http://www.w3.org/2000/svg" width="450.351" height="387.951" viewBox="0 0 450.351 387.951">
  <g id="dotnet-top" transform="translate(253.079 -557.3)">
    <path id="Path_414" data-name="Path 414" d="M-49.041,593.241c32.833-1.728,47.09,13.823,56.162,41.041,8.64,26.353,15.12,53.57,22.465,80.354.432,2.16,1.728,4.32,3.888,9.072,8.64-27.649,15.985-52.707,23.761-77.763,5.616-18.145,10.8-37.154,28.945-46.658,9.5-5.184,21.169-9.072,31.537-9.5,22.033-.864,44.5.864,66.963,1.3V595.4c-8.209,13.392-16.417,26.784-24.193,40.177-20.3,35.857-39.745,72.578-68.691,102.819-9.5,9.936-21.169,18.145-37.153,17.712H-27.007c-18.577.865-29.809-8.209-36.722-23.328-7.344-16.417-12.96-33.7-18.576-50.546-5.616-17.712-9.5-35.424-14.688-55.3-14.689,15.552-28.945,28.945-35.425,49.25-6.048,19.872-12.96,39.746-22.033,58.321-8.641,17.712-26.353,24.193-45.362,25.057-15.12.431-30.241,0-48.386,0,8.641-23.329,15.12-45.794,24.625-66.963,12.961-29.809,29.809-57.89,54.434-80.355,12.961-12.1,27.649-20.3,46.658-19.44Z" transform="translate(0 77.058)" fill="#9fbcef"/>
    <g id="Dot_Net" transform="translate(-243.079 673.145)">
      <g id="_Group_" transform="translate(0 0)">
        <path id="_Path_" d="M-244.7,746.829h36.721c28.081,0,42.338,0,73.011-91.587l36.721-36.721C-68.006,729.116-55.909,746.4-34.308,746.4H47.775c22.465,0,45.361-15.551,127.876-164.6H102.641c-40.609,0-56.594,69.986-73.011,127.876C1.117,606.856-4.5,581.8-43.38,581.8h-82.083C-162.185,582.663-204.091,609.88-244.7,746.829Z" transform="translate(244.7 -581.8)" fill="none" stroke="#fff" stroke-linecap="round" stroke-linejoin="round" stroke-width="20"/>
      </g>
    </g>
    <circle id="Ellipse_154" data-name="Ellipse 154" cx="31.537" cy="31.537" r="31.537" transform="translate(-216.663 557.3)" fill="#9fbcef"/>
    <circle id="Ellipse_155" data-name="Ellipse 155" cx="16.849" cy="16.849" r="16.849" transform="translate(-128.532 600.934)" fill="#9fbcef"/>
    <circle id="Ellipse_156" data-name="Ellipse 156" cx="36.289" cy="36.289" r="36.289" transform="translate(-118.595 859.279)" fill="#9fbcef"/>
    <circle id="Ellipse_157" data-name="Ellipse 157" cx="16.849" cy="16.849" r="16.849" transform="translate(4.097 901.617)" fill="#9fbcef"/>
    <circle id="Ellipse_158" data-name="Ellipse 158" cx="13.392" cy="13.392" r="13.392" transform="translate(65.876 918.465)" fill="#9fbcef"/>
    <g id="Dot_Net-2" data-name="Dot_Net" transform="translate(-233.079 663.145)">
      <g id="_Group_2" data-name="_Group_" transform="translate(0 0)">
        <path id="_Path_2" data-name="_Path_" d="M-244.7,746.829h36.721c28.081,0,42.338,0,73.011-91.587l36.721-36.721C-68.006,729.116-55.909,746.4-34.308,746.4H47.775c22.465,0,45.361-15.551,127.876-164.6H102.641c-40.609,0-56.594,69.986-73.011,127.876C1.117,606.856-4.5,581.8-43.38,581.8h-82.083C-162.185,582.663-204.091,609.88-244.7,746.829Z" transform="translate(244.7 -581.8)" fill="none" stroke="#373f54" stroke-linecap="round" stroke-linejoin="round" stroke-width="20"/>
      </g>
    </g>
  </g>
</svg>
