<svg xmlns="http://www.w3.org/2000/svg" width="381.769" height="420.079" viewBox="0 0 381.769 420.079">
  <g id="drupal" transform="translate(249.4 -347.098)">
    <g id="Group_274" data-name="Group 274" transform="translate(-216.9 427.154)">
      <path id="Path_415" data-name="Path 415" d="M6.156,467.078c-26.74-32.5-49.778-42.373-66.645-49.778a134.169,134.169,0,0,1-13.164-6.171c-11.108-6.582-22.215-18.1-37.025-35.79l-6.994-8.639-1.234,11.107c-.823,8.639-1.645,17.279-6.994,23.038-11.93,13.576-28.8,21.8-40.316,27.152-36.2,18.1-75.284,59.24-75.284,121.36,0,32.5,12.753,65,34.557,90.095,25.917,29.62,62.12,46.075,102.024,46.075h.823c36.2,0,68.291-11.519,92.974-32.91,28.8-25.1,44.43-60.886,44.43-103.259.411-31.677-8.639-60.474-27.151-82.278" transform="translate(241.5 -366.7)" fill="#9fbcef"/>
    </g>
    <g id="comp_x5F_101-drupal" transform="translate(-229.938 357.286)">
      <g id="Group_279" data-name="Group 279" transform="translate(0 0)">
        <g id="Group_275" data-name="Group 275">
          <path id="Path_416" data-name="Path 416" d="M-68.146,756.677c-98.733,0-178.954-78.576-178.954-175.253,0-109.84,92.151-161.675,92.974-162.087,3.7-2.057,6.994-3.7,10.285-5.348,11.107-5.759,20.981-10.7,34.556-21.392,6.171-4.936,13.165-12.341,15.222-35.791a10.807,10.807,0,0,1,6.994-9.051,10.418,10.418,0,0,1,11.107,3.291c8.228,9.462,26.74,32.5,38.26,39.9,8.639,5.76,17.689,9.874,27.151,13.987a213.027,213.027,0,0,1,28.8,14.811c4.525,2.879,88.86,56.36,88.86,164.555C107.929,682.627,31.822,756.677-68.146,756.677ZM-77.2,380.666c-3.7,11.93-9.873,20.981-18.924,27.975-15.222,11.93-26.329,17.69-37.848,23.861-3.292,1.645-6.582,3.291-10.285,5.348-.823.411-82.278,47.721-82.278,143.986,0,85.158,71.17,154.683,158.385,154.683,88.449,0,155.094-65,155.094-151.392,0-97.5-75.7-145.22-78.987-147.277h0a227.777,227.777,0,0,0-26.329-13.577c-9.873-4.525-19.747-9.05-30.031-15.633C-56.627,402.47-66.912,391.774-77.2,380.666Z" transform="translate(247.1 -347.286)" fill="#fff" stroke="#707070" stroke-width="1"/>
        </g>
        <g id="Group_276" data-name="Group 276" transform="translate(151.384 336.78)">
          <path id="Path_417" data-name="Path 417" d="M-155.991,465.969c-19.747,0-39.082-4.525-51.012-15.632a9.942,9.942,0,0,1-.412-14.4,9.943,9.943,0,0,1,14.4-.411c18.924,17.279,73.638,10.285,87.214-3.291a9.939,9.939,0,0,1,14.4,0,9.94,9.94,0,0,1,0,14.4C-103.333,457.742-130.073,465.969-155.991,465.969Z" transform="translate(210.302 -429.15)" fill="#fff" stroke="#707070" stroke-width="1"/>
        </g>
        <g id="Group_277" data-name="Group 277" transform="translate(55.091 189.289)">
          <path id="Path_418" data-name="Path 418" d="M-177.724,514.255a64.46,64.46,0,0,1-35.379-10.7c-18.1-12.341-25.1-36.2-17.69-60.474,6.994-22.627,29.209-49.366,68.7-49.778,28.385-.411,51.013,15.633,68.7,28.386,9.462,6.993,19.747,13.987,25.095,13.987h0c6.171,0,20.569-9.874,30.854-16.867,15.222-10.7,28.8-19.746,40.316-19.746,12.342,0,22.215,5.759,27.975,16.455C42.369,436.5,34.964,471.47,21.8,491.628,12.749,505.615.819,512.609-11.523,511.786c-9.873-.822-19.335-10.285-31.266-22.626-6.993-6.993-19.747-20.158-24.683-20.57h0c-6.171,0-20.158,8.228-32.5,15.633C-122.187,497.8-150.161,514.255-177.724,514.255Zm15.633-100.379h-.412c-28.386,0-44.019,18.923-48.955,35.379-4.937,15.633-.823,30.032,9.873,37.437,27.151,18.512,62.531-2.88,90.917-19.747,9.873-6.171,18.924-11.518,27.151-14.81-6.993-3.291-13.987-8.228-21.8-13.576C-122.187,426.628-140.7,413.875-162.091,413.875ZM-9.877,491.217c6.171.411,12.341-7.4,14.4-10.7,10.7-16.455,14.4-43.2,8.228-55.126-2.057-4.114-4.936-5.759-9.873-5.759-5.348,0-18.924,9.051-28.8,16.044-9.874,6.582-18.924,13.164-27.975,16.867,8.639,4.937,16.867,13.576,25.506,22.627C-22.219,480.932-13.168,489.982-9.877,491.217Z" transform="translate(233.708 -393.298)" fill="#fff" stroke="#707070" stroke-width="1"/>
        </g>
        <g id="Group_278" data-name="Group 278" transform="translate(169.462 283.765)">
          <path id="Path_419" data-name="Path 419" d="M-119.485,460.435a10.324,10.324,0,0,1-9.051-4.937c-6.582-11.519-14.4-17.689-22.626-18.512-17.69-1.646-36.614,19.747-36.614,19.747a10,10,0,0,1-14.4,1.234,10,10,0,0,1-1.234-14.4c.823-1.234,25.506-29.62,53.892-27.152,15.221,1.234,28.386,11.108,38.671,28.386a10.15,10.15,0,0,1-3.7,13.987A8.764,8.764,0,0,1-119.485,460.435Z" transform="translate(205.907 -416.263)" fill="#fff" stroke="#707070" stroke-width="1"/>
        </g>
      </g>
    </g>
    <g id="comp_x5F_101-drupal-2" data-name="comp_x5F_101-drupal" transform="translate(-239.938 347.286)">
      <g id="Group_279-2" data-name="Group 279" transform="translate(0 0)">
        <g id="Group_275-2" data-name="Group 275">
          <path id="Path_416-2" data-name="Path 416" d="M-68.146,756.677c-98.733,0-178.954-78.576-178.954-175.253,0-109.84,92.151-161.675,92.974-162.087,3.7-2.057,6.994-3.7,10.285-5.348,11.107-5.759,20.981-10.7,34.556-21.392,6.171-4.936,13.165-12.341,15.222-35.791a10.807,10.807,0,0,1,6.994-9.051,10.418,10.418,0,0,1,11.107,3.291c8.228,9.462,26.74,32.5,38.26,39.9,8.639,5.76,17.689,9.874,27.151,13.987a213.027,213.027,0,0,1,28.8,14.811c4.525,2.879,88.86,56.36,88.86,164.555C107.929,682.627,31.822,756.677-68.146,756.677ZM-77.2,380.666c-3.7,11.93-9.873,20.981-18.924,27.975-15.222,11.93-26.329,17.69-37.848,23.861-3.292,1.645-6.582,3.291-10.285,5.348-.823.411-82.278,47.721-82.278,143.986,0,85.158,71.17,154.683,158.385,154.683,88.449,0,155.094-65,155.094-151.392,0-97.5-75.7-145.22-78.987-147.277h0a227.777,227.777,0,0,0-26.329-13.577c-9.873-4.525-19.747-9.05-30.031-15.633C-56.627,402.47-66.912,391.774-77.2,380.666Z" transform="translate(247.1 -347.286)" fill="#373f54" stroke="#373f54" stroke-width="0.25"/>
        </g>
        <g id="Group_276-2" data-name="Group 276" transform="translate(151.384 336.78)">
          <path id="Path_417-2" data-name="Path 417" d="M-155.991,465.969c-19.747,0-39.082-4.525-51.012-15.632a9.942,9.942,0,0,1-.412-14.4,9.943,9.943,0,0,1,14.4-.411c18.924,17.279,73.638,10.285,87.214-3.291a9.939,9.939,0,0,1,14.4,0,9.94,9.94,0,0,1,0,14.4C-103.333,457.742-130.073,465.969-155.991,465.969Z" transform="translate(210.302 -429.15)" fill="#373f54" stroke="#373f54" stroke-width="0.25"/>
        </g>
        <g id="Group_277-2" data-name="Group 277" transform="translate(55.091 189.289)">
          <path id="Path_418-2" data-name="Path 418" d="M-177.724,514.255a64.46,64.46,0,0,1-35.379-10.7c-18.1-12.341-25.1-36.2-17.69-60.474,6.994-22.627,29.209-49.366,68.7-49.778,28.385-.411,51.013,15.633,68.7,28.386,9.462,6.993,19.747,13.987,25.095,13.987h0c6.171,0,20.569-9.874,30.854-16.867,15.222-10.7,28.8-19.746,40.316-19.746,12.342,0,22.215,5.759,27.975,16.455C42.369,436.5,34.964,471.47,21.8,491.628,12.749,505.615.819,512.609-11.523,511.786c-9.873-.822-19.335-10.285-31.266-22.626-6.993-6.993-19.747-20.158-24.683-20.57h0c-6.171,0-20.158,8.228-32.5,15.633C-122.187,497.8-150.161,514.255-177.724,514.255Zm15.633-100.379h-.412c-28.386,0-44.019,18.923-48.955,35.379-4.937,15.633-.823,30.032,9.873,37.437,27.151,18.512,62.531-2.88,90.917-19.747,9.873-6.171,18.924-11.518,27.151-14.81-6.993-3.291-13.987-8.228-21.8-13.576C-122.187,426.628-140.7,413.875-162.091,413.875ZM-9.877,491.217c6.171.411,12.341-7.4,14.4-10.7,10.7-16.455,14.4-43.2,8.228-55.126-2.057-4.114-4.936-5.759-9.873-5.759-5.348,0-18.924,9.051-28.8,16.044-9.874,6.582-18.924,13.164-27.975,16.867,8.639,4.937,16.867,13.576,25.506,22.627C-22.219,480.932-13.168,489.982-9.877,491.217Z" transform="translate(233.708 -393.298)" fill="#373f54" stroke="#373f54" stroke-width="0.25"/>
        </g>
        <g id="Group_278-2" data-name="Group 278" transform="translate(169.462 283.765)">
          <path id="Path_419-2" data-name="Path 419" d="M-119.485,460.435a10.324,10.324,0,0,1-9.051-4.937c-6.582-11.519-14.4-17.689-22.626-18.512-17.69-1.646-36.614,19.747-36.614,19.747a10,10,0,0,1-14.4,1.234,10,10,0,0,1-1.234-14.4c.823-1.234,25.506-29.62,53.892-27.152,15.221,1.234,28.386,11.108,38.671,28.386a10.15,10.15,0,0,1-3.7,13.987A8.764,8.764,0,0,1-119.485,460.435Z" transform="translate(205.907 -416.263)" fill="#373f54" stroke="#373f54" stroke-width="0.25"/>
        </g>
      </g>
    </g>
    <circle id="Ellipse_159" data-name="Ellipse 159" cx="35.379" cy="35.379" r="35.379" transform="translate(-249.4 360.508)" fill="#3880ff"/>
    <circle id="Ellipse_160" data-name="Ellipse 160" cx="20.569" cy="20.569" r="20.569" transform="translate(80.946 705.253)" fill="#3880ff"/>
    <circle id="Ellipse_161" data-name="Ellipse 161" cx="11.108" cy="11.108" r="11.108" transform="translate(110.154 664.114)" fill="#3880ff"/>
  </g>
</svg>
