<svg id="express" xmlns="http://www.w3.org/2000/svg" width="462.558" height="462.557" viewBox="0 0 462.558 462.557">
  <path id="Path_311" data-name="Path 311" d="M366.385,374.632c-.813,5.872-2.168,13.37-8.131,19.334-6.6,6.5-15.358,7.769-19.514,8.04H95.445A27.512,27.512,0,0,1,67.8,374.723V189.7H366.385V306.423C367.469,318.258,369.818,349.155,366.385,374.632Z" transform="translate(-6.547 -18.319)" fill="silver"/>
  <path id="Path_499" data-name="Path 499" d="M388.682,53H80.25C54.14,53,33,73.96,33,99.617v258.02c0,34.24,28.277,62.156,62.969,62.156H372.962c34.692,0,62.969-27.916,62.969-62.156a15.721,15.721,0,0,0-31.439,0,31.271,31.271,0,0,1-31.439,31.078H95.969a31.271,31.271,0,0,1-31.44-31.078V147.047H404.492V279.942a15.721,15.721,0,0,0,31.44,0V99.617C435.932,73.96,414.791,53,388.682,53ZM324.99,84.078a15.54,15.54,0,1,1-15.72,15.539A15.635,15.635,0,0,1,324.99,84.078Zm78.689,15.539a15.721,15.721,0,1,1-15.72-15.539A15.635,15.635,0,0,1,403.679,99.617Zm-339.24,0a15.635,15.635,0,0,1,15.72-15.539h200.2a46.122,46.122,0,0,0,.271,31.891H64.439Z" transform="translate(6.813 4.882)" fill="#fff" stroke="#707070" stroke-width="1"/>
  <path id="Path_312" data-name="Path 312" d="M388.682,53H80.25C54.14,53,33,73.96,33,99.617v258.02c0,34.24,28.277,62.156,62.969,62.156H372.962c34.692,0,62.969-27.916,62.969-62.156a15.721,15.721,0,0,0-31.439,0,31.271,31.271,0,0,1-31.439,31.078H95.969a31.271,31.271,0,0,1-31.44-31.078V147.047H404.492V279.942a15.721,15.721,0,0,0,31.44,0V99.617C435.932,73.96,414.791,53,388.682,53ZM324.99,84.078a15.54,15.54,0,1,1-15.72,15.539A15.635,15.635,0,0,1,324.99,84.078Zm78.689,15.539a15.721,15.721,0,1,1-15.72-15.539A15.635,15.635,0,0,1,403.679,99.617Zm-339.24,0a15.635,15.635,0,0,1,15.72-15.539h200.2a46.122,46.122,0,0,0,.271,31.891H64.439Z" transform="translate(-3.187 -5.118)" fill="#373f54"/>
  <ellipse id="Ellipse_126" cx="20.598" cy="20.598" rx="20.598" ry="20.598" transform="translate(0 0)" fill="silver"/>
  <ellipse id="Ellipse_127" cx="20.598" cy="20.598" rx="20.598" ry="20.598" transform="translate(395.343 413.5)" fill="silver"/>
  <ellipse id="Ellipse_128" cx="8.312" cy="8.312" rx="8.312" ry="8.312" transform="translate(445.935 445.934)" fill="silver"/>
  <path id="Path_487" data-name="Path 487" d="M82.437,32.2c0-21.524-16.9-37.238-41.331-37.238C17.205-5.04.171,10.806.171,33.122S17.337,71.548,41.106,71.548c19.411,0,34.6-10.168,39.615-27.2H52.858c-1.981,3.565-6.47,5.546-11.752,5.546-6.661,0-11.107-3.5-12.691-10.432H81.777A46.4,46.4,0,0,0,82.437,32.2ZM41.106,16.484c6.734,0,11.235,3.395,12.694,9.375H28.66C30.427,19.609,34.762,16.484,41.106,16.484ZM164.571,68.907,141.4,31.185,162.591-2.4H130.767l-8.979,15.806L112.808-2.4H80.985l21.243,33.672L78.872,68.907H111.62l10.168-19.264,10.168,19.264Z" transform="translate(105.042 268.549)" fill="#373f54"/>
</svg>
