<svg xmlns="http://www.w3.org/2000/svg" width="411.076" height="411.009" viewBox="0 0 411.076 411.009">
  <g id="kotlin" transform="translate(-1135.551 -179.552)">
    <path id="Path_476" data-name="Path 476" d="M1136.7,2316.313l175.023-169.8h194.61L1136.7,2518.763Z" transform="translate(12.458 -1956.118)" fill="#f4a196"/>
    <path id="Path_0" data-name="Path 0" d="M200.168.04c182.362,0,194.1.1,196,1.649a13.53,13.53,0,0,1,3.1,3.794,13.86,13.86,0,0,1,1.058,5.242c0,2.831-7.9,10.99-186.337,189.445l93.164,93.173c85.272,85.281,93.173,93.44,93.173,96.271a13.86,13.86,0,0,1-1.058,5.242,13.531,13.531,0,0,1-3.1,3.794c-1.906,1.544-13.64,1.649-196,1.649s-194.1-.1-196-1.649a13.531,13.531,0,0,1-3.1-3.794C.3,393.3,0,340.068,0,200.17S.3,7.036,1.068,5.483a13.53,13.53,0,0,1,3.1-3.794C6.072.145,17.805.04,200.168.04ZM19.054,194.927l.486,172.049L367.451,19.065H194.925Zm.01-27.642C133.569,52.779,166.807,19.437,166.807,19.3s-33.247-.238-73.871-.238H19.064ZM32.885,381.274H367.451c-129.28-129.28-167.026-166.807-167.283-166.807s-38.013,37.536-83.88,83.4Z" transform="translate(1145.801 189.762)" fill="#fff" stroke="#707070" stroke-width="1" fill-rule="evenodd"/>
    <path id="Path_0-2" data-name="Path 0" d="M200.168.04c182.362,0,194.1.1,196,1.649a13.53,13.53,0,0,1,3.1,3.794,13.86,13.86,0,0,1,1.058,5.242c0,2.831-7.9,10.99-186.337,189.445l93.164,93.173c85.272,85.281,93.173,93.44,93.173,96.271a13.86,13.86,0,0,1-1.058,5.242,13.531,13.531,0,0,1-3.1,3.794c-1.906,1.544-13.64,1.649-196,1.649s-194.1-.1-196-1.649a13.531,13.531,0,0,1-3.1-3.794C.3,393.3,0,340.068,0,200.17S.3,7.036,1.068,5.483a13.53,13.53,0,0,1,3.1-3.794C6.072.145,17.805.04,200.168.04ZM19.054,194.927l.486,172.049L367.451,19.065H194.925Zm.01-27.642C133.569,52.779,166.807,19.437,166.807,19.3s-33.247-.238-73.871-.238H19.064ZM32.885,381.274H367.451c-129.28-129.28-167.026-166.807-167.283-166.807s-38.013,37.536-83.88,83.4Z" transform="translate(1135.801 179.762)" fill="#373f54" stroke="#000" stroke-width="0.5" fill-rule="evenodd"/>
    <ellipse id="Ellipse_127" cx="22.991" cy="22.991" rx="22.991" ry="22.991" transform="translate(1295.685 459.332)" fill="#f4a196"/>
    <ellipse id="Ellipse_128" cx="9.277" cy="9.277" rx="9.277" ry="9.277" transform="translate(1352.156 495.535)" fill="#f4a196"/>
  </g>
</svg>
