<svg xmlns="http://www.w3.org/2000/svg" width="367.16" height="357.375" viewBox="0 0 367.16 357.375">
  <g id="meteor" transform="translate(-1449.424 -173.353)">
    <ellipse id="Ellipse_219" data-name="Ellipse 219" cx="120" cy="119.5" rx="120" ry="119.5" transform="translate(1561 286)" fill="#f4a196"/>
    <g id="meteor-icon" transform="translate(1462.06 183)">
      <path id="Path_480" data-name="Path 480" d="M.439.438,299.757,317.49s10.2,7.192,18-1.2,1.8-16.781,1.8-16.781L.44.439ZM95.214,30.405l227.938,245.73s10.2,7.194,18-1.2,1.8-16.781,1.8-16.781ZM28.631,94.536l227.937,245.73s10.2,7.192,18-1.2,1.8-16.781,1.8-16.781Zm146.7-38.359L334.58,227.854s7.125,5.025,12.573-.837a9.281,9.281,0,0,0,1.257-11.725L175.333,56.177ZM50.566,168.853,209.813,340.531s7.125,5.025,12.573-.838a9.279,9.279,0,0,0,1.257-11.723Zm206.6-75.517,72.176,78.046s3.524,2.355,6.219-.393a4.177,4.177,0,0,0,.622-5.494ZM90.415,247.966l72.176,78.046s3.524,2.355,6.219-.391a4.177,4.177,0,0,0,.622-5.494Z" transform="translate(-0.439 -0.438)" fill="none" stroke="#fff" stroke-width="10"/>
    </g>
    <g id="meteor-icon-2" data-name="meteor-icon" transform="translate(1453.06 177)">
      <path id="Path_480-2" data-name="Path 480" d="M.439.438,299.757,317.49s10.2,7.192,18-1.2,1.8-16.781,1.8-16.781L.44.439ZM95.214,30.405l227.938,245.73s10.2,7.194,18-1.2,1.8-16.781,1.8-16.781ZM28.631,94.536l227.937,245.73s10.2,7.192,18-1.2,1.8-16.781,1.8-16.781Zm146.7-38.359L334.58,227.854s7.125,5.025,12.573-.837a9.281,9.281,0,0,0,1.257-11.725L175.333,56.177ZM50.566,168.853,209.813,340.531s7.125,5.025,12.573-.838a9.279,9.279,0,0,0,1.257-11.723Zm206.6-75.517,72.176,78.046s3.524,2.355,6.219-.393a4.177,4.177,0,0,0,.622-5.494ZM90.415,247.966l72.176,78.046s3.524,2.355,6.219-.391a4.177,4.177,0,0,0,.622-5.494Z" transform="translate(-0.439 -0.438)" fill="none" stroke="#373f54" stroke-width="10"/>
    </g>
    <ellipse id="Ellipse_127" cx="15.272" cy="15.272" rx="15.272" ry="15.272" transform="translate(1702.007 200.745)" fill="#f4a196"/>
    <ellipse id="Ellipse_127-2" data-name="Ellipse_127" cx="15.272" cy="15.272" rx="15.272" ry="15.272" transform="translate(1484.449 461.814)" fill="#f4a196"/>
    <ellipse id="Ellipse_128" cx="6.162" cy="6.162" rx="6.162" ry="6.162" transform="translate(1739.516 224.792)" fill="#f4a196"/>
    <ellipse id="Ellipse_128-2" data-name="Ellipse_128" cx="6.162" cy="6.162" rx="6.162" ry="6.162" transform="translate(1521.959 485.862)" fill="#f4a196"/>
  </g>
</svg>
