<svg id="mvc-top" xmlns="http://www.w3.org/2000/svg" width="396.783" height="396.782" viewBox="0 0 396.783 396.782">
  <path id="Path_311" data-name="Path 311" d="M323.926,348.336c-.7,5.037-1.86,11.469-6.975,16.584-5.657,5.58-13.174,6.665-16.739,6.9H91.514a23.6,23.6,0,0,1-23.714-23.4V189.7H323.926V289.826C324.856,299.978,326.871,326.482,323.926,348.336Z" transform="translate(-15.257 -42.689)" fill="#f4a196"/>
  <g id="Group_2989" data-name="Group 2989">
    <path id="Path_4099" data-name="Path 4099" d="M338.1,53H73.531C51.134,53,33,70.979,33,92.988v221.33c0,29.371,24.256,53.318,54.015,53.318h237.6c29.759,0,54.015-23.947,54.015-53.318a13.485,13.485,0,0,0-26.969,0A26.824,26.824,0,0,1,324.7,340.977H87.015a26.824,26.824,0,0,1-26.969-26.659V133.674h291.62v114a13.485,13.485,0,0,0,26.969,0V92.988C378.635,70.979,360.5,53,338.1,53ZM283.469,79.659a13.33,13.33,0,1,1-13.484,13.329A13.412,13.412,0,0,1,283.469,79.659Zm67.5,13.329a13.485,13.485,0,1,1-13.484-13.329A13.412,13.412,0,0,1,350.969,92.988Zm-291,0A13.412,13.412,0,0,1,73.453,79.659H245.186a39.564,39.564,0,0,0,.232,27.356H59.969Z" transform="translate(2.574 -1.927)" fill="#fff" stroke="#707070" stroke-width="1"/>
    <path id="Path_4100" data-name="Path 4100" d="M108,75.075,96.443-4.215H70.39L54.062,33.914,37.881-4.215H11.829L.162,75.075H26.667L31.12,35.1,49.548,75.075H58.61L77.064,35.042l4.653,40.033Zm52.218-79.29L147.86,37.81,135.408-4.215H104.485l31.263,79.29h24.127l31.263-79.29Zm72.154,81.555c22.881,0,39.985-15.065,42.477-37.153h-27.3c-1.7,7.7-7.7,12.913-15.065,12.913-9.4,0-15.745-7.136-15.745-17.67,0-10.647,6.343-17.784,15.745-17.784,6.91,0,12.913,4.757,15.178,11.78h26.959C271.786,8.019,254.909-6.48,232.368-6.48c-25.373,0-43.723,17.67-43.723,41.91S207,77.341,232.368,77.341Z" transform="translate(74.805 224.396)" fill="#fff" stroke="#707070" stroke-width="1"/>
  </g>
  <path id="Path_312" data-name="Path 312" d="M338.1,53H73.531C51.134,53,33,70.979,33,92.988v221.33c0,29.371,24.256,53.318,54.015,53.318h237.6c29.759,0,54.015-23.947,54.015-53.318a13.485,13.485,0,0,0-26.969,0A26.824,26.824,0,0,1,324.7,340.977H87.015a26.824,26.824,0,0,1-26.969-26.659V133.674h291.62v114a13.485,13.485,0,0,0,26.969,0V92.988C378.635,70.979,360.5,53,338.1,53ZM283.469,79.659a13.33,13.33,0,1,1-13.484,13.329A13.412,13.412,0,0,1,283.469,79.659Zm67.5,13.329a13.485,13.485,0,1,1-13.484-13.329A13.412,13.412,0,0,1,350.969,92.988Zm-291,0A13.412,13.412,0,0,1,73.453,79.659H245.186a39.564,39.564,0,0,0,.232,27.356H59.969Z" transform="translate(-7.426 -11.927)" fill="#373f54"/>
  <ellipse id="Ellipse_126" cx="17.669" cy="17.669" rx="17.669" ry="17.669" transform="translate(0 0)" fill="#f4a196"/>
  <ellipse id="Ellipse_127" cx="17.669" cy="17.669" rx="17.669" ry="17.669" transform="translate(339.125 354.702)" fill="#f4a196"/>
  <ellipse id="Ellipse_128" cx="7.13" cy="7.13" rx="7.13" ry="7.13" transform="translate(382.523 382.523)" fill="#f4a196"/>
  <path id="Path_485" data-name="Path 485" d="M108,75.075,96.443-4.215H70.39L54.062,33.914,37.881-4.215H11.829L.162,75.075H26.667L31.12,35.1,49.548,75.075H58.61L77.064,35.042l4.653,40.033Zm52.218-79.29L147.86,37.81,135.408-4.215H104.485l31.263,79.29h24.127l31.263-79.29Zm72.154,81.555c22.881,0,39.985-15.065,42.477-37.153h-27.3c-1.7,7.7-7.7,12.913-15.065,12.913-9.4,0-15.745-7.136-15.745-17.67,0-10.647,6.343-17.784,15.745-17.784,6.91,0,12.913,4.757,15.178,11.78h26.959C271.786,8.019,254.909-6.48,232.368-6.48c-25.373,0-43.723,17.67-43.723,41.91S207,77.341,232.368,77.341Z" transform="translate(64.805 214.396)" fill="#373f54"/>
</svg>
