<svg id="prototype" xmlns="http://www.w3.org/2000/svg" width="404.826" height="392.378" viewBox="0 0 404.826 392.378">
  <path id="Path_478" data-name="Path 478" d="M321.084,372.631c-.69,5.809-1.839,13.226-6.9,19.124a24.222,24.222,0,0,1-16.554,7.953H91.251C78.3,399.709,67.8,387.555,67.8,372.72V189.7H321.084V305.16C322,316.867,324,347.43,321.084,372.631Z" transform="translate(-53.179 -49.343)" fill="#ffd45e"/>
  <g id="Group_1064" data-name="Group 1064" transform="translate(10 10)">
    <path id="Path_477" data-name="Path 477" d="M329.166,43H308.02a10.573,10.573,0,0,0-10.573,10.573V85.287H212.16V31.718a31.718,31.718,0,0,0-63.437,0V85.287H63.437V53.568A10.573,10.573,0,0,0,52.864,43H31.718A31.754,31.754,0,0,0,0,74.714v254.45a31.754,31.754,0,0,0,31.718,31.718H329.166a31.754,31.754,0,0,0,31.718-31.718V74.714A31.754,31.754,0,0,0,329.166,43ZM318.593,64.141h10.573a10.585,10.585,0,0,1,10.573,10.573V299.258a31.58,31.58,0,0,0-10.573-1.811H318.593ZM169.869,31.718a10.573,10.573,0,0,1,21.146,0V42.291H169.869Zm10.573,200.157-44.376-29.584,44.376-29.584,44.376,29.584Zm52.864-9.828v38.022l-42.291,28.194V250.241Zm-63.437,28.194v38.022l-42.291-28.194V222.047Zm0-186.8h21.146v52.777L180.442,136.83l-10.573-20.617ZM21.146,74.714A10.585,10.585,0,0,1,31.718,64.141H42.291v233.3H31.718a31.58,31.58,0,0,0-10.573,1.811Zm308.02,265.023H31.718a10.573,10.573,0,1,1,0-21.145H52.864a10.573,10.573,0,0,0,10.573-10.573V106.432h85.287v12.335a10.567,10.567,0,0,0,1.165,4.825l16.842,32.843-55.59,37.06c-.065.043-.125.09-.19.135a10.606,10.606,0,0,0-4.519,8.663v63.436a10.572,10.572,0,0,0,4.708,8.8l63.437,42.291c.037.025.076.046.114.07a10.567,10.567,0,0,0,11.5,0c.037-.025.076-.045.113-.07l63.437-42.291a10.574,10.574,0,0,0,4.708-8.8V202.292a10.631,10.631,0,0,0-4.708-8.8l-55.59-37.06L211,123.592a10.574,10.574,0,0,0,1.165-4.825V106.432h85.287V308.019a10.573,10.573,0,0,0,10.573,10.573h21.146a10.573,10.573,0,1,1,0,21.145Z" fill="#fff" stroke="#707070" stroke-width="1"/>
  </g>
  <g id="Group_313" data-name="Group 313">
    <path id="Path_477-2" data-name="Path 477" d="M329.166,43H308.02a10.573,10.573,0,0,0-10.573,10.573V85.287H212.16V31.718a31.718,31.718,0,0,0-63.437,0V85.287H63.437V53.568A10.573,10.573,0,0,0,52.864,43H31.718A31.754,31.754,0,0,0,0,74.714v254.45a31.754,31.754,0,0,0,31.718,31.718H329.166a31.754,31.754,0,0,0,31.718-31.718V74.714A31.754,31.754,0,0,0,329.166,43ZM318.593,64.141h10.573a10.585,10.585,0,0,1,10.573,10.573V299.258a31.58,31.58,0,0,0-10.573-1.811H318.593ZM169.869,31.718a10.573,10.573,0,0,1,21.146,0V42.291H169.869Zm10.573,200.157-44.376-29.584,44.376-29.584,44.376,29.584Zm52.864-9.828v38.022l-42.291,28.194V250.241Zm-63.437,28.194v38.022l-42.291-28.194V222.047Zm0-186.8h21.146v52.777L180.442,136.83l-10.573-20.617ZM21.146,74.714A10.585,10.585,0,0,1,31.718,64.141H42.291v233.3H31.718a31.58,31.58,0,0,0-10.573,1.811Zm308.02,265.023H31.718a10.573,10.573,0,1,1,0-21.145H52.864a10.573,10.573,0,0,0,10.573-10.573V106.432h85.287v12.335a10.567,10.567,0,0,0,1.165,4.825l16.842,32.843-55.59,37.06c-.065.043-.125.09-.19.135a10.606,10.606,0,0,0-4.519,8.663v63.436a10.572,10.572,0,0,0,4.708,8.8l63.437,42.291c.037.025.076.046.114.07a10.567,10.567,0,0,0,11.5,0c.037-.025.076-.045.113-.07l63.437-42.291a10.574,10.574,0,0,0,4.708-8.8V202.292a10.631,10.631,0,0,0-4.708-8.8l-55.59-37.06L211,123.592a10.574,10.574,0,0,0,1.165-4.825V106.432h85.287V308.019a10.573,10.573,0,0,0,10.573,10.573h21.146a10.573,10.573,0,1,1,0,21.145Z" fill="#373f54"/>
  </g>
  <ellipse id="Ellipse_126" cx="17.473" cy="17.473" rx="17.473" ry="17.473" transform="translate(12.446)" fill="#ffd45e"/>
  <ellipse id="Ellipse_127" cx="17.473" cy="17.473" rx="17.473" ry="17.473" transform="translate(347.808 350.763)" fill="#ffd45e"/>
  <ellipse id="Ellipse_128" cx="7.051" cy="7.051" rx="7.051" ry="7.051" transform="translate(390.725 378.277)" fill="#ffd45e"/>
</svg>
