<svg id="psd" xmlns="http://www.w3.org/2000/svg" width="392.379" height="392.377" viewBox="0 0 392.379 392.377">
  <g id="website" transform="translate(0 0)">
    <path id="Path_311" data-name="Path 311" d="M321.084,346.574c-.69,4.981-1.839,11.342-6.9,16.4-5.595,5.518-13.028,6.591-16.554,6.821H91.251A23.338,23.338,0,0,1,67.8,346.651V189.7H321.084v99.014C322,298.753,324,324.963,321.084,346.574Z" transform="translate(-15.84 -44.321)" fill="#a8c1ff"/>
    <g id="Group_1065" data-name="Group 1065" transform="translate(6 5)">
      <path id="Path_1976" data-name="Path 1976" d="M334.718,53H73.081C50.933,53,33,70.78,33,92.544V311.417c0,29.045,23.987,52.726,53.416,52.726H321.383c29.428,0,53.416-23.681,53.416-52.726a13.336,13.336,0,0,0-26.669,0A26.526,26.526,0,0,1,321.46,337.78H86.416a26.526,26.526,0,0,1-26.67-26.363V132.778H348.129V245.51a13.336,13.336,0,0,0,26.67,0V92.544C374.8,70.78,356.866,53,334.718,53ZM280.689,79.363a13.182,13.182,0,1,1-13.335,13.181A13.263,13.263,0,0,1,280.689,79.363Zm66.75,13.181A13.336,13.336,0,1,1,334.1,79.363,13.263,13.263,0,0,1,347.44,92.544Zm-287.77,0A13.263,13.263,0,0,1,73,79.363H242.831a39.125,39.125,0,0,0,.23,27.053H59.669Z" transform="translate(-7.71 -12.383)" fill="#fff" stroke="#707070" stroke-width="1"/>
      <path id="Path_1977" data-name="Path 1977" d="M31.293-4.625H.5V60.309H22.109V44.725h9.184c14.657,0,25.232-10.3,25.232-24.768S45.949-4.625,31.293-4.625ZM27.118,26.915H22.109V13.186h5.009a6.549,6.549,0,0,1,6.957,6.864A6.549,6.549,0,0,1,27.118,26.915Zm60.111,35.25c17.161,0,27.365-8.163,27.365-22.078,0-14.935-12.338-18.182-21.521-20.593-5.473-1.484-9.833-2.6-9.833-5.751,0-1.855,1.3-2.968,3.525-2.968,2.319,0,3.618,1.391,3.618,3.9h21.892c0-13.265-9.462-21.15-25.51-21.15-16.326,0-25.881,7.7-25.881,20.593,0,15.584,11.874,18.46,20.779,20.686,5.38,1.391,9.74,2.412,9.74,5.844,0,2.319-1.763,3.618-4.174,3.618a4.167,4.167,0,0,1-4.453-4.545H60.049C60.049,53.816,70.161,62.165,87.229,62.165Zm62.43-66.789H121.83V60.309h27.829c20.408,0,34.323-13.358,34.323-32.467C183.982,8.548,170.067-4.625,149.659-4.625Zm-1.484,45.454h-4.638V14.856h4.638c8.441,0,13.729,5.009,13.729,12.987S156.616,40.829,148.175,40.829Z" transform="translate(86.935 231.656)" fill="#fff" stroke="#707070" stroke-width="1"/>
    </g>
    <path id="Path_312" data-name="Path 312" d="M334.718,53H73.081C50.933,53,33,70.78,33,92.544V311.417c0,29.045,23.987,52.726,53.416,52.726H321.383c29.428,0,53.416-23.681,53.416-52.726a13.336,13.336,0,0,0-26.669,0A26.526,26.526,0,0,1,321.46,337.78H86.416a26.526,26.526,0,0,1-26.67-26.363V132.778H348.129V245.51a13.336,13.336,0,0,0,26.67,0V92.544C374.8,70.78,356.866,53,334.718,53ZM280.689,79.363a13.182,13.182,0,1,1-13.335,13.181A13.263,13.263,0,0,1,280.689,79.363Zm66.75,13.181A13.336,13.336,0,1,1,334.1,79.363,13.263,13.263,0,0,1,347.44,92.544Zm-287.77,0A13.263,13.263,0,0,1,73,79.363H242.831a39.125,39.125,0,0,0,.23,27.053H59.669Z" transform="translate(-7.71 -12.383)" fill="#373f54"/>
    <ellipse id="Ellipse_126" cx="17.473" cy="17.473" rx="17.473" ry="17.473" transform="translate(0 0)" fill="#a8c1ff"/>
    <ellipse id="Ellipse_127" cx="17.473" cy="17.473" rx="17.473" ry="17.473" transform="translate(335.362 350.764)" fill="#a8c1ff"/>
    <ellipse id="Ellipse_128" cx="7.051" cy="7.051" rx="7.051" ry="7.051" transform="translate(378.278 378.276)" fill="#a8c1ff"/>
    <path id="Path_479" data-name="Path 479" d="M31.293-4.625H.5V60.309H22.109V44.725h9.184c14.657,0,25.232-10.3,25.232-24.768S45.949-4.625,31.293-4.625ZM27.118,26.915H22.109V13.186h5.009a6.549,6.549,0,0,1,6.957,6.864A6.549,6.549,0,0,1,27.118,26.915Zm60.111,35.25c17.161,0,27.365-8.163,27.365-22.078,0-14.935-12.338-18.182-21.521-20.593-5.473-1.484-9.833-2.6-9.833-5.751,0-1.855,1.3-2.968,3.525-2.968,2.319,0,3.618,1.391,3.618,3.9h21.892c0-13.265-9.462-21.15-25.51-21.15-16.326,0-25.881,7.7-25.881,20.593,0,15.584,11.874,18.46,20.779,20.686,5.38,1.391,9.74,2.412,9.74,5.844,0,2.319-1.763,3.618-4.174,3.618a4.167,4.167,0,0,1-4.453-4.545H60.049C60.049,53.816,70.161,62.165,87.229,62.165Zm62.43-66.789H121.83V60.309h27.829c20.408,0,34.323-13.358,34.323-32.467C183.982,8.548,170.067-4.625,149.659-4.625Zm-1.484,45.454h-4.638V14.856h4.638c8.441,0,13.729,5.009,13.729,12.987S156.616,40.829,148.175,40.829Z" transform="translate(86.935 231.656)" fill="#373f54"/>
  </g>
  <g id="coding" transform="translate(245.46 161.953)">
    <g id="Group_157" data-name="Group 157" transform="translate(53.013 8.788)">
      <g id="Group_156" data-name="Group 156" transform="translate(0 0)">
        <path id="Path_315" data-name="Path 315" d="M377.819,130.982,360.148,112.26a2.865,2.865,0,1,0-4.167,3.933L371.8,132.948,355.981,149.7a2.866,2.866,0,0,0,4.167,3.935l17.671-18.722A2.867,2.867,0,0,0,377.819,130.982Z" transform="translate(-355.199 -111.361)" fill="#373f54" stroke="#000" stroke-width="0.5"/>
      </g>
    </g>
    <g id="Group_159" data-name="Group 159" transform="translate(0 8.788)">
      <g id="Group_158" data-name="Group 158" transform="translate(0 0)">
        <path id="Path_316" data-name="Path 316" d="M22.621,149.7,6.807,132.947l15.814-16.755a2.866,2.866,0,0,0-4.168-3.933L.782,130.98a2.866,2.866,0,0,0,0,3.934l17.672,18.723a2.866,2.866,0,0,0,4.167-3.935Z" transform="translate(-0.001 -111.36)" fill="#373f54" stroke="#000" stroke-width="0.5"/>
      </g>
    </g>
    <g id="Group_161" data-name="Group 161" transform="translate(31.139 0)">
      <g id="Group_160" data-name="Group 160" transform="translate(0 0)">
        <path id="Path_317" data-name="Path 317" d="M220.341,52.51a2.869,2.869,0,0,0-3.266,2.4l-8.406,55.019a2.866,2.866,0,0,0,2.4,3.266,2.955,2.955,0,0,0,.437.032,2.866,2.866,0,0,0,2.829-2.433l8.406-55.019A2.866,2.866,0,0,0,220.341,52.51Z" transform="translate(-208.636 -52.478)" fill="#373f54" stroke="#000" stroke-width="0.5"/>
      </g>
    </g>
  </g>
</svg>
