<svg id="pwa" xmlns="http://www.w3.org/2000/svg" width="462.946" height="462.945" viewBox="0 0 462.946 462.945">
  <path id="Path_491" data-name="Path 491" d="M388.98,53H80.289C54.158,53,33,73.977,33,99.656V357.893C33,392.162,61.3,420.1,96.022,420.1H373.247c34.721,0,63.022-27.94,63.022-62.208a15.734,15.734,0,0,0-31.466,0A31.3,31.3,0,0,1,373.337,389H96.022a31.3,31.3,0,0,1-31.466-31.1V147.126H404.8V280.133a15.734,15.734,0,0,0,31.466,0V99.656C436.269,73.977,415.111,53,388.98,53ZM325.234,84.1A15.553,15.553,0,1,1,309.5,99.656,15.649,15.649,0,0,1,325.234,84.1Zm78.755,15.552A15.734,15.734,0,1,1,388.257,84.1,15.648,15.648,0,0,1,403.989,99.656Zm-339.524,0A15.649,15.649,0,0,1,80.2,84.1H280.567a46.162,46.162,0,0,0,.271,31.918H64.466Z" transform="translate(6.838 4.922)" fill="#fff" stroke="#707070" stroke-width="1"/>
  <path id="Path_311" data-name="Path 311" d="M366.635,374.788c-.814,5.877-2.17,13.382-8.138,19.35-6.6,6.51-15.371,7.776-19.531,8.047H95.468A27.535,27.535,0,0,1,67.8,374.878V189.7H366.635V306.521C367.72,318.366,370.071,349.29,366.635,374.788Z" transform="translate(-6.496 -18.175)" fill="#a8c1ff"/>
  <path id="Path_312" data-name="Path 312" d="M388.98,53H80.289C54.158,53,33,73.977,33,99.656V357.893C33,392.162,61.3,420.1,96.022,420.1H373.247c34.721,0,63.022-27.94,63.022-62.208a15.734,15.734,0,0,0-31.466,0A31.3,31.3,0,0,1,373.337,389H96.022a31.3,31.3,0,0,1-31.466-31.1V147.126H404.8V280.133a15.734,15.734,0,0,0,31.466,0V99.656C436.269,73.977,415.111,53,388.98,53ZM325.234,84.1A15.553,15.553,0,1,1,309.5,99.656,15.649,15.649,0,0,1,325.234,84.1Zm78.755,15.552A15.734,15.734,0,1,1,388.257,84.1,15.648,15.648,0,0,1,403.989,99.656Zm-339.524,0A15.649,15.649,0,0,1,80.2,84.1H280.567a46.162,46.162,0,0,0,.271,31.918H64.466Z" transform="translate(-3.162 -5.078)" fill="#373f54"/>
  <ellipse id="Ellipse_126" cx="20.616" cy="20.616" rx="20.616" ry="20.616" transform="translate(0 0)" fill="#a8c1ff"/>
  <ellipse id="Ellipse_127" cx="20.616" cy="20.616" rx="20.616" ry="20.616" transform="translate(395.674 413.848)" fill="#a8c1ff"/>
  <ellipse id="Ellipse_128" cx="8.319" cy="8.319" rx="8.319" ry="8.319" transform="translate(446.308 446.308)" fill="#a8c1ff"/>
  <path id="Path_486" data-name="Path 486" d="M44.372-6.3H.495V86.211H31.288v-22.2H44.372c20.881,0,35.947-14.67,35.947-35.286S65.253-6.3,44.372-6.3ZM38.425,38.634H31.288V19.075h7.137c5.947,0,9.912,3.965,9.912,9.78S44.372,38.634,38.425,38.634ZM186.443-6.3l-11.79,45.58L154.857-6.3h-11.1L124.028,39.122,112.037-6.3h-33.3l28.811,92.511h26.7l15.066-38.489,15.066,38.489h26.7L219.747-6.3Zm93.965,92.511h34.229L277.5-6.3H246.575L209.7,86.211h33.172l4.142-12.819h29.446ZM270.78,51.85H252.743l8.976-25.472Z" transform="translate(94.88 251.528)" fill="#373f54"/>
</svg>
