<svg xmlns="http://www.w3.org/2000/svg" width="431.951" height="404.702" viewBox="0 0 431.951 404.702">
  <g id="reactjs" transform="translate(251.744 -554.42)">
    <g id="Group_295" data-name="Group 295" transform="translate(-240.29 564.787)">
      <path id="Path_445" data-name="Path 445" d="M68.8,673.846c-4.223-1.266-8.023-2.534-12.246-3.8a59.781,59.781,0,0,0,1.689-8.446c9.29-45.183,3.378-81.5-17.313-93.321-19.847-11.4-52.361.421-85.3,29.137-3.378,2.955-6.334,5.911-9.29,8.867-2.111-2.111-4.223-3.8-6.334-5.912-34.2-30.4-68.83-43.495-89.521-31.248-19.847,11.4-25.759,45.6-17.313,88.253.844,4.223,1.689,8.446,2.956,12.668A107.548,107.548,0,0,0-177.8,674.69c-40.538,13.935-66.3,36.314-66.3,59.118,0,23.646,27.447,47.293,69.674,61.65,3.378,1.267,6.756,2.111,10.135,3.378-1.267,4.645-2.111,8.867-2.956,13.513-8.023,41.8-1.689,75.164,18.158,86.564,20.269,11.824,54.895-.423,88.254-29.559,2.534-2.112,5.49-4.646,8.023-7.18,3.378,3.378,6.756,6.335,10.134,9.291,32.515,27.869,64.185,39.271,84.031,27.869,20.269-11.822,27.025-47.716,18.58-91.208-.844-3.378-1.267-6.757-2.111-10.135,2.534-.845,4.645-1.267,7.178-2.112,43.494-14.357,72.208-38,72.208-61.651-.422-24.069-27.025-46.45-68.407-60.384Z" transform="translate(246.633 -529.326)" fill="#3880ff" opacity="0.4"/>
      <path id="Path_446" data-name="Path 446" d="M-168.885,592.3a36.313,36.313,0,0,1,36.315,36.315,36.313,36.313,0,0,1-36.315,36.314A36.312,36.312,0,0,1-205.2,628.615,36.047,36.047,0,0,1-168.885,592.3" transform="translate(371.996 -438.068)" fill="#373f54"/>
      <path id="Union_3" data-name="Union 3" d="M-411.363-2807.609c-27.2-15.363-34.572-57.469-23.638-110.988-52.316-17.316-85.53-44.8-85.359-76a52.28,52.28,0,0,1,6.859-22.857c12-20.779,39.866-38.387,77.885-50.4q-1.983-9.665-3.194-18.873c-5.49-45.183,3.8-77.7,27.025-90.365,26.518-14.978,65.039-.537,104.087,34.592q6.636-6.047,13.3-11.366c35.893-28.293,68.408-36.738,91.633-23.648,27.387,15.468,34.674,58.036,23.413,112.079q9.762,3.22,18.681,6.915c41.873,17.837,65.387,42.14,64.746,68.587-.292,30.861-32.9,57.288-84.005,73.488,10.382,52.7,2.98,94.062-23.679,109.26a52.291,52.291,0,0,1-23.225,5.489c-23.46,0-51.88-14.654-80.626-40.47-28.8,25.823-57.217,40.472-80.68,40.472C-396.584-2801.7-404.185-2803.387-411.363-2807.609Zm198.043-18.158c16.754-9.334,22.249-41.318,13.794-85.195a396.25,396.25,0,0,1-55.405,9.273,400.785,400.785,0,0,1-37.026,44.577C-259.42-2828.068-229.84-2816.562-213.32-2825.767Zm-187.909,0c16.49,9.187,45.994-2.261,78.46-31.185A397.775,397.775,0,0,1-360.53-2902.7a405.25,405.25,0,0,1-54.221-9.958C-423.589-2868.105-418.157-2835.44-401.229-2825.767Zm93.955-46.114a360.388,360.388,0,0,0,24.181-27.89q-12.755.494-25.987.336-11.536-.143-22.724-.781A361.241,361.241,0,0,0-307.274-2871.881Zm-1.713-47.98c14.479.118,28.409-.382,41.675-1.414,7.629-11.1,15.11-23.045,22.322-35.817,6.827-12.09,12.892-24.008,18.229-35.653-5.232-11.387-11.162-23.049-17.806-34.867-6.731-11.882-13.692-23.062-20.777-33.5-13.7-1.355-27.835-2.119-42.22-2.255-14.31-.137-28.077.34-41.206,1.347-7.38,10.881-14.483,22.385-21.212,34.409-6.658,11.791-12.6,23.428-17.836,34.8,5.45,11.892,11.556,23.85,18.259,35.719,7.09,12.557,14.446,24.325,21.941,35.262C-335.278-2920.694-322.379-2920.014-308.987-2919.861Zm83-27.1q-6.628,11.684-13.615,22.639c12.6-1.805,24.437-4.108,35.412-6.815a363.037,363.037,0,0,0-11.432-35.112Q-220.524-2956.634-225.987-2946.957Zm-149.7,21.627q-6.59-10.468-12.874-21.627-5.443-9.7-10.379-19.464c-4.494,11.776-8.2,23.143-11.144,33.985C-399.389-2929.666-387.892-2927.269-375.687-2925.33Zm191.048-11.334c32.767-10.562,55.305-24.96,63.882-39.816,2.533-4.388,3.913-8.467,3.619-13.026.076-17.022-18.7-35.176-52.106-49.1q-7.326-3.068-15.272-5.784a405.626,405.626,0,0,1-19.262,53.192A401.413,401.413,0,0,1-184.639-2936.664Zm-314.775-57.058c-.3,19.517,25.559,40.667,69.157,55.318a401,401,0,0,1,19.181-53.861,416.11,416.11,0,0,1-19.492-54.66C-473.427-3033.252-499.12-3012.993-499.414-2993.722Zm272.582-44.023q5.607,10,10.619,19.938c4.348-11.35,7.966-22.336,10.877-32.828-10.557-2.759-21.683-5.1-33.239-6.985Q-232.575-3047.974-226.832-3037.745Zm-171.818,19.154q4.965-9.752,10.512-19.577,6.017-10.718,12.433-20.939c-12.1,1.7-23.509,3.874-34.132,6.423C-406.815-3041.583-403.069-3030.169-398.65-3018.591Zm198.333-52.968c8.978-44.8,3.566-77.668-13.425-87.377-14.78-8.447-39.693-.422-67.985,21.957q-5.4,4.309-10.8,9.147a397.031,397.031,0,0,1,38.095,46.32A415.543,415.543,0,0,1-200.317-3071.558Zm-200.489-87.378c-14.78,8.446-21.114,33.781-16.469,69.675q.976,7.646,2.53,15.626a400.826,400.826,0,0,1,54.811-9.036,404.615,404.615,0,0,1,37.388-45.352c-25.052-22.368-48.3-34.291-65.171-34.291C-392.783-3162.315-397.006-3161.47-400.806-3158.936Zm93.967,74.047q12.569.152,24.885.909a364.417,364.417,0,0,0-25.468-29.47,359.17,359.17,0,0,0-24.992,28.912q9.741-.381,19.763-.384C-310.715-3084.922-308.788-3084.911-306.839-3084.89Z" transform="translate(515.907 3195.532)" fill="#fff" stroke="#707070" stroke-width="1"/>
      <path id="Union_2" data-name="Union 2" d="M-411.363-2807.609c-27.2-15.363-34.572-57.469-23.638-110.988-52.316-17.316-85.53-44.8-85.359-76a52.28,52.28,0,0,1,6.859-22.857c12-20.779,39.866-38.387,77.885-50.4q-1.983-9.665-3.194-18.873c-5.49-45.183,3.8-77.7,27.025-90.365,26.518-14.978,65.039-.537,104.087,34.592q6.636-6.047,13.3-11.366c35.893-28.293,68.408-36.738,91.633-23.648,27.387,15.468,34.674,58.036,23.413,112.079q9.762,3.22,18.681,6.915c41.873,17.837,65.387,42.14,64.746,68.587-.292,30.861-32.9,57.288-84.005,73.488,10.382,52.7,2.98,94.062-23.679,109.26a52.291,52.291,0,0,1-23.225,5.489c-23.46,0-51.88-14.654-80.626-40.47-28.8,25.823-57.217,40.472-80.68,40.472C-396.584-2801.7-404.185-2803.387-411.363-2807.609Zm198.043-18.158c16.754-9.334,22.249-41.318,13.794-85.195a396.25,396.25,0,0,1-55.405,9.273,400.785,400.785,0,0,1-37.026,44.577C-259.42-2828.068-229.84-2816.562-213.32-2825.767Zm-187.909,0c16.49,9.187,45.994-2.261,78.46-31.185A397.775,397.775,0,0,1-360.53-2902.7a405.25,405.25,0,0,1-54.221-9.958C-423.589-2868.105-418.157-2835.44-401.229-2825.767Zm93.955-46.114a360.388,360.388,0,0,0,24.181-27.89q-12.755.494-25.987.336-11.536-.143-22.724-.781A361.241,361.241,0,0,0-307.274-2871.881Zm-1.713-47.98c14.479.118,28.409-.382,41.675-1.414,7.629-11.1,15.11-23.045,22.322-35.817,6.827-12.09,12.892-24.008,18.229-35.653-5.232-11.387-11.162-23.049-17.806-34.867-6.731-11.882-13.692-23.062-20.777-33.5-13.7-1.355-27.835-2.119-42.22-2.255-14.31-.137-28.077.34-41.206,1.347-7.38,10.881-14.483,22.385-21.212,34.409-6.658,11.791-12.6,23.428-17.836,34.8,5.45,11.892,11.556,23.85,18.259,35.719,7.09,12.557,14.446,24.325,21.941,35.262C-335.278-2920.694-322.379-2920.014-308.987-2919.861Zm83-27.1q-6.628,11.684-13.615,22.639c12.6-1.805,24.437-4.108,35.412-6.815a363.037,363.037,0,0,0-11.432-35.112Q-220.524-2956.634-225.987-2946.957Zm-149.7,21.627q-6.59-10.468-12.874-21.627-5.443-9.7-10.379-19.464c-4.494,11.776-8.2,23.143-11.144,33.985C-399.389-2929.666-387.892-2927.269-375.687-2925.33Zm191.048-11.334c32.767-10.562,55.305-24.96,63.882-39.816,2.533-4.388,3.913-8.467,3.619-13.026.076-17.022-18.7-35.176-52.106-49.1q-7.326-3.068-15.272-5.784a405.626,405.626,0,0,1-19.262,53.192A401.413,401.413,0,0,1-184.639-2936.664Zm-314.775-57.058c-.3,19.517,25.559,40.667,69.157,55.318a401,401,0,0,1,19.181-53.861,416.11,416.11,0,0,1-19.492-54.66C-473.427-3033.252-499.12-3012.993-499.414-2993.722Zm272.582-44.023q5.607,10,10.619,19.938c4.348-11.35,7.966-22.336,10.877-32.828-10.557-2.759-21.683-5.1-33.239-6.985Q-232.575-3047.974-226.832-3037.745Zm-171.818,19.154q4.965-9.752,10.512-19.577,6.017-10.718,12.433-20.939c-12.1,1.7-23.509,3.874-34.132,6.423C-406.815-3041.583-403.069-3030.169-398.65-3018.591Zm198.333-52.968c8.978-44.8,3.566-77.668-13.425-87.377-14.78-8.447-39.693-.422-67.985,21.957q-5.4,4.309-10.8,9.147a397.031,397.031,0,0,1,38.095,46.32A415.543,415.543,0,0,1-200.317-3071.558Zm-200.489-87.378c-14.78,8.446-21.114,33.781-16.469,69.675q.976,7.646,2.53,15.626a400.826,400.826,0,0,1,54.811-9.036,404.615,404.615,0,0,1,37.388-45.352c-25.052-22.368-48.3-34.291-65.171-34.291C-392.783-3162.315-397.006-3161.47-400.806-3158.936Zm93.967,74.047q12.569.152,24.885.909a364.417,364.417,0,0,0-25.468-29.47,359.17,359.17,0,0,0-24.992,28.912q9.741-.381,19.763-.384C-310.715-3084.922-308.788-3084.911-306.839-3084.89Z" transform="translate(508.907 3183.532)" fill="#373f54"/>
    </g>
    <ellipse id="Ellipse_191" data-name="Ellipse 191" cx="27" cy="33.5" rx="27" ry="33.5" transform="translate(-245.498 554.42)" fill="#3880ff"/>
    <circle id="Ellipse_192" data-name="Ellipse 192" cx="11.401" cy="11.401" r="11.401" transform="translate(-226.778 650.189)" fill="#3880ff"/>
    <circle id="Ellipse_193" data-name="Ellipse 193" cx="29.559" cy="29.559" r="29.559" transform="translate(103.436 895.527)" fill="#3880ff"/>
  </g>
</svg>
