<svg xmlns="http://www.w3.org/2000/svg" width="369.408" height="371.555" viewBox="0 0 369.408 371.555">
  <g id="symfony" transform="translate(-243.135 -5008.135)">
    <g id="Group_331" data-name="Group 331" transform="translate(243.135 5008.135)">
      <g id="Background" transform="translate(11.72 11.716)">
        <ellipse id="Ellipse_218" data-name="Ellipse 218" cx="128.5" cy="129.5" rx="128.5" ry="129.5" transform="translate(59.145 93.149)" fill="#898989" opacity="0.4"/>
        <path id="Subtraction_1" data-name="Subtraction 1" d="M153.969,1.036c-4.219.515-10.964,1.537-15,2.275S127.9,5.748,123.31,7.1s-11.784,3.869-16,5.6-10.064,4.376-13,5.881-8.331,4.6-12,6.863S72.2,32.184,67.99,35.4A191.751,191.751,0,0,0,51.754,49.845C47.042,54.583,40.77,61.539,37.817,65.307s-7.071,9.463-9.164,12.67-5.479,8.9-7.525,12.668-5.206,10.389-7.006,14.724-4.379,11.265-5.712,15.408S5.252,131.7,4.345,135.844s-2.253,12-3,17.462A157.527,157.527,0,0,0,0,175.221a143.146,143.146,0,0,0,1.673,23.626c.919,6.4,2.72,15.721,4,20.714s3.419,12.079,4.752,15.749,3.9,9.91,5.7,13.869,5.339,10.73,7.845,15.065S30.766,275.2,33.5,278.969s7.672,9.928,10.971,13.7a173.658,173.658,0,0,0,12.258,12.451c3.439,3.081,8.2,7.114,10.59,8.97s7.179,5.3,10.665,7.655A200.644,200.644,0,0,0,95.65,331.747a194.351,194.351,0,0,0,20.328,8.767c4.946,1.676,12.444,3.836,16.662,4.793s12.311,2.375,18,3.135a166.355,166.355,0,0,0,19.329,1.4,166.346,166.346,0,0,0,19.328-1.4c5.679-.76,13.777-2.177,18-3.143s11.264-2.963,15.663-4.442,11.443-4.275,15.663-6.2,10.363-5.031,13.663-6.917,8.251-4.971,11-6.875,6.945-4.957,9.331-6.8,7.152-5.869,10.591-8.95a173.754,173.754,0,0,0,12.257-12.451c3.3-3.768,8.231-9.928,10.97-13.7s7.032-10.4,9.532-14.724,6.038-11.116,7.844-15.065,4.373-10.2,5.706-13.869,3.472-10.758,4.759-15.749,3.086-14.386,4-20.886a149.561,149.561,0,0,0,1.66-23.969,148.262,148.262,0,0,0-1.353-21.742c-.747-5.274-2.126-13.135-3.08-17.464s-3.006-11.724-4.578-16.436-4.259-11.8-5.965-15.749-4.632-9.964-6.491-13.355-5.1-8.785-7.186-11.984-5.951-8.6-8.584-11.986-8.158-9.655-12.27-13.919-10.178-9.988-13.477-12.7-7.951-6.328-10.331-8.04-7.032-4.76-10.331-6.787-9.3-5.278-13.33-7.232-10.33-4.7-14-6.093-10.264-3.556-14.663-4.8-10.851-2.738-14.33-3.335S189.654,1.531,184.8.956A149.22,149.22,0,0,0,168.8,0C164.86.052,158.182.519,153.969,1.036Z" transform="translate(0 0)" fill="none" stroke="#373f54" stroke-width="20"/>
      </g>
      <ellipse id="Ellipse_126" cx="16.45" cy="16.45" rx="16.45" ry="16.45" transform="translate(0 0)" fill="#373f54"/>
      <ellipse id="Ellipse_127" cx="16.45" cy="16.45" rx="16.45" ry="16.45" transform="translate(315.728 330.227)" fill="#373f54"/>
      <ellipse id="Ellipse_128" cx="6.638" cy="6.638" rx="6.638" ry="6.638" transform="translate(356.133 356.131)" fill="#373f54"/>
    </g>
    <path id="Path_1" data-name="Path 1" d="M263.124,96.168a61.172,61.172,0,0,0-9.331,3.075,75.17,75.17,0,0,0-10,5.691,82.361,82.361,0,0,0-9.684,8,125.266,125.266,0,0,0-8.345,9.492c-2.193,2.828-5.665,7.91-7.718,11.3s-5.079,8.937-6.732,12.327-4.432,9.861-6.165,14.381-3.193,8.286-3.246,8.368-3.1-2.65-6.765-6.074-8.764-7.848-11.33-9.834a69.091,69.091,0,0,0-8.665-5.663,70,70,0,0,0-8.664-3.547,50.238,50.238,0,0,0-11-1.863,39.87,39.87,0,0,0-11.331.747,54.4,54.4,0,0,0-10.664,3.992,38.941,38.941,0,0,0-16.576,16.1,53.592,53.592,0,0,0-3.166,8.56,28.833,28.833,0,0,0-.74,9.416,48.253,48.253,0,0,0,1.793,9.587,57.8,57.8,0,0,0,4.006,8.9c1.4,2.445,6.025,8.307,10.271,13.011s8.478,10.1,9.4,11.984a15.546,15.546,0,0,1,1.686,6.506,15.731,15.731,0,0,1-1.84,6.793,20.691,20.691,0,0,1-3.839,5.417,26.613,26.613,0,0,1-5,3.1,18.076,18.076,0,0,1-7.665,1.418,26.916,26.916,0,0,1-8-1.15,22.487,22.487,0,0,1-5.932-3.41,12.423,12.423,0,0,1-3.186-3.945c-.473-1.363-.087-2.753,1.893-6.848a28.009,28.009,0,0,0,2.779-8.56,18.716,18.716,0,0,0-.606-6.163,16.267,16.267,0,0,0-2.586-4.712,13.862,13.862,0,0,0-3.359-2.842,18.9,18.9,0,0,0-4.666-1.342,9.481,9.481,0,0,0-5.665.65,16.722,16.722,0,0,0-3.9,2.294,12.549,12.549,0,0,0-2.166,3.041,26.369,26.369,0,0,0-1.6,5.307,19.034,19.034,0,0,0,.06,7.362,28.581,28.581,0,0,0,9.018,15.86,47.18,47.18,0,0,0,9,6.335,70.369,70.369,0,0,0,9.918,3.992,59.425,59.425,0,0,0,12.33,1.87c5.639.294,8.565.11,12.664-.815a55.4,55.4,0,0,0,9.331-3.082,51.076,51.076,0,0,0,8-4.992,41.049,41.049,0,0,0,6.452-6.437,47.421,47.421,0,0,0,4.166-7.081,40.472,40.472,0,0,0,2.473-8.56,26.2,26.2,0,0,0,.1-8.9,44.3,44.3,0,0,0-2.6-8.56,62.635,62.635,0,0,0-5.652-9.587c-2.053-2.821-6.625-8.451-10.164-12.5s-6.938-8.362-7.551-9.587a22.218,22.218,0,0,1-1.613-4.965,18.634,18.634,0,0,1,.1-5.821,19.666,19.666,0,0,1,2.953-6.335,14.968,14.968,0,0,1,6.172-5.088c3.466-1.657,4.339-1.794,9.164-1.438a37.316,37.316,0,0,1,9.664,2.061,56.084,56.084,0,0,1,8.458,4.355,152.819,152.819,0,0,1,13.2,10.9c7.351,6.656,9,8.478,8.678,9.587-.22.753-1.713,6.608-3.326,13.011s-4.146,18.264-5.652,26.365-3.812,20.421-5.132,27.393-3.679,17.908-5.239,24.311-3.952,14.724-5.312,18.49a131.471,131.471,0,0,1-5.265,12.327,82.022,82.022,0,0,1-6.1,9.9,48.316,48.316,0,0,1-6.645,7.122,41.647,41.647,0,0,1-6.665,4.321,28.461,28.461,0,0,1-7.112,2.123c-3.279.438-3.972.322-5.185-.863a4.416,4.416,0,0,1-1.386-2.568,7.192,7.192,0,0,1,.52-2.315,15.25,15.25,0,0,1,3.666-3.424c2.419-1.767,3.286-2.89,3.673-4.787a28.314,28.314,0,0,0,.366-5.65,12.9,12.9,0,0,0-2.006-6.211,13.065,13.065,0,0,0-5.179-4.794,13.229,13.229,0,0,0-7-1.719,18.085,18.085,0,0,0-6.685,1.418,22.525,22.525,0,0,0-5.5,3.9,22.826,22.826,0,0,0-3.592,4.753,21.729,21.729,0,0,0-1.426,6.335,19.924,19.924,0,0,0,.733,7.533,22.739,22.739,0,0,0,3.666,6.506,25.851,25.851,0,0,0,5.858,4.924,37.471,37.471,0,0,0,7.258,2.91,43.582,43.582,0,0,0,9.331,1.061,55.66,55.66,0,0,0,9.664-.959,77.569,77.569,0,0,0,9.664-3.054,76.007,76.007,0,0,0,11.331-6.088,96.07,96.07,0,0,0,11.584-9.43,136.685,136.685,0,0,0,9.411-10.252c2.106-2.637,5.532-7.417,7.618-10.615s5.685-9.669,8-14.381,5.419-11.95,6.885-16.093,3.6-10.923,4.732-15.066,2.839-11.08,3.8-15.408,3.006-15.121,4.565-23.968l2.826-16.093c18.422-.055,22.541-.39,26.22-1.294a62.851,62.851,0,0,0,10.331-3.821,41.03,41.03,0,0,0,9.218-6.273,29.166,29.166,0,0,0,5.505-7.1,15.787,15.787,0,0,0,1.606-7.533,13.145,13.145,0,0,0-1.513-6.821,14.651,14.651,0,0,0-3.819-4.294,9.025,9.025,0,0,0-4.665-1.561,15.018,15.018,0,0,0-5,1.267A13.137,13.137,0,0,0,263.6,155a15.492,15.492,0,0,0-2.166,4.232c-.553,1.918-.293,2.993,1.86,7.766,2.366,5.239,2.446,5.636,1.479,7.362a13.226,13.226,0,0,1-4.332,3.664,39.665,39.665,0,0,1-7.312,2.938q-4,1.089-12.33,1.075c-4.579-.007-8.571-.247-8.858-.541s.1-4.218.873-8.738,2.459-13.306,3.752-19.517,3.539-15,4.992-19.517a115.813,115.813,0,0,1,5.412-13.7,40.983,40.983,0,0,1,7.458-10.334c3.646-3.773,5.6-5.2,8.7-6.4a25.482,25.482,0,0,1,8.331-1.6,15.589,15.589,0,0,1,6,.849,7.265,7.265,0,0,1,2.153,1.664,5.1,5.1,0,0,1,.5,2.294,18.231,18.231,0,0,1-2.006,5.478,14.617,14.617,0,0,0-1.993,7.362,11.451,11.451,0,0,0,1.44,5.821,14.212,14.212,0,0,0,2.806,3.424,18.064,18.064,0,0,0,3.406,1.828,17.045,17.045,0,0,0,5.025.842,15.643,15.643,0,0,0,5.665-1.2,15.033,15.033,0,0,0,4.359-3.239,20.817,20.817,0,0,0,2.926-5.766,16,16,0,0,0,.806-7.533,20.113,20.113,0,0,0-2-6.506,22.331,22.331,0,0,0-3.832-4.711,34.2,34.2,0,0,0-5.592-3.678,37.448,37.448,0,0,0-7.665-2.636,55.65,55.65,0,0,0-10-.89A60.468,60.468,0,0,0,263.124,96.168Z" transform="translate(236.68 4999.788)" fill="#fff" stroke="#707070" stroke-width="1"/>
    <path id="Path_1-2" data-name="Path 1" d="M263.124,96.168a61.172,61.172,0,0,0-9.331,3.075,75.17,75.17,0,0,0-10,5.691,82.361,82.361,0,0,0-9.684,8,125.266,125.266,0,0,0-8.345,9.492c-2.193,2.828-5.665,7.91-7.718,11.3s-5.079,8.937-6.732,12.327-4.432,9.861-6.165,14.381-3.193,8.286-3.246,8.368-3.1-2.65-6.765-6.074-8.764-7.848-11.33-9.834a69.091,69.091,0,0,0-8.665-5.663,70,70,0,0,0-8.664-3.547,50.238,50.238,0,0,0-11-1.863,39.87,39.87,0,0,0-11.331.747,54.4,54.4,0,0,0-10.664,3.992,38.941,38.941,0,0,0-16.576,16.1,53.592,53.592,0,0,0-3.166,8.56,28.833,28.833,0,0,0-.74,9.416,48.253,48.253,0,0,0,1.793,9.587,57.8,57.8,0,0,0,4.006,8.9c1.4,2.445,6.025,8.307,10.271,13.011s8.478,10.1,9.4,11.984a15.546,15.546,0,0,1,1.686,6.506,15.731,15.731,0,0,1-1.84,6.793,20.691,20.691,0,0,1-3.839,5.417,26.613,26.613,0,0,1-5,3.1,18.076,18.076,0,0,1-7.665,1.418,26.916,26.916,0,0,1-8-1.15,22.487,22.487,0,0,1-5.932-3.41,12.423,12.423,0,0,1-3.186-3.945c-.473-1.363-.087-2.753,1.893-6.848a28.009,28.009,0,0,0,2.779-8.56,18.716,18.716,0,0,0-.606-6.163,16.267,16.267,0,0,0-2.586-4.712,13.862,13.862,0,0,0-3.359-2.842,18.9,18.9,0,0,0-4.666-1.342,9.481,9.481,0,0,0-5.665.65,16.722,16.722,0,0,0-3.9,2.294,12.549,12.549,0,0,0-2.166,3.041,26.369,26.369,0,0,0-1.6,5.307,19.034,19.034,0,0,0,.06,7.362,28.581,28.581,0,0,0,9.018,15.86,47.18,47.18,0,0,0,9,6.335,70.369,70.369,0,0,0,9.918,3.992,59.425,59.425,0,0,0,12.33,1.87c5.639.294,8.565.11,12.664-.815a55.4,55.4,0,0,0,9.331-3.082,51.076,51.076,0,0,0,8-4.992,41.049,41.049,0,0,0,6.452-6.437,47.421,47.421,0,0,0,4.166-7.081,40.472,40.472,0,0,0,2.473-8.56,26.2,26.2,0,0,0,.1-8.9,44.3,44.3,0,0,0-2.6-8.56,62.635,62.635,0,0,0-5.652-9.587c-2.053-2.821-6.625-8.451-10.164-12.5s-6.938-8.362-7.551-9.587a22.218,22.218,0,0,1-1.613-4.965,18.634,18.634,0,0,1,.1-5.821,19.666,19.666,0,0,1,2.953-6.335,14.968,14.968,0,0,1,6.172-5.088c3.466-1.657,4.339-1.794,9.164-1.438a37.316,37.316,0,0,1,9.664,2.061,56.084,56.084,0,0,1,8.458,4.355,152.819,152.819,0,0,1,13.2,10.9c7.351,6.656,9,8.478,8.678,9.587-.22.753-1.713,6.608-3.326,13.011s-4.146,18.264-5.652,26.365-3.812,20.421-5.132,27.393-3.679,17.908-5.239,24.311-3.952,14.724-5.312,18.49a131.471,131.471,0,0,1-5.265,12.327,82.022,82.022,0,0,1-6.1,9.9,48.316,48.316,0,0,1-6.645,7.122,41.647,41.647,0,0,1-6.665,4.321,28.461,28.461,0,0,1-7.112,2.123c-3.279.438-3.972.322-5.185-.863a4.416,4.416,0,0,1-1.386-2.568,7.192,7.192,0,0,1,.52-2.315,15.25,15.25,0,0,1,3.666-3.424c2.419-1.767,3.286-2.89,3.673-4.787a28.314,28.314,0,0,0,.366-5.65,12.9,12.9,0,0,0-2.006-6.211,13.065,13.065,0,0,0-5.179-4.794,13.229,13.229,0,0,0-7-1.719,18.085,18.085,0,0,0-6.685,1.418,22.525,22.525,0,0,0-5.5,3.9,22.826,22.826,0,0,0-3.592,4.753,21.729,21.729,0,0,0-1.426,6.335,19.924,19.924,0,0,0,.733,7.533,22.739,22.739,0,0,0,3.666,6.506,25.851,25.851,0,0,0,5.858,4.924,37.471,37.471,0,0,0,7.258,2.91,43.582,43.582,0,0,0,9.331,1.061,55.66,55.66,0,0,0,9.664-.959,77.569,77.569,0,0,0,9.664-3.054,76.007,76.007,0,0,0,11.331-6.088,96.07,96.07,0,0,0,11.584-9.43,136.685,136.685,0,0,0,9.411-10.252c2.106-2.637,5.532-7.417,7.618-10.615s5.685-9.669,8-14.381,5.419-11.95,6.885-16.093,3.6-10.923,4.732-15.066,2.839-11.08,3.8-15.408,3.006-15.121,4.565-23.968l2.826-16.093c18.422-.055,22.541-.39,26.22-1.294a62.851,62.851,0,0,0,10.331-3.821,41.03,41.03,0,0,0,9.218-6.273,29.166,29.166,0,0,0,5.505-7.1,15.787,15.787,0,0,0,1.606-7.533,13.145,13.145,0,0,0-1.513-6.821,14.651,14.651,0,0,0-3.819-4.294,9.025,9.025,0,0,0-4.665-1.561,15.018,15.018,0,0,0-5,1.267A13.137,13.137,0,0,0,263.6,155a15.492,15.492,0,0,0-2.166,4.232c-.553,1.918-.293,2.993,1.86,7.766,2.366,5.239,2.446,5.636,1.479,7.362a13.226,13.226,0,0,1-4.332,3.664,39.665,39.665,0,0,1-7.312,2.938q-4,1.089-12.33,1.075c-4.579-.007-8.571-.247-8.858-.541s.1-4.218.873-8.738,2.459-13.306,3.752-19.517,3.539-15,4.992-19.517a115.813,115.813,0,0,1,5.412-13.7,40.983,40.983,0,0,1,7.458-10.334c3.646-3.773,5.6-5.2,8.7-6.4a25.482,25.482,0,0,1,8.331-1.6,15.589,15.589,0,0,1,6,.849,7.265,7.265,0,0,1,2.153,1.664,5.1,5.1,0,0,1,.5,2.294,18.231,18.231,0,0,1-2.006,5.478,14.617,14.617,0,0,0-1.993,7.362,11.451,11.451,0,0,0,1.44,5.821,14.212,14.212,0,0,0,2.806,3.424,18.064,18.064,0,0,0,3.406,1.828,17.045,17.045,0,0,0,5.025.842,15.643,15.643,0,0,0,5.665-1.2,15.033,15.033,0,0,0,4.359-3.239,20.817,20.817,0,0,0,2.926-5.766,16,16,0,0,0,.806-7.533,20.113,20.113,0,0,0-2-6.506,22.331,22.331,0,0,0-3.832-4.711,34.2,34.2,0,0,0-5.592-3.678,37.448,37.448,0,0,0-7.665-2.636,55.65,55.65,0,0,0-10-.89A60.468,60.468,0,0,0,263.124,96.168Z" transform="translate(226.68 4989.788)" fill="#373f54"/>
  </g>
</svg>
