<svg xmlns="http://www.w3.org/2000/svg" width="380.795" height="384.809" viewBox="0 0 380.795 384.809">
  <g id="travel-icon" transform="translate(-694 -97.699)">
    <path id="Path_328" data-name="Path 328" d="M696.048,2308.064l29.893-30.961,44.3,6.939,67.258-70.994,69.927-69.926,73.664-77.934h28.824l21.352,17.617v27.756L950.134,2190.1l-86.479,78.457-55.514,55.514,6.405,46.973-30.96,27.76-24.554-66.191Z" transform="translate(22.435 -1949.676)" fill="#ffd45e"/>
    <ellipse id="Ellipse_82" data-name="Ellipse 82" cx="60" cy="59.5" rx="60" ry="59.5" transform="translate(849.313 185)" fill="#ffd45e"/>
    <g id="plane" transform="translate(704 111.297)">
      <g id="Group_168" data-name="Group 168">
        <path id="Path_327" data-name="Path 327" d="M370.293,44.06A43.613,43.613,0,0,0,326.7,0l-.464,0a43.279,43.279,0,0,0-31.016,13.412L230.4,80.954,60.807,24.828,10.72,74.914l141.732,87.268-58.318,60.77-45.772-7.514L0,263.8l78.871,27.625L106.5,370.3l48.363-48.363-7.514-45.772,60.77-58.318,87.268,141.733L345.47,309.49l-56.126-169.6,67.538-64.814A43.287,43.287,0,0,0,370.293,44.06ZM341.844,59.408l-77.424,74.3L320.643,303.6l-21.18,21.18L212.5,183.537,124.061,268.4l7.561,46.052-16.051,16.051L95.914,274.382,39.789,254.724,55.84,238.674l46.052,7.561L186.758,157.8,45.515,70.833,66.7,49.654l169.893,56.223,74.3-77.424a21.728,21.728,0,0,1,15.57-6.733h.232a21.894,21.894,0,0,1,15.153,37.69Z" fill="#fff" stroke="#707070" stroke-width="1"/>
      </g>
    </g>
    <g id="plane-2" data-name="plane" transform="translate(694 101.297)">
      <g id="Group_168-2" data-name="Group 168">
        <path id="Path_327-2" data-name="Path 327" d="M370.293,44.06A43.613,43.613,0,0,0,326.7,0l-.464,0a43.279,43.279,0,0,0-31.016,13.412L230.4,80.954,60.807,24.828,10.72,74.914l141.732,87.268-58.318,60.77-45.772-7.514L0,263.8l78.871,27.625L106.5,370.3l48.363-48.363-7.514-45.772,60.77-58.318,87.268,141.733L345.47,309.49l-56.126-169.6,67.538-64.814A43.287,43.287,0,0,0,370.293,44.06ZM341.844,59.408l-77.424,74.3L320.643,303.6l-21.18,21.18L212.5,183.537,124.061,268.4l7.561,46.052-16.051,16.051L95.914,274.382,39.789,254.724,55.84,238.674l46.052,7.561L186.758,157.8,45.515,70.833,66.7,49.654l169.893,56.223,74.3-77.424a21.728,21.728,0,0,1,15.57-6.733h.232a21.894,21.894,0,0,1,15.153,37.69Z" fill="#373f54"/>
      </g>
    </g>
    <ellipse id="Ellipse_78" data-name="Ellipse 78" cx="20.747" cy="20.747" rx="20.747" ry="20.747" transform="translate(871.939 97.699)" fill="#ffd45e"/>
    <ellipse id="Ellipse_80" data-name="Ellipse 80" cx="20.747" cy="20.747" rx="20.747" ry="20.747" transform="translate(864.157 384.547)" fill="#ffd45e"/>
    <ellipse id="Ellipse_79" data-name="Ellipse 79" cx="10.303" cy="10.303" rx="10.303" ry="10.303" transform="translate(840.253 97.912)" fill="#ffd45e"/>
    <ellipse id="Ellipse_81" data-name="Ellipse 81" cx="10.303" cy="10.303" rx="10.303" ry="10.303" transform="translate(916.732 405.22)" fill="#ffd45e"/>
  </g>
</svg>
