<svg xmlns="http://www.w3.org/2000/svg" width="415.756" height="362.904" viewBox="0 0 415.756 362.904">
  <g id="vuejs" transform="translate(1.9 8.747)">
    <ellipse id="Ellipse_194" data-name="Ellipse 194" cx="24.912" cy="24.912" rx="24.912" ry="24.912" transform="translate(34.218 210.997)" fill="#3fb17f"/>
    <ellipse id="Ellipse_195" data-name="Ellipse 195" cx="11.652" cy="11.652" rx="11.652" ry="11.652" transform="translate(84.444 295.779)" fill="#3fb17f"/>
    <ellipse id="Ellipse_196" data-name="Ellipse 196" cx="20.091" cy="20.09" rx="20.091" ry="20.09" transform="translate(27.789 307.432)" fill="#3fb17f"/>
    <ellipse id="Ellipse_197" data-name="Ellipse 197" cx="20.894" cy="20.894" rx="20.894" ry="20.894" transform="translate(336.781 146.709)" fill="#3fb17f"/>
    <ellipse id="Ellipse_198" data-name="Ellipse 198" cx="14.465" cy="14.465" rx="14.465" ry="14.465" transform="translate(315.485 226.668)" fill="#3fb17f"/>
    <g id="g10" transform="translate(0 0)">
      <g id="g16" transform="translate(0 0)">
        <path id="Path_451" data-name="Path 451" d="M-121.7,472.532-303.314,787.55-484.932,472.532h107.685l73.933,123.222,73.933-123.222Z" transform="translate(484.932 -472.532)" fill="#a0e4d5"/>
      </g>
    </g>
    <g id="comp_x5F_367-vuejs" transform="translate(14.1 10.253)">
      <g id="Group_296" data-name="Group 296" transform="translate(0)">
        <path id="Path_452" data-name="Path 452" d="M65.1,559.5H-2l-48.619,77.148L-92.41,559.5H-245.5L-50.622,893.4,144.256,559.5Z" transform="translate(245.5 -559.5)" fill="none" stroke="#fff" stroke-linecap="round" stroke-linejoin="round" stroke-miterlimit="10" stroke-width="20"/>
      </g>
    </g>
    <g id="comp_x5F_367-vuejs-2" data-name="comp_x5F_367-vuejs" transform="translate(8.1 1.254)">
      <g id="Group_296-2" data-name="Group 296" transform="translate(0)">
        <path id="Path_452-2" data-name="Path 452" d="M65.1,559.5H-2l-48.619,77.148L-92.41,559.5H-245.5L-50.622,893.4,144.256,559.5Z" transform="translate(245.5 -559.5)" fill="none" stroke="#373f54" stroke-linecap="round" stroke-linejoin="round" stroke-miterlimit="10" stroke-width="20"/>
      </g>
    </g>
  </g>
</svg>
