<svg xmlns="http://www.w3.org/2000/svg" width="425.014" height="333.85" viewBox="0 0 425.014 333.85">
  <g id="woo" transform="translate(902.06 -5654.258)">
    <path id="Path_502" data-name="Path 502" d="M1568.024,2182.013s17.7-30.647,25.876,0,12.939,77.63,12.939,77.63l47.667-74.9,30.646,65.37,27.919-92.609s32.685-12.943,21.79,24.512-27.919,132.79-27.919,132.79l-55.841-74.908-44.263,74.908Z" transform="translate(-2441.215 3581.812)" fill="#bdb3ee"/>
    <g id="Background" transform="translate(-884.578 5727.119)">
      <path id="Subtraction_2" data-name="Subtraction 2" d="M261.181,237.543c-.521,0-23.294-12.538-69.621-38.33l-162.318-.391-4.694-1.791a51.468,51.468,0,0,1-9-4.749,41.878,41.878,0,0,1-7.869-7.587C5.315,181.6,2.831,176.876.3,170.66L.087,101.04C-.116,34.024-.067,31.231,1.4,26.335a45.114,45.114,0,0,1,4.615-9.778A41.432,41.432,0,0,1,13.3,8.491a48.045,48.045,0,0,1,7.338-4.858A52.258,52.258,0,0,1,28.068.99c2.662-.719,14.9-.99,134-.99,44.594,0,107.105.039,209.021.129l4.3,1.721a62.324,62.324,0,0,1,9,4.787,36.971,36.971,0,0,1,8.456,8.057,59.153,59.153,0,0,1,7.19,13.6V170.66l-1.909,4.694a49.63,49.63,0,0,1-5.475,9.34,42.07,42.07,0,0,1-7.87,7.587c-2.86,1.964-7.466,4.164-13.69,6.54l-61.994.2c-34.18.11-61.994.461-62,.782s3.106,8.133,6.923,17.406c3.822,9.294,7.155,17.628,7.431,18.578a2.1,2.1,0,0,1,.006,1.618A.328.328,0,0,1,261.181,237.543ZM34.492,29.182h-.166a18.289,18.289,0,0,0-7.345,1.526,12.446,12.446,0,0,0-4.873,4.623,13.5,13.5,0,0,0-1.838,7.04c-.009,2.151,1.714,14.083,3.84,26.6,2.142,12.56,5.318,29.93,7.08,38.722,1.789,8.92,4.606,21.729,6.281,28.553,1.69,6.914,4.342,16.564,5.914,21.512a122.446,122.446,0,0,0,5,13.3,25.519,25.519,0,0,0,4.607,6.454,8.593,8.593,0,0,0,4.412,2.151,13.983,13.983,0,0,0,4.889-1.471A27.919,27.919,0,0,0,68.55,173.1a96.206,96.206,0,0,0,7.541-10.067c2.329-3.572,9.962-17.96,17.014-32.072,7.057-14.131,12.974-25.627,13.189-25.627s1.229,2.776,2.206,6.063c1.006,3.355,3.4,10.114,5.343,15.066s5.409,12.681,7.736,17.209,5.948,10.838,8.089,14.081c2.134,3.228,5.948,8.316,8.5,11.342a54.237,54.237,0,0,0,8.042,7.823,14.569,14.569,0,0,0,6.97,2.644c.385.031.774.046,1.157.046a11.346,11.346,0,0,0,4.953-1.024,12.854,12.854,0,0,0,4.3-4.209c1.666-2.78,1.792-4.064,2.253-22.881.33-13.257,1.072-24.442,2.206-33.246.949-7.4,2.581-18.451,3.637-24.641,1.06-6.265,3.011-15.916,4.349-21.512s3.414-12.971,4.623-16.427c1.229-3.51,3.285-8.6,4.584-11.343a20.865,20.865,0,0,0,2.378-8.6,14.391,14.391,0,0,0-1.6-6.258A17.329,17.329,0,0,0,181.6,24.77a12.674,12.674,0,0,0-7.2-2.167c-.274-.013-.566-.019-.866-.019a20.387,20.387,0,0,0-6.166.856A8.962,8.962,0,0,0,163.7,26c-.543.833-2.6,4.928-4.5,8.941-1.928,4.075-4.385,10.041-5.476,13.3-1.079,3.23-3.03,10.073-4.349,15.253s-3.414,15.525-4.693,23.077c-1.282,7.622-2.777,17.539-3.333,22.106s-1.2,8.418-1.416,8.425-1.866-4.3-3.677-9.591c-1.805-5.274-4.5-14.317-6.016-20.158-1.511-5.88-3.5-14.477-4.427-19.165a69.266,69.266,0,0,0-3.372-12.078,13.8,13.8,0,0,0-4.021-4.936,8.8,8.8,0,0,0-5.075-1.248c-.48,0-1,.017-1.575.051-3.058.182-4.984.784-6.649,2.081a22,22,0,0,0-3.99,4.287c-.911,1.369-9.193,16.823-18.086,33.746-8.694,16.547-17.025,32.448-17.827,34.028-.731,1.438-1.105,2.08-1.394,2.08-.207,0-.371-.332-.585-.906-.32-.859-2.177-8.93-4.138-17.992-1.99-9.194-4.815-23.581-6.3-32.072-1.506-8.582-3.5-20.513-4.452-26.6-.942-6.048-2.363-12.276-3.168-13.885a11.22,11.22,0,0,0-4.013-4.264A16.143,16.143,0,0,0,34.492,29.182ZM235.547,39.71l-.18,0a51.743,51.743,0,0,0-8.214,1.04,44.1,44.1,0,0,0-9.387,3.45,54.305,54.305,0,0,0-9,6.25,63.729,63.729,0,0,0-8.308,9.59,107.063,107.063,0,0,0-6.359,10.49c-1.3,2.592-3.237,7.154-4.326,10.17a99.29,99.29,0,0,0-3.317,12.516,99.981,99.981,0,0,0-1.33,16.818c0,7.319.428,11.563,1.7,16.818a67.6,67.6,0,0,0,4.968,13.3,49.259,49.259,0,0,0,7.58,10.583,39.842,39.842,0,0,0,8.613,6.462,55.7,55.7,0,0,0,8.6,3.293,52.808,52.808,0,0,0,10.952,1.174h.087a44.48,44.48,0,0,0,10.865-1.252,58.312,58.312,0,0,0,7.822-3.027,48.516,48.516,0,0,0,8.519-6.368,68.47,68.47,0,0,0,8.691-10.083,108.711,108.711,0,0,0,5.671-9.387c1.062-2.1,3-6.837,4.326-10.56a106.787,106.787,0,0,0,3.715-14.863,76.745,76.745,0,0,0,.939-17.992c-.313-6.938-.975-11.584-2.285-16.036a69.351,69.351,0,0,0-4.763-11.538,50.37,50.37,0,0,0-7.017-9.411,41.026,41.026,0,0,0-9.192-6.657,53.579,53.579,0,0,0-10.56-3.676A52.592,52.592,0,0,0,235.547,39.71Zm101.74.023-.226,0a55.5,55.5,0,0,0-7.431.806,48.309,48.309,0,0,0-9.747,3.63,41.661,41.661,0,0,0-10.56,7.588,71.912,71.912,0,0,0-7.83,9.387c-1.719,2.591-4.263,6.977-5.672,9.778a99.887,99.887,0,0,0-4.63,11.343,104.4,104.4,0,0,0-3.106,12.125,110.458,110.458,0,0,0-1.064,15.058,87.561,87.561,0,0,0,1.213,15.254,75.741,75.741,0,0,0,3.528,11.539,57.708,57.708,0,0,0,5.992,10.411,41.351,41.351,0,0,0,8.018,7.862,57.134,57.134,0,0,0,9,4.819c4.113,1.653,5.927,1.885,14.925,1.909l10.225.031c11.138-5.517,14.737-8.064,17.812-11.092a70.4,70.4,0,0,0,7.517-8.855,117.7,117.7,0,0,0,6.039-10.56A102.473,102.473,0,0,0,376.4,118.25a97.923,97.923,0,0,0,2.934-12.907,114.107,114.107,0,0,0,.586-17.6c-.312-9.217-.711-11.951-2.511-17.21a74.839,74.839,0,0,0-4.576-10.56,51.606,51.606,0,0,0-6.79-8.722,35.6,35.6,0,0,0-9.426-6.837,57.655,57.655,0,0,0-10.56-3.583A51.469,51.469,0,0,0,337.286,39.733Z" transform="translate(0 0)" fill="none" stroke="#fff" stroke-width="15"/>
      <path id="Path_2" data-name="Path 2" d="M290.2,87.484a21.565,21.565,0,0,0-5.593,4.091,66.37,66.37,0,0,0-5.71,7.721,57.619,57.619,0,0,0-5.218,11.343,65.024,65.024,0,0,0-2.417,12.907,49.143,49.143,0,0,0,.391,10.56,71.552,71.552,0,0,0,2.621,8.6,24.215,24.215,0,0,0,4.357,7.236,12.153,12.153,0,0,0,5.116,3.012,11.94,11.94,0,0,0,6.454-1.15,25.836,25.836,0,0,0,8.018-5.945,43.125,43.125,0,0,0,6.438-9.215,74.439,74.439,0,0,0,3.919-11.147,56.666,56.666,0,0,0,1.588-12.516,52.923,52.923,0,0,0-1.236-10.951,46.1,46.1,0,0,0-3.325-8.581,18.605,18.605,0,0,0-4.842-5.695,11.068,11.068,0,0,0-5.085-1.768A16.945,16.945,0,0,0,290.2,87.484Zm102.28-.329a25.474,25.474,0,0,0-5.757,4.514,54.316,54.316,0,0,0-6.211,8.409,66.015,66.015,0,0,0-4.7,10.169A57.366,57.366,0,0,0,373.6,121.59a71.389,71.389,0,0,0,.039,10.951,47.2,47.2,0,0,0,2.307,9.387,27.076,27.076,0,0,0,4.17,7.283,14.181,14.181,0,0,0,4.732,3.364,10.111,10.111,0,0,0,5.671-.047,22.984,22.984,0,0,0,7.338-4.146,39.143,39.143,0,0,0,7.071-8.409,55.932,55.932,0,0,0,4.615-10.169,88.572,88.572,0,0,0,2.409-11.734,32.6,32.6,0,0,0-.477-13.3,47.7,47.7,0,0,0-3.646-10.952,20.8,20.8,0,0,0-4.435-5.812,12.356,12.356,0,0,0-5.249-1.776A13.387,13.387,0,0,0,392.479,87.155Z" transform="translate(-59.134 -18.986)" fill="none" stroke="#fff" stroke-width="15"/>
    </g>
    <g id="Background-2" data-name="Background" transform="translate(-894.578 5717.119)">
      <path id="Subtraction_2-2" data-name="Subtraction 2" d="M261.181,237.543c-.521,0-23.294-12.538-69.621-38.33l-162.318-.391-4.694-1.791a51.468,51.468,0,0,1-9-4.749,41.878,41.878,0,0,1-7.869-7.587C5.315,181.6,2.831,176.876.3,170.66L.087,101.04C-.116,34.024-.067,31.231,1.4,26.335a45.114,45.114,0,0,1,4.615-9.778A41.432,41.432,0,0,1,13.3,8.491a48.045,48.045,0,0,1,7.338-4.858A52.258,52.258,0,0,1,28.068.99c2.662-.719,14.9-.99,134-.99,44.594,0,107.105.039,209.021.129l4.3,1.721a62.324,62.324,0,0,1,9,4.787,36.971,36.971,0,0,1,8.456,8.057,59.153,59.153,0,0,1,7.19,13.6V170.66l-1.909,4.694a49.63,49.63,0,0,1-5.475,9.34,42.07,42.07,0,0,1-7.87,7.587c-2.86,1.964-7.466,4.164-13.69,6.54l-61.994.2c-34.18.11-61.994.461-62,.782s3.106,8.133,6.923,17.406c3.822,9.294,7.155,17.628,7.431,18.578a2.1,2.1,0,0,1,.006,1.618A.328.328,0,0,1,261.181,237.543ZM34.492,29.182h-.166a18.289,18.289,0,0,0-7.345,1.526,12.446,12.446,0,0,0-4.873,4.623,13.5,13.5,0,0,0-1.838,7.04c-.009,2.151,1.714,14.083,3.84,26.6,2.142,12.56,5.318,29.93,7.08,38.722,1.789,8.92,4.606,21.729,6.281,28.553,1.69,6.914,4.342,16.564,5.914,21.512a122.446,122.446,0,0,0,5,13.3,25.519,25.519,0,0,0,4.607,6.454,8.593,8.593,0,0,0,4.412,2.151,13.983,13.983,0,0,0,4.889-1.471A27.919,27.919,0,0,0,68.55,173.1a96.206,96.206,0,0,0,7.541-10.067c2.329-3.572,9.962-17.96,17.014-32.072,7.057-14.131,12.974-25.627,13.189-25.627s1.229,2.776,2.206,6.063c1.006,3.355,3.4,10.114,5.343,15.066s5.409,12.681,7.736,17.209,5.948,10.838,8.089,14.081c2.134,3.228,5.948,8.316,8.5,11.342a54.237,54.237,0,0,0,8.042,7.823,14.569,14.569,0,0,0,6.97,2.644c.385.031.774.046,1.157.046a11.346,11.346,0,0,0,4.953-1.024,12.854,12.854,0,0,0,4.3-4.209c1.666-2.78,1.792-4.064,2.253-22.881.33-13.257,1.072-24.442,2.206-33.246.949-7.4,2.581-18.451,3.637-24.641,1.06-6.265,3.011-15.916,4.349-21.512s3.414-12.971,4.623-16.427c1.229-3.51,3.285-8.6,4.584-11.343a20.865,20.865,0,0,0,2.378-8.6,14.391,14.391,0,0,0-1.6-6.258A17.329,17.329,0,0,0,181.6,24.77a12.674,12.674,0,0,0-7.2-2.167c-.274-.013-.566-.019-.866-.019a20.387,20.387,0,0,0-6.166.856A8.962,8.962,0,0,0,163.7,26c-.543.833-2.6,4.928-4.5,8.941-1.928,4.075-4.385,10.041-5.476,13.3-1.079,3.23-3.03,10.073-4.349,15.253s-3.414,15.525-4.693,23.077c-1.282,7.622-2.777,17.539-3.333,22.106s-1.2,8.418-1.416,8.425-1.866-4.3-3.677-9.591c-1.805-5.274-4.5-14.317-6.016-20.158-1.511-5.88-3.5-14.477-4.427-19.165a69.266,69.266,0,0,0-3.372-12.078,13.8,13.8,0,0,0-4.021-4.936,8.8,8.8,0,0,0-5.075-1.248c-.48,0-1,.017-1.575.051-3.058.182-4.984.784-6.649,2.081a22,22,0,0,0-3.99,4.287c-.911,1.369-9.193,16.823-18.086,33.746-8.694,16.547-17.025,32.448-17.827,34.028-.731,1.438-1.105,2.08-1.394,2.08-.207,0-.371-.332-.585-.906-.32-.859-2.177-8.93-4.138-17.992-1.99-9.194-4.815-23.581-6.3-32.072-1.506-8.582-3.5-20.513-4.452-26.6-.942-6.048-2.363-12.276-3.168-13.885a11.22,11.22,0,0,0-4.013-4.264A16.143,16.143,0,0,0,34.492,29.182ZM235.547,39.71l-.18,0a51.743,51.743,0,0,0-8.214,1.04,44.1,44.1,0,0,0-9.387,3.45,54.305,54.305,0,0,0-9,6.25,63.729,63.729,0,0,0-8.308,9.59,107.063,107.063,0,0,0-6.359,10.49c-1.3,2.592-3.237,7.154-4.326,10.17a99.29,99.29,0,0,0-3.317,12.516,99.981,99.981,0,0,0-1.33,16.818c0,7.319.428,11.563,1.7,16.818a67.6,67.6,0,0,0,4.968,13.3,49.259,49.259,0,0,0,7.58,10.583,39.842,39.842,0,0,0,8.613,6.462,55.7,55.7,0,0,0,8.6,3.293,52.808,52.808,0,0,0,10.952,1.174h.087a44.48,44.48,0,0,0,10.865-1.252,58.312,58.312,0,0,0,7.822-3.027,48.516,48.516,0,0,0,8.519-6.368,68.47,68.47,0,0,0,8.691-10.083,108.711,108.711,0,0,0,5.671-9.387c1.062-2.1,3-6.837,4.326-10.56a106.787,106.787,0,0,0,3.715-14.863,76.745,76.745,0,0,0,.939-17.992c-.313-6.938-.975-11.584-2.285-16.036a69.351,69.351,0,0,0-4.763-11.538,50.37,50.37,0,0,0-7.017-9.411,41.026,41.026,0,0,0-9.192-6.657,53.579,53.579,0,0,0-10.56-3.676A52.592,52.592,0,0,0,235.547,39.71Zm101.74.023-.226,0a55.5,55.5,0,0,0-7.431.806,48.309,48.309,0,0,0-9.747,3.63,41.661,41.661,0,0,0-10.56,7.588,71.912,71.912,0,0,0-7.83,9.387c-1.719,2.591-4.263,6.977-5.672,9.778a99.887,99.887,0,0,0-4.63,11.343,104.4,104.4,0,0,0-3.106,12.125,110.458,110.458,0,0,0-1.064,15.058,87.561,87.561,0,0,0,1.213,15.254,75.741,75.741,0,0,0,3.528,11.539,57.708,57.708,0,0,0,5.992,10.411,41.351,41.351,0,0,0,8.018,7.862,57.134,57.134,0,0,0,9,4.819c4.113,1.653,5.927,1.885,14.925,1.909l10.225.031c11.138-5.517,14.737-8.064,17.812-11.092a70.4,70.4,0,0,0,7.517-8.855,117.7,117.7,0,0,0,6.039-10.56A102.473,102.473,0,0,0,376.4,118.25a97.923,97.923,0,0,0,2.934-12.907,114.107,114.107,0,0,0,.586-17.6c-.312-9.217-.711-11.951-2.511-17.21a74.839,74.839,0,0,0-4.576-10.56,51.606,51.606,0,0,0-6.79-8.722,35.6,35.6,0,0,0-9.426-6.837,57.655,57.655,0,0,0-10.56-3.583A51.469,51.469,0,0,0,337.286,39.733Z" transform="translate(0 0)" fill="none" stroke="#373f54" stroke-width="15"/>
      <path id="Path_2-2" data-name="Path 2" d="M290.2,87.484a21.565,21.565,0,0,0-5.593,4.091,66.37,66.37,0,0,0-5.71,7.721,57.619,57.619,0,0,0-5.218,11.343,65.024,65.024,0,0,0-2.417,12.907,49.143,49.143,0,0,0,.391,10.56,71.552,71.552,0,0,0,2.621,8.6,24.215,24.215,0,0,0,4.357,7.236,12.153,12.153,0,0,0,5.116,3.012,11.94,11.94,0,0,0,6.454-1.15,25.836,25.836,0,0,0,8.018-5.945,43.125,43.125,0,0,0,6.438-9.215,74.439,74.439,0,0,0,3.919-11.147,56.666,56.666,0,0,0,1.588-12.516,52.923,52.923,0,0,0-1.236-10.951,46.1,46.1,0,0,0-3.325-8.581,18.605,18.605,0,0,0-4.842-5.695,11.068,11.068,0,0,0-5.085-1.768A16.945,16.945,0,0,0,290.2,87.484Zm102.28-.329a25.474,25.474,0,0,0-5.757,4.514,54.316,54.316,0,0,0-6.211,8.409,66.015,66.015,0,0,0-4.7,10.169A57.366,57.366,0,0,0,373.6,121.59a71.389,71.389,0,0,0,.039,10.951,47.2,47.2,0,0,0,2.307,9.387,27.076,27.076,0,0,0,4.17,7.283,14.181,14.181,0,0,0,4.732,3.364,10.111,10.111,0,0,0,5.671-.047,22.984,22.984,0,0,0,7.338-4.146,39.143,39.143,0,0,0,7.071-8.409,55.932,55.932,0,0,0,4.615-10.169,88.572,88.572,0,0,0,2.409-11.734,32.6,32.6,0,0,0-.477-13.3,47.7,47.7,0,0,0-3.646-10.952,20.8,20.8,0,0,0-4.435-5.812,12.356,12.356,0,0,0-5.249-1.776A13.387,13.387,0,0,0,392.479,87.155Z" transform="translate(-59.134 -18.986)" fill="none" stroke="#373f54" stroke-width="15"/>
    </g>
    <ellipse id="Ellipse_126" cx="18.361" cy="18.361" rx="18.361" ry="18.361" transform="translate(-834.246 5654.258)" fill="#bdb3ee"/>
    <ellipse id="Ellipse_127" cx="18.361" cy="18.361" rx="18.361" ry="18.361" transform="translate(-586.468 5944.374)" fill="#bdb3ee"/>
    <ellipse id="Ellipse_128" cx="7.409" cy="7.409" rx="7.409" ry="7.409" transform="translate(-541.37 5973.29)" fill="#bdb3ee"/>
  </g>
</svg>
