<svg xmlns="http://www.w3.org/2000/svg" width="389.338" height="359.344" viewBox="0 0 389.338 359.344">
  <g id="wordpress" transform="translate(246.777 -555.7)">
    <circle id="Ellipse_199" data-name="Ellipse 199" cx="139.851" cy="139.851" r="139.851" transform="translate(-208.377 635.342)" fill="#32373c" opacity="0.4"/>
    <g id="Group_297" data-name="Group 297" transform="translate(-236.777 587.527)">
      <path id="Path_453" data-name="Path 453" d="M130.39,645.917,48.842,849.787c-3.049,8-10.67,12.957-19.435,13.337h0A21.094,21.094,0,0,1,9.973,850.169L-49.854,708.031l-56.779,140.994a20.556,20.556,0,0,1-19.054,13.337h-.381A21.1,21.1,0,0,1-145.5,849.406L-246.1,610.478a10.006,10.006,0,0,1,4.954-12.575,10,10,0,0,1,12.575,4.954l100.6,238.928c0,.38.381,1.142,1.905,1.142a2.377,2.377,0,0,0,1.905-1.142l64.019-158.9L-91.01,610.1a10.006,10.006,0,0,1,4.954-12.575,10,10,0,0,1,12.575,4.954l32.009,76.212L27.5,842.547c0,.38.381,1.143,1.905,1.143a2.377,2.377,0,0,0,1.905-1.143l81.548-203.87c.381-.38,0-1.143,0-1.9l-38.487-60.59a9.82,9.82,0,0,1,3.048-13.337c4.573-2.667,10.288-1.524,12.956,3.049l38.488,60.59A21.881,21.881,0,0,1,130.39,645.917Z" transform="translate(246.777 -561.428)" fill="#fff" stroke="#707070" stroke-width="1"/>
    </g>
    <g id="Group_298" data-name="Group 298" transform="translate(-246.777 577.527)">
      <path id="Path_454" data-name="Path 454" d="M130.39,645.917,48.842,849.787c-3.049,8-10.67,12.957-19.435,13.337h0A21.094,21.094,0,0,1,9.973,850.169L-49.854,708.031l-56.779,140.994a20.556,20.556,0,0,1-19.054,13.337h-.381A21.1,21.1,0,0,1-145.5,849.406L-246.1,610.478a10.006,10.006,0,0,1,4.954-12.575,10,10,0,0,1,12.575,4.954l100.6,238.928c0,.38.381,1.142,1.905,1.142a2.377,2.377,0,0,0,1.905-1.142l64.019-158.9L-91.01,610.1a10.006,10.006,0,0,1,4.954-12.575,10,10,0,0,1,12.575,4.954l32.009,76.212L27.5,842.547c0,.38.381,1.143,1.905,1.143a2.377,2.377,0,0,0,1.905-1.143l81.548-203.87c.381-.38,0-1.143,0-1.9l-38.487-60.59a9.82,9.82,0,0,1,3.048-13.337c4.573-2.667,10.288-1.524,12.956,3.049l38.488,60.59A21.881,21.881,0,0,1,130.39,645.917Z" transform="translate(246.777 -561.428)" fill="#373f54"/>
    </g>
    <circle id="Ellipse_200" data-name="Ellipse 200" cx="31.628" cy="31.628" r="31.628" transform="translate(-207.996 555.7)" fill="#373f54"/>
    <circle id="Ellipse_201" data-name="Ellipse 201" cx="16.005" cy="16.005" r="16.005" transform="translate(-128.354 587.329)" fill="#373f54"/>
    <circle id="Ellipse_202" data-name="Ellipse 202" cx="25.531" cy="25.531" r="25.531" transform="translate(61.036 859.028)" fill="#373f54"/>
  </g>
</svg>
