<svg xmlns="http://www.w3.org/2000/svg" width="456.8" height="416.611" viewBox="0 0 456.8 416.611">
  <g id="xamarian" transform="translate(253.49 -350.896)">
    <path id="Path_455" data-name="Path 455" d="M-140.954,357.6H33.168a13.088,13.088,0,0,1,11.4,6.579l89.035,153.947a13.98,13.98,0,0,1,0,13.157L45.448,684.353a13.087,13.087,0,0,1-11.4,6.579H-142.27a13.087,13.087,0,0,1-11.4-6.579l-88.157-153.07a13.981,13.981,0,0,1,0-13.157L-152.8,364.179C-149.726,360.232-145.778,357.6-140.954,357.6Z" transform="translate(37.268 24.821)" fill="#a8c1ff"/>
    <path id="Union_5" data-name="Union 5" d="M1600.751-3065.212a13.087,13.087,0,0,1-11.4-6.579L1487.156-3249.86a13.979,13.979,0,0,1,0-13.158L1591.1-3441.526a13.088,13.088,0,0,1,11.4-6.578h202.631a13.089,13.089,0,0,1,11.4,6.578l103.508,178.509a13.979,13.979,0,0,1,0,13.158l-102.192,178.069a14.393,14.393,0,0,1-11.842,6.579Zm2.193-354.822-91.228,157.017a13.978,13.978,0,0,0,0,13.158l89.912,156.139a14.4,14.4,0,0,0,11.842,6.579h179.824a13.09,13.09,0,0,0,11.4-6.579l89.474-156.139a13.984,13.984,0,0,0,0-13.158l-91.228-157.017a13.088,13.088,0,0,0-11.4-6.579H1614.347A13.087,13.087,0,0,0,1602.944-3420.034Zm153.947,257.892-53.169-92.186-52.972,90.871a11.736,11.736,0,0,1-15.35,3.509,10.82,10.82,0,0,1-3.947-14.912l47.806-81.579-48.245-85.965c-3.07-5.264-.877-11.842,4.387-14.913s11.842-.877,14.912,4.386l53.175,94.772,53.4-93.457a10.82,10.82,0,0,1,14.912-3.947,10.821,10.821,0,0,1,3.947,14.911l-48.245,84.211,47.806,83.333a10.821,10.821,0,0,1-3.947,14.912,8.7,8.7,0,0,1-5.019,1.51A11.111,11.111,0,0,1,1756.891-3162.142Z" transform="translate(-1719.068 3820.666)" fill="#fff" stroke="#707070" stroke-width="1"/>
    <path id="Union_4" data-name="Union 4" d="M1600.751-3065.212a13.087,13.087,0,0,1-11.4-6.579L1487.156-3249.86a13.979,13.979,0,0,1,0-13.158L1591.1-3441.526a13.088,13.088,0,0,1,11.4-6.578h202.631a13.089,13.089,0,0,1,11.4,6.578l103.508,178.509a13.979,13.979,0,0,1,0,13.158l-102.192,178.069a14.393,14.393,0,0,1-11.842,6.579Zm2.193-354.822-91.228,157.017a13.978,13.978,0,0,0,0,13.158l89.912,156.139a14.4,14.4,0,0,0,11.842,6.579h179.824a13.09,13.09,0,0,0,11.4-6.579l89.474-156.139a13.984,13.984,0,0,0,0-13.158l-91.228-157.017a13.088,13.088,0,0,0-11.4-6.579H1614.347A13.087,13.087,0,0,0,1602.944-3420.034Zm153.947,257.892-53.169-92.186-52.972,90.871a11.736,11.736,0,0,1-15.35,3.509,10.82,10.82,0,0,1-3.947-14.912l47.806-81.579-48.245-85.965c-3.07-5.264-.877-11.842,4.387-14.913s11.842-.877,14.912,4.386l53.175,94.772,53.4-93.457a10.82,10.82,0,0,1,14.912-3.947,10.821,10.821,0,0,1,3.947,14.911l-48.245,84.211,47.806,83.333a10.821,10.821,0,0,1-3.947,14.912,8.7,8.7,0,0,1-5.019,1.51A11.111,11.111,0,0,1,1756.891-3162.142Z" transform="translate(-1732.068 3811.666)" fill="#373f54"/>
    <ellipse id="Ellipse_203" data-name="Ellipse 203" cx="30" cy="29.5" rx="30" ry="29.5" transform="translate(-253.49 350.896)" fill="#3880ff"/>
    <circle id="Ellipse_204" data-name="Ellipse 204" cx="9.649" cy="9.649" r="9.649" transform="translate(-176.054 363.123)" fill="#3880ff"/>
    <circle id="Ellipse_205" data-name="Ellipse 205" cx="28.07" cy="28.07" r="28.07" transform="translate(124.821 674.525)" fill="#3880ff"/>
    <circle id="Ellipse_206" data-name="Ellipse 206" cx="11.842" cy="11.842" r="11.842" transform="translate(103.33 743.823)" fill="#3880ff"/>
  </g>
</svg>
