<svg xmlns="http://www.w3.org/2000/svg" width="343.555" height="369.905" viewBox="0 0 343.555 369.905">
  <g id="yii" transform="translate(244 -551.1)">
    <path id="Path_459" data-name="Path 459" d="M-126.921,555.8c-29.915,1.081-65.958,38.565-53.7,73.526C-167.649,663.928-159,688.437-157.2,727c31.358-31.717,60.192-65.958,62.715-105.966.721-32.438-14.417-56.226-32.439-65.237Z" transform="translate(158.648 12.24)" fill="#a0e4d5"/>
    <path id="Path_460" data-name="Path 460" d="M-66.042,791.851c-15.5,21.625-38.566,34.6-67.039,37.846l-6.848.72-.721-6.849c-6.127-49.379,18.742-86.863,29.555-100.559,9.371-11.894,16.94-23.068,21.986-33.521h0c-5.407-2.522-11.174-5.046-17.3-7.208-17.661-6.488-33.52-10.452-56.587-17.3-54.425-14.777-68.121-61.632-65.6-93.35a116.476,116.476,0,0,1,42.17-7.93h0c39.286,0,76.771,20.185,100.92,53.344,3.6,5.046,7.208,10.092,10.453,15.5a221.054,221.054,0,0,1,28.113,74.969c.721,4.325,1.442,8.651,1.8,12.974v3.244C-44.777,742.113-49.823,769.144-66.042,791.851Z" transform="translate(39.38 32.814)" fill="#a0e4d5"/>
    <g id="Group_330" data-name="Group 330" transform="translate(-228.242 561.1)">
      <path id="Path_461" data-name="Path 461" d="M-113.826,569.481c15.5,10.453,29.555,34.241,29.195,67.4-2.163,35.682-23.788,69.2-51.181,100.2-5.406-33.16-15.138-60.913-28.113-95.154-6.127-18.021,2.163-34.6,7.929-42.89,10.453-15.138,27.032-26.672,42.17-29.556Zm3.965-18.381c-39.647,1.442-87.584,51.181-71,97.316,17.3,45.774,28.474,78.572,31,129.753C-108.059,736-69.853,690.586-66.61,637.6c.721-42.89-19.824-74.248-43.251-86.5Z" transform="translate(393.887 -551.1)" fill="#fff" stroke="#707070" stroke-width="1"/>
      <g id="Group_302" data-name="Group 302" transform="translate(233.927 201.479)">
        <path id="Path_462" data-name="Path 462" d="M-175.337,623.579c-.721-5.407-1.442-10.812-2.162-16.579l.36,2.162A130.594,130.594,0,0,1-175.337,623.579Z" transform="translate(177.5 -607)" fill="#fff" stroke="#707070" stroke-width="1"/>
      </g>
      <path id="Path_463" data-name="Path 463" d="M-176.9,611.6v3.965a.353.353,0,0,0,.361.361C-176.539,614.484-176.9,613.042-176.9,611.6Z" transform="translate(412.989 -393.54)" fill="#fff" stroke="#707070" stroke-width="1"/>
      <path id="Path_464" data-name="Path 464" d="M-6.313,761.143v-3.965c-.721-5.406-1.442-10.813-2.163-16.579a289.922,289.922,0,0,0-36.043-96.234c-4.325-6.849-8.65-13.7-13.335-20.184-31.357-42.53-79.294-68.481-129.754-68.481v18.022c43.972,0,86.863,22.707,114.976,61.272a208.928,208.928,0,0,1,12.254,18.743,267.407,267.407,0,0,1,25.951,58.75c-3.965-2.523-7.929-4.686-11.894-6.848A279.379,279.379,0,0,0-78.759,691.22c-16.94-6.126-32.8-10.813-51.542-16.219-6.848-1.8-14.417-3.965-22.346-6.488h-.36c-60.552-16.58-70.283-65.237-71.365-89.387a125.48,125.48,0,0,1,36.4-5.405V555.7h0a144.09,144.09,0,0,0-54.064,10.452c-3.244,40.368,14.057,100.56,84.34,119.662,29.555,8.65,50.1,14.056,72.806,22.347,7.93,2.884,15.138,5.767,21.986,9.011h0q-9.732,20.544-28.114,43.252c-14.057,17.661-46.135,65.958-38.205,129.393l1.082,8.651,8.65-1.081c36.4-3.966,65.958-20.906,86.142-48.658C-12.08,819.892-5.952,785.292-6.313,761.143Zm-41.449,77.493c-15.5,21.625-37.124,34.961-64.156,40.007-3.244-51.9,23.067-91.549,35.322-106.686,12.975-16.22,22.707-31.357,29.915-46.135a149.636,149.636,0,0,1,19.1,13.336l1.8,7.569C-21.451,766.189-25.416,807.638-47.762,838.635Z" transform="translate(242.402 -539.119)" fill="#fff" stroke="#707070" stroke-width="1"/>
    </g>
    <g id="Group_303" data-name="Group 303" transform="translate(-238.242 551.1)">
      <path id="Path_461-2" data-name="Path 461" d="M-113.826,569.481c15.5,10.453,29.555,34.241,29.195,67.4-2.163,35.682-23.788,69.2-51.181,100.2-5.406-33.16-15.138-60.913-28.113-95.154-6.127-18.021,2.163-34.6,7.929-42.89,10.453-15.138,27.032-26.672,42.17-29.556Zm3.965-18.381c-39.647,1.442-87.584,51.181-71,97.316,17.3,45.774,28.474,78.572,31,129.753C-108.059,736-69.853,690.586-66.61,637.6c.721-42.89-19.824-74.248-43.251-86.5Z" transform="translate(393.887 -551.1)" fill="#373f54"/>
      <g id="Group_302-2" data-name="Group 302" transform="translate(233.927 201.479)">
        <path id="Path_462-2" data-name="Path 462" d="M-175.337,623.579c-.721-5.407-1.442-10.812-2.162-16.579l.36,2.162A130.594,130.594,0,0,1-175.337,623.579Z" transform="translate(177.5 -607)" fill="#373f54"/>
      </g>
      <path id="Path_463-2" data-name="Path 463" d="M-176.9,611.6v3.965a.353.353,0,0,0,.361.361C-176.539,614.484-176.9,613.042-176.9,611.6Z" transform="translate(412.989 -393.54)" fill="#373f54"/>
      <path id="Path_464-2" data-name="Path 464" d="M-6.313,761.143v-3.965c-.721-5.406-1.442-10.813-2.163-16.579a289.922,289.922,0,0,0-36.043-96.234c-4.325-6.849-8.65-13.7-13.335-20.184-31.357-42.53-79.294-68.481-129.754-68.481v18.022c43.972,0,86.863,22.707,114.976,61.272a208.928,208.928,0,0,1,12.254,18.743,267.407,267.407,0,0,1,25.951,58.75c-3.965-2.523-7.929-4.686-11.894-6.848A279.379,279.379,0,0,0-78.759,691.22c-16.94-6.126-32.8-10.813-51.542-16.219-6.848-1.8-14.417-3.965-22.346-6.488h-.36c-60.552-16.58-70.283-65.237-71.365-89.387a125.48,125.48,0,0,1,36.4-5.405V555.7h0a144.09,144.09,0,0,0-54.064,10.452c-3.244,40.368,14.057,100.56,84.34,119.662,29.555,8.65,50.1,14.056,72.806,22.347,7.93,2.884,15.138,5.767,21.986,9.011h0q-9.732,20.544-28.114,43.252c-14.057,17.661-46.135,65.958-38.205,129.393l1.082,8.651,8.65-1.081c36.4-3.966,65.958-20.906,86.142-48.658C-12.08,819.892-5.952,785.292-6.313,761.143Zm-41.449,77.493c-15.5,21.625-37.124,34.961-64.156,40.007-3.244-51.9,23.067-91.549,35.322-106.686,12.975-16.22,22.707-31.357,29.915-46.135a149.636,149.636,0,0,1,19.1,13.336l1.8,7.569C-21.451,766.189-25.416,807.638-47.762,838.635Z" transform="translate(242.402 -539.119)" fill="#373f54"/>
    </g>
    <circle id="Ellipse_207" data-name="Ellipse 207" cx="31.718" cy="31.718" r="31.718" transform="translate(-216.247 727.349)" fill="#a0e4d5"/>
    <circle id="Ellipse_208" data-name="Ellipse 208" cx="23.067" cy="23.067" r="23.067" transform="translate(-211.562 822.863)" fill="#a0e4d5"/>
    <circle id="Ellipse_209" data-name="Ellipse 209" cx="10.452" cy="10.452" r="10.452" transform="translate(-244 796.551)" fill="#a0e4d5"/>
    <circle id="Ellipse_210" data-name="Ellipse 210" cx="36.403" cy="36.403" r="36.403" transform="translate(20.194 800.516)" fill="#a0e4d5"/>
  </g>
</svg>
