<svg xmlns="http://www.w3.org/2000/svg" width="417.255" height="349.681" viewBox="0 0 417.255 349.681">
  <g id="zend" transform="translate(249.1 -355.1)">
    <circle id="Ellipse_211" data-name="Ellipse 211" cx="120.536" cy="120.536" r="120.536" transform="translate(-236.748 455.617)" fill="#a0e4d5"/>
    <path id="Union_7" data-name="Union 7" d="M-233.837-3283.426c-10.648,0-16.61-12.351-10.222-20.443l111.592-143.536H-250.874a10.545,10.545,0,0,1-10.648-10.649,10.545,10.545,0,0,1,10.648-10.648H-115c10.648,0,16.61,12.352,10.221,20.445l-111.591,143.535h109.036a10.546,10.546,0,0,1,10.648,10.649,10.544,10.544,0,0,1-10.648,10.648Zm169.943-8.093a21.089,21.089,0,0,1,21.3-21.295H5.1a21.088,21.088,0,0,1-21.3,21.295Zm-1.278-73.684a21.09,21.09,0,0,1,21.3-21.3H60.9a21.357,21.357,0,0,1-21.3,21.3Zm0-73.684a21.09,21.09,0,0,1,21.3-21.3H145.233a21.358,21.358,0,0,1-21.3,21.3Z" transform="translate(22.422 3921.967)" fill="#fff" stroke="#707070" stroke-width="1"/>
    <path id="Union_6" data-name="Union 6" d="M-233.837-3283.426c-10.648,0-16.61-12.351-10.222-20.443l111.592-143.536H-250.874a10.545,10.545,0,0,1-10.648-10.649,10.545,10.545,0,0,1,10.648-10.648H-115c10.648,0,16.61,12.352,10.221,20.445l-111.591,143.535h109.036a10.546,10.546,0,0,1,10.648,10.649,10.544,10.544,0,0,1-10.648,10.648Zm169.943-8.093a21.089,21.089,0,0,1,21.3-21.295H5.1a21.088,21.088,0,0,1-21.3,21.295Zm-1.278-73.684a21.09,21.09,0,0,1,21.3-21.3H60.9a21.357,21.357,0,0,1-21.3,21.3Zm0-73.684a21.09,21.09,0,0,1,21.3-21.3H145.233a21.358,21.358,0,0,1-21.3,21.3Z" transform="translate(12.422 3911.967)" fill="#373f54"/>
    <circle id="Ellipse_212" data-name="Ellipse 212" cx="22.574" cy="22.574" r="22.574" transform="translate(-180.101 355.1)" fill="#a0e4d5"/>
    <circle id="Ellipse_213" data-name="Ellipse 213" cx="13.204" cy="13.204" r="13.204" transform="translate(-116.212 381.081)" fill="#a0e4d5"/>
    <circle id="Ellipse_214" data-name="Ellipse 214" cx="7.241" cy="7.241" r="7.241" transform="translate(-84.269 361.915)" fill="#a0e4d5"/>
    <circle id="Ellipse_215" data-name="Ellipse 215" cx="23.852" cy="23.852" r="23.852" transform="translate(66.508 569.764)" fill="#a0e4d5"/>
    <circle id="Ellipse_216" data-name="Ellipse 216" cx="11.5" cy="11.5" r="11.5" transform="translate(47.341 645.578)" fill="#a0e4d5"/>
    <circle id="Ellipse_217" data-name="Ellipse 217" cx="8.093" cy="8.093" r="8.093" transform="translate(82.693 688.596)" fill="#a0e4d5"/>
  </g>
</svg>
