<svg xmlns="http://www.w3.org/2000/svg" width="32.883" height="38.862" viewBox="0 0 32.883 38.862">
  <g id="android-logo" opacity="0.35">
    <g id="Group_40" data-name="Group 40" transform="translate(0 0)">
      <path id="Path_47" data-name="Path 47" d="M44.949,179.141a2.32,2.32,0,0,0-1.7.7,2.293,2.293,0,0,0-.7,1.681v10.042a2.392,2.392,0,0,0,2.405,2.406,2.284,2.284,0,0,0,1.694-.7,2.341,2.341,0,0,0,.689-1.705V181.523a2.392,2.392,0,0,0-2.382-2.382Z" transform="translate(-42.544 -166.553)"/>
      <path id="Path_48" data-name="Path 48" d="M138.765,3.573,140.423.514a.308.308,0,0,0-.117-.467.323.323,0,0,0-.467.14L138.158,3.27a11.714,11.714,0,0,0-9.389,0L127.088.187a.324.324,0,0,0-.467-.14.307.307,0,0,0-.117.467l1.658,3.059a10.24,10.24,0,0,0-4.017,3.585,9.055,9.055,0,0,0-1.495,5.033h21.6a9.058,9.058,0,0,0-1.495-5.033A10.283,10.283,0,0,0,138.765,3.573Zm-9.587,4.449a.876.876,0,0,1-.642.269.836.836,0,0,1-.63-.269.931.931,0,0,1,0-1.284.839.839,0,0,1,.63-.268.908.908,0,0,1,.642,1.552Zm9.844,0a.838.838,0,0,1-.63.269.911.911,0,0,1,0-1.822.839.839,0,0,1,.63.268.931.931,0,0,1,0,1.284Z" transform="translate(-117.022 0)"/>
      <path id="Path_49" data-name="Path 49" d="M123.971,201a2.55,2.55,0,0,0,2.569,2.569h1.728l.024,5.3a2.321,2.321,0,0,0,.7,1.705,2.294,2.294,0,0,0,1.681.7,2.392,2.392,0,0,0,2.405-2.406v-5.3H136.3v5.3a2.405,2.405,0,1,0,4.81,0v-5.3h1.752A2.551,2.551,0,0,0,145.409,201V185.45H123.971Z" transform="translate(-118.249 -172.419)"/>
      <path id="Path_50" data-name="Path 50" d="M444.758,179.141a2.314,2.314,0,0,0-1.682.689,2.284,2.284,0,0,0-.7,1.693v10.042a2.32,2.32,0,0,0,.7,1.705,2.294,2.294,0,0,0,1.682.7,2.392,2.392,0,0,0,2.405-2.406V181.523a2.284,2.284,0,0,0-.7-1.693A2.342,2.342,0,0,0,444.758,179.141Z" transform="translate(-414.28 -166.553)"/>
    </g>
  </g>
</svg>
