<svg xmlns="http://www.w3.org/2000/svg" width="30.727" height="37.736" viewBox="0 0 30.727 37.736">
  <g id="apple" transform="translate(-47.548)" opacity="0.35">
    <path id="Path_51" data-name="Path 51" d="M73.211,20.051a8.538,8.538,0,0,1,4.074-7.185,8.812,8.812,0,0,0-6.9-3.739c-2.939-.3-5.734,1.73-7.225,1.73S59.37,9.171,56.933,9.215a9.233,9.233,0,0,0-7.806,4.731c-3.328,5.775-.852,14.329,2.391,19.013,1.585,2.292,3.475,4.867,5.956,4.775,2.39-.1,3.293-1.546,6.182-1.546s3.7,1.546,6.23,1.5c2.571-.048,4.2-2.336,5.774-4.636a20.808,20.808,0,0,0,2.614-5.367A8.335,8.335,0,0,1,73.211,20.051ZM68.46,6.026A8.317,8.317,0,0,0,70.423,0a8.46,8.46,0,0,0-5.558,2.858,7.911,7.911,0,0,0-2,5.839A7,7,0,0,0,68.46,6.026Z"/>
  </g>
</svg>
