<svg id="Component_1_1" data-name="Component 1 – 1" xmlns="http://www.w3.org/2000/svg" xmlns:xlink="http://www.w3.org/1999/xlink" width="835" height="556" viewBox="0 0 835 556">
  <defs>
    <linearGradient id="linear-gradient" x1="-168.652" y1="79.633" x2="-168.652" y2="79.646" gradientUnits="objectBoundingBox">
      <stop offset="0" stop-color="#f89595"/>
      <stop offset="1" stop-color="#ef5c5c"/>
    </linearGradient>
    <linearGradient id="linear-gradient-2" x1="-170.652" y1="79.633" x2="-170.652" y2="79.646" gradientUnits="objectBoundingBox">
      <stop offset="0" stop-color="#ffdfb0"/>
      <stop offset="1" stop-color="#ffbb78"/>
    </linearGradient>
    <linearGradient id="linear-gradient-3" x1="-172.652" y1="79.633" x2="-172.652" y2="79.646" gradientUnits="objectBoundingBox">
      <stop offset="0" stop-color="#83e78d"/>
      <stop offset="1" stop-color="#4bca55"/>
    </linearGradient>
  </defs>
  <path id="Path_3642" data-name="Path 3642" d="M1416.32,346.824h755a25,25,0,0,1,25,25l20,40a25,25,0,0,1-25,25h-785a25,25,0,0,1-25-25h0l10-40A25,25,0,0,1,1416.32,346.824Z" transform="translate(-1381.32 119.176)" opacity="0.04" style="isolation: isolate"/>
  <g id="Group_2886" data-name="Group 2886" transform="translate(-1381.32 119.176)">
    <g id="Group_1" data-name="Group 1">
      <rect id="Rectangle_726-2" data-name="Rectangle 726-2" width="671.563" height="501.116" rx="15" transform="translate(1463.51 -119.176)" fill="#fff"/>
    </g>
    <g id="Group_53" data-name="Group 53">
      <path id="Path_165" data-name="Path 165" d="M1463.32-79.654h645.618v1.218H1463.32Z" fill="#dde7ef"/>
      <circle id="Ellipse_7" data-name="Ellipse 7" cx="4.872" cy="4.872" r="4.872" transform="translate(1487.682 -104.016)" fill="url(#linear-gradient)"/>
      <circle id="Ellipse_8" data-name="Ellipse 8" cx="4.872" cy="4.872" r="4.872" transform="translate(1507.171 -104.016)" fill="url(#linear-gradient-2)"/>
      <circle id="Ellipse_9" data-name="Ellipse 9" cx="4.872" cy="4.872" r="4.872" transform="translate(1526.66 -104.016)" fill="url(#linear-gradient-3)"/>
    </g>
    <rect id="Rectangle_791" data-name="Rectangle 791" width="620.429" height="406.801" transform="translate(1488.509 -60.088)" fill="#ffecde"/>
    <g id="banner-3-3">
      <g id="Group_2885" data-name="Group 2885">
        <g id="Group_2789" data-name="Group 2789">
          <g id="Group_2788" data-name="Group 2788">
            <path id="Path_3586" data-name="Path 3586" d="M1987.671,106.486s-.514-2.4-1.371-9.084l-7.371-14.569s1.714-3.085,5.485,3.428c1.714,2.914,7.542,1.714,6.685-2.914a5.935,5.935,0,0,0-10.627-2.228s-2.4.171-2.571-1.543c-.343-1.885,5.142-6.513,9.6-5.142a14.628,14.628,0,0,1,5.142,2.914s-1.03-15.255.17-15.426,2.914.857,3.942,17.654c0,0,.514-13.2.857-14.912.174-1.714,2.574-2.913,2.743,1.372,0,.514.857,13.541.857,13.541s1.543-8.57,1.714-9.256c.343-1.885,2.229-1.543,2.4.857.172,1.885.686,9.6.686,9.6l1.029,24h.171" fill="#fff" stroke="#333" stroke-linecap="round" stroke-linejoin="round" stroke-width="1"/>
          </g>
        </g>
        <g id="Group_2799" data-name="Group 2799">
          <g id="Group_2790" data-name="Group 2790">
            <path id="Path_3587" data-name="Path 3587" d="M2011.325,98.6l-27.94-.686-2.742,67.532L1949.1,151.564v.171c-1.885-.857-3.6-1.543-4.456-2.057-17.483-9.427-28.8-10.627-47.65-3.942h0l-35.823,14.4c-6.851,3.255-25.024,6.34-31.194,34.793l-.857,3.428,28.624,20.568,19.711,51.763,23.481,51.934,54.163-1.714,28.281-35.308-24-45.935-14.911-51.42c10.455,7.027,30.166,16.454,53.477,11.484C2023.493,194.243,2011.325,98.6,2011.325,98.6Z" fill="#ffd3b2" stroke="#000" stroke-miterlimit="10" stroke-width="0.5"/>
          </g>
          <g id="Group_2794" data-name="Group 2794">
            <g id="Group_2793" data-name="Group 2793">
              <path id="Path_3589" data-name="Path 3589" d="M1858.606,237.093v-.171c0-.171.171-.343.171-.514.172-.514.514-1.2.857-2.057.685-1.714,1.714-4.285,2.913-7.542a62.335,62.335,0,0,0,2.577-11.656,37.967,37.967,0,0,0-1.029-14.4,27.175,27.175,0,0,0-7.031-12.509,23.267,23.267,0,0,0-10.113-6,19.844,19.844,0,0,0-7.884-.856c-.515,0-.857.171-1.2.171a7.341,7.341,0,0,0-.857.171.625.625,0,0,0-.514.168h0c.171,0,.342-.168.514-.168a7.341,7.341,0,0,1,.857-.171c.342,0,.857-.171,1.2-.171a23.985,23.985,0,0,1,8.057.685,26.808,26.808,0,0,1,10.284,6,28.96,28.96,0,0,1,7.2,12.684,38.83,38.83,0,0,1,1.028,14.569,50.7,50.7,0,0,1-2.742,11.655c-1.028,3.257-2.228,5.828-2.914,7.542a11.418,11.418,0,0,1-1.028,2.057c-.171.171-.171.343-.343.514Z" fill="#1a2e35"/>
            </g>
          </g>
          <g id="Group_2796" data-name="Group 2796">
            <g id="Group_2795" data-name="Group 2795">
              <path id="Path_3590" data-name="Path 3590" d="M1926.138,143.508a1.325,1.325,0,0,1,.514.171l1.371.686a18.91,18.91,0,0,1,4.115,3.771,23.832,23.832,0,0,1,3.943,7.2,70.139,70.139,0,0,1,2.913,9.6c1.885,6.856,3.428,13.026,4.628,17.654.514,2.228,1.028,4.114,1.371,5.313a5.012,5.012,0,0,1,.343,1.543.752.752,0,0,0,.172.514,1.316,1.316,0,0,0-.172-.514,6.969,6.969,0,0,0-.514-1.371c-.343-1.371-.857-3.085-1.543-5.313-1.2-4.628-2.913-10.8-4.8-17.654a70.127,70.127,0,0,0-2.914-9.6,28.2,28.2,0,0,0-3.771-7.2,15.5,15.5,0,0,0-3.942-3.772C1926.652,143.851,1926.138,143.508,1926.138,143.508Z" fill="#1a2e35"/>
            </g>
          </g>
          <g id="Group_2798" data-name="Group 2798" opacity="0.3">
            <g id="Group_2797" data-name="Group 2797">
              <path id="Path_3591" data-name="Path 3591" d="M1936.25,157.049c7.713,21.082,21.767,32.909,41.65,43.536a73.564,73.564,0,0,1-32.737-12"/>
            </g>
          </g>
        </g>
        <g id="Group_2835" data-name="Group 2835">
          <g id="Group_2808" data-name="Group 2808">
            <path id="Path_3596" data-name="Path 3596" d="M1883.8,105.115a2.782,2.782,0,0,0,1.885,2.742,3.218,3.218,0,0,0,3.257-.514c1.542-1.543,1.028-4.285,0-6.17-1.028-2.057-2.4-3.942-2.057-6.17.172-1.714,1.372-3.085,2.229-4.628a9.447,9.447,0,0,0,.171-8.57,7.7,7.7,0,0,0-7.2-4.456c-3.085,0-6.17,1.885-8.913.514-1.885-1.028-2.742-3.428-4.456-4.8-2.571-2.228-6.685-1.371-9.77,0s-6.17,3.428-9.6,3.6c-2.914.171-5.656-1.028-8.4-1.371a15.356,15.356,0,0,0-15.421,8.055c-2.743,5.485-1.713,12.855,2.742,17.14a9.747,9.747,0,0,0,5.828,3.085" fill="#1a2e35"/>
          </g>
          <g id="Group_2828" data-name="Group 2828">
            <g id="Group_2823" data-name="Group 2823">
              <g id="Group_2822" data-name="Group 2822">
                <g id="Group_2809" data-name="Group 2809">
                  <path id="Path_3597" data-name="Path 3597" d="M1887.574,169.219h0a16.957,16.957,0,0,1-21.419-10.782l-.006-.018c-1.714-5.142-3.085-9.427-3.085-9.427s-13.539,2.058-17.827-10.8-10.969-41.479-10.969-41.479L1833.925,95c12.855-11.141,31.195-13.022,47.307-7.2l.857,2.742,16.8,58.276A17.3,17.3,0,0,1,1887.574,169.219Z" fill="#fdfdfd" stroke="#000" stroke-miterlimit="10" stroke-width="1"/>
                </g>
                <g id="Group_2813" data-name="Group 2813">
                  <g id="Group_2810" data-name="Group 2810">
                    <path id="Path_3598" data-name="Path 3598" d="M1845.58,117.862a2.018,2.018,0,0,0-1.028-3.6,1.846,1.846,0,0,0-1.371.343,2.018,2.018,0,0,0,1.025,3.6A3.232,3.232,0,0,0,1845.58,117.862Z" fill="#1a2e35"/>
                  </g>
                  <g id="Group_2812" data-name="Group 2812">
                    <g id="Group_2811" data-name="Group 2811">
                      <path id="Path_3599" data-name="Path 3599" d="M1840.267,114.2c.342.171,1.2-1.2,3.085-1.714,1.715-.514,3.428,0,3.428-.343,0-.171-.342-.514-1.027-.683a5.5,5.5,0,0,0-2.914,0,3.917,3.917,0,0,0-2.229,1.712C1840.267,113.685,1840.1,114.2,1840.267,114.2Z" fill="#1a2e35"/>
                    </g>
                  </g>
                </g>
                <g id="Group_2817" data-name="Group 2817">
                  <g id="Group_2814" data-name="Group 2814">
                    <path id="Path_3600" data-name="Path 3600" d="M1861.864,110.663a1.913,1.913,0,0,0,.128,2.7l.043.039a1.914,1.914,0,0,0,2.7-.127l.039-.044a1.913,1.913,0,0,0-.125-2.7l-.046-.04C1863.92,109.634,1862.72,109.806,1861.864,110.663Z" fill="#1a2e35"/>
                  </g>
                  <g id="Group_2816" data-name="Group 2816">
                    <g id="Group_2815" data-name="Group 2815">
                      <path id="Path_3601" data-name="Path 3601" d="M1859.633,109.914c.343.171,1.2-1.2,3.085-1.714,1.715-.514,3.431,0,3.431-.342,0-.172-.343-.515-1.029-.684a5.5,5.5,0,0,0-2.913,0,3.916,3.916,0,0,0-2.229,1.712C1859.464,109.4,1859.464,109.914,1859.633,109.914Z" fill="#1a2e35"/>
                    </g>
                  </g>
                </g>
                <g id="Group_2819" data-name="Group 2819">
                  <g id="Group_2818" data-name="Group 2818">
                    <path id="Path_3602" data-name="Path 3602" d="M1857.064,126.883c0-.171-1.2,0-3.085.343-.514.171-.857.171-1.028-.171a3.343,3.343,0,0,1-.171-1.371,36.326,36.326,0,0,1,.342-4.114c.343-5.828.343-10.456,0-10.456s-.685,4.628-1.027,10.455c0,1.372-.173,2.745-.173,4.114a3.1,3.1,0,0,0,.343,2.057,1.223,1.223,0,0,0,1.03.514,1.553,1.553,0,0,0,.857-.171A30.768,30.768,0,0,0,1857.064,126.883Z" fill="#1a2e35"/>
                  </g>
                </g>
                <g id="Group_2820" data-name="Group 2820">
                  <path id="Path_3603" data-name="Path 3603" d="M1863.406,126.883c1.543-1.714-4.284,4.285-7.884,5.313a4.976,4.976,0,0,0,6.342.171C1865.292,129.8,1863.406,126.883,1863.406,126.883Z"/>
                </g>
                <g id="Group_2821" data-name="Group 2821">
                  <path id="Path_3604" data-name="Path 3604" d="M1863.749,147.965a35.5,35.5,0,0,0,15.6-9.084s-1.374,8.913-14.743,12Z"/>
                </g>
              </g>
            </g>
            <g id="Group_2827" data-name="Group 2827">
              <g id="Group_2824" data-name="Group 2824">
                <path id="Path_3605" data-name="Path 3605" d="M1883.8,99.458c.171-.171,9.427-3.77,11.312,7.542s-10.284,9.427-10.284,9.256C1884.831,115.913,1883.8,99.458,1883.8,99.458Z" fill="#fdfdfd" stroke="#000" stroke-miterlimit="10" stroke-width="1"/>
              </g>
              <g id="Group_2826" data-name="Group 2826">
                <g id="Group_2825" data-name="Group 2825">
                  <path id="Path_3606" data-name="Path 3606" d="M1887.573,111.629a.76.76,0,0,0,.514.171,1.734,1.734,0,0,0,1.543-.171c1.2-.686,1.885-2.742,1.542-4.8a6.547,6.547,0,0,0-1.027-2.743,2.153,2.153,0,0,0-1.714-1.2c-.686,0-1.029.343-1.029.686-.171.343,0,.514,0,.514a.744.744,0,0,1-.342-.686,2.9,2.9,0,0,1,.342-.857,1.22,1.22,0,0,1,1.029-.514,2.949,2.949,0,0,1,2.4,1.371,6.156,6.156,0,0,1,1.2,3.085c.343,2.228-.514,4.628-2.057,5.313a2.369,2.369,0,0,1-1.886,0C1887.745,111.97,1887.573,111.8,1887.573,111.629Z" fill="#fdfdfd" stroke="#000" stroke-miterlimit="10" stroke-width="1"/>
                </g>
              </g>
            </g>
          </g>
          <g id="Group_2834" data-name="Group 2834">
            <g id="Group_2829" data-name="Group 2829">
              <path id="Path_3607" data-name="Path 3607" d="M1832.9,103.058s8.912,1.543,17.654-6.342c5.828-5.142,13.2-9.084,15.255-8.227s4.456,7.713,11.655,7.884c0,0,3.256,13.369,8.4,11.312s-3.943-21.425-3.943-21.425l-14.4-5.313-14.74,1.2-15.084,6-7.37,7.883Z" fill="#1a2e35"/>
            </g>
            <g id="Group_2831" data-name="Group 2831">
              <g id="Group_2830" data-name="Group 2830">
                <path id="Path_3608" data-name="Path 3608" d="M1879.689,75.12a17.253,17.253,0,0,0-2.743,1.371c-1.371,1.029-1.888,2.4-2.057,2.229-.172,0,.343-1.543,1.885-2.571C1878.146,74.949,1879.689,74.949,1879.689,75.12Z" fill="#1a2e35"/>
              </g>
            </g>
            <g id="Group_2833" data-name="Group 2833">
              <g id="Group_2832" data-name="Group 2832">
                <path id="Path_3609" data-name="Path 3609" d="M1872.832,71.349a4.205,4.205,0,0,1,.686,1.028,9.885,9.885,0,0,1,.857,2.914,9.235,9.235,0,0,1,0,3.085c-.172.686-.343,1.2-.514,1.2a13.832,13.832,0,0,0,0-4.114C1873.518,73.234,1872.661,71.349,1872.832,71.349Z" fill="#1a2e35"/>
              </g>
            </g>
          </g>
        </g>
        <path id="Path_1" data-name="Path 1" d="M1851.579,111.628c1.371,4.628-2.743,10.113-9.427,12.169s-13.2-.171-14.569-4.8,3.085-8.226,9.6-10.285S1850.207,107,1851.579,111.628Z" fill="none" stroke="#1c2e35" stroke-linecap="round" stroke-linejoin="round" stroke-width="1"/>
        <path id="Path_2" data-name="Path 2" d="M1879.345,103.229c1.372,4.628-2.742,10.113-9.427,12.169s-13.2-.171-14.569-4.8,3.086-8.226,9.6-10.285C1871.633,98.258,1877.974,98.6,1879.345,103.229Z" fill="none" stroke="#1c2e35" stroke-linecap="round" stroke-linejoin="round" stroke-width="1"/>
        <g id="Group_2883" data-name="Group 2883">
          <g id="Group_2877" data-name="Group 2877">
            <g id="Group_2870" data-name="Group 2870">
              <path id="Path_3632" data-name="Path 3632" d="M1907.284,275.317l58.276-10.8,8.741,39.251-60.5,10.284Z" fill="#fff"/>
            </g>
            <g id="Group_2872" data-name="Group 2872">
              <g id="Group_2871" data-name="Group 2871">
                <path id="Path_3633" data-name="Path 3633" d="M1965.556,264.517h0c-.171.343-.342.514-.342.686-.343.343-.686,1.028-1.372,1.714-1.2,1.543-2.742,3.6-4.8,6.342-4.113,5.313-9.77,12.684-16.111,20.911l-.172.171-.171-.171a8.188,8.188,0,0,0-1.2-.514c-9.422-4.972-17.821-9.6-24.162-12.856-3.085-1.714-5.485-2.914-7.2-3.942-.857-.514-1.543-.857-1.885-1.028-.171-.171-.343-.171-.514-.343a.169.169,0,0,1-.171-.165v-.005h.171c.171,0,.342.171.514.171a11.17,11.17,0,0,1,2.057,1.029c1.714.857,4.285,2.228,7.37,3.771,6.17,3.257,14.74,7.713,24.167,12.684a8.4,8.4,0,0,0,1.2.514h-.343c6.343-8.23,12.17-15.428,16.284-20.913,2.057-2.571,3.771-4.8,4.971-6.17.509-.686,1.028-1.2,1.371-1.715,0,.171.171,0,.342-.171Z" fill="#1a2e35"/>
              </g>
            </g>
            <g id="Group_2874" data-name="Group 2874">
              <g id="Group_2873" data-name="Group 2873">
                <path id="Path_3634" data-name="Path 3634" d="M1913.8,314.051c-.171,0,3.6-6,8.4-13.2s8.569-13.024,8.741-13.024-3.6,6-8.4,13.2S1913.969,314.051,1913.8,314.051Z" fill="#1a2e35"/>
              </g>
            </g>
            <g id="Group_2876" data-name="Group 2876">
              <g id="Group_2875" data-name="Group 2875">
                <path id="Path_3635" data-name="Path 3635" d="M1974.3,303.768c0,.171-5.485-4.114-12.169-9.256-6.685-5.313-12-9.6-11.831-9.6,0-.166,5.489,4.119,12.173,9.261C1968.988,299.309,1974.3,303.768,1974.3,303.768Z" fill="#1a2e35"/>
              </g>
            </g>
          </g>
          <g id="Group_2878" data-name="Group 2878">
            <path id="Path_3636" data-name="Path 3636" d="M1908.827,284.057s.343,7.542,4.114,7.542c3.6,0,16.626-7.2,18.168-4.628,1.543,2.4-2.4,5.828-2.4,5.828s4.627,0,2.913,2.742-6.855,15.426-11.483,16.626c-6.682,1.714-22.282,2.4-22.282,2.4l4.8-26.738Z" fill="#fff" stroke="#333" stroke-linecap="round" stroke-linejoin="round" stroke-width="1"/>
          </g>
          <g id="Group_2880" data-name="Group 2880">
            <g id="Group_2879" data-name="Group 2879">
              <path id="Path_3637" data-name="Path 3637" d="M1930.08,291.255l-.514.514a14.04,14.04,0,0,1-1.542,1.371,30.868,30.868,0,0,1-5.313,3.771,45.77,45.77,0,0,1-5.829,2.918c-.857.343-1.371.514-1.885.686a2.741,2.741,0,0,1-.686.167,24.188,24.188,0,0,1,2.4-1.2,50.428,50.428,0,0,0,5.827-3.085c2.229-1.371,4.114-2.742,5.313-3.6C1929.223,291.769,1930.08,291.084,1930.08,291.255Z" fill="#fff" stroke="#333" stroke-linecap="round" stroke-linejoin="round" stroke-width="1"/>
            </g>
          </g>
          <g id="Group_2882" data-name="Group 2882">
            <g id="Group_2881" data-name="Group 2881">
              <path id="Path_3638" data-name="Path 3638" d="M1929.909,298.8a6.361,6.361,0,0,1-1.372,1.885,22.819,22.819,0,0,1-4.112,3.771,27.8,27.8,0,0,1-4.972,2.571c-1.371.514-2.228.686-2.228.514,0,0,.857-.343,2.228-.857a27.8,27.8,0,0,0,4.972-2.571,22.749,22.749,0,0,0,4.113-3.6C1929.225,299.483,1929.737,298.626,1929.909,298.8Z" fill="#fff" stroke="#333" stroke-linecap="round" stroke-linejoin="round" stroke-width="1"/>
            </g>
          </g>
        </g>
        <g id="Group_2884" data-name="Group 2884">
          <path id="Path_3639" data-name="Path 3639" d="M1865.462,221.5s-14.231,31.024-10.97,46.621c1.886,8.741,30.167,16.112,48.339,18.34l-5.485,30.338s-67.189-6.342-79.7-33.08c-7.2-15.084.167-52.106,13.707-93.928Z" fill="#ffd3b2" stroke="#000" stroke-miterlimit="10" stroke-width="0.5"/>
        </g>
        <path id="Path_3640" data-name="Path 3640" d="M1830.5,193.729l2.4-8.056,32.566,32.566-7.542,11.312-.514-.514-3.085,8.57Z" fill="#ffd3b2"/>
      </g>
      <g id="Group_2849" data-name="Group 2849">
        <g id="Group_2845" data-name="Group 2845">
          <g id="Group_2836" data-name="Group 2836">
            <path id="Path_3" data-name="Path 3" d="M1786.658,217.793s17.536,37.216,17.536,39.359c0,1.949-15.588,10.327-18.511,12.081a70.45,70.45,0,0,1-7.014,3.507l1.754,17.342s26.694-6.04,37.8-12.081,10.717-13.055,8.183-23.187-19.873-49.686-19.873-49.686Z" fill="#fff" stroke="#333" stroke-linecap="round" stroke-linejoin="round" stroke-width="1"/>
            <path id="Path_3610" data-name="Path 3610" d="M1818.418,278c11.106-6.04,10.716-13.055,8.183-23.187s-19.874-49.686-19.874-49.686L1804,206.882l-.974,1.754s16.172,39.553,17.146,52.608c.585,8.768-17.146,19.875-28.837,26.11C1799.907,285.016,1811.793,281.508,1818.418,278Z" fill="#ffd3b2"/>
            <path id="Path_4" data-name="Path 4" d="M1660.591,209.61s-12.665,46.764-13.254,54.947c-.39,8.184,25.33,24.551,26.3,25.525s-1.364-28.448-1.364-28.448l8.777-42.671Z" fill="#fff" stroke="#333" stroke-linecap="round" stroke-linejoin="round" stroke-width="1"/>
            <path id="Path_3611" data-name="Path 3611" d="M1673.646,280.729c-7.6-6.43-18.709-15.588-19.875-19.485-1.948-5.846,12.666-47.74,12.666-47.74l-.2-1.167-5.646-2.533s-12.665,46.764-13.254,54.947c-.39,8.184,25.33,24.551,26.3,25.525C1674.23,290.471,1674.037,286.185,1673.646,280.729Z" fill="#ffd3b2"/>
          </g>
          <g id="Group_2837" data-name="Group 2837">
            <path id="Path_5" data-name="Path 5" d="M1720.6,162.652s-4.871,3.507-14.614,3.9c-9.547.389-10.132-6.625-22.017-6.43-14.419,0-32.54,45.785-32.54,45.785s8.963,8.768,17.926,12.47a62.812,62.812,0,0,0,15.393,4.482l1.364,30.007h97.424l1.169-30.007,30.4-19.874s-15-26.694-22.213-36.631-19.485-6.235-23.187-3.7-14.808,3.118-18.9,2.533-15.786-4.286-15.786-4.286S1728.788,155.637,1720.6,162.652Z" fill="#ffd3b2" stroke="#000" stroke-miterlimit="10" stroke-width="0.5"/>
            <line id="Line_1" data-name="Line 1" x1="0.39" y2="49.686" transform="translate(1685.142 173.368)" fill="none" stroke="#333" stroke-linecap="round" stroke-linejoin="round" stroke-width="0.5"/>
            <path id="Path_6" data-name="Path 6" d="M1689.233,177.85s1.364,24.356,6.43,37.8" fill="none" stroke="#333" stroke-linecap="round" stroke-linejoin="round" stroke-width="0.5"/>
            <path id="Path_7" data-name="Path 7" d="M1696.638,217.6s2.533,7.209,4.092,9.548" fill="none" stroke="#333" stroke-linecap="round" stroke-linejoin="round" stroke-width="0.5"/>
            <path id="Path_8" data-name="Path 8" d="M1692.351,175.122s2.923,14.614,7.794,25.915" fill="none" stroke="#333" stroke-linecap="round" stroke-linejoin="round" stroke-width="0.5"/>
            <path id="Path_9" data-name="Path 9" d="M1776.915,179.408s-4.676,19.29-8.768,27.863" fill="none" stroke="#333" stroke-linecap="round" stroke-linejoin="round" stroke-width="0.5"/>
            <line id="Line_2" data-name="Line 2" x1="0.195" y1="38.775" transform="translate(1784.319 184.085)" fill="none" stroke="#333" stroke-linecap="round" stroke-linejoin="round" stroke-width="0.5"/>
            <path id="Path_10" data-name="Path 10" d="M1782.37,184.864s-3.507,24.551-12.08,37.411" fill="none" stroke="#333" stroke-linecap="round" stroke-linejoin="round" stroke-width="0.5"/>
            <path id="Path_11" data-name="Path 11" d="M1778.084,217.4s-3.9,7.4-6.625,11.3" fill="none" stroke="#333" stroke-linecap="round" stroke-linejoin="round" stroke-width="0.5"/>
            <path id="Path_12" data-name="Path 12" d="M1715.148,165.574s2.728,16.952,6.625,25.525,10.717,10.327,16.757,7.794c5.846-2.533,10.132-15.2,9.743-31.176" fill="none" stroke="#333" stroke-linecap="round" stroke-linejoin="round" stroke-width="0.5"/>
          </g>
          <g id="Group_2838" data-name="Group 2838">
            <path id="Path_13" data-name="Path 13" d="M1701.119,130.306s-3.7-6.43-6.625-3.118,2.338,10.912,5.261,13.64c2.923,2.533,5.066.974,4.871-1.754C1704.432,136.151,1701.119,130.306,1701.119,130.306Z" fill="#ffd3b2" stroke="#000" stroke-miterlimit="10" stroke-width="0.5"/>
            <path id="Path_14" data-name="Path 14" d="M1760.548,130.306s3.7-6.43,6.625-3.118-2.338,10.912-5.26,13.64c-2.923,2.533-5.066.974-4.871-1.754C1757.236,136.151,1760.548,130.306,1760.548,130.306Z" fill="#ffd3b2" stroke="#000" stroke-miterlimit="10" stroke-width="0.5"/>
            <path id="Path_15" data-name="Path 15" d="M1718.851,161.287s3.507,15.978,7.014,24.746,10.132,8.768,13.055,3.118c2.731-5.651,4.482-26.89,4.482-26.89S1724.891,164.794,1718.851,161.287Z" fill="#fff" stroke="#333" stroke-linecap="round" stroke-linejoin="round" stroke-width="1"/>
            <path id="Path_16" data-name="Path 16" d="M1701.509,132.449s5.066,18.121,14.809,28.643c9.548,10.519,13.248,13.25,18.316,12.275,5.066-.779,10.522-7.4,18.316-21.433,7.6-14.029,8.183-24.551,8.768-25.525s-1.559-20.654-12.471-29.032-23.187-12.081-33.709-2.923C1704.627,103.811,1698,118.811,1701.509,132.449Z" fill="#fff" stroke="#333" stroke-linecap="round" stroke-linejoin="round" stroke-width="1"/>
            <path id="Path_3612" data-name="Path 3612" d="M1749.052,97.572c-10.912-8.379-23.187-12.081-33.709-2.923s-17.342,24.357-13.834,37.8a77.852,77.852,0,0,0,2.923,8.184,5.381,5.381,0,0,1,.195-1.754c2.338-7.4,9.353-21.823,32.54-15.2,18.513,5.263,16.171,21.436,14.413,30.2.389-.585.584-1.169.974-1.754,7.6-14.029,8.183-24.551,8.768-25.525C1762.106,125.63,1759.963,105.95,1749.052,97.572Z" fill="#ffd3b2"/>
            <path id="Path_17" data-name="Path 17" d="M1734.438,141.8s-1.166,7.6-.974,11.5,1.364,5.066-.39,5.456-3.7-2.342-3.7-2.342" fill="none" stroke="#333" stroke-linecap="round" stroke-linejoin="round" stroke-width="1"/>
            <path id="Path_18" data-name="Path 18" d="M1727.423,138.295s-3.7-9.158-16.172-4.872" fill="none" stroke="#333" stroke-linecap="round" stroke-linejoin="round" stroke-width="1"/>
            <path id="Path_19" data-name="Path 19" d="M1737.751,137.32s3.117-8.963,14.419-3.7" fill="none" stroke="#333" stroke-linecap="round" stroke-linejoin="round" stroke-width="1"/>
            <path id="Path_20" data-name="Path 20" d="M1729.761,145.7c0,5.066-5.845,9.158-13.055,9.158s-13.054-4.092-13.054-9.158,5.456-7.209,12.47-7.209C1723.526,138.49,1729.761,140.633,1729.761,145.7Z" fill="none" stroke="#333" stroke-linecap="round" stroke-linejoin="round" stroke-width="1"/>
            <path id="Path_21" data-name="Path 21" d="M1759.573,145.7c0,5.066-5.845,9.158-13.055,9.158s-13.054-4.092-13.054-9.158,5.456-7.209,12.47-7.209S1759.573,140.633,1759.573,145.7Z" fill="none" stroke="#333" stroke-linecap="round" stroke-linejoin="round" stroke-width="1"/>
          </g>
          <g id="Group_2840" data-name="Group 2840">
            <path id="Path_22" data-name="Path 22" d="M2046.273,338.4l-8.695-5.264-20.287-29.419c-1.739-2.727-6.086-4.481-10.723-4.481H1612.125c-4.637,0-8.695,1.754-10.724,4.481l-25.214,36.827-4.057-.974v8.378l.29-.2c.29,2.143,3.188,4.092,6.956,4.092h460.231c4.058,0,6.956-1.948,6.956-4.287Z" fill="#333" stroke="#333" stroke-linecap="round" stroke-linejoin="round" stroke-width="1"/>
            <path id="Path_23" data-name="Path 23" d="M2039.6,344.055H1579.1c-5.216,0-8.4-3.312-6.376-6.235l28.691-41.7c1.739-2.725,6.086-4.479,10.723-4.479h394.426c4.637,0,8.694,1.754,10.722,4.482l28.691,41.7C2048,340.741,2044.525,344.055,2039.6,344.055Z" fill="#fff" stroke="#333" stroke-linecap="round" stroke-linejoin="round" stroke-width="1"/>
            <path id="Path_3613" data-name="Path 3613" d="M1592.589,316s-7.014,4.872-2.529,6.621c4.287,1.754,54.752.39,60.793-1.364s13.05-17.922,13.05-20.65c0-2.533-8.768-4.486-12.08-4.676s-46.179,2.533-46.179,2.533Z" fill="#f4bd58"/>
            <ellipse id="Ellipse_119" data-name="Ellipse 119" cx="17.926" cy="7.404" rx="17.926" ry="7.404" transform="translate(1825.043 309.372)" fill="#fcd392"/>
            <ellipse id="Ellipse_120" data-name="Ellipse 120" cx="64.3" cy="12.081" rx="64.3" ry="12.081" transform="translate(1664.488 309.372)" fill="#f4bd58"/>
          </g>
          <g id="Group_2841" data-name="Group 2841">
            <path id="Path_24" data-name="Path 24" d="M1829.911,287.549s-1.167-4.677-5.064-3.118-3.507,11.882-2.728,17.926,6.04,3.118,6.04,3.118v-3.508s-1.948,1.559-2.922-.584-.779-13.055.195-12.67c.974.195,2.923,3.507,2.923,3.507S1828.939,291.641,1829.911,287.549Z" fill="#f4bd58" stroke="#000" stroke-miterlimit="10" stroke-width="1"/>
            <path id="Path_25" data-name="Path 25" d="M1827.186,288.328v25.72c0,3.118,7.015,5.456,15.588,5.456s15.588-2.533,15.588-5.456v-25.72Z" fill="#f4bd58"/>
            <path id="Path_26" data-name="Path 26" d="M1858.167,288.328c0,2.533-7.015,4.676-15.588,4.676s-15.588-2.143-15.588-4.676,7.014-4.676,15.588-4.676C1851.347,283.652,1858.167,285.8,1858.167,288.328Z" fill="#fff" stroke="#333" stroke-linecap="round" stroke-linejoin="round" stroke-width="1"/>
            <path id="Path_27" data-name="Path 27" d="M1856.218,288.329c0,2.338-6.04,4.092-13.639,4.092s-13.64-1.754-13.64-4.092,6.04-4.092,13.639-4.092S1856.218,285.991,1856.218,288.329Z" fill="#fff" stroke="#333" stroke-linecap="round" stroke-linejoin="round" stroke-width="1"/>
            <path id="Path_28" data-name="Path 28" d="M1832.251,290.862a36.287,36.287,0,0,0,21.044,0,30.713,30.713,0,0,0-10.522-1.559A44.678,44.678,0,0,0,1832.251,290.862Z" fill="#333" stroke="#333" stroke-linecap="round" stroke-linejoin="round" stroke-width="1"/>
          </g>
          <g id="Group_2842" data-name="Group 2842">
            <path id="Path_29" data-name="Path 29" d="M1590.64,300.018l.195,8.963,59.429.585V299.239Z" fill="#fff" stroke="#333" stroke-linecap="round" stroke-linejoin="round" stroke-width="1"/>
            <path id="Path_30" data-name="Path 30" d="M1650.263,309.566l8.574-18.705V285.4l-8.963,15.588Z" fill="#fff" stroke="#333" stroke-linecap="round" stroke-linejoin="round" stroke-width="1"/>
            <path id="Path_31" data-name="Path 31" d="M1590.64,308.2l.195,8.769,59.429.585V307.423Z" fill="#fff" stroke="#333" stroke-linecap="round" stroke-linejoin="round" stroke-width="1"/>
            <path id="Path_32" data-name="Path 32" d="M1650.263,317.555l8.574-18.7v-5.456l-8.963,15.783Z" fill="#fff" stroke="#333" stroke-linecap="round" stroke-linejoin="round" stroke-width="1"/>
            <g id="Group_2" data-name="Group 2">
              <path id="Path_33" data-name="Path 33" d="M1613.635,277.806s1.364-2.728-.585-3.9-4.092,1.559-5.261,2.533-25.917,17.345-26.7,19.878,0,8.184,5.261,8.768,9.937-2.923,12.276-3.507,3.312-.779,3.312-.779l16.367-22.019Z" fill="#fff" stroke="#333" stroke-linecap="round" stroke-linejoin="round" stroke-width="1"/>
              <path id="Path_34" data-name="Path 34" d="M1586.159,305.085c5.261.585,9.937-2.923,12.276-3.507s3.311-.783,3.311-.783l.585-.779-15.393-3.115a5.1,5.1,0,0,0-6.235-.584C1580.118,298.655,1580.9,304.5,1586.159,305.085Z" fill="#fff" stroke="#333" stroke-linecap="round" stroke-linejoin="round" stroke-width="1"/>
              <path id="Path_35" data-name="Path 35" d="M1587.328,296.711h45.984c14.419,0,18.7-.779,18.7-.779l8.768-18.321s-27.863,1.754-36.436,1.169-10.521-1.169-10.521-1.169Z" fill="#fff" stroke="#333" stroke-linecap="round" stroke-linejoin="round" stroke-width="1"/>
              <path id="Path_36" data-name="Path 36" d="M1587.328,296.706l.779,3.508s37.221.2,47.153.2c9.742,0,17.342.39,17.342.39l-.585-4.872Z" fill="#fff" stroke="#333" stroke-linecap="round" stroke-linejoin="round" stroke-width="1"/>
              <path id="Path_37" data-name="Path 37" d="M1652.407,300.8l8.183-18.705v-4.287l-8.768,18.121Z" fill="#fff" stroke="#333" stroke-linecap="round" stroke-linejoin="round" stroke-width="1"/>
            </g>
          </g>
          <g id="Group_2843" data-name="Group 2843">
            <path id="Path_38" data-name="Path 38" d="M1784.9,323.014H1672.477a1.954,1.954,0,0,1-1.949-1.951h0a1.953,1.953,0,0,1,1.949-1.949H1784.9a1.952,1.952,0,0,1,1.949,1.949h0A1.954,1.954,0,0,1,1784.9,323.014Z" fill="#fff" stroke="#333" stroke-linecap="round" stroke-linejoin="round" stroke-width="1"/>
            <path id="Path_39" data-name="Path 39" d="M1785.879,319.114H1671.5a1.707,1.707,0,0,1-1.754-1.559l-6.235-74.821a1.746,1.746,0,0,1,1.738-1.754h126.862a1.745,1.745,0,0,1,1.754,1.738v.016l-6.235,74.822A1.707,1.707,0,0,1,1785.879,319.114Z" fill="#fff" stroke="#333" stroke-linecap="round" stroke-linejoin="round" stroke-width="1"/>
            <path id="Path_40" data-name="Path 40" d="M1739.5,281.314c0,4.482-4.871,7.989-10.717,7.989s-10.716-3.7-10.716-7.989c0-4.482,4.871-7.989,10.717-7.989S1739.5,276.832,1739.5,281.314Z" fill="#fff" stroke="#333" stroke-linecap="round" stroke-linejoin="round" stroke-width="1"/>
          </g>
          <g id="Group_2844" data-name="Group 2844">
            <path id="Path_41" data-name="Path 41" d="M1851.348,222.859a11.038,11.038,0,0,0,3.507-5.456,8.26,8.26,0,0,0-.194-4.871" fill="none" stroke="#333" stroke-linecap="round" stroke-linejoin="round" stroke-width="1"/>
            <path id="Path_42" data-name="Path 42" d="M1838.293,281.508s10.912-6.43,7.4-14.029-15.584-12.47-15.584-24.161c0-10.132,10.717-13.834,17.731-17.926" fill="none" stroke="#333" stroke-linecap="round" stroke-linejoin="round" stroke-width="1"/>
            <path id="Path_43" data-name="Path 43" d="M1848.23,281.314s6.04-4.092,6.04-10.522c0-4.287-4.676-7.209-10.716-14.029" fill="none" stroke="#333" stroke-linecap="round" stroke-linejoin="round" stroke-width="1"/>
            <path id="Path_44" data-name="Path 44" d="M1840.241,252.476s-3.9-3.118-.974-8.963" fill="none" stroke="#333" stroke-linecap="round" stroke-linejoin="round" stroke-width="1"/>
          </g>
          <path id="Path_3614" data-name="Path 3614" d="M1715.148,121.538s15.2-.39,29.032,6.82,24.548-6.625,18.121-13.445,8.573,7.4,10.911-.974-19.289-37.993-40.917-38.385-26.889,13.639-26.889,13.639-2.533-7.209-4.478-3.312a17.281,17.281,0,0,0-1.948,7.015,58.32,58.32,0,0,0-6.239,5.26c-1.949,1.949.587,4.09.587,4.09s-3.9,10.134-1.756,17.733l11.106,16.757a8.623,8.623,0,0,0,6.82-3.7c2.923-3.9.78-16.172.78-16.172s.2,13.25,3.507,10.327-1.757-15.785-1.757-15.785Z" fill="#1a2e35"/>
        </g>
        <g id="Group_3" data-name="Group 3">
          <path id="Path_45" data-name="Path 45" d="M1662.929,146.285H1578.17a5.447,5.447,0,0,1-5.456-5.436V111.407a5.446,5.446,0,0,1,5.436-5.456h84.779a5.445,5.445,0,0,1,5.456,5.436v29.442a5.446,5.446,0,0,1-5.436,5.456Z" fill="#333" stroke="#333" stroke-linecap="round" stroke-linejoin="round" stroke-width="1"/>
          <g id="Group_2846" data-name="Group 2846">
            <path id="Path_3615" data-name="Path 3615" d="M1584.015,111.407l.39.779c-2.143,1.169-4.092,3.313-4.092,5.651a3.1,3.1,0,0,0,2.876,3.308l.05,0c.39,0,.585-.195.585-.39a.419.419,0,0,0-.39-.39,1.786,1.786,0,0,1-1.367-1.947,2.51,2.51,0,0,1,2.475-2.543,2.368,2.368,0,0,1,.253.01,2.83,2.83,0,0,1,2.728,2.918,3.541,3.541,0,0,1-3.571,3.51l-.129,0a4.146,4.146,0,0,1-4.484-4.282C1579.339,115.107,1581.482,112.771,1584.015,111.407Zm9.548,0,.39.779c-2.144,1.169-4.092,3.313-4.092,5.651a3.1,3.1,0,0,0,2.876,3.309l.047,0c.39,0,.585-.195.585-.39a.419.419,0,0,0-.39-.39,1.786,1.786,0,0,1-1.364-1.948,2.51,2.51,0,0,1,2.477-2.542,2.266,2.266,0,0,1,.247.01,2.83,2.83,0,0,1,2.731,2.918,3.541,3.541,0,0,1-3.571,3.51l-.129,0a4.144,4.144,0,0,1-4.472-3.784,4.376,4.376,0,0,1-.011-.5C1588.886,115.107,1591.03,112.771,1593.563,111.407Z" fill="#f4bd58"/>
          </g>
          <line id="Line_3" data-name="Line 3" x2="54.557" transform="translate(1602.526 119.785)" fill="none" stroke="#fff" stroke-linecap="round" stroke-linejoin="round" stroke-width="1"/>
          <line id="Line_4" data-name="Line 4" x2="54.557" transform="translate(1602.526 124.462)" fill="none" stroke="#fff" stroke-linecap="round" stroke-linejoin="round" stroke-width="1"/>
          <line id="Line_5" data-name="Line 5" x2="54.557" transform="translate(1602.526 129.138)" fill="none" stroke="#fff" stroke-linecap="round" stroke-linejoin="round" stroke-width="1"/>
          <line id="Line_6" data-name="Line 6" x2="54.557" transform="translate(1602.526 133.814)" fill="none" stroke="#fff" stroke-linecap="round" stroke-linejoin="round" stroke-width="1"/>
        </g>
        <g id="Group_4" data-name="Group 4">
          <circle id="Ellipse_1" data-name="Ellipse 1" cx="20.654" cy="20.654" r="20.654" transform="translate(1593.872 182.926)" fill="#333" stroke="#333" stroke-linecap="round" stroke-linejoin="round" stroke-width="1"/>
          <circle id="Ellipse_2" data-name="Ellipse 2" cx="17.338" cy="17.338" r="17.338" transform="translate(1597.235 186.215)" fill="#fff" stroke="#333" stroke-linecap="round" stroke-linejoin="round" stroke-width="1"/>
          <path id="Path_46" data-name="Path 46" d="M1614.607,190.9v12.665h8.378" fill="none" stroke="#333" stroke-linecap="round" stroke-linejoin="round" stroke-width="2"/>
        </g>
        <g id="Group_2848" data-name="Group 2848">
          <path id="Path_47" data-name="Path 47" d="M1966.5,5.409h-48.516a7.32,7.32,0,0,0-7.21,7.209V38.533a7.321,7.321,0,0,0,7.21,7.21h1.558c-1.558,3.312-4.482,8.378-9.158,11.5,0,0,9.937-.779,20.069-11.5H1966.5a7.322,7.322,0,0,0,7.209-7.209V12.618a7.072,7.072,0,0,0-6.934-7.209C1966.685,5.407,1966.594,5.407,1966.5,5.409Z" fill="#333" stroke="#333" stroke-linecap="round" stroke-linejoin="round" stroke-width="1"/>
          <g id="Group_2847" data-name="Group 2847">
            <path id="Path_48" data-name="Path 48" d="M1933.958,24.5a3.7,3.7,0,0,0-3.7-3.7,3.832,3.832,0,0,0-3.7,3.7,3.7,3.7,0,0,0,7.4,0Z" fill="#f4bd58"/>
            <path id="Path_49" data-name="Path 49" d="M1946.428,24.5a3.7,3.7,0,1,0-3.7,3.7h0a3.584,3.584,0,0,0,3.7-3.463Q1946.433,24.62,1946.428,24.5Z" fill="#f4bd58"/>
            <path id="Path_50" data-name="Path 50" d="M1959.093,24.5a3.7,3.7,0,1,0-3.7,3.7h0a3.584,3.584,0,0,0,3.7-3.463Q1959.1,24.62,1959.093,24.5Z" fill="#f4bd58"/>
          </g>
        </g>
        <ellipse id="Ellipse_121" data-name="Ellipse 121" cx="1.364" cy="0.779" rx="1.364" ry="0.779" transform="translate(1717.681 145.115)" fill="none" stroke="#333" stroke-linecap="round" stroke-linejoin="round" stroke-width="1"/>
        <ellipse id="Ellipse_122" data-name="Ellipse 122" cx="1.364" cy="0.779" rx="1.364" ry="0.779" transform="translate(1741.842 144.141)" fill="none" stroke="#333" stroke-linecap="round" stroke-linejoin="round" stroke-width="1"/>
      </g>
    </g>
  </g>
</svg>
