<svg xmlns="http://www.w3.org/2000/svg" width="34.52" height="34.52" viewBox="0 0 34.52 34.52">
  <g id="email" transform="translate(-0.001)">
    <g id="Group_1158" data-name="Group 1158" transform="translate(0.001)">
      <path id="Path_1743" data-name="Path 1743" d="M17.261,0a17.26,17.26,0,1,0,17.26,17.26A17.26,17.26,0,0,0,17.261,0Zm0,6.062,10.214,6.369H7.047ZM27.6,22.6h0a1.849,1.849,0,0,1-1.849,1.849H8.77A1.849,1.849,0,0,1,6.921,22.6V12.837a1.84,1.84,0,0,1,.029-.316l9.759,6.085c.012.007.025.013.037.019l.039.021a1.024,1.024,0,0,0,.213.083l.022,0a1.053,1.053,0,0,0,.241.03h0a1.034,1.034,0,0,0,.241-.03l.022,0a1.035,1.035,0,0,0,.213-.083l.039-.021c.012-.007.025-.012.037-.019l9.759-6.085a1.837,1.837,0,0,1,.029.316V22.6Z" transform="translate(-0.001)" fill="#fff"/>
    </g>
  </g>
</svg>
