<svg xmlns="http://www.w3.org/2000/svg" width="310.269" height="310.502" viewBox="0 0 310.269 310.502">
  <g id="Component_67_1" data-name="Component 67 – 1" transform="translate(0.176 0.327)">
    <g id="Group_3543" data-name="Group 3543" transform="translate(-548.118 -1325.135)">
      <path id="Path_5319" data-name="Path 5319" d="M851.22,1567.487l-290.006.6a7.006,7.006,0,0,1-7.02-6.991l-.4-192.123a7.006,7.006,0,0,1,6.992-7.02l290.005-.6a7.005,7.005,0,0,1,7.02,6.991l.4,192.123A7.006,7.006,0,0,1,851.22,1567.487Z" fill="#020202" opacity="0.2" style="mix-blend-mode: multiply;isolation: isolate"/>
      <g id="Group_3542" data-name="Group 3542">
        <path id="Path_5320" data-name="Path 5320" d="M845.541,1563.815l-290.006.6a7.005,7.005,0,0,1-7.02-6.991l-.4-192.123a7.006,7.006,0,0,1,6.992-7.02l290.005-.6a7.005,7.005,0,0,1,7.02,6.991l.4,192.123A7,7,0,0,1,845.541,1563.815Z" fill="#fff"/>
        <path id="Path_5321" data-name="Path 5321" d="M844.644,1357.684l-288.765.6a7.626,7.626,0,0,0-7.611,7.641l.014,6.632,304.017-.628-.014-6.631A7.625,7.625,0,0,0,844.644,1357.684Z" fill="#0056ec"/>
        <path id="Path_5322" data-name="Path 5322" d="M556.226,1564.414l43.63-.09-.4-191.877-51.256.106.38,184.26A7.621,7.621,0,0,0,556.226,1564.414Z" fill="#c8dbfb"/>
        <g id="Path_5323" data-name="Path 5323" fill="none" stroke-linecap="round" stroke-linejoin="round">
          <path d="M845.611,1563.817l-290.005.6a7.006,7.006,0,0,1-7.02-6.991l-.4-192.123a7.005,7.005,0,0,1,6.991-7.02l290.006-.6a7.006,7.006,0,0,1,7.02,6.992l.4,192.123A7.006,7.006,0,0,1,845.611,1563.817Z" stroke="none"/>
          <path d="M 555.60205078125 1562.487426757813 L 845.6070556640625 1561.889282226563 C 848.4075317382813 1561.883544921875 850.68115234375 1559.600952148438 850.6753540039063 1556.801025390625 L 850.2783203125 1364.677978515625 C 850.2725219726563 1361.88330078125 847.9948120117188 1359.609619140625 845.2008666992188 1359.609619140625 L 845.1900024414063 1359.609619140625 L 555.1839599609375 1360.208618164063 C 553.82763671875 1360.21142578125 552.5536499023438 1360.742309570313 551.5965576171875 1361.703369140625 C 550.6394653320313 1362.664428710938 550.1138916015625 1363.940673828125 550.11669921875 1365.296997070313 L 550.513671875 1557.419921875 C 550.5194702148438 1560.214111328125 552.7973022460938 1562.487426757813 555.5914306640625 1562.487426757813 L 555.60205078125 1562.487426757813 M 555.5913696289063 1564.4150390625 C 551.7288208007813 1564.4150390625 548.593994140625 1561.288208007813 548.5859985351563 1557.423950195313 L 548.1890258789063 1365.301025390625 C 548.1810302734375 1361.432006835938 551.3109741210938 1358.288940429688 555.1799926757813 1358.281005859375 L 845.1859741210938 1357.682006835938 C 845.1909790039063 1357.682006835938 845.1959228515625 1357.682006835938 845.2008666992188 1357.682006835938 C 849.0630493164063 1357.682006835938 852.197998046875 1360.808959960938 852.2059936523438 1364.673950195313 L 852.60302734375 1556.796997070313 C 852.6110229492188 1560.666015625 849.4810180664063 1563.808959960938 845.6110229492188 1563.817016601563 L 555.6060180664063 1564.4150390625 C 555.601318359375 1564.4150390625 555.5961303710938 1564.4150390625 555.5913696289063 1564.4150390625 Z" stroke="none" fill="#0056ec"/>
        </g>
        <path id="Rectangle_1071" data-name="Rectangle 1071" d="M2.685,0H36.31A2.686,2.686,0,0,1,39,2.686v.333A2.686,2.686,0,0,1,36.31,5.7H2.687A2.687,2.687,0,0,1,0,3.018V2.685A2.685,2.685,0,0,1,2.685,0Z" transform="translate(556.176 1544.117) rotate(-0.118)" fill="#fff"/>
        <rect id="Rectangle_1072" data-name="Rectangle 1072" width="38.47" height="38.47" rx="4.922" transform="translate(554.827 1381.173) rotate(-0.118)" fill="#fff"/>
        <path id="Rectangle_1073" data-name="Rectangle 1073" d="M3.508,0h99.736a3.508,3.508,0,0,1,3.508,3.508v.435a3.509,3.509,0,0,1-3.509,3.509H3.508A3.508,3.508,0,0,1,0,3.943V3.508A3.508,3.508,0,0,1,3.508,0Z" transform="matrix(1, -0.002, 0.002, 1, 607.747, 1498.089)" fill="#c8dbfb"/>
        <rect id="Rectangle_1074" data-name="Rectangle 1074" width="85.834" height="7.451" rx="3.508" transform="translate(622.901 1384.411) rotate(-0.118)" fill="#c8dbfb"/>
        <path id="Rectangle_1075" data-name="Rectangle 1075" d="M3.508,0H108.594A3.508,3.508,0,0,1,112.1,3.508v.435a3.508,3.508,0,0,1-3.508,3.508H3.509A3.509,3.509,0,0,1,0,3.943V3.508A3.508,3.508,0,0,1,3.508,0Z" transform="matrix(1, -0.002, 0.002, 1, 721.226, 1464.175)" fill="#c8dbfb"/>
        <path id="Rectangle_1076" data-name="Rectangle 1076" d="M3.508,0h99.736a3.508,3.508,0,0,1,3.508,3.508v.435a3.509,3.509,0,0,1-3.509,3.509H3.508A3.508,3.508,0,0,1,0,3.943V3.508A3.508,3.508,0,0,1,3.508,0Z" transform="translate(607.779 1513.494) rotate(-0.118)" fill="#c8dbfb"/>
        <path id="Rectangle_1077" data-name="Rectangle 1077" d="M3.508,0h99.736a3.508,3.508,0,0,1,3.508,3.508v.435a3.509,3.509,0,0,1-3.509,3.509H3.508A3.508,3.508,0,0,1,0,3.943V3.508A3.508,3.508,0,0,1,3.508,0Z" transform="translate(607.81 1528.899) rotate(-0.118)" fill="#c8dbfb"/>
        <rect id="Rectangle_1078" data-name="Rectangle 1078" width="112.102" height="54.757" rx="5.794" transform="translate(721.283 1491.646) rotate(-0.118)" fill="#c8dbfb"/>
        <path id="Path_5324" data-name="Path 5324" d="M756.235,1521.893l-6.773-2.984,7.66-2.983.241-1.72-10,3.842-.242,1.721,8.844,3.871Zm9.166-13.628-3.172,21.289H767.2c3.334,0,5.162-1.989,5.645-5.268l1.586-10.726c.511-3.279-.725-5.3-4.032-5.3Zm-.484,19.139,2.553-16.989h2.555c1.72,0,2.392,1.076,2.1,3.011l-1.641,10.967c-.3,1.935-1.263,3.011-2.983,3.011Zm12.526-19.139-3.172,21.289h2.367l3.2-21.289Zm4.222,0,.8,21.289h3.522l7.15-21.289h-2.177l-6.21,18.52-.7-18.52Zm15.724,15.375,10-3.871.268-1.721-8.842-3.842-.27,1.72,6.774,2.983-7.661,2.984Z" fill="#fefefe" fill-rule="evenodd"/>
        <path id="Path_5325" data-name="Path 5325" d="M564.944,1365.264a2.457,2.457,0,1,1-2.462-2.452A2.457,2.457,0,0,1,564.944,1365.264Z" fill="#86e28f"/>
        <circle id="Ellipse_613" data-name="Ellipse 613" cx="2.457" cy="2.457" r="2.457" transform="translate(570.431 1362.791)" fill="#ead478"/>
        <path id="Path_5326" data-name="Path 5326" d="M585.746,1365.221a2.457,2.457,0,1,1-2.462-2.452A2.458,2.458,0,0,1,585.746,1365.221Z" fill="#e55151"/>
        <circle id="Ellipse_614" data-name="Ellipse 614" cx="7.104" cy="7.104" r="7.104" transform="translate(604.21 1394.52) rotate(-84.28)" fill="#c8dbfb"/>
        <path id="Rectangle_1079" data-name="Rectangle 1079" d="M1.323,0H32.791a1.323,1.323,0,0,1,1.323,1.323v.164a1.324,1.324,0,0,1-1.324,1.324H1.324A1.324,1.324,0,0,1,0,1.488V1.323A1.323,1.323,0,0,1,1.323,0Z" transform="translate(557.654 1422.834) rotate(-0.118)" fill="#fff"/>
        <path id="Rectangle_1080" data-name="Rectangle 1080" d="M1.324,0H32.79a1.324,1.324,0,0,1,1.324,1.324v.164a1.323,1.323,0,0,1-1.323,1.323H1.323A1.323,1.323,0,0,1,0,1.488V1.324A1.324,1.324,0,0,1,1.324,0Z" transform="matrix(1, -0.002, 0.002, 1, 557.667, 1428.842)" fill="#fff"/>
        <path id="Path_5327" data-name="Path 5327" d="M626.493,1444.29l-8.9.09.066,37.28-7.679.016a4.907,4.907,0,0,1-4.916-4.9l-.142-68.939a4.957,4.957,0,0,1,4.947-4.968l16.526-.043Z" fill="#c8dbfb"/>
        <g id="Rectangle_1081" data-name="Rectangle 1081" transform="translate(604.913 1402.883) rotate(-0.118)" fill="none" stroke="#c8dbfb" stroke-linecap="round" stroke-linejoin="round" stroke-width="0.964">
          <rect width="85.086" height="78.803" rx="5.794" stroke="none"/>
          <rect x="0.482" y="0.482" width="84.122" height="77.839" rx="5.312" fill="none"/>
        </g>
      </g>
      <rect id="Rectangle_1082" data-name="Rectangle 1082" width="112.102" height="61.616" rx="5.794" transform="translate(721.335 1391.049) rotate(0.361)" fill="#f9c7d1"/>
      <path id="Path_5328" data-name="Path 5328" d="M789.167,1422.209l-11.977,7.251-11.977,7.25v-29l11.977,7.25Z" fill="#ef7373" fill-rule="evenodd"/>
    </g>
    <g id="Group_3550" data-name="Group 3550" transform="translate(-548.118 -1325.135)">
      <g id="Group_3549" data-name="Group 3549">
        <g id="Group_3545" data-name="Group 3545">
          <g id="Group_3544" data-name="Group 3544">
            <rect id="Rectangle_1083" data-name="Rectangle 1083" width="235.053" height="19.287" rx="8.978" transform="translate(593.228 1328.471)" fill="#020202" opacity="0.2" style="mix-blend-mode: multiply;isolation: isolate"/>
            <circle id="Ellipse_615" data-name="Ellipse 615" cx="9.643" cy="9.643" r="9.643" transform="translate(548.268 1328.471)" fill="#020202" opacity="0.2" style="mix-blend-mode: multiply;isolation: isolate"/>
            <circle id="Ellipse_616" data-name="Ellipse 616" cx="9.643" cy="9.643" r="9.643" transform="translate(570.748 1328.471)" fill="#020202" opacity="0.2" style="mix-blend-mode: multiply;isolation: isolate"/>
          </g>
        </g>
        <path id="Path_5329" data-name="Path 5329" d="M842.568,1329.949l2.03,4.341a1.015,1.015,0,0,0,.794.577l4.756.59a1.014,1.014,0,0,1,.568,1.747l-3.5,3.272a1.012,1.012,0,0,0-.3.933l.908,4.706a1.013,1.013,0,0,1-1.485,1.08l-4.2-2.319a1.013,1.013,0,0,0-.981,0l-4.2,2.319a1.013,1.013,0,0,1-1.485-1.08l.908-4.706a1.015,1.015,0,0,0-.3-.933l-3.5-3.272a1.014,1.014,0,0,1,.567-1.747l4.757-.59a1.012,1.012,0,0,0,.793-.577l2.031-4.341A1.014,1.014,0,0,1,842.568,1329.949Z" fill="#020202" opacity="0.2" style="mix-blend-mode: multiply;isolation: isolate"/>
        <g id="Group_3548" data-name="Group 3548">
          <g id="Group_3547" data-name="Group 3547">
            <rect id="Rectangle_1084" data-name="Rectangle 1084" width="235.053" height="19.287" rx="8.978" transform="translate(593.228 1325.135)" fill="#fff" stroke="#0056ec" stroke-miterlimit="10" stroke-width="0.653"/>
            <g id="Group_3546" data-name="Group 3546">
              <path id="Path_5330" data-name="Path 5330" d="M649.961,1331.227v.358c.854.031,1.675.347,1.675.674,0,.242-.284.79-.484.79a3.7,3.7,0,0,0-1.191-.316v1.917c.907.369,2,.79,2,2.191a2.082,2.082,0,0,1-2,2.233v.485c0,.19-.084.263-.252.263-.2,0-.285-.073-.285-.263v-.474c-1.359-.042-2.191-.537-2.191-.864,0-.274.369-.811.548-.811a4.316,4.316,0,0,0,1.643.527v-2.1c-.927-.347-2.043-.747-2.043-2.2a2.046,2.046,0,0,1,2.043-2.044v-.368c0-.19.085-.264.264-.264S649.961,1331.037,649.961,1331.227Zm-1.242,2.338c0,.411.294.653.705.853v-1.632A.779.779,0,0,0,648.719,1333.565Zm1.242,4.288a.89.89,0,0,0,.675-.885.988.988,0,0,0-.675-.885Z" fill="#a1abad"/>
              <path id="Path_5331" data-name="Path 5331" d="M655.2,1336.178v.084c0,.316-.084.442-.274.442h-2.1c-.189,0-.274-.126-.274-.442v-.084c0-.317.085-.454.274-.454h2.1C655.113,1335.724,655.2,1335.861,655.2,1336.178Z" fill="#a1abad"/>
              <path id="Path_5332" data-name="Path 5332" d="M659.158,1333.312c0,1.443-.832,1.749-1.538,1.749s-1.527-.306-1.527-1.749.811-1.748,1.527-1.748S659.158,1331.869,659.158,1333.312Zm-2.127,0c0,.443.084.99.589.99s.6-.547.6-.99-.074-.969-.6-.969C657.115,1332.343,657.031,1332.87,657.031,1333.312Zm5.046-1.58a.3.3,0,0,1-.053.126l-3.824,6.932a.462.462,0,0,1-.443.263h-.316c-.147,0-.232-.052-.232-.126a.333.333,0,0,1,.053-.137l3.814-6.932a.478.478,0,0,1,.453-.252h.316C661.992,1331.606,662.077,1331.658,662.077,1331.732Zm1.106,5.6c0,1.454-.833,1.749-1.538,1.749s-1.528-.295-1.528-1.749.811-1.748,1.528-1.748S663.183,1335.893,663.183,1337.336Zm-2.128,0c0,.443.084.991.59.991s.6-.548.6-.991-.074-.969-.6-.969C661.139,1336.367,661.055,1336.9,661.055,1337.336Z" fill="#a1abad"/>
            </g>
            <path id="Path_5333" data-name="Path 5333" d="M640.474,1339.822H621.557a4.43,4.43,0,0,1-4.43-4.429h0a4.43,4.43,0,0,1,4.43-4.43h18.917a4.43,4.43,0,0,1,4.43,4.43h0A4.43,4.43,0,0,1,640.474,1339.822Z" fill="#a1abad"/>
            <circle id="Ellipse_617" data-name="Ellipse 617" cx="9.643" cy="9.643" r="9.643" transform="translate(548.268 1325.135)" fill="#fff" stroke="#0056ec" stroke-miterlimit="10" stroke-width="0.653"/>
            <circle id="Ellipse_618" data-name="Ellipse 618" cx="9.643" cy="9.643" r="9.643" transform="translate(570.748 1325.135)" fill="#fff" stroke="#0056ec" stroke-miterlimit="10" stroke-width="0.653"/>
          </g>
        </g>
        <path id="Path_5334" data-name="Path 5334" d="M842.623,1326.731l1.961,4.193a1.077,1.077,0,0,0,.841.611l4.594.57a1.074,1.074,0,0,1,.6,1.851l-3.382,3.161a1.076,1.076,0,0,0-.321.989l.878,4.545a1.075,1.075,0,0,1-1.575,1.145l-4.052-2.24a1.072,1.072,0,0,0-1.039,0l-4.052,2.24a1.075,1.075,0,0,1-1.575-1.145l.878-4.545a1.076,1.076,0,0,0-.321-.989l-3.382-3.161a1.074,1.074,0,0,1,.6-1.851l4.6-.57a1.077,1.077,0,0,0,.841-.611l1.961-4.193A1.075,1.075,0,0,1,842.623,1326.731Z" fill="#ffcc5a" stroke="#0056ec" stroke-miterlimit="10" stroke-width="0.653"/>
      </g>
      <path id="Path_5335" data-name="Path 5335" d="M559.105,1328.9l-6.1,6.045,6.1,6.161,1.162-1.162-4.94-5,4.94-4.882Z" fill="#0056ec"/>
      <path id="Path_5336" data-name="Path 5336" d="M579.517,1341.107l6.1-6.045-6.1-6.161-1.162,1.162,4.94,5-4.94,4.882Z" fill="#0056ec"/>
      <path id="Path_5337" data-name="Path 5337" d="M613.045,1340.317l-3.889-3.843a4.955,4.955,0,0,0,.833-2.759,5.1,5.1,0,0,0-8.665-3.574,4.974,4.974,0,0,0-1.473,3.542,5.1,5.1,0,0,0,5.086,5.031h.02a5.084,5.084,0,0,0,2.787-.837l3.887,3.842Zm-4.569-6.6a3.476,3.476,0,0,1-1.03,2.476,3.575,3.575,0,0,1-2.5,1.021h-.014a3.579,3.579,0,0,1-3.571-3.527,3.476,3.476,0,0,1,1.03-2.476,3.578,3.578,0,0,1,6.081,2.506Z" fill="#0056ec"/>
      <path id="Path_5338" data-name="Path 5338" d="M815.22,1335l-2.187,2.2a.668.668,0,0,0,0,.942.66.66,0,0,0,.937,0l2.187-2.2,2.187,2.2a.66.66,0,0,0,.937,0,.668.668,0,0,0,0-.942l-2.187-2.2,2.187-2.2a.668.668,0,0,0,0-.942.66.66,0,0,0-.937,0l-2.187,2.2-2.187-2.2a.66.66,0,0,0-.937,0,.668.668,0,0,0,0,.942Zm.937,7.107a7.107,7.107,0,1,1,7.069-7.107A7.088,7.088,0,0,1,816.157,1342.111Z" fill="#0056ec" fill-rule="evenodd"/>
    </g>
    <g id="Group_3551" data-name="Group 3551" transform="translate(-548.118 -1325.135)">
      <g id="Path_5339" data-name="Path 5339" fill="none" stroke-linecap="round" stroke-linejoin="round">
        <path d="M687.291,1630.078a2.97,2.97,0,0,1-1.307-2.329,2.431,2.431,0,0,1,.019-.272H664.682c.412.866-.16,1.862-.954,2.6Z" stroke="none"/>
        <path d="M 687.291015625 1630.078002929688 L 663.72802734375 1630.078002929688 C 664.52197265625 1629.338989257813 665.093994140625 1628.343017578125 664.6820068359375 1627.47705078125 L 686.0029907226563 1627.47705078125 C 685.9970092773438 1627.567993164063 685.97998046875 1627.655029296875 685.9840087890625 1627.7490234375 C 686.0260009765625 1628.68896484375 686.5269775390625 1629.578979492188 687.291015625 1630.078002929688 Z" stroke="none" fill="#0056ec"/>
      </g>
      <g id="Path_5340" data-name="Path 5340" fill="none" stroke-linecap="round" stroke-linejoin="round">
        <path d="M743.033,1562.764v26.818H701.739v19.537a2.641,2.641,0,0,1,2.394-.019v-16.916h41.295v-29.42Z" stroke="none"/>
        <path d="M 743.0330200195313 1562.764038085938 L 745.427978515625 1562.764038085938 L 745.427978515625 1592.183959960938 L 704.1329956054688 1592.183959960938 L 704.1329956054688 1609.099975585938 C 703.7675170898438 1608.9150390625 703.361328125 1608.822509765625 702.9547729492188 1608.822509765625 C 702.5348510742188 1608.822509765625 702.114501953125 1608.92138671875 701.739013671875 1609.119018554688 L 701.739013671875 1589.58203125 L 743.0330200195313 1589.58203125 L 743.0330200195313 1562.764038085938 Z" stroke="none" fill="#0056ec"/>
      </g>
      <g id="Path_5341" data-name="Path 5341" fill="none" stroke-linecap="round" stroke-linejoin="round">
        <path d="M584.591,1611.4H573.4v-48.344h-2.6V1614h13.759A3.091,3.091,0,0,1,584.591,1611.4Z" stroke="none"/>
        <path d="M 584.56201171875 1614.003051757813 L 570.802978515625 1614.003051757813 L 570.802978515625 1563.057983398438 L 573.4039916992188 1563.057983398438 L 573.4039916992188 1611.401977539063 L 584.5910034179688 1611.401977539063 C 584.197998046875 1612.197998046875 584.1900024414063 1613.18994140625 584.56201171875 1614.003051757813 Z" stroke="none" fill="#0056ec"/>
      </g>
    </g>
    <g id="Group_3552" data-name="Group 3552" transform="translate(-548.118 -1325.135)">
      <path id="Path_5342" data-name="Path 5342" d="M620.94,1584.682c-9.662,0-17.774,6.2-20.066,14.6-9.392,1.011-16.7,8.493-16.7,17.572,0,9.8,8.471,17.728,18.9,17.728h48.445c9.01,0,16.314-6.853,16.314-15.3a15.321,15.321,0,0,0-9.842-14.044v-.314c0-5.977-5.169-10.808-11.527-10.808a12.079,12.079,0,0,0-6.652,1.977,20.866,20.866,0,0,0-18.874-11.414Z" fill="rgba(255,255,255,0.2)" stroke="#fefefe" stroke-miterlimit="10" stroke-width="1.446" fill-rule="evenodd"/>
      <path id="Path_5343" data-name="Path 5343" d="M702.851,1608.47a10.051,10.051,0,0,0-9.845,7.162,8.935,8.935,0,0,0-8.2,8.64c0,4.8,4.14,8.682,9.274,8.682H717.85a7.77,7.77,0,0,0,8.006-7.5,7.488,7.488,0,0,0-4.837-6.886v-.17a5.481,5.481,0,0,0-5.641-5.3,5.923,5.923,0,0,0-3.275.971,10.2,10.2,0,0,0-9.252-5.6Z" fill="rgba(255,255,255,0.2)" stroke="#fefefe" stroke-miterlimit="10" stroke-width="1.446" fill-rule="evenodd"/>
    </g>
  </g>
</svg>
