<svg xmlns="http://www.w3.org/2000/svg" width="292.231" height="433.833" viewBox="0 0 292.231 433.833">
  <g id="Component_65_1" data-name="Component 65 – 1" transform="translate(1.214)">
    <g id="Group_3521" data-name="Group 3521" transform="translate(-96.792 -1278.183)" opacity="0.2" style="mix-blend-mode: multiply;isolation: isolate">
      <path id="Path_5274" data-name="Path 5274" d="M315.909,1278.183h-14.7V1685.22h14.7a29.11,29.11,0,0,0,29.025-29.025V1307.208A29.025,29.025,0,0,0,315.909,1278.183Z" fill="#020202"/>
    </g>
    <g id="Group_3523" data-name="Group 3523" transform="translate(-96.792 -1278.183)">
      <path id="Path_5275" data-name="Path 5275" d="M166.142,1285.847H312.755a20.283,20.283,0,0,1,20.284,20.284v351.142a20.283,20.283,0,0,1-20.284,20.283H167.171a20.284,20.284,0,0,1-20.284-20.224l-1.029-351.142A20.283,20.283,0,0,1,166.142,1285.847Z" fill="#ededed"/>
      <g id="Group_3522" data-name="Group 3522">
        <path id="Path_5276" data-name="Path 5276" d="M339.223,1307.208a29.024,29.024,0,0,0-29.024-29.025H169.171a30.154,30.154,0,0,0-30.064,30.065v346.813a30.247,30.247,0,0,0,30.158,30.159H310.2a29.11,29.11,0,0,0,29.024-29.025Zm-75.807-16.064a2.48,2.48,0,1,1-2.48-2.48A2.48,2.48,0,0,1,263.416,1291.144Zm-33.731,2.346a1.441,1.441,0,1,1,0-2.835h22.11a1.441,1.441,0,1,1,0,2.835Zm98.767,360.264c0,9.9-7.31,18.427-17.208,18.427H170.085a18.864,18.864,0,0,1-18.506-18.427V1306.091c0-9.9,8.607-17.136,18.506-17.136H186.4c3.45,0,4.725-.394,4.934,3.979a8.439,8.439,0,0,0,2.277,5.5,12.249,12.249,0,0,0,5.282,3.273,15.665,15.665,0,0,0,4.546.855h74.594a15.823,15.823,0,0,0,4.546-.947,12.344,12.344,0,0,0,5.282-3.172,8.119,8.119,0,0,0,2.277-5.4c.209-4.373,1.484-4.089,4.934-4.089h16.168c9.9,0,17.208,7.237,17.208,17.136Z" fill="#fff"/>
      </g>
    </g>
    <g id="Group_3524" data-name="Group 3524" transform="translate(-96.792 -1278.183)">
      <path id="Path_5277" data-name="Path 5277" d="M178.481,1331.129c-9.832-.028-13.807-3.983-13.708-13.731a40.392,40.392,0,0,0-10.746-4.505c-6.883,6.9-12.491,6.841-19.4-.151a40.611,40.611,0,0,0-11.269,4.611c-.029,9.833-3.982,13.808-13.73,13.709a40.419,40.419,0,0,0-4.506,10.747c6.9,6.882,6.842,12.49-.149,19.4a40.6,40.6,0,0,0,4.611,11.269c9.831.028,13.807,3.981,13.708,13.73a40.349,40.349,0,0,0,10.747,4.505c6.882-6.9,12.488-6.84,19.4.151a40.641,40.641,0,0,0,11.272-4.613c.028-9.831,3.982-13.806,13.73-13.707a40.386,40.386,0,0,0,4.506-10.747c-6.9-6.883-6.843-12.489.149-19.4a40.534,40.534,0,0,0-4.611-11.268Zm-25.758,38.492a19.824,19.824,0,1,1,10.1-24.126A19.827,19.827,0,0,1,152.723,1369.621Z" fill="#f7a71b" opacity="0.5"/>
      <path id="Path_5278" data-name="Path 5278" d="M183.092,1342.4a40.534,40.534,0,0,0-4.611-11.268c-9.832-.028-13.807-3.983-13.708-13.731a40.392,40.392,0,0,0-10.746-4.505c-5.357,5.374-9.942,6.525-14.97,3.475v16.251a19.821,19.821,0,1,1,0,38.37v15.824c4.782-2.526,9.216-1.17,14.378,4.052a40.618,40.618,0,0,0,11.271-4.613c.029-9.831,3.983-13.806,13.731-13.707a40.386,40.386,0,0,0,4.506-10.747C176.038,1354.915,176.1,1349.309,183.092,1342.4Z" fill="#f7a71b"/>
      <path id="Path_5279" data-name="Path 5279" d="M129.655,1311.837c-.458-1.119-.592-1.252-1.193-2.577-1.817.221-9.265,1.694-12.243,2-1.124,8.788-4.419,13.616-13.222,12.514-1.7,3.243-3.718,6.085-5.021,9.363,5.475,6.87,5.908,12.006-1.184,17.459l2.593,6.336,4.41-1.217" fill="none" stroke="#bf7d13" stroke-miterlimit="10" stroke-width="2"/>
      <path id="Path_5280" data-name="Path 5280" d="M172.074,1355.615a28.281,28.281,0,0,1-17.326,22.377" fill="none" stroke="#fff" stroke-miterlimit="10" stroke-width="1.246" opacity="0.5"/>
      <path id="Path_5281" data-name="Path 5281" d="M170.219,1341.087a28.237,28.237,0,0,1,2.08,9.319" fill="none" stroke="#fff" stroke-miterlimit="10" stroke-width="1.246" opacity="0.5"/>
    </g>
    <g id="Group_3525" data-name="Group 3525" transform="translate(-96.792 -1278.183)">
      <path id="Path_5282" data-name="Path 5282" d="M380.487,1571.041c-13.349-.037-18.746-5.406-18.611-18.642a54.859,54.859,0,0,0-14.591-6.116c-9.344,9.374-16.959,9.288-26.342-.2a55.114,55.114,0,0,0-15.3,6.261c-.039,13.349-5.406,18.747-18.641,18.612a54.87,54.87,0,0,0-6.118,14.592c9.375,9.343,9.289,16.957-.2,26.341a55.208,55.208,0,0,0,6.261,15.3c13.348.038,18.746,5.406,18.611,18.643a54.876,54.876,0,0,0,14.591,6.116c9.345-9.374,16.956-9.287,26.338.2a55.168,55.168,0,0,0,15.3-6.262c.038-13.348,5.408-18.745,18.642-18.611a54.786,54.786,0,0,0,6.118-14.591c-9.375-9.345-9.29-16.956.2-26.341a55.022,55.022,0,0,0-6.261-15.3ZM345.515,1623.3a26.916,26.916,0,1,1,13.716-32.756A26.918,26.918,0,0,1,345.515,1623.3Z" fill="#4aafff" opacity="0.5"/>
      <path id="Path_5283" data-name="Path 5283" d="M380.308,1567.963c-14.812-.041-20.8-6-20.652-20.686a60.786,60.786,0,0,0-16.191-6.787c-10.369,10.4-18.819,10.307-29.231-.228a61.187,61.187,0,0,0-16.977,6.947c-.044,14.814-6,20.8-20.687,20.653a60.92,60.92,0,0,0-6.788,16.193c10.4,10.368,10.308,18.816-.225,29.229a61.221,61.221,0,0,0,6.948,16.978c14.811.042,20.8,6,20.651,20.687a60.858,60.858,0,0,0,16.192,6.786c10.369-10.4,18.815-10.3,29.226.227a61.211,61.211,0,0,0,16.982-6.949c.042-14.811,6-20.8,20.686-20.652a60.834,60.834,0,0,0,6.789-16.19c-10.4-10.37-10.309-18.816.225-29.23a61.01,61.01,0,0,0-6.948-16.978ZM341.5,1625.956a29.868,29.868,0,1,1,15.22-36.348A29.871,29.871,0,0,1,341.5,1625.956Z" fill="none" stroke="#4aafff" stroke-miterlimit="10" stroke-width="1"/>
      <path id="Path_5284" data-name="Path 5284" d="M386.748,1586.341a55.022,55.022,0,0,0-6.261-15.3c-13.349-.037-18.746-5.407-18.611-18.642a54.859,54.859,0,0,0-14.591-6.116c-6.641,6.663-12.557,8.479-18.707,5.6v20.741a26.958,26.958,0,1,1,0,52.96v20.3c5.833-2.244,11.535-.188,17.9,6.256a55.168,55.168,0,0,0,15.3-6.262c.038-13.348,5.408-18.745,18.642-18.611a54.819,54.819,0,0,0,6.118-14.591C377.17,1603.337,377.255,1595.726,386.748,1586.341Z" fill="#4aafff"/>
      <path id="Path_5285" data-name="Path 5285" d="M371.789,1604.287a38.4,38.4,0,0,1-23.525,30.382" fill="none" stroke="#fff" stroke-miterlimit="10" stroke-width="1.692" opacity="0.5"/>
      <path id="Path_5286" data-name="Path 5286" d="M369.27,1584.562a38.342,38.342,0,0,1,2.824,12.652" fill="none" stroke="#fff" stroke-miterlimit="10" stroke-width="1.692" opacity="0.5"/>
    </g>
    <g id="Group_3526" data-name="Group 3526" transform="translate(-96.792 -1278.183)">
      <path id="Path_5287" data-name="Path 5287" d="M231.516,1637.416c-.025,8.911-3.609,12.513-12.444,12.423a36.6,36.6,0,0,0-4.083,9.74c6.257,6.238,6.2,11.321-.137,17.584a36.807,36.807,0,0,0,4.179,10.213c8.911.026,12.515,3.609,12.424,12.444a36.637,36.637,0,0,0,9.741,4.083c6.237-6.258,11.319-6.2,17.583.135a36.76,36.76,0,0,0,10.213-4.179c.025-8.909,3.608-12.513,12.444-12.423a36.589,36.589,0,0,0,4.082-9.74c-6.257-6.237-6.2-11.318.137-17.581a36.856,36.856,0,0,0-4.181-10.215c-8.909-.025-12.512-3.61-12.423-12.444a36.6,36.6,0,0,0-9.739-4.084c-6.238,6.259-11.319,6.2-17.583-.135a36.759,36.759,0,0,0-10.213,4.179Zm34.886,23.345a17.967,17.967,0,1,1-21.866-9.156A17.968,17.968,0,0,1,266.4,1660.761Z" fill="#ff814a" opacity="0.5"/>
      <path id="Path_5288" data-name="Path 5288" d="M229.461,1637.536c-.028,9.887-4.005,13.885-13.809,13.785a40.628,40.628,0,0,0-4.53,10.808c6.943,6.921,6.88,12.562-.152,19.512a40.868,40.868,0,0,0,4.637,11.333c9.889.029,13.887,4.005,13.787,13.809a40.661,40.661,0,0,0,10.808,4.531c6.921-6.944,12.561-6.881,19.512.15a40.831,40.831,0,0,0,11.333-4.638c.028-9.886,4-13.885,13.809-13.785a40.626,40.626,0,0,0,4.53-10.808c-6.943-6.922-6.879-12.56.151-19.509a40.83,40.83,0,0,0-4.639-11.336c-9.887-.028-13.884-4-13.785-13.808a40.608,40.608,0,0,0-10.808-4.532c-6.922,6.945-12.56,6.882-19.511-.15a40.7,40.7,0,0,0-11.333,4.638Zm38.711,25.9a19.937,19.937,0,1,1-24.263-10.159A19.939,19.939,0,0,1,268.172,1663.44Z" fill="none" stroke="#ff814a" stroke-miterlimit="10" stroke-width="1"/>
      <path id="Path_5289" data-name="Path 5289" d="M241.729,1633.237a36.759,36.759,0,0,0-10.213,4.179c-.025,8.911-3.61,12.513-12.444,12.423a36.6,36.6,0,0,0-4.083,9.74c4.447,4.434,5.66,8.382,3.74,12.488h13.845a17.995,17.995,0,1,1,35.351,0h13.553c-1.5-3.894-.125-7.7,4.177-11.952a36.856,36.856,0,0,0-4.181-10.215c-8.909-.025-12.512-3.61-12.423-12.444a36.6,36.6,0,0,0-9.739-4.084C253.074,1639.631,247.993,1639.574,241.729,1633.237Z" fill="#ff814a"/>
      <path id="Path_5290" data-name="Path 5290" d="M253.708,1643.223a25.632,25.632,0,0,1,20.28,15.7" fill="none" stroke="#fff" stroke-miterlimit="10" stroke-width="1.13" opacity="0.5"/>
      <path id="Path_5291" data-name="Path 5291" d="M240.541,1644.9a25.576,25.576,0,0,1,8.446-1.885" fill="none" stroke="#fff" stroke-miterlimit="10" stroke-width="1.13" opacity="0.5"/>
    </g>
    <g id="Group_3527" data-name="Group 3527" transform="translate(-96.792 -1278.183)">
      <rect id="Rectangle_1041" data-name="Rectangle 1041" width="95.279" height="4.005" rx="2.003" transform="translate(221.72 1329.192)" fill="#a1c8ea"/>
      <rect id="Rectangle_1042" data-name="Rectangle 1042" width="86.32" height="4.005" rx="2.003" transform="translate(230.679 1339.205)" fill="#a1c8ea"/>
      <rect id="Rectangle_1043" data-name="Rectangle 1043" width="77.362" height="4.005" rx="2.003" transform="translate(239.638 1349.217)" fill="#a1c8ea"/>
      <rect id="Rectangle_1044" data-name="Rectangle 1044" width="95.279" height="4.005" rx="2.003" transform="translate(221.72 1359.23)" fill="#a1c8ea"/>
      <rect id="Rectangle_1045" data-name="Rectangle 1045" width="86.32" height="4.005" rx="2.003" transform="translate(230.679 1369.243)" fill="#a1c8ea"/>
    </g>
    <g id="Group_3528" data-name="Group 3528" transform="translate(-96.792 -1278.183)">
      <rect id="Rectangle_1046" data-name="Rectangle 1046" width="86.32" height="4.005" rx="2.003" transform="translate(244.537 1588.614) rotate(-180)" fill="#a1c8ea"/>
      <rect id="Rectangle_1047" data-name="Rectangle 1047" width="77.362" height="4.005" rx="2.003" transform="translate(235.578 1598.627) rotate(180)" fill="#a1c8ea"/>
      <rect id="Rectangle_1048" data-name="Rectangle 1048" width="95.279" height="4.005" rx="2.003" transform="translate(253.495 1608.64) rotate(180)" fill="#a1c8ea"/>
    </g>
    <rect id="Rectangle_1049" data-name="Rectangle 1049" width="67.956" height="11.49" transform="translate(70.041 130.003)" fill="#a6a8ab"/>
    <rect id="Rectangle_1050" data-name="Rectangle 1050" width="60.789" height="11.49" transform="translate(70.041 148.553)" fill="#a3b4dc"/>
    <rect id="Rectangle_1051" data-name="Rectangle 1051" width="53.411" height="11.49" transform="translate(70.041 167.103)" fill="#d0d2d3"/>
    <g id="Group_3529" data-name="Group 3529" transform="translate(-96.792 -1278.183)">
      <circle id="Ellipse_604" data-name="Ellipse 604" cx="25.844" cy="25.844" r="25.844" transform="translate(257.428 1401.187)" fill="none" stroke="#1c1d30" stroke-miterlimit="10" stroke-width="2.679"/>
      <path id="Path_5292" data-name="Path 5292" d="M321.215,1427.031a37.922,37.922,0,1,1-19.926-33.4" fill="none" stroke="#1c1d30" stroke-linecap="round" stroke-linejoin="round" stroke-width="1.194"/>
      <path id="Path_5293" data-name="Path 5293" d="M293.774,1396.141a32.608,32.608,0,1,1-32.707,6.978" fill="none" stroke="#1c1d30" stroke-linecap="round" stroke-linejoin="round" stroke-width="1.027"/>
      <text id="_70_" data-name="70%" transform="translate(267.23 1432.337)" fill="#1c1d30" font-size="18.805" font-family="National-Regular, National"><tspan x="0" y="0">70%</tspan></text>
    </g>
    <rect id="Rectangle_1052" data-name="Rectangle 1052" width="135.241" height="37.832" rx="5.17" transform="translate(27.419 198.254)" fill="#f7a71b"/>
    <rect id="Rectangle_1053" data-name="Rectangle 1053" width="135.241" height="37.832" rx="18.916" transform="translate(27.419 247.55)" fill="#a3b4dc"/>
    <circle id="Ellipse_605" data-name="Ellipse 605" cx="11.62" cy="11.62" r="11.62" transform="translate(130.435 254.425)" fill="#8da0c6"/>
    <rect id="Rectangle_1054" data-name="Rectangle 1054" width="25.865" height="21.425" transform="translate(42.265 206.458)" fill="#fff"/>
    <rect id="Rectangle_1055" data-name="Rectangle 1055" width="29.448" height="5.124" transform="translate(74.571 208.25)" fill="#fff"/>
    <rect id="Rectangle_1056" data-name="Rectangle 1056" width="40.134" height="5.124" transform="translate(74.571 218.192)" fill="#fff"/>
    <g id="Group_3530" data-name="Group 3530" transform="translate(-96.792 -1278.183)">
      <circle id="Ellipse_606" data-name="Ellipse 606" cx="4.361" cy="4.361" r="4.361" transform="translate(233.053 1538.316)" fill="none" stroke="#fff" stroke-miterlimit="10" stroke-width="1.454"/>
      <line id="Line_2" data-name="Line 2" x2="4.264" y2="4.264" transform="translate(240.378 1545.877)" fill="none" stroke="#fff" stroke-linecap="round" stroke-linejoin="round" stroke-width="1.454"/>
    </g>
  </g>
</svg>
