<svg xmlns="http://www.w3.org/2000/svg" width="29.725" height="35.484" viewBox="0 0 29.725 35.484">
  <g id="android" transform="translate(-32.045 -175.708)">
    <g id="android-2" data-name="android" transform="translate(224.7 -188.452)">
      <path id="Path_398" data-name="Path 398" d="M-228.942,401.157H-240.7a2.96,2.96,0,0,1-3.1-2.773V387.873a2.96,2.96,0,0,1,3.1-2.773h11.756a2.96,2.96,0,0,1,3.1,2.773v10.511A2.96,2.96,0,0,1-228.942,401.157Z" transform="translate(56.475 -9.02)" fill="#898989"/>
    </g>
    <g id="android-3" data-name="android" transform="translate(-15.904 175.708)">
      <g id="Group_2892" data-name="Group 2892" transform="translate(52.447 2.22)">
        <g id="Group_2891" data-name="Group 2891" transform="translate(0)">
          <path id="Path_3978" data-name="Path 3978" d="M129.046,34.938A9.984,9.984,0,0,0,112.012,42V57.528a1.109,1.109,0,0,0,1.109,1.109h2.218a1.109,1.109,0,1,0,0-2.218H114.23V42a7.762,7.762,0,1,1,15.524,0V56.419h-1.109a1.109,1.109,0,0,0,0,2.218h2.218a1.109,1.109,0,0,0,1.109-1.109V42A10.01,10.01,0,0,0,129.046,34.938Z" transform="translate(-112.012 -32.024)"/>
        </g>
      </g>
      <g id="Group_2894" data-name="Group 2894" transform="translate(59.101 26.614)">
        <g id="Group_2893" data-name="Group 2893" transform="translate(0)">
          <path id="Path_3979" data-name="Path 3979" d="M213.556,384.024h-4.435a1.109,1.109,0,0,0,0,2.218h4.435a1.109,1.109,0,0,0,0-2.218Z" transform="translate(-208.012 -384.024)"/>
        </g>
      </g>
      <g id="Group_2896" data-name="Group 2896" transform="translate(54.665 26.614)">
        <g id="Group_2895" data-name="Group 2895" transform="translate(0)">
          <path id="Path_3980" data-name="Path 3980" d="M149.556,384.024a1.109,1.109,0,0,0-1.109,1.109v4.435a1.109,1.109,0,1,1-2.218,0v-4.435a1.109,1.109,0,1,0-2.218,0v4.435a3.327,3.327,0,1,0,6.653,0v-4.435A1.109,1.109,0,0,0,149.556,384.024Z" transform="translate(-144.012 -384.024)"/>
        </g>
      </g>
      <g id="Group_2898" data-name="Group 2898" transform="translate(63.536 26.614)">
        <g id="Group_2897" data-name="Group 2897" transform="translate(0)">
          <path id="Path_3981" data-name="Path 3981" d="M277.556,384.024a1.109,1.109,0,0,0-1.109,1.109v4.435a1.109,1.109,0,1,1-2.218,0v-4.435a1.109,1.109,0,1,0-2.218,0v4.435a3.327,3.327,0,1,0,6.653,0v-4.435A1.109,1.109,0,0,0,277.556,384.024Z" transform="translate(-272.012 -384.024)"/>
        </g>
      </g>
      <g id="Group_2900" data-name="Group 2900" transform="translate(48.012 11.09)">
        <g id="Group_2899" data-name="Group 2899" transform="translate(0)">
          <path id="Path_3982" data-name="Path 3982" d="M49.121,160.024a1.109,1.109,0,0,0-1.109,1.109v11.089a1.109,1.109,0,0,0,2.218,0V161.133A1.109,1.109,0,0,0,49.121,160.024Z" transform="translate(-48.012 -160.024)"/>
        </g>
      </g>
      <g id="Group_2902" data-name="Group 2902" transform="translate(74.625 11.09)">
        <g id="Group_2901" data-name="Group 2901">
          <path id="Path_3983" data-name="Path 3983" d="M433.121,160.024a1.109,1.109,0,0,0-1.109,1.109v11.089a1.109,1.109,0,0,0,2.218,0V161.133A1.109,1.109,0,0,0,433.121,160.024Z" transform="translate(-432.012 -160.024)"/>
        </g>
      </g>
      <g id="Group_2904" data-name="Group 2904" transform="translate(52.447 11.09)">
        <g id="Group_2903" data-name="Group 2903" transform="translate(0)">
          <path id="Path_3984" data-name="Path 3984" d="M130.863,160.024H113.121a1.109,1.109,0,1,0,0,2.218h17.742a1.109,1.109,0,1,0,0-2.218Z" transform="translate(-112.012 -160.024)"/>
        </g>
      </g>
      <g id="Group_2906" data-name="Group 2906" transform="translate(52.447 0.001)">
        <g id="Group_2905" data-name="Group 2905" transform="translate(0)">
          <path id="Path_3985" data-name="Path 3985" d="M116.978,5.047,114.051.523a1.109,1.109,0,1,0-1.863,1.2l2.927,4.524a1.109,1.109,0,1,0,1.863-1.2Z" transform="translate(-112.01 -0.014)"/>
        </g>
      </g>
      <g id="Group_2908" data-name="Group 2908" transform="translate(67.439 0)">
        <g id="Group_2907" data-name="Group 2907" transform="translate(0 0)">
          <path id="Path_3986" data-name="Path 3986" d="M332.753.153a1.11,1.11,0,0,0-1.517.395l-2.75,4.679a1.11,1.11,0,0,0,.395,1.519,1.091,1.091,0,0,0,.561.153,1.11,1.11,0,0,0,.956-.548l2.75-4.679A1.11,1.11,0,0,0,332.753.153Z" transform="translate(-328.333 0)"/>
        </g>
      </g>
      <g id="Group_2910" data-name="Group 2910" transform="translate(63.569 6.655)">
        <g id="Group_2909" data-name="Group 2909" transform="translate(0)">
          <path id="Path_3987" data-name="Path 3987" d="M273.612,96.024h-.022a1.1,1.1,0,0,0-1.1,1.109,1.114,1.114,0,1,0,1.12-1.109Z" transform="translate(-272.492 -96.024)"/>
        </g>
      </g>
      <g id="Group_2912" data-name="Group 2912" transform="translate(59.134 6.655)">
        <g id="Group_2911" data-name="Group 2911">
          <path id="Path_3988" data-name="Path 3988" d="M209.612,96.024h-.022a1.1,1.1,0,0,0-1.1,1.109,1.114,1.114,0,1,0,1.12-1.109Z" transform="translate(-208.492 -96.024)"/>
        </g>
      </g>
    </g>
    <circle id="Ellipse_552" data-name="Ellipse 552" cx="2.363" cy="2.363" r="2.363" transform="translate(57.045 204.319)"/>
    <circle id="Ellipse_553" data-name="Ellipse 553" cx="1.363" cy="1.363" r="1.363" transform="translate(32.045 180.319)"/>
  </g>
</svg>
