<svg xmlns="http://www.w3.org/2000/svg" width="31.807" height="27.688" viewBox="0 0 31.807 27.688">
  <g id="dotnet" transform="translate(-344.462 -324.484)">
    <path id="Path_414" data-name="Path 414" d="M358.55,334.723c2.322-.122,3.331.978,3.972,2.9.611,1.864,1.069,3.789,1.589,5.683a3.831,3.831,0,0,0,.275.642c.611-1.956,1.131-3.728,1.681-5.5.4-1.283.764-2.628,2.047-3.3a5.394,5.394,0,0,1,2.231-.672c1.558-.061,3.147.061,4.736.092v.306c-.581.947-1.161,1.894-1.711,2.842a35.113,35.113,0,0,1-4.858,7.272,3.448,3.448,0,0,1-2.628,1.253h-5.775a2.52,2.52,0,0,1-2.6-1.65c-.519-1.161-.917-2.383-1.314-3.575-.4-1.253-.672-2.505-1.039-3.911a9.316,9.316,0,0,0-2.506,3.483,27.984,27.984,0,0,1-1.558,4.125,3.466,3.466,0,0,1-3.208,1.772c-1.069.031-2.139,0-3.422,0,.611-1.65,1.069-3.239,1.742-4.736a16.293,16.293,0,0,1,3.85-5.683,4.4,4.4,0,0,1,3.3-1.375Z" fill="#767676"/>
    <g id="Dot_Net" data-name="Dot Net">
      <g id="_Group_3" data-name=" Group 3">
        <path id="_Path_3" data-name=" Path 3" d="M345.533,343.767h2.6c1.986,0,2.994,0,5.164-6.478l2.6-2.6c2.139,7.822,2.994,9.044,4.522,9.044h5.806c1.589,0,3.208-1.1,9.044-11.642h-5.164c-2.872,0-4,4.95-5.164,9.044-2.017-7.272-2.414-9.044-5.164-9.044h-5.806C351.369,332.156,348.4,334.081,345.533,343.767Z" fill="none" stroke="#030504" stroke-linecap="round" stroke-linejoin="round" stroke-width="2"/>
      </g>
    </g>
    <circle id="Ellipse_154" data-name="Ellipse 154" cx="2.231" cy="2.231" r="2.231" transform="translate(346.695 324.609)" fill="#030504" stroke="#030504" stroke-width="0.25"/>
    <circle id="Ellipse_155" data-name="Ellipse 155" cx="1.192" cy="1.192" r="1.192" transform="translate(352.928 327.695)" fill="#030504" stroke="#030504" stroke-width="0.25"/>
    <circle id="Ellipse_156" data-name="Ellipse 156" cx="2.567" cy="2.567" r="2.567" transform="translate(353.631 345.967)" fill="#030504" stroke="#030504" stroke-width="0.25"/>
    <circle id="Ellipse_157" data-name="Ellipse 157" cx="1.192" cy="1.192" r="1.192" transform="translate(362.308 348.962)" fill="#030504" stroke="#030504" stroke-width="0.25"/>
    <circle id="Ellipse_158" data-name="Ellipse 158" cx="0.947" cy="0.947" r="0.947" transform="translate(366.678 350.153)" fill="#030504" stroke="#030504" stroke-width="0.25"/>
  </g>
</svg>
