<svg xmlns="http://www.w3.org/2000/svg" width="30.858" height="31" viewBox="0 0 30.858 31">
  <g id="enterprisesoftware" transform="translate(-151.606 -245.384)">
    <path id="Path_307" data-name="Path 307" d="M178.422,271.511c-2.9-.08-4.871-.16-7.777-.246h-9.6a1.784,1.784,0,0,1-1.78-1.78V257.447h19.2v3.245C178.761,264.294,178.126,267.9,178.422,271.511Z" fill="#767676"/>
    <path id="Path_308" data-name="Path 308" d="M177.505,248.943H157.231a3.105,3.105,0,0,0-3.1,3.1v17.171a4.144,4.144,0,0,0,4.138,4.138h11.17a1.035,1.035,0,0,0,0-2.069h-11.17a2.072,2.072,0,0,1-2.069-2.069V255.2h22.339v3.775a1.035,1.035,0,0,0,2.069,0h0v-6.931A3.105,3.105,0,0,0,177.505,248.943Zm-4.187,2.069a1.034,1.034,0,1,1-1.035,1.033v0a1.032,1.032,0,0,1,1.035-1.031Zm5.172,1.031a1.034,1.034,0,1,1-1.034-1.034h0a1.033,1.033,0,0,1,1.034,1.032Zm-22.29,0a1.033,1.033,0,0,1,1.031-1.031h13.162a3.079,3.079,0,0,0,.018,2.118H156.2Zm20.221,15.514a1.034,1.034,0,1,1,1.034-1.034h0a1.034,1.034,0,0,1-1.032,1.034Zm3.393-4.52a8.153,8.153,0,0,1,.012,7,2.78,2.78,0,0,1-2.543,1.663h-.006l-3.27-.006a2.78,2.78,0,0,1-2.574-1.73,9,9,0,0,1-.419-1.33,1.032,1.032,0,0,1,2.007-.48,6.21,6.21,0,0,0,.32,1.022.724.724,0,0,0,.665.449l3.27.006h0a.7.7,0,0,0,.647-.425,6.932,6.932,0,0,0,.61-2.685,6.649,6.649,0,0,0-.61-2.635.7.7,0,0,0-.659-.413h-3.226a.671.671,0,0,0-.659.425,7.494,7.494,0,0,0-.339,1.065,1.034,1.034,0,0,1-1,.788h-7.109l-.77.794.8.813h2.925a1.035,1.035,0,0,1,0,2.069h-3.361a1.046,1.046,0,0,1-.739-.308l-1.81-1.841a1.038,1.038,0,0,1-.006-1.447L163.75,264a1.024,1.024,0,0,1,.739-.314h6.772c.068-.209.135-.388.191-.53a2.73,2.73,0,0,1,2.586-1.749h3.233a2.776,2.776,0,0,1,2.543,1.634Z" fill="#030504"/>
    <circle id="Ellipse_63" data-name="Ellipse 63" cx="1.465" cy="1.465" r="1.465" transform="translate(151.606 245.384)" fill="#252a2e"/>
    <circle id="Ellipse_64" data-name="Ellipse 64" cx="0.739" cy="0.739" r="0.739" transform="translate(155.294 246.849)" fill="#252a2e"/>
    <circle id="Ellipse_65" data-name="Ellipse 65" cx="1.5" cy="1.5" r="1.5" transform="translate(179.464 273.384)" fill="#252a2e"/>
    <circle id="Ellipse_66" data-name="Ellipse 66" cx="1.041" cy="1.041" r="1.041" transform="translate(176.895 272.674)" fill="#252a2e"/>
  </g>
</svg>
