<svg xmlns="http://www.w3.org/2000/svg" width="29.551" height="25.9" viewBox="0 0 29.551 25.9">
  <g id="fullstack" transform="translate(-345.358 -391.073)">
    <path id="Path_510" data-name="Path 510" d="M349.987,398.422H370.8l-10.554,5.725Z" fill="#767676"/>
    <path id="Path_511" data-name="Path 511" d="M349.987,403.726H370.8l-10.554,5.725Z" fill="#767676"/>
    <path id="Path_512" data-name="Path 512" d="M349.987,410.357H370.8l-10.554,5.725Z" fill="#767676"/>
    <path id="Path_0-3" data-name="Path 0-3" d="M360.118,391.073c.021,0,3.357,1.658,7.414,3.687s7.377,3.7,7.377,3.711-3.326,1.686-14.784,7.414l-7.392-3.7c-4.064-2.029-7.384-3.7-7.375-3.722s3.324-1.686,7.369-3.709S360.1,391.074,360.118,391.073Zm-9.827,7.4,9.835,4.9,9.841-4.9c-7.591-3.8-9.816-4.9-9.841-4.9s-2.248,1.1-4.94,2.45Zm-2,4.033s2.667,1.325,11.835,5.908l11.827-5.913,1.463.739c.8.406,1.463.753,1.463.769s-3.32,1.69-14.753,7.407l-7.377-3.688c-4.057-2.029-7.373-3.7-7.369-3.72s.659-.362,1.456-.765Zm0,5.548s2.667,1.329,11.835,5.912l11.826-5.913,1.464.732c.805.4,1.464.749,1.464.769s-3.32,1.7-14.753,7.414l-7.378-3.689c-4.057-2.029-7.379-3.7-7.382-3.726s.6-.341,1.456-.768c.8-.4,1.464-.73,1.469-.731Z" fill="#030504" fill-rule="evenodd"/>
  </g>
</svg>
