<svg xmlns="http://www.w3.org/2000/svg" width="29.886" height="32.503" viewBox="0 0 29.886 32.503">
  <g id="ios" transform="translate(-165.934 -176.748)">
    <g id="apple" transform="translate(409.934 -373.765)">
      <path id="Path_408" data-name="Path 408" d="M-218.075,598.444a3.8,3.8,0,0,1-1.689.446h-.032c-1.689,0-3.122-1.848-4.174-3.473a15.167,15.167,0,0,1-2.549-10.387,7.334,7.334,0,0,1,.956-2.676,6.488,6.488,0,0,1,5.193-3.154,7.317,7.317,0,0,1,2.676.605,7.479,7.479,0,0,0,2.613.573,6.743,6.743,0,0,0,2.358-.542,7.332,7.332,0,0,1,2.868-.637,6.167,6.167,0,0,1,4.206,1.912l.064.064-.064.064a6.464,6.464,0,0,0-2.294,3.059,6.767,6.767,0,0,0,3.25,8.284l.064.032-.032.064a18.8,18.8,0,0,1-1.434,2.581c-1.115,1.689-2.613,3.664-4.269,3.664h-.032a3.672,3.672,0,0,1-1.657-.446,6.279,6.279,0,0,0-2.963-.7h-.032A6.251,6.251,0,0,0-218.075,598.444Z" transform="translate(-11.81 -19.375)" opacity="0.4"/>
      <g id="Apple-2" data-name="Apple" transform="translate(-242.375 550.765)">
        <g id="_Group_" transform="translate(0 0)">
          <g id="_Path_" transform="translate(13.221)">
            <path id="Path_409" data-name="Path 409" d="M-196.606,558.965a.963.963,0,0,1-.51-.159.785.785,0,0,1-.287-.605,7.453,7.453,0,0,1,5.926-7.424.851.851,0,0,1,.669.159.784.784,0,0,1,.287.605,7.453,7.453,0,0,1-5.926,7.424Zm4.4-6.309a5.79,5.79,0,0,0-3.537,4.429A5.79,5.79,0,0,0-192.209,552.656Z" transform="translate(197.404 -550.765)" stroke="#000" stroke-width="0.5"/>
          </g>
          <g id="_Path_2" transform="translate(0 7.913)">
            <path id="Path_410" data-name="Path 410" d="M-218.923,599.687a8.706,8.706,0,0,1-3.76-.8,5.454,5.454,0,0,0-2.2-.542,4.98,4.98,0,0,0-2.2.542,8.706,8.706,0,0,1-3.76.8c-2.963,0-8.061-7.264-8.061-14.688,0-6.946,4.333-9.4,8.061-9.4a8.092,8.092,0,0,1,3.154.7,7.411,7.411,0,0,0,2.8.637,7.411,7.411,0,0,0,2.8-.637,8.4,8.4,0,0,1,3.186-.7,8.051,8.051,0,0,1,5.831,2.517.739.739,0,0,1,.191.669.928.928,0,0,1-.382.573,5.756,5.756,0,0,0-2.9,4.97,5.5,5.5,0,0,0,3.473,5.193.794.794,0,0,1,.446.988C-213.666,595-216.5,599.687-218.923,599.687Zm-5.958-2.9a6.588,6.588,0,0,1,2.772.637,7.268,7.268,0,0,0,3.154.669c.988,0,3.377-2.868,4.97-7.392a7.123,7.123,0,0,1-3.792-6.372h0a7.4,7.4,0,0,1,2.836-5.735,6.354,6.354,0,0,0-3.983-1.37h-.032a6.679,6.679,0,0,0-2.581.605,8.572,8.572,0,0,1-3.377.733,8.707,8.707,0,0,1-3.377-.733,6.679,6.679,0,0,0-2.581-.605c-1.083,0-6.468.382-6.468,7.806,0,7.2,4.907,13.1,6.468,13.1a7.268,7.268,0,0,0,3.154-.669A6.642,6.642,0,0,1-224.881,596.788Z" transform="translate(238.9 -575.6)" stroke="#000" stroke-width="0.5"/>
          </g>
        </g>
      </g>
      <circle id="Ellipse_142" data-name="Ellipse 142" cx="2.549" cy="2.549" r="2.549" transform="translate(-244 553.867)"/>
      <circle id="Ellipse_143" data-name="Ellipse 143" cx="0.988" cy="0.988" r="0.988" transform="translate(-237.851 551.413)"/>
      <circle id="Ellipse_144" data-name="Ellipse 144" cx="1.561" cy="1.561" r="1.561" transform="translate(-217.236 579.515)"/>
    </g>
  </g>
</svg>
