<svg xmlns="http://www.w3.org/2000/svg" width="28" height="29.202" viewBox="0 0 28 29.202">
  <g id="meanstack" transform="translate(-152.464 -388.384)">
    <g id="Background-3">
      <path id="Subtraction_6" data-name="Subtraction 6" d="M165.84,402.384h-6.03c-4.733,0-6.03-.037-6.032-.171,0-.093-.06-.561-.134-1.064-.08-.565-.311-2.065-.4-2.677-.144-.932-.362-2.363-.5-3.294-.151-1-.243-1.826-.272-2.443l6.515-2.165c3.657-1.214,6.6-2.169,6.685-2.175h0c.138,0,.172,1.647.172,13.989Zm-1.431-12.371h0c-.051,0-2.4.776-5.352,1.757l-5.257,1.747c.349,2.381.6,4.038.755,5.078.172,1.13.323,2.2.323,2.289a.025.025,0,0,0,.009.019c.107.107,1.184.138,4.8.138H164.5c0-3.641-.008-6.42-.024-8.258S164.44,390.013,164.409,390.013Zm2.679,12.371h0v-7c0-3.86.047-7,.1-7s4.414,1.422,13.276,4.348l-.014.468c-.008.258-.123,1.164-.251,1.978l-.007.044c-.208,1.339-.387,2.493-.5,3.25-.138.9-.33,2.167-.4,2.676s-.133.971-.134,1.064C179.147,402.349,177.727,402.384,167.088,402.384Zm1.514-12.346a37.432,37.432,0,0,0-.155,5.471l-.02,5.529h9.558c.386-2.624.679-4.575.87-5.8l.27-1.722c-6.987-2.3-10.428-3.443-10.518-3.481Z" fill="#030504"/>
      <path id="Subtraction_4" data-name="Subtraction 4" d="M167.224,417.586a.033.033,0,0,1-.022-.005c-.058-.054-.1-3.176-.1-6.957v-6.856h5.857c3.229,0,5.857.047,5.858.1s-.11.853-.27,1.9c-.161,1.068-.382,2.548-.493,3.307-.126.858-.253,1.736-.288,2s-.094.651-.129.862a.621.621,0,0,1-.286.426,7.6,7.6,0,0,1-1.052.592c-.711.358-2.242,1.152-3.411,1.771-1.191.628-2.922,1.542-3.856,2.042A9.493,9.493,0,0,1,167.224,417.586Zm1.211-12.4v5.26c0,2.9.042,5.259.093,5.259s1.319-.638,2.819-1.438c1.484-.782,3.231-1.7,3.922-2.071l1.2-.635c.108-.9.28-2.1.524-3.652.2-1.264.36-2.388.36-2.507a.1.1,0,0,0-.027-.074c-.13-.131-.844-.142-4.429-.142Zm-2.694,12.4a9.584,9.584,0,0,1-1.808-.819l-3.859-2.045c-1.182-.625-2.712-1.42-3.411-1.771a7.609,7.609,0,0,1-1.053-.592.62.62,0,0,1-.285-.426c-.035-.209-.094-.6-.13-.862s-.162-1.141-.288-2c-.13-.89-.352-2.373-.493-3.3-.156-1.046-.267-1.843-.267-1.9s3.943-.1,11.715-.1v6.856c0,3.782-.045,6.9-.1,6.957A.039.039,0,0,1,165.741,417.586Zm-10.127-12.393v.279c0,.153.079.75.176,1.331.1.6.3,1.931.447,2.911l.271,1.858c3.5,1.853,5.65,2.995,6.569,3.49l1.456.784V405.193Z" fill="#030504"/>
    </g>
    <path id="Path_505" data-name="Path 505" d="M155,394.314l8-1.847v7.5h-6.09Z" fill="#767676"/>
    <path id="Path_506" data-name="Path 506" d="M177.8,394.589l-7.588-1.847v7.5h5.777Z" fill="#767676"/>
    <path id="Path_508" data-name="Path 508" d="M175.025,411.762l-5.355,1.715v-7.5H176.4Z" fill="#767676"/>
    <path id="Path_509" data-name="Path 509" d="M158.045,411.762,163,413.477v-7.5H156.77Z" fill="#767676"/>
  </g>
</svg>
