<svg xmlns="http://www.w3.org/2000/svg" width="34.338" height="34.351" viewBox="0 0 34.338 34.351">
  <g id="on-demand" transform="translate(-673.464 -174.384)">
    <path id="Path_299" data-name="Path 299" d="M681.786,186.069a3.43,3.43,0,1,0-3.4-3.46v.03A3.416,3.416,0,0,0,681.786,186.069Zm0-4.577a1.141,1.141,0,1,1-1.134,1.148v-.007A1.139,1.139,0,0,1,681.786,181.492Zm17.665,4.577a3.43,3.43,0,1,0-3.4-3.46v.03a3.416,3.416,0,0,0,3.4,3.43Zm0-4.577a1.141,1.141,0,1,1-1.136,1.146v-.005a1.139,1.139,0,0,1,1.137-1.141h0Zm5.664,9.087v5.027a3.439,3.439,0,0,1-2.269,3.235v6.2a1.134,1.134,0,0,1-2.269,0V197.9a1.139,1.139,0,0,1,1.137-1.141h0a1.139,1.139,0,0,0,1.134-1.141v-5.027a1.139,1.139,0,0,0-1.134-1.141H699.68a1.141,1.141,0,0,1,0-2.282h2.04a3.4,3.4,0,0,1,3.4,3.4Zm-6.792,7.316v7.148a1.134,1.134,0,0,1-2.269,0v-6.195a3.444,3.444,0,0,1-1.639-1.255,4.166,4.166,0,0,1-.4.174v7.275a1.135,1.135,0,0,1-2.269,0v-8.234a1.139,1.139,0,0,1,1.134-1.141,1.139,1.139,0,0,0,1.135-1.143V188.3a1.139,1.139,0,0,0-1.134-1.141h-4.53a1.138,1.138,0,0,0-1.136,1.141v6.224a1.139,1.139,0,0,0,1.134,1.141,1.139,1.139,0,0,1,1.134,1.141v8.235a1.134,1.134,0,0,1-2.269,0v-7.277a3.024,3.024,0,0,1-.4-.175,3.362,3.362,0,0,1-1.644,1.255v6.2a1.134,1.134,0,0,1-2.269,0V197.9a1.139,1.139,0,0,1,1.134-1.141,1.14,1.14,0,0,0,1.128-1.02,3.456,3.456,0,0,1-.221-1.215v-6.228a3.416,3.416,0,0,1,3.4-3.43h4.53a3.416,3.416,0,0,1,3.4,3.43v6.23a3.5,3.5,0,0,1-.221,1.215,1.141,1.141,0,0,0,1.128,1.02,1.141,1.141,0,0,1,1.145,1.137v0Zm-15.632-9.6a1.139,1.139,0,0,1-1.134,1.141h-2.042a1.139,1.139,0,0,0-1.134,1.141V195.6a1.14,1.14,0,0,0,1.134,1.143,1.139,1.139,0,0,1,1.134,1.141v7.155a1.134,1.134,0,0,1-2.269,0v-6.195a3.441,3.441,0,0,1-2.265-3.235v-5.027a3.416,3.416,0,0,1,3.4-3.43h2.047a1.134,1.134,0,0,1,1.13,1.138v0Zm7.924-4.515a3.43,3.43,0,1,0-3.4-3.46v.03A3.416,3.416,0,0,0,690.615,183.78Zm0-4.571a1.141,1.141,0,1,1-1.13,1.152v-.01a1.139,1.139,0,0,1,1.13-1.141Z" fill="#030504"/>
    <path id="Path_300" data-name="Path 300" d="M692.612,206.184a1,1,0,0,1-.993-1.007h0v-8.584a1,1,0,0,1,.993-1.007h0a1,1,0,0,0,.993-1.007h0v-4.141a1,1,0,0,0-.993-1.007h-3.987a1,1,0,0,0-.993,1.007h0v4.141a1,1,0,0,0,.993,1.007h0a1,1,0,0,1,.993,1.007h0v8.584a1,1,0,0,1-.993,1.007h0" fill="#767676"/>
    <path id="Path_301" data-name="Path 301" d="M683.787,206.237a1,1,0,0,1-.993-1.007h0v-7.913a1,1,0,0,1,.993-1.007h0a1,1,0,0,0,.993-1.007h0v-4.141a1,1,0,0,0-.993-1.007H679.8a1,1,0,0,0-.993,1.007h0V195.3a1,1,0,0,0,.993,1.007h0a1,1,0,0,1,.993,1.007h0v7.913a1,1,0,0,1-.993,1.007h0" fill="#767676"/>
    <path id="Path_302" data-name="Path 302" d="M701.445,206.184a1,1,0,0,1-.993-1.007h0v-7.913a1,1,0,0,1,.993-1.007h0a1,1,0,0,0,.993-1.007h0v-4.141a1,1,0,0,0-.993-1.007h-3.987a1,1,0,0,0-.993,1.007h0v4.141a1,1,0,0,0,.993,1.007h0a1,1,0,0,1,.993,1.007h0v7.913a1,1,0,0,1-.993,1.007h0" fill="#767676"/>
    <ellipse id="Ellipse_50" data-name="Ellipse 50" cx="2.329" cy="2.403" rx="2.329" ry="2.403" transform="translate(673.464 174.384)" fill="#030504"/>
    <ellipse id="Ellipse_51" data-name="Ellipse 51" cx="0.953" cy="0.987" rx="0.953" ry="0.987" transform="translate(680.404 175.8)" fill="#030504"/>
    <circle id="Ellipse_52" data-name="Ellipse 52" cx="2.148" cy="2.148" r="2.148" transform="translate(703.506 204.439)" fill="#030504"/>
    <ellipse id="Ellipse_53" data-name="Ellipse 53" cx="0.953" cy="0.987" rx="0.953" ry="0.987" transform="translate(704.828 200.64)" fill="#030504"/>
  </g>
</svg>
