<svg xmlns="http://www.w3.org/2000/svg" width="38.512" height="27.228" viewBox="0 0 38.512 27.228">
  <g id="php" transform="translate(-278.443 -390.483)">
    <ellipse id="Ellipse_225" data-name="Ellipse 225" cx="14" cy="8" rx="14" ry="8" transform="translate(287.464 395.384)" fill="#767676"/>
    <path id="Path_0-2" data-name="Path 0-2" d="M297.3,393.614c.149-.005,1.057.042,2.015.1s2.158.169,2.674.234,1.314.19,1.784.277,1.323.278,1.9.423,1.447.4,1.938.567,1.17.415,1.512.552,1.021.453,1.512.7,1.205.66,1.589.909a17.058,17.058,0,0,1,1.4,1.039,11.631,11.631,0,0,1,1.117,1.081,11.983,11.983,0,0,1,.77,1.036,8.724,8.724,0,0,1,.539.969,9.317,9.317,0,0,1,.374,1.163,6.092,6.092,0,0,1,.184,1.26,6.787,6.787,0,0,1-.135,1.128,9.036,9.036,0,0,1-.346,1.182,7.676,7.676,0,0,1-.633,1.2,12.887,12.887,0,0,1-.8,1.074,11.83,11.83,0,0,1-1.085,1.039,16.693,16.693,0,0,1-1.4,1.041c-.384.25-1.1.658-1.589.909s-1.17.567-1.512.7-1.022.385-1.512.552-1.363.422-1.938.567-1.43.336-1.9.423-1.271.212-1.783.278-1.732.171-2.713.235a20.168,20.168,0,0,1-3.527,0c-.959-.064-2.146-.168-2.636-.233s-1.293-.189-1.783-.278-1.31-.266-1.822-.395-1.314-.357-1.783-.508-1.236-.43-1.705-.621-1.219-.535-1.667-.764-1.128-.622-1.512-.87a16.9,16.9,0,0,1-1.4-1.039,11.519,11.519,0,0,1-1.117-1.081,11.984,11.984,0,0,1-.77-1.036,8.738,8.738,0,0,1-.54-.969,9.318,9.318,0,0,1-.374-1.163,6.024,6.024,0,0,1-.184-1.26,6.749,6.749,0,0,1,.124-1.124,9.1,9.1,0,0,1,.367-1.172,7.682,7.682,0,0,1,.633-1.2,12.461,12.461,0,0,1,.8-1.074,11.711,11.711,0,0,1,1.082-1.043,16.762,16.762,0,0,1,1.4-1.041c.384-.249,1.064-.64,1.512-.87s1.128-.546,1.512-.706,1.1-.425,1.589-.591,1.362-.421,1.938-.566,1.412-.333,1.86-.418,1.284-.213,1.86-.286,1.691-.175,2.48-.229S297.151,393.62,297.3,393.614Zm-3.76,1.885c-.6.071-1.678.248-2.4.394s-1.736.389-2.248.54-1.314.417-1.783.593-1.271.529-1.783.784-1.227.657-1.589.892-.917.641-1.232.9a9.422,9.422,0,0,0-1.008.99,9.132,9.132,0,0,0-.7.969,6.813,6.813,0,0,0-.455.957,4.3,4.3,0,0,0-.224,1.2,5.252,5.252,0,0,0,.043,1.085,6.966,6.966,0,0,0,.239.814,6.694,6.694,0,0,0,.56,1.046,8.626,8.626,0,0,0,1,1.2,13.05,13.05,0,0,0,1.326,1.1,18.146,18.146,0,0,0,1.805,1.086c.6.307,1.486.709,1.977.895s1.31.458,1.822.607,1.427.374,2.035.5,1.645.3,2.306.388,1.908.192,2.771.238a27.174,27.174,0,0,0,3.1,0c.842-.046,2.071-.153,2.732-.238s1.7-.26,2.306-.388,1.523-.355,2.035-.5,1.331-.422,1.822-.608,1.292-.54,1.783-.785,1.188-.639,1.55-.874.921-.645,1.24-.911a9.329,9.329,0,0,0,1.008-1,9.656,9.656,0,0,0,.719-1,6.345,6.345,0,0,0,.465-.991,3.667,3.667,0,0,0,.169-1.434,3.335,3.335,0,0,0-.2-1.434,7.2,7.2,0,0,0-.461-.957,9.132,9.132,0,0,0-.7-.969,9.419,9.419,0,0,0-1.008-.99c-.315-.26-.87-.667-1.232-.9s-1.06-.629-1.55-.875-1.293-.6-1.783-.785-1.31-.46-1.822-.608-1.427-.374-2.035-.5-1.646-.3-2.306-.388-1.821-.189-2.577-.231-1.637-.071-1.957-.066-1.053.036-1.628.067S294.138,395.428,293.541,395.5Zm2,1.361h1.033a4.7,4.7,0,0,1,1.033.058c0,.032-.14.721-.31,1.531s-.31,1.5-.311,1.531a11.371,11.371,0,0,0,1.608.083,5.549,5.549,0,0,1,2.035.188,2,2,0,0,1,.678.44,1.727,1.727,0,0,1,.339.606,2.909,2.909,0,0,1,.04.833c-.026.277-.23,1.341-.864,4.225l-1.066.019c-.981.018-1.062.009-1.029-.116.019-.074.2-.886.4-1.8a20.163,20.163,0,0,0,.371-2.042c.007-.317-.024-.4-.2-.562a1.087,1.087,0,0,0-.62-.23,20.2,20.2,0,0,0-2.029,0l-1.015,4.775h-1.027c-1.021,0-1.027,0-1-.175.015-.1.457-2.241.983-4.767Zm-6.71,3.179a14.208,14.208,0,0,1,2.811.117,3.7,3.7,0,0,1,.736.3,2.528,2.528,0,0,1,.533.445,3.609,3.609,0,0,1,.381.573,2.416,2.416,0,0,1,.193.891,3.478,3.478,0,0,1-.093,1.085,6.547,6.547,0,0,1-.357.988,2.88,2.88,0,0,1-1.412,1.414,5.728,5.728,0,0,1-1.027.35,28.08,28.08,0,0,1-3.278.232l-.133.775c-.073.426-.164.941-.271,1.512h-1.047c-1.043,0-1.046,0-1.013-.174.018-.1.368-2.005.777-4.244s.76-4.113.779-4.166A9.219,9.219,0,0,1,288.831,400.039Zm-.912,3.177c-.131.7-.253,1.34-.273,1.415-.033.126.057.134,1.225.113,1.108-.019,1.3-.042,1.57-.186a2.074,2.074,0,0,0,.475-.346,2.489,2.489,0,0,0,.3-.453,2.887,2.887,0,0,0,.184-.861l.045-.591a1.764,1.764,0,0,0-.95-.63,8.654,8.654,0,0,0-1.336-.088c-.9,0-.93.005-.968.174C288.174,401.859,288.05,402.513,287.919,403.216Zm17.577-3.177a16.684,16.684,0,0,1,2.773.1,4.027,4.027,0,0,1,.639.231,3.131,3.131,0,0,1,.533.381,2.594,2.594,0,0,1,.477.639,2.294,2.294,0,0,1,.232.969,3.476,3.476,0,0,1-.093,1.085,6.392,6.392,0,0,1-.348.969,4.057,4.057,0,0,1-.521.8,2.882,2.882,0,0,1-.843.6,5.793,5.793,0,0,1-1.085.38A27.271,27.271,0,0,1,304,406.4l-.181,1.017c-.1.56-.2,1.078-.213,1.153-.029.121-.147.136-1.079.136-1.043,0-1.046,0-1.013-.174.019-.1.369-2,.778-4.244s.76-4.113.779-4.166A9.175,9.175,0,0,1,305.5,400.039Zm-.671,1.96c-.044.224-.169.877-.277,1.453s-.213,1.108-.234,1.182c-.034.126.054.134,1.222.113,1.108-.019,1.3-.042,1.57-.186a2.073,2.073,0,0,0,.475-.346,2.488,2.488,0,0,0,.3-.453,2.906,2.906,0,0,0,.193-.863l.045-.591a1.764,1.764,0,0,0-.95-.63,8.6,8.6,0,0,0-1.332-.088h-.926Z" fill="#030504" fill-rule="evenodd"/>
    <g id="Group_342" data-name="Group 342">
      <circle id="Ellipse_127-25" data-name="Ellipse 127-25" cx="1.597" cy="1.597" r="1.597" transform="translate(311.62 413.784)" fill="#030504" stroke="#030504" stroke-width="0.25"/>
      <circle id="Ellipse_128-25" data-name="Ellipse 128-25" cx="0.644" cy="0.644" r="0.644" transform="translate(315.542 416.298)" fill="#030504" stroke="#030504" stroke-width="0.25"/>
    </g>
    <g id="Group_343" data-name="Group 343">
      <circle id="Ellipse_127-26" data-name="Ellipse 127-26" cx="1.597" cy="1.597" r="1.597" transform="translate(281.235 390.608)" fill="#030504" stroke="#030504" stroke-width="0.25"/>
      <circle id="Ellipse_128-26" data-name="Ellipse 128-26" cx="0.644" cy="0.644" r="0.644" transform="translate(279.218 393.122)" fill="#030504" stroke="#030504" stroke-width="0.25"/>
    </g>
  </g>
</svg>
