<svg xmlns="http://www.w3.org/2000/svg" width="31.869" height="29.676" viewBox="0 0 31.869 29.676">
  <g id="reactjs" transform="translate(246.112 -554.42)">
    <g id="Group_295" data-name="Group 295" transform="translate(-245.112 555.189)">
      <path id="Path_445" data-name="Path 445" d="M-222.353,571.618c-.294-.088-.558-.176-.851-.264a4.157,4.157,0,0,0,.117-.587c.646-3.14.235-5.664-1.2-6.486-1.379-.792-3.639.029-5.928,2.025-.235.205-.44.411-.646.616-.147-.147-.293-.264-.44-.411-2.377-2.113-4.784-3.023-6.222-2.172-1.379.792-1.79,3.17-1.2,6.134.059.293.117.587.205.88a7.477,7.477,0,0,0-.969.323c-2.817.969-4.608,2.524-4.608,4.109,0,1.643,1.908,3.287,4.842,4.285.235.088.47.147.7.235-.088.323-.147.616-.205.939-.558,2.905-.117,5.224,1.262,6.016,1.409.822,3.815-.029,6.134-2.054.176-.147.382-.323.558-.5.235.235.47.44.7.646,2.26,1.937,4.461,2.729,5.84,1.937,1.409-.822,1.878-3.316,1.291-6.339-.059-.235-.088-.47-.147-.7.176-.059.323-.088.5-.147,3.023-1,5.019-2.641,5.019-4.285-.029-1.673-1.878-3.228-4.754-4.2Z" transform="translate(244.288 -559.835)" fill="#898989"/>
      <path id="Path_446" data-name="Path 446" d="M-202.507,592.3a2.692,2.692,0,0,1,2.693,2.693,2.692,2.692,0,0,1-2.693,2.693,2.692,2.692,0,0,1-2.693-2.693,2.673,2.673,0,0,1,2.693-2.693" transform="translate(217.567 -580.864)"/>
      <ellipse id="Ellipse_190" data-name="Ellipse 190" cx="14.935" cy="6.105" rx="14.935" ry="6.105" transform="translate(0 8.054)" fill="none" stroke="#000" stroke-miterlimit="10" stroke-width="2"/>
      <g id="Group_293" data-name="Group 293" transform="translate(5.084 0.042)">
        <path id="Path_447" data-name="Path 447" d="M-212.632,584.179c-3.444,0-8.328-4.258-11.992-10.771a30.206,30.206,0,0,1-3.726-10.364c-.407-3.35.282-5.761,2-6.7,3.381-1.91,9.393,2.63,13.714,10.332s5.072,15.185,1.722,17.1h0A3.877,3.877,0,0,1-212.632,584.179Zm-11.929-26.739a1.668,1.668,0,0,0-.971.25c-1.1.626-1.566,2.5-1.221,5.166a28.079,28.079,0,0,0,3.538,9.8c4.1,7.264,9.393,10.958,11.585,9.737h0c2.192-1.221,1.785-7.671-2.317-14.966C-217.548,561.072-222.025,557.44-224.561,557.44Z" transform="translate(228.463 -555.909)"/>
      </g>
      <g id="Group_294" data-name="Group 294" transform="translate(5.12 0)">
        <path id="Path_448" data-name="Path 448" d="M-224.514,584.087a3.284,3.284,0,0,1-1.722-.438h0c-3.381-1.91-2.63-9.393,1.722-17.1a29.8,29.8,0,0,1,6.951-8.579c2.661-2.1,5.072-2.724,6.794-1.753,3.381,1.91,2.63,9.393-1.722,17.1C-216.185,579.829-221.069,584.087-224.514,584.087Zm-.971-1.785c2.192,1.221,7.483-2.474,11.585-9.737s4.509-13.714,2.317-14.966c-1.1-.626-2.943-.031-5.041,1.628a27.957,27.957,0,0,0-6.544,8.109c-4.1,7.264-4.509,13.714-2.317,14.966Z" transform="translate(228.349 -555.775)"/>
      </g>
    </g>
    <ellipse id="Ellipse_191" data-name="Ellipse 191" cx="2" cy="2.5" rx="2" ry="2.5" transform="translate(-245.498 554.42)"/>
    <circle id="Ellipse_192" data-name="Ellipse 192" cx="0.845" cy="0.845" r="0.845" transform="translate(-244.11 561.521)"/>
    <circle id="Ellipse_193" data-name="Ellipse 193" cx="2.192" cy="2.192" r="2.192" transform="translate(-219.626 579.712)"/>
  </g>
</svg>
