<svg xmlns="http://www.w3.org/2000/svg" width="31.526" height="31.525" viewBox="0 0 31.526 31.525">
  <g id="seo" transform="translate(-1063.464 -247.384)">
    <path id="Path_311-8" data-name="Path 311-8" d="M1087.99,271.665a2.175,2.175,0,0,1-.554,1.318,2.106,2.106,0,0,1-1.33.548h-16.583a1.875,1.875,0,0,1-1.884-1.86V259.065h20.351v7.956A22.956,22.956,0,0,1,1087.99,271.665Z" fill="#767676"/>
    <path id="Path_312-8" data-name="Path 312-8" d="M1089.738,250.647h-21.022a3.2,3.2,0,0,0-3.22,3.177V271.41a4.272,4.272,0,0,0,4.292,4.237h18.879a4.272,4.272,0,0,0,4.292-4.236,1.071,1.071,0,1,0-2.143,0,2.132,2.132,0,0,1-2.143,2.118h-18.885a2.131,2.131,0,0,1-2.143-2.118V257.057h23.171v9.058a1.071,1.071,0,0,0,2.143,0V253.824A3.2,3.2,0,0,0,1089.738,250.647Zm-4.342,2.118a1.059,1.059,0,1,1-1.071,1.059A1.059,1.059,0,0,1,1085.4,252.765Zm5.363,1.059a1.071,1.071,0,1,1-1.083-1.059h.012a1.065,1.065,0,0,1,1.072,1.059Zm-23.121,0a1.066,1.066,0,0,1,1.071-1.059h13.646a3.144,3.144,0,0,0,.018,2.174h-14.734Z" fill="#030504"/>
    <circle id="Ellipse_126-8" data-name="Ellipse 126-8" cx="1.404" cy="1.404" r="1.404" transform="translate(1063.464 247.384)" fill="#030504"/>
    <circle id="Ellipse_127-8" data-name="Ellipse 127-8" cx="1.404" cy="1.404" r="1.404" transform="translate(1090.409 275.567)" fill="#030504"/>
    <circle id="Ellipse_128-8" data-name="Ellipse 128-8" cx="0.566" cy="0.566" r="0.566" transform="translate(1093.858 277.777)" fill="#030504"/>
    <g id="line-chart">
      <g id="Group_181" data-name="Group 181">
        <g id="Group_180" data-name="Group 180">
          <path id="Path_335" data-name="Path 335" d="M1082.973,262.418a.488.488,0,0,0-.671,0l-3.6,3.441-1.04-1a.487.487,0,0,0-.67,0l-4.22,4.049a.441.441,0,0,0-.018.625l.018.018a.489.489,0,0,0,.67,0l3.885-3.727,1.04,1a.489.489,0,0,0,.67,0l3.936-3.761a.442.442,0,0,0,.02-.625Z" fill="#030504" stroke="#030504" stroke-width="0.5"/>
        </g>
      </g>
      <g id="Group_185" data-name="Group 185">
        <g id="Group_184" data-name="Group 184">
          <path id="Path_337" data-name="Path 337" d="M1083.376,261.26h-5.514a.735.735,0,1,0,0,1.47h4.779v4.779a.735.735,0,1,0,1.47,0v-5.514A.735.735,0,0,0,1083.376,261.26Z" fill="#030504"/>
        </g>
      </g>
    </g>
  </g>
</svg>
