<svg xmlns="http://www.w3.org/2000/svg" width="28.757" height="32.315" viewBox="0 0 28.757 32.315">
  <g id="shopify" transform="translate(-1620.076 -373.549)">
    <path id="Path_483" data-name="Path 483" d="M1644.36,380.05l-2.479-.185s-1.644-1.632-1.824-1.813a.449.449,0,0,0-.254-.117l-1.328,27.159,9.515-2.058s-3.341-22.585-3.362-22.74a.3.3,0,0,0-.269-.25" fill="#767676"/>
    <path id="Path_482" data-name="Path 482" d="M1644.628,380.3a.3.3,0,0,0-.269-.25l-2.478-.185s-1.644-1.632-1.824-1.813a.748.748,0,0,0-.67-.085l-.92.284c-.549-1.58-1.518-3.032-3.223-3.032h-.144a2.07,2.07,0,0,0-1.6-.92c-3.972,0-5.869,4.965-6.464,7.488l-2.78.862c-.861.27-.889.3-1,1.109-.091.619-2.345,18.05-2.345,18.05l17.562,3.291,9.516-2.059s-3.339-22.585-3.36-22.74Zm-7.132-1.748-1.486.46v-.32a7.267,7.267,0,0,0-.355-2.4C1636.534,376.4,1637.119,377.4,1637.5,378.552Zm-2.93-2.065a7.367,7.367,0,0,1,.4,2.675v.172l-3.069.95c.591-2.281,1.7-3.382,2.667-3.8Zm-1.18-1.117a.9.9,0,0,1,.509.172c-1.273.6-2.637,2.107-3.213,5.12l-2.426.751C1628.931,379.113,1630.533,375.37,1633.386,375.37Z" fill="none" stroke="#030504" stroke-width="1.5"/>
    <path id="Path_484" data-name="Path 484" d="M1635.244,385.308l-1.173,3.49a5.39,5.39,0,0,0-2.288-.549c-1.847,0-1.94,1.159-1.94,1.452,0,1.594,4.155,2.2,4.155,5.939,0,2.938-1.863,4.829-4.376,4.829a6.09,6.09,0,0,1-4.557-1.876l.807-2.667a5.77,5.77,0,0,0,2.922,1.361,1.179,1.179,0,0,0,1.228-1.128c0-.021,0-.042,0-.063,0-2.079-3.409-2.172-3.409-5.589,0-2.876,2.064-5.659,6.231-5.659a5.113,5.113,0,0,1,2.4.46" fill="none" stroke="#030504" stroke-linecap="round" stroke-linejoin="round" stroke-width="1.5"/>
  </g>
</svg>
