<svg xmlns="http://www.w3.org/2000/svg" width="31.526" height="31.525" viewBox="0 0 31.526 31.525">
  <g id="uiux" transform="translate(-1234.464 -323.384)">
    <path id="Path_311-9" data-name="Path 311-9" d="M1258.99,347.665a2.175,2.175,0,0,1-.554,1.318,2.106,2.106,0,0,1-1.33.548h-16.583a1.875,1.875,0,0,1-1.884-1.86V335.065h20.351v7.956A22.956,22.956,0,0,1,1258.99,347.665Z" fill="#767676"/>
    <path id="Path_312-9" data-name="Path 312-9" d="M1260.738,326.647h-21.022a3.2,3.2,0,0,0-3.22,3.177V347.41a4.272,4.272,0,0,0,4.292,4.237h18.879a4.272,4.272,0,0,0,4.292-4.236,1.071,1.071,0,1,0-2.143,0,2.132,2.132,0,0,1-2.143,2.118h-18.885a2.131,2.131,0,0,1-2.143-2.118V333.057h23.171v9.058a1.071,1.071,0,0,0,2.143,0V329.824A3.2,3.2,0,0,0,1260.738,326.647Zm-4.342,2.118a1.059,1.059,0,1,1-1.071,1.059A1.059,1.059,0,0,1,1256.4,328.765Zm5.363,1.059a1.071,1.071,0,1,1-1.083-1.059h.012a1.065,1.065,0,0,1,1.072,1.059Zm-23.121,0a1.066,1.066,0,0,1,1.071-1.059h13.646a3.144,3.144,0,0,0,.018,2.174h-14.734Z" fill="#030504"/>
    <circle id="Ellipse_126-10" data-name="Ellipse 126-10" cx="1.404" cy="1.404" r="1.404" transform="translate(1234.464 323.384)" fill="#030504"/>
    <circle id="Ellipse_127-14" data-name="Ellipse 127-14" cx="1.404" cy="1.404" r="1.404" transform="translate(1261.409 351.567)" fill="#030504"/>
    <circle id="Ellipse_128-14" data-name="Ellipse 128-14" cx="0.566" cy="0.566" r="0.566" transform="translate(1264.858 353.777)" fill="#030504"/>
    <path id="Path_314-2" data-name="Path 314-2" d="M1247.091,347.271a2.443,2.443,0,0,0,2.675-2.186,2.524,2.524,0,0,0,.012-.3V341.3h-2.007v3.492a.655.655,0,0,1-.608.7c-.024,0-.048,0-.072,0a.656.656,0,0,1-.681-.628.591.591,0,0,1,0-.072V341.3H1244.4v3.483a2.441,2.441,0,0,0,2.385,2.5A2.338,2.338,0,0,0,1247.091,347.271Zm9.04-.166-1.7-2.984,1.617-2.821h-2.184l-.755,1.551-.751-1.551h-2.182l1.625,2.821-1.708,2.985h2.207l.816-1.606.817,1.607Z" fill="#030504"/>
  </g>
</svg>
