<svg xmlns="http://www.w3.org/2000/svg" width="31.58" height="25.776" viewBox="0 0 31.58 25.776">
  <g id="woocommerce" transform="translate(-1618.356 -328.259)">
    <path id="Path_481" data-name="Path 481" d="M1620.486,336.762s1.354-2.343,1.979,0a47.464,47.464,0,0,1,.989,5.936l3.645-5.727,2.343,5,2.135-7.081s2.5-.99,1.666,1.874-2.135,10.153-2.135,10.153l-4.27-5.728-3.384,5.728Z" fill="#767676"/>
    <g id="Background">
      <path id="Subtraction_2" data-name="Subtraction 2" d="M1638.821,351.353c-.04,0-1.781-.959-5.323-2.931l-12.411-.032-.359-.137a3.964,3.964,0,0,1-.688-.363,3.232,3.232,0,0,1-.6-.58,4.808,4.808,0,0,1-.565-1.073l-.017-5.321c-.016-5.126-.012-5.338.1-5.712a3.432,3.432,0,0,1,.353-.748,3.17,3.17,0,0,1,.557-.617,3.606,3.606,0,0,1,.561-.371,3.952,3.952,0,0,1,.568-.2c.2-.057,1.14-.078,10.246-.078,3.41,0,8.189,0,15.982.01l.326.131a4.722,4.722,0,0,1,.688.366,2.826,2.826,0,0,1,.647.616,4.507,4.507,0,0,1,.55,1.04v10.886l-.146.359a3.817,3.817,0,0,1-.419.714,3.262,3.262,0,0,1-.6.58,5.35,5.35,0,0,1-1.047.5l-4.74.015c-2.613.008-4.74.035-4.741.06s.237.622.529,1.331.547,1.348.568,1.42a.156.156,0,0,1,0,.124A.026.026,0,0,1,1638.821,351.353Zm-17.333-15.932h-.012a1.391,1.391,0,0,0-.562.117.956.956,0,0,0-.373.352,1.036,1.036,0,0,0-.141.538c0,.165.131,1.077.294,2.034s.407,2.288.541,2.961.352,1.661.48,2.183.332,1.267.452,1.645a9.316,9.316,0,0,0,.384,1.018,1.97,1.97,0,0,0,.352.493.66.66,0,0,0,.337.164,1.073,1.073,0,0,0,.374-.112,2.156,2.156,0,0,0,.478-.389,7.309,7.309,0,0,0,.577-.77c.178-.273.762-1.373,1.3-2.452s.992-1.959,1.008-1.959a2.237,2.237,0,0,1,.169.464c.077.257.26.773.409,1.152s.414.97.591,1.316.455.829.618,1.077.455.636.65.867a4.153,4.153,0,0,0,.615.6,1.116,1.116,0,0,0,.533.2h.088a.871.871,0,0,0,.379-.078.993.993,0,0,0,.329-.322c.127-.213.137-.311.172-1.75a25.409,25.409,0,0,1,.169-2.542c.073-.566.2-1.411.278-1.884s.23-1.217.333-1.645.261-.992.354-1.256.251-.657.35-.867a1.613,1.613,0,0,0,.182-.658,1.1,1.1,0,0,0-.122-.478,1.332,1.332,0,0,0-.339-.359.967.967,0,0,0-.551-.166h-.066a1.531,1.531,0,0,0-.471.065.676.676,0,0,0-.281.2c-.042.064-.2.377-.344.684s-.335.768-.419,1.017-.232.77-.333,1.166-.261,1.187-.359,1.764-.212,1.341-.255,1.69a3.788,3.788,0,0,1-.108.644,5.573,5.573,0,0,1-.281-.733c-.138-.4-.344-1.1-.46-1.541s-.265-1.109-.336-1.467a5.275,5.275,0,0,0-.258-.924,1.061,1.061,0,0,0-.307-.377.672.672,0,0,0-.388-.1h-.12a.848.848,0,0,0-.508.159,1.641,1.641,0,0,0-.305.328c-.07.1-.7,1.286-1.383,2.58-.665,1.265-1.3,2.481-1.363,2.6s-.085.159-.107.159-.028-.025-.045-.069-.167-.67-.317-1.37-.368-1.8-.481-2.452-.268-1.565-.338-2.03a5.753,5.753,0,0,0-.242-1.062.858.858,0,0,0-.307-.326A1.227,1.227,0,0,0,1621.488,335.421Zm15.373.805h-.01a3.906,3.906,0,0,0-.628.08,3.324,3.324,0,0,0-.718.264,4.144,4.144,0,0,0-.688.478,4.823,4.823,0,0,0-.635.733,8.037,8.037,0,0,0-.486.8c-.1.2-.248.547-.331.778a6.277,6.277,0,0,0-.354,2.243,4.93,4.93,0,0,0,.13,1.286,5.146,5.146,0,0,0,.38,1.017,3.8,3.8,0,0,0,.58.809,3.031,3.031,0,0,0,.659.494,4.293,4.293,0,0,0,.658.252,4.052,4.052,0,0,0,.837.09h0a3.424,3.424,0,0,0,.831-.1,4.589,4.589,0,0,0,.6-.231,3.77,3.77,0,0,0,.651-.487,5.255,5.255,0,0,0,.665-.771c.156-.232.3-.472.434-.718.081-.161.23-.523.331-.807a8.152,8.152,0,0,0,.288-1.132,5.876,5.876,0,0,0,.072-1.376,4.976,4.976,0,0,0-.172-1.225,5.36,5.36,0,0,0-.364-.882,3.858,3.858,0,0,0-.537-.72,3.13,3.13,0,0,0-.7-.509,4.061,4.061,0,0,0-.807-.281A4.021,4.021,0,0,0,1636.861,336.226Zm7.779,0h-.017a4.223,4.223,0,0,0-.572.064,3.647,3.647,0,0,0-.745.278,3.165,3.165,0,0,0-.807.58,5.486,5.486,0,0,0-.6.718c-.131.2-.326.533-.434.748a7.522,7.522,0,0,0-.354.867,7.953,7.953,0,0,0-.238.927,8.5,8.5,0,0,0-.081,1.151,6.691,6.691,0,0,0,.093,1.166,5.792,5.792,0,0,0,.27.882,4.4,4.4,0,0,0,.458.8,3.137,3.137,0,0,0,.613.6,4.37,4.37,0,0,0,.688.368,2.49,2.49,0,0,0,1.141.146h.782a4.834,4.834,0,0,0,1.362-.848,5.459,5.459,0,0,0,.575-.677,9.12,9.12,0,0,0,.466-.806,7.872,7.872,0,0,0,.391-.957,7.566,7.566,0,0,0,.22-.988,8.76,8.76,0,0,0,.045-1.346,3.7,3.7,0,0,0-.192-1.316,5.715,5.715,0,0,0-.35-.807,3.992,3.992,0,0,0-.519-.667,2.71,2.71,0,0,0-.721-.523,4.437,4.437,0,0,0-.807-.274,3.951,3.951,0,0,0-.667-.084Z" fill="none" stroke="#030504" stroke-width="1"/>
      <path id="Path_2" data-name="Path 2" d="M1636.519,338.423a1.626,1.626,0,0,0-.428.313,5.033,5.033,0,0,0-.437.59,4.309,4.309,0,0,0-.4.867,4.946,4.946,0,0,0-.185.987,3.766,3.766,0,0,0,.03.807,5.428,5.428,0,0,0,.2.658,1.86,1.86,0,0,0,.333.553.688.688,0,0,0,.884.142,1.988,1.988,0,0,0,.613-.455,3.308,3.308,0,0,0,.492-.7,5.739,5.739,0,0,0,.3-.852,4.359,4.359,0,0,0,.121-.957,4.061,4.061,0,0,0-.095-.837,3.552,3.552,0,0,0-.254-.656,1.422,1.422,0,0,0-.37-.435.837.837,0,0,0-.389-.135A1.269,1.269,0,0,0,1636.519,338.423Zm7.82-.025a1.909,1.909,0,0,0-.44.345,4.093,4.093,0,0,0-.475.643,4.945,4.945,0,0,0-.359.778,4.334,4.334,0,0,0-.169.867,5.322,5.322,0,0,0,0,.837,3.624,3.624,0,0,0,.176.718,2.071,2.071,0,0,0,.319.557,1.077,1.077,0,0,0,.362.257.781.781,0,0,0,.434,0,1.762,1.762,0,0,0,.561-.317,3,3,0,0,0,.541-.643,4.349,4.349,0,0,0,.353-.778,6.9,6.9,0,0,0,.184-.9,2.492,2.492,0,0,0-.036-1.017,3.682,3.682,0,0,0-.279-.837,1.6,1.6,0,0,0-.339-.444.939.939,0,0,0-.4-.136,1.018,1.018,0,0,0-.433.074Z" fill="none" stroke="#030504" stroke-width="1"/>
    </g>
    <circle id="Ellipse_126-17" data-name="Ellipse 126-17" cx="1.404" cy="1.404" r="1.404" transform="translate(1623.464 328.384)" fill="#030504" stroke="#030504" stroke-width="0.25"/>
    <circle id="Ellipse_127-23" data-name="Ellipse 127-23" cx="1.404" cy="1.404" r="1.404" transform="translate(1642.409 350.567)" fill="#030504" stroke="#030504" stroke-width="0.25"/>
    <circle id="Ellipse_128-23" data-name="Ellipse 128-23" cx="0.566" cy="0.566" r="0.566" transform="translate(1645.858 352.778)" fill="#030504" stroke="#030504" stroke-width="0.25"/>
  </g>
</svg>
