<svg xmlns="http://www.w3.org/2000/svg" width="30.487" height="28.922" viewBox="0 0 30.487 28.922">
  <g id="wordpress" transform="translate(-869.95 -323.694)">
    <circle id="Ellipse_199" data-name="Ellipse 199" cx="11.256" cy="11.256" r="11.256" transform="translate(873.044 330.104)" fill="#767676"/>
    <g id="Group_297" data-name="Group 297">
      <path id="Path_453" data-name="Path 453" d="M900.31,332.251l-6.564,16.409a1.71,1.71,0,0,1-1.564,1.073h0a1.7,1.7,0,0,1-1.564-1.043L885.8,337.25l-4.57,11.348a1.654,1.654,0,0,1-1.534,1.073h-.031a1.7,1.7,0,0,1-1.564-1.043L870,329.4a.769.769,0,1,1,1.412-.612l8.1,19.231c0,.031.031.092.153.092a.193.193,0,0,0,.153-.092l5.153-12.79-2.484-5.858a.769.769,0,1,1,1.412-.612l2.576,6.134,5.551,13.189c0,.031.031.092.153.092a.193.193,0,0,0,.153-.092L898.9,331.67c.031-.031,0-.092,0-.153l-3.1-4.877a.789.789,0,0,1,.245-1.073.748.748,0,0,1,1.033.228l.01.017,3.1,4.877A1.76,1.76,0,0,1,900.31,332.251Z" fill="#030504"/>
    </g>
    <g id="Group_298" data-name="Group 298">
      <path id="Path_454" data-name="Path 454" d="M900.31,332.251l-6.564,16.409a1.71,1.71,0,0,1-1.564,1.073h0a1.7,1.7,0,0,1-1.564-1.043L885.8,337.25l-4.57,11.348a1.654,1.654,0,0,1-1.534,1.073h-.031a1.7,1.7,0,0,1-1.564-1.043L870,329.4a.769.769,0,1,1,1.412-.612l8.1,19.231c0,.031.031.092.153.092a.193.193,0,0,0,.153-.092l5.153-12.79-2.484-5.858a.769.769,0,1,1,1.412-.612l2.576,6.134,5.551,13.189c0,.031.031.092.153.092a.193.193,0,0,0,.153-.092L898.9,331.67c.031-.031,0-.092,0-.153l-3.1-4.877a.789.789,0,0,1,.245-1.073.748.748,0,0,1,1.033.228l.01.017,3.1,4.877A1.76,1.76,0,0,1,900.31,332.251Z" fill="#030504"/>
    </g>
    <circle id="Ellipse_200" data-name="Ellipse 200" cx="2.546" cy="2.546" r="2.546" transform="translate(873.074 323.694)" fill="#252a2e"/>
    <circle id="Ellipse_201" data-name="Ellipse 201" cx="1.288" cy="1.288" r="1.288" transform="translate(879.485 326.24)" fill="#252a2e"/>
    <circle id="Ellipse_202" data-name="Ellipse 202" cx="2.055" cy="2.055" r="2.055" transform="translate(894.728 348.108)" fill="#252a2e"/>
  </g>
</svg>
