<svg xmlns="http://www.w3.org/2000/svg" width="30.14" height="28.233" viewBox="0 0 30.14 28.233">
  <g id="xamarian" transform="translate(253.135 -350.896)">
    <path id="Path_455" data-name="Path 455" d="M-236.527,357.6h11.8a.887.887,0,0,1,.773.446l6.034,10.433a.947.947,0,0,1,0,.892l-5.974,10.373a.887.887,0,0,1-.773.446h-11.948a.887.887,0,0,1-.773-.446l-5.974-10.373a.947.947,0,0,1,0-.892l6.034-10.433A1.018,1.018,0,0,1-236.527,357.6Z" transform="translate(-6.483 -4.568)" fill="#898989"/>
    <g id="Group_299" data-name="Group 299" transform="translate(-252.693 351.754)">
      <path id="Path_456" data-name="Path 456" d="M-230.955,379.248h-13.91a.887.887,0,0,1-.773-.446l-6.925-12.067a.947.947,0,0,1,0-.892l7.044-12.1a.887.887,0,0,1,.773-.446h13.732a.887.887,0,0,1,.773.446l7.015,12.1a.947.947,0,0,1,0,.892l-6.925,12.067A.975.975,0,0,1-230.955,379.248ZM-244,377.762h12.186a.887.887,0,0,0,.773-.446l6.063-10.581a.947.947,0,0,0,0-.892l-6.182-10.641a.887.887,0,0,0-.773-.446h-12.008a.887.887,0,0,0-.773.446l-6.182,10.641a.947.947,0,0,0,0,.892l6.093,10.581A.976.976,0,0,0-244,377.762Z" transform="translate(252.675 -353.3)" stroke="#000" stroke-width="0.25"/>
    </g>
    <g id="Group_300" data-name="Group 300" transform="translate(-242.927 357.811)">
      <path id="Path_457" data-name="Path 457" d="M-219.428,387.15h0a.733.733,0,0,1-.268-1.011l3.24-5.528-3.269-5.826a.743.743,0,0,1,.3-1.011h0a.743.743,0,0,1,1.011.3l3.686,6.569-3.656,6.271A.8.8,0,0,1-219.428,387.15Z" transform="translate(219.82 -373.68)"/>
    </g>
    <g id="Group_301" data-name="Group 301" transform="translate(-237.987 357.923)">
      <path id="Path_458" data-name="Path 458" d="M-199.514,387.266l-3.686-6.39,3.686-6.45a.733.733,0,0,1,1.011-.267h0a.733.733,0,0,1,.268,1.011l-3.269,5.707,3.24,5.647a.733.733,0,0,1-.268,1.011h0A.712.712,0,0,1-199.514,387.266Z" transform="translate(203.2 -374.056)"/>
    </g>
    <circle id="Ellipse_203" data-name="Ellipse 203" cx="2" cy="2" r="2" transform="translate(-253.135 350.896)"/>
    <circle id="Ellipse_204" data-name="Ellipse 204" cx="0.654" cy="0.654" r="0.654" transform="translate(-247.915 351.724)"/>
    <circle id="Ellipse_205" data-name="Ellipse 205" cx="1.902" cy="1.902" r="1.902" transform="translate(-227.525 372.827)"/>
    <circle id="Ellipse_206" data-name="Ellipse 206" cx="0.803" cy="0.803" r="0.803" transform="translate(-228.981 377.523)"/>
  </g>
</svg>
