<svg xmlns="http://www.w3.org/2000/svg" xmlns:xlink="http://www.w3.org/1999/xlink" width="147.168" height="149.827" viewBox="0 0 147.168 149.827">
  <defs>
    <radialGradient id="radial-gradient" cx="0.66" cy="0.233" r="0.955" gradientTransform="translate(3.919 -1.68) rotate(65.404)" gradientUnits="objectBoundingBox">
      <stop offset="0" stop-color="#fff7e4"/>
      <stop offset="0.242" stop-color="#fff4d8"/>
      <stop offset="0.341" stop-color="#ffedbc"/>
      <stop offset="0.502" stop-color="#ffe59e"/>
      <stop offset="0.645" stop-color="#ffe08b"/>
      <stop offset="1" stop-color="#ffd45e"/>
    </radialGradient>
  </defs>
  <g id="rThree" transform="translate(-2995 -600.68)">
    <circle id="Ellipse_547" data-name="Ellipse 547" cx="63.977" cy="63.977" r="63.977" transform="translate(2995 729.567) rotate(-80.581)" fill="url(#radial-gradient)"/>
    <path id="Path_1960" data-name="Path 1960" d="M-21.024,1.8C-7.344,1.8,1.8-8.424,1.8-23.76S-7.344-49.32-21.024-49.32-43.848-39.1-43.848-23.76-34.7,1.8-21.024,1.8Zm0-12.816c-4.464,0-7.128-4.752-7.128-12.744S-25.488-36.5-21.024-36.5-13.9-31.752-13.9-23.76-16.56-11.016-21.024-11.016ZM32.9-30.36l9.51-15.072V-47.88H6.984v12.24H23.163L16.128-24.48v3.456h8.208c3.312,0,5.4,2.088,5.4,5.256a4.973,4.973,0,0,1-5.112,5.328c-3.024,0-5.04-2.16-5.184-5.328H5.616C5.9-5.4,13.392,1.44,24.552,1.44c11.376,0,19.3-7.056,19.3-17.208C43.848-23.1,39.6-28.565,32.9-30.36Z" transform="translate(3069 650)"/>
  </g>
</svg>
