<svg xmlns="http://www.w3.org/2000/svg" xmlns:xlink="http://www.w3.org/1999/xlink" width="147.168" height="149.899" viewBox="0 0 147.168 149.899">
  <defs>
    <radialGradient id="radial-gradient" cx="0.66" cy="0.233" r="0.955" gradientTransform="translate(3.919 -1.68) rotate(65.404)" gradientUnits="objectBoundingBox">
      <stop offset="0" stop-color="#ece8ff"/>
      <stop offset="0.242" stop-color="#f1eeff"/>
      <stop offset="0.341" stop-color="#ece8ff"/>
      <stop offset="0.502" stop-color="#dfd8fe"/>
      <stop offset="0.645" stop-color="#d5cdfe"/>
      <stop offset="1" stop-color="#bdb3ee"/>
    </radialGradient>
  </defs>
  <g id="rTwo" transform="translate(-2995 -600.608)">
    <circle id="Ellipse_547" data-name="Ellipse 547" cx="63.977" cy="63.977" r="63.977" transform="translate(2995 729.567) rotate(-80.581)" fill="url(#radial-gradient)"/>
    <path id="Path_1961" data-name="Path 1961" d="M-20.988,1.8C-7.308,1.8,1.836-8.424,1.836-23.76S-7.308-49.32-20.988-49.32-43.812-39.1-43.812-23.76-34.668,1.8-20.988,1.8Zm0-12.816c-4.464,0-7.128-4.752-7.128-12.744S-25.452-36.5-20.988-36.5s7.128,4.752,7.128,12.744S-16.524-11.016-20.988-11.016ZM30.348-12.6C40.54-24.2,42.372-27.767,42.372-34.2c0-9.072-7.344-15.192-18.288-15.192C12.564-49.392,6.012-43.2,6.012-32.4v.72H20.7v-1.008c0-2.592,1.224-4.032,3.456-4.032a3.123,3.123,0,0,1,3.168,3.384c0,3.24-2.736,6.912-21.96,29.592V0H43.38V-12.6Z" transform="translate(3069 650)"/>
  </g>
</svg>
