<svg xmlns="http://www.w3.org/2000/svg" xmlns:xlink="http://www.w3.org/1999/xlink" width="56.164" height="69.292" viewBox="0 0 56.164 69.292">
  <defs>
    <linearGradient id="linear-gradient" x1="0.5" y1="0.41" x2="0.5" y2="2.248" gradientUnits="objectBoundingBox">
      <stop offset="0" stop-opacity="0"/>
      <stop offset="1" stop-opacity="0.302"/>
    </linearGradient>
  </defs>
  <g id="drupal-stop" transform="translate(0.002 -0.167)">
    <ellipse id="Ellipse_242" data-name="Ellipse 242" cx="2.808" cy="2.814" rx="2.808" ry="2.814" transform="translate(25.273 63.83)" fill="#3498db"/>
    <path id="Path_1999" data-name="Path 1999" d="M23.6,70.279C10.218,69.335,0,64.226,0,58.068,0,51.238,12.573,45.7,28.081,45.7s28.081,5.538,28.081,12.367c0,6.14-10.162,11.232-23.485,12.2-3.894.8-4.6,2.64-4.6,2.64a7.949,7.949,0,0,0-4.48-2.629Z" transform="translate(0 -10.016)" fill-rule="evenodd" fill="url(#linear-gradient)"/>
    <path id="Path_2000" data-name="Path 2000" d="M23.6,55.969a28.081,28.081,0,1,1,9.076-.019,8.707,8.707,0,0,0-4.6,6S26.307,56.919,23.6,55.969Z" fill="#3498db" fill-rule="evenodd"/>
    <g id="drupal" transform="translate(266.834 -329.718)">
      <g id="Group_274" data-name="Group 274" transform="translate(-247.59 351.734)" opacity="0.4">
        <path id="Path_415" data-name="Path 415" d="M-227.708,372.29a8.822,8.822,0,0,0-3.711-2.772,7.479,7.479,0,0,1-.733-.344,8.945,8.945,0,0,1-2.062-1.993l-.389-.481-.069.619a2.132,2.132,0,0,1-.389,1.283,6.682,6.682,0,0,1-2.245,1.512,7.524,7.524,0,0,0-4.193,6.758,7.752,7.752,0,0,0,1.924,5.017,7.445,7.445,0,0,0,5.682,2.566h.046a7.766,7.766,0,0,0,5.178-1.833,7.39,7.39,0,0,0,2.474-5.75,6.83,6.83,0,0,0-1.512-4.582" transform="translate(241.5 -366.7)" fill="#fff"/>
      </g>
      <g id="comp_x5F_101-drupal" transform="translate(-248.873 347.286)">
        <g id="Group_279" data-name="Group 279" transform="translate(0 0)">
          <g id="Group_275" data-name="Group 275">
            <path id="Path_416" data-name="Path 416" d="M-237.134,370.085a9.872,9.872,0,0,1-9.966-9.76,10.817,10.817,0,0,1,5.178-9.027c.206-.115.389-.206.573-.3a10.534,10.534,0,0,0,1.924-1.191,2.457,2.457,0,0,0,.848-1.993.6.6,0,0,1,.389-.5.58.58,0,0,1,.619.183,14.969,14.969,0,0,0,2.131,2.222,9.428,9.428,0,0,0,1.512.779,11.863,11.863,0,0,1,1.6.825,11.16,11.16,0,0,1,4.949,9.164A9.437,9.437,0,0,1-237.134,370.085Zm-.5-20.94a3.016,3.016,0,0,1-1.054,1.558,12.717,12.717,0,0,1-2.108,1.329c-.183.092-.367.183-.573.3a9.751,9.751,0,0,0-4.582,8.018,8.738,8.738,0,0,0,8.82,8.614,8.345,8.345,0,0,0,8.637-8.431,9.968,9.968,0,0,0-4.4-8.2h0a12.687,12.687,0,0,0-1.466-.756,13.012,13.012,0,0,1-1.672-.871A14.1,14.1,0,0,1-237.638,349.145Z" transform="translate(247.1 -347.286)" fill="#fff" stroke="#3498db" stroke-width="0.25"/>
          </g>
          <g id="Group_276" data-name="Group 276" transform="translate(8.43 18.755)">
            <path id="Path_417" data-name="Path 417" d="M-207.277,431.2a4.215,4.215,0,0,1-2.841-.871.554.554,0,0,1-.023-.8.554.554,0,0,1,.8-.023c1.054.962,4.1.573,4.857-.183a.554.554,0,0,1,.8,0,.554.554,0,0,1,0,.8A5.841,5.841,0,0,1-207.277,431.2Z" transform="translate(210.302 -429.15)" fill="#fff"/>
          </g>
          <g id="Group_277" data-name="Group 277" transform="translate(3.068 10.541)">
            <path id="Path_418" data-name="Path 418" d="M-230.591,400.034a3.59,3.59,0,0,1-1.97-.6,2.933,2.933,0,0,1-.985-3.368,3.953,3.953,0,0,1,3.826-2.772,6.467,6.467,0,0,1,3.826,1.581,3.653,3.653,0,0,0,1.4.779h0a5.437,5.437,0,0,0,1.718-.939,4.692,4.692,0,0,1,2.245-1.1,1.688,1.688,0,0,1,1.558.916,4.687,4.687,0,0,1-.5,4.238,2.094,2.094,0,0,1-1.856,1.123c-.55-.046-1.077-.573-1.741-1.26-.389-.39-1.1-1.123-1.375-1.146h0a5.884,5.884,0,0,0-1.81.871A8.991,8.991,0,0,1-230.591,400.034Zm.871-5.59h-.023a2.757,2.757,0,0,0-2.726,1.97,1.789,1.789,0,0,0,.55,2.085c1.512,1.031,3.482-.16,5.063-1.1a10.173,10.173,0,0,1,1.512-.825,9.341,9.341,0,0,1-1.214-.756A5.714,5.714,0,0,0-229.72,394.444Zm8.477,4.307c.344.023.687-.412.8-.6a3.739,3.739,0,0,0,.458-3.07.537.537,0,0,0-.55-.321,5.062,5.062,0,0,0-1.6.893,9.7,9.7,0,0,1-1.558.939,7.019,7.019,0,0,1,1.42,1.26A7.1,7.1,0,0,0-221.244,398.751Z" transform="translate(233.709 -393.298)" fill="#fff"/>
          </g>
          <g id="Group_278" data-name="Group 278" transform="translate(9.437 15.803)">
            <path id="Path_419" data-name="Path 419" d="M-201.095,418.723a.575.575,0,0,1-.5-.275,1.769,1.769,0,0,0-1.26-1.031c-.985-.092-2.039,1.1-2.039,1.1a.557.557,0,0,1-.8.069.557.557,0,0,1-.069-.8,4.145,4.145,0,0,1,3-1.512,2.842,2.842,0,0,1,2.154,1.581.565.565,0,0,1-.206.779A.488.488,0,0,1-201.095,418.723Z" transform="translate(205.908 -416.263)" fill="#fff"/>
          </g>
        </g>
      </g>
    </g>
  </g>
</svg>
