<svg xmlns="http://www.w3.org/2000/svg" xmlns:xlink="http://www.w3.org/1999/xlink" width="56.165" height="69.292" viewBox="0 0 56.165 69.292">
  <defs>
    <linearGradient id="linear-gradient" x1="0.5" y1="0.41" x2="0.5" y2="2.248" gradientUnits="objectBoundingBox">
      <stop offset="0" stop-opacity="0"/>
      <stop offset="1" stop-opacity="0.302"/>
    </linearGradient>
  </defs>
  <g id="ionic-stop" transform="translate(0.002 -0.167)">
    <ellipse id="Ellipse_242" data-name="Ellipse 242" cx="2.808" cy="2.814" rx="2.808" ry="2.814" transform="translate(25.273 63.83)" fill="#478aff"/>
    <path id="Path_1999" data-name="Path 1999" d="M23.6,70.279C10.218,69.335,0,64.226,0,58.068,0,51.238,12.573,45.7,28.081,45.7s28.081,5.538,28.081,12.367c0,6.14-10.162,11.232-23.485,12.2-3.894.8-4.6,2.64-4.6,2.64a7.949,7.949,0,0,0-4.48-2.629Z" transform="translate(0 -10.016)" fill-rule="evenodd" fill="url(#linear-gradient)"/>
    <path id="Path_2000" data-name="Path 2000" d="M23.6,55.969a28.081,28.081,0,1,1,9.076-.019,8.707,8.707,0,0,0-4.6,6S26.307,56.919,23.6,55.969Z" fill="#478aff" fill-rule="evenodd"/>
    <g id="ionic" transform="translate(265.065 -336.484)">
      <circle id="Ellipse_106" data-name="Ellipse 106" cx="9.19" cy="9.19" r="9.19" transform="translate(-247.571 357.232)" fill="#fff" opacity="0.5"/>
      <circle id="Ellipse_107" data-name="Ellipse 107" cx="11.958" cy="11.958" r="11.958" transform="translate(-248.685 351.696)" fill="none" stroke="#fff" stroke-miterlimit="10" stroke-width="1.5"/>
      <circle id="Ellipse_108" data-name="Ellipse 108" cx="3.782" cy="3.782" r="3.782" transform="translate(-239.395 359.872)" fill="none" stroke="#fff" stroke-width="1"/>
      <circle id="Ellipse_109" data-name="Ellipse 109" cx="2.307" cy="2.307" r="2.307" transform="translate(-229.395 352.737)" fill="#fff"/>
    </g>
  </g>
</svg>
