<svg xmlns="http://www.w3.org/2000/svg" xmlns:xlink="http://www.w3.org/1999/xlink" width="56.165" height="69.292" viewBox="0 0 56.165 69.292">
  <defs>
    <linearGradient id="linear-gradient" x1="0.5" y1="0.41" x2="0.5" y2="2.248" gradientUnits="objectBoundingBox">
      <stop offset="0" stop-opacity="0"/>
      <stop offset="1" stop-opacity="0.302"/>
    </linearGradient>
  </defs>
  <g id="ipad-stop" transform="translate(0.002 -0.167)">
    <ellipse id="Ellipse_242" data-name="Ellipse 242" cx="2.808" cy="2.814" rx="2.808" ry="2.814" transform="translate(25.273 63.83)" fill="#07d4bf"/>
    <path id="Path_1999" data-name="Path 1999" d="M23.6,70.279C10.218,69.335,0,64.226,0,58.068,0,51.238,12.573,45.7,28.081,45.7s28.081,5.538,28.081,12.367c0,6.14-10.162,11.232-23.485,12.2-3.894.8-4.6,2.64-4.6,2.64a7.949,7.949,0,0,0-4.48-2.629Z" transform="translate(0 -10.016)" fill-rule="evenodd" fill="url(#linear-gradient)"/>
    <path id="Path_2000" data-name="Path 2000" d="M23.6,55.969a28.081,28.081,0,1,1,9.076-.019,8.707,8.707,0,0,0-4.6,6S26.307,56.919,23.6,55.969Z" fill="#07d4bf" fill-rule="evenodd"/>
    <g id="mobileapp" transform="translate(14.991 17.804)">
      <path id="Path_309" data-name="Path 309" d="M122.146,104.93V95.236A1.538,1.538,0,0,0,120.61,93.7h-8.073A1.538,1.538,0,0,0,111,95.236v13.534a1.538,1.538,0,0,0,1.537,1.536h8.073c1.444,0,1.536-1.536,1.536-1.536S122.252,105.149,122.146,104.93Z" transform="translate(-104.865 -89.587)" fill="#fff" opacity="0.38"/>
      <path id="Path_310" data-name="Path 310" d="M86.872,14.579V3.512a1.845,1.845,0,0,0-1.924-1.756h-10.1a1.845,1.845,0,0,0-1.924,1.756V18.965a1.845,1.845,0,0,0,1.924,1.756h10.1a1.845,1.845,0,0,0,1.924-1.756.966.966,0,0,1,1.924,0,3.7,3.7,0,0,1-3.848,3.512h-10.1A3.7,3.7,0,0,1,71,18.965V3.512A3.7,3.7,0,0,1,74.848,0h10.1A3.7,3.7,0,0,1,88.8,3.512V14.579a.966.966,0,0,1-1.924,0Zm-7.936,3.907a.966.966,0,1,0,.962-.878A.926.926,0,0,0,78.936,18.486ZM80.86,4.877A.926.926,0,0,0,81.822,4a.926.926,0,0,0-.962-.878H78.936A.926.926,0,0,0,77.974,4a.926.926,0,0,0,.962.878Zm3.367,10.8a.926.926,0,0,0,.962-.878V9.443a.966.966,0,0,0-1.924,0v4.478H82.3V7.687a.966.966,0,0,0-1.924,0v6.234h-.962V11.2a.966.966,0,0,0-1.924,0v2.722h-.962V9.443a.966.966,0,0,0-1.924,0V14.8a.926.926,0,0,0,.962.878Z" transform="translate(-67.323 0)" fill="#fff"/>
    </g>
  </g>
</svg>
