<svg xmlns="http://www.w3.org/2000/svg" xmlns:xlink="http://www.w3.org/1999/xlink" width="56.165" height="69.292" viewBox="0 0 56.165 69.292">
  <defs>
    <linearGradient id="linear-gradient" x1="0.5" y1="0.41" x2="0.5" y2="2.248" gradientUnits="objectBoundingBox">
      <stop offset="0" stop-opacity="0"/>
      <stop offset="1" stop-opacity="0.302"/>
    </linearGradient>
  </defs>
  <g id="mvc-stop" transform="translate(0.002 -0.167)">
    <ellipse id="Ellipse_242" data-name="Ellipse 242" cx="2.808" cy="2.814" rx="2.808" ry="2.814" transform="translate(25.273 63.83)" fill="#f77c7c"/>
    <path id="Path_1999" data-name="Path 1999" d="M23.6,70.279C10.218,69.335,0,64.226,0,58.068,0,51.238,12.573,45.7,28.081,45.7s28.081,5.538,28.081,12.367c0,6.14-10.162,11.232-23.485,12.2-3.894.8-4.6,2.64-4.6,2.64a7.949,7.949,0,0,0-4.48-2.629Z" transform="translate(0 -10.016)" fill-rule="evenodd" fill="url(#linear-gradient)"/>
    <path id="Path_2000" data-name="Path 2000" d="M23.6,55.969a28.081,28.081,0,1,1,9.076-.019,8.707,8.707,0,0,0-4.6,6S26.307,56.919,23.6,55.969Z" fill="#f77c7c" fill-rule="evenodd"/>
    <g id="website" transform="translate(17.042 19.211)">
      <path id="Path_311" data-name="Path 311" d="M81.638,198.271a1.476,1.476,0,0,1-.377.9,1.429,1.429,0,0,1-.9.373H69.081a1.275,1.275,0,0,1-1.281-1.264V189.7H81.638v5.41A15.6,15.6,0,0,1,81.638,198.271Z" transform="translate(-64.961 -181.757)" fill="#fff" opacity="0.45"/>
      <path id="Path_312" data-name="Path 312" d="M49.485,53H35.19A2.178,2.178,0,0,0,33,55.161V67.119A2.9,2.9,0,0,0,35.918,70H48.756a2.9,2.9,0,0,0,2.918-2.881.729.729,0,0,0-1.457,0,1.449,1.449,0,0,1-1.457,1.44H35.918a1.449,1.449,0,0,1-1.457-1.44v-9.76H50.217v6.159a.729.729,0,0,0,1.457,0V55.161A2.178,2.178,0,0,0,49.485,53Zm-2.952,1.44a.72.72,0,1,1-.729.72A.725.725,0,0,1,46.533,54.44Zm3.647.72a.729.729,0,1,1-.729-.72A.725.725,0,0,1,50.18,55.161Zm-15.722,0a.725.725,0,0,1,.729-.72h9.279a2.138,2.138,0,0,0,.013,1.478H34.457Z" transform="translate(-31.618 -50.781)" fill="#fff"/>
      <path id="Path_485" data-name="Path 485" d="M5.988-2.074,5.364-6.358H3.956L3.074-4.3,2.2-6.358H.792L.162-2.074H1.594l.241-2.16,1,2.16h.49l1-2.163.251,2.163ZM8.809-6.358,8.142-4.087,7.469-6.358H5.8L7.488-2.074h1.3L10.48-6.358Zm3.9,4.406A2.213,2.213,0,0,0,15-3.959H13.528a.84.84,0,0,1-.814.7.86.86,0,0,1-.851-.955.862.862,0,0,1,.851-.961.877.877,0,0,1,.82.636h1.457a2.2,2.2,0,0,0-2.283-1.94,2.239,2.239,0,0,0-2.362,2.264A2.239,2.239,0,0,0,12.708-1.951Z" transform="translate(3.348 17.714)" fill="#fff"/>
    </g>
  </g>
</svg>
