<svg xmlns="http://www.w3.org/2000/svg" xmlns:xlink="http://www.w3.org/1999/xlink" width="56.165" height="69.292" viewBox="0 0 56.165 69.292">
  <defs>
    <linearGradient id="linear-gradient" x1="0.5" y1="0.41" x2="0.5" y2="2.248" gradientUnits="objectBoundingBox">
      <stop offset="0" stop-opacity="0"/>
      <stop offset="1" stop-opacity="0.302"/>
    </linearGradient>
  </defs>
  <g id="php-stop" transform="translate(0.002 -0.167)">
    <ellipse id="Ellipse_242" data-name="Ellipse 242" cx="2.808" cy="2.814" rx="2.808" ry="2.814" transform="translate(25.273 63.83)" fill="#9e8eee"/>
    <path id="Path_1999" data-name="Path 1999" d="M23.6,70.279C10.218,69.335,0,64.226,0,58.068,0,51.238,12.573,45.7,28.081,45.7s28.081,5.538,28.081,12.367c0,6.14-10.162,11.232-23.485,12.2-3.894.8-4.6,2.64-4.6,2.64a7.949,7.949,0,0,0-4.48-2.629Z" transform="translate(0 -10.016)" fill-rule="evenodd" fill="url(#linear-gradient)"/>
    <path id="Path_2000" data-name="Path 2000" d="M23.6,55.969a28.081,28.081,0,1,1,9.076-.019,8.707,8.707,0,0,0-4.6,6S26.307,56.919,23.6,55.969Z" fill="#9e8eee" fill-rule="evenodd"/>
    <g id="Group_364" data-name="Group 364" transform="translate(2659.081 -6224.665)">
      <ellipse id="Ellipse_225" data-name="Ellipse 225" cx="11.5" cy="7" rx="11.5" ry="7" transform="translate(-2639.083 6246.832)" fill="#fff" opacity="0.5"/>
      <path id="Path_0" data-name="Path 0" d="M16.8.115c.125,0,.887.035,1.691.088s1.815.141,2.244.2,1.1.16,1.5.233,1.11.234,1.594.355,1.215.336,1.626.476.982.348,1.269.463.857.381,1.269.591,1.012.554,1.334.763a14.2,14.2,0,0,1,1.171.872,9.622,9.622,0,0,1,.937.907,10.131,10.131,0,0,1,.646.87,7.3,7.3,0,0,1,.453.813,7.877,7.877,0,0,1,.314.976A5.083,5.083,0,0,1,33,8.776a5.67,5.67,0,0,1-.1.943,7.6,7.6,0,0,1-.29.992,6.472,6.472,0,0,1-.531,1.011,10.618,10.618,0,0,1-.669.9,9.86,9.86,0,0,1-.911.872,14.073,14.073,0,0,1-1.171.874c-.322.209-.922.552-1.334.763s-.982.476-1.269.591-.857.323-1.269.463-1.144.355-1.626.476-1.2.282-1.594.355-1.067.178-1.5.233-1.454.144-2.277.2a16.909,16.909,0,0,1-2.96,0c-.8-.053-1.8-.141-2.212-.2s-1.085-.159-1.5-.233-1.1-.223-1.529-.331-1.1-.3-1.5-.426S7.727,15.9,7.333,15.74s-1.023-.449-1.4-.641-.947-.522-1.269-.731A14.2,14.2,0,0,1,3.5,13.5a9.622,9.622,0,0,1-.937-.907,10.132,10.132,0,0,1-.646-.87,7.36,7.36,0,0,1-.453-.813,7.952,7.952,0,0,1-.314-.976A5.083,5.083,0,0,1,.99,8.873a5.67,5.67,0,0,1,.1-.943,7.634,7.634,0,0,1,.29-.992,6.5,6.5,0,0,1,.531-1.011,10.619,10.619,0,0,1,.669-.9A9.86,9.86,0,0,1,3.5,4.154,14.072,14.072,0,0,1,4.666,3.28c.322-.209.893-.537,1.269-.73s.947-.459,1.269-.593.922-.357,1.334-.5S9.68,1.109,10.163.987,11.349.708,11.725.637,12.8.458,13.286.4,14.705.25,15.368.2,16.673.12,16.8.115ZM13.644,1.7c-.5.059-1.408.208-2.017.33s-1.457.327-1.887.453-1.1.35-1.5.5-1.067.444-1.5.658-1.03.551-1.334.749-.77.538-1.034.757a7.94,7.94,0,0,0-.846.831,7.614,7.614,0,0,0-.591.813,5.714,5.714,0,0,0-.382.8A3.625,3.625,0,0,0,2.373,8.6a4.453,4.453,0,0,0,.036.911,6.042,6.042,0,0,0,.2.683,5.661,5.661,0,0,0,.47.878,7.268,7.268,0,0,0,.835,1.008A10.979,10.979,0,0,0,5.027,13a15.151,15.151,0,0,0,1.526.906c.5.258,1.247.6,1.659.751s1.1.384,1.529.509,1.2.314,1.708.422,1.38.254,1.935.325,1.6.161,2.326.2a22.843,22.843,0,0,0,2.6,0c.706-.038,1.738-.128,2.293-.2s1.425-.218,1.935-.325,1.278-.3,1.708-.422,1.117-.355,1.529-.511,1.084-.453,1.5-.659,1-.537,1.3-.734.773-.541,1.041-.764a7.916,7.916,0,0,0,.846-.835,8.128,8.128,0,0,0,.6-.838,5.336,5.336,0,0,0,.39-.831,3.075,3.075,0,0,0,.142-1.2,2.8,2.8,0,0,0-.163-1.2,6.046,6.046,0,0,0-.387-.8,7.614,7.614,0,0,0-.591-.813,7.94,7.94,0,0,0-.846-.831c-.265-.219-.731-.559-1.034-.757s-.89-.528-1.3-.734-1.085-.5-1.5-.659-1.1-.386-1.529-.511-1.2-.314-1.708-.422-1.381-.254-1.935-.325-1.528-.159-2.163-.194-1.374-.06-1.643-.055-.883.031-1.366.057S14.145,1.637,13.644,1.7Zm1.682,1.142h.867a3.936,3.936,0,0,1,.867.049c0,.027-.117.605-.26,1.285s-.26,1.258-.261,1.285a9.535,9.535,0,0,0,1.35.07,4.652,4.652,0,0,1,1.708.158,1.669,1.669,0,0,1,.569.37,1.456,1.456,0,0,1,.284.509,2.436,2.436,0,0,1,.033.7c-.021.232-.193,1.125-.725,3.545l-.895.016c-.824.015-.891.007-.864-.1.016-.062.167-.744.334-1.513s.308-1.54.312-1.714c.006-.266-.02-.338-.172-.472a.91.91,0,0,0-.52-.193,16.728,16.728,0,0,0-1.7,0l-.85,4h-.862c-.857,0-.862,0-.841-.147.012-.081.383-1.881.825-4ZM9.69,5.507a11.962,11.962,0,0,1,2.36.1,3.068,3.068,0,0,1,.618.25,2.111,2.111,0,0,1,.447.373,3.028,3.028,0,0,1,.32.481,2.024,2.024,0,0,1,.162.748,2.924,2.924,0,0,1-.078.911,5.464,5.464,0,0,1-.3.829,3.037,3.037,0,0,1-.486.7,3.041,3.041,0,0,1-.7.487,4.788,4.788,0,0,1-.862.294,23.605,23.605,0,0,1-2.751.195l-.111.651c-.061.358-.137.79-.228,1.269H7.2c-.876,0-.878,0-.85-.146.015-.081.309-1.683.652-3.562s.638-3.452.654-3.5A7.7,7.7,0,0,1,9.69,5.507ZM8.925,8.174c-.11.59-.213,1.125-.229,1.187-.027.105.048.113,1.028.095.93-.016,1.088-.035,1.317-.156a1.751,1.751,0,0,0,.4-.29,2.083,2.083,0,0,0,.255-.381,2.421,2.421,0,0,0,.154-.723l.038-.5c-.39-.389-.554-.476-.8-.529a7.233,7.233,0,0,0-1.121-.074c-.756,0-.781,0-.813.146C9.139,7.035,9.035,7.583,8.925,8.174ZM23.677,5.507A14.034,14.034,0,0,1,26,5.6a3.357,3.357,0,0,1,.537.194,2.6,2.6,0,0,1,.448.319,2.173,2.173,0,0,1,.4.537,1.921,1.921,0,0,1,.195.813,2.9,2.9,0,0,1-.078.911,5.379,5.379,0,0,1-.292.813,3.4,3.4,0,0,1-.437.674,2.416,2.416,0,0,1-.707.505,4.871,4.871,0,0,1-.911.319,22.916,22.916,0,0,1-2.732.178l-.152.854c-.083.47-.164.9-.179.967-.024.1-.123.114-.906.114-.876,0-.878,0-.85-.146.016-.081.31-1.683.653-3.562s.638-3.452.654-3.5A7.683,7.683,0,0,1,23.677,5.507Zm-.563,1.642c-.037.188-.142.736-.232,1.22s-.179.93-.2.992c-.029.105.046.113,1.026.095.93-.016,1.088-.035,1.317-.156a1.751,1.751,0,0,0,.4-.29,2.083,2.083,0,0,0,.255-.381,2.421,2.421,0,0,0,.154-.723l.038-.5c-.39-.389-.554-.476-.8-.529a7.207,7.207,0,0,0-1.118-.074h-.777Z" transform="translate(-2647.99 6245.632)" fill="#fff" fill-rule="evenodd"/>
    </g>
  </g>
</svg>
