<svg xmlns="http://www.w3.org/2000/svg" xmlns:xlink="http://www.w3.org/1999/xlink" width="56.165" height="69.292" viewBox="0 0 56.165 69.292">
  <defs>
    <linearGradient id="linear-gradient" x1="0.5" y1="0.41" x2="0.5" y2="2.248" gradientUnits="objectBoundingBox">
      <stop offset="0" stop-opacity="0"/>
      <stop offset="1" stop-opacity="0.302"/>
    </linearGradient>
  </defs>
  <g id="proto-stop" transform="translate(0.002 -0.167)">
    <ellipse id="Ellipse_242" data-name="Ellipse 242" cx="2.808" cy="2.814" rx="2.808" ry="2.814" transform="translate(25.273 63.83)" fill="#f5c339"/>
    <path id="Path_1999" data-name="Path 1999" d="M23.6,70.279C10.218,69.335,0,64.226,0,58.068,0,51.238,12.573,45.7,28.081,45.7s28.081,5.538,28.081,12.367c0,6.14-10.162,11.232-23.485,12.2-3.894.8-4.6,2.64-4.6,2.64a7.949,7.949,0,0,0-4.48-2.629Z" transform="translate(0 -10.016)" fill-rule="evenodd" fill="url(#linear-gradient)"/>
    <path id="Path_2000" data-name="Path 2000" d="M23.6,55.969a28.081,28.081,0,1,1,9.076-.019,8.707,8.707,0,0,0-4.6,6S26.307,56.919,23.6,55.969Z" fill="#f5c339" fill-rule="evenodd"/>
    <g id="prototype" transform="translate(18.113 18.125)">
      <path id="Path_478" data-name="Path 478" d="M81.75,199.775a1.9,1.9,0,0,1-.38,1.053,1.334,1.334,0,0,1-.912.438H69.092A1.4,1.4,0,0,1,67.8,199.78V189.7H81.75v6.359A21.362,21.362,0,0,1,81.75,199.775Z" transform="translate(-66.995 -181.97)" fill="#fff" opacity="0.45"/>
      <g id="Group_313" data-name="Group 313">
        <path id="Path_477" data-name="Path 477" d="M18.129,2.368H16.964a.582.582,0,0,0-.582.582V4.7h-4.7V1.747a1.747,1.747,0,0,0-3.494,0V4.7h-4.7V2.95a.582.582,0,0,0-.582-.582H1.747A1.749,1.749,0,0,0,0,4.115V18.129a1.749,1.749,0,0,0,1.747,1.747H18.129a1.749,1.749,0,0,0,1.747-1.747V4.115A1.749,1.749,0,0,0,18.129,2.368Zm-.582,1.165h.582a.583.583,0,0,1,.582.582V16.482a1.739,1.739,0,0,0-.582-.1h-.582ZM9.356,1.747a.582.582,0,0,1,1.165,0v.582H9.356Zm.582,11.024L7.494,11.141,9.938,9.512l2.444,1.629Zm2.912-.541v2.094L10.52,15.876V13.782ZM9.356,13.782v2.094L7.026,14.324V12.229Zm0-10.288H10.52V6.4L9.938,7.536,9.356,6.4Zm-8.191.621a.583.583,0,0,1,.582-.582h.582V16.382H1.747a1.739,1.739,0,0,0-.582.1Zm16.964,14.6H1.747a.582.582,0,1,1,0-1.165H2.912a.582.582,0,0,0,.582-.582V5.862h4.7v.679a.582.582,0,0,0,.064.266l.928,1.809L6.121,10.657l-.01.007a.584.584,0,0,0-.249.477v3.494a.582.582,0,0,0,.259.485l3.494,2.329.006,0a.582.582,0,0,0,.633,0l.006,0,3.494-2.329a.582.582,0,0,0,.259-.485V11.141a.586.586,0,0,0-.259-.485L10.693,8.616l.928-1.809a.582.582,0,0,0,.064-.266V5.862h4.7v11.1a.582.582,0,0,0,.582.582h1.165a.582.582,0,1,1,0,1.165Z" fill="#fff"/>
      </g>
    </g>
  </g>
</svg>
