<svg xmlns="http://www.w3.org/2000/svg" xmlns:xlink="http://www.w3.org/1999/xlink" width="56.165" height="69.292" viewBox="0 0 56.165 69.292">
  <defs>
    <linearGradient id="linear-gradient" x1="0.5" y1="0.41" x2="0.5" y2="2.248" gradientUnits="objectBoundingBox">
      <stop offset="0" stop-opacity="0"/>
      <stop offset="1" stop-opacity="0.302"/>
    </linearGradient>
  </defs>
  <g id="shopify-stop" transform="translate(0.002 -0.167)">
    <ellipse id="Ellipse_242" data-name="Ellipse 242" cx="2.808" cy="2.814" rx="2.808" ry="2.814" transform="translate(25.273 63.83)" fill="#95cf7d"/>
    <path id="Path_1999" data-name="Path 1999" d="M23.6,70.279C10.218,69.335,0,64.226,0,58.068,0,51.238,12.573,45.7,28.081,45.7s28.081,5.538,28.081,12.367c0,6.14-10.162,11.232-23.485,12.2-3.894.8-4.6,2.64-4.6,2.64a7.949,7.949,0,0,0-4.48-2.629Z" transform="translate(0 -10.016)" fill-rule="evenodd" fill="url(#linear-gradient)"/>
    <path id="Path_2000" data-name="Path 2000" d="M23.6,55.969a28.081,28.081,0,1,1,9.076-.019,8.707,8.707,0,0,0-4.6,6S26.307,56.919,23.6,55.969Z" fill="#95cf7d" fill-rule="evenodd"/>
    <g id="shopify" transform="translate(18.028 16.425)">
      <path id="Path_483" data-name="Path 483" d="M170.035,36.591l-1.816-.135-1.336-1.328a.33.33,0,0,0-.186-.085l-.973,19.9,6.971-1.508s-2.447-16.546-2.463-16.659a.218.218,0,0,0-.2-.183" transform="translate(-152.819 -31.602)" fill="#fff" opacity="0.45"/>
      <path id="Path_482" data-name="Path 482" d="M17.413,5.171a.218.218,0,0,0-.2-.183L15.4,4.853s-1.2-1.2-1.336-1.328a.548.548,0,0,0-.491-.063l-.674.208c-.4-1.158-1.112-2.221-2.361-2.221-.034,0-.07,0-.105,0A1.518,1.518,0,0,0,9.257.779c-2.909,0-4.3,3.637-4.735,5.485L2.485,6.9c-.631.2-.651.218-.734.812-.062.45-1.714,13.22-1.714,13.22L12.9,23.339l6.971-1.508S17.429,5.285,17.413,5.171ZM12.188,3.891,11.1,4.228c0-.077,0-.152,0-.235a5.34,5.34,0,0,0-.26-1.758C11.483,2.316,11.912,3.048,12.188,3.891ZM10.042,2.378a5.4,5.4,0,0,1,.3,1.96c0,.044,0,.085,0,.126l-2.248.7a3.845,3.845,0,0,1,1.954-2.782Zm-.864-.818a.657.657,0,0,1,.373.126C8.618,2.124,7.618,3.229,7.2,5.436l-1.777.55C5.913,4.3,7.087,1.559,9.177,1.559Z" fill="none" stroke="#fff" stroke-width="1.25"/>
      <path id="Path_484" data-name="Path 484" d="M46.678,100.584l-.86,2.557a3.954,3.954,0,0,0-1.676-.4c-1.353,0-1.422.849-1.422,1.063,0,1.168,3.044,1.615,3.044,4.351a3.226,3.226,0,0,1-3.206,3.538,4.46,4.46,0,0,1-3.338-1.375l.591-1.954a4.228,4.228,0,0,0,2.141,1,.864.864,0,0,0,.9-.872c0-1.523-2.5-1.591-2.5-4.094,0-2.107,1.512-4.146,4.565-4.146a3.755,3.755,0,0,1,1.757.337" transform="translate(-36.14 -91.743)" fill="none" stroke="#fff" stroke-linecap="round" stroke-linejoin="round" stroke-width="1.25"/>
    </g>
  </g>
</svg>
