<svg xmlns="http://www.w3.org/2000/svg" xmlns:xlink="http://www.w3.org/1999/xlink" width="56.165" height="69.292" viewBox="0 0 56.165 69.292">
  <defs>
    <linearGradient id="linear-gradient" x1="0.5" y1="0.41" x2="0.5" y2="2.248" gradientUnits="objectBoundingBox">
      <stop offset="0" stop-opacity="0"/>
      <stop offset="1" stop-opacity="0.302"/>
    </linearGradient>
  </defs>
  <g id="vue-stop" transform="translate(0.002 -0.167)">
    <ellipse id="Ellipse_242" data-name="Ellipse 242" cx="2.808" cy="2.814" rx="2.808" ry="2.814" transform="translate(25.273 63.83)" fill="#07d4bf"/>
    <path id="Path_1999" data-name="Path 1999" d="M23.6,70.279C10.218,69.335,0,64.226,0,58.068,0,51.238,12.573,45.7,28.081,45.7s28.081,5.538,28.081,12.367c0,6.14-10.162,11.232-23.485,12.2-3.894.8-4.6,2.64-4.6,2.64a7.949,7.949,0,0,0-4.48-2.629Z" transform="translate(0 -10.016)" fill-rule="evenodd" fill="url(#linear-gradient)"/>
    <path id="Path_2000" data-name="Path 2000" d="M23.6,55.969a28.081,28.081,0,1,1,9.076-.019,8.707,8.707,0,0,0-4.6,6S26.307,56.919,23.6,55.969Z" fill="#07d4bf" fill-rule="evenodd"/>
    <g id="vuejs" transform="translate(264.8 -537.326)">
      <g id="g10" transform="translate(-247.516 559.188)">
        <g id="g16" transform="translate(0 0)">
          <path id="Path_451" data-name="Path 451" d="M-464.621,472.532l-10.156,17.615-10.156-17.615h6.022l4.134,6.89,4.134-6.89Z" transform="translate(484.932 -472.532)" fill="#a0e4d5"/>
        </g>
      </g>
      <g id="comp_x5F_367-vuejs" transform="translate(-247.063 559.258)">
        <g id="Group_296" data-name="Group 296" transform="translate(0)">
          <path id="Path_452" data-name="Path 452" d="M-228.132,559.5h-3.752l-2.719,4.314-2.337-4.314h-8.56l10.9,18.671,10.9-18.671Z" transform="translate(245.5 -559.5)" fill="none" stroke="#fff" stroke-linecap="round" stroke-linejoin="round" stroke-miterlimit="10" stroke-width="1.25"/>
        </g>
      </g>
    </g>
  </g>
</svg>
