<svg id="Component_71_1" data-name="Component 71 – 1" xmlns="http://www.w3.org/2000/svg" xmlns:xlink="http://www.w3.org/1999/xlink" width="56.17" height="69.296" viewBox="0 0 56.17 69.296">
  <defs>
    <linearGradient id="linear-gradient" x1="-9.977" y1="21.294" x2="-9.977" y2="21.226" gradientUnits="objectBoundingBox">
      <stop offset="0" stop-opacity="0"/>
      <stop offset="1" stop-opacity="0.302"/>
    </linearGradient>
  </defs>
  <g id="support-testing" transform="translate(0.003 0.005)">
    <g id="android-stop">
      <ellipse id="Ellipse_242" data-name="Ellipse 242" cx="2.808" cy="2.814" rx="2.808" ry="2.814" transform="translate(25.275 63.663)" fill="#478aff"/>
      <path id="Path_1999" data-name="Path 1999" d="M23.6,60.1C10.22,59.152,0,54.043,0,47.885c0-6.83,12.573-12.368,28.081-12.368s28.081,5.538,28.081,12.367c0,6.14-10.162,11.232-23.485,12.2-3.894.8-4.6,2.64-4.6,2.64A7.951,7.951,0,0,0,23.6,60.1Z" fill-rule="evenodd" opacity="0.09" fill="url(#linear-gradient)"/>
      <path id="Path_2000" data-name="Path 2000" d="M23.6,55.8a28.081,28.081,0,1,1,9.076-.019,8.707,8.707,0,0,0-4.6,6S26.309,56.752,23.6,55.8Z" fill="#478aff" fill-rule="evenodd"/>
    </g>
    <g id="support-top">
      <path id="Union_1" data-name="Union 1" d="M18.6,33.523a7.965,7.965,0,0,1-1.878-5.107c0-4.691,4.184-8.494,9.344-8.494s9.346,3.8,9.346,8.494S31.23,36.91,26.07,36.91a16.541,16.541,0,0,1-3.713-.371Z" fill="#fff" opacity="0.32" style="isolation: isolate"/>
    </g>
  </g>
  <path id="Path_5447" data-name="Path 5447" d="M37.59,20.62c-.029-.044-.065-.082-.1-.124q-.327-.468-.692-.9-.1-.118-.2-.234-.376-.423-.789-.807c-.051-.047-.1-.1-.149-.143a11.676,11.676,0,0,0-2.213-1.57c-.031-.017-.065-.032-.1-.05a11.594,11.594,0,0,0-1.084-.507c-.083-.032-.159-.061-.238-.088q-.494-.186-1-.326c-.1-.028-.2-.057-.3-.082-.334-.081-.667-.144-1.008-.194-.1-.016-.2-.037-.309-.05a10.361,10.361,0,0,0-2.645,0c-.1.013-.2.034-.309.05-.341.05-.678.113-1.008.194-.1.025-.2.054-.3.082q-.511.14-1,.326c-.083.03-.159.06-.238.088a11.594,11.594,0,0,0-1.084.507c-.032.018-.066.033-.1.05a11.635,11.635,0,0,0-2.22,1.57c-.051.047-.1.1-.149.143a11.113,11.113,0,0,0-.789.807c-.068.077-.135.155-.2.234q-.366.432-.692.9c-.03.042-.066.08-.095.124l-.01.024a12.7,12.7,0,0,0,0,14.156l.01.024c.029.044.065.081.095.124q.327.468.692.9c.067.079.134.157.2.234q.376.423.789.807c.05.047.1.1.149.142a11.611,11.611,0,0,0,2.212,1.57c.032.018.065.033.1.05a11.224,11.224,0,0,0,1.083.508c.084.031.16.061.239.087q.492.188,1,.327c.1.028.2.057.3.082.333.081.667.143,1.008.194.1.016.2.037.309.05a10.445,10.445,0,0,0,2.644,0c.1-.013.206-.034.309-.05.341-.051.678-.113,1.008-.194.1-.025.2-.054.3-.082a10.434,10.434,0,0,0,1-.327l.239-.087a11.224,11.224,0,0,0,1.083-.508c.033-.017.066-.032.1-.05a11.611,11.611,0,0,0,2.212-1.57c.051-.046.1-.1.15-.142q.416-.385.788-.807c.068-.077.135-.155.2-.234q.366-.433.692-.9c.03-.043.066-.08.1-.124l.01-.024a12.7,12.7,0,0,0,0-14.156Zm-.948,12.522a14.5,14.5,0,0,0-4.053-1.452,17.143,17.143,0,0,0,.466-3.092h4.993A10.8,10.8,0,0,1,36.642,33.142Zm-1.061,1.521c-.2.233-.4.458-.613.671-.053.052-.108.1-.161.153q-.309.3-.639.563c-.057.047-.116.092-.174.137q-.341.262-.7.495l-.167.106q-.378.233-.777.43l-.144.074a9.13,9.13,0,0,1-.846.35c-.043.017-.083.035-.131.051-.289.1-.583.186-.884.263-.046.011-.091.027-.139.038-.114.026-.232.038-.348.06a22.773,22.773,0,0,0,2.244-4.68,13.508,13.508,0,0,1,3.555,1.2C35.633,34.6,35.606,34.632,35.581,34.663Zm-9.753,3.292a8.869,8.869,0,0,1-.884-.263c-.044-.016-.087-.034-.13-.051-.287-.1-.57-.221-.846-.35-.049-.024-.1-.05-.145-.074q-.4-.2-.777-.43l-.166-.106q-.36-.231-.7-.495c-.058-.045-.116-.088-.174-.137a7.712,7.712,0,0,1-.638-.563c-.054-.051-.109-.1-.161-.153-.214-.213-.417-.438-.614-.671-.025-.031-.051-.059-.076-.088a13.5,13.5,0,0,1,3.555-1.2,22.722,22.722,0,0,0,2.244,4.68c-.116-.022-.234-.034-.349-.06C25.92,37.982,25.875,37.966,25.828,37.955Zm-7.7-9.357H23.12a17.056,17.056,0,0,0,.467,3.092,14.49,14.49,0,0,0-4.054,1.452A10.8,10.8,0,0,1,18.126,28.6Zm1.407-6.3a14.5,14.5,0,0,0,4.053,1.453,17.129,17.129,0,0,0-.466,3.092H18.126A10.808,10.808,0,0,1,19.533,22.3Zm1.06-1.52c.2-.233.4-.458.614-.671.052-.053.107-.1.161-.153q.307-.3.638-.564c.058-.046.116-.087.174-.136q.34-.264.7-.5l.167-.106q.379-.234.777-.431c.048-.023.1-.049.144-.073.277-.132.56-.248.846-.351.044-.016.084-.035.131-.05.29-.1.584-.186.884-.263.047-.012.092-.027.139-.038.114-.026.233-.038.349-.06a22.709,22.709,0,0,0-2.245,4.681,13.481,13.481,0,0,1-3.556-1.2C20.541,20.84,20.568,20.812,20.593,20.781Zm9.753-3.292a8.459,8.459,0,0,1,.884.262c.044.016.087.035.131.051q.431.157.846.351c.048.023.1.05.144.073q.4.2.777.431l.167.106q.36.231.7.495c.058.044.117.087.174.136a7.716,7.716,0,0,1,.639.564c.053.05.108.1.161.153.213.213.416.438.613.671.025.031.052.059.077.088a13.515,13.515,0,0,1-3.556,1.2,22.672,22.672,0,0,0-2.244-4.68c.116.022.235.034.349.06C30.255,17.461,30.3,17.477,30.346,17.489ZM28.087,31.226a22.79,22.79,0,0,0-2.848.176,15.255,15.255,0,0,1-.456-2.8h6.609a15.346,15.346,0,0,1-.459,2.8A22.758,22.758,0,0,0,28.087,31.226Zm2.321,1.883a21.665,21.665,0,0,1-2.321,4.555,21.537,21.537,0,0,1-2.323-4.556,20.732,20.732,0,0,1,4.645,0Zm-5.625-6.263a15.344,15.344,0,0,1,.458-2.8,22.769,22.769,0,0,0,2.846.175,22.821,22.821,0,0,0,2.849-.179,15.37,15.37,0,0,1,.456,2.808Zm3.3-4.381a21.185,21.185,0,0,1-2.321-.13,21.688,21.688,0,0,1,2.321-4.555,21.506,21.506,0,0,1,2.323,4.555A20.722,20.722,0,0,1,28.087,22.465Zm4.968,4.381a17.22,17.22,0,0,0-.467-3.092A14.5,14.5,0,0,0,36.642,22.3a10.807,10.807,0,0,1,1.406,4.545Z" transform="translate(0.003 0.005)" fill="#fff"/>
</svg>
