<svg xmlns="http://www.w3.org/2000/svg" width="21.738" height="19.789" viewBox="0 0 21.738 19.789">
  <g id="website" transform="translate(-1.608 -2.583)">
    <path id="Path_311" data-name="Path 311" d="M83.909,199.677a1.718,1.718,0,0,1-.439,1.043,1.664,1.664,0,0,1-1.053.434H69.291a1.484,1.484,0,0,1-1.491-1.472V189.7H83.909V196A18.154,18.154,0,0,1,83.909,199.677Z" transform="translate(-64.495 -180.454)" fill="silver"/>
    <path id="Path_312" data-name="Path 312" d="M52.189,53H35.549A2.535,2.535,0,0,0,33,55.515v13.92a3.381,3.381,0,0,0,3.4,3.353H51.341a3.381,3.381,0,0,0,3.4-3.353.848.848,0,0,0-1.7,0,1.687,1.687,0,0,1-1.7,1.677H36.4a1.687,1.687,0,0,1-1.7-1.677V58.074H53.042v7.17a.848.848,0,0,0,1.7,0V55.515A2.535,2.535,0,0,0,52.189,53Zm-3.436,1.677a.838.838,0,1,1-.848.838A.844.844,0,0,1,48.753,54.677ZM53,55.515a.848.848,0,1,1-.848-.838A.844.844,0,0,1,53,55.515Zm-18.3,0a.844.844,0,0,1,.848-.838h10.8A2.488,2.488,0,0,0,46.36,56.4H34.7Z" transform="translate(-31.392 -50.417)" fill="#fff"/>
    <path id="Path_487" data-name="Path 487" d="M4.609-3.031A2.045,2.045,0,0,0,2.379-5.04,2.056,2.056,0,0,0,.171-2.981,2.07,2.07,0,0,0,2.379-.908,2.094,2.094,0,0,0,4.517-2.376h-1.5a.7.7,0,0,1-.634.3.652.652,0,0,1-.685-.563H4.574A2.5,2.5,0,0,0,4.609-3.031Zm-2.23-.848a.644.644,0,0,1,.685.506H1.708A.642.642,0,0,1,2.379-3.879ZM9.04-1.051,7.791-3.086,8.934-4.9H7.217l-.484.853L6.248-4.9H4.531L5.677-3.081l-1.26,2.03H6.184L6.732-2.09l.549,1.039Z" transform="translate(5.505 19.256)" fill="#fff"/>
  </g>
</svg>
