<svg xmlns="http://www.w3.org/2000/svg" xmlns:xlink="http://www.w3.org/1999/xlink" width="56.165" height="69.292" viewBox="0 0 56.165 69.292">
  <defs>
    <linearGradient id="linear-gradient" x1="0.5" y1="0.41" x2="0.5" y2="2.248" gradientUnits="objectBoundingBox">
      <stop offset="0" stop-opacity="0"/>
      <stop offset="1" stop-opacity="0.302"/>
    </linearGradient>
  </defs>
  <g id="woo-stop" transform="translate(0.002 -0.167)">
    <ellipse id="Ellipse_242" data-name="Ellipse 242" cx="2.808" cy="2.814" rx="2.808" ry="2.814" transform="translate(25.273 63.83)" fill="#9e8eee"/>
    <path id="Path_1999" data-name="Path 1999" d="M23.6,70.279C10.218,69.335,0,64.226,0,58.068,0,51.238,12.573,45.7,28.081,45.7s28.081,5.538,28.081,12.367c0,6.14-10.162,11.232-23.485,12.2-3.894.8-4.6,2.64-4.6,2.64a7.949,7.949,0,0,0-4.48-2.629Z" transform="translate(0 -10.016)" fill-rule="evenodd" fill="url(#linear-gradient)"/>
    <path id="Path_2000" data-name="Path 2000" d="M23.6,55.969a28.081,28.081,0,1,1,9.076-.019,8.707,8.707,0,0,0-4.6,6S26.307,56.919,23.6,55.969Z" fill="#9e8eee" fill-rule="evenodd"/>
    <path id="Path_518" data-name="Path 518" d="M1568.022,2157.378s1.354-2.343,1.979,0a47.553,47.553,0,0,1,.989,5.936l3.645-5.727,2.343,5,2.135-7.081s2.5-.99,1.666,1.874-2.135,10.153-2.135,10.153l-4.27-5.728-3.384,5.728Z" transform="translate(-1552.002 -2132.833)" fill="#fff" opacity="0.5"/>
    <g id="Background" transform="translate(12.265 20.638)">
      <path id="Subtraction_2" data-name="Subtraction 2" d="M19.97,18.163c-.04,0-1.781-.959-5.323-2.931L2.236,15.2l-.359-.137a3.935,3.935,0,0,1-.688-.363,3.2,3.2,0,0,1-.6-.58,4.839,4.839,0,0,1-.565-1.073L.007,7.726C-.009,2.6-.005,2.388.107,2.014A3.449,3.449,0,0,1,.46,1.266,3.168,3.168,0,0,1,1.017.649,3.674,3.674,0,0,1,1.578.278a4,4,0,0,1,.568-.2C2.35.021,3.286,0,12.392,0c3.41,0,8.189,0,15.982.01L28.7.141a4.765,4.765,0,0,1,.688.366,2.827,2.827,0,0,1,.647.616,4.523,4.523,0,0,1,.55,1.04V13.049l-.146.359a3.8,3.8,0,0,1-.419.714,3.217,3.217,0,0,1-.6.58,5.318,5.318,0,0,1-1.047.5l-4.74.015c-2.613.008-4.74.035-4.741.06s.237.622.529,1.331.547,1.348.568,1.42a.16.16,0,0,1,0,.124A.025.025,0,0,1,19.97,18.163ZM2.637,2.231H2.625a1.4,1.4,0,0,0-.562.117A.952.952,0,0,0,1.69,2.7a1.033,1.033,0,0,0-.141.538c0,.165.131,1.077.294,2.034s.407,2.288.541,2.961.352,1.661.48,2.183.332,1.267.452,1.645A9.362,9.362,0,0,0,3.7,13.079a1.951,1.951,0,0,0,.352.493.657.657,0,0,0,.337.164,1.069,1.069,0,0,0,.374-.112,2.135,2.135,0,0,0,.478-.389,7.356,7.356,0,0,0,.577-.77c.178-.273.762-1.373,1.3-2.452s.992-1.959,1.008-1.959a2.2,2.2,0,0,1,.169.464c.077.257.26.773.409,1.152s.414.97.591,1.316.455.829.618,1.077.455.636.65.867a4.147,4.147,0,0,0,.615.6,1.114,1.114,0,0,0,.533.2c.029,0,.059,0,.088,0a.867.867,0,0,0,.379-.078.983.983,0,0,0,.329-.322c.127-.213.137-.311.172-1.75.025-1.014.082-1.869.169-2.542.073-.566.2-1.411.278-1.884s.23-1.217.333-1.645.261-.992.354-1.256.251-.657.35-.867a1.6,1.6,0,0,0,.182-.658,1.1,1.1,0,0,0-.122-.478,1.325,1.325,0,0,0-.339-.359.969.969,0,0,0-.551-.166h-.066a1.559,1.559,0,0,0-.471.065.685.685,0,0,0-.281.2c-.042.064-.2.377-.344.684s-.335.768-.419,1.017-.232.77-.333,1.166-.261,1.187-.359,1.764-.212,1.341-.255,1.69a3.771,3.771,0,0,1-.108.644,5.564,5.564,0,0,1-.281-.733c-.138-.4-.344-1.095-.46-1.541S9.691,5.572,9.62,5.214a5.3,5.3,0,0,0-.258-.924,1.055,1.055,0,0,0-.307-.377.673.673,0,0,0-.388-.1c-.037,0-.076,0-.12,0a.848.848,0,0,0-.508.159,1.682,1.682,0,0,0-.305.328c-.07.1-.7,1.286-1.383,2.58-.665,1.265-1.3,2.481-1.363,2.6s-.085.159-.107.159-.028-.025-.045-.069C4.811,9.514,4.669,8.9,4.519,8.2s-.368-1.8-.481-2.452S3.77,4.183,3.7,3.718a5.753,5.753,0,0,0-.242-1.062.858.858,0,0,0-.307-.326A1.234,1.234,0,0,0,2.637,2.231Zm15.373.805H18a3.956,3.956,0,0,0-.628.08,3.372,3.372,0,0,0-.718.264,4.152,4.152,0,0,0-.688.478,4.873,4.873,0,0,0-.635.733,8.186,8.186,0,0,0-.486.8c-.1.2-.248.547-.331.778a7.592,7.592,0,0,0-.254.957,7.644,7.644,0,0,0-.1,1.286,4.94,4.94,0,0,0,.13,1.286,5.169,5.169,0,0,0,.38,1.017,3.766,3.766,0,0,0,.58.809,3.046,3.046,0,0,0,.659.494,4.259,4.259,0,0,0,.658.252,4.038,4.038,0,0,0,.837.09H17.4a3.4,3.4,0,0,0,.831-.1,4.458,4.458,0,0,0,.6-.231,3.71,3.71,0,0,0,.651-.487,5.235,5.235,0,0,0,.665-.771,8.312,8.312,0,0,0,.434-.718c.081-.161.23-.523.331-.807A8.165,8.165,0,0,0,21.2,8.114a5.868,5.868,0,0,0,.072-1.376A4.964,4.964,0,0,0,21.1,5.513a5.3,5.3,0,0,0-.364-.882,3.851,3.851,0,0,0-.537-.72,3.137,3.137,0,0,0-.7-.509,4.1,4.1,0,0,0-.807-.281A4.021,4.021,0,0,0,18.01,3.036Zm7.779,0h-.017A4.243,4.243,0,0,0,25.2,3.1a3.694,3.694,0,0,0-.745.278,3.185,3.185,0,0,0-.807.58,5.5,5.5,0,0,0-.6.718c-.131.2-.326.533-.434.748a7.637,7.637,0,0,0-.354.867,7.982,7.982,0,0,0-.238.927,8.446,8.446,0,0,0-.081,1.151,6.7,6.7,0,0,0,.093,1.166,5.791,5.791,0,0,0,.27.882,4.412,4.412,0,0,0,.458.8,3.162,3.162,0,0,0,.613.6,4.369,4.369,0,0,0,.688.368,2.479,2.479,0,0,0,1.141.146l.782,0a4.814,4.814,0,0,0,1.362-.848,5.383,5.383,0,0,0,.575-.677A9,9,0,0,0,28.389,10a7.836,7.836,0,0,0,.391-.957A7.488,7.488,0,0,0,29,8.055a8.725,8.725,0,0,0,.045-1.346,3.707,3.707,0,0,0-.192-1.316,5.723,5.723,0,0,0-.35-.807,3.946,3.946,0,0,0-.519-.667,2.722,2.722,0,0,0-.721-.523,4.408,4.408,0,0,0-.807-.274A3.935,3.935,0,0,0,25.789,3.038Z" transform="translate(0.119 0.335)" fill="none" stroke="#fff" stroke-width="1"/>
      <path id="Path_2" data-name="Path 2" d="M272.608,86.1a1.648,1.648,0,0,0-.428.313,5.074,5.074,0,0,0-.437.59,4.406,4.406,0,0,0-.4.867,4.972,4.972,0,0,0-.185.987,3.756,3.756,0,0,0,.03.807,5.473,5.473,0,0,0,.2.658,1.852,1.852,0,0,0,.333.553.929.929,0,0,0,.391.23.913.913,0,0,0,.493-.088,1.975,1.975,0,0,0,.613-.455,3.3,3.3,0,0,0,.492-.7,5.693,5.693,0,0,0,.3-.852,4.333,4.333,0,0,0,.121-.957,4.047,4.047,0,0,0-.095-.837,3.527,3.527,0,0,0-.254-.656,1.422,1.422,0,0,0-.37-.435.846.846,0,0,0-.389-.135A1.3,1.3,0,0,0,272.608,86.1Zm7.82-.025a1.948,1.948,0,0,0-.44.345,4.154,4.154,0,0,0-.475.643,5.047,5.047,0,0,0-.359.778,4.386,4.386,0,0,0-.169.867,5.457,5.457,0,0,0,0,.837,3.611,3.611,0,0,0,.176.718,2.071,2.071,0,0,0,.319.557,1.084,1.084,0,0,0,.362.257.773.773,0,0,0,.434,0,1.757,1.757,0,0,0,.561-.317,2.993,2.993,0,0,0,.541-.643,4.276,4.276,0,0,0,.353-.778,6.772,6.772,0,0,0,.184-.9,2.493,2.493,0,0,0-.036-1.017,3.648,3.648,0,0,0-.279-.837,1.591,1.591,0,0,0-.339-.444.945.945,0,0,0-.4-.136A1.024,1.024,0,0,0,280.428,86.079Z" transform="translate(-254.821 -80.532)" fill="none" stroke="#fff" stroke-width="1"/>
    </g>
  </g>
</svg>
