<svg xmlns="http://www.w3.org/2000/svg" xmlns:xlink="http://www.w3.org/1999/xlink" width="56.165" height="69.292" viewBox="0 0 56.165 69.292">
  <defs>
    <linearGradient id="linear-gradient" x1="0.5" y1="0.41" x2="0.5" y2="2.248" gradientUnits="objectBoundingBox">
      <stop offset="0" stop-opacity="0"/>
      <stop offset="1" stop-opacity="0.302"/>
    </linearGradient>
  </defs>
  <g id="wordpress-stop" transform="translate(-4193 -6633)">
    <g id="android-stop" transform="translate(4193.002 6632.833)">
      <ellipse id="Ellipse_242" data-name="Ellipse 242" cx="2.808" cy="2.814" rx="2.808" ry="2.814" transform="translate(25.273 63.83)" fill="#9d9fa1"/>
      <path id="Path_1999" data-name="Path 1999" d="M23.6,70.279C10.218,69.335,0,64.226,0,58.068,0,51.238,12.573,45.7,28.081,45.7s28.081,5.538,28.081,12.367c0,6.14-10.162,11.232-23.485,12.2-3.894.8-4.6,2.64-4.6,2.64a7.949,7.949,0,0,0-4.48-2.629Z" transform="translate(0 -10.016)" fill-rule="evenodd" fill="url(#linear-gradient)"/>
      <path id="Path_2000" data-name="Path 2000" d="M23.6,55.969a28.081,28.081,0,1,1,9.076-.019,8.707,8.707,0,0,0-4.6,6S26.307,56.919,23.6,55.969Z" fill="#9d9fa1" fill-rule="evenodd"/>
    </g>
    <g id="wordpress" transform="translate(4454.989 6093.227)">
      <circle id="Ellipse_199" data-name="Ellipse 199" cx="9.246" cy="9.246" r="9.246" transform="translate(-244.238 560.897)" fill="#fff" opacity="0.4"/>
      <g id="Group_297" data-name="Group 297" transform="translate(-246.777 557.075)">
        <path id="Path_453" data-name="Path 453" d="M-221.841,567.014l-5.391,13.478a1.4,1.4,0,0,1-1.285.882h0a1.4,1.4,0,0,1-1.285-.856l-3.955-9.4-3.754,9.322a1.359,1.359,0,0,1-1.26.882h-.025a1.4,1.4,0,0,1-1.285-.857l-6.651-15.8a.662.662,0,0,1,.328-.831.662.662,0,0,1,.831.328l6.651,15.8c0,.025.025.076.126.076a.157.157,0,0,0,.126-.076l4.232-10.506-2.041-4.812a.661.661,0,0,1,.328-.831.661.661,0,0,1,.831.328l2.116,5.039,4.56,10.833c0,.025.025.076.126.076a.157.157,0,0,0,.126-.076L-223,566.535c.025-.025,0-.076,0-.126l-2.544-4.006a.649.649,0,0,1,.2-.882.614.614,0,0,1,.857.2l2.545,4.006A1.447,1.447,0,0,1-221.841,567.014Z" transform="translate(246.777 -561.428)"/>
      </g>
      <g id="Group_298" data-name="Group 298" transform="translate(-246.777 557.075)">
        <path id="Path_454" data-name="Path 454" d="M-221.841,567.014l-5.391,13.478a1.4,1.4,0,0,1-1.285.882h0a1.4,1.4,0,0,1-1.285-.856l-3.955-9.4-3.754,9.322a1.359,1.359,0,0,1-1.26.882h-.025a1.4,1.4,0,0,1-1.285-.857l-6.651-15.8a.662.662,0,0,1,.328-.831.662.662,0,0,1,.831.328l6.651,15.8c0,.025.025.076.126.076a.157.157,0,0,0,.126-.076l4.232-10.506-2.041-4.812a.661.661,0,0,1,.328-.831.661.661,0,0,1,.831.328l2.116,5.039,4.56,10.833c0,.025.025.076.126.076a.157.157,0,0,0,.126-.076L-223,566.535c.025-.025,0-.076,0-.126l-2.544-4.006a.649.649,0,0,1,.2-.882.614.614,0,0,1,.857.2l2.545,4.006A1.447,1.447,0,0,1-221.841,567.014Z" transform="translate(246.777 -561.428)" fill="#fff"/>
      </g>
    </g>
  </g>
</svg>
